<?xml version="1.0" encoding="UTF-8" standalone="no"?>
<!DOCTYPE svg PUBLIC "-//W3C//DTD SVG 1.1//EN"
 "http://www.w3.org/Graphics/SVG/1.1/DTD/svg11.dtd">
<!-- Generated by graphviz version 2.38.0 (20140413.2041)
 -->
<!-- Title: AMHCopula.h Pages: 1 -->
<svg width="424pt" height="147pt"
 viewBox="0.00 0.00 423.98 147.00" xmlns="http://www.w3.org/2000/svg" xmlns:xlink="http://www.w3.org/1999/xlink">
<g id="graph0" class="graph" transform="scale(1 1) rotate(0) translate(4 143)">
<title>AMHCopula.h</title>
<polygon fill="white" stroke="none" points="-4,4 -4,-143 419.977,-143 419.977,4 -4,4"/>
<!-- Node1 -->
<g id="node1" class="node"><title>Node1</title>
<polygon fill="#bfbfbf" stroke="black" points="113.477,-120.5 113.477,-138.5 187.477,-138.5 187.477,-120.5 113.477,-120.5"/>
<text text-anchor="middle" x="150.477" y="-127.3" font-family="Helvetica,sans-Serif" font-size="9.00">AMHCopula.h</text>
</g>
<!-- Node2 -->
<g id="node2" class="node"><title>Node2</title>
<polygon fill="white" stroke="#bfbfbf" points="13.4769,-0.5 13.4769,-18.5 51.4769,-18.5 51.4769,-0.5 13.4769,-0.5"/>
<text text-anchor="middle" x="32.4769" y="-7.3" font-family="Helvetica,sans-Serif" font-size="9.00">limits</text>
</g>
<!-- Node1&#45;&gt;Node2 -->
<g id="edge1" class="edge"><title>Node1&#45;&gt;Node2</title>
<path fill="none" stroke="midnightblue" d="M113.219,-128.598C79.0194,-126.451 30.0503,-117.246 5.47692,-84 -7.34044,-66.659 6.0926,-42.5884 18.1661,-26.7858"/>
<polygon fill="midnightblue" stroke="midnightblue" points="20.9477,-28.913 24.5584,-18.9524 15.5243,-24.4873 20.9477,-28.913"/>
</g>
<!-- Node3 -->
<g id="node3" class="node"><title>Node3</title>
<g id="a_node3"><a xlink:href="PriorHessianError_8h.html" target="_top" xlink:title="The Exception classes for the PriorHessian library. ">
<polygon fill="white" stroke="black" points="159.977,-55.5 159.977,-83.5 284.977,-83.5 284.977,-55.5 159.977,-55.5"/>
<text text-anchor="start" x="167.977" y="-72.3" font-family="Helvetica,sans-Serif" font-size="9.00">PriorHessian/PriorHessian</text>
<text text-anchor="middle" x="222.477" y="-62.3" font-family="Helvetica,sans-Serif" font-size="9.00">Error.h</text>
</a>
</g>
</g>
<!-- Node1&#45;&gt;Node3 -->
<g id="edge2" class="edge"><title>Node1&#45;&gt;Node3</title>
<path fill="none" stroke="midnightblue" d="M160.488,-120.435C170.187,-112.622 185.276,-100.468 198.138,-90.1064"/>
<polygon fill="midnightblue" stroke="midnightblue" points="200.598,-92.6193 206.19,-83.6203 196.206,-87.168 200.598,-92.6193"/>
</g>
<!-- Node6 -->
<g id="node6" class="node"><title>Node6</title>
<g id="a_node6"><a xlink:href="ArchimedeanCopula_8h.html" target="_top" xlink:title="CopulaDist base class. ">
<polygon fill="white" stroke="black" points="14.9769,-55.5 14.9769,-83.5 141.977,-83.5 141.977,-55.5 14.9769,-55.5"/>
<text text-anchor="start" x="22.9769" y="-72.3" font-family="Helvetica,sans-Serif" font-size="9.00">PriorHessian/Archimedean</text>
<text text-anchor="middle" x="78.4769" y="-62.3" font-family="Helvetica,sans-Serif" font-size="9.00">Copula.h</text>
</a>
</g>
</g>
<!-- Node1&#45;&gt;Node6 -->
<g id="edge5" class="edge"><title>Node1&#45;&gt;Node6</title>
<path fill="none" stroke="midnightblue" d="M140.466,-120.435C130.766,-112.622 115.678,-100.468 102.816,-90.1064"/>
<polygon fill="midnightblue" stroke="midnightblue" points="104.747,-87.168 94.7642,-83.6203 100.356,-92.6193 104.747,-87.168"/>
</g>
<!-- Node7 -->
<g id="node7" class="node"><title>Node7</title>
<g id="a_node7"><a xlink:href="PolyLog_8h.html" target="_top" xlink:title="Poly log computation for negative integer valued parameters. ">
<polygon fill="white" stroke="black" points="302.977,-60.5 302.977,-78.5 415.977,-78.5 415.977,-60.5 302.977,-60.5"/>
<text text-anchor="middle" x="359.477" y="-67.3" font-family="Helvetica,sans-Serif" font-size="9.00">PriorHessian/PolyLog.h</text>
</a>
</g>
</g>
<!-- Node1&#45;&gt;Node7 -->
<g id="edge7" class="edge"><title>Node1&#45;&gt;Node7</title>
<path fill="none" stroke="midnightblue" d="M179.537,-120.435C216.245,-110.249 279.543,-92.6826 320.442,-81.3328"/>
<polygon fill="midnightblue" stroke="midnightblue" points="321.627,-84.6361 330.327,-78.5894 319.755,-77.891 321.627,-84.6361"/>
</g>
<!-- Node4 -->
<g id="node4" class="node"><title>Node4</title>
<polygon fill="white" stroke="#bfbfbf" points="161.477,-0.5 161.477,-18.5 217.477,-18.5 217.477,-0.5 161.477,-0.5"/>
<text text-anchor="middle" x="189.477" y="-7.3" font-family="Helvetica,sans-Serif" font-size="9.00">exception</text>
</g>
<!-- Node3&#45;&gt;Node4 -->
<g id="edge3" class="edge"><title>Node3&#45;&gt;Node4</title>
<path fill="none" stroke="midnightblue" d="M214.989,-55.3389C210.296,-47.0918 204.202,-36.3796 199.146,-27.4937"/>
<polygon fill="midnightblue" stroke="midnightblue" points="202.17,-25.7323 194.183,-18.7715 196.086,-29.194 202.17,-25.7323"/>
</g>
<!-- Node5 -->
<g id="node5" class="node"><title>Node5</title>
<polygon fill="white" stroke="#bfbfbf" points="235.977,-0.5 235.977,-18.5 274.977,-18.5 274.977,-0.5 235.977,-0.5"/>
<text text-anchor="middle" x="255.477" y="-7.3" font-family="Helvetica,sans-Serif" font-size="9.00">string</text>
</g>
<!-- Node3&#45;&gt;Node5 -->
<g id="edge4" class="edge"><title>Node3&#45;&gt;Node5</title>
<path fill="none" stroke="midnightblue" d="M229.965,-55.3389C234.657,-47.0918 240.752,-36.3796 245.808,-27.4937"/>
<polygon fill="midnightblue" stroke="midnightblue" points="248.868,-29.194 250.771,-18.7715 242.783,-25.7323 248.868,-29.194"/>
</g>
<!-- Node6&#45;&gt;Node2 -->
<g id="edge6" class="edge"><title>Node6&#45;&gt;Node2</title>
<path fill="none" stroke="midnightblue" d="M68.0388,-55.3389C61.2893,-46.8286 52.4578,-35.6933 45.2845,-26.6486"/>
<polygon fill="midnightblue" stroke="midnightblue" points="47.9933,-24.4316 39.037,-18.7715 42.5088,-28.7814 47.9933,-24.4316"/>
</g>
</g>
</svg>
