<?xml version="1.0" encoding="UTF-8" standalone="no"?>
<!DOCTYPE svg PUBLIC "-//W3C//DTD SVG 1.1//EN"
 "http://www.w3.org/Graphics/SVG/1.1/DTD/svg11.dtd">
<!-- Generated by graphviz version 2.38.0 (20140413.2041)
 -->
<!-- Title: BaseDist.h Pages: 1 -->
<svg width="1215pt" height="202pt"
 viewBox="0.00 0.00 1214.50 202.00" xmlns="http://www.w3.org/2000/svg" xmlns:xlink="http://www.w3.org/1999/xlink">
<g id="graph0" class="graph" transform="scale(1 1) rotate(0) translate(4 198)">
<title>BaseDist.h</title>
<polygon fill="white" stroke="none" points="-4,4 -4,-198 1210.5,-198 1210.5,4 -4,4"/>
<!-- Node1 -->
<g id="node1" class="node"><title>Node1</title>
<polygon fill="#bfbfbf" stroke="black" points="375,-175.5 375,-193.5 436,-193.5 436,-175.5 375,-175.5"/>
<text text-anchor="middle" x="405.5" y="-182.3" font-family="Helvetica,sans-Serif" font-size="9.00">BaseDist.h</text>
</g>
<!-- Node2 -->
<g id="node2" class="node"><title>Node2</title>
<g id="a_node2"><a xlink:href="MultivariateDist_8h.html" target="_top" xlink:title="MultivariateDist base class. ">
<polygon fill="white" stroke="black" points="234,-120.5 234,-138.5 321,-138.5 321,-120.5 234,-120.5"/>
<text text-anchor="middle" x="277.5" y="-127.3" font-family="Helvetica,sans-Serif" font-size="9.00">MultivariateDist.h</text>
</a>
</g>
</g>
<!-- Node1&#45;&gt;Node2 -->
<g id="edge1" class="edge"><title>Node1&#45;&gt;Node2</title>
<path fill="none" stroke="midnightblue" d="M376.645,-171.552C352.379,-161.505 318.342,-147.411 297.123,-138.625"/>
<polygon fill="midnightblue" stroke="midnightblue" points="375.481,-174.858 386.06,-175.45 378.159,-168.391 375.481,-174.858"/>
</g>
<!-- Node8 -->
<g id="node8" class="node"><title>Node8</title>
<g id="a_node8"><a xlink:href="UnivariateDist_8h.html" target="_top" xlink:title="UnivariateDist base class. ">
<polygon fill="white" stroke="black" points="445.5,-120.5 445.5,-138.5 527.5,-138.5 527.5,-120.5 445.5,-120.5"/>
<text text-anchor="middle" x="486.5" y="-127.3" font-family="Helvetica,sans-Serif" font-size="9.00">UnivariateDist.h</text>
</a>
</g>
</g>
<!-- Node1&#45;&gt;Node8 -->
<g id="edge7" class="edge"><title>Node1&#45;&gt;Node8</title>
<path fill="none" stroke="midnightblue" d="M426.481,-169.772C441.577,-159.894 461.43,-146.904 474.082,-138.625"/>
<polygon fill="midnightblue" stroke="midnightblue" points="424.254,-167.046 417.802,-175.45 428.086,-172.904 424.254,-167.046"/>
</g>
<!-- Node3 -->
<g id="node3" class="node"><title>Node3</title>
<g id="a_node3"><a xlink:href="CompositeDist_8h.html" target="_top" xlink:title="The Frank copula computations. ">
<polygon fill="white" stroke="black" points="188.5,-65.5 188.5,-83.5 272.5,-83.5 272.5,-65.5 188.5,-65.5"/>
<text text-anchor="middle" x="230.5" y="-72.3" font-family="Helvetica,sans-Serif" font-size="9.00">CompositeDist.h</text>
</a>
</g>
</g>
<!-- Node2&#45;&gt;Node3 -->
<g id="edge2" class="edge"><title>Node2&#45;&gt;Node3</title>
<path fill="none" stroke="midnightblue" d="M263.341,-112.533C254.858,-102.967 244.435,-91.2143 237.638,-83.5496"/>
<polygon fill="midnightblue" stroke="midnightblue" points="260.903,-115.059 270.156,-120.219 266.14,-110.415 260.903,-115.059"/>
</g>
<!-- Node5 -->
<g id="node5" class="node"><title>Node5</title>
<g id="a_node5"><a xlink:href="CopulaDist_8h.html" target="_top" xlink:title="CopulaDist base class. ">
<polygon fill="white" stroke="black" points="290.5,-65.5 290.5,-83.5 360.5,-83.5 360.5,-65.5 290.5,-65.5"/>
<text text-anchor="middle" x="325.5" y="-72.3" font-family="Helvetica,sans-Serif" font-size="9.00">CopulaDist.h</text>
</a>
</g>
</g>
<!-- Node2&#45;&gt;Node5 -->
<g id="edge4" class="edge"><title>Node2&#45;&gt;Node5</title>
<path fill="none" stroke="midnightblue" d="M291.961,-112.533C300.624,-102.967 311.268,-91.2143 318.21,-83.5496"/>
<polygon fill="midnightblue" stroke="midnightblue" points="289.119,-110.457 285,-120.219 294.307,-115.156 289.119,-110.457"/>
</g>
<!-- Node6 -->
<g id="node6" class="node"><title>Node6</title>
<g id="a_node6"><a xlink:href="MultivariateNormalDist_8h.html" target="_top" xlink:title="MultivariateNormalDist base class. ">
<polygon fill="white" stroke="black" points="46,-65.5 46,-83.5 163,-83.5 163,-65.5 46,-65.5"/>
<text text-anchor="middle" x="104.5" y="-72.3" font-family="Helvetica,sans-Serif" font-size="9.00">MultivariateNormalDist.h</text>
</a>
</g>
</g>
<!-- Node2&#45;&gt;Node6 -->
<g id="edge5" class="edge"><title>Node2&#45;&gt;Node6</title>
<path fill="none" stroke="midnightblue" d="M241.493,-117.469C208.448,-107.345 160.276,-92.5875 130.738,-83.5383"/>
<polygon fill="midnightblue" stroke="midnightblue" points="240.638,-120.868 251.225,-120.45 242.689,-114.175 240.638,-120.868"/>
</g>
<!-- Node4 -->
<g id="node4" class="node"><title>Node4</title>
<g id="a_node4"><a xlink:href="CompositeDist_8cpp.html" target="_top" xlink:title="CompositeDist and associated classes and nested classes. ">
<polygon fill="white" stroke="black" points="153.5,-5.5 153.5,-23.5 247.5,-23.5 247.5,-5.5 153.5,-5.5"/>
<text text-anchor="middle" x="200.5" y="-12.3" font-family="Helvetica,sans-Serif" font-size="9.00">CompositeDist.cpp</text>
</a>
</g>
</g>
<!-- Node3&#45;&gt;Node4 -->
<g id="edge3" class="edge"><title>Node3&#45;&gt;Node4</title>
<path fill="none" stroke="midnightblue" d="M221.729,-56.5425C216.173,-45.8015 209.231,-32.3805 204.83,-23.8718"/>
<polygon fill="midnightblue" stroke="midnightblue" points="218.626,-58.1612 226.329,-65.4353 224.843,-54.9452 218.626,-58.1612"/>
</g>
<!-- Node7 -->
<g id="node7" class="node"><title>Node7</title>
<g id="a_node7"><a xlink:href="TruncatedMultivariateNormalDist_8h.html" target="_top" xlink:title="TruncatedMultivariateNormalDist class declaration. ">
<polygon fill="white" stroke="black" points="0,-0.5 0,-28.5 135,-28.5 135,-0.5 0,-0.5"/>
<text text-anchor="start" x="8" y="-17.3" font-family="Helvetica,sans-Serif" font-size="9.00">TruncatedMultivariateNormal</text>
<text text-anchor="middle" x="67.5" y="-7.3" font-family="Helvetica,sans-Serif" font-size="9.00">Dist.h</text>
</a>
</g>
</g>
<!-- Node6&#45;&gt;Node7 -->
<g id="edge6" class="edge"><title>Node6&#45;&gt;Node7</title>
<path fill="none" stroke="midnightblue" d="M93.8155,-56.7514C88.158,-47.8828 81.3057,-37.1413 76.0118,-28.8428"/>
<polygon fill="midnightblue" stroke="midnightblue" points="91.0264,-58.8871 99.3553,-65.4353 96.9278,-55.1223 91.0264,-58.8871"/>
</g>
<!-- Node8&#45;&gt;Node3 -->
<g id="edge9" class="edge"><title>Node8&#45;&gt;Node3</title>
<path fill="none" stroke="midnightblue" d="M437.581,-118.372C388.646,-108.241 314.355,-92.8606 269.327,-83.5383"/>
<polygon fill="midnightblue" stroke="midnightblue" points="437.117,-121.85 447.619,-120.45 438.536,-114.996 437.117,-121.85"/>
</g>
<!-- Node8&#45;&gt;Node5 -->
<g id="edge10" class="edge"><title>Node8&#45;&gt;Node5</title>
<path fill="none" stroke="midnightblue" d="M452.192,-117.206C421.466,-107.091 377.17,-92.5095 349.918,-83.5383"/>
<polygon fill="midnightblue" stroke="midnightblue" points="451.455,-120.648 462.048,-120.45 453.643,-113.999 451.455,-120.648"/>
</g>
<!-- Node9 -->
<g id="node9" class="node"><title>Node9</title>
<g id="a_node9"><a xlink:href="UnivariateDist_8cpp.html" target="_top" xlink:title="UnivariateDist base class method definition. ">
<polygon fill="white" stroke="black" points="498.5,-65.5 498.5,-83.5 590.5,-83.5 590.5,-65.5 498.5,-65.5"/>
<text text-anchor="middle" x="544.5" y="-72.3" font-family="Helvetica,sans-Serif" font-size="9.00">UnivariateDist.cpp</text>
</a>
</g>
</g>
<!-- Node8&#45;&gt;Node9 -->
<g id="edge8" class="edge"><title>Node8&#45;&gt;Node9</title>
<path fill="none" stroke="midnightblue" d="M503.028,-113.397C513.658,-103.683 527.049,-91.4466 535.691,-83.5496"/>
<polygon fill="midnightblue" stroke="midnightblue" points="500.584,-110.889 495.562,-120.219 505.306,-116.057 500.584,-110.889"/>
</g>
<!-- Node10 -->
<g id="node10" class="node"><title>Node10</title>
<g id="a_node10"><a xlink:href="GammaDist_8h.html" target="_top" xlink:title="GammaDist class declaration and templated methods. ">
<polygon fill="white" stroke="black" points="608.5,-65.5 608.5,-83.5 680.5,-83.5 680.5,-65.5 608.5,-65.5"/>
<text text-anchor="middle" x="644.5" y="-72.3" font-family="Helvetica,sans-Serif" font-size="9.00">GammaDist.h</text>
</a>
</g>
</g>
<!-- Node8&#45;&gt;Node10 -->
<g id="edge11" class="edge"><title>Node8&#45;&gt;Node10</title>
<path fill="none" stroke="midnightblue" d="M520.169,-117.206C550.322,-107.091 593.792,-92.5095 620.537,-83.5383"/>
<polygon fill="midnightblue" stroke="midnightblue" points="518.865,-113.952 510.497,-120.45 521.091,-120.588 518.865,-113.952"/>
</g>
<!-- Node13 -->
<g id="node13" class="node"><title>Node13</title>
<g id="a_node13"><a xlink:href="NormalDist_8h.html" target="_top" xlink:title="NormalDist class declaration and templated methods. ">
<polygon fill="white" stroke="black" points="780.5,-65.5 780.5,-83.5 850.5,-83.5 850.5,-65.5 780.5,-65.5"/>
<text text-anchor="middle" x="815.5" y="-72.3" font-family="Helvetica,sans-Serif" font-size="9.00">NormalDist.h</text>
</a>
</g>
</g>
<!-- Node8&#45;&gt;Node13 -->
<g id="edge14" class="edge"><title>Node8&#45;&gt;Node13</title>
<path fill="none" stroke="midnightblue" d="M537.461,-120.29C604.761,-109.449 721.562,-90.6329 780.025,-81.2148"/>
<polygon fill="midnightblue" stroke="midnightblue" points="536.819,-116.849 527.503,-121.895 537.932,-123.76 536.819,-116.849"/>
</g>
<!-- Node16 -->
<g id="node16" class="node"><title>Node16</title>
<g id="a_node16"><a xlink:href="ParetoDist_8h.html" target="_top" xlink:title="ParetoDist class declaration and templated methods. ">
<polygon fill="white" stroke="black" points="1008,-65.5 1008,-83.5 1075,-83.5 1075,-65.5 1008,-65.5"/>
<text text-anchor="middle" x="1041.5" y="-72.3" font-family="Helvetica,sans-Serif" font-size="9.00">ParetoDist.h</text>
</a>
</g>
</g>
<!-- Node8&#45;&gt;Node16 -->
<g id="edge17" class="edge"><title>Node8&#45;&gt;Node16</title>
<path fill="none" stroke="midnightblue" d="M537.809,-123.6C649.945,-112.892 914.303,-87.6467 1007.92,-78.7068"/>
<polygon fill="midnightblue" stroke="midnightblue" points="537.384,-120.125 527.762,-124.56 538.049,-127.093 537.384,-120.125"/>
</g>
<!-- Node19 -->
<g id="node19" class="node"><title>Node19</title>
<g id="a_node19"><a xlink:href="SymmetricBetaDist_8h.html" target="_top" xlink:title="SymmetricBetaDist class declaration and templated methods. ">
<polygon fill="white" stroke="black" points="379,-65.5 379,-83.5 480,-83.5 480,-65.5 379,-65.5"/>
<text text-anchor="middle" x="429.5" y="-72.3" font-family="Helvetica,sans-Serif" font-size="9.00">SymmetricBetaDist.h</text>
</a>
</g>
</g>
<!-- Node8&#45;&gt;Node19 -->
<g id="edge20" class="edge"><title>Node8&#45;&gt;Node19</title>
<path fill="none" stroke="midnightblue" d="M470.257,-113.397C459.81,-103.683 446.65,-91.4466 438.157,-83.5496"/>
<polygon fill="midnightblue" stroke="midnightblue" points="467.887,-115.972 477.594,-120.219 472.654,-110.846 467.887,-115.972"/>
</g>
<!-- Node11 -->
<g id="node11" class="node"><title>Node11</title>
<g id="a_node11"><a xlink:href="GammaDist_8cpp.html" target="_top" xlink:title="GammaDist class defintion. ">
<polygon fill="white" stroke="black" points="543.5,-5.5 543.5,-23.5 625.5,-23.5 625.5,-5.5 543.5,-5.5"/>
<text text-anchor="middle" x="584.5" y="-12.3" font-family="Helvetica,sans-Serif" font-size="9.00">GammaDist.cpp</text>
</a>
</g>
</g>
<!-- Node10&#45;&gt;Node11 -->
<g id="edge12" class="edge"><title>Node10&#45;&gt;Node11</title>
<path fill="none" stroke="midnightblue" d="M628.966,-58.4834C617.566,-47.4633 602.502,-32.9015 593.16,-23.8718"/>
<polygon fill="midnightblue" stroke="midnightblue" points="626.535,-61.0016 636.157,-65.4353 631.4,-55.9686 626.535,-61.0016"/>
</g>
<!-- Node12 -->
<g id="node12" class="node"><title>Node12</title>
<g id="a_node12"><a xlink:href="TruncatedGammaDist_8h.html" target="_top" xlink:title="TruncatedGammaDist class declaration and templated methods. ">
<polygon fill="white" stroke="black" points="644,-5.5 644,-23.5 757,-23.5 757,-5.5 644,-5.5"/>
<text text-anchor="middle" x="700.5" y="-12.3" font-family="Helvetica,sans-Serif" font-size="9.00">TruncatedGammaDist.h</text>
</a>
</g>
</g>
<!-- Node10&#45;&gt;Node12 -->
<g id="edge13" class="edge"><title>Node10&#45;&gt;Node12</title>
<path fill="none" stroke="midnightblue" d="M659.307,-58.1646C669.909,-47.1838 683.782,-32.8146 692.417,-23.8718"/>
<polygon fill="midnightblue" stroke="midnightblue" points="656.715,-55.8102 652.287,-65.4353 661.75,-60.6724 656.715,-55.8102"/>
</g>
<!-- Node14 -->
<g id="node14" class="node"><title>Node14</title>
<g id="a_node14"><a xlink:href="NormalDist_8cpp.html" target="_top" xlink:title="NormalDist class defintion. ">
<polygon fill="white" stroke="black" points="775.5,-5.5 775.5,-23.5 855.5,-23.5 855.5,-5.5 775.5,-5.5"/>
<text text-anchor="middle" x="815.5" y="-12.3" font-family="Helvetica,sans-Serif" font-size="9.00">NormalDist.cpp</text>
</a>
</g>
</g>
<!-- Node13&#45;&gt;Node14 -->
<g id="edge15" class="edge"><title>Node13&#45;&gt;Node14</title>
<path fill="none" stroke="midnightblue" d="M815.5,-55.2144C815.5,-44.7141 815.5,-32.0332 815.5,-23.8718"/>
<polygon fill="midnightblue" stroke="midnightblue" points="812,-55.4353 815.5,-65.4353 819,-55.4354 812,-55.4353"/>
</g>
<!-- Node15 -->
<g id="node15" class="node"><title>Node15</title>
<g id="a_node15"><a xlink:href="TruncatedNormalDist_8h.html" target="_top" xlink:title="TruncatedNormalDist class declaration. ">
<polygon fill="white" stroke="black" points="874,-5.5 874,-23.5 985,-23.5 985,-5.5 874,-5.5"/>
<text text-anchor="middle" x="929.5" y="-12.3" font-family="Helvetica,sans-Serif" font-size="9.00">TruncatedNormalDist.h</text>
</a>
</g>
</g>
<!-- Node13&#45;&gt;Node15 -->
<g id="edge16" class="edge"><title>Node13&#45;&gt;Node15</title>
<path fill="none" stroke="midnightblue" d="M840.5,-60.7806C862.688,-49.4922 894.445,-33.3351 913.416,-23.6831"/>
<polygon fill="midnightblue" stroke="midnightblue" points="838.677,-57.7812 831.351,-65.4353 841.851,-64.0202 838.677,-57.7812"/>
</g>
<!-- Node17 -->
<g id="node17" class="node"><title>Node17</title>
<g id="a_node17"><a xlink:href="ParetoDist_8cpp.html" target="_top" xlink:title="ParetoDist class defintion. ">
<polygon fill="white" stroke="black" points="1003,-5.5 1003,-23.5 1080,-23.5 1080,-5.5 1003,-5.5"/>
<text text-anchor="middle" x="1041.5" y="-12.3" font-family="Helvetica,sans-Serif" font-size="9.00">ParetoDist.cpp</text>
</a>
</g>
</g>
<!-- Node16&#45;&gt;Node17 -->
<g id="edge18" class="edge"><title>Node16&#45;&gt;Node17</title>
<path fill="none" stroke="midnightblue" d="M1041.5,-55.2144C1041.5,-44.7141 1041.5,-32.0332 1041.5,-23.8718"/>
<polygon fill="midnightblue" stroke="midnightblue" points="1038,-55.4353 1041.5,-65.4353 1045,-55.4354 1038,-55.4353"/>
</g>
<!-- Node18 -->
<g id="node18" class="node"><title>Node18</title>
<g id="a_node18"><a xlink:href="TruncatedParetoDist_8h.html" target="_top" xlink:title="ParetoDist class declaration and templated methods. ">
<polygon fill="white" stroke="black" points="1098.5,-5.5 1098.5,-23.5 1206.5,-23.5 1206.5,-5.5 1098.5,-5.5"/>
<text text-anchor="middle" x="1152.5" y="-12.3" font-family="Helvetica,sans-Serif" font-size="9.00">TruncatedParetoDist.h</text>
</a>
</g>
</g>
<!-- Node16&#45;&gt;Node18 -->
<g id="edge19" class="edge"><title>Node16&#45;&gt;Node18</title>
<path fill="none" stroke="midnightblue" d="M1065.84,-60.7806C1087.45,-49.4922 1118.37,-33.3351 1136.84,-23.6831"/>
<polygon fill="midnightblue" stroke="midnightblue" points="1064.18,-57.7021 1056.93,-65.4353 1067.42,-63.9062 1064.18,-57.7021"/>
</g>
<!-- Node20 -->
<g id="node20" class="node"><title>Node20</title>
<g id="a_node20"><a xlink:href="SymmetricBetaDist_8cpp.html" target="_top" xlink:title="SymmetricBetaDist class defintion. ">
<polygon fill="white" stroke="black" points="266,-5.5 266,-23.5 377,-23.5 377,-5.5 266,-5.5"/>
<text text-anchor="middle" x="321.5" y="-12.3" font-family="Helvetica,sans-Serif" font-size="9.00">SymmetricBetaDist.cpp</text>
</a>
</g>
</g>
<!-- Node19&#45;&gt;Node20 -->
<g id="edge21" class="edge"><title>Node19&#45;&gt;Node20</title>
<path fill="none" stroke="midnightblue" d="M405.532,-60.6284C384.526,-49.3474 354.63,-33.2918 336.738,-23.6831"/>
<polygon fill="midnightblue" stroke="midnightblue" points="404.017,-63.7875 414.483,-65.4353 407.329,-57.6205 404.017,-63.7875"/>
</g>
<!-- Node21 -->
<g id="node21" class="node"><title>Node21</title>
<g id="a_node21"><a xlink:href="ScaledSymmetricBetaDist_8h.html" target="_top" xlink:title="SymmetricBetaDist class declaration and templated methods. ">
<polygon fill="white" stroke="black" points="395.5,-5.5 395.5,-23.5 525.5,-23.5 525.5,-5.5 395.5,-5.5"/>
<text text-anchor="middle" x="460.5" y="-12.3" font-family="Helvetica,sans-Serif" font-size="9.00">ScaledSymmetricBetaDist.h</text>
</a>
</g>
</g>
<!-- Node19&#45;&gt;Node21 -->
<g id="edge22" class="edge"><title>Node19&#45;&gt;Node21</title>
<path fill="none" stroke="midnightblue" d="M438.564,-56.5425C444.304,-45.8015 451.478,-32.3805 456.025,-23.8718"/>
<polygon fill="midnightblue" stroke="midnightblue" points="435.437,-54.9662 433.81,-65.4353 441.611,-58.2659 435.437,-54.9662"/>
</g>
</g>
</svg>
