<?xml version="1.0" encoding="UTF-8" standalone="no"?>
<!DOCTYPE svg PUBLIC "-//W3C//DTD SVG 1.1//EN"
 "http://www.w3.org/Graphics/SVG/1.1/DTD/svg11.dtd">
<!-- Generated by graphviz version 2.38.0 (20140413.2041)
 -->
<!-- Title: BoundsAdaptedDist.h Pages: 1 -->
<svg width="344pt" height="137pt"
 viewBox="0.00 0.00 343.50 137.00" xmlns="http://www.w3.org/2000/svg" xmlns:xlink="http://www.w3.org/1999/xlink">
<g id="graph0" class="graph" transform="scale(1 1) rotate(0) translate(4 133)">
<title>BoundsAdaptedDist.h</title>
<polygon fill="white" stroke="none" points="-4,4 -4,-133 339.5,-133 339.5,4 -4,4"/>
<!-- Node1 -->
<g id="node1" class="node"><title>Node1</title>
<polygon fill="#bfbfbf" stroke="black" points="55,-110.5 55,-128.5 161,-128.5 161,-110.5 55,-110.5"/>
<text text-anchor="middle" x="108" y="-117.3" font-family="Helvetica,sans-Serif" font-size="9.00">BoundsAdaptedDist.h</text>
</g>
<!-- Node2 -->
<g id="node2" class="node"><title>Node2</title>
<polygon fill="white" stroke="#bfbfbf" points="0,-55.5 0,-73.5 38,-73.5 38,-55.5 0,-55.5"/>
<text text-anchor="middle" x="19" y="-62.3" font-family="Helvetica,sans-Serif" font-size="9.00">utility</text>
</g>
<!-- Node1&#45;&gt;Node2 -->
<g id="edge1" class="edge"><title>Node1&#45;&gt;Node2</title>
<path fill="none" stroke="midnightblue" d="M94.4828,-110.45C80.3686,-102.045 57.999,-88.7241 41.2699,-78.7618"/>
<polygon fill="midnightblue" stroke="midnightblue" points="43.0271,-75.7347 32.6444,-73.6253 39.4455,-81.7491 43.0271,-75.7347"/>
</g>
<!-- Node3 -->
<g id="node3" class="node"><title>Node3</title>
<polygon fill="white" stroke="#bfbfbf" points="56.5,-55.5 56.5,-73.5 93.5,-73.5 93.5,-55.5 56.5,-55.5"/>
<text text-anchor="middle" x="75" y="-62.3" font-family="Helvetica,sans-Serif" font-size="9.00">tuple</text>
</g>
<!-- Node1&#45;&gt;Node3 -->
<g id="edge2" class="edge"><title>Node1&#45;&gt;Node3</title>
<path fill="none" stroke="midnightblue" d="M102.844,-110.219C98.1669,-102.707 91.1333,-91.411 85.3057,-82.0515"/>
<polygon fill="midnightblue" stroke="midnightblue" points="88.2688,-80.1886 80.012,-73.5496 82.3265,-83.8885 88.2688,-80.1886"/>
</g>
<!-- Node4 -->
<g id="node4" class="node"><title>Node4</title>
<polygon fill="white" stroke="#bfbfbf" points="111.5,-55.5 111.5,-73.5 170.5,-73.5 170.5,-55.5 111.5,-55.5"/>
<text text-anchor="middle" x="141" y="-62.3" font-family="Helvetica,sans-Serif" font-size="9.00">type_traits</text>
</g>
<!-- Node1&#45;&gt;Node4 -->
<g id="edge3" class="edge"><title>Node1&#45;&gt;Node4</title>
<path fill="none" stroke="midnightblue" d="M113.156,-110.219C117.833,-102.707 124.867,-91.411 130.694,-82.0515"/>
<polygon fill="midnightblue" stroke="midnightblue" points="133.674,-83.8885 135.988,-73.5496 127.731,-80.1886 133.674,-83.8885"/>
</g>
<!-- Node5 -->
<g id="node5" class="node"><title>Node5</title>
<g id="a_node5"><a xlink:href="Meta_8h.html" target="_top" xlink:title="Enables the use of variadic templates in interesting ways. ">
<polygon fill="white" stroke="black" points="189,-55.5 189,-73.5 289,-73.5 289,-55.5 189,-55.5"/>
<text text-anchor="middle" x="239" y="-62.3" font-family="Helvetica,sans-Serif" font-size="9.00">PriorHessian/Meta.h</text>
</a>
</g>
</g>
<!-- Node1&#45;&gt;Node5 -->
<g id="edge4" class="edge"><title>Node1&#45;&gt;Node5</title>
<path fill="none" stroke="midnightblue" d="M127.896,-110.45C149.633,-101.656 184.672,-87.4802 209.585,-77.4006"/>
<polygon fill="midnightblue" stroke="midnightblue" points="210.959,-80.6204 218.917,-73.6253 208.334,-74.1313 210.959,-80.6204"/>
</g>
<!-- Node6 -->
<g id="node6" class="node"><title>Node6</title>
<polygon fill="white" stroke="#bfbfbf" points="130,-0.5 130,-18.5 186,-18.5 186,-0.5 130,-0.5"/>
<text text-anchor="middle" x="158" y="-7.3" font-family="Helvetica,sans-Serif" font-size="9.00">functional</text>
</g>
<!-- Node5&#45;&gt;Node6 -->
<g id="edge5" class="edge"><title>Node5&#45;&gt;Node6</title>
<path fill="none" stroke="midnightblue" d="M226.698,-55.4504C214.09,-47.201 194.245,-34.2158 179.119,-24.3187"/>
<polygon fill="midnightblue" stroke="midnightblue" points="180.702,-21.1719 170.418,-18.6253 176.869,-27.0294 180.702,-21.1719"/>
</g>
<!-- Node7 -->
<g id="node7" class="node"><title>Node7</title>
<polygon fill="white" stroke="#bfbfbf" points="204,-0.5 204,-18.5 274,-18.5 274,-0.5 204,-0.5"/>
<text text-anchor="middle" x="239" y="-7.3" font-family="Helvetica,sans-Serif" font-size="9.00">initializer_list</text>
</g>
<!-- Node5&#45;&gt;Node7 -->
<g id="edge6" class="edge"><title>Node5&#45;&gt;Node7</title>
<path fill="none" stroke="midnightblue" d="M239,-55.2188C239,-48.1769 239,-37.8083 239,-28.8277"/>
<polygon fill="midnightblue" stroke="midnightblue" points="242.5,-28.5495 239,-18.5496 235.5,-28.5496 242.5,-28.5495"/>
</g>
<!-- Node8 -->
<g id="node8" class="node"><title>Node8</title>
<polygon fill="white" stroke="#bfbfbf" points="292.5,-0.5 292.5,-18.5 335.5,-18.5 335.5,-0.5 292.5,-0.5"/>
<text text-anchor="middle" x="314" y="-7.3" font-family="Helvetica,sans-Serif" font-size="9.00">cstdint</text>
</g>
<!-- Node5&#45;&gt;Node8 -->
<g id="edge7" class="edge"><title>Node5&#45;&gt;Node8</title>
<path fill="none" stroke="midnightblue" d="M250.391,-55.4504C261.955,-47.2788 280.094,-34.4604 294.048,-24.5996"/>
<polygon fill="midnightblue" stroke="midnightblue" points="296.355,-27.2548 302.502,-18.6253 292.315,-21.5381 296.355,-27.2548"/>
</g>
</g>
</svg>
