<?xml version="1.0" encoding="UTF-8" standalone="no"?>
<!DOCTYPE svg PUBLIC "-//W3C//DTD SVG 1.1//EN"
 "http://www.w3.org/Graphics/SVG/1.1/DTD/svg11.dtd">
<!-- Generated by graphviz version 2.38.0 (20140413.2041)
 -->
<!-- Title: prior_hessian::CompositeDist::global_ubound Pages: 1 -->
<svg width="787pt" height="122pt"
 viewBox="0.00 0.00 787.00 122.18" xmlns="http://www.w3.org/2000/svg" xmlns:xlink="http://www.w3.org/1999/xlink">
<g id="graph0" class="graph" transform="scale(1 1) rotate(0) translate(4 118.179)">
<title>prior_hessian::CompositeDist::global_ubound</title>
<polygon fill="white" stroke="none" points="-4,4 -4,-118.179 783,-118.179 783,4 -4,4"/>
<!-- Node1 -->
<g id="node1" class="node"><title>Node1</title>
<polygon fill="#bfbfbf" stroke="black" points="0,-13.679 0,-41.679 122,-41.679 122,-13.679 0,-13.679"/>
<text text-anchor="start" x="8" y="-30.479" font-family="Helvetica,sans-Serif" font-size="9.00">prior_hessian::Composite</text>
<text text-anchor="middle" x="61" y="-20.479" font-family="Helvetica,sans-Serif" font-size="9.00">Dist::global_ubound</text>
</g>
<!-- Node2 -->
<g id="node2" class="node"><title>Node2</title>
<g id="a_node2"><a xlink:href="classprior__hessian_1_1CompositeDist_1_1ComponentDistAdaptor_3_01Dist_00_01meta_1_1EnableIfSubcld67d34d533dbae21b9dad35557546eec.html#a4c54e572a1f7821dd8da1f33770ae1be" target="_top" xlink:title="prior_hessian::Composite\lDist::ComponentDistAdaptor\l\&lt; Dist, meta::EnableIfSubclassT\l\&lt; Dist, MultivariateDist \&gt; \&gt;\l::append_global_ubound">
<polygon fill="white" stroke="black" points="158,-55.679 158,-113.679 304,-113.679 304,-55.679 158,-55.679"/>
<text text-anchor="start" x="166" y="-102.479" font-family="Helvetica,sans-Serif" font-size="9.00">prior_hessian::Composite</text>
<text text-anchor="start" x="166" y="-92.479" font-family="Helvetica,sans-Serif" font-size="9.00">Dist::ComponentDistAdaptor</text>
<text text-anchor="start" x="166" y="-82.479" font-family="Helvetica,sans-Serif" font-size="9.00">&lt; Dist, meta::EnableIfSubclassT</text>
<text text-anchor="start" x="166" y="-72.479" font-family="Helvetica,sans-Serif" font-size="9.00">&lt; Dist, MultivariateDist &gt; &gt;</text>
<text text-anchor="middle" x="231" y="-62.479" font-family="Helvetica,sans-Serif" font-size="9.00">::append_global_ubound</text>
</a>
</g>
</g>
<!-- Node1&#45;&gt;Node2 -->
<g id="edge1" class="edge"><title>Node1&#45;&gt;Node2</title>
<path fill="none" stroke="midnightblue" d="M113.05,-44.9997C127.182,-49.7942 142.791,-55.0903 157.879,-60.2093"/>
<polygon fill="midnightblue" stroke="midnightblue" points="114.122,-41.6675 103.528,-41.7689 111.873,-48.2963 114.122,-41.6675"/>
</g>
<!-- Node3 -->
<g id="node3" class="node"><title>Node3</title>
<g id="a_node3"><a xlink:href="namespaceprior__hessian.html#ab26e9ddc3b6a5caccf5d75e1a1e1af1b" target="_top" xlink:title="prior_hessian::operator\&lt;\&lt;">
<polygon fill="white" stroke="black" points="170,-18.679 170,-36.679 292,-36.679 292,-18.679 170,-18.679"/>
<text text-anchor="middle" x="231" y="-25.479" font-family="Helvetica,sans-Serif" font-size="9.00">prior_hessian::operator&lt;&lt;</text>
</a>
</g>
</g>
<!-- Node1&#45;&gt;Node3 -->
<g id="edge2" class="edge"><title>Node1&#45;&gt;Node3</title>
<path fill="none" stroke="midnightblue" d="M132.517,-27.679C144.97,-27.679 157.829,-27.679 169.961,-27.679"/>
<polygon fill="midnightblue" stroke="midnightblue" points="132.177,-24.1791 122.177,-27.679 132.177,-31.1791 132.177,-24.1791"/>
</g>
<!-- Node6 -->
<g id="node6" class="node"><title>Node6</title>
<g id="a_node6"><a xlink:href="classprior__hessian_1_1CompositeDist.html#a24bac25ae8c0330b8a3aacadffc9d5ae" target="_top" xlink:title="prior_hessian::Composite\lDist::rllh_components">
<polygon fill="white" stroke="black" points="657,-11.679 657,-39.679 779,-39.679 779,-11.679 657,-11.679"/>
<text text-anchor="start" x="665" y="-28.479" font-family="Helvetica,sans-Serif" font-size="9.00">prior_hessian::Composite</text>
<text text-anchor="middle" x="718" y="-18.479" font-family="Helvetica,sans-Serif" font-size="9.00">Dist::rllh_components</text>
</a>
</g>
</g>
<!-- Node1&#45;&gt;Node6 -->
<g id="edge7" class="edge"><title>Node1&#45;&gt;Node6</title>
<path fill="none" stroke="midnightblue" d="M132.242,-12.2346C140.882,-10.7916 149.619,-9.54693 158,-8.67899 338.84,10.0485 554.203,-7.71551 656.834,-18.6074"/>
<polygon fill="midnightblue" stroke="midnightblue" points="131.412,-8.82681 122.171,-14.0088 132.627,-15.7206 131.412,-8.82681"/>
</g>
<!-- Node4 -->
<g id="node4" class="node"><title>Node4</title>
<g id="a_node4"><a xlink:href="classprior__hessian_1_1CompositeDist.html#a38c4fdacf927824117d202422b04013c" target="_top" xlink:title="prior_hessian::Composite\lDist::set_param_names">
<polygon fill="white" stroke="black" points="340,-16.679 340,-44.679 462,-44.679 462,-16.679 340,-16.679"/>
<text text-anchor="start" x="348" y="-33.479" font-family="Helvetica,sans-Serif" font-size="9.00">prior_hessian::Composite</text>
<text text-anchor="middle" x="401" y="-23.479" font-family="Helvetica,sans-Serif" font-size="9.00">Dist::set_param_names</text>
</a>
</g>
</g>
<!-- Node3&#45;&gt;Node4 -->
<g id="edge3" class="edge"><title>Node3&#45;&gt;Node4</title>
<path fill="none" stroke="midnightblue" d="M302.517,-28.9382C314.97,-29.1606 327.829,-29.3902 339.961,-29.6069"/>
<polygon fill="midnightblue" stroke="midnightblue" points="302.238,-25.4328 292.177,-28.7536 302.113,-32.4317 302.238,-25.4328"/>
</g>
<!-- Node5 -->
<g id="node5" class="node"><title>Node5</title>
<g id="a_node5"><a xlink:href="classprior__hessian_1_1CompositeDist.html#a927fed39b2b4e87714c728d6e7b11e8b" target="_top" xlink:title="prior_hessian::Composite\lDist::params_components">
<polygon fill="white" stroke="black" points="498,-54.679 498,-82.679 621,-82.679 621,-54.679 498,-54.679"/>
<text text-anchor="start" x="506" y="-71.479" font-family="Helvetica,sans-Serif" font-size="9.00">prior_hessian::Composite</text>
<text text-anchor="middle" x="559.5" y="-61.479" font-family="Helvetica,sans-Serif" font-size="9.00">Dist::params_components</text>
</a>
</g>
</g>
<!-- Node4&#45;&gt;Node5 -->
<g id="edge4" class="edge"><title>Node4&#45;&gt;Node5</title>
<path fill="none" stroke="midnightblue" d="M469.635,-47.1015C479.967,-49.6102 490.55,-52.18 500.646,-54.6315"/>
<polygon fill="midnightblue" stroke="midnightblue" points="470.374,-43.6793 459.83,-44.7208 468.722,-50.4816 470.374,-43.6793"/>
</g>
<!-- Node4&#45;&gt;Node6 -->
<g id="edge6" class="edge"><title>Node4&#45;&gt;Node6</title>
<path fill="none" stroke="midnightblue" d="M472.457,-29.5606C527.879,-28.6809 604.264,-27.4685 656.842,-26.6339"/>
<polygon fill="midnightblue" stroke="midnightblue" points="472.306,-26.0625 462.362,-29.7209 472.417,-33.0616 472.306,-26.0625"/>
</g>
<!-- Node5&#45;&gt;Node6 -->
<g id="edge5" class="edge"><title>Node5&#45;&gt;Node6</title>
<path fill="none" stroke="midnightblue" d="M621.709,-51.8612C636.334,-47.8428 651.794,-43.595 665.908,-39.717"/>
<polygon fill="midnightblue" stroke="midnightblue" points="620.459,-48.5748 611.744,-54.5992 622.314,-55.3246 620.459,-48.5748"/>
</g>
</g>
</svg>
