<?xml version="1.0" encoding="UTF-8" standalone="no"?>
<!DOCTYPE svg PUBLIC "-//W3C//DTD SVG 1.1//EN"
 "http://www.w3.org/Graphics/SVG/1.1/DTD/svg11.dtd">
<!-- Generated by graphviz version 2.38.0 (20140413.2041)
 -->
<!-- Title: prior_hessian::CopulaDistImpl::CopulaDist::global_ubound Pages: 1 -->
<svg width="873pt" height="557pt"
 viewBox="0.00 0.00 873.00 557.00" xmlns="http://www.w3.org/2000/svg" xmlns:xlink="http://www.w3.org/1999/xlink">
<g id="graph0" class="graph" transform="scale(1 1) rotate(0) translate(4 553)">
<title>prior_hessian::CopulaDistImpl::CopulaDist::global_ubound</title>
<polygon fill="white" stroke="none" points="-4,4 -4,-553 869,-553 869,4 -4,4"/>
<!-- Node1 -->
<g id="node1" class="node"><title>Node1</title>
<polygon fill="#bfbfbf" stroke="black" points="0,-220.5 0,-248.5 151,-248.5 151,-220.5 0,-220.5"/>
<text text-anchor="start" x="8" y="-237.3" font-family="Helvetica,sans-Serif" font-size="9.00">prior_hessian::CopulaDist</text>
<text text-anchor="middle" x="75.5" y="-227.3" font-family="Helvetica,sans-Serif" font-size="9.00">Impl::CopulaDist::global_ubound</text>
</g>
<!-- Node2 -->
<g id="node2" class="node"><title>Node2</title>
<g id="a_node2"><a xlink:href="namespaceprior__hessian_1_1meta.html#a179314ad7ba735849c4095e735374ab2" target="_top" xlink:title="prior_hessian::meta\l::call_in_order">
<polygon fill="white" stroke="black" points="219,-520.5 219,-548.5 317,-548.5 317,-520.5 219,-520.5"/>
<text text-anchor="start" x="227" y="-537.3" font-family="Helvetica,sans-Serif" font-size="9.00">prior_hessian::meta</text>
<text text-anchor="middle" x="268" y="-527.3" font-family="Helvetica,sans-Serif" font-size="9.00">::call_in_order</text>
</a>
</g>
</g>
<!-- Node1&#45;&gt;Node2 -->
<g id="edge1" class="edge"><title>Node1&#45;&gt;Node2</title>
<path fill="none" stroke="midnightblue" d="M77.8487,-248.735C82.931,-294.21 105.041,-437.325 187,-511.5 193.392,-517.285 201.149,-521.623 209.288,-524.874"/>
<polygon fill="midnightblue" stroke="midnightblue" points="208.365,-528.258 218.96,-528.212 210.649,-521.641 208.365,-528.258"/>
</g>
<!-- Node3 -->
<g id="node3" class="node"><title>Node3</title>
<g id="a_node3"><a xlink:href="classprior__hessian_1_1CopulaDistImpl_1_1CopulaDist.html#a75da47e40ee64dd49fe5c84c2df07ebe" target="_top" xlink:title="prior_hessian::CopulaDist\lImpl::CopulaDist::cdf">
<polygon fill="white" stroke="black" points="206.5,-473.5 206.5,-501.5 329.5,-501.5 329.5,-473.5 206.5,-473.5"/>
<text text-anchor="start" x="214.5" y="-490.3" font-family="Helvetica,sans-Serif" font-size="9.00">prior_hessian::CopulaDist</text>
<text text-anchor="middle" x="268" y="-480.3" font-family="Helvetica,sans-Serif" font-size="9.00">Impl::CopulaDist::cdf</text>
</a>
</g>
</g>
<!-- Node1&#45;&gt;Node3 -->
<g id="edge2" class="edge"><title>Node1&#45;&gt;Node3</title>
<path fill="none" stroke="midnightblue" d="M79.5434,-248.545C88.7031,-287.535 119.636,-398.197 187,-458.5 191.442,-462.477 196.473,-465.92 201.795,-468.9"/>
<polygon fill="midnightblue" stroke="midnightblue" points="200.465,-472.148 210.975,-473.489 203.595,-465.887 200.465,-472.148"/>
</g>
<!-- Node4 -->
<g id="node4" class="node"><title>Node4</title>
<g id="a_node4"><a xlink:href="classprior__hessian_1_1CopulaDistImpl_1_1CopulaDist.html#a4b7bf2f72c81574d9e19a2cd629f264d" target="_top" xlink:title="prior_hessian::CopulaDist\lImpl::CopulaDist::lbound">
<polygon fill="white" stroke="black" points="729.5,-113.5 729.5,-141.5 852.5,-141.5 852.5,-113.5 729.5,-113.5"/>
<text text-anchor="start" x="737.5" y="-130.3" font-family="Helvetica,sans-Serif" font-size="9.00">prior_hessian::CopulaDist</text>
<text text-anchor="middle" x="791" y="-120.3" font-family="Helvetica,sans-Serif" font-size="9.00">Impl::CopulaDist::lbound</text>
</a>
</g>
</g>
<!-- Node1&#45;&gt;Node4 -->
<g id="edge3" class="edge"><title>Node1&#45;&gt;Node4</title>
<path fill="none" stroke="midnightblue" d="M79.6101,-248.729C88.6002,-285.938 118.473,-385.976 187,-425.5 248.792,-461.139 442.866,-454.587 508,-425.5 613.183,-378.529 613.918,-326.147 681,-232.5 700.005,-205.969 693.916,-191.569 717,-168.5 725.675,-159.831 736.562,-152.422 747.26,-146.385"/>
<polygon fill="midnightblue" stroke="midnightblue" points="748.976,-149.436 756.149,-141.639 745.679,-143.261 748.976,-149.436"/>
</g>
<!-- Node5 -->
<g id="node5" class="node"><title>Node5</title>
<g id="a_node5"><a xlink:href="namespaceprior__hessian_1_1meta.html#add11951e7edc2c231ca52c32ac0ee07b" target="_top" xlink:title="prior_hessian::meta\l::logical_and_in_order">
<polygon fill="white" stroke="black" points="213.5,-387.5 213.5,-415.5 322.5,-415.5 322.5,-387.5 213.5,-387.5"/>
<text text-anchor="start" x="221.5" y="-404.3" font-family="Helvetica,sans-Serif" font-size="9.00">prior_hessian::meta</text>
<text text-anchor="middle" x="268" y="-394.3" font-family="Helvetica,sans-Serif" font-size="9.00">::logical_and_in_order</text>
</a>
</g>
</g>
<!-- Node1&#45;&gt;Node5 -->
<g id="edge4" class="edge"><title>Node1&#45;&gt;Node5</title>
<path fill="none" stroke="midnightblue" d="M83.4531,-248.791C98.301,-277.787 135.958,-343.722 187,-378.5 192.173,-382.025 197.885,-385.015 203.806,-387.551"/>
<polygon fill="midnightblue" stroke="midnightblue" points="202.646,-390.854 213.236,-391.173 205.156,-384.32 202.646,-390.854"/>
</g>
<!-- Node7 -->
<g id="node7" class="node"><title>Node7</title>
<g id="a_node7"><a xlink:href="classprior__hessian_1_1CopulaDistImpl_1_1CopulaDist.html#a58218394a4f213053e28925678ace6d4" target="_top" xlink:title="prior_hessian::CopulaDist\lImpl::CopulaDist::num_components">
<polygon fill="white" stroke="black" points="187,-340.5 187,-368.5 349,-368.5 349,-340.5 187,-340.5"/>
<text text-anchor="start" x="195" y="-357.3" font-family="Helvetica,sans-Serif" font-size="9.00">prior_hessian::CopulaDist</text>
<text text-anchor="middle" x="268" y="-347.3" font-family="Helvetica,sans-Serif" font-size="9.00">Impl::CopulaDist::num_components</text>
</a>
</g>
</g>
<!-- Node1&#45;&gt;Node7 -->
<g id="edge6" class="edge"><title>Node1&#45;&gt;Node7</title>
<path fill="none" stroke="midnightblue" d="M88.6421,-248.544C107.581,-269.592 146.233,-309.219 187,-331.5 190.301,-333.304 193.758,-334.979 197.305,-336.533"/>
<polygon fill="midnightblue" stroke="midnightblue" points="196.275,-339.891 206.859,-340.367 198.882,-333.394 196.275,-339.891"/>
</g>
<!-- Node8 -->
<g id="node8" class="node"><title>Node8</title>
<g id="a_node8"><a xlink:href="classprior__hessian_1_1CopulaDistImpl_1_1CopulaDist.html#a371e1bc1823bdeb3783e5ce3c38ba0e4" target="_top" xlink:title="prior_hessian::CopulaDist\lImpl::CopulaDist::num_params">
<polygon fill="white" stroke="black" points="196.5,-293.5 196.5,-321.5 339.5,-321.5 339.5,-293.5 196.5,-293.5"/>
<text text-anchor="start" x="204.5" y="-310.3" font-family="Helvetica,sans-Serif" font-size="9.00">prior_hessian::CopulaDist</text>
<text text-anchor="middle" x="268" y="-300.3" font-family="Helvetica,sans-Serif" font-size="9.00">Impl::CopulaDist::num_params</text>
</a>
</g>
</g>
<!-- Node1&#45;&gt;Node8 -->
<g id="edge7" class="edge"><title>Node1&#45;&gt;Node8</title>
<path fill="none" stroke="midnightblue" d="M104.646,-248.605C126.7,-259.32 158.345,-273.961 187,-284.5 192.561,-286.545 198.393,-288.525 204.266,-290.409"/>
<polygon fill="midnightblue" stroke="midnightblue" points="203.56,-293.854 214.148,-293.481 205.638,-287.17 203.56,-293.854"/>
</g>
<!-- Node9 -->
<g id="node9" class="node"><title>Node9</title>
<g id="a_node9"><a xlink:href="classprior__hessian_1_1CopulaDistImpl_1_1CopulaDist.html#aa35ac17e403f5f7a74852abca16c2847" target="_top" xlink:title="prior_hessian::CopulaDist\lImpl::CopulaDist::pdf">
<polygon fill="white" stroke="black" points="206.5,-246.5 206.5,-274.5 329.5,-274.5 329.5,-246.5 206.5,-246.5"/>
<text text-anchor="start" x="214.5" y="-263.3" font-family="Helvetica,sans-Serif" font-size="9.00">prior_hessian::CopulaDist</text>
<text text-anchor="middle" x="268" y="-253.3" font-family="Helvetica,sans-Serif" font-size="9.00">Impl::CopulaDist::pdf</text>
</a>
</g>
</g>
<!-- Node1&#45;&gt;Node9 -->
<g id="edge8" class="edge"><title>Node1&#45;&gt;Node9</title>
<path fill="none" stroke="midnightblue" d="M151.244,-244.701C166.065,-246.724 181.582,-248.842 196.265,-250.846"/>
<polygon fill="midnightblue" stroke="midnightblue" points="195.896,-254.328 206.278,-252.212 196.843,-247.392 195.896,-254.328"/>
</g>
<!-- Node10 -->
<g id="node10" class="node"><title>Node10</title>
<g id="a_node10"><a xlink:href="classprior__hessian_1_1CopulaDistImpl_1_1CopulaDist.html#ad5f8f42efd9f709625cf60836fa473b9" target="_top" xlink:title="prior_hessian::CopulaDist\lImpl::CopulaDist::set_bounds">
<polygon fill="white" stroke="black" points="544,-194.5 544,-222.5 681,-222.5 681,-194.5 544,-194.5"/>
<text text-anchor="start" x="552" y="-211.3" font-family="Helvetica,sans-Serif" font-size="9.00">prior_hessian::CopulaDist</text>
<text text-anchor="middle" x="612.5" y="-201.3" font-family="Helvetica,sans-Serif" font-size="9.00">Impl::CopulaDist::set_bounds</text>
</a>
</g>
</g>
<!-- Node1&#45;&gt;Node10 -->
<g id="edge9" class="edge"><title>Node1&#45;&gt;Node10</title>
<path fill="none" stroke="midnightblue" d="M151.171,-226.019C252.015,-218.615 430.891,-209.895 533.446,-207.359"/>
<polygon fill="midnightblue" stroke="midnightblue" points="533.82,-210.851 543.736,-207.12 533.657,-203.853 533.82,-210.851"/>
</g>
<!-- Node12 -->
<g id="node12" class="node"><title>Node12</title>
<g id="a_node12"><a xlink:href="classprior__hessian_1_1CopulaDistImpl_1_1CopulaDist.html#ac0819ccaeef1afd7a123338823e8fb3c" target="_top" xlink:title="prior_hessian::CopulaDist\lImpl::CopulaDist::set_lbound">
<polygon fill="white" stroke="black" points="201,-142.5 201,-170.5 335,-170.5 335,-142.5 201,-142.5"/>
<text text-anchor="start" x="209" y="-159.3" font-family="Helvetica,sans-Serif" font-size="9.00">prior_hessian::CopulaDist</text>
<text text-anchor="middle" x="268" y="-149.3" font-family="Helvetica,sans-Serif" font-size="9.00">Impl::CopulaDist::set_lbound</text>
</a>
</g>
</g>
<!-- Node1&#45;&gt;Node12 -->
<g id="edge12" class="edge"><title>Node1&#45;&gt;Node12</title>
<path fill="none" stroke="midnightblue" d="M106.744,-220.407C128.816,-210.289 159.549,-196.546 187,-185.5 196.659,-181.613 207.063,-177.669 217.07,-173.993"/>
<polygon fill="midnightblue" stroke="midnightblue" points="218.303,-177.268 226.505,-170.561 215.911,-170.69 218.303,-177.268"/>
</g>
<!-- Node13 -->
<g id="node13" class="node"><title>Node13</title>
<g id="a_node13"><a xlink:href="classprior__hessian_1_1CopulaDistImpl_1_1CopulaDist.html#abdb39f0c5f7f5f4b16bf501e6083d5b6" target="_top" xlink:title="prior_hessian::CopulaDist\lImpl::CopulaDist::ubound">
<polygon fill="white" stroke="black" points="385,-104.5 385,-132.5 508,-132.5 508,-104.5 385,-104.5"/>
<text text-anchor="start" x="393" y="-121.3" font-family="Helvetica,sans-Serif" font-size="9.00">prior_hessian::CopulaDist</text>
<text text-anchor="middle" x="446.5" y="-111.3" font-family="Helvetica,sans-Serif" font-size="9.00">Impl::CopulaDist::ubound</text>
</a>
</g>
</g>
<!-- Node1&#45;&gt;Node13 -->
<g id="edge24" class="edge"><title>Node1&#45;&gt;Node13</title>
<path fill="none" stroke="midnightblue" d="M86.4539,-220.406C103.796,-197.169 142.028,-151.501 187,-132.5 246.702,-107.275 321.168,-106.026 374.821,-109.746"/>
<polygon fill="midnightblue" stroke="midnightblue" points="374.687,-113.246 384.926,-110.522 375.224,-106.267 374.687,-113.246"/>
</g>
<!-- Node14 -->
<g id="node14" class="node"><title>Node14</title>
<g id="a_node14"><a xlink:href="classprior__hessian_1_1CopulaDistImpl_1_1CopulaDist.html#a4b010ffe2c2acd4dc75c80b32312254d" target="_top" xlink:title="prior_hessian::CopulaDist\lImpl::CopulaDist::set_ubound">
<polygon fill="white" stroke="black" points="544,-23.5 544,-51.5 681,-51.5 681,-23.5 544,-23.5"/>
<text text-anchor="start" x="552" y="-40.3" font-family="Helvetica,sans-Serif" font-size="9.00">prior_hessian::CopulaDist</text>
<text text-anchor="middle" x="612.5" y="-30.3" font-family="Helvetica,sans-Serif" font-size="9.00">Impl::CopulaDist::set_ubound</text>
</a>
</g>
</g>
<!-- Node1&#45;&gt;Node14 -->
<g id="edge23" class="edge"><title>Node1&#45;&gt;Node14</title>
<path fill="none" stroke="midnightblue" d="M81.6044,-220.237C95.0431,-190.704 134.046,-125.219 187,-95.5 296.166,-34.2328 444.583,-24.4951 533.907,-27.5929"/>
<polygon fill="midnightblue" stroke="midnightblue" points="533.83,-31.0926 543.965,-28.006 534.118,-24.0985 533.83,-31.0926"/>
</g>
<!-- Node16 -->
<g id="node16" class="node"><title>Node16</title>
<g id="a_node16"><a xlink:href="classprior__hessian_1_1CopulaDistImpl_1_1CopulaDist.html#a3c76fabe7fefc83aa19454951c1513dd" target="_top" xlink:title="prior_hessian::CopulaDist\lImpl::CopulaDist::set_params_iter">
<polygon fill="white" stroke="black" points="190.5,-0.5 190.5,-28.5 345.5,-28.5 345.5,-0.5 190.5,-0.5"/>
<text text-anchor="start" x="198.5" y="-17.3" font-family="Helvetica,sans-Serif" font-size="9.00">prior_hessian::CopulaDist</text>
<text text-anchor="middle" x="268" y="-7.3" font-family="Helvetica,sans-Serif" font-size="9.00">Impl::CopulaDist::set_params_iter</text>
</a>
</g>
</g>
<!-- Node1&#45;&gt;Node16 -->
<g id="edge22" class="edge"><title>Node1&#45;&gt;Node16</title>
<path fill="none" stroke="midnightblue" d="M80.9084,-220.27C92.4882,-185.168 127.078,-93.6689 187,-43.5 191.832,-39.4546 197.275,-35.9522 202.991,-32.9241"/>
<polygon fill="midnightblue" stroke="midnightblue" points="204.636,-36.0168 212.149,-28.5463 201.617,-29.7013 204.636,-36.0168"/>
</g>
<!-- Node6 -->
<g id="node6" class="node"><title>Node6</title>
<g id="a_node6"><a xlink:href="namespaceprior__hessian_1_1meta.html#a8dd1d78533f7011bebda7009c0591041" target="_top" xlink:title="prior_hessian::meta\l::constexpr_accumulate">
<polygon fill="white" stroke="black" points="390,-387.5 390,-415.5 503,-415.5 503,-387.5 390,-387.5"/>
<text text-anchor="start" x="398" y="-404.3" font-family="Helvetica,sans-Serif" font-size="9.00">prior_hessian::meta</text>
<text text-anchor="middle" x="446.5" y="-394.3" font-family="Helvetica,sans-Serif" font-size="9.00">::constexpr_accumulate</text>
</a>
</g>
</g>
<!-- Node5&#45;&gt;Node6 -->
<g id="edge5" class="edge"><title>Node5&#45;&gt;Node6</title>
<path fill="none" stroke="midnightblue" d="M322.915,-401.5C340.792,-401.5 360.897,-401.5 379.573,-401.5"/>
<polygon fill="midnightblue" stroke="midnightblue" points="379.779,-405 389.779,-401.5 379.779,-398 379.779,-405"/>
</g>
<!-- Node10&#45;&gt;Node1 -->
<g id="edge11" class="edge"><title>Node10&#45;&gt;Node1</title>
<path fill="none" stroke="midnightblue" d="M543.736,-216.467C446.409,-223.82 267.13,-232.67 161.189,-235.471"/>
<polygon fill="midnightblue" stroke="midnightblue" points="161.08,-231.973 151.171,-235.723 161.256,-238.971 161.08,-231.973"/>
</g>
<!-- Node11 -->
<g id="node11" class="node"><title>Node11</title>
<g id="a_node11"><a xlink:href="classprior__hessian_1_1CopulaDistImpl_1_1CopulaDist.html#ab751cebc3c628c353729c8f079ffb984" target="_top" xlink:title="prior_hessian::CopulaDist\lImpl::CopulaDist::global_lbound">
<polygon fill="white" stroke="black" points="717,-177.5 717,-205.5 865,-205.5 865,-177.5 717,-177.5"/>
<text text-anchor="start" x="725" y="-194.3" font-family="Helvetica,sans-Serif" font-size="9.00">prior_hessian::CopulaDist</text>
<text text-anchor="middle" x="791" y="-184.3" font-family="Helvetica,sans-Serif" font-size="9.00">Impl::CopulaDist::global_lbound</text>
</a>
</g>
</g>
<!-- Node10&#45;&gt;Node11 -->
<g id="edge10" class="edge"><title>Node10&#45;&gt;Node11</title>
<path fill="none" stroke="midnightblue" d="M681.235,-201.976C689.619,-201.168 698.266,-200.336 706.848,-199.509"/>
<polygon fill="midnightblue" stroke="midnightblue" points="707.255,-202.986 716.873,-198.543 706.583,-196.018 707.255,-202.986"/>
</g>
<!-- Node12&#45;&gt;Node11 -->
<g id="edge13" class="edge"><title>Node12&#45;&gt;Node11</title>
<path fill="none" stroke="midnightblue" d="M335.249,-160.951C429.807,-167.303 603.42,-178.966 706.609,-185.898"/>
<polygon fill="midnightblue" stroke="midnightblue" points="706.465,-189.396 716.678,-186.574 706.935,-182.412 706.465,-189.396"/>
</g>
<!-- Node12&#45;&gt;Node13 -->
<g id="edge14" class="edge"><title>Node12&#45;&gt;Node13</title>
<path fill="none" stroke="midnightblue" d="M307.734,-142.461C327.357,-137.301 351.811,-131.726 374.646,-127.123"/>
<polygon fill="midnightblue" stroke="midnightblue" points="375.523,-130.517 384.656,-125.148 374.168,-123.65 375.523,-130.517"/>
</g>
<!-- Node13&#45;&gt;Node4 -->
<g id="edge16" class="edge"><title>Node13&#45;&gt;Node4</title>
<path fill="none" stroke="midnightblue" d="M508.337,-120.099C567.426,-121.651 657.087,-124.007 719.314,-125.643"/>
<polygon fill="midnightblue" stroke="midnightblue" points="719.353,-129.145 729.441,-125.909 719.537,-122.147 719.353,-129.145"/>
</g>
<!-- Node13&#45;&gt;Node10 -->
<g id="edge15" class="edge"><title>Node13&#45;&gt;Node10</title>
<path fill="none" stroke="midnightblue" d="M473.125,-132.562C500.965,-147.841 545.609,-172.34 576.629,-189.363"/>
<polygon fill="midnightblue" stroke="midnightblue" points="575.334,-192.645 585.785,-194.388 578.702,-186.509 575.334,-192.645"/>
</g>
<!-- Node13&#45;&gt;Node12 -->
<g id="edge17" class="edge"><title>Node13&#45;&gt;Node12</title>
<path fill="none" stroke="midnightblue" d="M406.873,-132.511C388.767,-137.274 366.532,-142.395 345.246,-146.779"/>
<polygon fill="midnightblue" stroke="midnightblue" points="344.334,-143.392 335.224,-148.802 345.719,-150.254 344.334,-143.392"/>
</g>
<!-- Node13&#45;&gt;Node14 -->
<g id="edge18" class="edge"><title>Node13&#45;&gt;Node14</title>
<path fill="none" stroke="midnightblue" d="M480.266,-104.487C489.471,-100.102 499.329,-94.9668 508,-89.5 525.38,-78.5421 526.002,-70.4088 544,-60.5 547.227,-58.7237 550.615,-57.0496 554.083,-55.478"/>
<polygon fill="midnightblue" stroke="midnightblue" points="555.539,-58.6629 563.398,-51.5573 552.823,-52.2111 555.539,-58.6629"/>
</g>
<!-- Node15 -->
<g id="node15" class="node"><title>Node15</title>
<g id="a_node15"><a xlink:href="classprior__hessian_1_1CopulaDistImpl_1_1CopulaDist.html#a9dca9ab8ba47ecef1a7784fe77c8c40f" target="_top" xlink:title="prior_hessian::CopulaDist\lImpl::CopulaDist::operator==">
<polygon fill="white" stroke="black" points="545.5,-70.5 545.5,-98.5 679.5,-98.5 679.5,-70.5 545.5,-70.5"/>
<text text-anchor="start" x="553.5" y="-87.3" font-family="Helvetica,sans-Serif" font-size="9.00">prior_hessian::CopulaDist</text>
<text text-anchor="middle" x="612.5" y="-77.3" font-family="Helvetica,sans-Serif" font-size="9.00">Impl::CopulaDist::operator==</text>
</a>
</g>
</g>
<!-- Node13&#45;&gt;Node15 -->
<g id="edge21" class="edge"><title>Node13&#45;&gt;Node15</title>
<path fill="none" stroke="midnightblue" d="M508.102,-105.936C517.014,-104.089 526.288,-102.166 535.463,-100.264"/>
<polygon fill="midnightblue" stroke="midnightblue" points="536.276,-103.67 545.357,-98.2125 534.855,-96.8155 536.276,-103.67"/>
</g>
<!-- Node14&#45;&gt;Node1 -->
<g id="edge19" class="edge"><title>Node14&#45;&gt;Node1</title>
<path fill="none" stroke="midnightblue" d="M543.965,-40.3297C456.081,-41.821 300.374,-49.8716 187,-113.5 144.812,-137.177 111.478,-183.556 92.8726,-211.696"/>
<polygon fill="midnightblue" stroke="midnightblue" points="89.8958,-209.853 87.3568,-220.139 95.7561,-213.682 89.8958,-209.853"/>
</g>
<!-- Node14&#45;&gt;Node4 -->
<g id="edge20" class="edge"><title>Node14&#45;&gt;Node4</title>
<path fill="none" stroke="midnightblue" d="M659.434,-51.6082C666.757,-54.296 674.167,-57.2848 681,-60.5 709.618,-73.9647 740.12,-93.1775 761.558,-107.579"/>
<polygon fill="midnightblue" stroke="midnightblue" points="759.636,-110.505 769.874,-113.23 763.57,-104.715 759.636,-110.505"/>
</g>
</g>
</svg>
