<?xml version="1.0" encoding="UTF-8" standalone="no"?>
<!DOCTYPE svg PUBLIC "-//W3C//DTD SVG 1.1//EN"
 "http://www.w3.org/Graphics/SVG/1.1/DTD/svg11.dtd">
<!-- Generated by graphviz version 2.38.0 (20140413.2041)
 -->
<!-- Title: prior_hessian::CopulaDistImpl::CopulaDist::initialize_copula Pages: 1 -->
<svg width="326pt" height="37pt"
 viewBox="0.00 0.00 326.00 37.00" xmlns="http://www.w3.org/2000/svg" xmlns:xlink="http://www.w3.org/1999/xlink">
<g id="graph0" class="graph" transform="scale(1 1) rotate(0) translate(4 33)">
<title>prior_hessian::CopulaDistImpl::CopulaDist::initialize_copula</title>
<polygon fill="white" stroke="none" points="-4,4 -4,-33 322,-33 322,4 -4,4"/>
<!-- Node1 -->
<g id="node1" class="node"><title>Node1</title>
<polygon fill="#bfbfbf" stroke="black" points="0,-0.5 0,-28.5 155,-28.5 155,-0.5 0,-0.5"/>
<text text-anchor="start" x="8" y="-17.3" font-family="Helvetica,sans-Serif" font-size="9.00">prior_hessian::CopulaDist</text>
<text text-anchor="middle" x="77.5" y="-7.3" font-family="Helvetica,sans-Serif" font-size="9.00">Impl::CopulaDist::initialize_copula</text>
</g>
<!-- Node2 -->
<g id="node2" class="node"><title>Node2</title>
<g id="a_node2"><a xlink:href="classprior__hessian_1_1CopulaDistImpl_1_1CopulaDist.html#a26cd71990978df0ddae24dae5148c880" target="_top" xlink:title="prior_hessian::CopulaDist\lImpl::CopulaDist::num_dim">
<polygon fill="white" stroke="black" points="191,-0.5 191,-28.5 318,-28.5 318,-0.5 191,-0.5"/>
<text text-anchor="start" x="199" y="-17.3" font-family="Helvetica,sans-Serif" font-size="9.00">prior_hessian::CopulaDist</text>
<text text-anchor="middle" x="254.5" y="-7.3" font-family="Helvetica,sans-Serif" font-size="9.00">Impl::CopulaDist::num_dim</text>
</a>
</g>
</g>
<!-- Node1&#45;&gt;Node2 -->
<g id="edge1" class="edge"><title>Node1&#45;&gt;Node2</title>
<path fill="none" stroke="midnightblue" d="M165.137,-14.5C173.791,-14.5 182.457,-14.5 190.795,-14.5"/>
<polygon fill="midnightblue" stroke="midnightblue" points="165.003,-11.0001 155.003,-14.5 165.003,-18.0001 165.003,-11.0001"/>
</g>
</g>
</svg>
