<?xml version="1.0" encoding="UTF-8" standalone="no"?>
<!DOCTYPE svg PUBLIC "-//W3C//DTD SVG 1.1//EN"
 "http://www.w3.org/Graphics/SVG/1.1/DTD/svg11.dtd">
<!-- Generated by graphviz version 2.38.0 (20140413.2041)
 -->
<!-- Title: prior_hessian::AMHCopula::llh Pages: 1 -->
<svg width="970pt" height="188pt"
 viewBox="0.00 0.00 970.00 188.00" xmlns="http://www.w3.org/2000/svg" xmlns:xlink="http://www.w3.org/1999/xlink">
<g id="graph0" class="graph" transform="scale(1 1) rotate(0) translate(4 184)">
<title>prior_hessian::AMHCopula::llh</title>
<polygon fill="white" stroke="none" points="-4,4 -4,-184 966,-184 966,4 -4,4"/>
<!-- Node1 -->
<g id="node1" class="node"><title>Node1</title>
<polygon fill="#bfbfbf" stroke="black" points="0,-95.5 0,-113.5 142,-113.5 142,-95.5 0,-95.5"/>
<text text-anchor="middle" x="71" y="-102.3" font-family="Helvetica,sans-Serif" font-size="9.00">prior_hessian::AMHCopula::llh</text>
</g>
<!-- Node2 -->
<g id="node2" class="node"><title>Node2</title>
<g id="a_node2"><a xlink:href="classprior__hessian_1_1AMHCopula.html#a19aecc89d6a1d6c46aa595a13999cfb2" target="_top" xlink:title="prior_hessian::AMHCopula\l::d1_igen">
<polygon fill="white" stroke="black" points="178,-90.5 178,-118.5 306,-118.5 306,-90.5 178,-90.5"/>
<text text-anchor="start" x="186" y="-107.3" font-family="Helvetica,sans-Serif" font-size="9.00">prior_hessian::AMHCopula</text>
<text text-anchor="middle" x="242" y="-97.3" font-family="Helvetica,sans-Serif" font-size="9.00">::d1_igen</text>
</a>
</g>
</g>
<!-- Node1&#45;&gt;Node2 -->
<g id="edge1" class="edge"><title>Node1&#45;&gt;Node2</title>
<path fill="none" stroke="midnightblue" d="M142.203,-104.5C150.585,-104.5 159.16,-104.5 167.585,-104.5"/>
<polygon fill="midnightblue" stroke="midnightblue" points="167.765,-108 177.765,-104.5 167.765,-101 167.765,-108"/>
</g>
<!-- Node3 -->
<g id="node3" class="node"><title>Node3</title>
<g id="a_node3"><a xlink:href="classprior__hessian_1_1AMHCopula.html#a38e091a72ecb8c9df42e88017b2d347e" target="_top" xlink:title="prior_hessian::AMHCopula\l::igen_sum">
<polygon fill="white" stroke="black" points="342,-133.5 342,-161.5 470,-161.5 470,-133.5 342,-133.5"/>
<text text-anchor="start" x="350" y="-150.3" font-family="Helvetica,sans-Serif" font-size="9.00">prior_hessian::AMHCopula</text>
<text text-anchor="middle" x="406" y="-140.3" font-family="Helvetica,sans-Serif" font-size="9.00">::igen_sum</text>
</a>
</g>
</g>
<!-- Node1&#45;&gt;Node3 -->
<g id="edge13" class="edge"><title>Node1&#45;&gt;Node3</title>
<path fill="none" stroke="midnightblue" d="M106.14,-113.5C126.802,-118.629 153.758,-124.76 178,-128.5 228.946,-136.36 286.862,-141.142 331.442,-143.942"/>
<polygon fill="midnightblue" stroke="midnightblue" points="331.413,-147.447 341.608,-144.561 331.839,-140.46 331.413,-147.447"/>
</g>
<!-- Node9 -->
<g id="node9" class="node"><title>Node9</title>
<g id="a_node9"><a xlink:href="classprior__hessian_1_1AMHCopula.html#a9fc68a651139c1c7d28a8144562a09f3" target="_top" xlink:title="prior_hessian::AMHCopula\l::ddim_gen">
<polygon fill="white" stroke="black" points="178,-43.5 178,-71.5 306,-71.5 306,-43.5 178,-43.5"/>
<text text-anchor="start" x="186" y="-60.3" font-family="Helvetica,sans-Serif" font-size="9.00">prior_hessian::AMHCopula</text>
<text text-anchor="middle" x="242" y="-50.3" font-family="Helvetica,sans-Serif" font-size="9.00">::ddim_gen</text>
</a>
</g>
</g>
<!-- Node1&#45;&gt;Node9 -->
<g id="edge10" class="edge"><title>Node1&#45;&gt;Node9</title>
<path fill="none" stroke="midnightblue" d="M104.585,-95.4379C126.188,-89.43 155.182,-81.3665 180.885,-74.2185"/>
<polygon fill="midnightblue" stroke="midnightblue" points="181.855,-77.5814 190.552,-71.5299 179.98,-70.8374 181.855,-77.5814"/>
</g>
<!-- Node2&#45;&gt;Node3 -->
<g id="edge2" class="edge"><title>Node2&#45;&gt;Node3</title>
<path fill="none" stroke="midnightblue" d="M296.045,-118.58C310.806,-122.498 326.978,-126.79 342.239,-130.841"/>
<polygon fill="midnightblue" stroke="midnightblue" points="341.55,-134.279 352.113,-133.462 343.345,-127.514 341.55,-134.279"/>
</g>
<!-- Node4 -->
<g id="node4" class="node"><title>Node4</title>
<g id="a_node4"><a xlink:href="classprior__hessian_1_1AMHCopula.html#a11696b4a8cef12a30706cd745820b201" target="_top" xlink:title="prior_hessian::AMHCopula\l::theta">
<polygon fill="white" stroke="black" points="506,-111.5 506,-139.5 634,-139.5 634,-111.5 506,-111.5"/>
<text text-anchor="start" x="514" y="-128.3" font-family="Helvetica,sans-Serif" font-size="9.00">prior_hessian::AMHCopula</text>
<text text-anchor="middle" x="570" y="-118.3" font-family="Helvetica,sans-Serif" font-size="9.00">::theta</text>
</a>
</g>
</g>
<!-- Node2&#45;&gt;Node4 -->
<g id="edge9" class="edge"><title>Node2&#45;&gt;Node4</title>
<path fill="none" stroke="midnightblue" d="M306.243,-108.574C360.566,-112.073 438.909,-117.12 495.907,-120.792"/>
<polygon fill="midnightblue" stroke="midnightblue" points="495.729,-124.287 505.933,-121.437 496.179,-117.302 495.729,-124.287"/>
</g>
<!-- Node7 -->
<g id="node7" class="node"><title>Node7</title>
<g id="a_node7"><a xlink:href="classprior__hessian_1_1AMHCopula.html#aaacec957c8d8e24df1100aee2694fe3a" target="_top" xlink:title="prior_hessian::AMHCopula\l::num_dim">
<polygon fill="white" stroke="black" points="342,-47.5 342,-75.5 470,-75.5 470,-47.5 342,-47.5"/>
<text text-anchor="start" x="350" y="-64.3" font-family="Helvetica,sans-Serif" font-size="9.00">prior_hessian::AMHCopula</text>
<text text-anchor="middle" x="406" y="-54.3" font-family="Helvetica,sans-Serif" font-size="9.00">::num_dim</text>
</a>
</g>
</g>
<!-- Node2&#45;&gt;Node7 -->
<g id="edge7" class="edge"><title>Node2&#45;&gt;Node7</title>
<path fill="none" stroke="midnightblue" d="M296.045,-90.4202C310.806,-86.5022 326.978,-82.2095 342.239,-78.1587"/>
<polygon fill="midnightblue" stroke="midnightblue" points="343.345,-81.4864 352.113,-75.538 341.55,-74.7207 343.345,-81.4864"/>
</g>
<!-- Node8 -->
<g id="node8" class="node"><title>Node8</title>
<g id="a_node8"><a xlink:href="namespaceprior__hessian_1_1polylog.html#abb5fc2ad3b1509f49ea4b2fc05d916bb" target="_top" xlink:title="prior_hessian::polylog\l::polylog">
<polygon fill="white" stroke="black" points="352.5,-0.5 352.5,-28.5 459.5,-28.5 459.5,-0.5 352.5,-0.5"/>
<text text-anchor="start" x="360.5" y="-17.3" font-family="Helvetica,sans-Serif" font-size="9.00">prior_hessian::polylog</text>
<text text-anchor="middle" x="406" y="-7.3" font-family="Helvetica,sans-Serif" font-size="9.00">::polylog</text>
</a>
</g>
</g>
<!-- Node2&#45;&gt;Node8 -->
<g id="edge8" class="edge"><title>Node2&#45;&gt;Node8</title>
<path fill="none" stroke="midnightblue" d="M288.499,-90.4052C294.644,-87.5896 300.661,-84.3023 306,-80.5 326.302,-66.0407 321.598,-51.8175 342,-37.5 344.127,-36.0076 346.361,-34.6007 348.668,-33.2756"/>
<polygon fill="midnightblue" stroke="midnightblue" points="350.555,-36.2414 357.856,-28.5631 347.361,-30.013 350.555,-36.2414"/>
</g>
<!-- Node3&#45;&gt;Node3 -->
<g id="edge3" class="edge"><title>Node3&#45;&gt;Node3</title>
<path fill="none" stroke="midnightblue" d="M377.96,-161.53C370.067,-170.89 379.414,-180 406,-180 422.616,-180 432.498,-176.441 435.646,-171.487"/>
<polygon fill="midnightblue" stroke="midnightblue" points="439.088,-170.845 434.04,-161.53 432.177,-171.96 439.088,-170.845"/>
</g>
<!-- Node3&#45;&gt;Node4 -->
<g id="edge4" class="edge"><title>Node3&#45;&gt;Node4</title>
<path fill="none" stroke="midnightblue" d="M470.097,-138.931C478.526,-137.787 487.227,-136.605 495.81,-135.439"/>
<polygon fill="midnightblue" stroke="midnightblue" points="496.37,-138.895 505.808,-134.082 495.428,-131.959 496.37,-138.895"/>
</g>
<!-- Node5 -->
<g id="node5" class="node"><title>Node5</title>
<g id="a_node5"><a xlink:href="classprior__hessian_1_1AMHCopula.html#a80bcb09b15bdb3c404f028772932c081" target="_top" xlink:title="prior_hessian::AMHCopula\l::set_theta">
<polygon fill="white" stroke="black" points="670,-111.5 670,-139.5 798,-139.5 798,-111.5 670,-111.5"/>
<text text-anchor="start" x="678" y="-128.3" font-family="Helvetica,sans-Serif" font-size="9.00">prior_hessian::AMHCopula</text>
<text text-anchor="middle" x="734" y="-118.3" font-family="Helvetica,sans-Serif" font-size="9.00">::set_theta</text>
</a>
</g>
</g>
<!-- Node4&#45;&gt;Node5 -->
<g id="edge5" class="edge"><title>Node4&#45;&gt;Node5</title>
<path fill="none" stroke="midnightblue" d="M634.097,-125.5C642.435,-125.5 651.038,-125.5 659.53,-125.5"/>
<polygon fill="midnightblue" stroke="midnightblue" points="659.808,-129 669.808,-125.5 659.808,-122 659.808,-129"/>
</g>
<!-- Node6 -->
<g id="node6" class="node"><title>Node6</title>
<g id="a_node6"><a xlink:href="classprior__hessian_1_1AMHCopula.html#a9d4b8453eedea358f829f8d4c911d8c4" target="_top" xlink:title="prior_hessian::AMHCopula\l::check_theta">
<polygon fill="white" stroke="black" points="834,-111.5 834,-139.5 962,-139.5 962,-111.5 834,-111.5"/>
<text text-anchor="start" x="842" y="-128.3" font-family="Helvetica,sans-Serif" font-size="9.00">prior_hessian::AMHCopula</text>
<text text-anchor="middle" x="898" y="-118.3" font-family="Helvetica,sans-Serif" font-size="9.00">::check_theta</text>
</a>
</g>
</g>
<!-- Node5&#45;&gt;Node6 -->
<g id="edge6" class="edge"><title>Node5&#45;&gt;Node6</title>
<path fill="none" stroke="midnightblue" d="M798.097,-125.5C806.435,-125.5 815.038,-125.5 823.53,-125.5"/>
<polygon fill="midnightblue" stroke="midnightblue" points="823.808,-129 833.808,-125.5 823.808,-122 823.808,-129"/>
</g>
<!-- Node9&#45;&gt;Node7 -->
<g id="edge11" class="edge"><title>Node9&#45;&gt;Node7</title>
<path fill="none" stroke="midnightblue" d="M306.097,-59.058C314.526,-59.2661 323.227,-59.4809 331.81,-59.6928"/>
<polygon fill="midnightblue" stroke="midnightblue" points="331.725,-63.1917 341.808,-59.9397 331.898,-56.1938 331.725,-63.1917"/>
</g>
<!-- Node9&#45;&gt;Node8 -->
<g id="edge12" class="edge"><title>Node9&#45;&gt;Node8</title>
<path fill="none" stroke="midnightblue" d="M296.045,-43.4202C310.881,-39.4821 327.144,-35.1655 342.474,-31.0964"/>
<polygon fill="midnightblue" stroke="midnightblue" points="343.622,-34.413 352.389,-28.4646 341.826,-27.6473 343.622,-34.413"/>
</g>
</g>
</svg>
