<?xml version="1.0" encoding="UTF-8" standalone="no"?>
<!DOCTYPE svg PUBLIC "-//W3C//DTD SVG 1.1//EN"
 "http://www.w3.org/Graphics/SVG/1.1/DTD/svg11.dtd">
<!-- Generated by graphviz version 2.38.0 (20140413.2041)
 -->
<!-- Title: prior_hessian::MultivariateNormalDist&lt; Ndim &gt; Pages: 1 -->
<svg width="148pt" height="147pt"
 viewBox="0.00 0.00 148.00 147.00" xmlns="http://www.w3.org/2000/svg" xmlns:xlink="http://www.w3.org/1999/xlink">
<g id="graph0" class="graph" transform="scale(1 1) rotate(0) translate(4 143)">
<title>prior_hessian::MultivariateNormalDist&lt; Ndim &gt;</title>
<polygon fill="white" stroke="none" points="-4,4 -4,-143 144,-143 144,4 -4,4"/>
<!-- Node1 -->
<g id="node1" class="node"><title>Node1</title>
<polygon fill="#bfbfbf" stroke="black" points="7.5,-0.5 7.5,-28.5 132.5,-28.5 132.5,-0.5 7.5,-0.5"/>
<text text-anchor="start" x="15.5" y="-17.3" font-family="Helvetica,sans-Serif" font-size="9.00">prior_hessian::Multivariate</text>
<text text-anchor="middle" x="70" y="-7.3" font-family="Helvetica,sans-Serif" font-size="9.00">NormalDist&lt; Ndim &gt;</text>
</g>
<!-- Node2 -->
<g id="node2" class="node"><title>Node2</title>
<g id="a_node2"><a xlink:href="classprior__hessian_1_1MultivariateDist.html" target="_top" xlink:title="prior_hessian::MultivariateDist">
<polygon fill="white" stroke="black" points="0,-65.5 0,-83.5 140,-83.5 140,-65.5 0,-65.5"/>
<text text-anchor="middle" x="70" y="-72.3" font-family="Helvetica,sans-Serif" font-size="9.00">prior_hessian::MultivariateDist</text>
</a>
</g>
</g>
<!-- Node2&#45;&gt;Node1 -->
<g id="edge1" class="edge"><title>Node2&#45;&gt;Node1</title>
<path fill="none" stroke="midnightblue" d="M70,-55.3209C70,-46.747 70,-36.6999 70,-28.8428"/>
<polygon fill="midnightblue" stroke="midnightblue" points="66.5001,-55.4353 70,-65.4353 73.5001,-55.4354 66.5001,-55.4353"/>
</g>
<!-- Node3 -->
<g id="node3" class="node"><title>Node3</title>
<g id="a_node3"><a xlink:href="classprior__hessian_1_1BaseDist.html" target="_top" xlink:title="prior_hessian::BaseDist">
<polygon fill="white" stroke="black" points="13,-120.5 13,-138.5 127,-138.5 127,-120.5 13,-120.5"/>
<text text-anchor="middle" x="70" y="-127.3" font-family="Helvetica,sans-Serif" font-size="9.00">prior_hessian::BaseDist</text>
</a>
</g>
</g>
<!-- Node3&#45;&gt;Node2 -->
<g id="edge2" class="edge"><title>Node3&#45;&gt;Node2</title>
<path fill="none" stroke="midnightblue" d="M70,-110.175C70,-101.094 70,-90.5949 70,-83.5496"/>
<polygon fill="midnightblue" stroke="midnightblue" points="66.5001,-110.219 70,-120.219 73.5001,-110.219 66.5001,-110.219"/>
</g>
</g>
</svg>
