<?xml version="1.0" encoding="UTF-8" standalone="no"?>
<!DOCTYPE svg PUBLIC "-//W3C//DTD SVG 1.1//EN"
 "http://www.w3.org/Graphics/SVG/1.1/DTD/svg11.dtd">
<!-- Generated by graphviz version 2.38.0 (20140413.2041)
 -->
<!-- Title: prior_hessian::CopulaDistImpl::CopulaDist::operator== Pages: 1 -->
<!--zoomable 131 -->
<svg id="main" version="1.1" xmlns="http://www.w3.org/2000/svg" xmlns:xlink="http://www.w3.org/1999/xlink" xml:space="preserve" onload="init(evt)">
<style type="text/css"><![CDATA[
.edge:hover path { stroke: red; }
.edge:hover polygon { stroke: red; fill: red; }
]]></style>
<script type="text/javascript"><![CDATA[
var edges = document.getElementsByTagName('g');
if (edges && edges.length) {
  for (var i=0;i<edges.length;i++) {
    if (edges[i].id.substr(0,4)=='edge') {
      edges[i].setAttribute('class','edge');
    }
  }
}
]]></script>
        <defs>
                <circle id="rim" cx="0" cy="0" r="7"/>
                <circle id="rim2" cx="0" cy="0" r="3.5"/>
                <g id="zoomPlus">
                        <use xlink:href="#rim" fill="#404040">
                                <set attributeName="fill" to="#808080" begin="zoomplus.mouseover" end="zoomplus.mouseout"/>
                        </use>
                        <path d="M-4,0h8M0,-4v8" fill="none" stroke="white" stroke-width="1.5" pointer-events="none"/>
                </g>
                <g id="zoomMin">
                        <use xlink:href="#rim" fill="#404040">
                                <set attributeName="fill" to="#808080" begin="zoomminus.mouseover" end="zoomminus.mouseout"/>
                        </use>
                        <path d="M-4,0h8" fill="none" stroke="white" stroke-width="1.5" pointer-events="none"/>
                </g>
                <g id="dirArrow">
                        <path fill="none" stroke="white" stroke-width="1.5" d="M0,-3.0v7 M-2.5,-0.5L0,-3.0L2.5,-0.5"/>
                </g>
               <g id="resetDef">
                       <use xlink:href="#rim2" fill="#404040">
                               <set attributeName="fill" to="#808080" begin="reset.mouseover" end="reset.mouseout"/>
                       </use>
               </g>
        </defs>

<script type="text/javascript">
var viewWidth = 839;
var viewHeight = 131;
var sectionId = 'dynsection-24';
</script>
<script xlink:href="svgpan.js"/>
<svg id="graph" class="graph">
<g id="viewport">
<title>prior_hessian::CopulaDistImpl::CopulaDist::operator==</title>
<polygon fill="white" stroke="none" points="-4,4 -4,-127 835,-127 835,4 -4,4"/>
<!-- Node1 -->
<g id="node1" class="node"><title>Node1</title>
<polygon fill="#bfbfbf" stroke="black" points="0,-51.5 0,-79.5 134,-79.5 134,-51.5 0,-51.5"/>
<text text-anchor="start" x="8" y="-68.3" font-family="Helvetica,sans-Serif" font-size="9.00">prior_hessian::CopulaDist</text>
<text text-anchor="middle" x="67" y="-58.3" font-family="Helvetica,sans-Serif" font-size="9.00">Impl::CopulaDist::operator==</text>
</g>
<!-- Node2 -->
<g id="node2" class="node"><title>Node2</title>
<g id="a_node2"><a xlink:href="classprior__hessian_1_1CopulaDistImpl_1_1CopulaDist.html#a5cd91617bed91a4c401ad05f52958010" target="_top" xlink:title="prior_hessian::CopulaDist\lImpl::CopulaDist::operator!=">
<polygon fill="white" stroke="black" points="170,-75.5 170,-103.5 301,-103.5 301,-75.5 170,-75.5"/>
<text text-anchor="start" x="178" y="-92.3" font-family="Helvetica,sans-Serif" font-size="9.00">prior_hessian::CopulaDist</text>
<text text-anchor="middle" x="235.5" y="-82.3" font-family="Helvetica,sans-Serif" font-size="9.00">Impl::CopulaDist::operator!=</text>
</a>
</g>
</g>
<!-- Node1&#45;&gt;Node2 -->
<g id="edge1" class="edge"><title>Node1&#45;&gt;Node2</title>
<path fill="none" stroke="midnightblue" d="M144.243,-76.49C152.785,-77.7212 161.425,-78.9667 169.802,-80.1741"/>
<polygon fill="midnightblue" stroke="midnightblue" points="144.681,-73.017 134.284,-75.0544 143.682,-79.9454 144.681,-73.017"/>
</g>
<!-- Node3 -->
<g id="node3" class="node"><title>Node3</title>
<g id="a_node3"><a xlink:href="classprior__hessian_1_1CopulaDistImpl_1_1CopulaDist.html#abdb39f0c5f7f5f4b16bf501e6083d5b6" target="_top" xlink:title="prior_hessian::CopulaDist\lImpl::CopulaDist::ubound">
<polygon fill="white" stroke="black" points="174,-28.5 174,-56.5 297,-56.5 297,-28.5 174,-28.5"/>
<text text-anchor="start" x="182" y="-45.3" font-family="Helvetica,sans-Serif" font-size="9.00">prior_hessian::CopulaDist</text>
<text text-anchor="middle" x="235.5" y="-35.3" font-family="Helvetica,sans-Serif" font-size="9.00">Impl::CopulaDist::ubound</text>
</a>
</g>
</g>
<!-- Node1&#45;&gt;Node3 -->
<g id="edge2" class="edge"><title>Node1&#45;&gt;Node3</title>
<path fill="none" stroke="midnightblue" d="M144.477,-54.9357C154.324,-53.5753 164.299,-52.1974 173.845,-50.8788"/>
<polygon fill="midnightblue" stroke="midnightblue" points="143.711,-51.5082 134.284,-56.3437 144.669,-58.4423 143.711,-51.5082"/>
</g>
<!-- Node4 -->
<g id="node4" class="node"><title>Node4</title>
<g id="a_node4"><a xlink:href="classprior__hessian_1_1CopulaDistImpl_1_1CopulaDist.html#ac0819ccaeef1afd7a123338823e8fb3c" target="_top" xlink:title="prior_hessian::CopulaDist\lImpl::CopulaDist::set_lbound">
<polygon fill="white" stroke="black" points="337,-28.5 337,-56.5 471,-56.5 471,-28.5 337,-28.5"/>
<text text-anchor="start" x="345" y="-45.3" font-family="Helvetica,sans-Serif" font-size="9.00">prior_hessian::CopulaDist</text>
<text text-anchor="middle" x="404" y="-35.3" font-family="Helvetica,sans-Serif" font-size="9.00">Impl::CopulaDist::set_lbound</text>
</a>
</g>
</g>
<!-- Node3&#45;&gt;Node4 -->
<g id="edge3" class="edge"><title>Node3&#45;&gt;Node4</title>
<path fill="none" stroke="midnightblue" d="M307.211,-35.8185C317.037,-35.7104 327.102,-35.7302 336.841,-35.8781"/>
<polygon fill="midnightblue" stroke="midnightblue" points="307.025,-32.3209 297.081,-35.9775 307.135,-39.32 307.025,-32.3209"/>
</g>
<!-- Node5 -->
<g id="node5" class="node"><title>Node5</title>
<g id="a_node5"><a xlink:href="classprior__hessian_1_1CopulaDistImpl_1_1CopulaDist.html#aad110f1a85e7611fd098aa51c2104015" target="_top" xlink:title="prior_hessian::CopulaDist\lImpl::CopulaDist::global_ubound">
<polygon fill="white" stroke="black" points="507,-47.5 507,-75.5 658,-75.5 658,-47.5 507,-47.5"/>
<text text-anchor="start" x="515" y="-64.3" font-family="Helvetica,sans-Serif" font-size="9.00">prior_hessian::CopulaDist</text>
<text text-anchor="middle" x="582.5" y="-54.3" font-family="Helvetica,sans-Serif" font-size="9.00">Impl::CopulaDist::global_ubound</text>
</a>
</g>
</g>
<!-- Node3&#45;&gt;Node5 -->
<g id="edge13" class="edge"><title>Node3&#45;&gt;Node5</title>
<path fill="none" stroke="midnightblue" d="M297.286,-58.7174C310.298,-61.5387 324.032,-64.035 337,-65.5 393.739,-71.9097 458.349,-70.4801 506.896,-67.6792"/>
<polygon fill="midnightblue" stroke="midnightblue" points="298.027,-55.2967 287.502,-56.5083 296.486,-62.1248 298.027,-55.2967"/>
</g>
<!-- Node4&#45;&gt;Node3 -->
<g id="edge4" class="edge"><title>Node4&#45;&gt;Node3</title>
<path fill="none" stroke="midnightblue" d="M326.598,-49.2297C316.701,-49.2886 306.674,-49.2195 297.081,-49.0225"/>
<polygon fill="midnightblue" stroke="midnightblue" points="326.878,-52.727 336.841,-49.1219 326.804,-45.7274 326.878,-52.727"/>
</g>
<!-- Node4&#45;&gt;Node5 -->
<g id="edge5" class="edge"><title>Node4&#45;&gt;Node5</title>
<path fill="none" stroke="midnightblue" d="M481.434,-50.728C489.882,-51.6374 498.476,-52.5626 506.901,-53.4695"/>
<polygon fill="midnightblue" stroke="midnightblue" points="481.541,-47.2195 471.224,-49.629 480.792,-54.1792 481.541,-47.2195"/>
</g>
<!-- Node6 -->
<g id="node6" class="node"><title>Node6</title>
<g id="a_node6"><a xlink:href="classprior__hessian_1_1CopulaDistImpl_1_1CopulaDist.html#a26cd71990978df0ddae24dae5148c880" target="_top" xlink:title="prior_hessian::CopulaDist\lImpl::CopulaDist::num_dim">
<polygon fill="white" stroke="black" points="699,-47.5 699,-75.5 826,-75.5 826,-47.5 699,-47.5"/>
<text text-anchor="start" x="707" y="-64.3" font-family="Helvetica,sans-Serif" font-size="9.00">prior_hessian::CopulaDist</text>
<text text-anchor="middle" x="762.5" y="-54.3" font-family="Helvetica,sans-Serif" font-size="9.00">Impl::CopulaDist::num_dim</text>
</a>
</g>
</g>
<!-- Node5&#45;&gt;Node6 -->
<g id="edge6" class="edge"><title>Node5&#45;&gt;Node6</title>
<path fill="none" stroke="midnightblue" d="M668.411,-61.5C678.652,-61.5 688.966,-61.5 698.807,-61.5"/>
<polygon fill="midnightblue" stroke="midnightblue" points="668.214,-58.0001 658.214,-61.5 668.214,-65.0001 668.214,-58.0001"/>
</g>
<!-- Node7 -->
<g id="node7" class="node"><title>Node7</title>
<g id="a_node7"><a xlink:href="classprior__hessian_1_1CopulaDistImpl_1_1CopulaDist.html#ad5f8f42efd9f709625cf60836fa473b9" target="_top" xlink:title="prior_hessian::CopulaDist\lImpl::CopulaDist::set_bounds">
<polygon fill="white" stroke="black" points="694,-94.5 694,-122.5 831,-122.5 831,-94.5 694,-94.5"/>
<text text-anchor="start" x="702" y="-111.3" font-family="Helvetica,sans-Serif" font-size="9.00">prior_hessian::CopulaDist</text>
<text text-anchor="middle" x="762.5" y="-101.3" font-family="Helvetica,sans-Serif" font-size="9.00">Impl::CopulaDist::set_bounds</text>
</a>
</g>
</g>
<!-- Node5&#45;&gt;Node7 -->
<g id="edge7" class="edge"><title>Node5&#45;&gt;Node7</title>
<path fill="none" stroke="midnightblue" d="M668.055,-77.0838C689.566,-82.6911 711.424,-88.9169 728.585,-94.4297"/>
<polygon fill="midnightblue" stroke="midnightblue" points="668.771,-73.6541 658.214,-74.5558 667.029,-80.434 668.771,-73.6541"/>
</g>
<!-- Node8 -->
<g id="node8" class="node"><title>Node8</title>
<g id="a_node8"><a xlink:href="classprior__hessian_1_1CopulaDistImpl_1_1CopulaDist.html#a4b010ffe2c2acd4dc75c80b32312254d" target="_top" xlink:title="prior_hessian::CopulaDist\lImpl::CopulaDist::set_ubound">
<polygon fill="white" stroke="black" points="694,-0.5 694,-28.5 831,-28.5 831,-0.5 694,-0.5"/>
<text text-anchor="start" x="702" y="-17.3" font-family="Helvetica,sans-Serif" font-size="9.00">prior_hessian::CopulaDist</text>
<text text-anchor="middle" x="762.5" y="-7.3" font-family="Helvetica,sans-Serif" font-size="9.00">Impl::CopulaDist::set_ubound</text>
</a>
</g>
</g>
<!-- Node5&#45;&gt;Node8 -->
<g id="edge10" class="edge"><title>Node5&#45;&gt;Node8</title>
<path fill="none" stroke="midnightblue" d="M626.14,-44.3818C646.436,-38.1639 671.194,-31.3889 693.96,-25.7611"/>
<polygon fill="midnightblue" stroke="midnightblue" points="625.06,-41.0524 616.563,-47.3819 627.152,-47.7323 625.06,-41.0524"/>
</g>
<!-- Node7&#45;&gt;Node3 -->
<g id="edge8" class="edge"><title>Node7&#45;&gt;Node3</title>
<path fill="none" stroke="midnightblue" d="M683.515,-112.456C597.312,-114.829 455.036,-112.787 337,-82.5 319.861,-78.1022 317.353,-72.2575 301,-65.5 293.638,-62.458 285.712,-59.4329 278.021,-56.6242"/>
<polygon fill="midnightblue" stroke="midnightblue" points="683.854,-115.948 693.744,-112.147 683.642,-108.951 683.854,-115.948"/>
</g>
<!-- Node7&#45;&gt;Node5 -->
<g id="edge9" class="edge"><title>Node7&#45;&gt;Node5</title>
<path fill="none" stroke="midnightblue" d="M684.236,-94.7963C660.509,-88.7445 635.65,-81.7441 616.563,-75.6181"/>
<polygon fill="midnightblue" stroke="midnightblue" points="683.409,-98.1972 693.96,-97.2389 685.114,-91.4081 683.409,-98.1972"/>
</g>
<!-- Node8&#45;&gt;Node3 -->
<g id="edge11" class="edge"><title>Node8&#45;&gt;Node3</title>
<path fill="none" stroke="midnightblue" d="M683.79,-10.0209C598.406,-6.3101 457.383,-3.74988 337,-18.5 319.996,-20.5835 301.692,-24.4524 285.425,-28.4847"/>
<polygon fill="midnightblue" stroke="midnightblue" points="683.774,-13.5236 693.922,-10.478 684.09,-6.53076 683.774,-13.5236"/>
</g>
<!-- Node8&#45;&gt;Node5 -->
<g id="edge12" class="edge"><title>Node8&#45;&gt;Node5</title>
<path fill="none" stroke="midnightblue" d="M718.881,-31.6119C700.696,-37.1836 678.925,-43.2032 658.214,-48.4442"/>
<polygon fill="midnightblue" stroke="midnightblue" points="720.09,-34.9009 728.585,-28.5703 717.996,-28.2213 720.09,-34.9009"/>
</g>
</g>
</svg>
        <g id="navigator" transform="translate(0 0)" fill="#404254">
                <rect fill="#f2f5e9" fill-opacity="0.5" stroke="#606060" stroke-width=".5" x="0" y="0" width="60" height="60"/>
                <use id="zoomplus" xlink:href="#zoomPlus" x="17" y="9" onmousedown="handleZoom(evt,'in')"/>
                <use id="zoomminus" xlink:href="#zoomMin" x="42" y="9" onmousedown="handleZoom(evt,'out')"/>
                <use id="reset" xlink:href="#resetDef" x="30" y="36" onmousedown="handleReset()"/>
                <g id="arrowUp" xlink:href="#dirArrow" transform="translate(30 24)" onmousedown="handlePan(0,-1)">
                  <use xlink:href="#rim" fill="#404040">
                        <set attributeName="fill" to="#808080" begin="arrowUp.mouseover" end="arrowUp.mouseout"/>
                  </use>
                  <path fill="none" stroke="white" stroke-width="1.5" d="M0,-3.0v7 M-2.5,-0.5L0,-3.0L2.5,-0.5"/>
                </g>
                <g id="arrowRight" xlink:href="#dirArrow" transform="rotate(90) translate(36 -43)" onmousedown="handlePan(1,0)">
                  <use xlink:href="#rim" fill="#404040">
                        <set attributeName="fill" to="#808080" begin="arrowRight.mouseover" end="arrowRight.mouseout"/>
                  </use>
                  <path fill="none" stroke="white" stroke-width="1.5" d="M0,-3.0v7 M-2.5,-0.5L0,-3.0L2.5,-0.5"/>
                </g>
                <g id="arrowDown" xlink:href="#dirArrow" transform="rotate(180) translate(-30 -48)" onmousedown="handlePan(0,1)">
                  <use xlink:href="#rim" fill="#404040">
                        <set attributeName="fill" to="#808080" begin="arrowDown.mouseover" end="arrowDown.mouseout"/>
                  </use>
                  <path fill="none" stroke="white" stroke-width="1.5" d="M0,-3.0v7 M-2.5,-0.5L0,-3.0L2.5,-0.5"/>
                </g>
                <g id="arrowLeft" xlink:href="#dirArrow" transform="rotate(270) translate(-36 17)" onmousedown="handlePan(-1,0)">
                  <use xlink:href="#rim" fill="#404040">
                        <set attributeName="fill" to="#808080" begin="arrowLeft.mouseover" end="arrowLeft.mouseout"/>
                  </use>
                  <path fill="none" stroke="white" stroke-width="1.5" d="M0,-3.0v7 M-2.5,-0.5L0,-3.0L2.5,-0.5"/>
                </g>
        </g>
        <svg viewBox="0 0 15 15" width="100%" height="30px" preserveAspectRatio="xMaxYMin meet">
         <g id="arrow_out" transform="scale(0.3 0.3)">
          <a xlink:href="classprior__hessian_1_1CopulaDistImpl_1_1CopulaDist_a9dca9ab8ba47ecef1a7784fe77c8c40f_icgraph_org.svg" target="_base">
           <rect id="button" ry="5" rx="5" y="6" x="6" height="38" width="38"
                fill="#f2f5e9" fill-opacity="0.5" stroke="#606060" stroke-width="1.0"/>
           <path id="arrow"
             d="M 11.500037,31.436501 C 11.940474,20.09759 22.043105,11.32322 32.158766,21.979434 L 37.068811,17.246167 C 37.068811,17.246167 37.088388,32 37.088388,32 L 22.160133,31.978069 C 22.160133,31.978069 26.997745,27.140456 26.997745,27.140456 C 18.528582,18.264221 13.291696,25.230495 11.500037,31.436501 z"
             style="fill:#404040;"/>
          </a>
         </g>
        </svg>
</svg>
