<?xml version="1.0" encoding="UTF-8" standalone="no"?>
<!DOCTYPE svg PUBLIC "-//W3C//DTD SVG 1.1//EN"
 "http://www.w3.org/Graphics/SVG/1.1/DTD/svg11.dtd">
<!-- Generated by graphviz version 2.38.0 (20140413.2041)
 -->
<!-- Title: prior_hessian::CompositeDist::num_params Pages: 1 -->
<svg width="921pt" height="142pt"
 viewBox="0.00 0.00 921.00 141.50" xmlns="http://www.w3.org/2000/svg" xmlns:xlink="http://www.w3.org/1999/xlink">
<g id="graph0" class="graph" transform="scale(1 1) rotate(0) translate(4 137.5)">
<title>prior_hessian::CompositeDist::num_params</title>
<polygon fill="white" stroke="none" points="-4,4 -4,-137.5 917,-137.5 917,4 -4,4"/>
<!-- Node1 -->
<g id="node1" class="node"><title>Node1</title>
<polygon fill="#bfbfbf" stroke="black" points="0,-24 0,-52 122,-52 122,-24 0,-24"/>
<text text-anchor="start" x="8" y="-40.8" font-family="Helvetica,sans-Serif" font-size="9.00">prior_hessian::Composite</text>
<text text-anchor="middle" x="61" y="-30.8" font-family="Helvetica,sans-Serif" font-size="9.00">Dist::num_params</text>
</g>
<!-- Node2 -->
<g id="node2" class="node"><title>Node2</title>
<g id="a_node2"><a xlink:href="namespaceprior__hessian.html#ab26e9ddc3b6a5caccf5d75e1a1e1af1b" target="_top" xlink:title="prior_hessian::operator\&lt;\&lt;">
<polygon fill="white" stroke="black" points="158,-67 158,-85 280,-85 280,-67 158,-67"/>
<text text-anchor="middle" x="219" y="-73.8" font-family="Helvetica,sans-Serif" font-size="9.00">prior_hessian::operator&lt;&lt;</text>
</a>
</g>
</g>
<!-- Node1&#45;&gt;Node2 -->
<g id="edge1" class="edge"><title>Node1&#45;&gt;Node2</title>
<path fill="none" stroke="midnightblue" d="M129.371,-54.4108C147.057,-58.7189 165.486,-63.208 180.928,-66.9697"/>
<polygon fill="midnightblue" stroke="midnightblue" points="130.19,-51.008 119.645,-52.0418 128.533,-57.8092 130.19,-51.008"/>
</g>
<!-- Node3 -->
<g id="node3" class="node"><title>Node3</title>
<g id="a_node3"><a xlink:href="classprior__hessian_1_1CompositeDist.html#a38c4fdacf927824117d202422b04013c" target="_top" xlink:title="prior_hessian::Composite\lDist::set_param_names">
<polygon fill="white" stroke="black" points="316,-62 316,-90 438,-90 438,-62 316,-62"/>
<text text-anchor="start" x="324" y="-78.8" font-family="Helvetica,sans-Serif" font-size="9.00">prior_hessian::Composite</text>
<text text-anchor="middle" x="377" y="-68.8" font-family="Helvetica,sans-Serif" font-size="9.00">Dist::set_param_names</text>
</a>
</g>
</g>
<!-- Node1&#45;&gt;Node3 -->
<g id="edge9" class="edge"><title>Node1&#45;&gt;Node3</title>
<path fill="none" stroke="midnightblue" d="M132.383,-42.1901C175.194,-45.2209 230.902,-50.0227 280,-57 291.691,-58.6613 304.109,-60.821 315.999,-63.0859"/>
<polygon fill="midnightblue" stroke="midnightblue" points="132.563,-38.6943 122.345,-41.4951 132.08,-45.6776 132.563,-38.6943"/>
</g>
<!-- Node6 -->
<g id="node6" class="node"><title>Node6</title>
<g id="a_node6"><a xlink:href="classprior__hessian_1_1CompositeDist.html#a24bac25ae8c0330b8a3aacadffc9d5ae" target="_top" xlink:title="prior_hessian::Composite\lDist::rllh_components">
<polygon fill="white" stroke="black" points="791,-24 791,-52 913,-52 913,-24 791,-24"/>
<text text-anchor="start" x="799" y="-40.8" font-family="Helvetica,sans-Serif" font-size="9.00">prior_hessian::Composite</text>
<text text-anchor="middle" x="852" y="-30.8" font-family="Helvetica,sans-Serif" font-size="9.00">Dist::rllh_components</text>
</a>
</g>
</g>
<!-- Node1&#45;&gt;Node6 -->
<g id="edge8" class="edge"><title>Node1&#45;&gt;Node6</title>
<path fill="none" stroke="midnightblue" d="M132.122,-24.6103C195.565,-13.6686 291.691,-1.42109e-14 376,-0 376,-0 376,-0 536,-0 625.236,-1.42109e-14 727.675,-15.2172 790.872,-26.3923"/>
<polygon fill="midnightblue" stroke="midnightblue" points="131.475,-21.1703 122.227,-26.3405 132.681,-28.0657 131.475,-21.1703"/>
</g>
<!-- Node2&#45;&gt;Node3 -->
<g id="edge2" class="edge"><title>Node2&#45;&gt;Node3</title>
<path fill="none" stroke="midnightblue" d="M290.538,-76C298.99,-76 307.56,-76 315.847,-76"/>
<polygon fill="midnightblue" stroke="midnightblue" points="290.314,-72.5001 280.314,-76 290.314,-79.5001 290.314,-72.5001"/>
</g>
<!-- Node4 -->
<g id="node4" class="node"><title>Node4</title>
<g id="a_node4"><a xlink:href="classprior__hessian_1_1CompositeDist.html#ace0aaa3698d76aba6a47f9061ff98902" target="_top" xlink:title="prior_hessian::Composite\lDist::rename_param">
<polygon fill="white" stroke="black" points="474,-105 474,-133 596,-133 596,-105 474,-105"/>
<text text-anchor="start" x="482" y="-121.8" font-family="Helvetica,sans-Serif" font-size="9.00">prior_hessian::Composite</text>
<text text-anchor="middle" x="535" y="-111.8" font-family="Helvetica,sans-Serif" font-size="9.00">Dist::rename_param</text>
</a>
</g>
</g>
<!-- Node3&#45;&gt;Node4 -->
<g id="edge3" class="edge"><title>Node3&#45;&gt;Node4</title>
<path fill="none" stroke="midnightblue" d="M439.013,-92.8178C453.592,-96.8362 469.002,-101.084 483.072,-104.962"/>
<polygon fill="midnightblue" stroke="midnightblue" points="439.651,-89.363 429.08,-90.0798 437.791,-96.1114 439.651,-89.363"/>
</g>
<!-- Node5 -->
<g id="node5" class="node"><title>Node5</title>
<g id="a_node5"><a xlink:href="classprior__hessian_1_1CompositeDist.html#a927fed39b2b4e87714c728d6e7b11e8b" target="_top" xlink:title="prior_hessian::Composite\lDist::params_components">
<polygon fill="white" stroke="black" points="632,-67 632,-95 755,-95 755,-67 632,-67"/>
<text text-anchor="start" x="640" y="-83.8" font-family="Helvetica,sans-Serif" font-size="9.00">prior_hessian::Composite</text>
<text text-anchor="middle" x="693.5" y="-73.8" font-family="Helvetica,sans-Serif" font-size="9.00">Dist::params_components</text>
</a>
</g>
</g>
<!-- Node3&#45;&gt;Node5 -->
<g id="edge6" class="edge"><title>Node3&#45;&gt;Node5</title>
<path fill="none" stroke="midnightblue" d="M448.312,-77.1178C503.461,-77.9946 579.415,-79.2021 631.902,-80.0366"/>
<polygon fill="midnightblue" stroke="midnightblue" points="448.321,-73.6176 438.267,-76.9581 448.21,-80.6168 448.321,-73.6176"/>
</g>
<!-- Node3&#45;&gt;Node6 -->
<g id="edge7" class="edge"><title>Node3&#45;&gt;Node6</title>
<path fill="none" stroke="midnightblue" d="M448.546,-70.3324C541.542,-62.8613 703.558,-49.8453 790.973,-42.8224"/>
<polygon fill="midnightblue" stroke="midnightblue" points="448.074,-66.859 438.386,-71.1487 448.634,-73.8365 448.074,-66.859"/>
</g>
<!-- Node4&#45;&gt;Node5 -->
<g id="edge4" class="edge"><title>Node4&#45;&gt;Node5</title>
<path fill="none" stroke="midnightblue" d="M603.635,-102.577C613.967,-100.069 624.55,-97.499 634.646,-95.0475"/>
<polygon fill="midnightblue" stroke="midnightblue" points="602.722,-99.1974 593.83,-104.958 604.374,-106 602.722,-99.1974"/>
</g>
<!-- Node5&#45;&gt;Node6 -->
<g id="edge5" class="edge"><title>Node5&#45;&gt;Node6</title>
<path fill="none" stroke="midnightblue" d="M755.709,-64.1822C770.334,-60.1638 785.794,-55.916 799.908,-52.038"/>
<polygon fill="midnightblue" stroke="midnightblue" points="754.459,-60.8958 745.744,-66.9202 756.314,-67.6456 754.459,-60.8958"/>
</g>
</g>
</svg>
