<?xml version="1.0" encoding="UTF-8" standalone="no"?>
<!DOCTYPE svg PUBLIC "-//W3C//DTD SVG 1.1//EN"
 "http://www.w3.org/Graphics/SVG/1.1/DTD/svg11.dtd">
<!-- Generated by graphviz version 2.38.0 (20140413.2041)
 -->
<!-- Title: prior_hessian::UpperTruncatedDist::median Pages: 1 -->
<svg width="512pt" height="217pt"
 viewBox="0.00 0.00 512.00 217.00" xmlns="http://www.w3.org/2000/svg" xmlns:xlink="http://www.w3.org/1999/xlink">
<g id="graph0" class="graph" transform="scale(1 1) rotate(0) translate(4 213)">
<title>prior_hessian::UpperTruncatedDist::median</title>
<polygon fill="white" stroke="none" points="-4,4 -4,-213 508,-213 508,4 -4,4"/>
<!-- Node1 -->
<g id="node1" class="node"><title>Node1</title>
<polygon fill="#bfbfbf" stroke="black" points="0,-94.5 0,-122.5 144,-122.5 144,-94.5 0,-94.5"/>
<text text-anchor="start" x="8" y="-111.3" font-family="Helvetica,sans-Serif" font-size="9.00">prior_hessian::UpperTruncated</text>
<text text-anchor="middle" x="72" y="-101.3" font-family="Helvetica,sans-Serif" font-size="9.00">Dist::median</text>
</g>
<!-- Node2 -->
<g id="node2" class="node"><title>Node2</title>
<g id="a_node2"><a xlink:href="classprior__hessian_1_1UpperTruncatedDist.html#a68566f44491647190af6d25378c8961e" target="_top" xlink:title="prior_hessian::UpperTruncated\lDist::cdf">
<polygon fill="white" stroke="black" points="180,-180.5 180,-208.5 324,-208.5 324,-180.5 180,-180.5"/>
<text text-anchor="start" x="188" y="-197.3" font-family="Helvetica,sans-Serif" font-size="9.00">prior_hessian::UpperTruncated</text>
<text text-anchor="middle" x="252" y="-187.3" font-family="Helvetica,sans-Serif" font-size="9.00">Dist::cdf</text>
</a>
</g>
</g>
<!-- Node1&#45;&gt;Node2 -->
<g id="edge1" class="edge"><title>Node1&#45;&gt;Node2</title>
<path fill="none" stroke="midnightblue" d="M97.7137,-122.589C119.17,-134.597 151.226,-152.002 180,-165.5 188.058,-169.28 196.748,-173.063 205.192,-176.59"/>
<polygon fill="midnightblue" stroke="midnightblue" points="203.993,-179.881 214.573,-180.449 206.656,-173.408 203.993,-179.881"/>
</g>
<!-- Node3 -->
<g id="node3" class="node"><title>Node3</title>
<g id="a_node3"><a xlink:href="classprior__hessian_1_1UpperTruncatedDist.html#ae199997b515591a11a20a469bae33754" target="_top" xlink:title="prior_hessian::UpperTruncated\lDist::icdf">
<polygon fill="white" stroke="black" points="360,-68.5 360,-96.5 504,-96.5 504,-68.5 360,-68.5"/>
<text text-anchor="start" x="368" y="-85.3" font-family="Helvetica,sans-Serif" font-size="9.00">prior_hessian::UpperTruncated</text>
<text text-anchor="middle" x="432" y="-75.3" font-family="Helvetica,sans-Serif" font-size="9.00">Dist::icdf</text>
</a>
</g>
</g>
<!-- Node1&#45;&gt;Node3 -->
<g id="edge2" class="edge"><title>Node1&#45;&gt;Node3</title>
<path fill="none" stroke="midnightblue" d="M123.573,-122.501C174.673,-134.515 255.626,-147.687 324,-132.5 350.732,-126.562 378.692,-113.213 399.324,-101.8"/>
<polygon fill="midnightblue" stroke="midnightblue" points="401.291,-104.709 408.258,-96.7267 397.834,-98.6219 401.291,-104.709"/>
</g>
<!-- Node4 -->
<g id="node4" class="node"><title>Node4</title>
<g id="a_node4"><a xlink:href="classprior__hessian_1_1UpperTruncatedDist.html#ab9779a1bcedc7f1218bbf8f5f89574db" target="_top" xlink:title="prior_hessian::UpperTruncated\lDist::llh">
<polygon fill="white" stroke="black" points="180,-94.5 180,-122.5 324,-122.5 324,-94.5 180,-94.5"/>
<text text-anchor="start" x="188" y="-111.3" font-family="Helvetica,sans-Serif" font-size="9.00">prior_hessian::UpperTruncated</text>
<text text-anchor="middle" x="252" y="-101.3" font-family="Helvetica,sans-Serif" font-size="9.00">Dist::llh</text>
</a>
</g>
</g>
<!-- Node1&#45;&gt;Node4 -->
<g id="edge3" class="edge"><title>Node1&#45;&gt;Node4</title>
<path fill="none" stroke="midnightblue" d="M144.118,-108.5C152.609,-108.5 161.327,-108.5 169.944,-108.5"/>
<polygon fill="midnightblue" stroke="midnightblue" points="169.995,-112 179.995,-108.5 169.995,-105 169.995,-112"/>
</g>
<!-- Node5 -->
<g id="node5" class="node"><title>Node5</title>
<g id="a_node5"><a xlink:href="classprior__hessian_1_1UpperTruncatedDist.html#a9d5c45837741a460ac78b68be0588b99" target="_top" xlink:title="prior_hessian::UpperTruncated\lDist::pdf">
<polygon fill="white" stroke="black" points="180,-47.5 180,-75.5 324,-75.5 324,-47.5 180,-47.5"/>
<text text-anchor="start" x="188" y="-64.3" font-family="Helvetica,sans-Serif" font-size="9.00">prior_hessian::UpperTruncated</text>
<text text-anchor="middle" x="252" y="-54.3" font-family="Helvetica,sans-Serif" font-size="9.00">Dist::pdf</text>
</a>
</g>
</g>
<!-- Node1&#45;&gt;Node5 -->
<g id="edge4" class="edge"><title>Node1&#45;&gt;Node5</title>
<path fill="none" stroke="midnightblue" d="M126.406,-94.3985C145.855,-89.2631 168.019,-83.4108 188.207,-78.0801"/>
<polygon fill="midnightblue" stroke="midnightblue" points="189.164,-81.4476 197.939,-75.5106 187.377,-74.6796 189.164,-81.4476"/>
</g>
<!-- Node6 -->
<g id="node6" class="node"><title>Node6</title>
<g id="a_node6"><a xlink:href="classprior__hessian_1_1UpperTruncatedDist.html#a12fe6e6c4b3af523b10bc0fa79d9d7c4" target="_top" xlink:title="prior_hessian::UpperTruncated\lDist::sample">
<polygon fill="white" stroke="black" points="180,-0.5 180,-28.5 324,-28.5 324,-0.5 180,-0.5"/>
<text text-anchor="start" x="188" y="-17.3" font-family="Helvetica,sans-Serif" font-size="9.00">prior_hessian::UpperTruncated</text>
<text text-anchor="middle" x="252" y="-7.3" font-family="Helvetica,sans-Serif" font-size="9.00">Dist::sample</text>
</a>
</g>
</g>
<!-- Node1&#45;&gt;Node6 -->
<g id="edge5" class="edge"><title>Node1&#45;&gt;Node6</title>
<path fill="none" stroke="midnightblue" d="M91.4626,-94.3255C112.133,-78.9679 147.061,-54.519 180,-38.5 184.563,-36.2807 189.384,-34.1805 194.278,-32.2148"/>
<polygon fill="midnightblue" stroke="midnightblue" points="195.638,-35.442 203.731,-28.6042 193.14,-28.9028 195.638,-35.442"/>
</g>
<!-- Node6&#45;&gt;Node3 -->
<g id="edge6" class="edge"><title>Node6&#45;&gt;Node3</title>
<path fill="none" stroke="midnightblue" d="M295.958,-28.5267C305.245,-31.6967 314.982,-35.1257 324,-38.5 345.663,-46.6059 369.488,-56.3225 389.146,-64.5605"/>
<polygon fill="midnightblue" stroke="midnightblue" points="387.859,-67.8164 398.434,-68.4723 390.577,-61.3652 387.859,-67.8164"/>
</g>
</g>
</svg>
