<?xml version="1.0" encoding="UTF-8" standalone="no"?>
<!DOCTYPE svg PUBLIC "-//W3C//DTD SVG 1.1//EN"
 "http://www.w3.org/Graphics/SVG/1.1/DTD/svg11.dtd">
<!-- Generated by graphviz version 2.38.0 (20140413.2041)
 -->
<!-- Title: prior_hessian::CompositeDist::rename_param Pages: 1 -->
<svg width="953pt" height="658pt"
 viewBox="0.00 0.00 953.00 657.68" xmlns="http://www.w3.org/2000/svg" xmlns:xlink="http://www.w3.org/1999/xlink">
<g id="graph0" class="graph" transform="scale(1 1) rotate(0) translate(4 653.683)">
<title>prior_hessian::CompositeDist::rename_param</title>
<polygon fill="white" stroke="none" points="-4,4 -4,-653.683 949,-653.683 949,4 -4,4"/>
<!-- Node1 -->
<g id="node1" class="node"><title>Node1</title>
<polygon fill="#bfbfbf" stroke="black" points="0,-500.5 0,-528.5 122,-528.5 122,-500.5 0,-500.5"/>
<text text-anchor="start" x="8" y="-517.3" font-family="Helvetica,sans-Serif" font-size="9.00">prior_hessian::Composite</text>
<text text-anchor="middle" x="61" y="-507.3" font-family="Helvetica,sans-Serif" font-size="9.00">Dist::rename_param</text>
</g>
<!-- Node2 -->
<g id="node2" class="node"><title>Node2</title>
<g id="a_node2"><a xlink:href="classprior__hessian_1_1CompositeDist.html#ae7ca30fd19fb59ebe241873443b9faed" target="_top" xlink:title="prior_hessian::Composite\lDist::param_names">
<polygon fill="white" stroke="black" points="478.5,-616.5 478.5,-644.5 600.5,-644.5 600.5,-616.5 478.5,-616.5"/>
<text text-anchor="start" x="486.5" y="-633.3" font-family="Helvetica,sans-Serif" font-size="9.00">prior_hessian::Composite</text>
<text text-anchor="middle" x="539.5" y="-623.3" font-family="Helvetica,sans-Serif" font-size="9.00">Dist::param_names</text>
</a>
</g>
</g>
<!-- Node1&#45;&gt;Node2 -->
<g id="edge1" class="edge"><title>Node1&#45;&gt;Node2</title>
<path fill="none" stroke="midnightblue" d="M119.952,-528.608C208.494,-550.163 377.045,-591.195 470.986,-614.064"/>
<polygon fill="midnightblue" stroke="midnightblue" points="470.407,-617.525 480.951,-616.49 472.062,-610.724 470.407,-617.525"/>
</g>
<!-- Node7 -->
<g id="node7" class="node"><title>Node7</title>
<g id="a_node7"><a xlink:href="classprior__hessian_1_1CompositeDist.html#a38c4fdacf927824117d202422b04013c" target="_top" xlink:title="prior_hessian::Composite\lDist::set_param_names">
<polygon fill="white" stroke="black" points="158,-375.5 158,-403.5 280,-403.5 280,-375.5 158,-375.5"/>
<text text-anchor="start" x="166" y="-392.3" font-family="Helvetica,sans-Serif" font-size="9.00">prior_hessian::Composite</text>
<text text-anchor="middle" x="219" y="-382.3" font-family="Helvetica,sans-Serif" font-size="9.00">Dist::set_param_names</text>
</a>
</g>
</g>
<!-- Node1&#45;&gt;Node7 -->
<g id="edge6" class="edge"><title>Node1&#45;&gt;Node7</title>
<path fill="none" stroke="midnightblue" d="M79.5919,-500.404C107.095,-478.366 160.417,-435.64 192.248,-410.134"/>
<polygon fill="midnightblue" stroke="midnightblue" points="194.618,-412.721 200.233,-403.736 190.241,-407.258 194.618,-412.721"/>
</g>
<!-- Node3 -->
<g id="node3" class="node"><title>Node3</title>
<g id="a_node3"><a xlink:href="classprior__hessian_1_1CompositeDist.html#a5f59bcbe24d659084fbe3dc188011779" target="_top" xlink:title="prior_hessian::Composite\lDist::component_names">
<polygon fill="white" stroke="black" points="653,-573.5 653,-601.5 775,-601.5 775,-573.5 653,-573.5"/>
<text text-anchor="start" x="661" y="-590.3" font-family="Helvetica,sans-Serif" font-size="9.00">prior_hessian::Composite</text>
<text text-anchor="middle" x="714" y="-580.3" font-family="Helvetica,sans-Serif" font-size="9.00">Dist::component_names</text>
</a>
</g>
</g>
<!-- Node2&#45;&gt;Node3 -->
<g id="edge2" class="edge"><title>Node2&#45;&gt;Node3</title>
<path fill="none" stroke="midnightblue" d="M596.983,-616.42C612.85,-612.465 630.249,-608.128 646.636,-604.043"/>
<polygon fill="midnightblue" stroke="midnightblue" points="647.828,-607.353 656.685,-601.538 646.135,-600.561 647.828,-607.353"/>
</g>
<!-- Node4 -->
<g id="node4" class="node"><title>Node4</title>
<g id="a_node4"><a xlink:href="classprior__hessian_1_1CompositeDist.html#a6faf6fbb059017af5756d4327bb504bc" target="_top" xlink:title="prior_hessian::Composite\lDist::num_components">
<polygon fill="white" stroke="black" points="653,-441.5 653,-469.5 775,-469.5 775,-441.5 653,-441.5"/>
<text text-anchor="start" x="661" y="-458.3" font-family="Helvetica,sans-Serif" font-size="9.00">prior_hessian::Composite</text>
<text text-anchor="middle" x="714" y="-448.3" font-family="Helvetica,sans-Serif" font-size="9.00">Dist::num_components</text>
</a>
</g>
</g>
<!-- Node2&#45;&gt;Node4 -->
<g id="edge3" class="edge"><title>Node2&#45;&gt;Node4</title>
<path fill="none" stroke="midnightblue" d="M555.224,-616.362C568.378,-603.674 588.12,-584.489 605,-567.5 635.826,-536.476 670.86,-499.894 692.449,-477.194"/>
<polygon fill="midnightblue" stroke="midnightblue" points="695.146,-479.437 699.496,-469.776 690.071,-474.616 695.146,-479.437"/>
</g>
<!-- Node5 -->
<g id="node5" class="node"><title>Node5</title>
<g id="a_node5"><a xlink:href="classprior__hessian_1_1CompositeDist.html#ad532e3fe9e7293fef7b293d3c94a1ddc" target="_top" xlink:title="prior_hessian::Composite\lDist::num_dim">
<polygon fill="white" stroke="black" points="823,-86.5 823,-114.5 945,-114.5 945,-86.5 823,-86.5"/>
<text text-anchor="start" x="831" y="-103.3" font-family="Helvetica,sans-Serif" font-size="9.00">prior_hessian::Composite</text>
<text text-anchor="middle" x="884" y="-93.3" font-family="Helvetica,sans-Serif" font-size="9.00">Dist::num_dim</text>
</a>
</g>
</g>
<!-- Node2&#45;&gt;Node5 -->
<g id="edge4" class="edge"><title>Node2&#45;&gt;Node5</title>
<path fill="none" stroke="midnightblue" d="M600.632,-644.157C656.054,-652.918 737.056,-655.452 787,-610.5 860.52,-544.327 878.546,-216.477 882.188,-124.519"/>
<polygon fill="midnightblue" stroke="midnightblue" points="885.686,-124.631 882.563,-114.507 878.691,-124.369 885.686,-124.631"/>
</g>
<!-- Node6 -->
<g id="node6" class="node"><title>Node6</title>
<g id="a_node6"><a xlink:href="classprior__hessian_1_1CompositeDist.html#a389c0e5459eeacc5f35afdf14d6a38d7" target="_top" xlink:title="prior_hessian::Composite\lDist::num_params_components">
<polygon fill="white" stroke="black" points="641,-344.5 641,-372.5 787,-372.5 787,-344.5 641,-344.5"/>
<text text-anchor="start" x="649" y="-361.3" font-family="Helvetica,sans-Serif" font-size="9.00">prior_hessian::Composite</text>
<text text-anchor="middle" x="714" y="-351.3" font-family="Helvetica,sans-Serif" font-size="9.00">Dist::num_params_components</text>
</a>
</g>
</g>
<!-- Node2&#45;&gt;Node6 -->
<g id="edge5" class="edge"><title>Node2&#45;&gt;Node6</title>
<path fill="none" stroke="midnightblue" d="M559.914,-616.297C574.392,-604.714 593.566,-587.107 605,-567.5 636.499,-513.488 610.006,-485.804 641,-431.5 652.572,-411.226 671.182,-392.567 686.583,-379.188"/>
<polygon fill="midnightblue" stroke="midnightblue" points="688.899,-381.814 694.29,-372.693 684.387,-376.461 688.899,-381.814"/>
</g>
<!-- Node7&#45;&gt;Node2 -->
<g id="edge8" class="edge"><title>Node7&#45;&gt;Node2</title>
<path fill="none" stroke="midnightblue" d="M235.689,-403.57C282.727,-445.598 422.505,-569.285 474,-601.5 479.944,-605.219 486.446,-608.721 492.962,-611.92"/>
<polygon fill="midnightblue" stroke="midnightblue" points="491.914,-615.294 502.453,-616.377 494.889,-608.958 491.914,-615.294"/>
</g>
<!-- Node8 -->
<g id="node8" class="node"><title>Node8</title>
<g id="a_node8"><a xlink:href="classprior__hessian_1_1CompositeDist.html#ae7742f32d7e64ca2c7b55132a8ae6895" target="_top" xlink:title="prior_hessian::Composite\lDist::num_params">
<polygon fill="white" stroke="black" points="478.5,-0.5 478.5,-28.5 600.5,-28.5 600.5,-0.5 478.5,-0.5"/>
<text text-anchor="start" x="486.5" y="-17.3" font-family="Helvetica,sans-Serif" font-size="9.00">prior_hessian::Composite</text>
<text text-anchor="middle" x="539.5" y="-7.3" font-family="Helvetica,sans-Serif" font-size="9.00">Dist::num_params</text>
</a>
</g>
</g>
<!-- Node7&#45;&gt;Node8 -->
<g id="edge7" class="edge"><title>Node7&#45;&gt;Node8</title>
<path fill="none" stroke="midnightblue" d="M226.956,-375.292C252.749,-323.91 347.978,-145.417 474,-43.5 478.648,-39.7411 483.861,-36.363 489.256,-33.3569"/>
<polygon fill="midnightblue" stroke="midnightblue" points="491.139,-36.3249 498.44,-28.6473 487.944,-30.0962 491.139,-36.3249"/>
</g>
<!-- Node9 -->
<g id="node9" class="node"><title>Node9</title>
<g id="a_node9"><a xlink:href="namespaceprior__hessian.html#ab26e9ddc3b6a5caccf5d75e1a1e1af1b" target="_top" xlink:title="prior_hessian::operator\&lt;\&lt;">
<polygon fill="white" stroke="black" points="316,-332.5 316,-350.5 438,-350.5 438,-332.5 316,-332.5"/>
<text text-anchor="middle" x="377" y="-339.3" font-family="Helvetica,sans-Serif" font-size="9.00">prior_hessian::operator&lt;&lt;</text>
</a>
</g>
</g>
<!-- Node7&#45;&gt;Node9 -->
<g id="edge9" class="edge"><title>Node7&#45;&gt;Node9</title>
<path fill="none" stroke="midnightblue" d="M265.541,-375.487C288.056,-368.56 314.962,-360.281 336.582,-353.628"/>
<polygon fill="midnightblue" stroke="midnightblue" points="337.89,-356.888 346.418,-350.602 335.831,-350.198 337.89,-356.888"/>
</g>
<!-- Node9&#45;&gt;Node2 -->
<g id="edge23" class="edge"><title>Node9&#45;&gt;Node2</title>
<path fill="none" stroke="midnightblue" d="M386.893,-350.731C400.18,-365.074 425.037,-394.128 438,-423.5 470.589,-497.341 423.631,-538.432 474,-601.5 476.835,-605.05 480.198,-608.179 483.877,-610.935"/>
<polygon fill="midnightblue" stroke="midnightblue" points="482.05,-613.922 492.353,-616.392 485.839,-608.036 482.05,-613.922"/>
</g>
<!-- Node9&#45;&gt;Node3 -->
<g id="edge10" class="edge"><title>Node9&#45;&gt;Node3</title>
<path fill="none" stroke="midnightblue" d="M382.452,-350.539C392.739,-371.548 418.747,-425.395 438,-471.5 455.56,-513.549 437.662,-540.004 474,-567.5 521.705,-603.597 591.141,-605.476 642.891,-600.176"/>
<polygon fill="midnightblue" stroke="midnightblue" points="643.452,-603.635 652.993,-599.029 642.662,-596.68 643.452,-603.635"/>
</g>
<!-- Node9&#45;&gt;Node4 -->
<g id="edge15" class="edge"><title>Node9&#45;&gt;Node4</title>
<path fill="none" stroke="midnightblue" d="M438.307,-344.287C485.241,-348.165 551.216,-357.421 605,-379.5 637.393,-392.798 669.574,-417.279 690.268,-434.866"/>
<polygon fill="midnightblue" stroke="midnightblue" points="688.027,-437.556 697.875,-441.464 692.613,-432.268 688.027,-437.556"/>
</g>
<!-- Node9&#45;&gt;Node5 -->
<g id="edge16" class="edge"><title>Node9&#45;&gt;Node5</title>
<path fill="none" stroke="midnightblue" d="M381.198,-332.222C397.23,-285.765 468.316,-80.4862 474,-76.5 530.946,-36.5616 717.966,-68.0015 787,-76.5 800.044,-78.1058 813.865,-80.895 826.833,-84.017"/>
<polygon fill="midnightblue" stroke="midnightblue" points="826.006,-87.4179 836.557,-86.4552 827.709,-80.6281 826.006,-87.4179"/>
</g>
<!-- Node9&#45;&gt;Node6 -->
<g id="edge22" class="edge"><title>Node9&#45;&gt;Node6</title>
<path fill="none" stroke="midnightblue" d="M438.284,-341.376C484.066,-341.633 548.558,-342.75 605,-346.5 613.321,-347.053 621.988,-347.772 630.634,-348.585"/>
<polygon fill="midnightblue" stroke="midnightblue" points="630.458,-352.084 640.752,-349.577 631.141,-345.118 630.458,-352.084"/>
</g>
<!-- Node9&#45;&gt;Node8 -->
<g id="edge21" class="edge"><title>Node9&#45;&gt;Node8</title>
<path fill="none" stroke="midnightblue" d="M381.87,-332.303C391.971,-308.087 419.625,-240.434 438,-182.5 457.293,-121.67 432.847,-92.2745 474,-43.5 476.975,-39.9737 480.467,-36.8578 484.259,-34.1078"/>
<polygon fill="midnightblue" stroke="midnightblue" points="486.344,-36.9319 492.957,-28.6547 482.625,-31.001 486.344,-36.9319"/>
</g>
<!-- Node10 -->
<g id="node10" class="node"><title>Node10</title>
<g id="a_node10"><a xlink:href="classprior__hessian_1_1CompositeDist.html#a9c8cf14584b037663fe8ef27f77e3bcf" target="_top" xlink:title="prior_hessian::Composite\lDist::dim_variables">
<polygon fill="white" stroke="black" points="653,-233.5 653,-261.5 775,-261.5 775,-233.5 653,-233.5"/>
<text text-anchor="start" x="661" y="-250.3" font-family="Helvetica,sans-Serif" font-size="9.00">prior_hessian::Composite</text>
<text text-anchor="middle" x="714" y="-240.3" font-family="Helvetica,sans-Serif" font-size="9.00">Dist::dim_variables</text>
</a>
</g>
</g>
<!-- Node9&#45;&gt;Node10 -->
<g id="edge11" class="edge"><title>Node9&#45;&gt;Node10</title>
<path fill="none" stroke="midnightblue" d="M410.121,-332.487C466.037,-316.797 582.072,-284.238 653.176,-264.287"/>
<polygon fill="midnightblue" stroke="midnightblue" points="654.217,-267.63 662.899,-261.558 652.326,-260.89 654.217,-267.63"/>
</g>
<!-- Node11 -->
<g id="node11" class="node"><title>Node11</title>
<g id="a_node11"><a xlink:href="classprior__hessian_1_1CompositeDist.html#a4034220fc10fed2ff9ebe2f81061ab2f" target="_top" xlink:title="prior_hessian::Composite\lDist::global_lbound">
<polygon fill="white" stroke="black" points="478.5,-227.5 478.5,-255.5 600.5,-255.5 600.5,-227.5 478.5,-227.5"/>
<text text-anchor="start" x="486.5" y="-244.3" font-family="Helvetica,sans-Serif" font-size="9.00">prior_hessian::Composite</text>
<text text-anchor="middle" x="539.5" y="-234.3" font-family="Helvetica,sans-Serif" font-size="9.00">Dist::global_lbound</text>
</a>
</g>
</g>
<!-- Node9&#45;&gt;Node11 -->
<g id="edge12" class="edge"><title>Node9&#45;&gt;Node11</title>
<path fill="none" stroke="midnightblue" d="M388.699,-332.384C405.891,-318.019 441.084,-289.771 474,-270.5 480.41,-266.747 487.393,-263.148 494.32,-259.84"/>
<polygon fill="midnightblue" stroke="midnightblue" points="496.059,-262.892 503.671,-255.523 493.125,-256.537 496.059,-262.892"/>
</g>
<!-- Node12 -->
<g id="node12" class="node"><title>Node12</title>
<g id="a_node12"><a xlink:href="classprior__hessian_1_1CompositeDist.html#a7e98f7f421d90f4b640e956ddf38987c" target="_top" xlink:title="prior_hessian::Composite\lDist::global_ubound">
<polygon fill="white" stroke="black" points="478.5,-180.5 478.5,-208.5 600.5,-208.5 600.5,-180.5 478.5,-180.5"/>
<text text-anchor="start" x="486.5" y="-197.3" font-family="Helvetica,sans-Serif" font-size="9.00">prior_hessian::Composite</text>
<text text-anchor="middle" x="539.5" y="-187.3" font-family="Helvetica,sans-Serif" font-size="9.00">Dist::global_ubound</text>
</a>
</g>
</g>
<!-- Node9&#45;&gt;Node12 -->
<g id="edge13" class="edge"><title>Node9&#45;&gt;Node12</title>
<path fill="none" stroke="midnightblue" d="M382.708,-332.265C394.771,-309.484 429.033,-250.098 474,-217.5 476.063,-216.004 478.234,-214.598 480.478,-213.276"/>
<polygon fill="midnightblue" stroke="midnightblue" points="482.198,-216.326 489.436,-208.588 478.953,-210.124 482.198,-216.326"/>
</g>
<!-- Node13 -->
<g id="node13" class="node"><title>Node13</title>
<g id="a_node13"><a xlink:href="classprior__hessian_1_1CompositeDist.html#a46c83acc63b87837f3c4cb425e312d67" target="_top" xlink:title="prior_hessian::Composite\lDist::lbound">
<polygon fill="white" stroke="black" points="478.5,-133.5 478.5,-161.5 600.5,-161.5 600.5,-133.5 478.5,-133.5"/>
<text text-anchor="start" x="486.5" y="-150.3" font-family="Helvetica,sans-Serif" font-size="9.00">prior_hessian::Composite</text>
<text text-anchor="middle" x="539.5" y="-140.3" font-family="Helvetica,sans-Serif" font-size="9.00">Dist::lbound</text>
</a>
</g>
</g>
<!-- Node9&#45;&gt;Node13 -->
<g id="edge14" class="edge"><title>Node9&#45;&gt;Node13</title>
<path fill="none" stroke="midnightblue" d="M380.644,-332.207C389.202,-303.771 418.837,-217.047 474,-170.5 475.533,-169.206 477.145,-167.983 478.817,-166.827"/>
<polygon fill="midnightblue" stroke="midnightblue" points="480.812,-169.712 487.611,-161.586 477.229,-163.699 480.812,-169.712"/>
</g>
<!-- Node14 -->
<g id="node14" class="node"><title>Node14</title>
<g id="a_node14"><a xlink:href="classprior__hessian_1_1CompositeDist.html#ab33784dcc2971ebaae40e6138bd1e4c2" target="_top" xlink:title="prior_hessian::Composite\lDist::num_dim_components">
<polygon fill="white" stroke="black" points="474,-86.5 474,-114.5 605,-114.5 605,-86.5 474,-86.5"/>
<text text-anchor="start" x="482" y="-103.3" font-family="Helvetica,sans-Serif" font-size="9.00">prior_hessian::Composite</text>
<text text-anchor="middle" x="539.5" y="-93.3" font-family="Helvetica,sans-Serif" font-size="9.00">Dist::num_dim_components</text>
</a>
</g>
</g>
<!-- Node9&#45;&gt;Node14 -->
<g id="edge17" class="edge"><title>Node9&#45;&gt;Node14</title>
<path fill="none" stroke="midnightblue" d="M380.934,-332.389C393.093,-295.109 440.465,-154.694 474,-123.5 475.287,-122.303 476.64,-121.168 478.047,-120.091"/>
<polygon fill="midnightblue" stroke="midnightblue" points="480.129,-122.913 486.622,-114.54 476.325,-117.036 480.129,-122.913"/>
</g>
<!-- Node16 -->
<g id="node16" class="node"><title>Node16</title>
<g id="a_node16"><a xlink:href="classprior__hessian_1_1CompositeDist.html#adc8761a6b3dda7ffe7d1694cebcd21f5" target="_top" xlink:title="prior_hessian::Composite\lDist::params">
<polygon fill="white" stroke="black" points="478.5,-530.5 478.5,-558.5 600.5,-558.5 600.5,-530.5 478.5,-530.5"/>
<text text-anchor="start" x="486.5" y="-547.3" font-family="Helvetica,sans-Serif" font-size="9.00">prior_hessian::Composite</text>
<text text-anchor="middle" x="539.5" y="-537.3" font-family="Helvetica,sans-Serif" font-size="9.00">Dist::params</text>
</a>
</g>
</g>
<!-- Node9&#45;&gt;Node16 -->
<g id="edge24" class="edge"><title>Node9&#45;&gt;Node16</title>
<path fill="none" stroke="midnightblue" d="M385.92,-350.527C398.355,-365.06 422.623,-394.916 438,-423.5 459.785,-463.997 441.498,-487.97 474,-520.5 475.457,-521.958 477.01,-523.328 478.64,-524.617"/>
<polygon fill="midnightblue" stroke="midnightblue" points="477.075,-527.778 487.341,-530.395 480.947,-521.947 477.075,-527.778"/>
</g>
<!-- Node17 -->
<g id="node17" class="node"><title>Node17</title>
<g id="a_node17"><a xlink:href="classprior__hessian_1_1CompositeDist.html#a3520120621a69469e885ba64f08ede3a" target="_top" xlink:title="prior_hessian::Composite\lDist::params_lbound">
<polygon fill="white" stroke="black" points="478.5,-483.5 478.5,-511.5 600.5,-511.5 600.5,-483.5 478.5,-483.5"/>
<text text-anchor="start" x="486.5" y="-500.3" font-family="Helvetica,sans-Serif" font-size="9.00">prior_hessian::Composite</text>
<text text-anchor="middle" x="539.5" y="-490.3" font-family="Helvetica,sans-Serif" font-size="9.00">Dist::params_lbound</text>
</a>
</g>
</g>
<!-- Node9&#45;&gt;Node17 -->
<g id="edge25" class="edge"><title>Node9&#45;&gt;Node17</title>
<path fill="none" stroke="midnightblue" d="M384.682,-350.584C395.786,-365.691 418.727,-396.947 438,-423.5 454.085,-445.661 452.226,-456.896 474,-473.5 476.439,-475.36 479.038,-477.088 481.739,-478.692"/>
<polygon fill="midnightblue" stroke="midnightblue" points="480.172,-481.823 490.648,-483.404 483.444,-475.635 480.172,-481.823"/>
</g>
<!-- Node18 -->
<g id="node18" class="node"><title>Node18</title>
<g id="a_node18"><a xlink:href="classprior__hessian_1_1CompositeDist.html#ab9eac2d70f484d2d0d4ead6a21d6f798" target="_top" xlink:title="prior_hessian::Composite\lDist::params_ubound">
<polygon fill="white" stroke="black" points="478.5,-436.5 478.5,-464.5 600.5,-464.5 600.5,-436.5 478.5,-436.5"/>
<text text-anchor="start" x="486.5" y="-453.3" font-family="Helvetica,sans-Serif" font-size="9.00">prior_hessian::Composite</text>
<text text-anchor="middle" x="539.5" y="-443.3" font-family="Helvetica,sans-Serif" font-size="9.00">Dist::params_ubound</text>
</a>
</g>
</g>
<!-- Node9&#45;&gt;Node18 -->
<g id="edge26" class="edge"><title>Node9&#45;&gt;Node18</title>
<path fill="none" stroke="midnightblue" d="M386.128,-350.658C401.675,-367.692 437.351,-404.509 474,-426.5 477.418,-428.551 481.04,-430.475 484.755,-432.27"/>
<polygon fill="midnightblue" stroke="midnightblue" points="483.563,-435.571 494.119,-436.466 486.425,-429.183 483.563,-435.571"/>
</g>
<!-- Node19 -->
<g id="node19" class="node"><title>Node19</title>
<g id="a_node19"><a xlink:href="classprior__hessian_1_1CompositeDist.html#aab0290d9dd418c2e7deb26e9f37eb74f" target="_top" xlink:title="prior_hessian::Composite\lDist::ubound">
<polygon fill="white" stroke="black" points="478.5,-389.5 478.5,-417.5 600.5,-417.5 600.5,-389.5 478.5,-389.5"/>
<text text-anchor="start" x="486.5" y="-406.3" font-family="Helvetica,sans-Serif" font-size="9.00">prior_hessian::Composite</text>
<text text-anchor="middle" x="539.5" y="-396.3" font-family="Helvetica,sans-Serif" font-size="9.00">Dist::ubound</text>
</a>
</g>
</g>
<!-- Node9&#45;&gt;Node19 -->
<g id="edge27" class="edge"><title>Node9&#45;&gt;Node19</title>
<path fill="none" stroke="midnightblue" d="M401.338,-350.515C425.187,-359.728 462.853,-374.278 492.685,-385.802"/>
<polygon fill="midnightblue" stroke="midnightblue" points="491.478,-389.088 502.068,-389.426 494.001,-382.558 491.478,-389.088"/>
</g>
<!-- Node14&#45;&gt;Node10 -->
<g id="edge18" class="edge"><title>Node14&#45;&gt;Node10</title>
<path fill="none" stroke="midnightblue" d="M588.703,-114.555C594.417,-117.117 599.99,-120.085 605,-123.5 645.265,-150.952 679.852,-196.928 698.431,-224.518"/>
<polygon fill="midnightblue" stroke="midnightblue" points="695.675,-226.696 704.103,-233.117 701.518,-222.842 695.675,-226.696"/>
</g>
<!-- Node15 -->
<g id="node15" class="node"><title>Node15</title>
<g id="a_node15"><a xlink:href="classprior__hessian_1_1CompositeDist.html#a6a84d1519fcee908bd41abd4a989f666" target="_top" xlink:title="prior_hessian::Composite\lDist::set_dim_variables">
<polygon fill="white" stroke="black" points="653,-86.5 653,-114.5 775,-114.5 775,-86.5 653,-86.5"/>
<text text-anchor="start" x="661" y="-103.3" font-family="Helvetica,sans-Serif" font-size="9.00">prior_hessian::Composite</text>
<text text-anchor="middle" x="714" y="-93.3" font-family="Helvetica,sans-Serif" font-size="9.00">Dist::set_dim_variables</text>
</a>
</g>
</g>
<!-- Node14&#45;&gt;Node15 -->
<g id="edge19" class="edge"><title>Node14&#45;&gt;Node15</title>
<path fill="none" stroke="midnightblue" d="M605.223,-100.5C617.398,-100.5 630.183,-100.5 642.523,-100.5"/>
<polygon fill="midnightblue" stroke="midnightblue" points="642.76,-104 652.76,-100.5 642.76,-97.0001 642.76,-104"/>
</g>
<!-- Node15&#45;&gt;Node5 -->
<g id="edge20" class="edge"><title>Node15&#45;&gt;Node5</title>
<path fill="none" stroke="midnightblue" d="M775.177,-100.5C787.314,-100.5 800.174,-100.5 812.624,-100.5"/>
<polygon fill="midnightblue" stroke="midnightblue" points="812.961,-104 822.961,-100.5 812.961,-97.0001 812.961,-104"/>
</g>
</g>
</svg>
