<?xml version="1.0" encoding="UTF-8" standalone="no"?>
<!DOCTYPE svg PUBLIC "-//W3C//DTD SVG 1.1//EN"
 "http://www.w3.org/Graphics/SVG/1.1/DTD/svg11.dtd">
<!-- Generated by graphviz version 2.38.0 (20140413.2041)
 -->
<!-- Title: prior_hessian::MultivariateNormalDist::lbound Pages: 1 -->
<svg width="938pt" height="143pt"
 viewBox="0.00 0.00 938.00 143.00" xmlns="http://www.w3.org/2000/svg" xmlns:xlink="http://www.w3.org/1999/xlink">
<g id="graph0" class="graph" transform="scale(1 1) rotate(0) translate(4 139)">
<title>prior_hessian::MultivariateNormalDist::lbound</title>
<polygon fill="white" stroke="none" points="-4,4 -4,-139 934,-139 934,4 -4,4"/>
<!-- Node1 -->
<g id="node1" class="node"><title>Node1</title>
<polygon fill="#bfbfbf" stroke="black" points="0,-82.5 0,-110.5 125,-110.5 125,-82.5 0,-82.5"/>
<text text-anchor="start" x="8" y="-99.3" font-family="Helvetica,sans-Serif" font-size="9.00">prior_hessian::Multivariate</text>
<text text-anchor="middle" x="62.5" y="-89.3" font-family="Helvetica,sans-Serif" font-size="9.00">NormalDist::lbound</text>
</g>
<!-- Node2 -->
<g id="node2" class="node"><title>Node2</title>
<g id="a_node2"><a xlink:href="classprior__hessian_1_1MultivariateNormalDist.html#aedb257f189a46f8b1ee36a1b344648c3" target="_top" xlink:title="prior_hessian::Multivariate\lNormalDist::in_bounds">
<polygon fill="white" stroke="black" points="161,-106.5 161,-134.5 286,-134.5 286,-106.5 161,-106.5"/>
<text text-anchor="start" x="169" y="-123.3" font-family="Helvetica,sans-Serif" font-size="9.00">prior_hessian::Multivariate</text>
<text text-anchor="middle" x="223.5" y="-113.3" font-family="Helvetica,sans-Serif" font-size="9.00">NormalDist::in_bounds</text>
</a>
</g>
</g>
<!-- Node1&#45;&gt;Node2 -->
<g id="edge1" class="edge"><title>Node1&#45;&gt;Node2</title>
<path fill="none" stroke="midnightblue" d="M135.592,-107.382C143.99,-108.649 152.499,-109.934 160.74,-111.178"/>
<polygon fill="midnightblue" stroke="midnightblue" points="135.839,-103.88 125.429,-105.848 134.794,-110.801 135.839,-103.88"/>
</g>
<!-- Node3 -->
<g id="node3" class="node"><title>Node3</title>
<g id="a_node3"><a xlink:href="classprior__hessian_1_1MultivariateNormalDist.html#a99b496bd355946a89e6563375dcf5d7a" target="_top" xlink:title="prior_hessian::Multivariate\lNormalDist::num_dim">
<polygon fill="white" stroke="black" points="161,-59.5 161,-87.5 286,-87.5 286,-59.5 161,-59.5"/>
<text text-anchor="start" x="169" y="-76.3" font-family="Helvetica,sans-Serif" font-size="9.00">prior_hessian::Multivariate</text>
<text text-anchor="middle" x="223.5" y="-66.3" font-family="Helvetica,sans-Serif" font-size="9.00">NormalDist::num_dim</text>
</a>
</g>
</g>
<!-- Node1&#45;&gt;Node3 -->
<g id="edge2" class="edge"><title>Node1&#45;&gt;Node3</title>
<path fill="none" stroke="midnightblue" d="M135.592,-86.0716C143.99,-84.8568 152.499,-83.6259 160.74,-82.4338"/>
<polygon fill="midnightblue" stroke="midnightblue" points="134.825,-82.6461 125.429,-87.5417 135.827,-89.574 134.825,-82.6461"/>
</g>
<!-- Node4 -->
<g id="node4" class="node"><title>Node4</title>
<g id="a_node4"><a xlink:href="classprior__hessian_1_1MultivariateNormalDist.html#a4512a641c493e33dfb93b5087e473c76" target="_top" xlink:title="prior_hessian::Multivariate\lNormalDist::rllh">
<polygon fill="white" stroke="black" points="322,-59.5 322,-87.5 447,-87.5 447,-59.5 322,-59.5"/>
<text text-anchor="start" x="330" y="-76.3" font-family="Helvetica,sans-Serif" font-size="9.00">prior_hessian::Multivariate</text>
<text text-anchor="middle" x="384.5" y="-66.3" font-family="Helvetica,sans-Serif" font-size="9.00">NormalDist::rllh</text>
</a>
</g>
</g>
<!-- Node3&#45;&gt;Node4 -->
<g id="edge3" class="edge"><title>Node3&#45;&gt;Node4</title>
<path fill="none" stroke="midnightblue" d="M296.592,-73.5C304.99,-73.5 313.499,-73.5 321.74,-73.5"/>
<polygon fill="midnightblue" stroke="midnightblue" points="296.429,-70.0001 286.429,-73.5 296.429,-77.0001 296.429,-70.0001"/>
</g>
<!-- Node5 -->
<g id="node5" class="node"><title>Node5</title>
<g id="a_node5"><a xlink:href="classprior__hessian_1_1MultivariateNormalDist.html#afdec8e6a453a2c69e0d84833d6b3e5ae" target="_top" xlink:title="prior_hessian::Multivariate\lNormalDist::mode">
<polygon fill="white" stroke="black" points="805,-43.5 805,-71.5 930,-71.5 930,-43.5 805,-43.5"/>
<text text-anchor="start" x="813" y="-60.3" font-family="Helvetica,sans-Serif" font-size="9.00">prior_hessian::Multivariate</text>
<text text-anchor="middle" x="867.5" y="-50.3" font-family="Helvetica,sans-Serif" font-size="9.00">NormalDist::mode</text>
</a>
</g>
</g>
<!-- Node4&#45;&gt;Node5 -->
<g id="edge4" class="edge"><title>Node4&#45;&gt;Node5</title>
<path fill="none" stroke="midnightblue" d="M457.253,-75.9588C465.927,-76.1819 474.663,-76.3718 483,-76.5 610.134,-78.4554 642.288,-80.0357 769,-69.5 780.642,-68.532 793.035,-67.2228 804.943,-65.8244"/>
<polygon fill="midnightblue" stroke="midnightblue" points="457.218,-72.4567 447.127,-75.6835 457.028,-79.4541 457.218,-72.4567"/>
</g>
<!-- Node6 -->
<g id="node6" class="node"><title>Node6</title>
<g id="a_node6"><a xlink:href="classprior__hessian_1_1MultivariateNormalDist.html#a3540b1bcafd58fe26de858c0a4aef3db" target="_top" xlink:title="prior_hessian::Multivariate\lNormalDist::llh">
<polygon fill="white" stroke="black" points="483,-38.5 483,-66.5 608,-66.5 608,-38.5 483,-38.5"/>
<text text-anchor="start" x="491" y="-55.3" font-family="Helvetica,sans-Serif" font-size="9.00">prior_hessian::Multivariate</text>
<text text-anchor="middle" x="545.5" y="-45.3" font-family="Helvetica,sans-Serif" font-size="9.00">NormalDist::llh</text>
</a>
</g>
</g>
<!-- Node4&#45;&gt;Node6 -->
<g id="edge5" class="edge"><title>Node4&#45;&gt;Node6</title>
<path fill="none" stroke="midnightblue" d="M457.592,-63.9784C465.99,-62.8693 474.499,-61.7454 482.74,-60.657"/>
<polygon fill="midnightblue" stroke="midnightblue" points="456.884,-60.5414 447.429,-65.3207 457.801,-67.4811 456.884,-60.5414"/>
</g>
<!-- Node6&#45;&gt;Node5 -->
<g id="edge6" class="edge"><title>Node6&#45;&gt;Node5</title>
<path fill="none" stroke="midnightblue" d="M618.426,-53.6238C674.559,-54.5009 751.702,-55.7063 804.99,-56.5389"/>
<polygon fill="midnightblue" stroke="midnightblue" points="618.253,-50.1208 608.199,-53.4641 618.143,-57.12 618.253,-50.1208"/>
</g>
<!-- Node7 -->
<g id="node7" class="node"><title>Node7</title>
<g id="a_node7"><a xlink:href="classprior__hessian_1_1MultivariateNormalDist.html#a67cba536341528564330b17dcbe5faff" target="_top" xlink:title="prior_hessian::Multivariate\lNormalDist::pdf">
<polygon fill="white" stroke="black" points="644,-0.5 644,-28.5 769,-28.5 769,-0.5 644,-0.5"/>
<text text-anchor="start" x="652" y="-17.3" font-family="Helvetica,sans-Serif" font-size="9.00">prior_hessian::Multivariate</text>
<text text-anchor="middle" x="706.5" y="-7.3" font-family="Helvetica,sans-Serif" font-size="9.00">NormalDist::pdf</text>
</a>
</g>
</g>
<!-- Node6&#45;&gt;Node7 -->
<g id="edge7" class="edge"><title>Node6&#45;&gt;Node7</title>
<path fill="none" stroke="midnightblue" d="M615.215,-36.0775C625.712,-33.5688 636.465,-30.999 646.722,-28.5475"/>
<polygon fill="midnightblue" stroke="midnightblue" points="614.166,-32.7295 605.254,-38.4582 615.794,-39.5377 614.166,-32.7295"/>
</g>
<!-- Node7&#45;&gt;Node5 -->
<g id="edge8" class="edge"><title>Node7&#45;&gt;Node5</title>
<path fill="none" stroke="midnightblue" d="M769.258,-31.2019C784.243,-35.2545 800.115,-39.5467 814.592,-43.462"/>
<polygon fill="midnightblue" stroke="midnightblue" points="770.13,-27.8119 759.563,-28.5798 768.302,-34.5691 770.13,-27.8119"/>
</g>
</g>
</svg>
