<?xml version="1.0" encoding="UTF-8" standalone="no"?>
<!DOCTYPE svg PUBLIC "-//W3C//DTD SVG 1.1//EN"
 "http://www.w3.org/Graphics/SVG/1.1/DTD/svg11.dtd">
<!-- Generated by graphviz version 2.38.0 (20140413.2041)
 -->
<!-- Title: prior_hessian::CopulaDistImpl::CopulaDist::num_components Pages: 1 -->
<svg width="859pt" height="168pt"
 viewBox="0.00 0.00 859.00 168.24" xmlns="http://www.w3.org/2000/svg" xmlns:xlink="http://www.w3.org/1999/xlink">
<g id="graph0" class="graph" transform="scale(1 1) rotate(0) translate(4 164.241)">
<title>prior_hessian::CopulaDistImpl::CopulaDist::num_components</title>
<polygon fill="white" stroke="none" points="-4,4 -4,-164.241 855,-164.241 855,4 -4,4"/>
<!-- Node1 -->
<g id="node1" class="node"><title>Node1</title>
<polygon fill="#bfbfbf" stroke="black" points="0,-37.7412 0,-65.7412 162,-65.7412 162,-37.7412 0,-37.7412"/>
<text text-anchor="start" x="8" y="-54.5412" font-family="Helvetica,sans-Serif" font-size="9.00">prior_hessian::CopulaDist</text>
<text text-anchor="middle" x="81" y="-44.5412" font-family="Helvetica,sans-Serif" font-size="9.00">Impl::CopulaDist::num_components</text>
</g>
<!-- Node2 -->
<g id="node2" class="node"><title>Node2</title>
<g id="a_node2"><a xlink:href="classprior__hessian_1_1CopulaDistImpl_1_1CopulaDist.html#aad110f1a85e7611fd098aa51c2104015" target="_top" xlink:title="prior_hessian::CopulaDist\lImpl::CopulaDist::global_ubound">
<polygon fill="white" stroke="black" points="198,-37.7412 198,-65.7412 349,-65.7412 349,-37.7412 198,-37.7412"/>
<text text-anchor="start" x="206" y="-54.5412" font-family="Helvetica,sans-Serif" font-size="9.00">prior_hessian::CopulaDist</text>
<text text-anchor="middle" x="273.5" y="-44.5412" font-family="Helvetica,sans-Serif" font-size="9.00">Impl::CopulaDist::global_ubound</text>
</a>
</g>
</g>
<!-- Node1&#45;&gt;Node2 -->
<g id="edge1" class="edge"><title>Node1&#45;&gt;Node2</title>
<path fill="none" stroke="midnightblue" d="M172.247,-51.7412C180.81,-51.7412 189.427,-51.7412 197.82,-51.7412"/>
<polygon fill="midnightblue" stroke="midnightblue" points="172.237,-48.2413 162.237,-51.7412 172.237,-55.2413 172.237,-48.2413"/>
</g>
<!-- Node3 -->
<g id="node3" class="node"><title>Node3</title>
<g id="a_node3"><a xlink:href="classprior__hessian_1_1CopulaDistImpl_1_1CopulaDist.html#a26cd71990978df0ddae24dae5148c880" target="_top" xlink:title="prior_hessian::CopulaDist\lImpl::CopulaDist::num_dim">
<polygon fill="white" stroke="black" points="390,-131.741 390,-159.741 517,-159.741 517,-131.741 390,-131.741"/>
<text text-anchor="start" x="398" y="-148.541" font-family="Helvetica,sans-Serif" font-size="9.00">prior_hessian::CopulaDist</text>
<text text-anchor="middle" x="453.5" y="-138.541" font-family="Helvetica,sans-Serif" font-size="9.00">Impl::CopulaDist::num_dim</text>
</a>
</g>
</g>
<!-- Node2&#45;&gt;Node3 -->
<g id="edge2" class="edge"><title>Node2&#45;&gt;Node3</title>
<path fill="none" stroke="midnightblue" d="M301.611,-71.8177C323.338,-87.2391 355.04,-108.278 385,-122.741 391.69,-125.971 398.951,-128.95 406.149,-131.618"/>
<polygon fill="midnightblue" stroke="midnightblue" points="303.393,-68.788 293.23,-65.7952 299.308,-74.4728 303.393,-68.788"/>
</g>
<!-- Node4 -->
<g id="node4" class="node"><title>Node4</title>
<g id="a_node4"><a xlink:href="classprior__hessian_1_1CopulaDistImpl_1_1CopulaDist.html#ad5f8f42efd9f709625cf60836fa473b9" target="_top" xlink:title="prior_hessian::CopulaDist\lImpl::CopulaDist::set_bounds">
<polygon fill="white" stroke="black" points="385,-84.7412 385,-112.741 522,-112.741 522,-84.7412 385,-84.7412"/>
<text text-anchor="start" x="393" y="-101.541" font-family="Helvetica,sans-Serif" font-size="9.00">prior_hessian::CopulaDist</text>
<text text-anchor="middle" x="453.5" y="-91.5412" font-family="Helvetica,sans-Serif" font-size="9.00">Impl::CopulaDist::set_bounds</text>
</a>
</g>
</g>
<!-- Node2&#45;&gt;Node4 -->
<g id="edge3" class="edge"><title>Node2&#45;&gt;Node4</title>
<path fill="none" stroke="midnightblue" d="M359.055,-67.325C380.566,-72.9323 402.424,-79.1581 419.585,-84.6709"/>
<polygon fill="midnightblue" stroke="midnightblue" points="359.771,-63.8953 349.214,-64.797 358.029,-70.6752 359.771,-63.8953"/>
</g>
<!-- Node7 -->
<g id="node7" class="node"><title>Node7</title>
<g id="a_node7"><a xlink:href="classprior__hessian_1_1CopulaDistImpl_1_1CopulaDist.html#a4b010ffe2c2acd4dc75c80b32312254d" target="_top" xlink:title="prior_hessian::CopulaDist\lImpl::CopulaDist::set_ubound">
<polygon fill="white" stroke="black" points="385,-37.7412 385,-65.7412 522,-65.7412 522,-37.7412 385,-37.7412"/>
<text text-anchor="start" x="393" y="-54.5412" font-family="Helvetica,sans-Serif" font-size="9.00">prior_hessian::CopulaDist</text>
<text text-anchor="middle" x="453.5" y="-44.5412" font-family="Helvetica,sans-Serif" font-size="9.00">Impl::CopulaDist::set_ubound</text>
</a>
</g>
</g>
<!-- Node2&#45;&gt;Node7 -->
<g id="edge10" class="edge"><title>Node2&#45;&gt;Node7</title>
<path fill="none" stroke="midnightblue" d="M359.231,-44.9981C367.8,-44.9704 376.423,-45.0262 384.779,-45.1657"/>
<polygon fill="midnightblue" stroke="midnightblue" points="359.189,-41.4982 349.214,-45.0691 359.239,-48.498 359.189,-41.4982"/>
</g>
<!-- Node4&#45;&gt;Node2 -->
<g id="edge9" class="edge"><title>Node4&#45;&gt;Node2</title>
<path fill="none" stroke="midnightblue" d="M375.236,-85.0375C351.509,-78.9857 326.65,-71.9853 307.563,-65.8593"/>
<polygon fill="midnightblue" stroke="midnightblue" points="374.409,-88.4384 384.96,-87.4801 376.114,-81.6493 374.409,-88.4384"/>
</g>
<!-- Node5 -->
<g id="node5" class="node"><title>Node5</title>
<g id="a_node5"><a xlink:href="classprior__hessian_1_1CopulaDistImpl_1_1CopulaDist.html#abdb39f0c5f7f5f4b16bf501e6083d5b6" target="_top" xlink:title="prior_hessian::CopulaDist\lImpl::CopulaDist::ubound">
<polygon fill="white" stroke="black" points="558,-18.7412 558,-46.7412 681,-46.7412 681,-18.7412 558,-18.7412"/>
<text text-anchor="start" x="566" y="-35.5412" font-family="Helvetica,sans-Serif" font-size="9.00">prior_hessian::CopulaDist</text>
<text text-anchor="middle" x="619.5" y="-25.5412" font-family="Helvetica,sans-Serif" font-size="9.00">Impl::CopulaDist::ubound</text>
</a>
</g>
</g>
<!-- Node4&#45;&gt;Node5 -->
<g id="edge4" class="edge"><title>Node4&#45;&gt;Node5</title>
<path fill="none" stroke="midnightblue" d="M507.202,-81.3017C512.226,-79.4839 517.224,-77.6145 522,-75.7412 544.71,-66.8337 569.869,-55.5754 588.803,-46.8132"/>
<polygon fill="midnightblue" stroke="midnightblue" points="505.817,-78.0794 497.562,-84.7211 508.157,-84.6766 505.817,-78.0794"/>
</g>
<!-- Node5&#45;&gt;Node2 -->
<g id="edge8" class="edge"><title>Node5&#45;&gt;Node2</title>
<path fill="none" stroke="midnightblue" d="M547.676,-29.4693C539.028,-29.1691 530.314,-28.9134 522,-28.7412 461.124,-27.4801 445.569,-22.5045 385,-28.7412 367.165,-30.5777 347.962,-34.0396 330.649,-37.7305"/>
<polygon fill="midnightblue" stroke="midnightblue" points="547.647,-32.9705 557.769,-29.8399 547.904,-25.9752 547.647,-32.9705"/>
</g>
<!-- Node6 -->
<g id="node6" class="node"><title>Node6</title>
<g id="a_node6"><a xlink:href="classprior__hessian_1_1CopulaDistImpl_1_1CopulaDist.html#ac0819ccaeef1afd7a123338823e8fb3c" target="_top" xlink:title="prior_hessian::CopulaDist\lImpl::CopulaDist::set_lbound">
<polygon fill="white" stroke="black" points="717,-18.7412 717,-46.7412 851,-46.7412 851,-18.7412 717,-18.7412"/>
<text text-anchor="start" x="725" y="-35.5412" font-family="Helvetica,sans-Serif" font-size="9.00">prior_hessian::CopulaDist</text>
<text text-anchor="middle" x="784" y="-25.5412" font-family="Helvetica,sans-Serif" font-size="9.00">Impl::CopulaDist::set_lbound</text>
</a>
</g>
</g>
<!-- Node5&#45;&gt;Node6 -->
<g id="edge5" class="edge"><title>Node5&#45;&gt;Node6</title>
<path fill="none" stroke="midnightblue" d="M691.03,-26.0437C699.65,-25.9588 708.435,-25.9769 716.986,-26.0978"/>
<polygon fill="midnightblue" stroke="midnightblue" points="690.957,-22.5443 681.009,-26.1906 691.059,-29.5435 690.957,-22.5443"/>
</g>
<!-- Node6&#45;&gt;Node2 -->
<g id="edge7" class="edge"><title>Node6&#45;&gt;Node2</title>
<path fill="none" stroke="midnightblue" d="M723.676,-16.3482C709.782,-13.1891 694.96,-10.3614 681,-8.7412 550.196,6.44025 514.783,0.544048 385,-21.7412 362.861,-25.5427 338.737,-31.8333 318.694,-37.675"/>
<polygon fill="midnightblue" stroke="midnightblue" points="723.066,-19.8004 733.603,-18.6944 724.676,-12.988 723.066,-19.8004"/>
</g>
<!-- Node6&#45;&gt;Node5 -->
<g id="edge6" class="edge"><title>Node6&#45;&gt;Node5</title>
<path fill="none" stroke="midnightblue" d="M706.864,-39.4793C698.191,-39.5197 689.44,-39.4572 681.009,-39.2918"/>
<polygon fill="midnightblue" stroke="midnightblue" points="707.019,-42.9781 716.986,-39.3846 706.953,-35.9784 707.019,-42.9781"/>
</g>
<!-- Node7&#45;&gt;Node2 -->
<g id="edge12" class="edge"><title>Node7&#45;&gt;Node2</title>
<path fill="none" stroke="midnightblue" d="M374.589,-58.4444C366.162,-58.5159 357.602,-58.5055 349.214,-58.4133"/>
<polygon fill="midnightblue" stroke="midnightblue" points="374.824,-61.9418 384.779,-58.3167 374.736,-54.9424 374.824,-61.9418"/>
</g>
<!-- Node7&#45;&gt;Node5 -->
<g id="edge11" class="edge"><title>Node7&#45;&gt;Node5</title>
<path fill="none" stroke="midnightblue" d="M532.203,-42.7391C540.808,-41.7421 549.477,-40.7377 557.829,-39.7701"/>
<polygon fill="midnightblue" stroke="midnightblue" points="531.683,-39.2758 522.152,-43.9035 532.488,-46.2293 531.683,-39.2758"/>
</g>
</g>
</svg>
