<?xml version="1.0" encoding="UTF-8" standalone="no"?>
<!DOCTYPE svg PUBLIC "-//W3C//DTD SVG 1.1//EN"
 "http://www.w3.org/Graphics/SVG/1.1/DTD/svg11.dtd">
<!-- Generated by graphviz version 2.38.0 (20140413.2041)
 -->
<!-- Title: prior_hessian::MultivariateNormalDist::grad_hess_accumulate Pages: 1 -->
<svg width="332pt" height="84pt"
 viewBox="0.00 0.00 332.00 84.00" xmlns="http://www.w3.org/2000/svg" xmlns:xlink="http://www.w3.org/1999/xlink">
<g id="graph0" class="graph" transform="scale(1 1) rotate(0) translate(4 80)">
<title>prior_hessian::MultivariateNormalDist::grad_hess_accumulate</title>
<polygon fill="white" stroke="none" points="-4,4 -4,-80 328,-80 328,4 -4,4"/>
<!-- Node1 -->
<g id="node1" class="node"><title>Node1</title>
<polygon fill="#bfbfbf" stroke="black" points="0,-23.5 0,-51.5 163,-51.5 163,-23.5 0,-23.5"/>
<text text-anchor="start" x="8" y="-40.3" font-family="Helvetica,sans-Serif" font-size="9.00">prior_hessian::Multivariate</text>
<text text-anchor="middle" x="81.5" y="-30.3" font-family="Helvetica,sans-Serif" font-size="9.00">NormalDist::grad_hess_accumulate</text>
</g>
<!-- Node2 -->
<g id="node2" class="node"><title>Node2</title>
<g id="a_node2"><a xlink:href="classprior__hessian_1_1MultivariateNormalDist.html#a53e894d82ca08f285fc004b77301495d" target="_top" xlink:title="prior_hessian::Multivariate\lNormalDist::mu">
<polygon fill="white" stroke="black" points="199,-47.5 199,-75.5 324,-75.5 324,-47.5 199,-47.5"/>
<text text-anchor="start" x="207" y="-64.3" font-family="Helvetica,sans-Serif" font-size="9.00">prior_hessian::Multivariate</text>
<text text-anchor="middle" x="261.5" y="-54.3" font-family="Helvetica,sans-Serif" font-size="9.00">NormalDist::mu</text>
</a>
</g>
</g>
<!-- Node1&#45;&gt;Node2 -->
<g id="edge1" class="edge"><title>Node1&#45;&gt;Node2</title>
<path fill="none" stroke="midnightblue" d="M163.167,-48.3765C171.669,-49.5227 180.272,-50.6828 188.664,-51.8143"/>
<polygon fill="midnightblue" stroke="midnightblue" points="188.397,-55.3098 198.775,-53.1775 189.332,-48.3726 188.397,-55.3098"/>
</g>
<!-- Node3 -->
<g id="node3" class="node"><title>Node3</title>
<g id="a_node3"><a xlink:href="classprior__hessian_1_1MultivariateNormalDist.html#a38fa22fd87e3603397c433e33ce0c2be" target="_top" xlink:title="prior_hessian::Multivariate\lNormalDist::sigma_inv">
<polygon fill="white" stroke="black" points="199,-0.5 199,-28.5 324,-28.5 324,-0.5 199,-0.5"/>
<text text-anchor="start" x="207" y="-17.3" font-family="Helvetica,sans-Serif" font-size="9.00">prior_hessian::Multivariate</text>
<text text-anchor="middle" x="261.5" y="-7.3" font-family="Helvetica,sans-Serif" font-size="9.00">NormalDist::sigma_inv</text>
</a>
</g>
</g>
<!-- Node1&#45;&gt;Node3 -->
<g id="edge2" class="edge"><title>Node1&#45;&gt;Node3</title>
<path fill="none" stroke="midnightblue" d="M163.167,-27.0767C171.669,-25.9782 180.272,-24.8665 188.664,-23.7821"/>
<polygon fill="midnightblue" stroke="midnightblue" points="189.306,-27.2284 198.775,-22.4757 188.409,-20.2861 189.306,-27.2284"/>
</g>
</g>
</svg>
