<?xml version="1.0" encoding="UTF-8" standalone="no"?>
<!DOCTYPE svg PUBLIC "-//W3C//DTD SVG 1.1//EN"
 "http://www.w3.org/Graphics/SVG/1.1/DTD/svg11.dtd">
<!-- Generated by graphviz version 2.38.0 (20140413.2041)
 -->
<!-- Title: prior_hessian::NormalDist::params Pages: 1 -->
<svg width="466pt" height="121pt"
 viewBox="0.00 0.00 466.00 121.00" xmlns="http://www.w3.org/2000/svg" xmlns:xlink="http://www.w3.org/1999/xlink">
<g id="graph0" class="graph" transform="scale(1 1) rotate(0) translate(4 117)">
<title>prior_hessian::NormalDist::params</title>
<polygon fill="white" stroke="none" points="-4,4 -4,-117 462,-117 462,4 -4,4"/>
<!-- Node1 -->
<g id="node1" class="node"><title>Node1</title>
<polygon fill="#bfbfbf" stroke="black" points="0,-47.5 0,-75.5 123,-75.5 123,-47.5 0,-47.5"/>
<text text-anchor="start" x="8" y="-64.3" font-family="Helvetica,sans-Serif" font-size="9.00">prior_hessian::NormalDist</text>
<text text-anchor="middle" x="61.5" y="-54.3" font-family="Helvetica,sans-Serif" font-size="9.00">::params</text>
</g>
<!-- Node2 -->
<g id="node2" class="node"><title>Node2</title>
<g id="a_node2"><a xlink:href="classprior__hessian_1_1NormalDist.html#a33b6cc4357406f8d0dd017fc1088e1bc" target="_top" xlink:title="prior_hessian::NormalDist::mu">
<polygon fill="white" stroke="black" points="159,-94.5 159,-112.5 299,-112.5 299,-94.5 159,-94.5"/>
<text text-anchor="middle" x="229" y="-101.3" font-family="Helvetica,sans-Serif" font-size="9.00">prior_hessian::NormalDist::mu</text>
</a>
</g>
</g>
<!-- Node1&#45;&gt;Node2 -->
<g id="edge1" class="edge"><title>Node1&#45;&gt;Node2</title>
<path fill="none" stroke="midnightblue" d="M118.07,-75.6022C138.956,-80.9028 162.442,-86.8628 182.326,-91.9091"/>
<polygon fill="midnightblue" stroke="midnightblue" points="181.513,-95.3136 192.067,-94.381 183.235,-88.5286 181.513,-95.3136"/>
</g>
<!-- Node3 -->
<g id="node3" class="node"><title>Node3</title>
<g id="a_node3"><a xlink:href="classprior__hessian_1_1NormalDist.html#a352979a2485cd990786ae53db6d64123" target="_top" xlink:title="prior_hessian::NormalDist\l::set_params">
<polygon fill="white" stroke="black" points="167.5,-0.5 167.5,-28.5 290.5,-28.5 290.5,-0.5 167.5,-0.5"/>
<text text-anchor="start" x="175.5" y="-17.3" font-family="Helvetica,sans-Serif" font-size="9.00">prior_hessian::NormalDist</text>
<text text-anchor="middle" x="229" y="-7.3" font-family="Helvetica,sans-Serif" font-size="9.00">::set_params</text>
</a>
</g>
</g>
<!-- Node1&#45;&gt;Node3 -->
<g id="edge2" class="edge"><title>Node1&#45;&gt;Node3</title>
<path fill="none" stroke="midnightblue" d="M112.155,-47.3985C129.992,-42.3331 150.284,-36.5703 168.848,-31.2985"/>
<polygon fill="midnightblue" stroke="midnightblue" points="170.002,-34.6093 178.665,-28.5106 168.089,-27.8756 170.002,-34.6093"/>
</g>
<!-- Node6 -->
<g id="node6" class="node"><title>Node6</title>
<g id="a_node6"><a xlink:href="classprior__hessian_1_1NormalDist.html#adfc5ab11dc02672d9ef08eda487f97a7" target="_top" xlink:title="prior_hessian::NormalDist\l::sigma">
<polygon fill="white" stroke="black" points="167.5,-47.5 167.5,-75.5 290.5,-75.5 290.5,-47.5 167.5,-47.5"/>
<text text-anchor="start" x="175.5" y="-64.3" font-family="Helvetica,sans-Serif" font-size="9.00">prior_hessian::NormalDist</text>
<text text-anchor="middle" x="229" y="-54.3" font-family="Helvetica,sans-Serif" font-size="9.00">::sigma</text>
</a>
</g>
</g>
<!-- Node1&#45;&gt;Node6 -->
<g id="edge5" class="edge"><title>Node1&#45;&gt;Node6</title>
<path fill="none" stroke="midnightblue" d="M123.186,-61.5C134.205,-61.5 145.786,-61.5 157.069,-61.5"/>
<polygon fill="midnightblue" stroke="midnightblue" points="157.321,-65.0001 167.321,-61.5 157.321,-58.0001 157.321,-65.0001"/>
</g>
<!-- Node4 -->
<g id="node4" class="node"><title>Node4</title>
<g id="a_node4"><a xlink:href="classprior__hessian_1_1NormalDist.html#a078a35e8ded3164ca701e1a1b6918f39" target="_top" xlink:title="prior_hessian::NormalDist\l::set_mu">
<polygon fill="white" stroke="black" points="335,-47.5 335,-75.5 458,-75.5 458,-47.5 335,-47.5"/>
<text text-anchor="start" x="343" y="-64.3" font-family="Helvetica,sans-Serif" font-size="9.00">prior_hessian::NormalDist</text>
<text text-anchor="middle" x="396.5" y="-54.3" font-family="Helvetica,sans-Serif" font-size="9.00">::set_mu</text>
</a>
</g>
</g>
<!-- Node3&#45;&gt;Node4 -->
<g id="edge3" class="edge"><title>Node3&#45;&gt;Node4</title>
<path fill="none" stroke="midnightblue" d="M279.655,-28.6015C297.492,-33.6669 317.784,-39.4297 336.348,-44.7015"/>
<polygon fill="midnightblue" stroke="midnightblue" points="335.589,-48.1244 346.165,-47.4894 337.502,-41.3907 335.589,-48.1244"/>
</g>
<!-- Node5 -->
<g id="node5" class="node"><title>Node5</title>
<g id="a_node5"><a xlink:href="classprior__hessian_1_1NormalDist.html#aa72eaaeda9a2fe0475ee78f08359d096" target="_top" xlink:title="prior_hessian::NormalDist\l::set_sigma">
<polygon fill="white" stroke="black" points="335,-0.5 335,-28.5 458,-28.5 458,-0.5 335,-0.5"/>
<text text-anchor="start" x="343" y="-17.3" font-family="Helvetica,sans-Serif" font-size="9.00">prior_hessian::NormalDist</text>
<text text-anchor="middle" x="396.5" y="-7.3" font-family="Helvetica,sans-Serif" font-size="9.00">::set_sigma</text>
</a>
</g>
</g>
<!-- Node3&#45;&gt;Node5 -->
<g id="edge4" class="edge"><title>Node3&#45;&gt;Node5</title>
<path fill="none" stroke="midnightblue" d="M290.686,-14.5C301.705,-14.5 313.286,-14.5 324.569,-14.5"/>
<polygon fill="midnightblue" stroke="midnightblue" points="324.821,-18.0001 334.821,-14.5 324.821,-11.0001 324.821,-18.0001"/>
</g>
<!-- Node6&#45;&gt;Node4 -->
<g id="edge6" class="edge"><title>Node6&#45;&gt;Node4</title>
<path fill="none" stroke="midnightblue" d="M290.686,-61.5C301.705,-61.5 313.286,-61.5 324.569,-61.5"/>
<polygon fill="midnightblue" stroke="midnightblue" points="324.821,-65.0001 334.821,-61.5 324.821,-58.0001 324.821,-65.0001"/>
</g>
<!-- Node6&#45;&gt;Node5 -->
<g id="edge7" class="edge"><title>Node6&#45;&gt;Node5</title>
<path fill="none" stroke="midnightblue" d="M279.655,-47.3985C297.492,-42.3331 317.784,-36.5703 336.348,-31.2985"/>
<polygon fill="midnightblue" stroke="midnightblue" points="337.502,-34.6093 346.165,-28.5106 335.589,-27.8756 337.502,-34.6093"/>
</g>
</g>
</svg>
