<?xml version="1.0" encoding="UTF-8" standalone="no"?>
<!DOCTYPE svg PUBLIC "-//W3C//DTD SVG 1.1//EN"
 "http://www.w3.org/Graphics/SVG/1.1/DTD/svg11.dtd">
<!-- Generated by graphviz version 2.38.0 (20140413.2041)
 -->
<!-- Title: prior_hessian::CompositeDist::num_dim_components Pages: 1 -->
<svg width="772pt" height="98pt"
 viewBox="0.00 0.00 772.00 98.00" xmlns="http://www.w3.org/2000/svg" xmlns:xlink="http://www.w3.org/1999/xlink">
<g id="graph0" class="graph" transform="scale(1 1) rotate(0) translate(4 94)">
<title>prior_hessian::CompositeDist::num_dim_components</title>
<polygon fill="white" stroke="none" points="-4,4 -4,-94 768,-94 768,4 -4,4"/>
<!-- Node1 -->
<g id="node1" class="node"><title>Node1</title>
<polygon fill="#bfbfbf" stroke="black" points="0,-0.5 0,-28.5 131,-28.5 131,-0.5 0,-0.5"/>
<text text-anchor="start" x="8" y="-17.3" font-family="Helvetica,sans-Serif" font-size="9.00">prior_hessian::Composite</text>
<text text-anchor="middle" x="65.5" y="-7.3" font-family="Helvetica,sans-Serif" font-size="9.00">Dist::num_dim_components</text>
</g>
<!-- Node2 -->
<g id="node2" class="node"><title>Node2</title>
<g id="a_node2"><a xlink:href="namespaceprior__hessian.html#ab26e9ddc3b6a5caccf5d75e1a1e1af1b" target="_top" xlink:title="prior_hessian::operator\&lt;\&lt;">
<polygon fill="white" stroke="black" points="167,-25.5 167,-43.5 289,-43.5 289,-25.5 167,-25.5"/>
<text text-anchor="middle" x="228" y="-32.3" font-family="Helvetica,sans-Serif" font-size="9.00">prior_hessian::operator&lt;&lt;</text>
</a>
</g>
</g>
<!-- Node1&#45;&gt;Node2 -->
<g id="edge1" class="edge"><title>Node1&#45;&gt;Node2</title>
<path fill="none" stroke="midnightblue" d="M141.314,-23.8226C149.881,-24.8902 158.531,-25.968 166.871,-27.0073"/>
<polygon fill="midnightblue" stroke="midnightblue" points="141.675,-20.3406 131.319,-22.5771 140.809,-27.2869 141.675,-20.3406"/>
</g>
<!-- Node5 -->
<g id="node5" class="node"><title>Node5</title>
<g id="a_node5"><a xlink:href="classprior__hessian_1_1CompositeDist.html#a24bac25ae8c0330b8a3aacadffc9d5ae" target="_top" xlink:title="prior_hessian::Composite\lDist::rllh_components">
<polygon fill="white" stroke="black" points="642,-18.5 642,-46.5 764,-46.5 764,-18.5 642,-18.5"/>
<text text-anchor="start" x="650" y="-35.3" font-family="Helvetica,sans-Serif" font-size="9.00">prior_hessian::Composite</text>
<text text-anchor="middle" x="703" y="-25.3" font-family="Helvetica,sans-Serif" font-size="9.00">Dist::rllh_components</text>
</a>
</g>
</g>
<!-- Node1&#45;&gt;Node5 -->
<g id="edge6" class="edge"><title>Node1&#45;&gt;Node5</title>
<path fill="none" stroke="midnightblue" d="M141.211,-12.549C217.957,-10.957 340.863,-9.55133 447,-13.5 513.766,-15.9839 590.162,-22.114 641.789,-26.7446"/>
<polygon fill="midnightblue" stroke="midnightblue" points="141.082,-9.05091 131.159,-12.7641 141.232,-16.0493 141.082,-9.05091"/>
</g>
<!-- Node3 -->
<g id="node3" class="node"><title>Node3</title>
<g id="a_node3"><a xlink:href="classprior__hessian_1_1CompositeDist.html#a38c4fdacf927824117d202422b04013c" target="_top" xlink:title="prior_hessian::Composite\lDist::set_param_names">
<polygon fill="white" stroke="black" points="325,-23.5 325,-51.5 447,-51.5 447,-23.5 325,-23.5"/>
<text text-anchor="start" x="333" y="-40.3" font-family="Helvetica,sans-Serif" font-size="9.00">prior_hessian::Composite</text>
<text text-anchor="middle" x="386" y="-30.3" font-family="Helvetica,sans-Serif" font-size="9.00">Dist::set_param_names</text>
</a>
</g>
</g>
<!-- Node2&#45;&gt;Node3 -->
<g id="edge2" class="edge"><title>Node2&#45;&gt;Node3</title>
<path fill="none" stroke="midnightblue" d="M299.538,-35.8565C307.99,-36.019 316.56,-36.1839 324.847,-36.3432"/>
<polygon fill="midnightblue" stroke="midnightblue" points="299.379,-32.3529 289.314,-35.6599 299.244,-39.3516 299.379,-32.3529"/>
</g>
<!-- Node4 -->
<g id="node4" class="node"><title>Node4</title>
<g id="a_node4"><a xlink:href="classprior__hessian_1_1CompositeDist.html#a927fed39b2b4e87714c728d6e7b11e8b" target="_top" xlink:title="prior_hessian::Composite\lDist::params_components">
<polygon fill="white" stroke="black" points="483,-61.5 483,-89.5 606,-89.5 606,-61.5 483,-61.5"/>
<text text-anchor="start" x="491" y="-78.3" font-family="Helvetica,sans-Serif" font-size="9.00">prior_hessian::Composite</text>
<text text-anchor="middle" x="544.5" y="-68.3" font-family="Helvetica,sans-Serif" font-size="9.00">Dist::params_components</text>
</a>
</g>
</g>
<!-- Node3&#45;&gt;Node4 -->
<g id="edge3" class="edge"><title>Node3&#45;&gt;Node4</title>
<path fill="none" stroke="midnightblue" d="M454.635,-53.9225C464.967,-56.4312 475.55,-59.001 485.646,-61.4525"/>
<polygon fill="midnightblue" stroke="midnightblue" points="455.374,-50.5003 444.83,-51.5418 453.722,-57.3026 455.374,-50.5003"/>
</g>
<!-- Node3&#45;&gt;Node5 -->
<g id="edge5" class="edge"><title>Node3&#45;&gt;Node5</title>
<path fill="none" stroke="midnightblue" d="M457.457,-36.3816C512.879,-35.5019 589.264,-34.2895 641.842,-33.4549"/>
<polygon fill="midnightblue" stroke="midnightblue" points="457.306,-32.8835 447.362,-36.5419 457.417,-39.8826 457.306,-32.8835"/>
</g>
<!-- Node4&#45;&gt;Node5 -->
<g id="edge4" class="edge"><title>Node4&#45;&gt;Node5</title>
<path fill="none" stroke="midnightblue" d="M606.709,-58.6822C621.334,-54.6638 636.794,-50.416 650.908,-46.538"/>
<polygon fill="midnightblue" stroke="midnightblue" points="605.459,-55.3958 596.744,-61.4202 607.314,-62.1456 605.459,-55.3958"/>
</g>
</g>
</svg>
