<?xml version="1.0" encoding="UTF-8" standalone="no"?>
<!DOCTYPE svg PUBLIC "-//W3C//DTD SVG 1.1//EN"
 "http://www.w3.org/Graphics/SVG/1.1/DTD/svg11.dtd">
<!-- Generated by graphviz version 2.38.0 (20140413.2041)
 -->
<!-- Title: prior_hessian::CopulaDistImpl::CopulaDist::lbound Pages: 1 -->
<svg width="820pt" height="206pt"
 viewBox="0.00 0.00 820.00 205.89" xmlns="http://www.w3.org/2000/svg" xmlns:xlink="http://www.w3.org/1999/xlink">
<g id="graph0" class="graph" transform="scale(1 1) rotate(0) translate(4 201.892)">
<title>prior_hessian::CopulaDistImpl::CopulaDist::lbound</title>
<polygon fill="white" stroke="none" points="-4,4 -4,-201.892 816,-201.892 816,4 -4,4"/>
<!-- Node1 -->
<g id="node1" class="node"><title>Node1</title>
<polygon fill="#bfbfbf" stroke="black" points="0,-30.9201 0,-58.9201 123,-58.9201 123,-30.9201 0,-30.9201"/>
<text text-anchor="start" x="8" y="-47.7201" font-family="Helvetica,sans-Serif" font-size="9.00">prior_hessian::CopulaDist</text>
<text text-anchor="middle" x="61.5" y="-37.7201" font-family="Helvetica,sans-Serif" font-size="9.00">Impl::CopulaDist::lbound</text>
</g>
<!-- Node2 -->
<g id="node2" class="node"><title>Node2</title>
<g id="a_node2"><a xlink:href="classprior__hessian_1_1CopulaDistImpl_1_1CopulaDist.html#aad110f1a85e7611fd098aa51c2104015" target="_top" xlink:title="prior_hessian::CopulaDist\lImpl::CopulaDist::global_ubound">
<polygon fill="white" stroke="black" points="159,-77.9201 159,-105.92 310,-105.92 310,-77.9201 159,-77.9201"/>
<text text-anchor="start" x="167" y="-94.7201" font-family="Helvetica,sans-Serif" font-size="9.00">prior_hessian::CopulaDist</text>
<text text-anchor="middle" x="234.5" y="-84.7201" font-family="Helvetica,sans-Serif" font-size="9.00">Impl::CopulaDist::global_ubound</text>
</a>
</g>
</g>
<!-- Node1&#45;&gt;Node2 -->
<g id="edge1" class="edge"><title>Node1&#45;&gt;Node2</title>
<path fill="none" stroke="midnightblue" d="M123.698,-61.7404C142.971,-67.0379 164.042,-72.8293 182.525,-77.9095"/>
<polygon fill="midnightblue" stroke="midnightblue" points="124.376,-58.2971 113.806,-59.0216 122.52,-65.0468 124.376,-58.2971"/>
</g>
<!-- Node5 -->
<g id="node5" class="node"><title>Node5</title>
<g id="a_node5"><a xlink:href="classprior__hessian_1_1CopulaDistImpl_1_1CopulaDist.html#abdb39f0c5f7f5f4b16bf501e6083d5b6" target="_top" xlink:title="prior_hessian::CopulaDist\lImpl::CopulaDist::ubound">
<polygon fill="white" stroke="black" points="519,-77.9201 519,-105.92 642,-105.92 642,-77.9201 519,-77.9201"/>
<text text-anchor="start" x="527" y="-94.7201" font-family="Helvetica,sans-Serif" font-size="9.00">prior_hessian::CopulaDist</text>
<text text-anchor="middle" x="580.5" y="-84.7201" font-family="Helvetica,sans-Serif" font-size="9.00">Impl::CopulaDist::ubound</text>
</a>
</g>
</g>
<!-- Node1&#45;&gt;Node5 -->
<g id="edge14" class="edge"><title>Node1&#45;&gt;Node5</title>
<path fill="none" stroke="midnightblue" d="M121.027,-28.3763C203.904,-7.86571 359.158,19.73 483,-20.9201 517.188,-32.1421 549.239,-60.6211 566.428,-77.9084"/>
<polygon fill="midnightblue" stroke="midnightblue" points="120.123,-24.9945 111.285,-30.8374 121.838,-31.7812 120.123,-24.9945"/>
</g>
<!-- Node7 -->
<g id="node7" class="node"><title>Node7</title>
<g id="a_node7"><a xlink:href="classprior__hessian_1_1CopulaDistImpl_1_1CopulaDist.html#a4b010ffe2c2acd4dc75c80b32312254d" target="_top" xlink:title="prior_hessian::CopulaDist\lImpl::CopulaDist::set_ubound">
<polygon fill="white" stroke="black" points="346,-30.9201 346,-58.9201 483,-58.9201 483,-30.9201 346,-30.9201"/>
<text text-anchor="start" x="354" y="-47.7201" font-family="Helvetica,sans-Serif" font-size="9.00">prior_hessian::CopulaDist</text>
<text text-anchor="middle" x="414.5" y="-37.7201" font-family="Helvetica,sans-Serif" font-size="9.00">Impl::CopulaDist::set_ubound</text>
</a>
</g>
</g>
<!-- Node1&#45;&gt;Node7 -->
<g id="edge13" class="edge"><title>Node1&#45;&gt;Node7</title>
<path fill="none" stroke="midnightblue" d="M133.322,-44.9201C195.283,-44.9201 284.675,-44.9201 345.716,-44.9201"/>
<polygon fill="midnightblue" stroke="midnightblue" points="133.239,-41.4202 123.239,-44.9201 133.239,-48.4202 133.239,-41.4202"/>
</g>
<!-- Node3 -->
<g id="node3" class="node"><title>Node3</title>
<g id="a_node3"><a xlink:href="classprior__hessian_1_1CopulaDistImpl_1_1CopulaDist.html#a26cd71990978df0ddae24dae5148c880" target="_top" xlink:title="prior_hessian::CopulaDist\lImpl::CopulaDist::num_dim">
<polygon fill="white" stroke="black" points="351,-124.92 351,-152.92 478,-152.92 478,-124.92 351,-124.92"/>
<text text-anchor="start" x="359" y="-141.72" font-family="Helvetica,sans-Serif" font-size="9.00">prior_hessian::CopulaDist</text>
<text text-anchor="middle" x="414.5" y="-131.72" font-family="Helvetica,sans-Serif" font-size="9.00">Impl::CopulaDist::num_dim</text>
</a>
</g>
</g>
<!-- Node2&#45;&gt;Node3 -->
<g id="edge2" class="edge"><title>Node2&#45;&gt;Node3</title>
<path fill="none" stroke="midnightblue" d="M298.651,-108.595C318.863,-113.932 341.022,-119.783 360.439,-124.909"/>
<polygon fill="midnightblue" stroke="midnightblue" points="299.468,-105.191 288.906,-106.022 297.681,-111.959 299.468,-105.191"/>
</g>
<!-- Node4 -->
<g id="node4" class="node"><title>Node4</title>
<g id="a_node4"><a xlink:href="classprior__hessian_1_1CopulaDistImpl_1_1CopulaDist.html#ad5f8f42efd9f709625cf60836fa473b9" target="_top" xlink:title="prior_hessian::CopulaDist\lImpl::CopulaDist::set_bounds">
<polygon fill="white" stroke="black" points="346,-77.9201 346,-105.92 483,-105.92 483,-77.9201 346,-77.9201"/>
<text text-anchor="start" x="354" y="-94.7201" font-family="Helvetica,sans-Serif" font-size="9.00">prior_hessian::CopulaDist</text>
<text text-anchor="middle" x="414.5" y="-84.7201" font-family="Helvetica,sans-Serif" font-size="9.00">Impl::CopulaDist::set_bounds</text>
</a>
</g>
</g>
<!-- Node2&#45;&gt;Node4 -->
<g id="edge3" class="edge"><title>Node2&#45;&gt;Node4</title>
<path fill="none" stroke="midnightblue" d="M320.231,-85.177C328.8,-85.1492 337.423,-85.2051 345.779,-85.3445"/>
<polygon fill="midnightblue" stroke="midnightblue" points="320.189,-81.6771 310.214,-85.2479 320.239,-88.6769 320.189,-81.6771"/>
</g>
<!-- Node2&#45;&gt;Node7 -->
<g id="edge10" class="edge"><title>Node2&#45;&gt;Node7</title>
<path fill="none" stroke="midnightblue" d="M278.14,-74.8018C298.436,-68.584 323.194,-61.809 345.96,-56.1812"/>
<polygon fill="midnightblue" stroke="midnightblue" points="277.06,-71.4725 268.563,-77.802 279.152,-78.1523 277.06,-71.4725"/>
</g>
<!-- Node4&#45;&gt;Node2 -->
<g id="edge9" class="edge"><title>Node4&#45;&gt;Node2</title>
<path fill="none" stroke="midnightblue" d="M335.589,-98.6233C327.162,-98.6947 318.602,-98.6843 310.214,-98.5922"/>
<polygon fill="midnightblue" stroke="midnightblue" points="335.824,-102.121 345.779,-98.4956 335.736,-95.1212 335.824,-102.121"/>
</g>
<!-- Node4&#45;&gt;Node5 -->
<g id="edge4" class="edge"><title>Node4&#45;&gt;Node5</title>
<path fill="none" stroke="midnightblue" d="M493.203,-91.9201C501.808,-91.9201 510.477,-91.9201 518.829,-91.9201"/>
<polygon fill="midnightblue" stroke="midnightblue" points="493.152,-88.4202 483.152,-91.9201 493.152,-95.4202 493.152,-88.4202"/>
</g>
<!-- Node5&#45;&gt;Node2 -->
<g id="edge8" class="edge"><title>Node5&#45;&gt;Node2</title>
<path fill="none" stroke="midnightblue" d="M558.822,-113.345C540.688,-130.479 512.648,-153.188 483,-162.92 425.148,-181.909 404.423,-180.072 346,-162.92 308.149,-151.808 270.993,-123.29 250.878,-105.966"/>
<polygon fill="midnightblue" stroke="midnightblue" points="561.71,-115.418 566.428,-105.932 556.824,-110.406 561.71,-115.418"/>
</g>
<!-- Node6 -->
<g id="node6" class="node"><title>Node6</title>
<g id="a_node6"><a xlink:href="classprior__hessian_1_1CopulaDistImpl_1_1CopulaDist.html#ac0819ccaeef1afd7a123338823e8fb3c" target="_top" xlink:title="prior_hessian::CopulaDist\lImpl::CopulaDist::set_lbound">
<polygon fill="white" stroke="black" points="678,-77.9201 678,-105.92 812,-105.92 812,-77.9201 678,-77.9201"/>
<text text-anchor="start" x="686" y="-94.7201" font-family="Helvetica,sans-Serif" font-size="9.00">prior_hessian::CopulaDist</text>
<text text-anchor="middle" x="745" y="-84.7201" font-family="Helvetica,sans-Serif" font-size="9.00">Impl::CopulaDist::set_lbound</text>
</a>
</g>
</g>
<!-- Node5&#45;&gt;Node6 -->
<g id="edge5" class="edge"><title>Node5&#45;&gt;Node6</title>
<path fill="none" stroke="midnightblue" d="M652.03,-85.2226C660.65,-85.1377 669.435,-85.1557 677.986,-85.2767"/>
<polygon fill="midnightblue" stroke="midnightblue" points="651.957,-81.7231 642.009,-85.3695 652.059,-88.7224 651.957,-81.7231"/>
</g>
<!-- Node6&#45;&gt;Node2 -->
<g id="edge7" class="edge"><title>Node6&#45;&gt;Node2</title>
<path fill="none" stroke="midnightblue" d="M712,-111.291C643.443,-150.2 477.9,-230.241 346,-182.92 303.192,-167.562 265.121,-127.66 246.889,-106.152"/>
<polygon fill="midnightblue" stroke="midnightblue" points="714.103,-114.119 721.017,-106.091 710.606,-108.055 714.103,-114.119"/>
</g>
<!-- Node6&#45;&gt;Node5 -->
<g id="edge6" class="edge"><title>Node6&#45;&gt;Node5</title>
<path fill="none" stroke="midnightblue" d="M667.864,-98.6582C659.191,-98.6986 650.44,-98.6361 642.009,-98.4707"/>
<polygon fill="midnightblue" stroke="midnightblue" points="668.019,-102.157 677.986,-98.5634 667.953,-95.1573 668.019,-102.157"/>
</g>
<!-- Node7&#45;&gt;Node2 -->
<g id="edge12" class="edge"><title>Node7&#45;&gt;Node2</title>
<path fill="none" stroke="midnightblue" d="M370.881,-62.0319C352.696,-67.6037 330.925,-73.6233 310.214,-78.8642"/>
<polygon fill="midnightblue" stroke="midnightblue" points="372.09,-65.321 380.585,-58.9904 369.996,-58.6413 372.09,-65.321"/>
</g>
<!-- Node7&#45;&gt;Node5 -->
<g id="edge11" class="edge"><title>Node7&#45;&gt;Node5</title>
<path fill="none" stroke="midnightblue" d="M474.447,-61.8134C492.863,-67.091 512.967,-72.8526 530.612,-77.9095"/>
<polygon fill="midnightblue" stroke="midnightblue" points="475.283,-58.4121 464.705,-59.0216 473.354,-65.1412 475.283,-58.4121"/>
</g>
</g>
</svg>
