<?xml version="1.0" encoding="UTF-8" standalone="no"?>
<!DOCTYPE svg PUBLIC "-//W3C//DTD SVG 1.1//EN"
 "http://www.w3.org/Graphics/SVG/1.1/DTD/svg11.dtd">
<!-- Generated by graphviz version 2.38.0 (20140413.2041)
 -->
<!-- Title: prior_hessian::CompositeDist::make_component_dist_tuple Pages: 1 -->
<svg width="329pt" height="84pt"
 viewBox="0.00 0.00 329.00 84.00" xmlns="http://www.w3.org/2000/svg" xmlns:xlink="http://www.w3.org/1999/xlink">
<g id="graph0" class="graph" transform="scale(1 1) rotate(0) translate(4 80)">
<title>prior_hessian::CompositeDist::make_component_dist_tuple</title>
<polygon fill="white" stroke="none" points="-4,4 -4,-80 325,-80 325,4 -4,4"/>
<!-- Node1 -->
<g id="node1" class="node"><title>Node1</title>
<polygon fill="#bfbfbf" stroke="black" points="0,-23.5 0,-51.5 155,-51.5 155,-23.5 0,-23.5"/>
<text text-anchor="start" x="8" y="-40.3" font-family="Helvetica,sans-Serif" font-size="9.00">prior_hessian::Composite</text>
<text text-anchor="middle" x="77.5" y="-30.3" font-family="Helvetica,sans-Serif" font-size="9.00">Dist::make_component_dist_tuple</text>
</g>
<!-- Node2 -->
<g id="node2" class="node"><title>Node2</title>
<g id="a_node2"><a xlink:href="namespaceprior__hessian.html#a387cc711a6a39924943b5b20ae76bf6a" target="_top" xlink:title="prior_hessian::make\l_adapted_bounded_dist">
<polygon fill="white" stroke="black" points="197.5,-47.5 197.5,-75.5 314.5,-75.5 314.5,-47.5 197.5,-47.5"/>
<text text-anchor="start" x="205.5" y="-64.3" font-family="Helvetica,sans-Serif" font-size="9.00">prior_hessian::make</text>
<text text-anchor="middle" x="256" y="-54.3" font-family="Helvetica,sans-Serif" font-size="9.00">_adapted_bounded_dist</text>
</a>
</g>
</g>
<!-- Node1&#45;&gt;Node2 -->
<g id="edge1" class="edge"><title>Node1&#45;&gt;Node2</title>
<path fill="none" stroke="midnightblue" d="M155.145,-47.922C165.862,-49.3792 176.81,-50.8679 187.344,-52.3003"/>
<polygon fill="midnightblue" stroke="midnightblue" points="186.915,-55.7741 197.295,-53.6534 187.858,-48.8379 186.915,-55.7741"/>
</g>
<!-- Node3 -->
<g id="node3" class="node"><title>Node3</title>
<g id="a_node3"><a xlink:href="classprior__hessian_1_1CompositeDist.html#a9473495959c5c652e0eb20fe33545441" target="_top" xlink:title="prior_hessian::Composite\lDist::make_component_dist">
<polygon fill="white" stroke="black" points="191,-0.5 191,-28.5 321,-28.5 321,-0.5 191,-0.5"/>
<text text-anchor="start" x="199" y="-17.3" font-family="Helvetica,sans-Serif" font-size="9.00">prior_hessian::Composite</text>
<text text-anchor="middle" x="256" y="-7.3" font-family="Helvetica,sans-Serif" font-size="9.00">Dist::make_component_dist</text>
</a>
</g>
</g>
<!-- Node1&#45;&gt;Node3 -->
<g id="edge2" class="edge"><title>Node1&#45;&gt;Node3</title>
<path fill="none" stroke="midnightblue" d="M155.145,-27.5122C163.611,-26.409 172.222,-25.2869 180.659,-24.1875"/>
<polygon fill="midnightblue" stroke="midnightblue" points="181.379,-27.6234 190.843,-22.8605 180.474,-20.6821 181.379,-27.6234"/>
</g>
</g>
</svg>
