<?xml version="1.0" encoding="UTF-8" standalone="no"?>
<!DOCTYPE svg PUBLIC "-//W3C//DTD SVG 1.1//EN"
 "http://www.w3.org/Graphics/SVG/1.1/DTD/svg11.dtd">
<!-- Generated by graphviz version 2.38.0 (20140413.2041)
 -->
<!-- Title: prior_hessian::TruncatedDist::median Pages: 1 -->
<svg width="437pt" height="217pt"
 viewBox="0.00 0.00 437.00 217.00" xmlns="http://www.w3.org/2000/svg" xmlns:xlink="http://www.w3.org/1999/xlink">
<g id="graph0" class="graph" transform="scale(1 1) rotate(0) translate(4 213)">
<title>prior_hessian::TruncatedDist::median</title>
<polygon fill="white" stroke="none" points="-4,4 -4,-213 433,-213 433,4 -4,4"/>
<!-- Node1 -->
<g id="node1" class="node"><title>Node1</title>
<polygon fill="#bfbfbf" stroke="black" points="0,-94.5 0,-122.5 119,-122.5 119,-94.5 0,-94.5"/>
<text text-anchor="start" x="8" y="-111.3" font-family="Helvetica,sans-Serif" font-size="9.00">prior_hessian::Truncated</text>
<text text-anchor="middle" x="59.5" y="-101.3" font-family="Helvetica,sans-Serif" font-size="9.00">Dist::median</text>
</g>
<!-- Node2 -->
<g id="node2" class="node"><title>Node2</title>
<g id="a_node2"><a xlink:href="classprior__hessian_1_1TruncatedDist.html#a18b8106ab7e85fe50daa05531c2c9226" target="_top" xlink:title="prior_hessian::Truncated\lDist::cdf">
<polygon fill="white" stroke="black" points="155,-180.5 155,-208.5 274,-208.5 274,-180.5 155,-180.5"/>
<text text-anchor="start" x="163" y="-197.3" font-family="Helvetica,sans-Serif" font-size="9.00">prior_hessian::Truncated</text>
<text text-anchor="middle" x="214.5" y="-187.3" font-family="Helvetica,sans-Serif" font-size="9.00">Dist::cdf</text>
</a>
</g>
</g>
<!-- Node1&#45;&gt;Node2 -->
<g id="edge1" class="edge"><title>Node1&#45;&gt;Node2</title>
<path fill="none" stroke="midnightblue" d="M82.7265,-122.619C101.687,-134.489 129.799,-151.684 155,-165.5 161.211,-168.905 167.875,-172.376 174.401,-175.677"/>
<polygon fill="midnightblue" stroke="midnightblue" points="173.284,-179.031 183.795,-180.365 176.41,-172.768 173.284,-179.031"/>
</g>
<!-- Node3 -->
<g id="node3" class="node"><title>Node3</title>
<g id="a_node3"><a xlink:href="classprior__hessian_1_1TruncatedDist.html#a5a2060d31c35b10a97f33375defc78a3" target="_top" xlink:title="prior_hessian::Truncated\lDist::icdf">
<polygon fill="white" stroke="black" points="310,-92.5 310,-120.5 429,-120.5 429,-92.5 310,-92.5"/>
<text text-anchor="start" x="318" y="-109.3" font-family="Helvetica,sans-Serif" font-size="9.00">prior_hessian::Truncated</text>
<text text-anchor="middle" x="369.5" y="-99.3" font-family="Helvetica,sans-Serif" font-size="9.00">Dist::icdf</text>
</a>
</g>
</g>
<!-- Node1&#45;&gt;Node3 -->
<g id="edge2" class="edge"><title>Node1&#45;&gt;Node3</title>
<path fill="none" stroke="midnightblue" d="M106.204,-122.544C121.555,-126.606 138.875,-130.484 155,-132.5 207.48,-139.06 221.587,-139.579 274,-132.5 288.112,-130.594 303.096,-127.156 316.875,-123.391"/>
<polygon fill="midnightblue" stroke="midnightblue" points="318.002,-126.709 326.664,-120.608 316.089,-119.975 318.002,-126.709"/>
</g>
<!-- Node4 -->
<g id="node4" class="node"><title>Node4</title>
<g id="a_node4"><a xlink:href="classprior__hessian_1_1TruncatedDist.html#aed132cecf3591f3842c8400f74a822b7" target="_top" xlink:title="prior_hessian::Truncated\lDist::llh">
<polygon fill="white" stroke="black" points="155,-94.5 155,-122.5 274,-122.5 274,-94.5 155,-94.5"/>
<text text-anchor="start" x="163" y="-111.3" font-family="Helvetica,sans-Serif" font-size="9.00">prior_hessian::Truncated</text>
<text text-anchor="middle" x="214.5" y="-101.3" font-family="Helvetica,sans-Serif" font-size="9.00">Dist::llh</text>
</a>
</g>
</g>
<!-- Node1&#45;&gt;Node4 -->
<g id="edge3" class="edge"><title>Node1&#45;&gt;Node4</title>
<path fill="none" stroke="midnightblue" d="M119.216,-108.5C127.544,-108.5 136.169,-108.5 144.667,-108.5"/>
<polygon fill="midnightblue" stroke="midnightblue" points="144.941,-112 154.941,-108.5 144.941,-105 144.941,-112"/>
</g>
<!-- Node5 -->
<g id="node5" class="node"><title>Node5</title>
<g id="a_node5"><a xlink:href="classprior__hessian_1_1TruncatedDist.html#a71d1f8622c8eb4e4758bdbcae1955b80" target="_top" xlink:title="prior_hessian::Truncated\lDist::pdf">
<polygon fill="white" stroke="black" points="155,-47.5 155,-75.5 274,-75.5 274,-47.5 155,-47.5"/>
<text text-anchor="start" x="163" y="-64.3" font-family="Helvetica,sans-Serif" font-size="9.00">prior_hessian::Truncated</text>
<text text-anchor="middle" x="214.5" y="-54.3" font-family="Helvetica,sans-Serif" font-size="9.00">Dist::pdf</text>
</a>
</g>
</g>
<!-- Node1&#45;&gt;Node5 -->
<g id="edge4" class="edge"><title>Node1&#45;&gt;Node5</title>
<path fill="none" stroke="midnightblue" d="M106.405,-94.3985C122.666,-89.4031 141.136,-83.7295 158.103,-78.5174"/>
<polygon fill="midnightblue" stroke="midnightblue" points="159.36,-81.7928 167.891,-75.5106 157.304,-75.1014 159.36,-81.7928"/>
</g>
<!-- Node6 -->
<g id="node6" class="node"><title>Node6</title>
<g id="a_node6"><a xlink:href="classprior__hessian_1_1TruncatedDist.html#aac8ee6fc71aefe73e71152b9d4a5529e" target="_top" xlink:title="prior_hessian::Truncated\lDist::sample">
<polygon fill="white" stroke="black" points="155,-0.5 155,-28.5 274,-28.5 274,-0.5 155,-0.5"/>
<text text-anchor="start" x="163" y="-17.3" font-family="Helvetica,sans-Serif" font-size="9.00">prior_hessian::Truncated</text>
<text text-anchor="middle" x="214.5" y="-7.3" font-family="Helvetica,sans-Serif" font-size="9.00">Dist::sample</text>
</a>
</g>
</g>
<!-- Node1&#45;&gt;Node6 -->
<g id="edge5" class="edge"><title>Node1&#45;&gt;Node6</title>
<path fill="none" stroke="midnightblue" d="M76.6281,-94.2238C94.7279,-78.7351 125.441,-54.0138 155,-37.5 157.997,-35.8259 161.14,-34.216 164.349,-32.6798"/>
<polygon fill="midnightblue" stroke="midnightblue" points="165.821,-35.8554 173.497,-28.5533 162.943,-29.4744 165.821,-35.8554"/>
</g>
<!-- Node6&#45;&gt;Node3 -->
<g id="edge7" class="edge"><title>Node6&#45;&gt;Node3</title>
<path fill="none" stroke="midnightblue" d="M255.464,-28.6226C261.791,-31.3086 268.166,-34.2931 274,-37.5 299.317,-51.4177 325.67,-71.167 344.094,-85.973"/>
<polygon fill="midnightblue" stroke="midnightblue" points="342.006,-88.7862 351.969,-92.3892 346.428,-83.3594 342.006,-88.7862"/>
</g>
<!-- Node7 -->
<g id="node7" class="node"><title>Node7</title>
<g id="a_node7"><a xlink:href="classprior__hessian_1_1TruncatedDist.html#a255e94539840457c405d2621849c2635" target="_top" xlink:title="prior_hessian::Truncated\lDist::truncated">
<polygon fill="white" stroke="black" points="310,-0.5 310,-28.5 429,-28.5 429,-0.5 310,-0.5"/>
<text text-anchor="start" x="318" y="-17.3" font-family="Helvetica,sans-Serif" font-size="9.00">prior_hessian::Truncated</text>
<text text-anchor="middle" x="369.5" y="-7.3" font-family="Helvetica,sans-Serif" font-size="9.00">Dist::truncated</text>
</a>
</g>
</g>
<!-- Node6&#45;&gt;Node7 -->
<g id="edge6" class="edge"><title>Node6&#45;&gt;Node7</title>
<path fill="none" stroke="midnightblue" d="M274.216,-14.5C282.544,-14.5 291.169,-14.5 299.667,-14.5"/>
<polygon fill="midnightblue" stroke="midnightblue" points="299.941,-18.0001 309.941,-14.5 299.941,-11.0001 299.941,-18.0001"/>
</g>
</g>
</svg>
