<?xml version="1.0" encoding="UTF-8" standalone="no"?>
<!DOCTYPE svg PUBLIC "-//W3C//DTD SVG 1.1//EN"
 "http://www.w3.org/Graphics/SVG/1.1/DTD/svg11.dtd">
<!-- Generated by graphviz version 2.38.0 (20140413.2041)
 -->
<!-- Title: prior_hessian::CompositeDist::grad_grad2_accumulate Pages: 1 -->
<svg width="327pt" height="191pt"
 viewBox="0.00 0.00 327.00 191.00" xmlns="http://www.w3.org/2000/svg" xmlns:xlink="http://www.w3.org/1999/xlink">
<g id="graph0" class="graph" transform="scale(1 1) rotate(0) translate(4 187)">
<title>prior_hessian::CompositeDist::grad_grad2_accumulate</title>
<polygon fill="white" stroke="none" points="-4,4 -4,-187 323,-187 323,4 -4,4"/>
<!-- Node1 -->
<g id="node1" class="node"><title>Node1</title>
<polygon fill="#bfbfbf" stroke="black" points="0,-62.5 0,-90.5 137,-90.5 137,-62.5 0,-62.5"/>
<text text-anchor="start" x="8" y="-79.3" font-family="Helvetica,sans-Serif" font-size="9.00">prior_hessian::Composite</text>
<text text-anchor="middle" x="68.5" y="-69.3" font-family="Helvetica,sans-Serif" font-size="9.00">Dist::grad_grad2_accumulate</text>
</g>
<!-- Node2 -->
<g id="node2" class="node"><title>Node2</title>
<g id="a_node2"><a xlink:href="classprior__hessian_1_1CompositeDist_1_1ComponentDistAdaptor_3_01Dist_00_01meta_1_1EnableIfSubclc6c9bd83bba546a81e521c87ad7ee6d3.html#a03eea0a1a847c848d155226abe159e1f" target="_top" xlink:title="prior_hessian::Composite\lDist::ComponentDistAdaptor\l\&lt; Dist, meta::EnableIfSubclassT\l\&lt; Dist, UnivariateDist \&gt; \&gt;::grad\l_grad2_accumulate_idx">
<polygon fill="white" stroke="black" points="173,-124.5 173,-182.5 319,-182.5 319,-124.5 173,-124.5"/>
<text text-anchor="start" x="181" y="-171.3" font-family="Helvetica,sans-Serif" font-size="9.00">prior_hessian::Composite</text>
<text text-anchor="start" x="181" y="-161.3" font-family="Helvetica,sans-Serif" font-size="9.00">Dist::ComponentDistAdaptor</text>
<text text-anchor="start" x="181" y="-151.3" font-family="Helvetica,sans-Serif" font-size="9.00">&lt; Dist, meta::EnableIfSubclassT</text>
<text text-anchor="start" x="181" y="-141.3" font-family="Helvetica,sans-Serif" font-size="9.00">&lt; Dist, UnivariateDist &gt; &gt;::grad</text>
<text text-anchor="middle" x="246" y="-131.3" font-family="Helvetica,sans-Serif" font-size="9.00">_grad2_accumulate_idx</text>
</a>
</g>
</g>
<!-- Node1&#45;&gt;Node2 -->
<g id="edge1" class="edge"><title>Node1&#45;&gt;Node2</title>
<path fill="none" stroke="midnightblue" d="M110.938,-94.6806C131.189,-103.566 156.054,-114.475 178.846,-124.475"/>
<polygon fill="midnightblue" stroke="midnightblue" points="112.253,-91.4357 101.689,-90.623 109.441,-97.8459 112.253,-91.4357"/>
</g>
<!-- Node3 -->
<g id="node3" class="node"><title>Node3</title>
<g id="a_node3"><a xlink:href="classprior__hessian_1_1CompositeDist_1_1ComponentDistAdaptor_3_01Dist_00_01meta_1_1EnableIfSubclc6c9bd83bba546a81e521c87ad7ee6d3.html#ac58aa66e75b8ca803919fded5da5d5f9" target="_top" xlink:title="prior_hessian::Composite\lDist::ComponentDistAdaptor\l\&lt; Dist, meta::EnableIfSubclassT\l\&lt; Dist, UnivariateDist \&gt; \&gt;::grad\l_hess_accumulate_idx">
<polygon fill="white" stroke="black" points="173,-47.5 173,-105.5 319,-105.5 319,-47.5 173,-47.5"/>
<text text-anchor="start" x="181" y="-94.3" font-family="Helvetica,sans-Serif" font-size="9.00">prior_hessian::Composite</text>
<text text-anchor="start" x="181" y="-84.3" font-family="Helvetica,sans-Serif" font-size="9.00">Dist::ComponentDistAdaptor</text>
<text text-anchor="start" x="181" y="-74.3" font-family="Helvetica,sans-Serif" font-size="9.00">&lt; Dist, meta::EnableIfSubclassT</text>
<text text-anchor="start" x="181" y="-64.3" font-family="Helvetica,sans-Serif" font-size="9.00">&lt; Dist, UnivariateDist &gt; &gt;::grad</text>
<text text-anchor="middle" x="246" y="-54.3" font-family="Helvetica,sans-Serif" font-size="9.00">_hess_accumulate_idx</text>
</a>
</g>
</g>
<!-- Node1&#45;&gt;Node3 -->
<g id="edge2" class="edge"><title>Node1&#45;&gt;Node3</title>
<path fill="none" stroke="midnightblue" d="M147.339,-76.5C155.799,-76.5 164.384,-76.5 172.774,-76.5"/>
<polygon fill="midnightblue" stroke="midnightblue" points="147.102,-73.0001 137.102,-76.5 147.102,-80.0001 147.102,-73.0001"/>
</g>
<!-- Node4 -->
<g id="node4" class="node"><title>Node4</title>
<g id="a_node4"><a xlink:href="classprior__hessian_1_1CompositeDist.html#a24bac25ae8c0330b8a3aacadffc9d5ae" target="_top" xlink:title="prior_hessian::Composite\lDist::rllh_components">
<polygon fill="white" stroke="black" points="185,-0.5 185,-28.5 307,-28.5 307,-0.5 185,-0.5"/>
<text text-anchor="start" x="193" y="-17.3" font-family="Helvetica,sans-Serif" font-size="9.00">prior_hessian::Composite</text>
<text text-anchor="middle" x="246" y="-7.3" font-family="Helvetica,sans-Serif" font-size="9.00">Dist::rllh_components</text>
</a>
</g>
</g>
<!-- Node1&#45;&gt;Node4 -->
<g id="edge3" class="edge"><title>Node1&#45;&gt;Node4</title>
<path fill="none" stroke="midnightblue" d="M116.747,-58.8134C134.362,-52.3091 154.556,-44.9583 173,-38.5 182.451,-35.1906 192.637,-31.731 202.287,-28.5019"/>
<polygon fill="midnightblue" stroke="midnightblue" points="115.416,-55.5739 107.254,-62.3288 117.847,-62.1383 115.416,-55.5739"/>
</g>
</g>
</svg>
