<?xml version="1.0" encoding="UTF-8" standalone="no"?>
<!DOCTYPE svg PUBLIC "-//W3C//DTD SVG 1.1//EN"
 "http://www.w3.org/Graphics/SVG/1.1/DTD/svg11.dtd">
<!-- Generated by graphviz version 2.38.0 (20140413.2041)
 -->
<!-- Title: prior_hessian::ParetoDist::set_alpha Pages: 1 -->
<svg width="945pt" height="494pt"
 viewBox="0.00 0.00 945.00 494.24" xmlns="http://www.w3.org/2000/svg" xmlns:xlink="http://www.w3.org/1999/xlink">
<g id="graph0" class="graph" transform="scale(1 1) rotate(0) translate(4 490.239)">
<title>prior_hessian::ParetoDist::set_alpha</title>
<polygon fill="white" stroke="none" points="-4,4 -4,-490.239 941,-490.239 941,4 -4,4"/>
<!-- Node1 -->
<g id="node1" class="node"><title>Node1</title>
<polygon fill="#bfbfbf" stroke="black" points="0,-381.5 0,-409.5 120,-409.5 120,-381.5 0,-381.5"/>
<text text-anchor="start" x="8" y="-398.3" font-family="Helvetica,sans-Serif" font-size="9.00">prior_hessian::ParetoDist</text>
<text text-anchor="middle" x="60" y="-388.3" font-family="Helvetica,sans-Serif" font-size="9.00">::set_alpha</text>
</g>
<!-- Node2 -->
<g id="node2" class="node"><title>Node2</title>
<g id="a_node2"><a xlink:href="classprior__hessian_1_1ParetoDist.html#acef10b17c003468838f548ed255d7e1f" target="_top" xlink:title="prior_hessian::ParetoDist::min">
<polygon fill="white" stroke="black" points="156,-348.5 156,-366.5 296,-366.5 296,-348.5 156,-348.5"/>
<text text-anchor="middle" x="226" y="-355.3" font-family="Helvetica,sans-Serif" font-size="9.00">prior_hessian::ParetoDist::min</text>
</a>
</g>
</g>
<!-- Node1&#45;&gt;Node2 -->
<g id="edge1" class="edge"><title>Node1&#45;&gt;Node2</title>
<path fill="none" stroke="midnightblue" d="M130.064,-379.497C149.122,-375.082 169.136,-370.444 185.848,-366.572"/>
<polygon fill="midnightblue" stroke="midnightblue" points="129.16,-376.114 120.208,-381.781 130.74,-382.933 129.16,-376.114"/>
</g>
<!-- Node20 -->
<g id="node20" class="node"><title>Node20</title>
<g id="a_node20"><a xlink:href="classprior__hessian_1_1ParetoDist.html#acea61a99a86906efba7fed853e408a59" target="_top" xlink:title="prior_hessian::ParetoDist\l::set_param">
<polygon fill="white" stroke="black" points="166,-419.5 166,-447.5 286,-447.5 286,-419.5 166,-419.5"/>
<text text-anchor="start" x="174" y="-436.3" font-family="Helvetica,sans-Serif" font-size="9.00">prior_hessian::ParetoDist</text>
<text text-anchor="middle" x="226" y="-426.3" font-family="Helvetica,sans-Serif" font-size="9.00">::set_param</text>
</a>
</g>
</g>
<!-- Node1&#45;&gt;Node20 -->
<g id="edge28" class="edge"><title>Node1&#45;&gt;Node20</title>
<path fill="none" stroke="midnightblue" d="M130.095,-411.51C141.997,-414.268 154.27,-417.111 165.879,-419.801"/>
<polygon fill="midnightblue" stroke="midnightblue" points="130.74,-408.067 120.208,-409.219 129.16,-414.886 130.74,-408.067"/>
</g>
<!-- Node3 -->
<g id="node3" class="node"><title>Node3</title>
<g id="a_node3"><a xlink:href="classprior__hessian_1_1ParetoDist.html#a941f8b98fe55483d7823aa33863ee050" target="_top" xlink:title="prior_hessian::ParetoDist\l::operator==">
<polygon fill="white" stroke="black" points="332,-373.5 332,-401.5 452,-401.5 452,-373.5 332,-373.5"/>
<text text-anchor="start" x="340" y="-390.3" font-family="Helvetica,sans-Serif" font-size="9.00">prior_hessian::ParetoDist</text>
<text text-anchor="middle" x="392" y="-380.3" font-family="Helvetica,sans-Serif" font-size="9.00">::operator==</text>
</a>
</g>
</g>
<!-- Node2&#45;&gt;Node3 -->
<g id="edge2" class="edge"><title>Node2&#45;&gt;Node3</title>
<path fill="none" stroke="midnightblue" d="M286.303,-368.348C301.177,-371.069 317.132,-373.988 331.991,-376.706"/>
<polygon fill="midnightblue" stroke="midnightblue" points="286.672,-364.858 276.205,-366.501 285.412,-371.743 286.672,-364.858"/>
</g>
<!-- Node5 -->
<g id="node5" class="node"><title>Node5</title>
<g id="a_node5"><a xlink:href="classprior__hessian_1_1ParetoDist.html#a1ba58cb0d518475ce29eb619f82f7575" target="_top" xlink:title="prior_hessian::ParetoDist\l::param_ubound">
<polygon fill="white" stroke="black" points="332,-326.5 332,-354.5 452,-354.5 452,-326.5 332,-326.5"/>
<text text-anchor="start" x="340" y="-343.3" font-family="Helvetica,sans-Serif" font-size="9.00">prior_hessian::ParetoDist</text>
<text text-anchor="middle" x="392" y="-333.3" font-family="Helvetica,sans-Serif" font-size="9.00">::param_ubound</text>
</a>
</g>
</g>
<!-- Node2&#45;&gt;Node5 -->
<g id="edge4" class="edge"><title>Node2&#45;&gt;Node5</title>
<path fill="none" stroke="midnightblue" d="M306.186,-349.292C314.835,-348.395 323.525,-347.494 331.872,-346.629"/>
<polygon fill="midnightblue" stroke="midnightblue" points="305.661,-345.827 296.075,-350.34 306.383,-352.79 305.661,-345.827"/>
</g>
<!-- Node6 -->
<g id="node6" class="node"><title>Node6</title>
<g id="a_node6"><a xlink:href="classprior__hessian_1_1ParetoDist.html#abc9e60af487bda1a9ec5f7e55e38682c" target="_top" xlink:title="prior_hessian::ParetoDist\l::set_params_iter">
<polygon fill="white" stroke="black" points="332,-259.5 332,-287.5 452,-287.5 452,-259.5 332,-259.5"/>
<text text-anchor="start" x="340" y="-276.3" font-family="Helvetica,sans-Serif" font-size="9.00">prior_hessian::ParetoDist</text>
<text text-anchor="middle" x="392" y="-266.3" font-family="Helvetica,sans-Serif" font-size="9.00">::set_params_iter</text>
</a>
</g>
</g>
<!-- Node2&#45;&gt;Node6 -->
<g id="edge5" class="edge"><title>Node2&#45;&gt;Node6</title>
<path fill="none" stroke="midnightblue" d="M254.001,-343.67C284.303,-328.15 333.195,-303.108 363.642,-287.513"/>
<polygon fill="midnightblue" stroke="midnightblue" points="252.168,-340.677 244.863,-348.351 255.359,-346.907 252.168,-340.677"/>
</g>
<!-- Node4 -->
<g id="node4" class="node"><title>Node4</title>
<g id="a_node4"><a xlink:href="classprior__hessian_1_1ParetoDist.html#ae862cdfd4b588e2f97fcbaccc0decb08" target="_top" xlink:title="prior_hessian::ParetoDist\l::operator!=">
<polygon fill="white" stroke="black" points="488,-373.5 488,-401.5 608,-401.5 608,-373.5 488,-373.5"/>
<text text-anchor="start" x="496" y="-390.3" font-family="Helvetica,sans-Serif" font-size="9.00">prior_hessian::ParetoDist</text>
<text text-anchor="middle" x="548" y="-380.3" font-family="Helvetica,sans-Serif" font-size="9.00">::operator!=</text>
</a>
</g>
</g>
<!-- Node3&#45;&gt;Node4 -->
<g id="edge3" class="edge"><title>Node3&#45;&gt;Node4</title>
<path fill="none" stroke="midnightblue" d="M462.369,-387.5C470.862,-387.5 479.48,-387.5 487.804,-387.5"/>
<polygon fill="midnightblue" stroke="midnightblue" points="462.1,-384 452.1,-387.5 462.1,-391 462.1,-384"/>
</g>
<!-- Node7 -->
<g id="node7" class="node"><title>Node7</title>
<g id="a_node7"><a xlink:href="classprior__hessian_1_1ParetoDist.html#ad117226a3ad1eee827886fc7ba38acbf" target="_top" xlink:title="prior_hessian::ParetoDist\l::lbound">
<polygon fill="white" stroke="black" points="488,-220.5 488,-248.5 608,-248.5 608,-220.5 488,-220.5"/>
<text text-anchor="start" x="496" y="-237.3" font-family="Helvetica,sans-Serif" font-size="9.00">prior_hessian::ParetoDist</text>
<text text-anchor="middle" x="548" y="-227.3" font-family="Helvetica,sans-Serif" font-size="9.00">::lbound</text>
</a>
</g>
</g>
<!-- Node6&#45;&gt;Node7 -->
<g id="edge6" class="edge"><title>Node6&#45;&gt;Node7</title>
<path fill="none" stroke="midnightblue" d="M458.553,-256.899C469.519,-254.122 480.801,-251.265 491.484,-248.559"/>
<polygon fill="midnightblue" stroke="midnightblue" points="457.432,-253.572 448.598,-259.42 459.151,-260.358 457.432,-253.572"/>
</g>
<!-- Node8 -->
<g id="node8" class="node"><title>Node8</title>
<g id="a_node8"><a xlink:href="classprior__hessian_1_1ParetoDist.html#afe706cb12ce6f667e7a3a9eb7311ef65" target="_top" xlink:title="prior_hessian::ParetoDist::cdf">
<polygon fill="white" stroke="black" points="644,-356.5 644,-374.5 781,-374.5 781,-356.5 644,-356.5"/>
<text text-anchor="middle" x="712.5" y="-363.3" font-family="Helvetica,sans-Serif" font-size="9.00">prior_hessian::ParetoDist::cdf</text>
</a>
</g>
</g>
<!-- Node7&#45;&gt;Node8 -->
<g id="edge7" class="edge"><title>Node7&#45;&gt;Node8</title>
<path fill="none" stroke="midnightblue" d="M566.557,-257.176C583.291,-281.021 610.818,-317.411 644,-338.5 659.149,-348.128 679.342,-352.64 693.684,-356.472"/>
<polygon fill="midnightblue" stroke="midnightblue" points="569.259,-254.931 560.682,-248.71 563.507,-258.921 569.259,-254.931"/>
</g>
<!-- Node9 -->
<g id="node9" class="node"><title>Node9</title>
<g id="a_node9"><a xlink:href="classprior__hessian_1_1ParetoDist.html#adc9bafea285be38186ec4ad161850b56" target="_top" xlink:title="prior_hessian::ParetoDist\l::get_param">
<polygon fill="white" stroke="black" points="652.5,-84.5 652.5,-112.5 772.5,-112.5 772.5,-84.5 652.5,-84.5"/>
<text text-anchor="start" x="660.5" y="-101.3" font-family="Helvetica,sans-Serif" font-size="9.00">prior_hessian::ParetoDist</text>
<text text-anchor="middle" x="712.5" y="-91.3" font-family="Helvetica,sans-Serif" font-size="9.00">::get_param</text>
</a>
</g>
</g>
<!-- Node7&#45;&gt;Node9 -->
<g id="edge9" class="edge"><title>Node7&#45;&gt;Node9</title>
<path fill="none" stroke="midnightblue" d="M562.893,-211.872C579.374,-186.77 609.06,-146.634 644,-122.5 649.526,-118.683 655.724,-115.408 662.065,-112.617"/>
<polygon fill="midnightblue" stroke="midnightblue" points="559.888,-210.076 557.434,-220.382 565.78,-213.855 559.888,-210.076"/>
</g>
<!-- Node11 -->
<g id="node11" class="node"><title>Node11</title>
<g id="a_node11"><a xlink:href="classprior__hessian_1_1ParetoDist.html#a9d1040a7a5ca261feebe56f42e5698ea" target="_top" xlink:title="prior_hessian::ParetoDist\l::icdf">
<polygon fill="white" stroke="black" points="652.5,-309.5 652.5,-337.5 772.5,-337.5 772.5,-309.5 652.5,-309.5"/>
<text text-anchor="start" x="660.5" y="-326.3" font-family="Helvetica,sans-Serif" font-size="9.00">prior_hessian::ParetoDist</text>
<text text-anchor="middle" x="712.5" y="-316.3" font-family="Helvetica,sans-Serif" font-size="9.00">::icdf</text>
</a>
</g>
</g>
<!-- Node7&#45;&gt;Node11 -->
<g id="edge11" class="edge"><title>Node7&#45;&gt;Node11</title>
<path fill="none" stroke="midnightblue" d="M584.588,-254.597C601.821,-266.506 623.24,-281.012 644,-291.5 658.144,-298.646 675.019,-304.396 688.358,-309.484"/>
<polygon fill="midnightblue" stroke="midnightblue" points="586.198,-251.455 575.983,-248.641 582.214,-257.211 586.198,-251.455"/>
</g>
<!-- Node12 -->
<g id="node12" class="node"><title>Node12</title>
<g id="a_node12"><a xlink:href="classprior__hessian_1_1ParetoDist.html#ae3776388549cf35e9fea96963624cf6e" target="_top" xlink:title="prior_hessian::ParetoDist\l::in_bounds">
<polygon fill="white" stroke="black" points="652.5,-262.5 652.5,-290.5 772.5,-290.5 772.5,-262.5 652.5,-262.5"/>
<text text-anchor="start" x="660.5" y="-279.3" font-family="Helvetica,sans-Serif" font-size="9.00">prior_hessian::ParetoDist</text>
<text text-anchor="middle" x="712.5" y="-269.3" font-family="Helvetica,sans-Serif" font-size="9.00">::in_bounds</text>
</a>
</g>
</g>
<!-- Node7&#45;&gt;Node12 -->
<g id="edge13" class="edge"><title>Node7&#45;&gt;Node12</title>
<path fill="none" stroke="midnightblue" d="M613.427,-251.152C627.883,-254.888 643.081,-258.816 657.082,-262.435"/>
<polygon fill="midnightblue" stroke="midnightblue" points="614.12,-247.716 603.562,-248.602 612.368,-254.493 614.12,-247.716"/>
</g>
<!-- Node13 -->
<g id="node13" class="node"><title>Node13</title>
<g id="a_node13"><a xlink:href="classprior__hessian_1_1ParetoDist.html#a0f7ee813a098cd3fc9c7669cda6a340c" target="_top" xlink:title="prior_hessian::ParetoDist::llh">
<polygon fill="white" stroke="black" points="645.5,-225.5 645.5,-243.5 779.5,-243.5 779.5,-225.5 645.5,-225.5"/>
<text text-anchor="middle" x="712.5" y="-232.3" font-family="Helvetica,sans-Serif" font-size="9.00">prior_hessian::ParetoDist::llh</text>
</a>
</g>
</g>
<!-- Node7&#45;&gt;Node13 -->
<g id="edge14" class="edge"><title>Node7&#45;&gt;Node13</title>
<path fill="none" stroke="midnightblue" d="M618.161,-227.817C627.146,-227.717 636.333,-227.729 645.269,-227.854"/>
<polygon fill="midnightblue" stroke="midnightblue" points="618.069,-224.318 608.126,-227.978 618.181,-231.317 618.069,-224.318"/>
</g>
<!-- Node14 -->
<g id="node14" class="node"><title>Node14</title>
<g id="a_node14"><a xlink:href="classprior__hessian_1_1ParetoDist.html#a0a1e20b0aa6c7b52c134fc2341b5fdd4" target="_top" xlink:title="prior_hessian::ParetoDist\l::mean">
<polygon fill="white" stroke="black" points="652.5,-178.5 652.5,-206.5 772.5,-206.5 772.5,-178.5 652.5,-178.5"/>
<text text-anchor="start" x="660.5" y="-195.3" font-family="Helvetica,sans-Serif" font-size="9.00">prior_hessian::ParetoDist</text>
<text text-anchor="middle" x="712.5" y="-185.3" font-family="Helvetica,sans-Serif" font-size="9.00">::mean</text>
</a>
</g>
</g>
<!-- Node7&#45;&gt;Node14 -->
<g id="edge16" class="edge"><title>Node7&#45;&gt;Node14</title>
<path fill="none" stroke="midnightblue" d="M591.53,-217.491C610.112,-211.927 632.221,-206.044 652.367,-201.261"/>
<polygon fill="midnightblue" stroke="midnightblue" points="590.417,-214.172 581.884,-220.452 592.471,-220.863 590.417,-214.172"/>
</g>
<!-- Node15 -->
<g id="node15" class="node"><title>Node15</title>
<g id="a_node15"><a xlink:href="classprior__hessian_1_1ParetoDist.html#a74af41636088b6c727107c60dd9c81b2" target="_top" xlink:title="prior_hessian::ParetoDist\l::median">
<polygon fill="white" stroke="black" points="652.5,-131.5 652.5,-159.5 772.5,-159.5 772.5,-131.5 652.5,-131.5"/>
<text text-anchor="start" x="660.5" y="-148.3" font-family="Helvetica,sans-Serif" font-size="9.00">prior_hessian::ParetoDist</text>
<text text-anchor="middle" x="712.5" y="-138.3" font-family="Helvetica,sans-Serif" font-size="9.00">::median</text>
</a>
</g>
</g>
<!-- Node7&#45;&gt;Node15 -->
<g id="edge18" class="edge"><title>Node7&#45;&gt;Node15</title>
<path fill="none" stroke="midnightblue" d="M566.94,-213.337C585.414,-196.846 615.454,-175.03 644,-160.5 646.66,-159.146 649.415,-157.835 652.223,-156.578"/>
<polygon fill="midnightblue" stroke="midnightblue" points="564.446,-210.877 559.541,-220.267 569.232,-215.986 564.446,-210.877"/>
</g>
<!-- Node16 -->
<g id="node16" class="node"><title>Node16</title>
<g id="a_node16"><a xlink:href="classprior__hessian_1_1ParetoDist.html#af5791e2cef16b34e1bbdeec24b13d22e" target="_top" xlink:title="prior_hessian::ParetoDist\l::params">
<polygon fill="white" stroke="black" points="652.5,-0.5 652.5,-28.5 772.5,-28.5 772.5,-0.5 652.5,-0.5"/>
<text text-anchor="start" x="660.5" y="-17.3" font-family="Helvetica,sans-Serif" font-size="9.00">prior_hessian::ParetoDist</text>
<text text-anchor="middle" x="712.5" y="-7.3" font-family="Helvetica,sans-Serif" font-size="9.00">::params</text>
</a>
</g>
</g>
<!-- Node7&#45;&gt;Node16 -->
<g id="edge20" class="edge"><title>Node7&#45;&gt;Node16</title>
<path fill="none" stroke="midnightblue" d="M552.979,-210.516C562.104,-167.437 588.19,-77.9387 644,-28.5 646.595,-26.2014 649.43,-24.1305 652.421,-22.2767"/>
<polygon fill="midnightblue" stroke="midnightblue" points="549.528,-209.926 551.016,-220.416 556.394,-211.287 549.528,-209.926"/>
</g>
<!-- Node18 -->
<g id="node18" class="node"><title>Node18</title>
<g id="a_node18"><a xlink:href="classprior__hessian_1_1ParetoDist.html#a07cc43c2b299fc07660684f34f32d4ee" target="_top" xlink:title="prior_hessian::ParetoDist::pdf">
<polygon fill="white" stroke="black" points="644,-47.5 644,-65.5 781,-65.5 781,-47.5 644,-47.5"/>
<text text-anchor="middle" x="712.5" y="-54.3" font-family="Helvetica,sans-Serif" font-size="9.00">prior_hessian::ParetoDist::pdf</text>
</a>
</g>
</g>
<!-- Node7&#45;&gt;Node18 -->
<g id="edge24" class="edge"><title>Node7&#45;&gt;Node18</title>
<path fill="none" stroke="midnightblue" d="M554.881,-210.297C566.33,-173.005 594.865,-102.891 643.685,-65.7392"/>
<polygon fill="midnightblue" stroke="midnightblue" points="551.399,-209.74 551.986,-220.318 558.124,-211.682 551.399,-209.74"/>
</g>
<!-- Node19 -->
<g id="node19" class="node"><title>Node19</title>
<g id="a_node19"><a xlink:href="classprior__hessian_1_1ParetoDist.html#abe706f0786b5e8ef20b7caff07ffad0c" target="_top" xlink:title="prior_hessian::ParetoDist\l::sample">
<polygon fill="white" stroke="black" points="652.5,-393.5 652.5,-421.5 772.5,-421.5 772.5,-393.5 652.5,-393.5"/>
<text text-anchor="start" x="660.5" y="-410.3" font-family="Helvetica,sans-Serif" font-size="9.00">prior_hessian::ParetoDist</text>
<text text-anchor="middle" x="712.5" y="-400.3" font-family="Helvetica,sans-Serif" font-size="9.00">::sample</text>
</a>
</g>
</g>
<!-- Node7&#45;&gt;Node19 -->
<g id="edge26" class="edge"><title>Node7&#45;&gt;Node19</title>
<path fill="none" stroke="midnightblue" d="M560.582,-257.762C575.176,-288.973 603.362,-343.482 644,-375.5 654.6,-383.852 668.41,-389.261 680.776,-393.414"/>
<polygon fill="midnightblue" stroke="midnightblue" points="563.682,-256.127 556.323,-248.505 557.323,-259.053 563.682,-256.127"/>
</g>
<!-- Node8&#45;&gt;Node7 -->
<g id="edge8" class="edge"><title>Node8&#45;&gt;Node7</title>
<path fill="none" stroke="midnightblue" d="M635.24,-350.494C596.013,-321.64 565.9,-273.175 554.25,-248.724"/>
<polygon fill="midnightblue" stroke="midnightblue" points="633.521,-353.56 643.745,-356.338 637.485,-347.79 633.521,-353.56"/>
</g>
<!-- Node10 -->
<g id="node10" class="node"><title>Node10</title>
<g id="a_node10"><a xlink:href="classprior__hessian_1_1ParetoDist.html#a572ad9f28d83da610e1b81c88876563a" target="_top" xlink:title="prior_hessian::ParetoDist\l::ParetoDist">
<polygon fill="white" stroke="black" points="817,-260.5 817,-288.5 937,-288.5 937,-260.5 817,-260.5"/>
<text text-anchor="start" x="825" y="-277.3" font-family="Helvetica,sans-Serif" font-size="9.00">prior_hessian::ParetoDist</text>
<text text-anchor="middle" x="877" y="-267.3" font-family="Helvetica,sans-Serif" font-size="9.00">::ParetoDist</text>
</a>
</g>
</g>
<!-- Node9&#45;&gt;Node10 -->
<g id="edge10" class="edge"><title>Node9&#45;&gt;Node10</title>
<path fill="none" stroke="midnightblue" d="M773.78,-117.413C776.306,-118.981 778.728,-120.674 781,-122.5 828.788,-160.9 859.284,-230.211 870.803,-260.12"/>
<polygon fill="midnightblue" stroke="midnightblue" points="775.319,-114.265 764.864,-112.544 771.964,-120.409 775.319,-114.265"/>
</g>
<!-- Node11&#45;&gt;Node7 -->
<g id="edge12" class="edge"><title>Node11&#45;&gt;Node7</title>
<path fill="none" stroke="midnightblue" d="M643.105,-308.673C605.766,-288.793 574.749,-264.472 559.216,-248.652"/>
<polygon fill="midnightblue" stroke="midnightblue" points="641.711,-311.892 652.203,-313.362 644.918,-305.67 641.711,-311.892"/>
</g>
<!-- Node13&#45;&gt;Node7 -->
<g id="edge15" class="edge"><title>Node13&#45;&gt;Node7</title>
<path fill="none" stroke="midnightblue" d="M635.097,-241.239C626.036,-241.279 616.895,-241.207 608.126,-241.022"/>
<polygon fill="midnightblue" stroke="midnightblue" points="635.301,-244.738 645.269,-241.146 635.237,-237.738 635.301,-244.738"/>
</g>
<!-- Node14&#45;&gt;Node7 -->
<g id="edge17" class="edge"><title>Node14&#45;&gt;Node7</title>
<path fill="none" stroke="midnightblue" d="M668.987,-209.504C650.399,-215.07 628.28,-220.956 608.126,-225.741"/>
<polygon fill="midnightblue" stroke="midnightblue" points="670.103,-212.822 678.636,-206.542 668.049,-206.131 670.103,-212.822"/>
</g>
<!-- Node15&#45;&gt;Node7 -->
<g id="edge19" class="edge"><title>Node15&#45;&gt;Node7</title>
<path fill="none" stroke="midnightblue" d="M679.999,-163.244C668.406,-167.733 655.344,-172.726 644,-178.5 620.135,-190.648 595.225,-207.887 576.903,-220.269"/>
<polygon fill="midnightblue" stroke="midnightblue" points="681.291,-166.497 689.322,-159.586 678.734,-159.98 681.291,-166.497"/>
</g>
<!-- Node16&#45;&gt;Node7 -->
<g id="edge23" class="edge"><title>Node16&#45;&gt;Node7</title>
<path fill="none" stroke="midnightblue" d="M668.893,-32.0807C659.94,-35.6543 651.078,-40.2302 644,-46.5 588.15,-95.9741 562.067,-185.565 552.959,-220.469"/>
<polygon fill="midnightblue" stroke="midnightblue" points="670.361,-35.271 678.562,-28.5635 667.968,-28.6927 670.361,-35.271"/>
</g>
<!-- Node17 -->
<g id="node17" class="node"><title>Node17</title>
<g id="a_node17"><a xlink:href="classprior__hessian_1_1ParetoDist.html#ad90392cbacf44f0760b46e80a2676a08" target="_top" xlink:title="prior_hessian::ParetoDist\l::check_params">
<polygon fill="white" stroke="black" points="817,-0.5 817,-28.5 937,-28.5 937,-0.5 817,-0.5"/>
<text text-anchor="start" x="825" y="-17.3" font-family="Helvetica,sans-Serif" font-size="9.00">prior_hessian::ParetoDist</text>
<text text-anchor="middle" x="877" y="-7.3" font-family="Helvetica,sans-Serif" font-size="9.00">::check_params</text>
</a>
</g>
</g>
<!-- Node16&#45;&gt;Node17 -->
<g id="edge21" class="edge"><title>Node16&#45;&gt;Node17</title>
<path fill="none" stroke="midnightblue" d="M782.911,-14.5C794.235,-14.5 805.873,-14.5 816.918,-14.5"/>
<polygon fill="midnightblue" stroke="midnightblue" points="782.626,-11.0001 772.626,-14.5 782.626,-18.0001 782.626,-11.0001"/>
</g>
<!-- Node17&#45;&gt;Node17 -->
<g id="edge22" class="edge"><title>Node17&#45;&gt;Node17</title>
<path fill="none" stroke="midnightblue" d="M847.354,-38.4873C850.502,-43.4413 860.384,-47 877,-47 903.586,-47 912.933,-37.8898 905.04,-28.5305"/>
<polygon fill="midnightblue" stroke="midnightblue" points="850.823,-38.9603 848.96,-28.5305 843.912,-37.8453 850.823,-38.9603"/>
</g>
<!-- Node18&#45;&gt;Node7 -->
<g id="edge25" class="edge"><title>Node18&#45;&gt;Node7</title>
<path fill="none" stroke="midnightblue" d="M680.58,-67.9391C668.241,-71.1087 654.502,-75.5525 644,-83.5 595.312,-120.343 566.734,-189.995 555.111,-220.307"/>
<polygon fill="midnightblue" stroke="midnightblue" points="681.622,-71.2879 690.514,-65.5274 679.97,-64.4855 681.622,-71.2879"/>
</g>
<!-- Node19&#45;&gt;Node7 -->
<g id="edge27" class="edge"><title>Node19&#45;&gt;Node7</title>
<path fill="none" stroke="midnightblue" d="M644.495,-393.886C644.329,-393.758 644.164,-393.629 644,-393.5 593.88,-354.011 562.7,-280.309 552.6,-248.784"/>
<polygon fill="midnightblue" stroke="midnightblue" points="642.139,-396.521 652.397,-399.169 646.029,-390.702 642.139,-396.521"/>
</g>
<!-- Node20&#45;&gt;Node10 -->
<g id="edge29" class="edge"><title>Node20&#45;&gt;Node10</title>
<path fill="none" stroke="midnightblue" d="M283.34,-450.222C388.891,-478.087 620.25,-522.501 781,-431.5 836.726,-399.953 863.509,-321.159 872.446,-288.758"/>
<polygon fill="midnightblue" stroke="midnightblue" points="284.091,-446.799 273.525,-447.582 282.273,-453.559 284.091,-446.799"/>
</g>
</g>
</svg>
