<?xml version="1.0" encoding="UTF-8" standalone="no"?>
<!DOCTYPE svg PUBLIC "-//W3C//DTD SVG 1.1//EN"
 "http://www.w3.org/Graphics/SVG/1.1/DTD/svg11.dtd">
<!-- Generated by graphviz version 2.38.0 (20140413.2041)
 -->
<!-- Title: prior_hessian::CompositeDist::lbound Pages: 1 -->
<!--zoomable 388 -->
<svg id="main" version="1.1" xmlns="http://www.w3.org/2000/svg" xmlns:xlink="http://www.w3.org/1999/xlink" xml:space="preserve" onload="init(evt)">
<style type="text/css"><![CDATA[
.edge:hover path { stroke: red; }
.edge:hover polygon { stroke: red; fill: red; }
]]></style>
<script type="text/javascript"><![CDATA[
var edges = document.getElementsByTagName('g');
if (edges && edges.length) {
  for (var i=0;i<edges.length;i++) {
    if (edges[i].id.substr(0,4)=='edge') {
      edges[i].setAttribute('class','edge');
    }
  }
}
]]></script>
        <defs>
                <circle id="rim" cx="0" cy="0" r="7"/>
                <circle id="rim2" cx="0" cy="0" r="3.5"/>
                <g id="zoomPlus">
                        <use xlink:href="#rim" fill="#404040">
                                <set attributeName="fill" to="#808080" begin="zoomplus.mouseover" end="zoomplus.mouseout"/>
                        </use>
                        <path d="M-4,0h8M0,-4v8" fill="none" stroke="white" stroke-width="1.5" pointer-events="none"/>
                </g>
                <g id="zoomMin">
                        <use xlink:href="#rim" fill="#404040">
                                <set attributeName="fill" to="#808080" begin="zoomminus.mouseover" end="zoomminus.mouseout"/>
                        </use>
                        <path d="M-4,0h8" fill="none" stroke="white" stroke-width="1.5" pointer-events="none"/>
                </g>
                <g id="dirArrow">
                        <path fill="none" stroke="white" stroke-width="1.5" d="M0,-3.0v7 M-2.5,-0.5L0,-3.0L2.5,-0.5"/>
                </g>
               <g id="resetDef">
                       <use xlink:href="#rim2" fill="#404040">
                               <set attributeName="fill" to="#808080" begin="reset.mouseover" end="reset.mouseout"/>
                       </use>
               </g>
        </defs>

<script type="text/javascript">
var viewWidth = 986;
var viewHeight = 388;
var sectionId = 'dynsection-38';
</script>
<script xlink:href="svgpan.js"/>
<svg id="graph" class="graph">
<g id="viewport">
<title>prior_hessian::CompositeDist::lbound</title>
<polygon fill="white" stroke="none" points="-4,4 -4,-383.63 982,-383.63 982,4 -4,4"/>
<!-- Node1 -->
<g id="node1" class="node"><title>Node1</title>
<polygon fill="#bfbfbf" stroke="black" points="0,-130.13 0,-158.13 122,-158.13 122,-130.13 0,-130.13"/>
<text text-anchor="start" x="8" y="-146.93" font-family="Helvetica,sans-Serif" font-size="9.00">prior_hessian::Composite</text>
<text text-anchor="middle" x="61" y="-136.93" font-family="Helvetica,sans-Serif" font-size="9.00">Dist::lbound</text>
</g>
<!-- Node2 -->
<g id="node2" class="node"><title>Node2</title>
<g id="a_node2"><a xlink:href="classprior__hessian_1_1CompositeDist_1_1ComponentDistAdaptor_3_01Dist_00_01meta_1_1EnableIfSubclc6c9bd83bba546a81e521c87ad7ee6d3.html#a1d66ce9255e672c44d926c8944ac30ce" target="_top" xlink:title="prior_hessian::Composite\lDist::ComponentDistAdaptor\l\&lt; Dist, meta::EnableIfSubclassT\l\&lt; Dist, UnivariateDist \&gt; \&gt;::append\l_global_lbound">
<polygon fill="white" stroke="black" points="175,-321.13 175,-379.13 328,-379.13 328,-321.13 175,-321.13"/>
<text text-anchor="start" x="183" y="-367.93" font-family="Helvetica,sans-Serif" font-size="9.00">prior_hessian::Composite</text>
<text text-anchor="start" x="183" y="-357.93" font-family="Helvetica,sans-Serif" font-size="9.00">Dist::ComponentDistAdaptor</text>
<text text-anchor="start" x="183" y="-347.93" font-family="Helvetica,sans-Serif" font-size="9.00">&lt; Dist, meta::EnableIfSubclassT</text>
<text text-anchor="start" x="183" y="-337.93" font-family="Helvetica,sans-Serif" font-size="9.00">&lt; Dist, UnivariateDist &gt; &gt;::append</text>
<text text-anchor="middle" x="251.5" y="-327.93" font-family="Helvetica,sans-Serif" font-size="9.00">_global_lbound</text>
</a>
</g>
</g>
<!-- Node1&#45;&gt;Node2 -->
<g id="edge1" class="edge"><title>Node1&#45;&gt;Node2</title>
<path fill="none" stroke="midnightblue" d="M69.9056,-167.994C82.9121,-203.868 112.057,-271.776 158,-312.13 163.087,-316.598 168.771,-320.587 174.752,-324.138"/>
<polygon fill="midnightblue" stroke="midnightblue" points="73.1399,-166.641 66.5251,-158.365 66.5351,-168.96 73.1399,-166.641"/>
</g>
<!-- Node3 -->
<g id="node3" class="node"><title>Node3</title>
<g id="a_node3"><a xlink:href="classprior__hessian_1_1CompositeDist_1_1ComponentDistAdaptor_3_01Dist_00_01meta_1_1EnableIfSubclc6c9bd83bba546a81e521c87ad7ee6d3.html#aedfbb603408ea84a80ba7c21c8910e66" target="_top" xlink:title="prior_hessian::Composite\lDist::ComponentDistAdaptor\l\&lt; Dist, meta::EnableIfSubclassT\l\&lt; Dist, UnivariateDist \&gt; \&gt;::append_lbound">
<polygon fill="white" stroke="black" points="158,-254.13 158,-302.13 345,-302.13 345,-254.13 158,-254.13"/>
<text text-anchor="start" x="166" y="-290.93" font-family="Helvetica,sans-Serif" font-size="9.00">prior_hessian::Composite</text>
<text text-anchor="start" x="166" y="-280.93" font-family="Helvetica,sans-Serif" font-size="9.00">Dist::ComponentDistAdaptor</text>
<text text-anchor="start" x="166" y="-270.93" font-family="Helvetica,sans-Serif" font-size="9.00">&lt; Dist, meta::EnableIfSubclassT</text>
<text text-anchor="middle" x="251.5" y="-260.93" font-family="Helvetica,sans-Serif" font-size="9.00">&lt; Dist, UnivariateDist &gt; &gt;::append_lbound</text>
</a>
</g>
</g>
<!-- Node1&#45;&gt;Node3 -->
<g id="edge2" class="edge"><title>Node1&#45;&gt;Node3</title>
<path fill="none" stroke="midnightblue" d="M77.9502,-166.225C95.3323,-188.875 125.094,-223.724 158,-245.13 163.002,-248.384 168.366,-251.365 173.898,-254.087"/>
<polygon fill="midnightblue" stroke="midnightblue" points="80.7204,-164.085 71.9137,-158.195 75.1251,-168.291 80.7204,-164.085"/>
</g>
<!-- Node4 -->
<g id="node4" class="node"><title>Node4</title>
<g id="a_node4"><a xlink:href="classprior__hessian_1_1CompositeDist_1_1ComponentDistAdaptor_3_01Dist_00_01meta_1_1EnableIfSubcld67d34d533dbae21b9dad35557546eec.html#a971c182cb228d2ba1406c32f2257d6e3" target="_top" xlink:title="prior_hessian::Composite\lDist::ComponentDistAdaptor\l\&lt; Dist, meta::EnableIfSubclassT\l\&lt; Dist, MultivariateDist \&gt; \&gt;\l::append_lbound">
<polygon fill="white" stroke="black" points="178.5,-177.13 178.5,-235.13 324.5,-235.13 324.5,-177.13 178.5,-177.13"/>
<text text-anchor="start" x="186.5" y="-223.93" font-family="Helvetica,sans-Serif" font-size="9.00">prior_hessian::Composite</text>
<text text-anchor="start" x="186.5" y="-213.93" font-family="Helvetica,sans-Serif" font-size="9.00">Dist::ComponentDistAdaptor</text>
<text text-anchor="start" x="186.5" y="-203.93" font-family="Helvetica,sans-Serif" font-size="9.00">&lt; Dist, meta::EnableIfSubclassT</text>
<text text-anchor="start" x="186.5" y="-193.93" font-family="Helvetica,sans-Serif" font-size="9.00">&lt; Dist, MultivariateDist &gt; &gt;</text>
<text text-anchor="middle" x="251.5" y="-183.93" font-family="Helvetica,sans-Serif" font-size="9.00">::append_lbound</text>
</a>
</g>
</g>
<!-- Node1&#45;&gt;Node4 -->
<g id="edge3" class="edge"><title>Node1&#45;&gt;Node4</title>
<path fill="none" stroke="midnightblue" d="M114.501,-161.398C134.254,-167.895 157.075,-175.401 178.312,-182.386"/>
<polygon fill="midnightblue" stroke="midnightblue" points="115.367,-157.998 104.774,-158.198 113.179,-164.648 115.367,-157.998"/>
</g>
<!-- Node5 -->
<g id="node5" class="node"><title>Node5</title>
<g id="a_node5"><a xlink:href="classprior__hessian_1_1CompositeDist.html#aad4dece0c6d7857cbe3e9121aa7cc040" target="_top" xlink:title="prior_hessian::Composite\lDist::in_bounds">
<polygon fill="white" stroke="black" points="190.5,-130.13 190.5,-158.13 312.5,-158.13 312.5,-130.13 190.5,-130.13"/>
<text text-anchor="start" x="198.5" y="-146.93" font-family="Helvetica,sans-Serif" font-size="9.00">prior_hessian::Composite</text>
<text text-anchor="middle" x="251.5" y="-136.93" font-family="Helvetica,sans-Serif" font-size="9.00">Dist::in_bounds</text>
</a>
</g>
</g>
<!-- Node1&#45;&gt;Node5 -->
<g id="edge4" class="edge"><title>Node1&#45;&gt;Node5</title>
<path fill="none" stroke="midnightblue" d="M132.283,-144.13C151.346,-144.13 171.81,-144.13 190.264,-144.13"/>
<polygon fill="midnightblue" stroke="midnightblue" points="132.161,-140.63 122.161,-144.13 132.161,-147.63 132.161,-140.63"/>
</g>
<!-- Node6 -->
<g id="node6" class="node"><title>Node6</title>
<g id="a_node6"><a xlink:href="classprior__hessian_1_1CompositeDist.html#ac7063be5346f042c0312d5729aa0883c" target="_top" xlink:title="prior_hessian::Composite\lDist::in_bounds_all">
<polygon fill="white" stroke="black" points="190.5,-83.1295 190.5,-111.13 312.5,-111.13 312.5,-83.1295 190.5,-83.1295"/>
<text text-anchor="start" x="198.5" y="-99.9295" font-family="Helvetica,sans-Serif" font-size="9.00">prior_hessian::Composite</text>
<text text-anchor="middle" x="251.5" y="-89.9295" font-family="Helvetica,sans-Serif" font-size="9.00">Dist::in_bounds_all</text>
</a>
</g>
</g>
<!-- Node1&#45;&gt;Node6 -->
<g id="edge5" class="edge"><title>Node1&#45;&gt;Node6</title>
<path fill="none" stroke="midnightblue" d="M128.043,-127.663C149.62,-122.283 173.369,-116.361 194.164,-111.176"/>
<polygon fill="midnightblue" stroke="midnightblue" points="127.157,-124.276 118.301,-130.092 128.851,-131.068 127.157,-124.276"/>
</g>
<!-- Node7 -->
<g id="node7" class="node"><title>Node7</title>
<g id="a_node7"><a xlink:href="namespaceprior__hessian.html#ab26e9ddc3b6a5caccf5d75e1a1e1af1b" target="_top" xlink:title="prior_hessian::operator\&lt;\&lt;">
<polygon fill="white" stroke="black" points="190.5,-46.1295 190.5,-64.1295 312.5,-64.1295 312.5,-46.1295 190.5,-46.1295"/>
<text text-anchor="middle" x="251.5" y="-52.9295" font-family="Helvetica,sans-Serif" font-size="9.00">prior_hessian::operator&lt;&lt;</text>
</a>
</g>
</g>
<!-- Node1&#45;&gt;Node7 -->
<g id="edge6" class="edge"><title>Node1&#45;&gt;Node7</title>
<path fill="none" stroke="midnightblue" d="M84.8042,-123.107C103.223,-107.273 130.516,-86.2817 158,-74.1295 168.046,-69.6876 179.169,-66.2694 190.118,-63.6432"/>
<polygon fill="midnightblue" stroke="midnightblue" points="82.1977,-120.739 76.9974,-129.969 86.8191,-125.996 82.1977,-120.739"/>
</g>
<!-- Node11 -->
<g id="node11" class="node"><title>Node11</title>
<g id="a_node11"><a xlink:href="classprior__hessian_1_1CompositeDist.html#a24bac25ae8c0330b8a3aacadffc9d5ae" target="_top" xlink:title="prior_hessian::Composite\lDist::rllh_components">
<polygon fill="white" stroke="black" points="856,-31.1295 856,-59.1295 978,-59.1295 978,-31.1295 856,-31.1295"/>
<text text-anchor="start" x="864" y="-47.9295" font-family="Helvetica,sans-Serif" font-size="9.00">prior_hessian::Composite</text>
<text text-anchor="middle" x="917" y="-37.9295" font-family="Helvetica,sans-Serif" font-size="9.00">Dist::rllh_components</text>
</a>
</g>
</g>
<!-- Node1&#45;&gt;Node11 -->
<g id="edge13" class="edge"><title>Node1&#45;&gt;Node11</title>
<path fill="none" stroke="midnightblue" d="M75.0939,-121.169C91.0627,-95.5736 120.61,-55.2701 158,-36.1295 270.547,21.485 314.564,-7.12953 441,-7.12953 441,-7.12953 441,-7.12953 601,-7.12953 690.236,-7.12953 792.675,-22.3467 855.872,-33.5218"/>
<polygon fill="midnightblue" stroke="midnightblue" points="72.014,-119.498 69.8356,-129.866 78.0044,-123.119 72.014,-119.498"/>
</g>
<!-- Node8 -->
<g id="node8" class="node"><title>Node8</title>
<g id="a_node8"><a xlink:href="classprior__hessian_1_1CompositeDist.html#a38c4fdacf927824117d202422b04013c" target="_top" xlink:title="prior_hessian::Composite\lDist::set_param_names">
<polygon fill="white" stroke="black" points="381,-52.1295 381,-80.1295 503,-80.1295 503,-52.1295 381,-52.1295"/>
<text text-anchor="start" x="389" y="-68.9295" font-family="Helvetica,sans-Serif" font-size="9.00">prior_hessian::Composite</text>
<text text-anchor="middle" x="442" y="-58.9295" font-family="Helvetica,sans-Serif" font-size="9.00">Dist::set_param_names</text>
</a>
</g>
</g>
<!-- Node7&#45;&gt;Node8 -->
<g id="edge7" class="edge"><title>Node7&#45;&gt;Node8</title>
<path fill="none" stroke="midnightblue" d="M322.783,-59.2309C341.846,-60.3434 362.31,-61.5375 380.764,-62.6144"/>
<polygon fill="midnightblue" stroke="midnightblue" points="322.848,-55.7288 312.661,-58.6402 322.44,-62.717 322.848,-55.7288"/>
</g>
<!-- Node9 -->
<g id="node9" class="node"><title>Node9</title>
<g id="a_node9"><a xlink:href="classprior__hessian_1_1CompositeDist.html#ace0aaa3698d76aba6a47f9061ff98902" target="_top" xlink:title="prior_hessian::Composite\lDist::rename_param">
<polygon fill="white" stroke="black" points="539,-112.13 539,-140.13 661,-140.13 661,-112.13 539,-112.13"/>
<text text-anchor="start" x="547" y="-128.93" font-family="Helvetica,sans-Serif" font-size="9.00">prior_hessian::Composite</text>
<text text-anchor="middle" x="600" y="-118.93" font-family="Helvetica,sans-Serif" font-size="9.00">Dist::rename_param</text>
</a>
</g>
</g>
<!-- Node8&#45;&gt;Node9 -->
<g id="edge8" class="edge"><title>Node8&#45;&gt;Node9</title>
<path fill="none" stroke="midnightblue" d="M488.959,-83.8062C512.374,-92.8119 540.452,-103.611 562.384,-112.047"/>
<polygon fill="midnightblue" stroke="midnightblue" points="490.165,-80.52 479.575,-80.1969 487.652,-87.0534 490.165,-80.52"/>
</g>
<!-- Node10 -->
<g id="node10" class="node"><title>Node10</title>
<g id="a_node10"><a xlink:href="classprior__hessian_1_1CompositeDist.html#a927fed39b2b4e87714c728d6e7b11e8b" target="_top" xlink:title="prior_hessian::Composite\lDist::params_components">
<polygon fill="white" stroke="black" points="697,-74.1295 697,-102.13 820,-102.13 820,-74.1295 697,-74.1295"/>
<text text-anchor="start" x="705" y="-90.9295" font-family="Helvetica,sans-Serif" font-size="9.00">prior_hessian::Composite</text>
<text text-anchor="middle" x="758.5" y="-80.9295" font-family="Helvetica,sans-Serif" font-size="9.00">Dist::params_components</text>
</a>
</g>
</g>
<!-- Node8&#45;&gt;Node10 -->
<g id="edge11" class="edge"><title>Node8&#45;&gt;Node10</title>
<path fill="none" stroke="midnightblue" d="M513.312,-71.048C568.461,-74.9058 644.415,-80.219 696.902,-83.8906"/>
<polygon fill="midnightblue" stroke="midnightblue" points="513.487,-67.5518 503.267,-70.3453 512.998,-74.5347 513.487,-67.5518"/>
</g>
<!-- Node8&#45;&gt;Node11 -->
<g id="edge12" class="edge"><title>Node8&#45;&gt;Node11</title>
<path fill="none" stroke="midnightblue" d="M513.546,-62.9975C606.542,-58.8687 768.558,-51.6756 855.973,-47.7946"/>
<polygon fill="midnightblue" stroke="midnightblue" points="513.221,-59.5084 503.386,-63.4485 513.532,-66.5015 513.221,-59.5084"/>
</g>
<!-- Node9&#45;&gt;Node10 -->
<g id="edge9" class="edge"><title>Node9&#45;&gt;Node10</title>
<path fill="none" stroke="midnightblue" d="M668.635,-109.707C678.967,-107.198 689.55,-104.629 699.646,-102.177"/>
<polygon fill="midnightblue" stroke="midnightblue" points="667.722,-106.327 658.83,-112.088 669.374,-113.129 667.722,-106.327"/>
</g>
<!-- Node10&#45;&gt;Node11 -->
<g id="edge10" class="edge"><title>Node10&#45;&gt;Node11</title>
<path fill="none" stroke="midnightblue" d="M820.709,-71.3117C835.334,-67.2933 850.794,-63.0455 864.908,-59.1675"/>
<polygon fill="midnightblue" stroke="midnightblue" points="819.459,-68.0253 810.744,-74.0497 821.314,-74.7752 819.459,-68.0253"/>
</g>
</g>
</svg>
        <g id="navigator" transform="translate(0 0)" fill="#404254">
                <rect fill="#f2f5e9" fill-opacity="0.5" stroke="#606060" stroke-width=".5" x="0" y="0" width="60" height="60"/>
                <use id="zoomplus" xlink:href="#zoomPlus" x="17" y="9" onmousedown="handleZoom(evt,'in')"/>
                <use id="zoomminus" xlink:href="#zoomMin" x="42" y="9" onmousedown="handleZoom(evt,'out')"/>
                <use id="reset" xlink:href="#resetDef" x="30" y="36" onmousedown="handleReset()"/>
                <g id="arrowUp" xlink:href="#dirArrow" transform="translate(30 24)" onmousedown="handlePan(0,-1)">
                  <use xlink:href="#rim" fill="#404040">
                        <set attributeName="fill" to="#808080" begin="arrowUp.mouseover" end="arrowUp.mouseout"/>
                  </use>
                  <path fill="none" stroke="white" stroke-width="1.5" d="M0,-3.0v7 M-2.5,-0.5L0,-3.0L2.5,-0.5"/>
                </g>
                <g id="arrowRight" xlink:href="#dirArrow" transform="rotate(90) translate(36 -43)" onmousedown="handlePan(1,0)">
                  <use xlink:href="#rim" fill="#404040">
                        <set attributeName="fill" to="#808080" begin="arrowRight.mouseover" end="arrowRight.mouseout"/>
                  </use>
                  <path fill="none" stroke="white" stroke-width="1.5" d="M0,-3.0v7 M-2.5,-0.5L0,-3.0L2.5,-0.5"/>
                </g>
                <g id="arrowDown" xlink:href="#dirArrow" transform="rotate(180) translate(-30 -48)" onmousedown="handlePan(0,1)">
                  <use xlink:href="#rim" fill="#404040">
                        <set attributeName="fill" to="#808080" begin="arrowDown.mouseover" end="arrowDown.mouseout"/>
                  </use>
                  <path fill="none" stroke="white" stroke-width="1.5" d="M0,-3.0v7 M-2.5,-0.5L0,-3.0L2.5,-0.5"/>
                </g>
                <g id="arrowLeft" xlink:href="#dirArrow" transform="rotate(270) translate(-36 17)" onmousedown="handlePan(-1,0)">
                  <use xlink:href="#rim" fill="#404040">
                        <set attributeName="fill" to="#808080" begin="arrowLeft.mouseover" end="arrowLeft.mouseout"/>
                  </use>
                  <path fill="none" stroke="white" stroke-width="1.5" d="M0,-3.0v7 M-2.5,-0.5L0,-3.0L2.5,-0.5"/>
                </g>
        </g>
        <svg viewBox="0 0 15 15" width="100%" height="30px" preserveAspectRatio="xMaxYMin meet">
         <g id="arrow_out" transform="scale(0.3 0.3)">
          <a xlink:href="classprior__hessian_1_1CompositeDist_a46c83acc63b87837f3c4cb425e312d67_icgraph_org.svg" target="_base">
           <rect id="button" ry="5" rx="5" y="6" x="6" height="38" width="38"
                fill="#f2f5e9" fill-opacity="0.5" stroke="#606060" stroke-width="1.0"/>
           <path id="arrow"
             d="M 11.500037,31.436501 C 11.940474,20.09759 22.043105,11.32322 32.158766,21.979434 L 37.068811,17.246167 C 37.068811,17.246167 37.088388,32 37.088388,32 L 22.160133,31.978069 C 22.160133,31.978069 26.997745,27.140456 26.997745,27.140456 C 18.528582,18.264221 13.291696,25.230495 11.500037,31.436501 z"
             style="fill:#404040;"/>
          </a>
         </g>
        </svg>
</svg>
