<?xml version="1.0" encoding="UTF-8" standalone="no"?>
<!DOCTYPE svg PUBLIC "-//W3C//DTD SVG 1.1//EN"
 "http://www.w3.org/Graphics/SVG/1.1/DTD/svg11.dtd">
<!-- Generated by graphviz version 2.38.0 (20140413.2041)
 -->
<!-- Title: prior_hessian::SymmetricBetaDist::set_params_iter Pages: 1 -->
<svg width="442pt" height="37pt"
 viewBox="0.00 0.00 442.00 37.00" xmlns="http://www.w3.org/2000/svg" xmlns:xlink="http://www.w3.org/1999/xlink">
<g id="graph0" class="graph" transform="scale(1 1) rotate(0) translate(4 33)">
<title>prior_hessian::SymmetricBetaDist::set_params_iter</title>
<polygon fill="white" stroke="none" points="-4,4 -4,-33 438,-33 438,4 -4,4"/>
<!-- Node1 -->
<g id="node1" class="node"><title>Node1</title>
<polygon fill="#bfbfbf" stroke="black" points="0,-0.5 0,-28.5 122,-28.5 122,-0.5 0,-0.5"/>
<text text-anchor="start" x="8" y="-17.3" font-family="Helvetica,sans-Serif" font-size="9.00">prior_hessian::Symmetric</text>
<text text-anchor="middle" x="61" y="-7.3" font-family="Helvetica,sans-Serif" font-size="9.00">BetaDist::set_params_iter</text>
</g>
<!-- Node2 -->
<g id="node2" class="node"><title>Node2</title>
<g id="a_node2"><a xlink:href="classprior__hessian_1_1SymmetricBetaDist.html#a8f54c616932761272dad23e3da2be005" target="_top" xlink:title="prior_hessian::Symmetric\lBetaDist::set_params">
<polygon fill="white" stroke="black" points="158,-0.5 158,-28.5 278,-28.5 278,-0.5 158,-0.5"/>
<text text-anchor="start" x="166" y="-17.3" font-family="Helvetica,sans-Serif" font-size="9.00">prior_hessian::Symmetric</text>
<text text-anchor="middle" x="218" y="-7.3" font-family="Helvetica,sans-Serif" font-size="9.00">BetaDist::set_params</text>
</a>
</g>
</g>
<!-- Node1&#45;&gt;Node2 -->
<g id="edge1" class="edge"><title>Node1&#45;&gt;Node2</title>
<path fill="none" stroke="midnightblue" d="M122.371,-14.5C130.65,-14.5 139.204,-14.5 147.628,-14.5"/>
<polygon fill="midnightblue" stroke="midnightblue" points="147.812,-18.0001 157.812,-14.5 147.812,-11.0001 147.812,-18.0001"/>
</g>
<!-- Node3 -->
<g id="node3" class="node"><title>Node3</title>
<g id="a_node3"><a xlink:href="classprior__hessian_1_1SymmetricBetaDist.html#a45a39dc6a12ec1af15a1701023101f1f" target="_top" xlink:title="prior_hessian::Symmetric\lBetaDist::set_beta">
<polygon fill="white" stroke="black" points="314,-0.5 314,-28.5 434,-28.5 434,-0.5 314,-0.5"/>
<text text-anchor="start" x="322" y="-17.3" font-family="Helvetica,sans-Serif" font-size="9.00">prior_hessian::Symmetric</text>
<text text-anchor="middle" x="374" y="-7.3" font-family="Helvetica,sans-Serif" font-size="9.00">BetaDist::set_beta</text>
</a>
</g>
</g>
<!-- Node2&#45;&gt;Node3 -->
<g id="edge2" class="edge"><title>Node2&#45;&gt;Node3</title>
<path fill="none" stroke="midnightblue" d="M278.1,-14.5C286.422,-14.5 295.039,-14.5 303.533,-14.5"/>
<polygon fill="midnightblue" stroke="midnightblue" points="303.804,-18.0001 313.804,-14.5 303.804,-11.0001 303.804,-18.0001"/>
</g>
</g>
</svg>
