<?xml version="1.0" encoding="UTF-8" standalone="no"?>
<!DOCTYPE svg PUBLIC "-//W3C//DTD SVG 1.1//EN"
 "http://www.w3.org/Graphics/SVG/1.1/DTD/svg11.dtd">
<!-- Generated by graphviz version 2.38.0 (20140413.2041)
 -->
<!-- Title: prior_hessian::CompositeDist::set_dim_variables Pages: 1 -->
<svg width="930pt" height="98pt"
 viewBox="0.00 0.00 930.00 98.00" xmlns="http://www.w3.org/2000/svg" xmlns:xlink="http://www.w3.org/1999/xlink">
<g id="graph0" class="graph" transform="scale(1 1) rotate(0) translate(4 94)">
<title>prior_hessian::CompositeDist::set_dim_variables</title>
<polygon fill="white" stroke="none" points="-4,4 -4,-94 926,-94 926,4 -4,4"/>
<!-- Node1 -->
<g id="node1" class="node"><title>Node1</title>
<polygon fill="#bfbfbf" stroke="black" points="0,-0.5 0,-28.5 122,-28.5 122,-0.5 0,-0.5"/>
<text text-anchor="start" x="8" y="-17.3" font-family="Helvetica,sans-Serif" font-size="9.00">prior_hessian::Composite</text>
<text text-anchor="middle" x="61" y="-7.3" font-family="Helvetica,sans-Serif" font-size="9.00">Dist::set_dim_variables</text>
</g>
<!-- Node2 -->
<g id="node2" class="node"><title>Node2</title>
<g id="a_node2"><a xlink:href="classprior__hessian_1_1CompositeDist.html#ab33784dcc2971ebaae40e6138bd1e4c2" target="_top" xlink:title="prior_hessian::Composite\lDist::num_dim_components">
<polygon fill="white" stroke="black" points="158,-0.5 158,-28.5 289,-28.5 289,-0.5 158,-0.5"/>
<text text-anchor="start" x="166" y="-17.3" font-family="Helvetica,sans-Serif" font-size="9.00">prior_hessian::Composite</text>
<text text-anchor="middle" x="223.5" y="-7.3" font-family="Helvetica,sans-Serif" font-size="9.00">Dist::num_dim_components</text>
</a>
</g>
</g>
<!-- Node1&#45;&gt;Node2 -->
<g id="edge1" class="edge"><title>Node1&#45;&gt;Node2</title>
<path fill="none" stroke="midnightblue" d="M132.451,-14.5C140.919,-14.5 149.534,-14.5 157.913,-14.5"/>
<polygon fill="midnightblue" stroke="midnightblue" points="132.221,-11.0001 122.221,-14.5 132.221,-18.0001 132.221,-11.0001"/>
</g>
<!-- Node3 -->
<g id="node3" class="node"><title>Node3</title>
<g id="a_node3"><a xlink:href="namespaceprior__hessian.html#ab26e9ddc3b6a5caccf5d75e1a1e1af1b" target="_top" xlink:title="prior_hessian::operator\&lt;\&lt;">
<polygon fill="white" stroke="black" points="325,-25.5 325,-43.5 447,-43.5 447,-25.5 325,-25.5"/>
<text text-anchor="middle" x="386" y="-32.3" font-family="Helvetica,sans-Serif" font-size="9.00">prior_hessian::operator&lt;&lt;</text>
</a>
</g>
</g>
<!-- Node2&#45;&gt;Node3 -->
<g id="edge2" class="edge"><title>Node2&#45;&gt;Node3</title>
<path fill="none" stroke="midnightblue" d="M299.314,-23.8226C307.881,-24.8902 316.531,-25.968 324.871,-27.0073"/>
<polygon fill="midnightblue" stroke="midnightblue" points="299.675,-20.3406 289.319,-22.5771 298.809,-27.2869 299.675,-20.3406"/>
</g>
<!-- Node6 -->
<g id="node6" class="node"><title>Node6</title>
<g id="a_node6"><a xlink:href="classprior__hessian_1_1CompositeDist.html#a24bac25ae8c0330b8a3aacadffc9d5ae" target="_top" xlink:title="prior_hessian::Composite\lDist::rllh_components">
<polygon fill="white" stroke="black" points="800,-18.5 800,-46.5 922,-46.5 922,-18.5 800,-18.5"/>
<text text-anchor="start" x="808" y="-35.3" font-family="Helvetica,sans-Serif" font-size="9.00">prior_hessian::Composite</text>
<text text-anchor="middle" x="861" y="-25.3" font-family="Helvetica,sans-Serif" font-size="9.00">Dist::rllh_components</text>
</a>
</g>
</g>
<!-- Node2&#45;&gt;Node6 -->
<g id="edge7" class="edge"><title>Node2&#45;&gt;Node6</title>
<path fill="none" stroke="midnightblue" d="M299.211,-12.549C375.957,-10.957 498.863,-9.55133 605,-13.5 671.766,-15.9839 748.162,-22.114 799.789,-26.7446"/>
<polygon fill="midnightblue" stroke="midnightblue" points="299.082,-9.05091 289.159,-12.7641 299.232,-16.0493 299.082,-9.05091"/>
</g>
<!-- Node4 -->
<g id="node4" class="node"><title>Node4</title>
<g id="a_node4"><a xlink:href="classprior__hessian_1_1CompositeDist.html#a38c4fdacf927824117d202422b04013c" target="_top" xlink:title="prior_hessian::Composite\lDist::set_param_names">
<polygon fill="white" stroke="black" points="483,-23.5 483,-51.5 605,-51.5 605,-23.5 483,-23.5"/>
<text text-anchor="start" x="491" y="-40.3" font-family="Helvetica,sans-Serif" font-size="9.00">prior_hessian::Composite</text>
<text text-anchor="middle" x="544" y="-30.3" font-family="Helvetica,sans-Serif" font-size="9.00">Dist::set_param_names</text>
</a>
</g>
</g>
<!-- Node3&#45;&gt;Node4 -->
<g id="edge3" class="edge"><title>Node3&#45;&gt;Node4</title>
<path fill="none" stroke="midnightblue" d="M457.538,-35.8565C465.99,-36.019 474.56,-36.1839 482.847,-36.3432"/>
<polygon fill="midnightblue" stroke="midnightblue" points="457.379,-32.3529 447.314,-35.6599 457.244,-39.3516 457.379,-32.3529"/>
</g>
<!-- Node5 -->
<g id="node5" class="node"><title>Node5</title>
<g id="a_node5"><a xlink:href="classprior__hessian_1_1CompositeDist.html#a927fed39b2b4e87714c728d6e7b11e8b" target="_top" xlink:title="prior_hessian::Composite\lDist::params_components">
<polygon fill="white" stroke="black" points="641,-61.5 641,-89.5 764,-89.5 764,-61.5 641,-61.5"/>
<text text-anchor="start" x="649" y="-78.3" font-family="Helvetica,sans-Serif" font-size="9.00">prior_hessian::Composite</text>
<text text-anchor="middle" x="702.5" y="-68.3" font-family="Helvetica,sans-Serif" font-size="9.00">Dist::params_components</text>
</a>
</g>
</g>
<!-- Node4&#45;&gt;Node5 -->
<g id="edge4" class="edge"><title>Node4&#45;&gt;Node5</title>
<path fill="none" stroke="midnightblue" d="M612.635,-53.9225C622.967,-56.4312 633.55,-59.001 643.646,-61.4525"/>
<polygon fill="midnightblue" stroke="midnightblue" points="613.374,-50.5003 602.83,-51.5418 611.722,-57.3026 613.374,-50.5003"/>
</g>
<!-- Node4&#45;&gt;Node6 -->
<g id="edge6" class="edge"><title>Node4&#45;&gt;Node6</title>
<path fill="none" stroke="midnightblue" d="M615.457,-36.3816C670.879,-35.5019 747.264,-34.2895 799.842,-33.4549"/>
<polygon fill="midnightblue" stroke="midnightblue" points="615.306,-32.8835 605.362,-36.5419 615.417,-39.8826 615.306,-32.8835"/>
</g>
<!-- Node5&#45;&gt;Node6 -->
<g id="edge5" class="edge"><title>Node5&#45;&gt;Node6</title>
<path fill="none" stroke="midnightblue" d="M764.709,-58.6822C779.334,-54.6638 794.794,-50.416 808.908,-46.538"/>
<polygon fill="midnightblue" stroke="midnightblue" points="763.459,-55.3958 754.744,-61.4202 765.314,-62.1456 763.459,-55.3958"/>
</g>
</g>
</svg>
