<?xml version="1.0" encoding="UTF-8" standalone="no"?>
<!DOCTYPE svg PUBLIC "-//W3C//DTD SVG 1.1//EN"
 "http://www.w3.org/Graphics/SVG/1.1/DTD/svg11.dtd">
<!-- Generated by graphviz version 2.38.0 (20140413.2041)
 -->
<!-- Title: prior_hessian::ScaledDist::mean Pages: 1 -->
<svg width="464pt" height="84pt"
 viewBox="0.00 0.00 464.00 84.00" xmlns="http://www.w3.org/2000/svg" xmlns:xlink="http://www.w3.org/1999/xlink">
<g id="graph0" class="graph" transform="scale(1 1) rotate(0) translate(4 80)">
<title>prior_hessian::ScaledDist::mean</title>
<polygon fill="white" stroke="none" points="-4,4 -4,-80 460,-80 460,4 -4,4"/>
<!-- Node1 -->
<g id="node1" class="node"><title>Node1</title>
<polygon fill="#bfbfbf" stroke="black" points="0,-23.5 0,-51.5 122,-51.5 122,-23.5 0,-23.5"/>
<text text-anchor="start" x="8" y="-40.3" font-family="Helvetica,sans-Serif" font-size="9.00">prior_hessian::ScaledDist</text>
<text text-anchor="middle" x="61" y="-30.3" font-family="Helvetica,sans-Serif" font-size="9.00">::mean</text>
</g>
<!-- Node2 -->
<g id="node2" class="node"><title>Node2</title>
<g id="a_node2"><a xlink:href="classprior__hessian_1_1ScaledDist.html#a99eca9762537a354b6d2b1b0e26e1f01" target="_top" xlink:title="prior_hessian::ScaledDist\l::convert_from_unitary_coords">
<polygon fill="white" stroke="black" points="158,-23.5 158,-51.5 298,-51.5 298,-23.5 158,-23.5"/>
<text text-anchor="start" x="166" y="-40.3" font-family="Helvetica,sans-Serif" font-size="9.00">prior_hessian::ScaledDist</text>
<text text-anchor="middle" x="228" y="-30.3" font-family="Helvetica,sans-Serif" font-size="9.00">::convert_from_unitary_coords</text>
</a>
</g>
</g>
<!-- Node1&#45;&gt;Node2 -->
<g id="edge1" class="edge"><title>Node1&#45;&gt;Node2</title>
<path fill="none" stroke="midnightblue" d="M122.036,-37.5C130.38,-37.5 139.057,-37.5 147.687,-37.5"/>
<polygon fill="midnightblue" stroke="midnightblue" points="147.774,-41.0001 157.774,-37.5 147.774,-34.0001 147.774,-41.0001"/>
</g>
<!-- Node3 -->
<g id="node3" class="node"><title>Node3</title>
<g id="a_node3"><a xlink:href="classprior__hessian_1_1ScaledDist.html#a46bce2de3c0e030e9e4542195ecb429f" target="_top" xlink:title="prior_hessian::ScaledDist\l::lbound">
<polygon fill="white" stroke="black" points="334,-47.5 334,-75.5 456,-75.5 456,-47.5 334,-47.5"/>
<text text-anchor="start" x="342" y="-64.3" font-family="Helvetica,sans-Serif" font-size="9.00">prior_hessian::ScaledDist</text>
<text text-anchor="middle" x="395" y="-54.3" font-family="Helvetica,sans-Serif" font-size="9.00">::lbound</text>
</a>
</g>
</g>
<!-- Node2&#45;&gt;Node3 -->
<g id="edge2" class="edge"><title>Node2&#45;&gt;Node3</title>
<path fill="none" stroke="midnightblue" d="M298.019,-47.5391C306.588,-48.7855 315.356,-50.0608 323.94,-51.3095"/>
<polygon fill="midnightblue" stroke="midnightblue" points="323.51,-54.7837 333.91,-52.7596 324.518,-47.8566 323.51,-54.7837"/>
</g>
<!-- Node4 -->
<g id="node4" class="node"><title>Node4</title>
<g id="a_node4"><a xlink:href="classprior__hessian_1_1ScaledDist.html#a364788705694bdd46cd5876e92e1ad87" target="_top" xlink:title="prior_hessian::ScaledDist\l::unscaled_lbound">
<polygon fill="white" stroke="black" points="334,-0.5 334,-28.5 456,-28.5 456,-0.5 334,-0.5"/>
<text text-anchor="start" x="342" y="-17.3" font-family="Helvetica,sans-Serif" font-size="9.00">prior_hessian::ScaledDist</text>
<text text-anchor="middle" x="395" y="-7.3" font-family="Helvetica,sans-Serif" font-size="9.00">::unscaled_lbound</text>
</a>
</g>
</g>
<!-- Node2&#45;&gt;Node4 -->
<g id="edge3" class="edge"><title>Node2&#45;&gt;Node4</title>
<path fill="none" stroke="midnightblue" d="M298.019,-27.8792C306.588,-26.6848 315.356,-25.4625 323.94,-24.2659"/>
<polygon fill="midnightblue" stroke="midnightblue" points="324.489,-27.7234 333.91,-22.8762 323.522,-20.7904 324.489,-27.7234"/>
</g>
</g>
</svg>
