<?xml version="1.0" encoding="UTF-8" standalone="no"?>
<!DOCTYPE svg PUBLIC "-//W3C//DTD SVG 1.1//EN"
 "http://www.w3.org/Graphics/SVG/1.1/DTD/svg11.dtd">
<!-- Generated by graphviz version 2.38.0 (20140413.2041)
 -->
<!-- Title: prior_hessian::ParetoDist::alpha Pages: 1 -->
<svg width="786pt" height="536pt"
 viewBox="0.00 0.00 786.00 535.89" xmlns="http://www.w3.org/2000/svg" xmlns:xlink="http://www.w3.org/1999/xlink">
<g id="graph0" class="graph" transform="scale(1 1) rotate(0) translate(4 531.895)">
<title>prior_hessian::ParetoDist::alpha</title>
<polygon fill="white" stroke="none" points="-4,4 -4,-531.895 782,-531.895 782,4 -4,4"/>
<!-- Node1 -->
<g id="node1" class="node"><title>Node1</title>
<polygon fill="#bfbfbf" stroke="black" points="0,-235.5 0,-263.5 120,-263.5 120,-235.5 0,-235.5"/>
<text text-anchor="start" x="8" y="-252.3" font-family="Helvetica,sans-Serif" font-size="9.00">prior_hessian::ParetoDist</text>
<text text-anchor="middle" x="60" y="-242.3" font-family="Helvetica,sans-Serif" font-size="9.00">::alpha</text>
</g>
<!-- Node2 -->
<g id="node2" class="node"><title>Node2</title>
<g id="a_node2"><a xlink:href="classprior__hessian_1_1ParetoDist.html#afe706cb12ce6f667e7a3a9eb7311ef65" target="_top" xlink:title="prior_hessian::ParetoDist::cdf">
<polygon fill="white" stroke="black" points="156,-304.5 156,-322.5 293,-322.5 293,-304.5 156,-304.5"/>
<text text-anchor="middle" x="224.5" y="-311.3" font-family="Helvetica,sans-Serif" font-size="9.00">prior_hessian::ParetoDist::cdf</text>
</a>
</g>
</g>
<!-- Node1&#45;&gt;Node2 -->
<g id="edge1" class="edge"><title>Node1&#45;&gt;Node2</title>
<path fill="none" stroke="midnightblue" d="M95.953,-268.403C113.606,-277.436 135.564,-287.907 156,-295.5 165.095,-298.88 175.097,-301.905 184.552,-304.467"/>
<polygon fill="midnightblue" stroke="midnightblue" points="97.1138,-265.062 86.626,-263.56 93.8878,-271.274 97.1138,-265.062"/>
</g>
<!-- Node5 -->
<g id="node5" class="node"><title>Node5</title>
<g id="a_node5"><a xlink:href="classprior__hessian_1_1ParetoDist.html#a74af41636088b6c727107c60dd9c81b2" target="_top" xlink:title="prior_hessian::ParetoDist\l::median">
<polygon fill="white" stroke="black" points="493.5,-487.5 493.5,-515.5 613.5,-515.5 613.5,-487.5 493.5,-487.5"/>
<text text-anchor="start" x="501.5" y="-504.3" font-family="Helvetica,sans-Serif" font-size="9.00">prior_hessian::ParetoDist</text>
<text text-anchor="middle" x="553.5" y="-494.3" font-family="Helvetica,sans-Serif" font-size="9.00">::median</text>
</a>
</g>
</g>
<!-- Node1&#45;&gt;Node5 -->
<g id="edge31" class="edge"><title>Node1&#45;&gt;Node5</title>
<path fill="none" stroke="midnightblue" d="M63.2082,-273.568C68.9689,-320.909 89.0245,-425.676 156,-473.5 256.387,-545.181 409.896,-530.412 493.399,-514.971"/>
<polygon fill="midnightblue" stroke="midnightblue" points="66.6845,-273.16 62.1069,-263.605 59.7269,-273.929 66.6845,-273.16"/>
</g>
<!-- Node6 -->
<g id="node6" class="node"><title>Node6</title>
<g id="a_node6"><a xlink:href="classprior__hessian_1_1ParetoDist.html#a0f7ee813a098cd3fc9c7669cda6a340c" target="_top" xlink:title="prior_hessian::ParetoDist::llh">
<polygon fill="white" stroke="black" points="486.5,-131.5 486.5,-149.5 620.5,-149.5 620.5,-131.5 486.5,-131.5"/>
<text text-anchor="middle" x="553.5" y="-138.3" font-family="Helvetica,sans-Serif" font-size="9.00">prior_hessian::ParetoDist::llh</text>
</a>
</g>
</g>
<!-- Node1&#45;&gt;Node6 -->
<g id="edge30" class="edge"><title>Node1&#45;&gt;Node6</title>
<path fill="none" stroke="midnightblue" d="M70.8475,-225.881C84.7957,-195.92 113.439,-145.611 156,-124.5 282.521,-61.7425 460.666,-109.755 526.625,-131.376"/>
<polygon fill="midnightblue" stroke="midnightblue" points="67.5716,-224.633 66.6818,-235.191 73.9611,-227.492 67.5716,-224.633"/>
</g>
<!-- Node8 -->
<g id="node8" class="node"><title>Node8</title>
<g id="a_node8"><a xlink:href="classprior__hessian_1_1ParetoDist.html#af5791e2cef16b34e1bbdeec24b13d22e" target="_top" xlink:title="prior_hessian::ParetoDist\l::params">
<polygon fill="white" stroke="black" points="493.5,-215.5 493.5,-243.5 613.5,-243.5 613.5,-215.5 493.5,-215.5"/>
<text text-anchor="start" x="501.5" y="-232.3" font-family="Helvetica,sans-Serif" font-size="9.00">prior_hessian::ParetoDist</text>
<text text-anchor="middle" x="553.5" y="-222.3" font-family="Helvetica,sans-Serif" font-size="9.00">::params</text>
</a>
</g>
</g>
<!-- Node1&#45;&gt;Node8 -->
<g id="edge35" class="edge"><title>Node1&#45;&gt;Node8</title>
<path fill="none" stroke="midnightblue" d="M130.292,-246.68C227.357,-242.731 402.129,-235.619 493.386,-231.905"/>
<polygon fill="midnightblue" stroke="midnightblue" points="130.136,-243.184 120.286,-247.088 130.42,-250.178 130.136,-243.184"/>
</g>
<!-- Node12 -->
<g id="node12" class="node"><title>Node12</title>
<g id="a_node12"><a xlink:href="classprior__hessian_1_1ParetoDist.html#a9d1040a7a5ca261feebe56f42e5698ea" target="_top" xlink:title="prior_hessian::ParetoDist\l::icdf">
<polygon fill="white" stroke="black" points="493.5,-168.5 493.5,-196.5 613.5,-196.5 613.5,-168.5 493.5,-168.5"/>
<text text-anchor="start" x="501.5" y="-185.3" font-family="Helvetica,sans-Serif" font-size="9.00">prior_hessian::ParetoDist</text>
<text text-anchor="middle" x="553.5" y="-175.3" font-family="Helvetica,sans-Serif" font-size="9.00">::icdf</text>
</a>
</g>
</g>
<!-- Node1&#45;&gt;Node12 -->
<g id="edge29" class="edge"><title>Node1&#45;&gt;Node12</title>
<path fill="none" stroke="midnightblue" d="M130.163,-239.197C138.859,-237.934 147.635,-236.675 156,-235.5 275.666,-218.685 415.834,-200.244 493.352,-190.154"/>
<polygon fill="midnightblue" stroke="midnightblue" points="129.411,-235.77 120.021,-240.677 130.421,-242.696 129.411,-235.77"/>
</g>
<!-- Node15 -->
<g id="node15" class="node"><title>Node15</title>
<g id="a_node15"><a xlink:href="classprior__hessian_1_1ParetoDist.html#a3f802550dfcad6f0e3a8ca2e93709fe9" target="_top" xlink:title="prior_hessian::ParetoDist\l::grad">
<polygon fill="white" stroke="black" points="164.5,-257.5 164.5,-285.5 284.5,-285.5 284.5,-257.5 164.5,-257.5"/>
<text text-anchor="start" x="172.5" y="-274.3" font-family="Helvetica,sans-Serif" font-size="9.00">prior_hessian::ParetoDist</text>
<text text-anchor="middle" x="224.5" y="-264.3" font-family="Helvetica,sans-Serif" font-size="9.00">::grad</text>
</a>
</g>
</g>
<!-- Node1&#45;&gt;Node15 -->
<g id="edge23" class="edge"><title>Node1&#45;&gt;Node15</title>
<path fill="none" stroke="midnightblue" d="M130.065,-258.85C141.498,-260.398 153.26,-261.991 164.418,-263.501"/>
<polygon fill="midnightblue" stroke="midnightblue" points="130.505,-255.378 120.126,-257.505 129.566,-262.315 130.505,-255.378"/>
</g>
<!-- Node16 -->
<g id="node16" class="node"><title>Node16</title>
<g id="a_node16"><a xlink:href="classprior__hessian_1_1ParetoDist.html#a24a4aaa7a8edb42009d0fa8390cb4a8f" target="_top" xlink:title="prior_hessian::ParetoDist\l::grad2">
<polygon fill="white" stroke="black" points="164.5,-435.5 164.5,-463.5 284.5,-463.5 284.5,-435.5 164.5,-435.5"/>
<text text-anchor="start" x="172.5" y="-452.3" font-family="Helvetica,sans-Serif" font-size="9.00">prior_hessian::ParetoDist</text>
<text text-anchor="middle" x="224.5" y="-442.3" font-family="Helvetica,sans-Serif" font-size="9.00">::grad2</text>
</a>
</g>
</g>
<!-- Node1&#45;&gt;Node16 -->
<g id="edge25" class="edge"><title>Node1&#45;&gt;Node16</title>
<path fill="none" stroke="midnightblue" d="M67.5808,-273.384C79.1996,-311.206 106.886,-384.854 156,-426.5 160.06,-429.943 164.661,-432.878 169.506,-435.379"/>
<polygon fill="midnightblue" stroke="midnightblue" points="70.9162,-272.32 64.7254,-263.722 64.2033,-274.304 70.9162,-272.32"/>
</g>
<!-- Node17 -->
<g id="node17" class="node"><title>Node17</title>
<g id="a_node17"><a xlink:href="classprior__hessian_1_1ParetoDist.html#a20c3f90ec9ac4b5bfd179a7c97ab36e7" target="_top" xlink:title="prior_hessian::ParetoDist\l::grad_grad2_accumulate">
<polygon fill="white" stroke="black" points="163.5,-388.5 163.5,-416.5 285.5,-416.5 285.5,-388.5 163.5,-388.5"/>
<text text-anchor="start" x="171.5" y="-405.3" font-family="Helvetica,sans-Serif" font-size="9.00">prior_hessian::ParetoDist</text>
<text text-anchor="middle" x="224.5" y="-395.3" font-family="Helvetica,sans-Serif" font-size="9.00">::grad_grad2_accumulate</text>
</a>
</g>
</g>
<!-- Node1&#45;&gt;Node17 -->
<g id="edge27" class="edge"><title>Node1&#45;&gt;Node17</title>
<path fill="none" stroke="midnightblue" d="M72.3288,-272.852C87.524,-301.839 117.153,-350.934 156,-379.5 160.688,-382.947 165.929,-385.904 171.364,-388.434"/>
<polygon fill="midnightblue" stroke="midnightblue" points="75.3989,-271.168 67.7365,-263.851 69.1635,-274.349 75.3989,-271.168"/>
</g>
<!-- Node18 -->
<g id="node18" class="node"><title>Node18</title>
<g id="a_node18"><a xlink:href="classprior__hessian_1_1ParetoDist.html#a941f8b98fe55483d7823aa33863ee050" target="_top" xlink:title="prior_hessian::ParetoDist\l::operator==">
<polygon fill="white" stroke="black" points="164.5,-47.5 164.5,-75.5 284.5,-75.5 284.5,-47.5 164.5,-47.5"/>
<text text-anchor="start" x="172.5" y="-64.3" font-family="Helvetica,sans-Serif" font-size="9.00">prior_hessian::ParetoDist</text>
<text text-anchor="middle" x="224.5" y="-54.3" font-family="Helvetica,sans-Serif" font-size="9.00">::operator==</text>
</a>
</g>
</g>
<!-- Node1&#45;&gt;Node18 -->
<g id="edge32" class="edge"><title>Node1&#45;&gt;Node18</title>
<path fill="none" stroke="midnightblue" d="M69.7589,-225.539C83.3569,-191.348 112.583,-128.503 156,-90.5 162.91,-84.4516 171.273,-79.5114 179.724,-75.5346"/>
<polygon fill="midnightblue" stroke="midnightblue" points="66.3769,-224.582 66.0421,-235.171 72.9076,-227.102 66.3769,-224.582"/>
</g>
<!-- Node20 -->
<g id="node20" class="node"><title>Node20</title>
<g id="a_node20"><a xlink:href="classprior__hessian_1_1ParetoDist.html#a1ba58cb0d518475ce29eb619f82f7575" target="_top" xlink:title="prior_hessian::ParetoDist\l::param_ubound">
<polygon fill="white" stroke="black" points="164.5,-0.5 164.5,-28.5 284.5,-28.5 284.5,-0.5 164.5,-0.5"/>
<text text-anchor="start" x="172.5" y="-17.3" font-family="Helvetica,sans-Serif" font-size="9.00">prior_hessian::ParetoDist</text>
<text text-anchor="middle" x="224.5" y="-7.3" font-family="Helvetica,sans-Serif" font-size="9.00">::param_ubound</text>
</a>
</g>
</g>
<!-- Node1&#45;&gt;Node20 -->
<g id="edge34" class="edge"><title>Node1&#45;&gt;Node20</title>
<path fill="none" stroke="midnightblue" d="M65.2748,-225.355C74.2469,-181.692 99.1098,-89.3371 156,-37.5 159.844,-33.9979 164.243,-31.0258 168.912,-28.5041"/>
<polygon fill="midnightblue" stroke="midnightblue" points="61.8041,-224.868 63.3264,-235.353 68.6748,-226.207 61.8041,-224.868"/>
</g>
<!-- Node21 -->
<g id="node21" class="node"><title>Node21</title>
<g id="a_node21"><a xlink:href="classprior__hessian_1_1ParetoDist.html#a609ed75305325062ebd80dcfaa487c69" target="_top" xlink:title="prior_hessian::ParetoDist\l::rllh">
<polygon fill="white" stroke="black" points="164.5,-133.5 164.5,-161.5 284.5,-161.5 284.5,-133.5 164.5,-133.5"/>
<text text-anchor="start" x="172.5" y="-150.3" font-family="Helvetica,sans-Serif" font-size="9.00">prior_hessian::ParetoDist</text>
<text text-anchor="middle" x="224.5" y="-140.3" font-family="Helvetica,sans-Serif" font-size="9.00">::rllh</text>
</a>
</g>
</g>
<!-- Node1&#45;&gt;Node21 -->
<g id="edge36" class="edge"><title>Node1&#45;&gt;Node21</title>
<path fill="none" stroke="midnightblue" d="M84.5731,-228.706C103.111,-213.035 130.057,-191.718 156,-176.5 165.461,-170.95 176.183,-165.856 186.252,-161.539"/>
<polygon fill="midnightblue" stroke="midnightblue" points="82.2454,-226.091 76.926,-235.254 86.7983,-231.408 82.2454,-226.091"/>
</g>
<!-- Node22 -->
<g id="node22" class="node"><title>Node22</title>
<g id="a_node22"><a xlink:href="classprior__hessian_1_1ParetoDist.html#abc9e60af487bda1a9ec5f7e55e38682c" target="_top" xlink:title="prior_hessian::ParetoDist\l::set_params_iter">
<polygon fill="white" stroke="black" points="164.5,-341.5 164.5,-369.5 284.5,-369.5 284.5,-341.5 164.5,-341.5"/>
<text text-anchor="start" x="172.5" y="-358.3" font-family="Helvetica,sans-Serif" font-size="9.00">prior_hessian::ParetoDist</text>
<text text-anchor="middle" x="224.5" y="-348.3" font-family="Helvetica,sans-Serif" font-size="9.00">::set_params_iter</text>
</a>
</g>
</g>
<!-- Node1&#45;&gt;Node22 -->
<g id="edge39" class="edge"><title>Node1&#45;&gt;Node22</title>
<path fill="none" stroke="midnightblue" d="M80.9311,-271.138C98.9874,-289.638 127.117,-315.838 156,-332.5 161.791,-335.841 168.142,-338.795 174.56,-341.378"/>
<polygon fill="midnightblue" stroke="midnightblue" points="83.2814,-268.531 73.8366,-263.731 78.2262,-273.374 83.2814,-268.531"/>
</g>
<!-- Node3 -->
<g id="node3" class="node"><title>Node3</title>
<g id="a_node3"><a xlink:href="classprior__hessian_1_1ParetoDist.html#ad117226a3ad1eee827886fc7ba38acbf" target="_top" xlink:title="prior_hessian::ParetoDist\l::lbound">
<polygon fill="white" stroke="black" points="329,-299.5 329,-327.5 449,-327.5 449,-299.5 329,-299.5"/>
<text text-anchor="start" x="337" y="-316.3" font-family="Helvetica,sans-Serif" font-size="9.00">prior_hessian::ParetoDist</text>
<text text-anchor="middle" x="389" y="-306.3" font-family="Helvetica,sans-Serif" font-size="9.00">::lbound</text>
</a>
</g>
</g>
<!-- Node2&#45;&gt;Node3 -->
<g id="edge2" class="edge"><title>Node2&#45;&gt;Node3</title>
<path fill="none" stroke="midnightblue" d="M303.156,-306.756C311.846,-306.727 320.592,-306.802 328.994,-306.98"/>
<polygon fill="midnightblue" stroke="midnightblue" points="302.975,-303.257 293.003,-306.837 303.03,-310.257 302.975,-303.257"/>
</g>
<!-- Node3&#45;&gt;Node2 -->
<g id="edge16" class="edge"><title>Node3&#45;&gt;Node2</title>
<path fill="none" stroke="midnightblue" d="M318.716,-320.185C310.196,-320.278 301.496,-320.271 293.003,-320.163"/>
<polygon fill="midnightblue" stroke="midnightblue" points="319.051,-323.68 328.994,-320.02 318.939,-316.681 319.051,-323.68"/>
</g>
<!-- Node4 -->
<g id="node4" class="node"><title>Node4</title>
<g id="a_node4"><a xlink:href="classprior__hessian_1_1ParetoDist.html#a0a1e20b0aa6c7b52c134fc2341b5fdd4" target="_top" xlink:title="prior_hessian::ParetoDist\l::mean">
<polygon fill="white" stroke="black" points="493.5,-393.5 493.5,-421.5 613.5,-421.5 613.5,-393.5 493.5,-393.5"/>
<text text-anchor="start" x="501.5" y="-410.3" font-family="Helvetica,sans-Serif" font-size="9.00">prior_hessian::ParetoDist</text>
<text text-anchor="middle" x="553.5" y="-400.3" font-family="Helvetica,sans-Serif" font-size="9.00">::mean</text>
</a>
</g>
</g>
<!-- Node3&#45;&gt;Node4 -->
<g id="edge3" class="edge"><title>Node3&#45;&gt;Node4</title>
<path fill="none" stroke="midnightblue" d="M422.558,-333.83C440.149,-347.104 462.772,-363.783 485,-375.5 498.799,-382.774 515.367,-388.459 528.635,-393.431"/>
<polygon fill="midnightblue" stroke="midnightblue" points="424.438,-330.864 414.351,-327.624 420.216,-336.447 424.438,-330.864"/>
</g>
<!-- Node3&#45;&gt;Node5 -->
<g id="edge5" class="edge"><title>Node3&#45;&gt;Node5</title>
<path fill="none" stroke="midnightblue" d="M399.961,-337.629C413.535,-371.831 441.277,-433.532 485,-469.5 495.23,-477.916 508.701,-483.315 520.916,-487.405"/>
<polygon fill="midnightblue" stroke="midnightblue" points="403.086,-336.009 396.201,-327.956 396.562,-338.545 403.086,-336.009"/>
</g>
<!-- Node3&#45;&gt;Node6 -->
<g id="edge7" class="edge"><title>Node3&#45;&gt;Node6</title>
<path fill="none" stroke="midnightblue" d="M396.315,-289.524C408.311,-253.375 437.521,-186.312 485,-150.5 485.486,-150.133 485.979,-149.774 486.478,-149.422"/>
<polygon fill="midnightblue" stroke="midnightblue" points="392.913,-288.676 393.265,-299.265 399.593,-290.768 392.913,-288.676"/>
</g>
<!-- Node7 -->
<g id="node7" class="node"><title>Node7</title>
<g id="a_node7"><a xlink:href="classprior__hessian_1_1ParetoDist.html#ae3776388549cf35e9fea96963624cf6e" target="_top" xlink:title="prior_hessian::ParetoDist\l::in_bounds">
<polygon fill="white" stroke="black" points="493.5,-346.5 493.5,-374.5 613.5,-374.5 613.5,-346.5 493.5,-346.5"/>
<text text-anchor="start" x="501.5" y="-363.3" font-family="Helvetica,sans-Serif" font-size="9.00">prior_hessian::ParetoDist</text>
<text text-anchor="middle" x="553.5" y="-353.3" font-family="Helvetica,sans-Serif" font-size="9.00">::in_bounds</text>
</a>
</g>
</g>
<!-- Node3&#45;&gt;Node7 -->
<g id="edge9" class="edge"><title>Node3&#45;&gt;Node7</title>
<path fill="none" stroke="midnightblue" d="M448.408,-330.393C466.655,-335.671 486.575,-341.433 504.059,-346.489"/>
<polygon fill="midnightblue" stroke="midnightblue" points="449.334,-327.018 438.755,-327.602 447.389,-333.742 449.334,-327.018"/>
</g>
<!-- Node3&#45;&gt;Node8 -->
<g id="edge10" class="edge"><title>Node3&#45;&gt;Node8</title>
<path fill="none" stroke="midnightblue" d="M408.981,-292.844C427.654,-277.629 457.31,-257.96 485,-244.5 487.685,-243.195 490.459,-241.924 493.283,-240.699"/>
<polygon fill="midnightblue" stroke="midnightblue" points="406.544,-290.323 401.221,-299.483 411.095,-295.642 406.544,-290.323"/>
</g>
<!-- Node10 -->
<g id="node10" class="node"><title>Node10</title>
<g id="a_node10"><a xlink:href="classprior__hessian_1_1ParetoDist.html#adc9bafea285be38186ec4ad161850b56" target="_top" xlink:title="prior_hessian::ParetoDist\l::get_param">
<polygon fill="white" stroke="black" points="493.5,-299.5 493.5,-327.5 613.5,-327.5 613.5,-299.5 493.5,-299.5"/>
<text text-anchor="start" x="501.5" y="-316.3" font-family="Helvetica,sans-Serif" font-size="9.00">prior_hessian::ParetoDist</text>
<text text-anchor="middle" x="553.5" y="-306.3" font-family="Helvetica,sans-Serif" font-size="9.00">::get_param</text>
</a>
</g>
</g>
<!-- Node3&#45;&gt;Node10 -->
<g id="edge14" class="edge"><title>Node3&#45;&gt;Node10</title>
<path fill="none" stroke="midnightblue" d="M459.411,-313.5C470.735,-313.5 482.373,-313.5 493.418,-313.5"/>
<polygon fill="midnightblue" stroke="midnightblue" points="459.126,-310 449.126,-313.5 459.126,-317 459.126,-310"/>
</g>
<!-- Node3&#45;&gt;Node12 -->
<g id="edge17" class="edge"><title>Node3&#45;&gt;Node12</title>
<path fill="none" stroke="midnightblue" d="M401.078,-290.321C417.001,-263.931 448.493,-222.111 485,-197.5 487.681,-195.692 490.514,-194.004 493.44,-192.44"/>
<polygon fill="midnightblue" stroke="midnightblue" points="397.876,-288.87 395.936,-299.286 403.947,-292.353 397.876,-288.87"/>
</g>
<!-- Node13 -->
<g id="node13" class="node"><title>Node13</title>
<g id="a_node13"><a xlink:href="classprior__hessian_1_1ParetoDist.html#a07cc43c2b299fc07660684f34f32d4ee" target="_top" xlink:title="prior_hessian::ParetoDist::pdf">
<polygon fill="white" stroke="black" points="485,-262.5 485,-280.5 622,-280.5 622,-262.5 485,-262.5"/>
<text text-anchor="middle" x="553.5" y="-269.3" font-family="Helvetica,sans-Serif" font-size="9.00">prior_hessian::ParetoDist::pdf</text>
</a>
</g>
</g>
<!-- Node3&#45;&gt;Node13 -->
<g id="edge19" class="edge"><title>Node3&#45;&gt;Node13</title>
<path fill="none" stroke="midnightblue" d="M432.598,-296.471C450.764,-291.033 472.291,-285.293 492.056,-280.573"/>
<polygon fill="midnightblue" stroke="midnightblue" points="431.417,-293.172 422.884,-299.452 433.471,-299.864 431.417,-293.172"/>
</g>
<!-- Node14 -->
<g id="node14" class="node"><title>Node14</title>
<g id="a_node14"><a xlink:href="classprior__hessian_1_1ParetoDist.html#abe706f0786b5e8ef20b7caff07ffad0c" target="_top" xlink:title="prior_hessian::ParetoDist\l::sample">
<polygon fill="white" stroke="black" points="493.5,-440.5 493.5,-468.5 613.5,-468.5 613.5,-440.5 493.5,-440.5"/>
<text text-anchor="start" x="501.5" y="-457.3" font-family="Helvetica,sans-Serif" font-size="9.00">prior_hessian::ParetoDist</text>
<text text-anchor="middle" x="553.5" y="-447.3" font-family="Helvetica,sans-Serif" font-size="9.00">::sample</text>
</a>
</g>
</g>
<!-- Node3&#45;&gt;Node14 -->
<g id="edge21" class="edge"><title>Node3&#45;&gt;Node14</title>
<path fill="none" stroke="midnightblue" d="M407.108,-336.206C423.832,-360.812 451.609,-399.129 485,-422.5 496.664,-430.664 511.47,-436.135 524.241,-440.5"/>
<polygon fill="midnightblue" stroke="midnightblue" points="409.946,-334.153 401.457,-327.813 404.14,-338.063 409.946,-334.153"/>
</g>
<!-- Node4&#45;&gt;Node3 -->
<g id="edge4" class="edge"><title>Node4&#45;&gt;Node3</title>
<path fill="none" stroke="midnightblue" d="M484.633,-392.868C446.11,-371.438 414.796,-344.66 399.561,-327.772"/>
<polygon fill="midnightblue" stroke="midnightblue" points="483.028,-395.979 493.493,-397.632 486.343,-389.814 483.028,-395.979"/>
</g>
<!-- Node5&#45;&gt;Node3 -->
<g id="edge6" class="edge"><title>Node5&#45;&gt;Node3</title>
<path fill="none" stroke="midnightblue" d="M485.486,-487.896C485.323,-487.765 485.161,-487.633 485,-487.5 431.649,-443.611 402.091,-361.409 393.036,-327.807"/>
<polygon fill="midnightblue" stroke="midnightblue" points="483.077,-490.485 493.291,-493.301 487.063,-484.73 483.077,-490.485"/>
</g>
<!-- Node6&#45;&gt;Node3 -->
<g id="edge8" class="edge"><title>Node6&#45;&gt;Node3</title>
<path fill="none" stroke="midnightblue" d="M523.336,-152.077C510.582,-155.492 496.044,-160.17 485,-168.5 438.101,-203.874 409.028,-269.741 396.763,-299.169"/>
<polygon fill="midnightblue" stroke="midnightblue" points="524.273,-155.45 533.082,-149.564 522.525,-148.672 524.273,-155.45"/>
</g>
<!-- Node8&#45;&gt;Node3 -->
<g id="edge13" class="edge"><title>Node8&#45;&gt;Node3</title>
<path fill="none" stroke="midnightblue" d="M521.641,-247.264C509.931,-251.833 496.623,-256.85 485,-262.5 462.719,-273.331 439.164,-288.182 421.084,-299.3"/>
<polygon fill="midnightblue" stroke="midnightblue" points="523.033,-250.477 531.03,-243.527 520.444,-243.973 523.033,-250.477"/>
</g>
<!-- Node9 -->
<g id="node9" class="node"><title>Node9</title>
<g id="a_node9"><a xlink:href="classprior__hessian_1_1ParetoDist.html#ad90392cbacf44f0760b46e80a2676a08" target="_top" xlink:title="prior_hessian::ParetoDist\l::check_params">
<polygon fill="white" stroke="black" points="658,-215.5 658,-243.5 778,-243.5 778,-215.5 658,-215.5"/>
<text text-anchor="start" x="666" y="-232.3" font-family="Helvetica,sans-Serif" font-size="9.00">prior_hessian::ParetoDist</text>
<text text-anchor="middle" x="718" y="-222.3" font-family="Helvetica,sans-Serif" font-size="9.00">::check_params</text>
</a>
</g>
</g>
<!-- Node8&#45;&gt;Node9 -->
<g id="edge11" class="edge"><title>Node8&#45;&gt;Node9</title>
<path fill="none" stroke="midnightblue" d="M623.911,-229.5C635.235,-229.5 646.873,-229.5 657.918,-229.5"/>
<polygon fill="midnightblue" stroke="midnightblue" points="623.626,-226 613.626,-229.5 623.626,-233 623.626,-226"/>
</g>
<!-- Node9&#45;&gt;Node9 -->
<g id="edge12" class="edge"><title>Node9&#45;&gt;Node9</title>
<path fill="none" stroke="midnightblue" d="M688.354,-253.487C691.502,-258.441 701.384,-262 718,-262 744.586,-262 753.933,-252.89 746.04,-243.53"/>
<polygon fill="midnightblue" stroke="midnightblue" points="691.823,-253.96 689.96,-243.53 684.912,-252.845 691.823,-253.96"/>
</g>
<!-- Node11 -->
<g id="node11" class="node"><title>Node11</title>
<g id="a_node11"><a xlink:href="classprior__hessian_1_1ParetoDist.html#a572ad9f28d83da610e1b81c88876563a" target="_top" xlink:title="prior_hessian::ParetoDist\l::ParetoDist">
<polygon fill="white" stroke="black" points="658,-299.5 658,-327.5 778,-327.5 778,-299.5 658,-299.5"/>
<text text-anchor="start" x="666" y="-316.3" font-family="Helvetica,sans-Serif" font-size="9.00">prior_hessian::ParetoDist</text>
<text text-anchor="middle" x="718" y="-306.3" font-family="Helvetica,sans-Serif" font-size="9.00">::ParetoDist</text>
</a>
</g>
</g>
<!-- Node10&#45;&gt;Node11 -->
<g id="edge15" class="edge"><title>Node10&#45;&gt;Node11</title>
<path fill="none" stroke="midnightblue" d="M623.911,-313.5C635.235,-313.5 646.873,-313.5 657.918,-313.5"/>
<polygon fill="midnightblue" stroke="midnightblue" points="623.626,-310 613.626,-313.5 623.626,-317 623.626,-310"/>
</g>
<!-- Node12&#45;&gt;Node3 -->
<g id="edge18" class="edge"><title>Node12&#45;&gt;Node3</title>
<path fill="none" stroke="midnightblue" d="M516.792,-200.051C506.032,-204.137 494.554,-209.059 485,-215.5 450.19,-238.968 419.938,-278.082 403.397,-299.368"/>
<polygon fill="midnightblue" stroke="midnightblue" points="518.22,-203.255 526.395,-196.515 515.801,-196.686 518.22,-203.255"/>
</g>
<!-- Node13&#45;&gt;Node3 -->
<g id="edge20" class="edge"><title>Node13&#45;&gt;Node3</title>
<path fill="none" stroke="midnightblue" d="M524.968,-283.831C504.238,-290.606 475.055,-298.585 449.126,-304.741"/>
<polygon fill="midnightblue" stroke="midnightblue" points="526.359,-287.054 534.695,-280.514 524.1,-280.429 526.359,-287.054"/>
</g>
<!-- Node14&#45;&gt;Node3 -->
<g id="edge22" class="edge"><title>Node14&#45;&gt;Node3</title>
<path fill="none" stroke="midnightblue" d="M484.986,-439.611C437.823,-404.014 406.811,-352.722 395.088,-327.548"/>
<polygon fill="midnightblue" stroke="midnightblue" points="483.173,-442.619 493.333,-445.624 487.265,-436.939 483.173,-442.619"/>
</g>
<!-- Node15&#45;&gt;Node3 -->
<g id="edge24" class="edge"><title>Node15&#45;&gt;Node3</title>
<path fill="none" stroke="midnightblue" d="M289.927,-288.152C304.383,-291.888 319.581,-295.816 333.582,-299.435"/>
<polygon fill="midnightblue" stroke="midnightblue" points="290.62,-284.716 280.062,-285.602 288.868,-291.493 290.62,-284.716"/>
</g>
<!-- Node16&#45;&gt;Node3 -->
<g id="edge26" class="edge"><title>Node16&#45;&gt;Node3</title>
<path fill="none" stroke="midnightblue" d="M285.888,-430.873C288.349,-429.508 290.731,-428.052 293,-426.5 332.555,-399.435 365.013,-351.615 379.637,-327.804"/>
<polygon fill="midnightblue" stroke="midnightblue" points="284.112,-427.847 276.708,-435.425 287.222,-434.119 284.112,-427.847"/>
</g>
<!-- Node17&#45;&gt;Node3 -->
<g id="edge28" class="edge"><title>Node17&#45;&gt;Node3</title>
<path fill="none" stroke="midnightblue" d="M281.884,-384.631C285.696,-383.014 289.435,-381.301 293,-379.5 322.039,-364.83 352.368,-342.297 370.726,-327.727"/>
<polygon fill="midnightblue" stroke="midnightblue" points="280.303,-381.494 272.314,-388.453 282.899,-387.995 280.303,-381.494"/>
</g>
<!-- Node19 -->
<g id="node19" class="node"><title>Node19</title>
<g id="a_node19"><a xlink:href="classprior__hessian_1_1ParetoDist.html#ae862cdfd4b588e2f97fcbaccc0decb08" target="_top" xlink:title="prior_hessian::ParetoDist\l::operator!=">
<polygon fill="white" stroke="black" points="329,-47.5 329,-75.5 449,-75.5 449,-47.5 329,-47.5"/>
<text text-anchor="start" x="337" y="-64.3" font-family="Helvetica,sans-Serif" font-size="9.00">prior_hessian::ParetoDist</text>
<text text-anchor="middle" x="389" y="-54.3" font-family="Helvetica,sans-Serif" font-size="9.00">::operator!=</text>
</a>
</g>
</g>
<!-- Node18&#45;&gt;Node19 -->
<g id="edge33" class="edge"><title>Node18&#45;&gt;Node19</title>
<path fill="none" stroke="midnightblue" d="M294.911,-61.5C306.235,-61.5 317.873,-61.5 328.918,-61.5"/>
<polygon fill="midnightblue" stroke="midnightblue" points="294.626,-58.0001 284.626,-61.5 294.626,-65.0001 294.626,-58.0001"/>
</g>
<!-- Node21&#45;&gt;Node3 -->
<g id="edge38" class="edge"><title>Node21&#45;&gt;Node3</title>
<path fill="none" stroke="midnightblue" d="M246.435,-168.886C280.174,-203.351 345.669,-270.257 374.18,-299.383"/>
<polygon fill="midnightblue" stroke="midnightblue" points="248.851,-166.351 239.355,-161.653 243.849,-171.247 248.851,-166.351"/>
</g>
<!-- Node21&#45;&gt;Node6 -->
<g id="edge37" class="edge"><title>Node21&#45;&gt;Node6</title>
<path fill="none" stroke="midnightblue" d="M295,-146.012C351.546,-144.802 430.81,-143.105 486.414,-141.915"/>
<polygon fill="midnightblue" stroke="midnightblue" points="294.64,-142.519 284.717,-146.232 294.79,-149.517 294.64,-142.519"/>
</g>
<!-- Node22&#45;&gt;Node3 -->
<g id="edge40" class="edge"><title>Node22&#45;&gt;Node3</title>
<path fill="none" stroke="midnightblue" d="M289.927,-338.848C304.383,-335.112 319.581,-331.184 333.582,-327.565"/>
<polygon fill="midnightblue" stroke="midnightblue" points="288.868,-335.507 280.062,-341.398 290.62,-342.284 288.868,-335.507"/>
</g>
</g>
</svg>
