<?xml version="1.0" encoding="UTF-8" standalone="no"?>
<!DOCTYPE svg PUBLIC "-//W3C//DTD SVG 1.1//EN"
 "http://www.w3.org/Graphics/SVG/1.1/DTD/svg11.dtd">
<!-- Generated by graphviz version 2.38.0 (20140413.2041)
 -->
<!-- Title: prior_hessian::UpperTruncatedDist::operator!= Pages: 1 -->
<!--zoomable 198 -->
<svg id="main" version="1.1" xmlns="http://www.w3.org/2000/svg" xmlns:xlink="http://www.w3.org/1999/xlink" xml:space="preserve" onload="init(evt)">
<style type="text/css"><![CDATA[
.edge:hover path { stroke: red; }
.edge:hover polygon { stroke: red; fill: red; }
]]></style>
<script type="text/javascript"><![CDATA[
var edges = document.getElementsByTagName('g');
if (edges && edges.length) {
  for (var i=0;i<edges.length;i++) {
    if (edges[i].id.substr(0,4)=='edge') {
      edges[i].setAttribute('class','edge');
    }
  }
}
]]></script>
        <defs>
                <circle id="rim" cx="0" cy="0" r="7"/>
                <circle id="rim2" cx="0" cy="0" r="3.5"/>
                <g id="zoomPlus">
                        <use xlink:href="#rim" fill="#404040">
                                <set attributeName="fill" to="#808080" begin="zoomplus.mouseover" end="zoomplus.mouseout"/>
                        </use>
                        <path d="M-4,0h8M0,-4v8" fill="none" stroke="white" stroke-width="1.5" pointer-events="none"/>
                </g>
                <g id="zoomMin">
                        <use xlink:href="#rim" fill="#404040">
                                <set attributeName="fill" to="#808080" begin="zoomminus.mouseover" end="zoomminus.mouseout"/>
                        </use>
                        <path d="M-4,0h8" fill="none" stroke="white" stroke-width="1.5" pointer-events="none"/>
                </g>
                <g id="dirArrow">
                        <path fill="none" stroke="white" stroke-width="1.5" d="M0,-3.0v7 M-2.5,-0.5L0,-3.0L2.5,-0.5"/>
                </g>
               <g id="resetDef">
                       <use xlink:href="#rim2" fill="#404040">
                               <set attributeName="fill" to="#808080" begin="reset.mouseover" end="reset.mouseout"/>
                       </use>
               </g>
        </defs>

<script type="text/javascript">
var viewWidth = 692;
var viewHeight = 198;
var sectionId = 'dynsection-10';
</script>
<script xlink:href="svgpan.js"/>
<svg id="graph" class="graph">
<g id="viewport">
<title>prior_hessian::UpperTruncatedDist::operator!=</title>
<polygon fill="white" stroke="none" points="-4,4 -4,-194.028 688,-194.028 688,4 -4,4"/>
<!-- Node1 -->
<g id="node1" class="node"><title>Node1</title>
<polygon fill="#bfbfbf" stroke="black" points="0,-67.5276 0,-95.5276 144,-95.5276 144,-67.5276 0,-67.5276"/>
<text text-anchor="start" x="8" y="-84.3276" font-family="Helvetica,sans-Serif" font-size="9.00">prior_hessian::UpperTruncated</text>
<text text-anchor="middle" x="72" y="-74.3276" font-family="Helvetica,sans-Serif" font-size="9.00">Dist::operator!=</text>
</g>
<!-- Node2 -->
<g id="node2" class="node"><title>Node2</title>
<g id="a_node2"><a xlink:href="classprior__hessian_1_1UpperTruncatedDist.html#af7722f606ae90120e6fdbbd8418170c1" target="_top" xlink:title="prior_hessian::UpperTruncated\lDist::operator==">
<polygon fill="white" stroke="black" points="180,-161.528 180,-189.528 324,-189.528 324,-161.528 180,-161.528"/>
<text text-anchor="start" x="188" y="-178.328" font-family="Helvetica,sans-Serif" font-size="9.00">prior_hessian::UpperTruncated</text>
<text text-anchor="middle" x="252" y="-168.328" font-family="Helvetica,sans-Serif" font-size="9.00">Dist::operator==</text>
</a>
</g>
</g>
<!-- Node1&#45;&gt;Node2 -->
<g id="edge1" class="edge"><title>Node1&#45;&gt;Node2</title>
<path fill="none" stroke="midnightblue" d="M91.017,-95.7202C111.574,-111.366 146.669,-136.445 180,-152.528 183.807,-154.365 187.797,-156.107 191.861,-157.749"/>
<polygon fill="midnightblue" stroke="midnightblue" points="190.838,-161.104 201.429,-161.395 193.331,-154.563 190.838,-161.104"/>
</g>
<!-- Node3 -->
<g id="node3" class="node"><title>Node3</title>
<g id="a_node3"><a xlink:href="classprior__hessian_1_1UpperTruncatedDist.html#a91569d20bfec0bd4b5404e0aef0b89df" target="_top" xlink:title="prior_hessian::UpperTruncated\lDist::set_bounds">
<polygon fill="white" stroke="black" points="180,-67.5276 180,-95.5276 324,-95.5276 324,-67.5276 180,-67.5276"/>
<text text-anchor="start" x="188" y="-84.3276" font-family="Helvetica,sans-Serif" font-size="9.00">prior_hessian::UpperTruncated</text>
<text text-anchor="middle" x="252" y="-74.3276" font-family="Helvetica,sans-Serif" font-size="9.00">Dist::set_bounds</text>
</a>
</g>
</g>
<!-- Node1&#45;&gt;Node3 -->
<g id="edge2" class="edge"><title>Node1&#45;&gt;Node3</title>
<path fill="none" stroke="midnightblue" d="M144.118,-81.5276C152.609,-81.5276 161.327,-81.5276 169.944,-81.5276"/>
<polygon fill="midnightblue" stroke="midnightblue" points="169.995,-85.0277 179.995,-81.5276 169.995,-78.0277 169.995,-85.0277"/>
</g>
<!-- Node5 -->
<g id="node5" class="node"><title>Node5</title>
<g id="a_node5"><a xlink:href="classprior__hessian_1_1UpperTruncatedDist.html#a047a08465860a8f2aea2af28760df905" target="_top" xlink:title="prior_hessian::UpperTruncated\lDist::ubound">
<polygon fill="white" stroke="black" points="540,-45.5276 540,-73.5276 684,-73.5276 684,-45.5276 540,-45.5276"/>
<text text-anchor="start" x="548" y="-62.3276" font-family="Helvetica,sans-Serif" font-size="9.00">prior_hessian::UpperTruncated</text>
<text text-anchor="middle" x="612" y="-52.3276" font-family="Helvetica,sans-Serif" font-size="9.00">Dist::ubound</text>
</a>
</g>
</g>
<!-- Node1&#45;&gt;Node5 -->
<g id="edge11" class="edge"><title>Node1&#45;&gt;Node5</title>
<path fill="none" stroke="midnightblue" d="M103.262,-67.4287C124.347,-58.1615 153.358,-46.5016 180,-39.5276 319.72,-2.95303 362.424,14.0317 504,-14.5276 529.239,-19.619 555.938,-30.8371 576.352,-40.7983"/>
<polygon fill="midnightblue" stroke="midnightblue" points="575.039,-44.0553 585.547,-45.4071 578.176,-37.7973 575.039,-44.0553"/>
</g>
<!-- Node6 -->
<g id="node6" class="node"><title>Node6</title>
<g id="a_node6"><a xlink:href="classprior__hessian_1_1UpperTruncatedDist.html#a9b3ea4f5bd030d14315d65682b01b9c4" target="_top" xlink:title="prior_hessian::UpperTruncated\lDist::set_lbound">
<polygon fill="white" stroke="black" points="360,-24.5276 360,-52.5276 504,-52.5276 504,-24.5276 360,-24.5276"/>
<text text-anchor="start" x="368" y="-41.3276" font-family="Helvetica,sans-Serif" font-size="9.00">prior_hessian::UpperTruncated</text>
<text text-anchor="middle" x="432" y="-31.3276" font-family="Helvetica,sans-Serif" font-size="9.00">Dist::set_lbound</text>
</a>
</g>
</g>
<!-- Node1&#45;&gt;Node6 -->
<g id="edge7" class="edge"><title>Node1&#45;&gt;Node6</title>
<path fill="none" stroke="midnightblue" d="M128.524,-67.4675C145,-63.7315 163.148,-60.0419 180,-57.5276 236.292,-49.1293 300.27,-44.3586 349.545,-41.6981"/>
<polygon fill="midnightblue" stroke="midnightblue" points="350.024,-45.178 359.829,-41.1619 349.66,-38.1875 350.024,-45.178"/>
</g>
<!-- Node7 -->
<g id="node7" class="node"><title>Node7</title>
<g id="a_node7"><a xlink:href="classprior__hessian_1_1UpperTruncatedDist.html#aef464872d67d72ef3b7036899a5e84ba" target="_top" xlink:title="prior_hessian::UpperTruncated\lDist::set_ubound">
<polygon fill="white" stroke="black" points="180,-114.528 180,-142.528 324,-142.528 324,-114.528 180,-114.528"/>
<text text-anchor="start" x="188" y="-131.328" font-family="Helvetica,sans-Serif" font-size="9.00">prior_hessian::UpperTruncated</text>
<text text-anchor="middle" x="252" y="-121.328" font-family="Helvetica,sans-Serif" font-size="9.00">Dist::set_ubound</text>
</a>
</g>
</g>
<!-- Node1&#45;&gt;Node7 -->
<g id="edge8" class="edge"><title>Node1&#45;&gt;Node7</title>
<path fill="none" stroke="midnightblue" d="M126.406,-95.6291C145.855,-100.765 168.019,-106.617 188.207,-111.947"/>
<polygon fill="midnightblue" stroke="midnightblue" points="187.377,-115.348 197.939,-114.517 189.164,-108.58 187.377,-115.348"/>
</g>
<!-- Node4 -->
<g id="node4" class="node"><title>Node4</title>
<g id="a_node4"><a xlink:href="classprior__hessian_1_1UpperTruncatedDist.html#a648dfc2c62b958ef82bd231ef74ac4d8" target="_top" xlink:title="prior_hessian::UpperTruncated\lDist::global_ubound">
<polygon fill="white" stroke="black" points="360,-110.528 360,-138.528 504,-138.528 504,-110.528 360,-110.528"/>
<text text-anchor="start" x="368" y="-127.328" font-family="Helvetica,sans-Serif" font-size="9.00">prior_hessian::UpperTruncated</text>
<text text-anchor="middle" x="432" y="-117.328" font-family="Helvetica,sans-Serif" font-size="9.00">Dist::global_ubound</text>
</a>
</g>
</g>
<!-- Node3&#45;&gt;Node4 -->
<g id="edge3" class="edge"><title>Node3&#45;&gt;Node4</title>
<path fill="none" stroke="midnightblue" d="M311.284,-95.6074C327.811,-99.6 345.95,-103.982 362.998,-108.1"/>
<polygon fill="midnightblue" stroke="midnightblue" points="362.347,-111.544 372.889,-110.49 363.991,-104.739 362.347,-111.544"/>
</g>
<!-- Node3&#45;&gt;Node5 -->
<g id="edge4" class="edge"><title>Node3&#45;&gt;Node5</title>
<path fill="none" stroke="midnightblue" d="M324.157,-77.1548C383.457,-73.5107 467.933,-68.3194 529.854,-64.5142"/>
<polygon fill="midnightblue" stroke="midnightblue" points="530.211,-67.999 539.977,-63.8921 529.781,-61.0122 530.211,-67.999"/>
</g>
<!-- Node3&#45;&gt;Node6 -->
<g id="edge5" class="edge"><title>Node3&#45;&gt;Node6</title>
<path fill="none" stroke="midnightblue" d="M311.284,-67.4478C327.811,-63.4552 345.95,-59.0734 362.998,-54.955"/>
<polygon fill="midnightblue" stroke="midnightblue" points="363.991,-58.316 372.889,-52.5656 362.347,-51.5117 363.991,-58.316"/>
</g>
<!-- Node6&#45;&gt;Node5 -->
<g id="edge6" class="edge"><title>Node6&#45;&gt;Node5</title>
<path fill="none" stroke="midnightblue" d="M504.118,-46.9179C512.609,-47.9197 521.327,-48.9482 529.944,-49.9649"/>
<polygon fill="midnightblue" stroke="midnightblue" points="529.654,-53.4548 539.995,-51.1506 530.474,-46.503 529.654,-53.4548"/>
</g>
<!-- Node7&#45;&gt;Node4 -->
<g id="edge9" class="edge"><title>Node7&#45;&gt;Node4</title>
<path fill="none" stroke="midnightblue" d="M324.118,-126.929C332.609,-126.739 341.327,-126.543 349.944,-126.349"/>
<polygon fill="midnightblue" stroke="midnightblue" points="350.076,-129.847 359.995,-126.123 349.919,-122.849 350.076,-129.847"/>
</g>
<!-- Node7&#45;&gt;Node5 -->
<g id="edge10" class="edge"><title>Node7&#45;&gt;Node5</title>
<path fill="none" stroke="midnightblue" d="M296.191,-142.59C347.39,-156.884 434.524,-173.645 504,-148.528 540.671,-135.27 573.63,-103.358 592.983,-81.5805"/>
<polygon fill="midnightblue" stroke="midnightblue" points="595.825,-83.6454 599.714,-73.7902 590.528,-79.069 595.825,-83.6454"/>
</g>
</g>
</svg>
        <g id="navigator" transform="translate(0 0)" fill="#404254">
                <rect fill="#f2f5e9" fill-opacity="0.5" stroke="#606060" stroke-width=".5" x="0" y="0" width="60" height="60"/>
                <use id="zoomplus" xlink:href="#zoomPlus" x="17" y="9" onmousedown="handleZoom(evt,'in')"/>
                <use id="zoomminus" xlink:href="#zoomMin" x="42" y="9" onmousedown="handleZoom(evt,'out')"/>
                <use id="reset" xlink:href="#resetDef" x="30" y="36" onmousedown="handleReset()"/>
                <g id="arrowUp" xlink:href="#dirArrow" transform="translate(30 24)" onmousedown="handlePan(0,-1)">
                  <use xlink:href="#rim" fill="#404040">
                        <set attributeName="fill" to="#808080" begin="arrowUp.mouseover" end="arrowUp.mouseout"/>
                  </use>
                  <path fill="none" stroke="white" stroke-width="1.5" d="M0,-3.0v7 M-2.5,-0.5L0,-3.0L2.5,-0.5"/>
                </g>
                <g id="arrowRight" xlink:href="#dirArrow" transform="rotate(90) translate(36 -43)" onmousedown="handlePan(1,0)">
                  <use xlink:href="#rim" fill="#404040">
                        <set attributeName="fill" to="#808080" begin="arrowRight.mouseover" end="arrowRight.mouseout"/>
                  </use>
                  <path fill="none" stroke="white" stroke-width="1.5" d="M0,-3.0v7 M-2.5,-0.5L0,-3.0L2.5,-0.5"/>
                </g>
                <g id="arrowDown" xlink:href="#dirArrow" transform="rotate(180) translate(-30 -48)" onmousedown="handlePan(0,1)">
                  <use xlink:href="#rim" fill="#404040">
                        <set attributeName="fill" to="#808080" begin="arrowDown.mouseover" end="arrowDown.mouseout"/>
                  </use>
                  <path fill="none" stroke="white" stroke-width="1.5" d="M0,-3.0v7 M-2.5,-0.5L0,-3.0L2.5,-0.5"/>
                </g>
                <g id="arrowLeft" xlink:href="#dirArrow" transform="rotate(270) translate(-36 17)" onmousedown="handlePan(-1,0)">
                  <use xlink:href="#rim" fill="#404040">
                        <set attributeName="fill" to="#808080" begin="arrowLeft.mouseover" end="arrowLeft.mouseout"/>
                  </use>
                  <path fill="none" stroke="white" stroke-width="1.5" d="M0,-3.0v7 M-2.5,-0.5L0,-3.0L2.5,-0.5"/>
                </g>
        </g>
        <svg viewBox="0 0 15 15" width="100%" height="30px" preserveAspectRatio="xMaxYMin meet">
         <g id="arrow_out" transform="scale(0.3 0.3)">
          <a xlink:href="classprior__hessian_1_1UpperTruncatedDist_a3396c4b08ddb07235c10c4edc97b96e3_cgraph_org.svg" target="_base">
           <rect id="button" ry="5" rx="5" y="6" x="6" height="38" width="38"
                fill="#f2f5e9" fill-opacity="0.5" stroke="#606060" stroke-width="1.0"/>
           <path id="arrow"
             d="M 11.500037,31.436501 C 11.940474,20.09759 22.043105,11.32322 32.158766,21.979434 L 37.068811,17.246167 C 37.068811,17.246167 37.088388,32 37.088388,32 L 22.160133,31.978069 C 22.160133,31.978069 26.997745,27.140456 26.997745,27.140456 C 18.528582,18.264221 13.291696,25.230495 11.500037,31.436501 z"
             style="fill:#404040;"/>
          </a>
         </g>
        </svg>
</svg>
