<?xml version="1.0" encoding="UTF-8" standalone="no"?>
<!DOCTYPE svg PUBLIC "-//W3C//DTD SVG 1.1//EN"
 "http://www.w3.org/Graphics/SVG/1.1/DTD/svg11.dtd">
<!-- Generated by graphviz version 2.38.0 (20140413.2041)
 -->
<!-- Title: prior_hessian::ScaledDist::lbound Pages: 1 -->
<!--zoomable 462 -->
<svg id="main" version="1.1" xmlns="http://www.w3.org/2000/svg" xmlns:xlink="http://www.w3.org/1999/xlink" xml:space="preserve" onload="init(evt)">
<style type="text/css"><![CDATA[
.edge:hover path { stroke: red; }
.edge:hover polygon { stroke: red; fill: red; }
]]></style>
<script type="text/javascript"><![CDATA[
var edges = document.getElementsByTagName('g');
if (edges && edges.length) {
  for (var i=0;i<edges.length;i++) {
    if (edges[i].id.substr(0,4)=='edge') {
      edges[i].setAttribute('class','edge');
    }
  }
}
]]></script>
        <defs>
                <circle id="rim" cx="0" cy="0" r="7"/>
                <circle id="rim2" cx="0" cy="0" r="3.5"/>
                <g id="zoomPlus">
                        <use xlink:href="#rim" fill="#404040">
                                <set attributeName="fill" to="#808080" begin="zoomplus.mouseover" end="zoomplus.mouseout"/>
                        </use>
                        <path d="M-4,0h8M0,-4v8" fill="none" stroke="white" stroke-width="1.5" pointer-events="none"/>
                </g>
                <g id="zoomMin">
                        <use xlink:href="#rim" fill="#404040">
                                <set attributeName="fill" to="#808080" begin="zoomminus.mouseover" end="zoomminus.mouseout"/>
                        </use>
                        <path d="M-4,0h8" fill="none" stroke="white" stroke-width="1.5" pointer-events="none"/>
                </g>
                <g id="dirArrow">
                        <path fill="none" stroke="white" stroke-width="1.5" d="M0,-3.0v7 M-2.5,-0.5L0,-3.0L2.5,-0.5"/>
                </g>
               <g id="resetDef">
                       <use xlink:href="#rim2" fill="#404040">
                               <set attributeName="fill" to="#808080" begin="reset.mouseover" end="reset.mouseout"/>
                       </use>
               </g>
        </defs>

<script type="text/javascript">
var viewWidth = 639;
var viewHeight = 462;
var sectionId = 'dynsection-13';
</script>
<script xlink:href="svgpan.js"/>
<svg id="graph" class="graph">
<g id="viewport">
<title>prior_hessian::ScaledDist::lbound</title>
<polygon fill="white" stroke="none" points="-4,4 -4,-458 635,-458 635,4 -4,4"/>
<!-- Node1 -->
<g id="node1" class="node"><title>Node1</title>
<polygon fill="#bfbfbf" stroke="black" points="0,-153.5 0,-181.5 122,-181.5 122,-153.5 0,-153.5"/>
<text text-anchor="start" x="8" y="-170.3" font-family="Helvetica,sans-Serif" font-size="9.00">prior_hessian::ScaledDist</text>
<text text-anchor="middle" x="61" y="-160.3" font-family="Helvetica,sans-Serif" font-size="9.00">::lbound</text>
</g>
<!-- Node2 -->
<g id="node2" class="node"><title>Node2</title>
<g id="a_node2"><a xlink:href="classprior__hessian_1_1ScaledDist.html#a99eca9762537a354b6d2b1b0e26e1f01" target="_top" xlink:title="prior_hessian::ScaledDist\l::convert_from_unitary_coords">
<polygon fill="white" stroke="black" points="158,-339.5 158,-367.5 298,-367.5 298,-339.5 158,-339.5"/>
<text text-anchor="start" x="166" y="-356.3" font-family="Helvetica,sans-Serif" font-size="9.00">prior_hessian::ScaledDist</text>
<text text-anchor="middle" x="228" y="-346.3" font-family="Helvetica,sans-Serif" font-size="9.00">::convert_from_unitary_coords</text>
</a>
</g>
</g>
<!-- Node1&#45;&gt;Node2 -->
<g id="edge1" class="edge"><title>Node1&#45;&gt;Node2</title>
<path fill="none" stroke="midnightblue" d="M81.4095,-189.38C115.67,-228.001 185.942,-307.217 214.509,-339.42"/>
<polygon fill="midnightblue" stroke="midnightblue" points="83.9277,-186.944 74.6733,-181.786 78.6912,-191.59 83.9277,-186.944"/>
</g>
<!-- Node7 -->
<g id="node7" class="node"><title>Node7</title>
<g id="a_node7"><a xlink:href="classprior__hessian_1_1ScaledDist.html#a8c264d2bf6cd034653972de02add2b46" target="_top" xlink:title="prior_hessian::ScaledDist\l::convert_to_unitary_coords">
<polygon fill="white" stroke="black" points="163,-218.5 163,-246.5 293,-246.5 293,-218.5 163,-218.5"/>
<text text-anchor="start" x="171" y="-235.3" font-family="Helvetica,sans-Serif" font-size="9.00">prior_hessian::ScaledDist</text>
<text text-anchor="middle" x="228" y="-225.3" font-family="Helvetica,sans-Serif" font-size="9.00">::convert_to_unitary_coords</text>
</a>
</g>
</g>
<!-- Node1&#45;&gt;Node7 -->
<g id="edge8" class="edge"><title>Node1&#45;&gt;Node7</title>
<path fill="none" stroke="midnightblue" d="M107.232,-185.318C133.694,-195.743 166.634,-208.719 191.267,-218.423"/>
<polygon fill="midnightblue" stroke="midnightblue" points="108.389,-182.013 97.8025,-181.604 105.824,-188.526 108.389,-182.013"/>
</g>
<!-- Node10 -->
<g id="node10" class="node"><title>Node10</title>
<g id="a_node10"><a xlink:href="classprior__hessian_1_1ScaledDist.html#ada92f440acb5566f8e97f653f4da2015" target="_top" xlink:title="prior_hessian::ScaledDist\l::operator!=">
<polygon fill="white" stroke="black" points="509,-92.5 509,-120.5 631,-120.5 631,-92.5 509,-92.5"/>
<text text-anchor="start" x="517" y="-109.3" font-family="Helvetica,sans-Serif" font-size="9.00">prior_hessian::ScaledDist</text>
<text text-anchor="middle" x="570" y="-99.3" font-family="Helvetica,sans-Serif" font-size="9.00">::operator!=</text>
</a>
</g>
</g>
<!-- Node1&#45;&gt;Node10 -->
<g id="edge13" class="edge"><title>Node1&#45;&gt;Node10</title>
<path fill="none" stroke="midnightblue" d="M132.229,-173.756C215.241,-179.034 356.785,-181.345 473,-149.5 497.834,-142.695 524.435,-130.342 543.322,-120.616"/>
<polygon fill="midnightblue" stroke="midnightblue" points="132.364,-170.257 122.153,-173.082 131.897,-177.242 132.364,-170.257"/>
</g>
<!-- Node11 -->
<g id="node11" class="node"><title>Node11</title>
<g id="a_node11"><a xlink:href="classprior__hessian_1_1ScaledDist.html#a00102b4332ba97aa1a0cff7a3c02e151" target="_top" xlink:title="prior_hessian::ScaledDist\l::ScaledDist">
<polygon fill="white" stroke="black" points="167,-132.5 167,-160.5 289,-160.5 289,-132.5 167,-132.5"/>
<text text-anchor="start" x="175" y="-149.3" font-family="Helvetica,sans-Serif" font-size="9.00">prior_hessian::ScaledDist</text>
<text text-anchor="middle" x="228" y="-139.3" font-family="Helvetica,sans-Serif" font-size="9.00">::ScaledDist</text>
</a>
</g>
</g>
<!-- Node1&#45;&gt;Node11 -->
<g id="edge14" class="edge"><title>Node1&#45;&gt;Node11</title>
<path fill="none" stroke="midnightblue" d="M132.063,-158.583C143.598,-157.115 155.464,-155.605 166.733,-154.17"/>
<polygon fill="midnightblue" stroke="midnightblue" points="131.514,-155.124 122.036,-159.859 132.397,-162.068 131.514,-155.124"/>
</g>
<!-- Node12 -->
<g id="node12" class="node"><title>Node12</title>
<g id="a_node12"><a xlink:href="classprior__hessian_1_1ScaledDist.html#a07e9dea370e56001f76ed8e10693f399" target="_top" xlink:title="prior_hessian::ScaledDist\l::set_bounds">
<polygon fill="white" stroke="black" points="167,-85.5 167,-113.5 289,-113.5 289,-85.5 167,-85.5"/>
<text text-anchor="start" x="175" y="-102.3" font-family="Helvetica,sans-Serif" font-size="9.00">prior_hessian::ScaledDist</text>
<text text-anchor="middle" x="228" y="-92.3" font-family="Helvetica,sans-Serif" font-size="9.00">::set_bounds</text>
</a>
</g>
</g>
<!-- Node1&#45;&gt;Node12 -->
<g id="edge15" class="edge"><title>Node1&#45;&gt;Node12</title>
<path fill="none" stroke="midnightblue" d="M99.1255,-148.862C116.753,-140.333 138.241,-130.393 158,-122.5 165.739,-119.408 174.074,-116.382 182.183,-113.593"/>
<polygon fill="midnightblue" stroke="midnightblue" points="97.2151,-145.9 89.7653,-153.433 100.287,-152.19 97.2151,-145.9"/>
</g>
<!-- Node15 -->
<g id="node15" class="node"><title>Node15</title>
<g id="a_node15"><a xlink:href="classprior__hessian_1_1ScaledDist.html#ace5188e41adff598f3ed4d5dc8530af0" target="_top" xlink:title="prior_hessian::ScaledDist\l::set_ubound">
<polygon fill="white" stroke="black" points="342.5,-0.5 342.5,-28.5 464.5,-28.5 464.5,-0.5 342.5,-0.5"/>
<text text-anchor="start" x="350.5" y="-17.3" font-family="Helvetica,sans-Serif" font-size="9.00">prior_hessian::ScaledDist</text>
<text text-anchor="middle" x="403.5" y="-7.3" font-family="Helvetica,sans-Serif" font-size="9.00">::set_ubound</text>
</a>
</g>
</g>
<!-- Node1&#45;&gt;Node15 -->
<g id="edge22" class="edge"><title>Node1&#45;&gt;Node15</title>
<path fill="none" stroke="midnightblue" d="M79.0937,-145.486C96.6496,-124.393 125.884,-93.2252 158,-75.5 215.933,-43.5261 290.757,-28.0407 342.291,-20.7214"/>
<polygon fill="midnightblue" stroke="midnightblue" points="76.3345,-143.331 72.7404,-153.298 81.7653,-147.748 76.3345,-143.331"/>
</g>
<!-- Node3 -->
<g id="node3" class="node"><title>Node3</title>
<g id="a_node3"><a xlink:href="classprior__hessian_1_1ScaledDist.html#ac7b29b1849724c8e561a4cf01408d3f5" target="_top" xlink:title="prior_hessian::ScaledDist\l::icdf">
<polygon fill="white" stroke="black" points="342.5,-425.5 342.5,-453.5 464.5,-453.5 464.5,-425.5 342.5,-425.5"/>
<text text-anchor="start" x="350.5" y="-442.3" font-family="Helvetica,sans-Serif" font-size="9.00">prior_hessian::ScaledDist</text>
<text text-anchor="middle" x="403.5" y="-432.3" font-family="Helvetica,sans-Serif" font-size="9.00">::icdf</text>
</a>
</g>
</g>
<!-- Node2&#45;&gt;Node3 -->
<g id="edge2" class="edge"><title>Node2&#45;&gt;Node3</title>
<path fill="none" stroke="midnightblue" d="M262.171,-372.578C282.622,-384.071 309.53,-398.713 334,-410.5 344.704,-415.656 356.561,-420.852 367.36,-425.392"/>
<polygon fill="midnightblue" stroke="midnightblue" points="263.689,-369.416 253.261,-367.541 260.244,-375.509 263.689,-369.416"/>
</g>
<!-- Node4 -->
<g id="node4" class="node"><title>Node4</title>
<g id="a_node4"><a xlink:href="classprior__hessian_1_1ScaledDist.html#a61f5160e1a6d2b2055596e14844975e0" target="_top" xlink:title="prior_hessian::ScaledDist\l::median">
<polygon fill="white" stroke="black" points="509,-292.5 509,-320.5 631,-320.5 631,-292.5 509,-292.5"/>
<text text-anchor="start" x="517" y="-309.3" font-family="Helvetica,sans-Serif" font-size="9.00">prior_hessian::ScaledDist</text>
<text text-anchor="middle" x="570" y="-299.3" font-family="Helvetica,sans-Serif" font-size="9.00">::median</text>
</a>
</g>
</g>
<!-- Node2&#45;&gt;Node4 -->
<g id="edge5" class="edge"><title>Node2&#45;&gt;Node4</title>
<path fill="none" stroke="midnightblue" d="M279.95,-370.376C330.258,-384.314 408.76,-398.674 473,-377.5 507.06,-366.273 538.927,-337.796 556.011,-320.51"/>
<polygon fill="midnightblue" stroke="midnightblue" points="280.855,-366.994 270.277,-367.604 278.927,-373.723 280.855,-366.994"/>
</g>
<!-- Node5 -->
<g id="node5" class="node"><title>Node5</title>
<g id="a_node5"><a xlink:href="classprior__hessian_1_1ScaledDist.html#a3a821526d1d50027af00ef86663f9e68" target="_top" xlink:title="prior_hessian::ScaledDist\l::mean">
<polygon fill="white" stroke="black" points="342.5,-339.5 342.5,-367.5 464.5,-367.5 464.5,-339.5 342.5,-339.5"/>
<text text-anchor="start" x="350.5" y="-356.3" font-family="Helvetica,sans-Serif" font-size="9.00">prior_hessian::ScaledDist</text>
<text text-anchor="middle" x="403.5" y="-346.3" font-family="Helvetica,sans-Serif" font-size="9.00">::mean</text>
</a>
</g>
</g>
<!-- Node2&#45;&gt;Node5 -->
<g id="edge4" class="edge"><title>Node2&#45;&gt;Node5</title>
<path fill="none" stroke="midnightblue" d="M308.114,-353.5C319.618,-353.5 331.304,-353.5 342.352,-353.5"/>
<polygon fill="midnightblue" stroke="midnightblue" points="308.07,-350 298.07,-353.5 308.07,-357 308.07,-350"/>
</g>
<!-- Node6 -->
<g id="node6" class="node"><title>Node6</title>
<g id="a_node6"><a xlink:href="classprior__hessian_1_1ScaledDist.html#a7a5642c7d22a621f820c494b84abb259" target="_top" xlink:title="prior_hessian::ScaledDist\l::sample">
<polygon fill="white" stroke="black" points="342.5,-292.5 342.5,-320.5 464.5,-320.5 464.5,-292.5 342.5,-292.5"/>
<text text-anchor="start" x="350.5" y="-309.3" font-family="Helvetica,sans-Serif" font-size="9.00">prior_hessian::ScaledDist</text>
<text text-anchor="middle" x="403.5" y="-299.3" font-family="Helvetica,sans-Serif" font-size="9.00">::sample</text>
</a>
</g>
</g>
<!-- Node2&#45;&gt;Node6 -->
<g id="edge6" class="edge"><title>Node2&#45;&gt;Node6</title>
<path fill="none" stroke="midnightblue" d="M290.823,-336.752C310.452,-331.435 331.941,-325.614 350.78,-320.511"/>
<polygon fill="midnightblue" stroke="midnightblue" points="289.793,-333.405 281.056,-339.398 291.623,-340.162 289.793,-333.405"/>
</g>
<!-- Node3&#45;&gt;Node4 -->
<g id="edge3" class="edge"><title>Node3&#45;&gt;Node4</title>
<path fill="none" stroke="midnightblue" d="M454.818,-421.156C461.167,-417.998 467.393,-414.443 473,-410.5 509.781,-384.632 543.033,-342.603 559.006,-320.737"/>
<polygon fill="midnightblue" stroke="midnightblue" points="453.078,-418.105 445.488,-425.497 456.031,-424.452 453.078,-418.105"/>
</g>
<!-- Node6&#45;&gt;Node4 -->
<g id="edge7" class="edge"><title>Node6&#45;&gt;Node4</title>
<path fill="none" stroke="midnightblue" d="M475.076,-306.5C486.364,-306.5 497.95,-306.5 508.963,-306.5"/>
<polygon fill="midnightblue" stroke="midnightblue" points="474.82,-303 464.82,-306.5 474.82,-310 474.82,-303"/>
</g>
<!-- Node8 -->
<g id="node8" class="node"><title>Node8</title>
<g id="a_node8"><a xlink:href="classprior__hessian_1_1ScaledDist.html#a58daada799ea4dd02ab3ea581751d04c" target="_top" xlink:title="prior_hessian::ScaledDist::cdf">
<polygon fill="white" stroke="black" points="334.5,-255.5 334.5,-273.5 472.5,-273.5 472.5,-255.5 334.5,-255.5"/>
<text text-anchor="middle" x="403.5" y="-262.3" font-family="Helvetica,sans-Serif" font-size="9.00">prior_hessian::ScaledDist::cdf</text>
</a>
</g>
</g>
<!-- Node7&#45;&gt;Node8 -->
<g id="edge9" class="edge"><title>Node7&#45;&gt;Node8</title>
<path fill="none" stroke="midnightblue" d="M303.065,-246.16C320.137,-249.309 337.878,-252.581 353.567,-255.475"/>
<polygon fill="midnightblue" stroke="midnightblue" points="303.581,-242.697 293.112,-244.325 302.311,-249.581 303.581,-242.697"/>
</g>
<!-- Node9 -->
<g id="node9" class="node"><title>Node9</title>
<g id="a_node9"><a xlink:href="classprior__hessian_1_1ScaledDist.html#a9c2a6620b09c8f9dff9f712a628d9726" target="_top" xlink:title="prior_hessian::ScaledDist::pdf">
<polygon fill="white" stroke="black" points="334,-218.5 334,-236.5 473,-236.5 473,-218.5 334,-218.5"/>
<text text-anchor="middle" x="403.5" y="-225.3" font-family="Helvetica,sans-Serif" font-size="9.00">prior_hessian::ScaledDist::pdf</text>
</a>
</g>
</g>
<!-- Node7&#45;&gt;Node9 -->
<g id="edge11" class="edge"><title>Node7&#45;&gt;Node9</title>
<path fill="none" stroke="midnightblue" d="M303.225,-230.361C313.438,-230.067 323.888,-229.765 333.992,-229.474"/>
<polygon fill="midnightblue" stroke="midnightblue" points="303.007,-226.866 293.112,-230.652 303.209,-233.863 303.007,-226.866"/>
</g>
<!-- Node8&#45;&gt;Node4 -->
<g id="edge10" class="edge"><title>Node8&#45;&gt;Node4</title>
<path fill="none" stroke="midnightblue" d="M449.54,-276C469.463,-281.086 493.076,-287.115 514.026,-292.464"/>
<polygon fill="midnightblue" stroke="midnightblue" points="450.344,-272.593 439.789,-273.51 448.613,-279.375 450.344,-272.593"/>
</g>
<!-- Node9&#45;&gt;Node4 -->
<g id="edge12" class="edge"><title>Node9&#45;&gt;Node4</title>
<path fill="none" stroke="midnightblue" d="M454.537,-239.561C460.85,-241.61 467.144,-243.923 473,-246.5 501.423,-259.009 531.33,-278.932 550.062,-292.353"/>
<polygon fill="midnightblue" stroke="midnightblue" points="455.244,-236.118 444.659,-236.556 453.207,-242.815 455.244,-236.118"/>
</g>
<!-- Node12&#45;&gt;Node10 -->
<g id="edge17" class="edge"><title>Node12&#45;&gt;Node10</title>
<path fill="none" stroke="midnightblue" d="M280.142,-116.631C301.246,-123.374 323.253,-129.899 334,-131.5 395.103,-140.604 411.723,-139.348 473,-131.5 490.083,-129.312 508.468,-125.019 524.532,-120.599"/>
<polygon fill="midnightblue" stroke="midnightblue" points="281.145,-113.277 270.554,-113.534 278.994,-119.938 281.145,-113.277"/>
</g>
<!-- Node13 -->
<g id="node13" class="node"><title>Node13</title>
<g id="a_node13"><a xlink:href="classprior__hessian_1_1ScaledDist.html#adcee5624ff0434c1cf9dcbeee4b66a85" target="_top" xlink:title="prior_hessian::ScaledDist\l::ScaledDist">
<polygon fill="white" stroke="black" points="342.5,-94.5 342.5,-122.5 464.5,-122.5 464.5,-94.5 342.5,-94.5"/>
<text text-anchor="start" x="350.5" y="-111.3" font-family="Helvetica,sans-Serif" font-size="9.00">prior_hessian::ScaledDist</text>
<text text-anchor="middle" x="403.5" y="-101.3" font-family="Helvetica,sans-Serif" font-size="9.00">::ScaledDist</text>
</a>
</g>
</g>
<!-- Node12&#45;&gt;Node13 -->
<g id="edge16" class="edge"><title>Node12&#45;&gt;Node13</title>
<path fill="none" stroke="midnightblue" d="M299.442,-103.154C313.694,-103.893 328.555,-104.664 342.411,-105.383"/>
<polygon fill="midnightblue" stroke="midnightblue" points="299.363,-99.6453 289.195,-102.623 299,-106.636 299.363,-99.6453"/>
</g>
<!-- Node14 -->
<g id="node14" class="node"><title>Node14</title>
<g id="a_node14"><a xlink:href="classprior__hessian_1_1ScaledDist.html#a14964efa9531b9906d722a2d9fc52da3" target="_top" xlink:title="prior_hessian::ScaledDist\l::set_lbound">
<polygon fill="white" stroke="black" points="342.5,-47.5 342.5,-75.5 464.5,-75.5 464.5,-47.5 342.5,-47.5"/>
<text text-anchor="start" x="350.5" y="-64.3" font-family="Helvetica,sans-Serif" font-size="9.00">prior_hessian::ScaledDist</text>
<text text-anchor="middle" x="403.5" y="-54.3" font-family="Helvetica,sans-Serif" font-size="9.00">::set_lbound</text>
</a>
</g>
</g>
<!-- Node12&#45;&gt;Node14 -->
<g id="edge18" class="edge"><title>Node12&#45;&gt;Node14</title>
<path fill="none" stroke="midnightblue" d="M299.027,-84.1627C313.405,-81.0135 328.421,-77.7248 342.411,-74.6606"/>
<polygon fill="midnightblue" stroke="midnightblue" points="298.215,-80.7576 289.195,-86.3161 299.712,-87.5955 298.215,-80.7576"/>
</g>
<!-- Node12&#45;&gt;Node15 -->
<g id="edge20" class="edge"><title>Node12&#45;&gt;Node15</title>
<path fill="none" stroke="midnightblue" d="M258.588,-79.7602C279.144,-66.6201 307.5,-49.6108 334,-37.5 341.074,-34.2671 348.74,-31.2511 356.295,-28.5365"/>
<polygon fill="midnightblue" stroke="midnightblue" points="256.502,-76.9413 250.006,-85.3111 260.304,-82.8189 256.502,-76.9413"/>
</g>
<!-- Node14&#45;&gt;Node10 -->
<g id="edge19" class="edge"><title>Node14&#45;&gt;Node10</title>
<path fill="none" stroke="midnightblue" d="M465.938,-78.3069C482.942,-82.9584 501.217,-87.9574 517.586,-92.4353"/>
<polygon fill="midnightblue" stroke="midnightblue" points="466.667,-74.8775 456.097,-75.6148 464.82,-81.6295 466.667,-74.8775"/>
</g>
<!-- Node15&#45;&gt;Node10 -->
<g id="edge21" class="edge"><title>Node15&#45;&gt;Node10</title>
<path fill="none" stroke="midnightblue" d="M461.952,-32.3496C465.744,-33.9672 469.459,-35.6853 473,-37.5 503.139,-52.9453 534.307,-77.1446 552.658,-92.3972"/>
<polygon fill="midnightblue" stroke="midnightblue" points="463.009,-29.0028 452.424,-28.538 460.409,-35.502 463.009,-29.0028"/>
</g>
</g>
</svg>
        <g id="navigator" transform="translate(0 0)" fill="#404254">
                <rect fill="#f2f5e9" fill-opacity="0.5" stroke="#606060" stroke-width=".5" x="0" y="0" width="60" height="60"/>
                <use id="zoomplus" xlink:href="#zoomPlus" x="17" y="9" onmousedown="handleZoom(evt,'in')"/>
                <use id="zoomminus" xlink:href="#zoomMin" x="42" y="9" onmousedown="handleZoom(evt,'out')"/>
                <use id="reset" xlink:href="#resetDef" x="30" y="36" onmousedown="handleReset()"/>
                <g id="arrowUp" xlink:href="#dirArrow" transform="translate(30 24)" onmousedown="handlePan(0,-1)">
                  <use xlink:href="#rim" fill="#404040">
                        <set attributeName="fill" to="#808080" begin="arrowUp.mouseover" end="arrowUp.mouseout"/>
                  </use>
                  <path fill="none" stroke="white" stroke-width="1.5" d="M0,-3.0v7 M-2.5,-0.5L0,-3.0L2.5,-0.5"/>
                </g>
                <g id="arrowRight" xlink:href="#dirArrow" transform="rotate(90) translate(36 -43)" onmousedown="handlePan(1,0)">
                  <use xlink:href="#rim" fill="#404040">
                        <set attributeName="fill" to="#808080" begin="arrowRight.mouseover" end="arrowRight.mouseout"/>
                  </use>
                  <path fill="none" stroke="white" stroke-width="1.5" d="M0,-3.0v7 M-2.5,-0.5L0,-3.0L2.5,-0.5"/>
                </g>
                <g id="arrowDown" xlink:href="#dirArrow" transform="rotate(180) translate(-30 -48)" onmousedown="handlePan(0,1)">
                  <use xlink:href="#rim" fill="#404040">
                        <set attributeName="fill" to="#808080" begin="arrowDown.mouseover" end="arrowDown.mouseout"/>
                  </use>
                  <path fill="none" stroke="white" stroke-width="1.5" d="M0,-3.0v7 M-2.5,-0.5L0,-3.0L2.5,-0.5"/>
                </g>
                <g id="arrowLeft" xlink:href="#dirArrow" transform="rotate(270) translate(-36 17)" onmousedown="handlePan(-1,0)">
                  <use xlink:href="#rim" fill="#404040">
                        <set attributeName="fill" to="#808080" begin="arrowLeft.mouseover" end="arrowLeft.mouseout"/>
                  </use>
                  <path fill="none" stroke="white" stroke-width="1.5" d="M0,-3.0v7 M-2.5,-0.5L0,-3.0L2.5,-0.5"/>
                </g>
        </g>
        <svg viewBox="0 0 15 15" width="100%" height="30px" preserveAspectRatio="xMaxYMin meet">
         <g id="arrow_out" transform="scale(0.3 0.3)">
          <a xlink:href="classprior__hessian_1_1ScaledDist_a46bce2de3c0e030e9e4542195ecb429f_icgraph_org.svg" target="_base">
           <rect id="button" ry="5" rx="5" y="6" x="6" height="38" width="38"
                fill="#f2f5e9" fill-opacity="0.5" stroke="#606060" stroke-width="1.0"/>
           <path id="arrow"
             d="M 11.500037,31.436501 C 11.940474,20.09759 22.043105,11.32322 32.158766,21.979434 L 37.068811,17.246167 C 37.068811,17.246167 37.088388,32 37.088388,32 L 22.160133,31.978069 C 22.160133,31.978069 26.997745,27.140456 26.997745,27.140456 C 18.528582,18.264221 13.291696,25.230495 11.500037,31.436501 z"
             style="fill:#404040;"/>
          </a>
         </g>
        </svg>
</svg>
