<?xml version="1.0" encoding="UTF-8" standalone="no"?>
<!DOCTYPE svg PUBLIC "-//W3C//DTD SVG 1.1//EN"
 "http://www.w3.org/Graphics/SVG/1.1/DTD/svg11.dtd">
<!-- Generated by graphviz version 2.38.0 (20140413.2041)
 -->
<!-- Title: prior_hessian::TruncatedDist::operator!= Pages: 1 -->
<!--zoomable 248 -->
<svg id="main" version="1.1" xmlns="http://www.w3.org/2000/svg" xmlns:xlink="http://www.w3.org/1999/xlink" xml:space="preserve" onload="init(evt)">
<style type="text/css"><![CDATA[
.edge:hover path { stroke: red; }
.edge:hover polygon { stroke: red; fill: red; }
]]></style>
<script type="text/javascript"><![CDATA[
var edges = document.getElementsByTagName('g');
if (edges && edges.length) {
  for (var i=0;i<edges.length;i++) {
    if (edges[i].id.substr(0,4)=='edge') {
      edges[i].setAttribute('class','edge');
    }
  }
}
]]></script>
        <defs>
                <circle id="rim" cx="0" cy="0" r="7"/>
                <circle id="rim2" cx="0" cy="0" r="3.5"/>
                <g id="zoomPlus">
                        <use xlink:href="#rim" fill="#404040">
                                <set attributeName="fill" to="#808080" begin="zoomplus.mouseover" end="zoomplus.mouseout"/>
                        </use>
                        <path d="M-4,0h8M0,-4v8" fill="none" stroke="white" stroke-width="1.5" pointer-events="none"/>
                </g>
                <g id="zoomMin">
                        <use xlink:href="#rim" fill="#404040">
                                <set attributeName="fill" to="#808080" begin="zoomminus.mouseover" end="zoomminus.mouseout"/>
                        </use>
                        <path d="M-4,0h8" fill="none" stroke="white" stroke-width="1.5" pointer-events="none"/>
                </g>
                <g id="dirArrow">
                        <path fill="none" stroke="white" stroke-width="1.5" d="M0,-3.0v7 M-2.5,-0.5L0,-3.0L2.5,-0.5"/>
                </g>
               <g id="resetDef">
                       <use xlink:href="#rim2" fill="#404040">
                               <set attributeName="fill" to="#808080" begin="reset.mouseover" end="reset.mouseout"/>
                       </use>
               </g>
        </defs>

<script type="text/javascript">
var viewWidth = 592;
var viewHeight = 248;
var sectionId = 'dynsection-12';
</script>
<script xlink:href="svgpan.js"/>
<svg id="graph" class="graph">
<g id="viewport">
<title>prior_hessian::TruncatedDist::operator!=</title>
<polygon fill="white" stroke="none" points="-4,4 -4,-243.611 588,-243.611 588,4 -4,4"/>
<!-- Node1 -->
<g id="node1" class="node"><title>Node1</title>
<polygon fill="#bfbfbf" stroke="black" points="0,-108.644 0,-136.644 119,-136.644 119,-108.644 0,-108.644"/>
<text text-anchor="start" x="8" y="-125.444" font-family="Helvetica,sans-Serif" font-size="9.00">prior_hessian::Truncated</text>
<text text-anchor="middle" x="59.5" y="-115.444" font-family="Helvetica,sans-Serif" font-size="9.00">Dist::operator!=</text>
</g>
<!-- Node2 -->
<g id="node2" class="node"><title>Node2</title>
<g id="a_node2"><a xlink:href="classprior__hessian_1_1TruncatedDist.html#a9e67788ba67e88cedc65f5166f6448ce" target="_top" xlink:title="prior_hessian::Truncated\lDist::lbound">
<polygon fill="white" stroke="black" points="465,-189.644 465,-217.644 584,-217.644 584,-189.644 465,-189.644"/>
<text text-anchor="start" x="473" y="-206.444" font-family="Helvetica,sans-Serif" font-size="9.00">prior_hessian::Truncated</text>
<text text-anchor="middle" x="524.5" y="-196.444" font-family="Helvetica,sans-Serif" font-size="9.00">Dist::lbound</text>
</a>
</g>
</g>
<!-- Node1&#45;&gt;Node2 -->
<g id="edge1" class="edge"><title>Node1&#45;&gt;Node2</title>
<path fill="none" stroke="midnightblue" d="M69.7006,-136.972C84.5716,-158.635 116.181,-198.869 155,-214.644 256.719,-255.981 387.586,-236.978 462.86,-219.941"/>
<polygon fill="midnightblue" stroke="midnightblue" points="463.707,-223.338 472.655,-217.664 462.122,-216.52 463.707,-223.338"/>
</g>
<!-- Node3 -->
<g id="node3" class="node"><title>Node3</title>
<g id="a_node3"><a xlink:href="classprior__hessian_1_1TruncatedDist.html#a59cdadfde8f22030f4ab4567b8617ff6" target="_top" xlink:title="prior_hessian::Truncated\lDist::operator==">
<polygon fill="white" stroke="black" points="155,-177.644 155,-205.644 274,-205.644 274,-177.644 155,-177.644"/>
<text text-anchor="start" x="163" y="-194.444" font-family="Helvetica,sans-Serif" font-size="9.00">prior_hessian::Truncated</text>
<text text-anchor="middle" x="214.5" y="-184.444" font-family="Helvetica,sans-Serif" font-size="9.00">Dist::operator==</text>
</a>
</g>
</g>
<!-- Node1&#45;&gt;Node3 -->
<g id="edge2" class="edge"><title>Node1&#45;&gt;Node3</title>
<path fill="none" stroke="midnightblue" d="M89.2606,-136.846C107.887,-145.918 132.736,-157.785 155,-167.644 159.47,-169.623 164.155,-171.64 168.845,-173.622"/>
<polygon fill="midnightblue" stroke="midnightblue" points="167.835,-176.993 178.411,-177.616 170.532,-170.533 167.835,-176.993"/>
</g>
<!-- Node4 -->
<g id="node4" class="node"><title>Node4</title>
<g id="a_node4"><a xlink:href="classprior__hessian_1_1TruncatedDist.html#a9189a3e17c4bf37c22aebe327b79dd63" target="_top" xlink:title="prior_hessian::Truncated\lDist::set_bounds">
<polygon fill="white" stroke="black" points="310,-87.6439 310,-115.644 429,-115.644 429,-87.6439 310,-87.6439"/>
<text text-anchor="start" x="318" y="-104.444" font-family="Helvetica,sans-Serif" font-size="9.00">prior_hessian::Truncated</text>
<text text-anchor="middle" x="369.5" y="-94.4439" font-family="Helvetica,sans-Serif" font-size="9.00">Dist::set_bounds</text>
</a>
</g>
</g>
<!-- Node1&#45;&gt;Node4 -->
<g id="edge3" class="edge"><title>Node1&#45;&gt;Node4</title>
<path fill="none" stroke="midnightblue" d="M119.157,-118.645C170.562,-115.14 245.333,-110.042 299.579,-106.343"/>
<polygon fill="midnightblue" stroke="midnightblue" points="300.061,-109.818 309.799,-105.646 299.584,-102.835 300.061,-109.818"/>
</g>
<!-- Node7 -->
<g id="node7" class="node"><title>Node7</title>
<g id="a_node7"><a xlink:href="classprior__hessian_1_1TruncatedDist.html#a46cba73068eff4d100e8184deebb8016" target="_top" xlink:title="prior_hessian::Truncated\lDist::ubound">
<polygon fill="white" stroke="black" points="465,-1.64392 465,-29.6439 584,-29.6439 584,-1.64392 465,-1.64392"/>
<text text-anchor="start" x="473" y="-18.4439" font-family="Helvetica,sans-Serif" font-size="9.00">prior_hessian::Truncated</text>
<text text-anchor="middle" x="524.5" y="-8.44392" font-family="Helvetica,sans-Serif" font-size="9.00">Dist::ubound</text>
</a>
</g>
</g>
<!-- Node1&#45;&gt;Node7 -->
<g id="edge15" class="edge"><title>Node1&#45;&gt;Node7</title>
<path fill="none" stroke="midnightblue" d="M70.4597,-108.485C85.8674,-87.9075 117.637,-50.4698 155,-34.6439 252.804,6.78277 378.498,2.51738 454.927,-5.63052"/>
<polygon fill="midnightblue" stroke="midnightblue" points="454.59,-9.11451 464.917,-6.74769 455.368,-2.15788 454.59,-9.11451"/>
</g>
<!-- Node9 -->
<g id="node9" class="node"><title>Node9</title>
<g id="a_node9"><a xlink:href="classprior__hessian_1_1TruncatedDist.html#a21ef557361b62e4c657154d12cb032c2" target="_top" xlink:title="prior_hessian::Truncated\lDist::set_lbound">
<polygon fill="white" stroke="black" points="155,-44.6439 155,-72.6439 274,-72.6439 274,-44.6439 155,-44.6439"/>
<text text-anchor="start" x="163" y="-61.4439" font-family="Helvetica,sans-Serif" font-size="9.00">prior_hessian::Truncated</text>
<text text-anchor="middle" x="214.5" y="-51.4439" font-family="Helvetica,sans-Serif" font-size="9.00">Dist::set_lbound</text>
</a>
</g>
</g>
<!-- Node1&#45;&gt;Node9 -->
<g id="edge9" class="edge"><title>Node1&#45;&gt;Node9</title>
<path fill="none" stroke="midnightblue" d="M94.0765,-108.599C116.597,-99.1786 146.455,-86.6889 170.682,-76.5547"/>
<polygon fill="midnightblue" stroke="midnightblue" points="172.127,-79.7442 180.002,-72.6562 169.426,-73.2864 172.127,-79.7442"/>
</g>
<!-- Node10 -->
<g id="node10" class="node"><title>Node10</title>
<g id="a_node10"><a xlink:href="classprior__hessian_1_1TruncatedDist.html#ac2d919896743958e03a188b5dde6661e" target="_top" xlink:title="prior_hessian::Truncated\lDist::set_ubound">
<polygon fill="white" stroke="black" points="155,-130.644 155,-158.644 274,-158.644 274,-130.644 155,-130.644"/>
<text text-anchor="start" x="163" y="-147.444" font-family="Helvetica,sans-Serif" font-size="9.00">prior_hessian::Truncated</text>
<text text-anchor="middle" x="214.5" y="-137.444" font-family="Helvetica,sans-Serif" font-size="9.00">Dist::set_ubound</text>
</a>
</g>
</g>
<!-- Node1&#45;&gt;Node10 -->
<g id="edge12" class="edge"><title>Node1&#45;&gt;Node10</title>
<path fill="none" stroke="midnightblue" d="M119.216,-131.087C127.635,-132.297 136.359,-133.552 144.947,-134.787"/>
<polygon fill="midnightblue" stroke="midnightblue" points="144.545,-138.265 154.941,-136.224 145.541,-131.336 144.545,-138.265"/>
</g>
<!-- Node4&#45;&gt;Node2 -->
<g id="edge8" class="edge"><title>Node4&#45;&gt;Node2</title>
<path fill="none" stroke="midnightblue" d="M384.825,-115.846C402.483,-132.762 433.976,-161.061 465,-179.644 468.348,-181.649 471.894,-183.56 475.518,-185.365"/>
<polygon fill="midnightblue" stroke="midnightblue" points="474.081,-188.556 484.622,-189.623 477.047,-182.216 474.081,-188.556"/>
</g>
<!-- Node5 -->
<g id="node5" class="node"><title>Node5</title>
<g id="a_node5"><a xlink:href="classprior__hessian_1_1TruncatedDist.html#a428f9be18df6710e160ee967b0f3a663" target="_top" xlink:title="prior_hessian::Truncated\lDist::global_lbound">
<polygon fill="white" stroke="black" points="465,-142.644 465,-170.644 584,-170.644 584,-142.644 465,-142.644"/>
<text text-anchor="start" x="473" y="-159.444" font-family="Helvetica,sans-Serif" font-size="9.00">prior_hessian::Truncated</text>
<text text-anchor="middle" x="524.5" y="-149.444" font-family="Helvetica,sans-Serif" font-size="9.00">Dist::global_lbound</text>
</a>
</g>
</g>
<!-- Node4&#45;&gt;Node5 -->
<g id="edge4" class="edge"><title>Node4&#45;&gt;Node5</title>
<path fill="none" stroke="midnightblue" d="M409.504,-115.665C429.389,-122.813 453.765,-131.576 474.865,-139.161"/>
<polygon fill="midnightblue" stroke="midnightblue" points="473.707,-142.464 484.301,-142.553 476.075,-135.876 473.707,-142.464"/>
</g>
<!-- Node6 -->
<g id="node6" class="node"><title>Node6</title>
<g id="a_node6"><a xlink:href="classprior__hessian_1_1TruncatedDist.html#a79ec1c99c3aac7d38309e17808e422ab" target="_top" xlink:title="prior_hessian::Truncated\lDist::global_ubound">
<polygon fill="white" stroke="black" points="465,-95.6439 465,-123.644 584,-123.644 584,-95.6439 465,-95.6439"/>
<text text-anchor="start" x="473" y="-112.444" font-family="Helvetica,sans-Serif" font-size="9.00">prior_hessian::Truncated</text>
<text text-anchor="middle" x="524.5" y="-102.444" font-family="Helvetica,sans-Serif" font-size="9.00">Dist::global_ubound</text>
</a>
</g>
</g>
<!-- Node4&#45;&gt;Node6 -->
<g id="edge5" class="edge"><title>Node4&#45;&gt;Node6</title>
<path fill="none" stroke="midnightblue" d="M429.216,-104.714C437.635,-105.154 446.359,-105.61 454.947,-106.059"/>
<polygon fill="midnightblue" stroke="midnightblue" points="454.772,-109.555 464.941,-106.582 455.137,-102.565 454.772,-109.555"/>
</g>
<!-- Node4&#45;&gt;Node7 -->
<g id="edge6" class="edge"><title>Node4&#45;&gt;Node7</title>
<path fill="none" stroke="midnightblue" d="M399.187,-87.5034C408.915,-82.3066 419.673,-76.1032 429,-69.6439 446.358,-57.6221 446.92,-49.5495 465,-38.6439 467.625,-37.0604 470.379,-35.5475 473.201,-34.1087"/>
<polygon fill="midnightblue" stroke="midnightblue" points="474.831,-37.2095 482.375,-29.7701 471.838,-30.8816 474.831,-37.2095"/>
</g>
<!-- Node8 -->
<g id="node8" class="node"><title>Node8</title>
<g id="a_node8"><a xlink:href="classprior__hessian_1_1TruncatedDist.html#a255e94539840457c405d2621849c2635" target="_top" xlink:title="prior_hessian::Truncated\lDist::truncated">
<polygon fill="white" stroke="black" points="465,-48.6439 465,-76.6439 584,-76.6439 584,-48.6439 465,-48.6439"/>
<text text-anchor="start" x="473" y="-65.4439" font-family="Helvetica,sans-Serif" font-size="9.00">prior_hessian::Truncated</text>
<text text-anchor="middle" x="524.5" y="-55.4439" font-family="Helvetica,sans-Serif" font-size="9.00">Dist::truncated</text>
</a>
</g>
</g>
<!-- Node4&#45;&gt;Node8 -->
<g id="edge7" class="edge"><title>Node4&#45;&gt;Node8</title>
<path fill="none" stroke="midnightblue" d="M425.737,-87.564C436.353,-84.8578 447.563,-82.0004 458.456,-79.2237"/>
<polygon fill="midnightblue" stroke="midnightblue" points="459.519,-82.5648 468.345,-76.7032 457.79,-75.7817 459.519,-82.5648"/>
</g>
<!-- Node9&#45;&gt;Node4 -->
<g id="edge10" class="edge"><title>Node9&#45;&gt;Node4</title>
<path fill="none" stroke="midnightblue" d="M265.598,-72.7237C279.406,-76.6044 294.522,-80.8527 308.814,-84.8695"/>
<polygon fill="midnightblue" stroke="midnightblue" points="307.977,-88.2697 318.551,-87.606 309.871,-81.5308 307.977,-88.2697"/>
</g>
<!-- Node9&#45;&gt;Node7 -->
<g id="edge11" class="edge"><title>Node9&#45;&gt;Node7</title>
<path fill="none" stroke="midnightblue" d="M274.43,-50.8339C317.317,-45.1027 376.781,-37.0582 429,-29.6439 437.321,-28.4625 446.05,-27.2003 454.7,-25.9355"/>
<polygon fill="midnightblue" stroke="midnightblue" points="455.403,-29.3699 464.788,-24.4543 454.386,-22.4442 455.403,-29.3699"/>
</g>
<!-- Node10&#45;&gt;Node2 -->
<g id="edge14" class="edge"><title>Node10&#45;&gt;Node2</title>
<path fill="none" stroke="midnightblue" d="M274.157,-155.88C325.669,-165.748 400.644,-180.11 454.917,-190.506"/>
<polygon fill="midnightblue" stroke="midnightblue" points="454.319,-193.955 464.799,-192.399 455.636,-187.08 454.319,-193.955"/>
</g>
<!-- Node10&#45;&gt;Node4 -->
<g id="edge13" class="edge"><title>Node10&#45;&gt;Node4</title>
<path fill="none" stroke="midnightblue" d="M265.598,-130.564C279.406,-126.683 294.522,-122.435 308.814,-118.418"/>
<polygon fill="midnightblue" stroke="midnightblue" points="309.871,-121.757 318.551,-115.682 307.977,-115.018 309.871,-121.757"/>
</g>
</g>
</svg>
        <g id="navigator" transform="translate(0 0)" fill="#404254">
                <rect fill="#f2f5e9" fill-opacity="0.5" stroke="#606060" stroke-width=".5" x="0" y="0" width="60" height="60"/>
                <use id="zoomplus" xlink:href="#zoomPlus" x="17" y="9" onmousedown="handleZoom(evt,'in')"/>
                <use id="zoomminus" xlink:href="#zoomMin" x="42" y="9" onmousedown="handleZoom(evt,'out')"/>
                <use id="reset" xlink:href="#resetDef" x="30" y="36" onmousedown="handleReset()"/>
                <g id="arrowUp" xlink:href="#dirArrow" transform="translate(30 24)" onmousedown="handlePan(0,-1)">
                  <use xlink:href="#rim" fill="#404040">
                        <set attributeName="fill" to="#808080" begin="arrowUp.mouseover" end="arrowUp.mouseout"/>
                  </use>
                  <path fill="none" stroke="white" stroke-width="1.5" d="M0,-3.0v7 M-2.5,-0.5L0,-3.0L2.5,-0.5"/>
                </g>
                <g id="arrowRight" xlink:href="#dirArrow" transform="rotate(90) translate(36 -43)" onmousedown="handlePan(1,0)">
                  <use xlink:href="#rim" fill="#404040">
                        <set attributeName="fill" to="#808080" begin="arrowRight.mouseover" end="arrowRight.mouseout"/>
                  </use>
                  <path fill="none" stroke="white" stroke-width="1.5" d="M0,-3.0v7 M-2.5,-0.5L0,-3.0L2.5,-0.5"/>
                </g>
                <g id="arrowDown" xlink:href="#dirArrow" transform="rotate(180) translate(-30 -48)" onmousedown="handlePan(0,1)">
                  <use xlink:href="#rim" fill="#404040">
                        <set attributeName="fill" to="#808080" begin="arrowDown.mouseover" end="arrowDown.mouseout"/>
                  </use>
                  <path fill="none" stroke="white" stroke-width="1.5" d="M0,-3.0v7 M-2.5,-0.5L0,-3.0L2.5,-0.5"/>
                </g>
                <g id="arrowLeft" xlink:href="#dirArrow" transform="rotate(270) translate(-36 17)" onmousedown="handlePan(-1,0)">
                  <use xlink:href="#rim" fill="#404040">
                        <set attributeName="fill" to="#808080" begin="arrowLeft.mouseover" end="arrowLeft.mouseout"/>
                  </use>
                  <path fill="none" stroke="white" stroke-width="1.5" d="M0,-3.0v7 M-2.5,-0.5L0,-3.0L2.5,-0.5"/>
                </g>
        </g>
        <svg viewBox="0 0 15 15" width="100%" height="30px" preserveAspectRatio="xMaxYMin meet">
         <g id="arrow_out" transform="scale(0.3 0.3)">
          <a xlink:href="classprior__hessian_1_1TruncatedDist_a05934e74d38db5bd77df1609f43c7d71_cgraph_org.svg" target="_base">
           <rect id="button" ry="5" rx="5" y="6" x="6" height="38" width="38"
                fill="#f2f5e9" fill-opacity="0.5" stroke="#606060" stroke-width="1.0"/>
           <path id="arrow"
             d="M 11.500037,31.436501 C 11.940474,20.09759 22.043105,11.32322 32.158766,21.979434 L 37.068811,17.246167 C 37.068811,17.246167 37.088388,32 37.088388,32 L 22.160133,31.978069 C 22.160133,31.978069 26.997745,27.140456 26.997745,27.140456 C 18.528582,18.264221 13.291696,25.230495 11.500037,31.436501 z"
             style="fill:#404040;"/>
          </a>
         </g>
        </svg>
</svg>
