<?xml version="1.0" encoding="UTF-8" standalone="no"?>
<!DOCTYPE svg PUBLIC "-//W3C//DTD SVG 1.1//EN"
 "http://www.w3.org/Graphics/SVG/1.1/DTD/svg11.dtd">
<!-- Generated by graphviz version 2.38.0 (20140413.2041)
 -->
<!-- Title: prior_hessian::TruncatedDist::truncated Pages: 1 -->
<svg width="592pt" height="217pt"
 viewBox="0.00 0.00 592.00 217.00" xmlns="http://www.w3.org/2000/svg" xmlns:xlink="http://www.w3.org/1999/xlink">
<g id="graph0" class="graph" transform="scale(1 1) rotate(0) translate(4 213)">
<title>prior_hessian::TruncatedDist::truncated</title>
<polygon fill="white" stroke="none" points="-4,4 -4,-213 588,-213 588,4 -4,4"/>
<!-- Node1 -->
<g id="node1" class="node"><title>Node1</title>
<polygon fill="#bfbfbf" stroke="black" points="0,-127.5 0,-155.5 119,-155.5 119,-127.5 0,-127.5"/>
<text text-anchor="start" x="8" y="-144.3" font-family="Helvetica,sans-Serif" font-size="9.00">prior_hessian::Truncated</text>
<text text-anchor="middle" x="59.5" y="-134.3" font-family="Helvetica,sans-Serif" font-size="9.00">Dist::truncated</text>
</g>
<!-- Node2 -->
<g id="node2" class="node"><title>Node2</title>
<g id="a_node2"><a xlink:href="classprior__hessian_1_1TruncatedDist.html#aac8ee6fc71aefe73e71152b9d4a5529e" target="_top" xlink:title="prior_hessian::Truncated\lDist::sample">
<polygon fill="white" stroke="black" points="155,-160.5 155,-188.5 274,-188.5 274,-160.5 155,-160.5"/>
<text text-anchor="start" x="163" y="-177.3" font-family="Helvetica,sans-Serif" font-size="9.00">prior_hessian::Truncated</text>
<text text-anchor="middle" x="214.5" y="-167.3" font-family="Helvetica,sans-Serif" font-size="9.00">Dist::sample</text>
</a>
</g>
</g>
<!-- Node1&#45;&gt;Node2 -->
<g id="edge1" class="edge"><title>Node1&#45;&gt;Node2</title>
<path fill="none" stroke="midnightblue" d="M129.213,-156.32C137.803,-158.173 146.525,-160.055 154.941,-161.87"/>
<polygon fill="midnightblue" stroke="midnightblue" points="129.729,-152.851 119.216,-154.164 128.253,-159.694 129.729,-152.851"/>
</g>
<!-- Node4 -->
<g id="node4" class="node"><title>Node4</title>
<g id="a_node4"><a xlink:href="classprior__hessian_1_1TruncatedDist.html#a9189a3e17c4bf37c22aebe327b79dd63" target="_top" xlink:title="prior_hessian::Truncated\lDist::set_bounds">
<polygon fill="white" stroke="black" points="155,-94.5 155,-122.5 274,-122.5 274,-94.5 155,-94.5"/>
<text text-anchor="start" x="163" y="-111.3" font-family="Helvetica,sans-Serif" font-size="9.00">prior_hessian::Truncated</text>
<text text-anchor="middle" x="214.5" y="-101.3" font-family="Helvetica,sans-Serif" font-size="9.00">Dist::set_bounds</text>
</a>
</g>
</g>
<!-- Node1&#45;&gt;Node4 -->
<g id="edge3" class="edge"><title>Node1&#45;&gt;Node4</title>
<path fill="none" stroke="midnightblue" d="M129.213,-126.68C137.803,-124.827 146.525,-122.945 154.941,-121.13"/>
<polygon fill="midnightblue" stroke="midnightblue" points="128.253,-123.306 119.216,-128.836 129.729,-130.149 128.253,-123.306"/>
</g>
<!-- Node3 -->
<g id="node3" class="node"><title>Node3</title>
<g id="a_node3"><a xlink:href="classprior__hessian_1_1TruncatedDist.html#a566af94b4be2dcc02bee64a33c936015" target="_top" xlink:title="prior_hessian::Truncated\lDist::median">
<polygon fill="white" stroke="black" points="310,-180.5 310,-208.5 429,-208.5 429,-180.5 310,-180.5"/>
<text text-anchor="start" x="318" y="-197.3" font-family="Helvetica,sans-Serif" font-size="9.00">prior_hessian::Truncated</text>
<text text-anchor="middle" x="369.5" y="-187.3" font-family="Helvetica,sans-Serif" font-size="9.00">Dist::median</text>
</a>
</g>
</g>
<!-- Node2&#45;&gt;Node3 -->
<g id="edge2" class="edge"><title>Node2&#45;&gt;Node3</title>
<path fill="none" stroke="midnightblue" d="M284.213,-183.482C292.803,-184.605 301.525,-185.745 309.941,-186.845"/>
<polygon fill="midnightblue" stroke="midnightblue" points="284.586,-180.001 274.216,-182.175 283.678,-186.942 284.586,-180.001"/>
</g>
<!-- Node5 -->
<g id="node5" class="node"><title>Node5</title>
<g id="a_node5"><a xlink:href="classprior__hessian_1_1TruncatedDist.html#a05934e74d38db5bd77df1609f43c7d71" target="_top" xlink:title="prior_hessian::Truncated\lDist::operator!=">
<polygon fill="white" stroke="black" points="465,-94.5 465,-122.5 584,-122.5 584,-94.5 465,-94.5"/>
<text text-anchor="start" x="473" y="-111.3" font-family="Helvetica,sans-Serif" font-size="9.00">prior_hessian::Truncated</text>
<text text-anchor="middle" x="524.5" y="-101.3" font-family="Helvetica,sans-Serif" font-size="9.00">Dist::operator!=</text>
</a>
</g>
</g>
<!-- Node4&#45;&gt;Node5 -->
<g id="edge4" class="edge"><title>Node4&#45;&gt;Node5</title>
<path fill="none" stroke="midnightblue" d="M271.151,-125.074C283.809,-128.159 297.277,-130.91 310,-132.5 362.48,-139.06 376.52,-139.06 429,-132.5 445.125,-130.484 462.445,-126.606 477.796,-122.544"/>
<polygon fill="midnightblue" stroke="midnightblue" points="271.758,-121.617 261.204,-122.544 270.033,-128.401 271.758,-121.617"/>
</g>
<!-- Node6 -->
<g id="node6" class="node"><title>Node6</title>
<g id="a_node6"><a xlink:href="classprior__hessian_1_1TruncatedDist.html#a21ef557361b62e4c657154d12cb032c2" target="_top" xlink:title="prior_hessian::Truncated\lDist::set_lbound">
<polygon fill="white" stroke="black" points="310,-94.5 310,-122.5 429,-122.5 429,-94.5 310,-94.5"/>
<text text-anchor="start" x="318" y="-111.3" font-family="Helvetica,sans-Serif" font-size="9.00">prior_hessian::Truncated</text>
<text text-anchor="middle" x="369.5" y="-101.3" font-family="Helvetica,sans-Serif" font-size="9.00">Dist::set_lbound</text>
</a>
</g>
</g>
<!-- Node4&#45;&gt;Node6 -->
<g id="edge5" class="edge"><title>Node4&#45;&gt;Node6</title>
<path fill="none" stroke="midnightblue" d="M284.493,-108.5C292.993,-108.5 301.617,-108.5 309.941,-108.5"/>
<polygon fill="midnightblue" stroke="midnightblue" points="284.216,-105 274.216,-108.5 284.216,-112 284.216,-105"/>
</g>
<!-- Node7 -->
<g id="node7" class="node"><title>Node7</title>
<g id="a_node7"><a xlink:href="classprior__hessian_1_1TruncatedDist.html#ac2d919896743958e03a188b5dde6661e" target="_top" xlink:title="prior_hessian::Truncated\lDist::set_ubound">
<polygon fill="white" stroke="black" points="310,-47.5 310,-75.5 429,-75.5 429,-47.5 310,-47.5"/>
<text text-anchor="start" x="318" y="-64.3" font-family="Helvetica,sans-Serif" font-size="9.00">prior_hessian::Truncated</text>
<text text-anchor="middle" x="369.5" y="-54.3" font-family="Helvetica,sans-Serif" font-size="9.00">Dist::set_ubound</text>
</a>
</g>
</g>
<!-- Node4&#45;&gt;Node7 -->
<g id="edge7" class="edge"><title>Node4&#45;&gt;Node7</title>
<path fill="none" stroke="midnightblue" d="M271.207,-91.3875C288.192,-86.1699 306.657,-80.4976 322.891,-75.5106"/>
<polygon fill="midnightblue" stroke="midnightblue" points="269.936,-88.1162 261.405,-94.3985 271.992,-94.8076 269.936,-88.1162"/>
</g>
<!-- Node8 -->
<g id="node8" class="node"><title>Node8</title>
<g id="a_node8"><a xlink:href="classprior__hessian_1_1TruncatedDist.html#a645357d7c21e4aaa39764ca122b1f7c4" target="_top" xlink:title="prior_hessian::Truncated\lDist::TruncatedDist">
<polygon fill="white" stroke="black" points="310,-0.5 310,-28.5 429,-28.5 429,-0.5 310,-0.5"/>
<text text-anchor="start" x="318" y="-17.3" font-family="Helvetica,sans-Serif" font-size="9.00">prior_hessian::Truncated</text>
<text text-anchor="middle" x="369.5" y="-7.3" font-family="Helvetica,sans-Serif" font-size="9.00">Dist::TruncatedDist</text>
</a>
</g>
</g>
<!-- Node4&#45;&gt;Node8 -->
<g id="edge9" class="edge"><title>Node4&#45;&gt;Node8</title>
<path fill="none" stroke="midnightblue" d="M239.475,-87.6048C257.866,-72.3133 284.367,-51.8206 310,-37.5 315.812,-34.2533 322.175,-31.248 328.497,-28.5533"/>
<polygon fill="midnightblue" stroke="midnightblue" points="237.015,-85.1008 231.628,-94.2238 241.529,-90.4514 237.015,-85.1008"/>
</g>
<!-- Node6&#45;&gt;Node5 -->
<g id="edge6" class="edge"><title>Node6&#45;&gt;Node5</title>
<path fill="none" stroke="midnightblue" d="M439.493,-108.5C447.993,-108.5 456.617,-108.5 464.941,-108.5"/>
<polygon fill="midnightblue" stroke="midnightblue" points="439.216,-105 429.216,-108.5 439.216,-112 439.216,-105"/>
</g>
<!-- Node7&#45;&gt;Node5 -->
<g id="edge8" class="edge"><title>Node7&#45;&gt;Node5</title>
<path fill="none" stroke="midnightblue" d="M426.207,-78.6125C443.192,-83.8301 461.657,-89.5024 477.891,-94.4894"/>
<polygon fill="midnightblue" stroke="midnightblue" points="426.992,-75.1924 416.405,-75.6015 424.936,-81.8838 426.992,-75.1924"/>
</g>
</g>
</svg>
