<?xml version="1.0" encoding="UTF-8" standalone="no"?>
<!DOCTYPE svg PUBLIC "-//W3C//DTD SVG 1.1//EN"
 "http://www.w3.org/Graphics/SVG/1.1/DTD/svg11.dtd">
<!-- Generated by graphviz version 2.38.0 (20140413.2041)
 -->
<!-- Title: prior_hessian::NormalDist::set_sigma Pages: 1 -->
<!--zoomable 518 -->
<svg id="main" version="1.1" xmlns="http://www.w3.org/2000/svg" xmlns:xlink="http://www.w3.org/1999/xlink" xml:space="preserve" onload="init(evt)">
<style type="text/css"><![CDATA[
.edge:hover path { stroke: red; }
.edge:hover polygon { stroke: red; fill: red; }
]]></style>
<script type="text/javascript"><![CDATA[
var edges = document.getElementsByTagName('g');
if (edges && edges.length) {
  for (var i=0;i<edges.length;i++) {
    if (edges[i].id.substr(0,4)=='edge') {
      edges[i].setAttribute('class','edge');
    }
  }
}
]]></script>
        <defs>
                <circle id="rim" cx="0" cy="0" r="7"/>
                <circle id="rim2" cx="0" cy="0" r="3.5"/>
                <g id="zoomPlus">
                        <use xlink:href="#rim" fill="#404040">
                                <set attributeName="fill" to="#808080" begin="zoomplus.mouseover" end="zoomplus.mouseout"/>
                        </use>
                        <path d="M-4,0h8M0,-4v8" fill="none" stroke="white" stroke-width="1.5" pointer-events="none"/>
                </g>
                <g id="zoomMin">
                        <use xlink:href="#rim" fill="#404040">
                                <set attributeName="fill" to="#808080" begin="zoomminus.mouseover" end="zoomminus.mouseout"/>
                        </use>
                        <path d="M-4,0h8" fill="none" stroke="white" stroke-width="1.5" pointer-events="none"/>
                </g>
                <g id="dirArrow">
                        <path fill="none" stroke="white" stroke-width="1.5" d="M0,-3.0v7 M-2.5,-0.5L0,-3.0L2.5,-0.5"/>
                </g>
               <g id="resetDef">
                       <use xlink:href="#rim2" fill="#404040">
                               <set attributeName="fill" to="#808080" begin="reset.mouseover" end="reset.mouseout"/>
                       </use>
               </g>
        </defs>

<script type="text/javascript">
var viewWidth = 622;
var viewHeight = 518;
var sectionId = 'dynsection-51';
</script>
<script xlink:href="svgpan.js"/>
<svg id="graph" class="graph">
<g id="viewport">
<title>prior_hessian::NormalDist::set_sigma</title>
<polygon fill="white" stroke="none" points="-4,4 -4,-513.565 618,-513.565 618,4 -4,4"/>
<!-- Node1 -->
<g id="node1" class="node"><title>Node1</title>
<polygon fill="#bfbfbf" stroke="black" points="0,-248.5 0,-276.5 123,-276.5 123,-248.5 0,-248.5"/>
<text text-anchor="start" x="8" y="-265.3" font-family="Helvetica,sans-Serif" font-size="9.00">prior_hessian::NormalDist</text>
<text text-anchor="middle" x="61.5" y="-255.3" font-family="Helvetica,sans-Serif" font-size="9.00">::set_sigma</text>
</g>
<!-- Node2 -->
<g id="node2" class="node"><title>Node2</title>
<g id="a_node2"><a xlink:href="classprior__hessian_1_1NormalDist.html#a91ba326ab256fdbf6491e8caedf33f48" target="_top" xlink:title="prior_hessian::NormalDist\l::set_param">
<polygon fill="white" stroke="black" points="159,-410.5 159,-438.5 282,-438.5 282,-410.5 159,-410.5"/>
<text text-anchor="start" x="167" y="-427.3" font-family="Helvetica,sans-Serif" font-size="9.00">prior_hessian::NormalDist</text>
<text text-anchor="middle" x="220.5" y="-417.3" font-family="Helvetica,sans-Serif" font-size="9.00">::set_param</text>
</a>
</g>
</g>
<!-- Node1&#45;&gt;Node2 -->
<g id="edge1" class="edge"><title>Node1&#45;&gt;Node2</title>
<path fill="none" stroke="midnightblue" d="M83.4047,-284.07C116.04,-317.745 178.206,-381.891 205.762,-410.324"/>
<polygon fill="midnightblue" stroke="midnightblue" points="85.6308,-281.338 76.1581,-276.593 80.6041,-286.21 85.6308,-281.338"/>
</g>
<!-- Node4 -->
<g id="node4" class="node"><title>Node4</title>
<g id="a_node4"><a xlink:href="classprior__hessian_1_1NormalDist.html#a352979a2485cd990786ae53db6d64123" target="_top" xlink:title="prior_hessian::NormalDist\l::set_params">
<polygon fill="white" stroke="black" points="159,-71.5 159,-99.5 282,-99.5 282,-71.5 159,-71.5"/>
<text text-anchor="start" x="167" y="-88.3" font-family="Helvetica,sans-Serif" font-size="9.00">prior_hessian::NormalDist</text>
<text text-anchor="middle" x="220.5" y="-78.3" font-family="Helvetica,sans-Serif" font-size="9.00">::set_params</text>
</a>
</g>
</g>
<!-- Node1&#45;&gt;Node4 -->
<g id="edge3" class="edge"><title>Node1&#45;&gt;Node4</title>
<path fill="none" stroke="midnightblue" d="M81.8988,-240.63C114.519,-203.854 179.473,-130.626 206.858,-99.753"/>
<polygon fill="midnightblue" stroke="midnightblue" points="79.1,-238.511 75.0826,-248.315 84.3368,-243.156 79.1,-238.511"/>
</g>
<!-- Node9 -->
<g id="node9" class="node"><title>Node9</title>
<g id="a_node9"><a xlink:href="classprior__hessian_1_1NormalDist.html#adfc5ab11dc02672d9ef08eda487f97a7" target="_top" xlink:title="prior_hessian::NormalDist\l::sigma">
<polygon fill="white" stroke="black" points="159,-248.5 159,-276.5 282,-276.5 282,-248.5 159,-248.5"/>
<text text-anchor="start" x="167" y="-265.3" font-family="Helvetica,sans-Serif" font-size="9.00">prior_hessian::NormalDist</text>
<text text-anchor="middle" x="220.5" y="-255.3" font-family="Helvetica,sans-Serif" font-size="9.00">::sigma</text>
</a>
</g>
</g>
<!-- Node1&#45;&gt;Node9 -->
<g id="edge9" class="edge"><title>Node1&#45;&gt;Node9</title>
<path fill="none" stroke="midnightblue" d="M133.21,-262.5C141.807,-262.5 150.53,-262.5 158.961,-262.5"/>
<polygon fill="midnightblue" stroke="midnightblue" points="133.2,-259 123.2,-262.5 133.2,-266 133.2,-259"/>
</g>
<!-- Node3 -->
<g id="node3" class="node"><title>Node3</title>
<g id="a_node3"><a xlink:href="classprior__hessian_1_1NormalDist.html#ade1454cb5b7e913871723f174acd9dcc" target="_top" xlink:title="prior_hessian::NormalDist\l::operator!=">
<polygon fill="white" stroke="black" points="491,-460.5 491,-488.5 614,-488.5 614,-460.5 491,-460.5"/>
<text text-anchor="start" x="499" y="-477.3" font-family="Helvetica,sans-Serif" font-size="9.00">prior_hessian::NormalDist</text>
<text text-anchor="middle" x="552.5" y="-467.3" font-family="Helvetica,sans-Serif" font-size="9.00">::operator!=</text>
</a>
</g>
</g>
<!-- Node2&#45;&gt;Node3 -->
<g id="edge2" class="edge"><title>Node2&#45;&gt;Node3</title>
<path fill="none" stroke="midnightblue" d="M241.204,-446.022C259.196,-463.955 287.561,-488.172 318,-498.5 383.219,-520.628 464.089,-503.081 511.523,-488.598"/>
<polygon fill="midnightblue" stroke="midnightblue" points="243.636,-443.503 234.152,-438.78 238.621,-448.387 243.636,-443.503"/>
</g>
<!-- Node5 -->
<g id="node5" class="node"><title>Node5</title>
<g id="a_node5"><a xlink:href="classprior__hessian_1_1NormalDist.html#a73a47151970398a524eeaf0983463932" target="_top" xlink:title="prior_hessian::NormalDist\l::NormalDist">
<polygon fill="white" stroke="black" points="325,-0.5 325,-28.5 448,-28.5 448,-0.5 325,-0.5"/>
<text text-anchor="start" x="333" y="-17.3" font-family="Helvetica,sans-Serif" font-size="9.00">prior_hessian::NormalDist</text>
<text text-anchor="middle" x="386.5" y="-7.3" font-family="Helvetica,sans-Serif" font-size="9.00">::NormalDist</text>
</a>
</g>
</g>
<!-- Node4&#45;&gt;Node5 -->
<g id="edge4" class="edge"><title>Node4&#45;&gt;Node5</title>
<path fill="none" stroke="midnightblue" d="M256.688,-66.5848C274.75,-57.2401 297.263,-46.1452 318,-37.5 325.542,-34.3558 333.682,-31.3041 341.609,-28.5062"/>
<polygon fill="midnightblue" stroke="midnightblue" points="254.925,-63.5571 247.682,-71.2898 258.166,-69.7615 254.925,-63.5571"/>
</g>
<!-- Node6 -->
<g id="node6" class="node"><title>Node6</title>
<g id="a_node6"><a xlink:href="classprior__hessian_1_1NormalDist.html#aaea8964b1f62318c047e3c75ac104436" target="_top" xlink:title="prior_hessian::NormalDist\l::params">
<polygon fill="white" stroke="black" points="325,-47.5 325,-75.5 448,-75.5 448,-47.5 325,-47.5"/>
<text text-anchor="start" x="333" y="-64.3" font-family="Helvetica,sans-Serif" font-size="9.00">prior_hessian::NormalDist</text>
<text text-anchor="middle" x="386.5" y="-54.3" font-family="Helvetica,sans-Serif" font-size="9.00">::params</text>
</a>
</g>
</g>
<!-- Node4&#45;&gt;Node6 -->
<g id="edge5" class="edge"><title>Node4&#45;&gt;Node6</title>
<path fill="none" stroke="midnightblue" d="M292.041,-75.1769C302.974,-73.5769 314.185,-71.9364 324.874,-70.3721"/>
<polygon fill="midnightblue" stroke="midnightblue" points="291.489,-71.7203 282.102,-76.6315 292.503,-78.6465 291.489,-71.7203"/>
</g>
<!-- Node8 -->
<g id="node8" class="node"><title>Node8</title>
<g id="a_node8"><a xlink:href="classprior__hessian_1_1NormalDist.html#a78eea7f027f4dc2024adc00f7cb8cce1" target="_top" xlink:title="prior_hessian::NormalDist\l::set_params_iter">
<polygon fill="white" stroke="black" points="325,-94.5 325,-122.5 448,-122.5 448,-94.5 325,-94.5"/>
<text text-anchor="start" x="333" y="-111.3" font-family="Helvetica,sans-Serif" font-size="9.00">prior_hessian::NormalDist</text>
<text text-anchor="middle" x="386.5" y="-101.3" font-family="Helvetica,sans-Serif" font-size="9.00">::set_params_iter</text>
</a>
</g>
</g>
<!-- Node4&#45;&gt;Node8 -->
<g id="edge7" class="edge"><title>Node4&#45;&gt;Node8</title>
<path fill="none" stroke="midnightblue" d="M292.041,-95.393C302.974,-96.9263 314.185,-98.4984 324.874,-99.9976"/>
<polygon fill="midnightblue" stroke="midnightblue" points="292.491,-91.9219 282.102,-93.999 291.519,-98.854 292.491,-91.9219"/>
</g>
<!-- Node7 -->
<g id="node7" class="node"><title>Node7</title>
<g id="a_node7"><a xlink:href="classprior__hessian_1_1NormalDist.html#a01e959b4aea2b94bc05fc42c9abeed3c" target="_top" xlink:title="prior_hessian::NormalDist\l::median">
<polygon fill="white" stroke="black" points="491,-178.5 491,-206.5 614,-206.5 614,-178.5 491,-178.5"/>
<text text-anchor="start" x="499" y="-195.3" font-family="Helvetica,sans-Serif" font-size="9.00">prior_hessian::NormalDist</text>
<text text-anchor="middle" x="552.5" y="-185.3" font-family="Helvetica,sans-Serif" font-size="9.00">::median</text>
</a>
</g>
</g>
<!-- Node6&#45;&gt;Node7 -->
<g id="edge6" class="edge"><title>Node6&#45;&gt;Node7</title>
<path fill="none" stroke="midnightblue" d="M447.417,-79.99C450.039,-81.3961 452.581,-82.8977 455,-84.5 493.992,-110.325 527.265,-155.636 542.546,-178.484"/>
<polygon fill="midnightblue" stroke="midnightblue" points="448.783,-76.7633 438.256,-75.5706 445.742,-83.068 448.783,-76.7633"/>
</g>
<!-- Node8&#45;&gt;Node7 -->
<g id="edge8" class="edge"><title>Node8&#45;&gt;Node7</title>
<path fill="none" stroke="midnightblue" d="M443.065,-126.248C447.15,-127.913 451.168,-129.667 455,-131.5 483.252,-145.01 513.389,-165.08 532.323,-178.466"/>
<polygon fill="midnightblue" stroke="midnightblue" points="444.059,-122.88 433.47,-122.534 441.532,-129.408 444.059,-122.88"/>
</g>
<!-- Node9&#45;&gt;Node6 -->
<g id="edge17" class="edge"><title>Node9&#45;&gt;Node6</title>
<path fill="none" stroke="midnightblue" d="M228.254,-238.479C240.153,-200.44 268.409,-126.373 318,-84.5 322.068,-81.0656 326.673,-78.136 331.521,-75.6385"/>
<polygon fill="midnightblue" stroke="midnightblue" points="224.86,-237.611 225.328,-248.196 231.563,-239.63 224.86,-237.611"/>
</g>
<!-- Node9&#45;&gt;Node8 -->
<g id="edge26" class="edge"><title>Node9&#45;&gt;Node8</title>
<path fill="none" stroke="midnightblue" d="M232.815,-239.425C248.227,-210.278 278.484,-160.442 318,-131.5 322.694,-128.062 327.94,-125.111 333.377,-122.584"/>
<polygon fill="midnightblue" stroke="midnightblue" points="229.631,-237.964 228.165,-248.457 235.854,-241.168 229.631,-237.964"/>
</g>
<!-- Node10 -->
<g id="node10" class="node"><title>Node10</title>
<g id="a_node10"><a xlink:href="classprior__hessian_1_1NormalDist.html#ab9b17827daed20f82cb7bc0e40fe62e4" target="_top" xlink:title="prior_hessian::NormalDist\l::icdf">
<polygon fill="white" stroke="black" points="325,-178.5 325,-206.5 448,-206.5 448,-178.5 325,-178.5"/>
<text text-anchor="start" x="333" y="-195.3" font-family="Helvetica,sans-Serif" font-size="9.00">prior_hessian::NormalDist</text>
<text text-anchor="middle" x="386.5" y="-185.3" font-family="Helvetica,sans-Serif" font-size="9.00">::icdf</text>
</a>
</g>
</g>
<!-- Node9&#45;&gt;Node10 -->
<g id="edge10" class="edge"><title>Node9&#45;&gt;Node10</title>
<path fill="none" stroke="midnightblue" d="M257.115,-243.834C275.121,-234.737 297.459,-223.963 318,-215.5 325.555,-212.387 333.701,-209.351 341.631,-206.558"/>
<polygon fill="midnightblue" stroke="midnightblue" points="255.446,-240.756 248.127,-248.417 258.625,-246.992 255.446,-240.756"/>
</g>
<!-- Node11 -->
<g id="node11" class="node"><title>Node11</title>
<g id="a_node11"><a xlink:href="classprior__hessian_1_1NormalDist.html#a7776d18fd17739446c2848a9452b81f7" target="_top" xlink:title="prior_hessian::NormalDist::llh">
<polygon fill="white" stroke="black" points="318,-141.5 318,-159.5 455,-159.5 455,-141.5 318,-141.5"/>
<text text-anchor="middle" x="386.5" y="-148.3" font-family="Helvetica,sans-Serif" font-size="9.00">prior_hessian::NormalDist::llh</text>
</a>
</g>
</g>
<!-- Node9&#45;&gt;Node11 -->
<g id="edge12" class="edge"><title>Node9&#45;&gt;Node11</title>
<path fill="none" stroke="midnightblue" d="M238.375,-240.468C255.977,-218.993 285.502,-186.954 318,-168.5 324.433,-164.847 331.633,-161.913 338.869,-159.562"/>
<polygon fill="midnightblue" stroke="midnightblue" points="235.537,-238.413 232.016,-248.406 241,-242.789 235.537,-238.413"/>
</g>
<!-- Node12 -->
<g id="node12" class="node"><title>Node12</title>
<g id="a_node12"><a xlink:href="classprior__hessian_1_1NormalDist.html#aa85e47b9c557fb7d9c19a3b5da5e0c44" target="_top" xlink:title="prior_hessian::NormalDist\l::param_ubound">
<polygon fill="white" stroke="black" points="325,-413.5 325,-441.5 448,-441.5 448,-413.5 325,-413.5"/>
<text text-anchor="start" x="333" y="-430.3" font-family="Helvetica,sans-Serif" font-size="9.00">prior_hessian::NormalDist</text>
<text text-anchor="middle" x="386.5" y="-420.3" font-family="Helvetica,sans-Serif" font-size="9.00">::param_ubound</text>
</a>
</g>
</g>
<!-- Node9&#45;&gt;Node12 -->
<g id="edge14" class="edge"><title>Node9&#45;&gt;Node12</title>
<path fill="none" stroke="midnightblue" d="M231.668,-286.142C246.325,-317.537 276.285,-372.712 318,-404.5 322.53,-407.952 327.611,-410.906 332.899,-413.429"/>
<polygon fill="midnightblue" stroke="midnightblue" points="234.769,-284.506 227.452,-276.844 228.394,-287.397 234.769,-284.506"/>
</g>
<!-- Node13 -->
<g id="node13" class="node"><title>Node13</title>
<g id="a_node13"><a xlink:href="classprior__hessian_1_1NormalDist.html#aa90f1b24ee10d8692ab29b2ab019d6f7" target="_top" xlink:title="prior_hessian::NormalDist\l::operator==">
<polygon fill="white" stroke="black" points="325,-460.5 325,-488.5 448,-488.5 448,-460.5 325,-460.5"/>
<text text-anchor="start" x="333" y="-477.3" font-family="Helvetica,sans-Serif" font-size="9.00">prior_hessian::NormalDist</text>
<text text-anchor="middle" x="386.5" y="-467.3" font-family="Helvetica,sans-Serif" font-size="9.00">::operator==</text>
</a>
</g>
</g>
<!-- Node9&#45;&gt;Node13 -->
<g id="edge15" class="edge"><title>Node9&#45;&gt;Node13</title>
<path fill="none" stroke="midnightblue" d="M230.898,-286.058C249.365,-331.328 290.939,-428.072 318,-451.5 322.025,-454.984 326.602,-457.947 331.432,-460.465"/>
<polygon fill="midnightblue" stroke="midnightblue" points="234.116,-284.681 227.12,-276.724 227.627,-287.307 234.116,-284.681"/>
</g>
<!-- Node14 -->
<g id="node14" class="node"><title>Node14</title>
<g id="a_node14"><a xlink:href="classprior__hessian_1_1NormalDist.html#a83016bf93c57e8acba0d749c2f7a0bac" target="_top" xlink:title="prior_hessian::NormalDist\l::get_param">
<polygon fill="white" stroke="black" points="325,-366.5 325,-394.5 448,-394.5 448,-366.5 325,-366.5"/>
<text text-anchor="start" x="333" y="-383.3" font-family="Helvetica,sans-Serif" font-size="9.00">prior_hessian::NormalDist</text>
<text text-anchor="middle" x="386.5" y="-373.3" font-family="Helvetica,sans-Serif" font-size="9.00">::get_param</text>
</a>
</g>
</g>
<!-- Node9&#45;&gt;Node14 -->
<g id="edge18" class="edge"><title>Node9&#45;&gt;Node14</title>
<path fill="none" stroke="midnightblue" d="M239,-284.33C256.887,-305.38 286.451,-336.855 318,-356.5 324.124,-360.313 330.937,-363.63 337.814,-366.481"/>
<polygon fill="midnightblue" stroke="midnightblue" points="241.607,-281.992 232.516,-276.551 236.23,-286.474 241.607,-281.992"/>
</g>
<!-- Node15 -->
<g id="node15" class="node"><title>Node15</title>
<g id="a_node15"><a xlink:href="classprior__hessian_1_1NormalDist.html#a1f75e2644054b23d804b7be394ed5a2b" target="_top" xlink:title="prior_hessian::NormalDist\l::sample">
<polygon fill="white" stroke="black" points="325,-319.5 325,-347.5 448,-347.5 448,-319.5 325,-319.5"/>
<text text-anchor="start" x="333" y="-336.3" font-family="Helvetica,sans-Serif" font-size="9.00">prior_hessian::NormalDist</text>
<text text-anchor="middle" x="386.5" y="-326.3" font-family="Helvetica,sans-Serif" font-size="9.00">::sample</text>
</a>
</g>
</g>
<!-- Node9&#45;&gt;Node15 -->
<g id="edge20" class="edge"><title>Node9&#45;&gt;Node15</title>
<path fill="none" stroke="midnightblue" d="M257.55,-281.245C275.5,-290.272 297.662,-300.963 318,-309.5 326.257,-312.966 335.209,-316.381 343.811,-319.499"/>
<polygon fill="midnightblue" stroke="midnightblue" points="259.081,-278.097 248.579,-276.696 255.915,-284.34 259.081,-278.097"/>
</g>
<!-- Node16 -->
<g id="node16" class="node"><title>Node16</title>
<g id="a_node16"><a xlink:href="classprior__hessian_1_1NormalDist.html#ab0fa4841ce15ec70c8a8d876e5ea890f" target="_top" xlink:title="prior_hessian::NormalDist\l::check_params_iter">
<polygon fill="white" stroke="black" points="325,-272.5 325,-300.5 448,-300.5 448,-272.5 325,-272.5"/>
<text text-anchor="start" x="333" y="-289.3" font-family="Helvetica,sans-Serif" font-size="9.00">prior_hessian::NormalDist</text>
<text text-anchor="middle" x="386.5" y="-279.3" font-family="Helvetica,sans-Serif" font-size="9.00">::check_params_iter</text>
</a>
</g>
</g>
<!-- Node9&#45;&gt;Node16 -->
<g id="edge22" class="edge"><title>Node9&#45;&gt;Node16</title>
<path fill="none" stroke="midnightblue" d="M292.041,-272.823C302.974,-274.423 314.185,-276.064 324.874,-277.628"/>
<polygon fill="midnightblue" stroke="midnightblue" points="292.503,-269.353 282.102,-271.369 291.489,-276.28 292.503,-269.353"/>
</g>
<!-- Node17 -->
<g id="node17" class="node"><title>Node17</title>
<g id="a_node17"><a xlink:href="classprior__hessian_1_1NormalDist.html#abf71571c6e5ed7c496f8a5ff556d998c" target="_top" xlink:title="prior_hessian::NormalDist\l::append_params_iter">
<polygon fill="white" stroke="black" points="325,-225.5 325,-253.5 448,-253.5 448,-225.5 325,-225.5"/>
<text text-anchor="start" x="333" y="-242.3" font-family="Helvetica,sans-Serif" font-size="9.00">prior_hessian::NormalDist</text>
<text text-anchor="middle" x="386.5" y="-232.3" font-family="Helvetica,sans-Serif" font-size="9.00">::append_params_iter</text>
</a>
</g>
</g>
<!-- Node9&#45;&gt;Node17 -->
<g id="edge24" class="edge"><title>Node9&#45;&gt;Node17</title>
<path fill="none" stroke="midnightblue" d="M292.041,-252.607C302.974,-251.074 314.185,-249.502 324.874,-248.002"/>
<polygon fill="midnightblue" stroke="midnightblue" points="291.519,-249.146 282.102,-254.001 292.491,-256.078 291.519,-249.146"/>
</g>
<!-- Node10&#45;&gt;Node7 -->
<g id="edge11" class="edge"><title>Node10&#45;&gt;Node7</title>
<path fill="none" stroke="midnightblue" d="M458.376,-192.5C469.203,-192.5 480.294,-192.5 490.874,-192.5"/>
<polygon fill="midnightblue" stroke="midnightblue" points="458.102,-189 448.102,-192.5 458.102,-196 458.102,-189"/>
</g>
<!-- Node11&#45;&gt;Node7 -->
<g id="edge13" class="edge"><title>Node11&#45;&gt;Node7</title>
<path fill="none" stroke="midnightblue" d="M432.404,-162C452.266,-167.086 475.807,-173.115 496.694,-178.464"/>
<polygon fill="midnightblue" stroke="midnightblue" points="433.238,-158.6 422.682,-159.51 431.501,-165.382 433.238,-158.6"/>
</g>
<!-- Node13&#45;&gt;Node3 -->
<g id="edge16" class="edge"><title>Node13&#45;&gt;Node3</title>
<path fill="none" stroke="midnightblue" d="M458.376,-474.5C469.203,-474.5 480.294,-474.5 490.874,-474.5"/>
<polygon fill="midnightblue" stroke="midnightblue" points="458.102,-471 448.102,-474.5 458.102,-478 458.102,-471"/>
</g>
<!-- Node14&#45;&gt;Node3 -->
<g id="edge19" class="edge"><title>Node14&#45;&gt;Node3</title>
<path fill="none" stroke="midnightblue" d="M442.443,-398.523C446.757,-400.394 450.992,-402.39 455,-404.5 485.218,-420.409 516.571,-444.89 535.043,-460.284"/>
<polygon fill="midnightblue" stroke="midnightblue" points="443.507,-395.177 432.926,-394.631 440.857,-401.656 443.507,-395.177"/>
</g>
<!-- Node15&#45;&gt;Node7 -->
<g id="edge21" class="edge"><title>Node15&#45;&gt;Node7</title>
<path fill="none" stroke="midnightblue" d="M446.021,-315.027C449.147,-313.327 452.164,-311.488 455,-309.5 495.534,-281.087 528.577,-231.307 543.271,-206.866"/>
<polygon fill="midnightblue" stroke="midnightblue" points="444.425,-311.911 436.984,-319.454 447.504,-318.197 444.425,-311.911"/>
</g>
<!-- Node16&#45;&gt;Node7 -->
<g id="edge23" class="edge"><title>Node16&#45;&gt;Node7</title>
<path fill="none" stroke="midnightblue" d="M442.443,-268.477C446.757,-266.606 450.992,-264.61 455,-262.5 485.218,-246.591 516.571,-222.11 535.043,-206.716"/>
<polygon fill="midnightblue" stroke="midnightblue" points="440.857,-265.344 432.926,-272.369 443.507,-271.823 440.857,-265.344"/>
</g>
<!-- Node17&#45;&gt;Node7 -->
<g id="edge25" class="edge"><title>Node17&#45;&gt;Node7</title>
<path fill="none" stroke="midnightblue" d="M446.447,-222.607C464.863,-217.329 484.967,-211.567 502.612,-206.511"/>
<polygon fill="midnightblue" stroke="midnightblue" points="445.354,-219.279 436.705,-225.398 447.283,-226.008 445.354,-219.279"/>
</g>
</g>
</svg>
        <g id="navigator" transform="translate(0 0)" fill="#404254">
                <rect fill="#f2f5e9" fill-opacity="0.5" stroke="#606060" stroke-width=".5" x="0" y="0" width="60" height="60"/>
                <use id="zoomplus" xlink:href="#zoomPlus" x="17" y="9" onmousedown="handleZoom(evt,'in')"/>
                <use id="zoomminus" xlink:href="#zoomMin" x="42" y="9" onmousedown="handleZoom(evt,'out')"/>
                <use id="reset" xlink:href="#resetDef" x="30" y="36" onmousedown="handleReset()"/>
                <g id="arrowUp" xlink:href="#dirArrow" transform="translate(30 24)" onmousedown="handlePan(0,-1)">
                  <use xlink:href="#rim" fill="#404040">
                        <set attributeName="fill" to="#808080" begin="arrowUp.mouseover" end="arrowUp.mouseout"/>
                  </use>
                  <path fill="none" stroke="white" stroke-width="1.5" d="M0,-3.0v7 M-2.5,-0.5L0,-3.0L2.5,-0.5"/>
                </g>
                <g id="arrowRight" xlink:href="#dirArrow" transform="rotate(90) translate(36 -43)" onmousedown="handlePan(1,0)">
                  <use xlink:href="#rim" fill="#404040">
                        <set attributeName="fill" to="#808080" begin="arrowRight.mouseover" end="arrowRight.mouseout"/>
                  </use>
                  <path fill="none" stroke="white" stroke-width="1.5" d="M0,-3.0v7 M-2.5,-0.5L0,-3.0L2.5,-0.5"/>
                </g>
                <g id="arrowDown" xlink:href="#dirArrow" transform="rotate(180) translate(-30 -48)" onmousedown="handlePan(0,1)">
                  <use xlink:href="#rim" fill="#404040">
                        <set attributeName="fill" to="#808080" begin="arrowDown.mouseover" end="arrowDown.mouseout"/>
                  </use>
                  <path fill="none" stroke="white" stroke-width="1.5" d="M0,-3.0v7 M-2.5,-0.5L0,-3.0L2.5,-0.5"/>
                </g>
                <g id="arrowLeft" xlink:href="#dirArrow" transform="rotate(270) translate(-36 17)" onmousedown="handlePan(-1,0)">
                  <use xlink:href="#rim" fill="#404040">
                        <set attributeName="fill" to="#808080" begin="arrowLeft.mouseover" end="arrowLeft.mouseout"/>
                  </use>
                  <path fill="none" stroke="white" stroke-width="1.5" d="M0,-3.0v7 M-2.5,-0.5L0,-3.0L2.5,-0.5"/>
                </g>
        </g>
        <svg viewBox="0 0 15 15" width="100%" height="30px" preserveAspectRatio="xMaxYMin meet">
         <g id="arrow_out" transform="scale(0.3 0.3)">
          <a xlink:href="classprior__hessian_1_1NormalDist_aa72eaaeda9a2fe0475ee78f08359d096_icgraph_org.svg" target="_base">
           <rect id="button" ry="5" rx="5" y="6" x="6" height="38" width="38"
                fill="#f2f5e9" fill-opacity="0.5" stroke="#606060" stroke-width="1.0"/>
           <path id="arrow"
             d="M 11.500037,31.436501 C 11.940474,20.09759 22.043105,11.32322 32.158766,21.979434 L 37.068811,17.246167 C 37.068811,17.246167 37.088388,32 37.088388,32 L 22.160133,31.978069 C 22.160133,31.978069 26.997745,27.140456 26.997745,27.140456 C 18.528582,18.264221 13.291696,25.230495 11.500037,31.436501 z"
             style="fill:#404040;"/>
          </a>
         </g>
        </svg>
</svg>
