<?xml version="1.0" encoding="UTF-8" standalone="no"?>
<!DOCTYPE svg PUBLIC "-//W3C//DTD SVG 1.1//EN"
 "http://www.w3.org/Graphics/SVG/1.1/DTD/svg11.dtd">
<!-- Generated by graphviz version 2.38.0 (20140413.2041)
 -->
<!-- Title: prior_hessian::mcmc::MCMCData&lt; Ndim &gt; Pages: 1 -->
<svg width="146pt" height="122pt"
 viewBox="0.00 0.00 145.50 122.00" xmlns="http://www.w3.org/2000/svg" xmlns:xlink="http://www.w3.org/1999/xlink">
<g id="graph0" class="graph" transform="scale(1 1) rotate(0) translate(4 118)">
<title>prior_hessian::mcmc::MCMCData&lt; Ndim &gt;</title>
<polygon fill="white" stroke="none" points="-4,4 -4,-118 141.5,-118 141.5,4 -4,4"/>
<!-- Node1 -->
<g id="node1" class="node"><title>Node1</title>
<polygon fill="#bfbfbf" stroke="black" points="4.5,-85.5 4.5,-113.5 110.5,-113.5 110.5,-85.5 4.5,-85.5"/>
<text text-anchor="start" x="12.5" y="-102.3" font-family="Helvetica,sans-Serif" font-size="9.00">prior_hessian::mcmc</text>
<text text-anchor="middle" x="57.5" y="-92.3" font-family="Helvetica,sans-Serif" font-size="9.00">::MCMCData&lt; Ndim &gt;</text>
</g>
<!-- Node2 -->
<g id="node2" class="node"><title>Node2</title>
<g id="a_node2"><a xlink:href="classprior__hessian_1_1mcmc_1_1MCMCData.html" target="_top" xlink:title="prior_hessian::mcmc\l::MCMCData\&lt; Dist::num\l_dim()\&gt;">
<polygon fill="white" stroke="black" points="-7.10543e-15,-0.5 -7.10543e-15,-38.5 115,-38.5 115,-0.5 -7.10543e-15,-0.5"/>
<text text-anchor="start" x="8" y="-27.3" font-family="Helvetica,sans-Serif" font-size="9.00">prior_hessian::mcmc</text>
<text text-anchor="start" x="8" y="-17.3" font-family="Helvetica,sans-Serif" font-size="9.00">::MCMCData&lt; Dist::num</text>
<text text-anchor="middle" x="57.5" y="-7.3" font-family="Helvetica,sans-Serif" font-size="9.00">_dim()&gt;</text>
</a>
</g>
</g>
<!-- Node1&#45;&gt;Node2 -->
<g id="edge1" class="edge"><title>Node1&#45;&gt;Node2</title>
<path fill="none" stroke="orange" stroke-dasharray="5,2" d="M57.5,-74.9773C57.5,-63.3697 57.5,-49.5786 57.5,-38.7768"/>
<polygon fill="orange" stroke="orange" points="54.0001,-75.2683 57.5,-85.2684 61.0001,-75.2684 54.0001,-75.2683"/>
<text text-anchor="middle" x="97.5" y="-59.8" font-family="Helvetica,sans-Serif" font-size="9.00"> &lt; Dist::num_dim()&gt;</text>
</g>
</g>
</svg>
