<?xml version="1.0" encoding="UTF-8" standalone="no"?>
<!DOCTYPE svg PUBLIC "-//W3C//DTD SVG 1.1//EN"
 "http://www.w3.org/Graphics/SVG/1.1/DTD/svg11.dtd">
<!-- Generated by graphviz version 2.38.0 (20140413.2041)
 -->
<!-- Title: prior_hessian::CompositeDist::params_components Pages: 1 -->
<!--zoomable 656 -->
<svg id="main" version="1.1" xmlns="http://www.w3.org/2000/svg" xmlns:xlink="http://www.w3.org/1999/xlink" xml:space="preserve" onload="init(evt)">
<style type="text/css"><![CDATA[
.edge:hover path { stroke: red; }
.edge:hover polygon { stroke: red; fill: red; }
]]></style>
<script type="text/javascript"><![CDATA[
var edges = document.getElementsByTagName('g');
if (edges && edges.length) {
  for (var i=0;i<edges.length;i++) {
    if (edges[i].id.substr(0,4)=='edge') {
      edges[i].setAttribute('class','edge');
    }
  }
}
]]></script>
        <defs>
                <circle id="rim" cx="0" cy="0" r="7"/>
                <circle id="rim2" cx="0" cy="0" r="3.5"/>
                <g id="zoomPlus">
                        <use xlink:href="#rim" fill="#404040">
                                <set attributeName="fill" to="#808080" begin="zoomplus.mouseover" end="zoomplus.mouseout"/>
                        </use>
                        <path d="M-4,0h8M0,-4v8" fill="none" stroke="white" stroke-width="1.5" pointer-events="none"/>
                </g>
                <g id="zoomMin">
                        <use xlink:href="#rim" fill="#404040">
                                <set attributeName="fill" to="#808080" begin="zoomminus.mouseover" end="zoomminus.mouseout"/>
                        </use>
                        <path d="M-4,0h8" fill="none" stroke="white" stroke-width="1.5" pointer-events="none"/>
                </g>
                <g id="dirArrow">
                        <path fill="none" stroke="white" stroke-width="1.5" d="M0,-3.0v7 M-2.5,-0.5L0,-3.0L2.5,-0.5"/>
                </g>
               <g id="resetDef">
                       <use xlink:href="#rim2" fill="#404040">
                               <set attributeName="fill" to="#808080" begin="reset.mouseover" end="reset.mouseout"/>
                       </use>
               </g>
        </defs>

<script type="text/javascript">
var viewWidth = 1112;
var viewHeight = 656;
var sectionId = 'dynsection-62';
</script>
<script xlink:href="svgpan.js"/>
<svg id="graph" class="graph">
<g id="viewport">
<title>prior_hessian::CompositeDist::params_components</title>
<polygon fill="white" stroke="none" points="-4,4 -4,-651.59 1108,-651.59 1108,4 -4,4"/>
<!-- Node1 -->
<g id="node1" class="node"><title>Node1</title>
<polygon fill="#bfbfbf" stroke="black" points="0,-274.09 0,-302.09 123,-302.09 123,-274.09 0,-274.09"/>
<text text-anchor="start" x="8" y="-290.89" font-family="Helvetica,sans-Serif" font-size="9.00">prior_hessian::Composite</text>
<text text-anchor="middle" x="61.5" y="-280.89" font-family="Helvetica,sans-Serif" font-size="9.00">Dist::params_components</text>
</g>
<!-- Node2 -->
<g id="node2" class="node"><title>Node2</title>
<g id="a_node2"><a xlink:href="classprior__hessian_1_1CompositeDist.html#af8d9b349da5f5842e04f0ca7443c7363" target="_top" xlink:title="prior_hessian::Composite\lDist::get_param_index">
<polygon fill="white" stroke="black" points="159,-404.09 159,-432.09 281,-432.09 281,-404.09 159,-404.09"/>
<text text-anchor="start" x="167" y="-420.89" font-family="Helvetica,sans-Serif" font-size="9.00">prior_hessian::Composite</text>
<text text-anchor="middle" x="220" y="-410.89" font-family="Helvetica,sans-Serif" font-size="9.00">Dist::get_param_index</text>
</a>
</g>
</g>
<!-- Node1&#45;&gt;Node2 -->
<g id="edge1" class="edge"><title>Node1&#45;&gt;Node2</title>
<path fill="none" stroke="midnightblue" d="M71.8462,-302.172C87.4401,-324.685 120.844,-368.902 159,-395.09 161.133,-396.553 163.371,-397.941 165.679,-399.253"/>
<polygon fill="midnightblue" stroke="midnightblue" points="164.35,-402.505 174.846,-403.95 167.542,-396.275 164.35,-402.505"/>
</g>
<!-- Node3 -->
<g id="node3" class="node"><title>Node3</title>
<g id="a_node3"><a xlink:href="classprior__hessian_1_1CompositeDist.html#a25183fbeb28704eca9f7fe31dccb7640" target="_top" xlink:title="prior_hessian::Composite\lDist::get_param_value">
<polygon fill="white" stroke="black" points="475,-527.09 475,-555.09 597,-555.09 597,-527.09 475,-527.09"/>
<text text-anchor="start" x="483" y="-543.89" font-family="Helvetica,sans-Serif" font-size="9.00">prior_hessian::Composite</text>
<text text-anchor="middle" x="536" y="-533.89" font-family="Helvetica,sans-Serif" font-size="9.00">Dist::get_param_value</text>
</a>
</g>
</g>
<!-- Node1&#45;&gt;Node3 -->
<g id="edge2" class="edge"><title>Node1&#45;&gt;Node3</title>
<path fill="none" stroke="midnightblue" d="M123.086,-296.093C226.456,-309.979 426.986,-338.016 439,-348.09 476.48,-379.518 453.145,-408.331 475,-452.09 486.983,-476.082 504.455,-501.225 517.457,-518.644"/>
<polygon fill="midnightblue" stroke="midnightblue" points="514.965,-521.149 523.797,-527.001 520.542,-516.919 514.965,-521.149"/>
</g>
<!-- Node5 -->
<g id="node5" class="node"><title>Node5</title>
<g id="a_node5"><a xlink:href="classprior__hessian_1_1CompositeDist.html#a6216610bfbcc92a40c7fa43ae60bd5af" target="_top" xlink:title="prior_hessian::Composite\lDist::has_param">
<polygon fill="white" stroke="black" points="159,-145.09 159,-173.09 281,-173.09 281,-145.09 159,-145.09"/>
<text text-anchor="start" x="167" y="-161.89" font-family="Helvetica,sans-Serif" font-size="9.00">prior_hessian::Composite</text>
<text text-anchor="middle" x="220" y="-151.89" font-family="Helvetica,sans-Serif" font-size="9.00">Dist::has_param</text>
</a>
</g>
</g>
<!-- Node1&#45;&gt;Node5 -->
<g id="edge4" class="edge"><title>Node1&#45;&gt;Node5</title>
<path fill="none" stroke="midnightblue" d="M73.3874,-273.964C90.0357,-253.086 123.63,-213.701 159,-188.09 164.104,-184.394 169.753,-180.958 175.483,-177.838"/>
<polygon fill="midnightblue" stroke="midnightblue" points="177.197,-180.893 184.487,-173.205 173.994,-174.668 177.197,-180.893"/>
</g>
<!-- Node6 -->
<g id="node6" class="node"><title>Node6</title>
<g id="a_node6"><a xlink:href="classprior__hessian_1_1CompositeDist.html#ae7ca30fd19fb59ebe241873443b9faed" target="_top" xlink:title="prior_hessian::Composite\lDist::param_names">
<polygon fill="white" stroke="black" points="637.5,-3.08962 637.5,-31.0896 759.5,-31.0896 759.5,-3.08962 637.5,-3.08962"/>
<text text-anchor="start" x="645.5" y="-19.8896" font-family="Helvetica,sans-Serif" font-size="9.00">prior_hessian::Composite</text>
<text text-anchor="middle" x="698.5" y="-9.88962" font-family="Helvetica,sans-Serif" font-size="9.00">Dist::param_names</text>
</a>
</g>
</g>
<!-- Node1&#45;&gt;Node6 -->
<g id="edge5" class="edge"><title>Node1&#45;&gt;Node6</title>
<path fill="none" stroke="midnightblue" d="M79.7064,-274.083C98.3211,-259.483 129.33,-236.728 159,-222.09 210.173,-196.842 227.448,-201.794 281,-182.09 439.632,-123.722 474.308,-96.2935 633,-38.0896 636.307,-36.8769 639.721,-35.6609 643.172,-34.459"/>
<polygon fill="midnightblue" stroke="midnightblue" points="644.608,-37.6672 652.94,-31.1233 642.346,-31.0428 644.608,-37.6672"/>
</g>
<!-- Node11 -->
<g id="node11" class="node"><title>Node11</title>
<g id="a_node11"><a xlink:href="classprior__hessian_1_1CompositeDist.html#ace0aaa3698d76aba6a47f9061ff98902" target="_top" xlink:title="prior_hessian::Composite\lDist::rename_param">
<polygon fill="white" stroke="black" points="159,-231.09 159,-259.09 281,-259.09 281,-231.09 159,-231.09"/>
<text text-anchor="start" x="167" y="-247.89" font-family="Helvetica,sans-Serif" font-size="9.00">prior_hessian::Composite</text>
<text text-anchor="middle" x="220" y="-237.89" font-family="Helvetica,sans-Serif" font-size="9.00">Dist::rename_param</text>
</a>
</g>
</g>
<!-- Node1&#45;&gt;Node11 -->
<g id="edge10" class="edge"><title>Node1&#45;&gt;Node11</title>
<path fill="none" stroke="midnightblue" d="M113.744,-274.01C127.868,-270.129 143.33,-265.881 157.949,-261.864"/>
<polygon fill="midnightblue" stroke="midnightblue" points="159.193,-265.152 167.908,-259.128 157.338,-258.402 159.193,-265.152"/>
</g>
<!-- Node12 -->
<g id="node12" class="node"><title>Node12</title>
<g id="a_node12"><a xlink:href="classprior__hessian_1_1CompositeDist.html#a38c4fdacf927824117d202422b04013c" target="_top" xlink:title="prior_hessian::Composite\lDist::set_param_names">
<polygon fill="white" stroke="black" points="317,-271.09 317,-299.09 439,-299.09 439,-271.09 317,-271.09"/>
<text text-anchor="start" x="325" y="-287.89" font-family="Helvetica,sans-Serif" font-size="9.00">prior_hessian::Composite</text>
<text text-anchor="middle" x="378" y="-277.89" font-family="Helvetica,sans-Serif" font-size="9.00">Dist::set_param_names</text>
</a>
</g>
</g>
<!-- Node1&#45;&gt;Node12 -->
<g id="edge34" class="edge"><title>Node1&#45;&gt;Node12</title>
<path fill="none" stroke="midnightblue" d="M123.139,-287.511C175.65,-287.01 251.63,-286.286 306.771,-285.76"/>
<polygon fill="midnightblue" stroke="midnightblue" points="306.849,-289.259 316.815,-285.664 306.782,-282.259 306.849,-289.259"/>
</g>
<!-- Node24 -->
<g id="node24" class="node"><title>Node24</title>
<g id="a_node24"><a xlink:href="classprior__hessian_1_1CompositeDist.html#a2b9cc7f1661dbd1bbd6f37c462781d5f" target="_top" xlink:title="prior_hessian::Composite\lDist::set_param_value">
<polygon fill="white" stroke="black" points="159,-357.09 159,-385.09 281,-385.09 281,-357.09 159,-357.09"/>
<text text-anchor="start" x="167" y="-373.89" font-family="Helvetica,sans-Serif" font-size="9.00">prior_hessian::Composite</text>
<text text-anchor="middle" x="220" y="-363.89" font-family="Helvetica,sans-Serif" font-size="9.00">Dist::set_param_value</text>
</a>
</g>
</g>
<!-- Node1&#45;&gt;Node24 -->
<g id="edge35" class="edge"><title>Node1&#45;&gt;Node24</title>
<path fill="none" stroke="midnightblue" d="M86.8699,-302.26C106.249,-313.398 134.141,-329.141 159,-342.09 165.631,-345.544 172.738,-349.102 179.658,-352.491"/>
<polygon fill="midnightblue" stroke="midnightblue" points="178.391,-355.767 188.916,-356.984 181.447,-349.469 178.391,-355.767"/>
</g>
<!-- Node4 -->
<g id="node4" class="node"><title>Node4</title>
<g id="a_node4"><a xlink:href="classprior__hessian_1_1CompositeDist.html#adc8761a6b3dda7ffe7d1694cebcd21f5" target="_top" xlink:title="prior_hessian::Composite\lDist::params">
<polygon fill="white" stroke="black" points="637.5,-619.09 637.5,-647.09 759.5,-647.09 759.5,-619.09 637.5,-619.09"/>
<text text-anchor="start" x="645.5" y="-635.89" font-family="Helvetica,sans-Serif" font-size="9.00">prior_hessian::Composite</text>
<text text-anchor="middle" x="698.5" y="-625.89" font-family="Helvetica,sans-Serif" font-size="9.00">Dist::params</text>
</a>
</g>
</g>
<!-- Node3&#45;&gt;Node4 -->
<g id="edge3" class="edge"><title>Node3&#45;&gt;Node4</title>
<path fill="none" stroke="midnightblue" d="M553.733,-555.363C572.174,-570.538 603.187,-594.46 633,-610.09 636.3,-611.82 639.759,-613.471 643.289,-615.037"/>
<polygon fill="midnightblue" stroke="midnightblue" points="642.158,-618.358 652.735,-618.977 644.853,-611.897 642.158,-618.358"/>
</g>
<!-- Node7 -->
<g id="node7" class="node"><title>Node7</title>
<g id="a_node7"><a xlink:href="classprior__hessian_1_1CompositeDist.html#a5f59bcbe24d659084fbe3dc188011779" target="_top" xlink:title="prior_hessian::Composite\lDist::component_names">
<polygon fill="white" stroke="black" points="812,-123.09 812,-151.09 934,-151.09 934,-123.09 812,-123.09"/>
<text text-anchor="start" x="820" y="-139.89" font-family="Helvetica,sans-Serif" font-size="9.00">prior_hessian::Composite</text>
<text text-anchor="middle" x="873" y="-129.89" font-family="Helvetica,sans-Serif" font-size="9.00">Dist::component_names</text>
</a>
</g>
</g>
<!-- Node6&#45;&gt;Node7 -->
<g id="edge6" class="edge"><title>Node6&#45;&gt;Node7</title>
<path fill="none" stroke="midnightblue" d="M719.626,-31.09C750.186,-52.3493 808.426,-92.8639 843.382,-117.181"/>
<polygon fill="midnightblue" stroke="midnightblue" points="841.528,-120.155 851.736,-122.993 845.526,-114.409 841.528,-120.155"/>
</g>
<!-- Node8 -->
<g id="node8" class="node"><title>Node8</title>
<g id="a_node8"><a xlink:href="classprior__hessian_1_1CompositeDist.html#a6faf6fbb059017af5756d4327bb504bc" target="_top" xlink:title="prior_hessian::Composite\lDist::num_components">
<polygon fill="white" stroke="black" points="812,-46.0896 812,-74.0896 934,-74.0896 934,-46.0896 812,-46.0896"/>
<text text-anchor="start" x="820" y="-62.8896" font-family="Helvetica,sans-Serif" font-size="9.00">prior_hessian::Composite</text>
<text text-anchor="middle" x="873" y="-52.8896" font-family="Helvetica,sans-Serif" font-size="9.00">Dist::num_components</text>
</a>
</g>
</g>
<!-- Node6&#45;&gt;Node8 -->
<g id="edge7" class="edge"><title>Node6&#45;&gt;Node8</title>
<path fill="none" stroke="midnightblue" d="M755.983,-31.1694C771.85,-35.1247 789.249,-39.4619 805.636,-43.5466"/>
<polygon fill="midnightblue" stroke="midnightblue" points="805.135,-47.0289 815.685,-46.0517 806.828,-40.2368 805.135,-47.0289"/>
</g>
<!-- Node9 -->
<g id="node9" class="node"><title>Node9</title>
<g id="a_node9"><a xlink:href="classprior__hessian_1_1CompositeDist.html#ad532e3fe9e7293fef7b293d3c94a1ddc" target="_top" xlink:title="prior_hessian::Composite\lDist::num_dim">
<polygon fill="white" stroke="black" points="982,-302.09 982,-330.09 1104,-330.09 1104,-302.09 982,-302.09"/>
<text text-anchor="start" x="990" y="-318.89" font-family="Helvetica,sans-Serif" font-size="9.00">prior_hessian::Composite</text>
<text text-anchor="middle" x="1043" y="-308.89" font-family="Helvetica,sans-Serif" font-size="9.00">Dist::num_dim</text>
</a>
</g>
</g>
<!-- Node6&#45;&gt;Node9 -->
<g id="edge8" class="edge"><title>Node6&#45;&gt;Node9</title>
<path fill="none" stroke="midnightblue" d="M759.501,-4.64929C813.867,3.00289 893.305,4.69857 946,-36.0896 1027.74,-99.3593 1040.3,-236.062 1041.92,-291.744"/>
<polygon fill="midnightblue" stroke="midnightblue" points="1038.43,-292.118 1042.12,-302.048 1045.43,-291.982 1038.43,-292.118"/>
</g>
<!-- Node10 -->
<g id="node10" class="node"><title>Node10</title>
<g id="a_node10"><a xlink:href="classprior__hessian_1_1CompositeDist.html#a389c0e5459eeacc5f35afdf14d6a38d7" target="_top" xlink:title="prior_hessian::Composite\lDist::num_params_components">
<polygon fill="white" stroke="black" points="800,-229.09 800,-257.09 946,-257.09 946,-229.09 800,-229.09"/>
<text text-anchor="start" x="808" y="-245.89" font-family="Helvetica,sans-Serif" font-size="9.00">prior_hessian::Composite</text>
<text text-anchor="middle" x="873" y="-235.89" font-family="Helvetica,sans-Serif" font-size="9.00">Dist::num_params_components</text>
</a>
</g>
</g>
<!-- Node6&#45;&gt;Node10 -->
<g id="edge9" class="edge"><title>Node6&#45;&gt;Node10</title>
<path fill="none" stroke="midnightblue" d="M717.779,-31.3104C731.83,-42.9691 750.978,-60.5242 764,-79.0896 786.623,-111.342 778.861,-126.846 800,-160.09 814.426,-182.776 834.791,-205.64 850.182,-221.609"/>
<polygon fill="midnightblue" stroke="midnightblue" points="847.792,-224.171 857.291,-228.864 852.792,-219.272 847.792,-224.171"/>
</g>
<!-- Node11&#45;&gt;Node6 -->
<g id="edge11" class="edge"><title>Node11&#45;&gt;Node6</title>
<path fill="none" stroke="midnightblue" d="M281.254,-248.893C375.477,-253.488 551.634,-256.21 597,-216.09 657.461,-162.62 579.308,-98.3532 633,-38.0896 633.147,-37.9248 633.295,-37.7612 633.445,-37.5989"/>
<polygon fill="midnightblue" stroke="midnightblue" points="635.662,-40.3085 640.945,-31.1246 631.088,-35.0096 635.662,-40.3085"/>
</g>
<!-- Node11&#45;&gt;Node12 -->
<g id="edge12" class="edge"><title>Node11&#45;&gt;Node12</title>
<path fill="none" stroke="midnightblue" d="M276,-259.192C287.719,-262.197 300.199,-265.397 312.244,-268.486"/>
<polygon fill="midnightblue" stroke="midnightblue" points="311.678,-271.954 322.234,-271.047 313.417,-265.173 311.678,-271.954"/>
</g>
<!-- Node12&#45;&gt;Node6 -->
<g id="edge14" class="edge"><title>Node12&#45;&gt;Node6</title>
<path fill="none" stroke="midnightblue" d="M439.072,-294.151C488.179,-297.907 555.972,-294.149 597,-254.09 666.636,-186.098 569.517,-111.859 633,-38.0896 633.139,-37.9278 633.28,-37.7673 633.421,-37.608"/>
<polygon fill="midnightblue" stroke="midnightblue" points="635.427,-40.5099 640.55,-31.2362 630.762,-35.2908 635.427,-40.5099"/>
</g>
<!-- Node13 -->
<g id="node13" class="node"><title>Node13</title>
<g id="a_node13"><a xlink:href="classprior__hessian_1_1CompositeDist.html#ae7742f32d7e64ca2c7b55132a8ae6895" target="_top" xlink:title="prior_hessian::Composite\lDist::num_params">
<polygon fill="white" stroke="black" points="637.5,-572.09 637.5,-600.09 759.5,-600.09 759.5,-572.09 637.5,-572.09"/>
<text text-anchor="start" x="645.5" y="-588.89" font-family="Helvetica,sans-Serif" font-size="9.00">prior_hessian::Composite</text>
<text text-anchor="middle" x="698.5" y="-578.89" font-family="Helvetica,sans-Serif" font-size="9.00">Dist::num_params</text>
</a>
</g>
</g>
<!-- Node12&#45;&gt;Node13 -->
<g id="edge13" class="edge"><title>Node12&#45;&gt;Node13</title>
<path fill="none" stroke="midnightblue" d="M414.875,-299.115C423.241,-303.259 431.801,-308.273 439,-314.09 445.82,-319.6 625.893,-557.954 633,-563.09 635.066,-564.582 637.238,-565.986 639.484,-567.306"/>
<polygon fill="midnightblue" stroke="midnightblue" points="637.962,-570.46 648.446,-571.987 641.203,-564.255 637.962,-570.46"/>
</g>
<!-- Node14 -->
<g id="node14" class="node"><title>Node14</title>
<g id="a_node14"><a xlink:href="namespaceprior__hessian.html#ab26e9ddc3b6a5caccf5d75e1a1e1af1b" target="_top" xlink:title="prior_hessian::operator\&lt;\&lt;">
<polygon fill="white" stroke="black" points="475,-307.09 475,-325.09 597,-325.09 597,-307.09 475,-307.09"/>
<text text-anchor="middle" x="536" y="-313.89" font-family="Helvetica,sans-Serif" font-size="9.00">prior_hessian::operator&lt;&lt;</text>
</a>
</g>
</g>
<!-- Node12&#45;&gt;Node14 -->
<g id="edge15" class="edge"><title>Node12&#45;&gt;Node14</title>
<path fill="none" stroke="midnightblue" d="M439.314,-297.075C452.438,-299.683 466.268,-302.431 479.209,-305.003"/>
<polygon fill="midnightblue" stroke="midnightblue" points="478.875,-308.505 489.365,-307.021 480.239,-301.639 478.875,-308.505"/>
</g>
<!-- Node14&#45;&gt;Node4 -->
<g id="edge30" class="edge"><title>Node14&#45;&gt;Node4</title>
<path fill="none" stroke="midnightblue" d="M539.715,-325.158C554.219,-373.5 622.303,-599.1 633,-610.09 634.062,-611.181 635.18,-612.221 636.345,-613.212"/>
<polygon fill="midnightblue" stroke="midnightblue" points="634.44,-616.151 644.628,-619.061 638.478,-610.433 634.44,-616.151"/>
</g>
<!-- Node14&#45;&gt;Node6 -->
<g id="edge29" class="edge"><title>Node14&#45;&gt;Node6</title>
<path fill="none" stroke="midnightblue" d="M576.754,-306.971C584.482,-303.492 591.789,-298.696 597,-292.09 665.427,-205.328 566.411,-134.27 633,-46.0896 635.622,-42.6175 638.754,-39.5509 642.205,-36.8442"/>
<polygon fill="midnightblue" stroke="midnightblue" points="644.359,-39.6146 650.744,-31.16 640.48,-33.7875 644.359,-39.6146"/>
</g>
<!-- Node14&#45;&gt;Node7 -->
<g id="edge16" class="edge"><title>Node14&#45;&gt;Node7</title>
<path fill="none" stroke="midnightblue" d="M564.739,-307.073C575.197,-303.146 586.978,-298.065 597,-292.09 614.889,-281.424 614.713,-272.057 633,-262.09 686.567,-232.893 709.949,-249.379 764,-221.09 796.513,-204.073 829.117,-177.002 849.861,-158.21"/>
<polygon fill="midnightblue" stroke="midnightblue" points="852.481,-160.555 857.467,-151.207 847.739,-155.406 852.481,-160.555"/>
</g>
<!-- Node14&#45;&gt;Node8 -->
<g id="edge21" class="edge"><title>Node14&#45;&gt;Node8</title>
<path fill="none" stroke="midnightblue" d="M576.335,-307.022C584.183,-303.537 591.646,-298.726 597,-292.09 657.285,-217.367 562.187,-143.923 633,-79.0896 677.704,-38.1602 748.879,-37.6455 801.947,-44.8115"/>
<polygon fill="midnightblue" stroke="midnightblue" points="801.568,-48.2932 811.97,-46.284 802.585,-41.3676 801.568,-48.2932"/>
</g>
<!-- Node14&#45;&gt;Node9 -->
<g id="edge22" class="edge"><title>Node14&#45;&gt;Node9</title>
<path fill="none" stroke="midnightblue" d="M597.163,-316.09C691.003,-316.09 871.779,-316.09 971.559,-316.09"/>
<polygon fill="midnightblue" stroke="midnightblue" points="971.841,-319.59 981.841,-316.09 971.841,-312.59 971.841,-319.59"/>
</g>
<!-- Node14&#45;&gt;Node10 -->
<g id="edge28" class="edge"><title>Node14&#45;&gt;Node10</title>
<path fill="none" stroke="midnightblue" d="M578.414,-307.065C633.029,-295.164 730.094,-274.012 797.597,-259.303"/>
<polygon fill="midnightblue" stroke="midnightblue" points="798.724,-262.639 807.749,-257.091 797.233,-255.8 798.724,-262.639"/>
</g>
<!-- Node14&#45;&gt;Node13 -->
<g id="edge27" class="edge"><title>Node14&#45;&gt;Node13</title>
<path fill="none" stroke="midnightblue" d="M542.276,-325.156C553.552,-344.821 580.326,-393.091 597,-436.09 618.212,-490.789 592.913,-520.252 633,-563.09 633.914,-564.066 634.872,-565.001 635.869,-565.897"/>
<polygon fill="midnightblue" stroke="midnightblue" points="634.045,-568.9 644.172,-572.014 638.197,-563.265 634.045,-568.9"/>
</g>
<!-- Node15 -->
<g id="node15" class="node"><title>Node15</title>
<g id="a_node15"><a xlink:href="classprior__hessian_1_1CompositeDist.html#a9c8cf14584b037663fe8ef27f77e3bcf" target="_top" xlink:title="prior_hessian::Composite\lDist::dim_variables">
<polygon fill="white" stroke="black" points="812,-413.09 812,-441.09 934,-441.09 934,-413.09 812,-413.09"/>
<text text-anchor="start" x="820" y="-429.89" font-family="Helvetica,sans-Serif" font-size="9.00">prior_hessian::Composite</text>
<text text-anchor="middle" x="873" y="-419.89" font-family="Helvetica,sans-Serif" font-size="9.00">Dist::dim_variables</text>
</a>
</g>
</g>
<!-- Node14&#45;&gt;Node15 -->
<g id="edge17" class="edge"><title>Node14&#45;&gt;Node15</title>
<path fill="none" stroke="midnightblue" d="M541.186,-325.196C552.278,-348.072 584.907,-407.715 633,-430.09 686.854,-455.145 755.204,-451.243 805.003,-442.934"/>
<polygon fill="midnightblue" stroke="midnightblue" points="805.783,-446.35 815.02,-441.162 804.563,-439.457 805.783,-446.35"/>
</g>
<!-- Node16 -->
<g id="node16" class="node"><title>Node16</title>
<g id="a_node16"><a xlink:href="classprior__hessian_1_1CompositeDist.html#a4034220fc10fed2ff9ebe2f81061ab2f" target="_top" xlink:title="prior_hessian::Composite\lDist::global_lbound">
<polygon fill="white" stroke="black" points="637.5,-183.09 637.5,-211.09 759.5,-211.09 759.5,-183.09 637.5,-183.09"/>
<text text-anchor="start" x="645.5" y="-199.89" font-family="Helvetica,sans-Serif" font-size="9.00">prior_hessian::Composite</text>
<text text-anchor="middle" x="698.5" y="-189.89" font-family="Helvetica,sans-Serif" font-size="9.00">Dist::global_lbound</text>
</a>
</g>
</g>
<!-- Node14&#45;&gt;Node16 -->
<g id="edge18" class="edge"><title>Node14&#45;&gt;Node16</title>
<path fill="none" stroke="midnightblue" d="M571.378,-306.993C580.433,-303.417 589.701,-298.569 597,-292.09 621.988,-269.908 608.483,-248.792 633,-226.09 637.054,-222.336 641.676,-219.006 646.54,-216.066"/>
<polygon fill="midnightblue" stroke="midnightblue" points="648.382,-219.048 655.489,-211.19 645.033,-212.901 648.382,-219.048"/>
</g>
<!-- Node17 -->
<g id="node17" class="node"><title>Node17</title>
<g id="a_node17"><a xlink:href="classprior__hessian_1_1CompositeDist.html#a7e98f7f421d90f4b640e956ddf38987c" target="_top" xlink:title="prior_hessian::Composite\lDist::global_ubound">
<polygon fill="white" stroke="black" points="637.5,-136.09 637.5,-164.09 759.5,-164.09 759.5,-136.09 637.5,-136.09"/>
<text text-anchor="start" x="645.5" y="-152.89" font-family="Helvetica,sans-Serif" font-size="9.00">prior_hessian::Composite</text>
<text text-anchor="middle" x="698.5" y="-142.89" font-family="Helvetica,sans-Serif" font-size="9.00">Dist::global_ubound</text>
</a>
</g>
</g>
<!-- Node14&#45;&gt;Node17 -->
<g id="edge19" class="edge"><title>Node14&#45;&gt;Node17</title>
<path fill="none" stroke="midnightblue" d="M574.484,-307.037C582.801,-303.53 590.935,-298.705 597,-292.09 634.341,-251.36 594.892,-213.103 633,-173.09 633.922,-172.121 634.888,-171.193 635.892,-170.305"/>
<polygon fill="midnightblue" stroke="midnightblue" points="638.214,-172.943 644.236,-164.226 634.093,-167.285 638.214,-172.943"/>
</g>
<!-- Node18 -->
<g id="node18" class="node"><title>Node18</title>
<g id="a_node18"><a xlink:href="classprior__hessian_1_1CompositeDist.html#a46c83acc63b87837f3c4cb425e312d67" target="_top" xlink:title="prior_hessian::Composite\lDist::lbound">
<polygon fill="white" stroke="black" points="637.5,-89.0896 637.5,-117.09 759.5,-117.09 759.5,-89.0896 637.5,-89.0896"/>
<text text-anchor="start" x="645.5" y="-105.89" font-family="Helvetica,sans-Serif" font-size="9.00">prior_hessian::Composite</text>
<text text-anchor="middle" x="698.5" y="-95.8896" font-family="Helvetica,sans-Serif" font-size="9.00">Dist::lbound</text>
</a>
</g>
</g>
<!-- Node14&#45;&gt;Node18 -->
<g id="edge20" class="edge"><title>Node14&#45;&gt;Node18</title>
<path fill="none" stroke="midnightblue" d="M575.8,-306.973C583.771,-303.486 591.422,-298.686 597,-292.09 645.745,-234.443 583.169,-182.8 633,-126.09 633.861,-125.11 634.766,-124.172 635.711,-123.274"/>
<polygon fill="midnightblue" stroke="midnightblue" points="637.866,-126.032 643.632,-117.143 633.582,-120.496 637.866,-126.032"/>
</g>
<!-- Node19 -->
<g id="node19" class="node"><title>Node19</title>
<g id="a_node19"><a xlink:href="classprior__hessian_1_1CompositeDist.html#ab33784dcc2971ebaae40e6138bd1e4c2" target="_top" xlink:title="prior_hessian::Composite\lDist::num_dim_components">
<polygon fill="white" stroke="black" points="633,-345.09 633,-373.09 764,-373.09 764,-345.09 633,-345.09"/>
<text text-anchor="start" x="641" y="-361.89" font-family="Helvetica,sans-Serif" font-size="9.00">prior_hessian::Composite</text>
<text text-anchor="middle" x="698.5" y="-351.89" font-family="Helvetica,sans-Serif" font-size="9.00">Dist::num_dim_components</text>
</a>
</g>
</g>
<!-- Node14&#45;&gt;Node19 -->
<g id="edge23" class="edge"><title>Node14&#45;&gt;Node19</title>
<path fill="none" stroke="midnightblue" d="M570.646,-325.104C589.299,-330.101 613.092,-336.476 635.022,-342.351"/>
<polygon fill="midnightblue" stroke="midnightblue" points="634.376,-345.801 644.941,-345.008 636.188,-339.04 634.376,-345.801"/>
</g>
<!-- Node21 -->
<g id="node21" class="node"><title>Node21</title>
<g id="a_node21"><a xlink:href="classprior__hessian_1_1CompositeDist.html#a3520120621a69469e885ba64f08ede3a" target="_top" xlink:title="prior_hessian::Composite\lDist::params_lbound">
<polygon fill="white" stroke="black" points="637.5,-525.09 637.5,-553.09 759.5,-553.09 759.5,-525.09 637.5,-525.09"/>
<text text-anchor="start" x="645.5" y="-541.89" font-family="Helvetica,sans-Serif" font-size="9.00">prior_hessian::Composite</text>
<text text-anchor="middle" x="698.5" y="-531.89" font-family="Helvetica,sans-Serif" font-size="9.00">Dist::params_lbound</text>
</a>
</g>
</g>
<!-- Node14&#45;&gt;Node21 -->
<g id="edge31" class="edge"><title>Node14&#45;&gt;Node21</title>
<path fill="none" stroke="midnightblue" d="M541.798,-325.362C552.145,-345.427 577.221,-394.428 597,-436.09 613.722,-471.311 604.345,-489.649 633,-516.09 634.291,-517.281 635.649,-518.412 637.06,-519.485"/>
<polygon fill="midnightblue" stroke="midnightblue" points="635.348,-522.546 645.651,-525.018 639.139,-516.661 635.348,-522.546"/>
</g>
<!-- Node22 -->
<g id="node22" class="node"><title>Node22</title>
<g id="a_node22"><a xlink:href="classprior__hessian_1_1CompositeDist.html#ab9eac2d70f484d2d0d4ead6a21d6f798" target="_top" xlink:title="prior_hessian::Composite\lDist::params_ubound">
<polygon fill="white" stroke="black" points="637.5,-478.09 637.5,-506.09 759.5,-506.09 759.5,-478.09 637.5,-478.09"/>
<text text-anchor="start" x="645.5" y="-494.89" font-family="Helvetica,sans-Serif" font-size="9.00">prior_hessian::Composite</text>
<text text-anchor="middle" x="698.5" y="-484.89" font-family="Helvetica,sans-Serif" font-size="9.00">Dist::params_ubound</text>
</a>
</g>
</g>
<!-- Node14&#45;&gt;Node22 -->
<g id="edge32" class="edge"><title>Node14&#45;&gt;Node22</title>
<path fill="none" stroke="midnightblue" d="M540.777,-325.31C551.555,-350.596 584.812,-421.888 633,-463.09 637.484,-466.923 642.556,-470.339 647.839,-473.36"/>
<polygon fill="midnightblue" stroke="midnightblue" points="646.376,-476.544 656.86,-478.073 649.618,-470.34 646.376,-476.544"/>
</g>
<!-- Node23 -->
<g id="node23" class="node"><title>Node23</title>
<g id="a_node23"><a xlink:href="classprior__hessian_1_1CompositeDist.html#aab0290d9dd418c2e7deb26e9f37eb74f" target="_top" xlink:title="prior_hessian::Composite\lDist::ubound">
<polygon fill="white" stroke="black" points="637.5,-392.09 637.5,-420.09 759.5,-420.09 759.5,-392.09 637.5,-392.09"/>
<text text-anchor="start" x="645.5" y="-408.89" font-family="Helvetica,sans-Serif" font-size="9.00">prior_hessian::Composite</text>
<text text-anchor="middle" x="698.5" y="-398.89" font-family="Helvetica,sans-Serif" font-size="9.00">Dist::ubound</text>
</a>
</g>
</g>
<!-- Node14&#45;&gt;Node23 -->
<g id="edge33" class="edge"><title>Node14&#45;&gt;Node23</title>
<path fill="none" stroke="midnightblue" d="M547.902,-325.17C565.089,-339.134 599.94,-366.049 633,-383.09 636.467,-384.877 640.106,-386.584 643.814,-388.202"/>
<polygon fill="midnightblue" stroke="midnightblue" points="642.539,-391.462 653.118,-392.035 645.205,-384.99 642.539,-391.462"/>
</g>
<!-- Node19&#45;&gt;Node15 -->
<g id="edge24" class="edge"><title>Node19&#45;&gt;Node15</title>
<path fill="none" stroke="midnightblue" d="M737.772,-373.11C746.417,-376.338 755.539,-379.793 764,-383.09 785.4,-391.428 809.04,-401.016 828.734,-409.109"/>
<polygon fill="midnightblue" stroke="midnightblue" points="827.478,-412.377 838.058,-412.95 830.145,-405.905 827.478,-412.377"/>
</g>
<!-- Node20 -->
<g id="node20" class="node"><title>Node20</title>
<g id="a_node20"><a xlink:href="classprior__hessian_1_1CompositeDist.html#a6a84d1519fcee908bd41abd4a989f666" target="_top" xlink:title="prior_hessian::Composite\lDist::set_dim_variables">
<polygon fill="white" stroke="black" points="812,-345.09 812,-373.09 934,-373.09 934,-345.09 812,-345.09"/>
<text text-anchor="start" x="820" y="-361.89" font-family="Helvetica,sans-Serif" font-size="9.00">prior_hessian::Composite</text>
<text text-anchor="middle" x="873" y="-351.89" font-family="Helvetica,sans-Serif" font-size="9.00">Dist::set_dim_variables</text>
</a>
</g>
</g>
<!-- Node19&#45;&gt;Node20 -->
<g id="edge25" class="edge"><title>Node19&#45;&gt;Node20</title>
<path fill="none" stroke="midnightblue" d="M764.223,-359.09C776.398,-359.09 789.183,-359.09 801.523,-359.09"/>
<polygon fill="midnightblue" stroke="midnightblue" points="801.76,-362.59 811.76,-359.09 801.76,-355.59 801.76,-362.59"/>
</g>
<!-- Node20&#45;&gt;Node9 -->
<g id="edge26" class="edge"><title>Node20&#45;&gt;Node9</title>
<path fill="none" stroke="midnightblue" d="M929.009,-345.01C944.463,-341.055 961.408,-336.717 977.367,-332.633"/>
<polygon fill="midnightblue" stroke="midnightblue" points="978.334,-335.998 987.154,-330.128 976.598,-329.217 978.334,-335.998"/>
</g>
<!-- Node24&#45;&gt;Node4 -->
<g id="edge36" class="edge"><title>Node24&#45;&gt;Node4</title>
<path fill="none" stroke="midnightblue" d="M261.613,-385.145C268.281,-388.065 274.974,-391.395 281,-395.09 378.734,-455.015 374.839,-509.316 475,-565.09 522.672,-591.636 581.988,-609.1 627.385,-619.676"/>
<polygon fill="midnightblue" stroke="midnightblue" points="626.616,-623.091 637.143,-621.894 628.168,-616.265 626.616,-623.091"/>
</g>
<!-- Node25 -->
<g id="node25" class="node"><title>Node25</title>
<g id="a_node25"><a xlink:href="classprior__hessian_1_1CompositeDist.html#a8f0b1c79d0d4319adf783fe4fdbf7eb0" target="_top" xlink:title="prior_hessian::Composite\lDist::set_params">
<polygon fill="white" stroke="black" points="317,-357.09 317,-385.09 439,-385.09 439,-357.09 317,-357.09"/>
<text text-anchor="start" x="325" y="-373.89" font-family="Helvetica,sans-Serif" font-size="9.00">prior_hessian::Composite</text>
<text text-anchor="middle" x="378" y="-363.89" font-family="Helvetica,sans-Serif" font-size="9.00">Dist::set_params</text>
</a>
</g>
</g>
<!-- Node24&#45;&gt;Node25 -->
<g id="edge37" class="edge"><title>Node24&#45;&gt;Node25</title>
<path fill="none" stroke="midnightblue" d="M281.314,-371.09C289.604,-371.09 298.175,-371.09 306.626,-371.09"/>
<polygon fill="midnightblue" stroke="midnightblue" points="306.847,-374.59 316.847,-371.09 306.847,-367.59 306.847,-374.59"/>
</g>
</g>
</svg>
        <g id="navigator" transform="translate(0 0)" fill="#404254">
                <rect fill="#f2f5e9" fill-opacity="0.5" stroke="#606060" stroke-width=".5" x="0" y="0" width="60" height="60"/>
                <use id="zoomplus" xlink:href="#zoomPlus" x="17" y="9" onmousedown="handleZoom(evt,'in')"/>
                <use id="zoomminus" xlink:href="#zoomMin" x="42" y="9" onmousedown="handleZoom(evt,'out')"/>
                <use id="reset" xlink:href="#resetDef" x="30" y="36" onmousedown="handleReset()"/>
                <g id="arrowUp" xlink:href="#dirArrow" transform="translate(30 24)" onmousedown="handlePan(0,-1)">
                  <use xlink:href="#rim" fill="#404040">
                        <set attributeName="fill" to="#808080" begin="arrowUp.mouseover" end="arrowUp.mouseout"/>
                  </use>
                  <path fill="none" stroke="white" stroke-width="1.5" d="M0,-3.0v7 M-2.5,-0.5L0,-3.0L2.5,-0.5"/>
                </g>
                <g id="arrowRight" xlink:href="#dirArrow" transform="rotate(90) translate(36 -43)" onmousedown="handlePan(1,0)">
                  <use xlink:href="#rim" fill="#404040">
                        <set attributeName="fill" to="#808080" begin="arrowRight.mouseover" end="arrowRight.mouseout"/>
                  </use>
                  <path fill="none" stroke="white" stroke-width="1.5" d="M0,-3.0v7 M-2.5,-0.5L0,-3.0L2.5,-0.5"/>
                </g>
                <g id="arrowDown" xlink:href="#dirArrow" transform="rotate(180) translate(-30 -48)" onmousedown="handlePan(0,1)">
                  <use xlink:href="#rim" fill="#404040">
                        <set attributeName="fill" to="#808080" begin="arrowDown.mouseover" end="arrowDown.mouseout"/>
                  </use>
                  <path fill="none" stroke="white" stroke-width="1.5" d="M0,-3.0v7 M-2.5,-0.5L0,-3.0L2.5,-0.5"/>
                </g>
                <g id="arrowLeft" xlink:href="#dirArrow" transform="rotate(270) translate(-36 17)" onmousedown="handlePan(-1,0)">
                  <use xlink:href="#rim" fill="#404040">
                        <set attributeName="fill" to="#808080" begin="arrowLeft.mouseover" end="arrowLeft.mouseout"/>
                  </use>
                  <path fill="none" stroke="white" stroke-width="1.5" d="M0,-3.0v7 M-2.5,-0.5L0,-3.0L2.5,-0.5"/>
                </g>
        </g>
        <svg viewBox="0 0 15 15" width="100%" height="30px" preserveAspectRatio="xMaxYMin meet">
         <g id="arrow_out" transform="scale(0.3 0.3)">
          <a xlink:href="classprior__hessian_1_1CompositeDist_a927fed39b2b4e87714c728d6e7b11e8b_cgraph_org.svg" target="_base">
           <rect id="button" ry="5" rx="5" y="6" x="6" height="38" width="38"
                fill="#f2f5e9" fill-opacity="0.5" stroke="#606060" stroke-width="1.0"/>
           <path id="arrow"
             d="M 11.500037,31.436501 C 11.940474,20.09759 22.043105,11.32322 32.158766,21.979434 L 37.068811,17.246167 C 37.068811,17.246167 37.088388,32 37.088388,32 L 22.160133,31.978069 C 22.160133,31.978069 26.997745,27.140456 26.997745,27.140456 C 18.528582,18.264221 13.291696,25.230495 11.500037,31.436501 z"
             style="fill:#404040;"/>
          </a>
         </g>
        </svg>
</svg>
