<?xml version="1.0" encoding="UTF-8" standalone="no"?>
<!DOCTYPE svg PUBLIC "-//W3C//DTD SVG 1.1//EN"
 "http://www.w3.org/Graphics/SVG/1.1/DTD/svg11.dtd">
<!-- Generated by graphviz version 2.38.0 (20140413.2041)
 -->
<!-- Title: prior_hessian::CompositeDist::params Pages: 1 -->
<svg width="830pt" height="314pt"
 viewBox="0.00 0.00 830.00 314.00" xmlns="http://www.w3.org/2000/svg" xmlns:xlink="http://www.w3.org/1999/xlink">
<g id="graph0" class="graph" transform="scale(1 1) rotate(0) translate(4 310)">
<title>prior_hessian::CompositeDist::params</title>
<polygon fill="white" stroke="none" points="-4,4 -4,-310 826,-310 826,4 -4,4"/>
<!-- Node1 -->
<g id="node1" class="node"><title>Node1</title>
<polygon fill="#bfbfbf" stroke="black" points="0,-116.5 0,-144.5 122,-144.5 122,-116.5 0,-116.5"/>
<text text-anchor="start" x="8" y="-133.3" font-family="Helvetica,sans-Serif" font-size="9.00">prior_hessian::Composite</text>
<text text-anchor="middle" x="61" y="-123.3" font-family="Helvetica,sans-Serif" font-size="9.00">Dist::params</text>
</g>
<!-- Node2 -->
<g id="node2" class="node"><title>Node2</title>
<g id="a_node2"><a xlink:href="classprior__hessian_1_1CompositeDist_1_1ComponentDistAdaptor_3_01Dist_00_01meta_1_1EnableIfSubclc6c9bd83bba546a81e521c87ad7ee6d3.html#a77177345ebf003c453a3850d370d18b4" target="_top" xlink:title="prior_hessian::Composite\lDist::ComponentDistAdaptor\l\&lt; Dist, meta::EnableIfSubclassT\l\&lt; Dist, UnivariateDist \&gt; \&gt;::append_params">
<polygon fill="white" stroke="black" points="158,-257.5 158,-305.5 347,-305.5 347,-257.5 158,-257.5"/>
<text text-anchor="start" x="166" y="-294.3" font-family="Helvetica,sans-Serif" font-size="9.00">prior_hessian::Composite</text>
<text text-anchor="start" x="166" y="-284.3" font-family="Helvetica,sans-Serif" font-size="9.00">Dist::ComponentDistAdaptor</text>
<text text-anchor="start" x="166" y="-274.3" font-family="Helvetica,sans-Serif" font-size="9.00">&lt; Dist, meta::EnableIfSubclassT</text>
<text text-anchor="middle" x="252.5" y="-264.3" font-family="Helvetica,sans-Serif" font-size="9.00">&lt; Dist, UnivariateDist &gt; &gt;::append_params</text>
</a>
</g>
</g>
<!-- Node1&#45;&gt;Node2 -->
<g id="edge1" class="edge"><title>Node1&#45;&gt;Node2</title>
<path fill="none" stroke="midnightblue" d="M75.0636,-153.187C91.3364,-179.574 121.495,-222.791 158,-248.5 162.644,-251.771 167.645,-254.747 172.833,-257.449"/>
<polygon fill="midnightblue" stroke="midnightblue" points="78.0565,-151.372 69.8991,-144.611 72.06,-154.983 78.0565,-151.372"/>
</g>
<!-- Node3 -->
<g id="node3" class="node"><title>Node3</title>
<g id="a_node3"><a xlink:href="classprior__hessian_1_1CompositeDist_1_1ComponentDistAdaptor_3_01Dist_00_01meta_1_1EnableIfSubcld67d34d533dbae21b9dad35557546eec.html#a4b45af315fe88daef877ec564b33272a" target="_top" xlink:title="prior_hessian::Composite\lDist::ComponentDistAdaptor\l\&lt; Dist, meta::EnableIfSubclassT\l\&lt; Dist, MultivariateDist \&gt; \&gt;\l::append_params">
<polygon fill="white" stroke="black" points="179.5,-180.5 179.5,-238.5 325.5,-238.5 325.5,-180.5 179.5,-180.5"/>
<text text-anchor="start" x="187.5" y="-227.3" font-family="Helvetica,sans-Serif" font-size="9.00">prior_hessian::Composite</text>
<text text-anchor="start" x="187.5" y="-217.3" font-family="Helvetica,sans-Serif" font-size="9.00">Dist::ComponentDistAdaptor</text>
<text text-anchor="start" x="187.5" y="-207.3" font-family="Helvetica,sans-Serif" font-size="9.00">&lt; Dist, meta::EnableIfSubclassT</text>
<text text-anchor="start" x="187.5" y="-197.3" font-family="Helvetica,sans-Serif" font-size="9.00">&lt; Dist, MultivariateDist &gt; &gt;</text>
<text text-anchor="middle" x="252.5" y="-187.3" font-family="Helvetica,sans-Serif" font-size="9.00">::append_params</text>
</a>
</g>
</g>
<!-- Node1&#45;&gt;Node3 -->
<g id="edge2" class="edge"><title>Node1&#45;&gt;Node3</title>
<path fill="none" stroke="midnightblue" d="M105.215,-148.516C127.864,-157.958 156.158,-169.753 181.812,-180.448"/>
<polygon fill="midnightblue" stroke="midnightblue" points="106.456,-145.241 95.8788,-144.624 103.762,-151.702 106.456,-145.241"/>
</g>
<!-- Node4 -->
<g id="node4" class="node"><title>Node4</title>
<g id="a_node4"><a xlink:href="classprior__hessian_1_1CompositeDist.html#a25183fbeb28704eca9f7fe31dccb7640" target="_top" xlink:title="prior_hessian::Composite\lDist::get_param_value">
<polygon fill="white" stroke="black" points="383,-47.5 383,-75.5 505,-75.5 505,-47.5 383,-47.5"/>
<text text-anchor="start" x="391" y="-64.3" font-family="Helvetica,sans-Serif" font-size="9.00">prior_hessian::Composite</text>
<text text-anchor="middle" x="444" y="-54.3" font-family="Helvetica,sans-Serif" font-size="9.00">Dist::get_param_value</text>
</a>
</g>
</g>
<!-- Node1&#45;&gt;Node4 -->
<g id="edge3" class="edge"><title>Node1&#45;&gt;Node4</title>
<path fill="none" stroke="midnightblue" d="M99.9114,-112.223C117.242,-104.625 138.27,-96.4409 158,-91.5 234.134,-72.4341 324.658,-65.474 382.928,-62.9398"/>
<polygon fill="midnightblue" stroke="midnightblue" points="98.385,-109.072 90.6952,-116.36 101.252,-115.458 98.385,-109.072"/>
</g>
<!-- Node6 -->
<g id="node6" class="node"><title>Node6</title>
<g id="a_node6"><a xlink:href="classprior__hessian_1_1CompositeDist.html#a24bac25ae8c0330b8a3aacadffc9d5ae" target="_top" xlink:title="prior_hessian::Composite\lDist::rllh_components">
<polygon fill="white" stroke="black" points="700,-94.5 700,-122.5 822,-122.5 822,-94.5 700,-94.5"/>
<text text-anchor="start" x="708" y="-111.3" font-family="Helvetica,sans-Serif" font-size="9.00">prior_hessian::Composite</text>
<text text-anchor="middle" x="761" y="-101.3" font-family="Helvetica,sans-Serif" font-size="9.00">Dist::rllh_components</text>
</a>
</g>
</g>
<!-- Node1&#45;&gt;Node6 -->
<g id="edge10" class="edge"><title>Node1&#45;&gt;Node6</title>
<path fill="none" stroke="midnightblue" d="M132.209,-133.529C244.759,-137.494 472.393,-141.856 664,-122.5 675.647,-121.323 688.045,-119.754 699.929,-118.091"/>
<polygon fill="midnightblue" stroke="midnightblue" points="132.129,-130.023 122.009,-133.159 131.875,-137.019 132.129,-130.023"/>
</g>
<!-- Node7 -->
<g id="node7" class="node"><title>Node7</title>
<g id="a_node7"><a xlink:href="namespaceprior__hessian.html#ab26e9ddc3b6a5caccf5d75e1a1e1af1b" target="_top" xlink:title="prior_hessian::operator\&lt;\&lt;">
<polygon fill="white" stroke="black" points="191.5,-101.5 191.5,-119.5 313.5,-119.5 313.5,-101.5 191.5,-101.5"/>
<text text-anchor="middle" x="252.5" y="-108.3" font-family="Helvetica,sans-Serif" font-size="9.00">prior_hessian::operator&lt;&lt;</text>
</a>
</g>
</g>
<!-- Node1&#45;&gt;Node7 -->
<g id="edge6" class="edge"><title>Node1&#45;&gt;Node7</title>
<path fill="none" stroke="midnightblue" d="M132.238,-123.087C151.69,-121.034 172.622,-118.825 191.437,-116.839"/>
<polygon fill="midnightblue" stroke="midnightblue" points="131.797,-119.614 122.219,-124.144 132.532,-126.575 131.797,-119.614"/>
</g>
<!-- Node9 -->
<g id="node9" class="node"><title>Node9</title>
<g id="a_node9"><a xlink:href="classprior__hessian_1_1CompositeDist.html#a2b9cc7f1661dbd1bbd6f37c462781d5f" target="_top" xlink:title="prior_hessian::Composite\lDist::set_param_value">
<polygon fill="white" stroke="black" points="383,-0.5 383,-28.5 505,-28.5 505,-0.5 383,-0.5"/>
<text text-anchor="start" x="391" y="-17.3" font-family="Helvetica,sans-Serif" font-size="9.00">prior_hessian::Composite</text>
<text text-anchor="middle" x="444" y="-7.3" font-family="Helvetica,sans-Serif" font-size="9.00">Dist::set_param_value</text>
</a>
</g>
</g>
<!-- Node1&#45;&gt;Node9 -->
<g id="edge11" class="edge"><title>Node1&#45;&gt;Node9</title>
<path fill="none" stroke="midnightblue" d="M84.729,-109.489C103.106,-93.7234 130.381,-72.9603 158,-61.5 231.646,-30.9412 323.751,-20.2115 382.976,-16.4678"/>
<polygon fill="midnightblue" stroke="midnightblue" points="82.1448,-107.101 76.9422,-116.33 86.7649,-112.36 82.1448,-107.101"/>
</g>
<!-- Node5 -->
<g id="node5" class="node"><title>Node5</title>
<g id="a_node5"><a xlink:href="classprior__hessian_1_1CompositeDist.html#a927fed39b2b4e87714c728d6e7b11e8b" target="_top" xlink:title="prior_hessian::Composite\lDist::params_components">
<polygon fill="white" stroke="black" points="541,-49.5 541,-77.5 664,-77.5 664,-49.5 541,-49.5"/>
<text text-anchor="start" x="549" y="-66.3" font-family="Helvetica,sans-Serif" font-size="9.00">prior_hessian::Composite</text>
<text text-anchor="middle" x="602.5" y="-56.3" font-family="Helvetica,sans-Serif" font-size="9.00">Dist::params_components</text>
</a>
</g>
</g>
<!-- Node4&#45;&gt;Node5 -->
<g id="edge4" class="edge"><title>Node4&#45;&gt;Node5</title>
<path fill="none" stroke="midnightblue" d="M515.062,-62.3954C523.657,-62.5052 532.385,-62.6167 540.825,-62.7246"/>
<polygon fill="midnightblue" stroke="midnightblue" points="515.103,-58.8957 505.059,-62.2675 515.014,-65.8951 515.103,-58.8957"/>
</g>
<!-- Node5&#45;&gt;Node6 -->
<g id="edge5" class="edge"><title>Node5&#45;&gt;Node6</title>
<path fill="none" stroke="midnightblue" d="M662.404,-80.4374C678.452,-85.0518 695.659,-89.9993 711.086,-94.4353"/>
<polygon fill="midnightblue" stroke="midnightblue" points="663.166,-77.0146 652.588,-77.6148 661.232,-83.742 663.166,-77.0146"/>
</g>
<!-- Node8 -->
<g id="node8" class="node"><title>Node8</title>
<g id="a_node8"><a xlink:href="classprior__hessian_1_1CompositeDist.html#a38c4fdacf927824117d202422b04013c" target="_top" xlink:title="prior_hessian::Composite\lDist::set_param_names">
<polygon fill="white" stroke="black" points="383,-94.5 383,-122.5 505,-122.5 505,-94.5 383,-94.5"/>
<text text-anchor="start" x="391" y="-111.3" font-family="Helvetica,sans-Serif" font-size="9.00">prior_hessian::Composite</text>
<text text-anchor="middle" x="444" y="-101.3" font-family="Helvetica,sans-Serif" font-size="9.00">Dist::set_param_names</text>
</a>
</g>
</g>
<!-- Node7&#45;&gt;Node8 -->
<g id="edge7" class="edge"><title>Node7&#45;&gt;Node8</title>
<path fill="none" stroke="midnightblue" d="M323.738,-109.759C343.19,-109.553 364.122,-109.332 382.937,-109.134"/>
<polygon fill="midnightblue" stroke="midnightblue" points="323.682,-106.259 313.719,-109.864 323.756,-113.259 323.682,-106.259"/>
</g>
<!-- Node8&#45;&gt;Node5 -->
<g id="edge8" class="edge"><title>Node8&#45;&gt;Node5</title>
<path fill="none" stroke="midnightblue" d="M503.904,-91.5626C519.952,-86.9482 537.159,-82.0007 552.586,-77.5647"/>
<polygon fill="midnightblue" stroke="midnightblue" points="502.732,-88.258 494.088,-94.3852 504.666,-94.9854 502.732,-88.258"/>
</g>
<!-- Node8&#45;&gt;Node6 -->
<g id="edge9" class="edge"><title>Node8&#45;&gt;Node6</title>
<path fill="none" stroke="midnightblue" d="M515.457,-108.5C570.879,-108.5 647.264,-108.5 699.842,-108.5"/>
<polygon fill="midnightblue" stroke="midnightblue" points="515.362,-105 505.362,-108.5 515.362,-112 515.362,-105"/>
</g>
<!-- Node9&#45;&gt;Node5 -->
<g id="edge12" class="edge"><title>Node9&#45;&gt;Node5</title>
<path fill="none" stroke="midnightblue" d="M499.412,-31.5365C518.104,-37.3888 538.802,-43.8692 556.647,-49.4565"/>
<polygon fill="midnightblue" stroke="midnightblue" points="500.436,-28.1893 489.847,-28.5414 498.344,-34.8696 500.436,-28.1893"/>
</g>
</g>
</svg>
