<?xml version="1.0" encoding="UTF-8" standalone="no"?>
<!DOCTYPE svg PUBLIC "-//W3C//DTD SVG 1.1//EN"
 "http://www.w3.org/Graphics/SVG/1.1/DTD/svg11.dtd">
<!-- Generated by graphviz version 2.38.0 (20140413.2041)
 -->
<!-- Title: prior_hessian::AMHCopula::ddim_gen Pages: 1 -->
<svg width="300pt" height="84pt"
 viewBox="0.00 0.00 300.00 84.00" xmlns="http://www.w3.org/2000/svg" xmlns:xlink="http://www.w3.org/1999/xlink">
<g id="graph0" class="graph" transform="scale(1 1) rotate(0) translate(4 80)">
<title>prior_hessian::AMHCopula::ddim_gen</title>
<polygon fill="white" stroke="none" points="-4,4 -4,-80 296,-80 296,4 -4,4"/>
<!-- Node1 -->
<g id="node1" class="node"><title>Node1</title>
<polygon fill="#bfbfbf" stroke="black" points="0,-23.5 0,-51.5 128,-51.5 128,-23.5 0,-23.5"/>
<text text-anchor="start" x="8" y="-40.3" font-family="Helvetica,sans-Serif" font-size="9.00">prior_hessian::AMHCopula</text>
<text text-anchor="middle" x="64" y="-30.3" font-family="Helvetica,sans-Serif" font-size="9.00">::ddim_gen</text>
</g>
<!-- Node2 -->
<g id="node2" class="node"><title>Node2</title>
<g id="a_node2"><a xlink:href="classprior__hessian_1_1AMHCopula.html#aaacec957c8d8e24df1100aee2694fe3a" target="_top" xlink:title="prior_hessian::AMHCopula\l::num_dim">
<polygon fill="white" stroke="black" points="164,-47.5 164,-75.5 292,-75.5 292,-47.5 164,-47.5"/>
<text text-anchor="start" x="172" y="-64.3" font-family="Helvetica,sans-Serif" font-size="9.00">prior_hessian::AMHCopula</text>
<text text-anchor="middle" x="228" y="-54.3" font-family="Helvetica,sans-Serif" font-size="9.00">::num_dim</text>
</a>
</g>
</g>
<!-- Node1&#45;&gt;Node2 -->
<g id="edge1" class="edge"><title>Node1&#45;&gt;Node2</title>
<path fill="none" stroke="midnightblue" d="M128.097,-46.8477C136.526,-48.0965 145.227,-49.3855 153.81,-50.6571"/>
<polygon fill="midnightblue" stroke="midnightblue" points="153.403,-54.1349 163.808,-52.1383 154.429,-47.2105 153.403,-54.1349"/>
</g>
<!-- Node3 -->
<g id="node3" class="node"><title>Node3</title>
<g id="a_node3"><a xlink:href="namespaceprior__hessian_1_1polylog.html#abb5fc2ad3b1509f49ea4b2fc05d916bb" target="_top" xlink:title="prior_hessian::polylog\l::polylog">
<polygon fill="white" stroke="black" points="174.5,-0.5 174.5,-28.5 281.5,-28.5 281.5,-0.5 174.5,-0.5"/>
<text text-anchor="start" x="182.5" y="-17.3" font-family="Helvetica,sans-Serif" font-size="9.00">prior_hessian::polylog</text>
<text text-anchor="middle" x="228" y="-7.3" font-family="Helvetica,sans-Serif" font-size="9.00">::polylog</text>
</a>
</g>
</g>
<!-- Node1&#45;&gt;Node3 -->
<g id="edge2" class="edge"><title>Node1&#45;&gt;Node3</title>
<path fill="none" stroke="midnightblue" d="M128.097,-28.5417C139.916,-26.8638 152.27,-25.1098 164.083,-23.4326"/>
<polygon fill="midnightblue" stroke="midnightblue" points="164.89,-26.8533 174.298,-21.9823 163.906,-19.9228 164.89,-26.8533"/>
</g>
</g>
</svg>
