<?xml version="1.0" encoding="UTF-8" standalone="no"?>
<!DOCTYPE svg PUBLIC "-//W3C//DTD SVG 1.1//EN"
 "http://www.w3.org/Graphics/SVG/1.1/DTD/svg11.dtd">
<!-- Generated by graphviz version 2.38.0 (20140413.2041)
 -->
<!-- Title: prior_hessian::ScaledDist::convert_from_unitary_coords Pages: 1 -->
<svg width="464pt" height="170pt"
 viewBox="0.00 0.00 464.00 170.00" xmlns="http://www.w3.org/2000/svg" xmlns:xlink="http://www.w3.org/1999/xlink">
<g id="graph0" class="graph" transform="scale(1 1) rotate(0) translate(4 166)">
<title>prior_hessian::ScaledDist::convert_from_unitary_coords</title>
<polygon fill="white" stroke="none" points="-4,4 -4,-166 460,-166 460,4 -4,4"/>
<!-- Node1 -->
<g id="node1" class="node"><title>Node1</title>
<polygon fill="#bfbfbf" stroke="black" points="0,-68.5 0,-96.5 140,-96.5 140,-68.5 0,-68.5"/>
<text text-anchor="start" x="8" y="-85.3" font-family="Helvetica,sans-Serif" font-size="9.00">prior_hessian::ScaledDist</text>
<text text-anchor="middle" x="70" y="-75.3" font-family="Helvetica,sans-Serif" font-size="9.00">::convert_from_unitary_coords</text>
</g>
<!-- Node2 -->
<g id="node2" class="node"><title>Node2</title>
<g id="a_node2"><a xlink:href="classprior__hessian_1_1ScaledDist.html#ac7b29b1849724c8e561a4cf01408d3f5" target="_top" xlink:title="prior_hessian::ScaledDist\l::icdf">
<polygon fill="white" stroke="black" points="176,-133.5 176,-161.5 298,-161.5 298,-133.5 176,-133.5"/>
<text text-anchor="start" x="184" y="-150.3" font-family="Helvetica,sans-Serif" font-size="9.00">prior_hessian::ScaledDist</text>
<text text-anchor="middle" x="237" y="-140.3" font-family="Helvetica,sans-Serif" font-size="9.00">::icdf</text>
</a>
</g>
</g>
<!-- Node1&#45;&gt;Node2 -->
<g id="edge1" class="edge"><title>Node1&#45;&gt;Node2</title>
<path fill="none" stroke="midnightblue" d="M116.232,-100.318C142.694,-110.743 175.634,-123.719 200.267,-133.423"/>
<polygon fill="midnightblue" stroke="midnightblue" points="117.389,-97.0129 106.803,-96.604 114.824,-103.526 117.389,-97.0129"/>
</g>
<!-- Node3 -->
<g id="node3" class="node"><title>Node3</title>
<g id="a_node3"><a xlink:href="classprior__hessian_1_1ScaledDist.html#a61f5160e1a6d2b2055596e14844975e0" target="_top" xlink:title="prior_hessian::ScaledDist\l::median">
<polygon fill="white" stroke="black" points="334,-90.5 334,-118.5 456,-118.5 456,-90.5 334,-90.5"/>
<text text-anchor="start" x="342" y="-107.3" font-family="Helvetica,sans-Serif" font-size="9.00">prior_hessian::ScaledDist</text>
<text text-anchor="middle" x="395" y="-97.3" font-family="Helvetica,sans-Serif" font-size="9.00">::median</text>
</a>
</g>
</g>
<!-- Node1&#45;&gt;Node3 -->
<g id="edge4" class="edge"><title>Node1&#45;&gt;Node3</title>
<path fill="none" stroke="midnightblue" d="M150.289,-87.9005C206.946,-91.7595 282.011,-96.8723 333.787,-100.399"/>
<polygon fill="midnightblue" stroke="midnightblue" points="150.506,-84.4073 140.292,-87.2196 150.031,-91.3911 150.506,-84.4073"/>
</g>
<!-- Node4 -->
<g id="node4" class="node"><title>Node4</title>
<g id="a_node4"><a xlink:href="classprior__hessian_1_1ScaledDist.html#a3a821526d1d50027af00ef86663f9e68" target="_top" xlink:title="prior_hessian::ScaledDist\l::mean">
<polygon fill="white" stroke="black" points="176,-47.5 176,-75.5 298,-75.5 298,-47.5 176,-47.5"/>
<text text-anchor="start" x="184" y="-64.3" font-family="Helvetica,sans-Serif" font-size="9.00">prior_hessian::ScaledDist</text>
<text text-anchor="middle" x="237" y="-54.3" font-family="Helvetica,sans-Serif" font-size="9.00">::mean</text>
</a>
</g>
</g>
<!-- Node1&#45;&gt;Node4 -->
<g id="edge3" class="edge"><title>Node1&#45;&gt;Node4</title>
<path fill="none" stroke="midnightblue" d="M150.146,-72.4268C158.813,-71.3239 167.528,-70.2146 175.91,-69.1479"/>
<polygon fill="midnightblue" stroke="midnightblue" points="149.497,-68.9812 140.019,-73.7158 150.381,-75.9252 149.497,-68.9812"/>
</g>
<!-- Node5 -->
<g id="node5" class="node"><title>Node5</title>
<g id="a_node5"><a xlink:href="classprior__hessian_1_1ScaledDist.html#a7a5642c7d22a621f820c494b84abb259" target="_top" xlink:title="prior_hessian::ScaledDist\l::sample">
<polygon fill="white" stroke="black" points="176,-0.5 176,-28.5 298,-28.5 298,-0.5 176,-0.5"/>
<text text-anchor="start" x="184" y="-17.3" font-family="Helvetica,sans-Serif" font-size="9.00">prior_hessian::ScaledDist</text>
<text text-anchor="middle" x="237" y="-7.3" font-family="Helvetica,sans-Serif" font-size="9.00">::sample</text>
</a>
</g>
</g>
<!-- Node1&#45;&gt;Node5 -->
<g id="edge5" class="edge"><title>Node1&#45;&gt;Node5</title>
<path fill="none" stroke="midnightblue" d="M113.378,-64.5565C132.483,-56.5152 155.346,-46.9578 176,-38.5 183.891,-35.2689 192.384,-31.841 200.427,-28.618"/>
<polygon fill="midnightblue" stroke="midnightblue" points="111.902,-61.3807 104.046,-68.4898 114.62,-67.8312 111.902,-61.3807"/>
</g>
<!-- Node2&#45;&gt;Node3 -->
<g id="edge2" class="edge"><title>Node2&#45;&gt;Node3</title>
<path fill="none" stroke="midnightblue" d="M299.013,-130.682C313.592,-126.664 329.002,-122.416 343.072,-118.538"/>
<polygon fill="midnightblue" stroke="midnightblue" points="297.791,-127.389 289.08,-133.42 299.651,-134.137 297.791,-127.389"/>
</g>
<!-- Node5&#45;&gt;Node3 -->
<g id="edge6" class="edge"><title>Node5&#45;&gt;Node3</title>
<path fill="none" stroke="midnightblue" d="M286.349,-32.7399C290.341,-34.5771 294.272,-36.5049 298,-38.5 326.71,-53.8651 357.278,-76.0083 376.012,-90.3268"/>
<polygon fill="midnightblue" stroke="midnightblue" points="287.548,-29.4443 276.985,-28.629 284.734,-35.8538 287.548,-29.4443"/>
</g>
</g>
</svg>
