<?xml version="1.0" encoding="UTF-8" standalone="no"?>
<!DOCTYPE svg PUBLIC "-//W3C//DTD SVG 1.1//EN"
 "http://www.w3.org/Graphics/SVG/1.1/DTD/svg11.dtd">
<!-- Generated by graphviz version 2.38.0 (20140413.2041)
 -->
<!-- Title: prior_hessian::CompositeDist::rename_dim_variable Pages: 1 -->
<svg width="452pt" height="37pt"
 viewBox="0.00 0.00 452.00 37.00" xmlns="http://www.w3.org/2000/svg" xmlns:xlink="http://www.w3.org/1999/xlink">
<g id="graph0" class="graph" transform="scale(1 1) rotate(0) translate(4 33)">
<title>prior_hessian::CompositeDist::rename_dim_variable</title>
<polygon fill="white" stroke="none" points="-4,4 -4,-33 448,-33 448,4 -4,4"/>
<!-- Node1 -->
<g id="node1" class="node"><title>Node1</title>
<polygon fill="#bfbfbf" stroke="black" points="0,-0.5 0,-28.5 127,-28.5 127,-0.5 0,-0.5"/>
<text text-anchor="start" x="8" y="-17.3" font-family="Helvetica,sans-Serif" font-size="9.00">prior_hessian::Composite</text>
<text text-anchor="middle" x="63.5" y="-7.3" font-family="Helvetica,sans-Serif" font-size="9.00">Dist::rename_dim_variable</text>
</g>
<!-- Node2 -->
<g id="node2" class="node"><title>Node2</title>
<g id="a_node2"><a xlink:href="classprior__hessian_1_1CompositeDist.html#a927fed39b2b4e87714c728d6e7b11e8b" target="_top" xlink:title="prior_hessian::Composite\lDist::params_components">
<polygon fill="white" stroke="black" points="163,-0.5 163,-28.5 286,-28.5 286,-0.5 163,-0.5"/>
<text text-anchor="start" x="171" y="-17.3" font-family="Helvetica,sans-Serif" font-size="9.00">prior_hessian::Composite</text>
<text text-anchor="middle" x="224.5" y="-7.3" font-family="Helvetica,sans-Serif" font-size="9.00">Dist::params_components</text>
</a>
</g>
</g>
<!-- Node1&#45;&gt;Node2 -->
<g id="edge1" class="edge"><title>Node1&#45;&gt;Node2</title>
<path fill="none" stroke="midnightblue" d="M137.604,-14.5C146.078,-14.5 154.651,-14.5 162.932,-14.5"/>
<polygon fill="midnightblue" stroke="midnightblue" points="137.341,-11.0001 127.341,-14.5 137.341,-18.0001 137.341,-11.0001"/>
</g>
<!-- Node3 -->
<g id="node3" class="node"><title>Node3</title>
<g id="a_node3"><a xlink:href="classprior__hessian_1_1CompositeDist.html#a24bac25ae8c0330b8a3aacadffc9d5ae" target="_top" xlink:title="prior_hessian::Composite\lDist::rllh_components">
<polygon fill="white" stroke="black" points="322,-0.5 322,-28.5 444,-28.5 444,-0.5 322,-0.5"/>
<text text-anchor="start" x="330" y="-17.3" font-family="Helvetica,sans-Serif" font-size="9.00">prior_hessian::Composite</text>
<text text-anchor="middle" x="383" y="-7.3" font-family="Helvetica,sans-Serif" font-size="9.00">Dist::rllh_components</text>
</a>
</g>
</g>
<!-- Node2&#45;&gt;Node3 -->
<g id="edge2" class="edge"><title>Node2&#45;&gt;Node3</title>
<path fill="none" stroke="midnightblue" d="M296.059,-14.5C304.692,-14.5 313.452,-14.5 321.912,-14.5"/>
<polygon fill="midnightblue" stroke="midnightblue" points="296.007,-11.0001 286.007,-14.5 296.007,-18.0001 296.007,-11.0001"/>
</g>
</g>
</svg>
