<?xml version="1.0" encoding="UTF-8" standalone="no"?>
<!DOCTYPE svg PUBLIC "-//W3C//DTD SVG 1.1//EN"
 "http://www.w3.org/Graphics/SVG/1.1/DTD/svg11.dtd">
<!-- Generated by graphviz version 2.38.0 (20140413.2041)
 -->
<!-- Title: prior_hessian::ParetoDist::ParetoDist Pages: 1 -->
<!--zoomable 718 -->
<svg id="main" version="1.1" xmlns="http://www.w3.org/2000/svg" xmlns:xlink="http://www.w3.org/1999/xlink" xml:space="preserve" onload="init(evt)">
<style type="text/css"><![CDATA[
.edge:hover path { stroke: red; }
.edge:hover polygon { stroke: red; fill: red; }
]]></style>
<script type="text/javascript"><![CDATA[
var edges = document.getElementsByTagName('g');
if (edges && edges.length) {
  for (var i=0;i<edges.length;i++) {
    if (edges[i].id.substr(0,4)=='edge') {
      edges[i].setAttribute('class','edge');
    }
  }
}
]]></script>
        <defs>
                <circle id="rim" cx="0" cy="0" r="7"/>
                <circle id="rim2" cx="0" cy="0" r="3.5"/>
                <g id="zoomPlus">
                        <use xlink:href="#rim" fill="#404040">
                                <set attributeName="fill" to="#808080" begin="zoomplus.mouseover" end="zoomplus.mouseout"/>
                        </use>
                        <path d="M-4,0h8M0,-4v8" fill="none" stroke="white" stroke-width="1.5" pointer-events="none"/>
                </g>
                <g id="zoomMin">
                        <use xlink:href="#rim" fill="#404040">
                                <set attributeName="fill" to="#808080" begin="zoomminus.mouseover" end="zoomminus.mouseout"/>
                        </use>
                        <path d="M-4,0h8" fill="none" stroke="white" stroke-width="1.5" pointer-events="none"/>
                </g>
                <g id="dirArrow">
                        <path fill="none" stroke="white" stroke-width="1.5" d="M0,-3.0v7 M-2.5,-0.5L0,-3.0L2.5,-0.5"/>
                </g>
               <g id="resetDef">
                       <use xlink:href="#rim2" fill="#404040">
                               <set attributeName="fill" to="#808080" begin="reset.mouseover" end="reset.mouseout"/>
                       </use>
               </g>
        </defs>

<script type="text/javascript">
var viewWidth = 945;
var viewHeight = 718;
var sectionId = 'dynsection-2';
</script>
<script xlink:href="svgpan.js"/>
<svg id="graph" class="graph">
<g id="viewport">
<title>prior_hessian::ParetoDist::ParetoDist</title>
<polygon fill="white" stroke="none" points="-4,4 -4,-714 941,-714 941,4 -4,4"/>
<!-- Node1 -->
<g id="node1" class="node"><title>Node1</title>
<polygon fill="#bfbfbf" stroke="black" points="0,-120.5 0,-148.5 120,-148.5 120,-120.5 0,-120.5"/>
<text text-anchor="start" x="8" y="-137.3" font-family="Helvetica,sans-Serif" font-size="9.00">prior_hessian::ParetoDist</text>
<text text-anchor="middle" x="60" y="-127.3" font-family="Helvetica,sans-Serif" font-size="9.00">::ParetoDist</text>
</g>
<!-- Node2 -->
<g id="node2" class="node"><title>Node2</title>
<g id="a_node2"><a xlink:href="classprior__hessian_1_1ParetoDist.html#adc9bafea285be38186ec4ad161850b56" target="_top" xlink:title="prior_hessian::ParetoDist\l::get_param">
<polygon fill="white" stroke="black" points="156,-217.5 156,-245.5 276,-245.5 276,-217.5 156,-217.5"/>
<text text-anchor="start" x="164" y="-234.3" font-family="Helvetica,sans-Serif" font-size="9.00">prior_hessian::ParetoDist</text>
<text text-anchor="middle" x="216" y="-224.3" font-family="Helvetica,sans-Serif" font-size="9.00">::get_param</text>
</a>
</g>
</g>
<!-- Node1&#45;&gt;Node2 -->
<g id="edge1" class="edge"><title>Node1&#45;&gt;Node2</title>
<path fill="none" stroke="midnightblue" d="M83.3929,-148.605C109.853,-165.271 154.038,-193.102 183.831,-211.868"/>
<polygon fill="midnightblue" stroke="midnightblue" points="182.253,-215.01 192.58,-217.378 185.984,-209.087 182.253,-215.01"/>
</g>
<!-- Node25 -->
<g id="node25" class="node"><title>Node25</title>
<g id="a_node25"><a xlink:href="classprior__hessian_1_1ParetoDist.html#acea61a99a86906efba7fed853e408a59" target="_top" xlink:title="prior_hessian::ParetoDist\l::set_param">
<polygon fill="white" stroke="black" points="651,-2.5 651,-30.5 771,-30.5 771,-2.5 651,-2.5"/>
<text text-anchor="start" x="659" y="-19.3" font-family="Helvetica,sans-Serif" font-size="9.00">prior_hessian::ParetoDist</text>
<text text-anchor="middle" x="711" y="-9.3" font-family="Helvetica,sans-Serif" font-size="9.00">::set_param</text>
</a>
</g>
</g>
<!-- Node1&#45;&gt;Node25 -->
<g id="edge43" class="edge"><title>Node1&#45;&gt;Node25</title>
<path fill="none" stroke="midnightblue" d="M120.027,-123.768C240.199,-101.918 512.71,-52.3709 640.901,-29.0635"/>
<polygon fill="midnightblue" stroke="midnightblue" points="641.779,-32.4612 650.992,-27.2288 640.527,-25.5741 641.779,-32.4612"/>
</g>
<!-- Node3 -->
<g id="node3" class="node"><title>Node3</title>
<g id="a_node3"><a xlink:href="classprior__hessian_1_1ParetoDist.html#ad117226a3ad1eee827886fc7ba38acbf" target="_top" xlink:title="prior_hessian::ParetoDist\l::lbound">
<polygon fill="white" stroke="black" points="312,-388.5 312,-416.5 432,-416.5 432,-388.5 312,-388.5"/>
<text text-anchor="start" x="320" y="-405.3" font-family="Helvetica,sans-Serif" font-size="9.00">prior_hessian::ParetoDist</text>
<text text-anchor="middle" x="372" y="-395.3" font-family="Helvetica,sans-Serif" font-size="9.00">::lbound</text>
</a>
</g>
</g>
<!-- Node2&#45;&gt;Node3 -->
<g id="edge2" class="edge"><title>Node2&#45;&gt;Node3</title>
<path fill="none" stroke="midnightblue" d="M229.865,-245.785C256.769,-275.659 319.131,-344.905 351.188,-380.501"/>
<polygon fill="midnightblue" stroke="midnightblue" points="348.987,-383.287 358.28,-388.376 354.189,-378.603 348.987,-383.287"/>
</g>
<!-- Node4 -->
<g id="node4" class="node"><title>Node4</title>
<g id="a_node4"><a xlink:href="classprior__hessian_1_1ParetoDist.html#ac755ccef13fd2552861c27bf6c1cc29d" target="_top" xlink:title="prior_hessian::ParetoDist\l::set_lbound">
<polygon fill="white" stroke="black" points="476.5,-587.5 476.5,-615.5 596.5,-615.5 596.5,-587.5 476.5,-587.5"/>
<text text-anchor="start" x="484.5" y="-604.3" font-family="Helvetica,sans-Serif" font-size="9.00">prior_hessian::ParetoDist</text>
<text text-anchor="middle" x="536.5" y="-594.3" font-family="Helvetica,sans-Serif" font-size="9.00">::set_lbound</text>
</a>
</g>
</g>
<!-- Node3&#45;&gt;Node4 -->
<g id="edge3" class="edge"><title>Node3&#45;&gt;Node4</title>
<path fill="none" stroke="midnightblue" d="M376.814,-416.516C386.462,-449.394 414.93,-532.112 468,-577.5 469.985,-579.198 472.098,-580.778 474.306,-582.25"/>
<polygon fill="midnightblue" stroke="midnightblue" points="472.805,-585.425 483.215,-587.4 476.309,-579.365 472.805,-585.425"/>
</g>
<!-- Node5 -->
<g id="node5" class="node"><title>Node5</title>
<g id="a_node5"><a xlink:href="classprior__hessian_1_1ParetoDist.html#a0a1e20b0aa6c7b52c134fc2341b5fdd4" target="_top" xlink:title="prior_hessian::ParetoDist\l::mean">
<polygon fill="white" stroke="black" points="476.5,-540.5 476.5,-568.5 596.5,-568.5 596.5,-540.5 476.5,-540.5"/>
<text text-anchor="start" x="484.5" y="-557.3" font-family="Helvetica,sans-Serif" font-size="9.00">prior_hessian::ParetoDist</text>
<text text-anchor="middle" x="536.5" y="-547.3" font-family="Helvetica,sans-Serif" font-size="9.00">::mean</text>
</a>
</g>
</g>
<!-- Node3&#45;&gt;Node5 -->
<g id="edge4" class="edge"><title>Node3&#45;&gt;Node5</title>
<path fill="none" stroke="midnightblue" d="M383.055,-416.773C397.94,-441.764 428.4,-492.202 468,-521.5 476.865,-528.059 487.686,-532.953 498.045,-536.923"/>
<polygon fill="midnightblue" stroke="midnightblue" points="497.163,-540.327 507.757,-540.471 499.565,-533.752 497.163,-540.327"/>
</g>
<!-- Node6 -->
<g id="node6" class="node"><title>Node6</title>
<g id="a_node6"><a xlink:href="classprior__hessian_1_1ParetoDist.html#a74af41636088b6c727107c60dd9c81b2" target="_top" xlink:title="prior_hessian::ParetoDist\l::median">
<polygon fill="white" stroke="black" points="476.5,-493.5 476.5,-521.5 596.5,-521.5 596.5,-493.5 476.5,-493.5"/>
<text text-anchor="start" x="484.5" y="-510.3" font-family="Helvetica,sans-Serif" font-size="9.00">prior_hessian::ParetoDist</text>
<text text-anchor="middle" x="536.5" y="-500.3" font-family="Helvetica,sans-Serif" font-size="9.00">::median</text>
</a>
</g>
</g>
<!-- Node3&#45;&gt;Node6 -->
<g id="edge6" class="edge"><title>Node3&#45;&gt;Node6</title>
<path fill="none" stroke="midnightblue" d="M393.532,-416.787C411.7,-432.89 439.66,-458.13 468,-474.5 478.579,-480.611 490.977,-485.566 502.241,-489.86"/>
<polygon fill="midnightblue" stroke="midnightblue" points="501.182,-493.202 511.774,-493.477 503.665,-486.657 501.182,-493.202"/>
</g>
<!-- Node8 -->
<g id="node8" class="node"><title>Node8</title>
<g id="a_node8"><a xlink:href="classprior__hessian_1_1ParetoDist.html#afe706cb12ce6f667e7a3a9eb7311ef65" target="_top" xlink:title="prior_hessian::ParetoDist::cdf">
<polygon fill="white" stroke="black" points="468,-456.5 468,-474.5 605,-474.5 605,-456.5 468,-456.5"/>
<text text-anchor="middle" x="536.5" y="-463.3" font-family="Helvetica,sans-Serif" font-size="9.00">prior_hessian::ParetoDist::cdf</text>
</a>
</g>
</g>
<!-- Node3&#45;&gt;Node8 -->
<g id="edge9" class="edge"><title>Node3&#45;&gt;Node8</title>
<path fill="none" stroke="midnightblue" d="M417.8,-416.54C433.455,-423.429 451.292,-431.324 468,-437.5 483.287,-443.151 501.045,-448.087 514.509,-452.799"/>
<polygon fill="midnightblue" stroke="midnightblue" points="513.265,-456.07 523.856,-456.366 515.761,-449.53 513.265,-456.07"/>
</g>
<!-- Node9 -->
<g id="node9" class="node"><title>Node9</title>
<g id="a_node9"><a xlink:href="classprior__hessian_1_1ParetoDist.html#a9d1040a7a5ca261feebe56f42e5698ea" target="_top" xlink:title="prior_hessian::ParetoDist\l::icdf">
<polygon fill="white" stroke="black" points="476.5,-409.5 476.5,-437.5 596.5,-437.5 596.5,-409.5 476.5,-409.5"/>
<text text-anchor="start" x="484.5" y="-426.3" font-family="Helvetica,sans-Serif" font-size="9.00">prior_hessian::ParetoDist</text>
<text text-anchor="middle" x="536.5" y="-416.3" font-family="Helvetica,sans-Serif" font-size="9.00">::icdf</text>
</a>
</g>
</g>
<!-- Node3&#45;&gt;Node9 -->
<g id="edge12" class="edge"><title>Node3&#45;&gt;Node9</title>
<path fill="none" stroke="midnightblue" d="M432.126,-403.618C443.496,-404.849 455.492,-406.348 467.127,-407.99"/>
<polygon fill="midnightblue" stroke="midnightblue" points="466.833,-411.484 477.234,-409.466 467.844,-404.558 466.833,-411.484"/>
</g>
<!-- Node10 -->
<g id="node10" class="node"><title>Node10</title>
<g id="a_node10"><a xlink:href="classprior__hessian_1_1ParetoDist.html#a07cc43c2b299fc07660684f34f32d4ee" target="_top" xlink:title="prior_hessian::ParetoDist::pdf">
<polygon fill="white" stroke="black" points="468,-88.5 468,-106.5 605,-106.5 605,-88.5 468,-88.5"/>
<text text-anchor="middle" x="536.5" y="-95.3" font-family="Helvetica,sans-Serif" font-size="9.00">prior_hessian::ParetoDist::pdf</text>
</a>
</g>
</g>
<!-- Node3&#45;&gt;Node10 -->
<g id="edge15" class="edge"><title>Node3&#45;&gt;Node10</title>
<path fill="none" stroke="midnightblue" d="M373.123,-388.48C374.175,-342.222 383.376,-195.269 460.352,-114.127"/>
<polygon fill="midnightblue" stroke="midnightblue" points="462.916,-116.513 467.509,-106.965 457.964,-111.565 462.916,-116.513"/>
</g>
<!-- Node11 -->
<g id="node11" class="node"><title>Node11</title>
<g id="a_node11"><a xlink:href="classprior__hessian_1_1ParetoDist.html#a0f7ee813a098cd3fc9c7669cda6a340c" target="_top" xlink:title="prior_hessian::ParetoDist::llh">
<polygon fill="white" stroke="black" points="469.5,-372.5 469.5,-390.5 603.5,-390.5 603.5,-372.5 469.5,-372.5"/>
<text text-anchor="middle" x="536.5" y="-379.3" font-family="Helvetica,sans-Serif" font-size="9.00">prior_hessian::ParetoDist::llh</text>
</a>
</g>
</g>
<!-- Node3&#45;&gt;Node11 -->
<g id="edge17" class="edge"><title>Node3&#45;&gt;Node11</title>
<path fill="none" stroke="midnightblue" d="M431.207,-388.475C440.303,-387.1 449.818,-385.791 459.244,-384.616"/>
<polygon fill="midnightblue" stroke="midnightblue" points="459.9,-388.062 469.412,-383.396 459.067,-381.112 459.9,-388.062"/>
</g>
<!-- Node12 -->
<g id="node12" class="node"><title>Node12</title>
<g id="a_node12"><a xlink:href="classprior__hessian_1_1ParetoDist.html#a609ed75305325062ebd80dcfaa487c69" target="_top" xlink:title="prior_hessian::ParetoDist\l::rllh">
<polygon fill="white" stroke="black" points="651,-352.5 651,-380.5 771,-380.5 771,-352.5 651,-352.5"/>
<text text-anchor="start" x="659" y="-369.3" font-family="Helvetica,sans-Serif" font-size="9.00">prior_hessian::ParetoDist</text>
<text text-anchor="middle" x="711" y="-359.3" font-family="Helvetica,sans-Serif" font-size="9.00">::rllh</text>
</a>
</g>
</g>
<!-- Node3&#45;&gt;Node12 -->
<g id="edge22" class="edge"><title>Node3&#45;&gt;Node12</title>
<path fill="none" stroke="midnightblue" d="M398.713,-388.359C417.333,-378.957 443.442,-367.459 468,-362.5 525.295,-350.93 591.778,-353.115 640.546,-357.522"/>
<polygon fill="midnightblue" stroke="midnightblue" points="640.386,-361.023 650.674,-358.493 641.053,-354.055 640.386,-361.023"/>
</g>
<!-- Node13 -->
<g id="node13" class="node"><title>Node13</title>
<g id="a_node13"><a xlink:href="classprior__hessian_1_1ParetoDist.html#a3f802550dfcad6f0e3a8ca2e93709fe9" target="_top" xlink:title="prior_hessian::ParetoDist\l::grad">
<polygon fill="white" stroke="black" points="651,-305.5 651,-333.5 771,-333.5 771,-305.5 651,-305.5"/>
<text text-anchor="start" x="659" y="-322.3" font-family="Helvetica,sans-Serif" font-size="9.00">prior_hessian::ParetoDist</text>
<text text-anchor="middle" x="711" y="-312.3" font-family="Helvetica,sans-Serif" font-size="9.00">::grad</text>
</a>
</g>
</g>
<!-- Node3&#45;&gt;Node13 -->
<g id="edge23" class="edge"><title>Node3&#45;&gt;Node13</title>
<path fill="none" stroke="midnightblue" d="M393.474,-388.337C412.051,-376.226 440.64,-359.388 468,-350.5 524.414,-332.173 591.524,-324.62 640.747,-321.538"/>
<polygon fill="midnightblue" stroke="midnightblue" points="641.188,-325.019 650.968,-320.946 640.783,-318.03 641.188,-325.019"/>
</g>
<!-- Node14 -->
<g id="node14" class="node"><title>Node14</title>
<g id="a_node14"><a xlink:href="classprior__hessian_1_1ParetoDist.html#a24a4aaa7a8edb42009d0fa8390cb4a8f" target="_top" xlink:title="prior_hessian::ParetoDist\l::grad2">
<polygon fill="white" stroke="black" points="651,-258.5 651,-286.5 771,-286.5 771,-258.5 651,-258.5"/>
<text text-anchor="start" x="659" y="-275.3" font-family="Helvetica,sans-Serif" font-size="9.00">prior_hessian::ParetoDist</text>
<text text-anchor="middle" x="711" y="-265.3" font-family="Helvetica,sans-Serif" font-size="9.00">::grad2</text>
</a>
</g>
</g>
<!-- Node3&#45;&gt;Node14 -->
<g id="edge25" class="edge"><title>Node3&#45;&gt;Node14</title>
<path fill="none" stroke="midnightblue" d="M384.937,-388.408C401.559,-369.767 433.538,-337.315 468,-320.5 522.47,-293.922 590.661,-282.061 640.763,-276.767"/>
<polygon fill="midnightblue" stroke="midnightblue" points="641.245,-280.236 650.85,-275.764 640.552,-273.271 641.245,-280.236"/>
</g>
<!-- Node15 -->
<g id="node15" class="node"><title>Node15</title>
<g id="a_node15"><a xlink:href="classprior__hessian_1_1ParetoDist.html#a20c3f90ec9ac4b5bfd179a7c97ab36e7" target="_top" xlink:title="prior_hessian::ParetoDist\l::grad_grad2_accumulate">
<polygon fill="white" stroke="black" points="650,-211.5 650,-239.5 772,-239.5 772,-211.5 650,-211.5"/>
<text text-anchor="start" x="658" y="-228.3" font-family="Helvetica,sans-Serif" font-size="9.00">prior_hessian::ParetoDist</text>
<text text-anchor="middle" x="711" y="-218.3" font-family="Helvetica,sans-Serif" font-size="9.00">::grad_grad2_accumulate</text>
</a>
</g>
</g>
<!-- Node3&#45;&gt;Node15 -->
<g id="edge27" class="edge"><title>Node3&#45;&gt;Node15</title>
<path fill="none" stroke="midnightblue" d="M379.605,-388.363C392.592,-362.219 424.06,-306.437 468,-278.5 519.72,-245.616 588.845,-232.919 639.972,-228.125"/>
<polygon fill="midnightblue" stroke="midnightblue" points="640.284,-231.611 649.947,-227.268 639.684,-224.637 640.284,-231.611"/>
</g>
<!-- Node16 -->
<g id="node16" class="node"><title>Node16</title>
<g id="a_node16"><a xlink:href="classprior__hessian_1_1ParetoDist.html#abe706f0786b5e8ef20b7caff07ffad0c" target="_top" xlink:title="prior_hessian::ParetoDist\l::sample">
<polygon fill="white" stroke="black" points="476.5,-681.5 476.5,-709.5 596.5,-709.5 596.5,-681.5 476.5,-681.5"/>
<text text-anchor="start" x="484.5" y="-698.3" font-family="Helvetica,sans-Serif" font-size="9.00">prior_hessian::ParetoDist</text>
<text text-anchor="middle" x="536.5" y="-688.3" font-family="Helvetica,sans-Serif" font-size="9.00">::sample</text>
</a>
</g>
</g>
<!-- Node3&#45;&gt;Node16 -->
<g id="edge29" class="edge"><title>Node3&#45;&gt;Node16</title>
<path fill="none" stroke="midnightblue" d="M374.103,-416.506C377.988,-459.899 395.082,-591.302 468,-663.5 474.328,-669.766 482.429,-674.326 490.807,-677.844"/>
<polygon fill="midnightblue" stroke="midnightblue" points="489.712,-681.172 500.304,-681.41 492.172,-674.618 489.712,-681.172"/>
</g>
<!-- Node17 -->
<g id="node17" class="node"><title>Node17</title>
<g id="a_node17"><a xlink:href="classprior__hessian_1_1ParetoDist.html#a0923e8b25145eed6042aa933aa4354e5" target="_top" xlink:title="prior_hessian::ParetoDist\l::check_params_iter">
<polygon fill="white" stroke="black" points="476.5,-634.5 476.5,-662.5 596.5,-662.5 596.5,-634.5 476.5,-634.5"/>
<text text-anchor="start" x="484.5" y="-651.3" font-family="Helvetica,sans-Serif" font-size="9.00">prior_hessian::ParetoDist</text>
<text text-anchor="middle" x="536.5" y="-641.3" font-family="Helvetica,sans-Serif" font-size="9.00">::check_params_iter</text>
</a>
</g>
</g>
<!-- Node3&#45;&gt;Node17 -->
<g id="edge31" class="edge"><title>Node3&#45;&gt;Node17</title>
<path fill="none" stroke="midnightblue" d="M375.063,-416.691C381.449,-455.56 404.438,-564.805 468,-624.5 469.694,-626.091 471.501,-627.578 473.394,-628.967"/>
<polygon fill="midnightblue" stroke="midnightblue" points="471.839,-632.122 482.174,-634.453 475.548,-626.186 471.839,-632.122"/>
</g>
<!-- Node19 -->
<g id="node19" class="node"><title>Node19</title>
<g id="a_node19"><a xlink:href="classprior__hessian_1_1ParetoDist.html#af5791e2cef16b34e1bbdeec24b13d22e" target="_top" xlink:title="prior_hessian::ParetoDist\l::params">
<polygon fill="white" stroke="black" points="476.5,-172.5 476.5,-200.5 596.5,-200.5 596.5,-172.5 476.5,-172.5"/>
<text text-anchor="start" x="484.5" y="-189.3" font-family="Helvetica,sans-Serif" font-size="9.00">prior_hessian::ParetoDist</text>
<text text-anchor="middle" x="536.5" y="-179.3" font-family="Helvetica,sans-Serif" font-size="9.00">::params</text>
</a>
</g>
</g>
<!-- Node3&#45;&gt;Node19 -->
<g id="edge33" class="edge"><title>Node3&#45;&gt;Node19</title>
<path fill="none" stroke="midnightblue" d="M375.521,-388.364C383.625,-352.454 411.82,-259.181 468,-206.5 468.163,-206.347 468.327,-206.195 468.491,-206.044"/>
<polygon fill="midnightblue" stroke="midnightblue" points="470.786,-208.691 476.445,-199.734 466.436,-203.207 470.786,-208.691"/>
</g>
<!-- Node21 -->
<g id="node21" class="node"><title>Node21</title>
<g id="a_node21"><a xlink:href="classprior__hessian_1_1ParetoDist.html#abc9e60af487bda1a9ec5f7e55e38682c" target="_top" xlink:title="prior_hessian::ParetoDist\l::set_params_iter">
<polygon fill="white" stroke="black" points="476.5,-125.5 476.5,-153.5 596.5,-153.5 596.5,-125.5 476.5,-125.5"/>
<text text-anchor="start" x="484.5" y="-142.3" font-family="Helvetica,sans-Serif" font-size="9.00">prior_hessian::ParetoDist</text>
<text text-anchor="middle" x="536.5" y="-132.3" font-family="Helvetica,sans-Serif" font-size="9.00">::set_params_iter</text>
</a>
</g>
</g>
<!-- Node3&#45;&gt;Node21 -->
<g id="edge37" class="edge"><title>Node3&#45;&gt;Node21</title>
<path fill="none" stroke="midnightblue" d="M374.5,-388.325C379.587,-347.326 399.863,-227.409 468,-162.5 469.263,-161.296 470.592,-160.156 471.975,-159.075"/>
<polygon fill="midnightblue" stroke="midnightblue" points="473.993,-161.937 480.416,-153.511 470.141,-156.092 473.993,-161.937"/>
</g>
<!-- Node5&#45;&gt;Node3 -->
<g id="edge5" class="edge"><title>Node5&#45;&gt;Node3</title>
<path fill="none" stroke="midnightblue" d="M476.243,-544.84C473.367,-543.203 470.6,-541.423 468,-539.5 427.248,-509.351 396.176,-456.813 381.796,-426.065"/>
<polygon fill="midnightblue" stroke="midnightblue" points="384.984,-424.619 377.722,-416.903 378.587,-427.463 384.984,-424.619"/>
</g>
<!-- Node6&#45;&gt;Node3 -->
<g id="edge7" class="edge"><title>Node6&#45;&gt;Node3</title>
<path fill="none" stroke="midnightblue" d="M476.382,-496.933C473.503,-495.536 470.692,-494.055 468,-492.5 436.494,-474.301 405.457,-445.139 387.822,-424.681"/>
<polygon fill="midnightblue" stroke="midnightblue" points="390.38,-422.28 381.33,-416.771 384.97,-426.722 390.38,-422.28"/>
</g>
<!-- Node7 -->
<g id="node7" class="node"><title>Node7</title>
<g id="a_node7"><a xlink:href="classprior__hessian_1_1ParetoDist.html#ac610ecf8ce6df7b8b48c383e89706b80" target="_top" xlink:title="prior_hessian::ParetoDist\l::alpha">
<polygon fill="white" stroke="black" points="817,-328.5 817,-356.5 937,-356.5 937,-328.5 817,-328.5"/>
<text text-anchor="start" x="825" y="-345.3" font-family="Helvetica,sans-Serif" font-size="9.00">prior_hessian::ParetoDist</text>
<text text-anchor="middle" x="877" y="-335.3" font-family="Helvetica,sans-Serif" font-size="9.00">::alpha</text>
</a>
</g>
</g>
<!-- Node6&#45;&gt;Node7 -->
<g id="edge8" class="edge"><title>Node6&#45;&gt;Node7</title>
<path fill="none" stroke="midnightblue" d="M596.709,-508.673C648.746,-507.123 724.733,-498.381 781,-464.5 820.498,-440.717 849.758,-393.933 864.739,-365.716"/>
<polygon fill="midnightblue" stroke="midnightblue" points="867.977,-367.071 869.435,-356.577 861.751,-363.871 867.977,-367.071"/>
</g>
<!-- Node8&#45;&gt;Node3 -->
<g id="edge10" class="edge"><title>Node8&#45;&gt;Node3</title>
<path fill="none" stroke="midnightblue" d="M470.417,-456.38C469.605,-456.089 468.799,-455.795 468,-455.5 442.946,-446.239 415.352,-433.112 396.389,-421.906"/>
<polygon fill="midnightblue" stroke="midnightblue" points="398.164,-418.888 387.823,-416.585 394.471,-424.834 398.164,-418.888"/>
</g>
<!-- Node8&#45;&gt;Node7 -->
<g id="edge11" class="edge"><title>Node8&#45;&gt;Node7</title>
<path fill="none" stroke="midnightblue" d="M605.018,-467.729C655.76,-466.838 725.738,-460.01 781,-433.5 813.904,-417.716 842.744,-386.183 859.774,-364.71"/>
<polygon fill="midnightblue" stroke="midnightblue" points="862.576,-366.807 865.913,-356.751 857.034,-362.532 862.576,-366.807"/>
</g>
<!-- Node9&#45;&gt;Node3 -->
<g id="edge13" class="edge"><title>Node9&#45;&gt;Node3</title>
<path fill="none" stroke="midnightblue" d="M476.332,-422.377C464.956,-421.146 452.954,-419.645 441.316,-418.002"/>
<polygon fill="midnightblue" stroke="midnightblue" points="441.608,-414.508 431.207,-416.525 440.596,-421.434 441.608,-414.508"/>
</g>
<!-- Node9&#45;&gt;Node7 -->
<g id="edge14" class="edge"><title>Node9&#45;&gt;Node7</title>
<path fill="none" stroke="midnightblue" d="M596.549,-428.603C646.969,-430.93 720.687,-429.453 781,-408.5 808.638,-398.899 835.586,-378.85 853.678,-363.355"/>
<polygon fill="midnightblue" stroke="midnightblue" points="856.147,-365.845 861.339,-356.61 851.521,-360.592 856.147,-365.845"/>
</g>
<!-- Node10&#45;&gt;Node3 -->
<g id="edge16" class="edge"><title>Node10&#45;&gt;Node3</title>
<path fill="none" stroke="midnightblue" d="M509.562,-106.529C495.646,-109.494 479.12,-114.018 468,-124.5 393.502,-194.724 377.378,-324.559 373.922,-378.411"/>
<polygon fill="midnightblue" stroke="midnightblue" points="370.427,-378.238 373.374,-388.415 377.416,-378.621 370.427,-378.238"/>
</g>
<!-- Node11&#45;&gt;Node3 -->
<g id="edge20" class="edge"><title>Node11&#45;&gt;Node3</title>
<path fill="none" stroke="midnightblue" d="M506.711,-390.519C488.73,-394.019 464.761,-397.578 442.084,-400.254"/>
<polygon fill="midnightblue" stroke="midnightblue" points="441.669,-396.779 432.126,-401.382 442.456,-403.735 441.669,-396.779"/>
</g>
<!-- Node11&#45;&gt;Node7 -->
<g id="edge21" class="edge"><title>Node11&#45;&gt;Node7</title>
<path fill="none" stroke="midnightblue" d="M586.744,-390.532C636.46,-397.932 715.102,-404.91 781,-389.5 804.04,-384.112 827.902,-372.279 845.948,-361.835"/>
<polygon fill="midnightblue" stroke="midnightblue" points="848.026,-364.671 854.82,-356.541 844.439,-358.66 848.026,-364.671"/>
</g>
<!-- Node11&#45;&gt;Node12 -->
<g id="edge18" class="edge"><title>Node11&#45;&gt;Node12</title>
<path fill="none" stroke="midnightblue" d="M603.7,-375.744C615.799,-374.691 628.455,-373.591 640.643,-372.531"/>
<polygon fill="midnightblue" stroke="midnightblue" points="641.089,-376.006 650.748,-371.652 640.483,-369.032 641.089,-376.006"/>
</g>
<!-- Node12&#45;&gt;Node7 -->
<g id="edge19" class="edge"><title>Node12&#45;&gt;Node7</title>
<path fill="none" stroke="midnightblue" d="M771.208,-357.835C782.704,-356.153 794.849,-354.376 806.637,-352.651"/>
<polygon fill="midnightblue" stroke="midnightblue" points="807.491,-356.063 816.879,-351.152 806.478,-349.137 807.491,-356.063"/>
</g>
<!-- Node13&#45;&gt;Node7 -->
<g id="edge24" class="edge"><title>Node13&#45;&gt;Node7</title>
<path fill="none" stroke="midnightblue" d="M771.208,-327.804C782.704,-329.416 794.849,-331.119 806.637,-332.772"/>
<polygon fill="midnightblue" stroke="midnightblue" points="806.49,-336.286 816.879,-334.209 807.462,-329.354 806.49,-336.286"/>
</g>
<!-- Node14&#45;&gt;Node7 -->
<g id="edge26" class="edge"><title>Node14&#45;&gt;Node7</title>
<path fill="none" stroke="midnightblue" d="M757.24,-286.586C765.227,-289.354 773.411,-292.375 781,-295.5 801.099,-303.776 822.877,-314.421 840.504,-323.487"/>
<polygon fill="midnightblue" stroke="midnightblue" points="839.346,-326.83 849.833,-328.337 842.575,-320.619 839.346,-326.83"/>
</g>
<!-- Node15&#45;&gt;Node7 -->
<g id="edge28" class="edge"><title>Node15&#45;&gt;Node7</title>
<path fill="none" stroke="midnightblue" d="M763.32,-239.64C769.474,-242.188 775.513,-245.129 781,-248.5 812.415,-267.801 841.433,-299.359 858.926,-320.521"/>
<polygon fill="midnightblue" stroke="midnightblue" points="856.249,-322.776 865.262,-328.346 861.689,-318.371 856.249,-322.776"/>
</g>
<!-- Node16&#45;&gt;Node3 -->
<g id="edge30" class="edge"><title>Node16&#45;&gt;Node3</title>
<path fill="none" stroke="midnightblue" d="M476.42,-688.264C473.391,-686.275 470.551,-684.026 468,-681.5 395.818,-610.03 378.338,-480.544 374.225,-426.682"/>
<polygon fill="midnightblue" stroke="midnightblue" points="377.715,-426.412 373.552,-416.67 370.731,-426.882 377.715,-426.412"/>
</g>
<!-- Node18 -->
<g id="node18" class="node"><title>Node18</title>
<g id="a_node18"><a xlink:href="classprior__hessian_1_1ParetoDist.html#abac82051de116baf787e442c705e96c3" target="_top" xlink:title="prior_hessian::ParetoDist\l::check_params">
<polygon fill="white" stroke="black" points="651,-634.5 651,-662.5 771,-662.5 771,-634.5 651,-634.5"/>
<text text-anchor="start" x="659" y="-651.3" font-family="Helvetica,sans-Serif" font-size="9.00">prior_hessian::ParetoDist</text>
<text text-anchor="middle" x="711" y="-641.3" font-family="Helvetica,sans-Serif" font-size="9.00">::check_params</text>
</a>
</g>
</g>
<!-- Node17&#45;&gt;Node18 -->
<g id="edge32" class="edge"><title>Node17&#45;&gt;Node18</title>
<path fill="none" stroke="midnightblue" d="M596.865,-648.5C610.902,-648.5 625.996,-648.5 640.44,-648.5"/>
<polygon fill="midnightblue" stroke="midnightblue" points="640.818,-652 650.818,-648.5 640.818,-645 640.818,-652"/>
</g>
<!-- Node19&#45;&gt;Node3 -->
<g id="edge34" class="edge"><title>Node19&#45;&gt;Node3</title>
<path fill="none" stroke="midnightblue" d="M510.355,-200.631C496.521,-206.196 479.816,-213.42 468,-224.5 420.897,-268.67 393.467,-341.374 381.056,-378.896"/>
<polygon fill="midnightblue" stroke="midnightblue" points="377.699,-377.902 377.95,-388.494 384.359,-380.057 377.699,-377.902"/>
</g>
<!-- Node19&#45;&gt;Node7 -->
<g id="edge35" class="edge"><title>Node19&#45;&gt;Node7</title>
<path fill="none" stroke="midnightblue" d="M596.719,-176.201C648.763,-170.245 724.754,-169.317 781,-201.5 826.542,-227.558 854.643,-285.413 867.565,-318.342"/>
<polygon fill="midnightblue" stroke="midnightblue" points="864.434,-319.958 871.23,-328.086 870.985,-317.494 864.434,-319.958"/>
</g>
<!-- Node20 -->
<g id="node20" class="node"><title>Node20</title>
<g id="a_node20"><a xlink:href="classprior__hessian_1_1ParetoDist.html#a218ebbdec10fbdfcaabdd79dd180b39e" target="_top" xlink:title="prior_hessian::ParetoDist\l::set_params">
<polygon fill="white" stroke="black" points="651,-125.5 651,-153.5 771,-153.5 771,-125.5 651,-125.5"/>
<text text-anchor="start" x="659" y="-142.3" font-family="Helvetica,sans-Serif" font-size="9.00">prior_hessian::ParetoDist</text>
<text text-anchor="middle" x="711" y="-132.3" font-family="Helvetica,sans-Serif" font-size="9.00">::set_params</text>
</a>
</g>
</g>
<!-- Node19&#45;&gt;Node20 -->
<g id="edge36" class="edge"><title>Node19&#45;&gt;Node20</title>
<path fill="none" stroke="midnightblue" d="M589.256,-172.398C608.018,-167.286 629.387,-161.464 648.881,-156.153"/>
<polygon fill="midnightblue" stroke="midnightblue" points="649.85,-159.516 658.578,-153.511 648.01,-152.763 649.85,-159.516"/>
</g>
<!-- Node21&#45;&gt;Node7 -->
<g id="edge41" class="edge"><title>Node21&#45;&gt;Node7</title>
<path fill="none" stroke="midnightblue" d="M587.635,-125.453C604.454,-121.391 623.407,-117.513 641,-115.5 702.819,-108.426 729.201,-81.0258 781,-115.5 850.454,-161.725 869.227,-269.523 874.224,-318.054"/>
<polygon fill="midnightblue" stroke="midnightblue" points="870.761,-318.619 875.159,-328.258 877.732,-317.981 870.761,-318.619"/>
</g>
<!-- Node21&#45;&gt;Node20 -->
<g id="edge42" class="edge"><title>Node21&#45;&gt;Node20</title>
<path fill="none" stroke="midnightblue" d="M596.865,-139.5C610.902,-139.5 625.996,-139.5 640.44,-139.5"/>
<polygon fill="midnightblue" stroke="midnightblue" points="640.818,-143 650.818,-139.5 640.818,-136 640.818,-143"/>
</g>
<!-- Node22 -->
<g id="node22" class="node"><title>Node22</title>
<g id="a_node22"><a xlink:href="classprior__hessian_1_1ParetoDist.html#acef10b17c003468838f548ed255d7e1f" target="_top" xlink:title="prior_hessian::ParetoDist::min">
<polygon fill="white" stroke="black" points="641,-49.5 641,-67.5 781,-67.5 781,-49.5 641,-49.5"/>
<text text-anchor="middle" x="711" y="-56.3" font-family="Helvetica,sans-Serif" font-size="9.00">prior_hessian::ParetoDist::min</text>
</a>
</g>
</g>
<!-- Node21&#45;&gt;Node22 -->
<g id="edge38" class="edge"><title>Node21&#45;&gt;Node22</title>
<path fill="none" stroke="midnightblue" d="M584.727,-125.459C591.738,-122.599 598.713,-119.284 605,-115.5 623.597,-104.307 622.365,-93.6285 641,-82.5 648.595,-77.9643 657.174,-74.1186 665.636,-70.9235"/>
<polygon fill="midnightblue" stroke="midnightblue" points="666.817,-74.2185 675.082,-67.5906 664.488,-67.6174 666.817,-74.2185"/>
</g>
<!-- Node23 -->
<g id="node23" class="node"><title>Node23</title>
<g id="a_node23"><a xlink:href="classprior__hessian_1_1ParetoDist.html#ace279cdfa7dbdcd8805ddb2ec4b46ee2" target="_top" xlink:title="prior_hessian::ParetoDist\l::set_min">
<polygon fill="white" stroke="black" points="817,-47.5 817,-75.5 937,-75.5 937,-47.5 817,-47.5"/>
<text text-anchor="start" x="825" y="-64.3" font-family="Helvetica,sans-Serif" font-size="9.00">prior_hessian::ParetoDist</text>
<text text-anchor="middle" x="877" y="-54.3" font-family="Helvetica,sans-Serif" font-size="9.00">::set_min</text>
</a>
</g>
</g>
<!-- Node22&#45;&gt;Node23 -->
<g id="edge39" class="edge"><title>Node22&#45;&gt;Node23</title>
<path fill="none" stroke="midnightblue" d="M781.075,-59.7636C789.539,-59.9184 798.192,-60.0767 806.66,-60.2316"/>
<polygon fill="midnightblue" stroke="midnightblue" points="806.81,-63.7348 816.872,-60.4184 806.938,-56.736 806.81,-63.7348"/>
</g>
<!-- Node24 -->
<g id="node24" class="node"><title>Node24</title>
<g id="a_node24"><a xlink:href="classprior__hessian_1_1ParetoDist.html#a5c2b026477495e3fc91a1cfb653d8a97" target="_top" xlink:title="prior_hessian::ParetoDist\l::set_alpha">
<polygon fill="white" stroke="black" points="817,-0.5 817,-28.5 937,-28.5 937,-0.5 817,-0.5"/>
<text text-anchor="start" x="825" y="-17.3" font-family="Helvetica,sans-Serif" font-size="9.00">prior_hessian::ParetoDist</text>
<text text-anchor="middle" x="877" y="-7.3" font-family="Helvetica,sans-Serif" font-size="9.00">::set_alpha</text>
</a>
</g>
</g>
<!-- Node22&#45;&gt;Node24 -->
<g id="edge40" class="edge"><title>Node22&#45;&gt;Node24</title>
<path fill="none" stroke="midnightblue" d="M745.584,-49.4898C765.263,-44.2099 790.739,-37.3749 813.946,-31.1487"/>
<polygon fill="midnightblue" stroke="midnightblue" points="814.978,-34.4957 823.729,-28.5239 813.164,-27.7348 814.978,-34.4957"/>
</g>
<!-- Node25&#45;&gt;Node23 -->
<g id="edge44" class="edge"><title>Node25&#45;&gt;Node23</title>
<path fill="none" stroke="midnightblue" d="M763.441,-30.6148C779.774,-35.0965 797.995,-40.0962 814.938,-44.7451"/>
<polygon fill="midnightblue" stroke="midnightblue" points="814.172,-48.1643 824.742,-47.4353 816.024,-41.4139 814.172,-48.1643"/>
</g>
<!-- Node25&#45;&gt;Node24 -->
<g id="edge45" class="edge"><title>Node25&#45;&gt;Node24</title>
<path fill="none" stroke="midnightblue" d="M771.208,-15.778C782.704,-15.6378 794.849,-15.4896 806.637,-15.3459"/>
<polygon fill="midnightblue" stroke="midnightblue" points="806.923,-18.8428 816.879,-15.221 806.837,-11.8433 806.923,-18.8428"/>
</g>
</g>
</svg>
        <g id="navigator" transform="translate(0 0)" fill="#404254">
                <rect fill="#f2f5e9" fill-opacity="0.5" stroke="#606060" stroke-width=".5" x="0" y="0" width="60" height="60"/>
                <use id="zoomplus" xlink:href="#zoomPlus" x="17" y="9" onmousedown="handleZoom(evt,'in')"/>
                <use id="zoomminus" xlink:href="#zoomMin" x="42" y="9" onmousedown="handleZoom(evt,'out')"/>
                <use id="reset" xlink:href="#resetDef" x="30" y="36" onmousedown="handleReset()"/>
                <g id="arrowUp" xlink:href="#dirArrow" transform="translate(30 24)" onmousedown="handlePan(0,-1)">
                  <use xlink:href="#rim" fill="#404040">
                        <set attributeName="fill" to="#808080" begin="arrowUp.mouseover" end="arrowUp.mouseout"/>
                  </use>
                  <path fill="none" stroke="white" stroke-width="1.5" d="M0,-3.0v7 M-2.5,-0.5L0,-3.0L2.5,-0.5"/>
                </g>
                <g id="arrowRight" xlink:href="#dirArrow" transform="rotate(90) translate(36 -43)" onmousedown="handlePan(1,0)">
                  <use xlink:href="#rim" fill="#404040">
                        <set attributeName="fill" to="#808080" begin="arrowRight.mouseover" end="arrowRight.mouseout"/>
                  </use>
                  <path fill="none" stroke="white" stroke-width="1.5" d="M0,-3.0v7 M-2.5,-0.5L0,-3.0L2.5,-0.5"/>
                </g>
                <g id="arrowDown" xlink:href="#dirArrow" transform="rotate(180) translate(-30 -48)" onmousedown="handlePan(0,1)">
                  <use xlink:href="#rim" fill="#404040">
                        <set attributeName="fill" to="#808080" begin="arrowDown.mouseover" end="arrowDown.mouseout"/>
                  </use>
                  <path fill="none" stroke="white" stroke-width="1.5" d="M0,-3.0v7 M-2.5,-0.5L0,-3.0L2.5,-0.5"/>
                </g>
                <g id="arrowLeft" xlink:href="#dirArrow" transform="rotate(270) translate(-36 17)" onmousedown="handlePan(-1,0)">
                  <use xlink:href="#rim" fill="#404040">
                        <set attributeName="fill" to="#808080" begin="arrowLeft.mouseover" end="arrowLeft.mouseout"/>
                  </use>
                  <path fill="none" stroke="white" stroke-width="1.5" d="M0,-3.0v7 M-2.5,-0.5L0,-3.0L2.5,-0.5"/>
                </g>
        </g>
        <svg viewBox="0 0 15 15" width="100%" height="30px" preserveAspectRatio="xMaxYMin meet">
         <g id="arrow_out" transform="scale(0.3 0.3)">
          <a xlink:href="classprior__hessian_1_1ParetoDist_a572ad9f28d83da610e1b81c88876563a_cgraph_org.svg" target="_base">
           <rect id="button" ry="5" rx="5" y="6" x="6" height="38" width="38"
                fill="#f2f5e9" fill-opacity="0.5" stroke="#606060" stroke-width="1.0"/>
           <path id="arrow"
             d="M 11.500037,31.436501 C 11.940474,20.09759 22.043105,11.32322 32.158766,21.979434 L 37.068811,17.246167 C 37.068811,17.246167 37.088388,32 37.088388,32 L 22.160133,31.978069 C 22.160133,31.978069 26.997745,27.140456 26.997745,27.140456 C 18.528582,18.264221 13.291696,25.230495 11.500037,31.436501 z"
             style="fill:#404040;"/>
          </a>
         </g>
        </svg>
</svg>
