<?xml version="1.0" encoding="UTF-8" standalone="no"?>
<!DOCTYPE svg PUBLIC "-//W3C//DTD SVG 1.1//EN"
 "http://www.w3.org/Graphics/SVG/1.1/DTD/svg11.dtd">
<!-- Generated by graphviz version 2.38.0 (20140413.2041)
 -->
<!-- Title: prior_hessian::ParetoDist::grad_grad2_accumulate Pages: 1 -->
<svg width="615pt" height="430pt"
 viewBox="0.00 0.00 615.00 430.00" xmlns="http://www.w3.org/2000/svg" xmlns:xlink="http://www.w3.org/1999/xlink">
<g id="graph0" class="graph" transform="scale(1 1) rotate(0) translate(4 426)">
<title>prior_hessian::ParetoDist::grad_grad2_accumulate</title>
<polygon fill="white" stroke="none" points="-4,4 -4,-426 611,-426 611,4 -4,4"/>
<!-- Node1 -->
<g id="node1" class="node"><title>Node1</title>
<polygon fill="#bfbfbf" stroke="black" points="0,-191.5 0,-219.5 122,-219.5 122,-191.5 0,-191.5"/>
<text text-anchor="start" x="8" y="-208.3" font-family="Helvetica,sans-Serif" font-size="9.00">prior_hessian::ParetoDist</text>
<text text-anchor="middle" x="61" y="-198.3" font-family="Helvetica,sans-Serif" font-size="9.00">::grad_grad2_accumulate</text>
</g>
<!-- Node2 -->
<g id="node2" class="node"><title>Node2</title>
<g id="a_node2"><a xlink:href="classprior__hessian_1_1ParetoDist.html#ad117226a3ad1eee827886fc7ba38acbf" target="_top" xlink:title="prior_hessian::ParetoDist\l::lbound">
<polygon fill="white" stroke="black" points="158,-191.5 158,-219.5 278,-219.5 278,-191.5 158,-191.5"/>
<text text-anchor="start" x="166" y="-208.3" font-family="Helvetica,sans-Serif" font-size="9.00">prior_hessian::ParetoDist</text>
<text text-anchor="middle" x="218" y="-198.3" font-family="Helvetica,sans-Serif" font-size="9.00">::lbound</text>
</a>
</g>
</g>
<!-- Node1&#45;&gt;Node2 -->
<g id="edge1" class="edge"><title>Node1&#45;&gt;Node2</title>
<path fill="none" stroke="midnightblue" d="M132.579,-205.5C141.014,-205.5 149.56,-205.5 157.812,-205.5"/>
<polygon fill="midnightblue" stroke="midnightblue" points="132.371,-202 122.371,-205.5 132.371,-209 132.371,-202"/>
</g>
<!-- Node3 -->
<g id="node3" class="node"><title>Node3</title>
<g id="a_node3"><a xlink:href="classprior__hessian_1_1ParetoDist.html#a0a1e20b0aa6c7b52c134fc2341b5fdd4" target="_top" xlink:title="prior_hessian::ParetoDist\l::mean">
<polygon fill="white" stroke="black" points="322.5,-393.5 322.5,-421.5 442.5,-421.5 442.5,-393.5 322.5,-393.5"/>
<text text-anchor="start" x="330.5" y="-410.3" font-family="Helvetica,sans-Serif" font-size="9.00">prior_hessian::ParetoDist</text>
<text text-anchor="middle" x="382.5" y="-400.3" font-family="Helvetica,sans-Serif" font-size="9.00">::mean</text>
</a>
</g>
</g>
<!-- Node2&#45;&gt;Node3 -->
<g id="edge2" class="edge"><title>Node2&#45;&gt;Node3</title>
<path fill="none" stroke="midnightblue" d="M227.297,-229.389C239.744,-266.065 266.958,-335.421 314,-375.5 323.989,-384.011 337.279,-389.417 349.423,-393.469"/>
<polygon fill="midnightblue" stroke="midnightblue" points="230.503,-227.936 224.038,-219.542 223.858,-230.135 230.503,-227.936"/>
</g>
<!-- Node4 -->
<g id="node4" class="node"><title>Node4</title>
<g id="a_node4"><a xlink:href="classprior__hessian_1_1ParetoDist.html#a74af41636088b6c727107c60dd9c81b2" target="_top" xlink:title="prior_hessian::ParetoDist\l::median">
<polygon fill="white" stroke="black" points="322.5,-346.5 322.5,-374.5 442.5,-374.5 442.5,-346.5 322.5,-346.5"/>
<text text-anchor="start" x="330.5" y="-363.3" font-family="Helvetica,sans-Serif" font-size="9.00">prior_hessian::ParetoDist</text>
<text text-anchor="middle" x="382.5" y="-353.3" font-family="Helvetica,sans-Serif" font-size="9.00">::median</text>
</a>
</g>
</g>
<!-- Node2&#45;&gt;Node4 -->
<g id="edge4" class="edge"><title>Node2&#45;&gt;Node4</title>
<path fill="none" stroke="midnightblue" d="M233.444,-228.592C249.312,-256.197 277.472,-301.435 314,-328.5 325.141,-336.755 339.454,-342.189 352.03,-346.444"/>
<polygon fill="midnightblue" stroke="midnightblue" points="236.332,-226.59 228.35,-219.622 230.245,-230.046 236.332,-226.59"/>
</g>
<!-- Node5 -->
<g id="node5" class="node"><title>Node5</title>
<g id="a_node5"><a xlink:href="classprior__hessian_1_1ParetoDist.html#a0f7ee813a098cd3fc9c7669cda6a340c" target="_top" xlink:title="prior_hessian::ParetoDist::llh">
<polygon fill="white" stroke="black" points="315.5,-309.5 315.5,-327.5 449.5,-327.5 449.5,-309.5 315.5,-309.5"/>
<text text-anchor="middle" x="382.5" y="-316.3" font-family="Helvetica,sans-Serif" font-size="9.00">prior_hessian::ParetoDist::llh</text>
</a>
</g>
</g>
<!-- Node2&#45;&gt;Node5 -->
<g id="edge6" class="edge"><title>Node2&#45;&gt;Node5</title>
<path fill="none" stroke="midnightblue" d="M241.202,-227.412C258.752,-247.048 285.051,-274.81 314,-291.5 329.971,-300.708 350.773,-305.327 365.038,-309.444"/>
<polygon fill="midnightblue" stroke="midnightblue" points="243.715,-224.97 234.463,-219.808 238.477,-229.613 243.715,-224.97"/>
</g>
<!-- Node6 -->
<g id="node6" class="node"><title>Node6</title>
<g id="a_node6"><a xlink:href="classprior__hessian_1_1ParetoDist.html#ae3776388549cf35e9fea96963624cf6e" target="_top" xlink:title="prior_hessian::ParetoDist\l::in_bounds">
<polygon fill="white" stroke="black" points="322.5,-262.5 322.5,-290.5 442.5,-290.5 442.5,-262.5 322.5,-262.5"/>
<text text-anchor="start" x="330.5" y="-279.3" font-family="Helvetica,sans-Serif" font-size="9.00">prior_hessian::ParetoDist</text>
<text text-anchor="middle" x="382.5" y="-269.3" font-family="Helvetica,sans-Serif" font-size="9.00">::in_bounds</text>
</a>
</g>
</g>
<!-- Node2&#45;&gt;Node6 -->
<g id="edge8" class="edge"><title>Node2&#45;&gt;Node6</title>
<path fill="none" stroke="midnightblue" d="M253.232,-224.253C271.068,-233.648 293.403,-244.837 314,-253.5 321.418,-256.62 329.42,-259.638 337.233,-262.405"/>
<polygon fill="midnightblue" stroke="midnightblue" points="254.821,-221.134 244.349,-219.526 251.533,-227.313 254.821,-221.134"/>
</g>
<!-- Node7 -->
<g id="node7" class="node"><title>Node7</title>
<g id="a_node7"><a xlink:href="classprior__hessian_1_1ParetoDist.html#af5791e2cef16b34e1bbdeec24b13d22e" target="_top" xlink:title="prior_hessian::ParetoDist\l::params">
<polygon fill="white" stroke="black" points="322.5,-215.5 322.5,-243.5 442.5,-243.5 442.5,-215.5 322.5,-215.5"/>
<text text-anchor="start" x="330.5" y="-232.3" font-family="Helvetica,sans-Serif" font-size="9.00">prior_hessian::ParetoDist</text>
<text text-anchor="middle" x="382.5" y="-222.3" font-family="Helvetica,sans-Serif" font-size="9.00">::params</text>
</a>
</g>
</g>
<!-- Node2&#45;&gt;Node7 -->
<g id="edge9" class="edge"><title>Node2&#45;&gt;Node7</title>
<path fill="none" stroke="midnightblue" d="M288.095,-209.022C301.936,-210.912 316.258,-213.138 329.406,-215.458"/>
<polygon fill="midnightblue" stroke="midnightblue" points="288.497,-205.545 278.126,-207.71 287.584,-212.485 288.497,-205.545"/>
</g>
<!-- Node9 -->
<g id="node9" class="node"><title>Node9</title>
<g id="a_node9"><a xlink:href="classprior__hessian_1_1ParetoDist.html#adc9bafea285be38186ec4ad161850b56" target="_top" xlink:title="prior_hessian::ParetoDist\l::get_param">
<polygon fill="white" stroke="black" points="322.5,-168.5 322.5,-196.5 442.5,-196.5 442.5,-168.5 322.5,-168.5"/>
<text text-anchor="start" x="330.5" y="-185.3" font-family="Helvetica,sans-Serif" font-size="9.00">prior_hessian::ParetoDist</text>
<text text-anchor="middle" x="382.5" y="-175.3" font-family="Helvetica,sans-Serif" font-size="9.00">::get_param</text>
</a>
</g>
</g>
<!-- Node2&#45;&gt;Node9 -->
<g id="edge13" class="edge"><title>Node2&#45;&gt;Node9</title>
<path fill="none" stroke="midnightblue" d="M288.065,-195.725C299.498,-194.106 311.26,-192.442 322.418,-190.862"/>
<polygon fill="midnightblue" stroke="midnightblue" points="287.537,-192.264 278.126,-197.131 288.518,-199.195 287.537,-192.264"/>
</g>
<!-- Node11 -->
<g id="node11" class="node"><title>Node11</title>
<g id="a_node11"><a xlink:href="classprior__hessian_1_1ParetoDist.html#afe706cb12ce6f667e7a3a9eb7311ef65" target="_top" xlink:title="prior_hessian::ParetoDist::cdf">
<polygon fill="white" stroke="black" points="314,-131.5 314,-149.5 451,-149.5 451,-131.5 314,-131.5"/>
<text text-anchor="middle" x="382.5" y="-138.3" font-family="Helvetica,sans-Serif" font-size="9.00">prior_hessian::ParetoDist::cdf</text>
</a>
</g>
</g>
<!-- Node2&#45;&gt;Node11 -->
<g id="edge15" class="edge"><title>Node2&#45;&gt;Node11</title>
<path fill="none" stroke="midnightblue" d="M241.662,-185.883C260.601,-174.119 288.528,-160.165 314,-150.5 314.797,-150.198 315.6,-149.898 316.41,-149.6"/>
<polygon fill="midnightblue" stroke="midnightblue" points="239.593,-183.053 233.136,-191.453 243.422,-188.913 239.593,-183.053"/>
</g>
<!-- Node12 -->
<g id="node12" class="node"><title>Node12</title>
<g id="a_node12"><a xlink:href="classprior__hessian_1_1ParetoDist.html#a9d1040a7a5ca261feebe56f42e5698ea" target="_top" xlink:title="prior_hessian::ParetoDist\l::icdf">
<polygon fill="white" stroke="black" points="322.5,-84.5 322.5,-112.5 442.5,-112.5 442.5,-84.5 322.5,-84.5"/>
<text text-anchor="start" x="330.5" y="-101.3" font-family="Helvetica,sans-Serif" font-size="9.00">prior_hessian::ParetoDist</text>
<text text-anchor="middle" x="382.5" y="-91.3" font-family="Helvetica,sans-Serif" font-size="9.00">::icdf</text>
</a>
</g>
</g>
<!-- Node2&#45;&gt;Node12 -->
<g id="edge17" class="edge"><title>Node2&#45;&gt;Node12</title>
<path fill="none" stroke="midnightblue" d="M233.47,-183.235C250.983,-162.297 282.109,-132.179 314,-113.5 316.683,-111.929 319.486,-110.435 322.359,-109.028"/>
<polygon fill="midnightblue" stroke="midnightblue" points="230.53,-181.309 227.04,-191.313 236.007,-185.669 230.53,-181.309"/>
</g>
<!-- Node13 -->
<g id="node13" class="node"><title>Node13</title>
<g id="a_node13"><a xlink:href="classprior__hessian_1_1ParetoDist.html#a07cc43c2b299fc07660684f34f32d4ee" target="_top" xlink:title="prior_hessian::ParetoDist::pdf">
<polygon fill="white" stroke="black" points="314,-47.5 314,-65.5 451,-65.5 451,-47.5 314,-47.5"/>
<text text-anchor="middle" x="382.5" y="-54.3" font-family="Helvetica,sans-Serif" font-size="9.00">prior_hessian::ParetoDist::pdf</text>
</a>
</g>
</g>
<!-- Node2&#45;&gt;Node13 -->
<g id="edge19" class="edge"><title>Node2&#45;&gt;Node13</title>
<path fill="none" stroke="midnightblue" d="M227.274,-181.779C241.134,-150.208 271.737,-95.8531 314,-66.5 314.4,-66.2222 314.804,-65.9485 315.212,-65.6787"/>
<polygon fill="midnightblue" stroke="midnightblue" points="223.978,-180.591 223.369,-191.168 230.441,-183.279 223.978,-180.591"/>
</g>
<!-- Node14 -->
<g id="node14" class="node"><title>Node14</title>
<g id="a_node14"><a xlink:href="classprior__hessian_1_1ParetoDist.html#abe706f0786b5e8ef20b7caff07ffad0c" target="_top" xlink:title="prior_hessian::ParetoDist\l::sample">
<polygon fill="white" stroke="black" points="322.5,-0.5 322.5,-28.5 442.5,-28.5 442.5,-0.5 322.5,-0.5"/>
<text text-anchor="start" x="330.5" y="-17.3" font-family="Helvetica,sans-Serif" font-size="9.00">prior_hessian::ParetoDist</text>
<text text-anchor="middle" x="382.5" y="-7.3" font-family="Helvetica,sans-Serif" font-size="9.00">::sample</text>
</a>
</g>
</g>
<!-- Node2&#45;&gt;Node14 -->
<g id="edge21" class="edge"><title>Node2&#45;&gt;Node14</title>
<path fill="none" stroke="midnightblue" d="M224.813,-181.345C236.311,-143.274 265.164,-70.4344 314,-29.5 316.574,-27.3428 319.355,-25.3737 322.272,-23.5875"/>
<polygon fill="midnightblue" stroke="midnightblue" points="221.406,-180.529 222.028,-191.106 228.138,-182.45 221.406,-180.529"/>
</g>
<!-- Node3&#45;&gt;Node2 -->
<g id="edge3" class="edge"><title>Node3&#45;&gt;Node2</title>
<path fill="none" stroke="midnightblue" d="M314.48,-393.904C314.319,-393.77 314.159,-393.635 314,-393.5 257.493,-345.358 229.597,-254.974 221.536,-219.646"/>
<polygon fill="midnightblue" stroke="midnightblue" points="312.027,-396.454 322.202,-399.407 316.089,-390.753 312.027,-396.454"/>
</g>
<!-- Node4&#45;&gt;Node2 -->
<g id="edge5" class="edge"><title>Node4&#45;&gt;Node2</title>
<path fill="none" stroke="midnightblue" d="M314.077,-345.587C264.44,-305.853 234.293,-247.279 223.438,-219.828"/>
<polygon fill="midnightblue" stroke="midnightblue" points="312.137,-348.51 322.21,-351.795 316.384,-342.945 312.137,-348.51"/>
</g>
<!-- Node5&#45;&gt;Node2 -->
<g id="edge7" class="edge"><title>Node5&#45;&gt;Node2</title>
<path fill="none" stroke="midnightblue" d="M306.704,-304.939C269.402,-280.48 238.415,-241.039 225.469,-219.554"/>
<polygon fill="midnightblue" stroke="midnightblue" points="304.921,-307.952 315.271,-310.217 308.593,-301.992 304.921,-307.952"/>
</g>
<!-- Node7&#45;&gt;Node2 -->
<g id="edge12" class="edge"><title>Node7&#45;&gt;Node2</title>
<path fill="none" stroke="midnightblue" d="M312.227,-225.953C298.36,-224.058 284.018,-221.826 270.863,-219.501"/>
<polygon fill="midnightblue" stroke="midnightblue" points="311.844,-229.433 322.216,-227.27 312.759,-222.493 311.844,-229.433"/>
</g>
<!-- Node8 -->
<g id="node8" class="node"><title>Node8</title>
<g id="a_node8"><a xlink:href="classprior__hessian_1_1ParetoDist.html#ad90392cbacf44f0760b46e80a2676a08" target="_top" xlink:title="prior_hessian::ParetoDist\l::check_params">
<polygon fill="white" stroke="black" points="487,-215.5 487,-243.5 607,-243.5 607,-215.5 487,-215.5"/>
<text text-anchor="start" x="495" y="-232.3" font-family="Helvetica,sans-Serif" font-size="9.00">prior_hessian::ParetoDist</text>
<text text-anchor="middle" x="547" y="-222.3" font-family="Helvetica,sans-Serif" font-size="9.00">::check_params</text>
</a>
</g>
</g>
<!-- Node7&#45;&gt;Node8 -->
<g id="edge10" class="edge"><title>Node7&#45;&gt;Node8</title>
<path fill="none" stroke="midnightblue" d="M452.911,-229.5C464.235,-229.5 475.873,-229.5 486.918,-229.5"/>
<polygon fill="midnightblue" stroke="midnightblue" points="452.626,-226 442.626,-229.5 452.626,-233 452.626,-226"/>
</g>
<!-- Node8&#45;&gt;Node8 -->
<g id="edge11" class="edge"><title>Node8&#45;&gt;Node8</title>
<path fill="none" stroke="midnightblue" d="M517.354,-253.487C520.502,-258.441 530.384,-262 547,-262 573.586,-262 582.933,-252.89 575.04,-243.53"/>
<polygon fill="midnightblue" stroke="midnightblue" points="520.823,-253.96 518.96,-243.53 513.912,-252.845 520.823,-253.96"/>
</g>
<!-- Node10 -->
<g id="node10" class="node"><title>Node10</title>
<g id="a_node10"><a xlink:href="classprior__hessian_1_1ParetoDist.html#a572ad9f28d83da610e1b81c88876563a" target="_top" xlink:title="prior_hessian::ParetoDist\l::ParetoDist">
<polygon fill="white" stroke="black" points="487,-168.5 487,-196.5 607,-196.5 607,-168.5 487,-168.5"/>
<text text-anchor="start" x="495" y="-185.3" font-family="Helvetica,sans-Serif" font-size="9.00">prior_hessian::ParetoDist</text>
<text text-anchor="middle" x="547" y="-175.3" font-family="Helvetica,sans-Serif" font-size="9.00">::ParetoDist</text>
</a>
</g>
</g>
<!-- Node9&#45;&gt;Node10 -->
<g id="edge14" class="edge"><title>Node9&#45;&gt;Node10</title>
<path fill="none" stroke="midnightblue" d="M452.911,-182.5C464.235,-182.5 475.873,-182.5 486.918,-182.5"/>
<polygon fill="midnightblue" stroke="midnightblue" points="452.626,-179 442.626,-182.5 452.626,-186 452.626,-179"/>
</g>
<!-- Node11&#45;&gt;Node2 -->
<g id="edge16" class="edge"><title>Node11&#45;&gt;Node2</title>
<path fill="none" stroke="midnightblue" d="M360.475,-153.112C346.998,-157.787 329.238,-162.718 314,-168.5 296.353,-175.196 277.528,-183.95 261.329,-191.436"/>
<polygon fill="midnightblue" stroke="midnightblue" points="361.716,-156.384 369.834,-149.576 359.242,-149.836 361.716,-156.384"/>
</g>
<!-- Node12&#45;&gt;Node2 -->
<g id="edge18" class="edge"><title>Node12&#45;&gt;Node2</title>
<path fill="none" stroke="midnightblue" d="M347.933,-116.169C336.736,-120.434 324.459,-125.374 314,-131.5 285.086,-148.435 256.8,-174.775 238.719,-191.307"/>
<polygon fill="midnightblue" stroke="midnightblue" points="349.305,-119.392 357.42,-112.581 346.829,-112.844 349.305,-119.392"/>
</g>
<!-- Node13&#45;&gt;Node2 -->
<g id="edge20" class="edge"><title>Node13&#45;&gt;Node2</title>
<path fill="none" stroke="midnightblue" d="M353.684,-68.1959C340.747,-71.7252 325.677,-76.3899 314,-84.5 272.673,-113.203 242.496,-165.812 228.22,-191.391"/>
<polygon fill="midnightblue" stroke="midnightblue" points="354.745,-71.5352 363.497,-65.5647 352.932,-64.7741 354.745,-71.5352"/>
</g>
<!-- Node14&#45;&gt;Node2 -->
<g id="edge22" class="edge"><title>Node14&#45;&gt;Node2</title>
<path fill="none" stroke="midnightblue" d="M341.612,-32.1408C331.848,-35.9853 321.935,-40.8487 314,-47.5 265.429,-88.2117 236.626,-160.483 225.002,-191.362"/>
<polygon fill="midnightblue" stroke="midnightblue" points="343.065,-35.3361 351.249,-28.6075 340.655,-28.7639 343.065,-35.3361"/>
</g>
</g>
</svg>
