<?xml version="1.0" encoding="UTF-8" standalone="no"?>
<!DOCTYPE svg PUBLIC "-//W3C//DTD SVG 1.1//EN"
 "http://www.w3.org/Graphics/SVG/1.1/DTD/svg11.dtd">
<!-- Generated by graphviz version 2.38.0 (20140413.2041)
 -->
<!-- Title: prior_hessian::AMHCopula::ddim_gen Pages: 1 -->
<svg width="478pt" height="51pt"
 viewBox="0.00 0.00 478.00 51.00" xmlns="http://www.w3.org/2000/svg" xmlns:xlink="http://www.w3.org/1999/xlink">
<g id="graph0" class="graph" transform="scale(1 1) rotate(0) translate(4 47)">
<title>prior_hessian::AMHCopula::ddim_gen</title>
<polygon fill="white" stroke="none" points="-4,4 -4,-47 474,-47 474,4 -4,4"/>
<!-- Node1 -->
<g id="node1" class="node"><title>Node1</title>
<polygon fill="#bfbfbf" stroke="black" points="0,-0.5 0,-28.5 128,-28.5 128,-0.5 0,-0.5"/>
<text text-anchor="start" x="8" y="-17.3" font-family="Helvetica,sans-Serif" font-size="9.00">prior_hessian::AMHCopula</text>
<text text-anchor="middle" x="64" y="-7.3" font-family="Helvetica,sans-Serif" font-size="9.00">::ddim_gen</text>
</g>
<!-- Node2 -->
<g id="node2" class="node"><title>Node2</title>
<g id="a_node2"><a xlink:href="classprior__hessian_1_1AMHCopula.html#ad1ce11681554712db7a56bb4cb54c3e9" target="_top" xlink:title="prior_hessian::AMHCopula::llh">
<polygon fill="white" stroke="black" points="164,-24.5 164,-42.5 306,-42.5 306,-24.5 164,-24.5"/>
<text text-anchor="middle" x="235" y="-31.3" font-family="Helvetica,sans-Serif" font-size="9.00">prior_hessian::AMHCopula::llh</text>
</a>
</g>
</g>
<!-- Node1&#45;&gt;Node2 -->
<g id="edge1" class="edge"><title>Node1&#45;&gt;Node2</title>
<path fill="none" stroke="midnightblue" d="M138.601,-22.7747C147.034,-23.7228 155.615,-24.6875 163.999,-25.6301"/>
<polygon fill="midnightblue" stroke="midnightblue" points="138.739,-19.2682 128.41,-21.629 137.957,-26.2244 138.739,-19.2682"/>
</g>
<!-- Node3 -->
<g id="node3" class="node"><title>Node3</title>
<g id="a_node3"><a xlink:href="classprior__hessian_1_1AMHCopula.html#a5f5ab047fa0c58b93e7b8e072bc9c682" target="_top" xlink:title="prior_hessian::AMHCopula\l::set_params_iter">
<polygon fill="white" stroke="black" points="342,-0.5 342,-28.5 470,-28.5 470,-0.5 342,-0.5"/>
<text text-anchor="start" x="350" y="-17.3" font-family="Helvetica,sans-Serif" font-size="9.00">prior_hessian::AMHCopula</text>
<text text-anchor="middle" x="406" y="-7.3" font-family="Helvetica,sans-Serif" font-size="9.00">::set_params_iter</text>
</a>
</g>
</g>
<!-- Node1&#45;&gt;Node3 -->
<g id="edge3" class="edge"><title>Node1&#45;&gt;Node3</title>
<path fill="none" stroke="midnightblue" d="M138.425,-14.5C199.078,-14.5 284.273,-14.5 341.896,-14.5"/>
<polygon fill="midnightblue" stroke="midnightblue" points="138.155,-11.0001 128.155,-14.5 138.155,-18.0001 138.155,-11.0001"/>
</g>
<!-- Node2&#45;&gt;Node3 -->
<g id="edge2" class="edge"><title>Node2&#45;&gt;Node3</title>
<path fill="none" stroke="midnightblue" d="M316.22,-24.4812C324.794,-23.5172 333.427,-22.5467 341.765,-21.6093"/>
<polygon fill="midnightblue" stroke="midnightblue" points="315.749,-21.012 306.203,-25.6074 316.531,-27.9681 315.749,-21.012"/>
</g>
</g>
</svg>
