<?xml version="1.0" encoding="UTF-8" standalone="no"?>
<!DOCTYPE svg PUBLIC "-//W3C//DTD SVG 1.1//EN"
 "http://www.w3.org/Graphics/SVG/1.1/DTD/svg11.dtd">
<!-- Generated by graphviz version 2.38.0 (20140413.2041)
 -->
<!-- Title: prior_hessian::GammaDist::rllh Pages: 1 -->
<svg width="470pt" height="51pt"
 viewBox="0.00 0.00 470.00 51.00" xmlns="http://www.w3.org/2000/svg" xmlns:xlink="http://www.w3.org/1999/xlink">
<g id="graph0" class="graph" transform="scale(1 1) rotate(0) translate(4 47)">
<title>prior_hessian::GammaDist::rllh</title>
<polygon fill="white" stroke="none" points="-4,4 -4,-47 466,-47 466,4 -4,4"/>
<!-- Node1 -->
<g id="node1" class="node"><title>Node1</title>
<polygon fill="#bfbfbf" stroke="black" points="0,-0.5 0,-28.5 125,-28.5 125,-0.5 0,-0.5"/>
<text text-anchor="start" x="8" y="-17.3" font-family="Helvetica,sans-Serif" font-size="9.00">prior_hessian::GammaDist</text>
<text text-anchor="middle" x="62.5" y="-7.3" font-family="Helvetica,sans-Serif" font-size="9.00">::rllh</text>
</g>
<!-- Node2 -->
<g id="node2" class="node"><title>Node2</title>
<g id="a_node2"><a xlink:href="classprior__hessian_1_1GammaDist.html#ac823fcaa609dab7cb782ec63626b1529" target="_top" xlink:title="prior_hessian::GammaDist::llh">
<polygon fill="white" stroke="black" points="161,-24.5 161,-42.5 301,-42.5 301,-24.5 161,-24.5"/>
<text text-anchor="middle" x="231" y="-31.3" font-family="Helvetica,sans-Serif" font-size="9.00">prior_hessian::GammaDist::llh</text>
</a>
</g>
</g>
<!-- Node1&#45;&gt;Node2 -->
<g id="edge1" class="edge"><title>Node1&#45;&gt;Node2</title>
<path fill="none" stroke="midnightblue" d="M134.997,-22.6588C143.576,-23.6378 152.326,-24.6363 160.871,-25.6114"/>
<polygon fill="midnightblue" stroke="midnightblue" points="135.358,-19.1774 125.025,-21.5209 134.564,-26.1322 135.358,-19.1774"/>
</g>
<!-- Node3 -->
<g id="node3" class="node"><title>Node3</title>
<g id="a_node3"><a xlink:href="classprior__hessian_1_1GammaDist.html#a555e2d86894155eb89f59fd1acf727e2" target="_top" xlink:title="prior_hessian::GammaDist\l::median">
<polygon fill="white" stroke="black" points="337,-0.5 337,-28.5 462,-28.5 462,-0.5 337,-0.5"/>
<text text-anchor="start" x="345" y="-17.3" font-family="Helvetica,sans-Serif" font-size="9.00">prior_hessian::GammaDist</text>
<text text-anchor="middle" x="399.5" y="-7.3" font-family="Helvetica,sans-Serif" font-size="9.00">::median</text>
</a>
</g>
</g>
<!-- Node1&#45;&gt;Node3 -->
<g id="edge3" class="edge"><title>Node1&#45;&gt;Node3</title>
<path fill="none" stroke="midnightblue" d="M135.48,-14.5C195.41,-14.5 279.847,-14.5 336.743,-14.5"/>
<polygon fill="midnightblue" stroke="midnightblue" points="135.335,-11.0001 125.335,-14.5 135.335,-18.0001 135.335,-11.0001"/>
</g>
<!-- Node2&#45;&gt;Node3 -->
<g id="edge2" class="edge"><title>Node2&#45;&gt;Node3</title>
<path fill="none" stroke="midnightblue" d="M311.262,-24.4551C319.905,-23.4688 328.606,-22.4759 336.99,-21.5191"/>
<polygon fill="midnightblue" stroke="midnightblue" points="310.703,-20.9961 301.165,-25.6074 311.497,-27.9509 310.703,-20.9961"/>
</g>
</g>
</svg>
