<?xml version="1.0" encoding="UTF-8" standalone="no"?>
<!DOCTYPE svg PUBLIC "-//W3C//DTD SVG 1.1//EN"
 "http://www.w3.org/Graphics/SVG/1.1/DTD/svg11.dtd">
<!-- Generated by graphviz version 2.38.0 (20140413.2041)
 -->
<!-- Title: prior_hessian::MultivariateNormalDist::grad_grad2_accumulate Pages: 1 -->
<svg width="336pt" height="37pt"
 viewBox="0.00 0.00 336.00 37.00" xmlns="http://www.w3.org/2000/svg" xmlns:xlink="http://www.w3.org/1999/xlink">
<g id="graph0" class="graph" transform="scale(1 1) rotate(0) translate(4 33)">
<title>prior_hessian::MultivariateNormalDist::grad_grad2_accumulate</title>
<polygon fill="white" stroke="none" points="-4,4 -4,-33 332,-33 332,4 -4,4"/>
<!-- Node1 -->
<g id="node1" class="node"><title>Node1</title>
<polygon fill="#bfbfbf" stroke="black" points="-2.84217e-14,-0.5 -2.84217e-14,-28.5 167,-28.5 167,-0.5 -2.84217e-14,-0.5"/>
<text text-anchor="start" x="8" y="-17.3" font-family="Helvetica,sans-Serif" font-size="9.00">prior_hessian::Multivariate</text>
<text text-anchor="middle" x="83.5" y="-7.3" font-family="Helvetica,sans-Serif" font-size="9.00">NormalDist::grad_grad2_accumulate</text>
</g>
<!-- Node2 -->
<g id="node2" class="node"><title>Node2</title>
<g id="a_node2"><a xlink:href="classprior__hessian_1_1MultivariateNormalDist.html#afdec8e6a453a2c69e0d84833d6b3e5ae" target="_top" xlink:title="prior_hessian::Multivariate\lNormalDist::mode">
<polygon fill="white" stroke="black" points="203,-0.5 203,-28.5 328,-28.5 328,-0.5 203,-0.5"/>
<text text-anchor="start" x="211" y="-17.3" font-family="Helvetica,sans-Serif" font-size="9.00">prior_hessian::Multivariate</text>
<text text-anchor="middle" x="265.5" y="-7.3" font-family="Helvetica,sans-Serif" font-size="9.00">NormalDist::mode</text>
</a>
</g>
</g>
<!-- Node1&#45;&gt;Node2 -->
<g id="edge1" class="edge"><title>Node1&#45;&gt;Node2</title>
<path fill="none" stroke="midnightblue" d="M177.285,-14.5C185.942,-14.5 194.566,-14.5 202.834,-14.5"/>
<polygon fill="midnightblue" stroke="midnightblue" points="177.125,-11.0001 167.125,-14.5 177.125,-18.0001 177.125,-11.0001"/>
</g>
</g>
</svg>
