<?xml version="1.0" encoding="UTF-8" standalone="no"?>
<!DOCTYPE svg PUBLIC "-//W3C//DTD SVG 1.1//EN"
 "http://www.w3.org/Graphics/SVG/1.1/DTD/svg11.dtd">
<!-- Generated by graphviz version 2.38.0 (20140413.2041)
 -->
<!-- Title: prior_hessian::MultivariateNormalDist::check_sigma Pages: 1 -->
<svg width="475pt" height="123pt"
 viewBox="0.00 0.00 475.00 123.00" xmlns="http://www.w3.org/2000/svg" xmlns:xlink="http://www.w3.org/1999/xlink">
<g id="graph0" class="graph" transform="scale(1 1) rotate(0) translate(4 119)">
<title>prior_hessian::MultivariateNormalDist::check_sigma</title>
<polygon fill="white" stroke="none" points="-4,4 -4,-119 471,-119 471,4 -4,4"/>
<!-- Node1 -->
<g id="node1" class="node"><title>Node1</title>
<polygon fill="#bfbfbf" stroke="black" points="0,-43.5 0,-71.5 125,-71.5 125,-43.5 0,-43.5"/>
<text text-anchor="start" x="8" y="-60.3" font-family="Helvetica,sans-Serif" font-size="9.00">prior_hessian::Multivariate</text>
<text text-anchor="middle" x="62.5" y="-50.3" font-family="Helvetica,sans-Serif" font-size="9.00">NormalDist::check_sigma</text>
</g>
<!-- Node2 -->
<g id="node2" class="node"><title>Node2</title>
<g id="a_node2"><a xlink:href="classprior__hessian_1_1MultivariateNormalDist.html#a820f14758b3a02e29e0498e02fca7e07" target="_top" xlink:title="prior_hessian::Multivariate\lNormalDist::check_params">
<polygon fill="white" stroke="black" points="170,-86.5 170,-114.5 297,-114.5 297,-86.5 170,-86.5"/>
<text text-anchor="start" x="178" y="-103.3" font-family="Helvetica,sans-Serif" font-size="9.00">prior_hessian::Multivariate</text>
<text text-anchor="middle" x="233.5" y="-93.3" font-family="Helvetica,sans-Serif" font-size="9.00">NormalDist::check_params</text>
</a>
</g>
</g>
<!-- Node1&#45;&gt;Node2 -->
<g id="edge1" class="edge"><title>Node1&#45;&gt;Node2</title>
<path fill="none" stroke="midnightblue" d="M128.688,-74.0862C144.749,-78.1727 161.793,-82.5094 177.328,-86.462"/>
<polygon fill="midnightblue" stroke="midnightblue" points="129.391,-70.6538 118.837,-71.5798 127.665,-77.4376 129.391,-70.6538"/>
</g>
<!-- Node3 -->
<g id="node3" class="node"><title>Node3</title>
<g id="a_node3"><a xlink:href="classprior__hessian_1_1MultivariateNormalDist.html#aedb257f189a46f8b1ee36a1b344648c3" target="_top" xlink:title="prior_hessian::Multivariate\lNormalDist::in_bounds">
<polygon fill="white" stroke="black" points="342,-66.5 342,-94.5 467,-94.5 467,-66.5 342,-66.5"/>
<text text-anchor="start" x="350" y="-83.3" font-family="Helvetica,sans-Serif" font-size="9.00">prior_hessian::Multivariate</text>
<text text-anchor="middle" x="404.5" y="-73.3" font-family="Helvetica,sans-Serif" font-size="9.00">NormalDist::in_bounds</text>
</a>
</g>
</g>
<!-- Node1&#45;&gt;Node3 -->
<g id="edge5" class="edge"><title>Node1&#45;&gt;Node3</title>
<path fill="none" stroke="midnightblue" d="M135.05,-62.3402C196.307,-66.484 283.586,-72.3882 341.813,-76.3271"/>
<polygon fill="midnightblue" stroke="midnightblue" points="135.285,-58.8481 125.071,-61.6651 134.812,-65.8322 135.285,-58.8481"/>
</g>
<!-- Node4 -->
<g id="node4" class="node"><title>Node4</title>
<g id="a_node4"><a xlink:href="classprior__hessian_1_1MultivariateNormalDist.html#a894120a427347c2bd834ae0abab32e29" target="_top" xlink:title="prior_hessian::Multivariate\lNormalDist::check_params_iter">
<polygon fill="white" stroke="black" points="161,-0.5 161,-28.5 306,-28.5 306,-0.5 161,-0.5"/>
<text text-anchor="start" x="169" y="-17.3" font-family="Helvetica,sans-Serif" font-size="9.00">prior_hessian::Multivariate</text>
<text text-anchor="middle" x="233.5" y="-7.3" font-family="Helvetica,sans-Serif" font-size="9.00">NormalDist::check_params_iter</text>
</a>
</g>
</g>
<!-- Node1&#45;&gt;Node4 -->
<g id="edge3" class="edge"><title>Node1&#45;&gt;Node4</title>
<path fill="none" stroke="midnightblue" d="M128.688,-40.9138C144.749,-36.8273 161.793,-32.4906 177.328,-28.538"/>
<polygon fill="midnightblue" stroke="midnightblue" points="127.665,-37.5624 118.837,-43.4202 129.391,-44.3462 127.665,-37.5624"/>
</g>
<!-- Node2&#45;&gt;Node3 -->
<g id="edge2" class="edge"><title>Node2&#45;&gt;Node3</title>
<path fill="none" stroke="midnightblue" d="M307.435,-91.8686C318.931,-90.5082 330.718,-89.1133 341.923,-87.7872"/>
<polygon fill="midnightblue" stroke="midnightblue" points="306.949,-88.4017 297.429,-93.0527 307.771,-95.3532 306.949,-88.4017"/>
</g>
<!-- Node5 -->
<g id="node5" class="node"><title>Node5</title>
<g id="a_node5"><a xlink:href="classprior__hessian_1_1MultivariateNormalDist.html#afdec8e6a453a2c69e0d84833d6b3e5ae" target="_top" xlink:title="prior_hessian::Multivariate\lNormalDist::mode">
<polygon fill="white" stroke="black" points="342,-0.5 342,-28.5 467,-28.5 467,-0.5 342,-0.5"/>
<text text-anchor="start" x="350" y="-17.3" font-family="Helvetica,sans-Serif" font-size="9.00">prior_hessian::Multivariate</text>
<text text-anchor="middle" x="404.5" y="-7.3" font-family="Helvetica,sans-Serif" font-size="9.00">NormalDist::mode</text>
</a>
</g>
</g>
<!-- Node4&#45;&gt;Node5 -->
<g id="edge4" class="edge"><title>Node4&#45;&gt;Node5</title>
<path fill="none" stroke="midnightblue" d="M316.251,-14.5C324.872,-14.5 333.53,-14.5 341.867,-14.5"/>
<polygon fill="midnightblue" stroke="midnightblue" points="316.171,-11.0001 306.171,-14.5 316.171,-18.0001 316.171,-11.0001"/>
</g>
</g>
</svg>
