<?xml version="1.0" encoding="UTF-8" standalone="no"?>
<!DOCTYPE svg PUBLIC "-//W3C//DTD SVG 1.1//EN"
 "http://www.w3.org/Graphics/SVG/1.1/DTD/svg11.dtd">
<!-- Generated by graphviz version 2.38.0 (20140413.2041)
 -->
<!-- Title: prior_hessian::ScaledDist::set_bounds Pages: 1 -->
<svg width="288pt" height="178pt"
 viewBox="0.00 0.00 288.00 178.00" xmlns="http://www.w3.org/2000/svg" xmlns:xlink="http://www.w3.org/1999/xlink">
<g id="graph0" class="graph" transform="scale(1 1) rotate(0) translate(4 174)">
<title>prior_hessian::ScaledDist::set_bounds</title>
<polygon fill="white" stroke="none" points="-4,4 -4,-174 284,-174 284,4 -4,4"/>
<!-- Node1 -->
<g id="node1" class="node"><title>Node1</title>
<polygon fill="#bfbfbf" stroke="black" points="0,-70.5 0,-98.5 122,-98.5 122,-70.5 0,-70.5"/>
<text text-anchor="start" x="8" y="-87.3" font-family="Helvetica,sans-Serif" font-size="9.00">prior_hessian::ScaledDist</text>
<text text-anchor="middle" x="61" y="-77.3" font-family="Helvetica,sans-Serif" font-size="9.00">::set_bounds</text>
</g>
<!-- Node2 -->
<g id="node2" class="node"><title>Node2</title>
<g id="a_node2"><a xlink:href="classprior__hessian_1_1ScaledDist.html#a46bce2de3c0e030e9e4542195ecb429f" target="_top" xlink:title="prior_hessian::ScaledDist\l::lbound">
<polygon fill="white" stroke="black" points="158,-141.5 158,-169.5 280,-169.5 280,-141.5 158,-141.5"/>
<text text-anchor="start" x="166" y="-158.3" font-family="Helvetica,sans-Serif" font-size="9.00">prior_hessian::ScaledDist</text>
<text text-anchor="middle" x="219" y="-148.3" font-family="Helvetica,sans-Serif" font-size="9.00">::lbound</text>
</a>
</g>
</g>
<!-- Node1&#45;&gt;Node2 -->
<g id="edge1" class="edge"><title>Node1&#45;&gt;Node2</title>
<path fill="none" stroke="midnightblue" d="M88.5638,-98.6582C107.653,-108.616 134.125,-121.985 158,-132.5 161.905,-134.22 165.983,-135.939 170.094,-137.62"/>
<polygon fill="midnightblue" stroke="midnightblue" points="169.099,-140.991 179.684,-141.453 171.697,-134.491 169.099,-140.991"/>
</g>
<!-- Node3 -->
<g id="node3" class="node"><title>Node3</title>
<g id="a_node3"><a xlink:href="classprior__hessian_1_1ScaledDist.html#a70c8013325f5b8709be0900dba6e9eda" target="_top" xlink:title="prior_hessian::ScaledDist\l::ubound">
<polygon fill="white" stroke="black" points="158,-94.5 158,-122.5 280,-122.5 280,-94.5 158,-94.5"/>
<text text-anchor="start" x="166" y="-111.3" font-family="Helvetica,sans-Serif" font-size="9.00">prior_hessian::ScaledDist</text>
<text text-anchor="middle" x="219" y="-101.3" font-family="Helvetica,sans-Serif" font-size="9.00">::ubound</text>
</a>
</g>
</g>
<!-- Node1&#45;&gt;Node3 -->
<g id="edge2" class="edge"><title>Node1&#45;&gt;Node3</title>
<path fill="none" stroke="midnightblue" d="M122.314,-93.779C130.695,-95.0684 139.363,-96.402 147.904,-97.716"/>
<polygon fill="midnightblue" stroke="midnightblue" points="147.431,-101.184 157.847,-99.2457 148.495,-94.2657 147.431,-101.184"/>
</g>
<!-- Node4 -->
<g id="node4" class="node"><title>Node4</title>
<g id="a_node4"><a xlink:href="classprior__hessian_1_1ScaledDist.html#a364788705694bdd46cd5876e92e1ad87" target="_top" xlink:title="prior_hessian::ScaledDist\l::unscaled_lbound">
<polygon fill="white" stroke="black" points="158,-47.5 158,-75.5 280,-75.5 280,-47.5 158,-47.5"/>
<text text-anchor="start" x="166" y="-64.3" font-family="Helvetica,sans-Serif" font-size="9.00">prior_hessian::ScaledDist</text>
<text text-anchor="middle" x="219" y="-54.3" font-family="Helvetica,sans-Serif" font-size="9.00">::unscaled_lbound</text>
</a>
</g>
</g>
<!-- Node1&#45;&gt;Node4 -->
<g id="edge3" class="edge"><title>Node1&#45;&gt;Node4</title>
<path fill="none" stroke="midnightblue" d="M122.314,-75.6076C130.695,-74.3719 139.363,-73.0939 147.904,-71.8347"/>
<polygon fill="midnightblue" stroke="midnightblue" points="148.464,-75.29 157.847,-70.3688 147.443,-68.3649 148.464,-75.29"/>
</g>
<!-- Node5 -->
<g id="node5" class="node"><title>Node5</title>
<g id="a_node5"><a xlink:href="classprior__hessian_1_1ScaledDist.html#aa1aa0261a6a67d19016cdd99265bae8e" target="_top" xlink:title="prior_hessian::ScaledDist\l::unscaled_ubound">
<polygon fill="white" stroke="black" points="158,-0.5 158,-28.5 280,-28.5 280,-0.5 158,-0.5"/>
<text text-anchor="start" x="166" y="-17.3" font-family="Helvetica,sans-Serif" font-size="9.00">prior_hessian::ScaledDist</text>
<text text-anchor="middle" x="219" y="-7.3" font-family="Helvetica,sans-Serif" font-size="9.00">::unscaled_ubound</text>
</a>
</g>
</g>
<!-- Node1&#45;&gt;Node5 -->
<g id="edge4" class="edge"><title>Node1&#45;&gt;Node5</title>
<path fill="none" stroke="midnightblue" d="M90.3353,-70.3134C109.33,-60.9544 134.986,-48.6035 158,-38.5 162.632,-36.4664 167.494,-34.4045 172.362,-32.3874"/>
<polygon fill="midnightblue" stroke="midnightblue" points="173.736,-35.6066 181.669,-28.583 171.088,-29.1271 173.736,-35.6066"/>
</g>
</g>
</svg>
