<?xml version="1.0" encoding="UTF-8" standalone="no"?>
<!DOCTYPE svg PUBLIC "-//W3C//DTD SVG 1.1//EN"
 "http://www.w3.org/Graphics/SVG/1.1/DTD/svg11.dtd">
<!-- Generated by graphviz version 2.38.0 (20140413.2041)
 -->
<!-- Title: prior_hessian::SymmetricBetaDist::set_beta Pages: 1 -->
<!--zoomable 221 -->
<svg id="main" version="1.1" xmlns="http://www.w3.org/2000/svg" xmlns:xlink="http://www.w3.org/1999/xlink" xml:space="preserve" onload="init(evt)">
<style type="text/css"><![CDATA[
.edge:hover path { stroke: red; }
.edge:hover polygon { stroke: red; fill: red; }
]]></style>
<script type="text/javascript"><![CDATA[
var edges = document.getElementsByTagName('g');
if (edges && edges.length) {
  for (var i=0;i<edges.length;i++) {
    if (edges[i].id.substr(0,4)=='edge') {
      edges[i].setAttribute('class','edge');
    }
  }
}
]]></script>
        <defs>
                <circle id="rim" cx="0" cy="0" r="7"/>
                <circle id="rim2" cx="0" cy="0" r="3.5"/>
                <g id="zoomPlus">
                        <use xlink:href="#rim" fill="#404040">
                                <set attributeName="fill" to="#808080" begin="zoomplus.mouseover" end="zoomplus.mouseout"/>
                        </use>
                        <path d="M-4,0h8M0,-4v8" fill="none" stroke="white" stroke-width="1.5" pointer-events="none"/>
                </g>
                <g id="zoomMin">
                        <use xlink:href="#rim" fill="#404040">
                                <set attributeName="fill" to="#808080" begin="zoomminus.mouseover" end="zoomminus.mouseout"/>
                        </use>
                        <path d="M-4,0h8" fill="none" stroke="white" stroke-width="1.5" pointer-events="none"/>
                </g>
                <g id="dirArrow">
                        <path fill="none" stroke="white" stroke-width="1.5" d="M0,-3.0v7 M-2.5,-0.5L0,-3.0L2.5,-0.5"/>
                </g>
               <g id="resetDef">
                       <use xlink:href="#rim2" fill="#404040">
                               <set attributeName="fill" to="#808080" begin="reset.mouseover" end="reset.mouseout"/>
                       </use>
               </g>
        </defs>

<script type="text/javascript">
var viewWidth = 754;
var viewHeight = 221;
var sectionId = 'dynsection-32';
</script>
<script xlink:href="svgpan.js"/>
<svg id="graph" class="graph">
<g id="viewport">
<title>prior_hessian::SymmetricBetaDist::set_beta</title>
<polygon fill="white" stroke="none" points="-4,4 -4,-217 750,-217 750,4 -4,4"/>
<!-- Node1 -->
<g id="node1" class="node"><title>Node1</title>
<polygon fill="#bfbfbf" stroke="black" points="0,-47.5 0,-75.5 120,-75.5 120,-47.5 0,-47.5"/>
<text text-anchor="start" x="8" y="-64.3" font-family="Helvetica,sans-Serif" font-size="9.00">prior_hessian::Symmetric</text>
<text text-anchor="middle" x="60" y="-54.3" font-family="Helvetica,sans-Serif" font-size="9.00">BetaDist::set_beta</text>
</g>
<!-- Node2 -->
<g id="node2" class="node"><title>Node2</title>
<g id="a_node2"><a xlink:href="classprior__hessian_1_1SymmetricBetaDist.html#a1e726eb12d98240778d7c0bfaafc7edd" target="_top" xlink:title="prior_hessian::Symmetric\lBetaDist::beta">
<polygon fill="white" stroke="black" points="313,-90.5 313,-118.5 433,-118.5 433,-90.5 313,-90.5"/>
<text text-anchor="start" x="321" y="-107.3" font-family="Helvetica,sans-Serif" font-size="9.00">prior_hessian::Symmetric</text>
<text text-anchor="middle" x="373" y="-97.3" font-family="Helvetica,sans-Serif" font-size="9.00">BetaDist::beta</text>
</a>
</g>
</g>
<!-- Node1&#45;&gt;Node2 -->
<g id="edge1" class="edge"><title>Node1&#45;&gt;Node2</title>
<path fill="none" stroke="midnightblue" d="M120.22,-78.0098C132.002,-80.8552 144.338,-83.5269 156,-85.5 208.521,-94.3856 268.973,-99.2533 312.543,-101.83"/>
<polygon fill="midnightblue" stroke="midnightblue" points="121.028,-74.6044 110.479,-75.5904 119.341,-81.3979 121.028,-74.6044"/>
</g>
<!-- Node9 -->
<g id="node9" class="node"><title>Node9</title>
<g id="a_node9"><a xlink:href="classprior__hessian_1_1SymmetricBetaDist.html#a5ea7086046d4558c83b2211503501fca" target="_top" xlink:title="prior_hessian::Symmetric\lBetaDist::set_param">
<polygon fill="white" stroke="black" points="156,-47.5 156,-75.5 276,-75.5 276,-47.5 156,-47.5"/>
<text text-anchor="start" x="164" y="-64.3" font-family="Helvetica,sans-Serif" font-size="9.00">prior_hessian::Symmetric</text>
<text text-anchor="middle" x="216" y="-54.3" font-family="Helvetica,sans-Serif" font-size="9.00">BetaDist::set_param</text>
</a>
</g>
</g>
<!-- Node1&#45;&gt;Node9 -->
<g id="edge9" class="edge"><title>Node1&#45;&gt;Node9</title>
<path fill="none" stroke="midnightblue" d="M130.369,-61.5C138.862,-61.5 147.48,-61.5 155.804,-61.5"/>
<polygon fill="midnightblue" stroke="midnightblue" points="130.1,-58.0001 120.1,-61.5 130.1,-65.0001 130.1,-58.0001"/>
</g>
<!-- Node10 -->
<g id="node10" class="node"><title>Node10</title>
<g id="a_node10"><a xlink:href="classprior__hessian_1_1SymmetricBetaDist.html#a8f54c616932761272dad23e3da2be005" target="_top" xlink:title="prior_hessian::Symmetric\lBetaDist::set_params">
<polygon fill="white" stroke="black" points="156,-0.5 156,-28.5 276,-28.5 276,-0.5 156,-0.5"/>
<text text-anchor="start" x="164" y="-17.3" font-family="Helvetica,sans-Serif" font-size="9.00">prior_hessian::Symmetric</text>
<text text-anchor="middle" x="216" y="-7.3" font-family="Helvetica,sans-Serif" font-size="9.00">BetaDist::set_params</text>
</a>
</g>
</g>
<!-- Node1&#45;&gt;Node10 -->
<g id="edge11" class="edge"><title>Node1&#45;&gt;Node10</title>
<path fill="none" stroke="midnightblue" d="M117.071,-44.3875C134.167,-39.1699 152.753,-33.4976 169.093,-28.5106"/>
<polygon fill="midnightblue" stroke="midnightblue" points="115.748,-41.1318 107.205,-47.3985 117.791,-47.8269 115.748,-41.1318"/>
</g>
<!-- Node3 -->
<g id="node3" class="node"><title>Node3</title>
<g id="a_node3"><a xlink:href="classprior__hessian_1_1SymmetricBetaDist.html#a705d0521091fc93418588af78d85cc52" target="_top" xlink:title="prior_hessian::Symmetric\lBetaDist::llh">
<polygon fill="white" stroke="black" points="470,-137.5 470,-165.5 590,-165.5 590,-137.5 470,-137.5"/>
<text text-anchor="start" x="478" y="-154.3" font-family="Helvetica,sans-Serif" font-size="9.00">prior_hessian::Symmetric</text>
<text text-anchor="middle" x="530" y="-144.3" font-family="Helvetica,sans-Serif" font-size="9.00">BetaDist::llh</text>
</a>
</g>
</g>
<!-- Node2&#45;&gt;Node3 -->
<g id="edge2" class="edge"><title>Node2&#45;&gt;Node3</title>
<path fill="none" stroke="midnightblue" d="M430.435,-121.612C447.642,-126.83 466.348,-132.502 482.795,-137.489"/>
<polygon fill="midnightblue" stroke="midnightblue" points="431.09,-118.154 420.505,-118.602 429.059,-124.853 431.09,-118.154"/>
</g>
<!-- Node5 -->
<g id="node5" class="node"><title>Node5</title>
<g id="a_node5"><a xlink:href="classprior__hessian_1_1SymmetricBetaDist.html#ad4d4bd09ccdf88bb70a66064fc3a9a9d" target="_top" xlink:title="prior_hessian::Symmetric\lBetaDist::operator==">
<polygon fill="white" stroke="black" points="470,-184.5 470,-212.5 590,-212.5 590,-184.5 470,-184.5"/>
<text text-anchor="start" x="478" y="-201.3" font-family="Helvetica,sans-Serif" font-size="9.00">prior_hessian::Symmetric</text>
<text text-anchor="middle" x="530" y="-191.3" font-family="Helvetica,sans-Serif" font-size="9.00">BetaDist::operator==</text>
</a>
</g>
</g>
<!-- Node2&#45;&gt;Node5 -->
<g id="edge4" class="edge"><title>Node2&#45;&gt;Node5</title>
<path fill="none" stroke="midnightblue" d="M398.145,-125.183C416.858,-140.493 443.914,-161.104 470,-175.5 475.872,-178.74 482.295,-181.742 488.674,-184.435"/>
<polygon fill="midnightblue" stroke="midnightblue" points="400.347,-122.462 390.415,-118.772 395.878,-127.85 400.347,-122.462"/>
</g>
<!-- Node7 -->
<g id="node7" class="node"><title>Node7</title>
<g id="a_node7"><a xlink:href="classprior__hessian_1_1SymmetricBetaDist.html#a59cc29572feb20c003130c417249809d" target="_top" xlink:title="prior_hessian::Symmetric\lBetaDist::param_ubound">
<polygon fill="white" stroke="black" points="470,-90.5 470,-118.5 590,-118.5 590,-90.5 470,-90.5"/>
<text text-anchor="start" x="478" y="-107.3" font-family="Helvetica,sans-Serif" font-size="9.00">prior_hessian::Symmetric</text>
<text text-anchor="middle" x="530" y="-97.3" font-family="Helvetica,sans-Serif" font-size="9.00">BetaDist::param_ubound</text>
</a>
</g>
</g>
<!-- Node2&#45;&gt;Node7 -->
<g id="edge6" class="edge"><title>Node2&#45;&gt;Node7</title>
<path fill="none" stroke="midnightblue" d="M443.053,-104.5C452,-104.5 461.1,-104.5 469.867,-104.5"/>
<polygon fill="midnightblue" stroke="midnightblue" points="443.041,-101 433.041,-104.5 443.041,-108 443.041,-101"/>
</g>
<!-- Node8 -->
<g id="node8" class="node"><title>Node8</title>
<g id="a_node8"><a xlink:href="classprior__hessian_1_1SymmetricBetaDist.html#a2db7bdb8013ac523f58d2b252ea0dbb4" target="_top" xlink:title="prior_hessian::Symmetric\lBetaDist::params">
<polygon fill="white" stroke="black" points="470,-43.5 470,-71.5 590,-71.5 590,-43.5 470,-43.5"/>
<text text-anchor="start" x="478" y="-60.3" font-family="Helvetica,sans-Serif" font-size="9.00">prior_hessian::Symmetric</text>
<text text-anchor="middle" x="530" y="-50.3" font-family="Helvetica,sans-Serif" font-size="9.00">BetaDist::params</text>
</a>
</g>
</g>
<!-- Node2&#45;&gt;Node8 -->
<g id="edge7" class="edge"><title>Node2&#45;&gt;Node8</title>
<path fill="none" stroke="midnightblue" d="M430.435,-87.3875C447.642,-82.1699 466.348,-76.4976 482.795,-71.5106"/>
<polygon fill="midnightblue" stroke="midnightblue" points="429.059,-84.1472 420.505,-90.3985 431.09,-90.846 429.059,-84.1472"/>
</g>
<!-- Node4 -->
<g id="node4" class="node"><title>Node4</title>
<g id="a_node4"><a xlink:href="classprior__hessian_1_1SymmetricBetaDist.html#a642a881868f0f031bacc87877714cf8d" target="_top" xlink:title="prior_hessian::Symmetric\lBetaDist::median">
<polygon fill="white" stroke="black" points="626,-43.5 626,-71.5 746,-71.5 746,-43.5 626,-43.5"/>
<text text-anchor="start" x="634" y="-60.3" font-family="Helvetica,sans-Serif" font-size="9.00">prior_hessian::Symmetric</text>
<text text-anchor="middle" x="686" y="-50.3" font-family="Helvetica,sans-Serif" font-size="9.00">BetaDist::median</text>
</a>
</g>
</g>
<!-- Node3&#45;&gt;Node4 -->
<g id="edge3" class="edge"><title>Node3&#45;&gt;Node4</title>
<path fill="none" stroke="midnightblue" d="M580.569,-133.33C583.806,-131.791 586.977,-130.178 590,-128.5 619.884,-111.911 650.957,-86.9823 669.112,-71.5048"/>
<polygon fill="midnightblue" stroke="midnightblue" points="579.038,-130.181 571.341,-137.461 581.898,-136.57 579.038,-130.181"/>
</g>
<!-- Node6 -->
<g id="node6" class="node"><title>Node6</title>
<g id="a_node6"><a xlink:href="classprior__hessian_1_1SymmetricBetaDist.html#afdc7ff36dab9f6a2de9f53f12ca87973" target="_top" xlink:title="prior_hessian::Symmetric\lBetaDist::operator!=">
<polygon fill="white" stroke="black" points="626,-184.5 626,-212.5 746,-212.5 746,-184.5 626,-184.5"/>
<text text-anchor="start" x="634" y="-201.3" font-family="Helvetica,sans-Serif" font-size="9.00">prior_hessian::Symmetric</text>
<text text-anchor="middle" x="686" y="-191.3" font-family="Helvetica,sans-Serif" font-size="9.00">BetaDist::operator!=</text>
</a>
</g>
</g>
<!-- Node5&#45;&gt;Node6 -->
<g id="edge5" class="edge"><title>Node5&#45;&gt;Node6</title>
<path fill="none" stroke="midnightblue" d="M600.369,-198.5C608.862,-198.5 617.48,-198.5 625.804,-198.5"/>
<polygon fill="midnightblue" stroke="midnightblue" points="600.1,-195 590.1,-198.5 600.1,-202 600.1,-195"/>
</g>
<!-- Node8&#45;&gt;Node4 -->
<g id="edge8" class="edge"><title>Node8&#45;&gt;Node4</title>
<path fill="none" stroke="midnightblue" d="M600.369,-57.5C608.862,-57.5 617.48,-57.5 625.804,-57.5"/>
<polygon fill="midnightblue" stroke="midnightblue" points="600.1,-54.0001 590.1,-57.5 600.1,-61.0001 600.1,-54.0001"/>
</g>
<!-- Node9&#45;&gt;Node2 -->
<g id="edge10" class="edge"><title>Node9&#45;&gt;Node2</title>
<path fill="none" stroke="midnightblue" d="M277.622,-78.3178C292.107,-82.3362 307.419,-86.584 321.398,-90.462"/>
<polygon fill="midnightblue" stroke="midnightblue" points="278.325,-74.8805 267.753,-75.5798 276.453,-81.6257 278.325,-74.8805"/>
</g>
<!-- Node11 -->
<g id="node11" class="node"><title>Node11</title>
<g id="a_node11"><a xlink:href="classprior__hessian_1_1SymmetricBetaDist.html#a50df68faf7f3205ddc19b0664593cdb8" target="_top" xlink:title="prior_hessian::Symmetric\lBetaDist::set_params_iter">
<polygon fill="white" stroke="black" points="312,-0.5 312,-28.5 434,-28.5 434,-0.5 312,-0.5"/>
<text text-anchor="start" x="320" y="-17.3" font-family="Helvetica,sans-Serif" font-size="9.00">prior_hessian::Symmetric</text>
<text text-anchor="middle" x="373" y="-7.3" font-family="Helvetica,sans-Serif" font-size="9.00">BetaDist::set_params_iter</text>
</a>
</g>
</g>
<!-- Node10&#45;&gt;Node11 -->
<g id="edge12" class="edge"><title>Node10&#45;&gt;Node11</title>
<path fill="none" stroke="midnightblue" d="M286.047,-14.5C294.647,-14.5 303.387,-14.5 311.838,-14.5"/>
<polygon fill="midnightblue" stroke="midnightblue" points="286.041,-11.0001 276.041,-14.5 286.041,-18.0001 286.041,-11.0001"/>
</g>
<!-- Node11&#45;&gt;Node4 -->
<g id="edge13" class="edge"><title>Node11&#45;&gt;Node4</title>
<path fill="none" stroke="midnightblue" d="M444.6,-17.8573C486.972,-20.5793 541.822,-25.3492 590,-33.5 604.928,-36.0255 620.958,-39.6958 635.521,-43.4096"/>
<polygon fill="midnightblue" stroke="midnightblue" points="444.581,-14.3495 434.384,-17.225 444.148,-21.3362 444.581,-14.3495"/>
</g>
</g>
</svg>
        <g id="navigator" transform="translate(0 0)" fill="#404254">
                <rect fill="#f2f5e9" fill-opacity="0.5" stroke="#606060" stroke-width=".5" x="0" y="0" width="60" height="60"/>
                <use id="zoomplus" xlink:href="#zoomPlus" x="17" y="9" onmousedown="handleZoom(evt,'in')"/>
                <use id="zoomminus" xlink:href="#zoomMin" x="42" y="9" onmousedown="handleZoom(evt,'out')"/>
                <use id="reset" xlink:href="#resetDef" x="30" y="36" onmousedown="handleReset()"/>
                <g id="arrowUp" xlink:href="#dirArrow" transform="translate(30 24)" onmousedown="handlePan(0,-1)">
                  <use xlink:href="#rim" fill="#404040">
                        <set attributeName="fill" to="#808080" begin="arrowUp.mouseover" end="arrowUp.mouseout"/>
                  </use>
                  <path fill="none" stroke="white" stroke-width="1.5" d="M0,-3.0v7 M-2.5,-0.5L0,-3.0L2.5,-0.5"/>
                </g>
                <g id="arrowRight" xlink:href="#dirArrow" transform="rotate(90) translate(36 -43)" onmousedown="handlePan(1,0)">
                  <use xlink:href="#rim" fill="#404040">
                        <set attributeName="fill" to="#808080" begin="arrowRight.mouseover" end="arrowRight.mouseout"/>
                  </use>
                  <path fill="none" stroke="white" stroke-width="1.5" d="M0,-3.0v7 M-2.5,-0.5L0,-3.0L2.5,-0.5"/>
                </g>
                <g id="arrowDown" xlink:href="#dirArrow" transform="rotate(180) translate(-30 -48)" onmousedown="handlePan(0,1)">
                  <use xlink:href="#rim" fill="#404040">
                        <set attributeName="fill" to="#808080" begin="arrowDown.mouseover" end="arrowDown.mouseout"/>
                  </use>
                  <path fill="none" stroke="white" stroke-width="1.5" d="M0,-3.0v7 M-2.5,-0.5L0,-3.0L2.5,-0.5"/>
                </g>
                <g id="arrowLeft" xlink:href="#dirArrow" transform="rotate(270) translate(-36 17)" onmousedown="handlePan(-1,0)">
                  <use xlink:href="#rim" fill="#404040">
                        <set attributeName="fill" to="#808080" begin="arrowLeft.mouseover" end="arrowLeft.mouseout"/>
                  </use>
                  <path fill="none" stroke="white" stroke-width="1.5" d="M0,-3.0v7 M-2.5,-0.5L0,-3.0L2.5,-0.5"/>
                </g>
        </g>
        <svg viewBox="0 0 15 15" width="100%" height="30px" preserveAspectRatio="xMaxYMin meet">
         <g id="arrow_out" transform="scale(0.3 0.3)">
          <a xlink:href="classprior__hessian_1_1SymmetricBetaDist_a45a39dc6a12ec1af15a1701023101f1f_icgraph_org.svg" target="_base">
           <rect id="button" ry="5" rx="5" y="6" x="6" height="38" width="38"
                fill="#f2f5e9" fill-opacity="0.5" stroke="#606060" stroke-width="1.0"/>
           <path id="arrow"
             d="M 11.500037,31.436501 C 11.940474,20.09759 22.043105,11.32322 32.158766,21.979434 L 37.068811,17.246167 C 37.068811,17.246167 37.088388,32 37.088388,32 L 22.160133,31.978069 C 22.160133,31.978069 26.997745,27.140456 26.997745,27.140456 C 18.528582,18.264221 13.291696,25.230495 11.500037,31.436501 z"
             style="fill:#404040;"/>
          </a>
         </g>
        </svg>
</svg>
