<?xml version="1.0" encoding="UTF-8" standalone="no"?>
<!DOCTYPE svg PUBLIC "-//W3C//DTD SVG 1.1//EN"
 "http://www.w3.org/Graphics/SVG/1.1/DTD/svg11.dtd">
<!-- Generated by graphviz version 2.38.0 (20140413.2041)
 -->
<!-- Title: prior_hessian::PriorHessianError Pages: 1 -->
<!--zoomable 497 -->
<svg id="main" version="1.1" xmlns="http://www.w3.org/2000/svg" xmlns:xlink="http://www.w3.org/1999/xlink" xml:space="preserve" onload="init(evt)">
<style type="text/css"><![CDATA[
.edge:hover path { stroke: red; }
.edge:hover polygon { stroke: red; fill: red; }
]]></style>
<script type="text/javascript"><![CDATA[
var edges = document.getElementsByTagName('g');
if (edges && edges.length) {
  for (var i=0;i<edges.length;i++) {
    if (edges[i].id.substr(0,4)=='edge') {
      edges[i].setAttribute('class','edge');
    }
  }
}
]]></script>
        <defs>
                <circle id="rim" cx="0" cy="0" r="7"/>
                <circle id="rim2" cx="0" cy="0" r="3.5"/>
                <g id="zoomPlus">
                        <use xlink:href="#rim" fill="#404040">
                                <set attributeName="fill" to="#808080" begin="zoomplus.mouseover" end="zoomplus.mouseout"/>
                        </use>
                        <path d="M-4,0h8M0,-4v8" fill="none" stroke="white" stroke-width="1.5" pointer-events="none"/>
                </g>
                <g id="zoomMin">
                        <use xlink:href="#rim" fill="#404040">
                                <set attributeName="fill" to="#808080" begin="zoomminus.mouseover" end="zoomminus.mouseout"/>
                        </use>
                        <path d="M-4,0h8" fill="none" stroke="white" stroke-width="1.5" pointer-events="none"/>
                </g>
                <g id="dirArrow">
                        <path fill="none" stroke="white" stroke-width="1.5" d="M0,-3.0v7 M-2.5,-0.5L0,-3.0L2.5,-0.5"/>
                </g>
               <g id="resetDef">
                       <use xlink:href="#rim2" fill="#404040">
                               <set attributeName="fill" to="#808080" begin="reset.mouseover" end="reset.mouseout"/>
                       </use>
               </g>
        </defs>

<script type="text/javascript">
var viewWidth = 451;
var viewHeight = 497;
var sectionId = 'dynsection-0';
</script>
<script xlink:href="svgpan.js"/>
<svg id="graph" class="graph">
<g id="viewport">
<title>prior_hessian::PriorHessianError</title>
<polygon fill="white" stroke="none" points="-4,4 -4,-493 447,-493 447,4 -4,4"/>
<!-- Node1 -->
<g id="node1" class="node"><title>Node1</title>
<polygon fill="#bfbfbf" stroke="black" points="109,-235.5 109,-263.5 240,-263.5 240,-235.5 109,-235.5"/>
<text text-anchor="start" x="117" y="-252.3" font-family="Helvetica,sans-Serif" font-size="9.00">prior_hessian::PriorHessian</text>
<text text-anchor="middle" x="174.5" y="-242.3" font-family="Helvetica,sans-Serif" font-size="9.00">Error</text>
</g>
<!-- Node3 -->
<g id="node3" class="node"><title>Node3</title>
<g id="a_node3"><a xlink:href="structprior__hessian_1_1IndexError.html" target="_top" xlink:title="Indicates a index access was out of bounds. ">
<polygon fill="white" stroke="black" points="299.5,-470.5 299.5,-488.5 419.5,-488.5 419.5,-470.5 299.5,-470.5"/>
<text text-anchor="middle" x="359.5" y="-477.3" font-family="Helvetica,sans-Serif" font-size="9.00">prior_hessian::IndexError</text>
</a>
</g>
</g>
<!-- Node1&#45;&gt;Node3 -->
<g id="edge2" class="edge"><title>Node1&#45;&gt;Node3</title>
<path fill="none" stroke="midnightblue" d="M179.701,-273.394C188.813,-317.768 214.723,-412.806 276,-461.5 282.772,-466.881 290.804,-470.738 299.156,-473.487"/>
<polygon fill="midnightblue" stroke="midnightblue" points="183.122,-272.654 177.779,-263.505 176.251,-273.989 183.122,-272.654"/>
</g>
<!-- Node4 -->
<g id="node4" class="node"><title>Node4</title>
<g id="a_node4"><a xlink:href="structprior__hessian_1_1InvalidOperationError.html" target="_top" xlink:title="prior_hessian::InvalidOperation\lError">
<polygon fill="white" stroke="black" points="287,-423.5 287,-451.5 432,-451.5 432,-423.5 287,-423.5"/>
<text text-anchor="start" x="295" y="-440.3" font-family="Helvetica,sans-Serif" font-size="9.00">prior_hessian::InvalidOperation</text>
<text text-anchor="middle" x="359.5" y="-430.3" font-family="Helvetica,sans-Serif" font-size="9.00">Error</text>
</a>
</g>
</g>
<!-- Node1&#45;&gt;Node4 -->
<g id="edge3" class="edge"><title>Node1&#45;&gt;Node4</title>
<path fill="none" stroke="midnightblue" d="M183.629,-273.638C197.052,-309.784 227.314,-377.657 276,-414.5 280.624,-417.999 285.754,-420.966 291.128,-423.482"/>
<polygon fill="midnightblue" stroke="midnightblue" points="186.814,-272.153 180.144,-263.921 180.225,-274.516 186.814,-272.153"/>
</g>
<!-- Node5 -->
<g id="node5" class="node"><title>Node5</title>
<g id="a_node5"><a xlink:href="structprior__hessian_1_1NotImplementedError.html" target="_top" xlink:title="prior_hessian::NotImplemented\lError">
<polygon fill="white" stroke="black" points="287,-376.5 287,-404.5 432,-404.5 432,-376.5 287,-376.5"/>
<text text-anchor="start" x="295" y="-393.3" font-family="Helvetica,sans-Serif" font-size="9.00">prior_hessian::NotImplemented</text>
<text text-anchor="middle" x="359.5" y="-383.3" font-family="Helvetica,sans-Serif" font-size="9.00">Error</text>
</a>
</g>
</g>
<!-- Node1&#45;&gt;Node5 -->
<g id="edge4" class="edge"><title>Node1&#45;&gt;Node5</title>
<path fill="none" stroke="midnightblue" d="M189.135,-272.606C206.13,-299.397 237.664,-343.003 276,-367.5 281.388,-370.943 287.293,-373.878 293.39,-376.379"/>
<polygon fill="midnightblue" stroke="midnightblue" points="191.98,-270.552 183.742,-263.89 186.027,-274.235 191.98,-270.552"/>
</g>
<!-- Node6 -->
<g id="node6" class="node"><title>Node6</title>
<g id="a_node6"><a xlink:href="structprior__hessian_1_1NumericalOverflowError.html" target="_top" xlink:title="prior_hessian::Numerical\lOverflowError">
<polygon fill="white" stroke="black" points="300,-329.5 300,-357.5 419,-357.5 419,-329.5 300,-329.5"/>
<text text-anchor="start" x="308" y="-346.3" font-family="Helvetica,sans-Serif" font-size="9.00">prior_hessian::Numerical</text>
<text text-anchor="middle" x="359.5" y="-336.3" font-family="Helvetica,sans-Serif" font-size="9.00">OverflowError</text>
</a>
</g>
</g>
<!-- Node1&#45;&gt;Node6 -->
<g id="edge5" class="edge"><title>Node1&#45;&gt;Node6</title>
<path fill="none" stroke="midnightblue" d="M199.566,-270.108C219.052,-285.87 247.803,-307.106 276,-320.5 283.521,-324.073 291.7,-327.183 299.888,-329.862"/>
<polygon fill="midnightblue" stroke="midnightblue" points="201.756,-267.378 191.81,-263.727 197.309,-272.783 201.756,-267.378"/>
</g>
<!-- Node7 -->
<g id="node7" class="node"><title>Node7</title>
<g id="a_node7"><a xlink:href="structprior__hessian_1_1ParameterNameError.html" target="_top" xlink:title="prior_hessian::Parameter\lNameError">
<polygon fill="white" stroke="black" points="299.5,-282.5 299.5,-310.5 419.5,-310.5 419.5,-282.5 299.5,-282.5"/>
<text text-anchor="start" x="307.5" y="-299.3" font-family="Helvetica,sans-Serif" font-size="9.00">prior_hessian::Parameter</text>
<text text-anchor="middle" x="359.5" y="-289.3" font-family="Helvetica,sans-Serif" font-size="9.00">NameError</text>
</a>
</g>
</g>
<!-- Node1&#45;&gt;Node7 -->
<g id="edge6" class="edge"><title>Node1&#45;&gt;Node7</title>
<path fill="none" stroke="midnightblue" d="M240.142,-266.102C260.997,-271.458 283.896,-277.339 303.948,-282.489"/>
<polygon fill="midnightblue" stroke="midnightblue" points="240.962,-262.699 230.406,-263.602 239.221,-269.479 240.962,-262.699"/>
</g>
<!-- Node8 -->
<g id="node8" class="node"><title>Node8</title>
<g id="a_node8"><a xlink:href="structprior__hessian_1_1ParameterNameUniquenessError.html" target="_top" xlink:title="prior_hessian::Parameter\lNameUniquenessError">
<polygon fill="white" stroke="black" points="299.5,-235.5 299.5,-263.5 419.5,-263.5 419.5,-235.5 299.5,-235.5"/>
<text text-anchor="start" x="307.5" y="-252.3" font-family="Helvetica,sans-Serif" font-size="9.00">prior_hessian::Parameter</text>
<text text-anchor="middle" x="359.5" y="-242.3" font-family="Helvetica,sans-Serif" font-size="9.00">NameUniquenessError</text>
</a>
</g>
</g>
<!-- Node1&#45;&gt;Node8 -->
<g id="edge7" class="edge"><title>Node1&#45;&gt;Node8</title>
<path fill="none" stroke="midnightblue" d="M250.131,-249.5C266.559,-249.5 283.739,-249.5 299.452,-249.5"/>
<polygon fill="midnightblue" stroke="midnightblue" points="250.019,-246 240.019,-249.5 250.019,-253 250.019,-246"/>
</g>
<!-- Node9 -->
<g id="node9" class="node"><title>Node9</title>
<g id="a_node9"><a xlink:href="structprior__hessian_1_1ParameterSizeError.html" target="_top" xlink:title="prior_hessian::Parameter\lSizeError">
<polygon fill="white" stroke="black" points="299.5,-188.5 299.5,-216.5 419.5,-216.5 419.5,-188.5 299.5,-188.5"/>
<text text-anchor="start" x="307.5" y="-205.3" font-family="Helvetica,sans-Serif" font-size="9.00">prior_hessian::Parameter</text>
<text text-anchor="middle" x="359.5" y="-195.3" font-family="Helvetica,sans-Serif" font-size="9.00">SizeError</text>
</a>
</g>
</g>
<!-- Node1&#45;&gt;Node9 -->
<g id="edge8" class="edge"><title>Node1&#45;&gt;Node9</title>
<path fill="none" stroke="midnightblue" d="M240.142,-232.898C260.997,-227.542 283.896,-221.661 303.948,-216.511"/>
<polygon fill="midnightblue" stroke="midnightblue" points="239.221,-229.521 230.406,-235.398 240.962,-236.301 239.221,-229.521"/>
</g>
<!-- Node10 -->
<g id="node10" class="node"><title>Node10</title>
<g id="a_node10"><a xlink:href="structprior__hessian_1_1ParameterValueError.html" target="_top" xlink:title="prior_hessian::Parameter\lValueError">
<polygon fill="white" stroke="black" points="299.5,-141.5 299.5,-169.5 419.5,-169.5 419.5,-141.5 299.5,-141.5"/>
<text text-anchor="start" x="307.5" y="-158.3" font-family="Helvetica,sans-Serif" font-size="9.00">prior_hessian::Parameter</text>
<text text-anchor="middle" x="359.5" y="-148.3" font-family="Helvetica,sans-Serif" font-size="9.00">ValueError</text>
</a>
</g>
</g>
<!-- Node1&#45;&gt;Node10 -->
<g id="edge9" class="edge"><title>Node1&#45;&gt;Node10</title>
<path fill="none" stroke="midnightblue" d="M199.566,-228.892C219.052,-213.13 247.803,-191.894 276,-178.5 283.387,-174.991 291.408,-171.928 299.449,-169.282"/>
<polygon fill="midnightblue" stroke="midnightblue" points="197.309,-226.217 191.81,-235.273 201.756,-231.622 197.309,-226.217"/>
</g>
<!-- Node11 -->
<g id="node11" class="node"><title>Node11</title>
<g id="a_node11"><a xlink:href="structprior__hessian_1_1RuntimeConvergenceError.html" target="_top" xlink:title="prior_hessian::RuntimeConvergence\lError">
<polygon fill="white" stroke="black" points="276,-94.5 276,-122.5 443,-122.5 443,-94.5 276,-94.5"/>
<text text-anchor="start" x="284" y="-111.3" font-family="Helvetica,sans-Serif" font-size="9.00">prior_hessian::RuntimeConvergence</text>
<text text-anchor="middle" x="359.5" y="-101.3" font-family="Helvetica,sans-Serif" font-size="9.00">Error</text>
</a>
</g>
</g>
<!-- Node1&#45;&gt;Node11 -->
<g id="edge10" class="edge"><title>Node1&#45;&gt;Node11</title>
<path fill="none" stroke="midnightblue" d="M189.135,-226.394C206.13,-199.603 237.664,-155.997 276,-131.5 281.388,-128.057 287.293,-125.122 293.39,-122.621"/>
<polygon fill="midnightblue" stroke="midnightblue" points="186.027,-224.765 183.742,-235.11 191.98,-228.448 186.027,-224.765"/>
</g>
<!-- Node12 -->
<g id="node12" class="node"><title>Node12</title>
<g id="a_node12"><a xlink:href="structprior__hessian_1_1RuntimeSamplingError.html" target="_top" xlink:title="prior_hessian::RuntimeSampling\lError">
<polygon fill="white" stroke="black" points="284,-47.5 284,-75.5 435,-75.5 435,-47.5 284,-47.5"/>
<text text-anchor="start" x="292" y="-64.3" font-family="Helvetica,sans-Serif" font-size="9.00">prior_hessian::RuntimeSampling</text>
<text text-anchor="middle" x="359.5" y="-54.3" font-family="Helvetica,sans-Serif" font-size="9.00">Error</text>
</a>
</g>
</g>
<!-- Node1&#45;&gt;Node12 -->
<g id="edge11" class="edge"><title>Node1&#45;&gt;Node12</title>
<path fill="none" stroke="midnightblue" d="M183.629,-225.362C197.052,-189.216 227.314,-121.343 276,-84.5 280.624,-81.0007 285.754,-78.0338 291.128,-75.5183"/>
<polygon fill="midnightblue" stroke="midnightblue" points="180.225,-224.484 180.144,-235.079 186.814,-226.847 180.225,-224.484"/>
</g>
<!-- Node13 -->
<g id="node13" class="node"><title>Node13</title>
<g id="a_node13"><a xlink:href="structprior__hessian_1_1RuntimeTypeError.html" target="_top" xlink:title="prior_hessian::RuntimeType\lError">
<polygon fill="white" stroke="black" points="293.5,-0.5 293.5,-28.5 425.5,-28.5 425.5,-0.5 293.5,-0.5"/>
<text text-anchor="start" x="301.5" y="-17.3" font-family="Helvetica,sans-Serif" font-size="9.00">prior_hessian::RuntimeType</text>
<text text-anchor="middle" x="359.5" y="-7.3" font-family="Helvetica,sans-Serif" font-size="9.00">Error</text>
</a>
</g>
</g>
<!-- Node1&#45;&gt;Node13 -->
<g id="edge12" class="edge"><title>Node1&#45;&gt;Node13</title>
<path fill="none" stroke="midnightblue" d="M180.034,-225.612C189.646,-181.641 216.281,-87.8009 276,-37.5 281.118,-33.1895 286.985,-29.6837 293.181,-26.8329"/>
<polygon fill="midnightblue" stroke="midnightblue" points="176.604,-224.915 177.994,-235.418 183.457,-226.341 176.604,-224.915"/>
</g>
<!-- Node2 -->
<g id="node2" class="node"><title>Node2</title>
<g id="a_node2"><a xlink:title="STL class. ">
<polygon fill="white" stroke="#bfbfbf" points="0,-240.5 0,-258.5 73,-258.5 73,-240.5 0,-240.5"/>
<text text-anchor="middle" x="36.5" y="-247.3" font-family="Helvetica,sans-Serif" font-size="9.00">std::exception</text>
</a>
</g>
</g>
<!-- Node2&#45;&gt;Node1 -->
<g id="edge1" class="edge"><title>Node2&#45;&gt;Node1</title>
<path fill="none" stroke="midnightblue" d="M83.317,-249.5C91.5155,-249.5 100.197,-249.5 108.808,-249.5"/>
<polygon fill="midnightblue" stroke="midnightblue" points="83.2324,-246 73.2324,-249.5 83.2324,-253 83.2324,-246"/>
</g>
</g>
</svg>
        <g id="navigator" transform="translate(0 0)" fill="#404254">
                <rect fill="#f2f5e9" fill-opacity="0.5" stroke="#606060" stroke-width=".5" x="0" y="0" width="60" height="60"/>
                <use id="zoomplus" xlink:href="#zoomPlus" x="17" y="9" onmousedown="handleZoom(evt,'in')"/>
                <use id="zoomminus" xlink:href="#zoomMin" x="42" y="9" onmousedown="handleZoom(evt,'out')"/>
                <use id="reset" xlink:href="#resetDef" x="30" y="36" onmousedown="handleReset()"/>
                <g id="arrowUp" xlink:href="#dirArrow" transform="translate(30 24)" onmousedown="handlePan(0,-1)">
                  <use xlink:href="#rim" fill="#404040">
                        <set attributeName="fill" to="#808080" begin="arrowUp.mouseover" end="arrowUp.mouseout"/>
                  </use>
                  <path fill="none" stroke="white" stroke-width="1.5" d="M0,-3.0v7 M-2.5,-0.5L0,-3.0L2.5,-0.5"/>
                </g>
                <g id="arrowRight" xlink:href="#dirArrow" transform="rotate(90) translate(36 -43)" onmousedown="handlePan(1,0)">
                  <use xlink:href="#rim" fill="#404040">
                        <set attributeName="fill" to="#808080" begin="arrowRight.mouseover" end="arrowRight.mouseout"/>
                  </use>
                  <path fill="none" stroke="white" stroke-width="1.5" d="M0,-3.0v7 M-2.5,-0.5L0,-3.0L2.5,-0.5"/>
                </g>
                <g id="arrowDown" xlink:href="#dirArrow" transform="rotate(180) translate(-30 -48)" onmousedown="handlePan(0,1)">
                  <use xlink:href="#rim" fill="#404040">
                        <set attributeName="fill" to="#808080" begin="arrowDown.mouseover" end="arrowDown.mouseout"/>
                  </use>
                  <path fill="none" stroke="white" stroke-width="1.5" d="M0,-3.0v7 M-2.5,-0.5L0,-3.0L2.5,-0.5"/>
                </g>
                <g id="arrowLeft" xlink:href="#dirArrow" transform="rotate(270) translate(-36 17)" onmousedown="handlePan(-1,0)">
                  <use xlink:href="#rim" fill="#404040">
                        <set attributeName="fill" to="#808080" begin="arrowLeft.mouseover" end="arrowLeft.mouseout"/>
                  </use>
                  <path fill="none" stroke="white" stroke-width="1.5" d="M0,-3.0v7 M-2.5,-0.5L0,-3.0L2.5,-0.5"/>
                </g>
        </g>
        <svg viewBox="0 0 15 15" width="100%" height="30px" preserveAspectRatio="xMaxYMin meet">
         <g id="arrow_out" transform="scale(0.3 0.3)">
          <a xlink:href="classprior__hessian_1_1PriorHessianError__inherit__graph_org.svg" target="_base">
           <rect id="button" ry="5" rx="5" y="6" x="6" height="38" width="38"
                fill="#f2f5e9" fill-opacity="0.5" stroke="#606060" stroke-width="1.0"/>
           <path id="arrow"
             d="M 11.500037,31.436501 C 11.940474,20.09759 22.043105,11.32322 32.158766,21.979434 L 37.068811,17.246167 C 37.068811,17.246167 37.088388,32 37.088388,32 L 22.160133,31.978069 C 22.160133,31.978069 26.997745,27.140456 26.997745,27.140456 C 18.528582,18.264221 13.291696,25.230495 11.500037,31.436501 z"
             style="fill:#404040;"/>
          </a>
         </g>
        </svg>
</svg>
