<?xml version="1.0" encoding="UTF-8" standalone="no"?>
<!DOCTYPE svg PUBLIC "-//W3C//DTD SVG 1.1//EN"
 "http://www.w3.org/Graphics/SVG/1.1/DTD/svg11.dtd">
<!-- Generated by graphviz version 2.38.0 (20140413.2041)
 -->
<!-- Title: prior_hessian::CompositeDist::ubound Pages: 1 -->
<svg width="989pt" height="389pt"
 viewBox="0.00 0.00 989.00 389.19" xmlns="http://www.w3.org/2000/svg" xmlns:xlink="http://www.w3.org/1999/xlink">
<g id="graph0" class="graph" transform="scale(1 1) rotate(0) translate(4 385.186)">
<title>prior_hessian::CompositeDist::ubound</title>
<polygon fill="white" stroke="none" points="-4,4 -4,-385.186 985,-385.186 985,4 -4,4"/>
<!-- Node1 -->
<g id="node1" class="node"><title>Node1</title>
<polygon fill="#bfbfbf" stroke="black" points="0,-131.686 0,-159.686 122,-159.686 122,-131.686 0,-131.686"/>
<text text-anchor="start" x="8" y="-148.486" font-family="Helvetica,sans-Serif" font-size="9.00">prior_hessian::Composite</text>
<text text-anchor="middle" x="61" y="-138.486" font-family="Helvetica,sans-Serif" font-size="9.00">Dist::ubound</text>
</g>
<!-- Node2 -->
<g id="node2" class="node"><title>Node2</title>
<g id="a_node2"><a xlink:href="classprior__hessian_1_1CompositeDist_1_1ComponentDistAdaptor_3_01Dist_00_01meta_1_1EnableIfSubclc6c9bd83bba546a81e521c87ad7ee6d3.html#a9b63fdd5b13a8dc9401f665a8da9b35c" target="_top" xlink:title="prior_hessian::Composite\lDist::ComponentDistAdaptor\l\&lt; Dist, meta::EnableIfSubclassT\l\&lt; Dist, UnivariateDist \&gt; \&gt;::append\l_global_ubound">
<polygon fill="white" stroke="black" points="176.5,-322.686 176.5,-380.686 329.5,-380.686 329.5,-322.686 176.5,-322.686"/>
<text text-anchor="start" x="184.5" y="-369.486" font-family="Helvetica,sans-Serif" font-size="9.00">prior_hessian::Composite</text>
<text text-anchor="start" x="184.5" y="-359.486" font-family="Helvetica,sans-Serif" font-size="9.00">Dist::ComponentDistAdaptor</text>
<text text-anchor="start" x="184.5" y="-349.486" font-family="Helvetica,sans-Serif" font-size="9.00">&lt; Dist, meta::EnableIfSubclassT</text>
<text text-anchor="start" x="184.5" y="-339.486" font-family="Helvetica,sans-Serif" font-size="9.00">&lt; Dist, UnivariateDist &gt; &gt;::append</text>
<text text-anchor="middle" x="253" y="-329.486" font-family="Helvetica,sans-Serif" font-size="9.00">_global_ubound</text>
</a>
</g>
</g>
<!-- Node1&#45;&gt;Node2 -->
<g id="edge1" class="edge"><title>Node1&#45;&gt;Node2</title>
<path fill="none" stroke="midnightblue" d="M69.8773,-169.583C82.8466,-205.499 111.943,-273.461 158,-313.686 163.568,-318.549 169.84,-322.839 176.434,-326.614"/>
<polygon fill="midnightblue" stroke="midnightblue" points="73.1108,-168.226 66.5072,-159.941 66.5028,-170.536 73.1108,-168.226"/>
</g>
<!-- Node3 -->
<g id="node3" class="node"><title>Node3</title>
<g id="a_node3"><a xlink:href="classprior__hessian_1_1CompositeDist_1_1ComponentDistAdaptor_3_01Dist_00_01meta_1_1EnableIfSubclc6c9bd83bba546a81e521c87ad7ee6d3.html#af062076875843bcd913ff5f4b7b12699" target="_top" xlink:title="prior_hessian::Composite\lDist::ComponentDistAdaptor\l\&lt; Dist, meta::EnableIfSubclassT\l\&lt; Dist, UnivariateDist \&gt; \&gt;::append_ubound">
<polygon fill="white" stroke="black" points="158,-255.686 158,-303.686 348,-303.686 348,-255.686 158,-255.686"/>
<text text-anchor="start" x="166" y="-292.486" font-family="Helvetica,sans-Serif" font-size="9.00">prior_hessian::Composite</text>
<text text-anchor="start" x="166" y="-282.486" font-family="Helvetica,sans-Serif" font-size="9.00">Dist::ComponentDistAdaptor</text>
<text text-anchor="start" x="166" y="-272.486" font-family="Helvetica,sans-Serif" font-size="9.00">&lt; Dist, meta::EnableIfSubclassT</text>
<text text-anchor="middle" x="253" y="-262.486" font-family="Helvetica,sans-Serif" font-size="9.00">&lt; Dist, UnivariateDist &gt; &gt;::append_ubound</text>
</a>
</g>
</g>
<!-- Node1&#45;&gt;Node3 -->
<g id="edge2" class="edge"><title>Node1&#45;&gt;Node3</title>
<path fill="none" stroke="midnightblue" d="M77.9285,-167.815C95.2927,-190.492 125.04,-225.363 158,-246.686 162.938,-249.88 168.222,-252.808 173.673,-255.483"/>
<polygon fill="midnightblue" stroke="midnightblue" points="80.6986,-165.675 71.8989,-159.774 75.0983,-169.874 80.6986,-165.675"/>
</g>
<!-- Node4 -->
<g id="node4" class="node"><title>Node4</title>
<g id="a_node4"><a xlink:href="classprior__hessian_1_1CompositeDist_1_1ComponentDistAdaptor_3_01Dist_00_01meta_1_1EnableIfSubcld67d34d533dbae21b9dad35557546eec.html#a3ef1a9a519a46a9690a69671a6b26869" target="_top" xlink:title="prior_hessian::Composite\lDist::ComponentDistAdaptor\l\&lt; Dist, meta::EnableIfSubclassT\l\&lt; Dist, MultivariateDist \&gt; \&gt;\l::append_ubound">
<polygon fill="white" stroke="black" points="180,-178.686 180,-236.686 326,-236.686 326,-178.686 180,-178.686"/>
<text text-anchor="start" x="188" y="-225.486" font-family="Helvetica,sans-Serif" font-size="9.00">prior_hessian::Composite</text>
<text text-anchor="start" x="188" y="-215.486" font-family="Helvetica,sans-Serif" font-size="9.00">Dist::ComponentDistAdaptor</text>
<text text-anchor="start" x="188" y="-205.486" font-family="Helvetica,sans-Serif" font-size="9.00">&lt; Dist, meta::EnableIfSubclassT</text>
<text text-anchor="start" x="188" y="-195.486" font-family="Helvetica,sans-Serif" font-size="9.00">&lt; Dist, MultivariateDist &gt; &gt;</text>
<text text-anchor="middle" x="253" y="-185.486" font-family="Helvetica,sans-Serif" font-size="9.00">::append_ubound</text>
</a>
</g>
</g>
<!-- Node1&#45;&gt;Node4 -->
<g id="edge3" class="edge"><title>Node1&#45;&gt;Node4</title>
<path fill="none" stroke="midnightblue" d="M114.744,-162.897C134.928,-169.483 158.307,-177.112 179.987,-184.187"/>
<polygon fill="midnightblue" stroke="midnightblue" points="115.706,-159.529 105.114,-159.754 113.535,-166.184 115.706,-159.529"/>
</g>
<!-- Node5 -->
<g id="node5" class="node"><title>Node5</title>
<g id="a_node5"><a xlink:href="classprior__hessian_1_1CompositeDist.html#aad4dece0c6d7857cbe3e9121aa7cc040" target="_top" xlink:title="prior_hessian::Composite\lDist::in_bounds">
<polygon fill="white" stroke="black" points="192,-131.686 192,-159.686 314,-159.686 314,-131.686 192,-131.686"/>
<text text-anchor="start" x="200" y="-148.486" font-family="Helvetica,sans-Serif" font-size="9.00">prior_hessian::Composite</text>
<text text-anchor="middle" x="253" y="-138.486" font-family="Helvetica,sans-Serif" font-size="9.00">Dist::in_bounds</text>
</a>
</g>
</g>
<!-- Node1&#45;&gt;Node5 -->
<g id="edge4" class="edge"><title>Node1&#45;&gt;Node5</title>
<path fill="none" stroke="midnightblue" d="M132.219,-145.686C151.839,-145.686 172.974,-145.686 191.948,-145.686"/>
<polygon fill="midnightblue" stroke="midnightblue" points="132.117,-142.186 122.117,-145.686 132.117,-149.186 132.117,-142.186"/>
</g>
<!-- Node6 -->
<g id="node6" class="node"><title>Node6</title>
<g id="a_node6"><a xlink:href="classprior__hessian_1_1CompositeDist.html#ac7063be5346f042c0312d5729aa0883c" target="_top" xlink:title="prior_hessian::Composite\lDist::in_bounds_all">
<polygon fill="white" stroke="black" points="192,-84.6856 192,-112.686 314,-112.686 314,-84.6856 192,-84.6856"/>
<text text-anchor="start" x="200" y="-101.486" font-family="Helvetica,sans-Serif" font-size="9.00">prior_hessian::Composite</text>
<text text-anchor="middle" x="253" y="-91.4856" font-family="Helvetica,sans-Serif" font-size="9.00">Dist::in_bounds_all</text>
</a>
</g>
</g>
<!-- Node1&#45;&gt;Node6 -->
<g id="edge5" class="edge"><title>Node1&#45;&gt;Node6</title>
<path fill="none" stroke="midnightblue" d="M128.569,-129.219C150.317,-123.839 174.256,-117.917 195.215,-112.732"/>
<polygon fill="midnightblue" stroke="midnightblue" points="127.616,-125.849 118.749,-131.648 129.297,-132.644 127.616,-125.849"/>
</g>
<!-- Node7 -->
<g id="node7" class="node"><title>Node7</title>
<g id="a_node7"><a xlink:href="namespaceprior__hessian.html#ab26e9ddc3b6a5caccf5d75e1a1e1af1b" target="_top" xlink:title="prior_hessian::operator\&lt;\&lt;">
<polygon fill="white" stroke="black" points="192,-47.6856 192,-65.6856 314,-65.6856 314,-47.6856 192,-47.6856"/>
<text text-anchor="middle" x="253" y="-54.4856" font-family="Helvetica,sans-Serif" font-size="9.00">prior_hessian::operator&lt;&lt;</text>
</a>
</g>
</g>
<!-- Node1&#45;&gt;Node7 -->
<g id="edge6" class="edge"><title>Node1&#45;&gt;Node7</title>
<path fill="none" stroke="midnightblue" d="M84.7936,-124.639C103.206,-108.792 130.497,-87.7946 158,-75.6856 168.514,-71.0565 180.189,-67.5425 191.636,-64.8787"/>
<polygon fill="midnightblue" stroke="midnightblue" points="82.1839,-122.274 76.9896,-131.508 86.8087,-127.528 82.1839,-122.274"/>
</g>
<!-- Node10 -->
<g id="node10" class="node"><title>Node10</title>
<g id="a_node10"><a xlink:href="classprior__hessian_1_1CompositeDist.html#a24bac25ae8c0330b8a3aacadffc9d5ae" target="_top" xlink:title="prior_hessian::Composite\lDist::rllh_components">
<polygon fill="white" stroke="black" points="859,-30.6856 859,-58.6856 981,-58.6856 981,-30.6856 859,-30.6856"/>
<text text-anchor="start" x="867" y="-47.4856" font-family="Helvetica,sans-Serif" font-size="9.00">prior_hessian::Composite</text>
<text text-anchor="middle" x="920" y="-37.4856" font-family="Helvetica,sans-Serif" font-size="9.00">Dist::rllh_components</text>
</a>
</g>
</g>
<!-- Node1&#45;&gt;Node10 -->
<g id="edge13" class="edge"><title>Node1&#45;&gt;Node10</title>
<path fill="none" stroke="midnightblue" d="M75.1141,-122.764C91.1016,-97.2053 120.666,-56.9355 158,-37.6856 271.639,20.9084 316.144,-6.68563 444,-6.68563 444,-6.68563 444,-6.68563 604,-6.68563 693.236,-6.68563 795.675,-21.9028 858.872,-33.0779"/>
<polygon fill="midnightblue" stroke="midnightblue" points="72.0404,-121.083 69.849,-131.448 78.0262,-124.712 72.0404,-121.083"/>
</g>
<!-- Node8 -->
<g id="node8" class="node"><title>Node8</title>
<g id="a_node8"><a xlink:href="classprior__hessian_1_1CompositeDist.html#a38c4fdacf927824117d202422b04013c" target="_top" xlink:title="prior_hessian::Composite\lDist::set_param_names">
<polygon fill="white" stroke="black" points="384,-54.6856 384,-82.6856 506,-82.6856 506,-54.6856 384,-54.6856"/>
<text text-anchor="start" x="392" y="-71.4856" font-family="Helvetica,sans-Serif" font-size="9.00">prior_hessian::Composite</text>
<text text-anchor="middle" x="445" y="-61.4856" font-family="Helvetica,sans-Serif" font-size="9.00">Dist::set_param_names</text>
</a>
</g>
</g>
<!-- Node7&#45;&gt;Node8 -->
<g id="edge7" class="edge"><title>Node7&#45;&gt;Node8</title>
<path fill="none" stroke="midnightblue" d="M324.219,-61.1205C343.839,-62.3596 364.974,-63.6945 383.948,-64.8929"/>
<polygon fill="midnightblue" stroke="midnightblue" points="324.318,-57.6199 314.117,-60.4825 323.877,-64.606 324.318,-57.6199"/>
</g>
<!-- Node9 -->
<g id="node9" class="node"><title>Node9</title>
<g id="a_node9"><a xlink:href="classprior__hessian_1_1CompositeDist.html#a927fed39b2b4e87714c728d6e7b11e8b" target="_top" xlink:title="prior_hessian::Composite\lDist::params_components">
<polygon fill="white" stroke="black" points="700,-73.6856 700,-101.686 823,-101.686 823,-73.6856 700,-73.6856"/>
<text text-anchor="start" x="708" y="-90.4856" font-family="Helvetica,sans-Serif" font-size="9.00">prior_hessian::Composite</text>
<text text-anchor="middle" x="761.5" y="-80.4856" font-family="Helvetica,sans-Serif" font-size="9.00">Dist::params_components</text>
</a>
</g>
</g>
<!-- Node8&#45;&gt;Node9 -->
<g id="edge8" class="edge"><title>Node8&#45;&gt;Node9</title>
<path fill="none" stroke="midnightblue" d="M478.815,-87.5358C496.836,-96.8024 519.948,-106.973 542,-111.686 595.025,-123.018 610.18,-118.278 664,-111.686 680.45,-109.671 698.133,-105.792 713.811,-101.731"/>
<polygon fill="midnightblue" stroke="midnightblue" points="480.363,-84.3953 469.888,-82.8061 477.086,-90.5807 480.363,-84.3953"/>
</g>
<!-- Node8&#45;&gt;Node10 -->
<g id="edge12" class="edge"><title>Node8&#45;&gt;Node10</title>
<path fill="none" stroke="midnightblue" d="M516.28,-65.0116C524.942,-64.5628 533.674,-64.1123 542,-63.6856 653.917,-57.9509 784.531,-51.4 858.928,-47.6819"/>
<polygon fill="midnightblue" stroke="midnightblue" points="515.976,-61.5225 506.171,-65.5362 516.339,-68.5131 515.976,-61.5225"/>
</g>
<!-- Node11 -->
<g id="node11" class="node"><title>Node11</title>
<g id="a_node11"><a xlink:href="classprior__hessian_1_1CompositeDist.html#ace0aaa3698d76aba6a47f9061ff98902" target="_top" xlink:title="prior_hessian::Composite\lDist::rename_param">
<polygon fill="white" stroke="black" points="542,-73.6856 542,-101.686 664,-101.686 664,-73.6856 542,-73.6856"/>
<text text-anchor="start" x="550" y="-90.4856" font-family="Helvetica,sans-Serif" font-size="9.00">prior_hessian::Composite</text>
<text text-anchor="middle" x="603" y="-80.4856" font-family="Helvetica,sans-Serif" font-size="9.00">Dist::rename_param</text>
</a>
</g>
</g>
<!-- Node8&#45;&gt;Node11 -->
<g id="edge10" class="edge"><title>Node8&#45;&gt;Node11</title>
<path fill="none" stroke="midnightblue" d="M516.259,-77.2429C524.802,-78.2833 533.469,-79.339 541.847,-80.3593"/>
<polygon fill="midnightblue" stroke="midnightblue" points="516.664,-73.7663 506.314,-76.0315 515.817,-80.715 516.664,-73.7663"/>
</g>
<!-- Node9&#45;&gt;Node10 -->
<g id="edge9" class="edge"><title>Node9&#45;&gt;Node10</title>
<path fill="none" stroke="midnightblue" d="M823.709,-70.8678C838.334,-66.8494 853.794,-62.6016 867.908,-58.7236"/>
<polygon fill="midnightblue" stroke="midnightblue" points="822.459,-67.5814 813.744,-73.6058 824.314,-74.3313 822.459,-67.5814"/>
</g>
<!-- Node11&#45;&gt;Node9 -->
<g id="edge11" class="edge"><title>Node11&#45;&gt;Node9</title>
<path fill="none" stroke="midnightblue" d="M674.062,-87.6856C682.657,-87.6856 691.385,-87.6856 699.825,-87.6856"/>
<polygon fill="midnightblue" stroke="midnightblue" points="674.059,-84.1857 664.059,-87.6856 674.059,-91.1857 674.059,-84.1857"/>
</g>
</g>
</svg>
