<?xml version="1.0" encoding="UTF-8" standalone="no"?>
<!DOCTYPE svg PUBLIC "-//W3C//DTD SVG 1.1//EN"
 "http://www.w3.org/Graphics/SVG/1.1/DTD/svg11.dtd">
<!-- Generated by graphviz version 2.38.0 (20140413.2041)
 -->
<!-- Title: prior_hessian::MultivariateNormalDist::sigma Pages: 1 -->
<svg width="490pt" height="264pt"
 viewBox="0.00 0.00 490.00 264.00" xmlns="http://www.w3.org/2000/svg" xmlns:xlink="http://www.w3.org/1999/xlink">
<g id="graph0" class="graph" transform="scale(1 1) rotate(0) translate(4 260)">
<title>prior_hessian::MultivariateNormalDist::sigma</title>
<polygon fill="white" stroke="none" points="-4,4 -4,-260 486,-260 486,4 -4,4"/>
<!-- Node1 -->
<g id="node1" class="node"><title>Node1</title>
<polygon fill="#bfbfbf" stroke="black" points="0,-115.5 0,-143.5 125,-143.5 125,-115.5 0,-115.5"/>
<text text-anchor="start" x="8" y="-132.3" font-family="Helvetica,sans-Serif" font-size="9.00">prior_hessian::Multivariate</text>
<text text-anchor="middle" x="62.5" y="-122.3" font-family="Helvetica,sans-Serif" font-size="9.00">NormalDist::sigma</text>
</g>
<!-- Node2 -->
<g id="node2" class="node"><title>Node2</title>
<g id="a_node2"><a xlink:href="classprior__hessian_1_1MultivariateNormalDist.html#a41f15a93e291cc18bf28c1c0118efa6a" target="_top" xlink:title="prior_hessian::Multivariate\lNormalDist::cdf">
<polygon fill="white" stroke="black" points="178.5,-227.5 178.5,-255.5 303.5,-255.5 303.5,-227.5 178.5,-227.5"/>
<text text-anchor="start" x="186.5" y="-244.3" font-family="Helvetica,sans-Serif" font-size="9.00">prior_hessian::Multivariate</text>
<text text-anchor="middle" x="241" y="-234.3" font-family="Helvetica,sans-Serif" font-size="9.00">NormalDist::cdf</text>
</a>
</g>
</g>
<!-- Node1&#45;&gt;Node2 -->
<g id="edge1" class="edge"><title>Node1&#45;&gt;Node2</title>
<path fill="none" stroke="midnightblue" d="M82.0823,-151.447C100.271,-171.61 129.735,-200.947 161,-218.5 167.103,-221.927 173.765,-224.884 180.546,-227.427"/>
<polygon fill="midnightblue" stroke="midnightblue" points="84.4746,-148.868 75.2313,-143.69 79.2279,-153.502 84.4746,-148.868"/>
</g>
<!-- Node4 -->
<g id="node4" class="node"><title>Node4</title>
<g id="a_node4"><a xlink:href="classprior__hessian_1_1MultivariateNormalDist.html#aedb257f189a46f8b1ee36a1b344648c3" target="_top" xlink:title="prior_hessian::Multivariate\lNormalDist::in_bounds">
<polygon fill="white" stroke="black" points="357,-94.5 357,-122.5 482,-122.5 482,-94.5 357,-94.5"/>
<text text-anchor="start" x="365" y="-111.3" font-family="Helvetica,sans-Serif" font-size="9.00">prior_hessian::Multivariate</text>
<text text-anchor="middle" x="419.5" y="-101.3" font-family="Helvetica,sans-Serif" font-size="9.00">NormalDist::in_bounds</text>
</a>
</g>
</g>
<!-- Node1&#45;&gt;Node4 -->
<g id="edge3" class="edge"><title>Node1&#45;&gt;Node4</title>
<path fill="none" stroke="midnightblue" d="M135.212,-134.78C187.012,-137.446 258.553,-138.766 321,-131.5 336.807,-129.661 353.77,-126.198 369.043,-122.507"/>
<polygon fill="midnightblue" stroke="midnightblue" points="135.299,-131.28 125.123,-134.231 134.918,-138.269 135.299,-131.28"/>
</g>
<!-- Node5 -->
<g id="node5" class="node"><title>Node5</title>
<g id="a_node5"><a xlink:href="classprior__hessian_1_1MultivariateNormalDist.html#ab97d0301af152e72c9e6f6d3672d30e0" target="_top" xlink:title="prior_hessian::Multivariate\lNormalDist::MultivariateNormalDist">
<polygon fill="white" stroke="black" points="161,-0.5 161,-28.5 321,-28.5 321,-0.5 161,-0.5"/>
<text text-anchor="start" x="169" y="-17.3" font-family="Helvetica,sans-Serif" font-size="9.00">prior_hessian::Multivariate</text>
<text text-anchor="middle" x="241" y="-7.3" font-family="Helvetica,sans-Serif" font-size="9.00">NormalDist::MultivariateNormalDist</text>
</a>
</g>
</g>
<!-- Node1&#45;&gt;Node5 -->
<g id="edge4" class="edge"><title>Node1&#45;&gt;Node5</title>
<path fill="none" stroke="midnightblue" d="M81.0855,-107.764C99.086,-86.883 128.903,-55.8709 161,-37.5 166.951,-34.094 173.448,-31.1566 180.076,-28.6319"/>
<polygon fill="midnightblue" stroke="midnightblue" points="78.3393,-105.592 74.5641,-115.491 83.6887,-110.107 78.3393,-105.592"/>
</g>
<!-- Node6 -->
<g id="node6" class="node"><title>Node6</title>
<g id="a_node6"><a xlink:href="classprior__hessian_1_1MultivariateNormalDist.html#a50243ac0981ffdd3e6bb3566e8b3afc0" target="_top" xlink:title="prior_hessian::Multivariate\lNormalDist::operator==">
<polygon fill="white" stroke="black" points="178.5,-94.5 178.5,-122.5 303.5,-122.5 303.5,-94.5 178.5,-94.5"/>
<text text-anchor="start" x="186.5" y="-111.3" font-family="Helvetica,sans-Serif" font-size="9.00">prior_hessian::Multivariate</text>
<text text-anchor="middle" x="241" y="-101.3" font-family="Helvetica,sans-Serif" font-size="9.00">NormalDist::operator==</text>
</a>
</g>
</g>
<!-- Node1&#45;&gt;Node6 -->
<g id="edge5" class="edge"><title>Node1&#45;&gt;Node6</title>
<path fill="none" stroke="midnightblue" d="M135.455,-120.939C149.669,-119.248 164.466,-117.487 178.304,-115.841"/>
<polygon fill="midnightblue" stroke="midnightblue" points="134.748,-117.498 125.231,-122.155 135.575,-124.449 134.748,-117.498"/>
</g>
<!-- Node8 -->
<g id="node8" class="node"><title>Node8</title>
<g id="a_node8"><a xlink:href="classprior__hessian_1_1MultivariateNormalDist.html#a55a53ff4ea86375a8971a5334c000c9c" target="_top" xlink:title="prior_hessian::Multivariate\lNormalDist::params">
<polygon fill="white" stroke="black" points="178.5,-47.5 178.5,-75.5 303.5,-75.5 303.5,-47.5 178.5,-47.5"/>
<text text-anchor="start" x="186.5" y="-64.3" font-family="Helvetica,sans-Serif" font-size="9.00">prior_hessian::Multivariate</text>
<text text-anchor="middle" x="241" y="-54.3" font-family="Helvetica,sans-Serif" font-size="9.00">NormalDist::params</text>
</a>
</g>
</g>
<!-- Node1&#45;&gt;Node8 -->
<g id="edge8" class="edge"><title>Node1&#45;&gt;Node8</title>
<path fill="none" stroke="midnightblue" d="M100.211,-110.979C118.253,-102.285 140.479,-92.1738 161,-84.5 169.563,-81.2978 178.782,-78.2591 187.794,-75.5025"/>
<polygon fill="midnightblue" stroke="midnightblue" points="98.6454,-107.848 91.1892,-115.375 101.712,-114.141 98.6454,-107.848"/>
</g>
<!-- Node9 -->
<g id="node9" class="node"><title>Node9</title>
<g id="a_node9"><a xlink:href="classprior__hessian_1_1MultivariateNormalDist.html#ad17199c0b81608efff2d1e28714992e8" target="_top" xlink:title="prior_hessian::Multivariate\lNormalDist::sample">
<polygon fill="white" stroke="black" points="178.5,-180.5 178.5,-208.5 303.5,-208.5 303.5,-180.5 178.5,-180.5"/>
<text text-anchor="start" x="186.5" y="-197.3" font-family="Helvetica,sans-Serif" font-size="9.00">prior_hessian::Multivariate</text>
<text text-anchor="middle" x="241" y="-187.3" font-family="Helvetica,sans-Serif" font-size="9.00">NormalDist::sample</text>
</a>
</g>
</g>
<!-- Node1&#45;&gt;Node9 -->
<g id="edge11" class="edge"><title>Node1&#45;&gt;Node9</title>
<path fill="none" stroke="midnightblue" d="M111.07,-147.085C126.946,-152.948 144.734,-159.511 161,-165.5 174.162,-170.346 188.562,-175.635 201.42,-180.354"/>
<polygon fill="midnightblue" stroke="midnightblue" points="112.055,-143.718 101.462,-143.536 109.63,-150.284 112.055,-143.718"/>
</g>
<!-- Node3 -->
<g id="node3" class="node"><title>Node3</title>
<g id="a_node3"><a xlink:href="classprior__hessian_1_1MultivariateNormalDist.html#afdec8e6a453a2c69e0d84833d6b3e5ae" target="_top" xlink:title="prior_hessian::Multivariate\lNormalDist::mode">
<polygon fill="white" stroke="black" points="357,-203.5 357,-231.5 482,-231.5 482,-203.5 357,-203.5"/>
<text text-anchor="start" x="365" y="-220.3" font-family="Helvetica,sans-Serif" font-size="9.00">prior_hessian::Multivariate</text>
<text text-anchor="middle" x="419.5" y="-210.3" font-family="Helvetica,sans-Serif" font-size="9.00">NormalDist::mode</text>
</a>
</g>
</g>
<!-- Node2&#45;&gt;Node3 -->
<g id="edge2" class="edge"><title>Node2&#45;&gt;Node3</title>
<path fill="none" stroke="midnightblue" d="M313.955,-231.716C328.169,-229.783 342.966,-227.771 356.804,-225.889"/>
<polygon fill="midnightblue" stroke="midnightblue" points="313.168,-228.29 303.731,-233.106 314.112,-235.227 313.168,-228.29"/>
</g>
<!-- Node6&#45;&gt;Node4 -->
<g id="edge6" class="edge"><title>Node6&#45;&gt;Node4</title>
<path fill="none" stroke="midnightblue" d="M313.955,-108.5C328.169,-108.5 342.966,-108.5 356.804,-108.5"/>
<polygon fill="midnightblue" stroke="midnightblue" points="313.731,-105 303.731,-108.5 313.731,-112 313.731,-105"/>
</g>
<!-- Node7 -->
<g id="node7" class="node"><title>Node7</title>
<g id="a_node7"><a xlink:href="classprior__hessian_1_1MultivariateNormalDist.html#a5bdf1c751f8da8a9043542ed080bb230" target="_top" xlink:title="prior_hessian::Multivariate\lNormalDist::operator!=">
<polygon fill="white" stroke="black" points="357,-47.5 357,-75.5 482,-75.5 482,-47.5 357,-47.5"/>
<text text-anchor="start" x="365" y="-64.3" font-family="Helvetica,sans-Serif" font-size="9.00">prior_hessian::Multivariate</text>
<text text-anchor="middle" x="419.5" y="-54.3" font-family="Helvetica,sans-Serif" font-size="9.00">NormalDist::operator!=</text>
</a>
</g>
</g>
<!-- Node6&#45;&gt;Node7 -->
<g id="edge7" class="edge"><title>Node6&#45;&gt;Node7</title>
<path fill="none" stroke="midnightblue" d="M304.892,-91.7525C324.86,-86.4353 346.72,-80.6141 365.886,-75.5106"/>
<polygon fill="midnightblue" stroke="midnightblue" points="303.718,-88.443 294.956,-94.3985 305.52,-95.2073 303.718,-88.443"/>
</g>
<!-- Node8&#45;&gt;Node4 -->
<g id="edge9" class="edge"><title>Node8&#45;&gt;Node4</title>
<path fill="none" stroke="midnightblue" d="M304.892,-78.2475C324.86,-83.5647 346.72,-89.3859 365.886,-94.4894"/>
<polygon fill="midnightblue" stroke="midnightblue" points="305.52,-74.7927 294.956,-75.6015 303.718,-81.557 305.52,-74.7927"/>
</g>
<!-- Node8&#45;&gt;Node7 -->
<g id="edge10" class="edge"><title>Node8&#45;&gt;Node7</title>
<path fill="none" stroke="midnightblue" d="M313.955,-61.5C328.169,-61.5 342.966,-61.5 356.804,-61.5"/>
<polygon fill="midnightblue" stroke="midnightblue" points="313.731,-58.0001 303.731,-61.5 313.731,-65.0001 313.731,-58.0001"/>
</g>
<!-- Node9&#45;&gt;Node3 -->
<g id="edge12" class="edge"><title>Node9&#45;&gt;Node3</title>
<path fill="none" stroke="midnightblue" d="M313.955,-203.877C328.169,-205.729 342.966,-207.657 356.804,-209.46"/>
<polygon fill="midnightblue" stroke="midnightblue" points="314.1,-200.366 303.731,-202.544 313.195,-207.307 314.1,-200.366"/>
</g>
</g>
</svg>
