<?xml version="1.0" encoding="UTF-8" standalone="no"?>
<!DOCTYPE svg PUBLIC "-//W3C//DTD SVG 1.1//EN"
 "http://www.w3.org/Graphics/SVG/1.1/DTD/svg11.dtd">
<!-- Generated by graphviz version 2.38.0 (20140413.2041)
 -->
<!-- Title: prior_hessian::AMHCopula::d1_igen Pages: 1 -->
<!--zoomable 188 -->
<svg id="main" version="1.1" xmlns="http://www.w3.org/2000/svg" xmlns:xlink="http://www.w3.org/1999/xlink" xml:space="preserve" onload="init(evt)">
<style type="text/css"><![CDATA[
.edge:hover path { stroke: red; }
.edge:hover polygon { stroke: red; fill: red; }
]]></style>
<script type="text/javascript"><![CDATA[
var edges = document.getElementsByTagName('g');
if (edges && edges.length) {
  for (var i=0;i<edges.length;i++) {
    if (edges[i].id.substr(0,4)=='edge') {
      edges[i].setAttribute('class','edge');
    }
  }
}
]]></script>
        <defs>
                <circle id="rim" cx="0" cy="0" r="7"/>
                <circle id="rim2" cx="0" cy="0" r="3.5"/>
                <g id="zoomPlus">
                        <use xlink:href="#rim" fill="#404040">
                                <set attributeName="fill" to="#808080" begin="zoomplus.mouseover" end="zoomplus.mouseout"/>
                        </use>
                        <path d="M-4,0h8M0,-4v8" fill="none" stroke="white" stroke-width="1.5" pointer-events="none"/>
                </g>
                <g id="zoomMin">
                        <use xlink:href="#rim" fill="#404040">
                                <set attributeName="fill" to="#808080" begin="zoomminus.mouseover" end="zoomminus.mouseout"/>
                        </use>
                        <path d="M-4,0h8" fill="none" stroke="white" stroke-width="1.5" pointer-events="none"/>
                </g>
                <g id="dirArrow">
                        <path fill="none" stroke="white" stroke-width="1.5" d="M0,-3.0v7 M-2.5,-0.5L0,-3.0L2.5,-0.5"/>
                </g>
               <g id="resetDef">
                       <use xlink:href="#rim2" fill="#404040">
                               <set attributeName="fill" to="#808080" begin="reset.mouseover" end="reset.mouseout"/>
                       </use>
               </g>
        </defs>

<script type="text/javascript">
var viewWidth = 792;
var viewHeight = 188;
var sectionId = 'dynsection-10';
</script>
<script xlink:href="svgpan.js"/>
<svg id="graph" class="graph">
<g id="viewport">
<title>prior_hessian::AMHCopula::d1_igen</title>
<polygon fill="white" stroke="none" points="-4,4 -4,-184 788,-184 788,4 -4,4"/>
<!-- Node1 -->
<g id="node1" class="node"><title>Node1</title>
<polygon fill="#bfbfbf" stroke="black" points="0,-68.5 0,-96.5 128,-96.5 128,-68.5 0,-68.5"/>
<text text-anchor="start" x="8" y="-85.3" font-family="Helvetica,sans-Serif" font-size="9.00">prior_hessian::AMHCopula</text>
<text text-anchor="middle" x="64" y="-75.3" font-family="Helvetica,sans-Serif" font-size="9.00">::d1_igen</text>
</g>
<!-- Node2 -->
<g id="node2" class="node"><title>Node2</title>
<g id="a_node2"><a xlink:href="classprior__hessian_1_1AMHCopula.html#a38e091a72ecb8c9df42e88017b2d347e" target="_top" xlink:title="prior_hessian::AMHCopula\l::igen_sum">
<polygon fill="white" stroke="black" points="164,-133.5 164,-161.5 292,-161.5 292,-133.5 164,-133.5"/>
<text text-anchor="start" x="172" y="-150.3" font-family="Helvetica,sans-Serif" font-size="9.00">prior_hessian::AMHCopula</text>
<text text-anchor="middle" x="228" y="-140.3" font-family="Helvetica,sans-Serif" font-size="9.00">::igen_sum</text>
</a>
</g>
</g>
<!-- Node1&#45;&gt;Node2 -->
<g id="edge1" class="edge"><title>Node1&#45;&gt;Node2</title>
<path fill="none" stroke="midnightblue" d="M100.152,-96.604C124.246,-106.272 156.411,-119.177 182.322,-129.574"/>
<polygon fill="midnightblue" stroke="midnightblue" points="181.333,-132.948 191.917,-133.423 183.94,-126.451 181.333,-132.948"/>
</g>
<!-- Node3 -->
<g id="node3" class="node"><title>Node3</title>
<g id="a_node3"><a xlink:href="classprior__hessian_1_1AMHCopula.html#a11696b4a8cef12a30706cd745820b201" target="_top" xlink:title="prior_hessian::AMHCopula\l::theta">
<polygon fill="white" stroke="black" points="328,-111.5 328,-139.5 456,-139.5 456,-111.5 328,-111.5"/>
<text text-anchor="start" x="336" y="-128.3" font-family="Helvetica,sans-Serif" font-size="9.00">prior_hessian::AMHCopula</text>
<text text-anchor="middle" x="392" y="-118.3" font-family="Helvetica,sans-Serif" font-size="9.00">::theta</text>
</a>
</g>
</g>
<!-- Node1&#45;&gt;Node3 -->
<g id="edge8" class="edge"><title>Node1&#45;&gt;Node3</title>
<path fill="none" stroke="midnightblue" d="M128.243,-90.8418C182.566,-98.0072 260.909,-108.341 317.907,-115.859"/>
<polygon fill="midnightblue" stroke="midnightblue" points="317.562,-119.344 327.933,-117.181 318.477,-112.404 317.562,-119.344"/>
</g>
<!-- Node6 -->
<g id="node6" class="node"><title>Node6</title>
<g id="a_node6"><a xlink:href="classprior__hessian_1_1AMHCopula.html#aaacec957c8d8e24df1100aee2694fe3a" target="_top" xlink:title="prior_hessian::AMHCopula\l::num_dim">
<polygon fill="white" stroke="black" points="164,-47.5 164,-75.5 292,-75.5 292,-47.5 164,-47.5"/>
<text text-anchor="start" x="172" y="-64.3" font-family="Helvetica,sans-Serif" font-size="9.00">prior_hessian::AMHCopula</text>
<text text-anchor="middle" x="228" y="-54.3" font-family="Helvetica,sans-Serif" font-size="9.00">::num_dim</text>
</a>
</g>
</g>
<!-- Node1&#45;&gt;Node6 -->
<g id="edge6" class="edge"><title>Node1&#45;&gt;Node6</title>
<path fill="none" stroke="midnightblue" d="M128.097,-74.3207C136.526,-73.2281 145.227,-72.1002 153.81,-70.9876"/>
<polygon fill="midnightblue" stroke="midnightblue" points="154.341,-74.4481 163.808,-69.6915 153.441,-67.5062 154.341,-74.4481"/>
</g>
<!-- Node7 -->
<g id="node7" class="node"><title>Node7</title>
<g id="a_node7"><a xlink:href="namespaceprior__hessian_1_1polylog.html#abb5fc2ad3b1509f49ea4b2fc05d916bb" target="_top" xlink:title="prior_hessian::polylog\l::polylog">
<polygon fill="white" stroke="black" points="174.5,-0.5 174.5,-28.5 281.5,-28.5 281.5,-0.5 174.5,-0.5"/>
<text text-anchor="start" x="182.5" y="-17.3" font-family="Helvetica,sans-Serif" font-size="9.00">prior_hessian::polylog</text>
<text text-anchor="middle" x="228" y="-7.3" font-family="Helvetica,sans-Serif" font-size="9.00">::polylog</text>
</a>
</g>
</g>
<!-- Node1&#45;&gt;Node7 -->
<g id="edge7" class="edge"><title>Node1&#45;&gt;Node7</title>
<path fill="none" stroke="midnightblue" d="M95.5848,-68.3926C115.056,-59.5397 140.874,-48.0361 164,-38.5 169.072,-36.4086 174.399,-34.2784 179.717,-32.1937"/>
<polygon fill="midnightblue" stroke="midnightblue" points="181.165,-35.3864 189.224,-28.5088 178.635,-28.8595 181.165,-35.3864"/>
</g>
<!-- Node2&#45;&gt;Node2 -->
<g id="edge2" class="edge"><title>Node2&#45;&gt;Node2</title>
<path fill="none" stroke="midnightblue" d="M199.96,-161.53C192.067,-170.89 201.414,-180 228,-180 244.616,-180 254.498,-176.441 257.646,-171.487"/>
<polygon fill="midnightblue" stroke="midnightblue" points="261.088,-170.845 256.04,-161.53 254.177,-171.96 261.088,-170.845"/>
</g>
<!-- Node2&#45;&gt;Node3 -->
<g id="edge3" class="edge"><title>Node2&#45;&gt;Node3</title>
<path fill="none" stroke="midnightblue" d="M292.097,-138.931C300.526,-137.787 309.227,-136.605 317.81,-135.439"/>
<polygon fill="midnightblue" stroke="midnightblue" points="318.37,-138.895 327.808,-134.082 317.428,-131.959 318.37,-138.895"/>
</g>
<!-- Node4 -->
<g id="node4" class="node"><title>Node4</title>
<g id="a_node4"><a xlink:href="classprior__hessian_1_1AMHCopula.html#a80bcb09b15bdb3c404f028772932c081" target="_top" xlink:title="prior_hessian::AMHCopula\l::set_theta">
<polygon fill="white" stroke="black" points="492,-111.5 492,-139.5 620,-139.5 620,-111.5 492,-111.5"/>
<text text-anchor="start" x="500" y="-128.3" font-family="Helvetica,sans-Serif" font-size="9.00">prior_hessian::AMHCopula</text>
<text text-anchor="middle" x="556" y="-118.3" font-family="Helvetica,sans-Serif" font-size="9.00">::set_theta</text>
</a>
</g>
</g>
<!-- Node3&#45;&gt;Node4 -->
<g id="edge4" class="edge"><title>Node3&#45;&gt;Node4</title>
<path fill="none" stroke="midnightblue" d="M456.097,-125.5C464.435,-125.5 473.038,-125.5 481.53,-125.5"/>
<polygon fill="midnightblue" stroke="midnightblue" points="481.808,-129 491.808,-125.5 481.808,-122 481.808,-129"/>
</g>
<!-- Node5 -->
<g id="node5" class="node"><title>Node5</title>
<g id="a_node5"><a xlink:href="classprior__hessian_1_1AMHCopula.html#a9d4b8453eedea358f829f8d4c911d8c4" target="_top" xlink:title="prior_hessian::AMHCopula\l::check_theta">
<polygon fill="white" stroke="black" points="656,-111.5 656,-139.5 784,-139.5 784,-111.5 656,-111.5"/>
<text text-anchor="start" x="664" y="-128.3" font-family="Helvetica,sans-Serif" font-size="9.00">prior_hessian::AMHCopula</text>
<text text-anchor="middle" x="720" y="-118.3" font-family="Helvetica,sans-Serif" font-size="9.00">::check_theta</text>
</a>
</g>
</g>
<!-- Node4&#45;&gt;Node5 -->
<g id="edge5" class="edge"><title>Node4&#45;&gt;Node5</title>
<path fill="none" stroke="midnightblue" d="M620.097,-125.5C628.435,-125.5 637.038,-125.5 645.53,-125.5"/>
<polygon fill="midnightblue" stroke="midnightblue" points="645.808,-129 655.808,-125.5 645.808,-122 645.808,-129"/>
</g>
</g>
</svg>
        <g id="navigator" transform="translate(0 0)" fill="#404254">
                <rect fill="#f2f5e9" fill-opacity="0.5" stroke="#606060" stroke-width=".5" x="0" y="0" width="60" height="60"/>
                <use id="zoomplus" xlink:href="#zoomPlus" x="17" y="9" onmousedown="handleZoom(evt,'in')"/>
                <use id="zoomminus" xlink:href="#zoomMin" x="42" y="9" onmousedown="handleZoom(evt,'out')"/>
                <use id="reset" xlink:href="#resetDef" x="30" y="36" onmousedown="handleReset()"/>
                <g id="arrowUp" xlink:href="#dirArrow" transform="translate(30 24)" onmousedown="handlePan(0,-1)">
                  <use xlink:href="#rim" fill="#404040">
                        <set attributeName="fill" to="#808080" begin="arrowUp.mouseover" end="arrowUp.mouseout"/>
                  </use>
                  <path fill="none" stroke="white" stroke-width="1.5" d="M0,-3.0v7 M-2.5,-0.5L0,-3.0L2.5,-0.5"/>
                </g>
                <g id="arrowRight" xlink:href="#dirArrow" transform="rotate(90) translate(36 -43)" onmousedown="handlePan(1,0)">
                  <use xlink:href="#rim" fill="#404040">
                        <set attributeName="fill" to="#808080" begin="arrowRight.mouseover" end="arrowRight.mouseout"/>
                  </use>
                  <path fill="none" stroke="white" stroke-width="1.5" d="M0,-3.0v7 M-2.5,-0.5L0,-3.0L2.5,-0.5"/>
                </g>
                <g id="arrowDown" xlink:href="#dirArrow" transform="rotate(180) translate(-30 -48)" onmousedown="handlePan(0,1)">
                  <use xlink:href="#rim" fill="#404040">
                        <set attributeName="fill" to="#808080" begin="arrowDown.mouseover" end="arrowDown.mouseout"/>
                  </use>
                  <path fill="none" stroke="white" stroke-width="1.5" d="M0,-3.0v7 M-2.5,-0.5L0,-3.0L2.5,-0.5"/>
                </g>
                <g id="arrowLeft" xlink:href="#dirArrow" transform="rotate(270) translate(-36 17)" onmousedown="handlePan(-1,0)">
                  <use xlink:href="#rim" fill="#404040">
                        <set attributeName="fill" to="#808080" begin="arrowLeft.mouseover" end="arrowLeft.mouseout"/>
                  </use>
                  <path fill="none" stroke="white" stroke-width="1.5" d="M0,-3.0v7 M-2.5,-0.5L0,-3.0L2.5,-0.5"/>
                </g>
        </g>
        <svg viewBox="0 0 15 15" width="100%" height="30px" preserveAspectRatio="xMaxYMin meet">
         <g id="arrow_out" transform="scale(0.3 0.3)">
          <a xlink:href="classprior__hessian_1_1AMHCopula_a19aecc89d6a1d6c46aa595a13999cfb2_cgraph_org.svg" target="_base">
           <rect id="button" ry="5" rx="5" y="6" x="6" height="38" width="38"
                fill="#f2f5e9" fill-opacity="0.5" stroke="#606060" stroke-width="1.0"/>
           <path id="arrow"
             d="M 11.500037,31.436501 C 11.940474,20.09759 22.043105,11.32322 32.158766,21.979434 L 37.068811,17.246167 C 37.068811,17.246167 37.088388,32 37.088388,32 L 22.160133,31.978069 C 22.160133,31.978069 26.997745,27.140456 26.997745,27.140456 C 18.528582,18.264221 13.291696,25.230495 11.500037,31.436501 z"
             style="fill:#404040;"/>
          </a>
         </g>
        </svg>
</svg>
