<?xml version="1.0" encoding="UTF-8" standalone="no"?>
<!DOCTYPE svg PUBLIC "-//W3C//DTD SVG 1.1//EN"
 "http://www.w3.org/Graphics/SVG/1.1/DTD/svg11.dtd">
<!-- Generated by graphviz version 2.38.0 (20140413.2041)
 -->
<!-- Title: prior_hessian::UpperTruncatedDist::set_ubound Pages: 1 -->
<svg width="332pt" height="84pt"
 viewBox="0.00 0.00 332.00 84.00" xmlns="http://www.w3.org/2000/svg" xmlns:xlink="http://www.w3.org/1999/xlink">
<g id="graph0" class="graph" transform="scale(1 1) rotate(0) translate(4 80)">
<title>prior_hessian::UpperTruncatedDist::set_ubound</title>
<polygon fill="white" stroke="none" points="-4,4 -4,-80 328,-80 328,4 -4,4"/>
<!-- Node1 -->
<g id="node1" class="node"><title>Node1</title>
<polygon fill="#bfbfbf" stroke="black" points="0,-23.5 0,-51.5 144,-51.5 144,-23.5 0,-23.5"/>
<text text-anchor="start" x="8" y="-40.3" font-family="Helvetica,sans-Serif" font-size="9.00">prior_hessian::UpperTruncated</text>
<text text-anchor="middle" x="72" y="-30.3" font-family="Helvetica,sans-Serif" font-size="9.00">Dist::set_ubound</text>
</g>
<!-- Node2 -->
<g id="node2" class="node"><title>Node2</title>
<g id="a_node2"><a xlink:href="classprior__hessian_1_1UpperTruncatedDist.html#a648dfc2c62b958ef82bd231ef74ac4d8" target="_top" xlink:title="prior_hessian::UpperTruncated\lDist::global_ubound">
<polygon fill="white" stroke="black" points="180,-47.5 180,-75.5 324,-75.5 324,-47.5 180,-47.5"/>
<text text-anchor="start" x="188" y="-64.3" font-family="Helvetica,sans-Serif" font-size="9.00">prior_hessian::UpperTruncated</text>
<text text-anchor="middle" x="252" y="-54.3" font-family="Helvetica,sans-Serif" font-size="9.00">Dist::global_ubound</text>
</a>
</g>
</g>
<!-- Node1&#45;&gt;Node2 -->
<g id="edge1" class="edge"><title>Node1&#45;&gt;Node2</title>
<path fill="none" stroke="midnightblue" d="M144.118,-47.0889C152.609,-48.2338 161.327,-49.4092 169.944,-50.5712"/>
<polygon fill="midnightblue" stroke="midnightblue" points="169.617,-54.0586 179.995,-51.9263 170.553,-47.1214 169.617,-54.0586"/>
</g>
<!-- Node3 -->
<g id="node3" class="node"><title>Node3</title>
<g id="a_node3"><a xlink:href="classprior__hessian_1_1UpperTruncatedDist.html#a047a08465860a8f2aea2af28760df905" target="_top" xlink:title="prior_hessian::UpperTruncated\lDist::ubound">
<polygon fill="white" stroke="black" points="180,-0.5 180,-28.5 324,-28.5 324,-0.5 180,-0.5"/>
<text text-anchor="start" x="188" y="-17.3" font-family="Helvetica,sans-Serif" font-size="9.00">prior_hessian::UpperTruncated</text>
<text text-anchor="middle" x="252" y="-7.3" font-family="Helvetica,sans-Serif" font-size="9.00">Dist::ubound</text>
</a>
</g>
</g>
<!-- Node1&#45;&gt;Node3 -->
<g id="edge2" class="edge"><title>Node1&#45;&gt;Node3</title>
<path fill="none" stroke="midnightblue" d="M144.118,-28.3106C152.609,-27.2134 161.327,-26.087 169.944,-24.9735"/>
<polygon fill="midnightblue" stroke="midnightblue" points="170.526,-28.4275 179.995,-23.6748 169.629,-21.4852 170.526,-28.4275"/>
</g>
</g>
</svg>
