<?xml version="1.0" encoding="UTF-8" standalone="no"?>
<!DOCTYPE svg PUBLIC "-//W3C//DTD SVG 1.1//EN"
 "http://www.w3.org/Graphics/SVG/1.1/DTD/svg11.dtd">
<!-- Generated by graphviz version 2.38.0 (20140413.2041)
 -->
<!-- Title: prior_hessian::MultivariateNormalDist::check_params Pages: 1 -->
<svg width="296pt" height="131pt"
 viewBox="0.00 0.00 296.00 131.00" xmlns="http://www.w3.org/2000/svg" xmlns:xlink="http://www.w3.org/1999/xlink">
<g id="graph0" class="graph" transform="scale(1 1) rotate(0) translate(4 127)">
<title>prior_hessian::MultivariateNormalDist::check_params</title>
<polygon fill="white" stroke="none" points="-4,4 -4,-127 292,-127 292,4 -4,4"/>
<!-- Node1 -->
<g id="node1" class="node"><title>Node1</title>
<polygon fill="#bfbfbf" stroke="black" points="0,-47.5 0,-75.5 127,-75.5 127,-47.5 0,-47.5"/>
<text text-anchor="start" x="8" y="-64.3" font-family="Helvetica,sans-Serif" font-size="9.00">prior_hessian::Multivariate</text>
<text text-anchor="middle" x="63.5" y="-54.3" font-family="Helvetica,sans-Serif" font-size="9.00">NormalDist::check_params</text>
</g>
<!-- Node2 -->
<g id="node2" class="node"><title>Node2</title>
<g id="a_node2"><a xlink:href="classprior__hessian_1_1MultivariateNormalDist.html#af202c613f03a8d07d9ab80ead9f4064b" target="_top" xlink:title="prior_hessian::Multivariate\lNormalDist::check_mu">
<polygon fill="white" stroke="black" points="163,-94.5 163,-122.5 288,-122.5 288,-94.5 163,-94.5"/>
<text text-anchor="start" x="171" y="-111.3" font-family="Helvetica,sans-Serif" font-size="9.00">prior_hessian::Multivariate</text>
<text text-anchor="middle" x="225.5" y="-101.3" font-family="Helvetica,sans-Serif" font-size="9.00">NormalDist::check_mu</text>
</a>
</g>
</g>
<!-- Node1&#45;&gt;Node2 -->
<g id="edge1" class="edge"><title>Node1&#45;&gt;Node2</title>
<path fill="none" stroke="midnightblue" d="M112.505,-75.6015C129.67,-80.6435 149.186,-86.3766 167.065,-91.6286"/>
<polygon fill="midnightblue" stroke="midnightblue" points="166.223,-95.0291 176.804,-94.4894 168.196,-88.3128 166.223,-95.0291"/>
</g>
<!-- Node3 -->
<g id="node3" class="node"><title>Node3</title>
<g id="a_node3"><a xlink:href="classprior__hessian_1_1MultivariateNormalDist.html#ad0117306c61bf5b4615d40113dc27c83" target="_top" xlink:title="prior_hessian::Multivariate\lNormalDist::check_sigma">
<polygon fill="white" stroke="black" points="163,-47.5 163,-75.5 288,-75.5 288,-47.5 163,-47.5"/>
<text text-anchor="start" x="171" y="-64.3" font-family="Helvetica,sans-Serif" font-size="9.00">prior_hessian::Multivariate</text>
<text text-anchor="middle" x="225.5" y="-54.3" font-family="Helvetica,sans-Serif" font-size="9.00">NormalDist::check_sigma</text>
</a>
</g>
</g>
<!-- Node1&#45;&gt;Node3 -->
<g id="edge2" class="edge"><title>Node1&#45;&gt;Node3</title>
<path fill="none" stroke="midnightblue" d="M127.277,-61.5C135.617,-61.5 144.22,-61.5 152.698,-61.5"/>
<polygon fill="midnightblue" stroke="midnightblue" points="152.953,-65.0001 162.953,-61.5 152.953,-58.0001 152.953,-65.0001"/>
</g>
<!-- Node4 -->
<g id="node4" class="node"><title>Node4</title>
<g id="a_node4"><a xlink:href="classprior__hessian_1_1MultivariateNormalDist.html#a9a2d3e50448adb594ed60a92d2942943" target="_top" xlink:title="prior_hessian::Multivariate\lNormalDist::num_params">
<polygon fill="white" stroke="black" points="163,-0.5 163,-28.5 288,-28.5 288,-0.5 163,-0.5"/>
<text text-anchor="start" x="171" y="-17.3" font-family="Helvetica,sans-Serif" font-size="9.00">prior_hessian::Multivariate</text>
<text text-anchor="middle" x="225.5" y="-7.3" font-family="Helvetica,sans-Serif" font-size="9.00">NormalDist::num_params</text>
</a>
</g>
</g>
<!-- Node1&#45;&gt;Node4 -->
<g id="edge3" class="edge"><title>Node1&#45;&gt;Node4</title>
<path fill="none" stroke="midnightblue" d="M112.505,-47.3985C129.67,-42.3565 149.186,-36.6234 167.065,-31.3714"/>
<polygon fill="midnightblue" stroke="midnightblue" points="168.196,-34.6872 176.804,-28.5106 166.223,-27.9709 168.196,-34.6872"/>
</g>
</g>
</svg>
