<?xml version="1.0" encoding="UTF-8" standalone="no"?>
<!DOCTYPE svg PUBLIC "-//W3C//DTD SVG 1.1//EN"
 "http://www.w3.org/Graphics/SVG/1.1/DTD/svg11.dtd">
<!-- Generated by graphviz version 2.38.0 (20140413.2041)
 -->
<!-- Title: prior_hessian::CompositeDist::ComponentDistAdaptor&lt; Dist, meta::EnableIfSubclassT&lt; Dist, MultivariateDist &gt; &gt;::append_param_names Pages: 1 -->
<svg width="494pt" height="178pt"
 viewBox="0.00 0.00 494.00 178.00" xmlns="http://www.w3.org/2000/svg" xmlns:xlink="http://www.w3.org/1999/xlink">
<g id="graph0" class="graph" transform="scale(1 1) rotate(0) translate(4 174)">
<title>prior_hessian::CompositeDist::ComponentDistAdaptor&lt; Dist, meta::EnableIfSubclassT&lt; Dist, MultivariateDist &gt; &gt;::append_param_names</title>
<polygon fill="white" stroke="none" points="-4,4 -4,-174 490,-174 490,4 -4,4"/>
<!-- Node1 -->
<g id="node1" class="node"><title>Node1</title>
<polygon fill="#bfbfbf" stroke="black" points="0,-55.5 0,-113.5 146,-113.5 146,-55.5 0,-55.5"/>
<text text-anchor="start" x="8" y="-102.3" font-family="Helvetica,sans-Serif" font-size="9.00">prior_hessian::Composite</text>
<text text-anchor="start" x="8" y="-92.3" font-family="Helvetica,sans-Serif" font-size="9.00">Dist::ComponentDistAdaptor</text>
<text text-anchor="start" x="8" y="-82.3" font-family="Helvetica,sans-Serif" font-size="9.00">&lt; Dist, meta::EnableIfSubclassT</text>
<text text-anchor="start" x="8" y="-72.3" font-family="Helvetica,sans-Serif" font-size="9.00">&lt; Dist, MultivariateDist &gt; &gt;</text>
<text text-anchor="middle" x="73" y="-62.3" font-family="Helvetica,sans-Serif" font-size="9.00">::append_param_names</text>
</g>
<!-- Node2 -->
<g id="node2" class="node"><title>Node2</title>
<g id="a_node2"><a xlink:href="classprior__hessian_1_1CompositeDist.html#ae7ca30fd19fb59ebe241873443b9faed" target="_top" xlink:title="prior_hessian::Composite\lDist::param_names">
<polygon fill="white" stroke="black" points="182,-70.5 182,-98.5 304,-98.5 304,-70.5 182,-70.5"/>
<text text-anchor="start" x="190" y="-87.3" font-family="Helvetica,sans-Serif" font-size="9.00">prior_hessian::Composite</text>
<text text-anchor="middle" x="243" y="-77.3" font-family="Helvetica,sans-Serif" font-size="9.00">Dist::param_names</text>
</a>
</g>
</g>
<!-- Node1&#45;&gt;Node2 -->
<g id="edge1" class="edge"><title>Node1&#45;&gt;Node2</title>
<path fill="none" stroke="midnightblue" d="M146.222,-84.5C154.694,-84.5 163.33,-84.5 171.774,-84.5"/>
<polygon fill="midnightblue" stroke="midnightblue" points="171.956,-88.0001 181.956,-84.5 171.956,-81.0001 171.956,-88.0001"/>
</g>
<!-- Node3 -->
<g id="node3" class="node"><title>Node3</title>
<g id="a_node3"><a xlink:href="classprior__hessian_1_1CompositeDist.html#a5f59bcbe24d659084fbe3dc188011779" target="_top" xlink:title="prior_hessian::Composite\lDist::component_names">
<polygon fill="white" stroke="black" points="352,-141.5 352,-169.5 474,-169.5 474,-141.5 352,-141.5"/>
<text text-anchor="start" x="360" y="-158.3" font-family="Helvetica,sans-Serif" font-size="9.00">prior_hessian::Composite</text>
<text text-anchor="middle" x="413" y="-148.3" font-family="Helvetica,sans-Serif" font-size="9.00">Dist::component_names</text>
</a>
</g>
</g>
<!-- Node2&#45;&gt;Node3 -->
<g id="edge2" class="edge"><title>Node2&#45;&gt;Node3</title>
<path fill="none" stroke="midnightblue" d="M269.576,-98.6456C288.635,-108.85 315.491,-122.528 340,-132.5 344.74,-134.429 349.707,-136.304 354.722,-138.096"/>
<polygon fill="midnightblue" stroke="midnightblue" points="353.782,-141.475 364.377,-141.435 356.07,-134.859 353.782,-141.475"/>
</g>
<!-- Node4 -->
<g id="node4" class="node"><title>Node4</title>
<g id="a_node4"><a xlink:href="classprior__hessian_1_1CompositeDist.html#a6faf6fbb059017af5756d4327bb504bc" target="_top" xlink:title="prior_hessian::Composite\lDist::num_components">
<polygon fill="white" stroke="black" points="352,-94.5 352,-122.5 474,-122.5 474,-94.5 352,-94.5"/>
<text text-anchor="start" x="360" y="-111.3" font-family="Helvetica,sans-Serif" font-size="9.00">prior_hessian::Composite</text>
<text text-anchor="middle" x="413" y="-101.3" font-family="Helvetica,sans-Serif" font-size="9.00">Dist::num_components</text>
</a>
</g>
</g>
<!-- Node2&#45;&gt;Node4 -->
<g id="edge3" class="edge"><title>Node2&#45;&gt;Node4</title>
<path fill="none" stroke="midnightblue" d="M304.177,-93.0968C316.435,-94.8479 329.431,-96.7045 341.997,-98.4996"/>
<polygon fill="midnightblue" stroke="midnightblue" points="341.566,-101.973 351.961,-99.9229 342.556,-95.0438 341.566,-101.973"/>
</g>
<!-- Node5 -->
<g id="node5" class="node"><title>Node5</title>
<g id="a_node5"><a xlink:href="classprior__hessian_1_1CompositeDist.html#ad532e3fe9e7293fef7b293d3c94a1ddc" target="_top" xlink:title="prior_hessian::Composite\lDist::num_dim">
<polygon fill="white" stroke="black" points="352,-47.5 352,-75.5 474,-75.5 474,-47.5 352,-47.5"/>
<text text-anchor="start" x="360" y="-64.3" font-family="Helvetica,sans-Serif" font-size="9.00">prior_hessian::Composite</text>
<text text-anchor="middle" x="413" y="-54.3" font-family="Helvetica,sans-Serif" font-size="9.00">Dist::num_dim</text>
</a>
</g>
</g>
<!-- Node2&#45;&gt;Node5 -->
<g id="edge4" class="edge"><title>Node2&#45;&gt;Node5</title>
<path fill="none" stroke="midnightblue" d="M304.177,-76.2614C316.435,-74.5832 329.431,-72.804 341.997,-71.0837"/>
<polygon fill="midnightblue" stroke="midnightblue" points="342.528,-74.5438 351.961,-69.7197 341.578,-67.6085 342.528,-74.5438"/>
</g>
<!-- Node6 -->
<g id="node6" class="node"><title>Node6</title>
<g id="a_node6"><a xlink:href="classprior__hessian_1_1CompositeDist.html#a389c0e5459eeacc5f35afdf14d6a38d7" target="_top" xlink:title="prior_hessian::Composite\lDist::num_params_components">
<polygon fill="white" stroke="black" points="340,-0.5 340,-28.5 486,-28.5 486,-0.5 340,-0.5"/>
<text text-anchor="start" x="348" y="-17.3" font-family="Helvetica,sans-Serif" font-size="9.00">prior_hessian::Composite</text>
<text text-anchor="middle" x="413" y="-7.3" font-family="Helvetica,sans-Serif" font-size="9.00">Dist::num_params_components</text>
</a>
</g>
</g>
<!-- Node2&#45;&gt;Node6 -->
<g id="edge5" class="edge"><title>Node2&#45;&gt;Node6</title>
<path fill="none" stroke="midnightblue" d="M270.904,-70.4926C289.929,-60.8648 316.185,-48.131 340,-38.5 345.478,-36.2848 351.246,-34.1092 357.034,-32.0274"/>
<polygon fill="midnightblue" stroke="midnightblue" points="358.469,-35.2334 366.747,-28.6219 356.152,-28.6277 358.469,-35.2334"/>
</g>
</g>
</svg>
