<?xml version="1.0" encoding="UTF-8" standalone="no"?>
<!DOCTYPE svg PUBLIC "-//W3C//DTD SVG 1.1//EN"
 "http://www.w3.org/Graphics/SVG/1.1/DTD/svg11.dtd">
<!-- Generated by graphviz version 2.38.0 (20140413.2041)
 -->
<!-- Title: prior_hessian::CompositeDist::num_params Pages: 1 -->
<svg width="763pt" height="80pt"
 viewBox="0.00 0.00 763.00 80.00" xmlns="http://www.w3.org/2000/svg" xmlns:xlink="http://www.w3.org/1999/xlink">
<g id="graph0" class="graph" transform="scale(1 1) rotate(0) translate(4 76)">
<title>prior_hessian::CompositeDist::num_params</title>
<polygon fill="white" stroke="none" points="-4,4 -4,-76 759,-76 759,4 -4,4"/>
<!-- Node1 -->
<g id="node1" class="node"><title>Node1</title>
<polygon fill="#bfbfbf" stroke="black" points="0,-0.5 0,-28.5 122,-28.5 122,-0.5 0,-0.5"/>
<text text-anchor="start" x="8" y="-17.3" font-family="Helvetica,sans-Serif" font-size="9.00">prior_hessian::Composite</text>
<text text-anchor="middle" x="61" y="-7.3" font-family="Helvetica,sans-Serif" font-size="9.00">Dist::num_params</text>
</g>
<!-- Node2 -->
<g id="node2" class="node"><title>Node2</title>
<g id="a_node2"><a xlink:href="namespaceprior__hessian.html#ab26e9ddc3b6a5caccf5d75e1a1e1af1b" target="_top" xlink:title="prior_hessian::operator\&lt;\&lt;">
<polygon fill="white" stroke="black" points="158,-43.5 158,-61.5 280,-61.5 280,-43.5 158,-43.5"/>
<text text-anchor="middle" x="219" y="-50.3" font-family="Helvetica,sans-Serif" font-size="9.00">prior_hessian::operator&lt;&lt;</text>
</a>
</g>
</g>
<!-- Node1&#45;&gt;Node2 -->
<g id="edge1" class="edge"><title>Node1&#45;&gt;Node2</title>
<path fill="none" stroke="midnightblue" d="M129.371,-30.9108C147.057,-35.2189 165.486,-39.708 180.928,-43.4697"/>
<polygon fill="midnightblue" stroke="midnightblue" points="130.19,-27.508 119.645,-28.5418 128.533,-34.3092 130.19,-27.508"/>
</g>
<!-- Node3 -->
<g id="node3" class="node"><title>Node3</title>
<g id="a_node3"><a xlink:href="classprior__hessian_1_1CompositeDist.html#a38c4fdacf927824117d202422b04013c" target="_top" xlink:title="prior_hessian::Composite\lDist::set_param_names">
<polygon fill="white" stroke="black" points="316,-21.5 316,-49.5 438,-49.5 438,-21.5 316,-21.5"/>
<text text-anchor="start" x="324" y="-38.3" font-family="Helvetica,sans-Serif" font-size="9.00">prior_hessian::Composite</text>
<text text-anchor="middle" x="377" y="-28.3" font-family="Helvetica,sans-Serif" font-size="9.00">Dist::set_param_names</text>
</a>
</g>
</g>
<!-- Node1&#45;&gt;Node3 -->
<g id="edge7" class="edge"><title>Node1&#45;&gt;Node3</title>
<path fill="none" stroke="midnightblue" d="M132.216,-19.196C187.37,-22.8846 263.358,-27.9666 315.766,-31.4716"/>
<polygon fill="midnightblue" stroke="midnightblue" points="132.382,-15.6994 122.171,-18.5242 131.915,-22.6838 132.382,-15.6994"/>
</g>
<!-- Node5 -->
<g id="node5" class="node"><title>Node5</title>
<g id="a_node5"><a xlink:href="classprior__hessian_1_1CompositeDist.html#a24bac25ae8c0330b8a3aacadffc9d5ae" target="_top" xlink:title="prior_hessian::Composite\lDist::rllh_components">
<polygon fill="white" stroke="black" points="633,-0.5 633,-28.5 755,-28.5 755,-0.5 633,-0.5"/>
<text text-anchor="start" x="641" y="-17.3" font-family="Helvetica,sans-Serif" font-size="9.00">prior_hessian::Composite</text>
<text text-anchor="middle" x="694" y="-7.3" font-family="Helvetica,sans-Serif" font-size="9.00">Dist::rllh_components</text>
</a>
</g>
</g>
<!-- Node1&#45;&gt;Node5 -->
<g id="edge6" class="edge"><title>Node1&#45;&gt;Node5</title>
<path fill="none" stroke="midnightblue" d="M132.294,-13.798C183.284,-13.325 253.91,-12.7444 316,-12.5 370.222,-12.2865 383.778,-12.2874 438,-12.5 504.74,-12.7617 581.303,-13.4087 632.977,-13.8965"/>
<polygon fill="midnightblue" stroke="midnightblue" points="132.011,-10.3004 122.044,-13.8941 132.076,-17.3001 132.011,-10.3004"/>
</g>
<!-- Node2&#45;&gt;Node3 -->
<g id="edge2" class="edge"><title>Node2&#45;&gt;Node3</title>
<path fill="none" stroke="midnightblue" d="M290.259,-44.8435C298.802,-43.9126 307.469,-42.9681 315.847,-42.0552"/>
<polygon fill="midnightblue" stroke="midnightblue" points="289.876,-41.3645 280.314,-45.9274 290.634,-48.3233 289.876,-41.3645"/>
</g>
<!-- Node4 -->
<g id="node4" class="node"><title>Node4</title>
<g id="a_node4"><a xlink:href="classprior__hessian_1_1CompositeDist.html#a927fed39b2b4e87714c728d6e7b11e8b" target="_top" xlink:title="prior_hessian::Composite\lDist::params_components">
<polygon fill="white" stroke="black" points="474,-43.5 474,-71.5 597,-71.5 597,-43.5 474,-43.5"/>
<text text-anchor="start" x="482" y="-60.3" font-family="Helvetica,sans-Serif" font-size="9.00">prior_hessian::Composite</text>
<text text-anchor="middle" x="535.5" y="-50.3" font-family="Helvetica,sans-Serif" font-size="9.00">Dist::params_components</text>
</a>
</g>
</g>
<!-- Node3&#45;&gt;Node4 -->
<g id="edge3" class="edge"><title>Node3&#45;&gt;Node4</title>
<path fill="none" stroke="midnightblue" d="M448.062,-45.349C456.657,-46.5572 465.385,-47.7841 473.825,-48.9706"/>
<polygon fill="midnightblue" stroke="midnightblue" points="448.449,-41.8691 438.059,-43.9429 447.475,-48.8009 448.449,-41.8691"/>
</g>
<!-- Node3&#45;&gt;Node5 -->
<g id="edge5" class="edge"><title>Node3&#45;&gt;Node5</title>
<path fill="none" stroke="midnightblue" d="M448.457,-30.8029C503.879,-27.1081 580.264,-22.0157 632.842,-18.5105"/>
<polygon fill="midnightblue" stroke="midnightblue" points="448.107,-27.3183 438.362,-31.4758 448.573,-34.3028 448.107,-27.3183"/>
</g>
<!-- Node4&#45;&gt;Node5 -->
<g id="edge4" class="edge"><title>Node4&#45;&gt;Node5</title>
<path fill="none" stroke="midnightblue" d="M597.709,-40.6822C612.334,-36.6638 627.794,-32.416 641.908,-28.538"/>
<polygon fill="midnightblue" stroke="midnightblue" points="596.459,-37.3958 587.744,-43.4202 598.314,-44.1456 596.459,-37.3958"/>
</g>
</g>
</svg>
