<?xml version="1.0" encoding="UTF-8" standalone="no"?>
<!DOCTYPE svg PUBLIC "-//W3C//DTD SVG 1.1//EN"
 "http://www.w3.org/Graphics/SVG/1.1/DTD/svg11.dtd">
<!-- Generated by graphviz version 2.38.0 (20140413.2041)
 -->
<!-- Title: prior_hessian::CompositeDist::set_dim_variables Pages: 1 -->
<svg width="1088pt" height="142pt"
 viewBox="0.00 0.00 1088.00 141.50" xmlns="http://www.w3.org/2000/svg" xmlns:xlink="http://www.w3.org/1999/xlink">
<g id="graph0" class="graph" transform="scale(1 1) rotate(0) translate(4 137.5)">
<title>prior_hessian::CompositeDist::set_dim_variables</title>
<polygon fill="white" stroke="none" points="-4,4 -4,-137.5 1084,-137.5 1084,4 -4,4"/>
<!-- Node1 -->
<g id="node1" class="node"><title>Node1</title>
<polygon fill="#bfbfbf" stroke="black" points="0,-10 0,-38 122,-38 122,-10 0,-10"/>
<text text-anchor="start" x="8" y="-26.8" font-family="Helvetica,sans-Serif" font-size="9.00">prior_hessian::Composite</text>
<text text-anchor="middle" x="61" y="-16.8" font-family="Helvetica,sans-Serif" font-size="9.00">Dist::set_dim_variables</text>
</g>
<!-- Node2 -->
<g id="node2" class="node"><title>Node2</title>
<g id="a_node2"><a xlink:href="classprior__hessian_1_1CompositeDist.html#ab33784dcc2971ebaae40e6138bd1e4c2" target="_top" xlink:title="prior_hessian::Composite\lDist::num_dim_components">
<polygon fill="white" stroke="black" points="158,-10 158,-38 289,-38 289,-10 158,-10"/>
<text text-anchor="start" x="166" y="-26.8" font-family="Helvetica,sans-Serif" font-size="9.00">prior_hessian::Composite</text>
<text text-anchor="middle" x="223.5" y="-16.8" font-family="Helvetica,sans-Serif" font-size="9.00">Dist::num_dim_components</text>
</a>
</g>
</g>
<!-- Node1&#45;&gt;Node2 -->
<g id="edge1" class="edge"><title>Node1&#45;&gt;Node2</title>
<path fill="none" stroke="midnightblue" d="M132.451,-24C140.919,-24 149.534,-24 157.913,-24"/>
<polygon fill="midnightblue" stroke="midnightblue" points="132.221,-20.5001 122.221,-24 132.221,-27.5001 132.221,-20.5001"/>
</g>
<!-- Node3 -->
<g id="node3" class="node"><title>Node3</title>
<g id="a_node3"><a xlink:href="namespaceprior__hessian.html#ab26e9ddc3b6a5caccf5d75e1a1e1af1b" target="_top" xlink:title="prior_hessian::operator\&lt;\&lt;">
<polygon fill="white" stroke="black" points="325,-39 325,-57 447,-57 447,-39 325,-39"/>
<text text-anchor="middle" x="386" y="-45.8" font-family="Helvetica,sans-Serif" font-size="9.00">prior_hessian::operator&lt;&lt;</text>
</a>
</g>
</g>
<!-- Node2&#45;&gt;Node3 -->
<g id="edge2" class="edge"><title>Node2&#45;&gt;Node3</title>
<path fill="none" stroke="midnightblue" d="M299.314,-35.1871C307.881,-36.4682 316.531,-37.7616 324.871,-39.0087"/>
<polygon fill="midnightblue" stroke="midnightblue" points="299.727,-31.71 289.319,-33.6925 298.691,-38.633 299.727,-31.71"/>
</g>
<!-- Node7 -->
<g id="node7" class="node"><title>Node7</title>
<g id="a_node7"><a xlink:href="classprior__hessian_1_1CompositeDist.html#a24bac25ae8c0330b8a3aacadffc9d5ae" target="_top" xlink:title="prior_hessian::Composite\lDist::rllh_components">
<polygon fill="white" stroke="black" points="958,-24 958,-52 1080,-52 1080,-24 958,-24"/>
<text text-anchor="start" x="966" y="-40.8" font-family="Helvetica,sans-Serif" font-size="9.00">prior_hessian::Composite</text>
<text text-anchor="middle" x="1019" y="-30.8" font-family="Helvetica,sans-Serif" font-size="9.00">Dist::rllh_components</text>
</a>
</g>
</g>
<!-- Node2&#45;&gt;Node7 -->
<g id="edge9" class="edge"><title>Node2&#45;&gt;Node7</title>
<path fill="none" stroke="midnightblue" d="M299.126,-15.1895C363.596,-8.34177 459.309,-0 543,-0 543,-0 543,-0 703,-0 792.236,-1.42109e-14 894.675,-15.2172 957.872,-26.3923"/>
<polygon fill="midnightblue" stroke="midnightblue" points="298.621,-11.7235 289.054,-16.2741 299.371,-18.6832 298.621,-11.7235"/>
</g>
<!-- Node4 -->
<g id="node4" class="node"><title>Node4</title>
<g id="a_node4"><a xlink:href="classprior__hessian_1_1CompositeDist.html#a38c4fdacf927824117d202422b04013c" target="_top" xlink:title="prior_hessian::Composite\lDist::set_param_names">
<polygon fill="white" stroke="black" points="483,-45 483,-73 605,-73 605,-45 483,-45"/>
<text text-anchor="start" x="491" y="-61.8" font-family="Helvetica,sans-Serif" font-size="9.00">prior_hessian::Composite</text>
<text text-anchor="middle" x="544" y="-51.8" font-family="Helvetica,sans-Serif" font-size="9.00">Dist::set_param_names</text>
</a>
</g>
</g>
<!-- Node3&#45;&gt;Node4 -->
<g id="edge3" class="edge"><title>Node3&#45;&gt;Node4</title>
<path fill="none" stroke="midnightblue" d="M457.538,-52.9738C465.99,-53.5698 474.56,-54.1741 482.847,-54.7584"/>
<polygon fill="midnightblue" stroke="midnightblue" points="457.535,-49.465 447.314,-52.2529 457.043,-56.4477 457.535,-49.465"/>
</g>
<!-- Node5 -->
<g id="node5" class="node"><title>Node5</title>
<g id="a_node5"><a xlink:href="classprior__hessian_1_1CompositeDist.html#ace0aaa3698d76aba6a47f9061ff98902" target="_top" xlink:title="prior_hessian::Composite\lDist::rename_param">
<polygon fill="white" stroke="black" points="641,-105 641,-133 763,-133 763,-105 641,-105"/>
<text text-anchor="start" x="649" y="-121.8" font-family="Helvetica,sans-Serif" font-size="9.00">prior_hessian::Composite</text>
<text text-anchor="middle" x="702" y="-111.8" font-family="Helvetica,sans-Serif" font-size="9.00">Dist::rename_param</text>
</a>
</g>
</g>
<!-- Node4&#45;&gt;Node5 -->
<g id="edge4" class="edge"><title>Node4&#45;&gt;Node5</title>
<path fill="none" stroke="midnightblue" d="M590.959,-76.6767C614.374,-85.6824 642.452,-96.4814 664.384,-104.917"/>
<polygon fill="midnightblue" stroke="midnightblue" points="592.165,-73.3905 581.575,-73.0673 589.652,-79.9239 592.165,-73.3905"/>
</g>
<!-- Node6 -->
<g id="node6" class="node"><title>Node6</title>
<g id="a_node6"><a xlink:href="classprior__hessian_1_1CompositeDist.html#a927fed39b2b4e87714c728d6e7b11e8b" target="_top" xlink:title="prior_hessian::Composite\lDist::params_components">
<polygon fill="white" stroke="black" points="799,-67 799,-95 922,-95 922,-67 799,-67"/>
<text text-anchor="start" x="807" y="-83.8" font-family="Helvetica,sans-Serif" font-size="9.00">prior_hessian::Composite</text>
<text text-anchor="middle" x="860.5" y="-73.8" font-family="Helvetica,sans-Serif" font-size="9.00">Dist::params_components</text>
</a>
</g>
</g>
<!-- Node4&#45;&gt;Node6 -->
<g id="edge7" class="edge"><title>Node4&#45;&gt;Node6</title>
<path fill="none" stroke="midnightblue" d="M615.312,-63.9185C670.461,-67.7763 746.415,-73.0895 798.902,-76.761"/>
<polygon fill="midnightblue" stroke="midnightblue" points="615.487,-60.4222 605.267,-63.2158 614.998,-67.4052 615.487,-60.4222"/>
</g>
<!-- Node4&#45;&gt;Node7 -->
<g id="edge8" class="edge"><title>Node4&#45;&gt;Node7</title>
<path fill="none" stroke="midnightblue" d="M615.546,-55.8679C708.542,-51.7391 870.558,-44.5461 957.973,-40.665"/>
<polygon fill="midnightblue" stroke="midnightblue" points="615.221,-52.3788 605.386,-56.319 615.532,-59.3719 615.221,-52.3788"/>
</g>
<!-- Node5&#45;&gt;Node6 -->
<g id="edge5" class="edge"><title>Node5&#45;&gt;Node6</title>
<path fill="none" stroke="midnightblue" d="M770.635,-102.577C780.967,-100.069 791.55,-97.499 801.646,-95.0475"/>
<polygon fill="midnightblue" stroke="midnightblue" points="769.722,-99.1974 760.83,-104.958 771.374,-106 769.722,-99.1974"/>
</g>
<!-- Node6&#45;&gt;Node7 -->
<g id="edge6" class="edge"><title>Node6&#45;&gt;Node7</title>
<path fill="none" stroke="midnightblue" d="M922.709,-64.1822C937.334,-60.1638 952.794,-55.916 966.908,-52.038"/>
<polygon fill="midnightblue" stroke="midnightblue" points="921.459,-60.8958 912.744,-66.9202 923.314,-67.6456 921.459,-60.8958"/>
</g>
</g>
</svg>
