<?xml version="1.0" encoding="UTF-8" standalone="no"?>
<!DOCTYPE svg PUBLIC "-//W3C//DTD SVG 1.1//EN"
 "http://www.w3.org/Graphics/SVG/1.1/DTD/svg11.dtd">
<!-- Generated by graphviz version 2.38.0 (20140413.2041)
 -->
<!-- Title: prior_hessian::SymmetricBetaDist::operator!= Pages: 1 -->
<svg width="752pt" height="123pt"
 viewBox="0.00 0.00 752.00 123.00" xmlns="http://www.w3.org/2000/svg" xmlns:xlink="http://www.w3.org/1999/xlink">
<g id="graph0" class="graph" transform="scale(1 1) rotate(0) translate(4 119)">
<title>prior_hessian::SymmetricBetaDist::operator!=</title>
<polygon fill="white" stroke="none" points="-4,4 -4,-119 748,-119 748,4 -4,4"/>
<!-- Node1 -->
<g id="node1" class="node"><title>Node1</title>
<polygon fill="#bfbfbf" stroke="black" points="0,-43.5 0,-71.5 120,-71.5 120,-43.5 0,-43.5"/>
<text text-anchor="start" x="8" y="-60.3" font-family="Helvetica,sans-Serif" font-size="9.00">prior_hessian::Symmetric</text>
<text text-anchor="middle" x="60" y="-50.3" font-family="Helvetica,sans-Serif" font-size="9.00">BetaDist::operator!=</text>
</g>
<!-- Node2 -->
<g id="node2" class="node"><title>Node2</title>
<g id="a_node2"><a xlink:href="classprior__hessian_1_1SymmetricBetaDist.html#ad4d4bd09ccdf88bb70a66064fc3a9a9d" target="_top" xlink:title="prior_hessian::Symmetric\lBetaDist::operator==">
<polygon fill="white" stroke="black" points="156,-43.5 156,-71.5 276,-71.5 276,-43.5 156,-43.5"/>
<text text-anchor="start" x="164" y="-60.3" font-family="Helvetica,sans-Serif" font-size="9.00">prior_hessian::Symmetric</text>
<text text-anchor="middle" x="216" y="-50.3" font-family="Helvetica,sans-Serif" font-size="9.00">BetaDist::operator==</text>
</a>
</g>
</g>
<!-- Node1&#45;&gt;Node2 -->
<g id="edge1" class="edge"><title>Node1&#45;&gt;Node2</title>
<path fill="none" stroke="midnightblue" d="M120.1,-57.5C128.422,-57.5 137.039,-57.5 145.533,-57.5"/>
<polygon fill="midnightblue" stroke="midnightblue" points="145.804,-61.0001 155.804,-57.5 145.804,-54.0001 145.804,-61.0001"/>
</g>
<!-- Node3 -->
<g id="node3" class="node"><title>Node3</title>
<g id="a_node3"><a xlink:href="classprior__hessian_1_1SymmetricBetaDist.html#a1e726eb12d98240778d7c0bfaafc7edd" target="_top" xlink:title="prior_hessian::Symmetric\lBetaDist::beta">
<polygon fill="white" stroke="black" points="312,-43.5 312,-71.5 432,-71.5 432,-43.5 312,-43.5"/>
<text text-anchor="start" x="320" y="-60.3" font-family="Helvetica,sans-Serif" font-size="9.00">prior_hessian::Symmetric</text>
<text text-anchor="middle" x="372" y="-50.3" font-family="Helvetica,sans-Serif" font-size="9.00">BetaDist::beta</text>
</a>
</g>
</g>
<!-- Node2&#45;&gt;Node3 -->
<g id="edge2" class="edge"><title>Node2&#45;&gt;Node3</title>
<path fill="none" stroke="midnightblue" d="M276.1,-57.5C284.422,-57.5 293.039,-57.5 301.533,-57.5"/>
<polygon fill="midnightblue" stroke="midnightblue" points="301.804,-61.0001 311.804,-57.5 301.804,-54.0001 301.804,-61.0001"/>
</g>
<!-- Node4 -->
<g id="node4" class="node"><title>Node4</title>
<g id="a_node4"><a xlink:href="classprior__hessian_1_1SymmetricBetaDist.html#a286000c0198e921b56821c4552afdaa4" target="_top" xlink:title="prior_hessian::Symmetric\lBetaDist::get_param">
<polygon fill="white" stroke="black" points="468,-86.5 468,-114.5 588,-114.5 588,-86.5 468,-86.5"/>
<text text-anchor="start" x="476" y="-103.3" font-family="Helvetica,sans-Serif" font-size="9.00">prior_hessian::Symmetric</text>
<text text-anchor="middle" x="528" y="-93.3" font-family="Helvetica,sans-Serif" font-size="9.00">BetaDist::get_param</text>
</a>
</g>
</g>
<!-- Node3&#45;&gt;Node4 -->
<g id="edge3" class="edge"><title>Node3&#45;&gt;Node4</title>
<path fill="none" stroke="midnightblue" d="M423.425,-71.5798C437.324,-75.4605 452.538,-79.7088 466.924,-83.7255"/>
<polygon fill="midnightblue" stroke="midnightblue" points="466.152,-87.1437 476.724,-86.462 468.034,-80.4016 466.152,-87.1437"/>
</g>
<!-- Node5 -->
<g id="node5" class="node"><title>Node5</title>
<g id="a_node5"><a xlink:href="classprior__hessian_1_1SymmetricBetaDist.html#a45a39dc6a12ec1af15a1701023101f1f" target="_top" xlink:title="prior_hessian::Symmetric\lBetaDist::set_beta">
<polygon fill="white" stroke="black" points="624,-21.5 624,-49.5 744,-49.5 744,-21.5 624,-21.5"/>
<text text-anchor="start" x="632" y="-38.3" font-family="Helvetica,sans-Serif" font-size="9.00">prior_hessian::Symmetric</text>
<text text-anchor="middle" x="684" y="-28.3" font-family="Helvetica,sans-Serif" font-size="9.00">BetaDist::set_beta</text>
</a>
</g>
</g>
<!-- Node3&#45;&gt;Node5 -->
<g id="edge4" class="edge"><title>Node3&#45;&gt;Node5</title>
<path fill="none" stroke="midnightblue" d="M432.038,-53.3102C483.777,-49.6384 559.033,-44.2977 613.631,-40.423"/>
<polygon fill="midnightblue" stroke="midnightblue" points="614.191,-43.8921 623.918,-39.6929 613.695,-36.9097 614.191,-43.8921"/>
</g>
<!-- Node6 -->
<g id="node6" class="node"><title>Node6</title>
<g id="a_node6"><a xlink:href="classprior__hessian_1_1SymmetricBetaDist.html#a5ea7086046d4558c83b2211503501fca" target="_top" xlink:title="prior_hessian::Symmetric\lBetaDist::set_param">
<polygon fill="white" stroke="black" points="468,-0.5 468,-28.5 588,-28.5 588,-0.5 468,-0.5"/>
<text text-anchor="start" x="476" y="-17.3" font-family="Helvetica,sans-Serif" font-size="9.00">prior_hessian::Symmetric</text>
<text text-anchor="middle" x="528" y="-7.3" font-family="Helvetica,sans-Serif" font-size="9.00">BetaDist::set_param</text>
</a>
</g>
</g>
<!-- Node3&#45;&gt;Node6 -->
<g id="edge5" class="edge"><title>Node3&#45;&gt;Node6</title>
<path fill="none" stroke="midnightblue" d="M423.425,-43.4202C437.324,-39.5395 452.538,-35.2912 466.924,-31.2745"/>
<polygon fill="midnightblue" stroke="midnightblue" points="468.034,-34.5984 476.724,-28.538 466.152,-27.8563 468.034,-34.5984"/>
</g>
<!-- Node6&#45;&gt;Node5 -->
<g id="edge6" class="edge"><title>Node6&#45;&gt;Node5</title>
<path fill="none" stroke="midnightblue" d="M588.1,-22.5591C596.513,-23.7064 605.228,-24.8948 613.813,-26.0654"/>
<polygon fill="midnightblue" stroke="midnightblue" points="613.422,-29.5445 623.804,-27.4278 614.368,-22.6087 613.422,-29.5445"/>
</g>
</g>
</svg>
