<?xml version="1.0" encoding="UTF-8" standalone="no"?>
<!DOCTYPE svg PUBLIC "-//W3C//DTD SVG 1.1//EN"
 "http://www.w3.org/Graphics/SVG/1.1/DTD/svg11.dtd">
<!-- Generated by graphviz version 2.38.0 (20140413.2041)
 -->
<!-- Title: prior_hessian::MultivariateNormalDist::rllh Pages: 1 -->
<svg width="616pt" height="72pt"
 viewBox="0.00 0.00 616.00 72.32" xmlns="http://www.w3.org/2000/svg" xmlns:xlink="http://www.w3.org/1999/xlink">
<g id="graph0" class="graph" transform="scale(1 1) rotate(0) translate(4 68.3155)">
<title>prior_hessian::MultivariateNormalDist::rllh</title>
<polygon fill="white" stroke="none" points="-4,4 -4,-68.3155 612,-68.3155 612,4 -4,4"/>
<!-- Node1 -->
<g id="node1" class="node"><title>Node1</title>
<polygon fill="#bfbfbf" stroke="black" points="0,-0.5 0,-28.5 125,-28.5 125,-0.5 0,-0.5"/>
<text text-anchor="start" x="8" y="-17.3" font-family="Helvetica,sans-Serif" font-size="9.00">prior_hessian::Multivariate</text>
<text text-anchor="middle" x="62.5" y="-7.3" font-family="Helvetica,sans-Serif" font-size="9.00">NormalDist::rllh</text>
</g>
<!-- Node2 -->
<g id="node2" class="node"><title>Node2</title>
<g id="a_node2"><a xlink:href="classprior__hessian_1_1MultivariateNormalDist.html#a3540b1bcafd58fe26de858c0a4aef3db" target="_top" xlink:title="prior_hessian::Multivariate\lNormalDist::llh">
<polygon fill="white" stroke="black" points="161,-22.5 161,-50.5 286,-50.5 286,-22.5 161,-22.5"/>
<text text-anchor="start" x="169" y="-39.3" font-family="Helvetica,sans-Serif" font-size="9.00">prior_hessian::Multivariate</text>
<text text-anchor="middle" x="223.5" y="-29.3" font-family="Helvetica,sans-Serif" font-size="9.00">NormalDist::llh</text>
</a>
</g>
</g>
<!-- Node1&#45;&gt;Node2 -->
<g id="edge1" class="edge"><title>Node1&#45;&gt;Node2</title>
<path fill="none" stroke="midnightblue" d="M135.592,-24.475C143.99,-25.637 152.499,-26.8143 160.74,-27.9546"/>
<polygon fill="midnightblue" stroke="midnightblue" points="135.814,-20.9725 125.429,-23.0688 134.855,-27.9064 135.814,-20.9725"/>
</g>
<!-- Node3 -->
<g id="node3" class="node"><title>Node3</title>
<g id="a_node3"><a xlink:href="classprior__hessian_1_1MultivariateNormalDist.html#afdec8e6a453a2c69e0d84833d6b3e5ae" target="_top" xlink:title="prior_hessian::Multivariate\lNormalDist::mode">
<polygon fill="white" stroke="black" points="483,-22.5 483,-50.5 608,-50.5 608,-22.5 483,-22.5"/>
<text text-anchor="start" x="491" y="-39.3" font-family="Helvetica,sans-Serif" font-size="9.00">prior_hessian::Multivariate</text>
<text text-anchor="middle" x="545.5" y="-29.3" font-family="Helvetica,sans-Serif" font-size="9.00">NormalDist::mode</text>
</a>
</g>
</g>
<!-- Node1&#45;&gt;Node3 -->
<g id="edge5" class="edge"><title>Node1&#45;&gt;Node3</title>
<path fill="none" stroke="midnightblue" d="M135.32,-8.76458C212.608,-3.84062 338.99,0.598096 447,-12.5 463.613,-14.5147 481.478,-18.3933 497.318,-22.4547"/>
<polygon fill="midnightblue" stroke="midnightblue" points="134.962,-5.2805 125.213,-9.4292 135.421,-12.2654 134.962,-5.2805"/>
</g>
<!-- Node2&#45;&gt;Node3 -->
<g id="edge2" class="edge"><title>Node2&#45;&gt;Node3</title>
<path fill="none" stroke="midnightblue" d="M283.821,-52.7994C296.335,-55.5867 309.527,-58.0488 322,-59.5 377.183,-65.9207 391.817,-65.9207 447,-59.5 462.807,-57.6609 479.77,-54.1981 495.043,-50.5074"/>
<polygon fill="midnightblue" stroke="midnightblue" points="284.489,-49.3616 273.957,-50.5074 282.905,-56.18 284.489,-49.3616"/>
</g>
<!-- Node4 -->
<g id="node4" class="node"><title>Node4</title>
<g id="a_node4"><a xlink:href="classprior__hessian_1_1MultivariateNormalDist.html#a67cba536341528564330b17dcbe5faff" target="_top" xlink:title="prior_hessian::Multivariate\lNormalDist::pdf">
<polygon fill="white" stroke="black" points="322,-22.5 322,-50.5 447,-50.5 447,-22.5 322,-22.5"/>
<text text-anchor="start" x="330" y="-39.3" font-family="Helvetica,sans-Serif" font-size="9.00">prior_hessian::Multivariate</text>
<text text-anchor="middle" x="384.5" y="-29.3" font-family="Helvetica,sans-Serif" font-size="9.00">NormalDist::pdf</text>
</a>
</g>
</g>
<!-- Node2&#45;&gt;Node4 -->
<g id="edge3" class="edge"><title>Node2&#45;&gt;Node4</title>
<path fill="none" stroke="midnightblue" d="M296.592,-36.5C304.99,-36.5 313.499,-36.5 321.74,-36.5"/>
<polygon fill="midnightblue" stroke="midnightblue" points="296.429,-33.0001 286.429,-36.5 296.429,-40.0001 296.429,-33.0001"/>
</g>
<!-- Node4&#45;&gt;Node3 -->
<g id="edge4" class="edge"><title>Node4&#45;&gt;Node3</title>
<path fill="none" stroke="midnightblue" d="M457.592,-36.5C465.99,-36.5 474.499,-36.5 482.74,-36.5"/>
<polygon fill="midnightblue" stroke="midnightblue" points="457.429,-33.0001 447.429,-36.5 457.429,-40.0001 457.429,-33.0001"/>
</g>
</g>
</svg>
