<?xml version="1.0" encoding="UTF-8" standalone="no"?>
<!DOCTYPE svg PUBLIC "-//W3C//DTD SVG 1.1//EN"
 "http://www.w3.org/Graphics/SVG/1.1/DTD/svg11.dtd">
<!-- Generated by graphviz version 2.38.0 (20140413.2041)
 -->
<!-- Title: prior_hessian::CopulaDistImpl::CopulaDist::num_dim Pages: 1 -->
<!--zoomable 650 -->
<svg id="main" version="1.1" xmlns="http://www.w3.org/2000/svg" xmlns:xlink="http://www.w3.org/1999/xlink" xml:space="preserve" onload="init(evt)">
<style type="text/css"><![CDATA[
.edge:hover path { stroke: red; }
.edge:hover polygon { stroke: red; fill: red; }
]]></style>
<script type="text/javascript"><![CDATA[
var edges = document.getElementsByTagName('g');
if (edges && edges.length) {
  for (var i=0;i<edges.length;i++) {
    if (edges[i].id.substr(0,4)=='edge') {
      edges[i].setAttribute('class','edge');
    }
  }
}
]]></script>
        <defs>
                <circle id="rim" cx="0" cy="0" r="7"/>
                <circle id="rim2" cx="0" cy="0" r="3.5"/>
                <g id="zoomPlus">
                        <use xlink:href="#rim" fill="#404040">
                                <set attributeName="fill" to="#808080" begin="zoomplus.mouseover" end="zoomplus.mouseout"/>
                        </use>
                        <path d="M-4,0h8M0,-4v8" fill="none" stroke="white" stroke-width="1.5" pointer-events="none"/>
                </g>
                <g id="zoomMin">
                        <use xlink:href="#rim" fill="#404040">
                                <set attributeName="fill" to="#808080" begin="zoomminus.mouseover" end="zoomminus.mouseout"/>
                        </use>
                        <path d="M-4,0h8" fill="none" stroke="white" stroke-width="1.5" pointer-events="none"/>
                </g>
                <g id="dirArrow">
                        <path fill="none" stroke="white" stroke-width="1.5" d="M0,-3.0v7 M-2.5,-0.5L0,-3.0L2.5,-0.5"/>
                </g>
               <g id="resetDef">
                       <use xlink:href="#rim2" fill="#404040">
                               <set attributeName="fill" to="#808080" begin="reset.mouseover" end="reset.mouseout"/>
                       </use>
               </g>
        </defs>

<script type="text/javascript">
var viewWidth = 1040;
var viewHeight = 650;
var sectionId = 'dynsection-21';
</script>
<script xlink:href="svgpan.js"/>
<svg id="graph" class="graph">
<g id="viewport">
<title>prior_hessian::CopulaDistImpl::CopulaDist::num_dim</title>
<polygon fill="white" stroke="none" points="-4,4 -4,-646 1036,-646 1036,4 -4,4"/>
<!-- Node1 -->
<g id="node1" class="node"><title>Node1</title>
<polygon fill="#bfbfbf" stroke="black" points="0,-301.5 0,-329.5 127,-329.5 127,-301.5 0,-301.5"/>
<text text-anchor="start" x="8" y="-318.3" font-family="Helvetica,sans-Serif" font-size="9.00">prior_hessian::CopulaDist</text>
<text text-anchor="middle" x="63.5" y="-308.3" font-family="Helvetica,sans-Serif" font-size="9.00">Impl::CopulaDist::num_dim</text>
</g>
<!-- Node2 -->
<g id="node2" class="node"><title>Node2</title>
<g id="a_node2"><a xlink:href="classprior__hessian_1_1CopulaDistImpl_1_1CopulaDist.html#a6484b17ff956fe0af53e4232662b9b21" target="_top" xlink:title="prior_hessian::CopulaDist\lImpl::CopulaDist::check\l_copula_theta">
<polygon fill="white" stroke="black" points="179,-603.5 179,-641.5 302,-641.5 302,-603.5 179,-603.5"/>
<text text-anchor="start" x="187" y="-630.3" font-family="Helvetica,sans-Serif" font-size="9.00">prior_hessian::CopulaDist</text>
<text text-anchor="start" x="187" y="-620.3" font-family="Helvetica,sans-Serif" font-size="9.00">Impl::CopulaDist::check</text>
<text text-anchor="middle" x="240.5" y="-610.3" font-family="Helvetica,sans-Serif" font-size="9.00">_copula_theta</text>
</a>
</g>
</g>
<!-- Node1&#45;&gt;Node2 -->
<g id="edge1" class="edge"><title>Node1&#45;&gt;Node2</title>
<path fill="none" stroke="midnightblue" d="M65.3679,-329.567C68.8901,-374.551 85.8983,-516.508 163,-594.5 165.144,-596.669 167.469,-598.671 169.931,-600.519"/>
<polygon fill="midnightblue" stroke="midnightblue" points="168.458,-603.735 178.756,-606.227 172.26,-597.857 168.458,-603.735"/>
</g>
<!-- Node3 -->
<g id="node3" class="node"><title>Node3</title>
<g id="a_node3"><a xlink:href="classprior__hessian_1_1CopulaDistImpl_1_1CopulaDist.html#a3a8fbb171c6540d89e6c8c27dc8d1175" target="_top" xlink:title="prior_hessian::CopulaDist\lImpl::CopulaDist::check_params">
<polygon fill="white" stroke="black" points="166,-556.5 166,-584.5 315,-584.5 315,-556.5 166,-556.5"/>
<text text-anchor="start" x="174" y="-573.3" font-family="Helvetica,sans-Serif" font-size="9.00">prior_hessian::CopulaDist</text>
<text text-anchor="middle" x="240.5" y="-563.3" font-family="Helvetica,sans-Serif" font-size="9.00">Impl::CopulaDist::check_params</text>
</a>
</g>
</g>
<!-- Node1&#45;&gt;Node3 -->
<g id="edge2" class="edge"><title>Node1&#45;&gt;Node3</title>
<path fill="none" stroke="midnightblue" d="M66.3115,-329.627C72.2319,-369.901 94.7293,-486.321 163,-547.5 164.314,-548.677 165.686,-549.794 167.107,-550.854"/>
<polygon fill="midnightblue" stroke="midnightblue" points="165.403,-553.918 175.722,-556.321 169.154,-548.008 165.403,-553.918"/>
</g>
<!-- Node4 -->
<g id="node4" class="node"><title>Node4</title>
<g id="a_node4"><a xlink:href="classprior__hessian_1_1CopulaDistImpl_1_1CopulaDist.html#ac77b528427c1e073e24db35b00790983" target="_top" xlink:title="prior_hessian::CopulaDist\lImpl::CopulaDist::CopulaDist">
<polygon fill="white" stroke="black" points="173.5,-509.5 173.5,-537.5 307.5,-537.5 307.5,-509.5 173.5,-509.5"/>
<text text-anchor="start" x="181.5" y="-526.3" font-family="Helvetica,sans-Serif" font-size="9.00">prior_hessian::CopulaDist</text>
<text text-anchor="middle" x="240.5" y="-516.3" font-family="Helvetica,sans-Serif" font-size="9.00">Impl::CopulaDist::CopulaDist</text>
</a>
</g>
</g>
<!-- Node1&#45;&gt;Node4 -->
<g id="edge3" class="edge"><title>Node1&#45;&gt;Node4</title>
<path fill="none" stroke="midnightblue" d="M68.5776,-329.763C78.848,-363.232 108.899,-447.522 163,-494.5 167.534,-498.437 172.658,-501.865 178.052,-504.845"/>
<polygon fill="midnightblue" stroke="midnightblue" points="176.816,-508.138 187.329,-509.446 179.926,-501.867 176.816,-508.138"/>
</g>
<!-- Node5 -->
<g id="node5" class="node"><title>Node5</title>
<g id="a_node5"><a xlink:href="classprior__hessian_1_1CopulaDistImpl_1_1CopulaDist.html#ab751cebc3c628c353729c8f079ffb984" target="_top" xlink:title="prior_hessian::CopulaDist\lImpl::CopulaDist::global_lbound">
<polygon fill="white" stroke="black" points="884,-421.5 884,-449.5 1032,-449.5 1032,-421.5 884,-421.5"/>
<text text-anchor="start" x="892" y="-438.3" font-family="Helvetica,sans-Serif" font-size="9.00">prior_hessian::CopulaDist</text>
<text text-anchor="middle" x="958" y="-428.3" font-family="Helvetica,sans-Serif" font-size="9.00">Impl::CopulaDist::global_lbound</text>
</a>
</g>
</g>
<!-- Node1&#45;&gt;Node5 -->
<g id="edge4" class="edge"><title>Node1&#45;&gt;Node5</title>
<path fill="none" stroke="midnightblue" d="M83.9566,-329.548C142.464,-371.809 313.09,-495.208 318,-500.5 338.635,-522.742 327.487,-543.751 354,-558.5 551.889,-668.581 835.421,-512.084 927.151,-454.957"/>
<polygon fill="midnightblue" stroke="midnightblue" points="929.07,-457.884 935.667,-449.594 925.34,-451.961 929.07,-457.884"/>
</g>
<!-- Node6 -->
<g id="node6" class="node"><title>Node6</title>
<g id="a_node6"><a xlink:href="classprior__hessian_1_1CopulaDistImpl_1_1CopulaDist.html#aad110f1a85e7611fd098aa51c2104015" target="_top" xlink:title="prior_hessian::CopulaDist\lImpl::CopulaDist::global_ubound">
<polygon fill="white" stroke="black" points="165,-348.5 165,-376.5 316,-376.5 316,-348.5 165,-348.5"/>
<text text-anchor="start" x="173" y="-365.3" font-family="Helvetica,sans-Serif" font-size="9.00">prior_hessian::CopulaDist</text>
<text text-anchor="middle" x="240.5" y="-355.3" font-family="Helvetica,sans-Serif" font-size="9.00">Impl::CopulaDist::global_ubound</text>
</a>
</g>
</g>
<!-- Node1&#45;&gt;Node6 -->
<g id="edge5" class="edge"><title>Node1&#45;&gt;Node6</title>
<path fill="none" stroke="midnightblue" d="M117.006,-329.602C136.04,-334.714 157.719,-340.536 177.495,-345.847"/>
<polygon fill="midnightblue" stroke="midnightblue" points="176.767,-349.276 187.333,-348.489 178.583,-342.515 176.767,-349.276"/>
</g>
<!-- Node21 -->
<g id="node21" class="node"><title>Node21</title>
<g id="a_node21"><a xlink:href="classprior__hessian_1_1CopulaDistImpl_1_1CopulaDist.html#ae565171062d170680b6a107add0fc287" target="_top" xlink:title="prior_hessian::CopulaDist\lImpl::CopulaDist::initialize_copula">
<polygon fill="white" stroke="black" points="163,-301.5 163,-329.5 318,-329.5 318,-301.5 163,-301.5"/>
<text text-anchor="start" x="171" y="-318.3" font-family="Helvetica,sans-Serif" font-size="9.00">prior_hessian::CopulaDist</text>
<text text-anchor="middle" x="240.5" y="-308.3" font-family="Helvetica,sans-Serif" font-size="9.00">Impl::CopulaDist::initialize_copula</text>
</a>
</g>
</g>
<!-- Node1&#45;&gt;Node21 -->
<g id="edge30" class="edge"><title>Node1&#45;&gt;Node21</title>
<path fill="none" stroke="midnightblue" d="M127.185,-315.5C135.503,-315.5 144.147,-315.5 152.781,-315.5"/>
<polygon fill="midnightblue" stroke="midnightblue" points="152.892,-319 162.892,-315.5 152.892,-312 152.892,-319"/>
</g>
<!-- Node22 -->
<g id="node22" class="node"><title>Node22</title>
<g id="a_node22"><a xlink:href="classprior__hessian_1_1CopulaDistImpl_1_1CopulaDist.html#a48d0317eb851b464c87d2210e9eaaf62" target="_top" xlink:title="prior_hessian::CopulaDist\lImpl::CopulaDist::initialize\l_marginals">
<polygon fill="white" stroke="black" points="179,-244.5 179,-282.5 302,-282.5 302,-244.5 179,-244.5"/>
<text text-anchor="start" x="187" y="-271.3" font-family="Helvetica,sans-Serif" font-size="9.00">prior_hessian::CopulaDist</text>
<text text-anchor="start" x="187" y="-261.3" font-family="Helvetica,sans-Serif" font-size="9.00">Impl::CopulaDist::initialize</text>
<text text-anchor="middle" x="240.5" y="-251.3" font-family="Helvetica,sans-Serif" font-size="9.00">_marginals</text>
</a>
</g>
</g>
<!-- Node1&#45;&gt;Node22 -->
<g id="edge31" class="edge"><title>Node1&#45;&gt;Node22</title>
<path fill="none" stroke="midnightblue" d="M111.858,-301.428C129.523,-296.179 149.975,-290.102 169.262,-284.371"/>
<polygon fill="midnightblue" stroke="midnightblue" points="170.33,-287.705 178.919,-281.501 168.336,-280.995 170.33,-287.705"/>
</g>
<!-- Node23 -->
<g id="node23" class="node"><title>Node23</title>
<g id="a_node23"><a xlink:href="classprior__hessian_1_1CopulaDistImpl_1_1CopulaDist.html#ad5d68fea6a3f3d7f47c83ab43cd46ec8" target="_top" xlink:title="prior_hessian::CopulaDist\lImpl::CopulaDist::param_lbound">
<polygon fill="white" stroke="black" points="166,-197.5 166,-225.5 315,-225.5 315,-197.5 166,-197.5"/>
<text text-anchor="start" x="174" y="-214.3" font-family="Helvetica,sans-Serif" font-size="9.00">prior_hessian::CopulaDist</text>
<text text-anchor="middle" x="240.5" y="-204.3" font-family="Helvetica,sans-Serif" font-size="9.00">Impl::CopulaDist::param_lbound</text>
</a>
</g>
</g>
<!-- Node1&#45;&gt;Node23 -->
<g id="edge32" class="edge"><title>Node1&#45;&gt;Node23</title>
<path fill="none" stroke="midnightblue" d="M77.8824,-301.474C95.7216,-283.538 129.012,-252.635 163,-234.5 166.48,-232.643 170.13,-230.916 173.871,-229.311"/>
<polygon fill="midnightblue" stroke="midnightblue" points="175.3,-232.509 183.308,-225.571 172.722,-226.001 175.3,-232.509"/>
</g>
<!-- Node24 -->
<g id="node24" class="node"><title>Node24</title>
<g id="a_node24"><a xlink:href="classprior__hessian_1_1CopulaDistImpl_1_1CopulaDist.html#a28a1d28de9af3e174cdab7aa45449a11" target="_top" xlink:title="prior_hessian::CopulaDist\lImpl::CopulaDist::param_names">
<polygon fill="white" stroke="black" points="166.5,-150.5 166.5,-178.5 314.5,-178.5 314.5,-150.5 166.5,-150.5"/>
<text text-anchor="start" x="174.5" y="-167.3" font-family="Helvetica,sans-Serif" font-size="9.00">prior_hessian::CopulaDist</text>
<text text-anchor="middle" x="240.5" y="-157.3" font-family="Helvetica,sans-Serif" font-size="9.00">Impl::CopulaDist::param_names</text>
</a>
</g>
</g>
<!-- Node1&#45;&gt;Node24 -->
<g id="edge33" class="edge"><title>Node1&#45;&gt;Node24</title>
<path fill="none" stroke="midnightblue" d="M71.5792,-301.229C85.4299,-274.777 118.672,-218.054 163,-187.5 165.277,-185.931 167.663,-184.467 170.127,-183.1"/>
<polygon fill="midnightblue" stroke="midnightblue" points="171.91,-186.124 179.34,-178.57 168.821,-179.842 171.91,-186.124"/>
</g>
<!-- Node25 -->
<g id="node25" class="node"><title>Node25</title>
<g id="a_node25"><a xlink:href="classprior__hessian_1_1CopulaDistImpl_1_1CopulaDist.html#a9635080f5cae6bba6be7569db4810bfc" target="_top" xlink:title="prior_hessian::CopulaDist\lImpl::CopulaDist::param_ubound">
<polygon fill="white" stroke="black" points="164.5,-103.5 164.5,-131.5 316.5,-131.5 316.5,-103.5 164.5,-103.5"/>
<text text-anchor="start" x="172.5" y="-120.3" font-family="Helvetica,sans-Serif" font-size="9.00">prior_hessian::CopulaDist</text>
<text text-anchor="middle" x="240.5" y="-110.3" font-family="Helvetica,sans-Serif" font-size="9.00">Impl::CopulaDist::param_ubound</text>
</a>
</g>
</g>
<!-- Node1&#45;&gt;Node25 -->
<g id="edge34" class="edge"><title>Node1&#45;&gt;Node25</title>
<path fill="none" stroke="midnightblue" d="M68.4606,-301.3C78.4784,-268.027 108.023,-184.514 163,-140.5 164.759,-139.092 166.603,-137.769 168.515,-136.528"/>
<polygon fill="midnightblue" stroke="midnightblue" points="170.281,-139.55 177.268,-131.586 166.839,-133.454 170.281,-139.55"/>
</g>
<!-- Node26 -->
<g id="node26" class="node"><title>Node26</title>
<g id="a_node26"><a xlink:href="classprior__hessian_1_1CopulaDistImpl_1_1CopulaDist.html#a0ca7e24c5dba13279c613c95434b46a2" target="_top" xlink:title="prior_hessian::CopulaDist\lImpl::CopulaDist::params">
<polygon fill="white" stroke="black" points="179,-56.5 179,-84.5 302,-84.5 302,-56.5 179,-56.5"/>
<text text-anchor="start" x="187" y="-73.3" font-family="Helvetica,sans-Serif" font-size="9.00">prior_hessian::CopulaDist</text>
<text text-anchor="middle" x="240.5" y="-63.3" font-family="Helvetica,sans-Serif" font-size="9.00">Impl::CopulaDist::params</text>
</a>
</g>
</g>
<!-- Node1&#45;&gt;Node26 -->
<g id="edge35" class="edge"><title>Node1&#45;&gt;Node26</title>
<path fill="none" stroke="midnightblue" d="M66.6043,-301.413C73.191,-262.337 97.0582,-151.643 163,-93.5 165.194,-91.5653 167.546,-89.7932 170.015,-88.1702"/>
<polygon fill="midnightblue" stroke="midnightblue" points="171.816,-91.1728 178.8,-83.2061 168.372,-85.0784 171.816,-91.1728"/>
</g>
<!-- Node7 -->
<g id="node7" class="node"><title>Node7</title>
<g id="a_node7"><a xlink:href="namespaceprior__hessian_1_1meta.html#a179314ad7ba735849c4095e735374ab2" target="_top" xlink:title="prior_hessian::meta\l::call_in_order">
<polygon fill="white" stroke="black" points="386,-283.5 386,-311.5 484,-311.5 484,-283.5 386,-283.5"/>
<text text-anchor="start" x="394" y="-300.3" font-family="Helvetica,sans-Serif" font-size="9.00">prior_hessian::meta</text>
<text text-anchor="middle" x="435" y="-290.3" font-family="Helvetica,sans-Serif" font-size="9.00">::call_in_order</text>
</a>
</g>
</g>
<!-- Node6&#45;&gt;Node7 -->
<g id="edge6" class="edge"><title>Node6&#45;&gt;Node7</title>
<path fill="none" stroke="midnightblue" d="M289.782,-348.426C299.171,-345.565 308.916,-342.508 318,-339.5 319.791,-338.907 354.761,-326.24 385.839,-314.971"/>
<polygon fill="midnightblue" stroke="midnightblue" points="387.11,-318.234 395.317,-311.534 384.723,-311.653 387.11,-318.234"/>
</g>
<!-- Node8 -->
<g id="node8" class="node"><title>Node8</title>
<g id="a_node8"><a xlink:href="classprior__hessian_1_1CopulaDistImpl_1_1CopulaDist.html#a75da47e40ee64dd49fe5c84c2df07ebe" target="_top" xlink:title="prior_hessian::CopulaDist\lImpl::CopulaDist::cdf">
<polygon fill="white" stroke="black" points="373.5,-236.5 373.5,-264.5 496.5,-264.5 496.5,-236.5 373.5,-236.5"/>
<text text-anchor="start" x="381.5" y="-253.3" font-family="Helvetica,sans-Serif" font-size="9.00">prior_hessian::CopulaDist</text>
<text text-anchor="middle" x="435" y="-243.3" font-family="Helvetica,sans-Serif" font-size="9.00">Impl::CopulaDist::cdf</text>
</a>
</g>
</g>
<!-- Node6&#45;&gt;Node8 -->
<g id="edge7" class="edge"><title>Node6&#45;&gt;Node8</title>
<path fill="none" stroke="midnightblue" d="M303.757,-348.445C308.845,-345.937 313.681,-342.982 318,-339.5 343.709,-318.773 328.285,-295.22 354,-274.5 357.149,-271.963 360.562,-269.693 364.143,-267.663"/>
<polygon fill="midnightblue" stroke="midnightblue" points="365.939,-270.679 373.338,-263.096 362.825,-264.41 365.939,-270.679"/>
</g>
<!-- Node9 -->
<g id="node9" class="node"><title>Node9</title>
<g id="a_node9"><a xlink:href="classprior__hessian_1_1CopulaDistImpl_1_1CopulaDist.html#a4b7bf2f72c81574d9e19a2cd629f264d" target="_top" xlink:title="prior_hessian::CopulaDist\lImpl::CopulaDist::lbound">
<polygon fill="white" stroke="black" points="896.5,-184.5 896.5,-212.5 1019.5,-212.5 1019.5,-184.5 896.5,-184.5"/>
<text text-anchor="start" x="904.5" y="-201.3" font-family="Helvetica,sans-Serif" font-size="9.00">prior_hessian::CopulaDist</text>
<text text-anchor="middle" x="958" y="-191.3" font-family="Helvetica,sans-Serif" font-size="9.00">Impl::CopulaDist::lbound</text>
</a>
</g>
</g>
<!-- Node6&#45;&gt;Node9 -->
<g id="edge8" class="edge"><title>Node6&#45;&gt;Node9</title>
<path fill="none" stroke="midnightblue" d="M307.122,-348.451C311.124,-345.934 314.814,-342.976 318,-339.5 371.069,-281.607 293.197,-216.208 354,-166.5 439.001,-97.0085 739.197,-159.794 848,-174.5 862.276,-176.43 877.452,-179.262 891.803,-182.311"/>
<polygon fill="midnightblue" stroke="midnightblue" points="891.068,-185.733 901.585,-184.448 892.562,-178.895 891.068,-185.733"/>
</g>
<!-- Node10 -->
<g id="node10" class="node"><title>Node10</title>
<g id="a_node10"><a xlink:href="namespaceprior__hessian_1_1meta.html#add11951e7edc2c231ca52c32ac0ee07b" target="_top" xlink:title="prior_hessian::meta\l::logical_and_in_order">
<polygon fill="white" stroke="black" points="380.5,-94.5 380.5,-122.5 489.5,-122.5 489.5,-94.5 380.5,-94.5"/>
<text text-anchor="start" x="388.5" y="-111.3" font-family="Helvetica,sans-Serif" font-size="9.00">prior_hessian::meta</text>
<text text-anchor="middle" x="435" y="-101.3" font-family="Helvetica,sans-Serif" font-size="9.00">::logical_and_in_order</text>
</a>
</g>
</g>
<!-- Node6&#45;&gt;Node10 -->
<g id="edge9" class="edge"><title>Node6&#45;&gt;Node10</title>
<path fill="none" stroke="midnightblue" d="M307.586,-348.328C311.426,-345.837 314.956,-342.918 318,-339.5 378.647,-271.397 295.273,-207.266 354,-137.5 358.775,-131.828 364.752,-127.265 371.277,-123.595"/>
<polygon fill="midnightblue" stroke="midnightblue" points="372.997,-126.65 380.452,-119.122 369.93,-120.358 372.997,-126.65"/>
</g>
<!-- Node12 -->
<g id="node12" class="node"><title>Node12</title>
<g id="a_node12"><a xlink:href="classprior__hessian_1_1CopulaDistImpl_1_1CopulaDist.html#a58218394a4f213053e28925678ace6d4" target="_top" xlink:title="prior_hessian::CopulaDist\lImpl::CopulaDist::num_components">
<polygon fill="white" stroke="black" points="354,-47.5 354,-75.5 516,-75.5 516,-47.5 354,-47.5"/>
<text text-anchor="start" x="362" y="-64.3" font-family="Helvetica,sans-Serif" font-size="9.00">prior_hessian::CopulaDist</text>
<text text-anchor="middle" x="435" y="-54.3" font-family="Helvetica,sans-Serif" font-size="9.00">Impl::CopulaDist::num_components</text>
</a>
</g>
</g>
<!-- Node6&#45;&gt;Node12 -->
<g id="edge11" class="edge"><title>Node6&#45;&gt;Node12</title>
<path fill="none" stroke="midnightblue" d="M307.727,-348.452C311.535,-345.931 315.019,-342.972 318,-339.5 392.563,-252.662 278.913,-170.885 354,-84.5 354.735,-83.6547 355.498,-82.8395 356.288,-82.0534"/>
<polygon fill="midnightblue" stroke="midnightblue" points="358.503,-84.7635 364.046,-75.7342 354.082,-79.3361 358.503,-84.7635"/>
</g>
<!-- Node13 -->
<g id="node13" class="node"><title>Node13</title>
<g id="a_node13"><a xlink:href="classprior__hessian_1_1CopulaDistImpl_1_1CopulaDist.html#a371e1bc1823bdeb3783e5ce3c38ba0e4" target="_top" xlink:title="prior_hessian::CopulaDist\lImpl::CopulaDist::num_params">
<polygon fill="white" stroke="black" points="363.5,-0.5 363.5,-28.5 506.5,-28.5 506.5,-0.5 363.5,-0.5"/>
<text text-anchor="start" x="371.5" y="-17.3" font-family="Helvetica,sans-Serif" font-size="9.00">prior_hessian::CopulaDist</text>
<text text-anchor="middle" x="435" y="-7.3" font-family="Helvetica,sans-Serif" font-size="9.00">Impl::CopulaDist::num_params</text>
</a>
</g>
</g>
<!-- Node6&#45;&gt;Node13 -->
<g id="edge12" class="edge"><title>Node6&#45;&gt;Node13</title>
<path fill="none" stroke="midnightblue" d="M308.156,-348.293C311.809,-345.806 315.145,-342.898 318,-339.5 404.945,-236.001 266.43,-140.471 354,-37.5 354.635,-36.7535 355.292,-36.0303 355.97,-35.3299"/>
<polygon fill="midnightblue" stroke="midnightblue" points="358.526,-37.7558 363.961,-28.6611 354.041,-32.3815 358.526,-37.7558"/>
</g>
<!-- Node14 -->
<g id="node14" class="node"><title>Node14</title>
<g id="a_node14"><a xlink:href="classprior__hessian_1_1CopulaDistImpl_1_1CopulaDist.html#aa35ac17e403f5f7a74852abca16c2847" target="_top" xlink:title="prior_hessian::CopulaDist\lImpl::CopulaDist::pdf">
<polygon fill="white" stroke="black" points="373.5,-520.5 373.5,-548.5 496.5,-548.5 496.5,-520.5 373.5,-520.5"/>
<text text-anchor="start" x="381.5" y="-537.3" font-family="Helvetica,sans-Serif" font-size="9.00">prior_hessian::CopulaDist</text>
<text text-anchor="middle" x="435" y="-527.3" font-family="Helvetica,sans-Serif" font-size="9.00">Impl::CopulaDist::pdf</text>
</a>
</g>
</g>
<!-- Node6&#45;&gt;Node14 -->
<g id="edge13" class="edge"><title>Node6&#45;&gt;Node14</title>
<path fill="none" stroke="midnightblue" d="M251.718,-376.527C278.133,-412.718 347.104,-506.762 354,-511.5 357.101,-513.63 360.398,-515.565 363.819,-517.323"/>
<polygon fill="midnightblue" stroke="midnightblue" points="362.568,-520.599 373.119,-521.571 365.477,-514.232 362.568,-520.599"/>
</g>
<!-- Node15 -->
<g id="node15" class="node"><title>Node15</title>
<g id="a_node15"><a xlink:href="classprior__hessian_1_1CopulaDistImpl_1_1CopulaDist.html#ad5f8f42efd9f709625cf60836fa473b9" target="_top" xlink:title="prior_hessian::CopulaDist\lImpl::CopulaDist::set_bounds">
<polygon fill="white" stroke="black" points="711,-421.5 711,-449.5 848,-449.5 848,-421.5 711,-421.5"/>
<text text-anchor="start" x="719" y="-438.3" font-family="Helvetica,sans-Serif" font-size="9.00">prior_hessian::CopulaDist</text>
<text text-anchor="middle" x="779.5" y="-428.3" font-family="Helvetica,sans-Serif" font-size="9.00">Impl::CopulaDist::set_bounds</text>
</a>
</g>
</g>
<!-- Node6&#45;&gt;Node15 -->
<g id="edge14" class="edge"><title>Node6&#45;&gt;Node15</title>
<path fill="none" stroke="midnightblue" d="M287.791,-376.539C307.708,-384.432 331.537,-393.402 354,-398.5 472.7,-425.441 614.493,-429.299 700.456,-431.03"/>
<polygon fill="midnightblue" stroke="midnightblue" points="700.59,-434.533 710.657,-431.232 700.728,-427.534 700.59,-434.533"/>
</g>
<!-- Node16 -->
<g id="node16" class="node"><title>Node16</title>
<g id="a_node16"><a xlink:href="classprior__hessian_1_1CopulaDistImpl_1_1CopulaDist.html#ac0819ccaeef1afd7a123338823e8fb3c" target="_top" xlink:title="prior_hessian::CopulaDist\lImpl::CopulaDist::set_lbound">
<polygon fill="white" stroke="black" points="368,-369.5 368,-397.5 502,-397.5 502,-369.5 368,-369.5"/>
<text text-anchor="start" x="376" y="-386.3" font-family="Helvetica,sans-Serif" font-size="9.00">prior_hessian::CopulaDist</text>
<text text-anchor="middle" x="435" y="-376.3" font-family="Helvetica,sans-Serif" font-size="9.00">Impl::CopulaDist::set_lbound</text>
</a>
</g>
</g>
<!-- Node6&#45;&gt;Node16 -->
<g id="edge17" class="edge"><title>Node6&#45;&gt;Node16</title>
<path fill="none" stroke="midnightblue" d="M316.201,-370.649C329.76,-372.128 343.92,-373.673 357.529,-375.158"/>
<polygon fill="midnightblue" stroke="midnightblue" points="357.489,-378.674 367.81,-376.279 358.248,-371.715 357.489,-378.674"/>
</g>
<!-- Node17 -->
<g id="node17" class="node"><title>Node17</title>
<g id="a_node17"><a xlink:href="classprior__hessian_1_1CopulaDistImpl_1_1CopulaDist.html#abdb39f0c5f7f5f4b16bf501e6083d5b6" target="_top" xlink:title="prior_hessian::CopulaDist\lImpl::CopulaDist::ubound">
<polygon fill="white" stroke="black" points="552,-327.5 552,-355.5 675,-355.5 675,-327.5 552,-327.5"/>
<text text-anchor="start" x="560" y="-344.3" font-family="Helvetica,sans-Serif" font-size="9.00">prior_hessian::CopulaDist</text>
<text text-anchor="middle" x="613.5" y="-334.3" font-family="Helvetica,sans-Serif" font-size="9.00">Impl::CopulaDist::ubound</text>
</a>
</g>
</g>
<!-- Node6&#45;&gt;Node17 -->
<g id="edge29" class="edge"><title>Node6&#45;&gt;Node17</title>
<path fill="none" stroke="midnightblue" d="M316.131,-358.276C381.91,-354.552 477.068,-349.166 541.68,-345.509"/>
<polygon fill="midnightblue" stroke="midnightblue" points="541.992,-348.997 551.778,-344.937 541.596,-342.008 541.992,-348.997"/>
</g>
<!-- Node18 -->
<g id="node18" class="node"><title>Node18</title>
<g id="a_node18"><a xlink:href="classprior__hessian_1_1CopulaDistImpl_1_1CopulaDist.html#a4b010ffe2c2acd4dc75c80b32312254d" target="_top" xlink:title="prior_hessian::CopulaDist\lImpl::CopulaDist::set_ubound">
<polygon fill="white" stroke="black" points="711,-184.5 711,-212.5 848,-212.5 848,-184.5 711,-184.5"/>
<text text-anchor="start" x="719" y="-201.3" font-family="Helvetica,sans-Serif" font-size="9.00">prior_hessian::CopulaDist</text>
<text text-anchor="middle" x="779.5" y="-191.3" font-family="Helvetica,sans-Serif" font-size="9.00">Impl::CopulaDist::set_ubound</text>
</a>
</g>
</g>
<!-- Node6&#45;&gt;Node18 -->
<g id="edge28" class="edge"><title>Node6&#45;&gt;Node18</title>
<path fill="none" stroke="midnightblue" d="M285.045,-348.448C296.991,-344.68 309.091,-339.242 318,-330.5 355.32,-293.88 312.823,-250.723 354,-218.5 466.084,-130.79 649.903,-158.676 733.993,-181.679"/>
<polygon fill="midnightblue" stroke="midnightblue" points="733.166,-185.082 743.742,-184.452 735.081,-178.349 733.166,-185.082"/>
</g>
<!-- Node20 -->
<g id="node20" class="node"><title>Node20</title>
<g id="a_node20"><a xlink:href="classprior__hessian_1_1CopulaDistImpl_1_1CopulaDist.html#a3c76fabe7fefc83aa19454951c1513dd" target="_top" xlink:title="prior_hessian::CopulaDist\lImpl::CopulaDist::set_params_iter">
<polygon fill="white" stroke="black" points="357.5,-473.5 357.5,-501.5 512.5,-501.5 512.5,-473.5 357.5,-473.5"/>
<text text-anchor="start" x="365.5" y="-490.3" font-family="Helvetica,sans-Serif" font-size="9.00">prior_hessian::CopulaDist</text>
<text text-anchor="middle" x="435" y="-480.3" font-family="Helvetica,sans-Serif" font-size="9.00">Impl::CopulaDist::set_params_iter</text>
</a>
</g>
</g>
<!-- Node6&#45;&gt;Node20 -->
<g id="edge27" class="edge"><title>Node6&#45;&gt;Node20</title>
<path fill="none" stroke="midnightblue" d="M254.797,-376.712C274.665,-397.236 314.056,-435.252 354,-458.5 361.25,-462.72 369.219,-466.494 377.233,-469.813"/>
<polygon fill="midnightblue" stroke="midnightblue" points="376.032,-473.102 386.619,-473.5 378.591,-466.586 376.032,-473.102"/>
</g>
<!-- Node11 -->
<g id="node11" class="node"><title>Node11</title>
<g id="a_node11"><a xlink:href="namespaceprior__hessian_1_1meta.html#a8dd1d78533f7011bebda7009c0591041" target="_top" xlink:title="prior_hessian::meta\l::constexpr_accumulate">
<polygon fill="white" stroke="black" points="557,-94.5 557,-122.5 670,-122.5 670,-94.5 557,-94.5"/>
<text text-anchor="start" x="565" y="-111.3" font-family="Helvetica,sans-Serif" font-size="9.00">prior_hessian::meta</text>
<text text-anchor="middle" x="613.5" y="-101.3" font-family="Helvetica,sans-Serif" font-size="9.00">::constexpr_accumulate</text>
</a>
</g>
</g>
<!-- Node10&#45;&gt;Node11 -->
<g id="edge10" class="edge"><title>Node10&#45;&gt;Node11</title>
<path fill="none" stroke="midnightblue" d="M489.915,-108.5C507.792,-108.5 527.897,-108.5 546.573,-108.5"/>
<polygon fill="midnightblue" stroke="midnightblue" points="546.779,-112 556.779,-108.5 546.779,-105 546.779,-112"/>
</g>
<!-- Node15&#45;&gt;Node5 -->
<g id="edge15" class="edge"><title>Node15&#45;&gt;Node5</title>
<path fill="none" stroke="midnightblue" d="M848.235,-435.5C856.619,-435.5 865.266,-435.5 873.848,-435.5"/>
<polygon fill="midnightblue" stroke="midnightblue" points="873.873,-439 883.873,-435.5 873.873,-432 873.873,-439"/>
</g>
<!-- Node15&#45;&gt;Node6 -->
<g id="edge16" class="edge"><title>Node15&#45;&gt;Node6</title>
<path fill="none" stroke="midnightblue" d="M710.657,-443.82C626.059,-447.574 477.525,-444.536 354,-416.5 322.408,-409.33 288.114,-394.502 265.801,-381.865"/>
<polygon fill="midnightblue" stroke="midnightblue" points="267.394,-378.739 257.015,-376.612 263.802,-384.747 267.394,-378.739"/>
</g>
<!-- Node16&#45;&gt;Node5 -->
<g id="edge18" class="edge"><title>Node16&#45;&gt;Node5</title>
<path fill="none" stroke="midnightblue" d="M502.297,-385.358C583.954,-388.291 726.747,-395.522 848,-412.5 860.973,-414.317 874.712,-416.782 887.904,-419.426"/>
<polygon fill="midnightblue" stroke="midnightblue" points="887.362,-422.888 897.862,-421.474 888.773,-416.031 887.362,-422.888"/>
</g>
<!-- Node16&#45;&gt;Node17 -->
<g id="edge19" class="edge"><title>Node16&#45;&gt;Node17</title>
<path fill="none" stroke="midnightblue" d="M471.717,-369.452C491.903,-363.592 517.853,-357.057 541.964,-351.657"/>
<polygon fill="midnightblue" stroke="midnightblue" points="542.789,-355.059 551.805,-349.494 541.287,-348.222 542.789,-355.059"/>
</g>
<!-- Node17&#45;&gt;Node9 -->
<g id="edge21" class="edge"><title>Node17&#45;&gt;Node9</title>
<path fill="none" stroke="midnightblue" d="M675.388,-348.633C724.571,-351.645 794.208,-349.516 848,-322.5 892.607,-300.097 926.967,-250.789 944.378,-221.55"/>
<polygon fill="midnightblue" stroke="midnightblue" points="947.449,-223.231 949.427,-212.822 941.39,-219.726 947.449,-223.231"/>
</g>
<!-- Node17&#45;&gt;Node15 -->
<g id="edge20" class="edge"><title>Node17&#45;&gt;Node15</title>
<path fill="none" stroke="midnightblue" d="M639.052,-355.573C667.273,-371.748 713.738,-398.38 745.201,-416.414"/>
<polygon fill="midnightblue" stroke="midnightblue" points="743.631,-419.549 754.048,-421.485 747.112,-413.475 743.631,-419.549"/>
</g>
<!-- Node17&#45;&gt;Node16 -->
<g id="edge22" class="edge"><title>Node17&#45;&gt;Node16</title>
<path fill="none" stroke="midnightblue" d="M576.641,-355.589C558.021,-360.99 534.523,-366.961 512.093,-372.086"/>
<polygon fill="midnightblue" stroke="midnightblue" points="511.215,-368.696 502.224,-374.301 512.748,-375.526 511.215,-368.696"/>
</g>
<!-- Node17&#45;&gt;Node18 -->
<g id="edge23" class="edge"><title>Node17&#45;&gt;Node18</title>
<path fill="none" stroke="midnightblue" d="M630.825,-327.266C659.927,-301.89 720.88,-248.742 754.669,-219.279"/>
<polygon fill="midnightblue" stroke="midnightblue" points="757.005,-221.887 762.241,-212.677 752.404,-216.611 757.005,-221.887"/>
</g>
<!-- Node19 -->
<g id="node19" class="node"><title>Node19</title>
<g id="a_node19"><a xlink:href="classprior__hessian_1_1CopulaDistImpl_1_1CopulaDist.html#a9dca9ab8ba47ecef1a7784fe77c8c40f" target="_top" xlink:title="prior_hessian::CopulaDist\lImpl::CopulaDist::operator==">
<polygon fill="white" stroke="black" points="712.5,-284.5 712.5,-312.5 846.5,-312.5 846.5,-284.5 712.5,-284.5"/>
<text text-anchor="start" x="720.5" y="-301.3" font-family="Helvetica,sans-Serif" font-size="9.00">prior_hessian::CopulaDist</text>
<text text-anchor="middle" x="779.5" y="-291.3" font-family="Helvetica,sans-Serif" font-size="9.00">Impl::CopulaDist::operator==</text>
</a>
</g>
</g>
<!-- Node17&#45;&gt;Node19 -->
<g id="edge26" class="edge"><title>Node17&#45;&gt;Node19</title>
<path fill="none" stroke="midnightblue" d="M668.2,-327.42C683.143,-323.502 699.515,-319.21 714.965,-315.159"/>
<polygon fill="midnightblue" stroke="midnightblue" points="716.175,-318.46 724.96,-312.538 714.399,-311.689 716.175,-318.46"/>
</g>
<!-- Node18&#45;&gt;Node6 -->
<g id="edge24" class="edge"><title>Node18&#45;&gt;Node6</title>
<path fill="none" stroke="midnightblue" d="M710.818,-187.957C619.557,-172.81 456.678,-156.15 354,-236.5 315.558,-266.583 350.045,-306.196 322.943,-342.51"/>
<polygon fill="midnightblue" stroke="midnightblue" points="320.152,-340.384 316.177,-350.205 325.409,-345.007 320.152,-340.384"/>
</g>
<!-- Node18&#45;&gt;Node9 -->
<g id="edge25" class="edge"><title>Node18&#45;&gt;Node9</title>
<path fill="none" stroke="midnightblue" d="M848.235,-198.5C860.614,-198.5 873.564,-198.5 886.035,-198.5"/>
<polygon fill="midnightblue" stroke="midnightblue" points="886.375,-202 896.374,-198.5 886.374,-195 886.375,-202"/>
</g>
</g>
</svg>
        <g id="navigator" transform="translate(0 0)" fill="#404254">
                <rect fill="#f2f5e9" fill-opacity="0.5" stroke="#606060" stroke-width=".5" x="0" y="0" width="60" height="60"/>
                <use id="zoomplus" xlink:href="#zoomPlus" x="17" y="9" onmousedown="handleZoom(evt,'in')"/>
                <use id="zoomminus" xlink:href="#zoomMin" x="42" y="9" onmousedown="handleZoom(evt,'out')"/>
                <use id="reset" xlink:href="#resetDef" x="30" y="36" onmousedown="handleReset()"/>
                <g id="arrowUp" xlink:href="#dirArrow" transform="translate(30 24)" onmousedown="handlePan(0,-1)">
                  <use xlink:href="#rim" fill="#404040">
                        <set attributeName="fill" to="#808080" begin="arrowUp.mouseover" end="arrowUp.mouseout"/>
                  </use>
                  <path fill="none" stroke="white" stroke-width="1.5" d="M0,-3.0v7 M-2.5,-0.5L0,-3.0L2.5,-0.5"/>
                </g>
                <g id="arrowRight" xlink:href="#dirArrow" transform="rotate(90) translate(36 -43)" onmousedown="handlePan(1,0)">
                  <use xlink:href="#rim" fill="#404040">
                        <set attributeName="fill" to="#808080" begin="arrowRight.mouseover" end="arrowRight.mouseout"/>
                  </use>
                  <path fill="none" stroke="white" stroke-width="1.5" d="M0,-3.0v7 M-2.5,-0.5L0,-3.0L2.5,-0.5"/>
                </g>
                <g id="arrowDown" xlink:href="#dirArrow" transform="rotate(180) translate(-30 -48)" onmousedown="handlePan(0,1)">
                  <use xlink:href="#rim" fill="#404040">
                        <set attributeName="fill" to="#808080" begin="arrowDown.mouseover" end="arrowDown.mouseout"/>
                  </use>
                  <path fill="none" stroke="white" stroke-width="1.5" d="M0,-3.0v7 M-2.5,-0.5L0,-3.0L2.5,-0.5"/>
                </g>
                <g id="arrowLeft" xlink:href="#dirArrow" transform="rotate(270) translate(-36 17)" onmousedown="handlePan(-1,0)">
                  <use xlink:href="#rim" fill="#404040">
                        <set attributeName="fill" to="#808080" begin="arrowLeft.mouseover" end="arrowLeft.mouseout"/>
                  </use>
                  <path fill="none" stroke="white" stroke-width="1.5" d="M0,-3.0v7 M-2.5,-0.5L0,-3.0L2.5,-0.5"/>
                </g>
        </g>
        <svg viewBox="0 0 15 15" width="100%" height="30px" preserveAspectRatio="xMaxYMin meet">
         <g id="arrow_out" transform="scale(0.3 0.3)">
          <a xlink:href="classprior__hessian_1_1CopulaDistImpl_1_1CopulaDist_a26cd71990978df0ddae24dae5148c880_cgraph_org.svg" target="_base">
           <rect id="button" ry="5" rx="5" y="6" x="6" height="38" width="38"
                fill="#f2f5e9" fill-opacity="0.5" stroke="#606060" stroke-width="1.0"/>
           <path id="arrow"
             d="M 11.500037,31.436501 C 11.940474,20.09759 22.043105,11.32322 32.158766,21.979434 L 37.068811,17.246167 C 37.068811,17.246167 37.088388,32 37.088388,32 L 22.160133,31.978069 C 22.160133,31.978069 26.997745,27.140456 26.997745,27.140456 C 18.528582,18.264221 13.291696,25.230495 11.500037,31.436501 z"
             style="fill:#404040;"/>
          </a>
         </g>
        </svg>
</svg>
