<?xml version="1.0" encoding="UTF-8" standalone="no"?>
<!DOCTYPE svg PUBLIC "-//W3C//DTD SVG 1.1//EN"
 "http://www.w3.org/Graphics/SVG/1.1/DTD/svg11.dtd">
<!-- Generated by graphviz version 2.38.0 (20140413.2041)
 -->
<!-- Title: prior_hessian::ScaledDist::operator!= Pages: 1 -->
<!--zoomable 237 -->
<svg id="main" version="1.1" xmlns="http://www.w3.org/2000/svg" xmlns:xlink="http://www.w3.org/1999/xlink" xml:space="preserve" onload="init(evt)">
<style type="text/css"><![CDATA[
.edge:hover path { stroke: red; }
.edge:hover polygon { stroke: red; fill: red; }
]]></style>
<script type="text/javascript"><![CDATA[
var edges = document.getElementsByTagName('g');
if (edges && edges.length) {
  for (var i=0;i<edges.length;i++) {
    if (edges[i].id.substr(0,4)=='edge') {
      edges[i].setAttribute('class','edge');
    }
  }
}
]]></script>
        <defs>
                <circle id="rim" cx="0" cy="0" r="7"/>
                <circle id="rim2" cx="0" cy="0" r="3.5"/>
                <g id="zoomPlus">
                        <use xlink:href="#rim" fill="#404040">
                                <set attributeName="fill" to="#808080" begin="zoomplus.mouseover" end="zoomplus.mouseout"/>
                        </use>
                        <path d="M-4,0h8M0,-4v8" fill="none" stroke="white" stroke-width="1.5" pointer-events="none"/>
                </g>
                <g id="zoomMin">
                        <use xlink:href="#rim" fill="#404040">
                                <set attributeName="fill" to="#808080" begin="zoomminus.mouseover" end="zoomminus.mouseout"/>
                        </use>
                        <path d="M-4,0h8" fill="none" stroke="white" stroke-width="1.5" pointer-events="none"/>
                </g>
                <g id="dirArrow">
                        <path fill="none" stroke="white" stroke-width="1.5" d="M0,-3.0v7 M-2.5,-0.5L0,-3.0L2.5,-0.5"/>
                </g>
               <g id="resetDef">
                       <use xlink:href="#rim2" fill="#404040">
                               <set attributeName="fill" to="#808080" begin="reset.mouseover" end="reset.mouseout"/>
                       </use>
               </g>
        </defs>

<script type="text/javascript">
var viewWidth = 604;
var viewHeight = 237;
var sectionId = 'dynsection-17';
</script>
<script xlink:href="svgpan.js"/>
<svg id="graph" class="graph">
<g id="viewport">
<title>prior_hessian::ScaledDist::operator!=</title>
<polygon fill="white" stroke="none" points="-4,4 -4,-232.616 600,-232.616 600,4 -4,4"/>
<!-- Node1 -->
<g id="node1" class="node"><title>Node1</title>
<polygon fill="#bfbfbf" stroke="black" points="0,-100.796 0,-128.796 122,-128.796 122,-100.796 0,-100.796"/>
<text text-anchor="start" x="8" y="-117.596" font-family="Helvetica,sans-Serif" font-size="9.00">prior_hessian::ScaledDist</text>
<text text-anchor="middle" x="61" y="-107.596" font-family="Helvetica,sans-Serif" font-size="9.00">::operator!=</text>
</g>
<!-- Node2 -->
<g id="node2" class="node"><title>Node2</title>
<g id="a_node2"><a xlink:href="classprior__hessian_1_1ScaledDist.html#a46bce2de3c0e030e9e4542195ecb429f" target="_top" xlink:title="prior_hessian::ScaledDist\l::lbound">
<polygon fill="white" stroke="black" points="474,-13.7964 474,-41.7964 596,-41.7964 596,-13.7964 474,-13.7964"/>
<text text-anchor="start" x="482" y="-30.5964" font-family="Helvetica,sans-Serif" font-size="9.00">prior_hessian::ScaledDist</text>
<text text-anchor="middle" x="535" y="-20.5964" font-family="Helvetica,sans-Serif" font-size="9.00">::lbound</text>
</a>
</g>
</g>
<!-- Node1&#45;&gt;Node2 -->
<g id="edge1" class="edge"><title>Node1&#45;&gt;Node2</title>
<path fill="none" stroke="midnightblue" d="M71.8138,-100.728C87.3074,-79.8987 119.65,-41.714 158,-26.7964 258.581,12.3279 386.068,0.501447 463.759,-12.7844"/>
<polygon fill="midnightblue" stroke="midnightblue" points="463.459,-16.2855 473.916,-14.5782 464.677,-9.3922 463.459,-16.2855"/>
</g>
<!-- Node3 -->
<g id="node3" class="node"><title>Node3</title>
<g id="a_node3"><a xlink:href="classprior__hessian_1_1ScaledDist.html#a99b90aa0517d8c85734e9891209f54f3" target="_top" xlink:title="prior_hessian::ScaledDist\l::operator==">
<polygon fill="white" stroke="black" points="158,-169.796 158,-197.796 280,-197.796 280,-169.796 158,-169.796"/>
<text text-anchor="start" x="166" y="-186.596" font-family="Helvetica,sans-Serif" font-size="9.00">prior_hessian::ScaledDist</text>
<text text-anchor="middle" x="219" y="-176.596" font-family="Helvetica,sans-Serif" font-size="9.00">::operator==</text>
</a>
</g>
</g>
<!-- Node1&#45;&gt;Node3 -->
<g id="edge2" class="edge"><title>Node1&#45;&gt;Node3</title>
<path fill="none" stroke="midnightblue" d="M90.7886,-128.823C109.754,-137.931 135.204,-149.904 158,-159.796 162.704,-161.838 167.64,-163.915 172.577,-165.95"/>
<polygon fill="midnightblue" stroke="midnightblue" points="171.426,-169.261 182.008,-169.793 174.067,-162.778 171.426,-169.261"/>
</g>
<!-- Node4 -->
<g id="node4" class="node"><title>Node4</title>
<g id="a_node4"><a xlink:href="classprior__hessian_1_1ScaledDist.html#a07e9dea370e56001f76ed8e10693f399" target="_top" xlink:title="prior_hessian::ScaledDist\l::set_bounds">
<polygon fill="white" stroke="black" points="316,-79.7964 316,-107.796 438,-107.796 438,-79.7964 316,-79.7964"/>
<text text-anchor="start" x="324" y="-96.5964" font-family="Helvetica,sans-Serif" font-size="9.00">prior_hessian::ScaledDist</text>
<text text-anchor="middle" x="377" y="-86.5964" font-family="Helvetica,sans-Serif" font-size="9.00">::set_bounds</text>
</a>
</g>
</g>
<!-- Node1&#45;&gt;Node4 -->
<g id="edge3" class="edge"><title>Node1&#45;&gt;Node4</title>
<path fill="none" stroke="midnightblue" d="M122.171,-110.772C174.559,-107.269 250.546,-102.187 305.717,-98.4969"/>
<polygon fill="midnightblue" stroke="midnightblue" points="306.022,-101.984 315.766,-97.8248 305.554,-95 306.022,-101.984"/>
</g>
<!-- Node5 -->
<g id="node5" class="node"><title>Node5</title>
<g id="a_node5"><a xlink:href="classprior__hessian_1_1ScaledDist.html#a70c8013325f5b8709be0900dba6e9eda" target="_top" xlink:title="prior_hessian::ScaledDist\l::ubound">
<polygon fill="white" stroke="black" points="474,-154.796 474,-182.796 596,-182.796 596,-154.796 474,-154.796"/>
<text text-anchor="start" x="482" y="-171.596" font-family="Helvetica,sans-Serif" font-size="9.00">prior_hessian::ScaledDist</text>
<text text-anchor="middle" x="535" y="-161.596" font-family="Helvetica,sans-Serif" font-size="9.00">::ubound</text>
</a>
</g>
</g>
<!-- Node1&#45;&gt;Node5 -->
<g id="edge14" class="edge"><title>Node1&#45;&gt;Node5</title>
<path fill="none" stroke="midnightblue" d="M71.1184,-128.925C86.1452,-150.738 118.425,-191.771 158,-207.796 270.854,-253.496 417.61,-212.476 489.86,-186.427"/>
<polygon fill="midnightblue" stroke="midnightblue" points="491.373,-189.6 499.549,-182.861 488.955,-183.03 491.373,-189.6"/>
</g>
<!-- Node8 -->
<g id="node8" class="node"><title>Node8</title>
<g id="a_node8"><a xlink:href="classprior__hessian_1_1ScaledDist.html#a14964efa9531b9906d722a2d9fc52da3" target="_top" xlink:title="prior_hessian::ScaledDist\l::set_lbound">
<polygon fill="white" stroke="black" points="158,-122.796 158,-150.796 280,-150.796 280,-122.796 158,-122.796"/>
<text text-anchor="start" x="166" y="-139.596" font-family="Helvetica,sans-Serif" font-size="9.00">prior_hessian::ScaledDist</text>
<text text-anchor="middle" x="219" y="-129.596" font-family="Helvetica,sans-Serif" font-size="9.00">::set_lbound</text>
</a>
</g>
</g>
<!-- Node1&#45;&gt;Node8 -->
<g id="edge8" class="edge"><title>Node1&#45;&gt;Node8</title>
<path fill="none" stroke="midnightblue" d="M122.314,-123.302C130.695,-124.484 139.363,-125.707 147.904,-126.911"/>
<polygon fill="midnightblue" stroke="midnightblue" points="147.456,-130.382 157.847,-128.313 148.433,-123.451 147.456,-130.382"/>
</g>
<!-- Node9 -->
<g id="node9" class="node"><title>Node9</title>
<g id="a_node9"><a xlink:href="classprior__hessian_1_1ScaledDist.html#ace5188e41adff598f3ed4d5dc8530af0" target="_top" xlink:title="prior_hessian::ScaledDist\l::set_ubound">
<polygon fill="white" stroke="black" points="158,-36.7964 158,-64.7964 280,-64.7964 280,-36.7964 158,-36.7964"/>
<text text-anchor="start" x="166" y="-53.5964" font-family="Helvetica,sans-Serif" font-size="9.00">prior_hessian::ScaledDist</text>
<text text-anchor="middle" x="219" y="-43.5964" font-family="Helvetica,sans-Serif" font-size="9.00">::set_ubound</text>
</a>
</g>
</g>
<!-- Node1&#45;&gt;Node9 -->
<g id="edge11" class="edge"><title>Node1&#45;&gt;Node9</title>
<path fill="none" stroke="midnightblue" d="M96.2349,-100.751C119.197,-91.3311 149.64,-78.8414 174.342,-68.7072"/>
<polygon fill="midnightblue" stroke="midnightblue" points="175.922,-71.8424 183.845,-64.8087 173.265,-65.3663 175.922,-71.8424"/>
</g>
<!-- Node4&#45;&gt;Node2 -->
<g id="edge7" class="edge"><title>Node4&#45;&gt;Node2</title>
<path fill="none" stroke="midnightblue" d="M408.51,-79.6145C427.285,-71.016 451.906,-59.9712 474,-50.7964 478.169,-49.0651 482.52,-47.3063 486.89,-45.5721"/>
<polygon fill="midnightblue" stroke="midnightblue" points="488.393,-48.7425 496.426,-41.8351 485.839,-42.2251 488.393,-48.7425"/>
</g>
<!-- Node4&#45;&gt;Node5 -->
<g id="edge4" class="edge"><title>Node4&#45;&gt;Node5</title>
<path fill="none" stroke="midnightblue" d="M402.891,-107.972C422.054,-118.651 449.348,-133.358 474,-144.796 478.351,-146.815 482.921,-148.829 487.518,-150.783"/>
<polygon fill="midnightblue" stroke="midnightblue" points="486.347,-154.087 496.925,-154.693 489.034,-147.623 486.347,-154.087"/>
</g>
<!-- Node6 -->
<g id="node6" class="node"><title>Node6</title>
<g id="a_node6"><a xlink:href="classprior__hessian_1_1ScaledDist.html#aa1aa0261a6a67d19016cdd99265bae8e" target="_top" xlink:title="prior_hessian::ScaledDist\l::unscaled_ubound">
<polygon fill="white" stroke="black" points="474,-60.7964 474,-88.7964 596,-88.7964 596,-60.7964 474,-60.7964"/>
<text text-anchor="start" x="482" y="-77.5964" font-family="Helvetica,sans-Serif" font-size="9.00">prior_hessian::ScaledDist</text>
<text text-anchor="middle" x="535" y="-67.5964" font-family="Helvetica,sans-Serif" font-size="9.00">::unscaled_ubound</text>
</a>
</g>
</g>
<!-- Node4&#45;&gt;Node6 -->
<g id="edge5" class="edge"><title>Node4&#45;&gt;Node6</title>
<path fill="none" stroke="midnightblue" d="M438.314,-86.4505C446.695,-85.4298 455.363,-84.374 463.904,-83.3337"/>
<polygon fill="midnightblue" stroke="midnightblue" points="464.343,-86.8062 473.847,-82.1228 463.497,-79.8576 464.343,-86.8062"/>
</g>
<!-- Node7 -->
<g id="node7" class="node"><title>Node7</title>
<g id="a_node7"><a xlink:href="classprior__hessian_1_1ScaledDist.html#a364788705694bdd46cd5876e92e1ad87" target="_top" xlink:title="prior_hessian::ScaledDist\l::unscaled_lbound">
<polygon fill="white" stroke="black" points="474,-107.796 474,-135.796 596,-135.796 596,-107.796 474,-107.796"/>
<text text-anchor="start" x="482" y="-124.596" font-family="Helvetica,sans-Serif" font-size="9.00">prior_hessian::ScaledDist</text>
<text text-anchor="middle" x="535" y="-114.596" font-family="Helvetica,sans-Serif" font-size="9.00">::unscaled_lbound</text>
</a>
</g>
</g>
<!-- Node4&#45;&gt;Node7 -->
<g id="edge6" class="edge"><title>Node4&#45;&gt;Node7</title>
<path fill="none" stroke="midnightblue" d="M438.314,-104.622C446.695,-106.126 455.363,-107.682 463.904,-109.215"/>
<polygon fill="midnightblue" stroke="midnightblue" points="463.386,-112.678 473.847,-111 464.622,-105.788 463.386,-112.678"/>
</g>
<!-- Node8&#45;&gt;Node4 -->
<g id="edge9" class="edge"><title>Node8&#45;&gt;Node4</title>
<path fill="none" stroke="midnightblue" d="M271.08,-122.717C285.159,-118.836 300.571,-114.588 315.144,-110.571"/>
<polygon fill="midnightblue" stroke="midnightblue" points="316.361,-113.866 325.072,-107.834 314.501,-107.118 316.361,-113.866"/>
</g>
<!-- Node8&#45;&gt;Node5 -->
<g id="edge10" class="edge"><title>Node8&#45;&gt;Node5</title>
<path fill="none" stroke="midnightblue" d="M280.171,-142.928C332.559,-148.267 408.546,-156.011 463.717,-161.634"/>
<polygon fill="midnightblue" stroke="midnightblue" points="463.462,-165.126 473.766,-162.658 464.172,-158.162 463.462,-165.126"/>
</g>
<!-- Node9&#45;&gt;Node2 -->
<g id="edge13" class="edge"><title>Node9&#45;&gt;Node2</title>
<path fill="none" stroke="midnightblue" d="M280.171,-46.389C332.559,-42.5517 408.546,-36.9857 463.717,-32.9446"/>
<polygon fill="midnightblue" stroke="midnightblue" points="464.048,-36.4298 473.766,-32.2085 463.537,-29.4485 464.048,-36.4298"/>
</g>
<!-- Node9&#45;&gt;Node4 -->
<g id="edge12" class="edge"><title>Node9&#45;&gt;Node4</title>
<path fill="none" stroke="midnightblue" d="M271.08,-64.8762C285.159,-68.7569 300.571,-73.0052 315.144,-77.022"/>
<polygon fill="midnightblue" stroke="midnightblue" points="314.501,-80.4752 325.072,-79.7585 316.361,-73.7269 314.501,-80.4752"/>
</g>
</g>
</svg>
        <g id="navigator" transform="translate(0 0)" fill="#404254">
                <rect fill="#f2f5e9" fill-opacity="0.5" stroke="#606060" stroke-width=".5" x="0" y="0" width="60" height="60"/>
                <use id="zoomplus" xlink:href="#zoomPlus" x="17" y="9" onmousedown="handleZoom(evt,'in')"/>
                <use id="zoomminus" xlink:href="#zoomMin" x="42" y="9" onmousedown="handleZoom(evt,'out')"/>
                <use id="reset" xlink:href="#resetDef" x="30" y="36" onmousedown="handleReset()"/>
                <g id="arrowUp" xlink:href="#dirArrow" transform="translate(30 24)" onmousedown="handlePan(0,-1)">
                  <use xlink:href="#rim" fill="#404040">
                        <set attributeName="fill" to="#808080" begin="arrowUp.mouseover" end="arrowUp.mouseout"/>
                  </use>
                  <path fill="none" stroke="white" stroke-width="1.5" d="M0,-3.0v7 M-2.5,-0.5L0,-3.0L2.5,-0.5"/>
                </g>
                <g id="arrowRight" xlink:href="#dirArrow" transform="rotate(90) translate(36 -43)" onmousedown="handlePan(1,0)">
                  <use xlink:href="#rim" fill="#404040">
                        <set attributeName="fill" to="#808080" begin="arrowRight.mouseover" end="arrowRight.mouseout"/>
                  </use>
                  <path fill="none" stroke="white" stroke-width="1.5" d="M0,-3.0v7 M-2.5,-0.5L0,-3.0L2.5,-0.5"/>
                </g>
                <g id="arrowDown" xlink:href="#dirArrow" transform="rotate(180) translate(-30 -48)" onmousedown="handlePan(0,1)">
                  <use xlink:href="#rim" fill="#404040">
                        <set attributeName="fill" to="#808080" begin="arrowDown.mouseover" end="arrowDown.mouseout"/>
                  </use>
                  <path fill="none" stroke="white" stroke-width="1.5" d="M0,-3.0v7 M-2.5,-0.5L0,-3.0L2.5,-0.5"/>
                </g>
                <g id="arrowLeft" xlink:href="#dirArrow" transform="rotate(270) translate(-36 17)" onmousedown="handlePan(-1,0)">
                  <use xlink:href="#rim" fill="#404040">
                        <set attributeName="fill" to="#808080" begin="arrowLeft.mouseover" end="arrowLeft.mouseout"/>
                  </use>
                  <path fill="none" stroke="white" stroke-width="1.5" d="M0,-3.0v7 M-2.5,-0.5L0,-3.0L2.5,-0.5"/>
                </g>
        </g>
        <svg viewBox="0 0 15 15" width="100%" height="30px" preserveAspectRatio="xMaxYMin meet">
         <g id="arrow_out" transform="scale(0.3 0.3)">
          <a xlink:href="classprior__hessian_1_1ScaledDist_ada92f440acb5566f8e97f653f4da2015_cgraph_org.svg" target="_base">
           <rect id="button" ry="5" rx="5" y="6" x="6" height="38" width="38"
                fill="#f2f5e9" fill-opacity="0.5" stroke="#606060" stroke-width="1.0"/>
           <path id="arrow"
             d="M 11.500037,31.436501 C 11.940474,20.09759 22.043105,11.32322 32.158766,21.979434 L 37.068811,17.246167 C 37.068811,17.246167 37.088388,32 37.088388,32 L 22.160133,31.978069 C 22.160133,31.978069 26.997745,27.140456 26.997745,27.140456 C 18.528582,18.264221 13.291696,25.230495 11.500037,31.436501 z"
             style="fill:#404040;"/>
          </a>
         </g>
        </svg>
</svg>
