<?xml version="1.0" encoding="UTF-8" standalone="no"?>
<!DOCTYPE svg PUBLIC "-//W3C//DTD SVG 1.1//EN"
 "http://www.w3.org/Graphics/SVG/1.1/DTD/svg11.dtd">
<!-- Generated by graphviz version 2.38.0 (20140413.2041)
 -->
<!-- Title: prior_hessian::MultivariateNormalDist::llh Pages: 1 -->
<svg width="455pt" height="58pt"
 viewBox="0.00 0.00 455.00 58.00" xmlns="http://www.w3.org/2000/svg" xmlns:xlink="http://www.w3.org/1999/xlink">
<g id="graph0" class="graph" transform="scale(1 1) rotate(0) translate(4 54)">
<title>prior_hessian::MultivariateNormalDist::llh</title>
<polygon fill="white" stroke="none" points="-4,4 -4,-54 451,-54 451,4 -4,4"/>
<!-- Node1 -->
<g id="node1" class="node"><title>Node1</title>
<polygon fill="#bfbfbf" stroke="black" points="0,-21.5 0,-49.5 125,-49.5 125,-21.5 0,-21.5"/>
<text text-anchor="start" x="8" y="-38.3" font-family="Helvetica,sans-Serif" font-size="9.00">prior_hessian::Multivariate</text>
<text text-anchor="middle" x="62.5" y="-28.3" font-family="Helvetica,sans-Serif" font-size="9.00">NormalDist::llh</text>
</g>
<!-- Node2 -->
<g id="node2" class="node"><title>Node2</title>
<g id="a_node2"><a xlink:href="classprior__hessian_1_1MultivariateNormalDist.html#afdec8e6a453a2c69e0d84833d6b3e5ae" target="_top" xlink:title="prior_hessian::Multivariate\lNormalDist::mode">
<polygon fill="white" stroke="black" points="322,-21.5 322,-49.5 447,-49.5 447,-21.5 322,-21.5"/>
<text text-anchor="start" x="330" y="-38.3" font-family="Helvetica,sans-Serif" font-size="9.00">prior_hessian::Multivariate</text>
<text text-anchor="middle" x="384.5" y="-28.3" font-family="Helvetica,sans-Serif" font-size="9.00">NormalDist::mode</text>
</a>
</g>
</g>
<!-- Node1&#45;&gt;Node2 -->
<g id="edge1" class="edge"><title>Node1&#45;&gt;Node2</title>
<path fill="none" stroke="midnightblue" d="M135.253,-37.9588C143.927,-38.1819 152.663,-38.3718 161,-38.5 216.549,-39.3544 230.451,-39.3544 286,-38.5 297.599,-38.3216 309.972,-38.0239 321.873,-37.6835"/>
<polygon fill="midnightblue" stroke="midnightblue" points="135.218,-34.4567 125.127,-37.6835 135.028,-41.4541 135.218,-34.4567"/>
</g>
<!-- Node3 -->
<g id="node3" class="node"><title>Node3</title>
<g id="a_node3"><a xlink:href="classprior__hessian_1_1MultivariateNormalDist.html#a67cba536341528564330b17dcbe5faff" target="_top" xlink:title="prior_hessian::Multivariate\lNormalDist::pdf">
<polygon fill="white" stroke="black" points="161,-0.5 161,-28.5 286,-28.5 286,-0.5 161,-0.5"/>
<text text-anchor="start" x="169" y="-17.3" font-family="Helvetica,sans-Serif" font-size="9.00">prior_hessian::Multivariate</text>
<text text-anchor="middle" x="223.5" y="-7.3" font-family="Helvetica,sans-Serif" font-size="9.00">NormalDist::pdf</text>
</a>
</g>
</g>
<!-- Node1&#45;&gt;Node3 -->
<g id="edge2" class="edge"><title>Node1&#45;&gt;Node3</title>
<path fill="none" stroke="midnightblue" d="M135.592,-25.9784C143.99,-24.8693 152.499,-23.7454 160.74,-22.657"/>
<polygon fill="midnightblue" stroke="midnightblue" points="134.884,-22.5414 125.429,-27.3207 135.801,-29.4811 134.884,-22.5414"/>
</g>
<!-- Node3&#45;&gt;Node2 -->
<g id="edge3" class="edge"><title>Node3&#45;&gt;Node2</title>
<path fill="none" stroke="midnightblue" d="M296.592,-24.0216C304.99,-25.1307 313.499,-26.2546 321.74,-27.343"/>
<polygon fill="midnightblue" stroke="midnightblue" points="296.801,-20.5189 286.429,-22.6793 295.884,-27.4586 296.801,-20.5189"/>
</g>
</g>
</svg>
