<?xml version="1.0" encoding="UTF-8" standalone="no"?>
<!DOCTYPE svg PUBLIC "-//W3C//DTD SVG 1.1//EN"
 "http://www.w3.org/Graphics/SVG/1.1/DTD/svg11.dtd">
<!-- Generated by graphviz version 2.38.0 (20140413.2041)
 -->
<!-- Title: prior_hessian::NormalDist::set_params Pages: 1 -->
<svg width="449pt" height="131pt"
 viewBox="0.00 0.00 449.00 131.00" xmlns="http://www.w3.org/2000/svg" xmlns:xlink="http://www.w3.org/1999/xlink">
<g id="graph0" class="graph" transform="scale(1 1) rotate(0) translate(4 127)">
<title>prior_hessian::NormalDist::set_params</title>
<polygon fill="white" stroke="none" points="-4,4 -4,-127 445,-127 445,4 -4,4"/>
<!-- Node1 -->
<g id="node1" class="node"><title>Node1</title>
<polygon fill="#bfbfbf" stroke="black" points="0,-47.5 0,-75.5 123,-75.5 123,-47.5 0,-47.5"/>
<text text-anchor="start" x="8" y="-64.3" font-family="Helvetica,sans-Serif" font-size="9.00">prior_hessian::NormalDist</text>
<text text-anchor="middle" x="61.5" y="-54.3" font-family="Helvetica,sans-Serif" font-size="9.00">::set_params</text>
</g>
<!-- Node2 -->
<g id="node2" class="node"><title>Node2</title>
<g id="a_node2"><a xlink:href="classprior__hessian_1_1NormalDist.html#a73a47151970398a524eeaf0983463932" target="_top" xlink:title="prior_hessian::NormalDist\l::NormalDist">
<polygon fill="white" stroke="black" points="159,-94.5 159,-122.5 282,-122.5 282,-94.5 159,-94.5"/>
<text text-anchor="start" x="167" y="-111.3" font-family="Helvetica,sans-Serif" font-size="9.00">prior_hessian::NormalDist</text>
<text text-anchor="middle" x="220.5" y="-101.3" font-family="Helvetica,sans-Serif" font-size="9.00">::NormalDist</text>
</a>
</g>
</g>
<!-- Node1&#45;&gt;Node2 -->
<g id="edge1" class="edge"><title>Node1&#45;&gt;Node2</title>
<path fill="none" stroke="midnightblue" d="M119.663,-78.6125C137.092,-83.8301 156.04,-89.5024 172.699,-94.4894"/>
<polygon fill="midnightblue" stroke="midnightblue" points="120.189,-75.1165 109.605,-75.6015 118.181,-81.8225 120.189,-75.1165"/>
</g>
<!-- Node3 -->
<g id="node3" class="node"><title>Node3</title>
<g id="a_node3"><a xlink:href="classprior__hessian_1_1NormalDist.html#aaea8964b1f62318c047e3c75ac104436" target="_top" xlink:title="prior_hessian::NormalDist\l::params">
<polygon fill="white" stroke="black" points="159,-47.5 159,-75.5 282,-75.5 282,-47.5 159,-47.5"/>
<text text-anchor="start" x="167" y="-64.3" font-family="Helvetica,sans-Serif" font-size="9.00">prior_hessian::NormalDist</text>
<text text-anchor="middle" x="220.5" y="-54.3" font-family="Helvetica,sans-Serif" font-size="9.00">::params</text>
</a>
</g>
</g>
<!-- Node1&#45;&gt;Node3 -->
<g id="edge2" class="edge"><title>Node1&#45;&gt;Node3</title>
<path fill="none" stroke="midnightblue" d="M133.21,-61.5C141.807,-61.5 150.53,-61.5 158.961,-61.5"/>
<polygon fill="midnightblue" stroke="midnightblue" points="133.2,-58.0001 123.2,-61.5 133.2,-65.0001 133.2,-58.0001"/>
</g>
<!-- Node5 -->
<g id="node5" class="node"><title>Node5</title>
<g id="a_node5"><a xlink:href="classprior__hessian_1_1NormalDist.html#a78eea7f027f4dc2024adc00f7cb8cce1" target="_top" xlink:title="prior_hessian::NormalDist\l::set_params_iter">
<polygon fill="white" stroke="black" points="159,-0.5 159,-28.5 282,-28.5 282,-0.5 159,-0.5"/>
<text text-anchor="start" x="167" y="-17.3" font-family="Helvetica,sans-Serif" font-size="9.00">prior_hessian::NormalDist</text>
<text text-anchor="middle" x="220.5" y="-7.3" font-family="Helvetica,sans-Serif" font-size="9.00">::set_params_iter</text>
</a>
</g>
</g>
<!-- Node1&#45;&gt;Node5 -->
<g id="edge4" class="edge"><title>Node1&#45;&gt;Node5</title>
<path fill="none" stroke="midnightblue" d="M119.663,-44.3875C137.092,-39.1699 156.04,-33.4976 172.699,-28.5106"/>
<polygon fill="midnightblue" stroke="midnightblue" points="118.181,-41.1775 109.605,-47.3985 120.189,-47.8835 118.181,-41.1775"/>
</g>
<!-- Node4 -->
<g id="node4" class="node"><title>Node4</title>
<g id="a_node4"><a xlink:href="classprior__hessian_1_1NormalDist.html#a01e959b4aea2b94bc05fc42c9abeed3c" target="_top" xlink:title="prior_hessian::NormalDist\l::median">
<polygon fill="white" stroke="black" points="318,-23.5 318,-51.5 441,-51.5 441,-23.5 318,-23.5"/>
<text text-anchor="start" x="326" y="-40.3" font-family="Helvetica,sans-Serif" font-size="9.00">prior_hessian::NormalDist</text>
<text text-anchor="middle" x="379.5" y="-30.3" font-family="Helvetica,sans-Serif" font-size="9.00">::median</text>
</a>
</g>
</g>
<!-- Node3&#45;&gt;Node4 -->
<g id="edge3" class="edge"><title>Node3&#45;&gt;Node4</title>
<path fill="none" stroke="midnightblue" d="M292.21,-50.6909C300.807,-49.3766 309.53,-48.0432 317.961,-46.7543"/>
<polygon fill="midnightblue" stroke="midnightblue" points="291.557,-47.25 282.2,-52.221 292.614,-54.1696 291.557,-47.25"/>
</g>
<!-- Node5&#45;&gt;Node4 -->
<g id="edge5" class="edge"><title>Node5&#45;&gt;Node4</title>
<path fill="none" stroke="midnightblue" d="M292.21,-24.8588C300.807,-26.1182 309.53,-27.3961 317.961,-28.6312"/>
<polygon fill="midnightblue" stroke="midnightblue" points="292.602,-21.3789 282.2,-23.3924 291.587,-28.305 292.602,-21.3789"/>
</g>
</g>
</svg>
