<?xml version="1.0" encoding="UTF-8" standalone="no"?>
<!DOCTYPE svg PUBLIC "-//W3C//DTD SVG 1.1//EN"
 "http://www.w3.org/Graphics/SVG/1.1/DTD/svg11.dtd">
<!-- Generated by graphviz version 2.38.0 (20140413.2041)
 -->
<!-- Title: prior_hessian::NormalDist::NormalDist Pages: 1 -->
<svg width="290pt" height="55pt"
 viewBox="0.00 0.00 290.00 55.00" xmlns="http://www.w3.org/2000/svg" xmlns:xlink="http://www.w3.org/1999/xlink">
<g id="graph0" class="graph" transform="scale(1 1) rotate(0) translate(4 51)">
<title>prior_hessian::NormalDist::NormalDist</title>
<polygon fill="white" stroke="none" points="-4,4 -4,-51 286,-51 286,4 -4,4"/>
<!-- Node1 -->
<g id="node1" class="node"><title>Node1</title>
<polygon fill="#bfbfbf" stroke="black" points="0,-0.5 0,-28.5 123,-28.5 123,-0.5 0,-0.5"/>
<text text-anchor="start" x="8" y="-17.3" font-family="Helvetica,sans-Serif" font-size="9.00">prior_hessian::NormalDist</text>
<text text-anchor="middle" x="61.5" y="-7.3" font-family="Helvetica,sans-Serif" font-size="9.00">::NormalDist</text>
</g>
<!-- Node2 -->
<g id="node2" class="node"><title>Node2</title>
<g id="a_node2"><a xlink:href="classprior__hessian_1_1NormalDist.html#aba53a32ad2b95b1c04c45cd258147754" target="_top" xlink:title="prior_hessian::NormalDist\l::check_params">
<polygon fill="white" stroke="black" points="159,-0.5 159,-28.5 282,-28.5 282,-0.5 159,-0.5"/>
<text text-anchor="start" x="167" y="-17.3" font-family="Helvetica,sans-Serif" font-size="9.00">prior_hessian::NormalDist</text>
<text text-anchor="middle" x="220.5" y="-7.3" font-family="Helvetica,sans-Serif" font-size="9.00">::check_params</text>
</a>
</g>
</g>
<!-- Node1&#45;&gt;Node2 -->
<g id="edge1" class="edge"><title>Node1&#45;&gt;Node2</title>
<path fill="none" stroke="midnightblue" d="M133.21,-14.5C141.807,-14.5 150.53,-14.5 158.961,-14.5"/>
<polygon fill="midnightblue" stroke="midnightblue" points="133.2,-11.0001 123.2,-14.5 133.2,-18.0001 133.2,-11.0001"/>
</g>
<!-- Node2&#45;&gt;Node2 -->
<g id="edge2" class="edge"><title>Node2&#45;&gt;Node2</title>
<path fill="none" stroke="midnightblue" d="M191.938,-38.4873C194.971,-43.4413 204.492,-47 220.5,-47 246.113,-47 255.118,-37.8898 247.514,-28.5305"/>
<polygon fill="midnightblue" stroke="midnightblue" points="195.408,-38.9494 193.486,-28.5305 188.491,-37.8742 195.408,-38.9494"/>
</g>
</g>
</svg>
