<?xml version="1.0" encoding="UTF-8" standalone="no"?>
<!DOCTYPE svg PUBLIC "-//W3C//DTD SVG 1.1//EN"
 "http://www.w3.org/Graphics/SVG/1.1/DTD/svg11.dtd">
<!-- Generated by graphviz version 2.38.0 (20140413.2041)
 -->
<!-- Title: prior_hessian::CompositeDist::ubound Pages: 1 -->
<svg width="831pt" height="397pt"
 viewBox="0.00 0.00 831.00 396.92" xmlns="http://www.w3.org/2000/svg" xmlns:xlink="http://www.w3.org/1999/xlink">
<g id="graph0" class="graph" transform="scale(1 1) rotate(0) translate(4 392.921)">
<title>prior_hessian::CompositeDist::ubound</title>
<polygon fill="white" stroke="none" points="-4,4 -4,-392.921 827,-392.921 827,4 -4,4"/>
<!-- Node1 -->
<g id="node1" class="node"><title>Node1</title>
<polygon fill="#bfbfbf" stroke="black" points="0,-139.421 0,-167.421 122,-167.421 122,-139.421 0,-139.421"/>
<text text-anchor="start" x="8" y="-156.221" font-family="Helvetica,sans-Serif" font-size="9.00">prior_hessian::Composite</text>
<text text-anchor="middle" x="61" y="-146.221" font-family="Helvetica,sans-Serif" font-size="9.00">Dist::ubound</text>
</g>
<!-- Node2 -->
<g id="node2" class="node"><title>Node2</title>
<g id="a_node2"><a xlink:href="classprior__hessian_1_1CompositeDist_1_1ComponentDistAdaptor_3_01Dist_00_01meta_1_1EnableIfSubclc6c9bd83bba546a81e521c87ad7ee6d3.html#a9b63fdd5b13a8dc9401f665a8da9b35c" target="_top" xlink:title="prior_hessian::Composite\lDist::ComponentDistAdaptor\l\&lt; Dist, meta::EnableIfSubclassT\l\&lt; Dist, UnivariateDist \&gt; \&gt;::append\l_global_ubound">
<polygon fill="white" stroke="black" points="176.5,-330.421 176.5,-388.421 329.5,-388.421 329.5,-330.421 176.5,-330.421"/>
<text text-anchor="start" x="184.5" y="-377.221" font-family="Helvetica,sans-Serif" font-size="9.00">prior_hessian::Composite</text>
<text text-anchor="start" x="184.5" y="-367.221" font-family="Helvetica,sans-Serif" font-size="9.00">Dist::ComponentDistAdaptor</text>
<text text-anchor="start" x="184.5" y="-357.221" font-family="Helvetica,sans-Serif" font-size="9.00">&lt; Dist, meta::EnableIfSubclassT</text>
<text text-anchor="start" x="184.5" y="-347.221" font-family="Helvetica,sans-Serif" font-size="9.00">&lt; Dist, UnivariateDist &gt; &gt;::append</text>
<text text-anchor="middle" x="253" y="-337.221" font-family="Helvetica,sans-Serif" font-size="9.00">_global_ubound</text>
</a>
</g>
</g>
<!-- Node1&#45;&gt;Node2 -->
<g id="edge1" class="edge"><title>Node1&#45;&gt;Node2</title>
<path fill="none" stroke="midnightblue" d="M69.8773,-177.318C82.8466,-213.234 111.943,-281.196 158,-321.421 163.568,-326.284 169.84,-330.575 176.434,-334.349"/>
<polygon fill="midnightblue" stroke="midnightblue" points="73.1108,-175.962 66.5072,-167.677 66.5028,-178.272 73.1108,-175.962"/>
</g>
<!-- Node3 -->
<g id="node3" class="node"><title>Node3</title>
<g id="a_node3"><a xlink:href="classprior__hessian_1_1CompositeDist_1_1ComponentDistAdaptor_3_01Dist_00_01meta_1_1EnableIfSubclc6c9bd83bba546a81e521c87ad7ee6d3.html#af062076875843bcd913ff5f4b7b12699" target="_top" xlink:title="prior_hessian::Composite\lDist::ComponentDistAdaptor\l\&lt; Dist, meta::EnableIfSubclassT\l\&lt; Dist, UnivariateDist \&gt; \&gt;::append_ubound">
<polygon fill="white" stroke="black" points="158,-263.421 158,-311.421 348,-311.421 348,-263.421 158,-263.421"/>
<text text-anchor="start" x="166" y="-300.221" font-family="Helvetica,sans-Serif" font-size="9.00">prior_hessian::Composite</text>
<text text-anchor="start" x="166" y="-290.221" font-family="Helvetica,sans-Serif" font-size="9.00">Dist::ComponentDistAdaptor</text>
<text text-anchor="start" x="166" y="-280.221" font-family="Helvetica,sans-Serif" font-size="9.00">&lt; Dist, meta::EnableIfSubclassT</text>
<text text-anchor="middle" x="253" y="-270.221" font-family="Helvetica,sans-Serif" font-size="9.00">&lt; Dist, UnivariateDist &gt; &gt;::append_ubound</text>
</a>
</g>
</g>
<!-- Node1&#45;&gt;Node3 -->
<g id="edge2" class="edge"><title>Node1&#45;&gt;Node3</title>
<path fill="none" stroke="midnightblue" d="M77.9285,-175.55C95.2927,-198.227 125.04,-233.099 158,-254.421 162.938,-257.615 168.222,-260.543 173.673,-263.219"/>
<polygon fill="midnightblue" stroke="midnightblue" points="80.6986,-173.41 71.8989,-167.509 75.0983,-177.61 80.6986,-173.41"/>
</g>
<!-- Node4 -->
<g id="node4" class="node"><title>Node4</title>
<g id="a_node4"><a xlink:href="classprior__hessian_1_1CompositeDist_1_1ComponentDistAdaptor_3_01Dist_00_01meta_1_1EnableIfSubcld67d34d533dbae21b9dad35557546eec.html#a3ef1a9a519a46a9690a69671a6b26869" target="_top" xlink:title="prior_hessian::Composite\lDist::ComponentDistAdaptor\l\&lt; Dist, meta::EnableIfSubclassT\l\&lt; Dist, MultivariateDist \&gt; \&gt;\l::append_ubound">
<polygon fill="white" stroke="black" points="180,-186.421 180,-244.421 326,-244.421 326,-186.421 180,-186.421"/>
<text text-anchor="start" x="188" y="-233.221" font-family="Helvetica,sans-Serif" font-size="9.00">prior_hessian::Composite</text>
<text text-anchor="start" x="188" y="-223.221" font-family="Helvetica,sans-Serif" font-size="9.00">Dist::ComponentDistAdaptor</text>
<text text-anchor="start" x="188" y="-213.221" font-family="Helvetica,sans-Serif" font-size="9.00">&lt; Dist, meta::EnableIfSubclassT</text>
<text text-anchor="start" x="188" y="-203.221" font-family="Helvetica,sans-Serif" font-size="9.00">&lt; Dist, MultivariateDist &gt; &gt;</text>
<text text-anchor="middle" x="253" y="-193.221" font-family="Helvetica,sans-Serif" font-size="9.00">::append_ubound</text>
</a>
</g>
</g>
<!-- Node1&#45;&gt;Node4 -->
<g id="edge3" class="edge"><title>Node1&#45;&gt;Node4</title>
<path fill="none" stroke="midnightblue" d="M114.744,-170.632C134.928,-177.218 158.307,-184.848 179.987,-191.922"/>
<polygon fill="midnightblue" stroke="midnightblue" points="115.706,-167.265 105.114,-167.49 113.535,-173.919 115.706,-167.265"/>
</g>
<!-- Node5 -->
<g id="node5" class="node"><title>Node5</title>
<g id="a_node5"><a xlink:href="classprior__hessian_1_1CompositeDist.html#aad4dece0c6d7857cbe3e9121aa7cc040" target="_top" xlink:title="prior_hessian::Composite\lDist::in_bounds">
<polygon fill="white" stroke="black" points="192,-139.421 192,-167.421 314,-167.421 314,-139.421 192,-139.421"/>
<text text-anchor="start" x="200" y="-156.221" font-family="Helvetica,sans-Serif" font-size="9.00">prior_hessian::Composite</text>
<text text-anchor="middle" x="253" y="-146.221" font-family="Helvetica,sans-Serif" font-size="9.00">Dist::in_bounds</text>
</a>
</g>
</g>
<!-- Node1&#45;&gt;Node5 -->
<g id="edge4" class="edge"><title>Node1&#45;&gt;Node5</title>
<path fill="none" stroke="midnightblue" d="M132.219,-153.421C151.839,-153.421 172.974,-153.421 191.948,-153.421"/>
<polygon fill="midnightblue" stroke="midnightblue" points="132.117,-149.921 122.117,-153.421 132.117,-156.921 132.117,-149.921"/>
</g>
<!-- Node6 -->
<g id="node6" class="node"><title>Node6</title>
<g id="a_node6"><a xlink:href="classprior__hessian_1_1CompositeDist.html#ac7063be5346f042c0312d5729aa0883c" target="_top" xlink:title="prior_hessian::Composite\lDist::in_bounds_all">
<polygon fill="white" stroke="black" points="192,-92.4211 192,-120.421 314,-120.421 314,-92.4211 192,-92.4211"/>
<text text-anchor="start" x="200" y="-109.221" font-family="Helvetica,sans-Serif" font-size="9.00">prior_hessian::Composite</text>
<text text-anchor="middle" x="253" y="-99.2211" font-family="Helvetica,sans-Serif" font-size="9.00">Dist::in_bounds_all</text>
</a>
</g>
</g>
<!-- Node1&#45;&gt;Node6 -->
<g id="edge5" class="edge"><title>Node1&#45;&gt;Node6</title>
<path fill="none" stroke="midnightblue" d="M128.569,-136.954C150.317,-131.574 174.256,-125.653 195.215,-120.468"/>
<polygon fill="midnightblue" stroke="midnightblue" points="127.616,-133.584 118.749,-139.383 129.297,-140.379 127.616,-133.584"/>
</g>
<!-- Node7 -->
<g id="node7" class="node"><title>Node7</title>
<g id="a_node7"><a xlink:href="namespaceprior__hessian.html#ab26e9ddc3b6a5caccf5d75e1a1e1af1b" target="_top" xlink:title="prior_hessian::operator\&lt;\&lt;">
<polygon fill="white" stroke="black" points="192,-55.4211 192,-73.4211 314,-73.4211 314,-55.4211 192,-55.4211"/>
<text text-anchor="middle" x="253" y="-62.2211" font-family="Helvetica,sans-Serif" font-size="9.00">prior_hessian::operator&lt;&lt;</text>
</a>
</g>
</g>
<!-- Node1&#45;&gt;Node7 -->
<g id="edge6" class="edge"><title>Node1&#45;&gt;Node7</title>
<path fill="none" stroke="midnightblue" d="M84.3785,-132.272C102.745,-116.116 130.174,-94.6144 158,-82.4211 168.501,-77.8195 180.17,-74.3908 191.615,-71.837"/>
<polygon fill="midnightblue" stroke="midnightblue" points="81.6993,-129.975 76.6085,-139.266 86.3825,-135.177 81.6993,-129.975"/>
</g>
<!-- Node10 -->
<g id="node10" class="node"><title>Node10</title>
<g id="a_node10"><a xlink:href="classprior__hessian_1_1CompositeDist.html#a24bac25ae8c0330b8a3aacadffc9d5ae" target="_top" xlink:title="prior_hessian::Composite\lDist::rllh_components">
<polygon fill="white" stroke="black" points="701,-48.4211 701,-76.4211 823,-76.4211 823,-48.4211 701,-48.4211"/>
<text text-anchor="start" x="709" y="-65.2211" font-family="Helvetica,sans-Serif" font-size="9.00">prior_hessian::Composite</text>
<text text-anchor="middle" x="762" y="-55.2211" font-family="Helvetica,sans-Serif" font-size="9.00">Dist::rllh_components</text>
</a>
</g>
</g>
<!-- Node1&#45;&gt;Node10 -->
<g id="edge11" class="edge"><title>Node1&#45;&gt;Node10</title>
<path fill="none" stroke="midnightblue" d="M74.539,-130.243C90.1622,-104.08 119.555,-62.8902 158,-45.4211 349.648,41.6626 612.08,-18.4823 715.998,-48.3454"/>
<polygon fill="midnightblue" stroke="midnightblue" points="71.3776,-128.719 69.4148,-139.131 77.4418,-132.216 71.3776,-128.719"/>
</g>
<!-- Node8 -->
<g id="node8" class="node"><title>Node8</title>
<g id="a_node8"><a xlink:href="classprior__hessian_1_1CompositeDist.html#a38c4fdacf927824117d202422b04013c" target="_top" xlink:title="prior_hessian::Composite\lDist::set_param_names">
<polygon fill="white" stroke="black" points="384,-53.4211 384,-81.4211 506,-81.4211 506,-53.4211 384,-53.4211"/>
<text text-anchor="start" x="392" y="-70.2211" font-family="Helvetica,sans-Serif" font-size="9.00">prior_hessian::Composite</text>
<text text-anchor="middle" x="445" y="-60.2211" font-family="Helvetica,sans-Serif" font-size="9.00">Dist::set_param_names</text>
</a>
</g>
</g>
<!-- Node7&#45;&gt;Node8 -->
<g id="edge7" class="edge"><title>Node7&#45;&gt;Node8</title>
<path fill="none" stroke="midnightblue" d="M324.219,-65.5298C343.839,-65.8396 364.974,-66.1733 383.948,-66.4729"/>
<polygon fill="midnightblue" stroke="midnightblue" points="324.171,-62.0287 314.117,-65.3703 324.061,-69.0278 324.171,-62.0287"/>
</g>
<!-- Node9 -->
<g id="node9" class="node"><title>Node9</title>
<g id="a_node9"><a xlink:href="classprior__hessian_1_1CompositeDist.html#a927fed39b2b4e87714c728d6e7b11e8b" target="_top" xlink:title="prior_hessian::Composite\lDist::params_components">
<polygon fill="white" stroke="black" points="542,-91.4211 542,-119.421 665,-119.421 665,-91.4211 542,-91.4211"/>
<text text-anchor="start" x="550" y="-108.221" font-family="Helvetica,sans-Serif" font-size="9.00">prior_hessian::Composite</text>
<text text-anchor="middle" x="603.5" y="-98.2211" font-family="Helvetica,sans-Serif" font-size="9.00">Dist::params_components</text>
</a>
</g>
</g>
<!-- Node8&#45;&gt;Node9 -->
<g id="edge8" class="edge"><title>Node8&#45;&gt;Node9</title>
<path fill="none" stroke="midnightblue" d="M513.635,-83.8436C523.967,-86.3522 534.55,-88.922 544.646,-91.3735"/>
<polygon fill="midnightblue" stroke="midnightblue" points="514.374,-80.4213 503.83,-81.4629 512.722,-87.2237 514.374,-80.4213"/>
</g>
<!-- Node8&#45;&gt;Node10 -->
<g id="edge10" class="edge"><title>Node8&#45;&gt;Node10</title>
<path fill="none" stroke="midnightblue" d="M516.457,-66.3027C571.879,-65.423 648.264,-64.2105 700.842,-63.3759"/>
<polygon fill="midnightblue" stroke="midnightblue" points="516.306,-62.8046 506.362,-66.4629 516.417,-69.8037 516.306,-62.8046"/>
</g>
<!-- Node9&#45;&gt;Node10 -->
<g id="edge9" class="edge"><title>Node9&#45;&gt;Node10</title>
<path fill="none" stroke="midnightblue" d="M665.709,-88.6033C680.334,-84.5848 695.794,-80.337 709.908,-76.459"/>
<polygon fill="midnightblue" stroke="midnightblue" points="664.459,-85.3168 655.744,-91.3412 666.314,-92.0667 664.459,-85.3168"/>
</g>
</g>
</svg>
