<?xml version="1.0" encoding="UTF-8" standalone="no"?>
<!DOCTYPE svg PUBLIC "-//W3C//DTD SVG 1.1//EN"
 "http://www.w3.org/Graphics/SVG/1.1/DTD/svg11.dtd">
<!-- Generated by graphviz version 2.38.0 (20140413.2041)
 -->
<!-- Title: prior_hessian::CompositeDist::dim_variables Pages: 1 -->
<svg width="930pt" height="118pt"
 viewBox="0.00 0.00 930.00 118.00" xmlns="http://www.w3.org/2000/svg" xmlns:xlink="http://www.w3.org/1999/xlink">
<g id="graph0" class="graph" transform="scale(1 1) rotate(0) translate(4 114)">
<title>prior_hessian::CompositeDist::dim_variables</title>
<polygon fill="white" stroke="none" points="-4,4 -4,-114 926,-114 926,4 -4,4"/>
<!-- Node1 -->
<g id="node1" class="node"><title>Node1</title>
<polygon fill="#bfbfbf" stroke="black" points="0,-21.5 0,-49.5 122,-49.5 122,-21.5 0,-21.5"/>
<text text-anchor="start" x="8" y="-38.3" font-family="Helvetica,sans-Serif" font-size="9.00">prior_hessian::Composite</text>
<text text-anchor="middle" x="61" y="-28.3" font-family="Helvetica,sans-Serif" font-size="9.00">Dist::dim_variables</text>
</g>
<!-- Node2 -->
<g id="node2" class="node"><title>Node2</title>
<g id="a_node2"><a xlink:href="classprior__hessian_1_1CompositeDist.html#ab33784dcc2971ebaae40e6138bd1e4c2" target="_top" xlink:title="prior_hessian::Composite\lDist::num_dim_components">
<polygon fill="white" stroke="black" points="158,-0.5 158,-28.5 289,-28.5 289,-0.5 158,-0.5"/>
<text text-anchor="start" x="166" y="-17.3" font-family="Helvetica,sans-Serif" font-size="9.00">prior_hessian::Composite</text>
<text text-anchor="middle" x="223.5" y="-7.3" font-family="Helvetica,sans-Serif" font-size="9.00">Dist::num_dim_components</text>
</a>
</g>
</g>
<!-- Node1&#45;&gt;Node2 -->
<g id="edge1" class="edge"><title>Node1&#45;&gt;Node2</title>
<path fill="none" stroke="midnightblue" d="M132.172,-26.3187C140.729,-25.199 149.442,-24.0589 157.913,-22.9506"/>
<polygon fill="midnightblue" stroke="midnightblue" points="131.682,-22.8528 122.221,-27.6206 132.591,-29.7936 131.682,-22.8528"/>
</g>
<!-- Node3 -->
<g id="node3" class="node"><title>Node3</title>
<g id="a_node3"><a xlink:href="namespaceprior__hessian.html#ab26e9ddc3b6a5caccf5d75e1a1e1af1b" target="_top" xlink:title="prior_hessian::operator\&lt;\&lt;">
<polygon fill="white" stroke="black" points="325,-48.5 325,-66.5 447,-66.5 447,-48.5 325,-48.5"/>
<text text-anchor="middle" x="386" y="-55.3" font-family="Helvetica,sans-Serif" font-size="9.00">prior_hessian::operator&lt;&lt;</text>
</a>
</g>
</g>
<!-- Node1&#45;&gt;Node3 -->
<g id="edge8" class="edge"><title>Node1&#45;&gt;Node3</title>
<path fill="none" stroke="midnightblue" d="M132.479,-40.3004C190.006,-44.2187 270.411,-49.6952 324.921,-53.4079"/>
<polygon fill="midnightblue" stroke="midnightblue" points="132.59,-36.7999 122.375,-39.6122 132.114,-43.7838 132.59,-36.7999"/>
</g>
<!-- Node2&#45;&gt;Node3 -->
<g id="edge2" class="edge"><title>Node2&#45;&gt;Node3</title>
<path fill="none" stroke="midnightblue" d="M286.923,-31.2239C308.741,-37.0692 332.41,-43.4105 351.03,-48.3989"/>
<polygon fill="midnightblue" stroke="midnightblue" points="287.619,-27.787 277.054,-28.5798 285.807,-34.5485 287.619,-27.787"/>
</g>
<!-- Node6 -->
<g id="node6" class="node"><title>Node6</title>
<g id="a_node6"><a xlink:href="classprior__hessian_1_1CompositeDist.html#a24bac25ae8c0330b8a3aacadffc9d5ae" target="_top" xlink:title="prior_hessian::Composite\lDist::rllh_components">
<polygon fill="white" stroke="black" points="800,-38.5 800,-66.5 922,-66.5 922,-38.5 800,-38.5"/>
<text text-anchor="start" x="808" y="-55.3" font-family="Helvetica,sans-Serif" font-size="9.00">prior_hessian::Composite</text>
<text text-anchor="middle" x="861" y="-45.3" font-family="Helvetica,sans-Serif" font-size="9.00">Dist::rllh_components</text>
</a>
</g>
</g>
<!-- Node2&#45;&gt;Node6 -->
<g id="edge7" class="edge"><title>Node2&#45;&gt;Node6</title>
<path fill="none" stroke="midnightblue" d="M299.211,-17.6898C375.957,-21.0934 498.862,-26.8969 605,-33.5 671.683,-37.6486 748.094,-43.486 799.747,-47.5928"/>
<polygon fill="midnightblue" stroke="midnightblue" points="299.304,-14.1905 289.159,-17.246 298.995,-21.1837 299.304,-14.1905"/>
</g>
<!-- Node4 -->
<g id="node4" class="node"><title>Node4</title>
<g id="a_node4"><a xlink:href="classprior__hessian_1_1CompositeDist.html#a38c4fdacf927824117d202422b04013c" target="_top" xlink:title="prior_hessian::Composite\lDist::set_param_names">
<polygon fill="white" stroke="black" points="483,-43.5 483,-71.5 605,-71.5 605,-43.5 483,-43.5"/>
<text text-anchor="start" x="491" y="-60.3" font-family="Helvetica,sans-Serif" font-size="9.00">prior_hessian::Composite</text>
<text text-anchor="middle" x="544" y="-50.3" font-family="Helvetica,sans-Serif" font-size="9.00">Dist::set_param_names</text>
</a>
</g>
</g>
<!-- Node3&#45;&gt;Node4 -->
<g id="edge3" class="edge"><title>Node3&#45;&gt;Node4</title>
<path fill="none" stroke="midnightblue" d="M457.538,-57.5C465.99,-57.5 474.56,-57.5 482.847,-57.5"/>
<polygon fill="midnightblue" stroke="midnightblue" points="457.314,-54.0001 447.314,-57.5 457.314,-61.0001 457.314,-54.0001"/>
</g>
<!-- Node5 -->
<g id="node5" class="node"><title>Node5</title>
<g id="a_node5"><a xlink:href="classprior__hessian_1_1CompositeDist.html#a927fed39b2b4e87714c728d6e7b11e8b" target="_top" xlink:title="prior_hessian::Composite\lDist::params_components">
<polygon fill="white" stroke="black" points="641,-81.5 641,-109.5 764,-109.5 764,-81.5 641,-81.5"/>
<text text-anchor="start" x="649" y="-98.3" font-family="Helvetica,sans-Serif" font-size="9.00">prior_hessian::Composite</text>
<text text-anchor="middle" x="702.5" y="-88.3" font-family="Helvetica,sans-Serif" font-size="9.00">Dist::params_components</text>
</a>
</g>
</g>
<!-- Node4&#45;&gt;Node5 -->
<g id="edge4" class="edge"><title>Node4&#45;&gt;Node5</title>
<path fill="none" stroke="midnightblue" d="M612.635,-73.9225C622.967,-76.4312 633.55,-79.001 643.646,-81.4525"/>
<polygon fill="midnightblue" stroke="midnightblue" points="613.374,-70.5003 602.83,-71.5418 611.722,-77.3026 613.374,-70.5003"/>
</g>
<!-- Node4&#45;&gt;Node6 -->
<g id="edge6" class="edge"><title>Node4&#45;&gt;Node6</title>
<path fill="none" stroke="midnightblue" d="M615.457,-56.3816C670.879,-55.5019 747.264,-54.2895 799.842,-53.4549"/>
<polygon fill="midnightblue" stroke="midnightblue" points="615.306,-52.8835 605.362,-56.5419 615.417,-59.8826 615.306,-52.8835"/>
</g>
<!-- Node5&#45;&gt;Node6 -->
<g id="edge5" class="edge"><title>Node5&#45;&gt;Node6</title>
<path fill="none" stroke="midnightblue" d="M764.709,-78.6822C779.334,-74.6638 794.794,-70.416 808.908,-66.538"/>
<polygon fill="midnightblue" stroke="midnightblue" points="763.459,-75.3958 754.744,-81.4202 765.314,-82.1456 763.459,-75.3958"/>
</g>
</g>
</svg>
