<?xml version="1.0" encoding="UTF-8" standalone="no"?>
<!DOCTYPE svg PUBLIC "-//W3C//DTD SVG 1.1//EN"
 "http://www.w3.org/Graphics/SVG/1.1/DTD/svg11.dtd">
<!-- Generated by graphviz version 2.38.0 (20140413.2041)
 -->
<!-- Title: prior_hessian::TruncatedDist::global_ubound Pages: 1 -->
<svg width="592pt" height="170pt"
 viewBox="0.00 0.00 592.00 170.00" xmlns="http://www.w3.org/2000/svg" xmlns:xlink="http://www.w3.org/1999/xlink">
<g id="graph0" class="graph" transform="scale(1 1) rotate(0) translate(4 166)">
<title>prior_hessian::TruncatedDist::global_ubound</title>
<polygon fill="white" stroke="none" points="-4,4 -4,-166 588,-166 588,4 -4,4"/>
<!-- Node1 -->
<g id="node1" class="node"><title>Node1</title>
<polygon fill="#bfbfbf" stroke="black" points="0,-68.5 0,-96.5 119,-96.5 119,-68.5 0,-68.5"/>
<text text-anchor="start" x="8" y="-85.3" font-family="Helvetica,sans-Serif" font-size="9.00">prior_hessian::Truncated</text>
<text text-anchor="middle" x="59.5" y="-75.3" font-family="Helvetica,sans-Serif" font-size="9.00">Dist::global_ubound</text>
</g>
<!-- Node2 -->
<g id="node2" class="node"><title>Node2</title>
<g id="a_node2"><a xlink:href="classprior__hessian_1_1TruncatedDist.html#a9189a3e17c4bf37c22aebe327b79dd63" target="_top" xlink:title="prior_hessian::Truncated\lDist::set_bounds">
<polygon fill="white" stroke="black" points="155,-68.5 155,-96.5 274,-96.5 274,-68.5 155,-68.5"/>
<text text-anchor="start" x="163" y="-85.3" font-family="Helvetica,sans-Serif" font-size="9.00">prior_hessian::Truncated</text>
<text text-anchor="middle" x="214.5" y="-75.3" font-family="Helvetica,sans-Serif" font-size="9.00">Dist::set_bounds</text>
</a>
</g>
</g>
<!-- Node1&#45;&gt;Node2 -->
<g id="edge1" class="edge"><title>Node1&#45;&gt;Node2</title>
<path fill="none" stroke="midnightblue" d="M129.493,-82.5C137.993,-82.5 146.617,-82.5 154.941,-82.5"/>
<polygon fill="midnightblue" stroke="midnightblue" points="129.216,-79.0001 119.216,-82.5 129.216,-86.0001 129.216,-79.0001"/>
</g>
<!-- Node3 -->
<g id="node3" class="node"><title>Node3</title>
<g id="a_node3"><a xlink:href="classprior__hessian_1_1TruncatedDist.html#a645357d7c21e4aaa39764ca122b1f7c4" target="_top" xlink:title="prior_hessian::Truncated\lDist::TruncatedDist">
<polygon fill="white" stroke="black" points="310,-133.5 310,-161.5 429,-161.5 429,-133.5 310,-133.5"/>
<text text-anchor="start" x="318" y="-150.3" font-family="Helvetica,sans-Serif" font-size="9.00">prior_hessian::Truncated</text>
<text text-anchor="middle" x="369.5" y="-140.3" font-family="Helvetica,sans-Serif" font-size="9.00">Dist::TruncatedDist</text>
</a>
</g>
</g>
<!-- Node2&#45;&gt;Node3 -->
<g id="edge2" class="edge"><title>Node2&#45;&gt;Node3</title>
<path fill="none" stroke="midnightblue" d="M258.089,-100.593C282.515,-110.971 312.725,-123.805 335.366,-133.423"/>
<polygon fill="midnightblue" stroke="midnightblue" points="259.271,-97.2929 248.699,-96.604 256.534,-103.736 259.271,-97.2929"/>
</g>
<!-- Node4 -->
<g id="node4" class="node"><title>Node4</title>
<g id="a_node4"><a xlink:href="classprior__hessian_1_1TruncatedDist.html#a05934e74d38db5bd77df1609f43c7d71" target="_top" xlink:title="prior_hessian::Truncated\lDist::operator!=">
<polygon fill="white" stroke="black" points="465,-47.5 465,-75.5 584,-75.5 584,-47.5 465,-47.5"/>
<text text-anchor="start" x="473" y="-64.3" font-family="Helvetica,sans-Serif" font-size="9.00">prior_hessian::Truncated</text>
<text text-anchor="middle" x="524.5" y="-54.3" font-family="Helvetica,sans-Serif" font-size="9.00">Dist::operator!=</text>
</a>
</g>
</g>
<!-- Node2&#45;&gt;Node4 -->
<g id="edge3" class="edge"><title>Node2&#45;&gt;Node4</title>
<path fill="none" stroke="midnightblue" d="M284.3,-88.2704C326.27,-90.6004 380.916,-91.5105 429,-85.5 445.125,-83.4844 462.445,-79.6055 477.796,-75.5443"/>
<polygon fill="midnightblue" stroke="midnightblue" points="284.379,-84.7689 274.188,-87.6681 283.962,-91.7565 284.379,-84.7689"/>
</g>
<!-- Node5 -->
<g id="node5" class="node"><title>Node5</title>
<g id="a_node5"><a xlink:href="classprior__hessian_1_1TruncatedDist.html#a21ef557361b62e4c657154d12cb032c2" target="_top" xlink:title="prior_hessian::Truncated\lDist::set_lbound">
<polygon fill="white" stroke="black" points="310,-47.5 310,-75.5 429,-75.5 429,-47.5 310,-47.5"/>
<text text-anchor="start" x="318" y="-64.3" font-family="Helvetica,sans-Serif" font-size="9.00">prior_hessian::Truncated</text>
<text text-anchor="middle" x="369.5" y="-54.3" font-family="Helvetica,sans-Serif" font-size="9.00">Dist::set_lbound</text>
</a>
</g>
</g>
<!-- Node2&#45;&gt;Node5 -->
<g id="edge4" class="edge"><title>Node2&#45;&gt;Node5</title>
<path fill="none" stroke="midnightblue" d="M284.213,-73.0688C292.803,-71.8898 301.525,-70.6926 309.941,-69.5375"/>
<polygon fill="midnightblue" stroke="midnightblue" points="283.647,-69.6135 274.216,-74.4409 284.599,-76.5485 283.647,-69.6135"/>
</g>
<!-- Node6 -->
<g id="node6" class="node"><title>Node6</title>
<g id="a_node6"><a xlink:href="classprior__hessian_1_1TruncatedDist.html#ac2d919896743958e03a188b5dde6661e" target="_top" xlink:title="prior_hessian::Truncated\lDist::set_ubound">
<polygon fill="white" stroke="black" points="310,-0.5 310,-28.5 429,-28.5 429,-0.5 310,-0.5"/>
<text text-anchor="start" x="318" y="-17.3" font-family="Helvetica,sans-Serif" font-size="9.00">prior_hessian::Truncated</text>
<text text-anchor="middle" x="369.5" y="-7.3" font-family="Helvetica,sans-Serif" font-size="9.00">Dist::set_ubound</text>
</a>
</g>
</g>
<!-- Node2&#45;&gt;Node6 -->
<g id="edge6" class="edge"><title>Node2&#45;&gt;Node6</title>
<path fill="none" stroke="midnightblue" d="M253.837,-64.1575C270.943,-56.1012 291.395,-46.6425 310,-38.5 317.543,-35.199 325.687,-31.7722 333.433,-28.5767"/>
<polygon fill="midnightblue" stroke="midnightblue" points="252.257,-61.0334 244.712,-68.4718 255.248,-67.3619 252.257,-61.0334"/>
</g>
<!-- Node5&#45;&gt;Node4 -->
<g id="edge5" class="edge"><title>Node5&#45;&gt;Node4</title>
<path fill="none" stroke="midnightblue" d="M439.493,-61.5C447.993,-61.5 456.617,-61.5 464.941,-61.5"/>
<polygon fill="midnightblue" stroke="midnightblue" points="439.216,-58.0001 429.216,-61.5 439.216,-65.0001 439.216,-58.0001"/>
</g>
<!-- Node6&#45;&gt;Node4 -->
<g id="edge7" class="edge"><title>Node6&#45;&gt;Node4</title>
<path fill="none" stroke="midnightblue" d="M426.207,-31.6125C443.192,-36.8301 461.657,-42.5024 477.891,-47.4894"/>
<polygon fill="midnightblue" stroke="midnightblue" points="426.992,-28.1924 416.405,-28.6015 424.936,-34.8838 426.992,-28.1924"/>
</g>
</g>
</svg>
