<?xml version="1.0" encoding="UTF-8" standalone="no"?>
<!DOCTYPE svg PUBLIC "-//W3C//DTD SVG 1.1//EN"
 "http://www.w3.org/Graphics/SVG/1.1/DTD/svg11.dtd">
<!-- Generated by graphviz version 2.38.0 (20140413.2041)
 -->
<!-- Title: prior_hessian::CompositeDist::set_param_names Pages: 1 -->
<!--zoomable 657 -->
<svg id="main" version="1.1" xmlns="http://www.w3.org/2000/svg" xmlns:xlink="http://www.w3.org/1999/xlink" xml:space="preserve" onload="init(evt)">
<style type="text/css"><![CDATA[
.edge:hover path { stroke: red; }
.edge:hover polygon { stroke: red; fill: red; }
]]></style>
<script type="text/javascript"><![CDATA[
var edges = document.getElementsByTagName('g');
if (edges && edges.length) {
  for (var i=0;i<edges.length;i++) {
    if (edges[i].id.substr(0,4)=='edge') {
      edges[i].setAttribute('class','edge');
    }
  }
}
]]></script>
        <defs>
                <circle id="rim" cx="0" cy="0" r="7"/>
                <circle id="rim2" cx="0" cy="0" r="3.5"/>
                <g id="zoomPlus">
                        <use xlink:href="#rim" fill="#404040">
                                <set attributeName="fill" to="#808080" begin="zoomplus.mouseover" end="zoomplus.mouseout"/>
                        </use>
                        <path d="M-4,0h8M0,-4v8" fill="none" stroke="white" stroke-width="1.5" pointer-events="none"/>
                </g>
                <g id="zoomMin">
                        <use xlink:href="#rim" fill="#404040">
                                <set attributeName="fill" to="#808080" begin="zoomminus.mouseover" end="zoomminus.mouseout"/>
                        </use>
                        <path d="M-4,0h8" fill="none" stroke="white" stroke-width="1.5" pointer-events="none"/>
                </g>
                <g id="dirArrow">
                        <path fill="none" stroke="white" stroke-width="1.5" d="M0,-3.0v7 M-2.5,-0.5L0,-3.0L2.5,-0.5"/>
                </g>
               <g id="resetDef">
                       <use xlink:href="#rim2" fill="#404040">
                               <set attributeName="fill" to="#808080" begin="reset.mouseover" end="reset.mouseout"/>
                       </use>
               </g>
        </defs>

<script type="text/javascript">
var viewWidth = 795;
var viewHeight = 657;
var sectionId = 'dynsection-78';
</script>
<script xlink:href="svgpan.js"/>
<svg id="graph" class="graph">
<g id="viewport">
<title>prior_hessian::CompositeDist::set_param_names</title>
<polygon fill="white" stroke="none" points="-4,4 -4,-652.501 791,-652.501 791,4 -4,4"/>
<!-- Node1 -->
<g id="node1" class="node"><title>Node1</title>
<polygon fill="#bfbfbf" stroke="black" points="0,-307.001 0,-335.001 122,-335.001 122,-307.001 0,-307.001"/>
<text text-anchor="start" x="8" y="-323.801" font-family="Helvetica,sans-Serif" font-size="9.00">prior_hessian::Composite</text>
<text text-anchor="middle" x="61" y="-313.801" font-family="Helvetica,sans-Serif" font-size="9.00">Dist::set_param_names</text>
</g>
<!-- Node2 -->
<g id="node2" class="node"><title>Node2</title>
<g id="a_node2"><a xlink:href="classprior__hessian_1_1CompositeDist.html#ae7742f32d7e64ca2c7b55132a8ae6895" target="_top" xlink:title="prior_hessian::Composite\lDist::num_params">
<polygon fill="white" stroke="black" points="320.5,-620.001 320.5,-648.001 442.5,-648.001 442.5,-620.001 320.5,-620.001"/>
<text text-anchor="start" x="328.5" y="-636.801" font-family="Helvetica,sans-Serif" font-size="9.00">prior_hessian::Composite</text>
<text text-anchor="middle" x="381.5" y="-626.801" font-family="Helvetica,sans-Serif" font-size="9.00">Dist::num_params</text>
</a>
</g>
</g>
<!-- Node1&#45;&gt;Node2 -->
<g id="edge1" class="edge"><title>Node1&#45;&gt;Node2</title>
<path fill="none" stroke="midnightblue" d="M71.4679,-335.304C101.967,-380.44 202.303,-521.787 316,-605.001 321.201,-608.808 326.982,-612.274 332.886,-615.377"/>
<polygon fill="midnightblue" stroke="midnightblue" points="331.68,-618.684 342.199,-619.953 334.767,-612.402 331.68,-618.684"/>
</g>
<!-- Node3 -->
<g id="node3" class="node"><title>Node3</title>
<g id="a_node3"><a xlink:href="namespaceprior__hessian.html#ab26e9ddc3b6a5caccf5d75e1a1e1af1b" target="_top" xlink:title="prior_hessian::operator\&lt;\&lt;">
<polygon fill="white" stroke="black" points="158,-312.001 158,-330.001 280,-330.001 280,-312.001 158,-312.001"/>
<text text-anchor="middle" x="219" y="-318.801" font-family="Helvetica,sans-Serif" font-size="9.00">prior_hessian::operator&lt;&lt;</text>
</a>
</g>
</g>
<!-- Node1&#45;&gt;Node3 -->
<g id="edge2" class="edge"><title>Node1&#45;&gt;Node3</title>
<path fill="none" stroke="midnightblue" d="M122.314,-321.001C130.604,-321.001 139.175,-321.001 147.626,-321.001"/>
<polygon fill="midnightblue" stroke="midnightblue" points="147.847,-324.502 157.847,-321.001 147.847,-317.502 147.847,-324.502"/>
</g>
<!-- Node14 -->
<g id="node14" class="node"><title>Node14</title>
<g id="a_node14"><a xlink:href="classprior__hessian_1_1CompositeDist.html#ae7ca30fd19fb59ebe241873443b9faed" target="_top" xlink:title="prior_hessian::Composite\lDist::param_names">
<polygon fill="white" stroke="black" points="320.5,-42.0015 320.5,-70.0015 442.5,-70.0015 442.5,-42.0015 320.5,-42.0015"/>
<text text-anchor="start" x="328.5" y="-58.8015" font-family="Helvetica,sans-Serif" font-size="9.00">prior_hessian::Composite</text>
<text text-anchor="middle" x="381.5" y="-48.8015" font-family="Helvetica,sans-Serif" font-size="9.00">Dist::param_names</text>
</a>
</g>
</g>
<!-- Node1&#45;&gt;Node14 -->
<g id="edge25" class="edge"><title>Node1&#45;&gt;Node14</title>
<path fill="none" stroke="midnightblue" d="M73.1058,-306.864C105.938,-265.946 207.082,-146.06 316,-79.0015 318.648,-77.3712 321.428,-75.8339 324.286,-74.3877"/>
<polygon fill="midnightblue" stroke="midnightblue" points="326.002,-77.4501 333.61,-70.0762 323.065,-71.0964 326.002,-77.4501"/>
</g>
<!-- Node3&#45;&gt;Node2 -->
<g id="edge14" class="edge"><title>Node3&#45;&gt;Node2</title>
<path fill="none" stroke="midnightblue" d="M223.755,-330.354C233.581,-354.971 260.628,-423.687 280,-482.001 297.957,-536.057 278.592,-562.047 316,-605.001 319.16,-608.63 322.864,-611.827 326.871,-614.639"/>
<polygon fill="midnightblue" stroke="midnightblue" points="325.089,-617.652 335.445,-619.888 328.744,-611.682 325.089,-617.652"/>
</g>
<!-- Node4 -->
<g id="node4" class="node"><title>Node4</title>
<g id="a_node4"><a xlink:href="classprior__hessian_1_1CompositeDist.html#a5f59bcbe24d659084fbe3dc188011779" target="_top" xlink:title="prior_hessian::Composite\lDist::component_names">
<polygon fill="white" stroke="black" points="495,-248.001 495,-276.001 617,-276.001 617,-248.001 495,-248.001"/>
<text text-anchor="start" x="503" y="-264.801" font-family="Helvetica,sans-Serif" font-size="9.00">prior_hessian::Composite</text>
<text text-anchor="middle" x="556" y="-254.801" font-family="Helvetica,sans-Serif" font-size="9.00">Dist::component_names</text>
</a>
</g>
</g>
<!-- Node3&#45;&gt;Node4 -->
<g id="edge3" class="edge"><title>Node3&#45;&gt;Node4</title>
<path fill="none" stroke="midnightblue" d="M252.697,-311.968C271.177,-307.079 294.765,-301.2 316,-297.001 372.459,-285.839 437.07,-276.586 484.867,-270.403"/>
<polygon fill="midnightblue" stroke="midnightblue" points="485.328,-273.873 494.802,-269.131 484.439,-266.929 485.328,-273.873"/>
</g>
<!-- Node5 -->
<g id="node5" class="node"><title>Node5</title>
<g id="a_node5"><a xlink:href="classprior__hessian_1_1CompositeDist.html#a9c8cf14584b037663fe8ef27f77e3bcf" target="_top" xlink:title="prior_hessian::Composite\lDist::dim_variables">
<polygon fill="white" stroke="black" points="495,-446.001 495,-474.001 617,-474.001 617,-446.001 495,-446.001"/>
<text text-anchor="start" x="503" y="-462.801" font-family="Helvetica,sans-Serif" font-size="9.00">prior_hessian::Composite</text>
<text text-anchor="middle" x="556" y="-452.801" font-family="Helvetica,sans-Serif" font-size="9.00">Dist::dim_variables</text>
</a>
</g>
</g>
<!-- Node3&#45;&gt;Node5 -->
<g id="edge4" class="edge"><title>Node3&#45;&gt;Node5</title>
<path fill="none" stroke="midnightblue" d="M221.94,-330.013C228.743,-359.099 254.52,-450.643 316,-486.001 378.412,-521.896 465.231,-497.612 515.226,-477.952"/>
<polygon fill="midnightblue" stroke="midnightblue" points="516.767,-481.104 524.716,-474.1 514.134,-474.618 516.767,-481.104"/>
</g>
<!-- Node6 -->
<g id="node6" class="node"><title>Node6</title>
<g id="a_node6"><a xlink:href="classprior__hessian_1_1CompositeDist.html#a4034220fc10fed2ff9ebe2f81061ab2f" target="_top" xlink:title="prior_hessian::Composite\lDist::global_lbound">
<polygon fill="white" stroke="black" points="320.5,-183.001 320.5,-211.001 442.5,-211.001 442.5,-183.001 320.5,-183.001"/>
<text text-anchor="start" x="328.5" y="-199.801" font-family="Helvetica,sans-Serif" font-size="9.00">prior_hessian::Composite</text>
<text text-anchor="middle" x="381.5" y="-189.801" font-family="Helvetica,sans-Serif" font-size="9.00">Dist::global_lbound</text>
</a>
</g>
</g>
<!-- Node3&#45;&gt;Node6 -->
<g id="edge5" class="edge"><title>Node3&#45;&gt;Node6</title>
<path fill="none" stroke="midnightblue" d="M227.333,-311.796C242.332,-293.45 278.298,-251.87 316,-226.001 321.578,-222.175 327.742,-218.652 333.982,-215.479"/>
<polygon fill="midnightblue" stroke="midnightblue" points="335.622,-218.574 343.119,-211.087 332.59,-212.265 335.622,-218.574"/>
</g>
<!-- Node7 -->
<g id="node7" class="node"><title>Node7</title>
<g id="a_node7"><a xlink:href="classprior__hessian_1_1CompositeDist.html#a7e98f7f421d90f4b640e956ddf38987c" target="_top" xlink:title="prior_hessian::Composite\lDist::global_ubound">
<polygon fill="white" stroke="black" points="320.5,-136.001 320.5,-164.001 442.5,-164.001 442.5,-136.001 320.5,-136.001"/>
<text text-anchor="start" x="328.5" y="-152.801" font-family="Helvetica,sans-Serif" font-size="9.00">prior_hessian::Composite</text>
<text text-anchor="middle" x="381.5" y="-142.801" font-family="Helvetica,sans-Serif" font-size="9.00">Dist::global_ubound</text>
</a>
</g>
</g>
<!-- Node3&#45;&gt;Node7 -->
<g id="edge6" class="edge"><title>Node3&#45;&gt;Node7</title>
<path fill="none" stroke="midnightblue" d="M223.442,-311.882C233.576,-286.222 265.786,-212.698 316,-173.001 317.781,-171.594 319.655,-170.268 321.598,-169.02"/>
<polygon fill="midnightblue" stroke="midnightblue" points="323.48,-171.977 330.489,-164.031 320.055,-165.872 323.48,-171.977"/>
</g>
<!-- Node8 -->
<g id="node8" class="node"><title>Node8</title>
<g id="a_node8"><a xlink:href="classprior__hessian_1_1CompositeDist.html#a46c83acc63b87837f3c4cb425e312d67" target="_top" xlink:title="prior_hessian::Composite\lDist::lbound">
<polygon fill="white" stroke="black" points="320.5,-89.0015 320.5,-117.001 442.5,-117.001 442.5,-89.0015 320.5,-89.0015"/>
<text text-anchor="start" x="328.5" y="-105.801" font-family="Helvetica,sans-Serif" font-size="9.00">prior_hessian::Composite</text>
<text text-anchor="middle" x="381.5" y="-95.8015" font-family="Helvetica,sans-Serif" font-size="9.00">Dist::lbound</text>
</a>
</g>
</g>
<!-- Node3&#45;&gt;Node8 -->
<g id="edge7" class="edge"><title>Node3&#45;&gt;Node8</title>
<path fill="none" stroke="midnightblue" d="M224.02,-311.841C240.2,-275.119 300.436,-139.872 316,-126.001 317.342,-124.805 318.751,-123.67 320.214,-122.593"/>
<polygon fill="midnightblue" stroke="midnightblue" points="322.474,-125.307 329.096,-117.036 318.762,-119.373 322.474,-125.307"/>
</g>
<!-- Node9 -->
<g id="node9" class="node"><title>Node9</title>
<g id="a_node9"><a xlink:href="classprior__hessian_1_1CompositeDist.html#a6faf6fbb059017af5756d4327bb504bc" target="_top" xlink:title="prior_hessian::Composite\lDist::num_components">
<polygon fill="white" stroke="black" points="495,-168.001 495,-196.001 617,-196.001 617,-168.001 495,-168.001"/>
<text text-anchor="start" x="503" y="-184.801" font-family="Helvetica,sans-Serif" font-size="9.00">prior_hessian::Composite</text>
<text text-anchor="middle" x="556" y="-174.801" font-family="Helvetica,sans-Serif" font-size="9.00">Dist::num_components</text>
</a>
</g>
</g>
<!-- Node3&#45;&gt;Node9 -->
<g id="edge8" class="edge"><title>Node3&#45;&gt;Node9</title>
<path fill="none" stroke="midnightblue" d="M236.377,-311.932C255.272,-301.635 287.416,-284.631 316,-272.001 350.959,-256.555 447.226,-221.096 506.37,-199.584"/>
<polygon fill="midnightblue" stroke="midnightblue" points="507.682,-202.831 515.886,-196.127 505.292,-196.252 507.682,-202.831"/>
</g>
<!-- Node10 -->
<g id="node10" class="node"><title>Node10</title>
<g id="a_node10"><a xlink:href="classprior__hessian_1_1CompositeDist.html#ad532e3fe9e7293fef7b293d3c94a1ddc" target="_top" xlink:title="prior_hessian::Composite\lDist::num_dim">
<polygon fill="white" stroke="black" points="665,-354.001 665,-382.001 787,-382.001 787,-354.001 665,-354.001"/>
<text text-anchor="start" x="673" y="-370.801" font-family="Helvetica,sans-Serif" font-size="9.00">prior_hessian::Composite</text>
<text text-anchor="middle" x="726" y="-360.801" font-family="Helvetica,sans-Serif" font-size="9.00">Dist::num_dim</text>
</a>
</g>
</g>
<!-- Node3&#45;&gt;Node10 -->
<g id="edge9" class="edge"><title>Node3&#45;&gt;Node10</title>
<path fill="none" stroke="midnightblue" d="M224.851,-330.185C235.742,-351.048 262.545,-403.788 280,-450.001 299.976,-502.888 270.72,-538.152 316,-572.001 431.74,-658.522 515.279,-573.16 629,-484.001 663.262,-457.139 693.576,-416.132 710.577,-390.754"/>
<polygon fill="midnightblue" stroke="midnightblue" points="713.654,-392.446 716.221,-382.167 707.804,-388.601 713.654,-392.446"/>
</g>
<!-- Node11 -->
<g id="node11" class="node"><title>Node11</title>
<g id="a_node11"><a xlink:href="classprior__hessian_1_1CompositeDist.html#ab33784dcc2971ebaae40e6138bd1e4c2" target="_top" xlink:title="prior_hessian::Composite\lDist::num_dim_components">
<polygon fill="white" stroke="black" points="316,-354.001 316,-382.001 447,-382.001 447,-354.001 316,-354.001"/>
<text text-anchor="start" x="324" y="-370.801" font-family="Helvetica,sans-Serif" font-size="9.00">prior_hessian::Composite</text>
<text text-anchor="middle" x="381.5" y="-360.801" font-family="Helvetica,sans-Serif" font-size="9.00">Dist::num_dim_components</text>
</a>
</g>
</g>
<!-- Node3&#45;&gt;Node11 -->
<g id="edge10" class="edge"><title>Node3&#45;&gt;Node11</title>
<path fill="none" stroke="midnightblue" d="M250.946,-330.064C271.282,-336.019 298.514,-343.993 322.762,-351.094"/>
<polygon fill="midnightblue" stroke="midnightblue" points="322.009,-354.52 332.589,-353.972 323.976,-347.802 322.009,-354.52"/>
</g>
<!-- Node13 -->
<g id="node13" class="node"><title>Node13</title>
<g id="a_node13"><a xlink:href="classprior__hessian_1_1CompositeDist.html#a389c0e5459eeacc5f35afdf14d6a38d7" target="_top" xlink:title="prior_hessian::Composite\lDist::num_params_components">
<polygon fill="white" stroke="black" points="483,-7.00146 483,-35.0015 629,-35.0015 629,-7.00146 483,-7.00146"/>
<text text-anchor="start" x="491" y="-23.8015" font-family="Helvetica,sans-Serif" font-size="9.00">prior_hessian::Composite</text>
<text text-anchor="middle" x="556" y="-13.8015" font-family="Helvetica,sans-Serif" font-size="9.00">Dist::num_params_components</text>
</a>
</g>
</g>
<!-- Node3&#45;&gt;Node13 -->
<g id="edge15" class="edge"><title>Node3&#45;&gt;Node13</title>
<path fill="none" stroke="midnightblue" d="M219.699,-311.934C218.895,-271.138 221.581,-103.487 316,-32.0015 364.665,4.84366 436.214,3.01264 488.338,-5.23264"/>
<polygon fill="midnightblue" stroke="midnightblue" points="488.046,-8.73317 498.491,-6.95766 489.219,-1.83206 488.046,-8.73317"/>
</g>
<!-- Node3&#45;&gt;Node14 -->
<g id="edge16" class="edge"><title>Node3&#45;&gt;Node14</title>
<path fill="none" stroke="midnightblue" d="M224.341,-311.809C234.609,-289.918 260.957,-232.873 280,-184.001 297.911,-138.034 281.33,-114.098 316,-79.0015 317.07,-77.9178 318.195,-76.885 319.367,-75.9007"/>
<polygon fill="midnightblue" stroke="midnightblue" points="321.495,-78.6835 327.682,-70.0829 317.482,-72.9479 321.495,-78.6835"/>
</g>
<!-- Node15 -->
<g id="node15" class="node"><title>Node15</title>
<g id="a_node15"><a xlink:href="classprior__hessian_1_1CompositeDist.html#adc8761a6b3dda7ffe7d1694cebcd21f5" target="_top" xlink:title="prior_hessian::Composite\lDist::params">
<polygon fill="white" stroke="black" points="320.5,-534.001 320.5,-562.001 442.5,-562.001 442.5,-534.001 320.5,-534.001"/>
<text text-anchor="start" x="328.5" y="-550.801" font-family="Helvetica,sans-Serif" font-size="9.00">prior_hessian::Composite</text>
<text text-anchor="middle" x="381.5" y="-540.801" font-family="Helvetica,sans-Serif" font-size="9.00">Dist::params</text>
</a>
</g>
</g>
<!-- Node3&#45;&gt;Node15 -->
<g id="edge21" class="edge"><title>Node3&#45;&gt;Node15</title>
<path fill="none" stroke="midnightblue" d="M222.065,-330.207C229.417,-361.012 257.088,-461.769 316,-519.001 319.908,-522.798 324.399,-526.149 329.154,-529.096"/>
<polygon fill="midnightblue" stroke="midnightblue" points="327.487,-532.174 337.928,-533.973 330.887,-526.056 327.487,-532.174"/>
</g>
<!-- Node16 -->
<g id="node16" class="node"><title>Node16</title>
<g id="a_node16"><a xlink:href="classprior__hessian_1_1CompositeDist.html#a3520120621a69469e885ba64f08ede3a" target="_top" xlink:title="prior_hessian::Composite\lDist::params_lbound">
<polygon fill="white" stroke="black" points="320.5,-448.001 320.5,-476.001 442.5,-476.001 442.5,-448.001 320.5,-448.001"/>
<text text-anchor="start" x="328.5" y="-464.801" font-family="Helvetica,sans-Serif" font-size="9.00">prior_hessian::Composite</text>
<text text-anchor="middle" x="381.5" y="-454.801" font-family="Helvetica,sans-Serif" font-size="9.00">Dist::params_lbound</text>
</a>
</g>
</g>
<!-- Node3&#45;&gt;Node16 -->
<g id="edge22" class="edge"><title>Node3&#45;&gt;Node16</title>
<path fill="none" stroke="midnightblue" d="M225.011,-330.102C237.507,-351.992 272.218,-408.062 316,-439.001 318.124,-440.502 320.356,-441.915 322.662,-443.243"/>
<polygon fill="midnightblue" stroke="midnightblue" points="321.355,-446.506 331.85,-447.955 324.549,-440.277 321.355,-446.506"/>
</g>
<!-- Node17 -->
<g id="node17" class="node"><title>Node17</title>
<g id="a_node17"><a xlink:href="classprior__hessian_1_1CompositeDist.html#ab9eac2d70f484d2d0d4ead6a21d6f798" target="_top" xlink:title="prior_hessian::Composite\lDist::params_ubound">
<polygon fill="white" stroke="black" points="320.5,-401.001 320.5,-429.001 442.5,-429.001 442.5,-401.001 320.5,-401.001"/>
<text text-anchor="start" x="328.5" y="-417.801" font-family="Helvetica,sans-Serif" font-size="9.00">prior_hessian::Composite</text>
<text text-anchor="middle" x="381.5" y="-407.801" font-family="Helvetica,sans-Serif" font-size="9.00">Dist::params_ubound</text>
</a>
</g>
</g>
<!-- Node3&#45;&gt;Node17 -->
<g id="edge23" class="edge"><title>Node3&#45;&gt;Node17</title>
<path fill="none" stroke="midnightblue" d="M230.247,-330.194C247.093,-344.918 282.157,-373.964 316,-392.001 319.288,-393.754 322.739,-395.422 326.261,-397.001"/>
<polygon fill="midnightblue" stroke="midnightblue" points="325.12,-400.317 335.696,-400.964 327.832,-393.864 325.12,-400.317"/>
</g>
<!-- Node18 -->
<g id="node18" class="node"><title>Node18</title>
<g id="a_node18"><a xlink:href="classprior__hessian_1_1CompositeDist.html#aab0290d9dd418c2e7deb26e9f37eb74f" target="_top" xlink:title="prior_hessian::Composite\lDist::ubound">
<polygon fill="white" stroke="black" points="320.5,-307.001 320.5,-335.001 442.5,-335.001 442.5,-307.001 320.5,-307.001"/>
<text text-anchor="start" x="328.5" y="-323.801" font-family="Helvetica,sans-Serif" font-size="9.00">prior_hessian::Composite</text>
<text text-anchor="middle" x="381.5" y="-313.801" font-family="Helvetica,sans-Serif" font-size="9.00">Dist::ubound</text>
</a>
</g>
</g>
<!-- Node3&#45;&gt;Node18 -->
<g id="edge24" class="edge"><title>Node3&#45;&gt;Node18</title>
<path fill="none" stroke="midnightblue" d="M280.221,-321.001C289.992,-321.001 300.185,-321.001 310.171,-321.001"/>
<polygon fill="midnightblue" stroke="midnightblue" points="310.475,-324.502 320.475,-321.001 310.475,-317.502 310.475,-324.502"/>
</g>
<!-- Node11&#45;&gt;Node5 -->
<g id="edge11" class="edge"><title>Node11&#45;&gt;Node5</title>
<path fill="none" stroke="midnightblue" d="M424.324,-382.13C431.986,-385.12 439.824,-388.454 447,-392.001 475.456,-406.067 505.886,-425.686 527.168,-440.237"/>
<polygon fill="midnightblue" stroke="midnightblue" points="525.198,-443.13 535.415,-445.935 529.178,-437.371 525.198,-443.13"/>
</g>
<!-- Node12 -->
<g id="node12" class="node"><title>Node12</title>
<g id="a_node12"><a xlink:href="classprior__hessian_1_1CompositeDist.html#a6a84d1519fcee908bd41abd4a989f666" target="_top" xlink:title="prior_hessian::Composite\lDist::set_dim_variables">
<polygon fill="white" stroke="black" points="495,-354.001 495,-382.001 617,-382.001 617,-354.001 495,-354.001"/>
<text text-anchor="start" x="503" y="-370.801" font-family="Helvetica,sans-Serif" font-size="9.00">prior_hessian::Composite</text>
<text text-anchor="middle" x="556" y="-360.801" font-family="Helvetica,sans-Serif" font-size="9.00">Dist::set_dim_variables</text>
</a>
</g>
</g>
<!-- Node11&#45;&gt;Node12 -->
<g id="edge12" class="edge"><title>Node11&#45;&gt;Node12</title>
<path fill="none" stroke="midnightblue" d="M447.223,-368.001C459.398,-368.001 472.183,-368.001 484.523,-368.001"/>
<polygon fill="midnightblue" stroke="midnightblue" points="484.76,-371.502 494.76,-368.001 484.76,-364.502 484.76,-371.502"/>
</g>
<!-- Node12&#45;&gt;Node10 -->
<g id="edge13" class="edge"><title>Node12&#45;&gt;Node10</title>
<path fill="none" stroke="midnightblue" d="M617.177,-368.001C629.314,-368.001 642.174,-368.001 654.624,-368.001"/>
<polygon fill="midnightblue" stroke="midnightblue" points="654.961,-371.502 664.961,-368.001 654.961,-364.502 654.961,-371.502"/>
</g>
<!-- Node14&#45;&gt;Node4 -->
<g id="edge17" class="edge"><title>Node14&#45;&gt;Node4</title>
<path fill="none" stroke="midnightblue" d="M435.821,-70.0838C439.936,-72.5863 443.747,-75.5326 447,-79.0015 486.839,-121.485 450.61,-156.598 483,-205.001 492.912,-219.815 507.898,-232.56 521.636,-242.219"/>
<polygon fill="midnightblue" stroke="midnightblue" points="519.721,-245.149 529.972,-247.825 523.628,-239.341 519.721,-245.149"/>
</g>
<!-- Node14&#45;&gt;Node9 -->
<g id="edge18" class="edge"><title>Node14&#45;&gt;Node9</title>
<path fill="none" stroke="midnightblue" d="M429.391,-70.0737C435.504,-72.6643 441.534,-75.6343 447,-79.0015 482.955,-101.15 516.904,-136.846 536.827,-159.861"/>
<polygon fill="midnightblue" stroke="midnightblue" points="534.365,-162.369 543.511,-167.719 539.697,-157.834 534.365,-162.369"/>
</g>
<!-- Node14&#45;&gt;Node10 -->
<g id="edge19" class="edge"><title>Node14&#45;&gt;Node10</title>
<path fill="none" stroke="midnightblue" d="M442.607,-67.4374C497.427,-80.6841 577.505,-107.488 629,-158.001 683.478,-211.441 710.02,-301.527 720.048,-344.207"/>
<polygon fill="midnightblue" stroke="midnightblue" points="716.638,-344.998 722.249,-353.985 723.467,-343.461 716.638,-344.998"/>
</g>
<!-- Node14&#45;&gt;Node13 -->
<g id="edge20" class="edge"><title>Node14&#45;&gt;Node13</title>
<path fill="none" stroke="midnightblue" d="M442.832,-43.7602C453.469,-41.6019 464.686,-39.326 475.748,-37.0815"/>
<polygon fill="midnightblue" stroke="midnightblue" points="476.739,-40.4519 485.843,-35.0333 475.347,-33.5917 476.739,-40.4519"/>
</g>
</g>
</svg>
        <g id="navigator" transform="translate(0 0)" fill="#404254">
                <rect fill="#f2f5e9" fill-opacity="0.5" stroke="#606060" stroke-width=".5" x="0" y="0" width="60" height="60"/>
                <use id="zoomplus" xlink:href="#zoomPlus" x="17" y="9" onmousedown="handleZoom(evt,'in')"/>
                <use id="zoomminus" xlink:href="#zoomMin" x="42" y="9" onmousedown="handleZoom(evt,'out')"/>
                <use id="reset" xlink:href="#resetDef" x="30" y="36" onmousedown="handleReset()"/>
                <g id="arrowUp" xlink:href="#dirArrow" transform="translate(30 24)" onmousedown="handlePan(0,-1)">
                  <use xlink:href="#rim" fill="#404040">
                        <set attributeName="fill" to="#808080" begin="arrowUp.mouseover" end="arrowUp.mouseout"/>
                  </use>
                  <path fill="none" stroke="white" stroke-width="1.5" d="M0,-3.0v7 M-2.5,-0.5L0,-3.0L2.5,-0.5"/>
                </g>
                <g id="arrowRight" xlink:href="#dirArrow" transform="rotate(90) translate(36 -43)" onmousedown="handlePan(1,0)">
                  <use xlink:href="#rim" fill="#404040">
                        <set attributeName="fill" to="#808080" begin="arrowRight.mouseover" end="arrowRight.mouseout"/>
                  </use>
                  <path fill="none" stroke="white" stroke-width="1.5" d="M0,-3.0v7 M-2.5,-0.5L0,-3.0L2.5,-0.5"/>
                </g>
                <g id="arrowDown" xlink:href="#dirArrow" transform="rotate(180) translate(-30 -48)" onmousedown="handlePan(0,1)">
                  <use xlink:href="#rim" fill="#404040">
                        <set attributeName="fill" to="#808080" begin="arrowDown.mouseover" end="arrowDown.mouseout"/>
                  </use>
                  <path fill="none" stroke="white" stroke-width="1.5" d="M0,-3.0v7 M-2.5,-0.5L0,-3.0L2.5,-0.5"/>
                </g>
                <g id="arrowLeft" xlink:href="#dirArrow" transform="rotate(270) translate(-36 17)" onmousedown="handlePan(-1,0)">
                  <use xlink:href="#rim" fill="#404040">
                        <set attributeName="fill" to="#808080" begin="arrowLeft.mouseover" end="arrowLeft.mouseout"/>
                  </use>
                  <path fill="none" stroke="white" stroke-width="1.5" d="M0,-3.0v7 M-2.5,-0.5L0,-3.0L2.5,-0.5"/>
                </g>
        </g>
        <svg viewBox="0 0 15 15" width="100%" height="30px" preserveAspectRatio="xMaxYMin meet">
         <g id="arrow_out" transform="scale(0.3 0.3)">
          <a xlink:href="classprior__hessian_1_1CompositeDist_a38c4fdacf927824117d202422b04013c_cgraph_org.svg" target="_base">
           <rect id="button" ry="5" rx="5" y="6" x="6" height="38" width="38"
                fill="#f2f5e9" fill-opacity="0.5" stroke="#606060" stroke-width="1.0"/>
           <path id="arrow"
             d="M 11.500037,31.436501 C 11.940474,20.09759 22.043105,11.32322 32.158766,21.979434 L 37.068811,17.246167 C 37.068811,17.246167 37.088388,32 37.088388,32 L 22.160133,31.978069 C 22.160133,31.978069 26.997745,27.140456 26.997745,27.140456 C 18.528582,18.264221 13.291696,25.230495 11.500037,31.436501 z"
             style="fill:#404040;"/>
          </a>
         </g>
        </svg>
</svg>
