<?xml version="1.0" encoding="UTF-8" standalone="no"?>
<!DOCTYPE svg PUBLIC "-//W3C//DTD SVG 1.1//EN"
 "http://www.w3.org/Graphics/SVG/1.1/DTD/svg11.dtd">
<!-- Generated by graphviz version 2.38.0 (20140413.2041)
 -->
<!-- Title: prior_hessian::SymmetricBetaDist::beta Pages: 1 -->
<svg width="440pt" height="178pt"
 viewBox="0.00 0.00 440.00 178.00" xmlns="http://www.w3.org/2000/svg" xmlns:xlink="http://www.w3.org/1999/xlink">
<g id="graph0" class="graph" transform="scale(1 1) rotate(0) translate(4 174)">
<title>prior_hessian::SymmetricBetaDist::beta</title>
<polygon fill="white" stroke="none" points="-4,4 -4,-174 436,-174 436,4 -4,4"/>
<!-- Node1 -->
<g id="node1" class="node"><title>Node1</title>
<polygon fill="#bfbfbf" stroke="black" points="0,-70.5 0,-98.5 120,-98.5 120,-70.5 0,-70.5"/>
<text text-anchor="start" x="8" y="-87.3" font-family="Helvetica,sans-Serif" font-size="9.00">prior_hessian::Symmetric</text>
<text text-anchor="middle" x="60" y="-77.3" font-family="Helvetica,sans-Serif" font-size="9.00">BetaDist::beta</text>
</g>
<!-- Node2 -->
<g id="node2" class="node"><title>Node2</title>
<g id="a_node2"><a xlink:href="classprior__hessian_1_1SymmetricBetaDist.html#a705d0521091fc93418588af78d85cc52" target="_top" xlink:title="prior_hessian::Symmetric\lBetaDist::llh">
<polygon fill="white" stroke="black" points="156,-94.5 156,-122.5 276,-122.5 276,-94.5 156,-94.5"/>
<text text-anchor="start" x="164" y="-111.3" font-family="Helvetica,sans-Serif" font-size="9.00">prior_hessian::Symmetric</text>
<text text-anchor="middle" x="216" y="-101.3" font-family="Helvetica,sans-Serif" font-size="9.00">BetaDist::llh</text>
</a>
</g>
</g>
<!-- Node1&#45;&gt;Node2 -->
<g id="edge1" class="edge"><title>Node1&#45;&gt;Node2</title>
<path fill="none" stroke="midnightblue" d="M130.089,-95.2671C138.672,-96.6048 147.388,-97.9631 155.804,-99.2746"/>
<polygon fill="midnightblue" stroke="midnightblue" points="130.52,-91.7921 120.1,-93.7104 129.442,-98.7086 130.52,-91.7921"/>
</g>
<!-- Node4 -->
<g id="node4" class="node"><title>Node4</title>
<g id="a_node4"><a xlink:href="classprior__hessian_1_1SymmetricBetaDist.html#ad4d4bd09ccdf88bb70a66064fc3a9a9d" target="_top" xlink:title="prior_hessian::Symmetric\lBetaDist::operator==">
<polygon fill="white" stroke="black" points="156,-141.5 156,-169.5 276,-169.5 276,-141.5 156,-141.5"/>
<text text-anchor="start" x="164" y="-158.3" font-family="Helvetica,sans-Serif" font-size="9.00">prior_hessian::Symmetric</text>
<text text-anchor="middle" x="216" y="-148.3" font-family="Helvetica,sans-Serif" font-size="9.00">BetaDist::operator==</text>
</a>
</g>
</g>
<!-- Node1&#45;&gt;Node4 -->
<g id="edge3" class="edge"><title>Node1&#45;&gt;Node4</title>
<path fill="none" stroke="midnightblue" d="M96.151,-103.276C113.899,-112.495 135.883,-123.521 156,-132.5 162.827,-135.547 170.19,-138.598 177.322,-141.436"/>
<polygon fill="midnightblue" stroke="midnightblue" points="97.7714,-100.174 87.2882,-98.6403 94.5269,-106.377 97.7714,-100.174"/>
</g>
<!-- Node6 -->
<g id="node6" class="node"><title>Node6</title>
<g id="a_node6"><a xlink:href="classprior__hessian_1_1SymmetricBetaDist.html#a59cc29572feb20c003130c417249809d" target="_top" xlink:title="prior_hessian::Symmetric\lBetaDist::param_ubound">
<polygon fill="white" stroke="black" points="156,-47.5 156,-75.5 276,-75.5 276,-47.5 156,-47.5"/>
<text text-anchor="start" x="164" y="-64.3" font-family="Helvetica,sans-Serif" font-size="9.00">prior_hessian::Symmetric</text>
<text text-anchor="middle" x="216" y="-54.3" font-family="Helvetica,sans-Serif" font-size="9.00">BetaDist::param_ubound</text>
</a>
</g>
</g>
<!-- Node1&#45;&gt;Node6 -->
<g id="edge5" class="edge"><title>Node1&#45;&gt;Node6</title>
<path fill="none" stroke="midnightblue" d="M130.089,-74.1815C138.672,-72.8996 147.388,-71.5979 155.804,-70.341"/>
<polygon fill="midnightblue" stroke="midnightblue" points="129.473,-70.7346 120.1,-75.6734 130.507,-77.6578 129.473,-70.7346"/>
</g>
<!-- Node7 -->
<g id="node7" class="node"><title>Node7</title>
<g id="a_node7"><a xlink:href="classprior__hessian_1_1SymmetricBetaDist.html#a2db7bdb8013ac523f58d2b252ea0dbb4" target="_top" xlink:title="prior_hessian::Symmetric\lBetaDist::params">
<polygon fill="white" stroke="black" points="156,-0.5 156,-28.5 276,-28.5 276,-0.5 156,-0.5"/>
<text text-anchor="start" x="164" y="-17.3" font-family="Helvetica,sans-Serif" font-size="9.00">prior_hessian::Symmetric</text>
<text text-anchor="middle" x="216" y="-7.3" font-family="Helvetica,sans-Serif" font-size="9.00">BetaDist::params</text>
</a>
</g>
</g>
<!-- Node1&#45;&gt;Node7 -->
<g id="edge6" class="edge"><title>Node1&#45;&gt;Node7</title>
<path fill="none" stroke="midnightblue" d="M97.0604,-65.7296C114.663,-56.8066 136.256,-46.2125 156,-37.5 162.84,-34.4819 170.208,-31.4444 177.343,-28.6107"/>
<polygon fill="midnightblue" stroke="midnightblue" points="95.0444,-62.829 87.7284,-70.4924 98.2266,-69.0639 95.0444,-62.829"/>
</g>
<!-- Node3 -->
<g id="node3" class="node"><title>Node3</title>
<g id="a_node3"><a xlink:href="classprior__hessian_1_1SymmetricBetaDist.html#a642a881868f0f031bacc87877714cf8d" target="_top" xlink:title="prior_hessian::Symmetric\lBetaDist::median">
<polygon fill="white" stroke="black" points="312,-47.5 312,-75.5 432,-75.5 432,-47.5 312,-47.5"/>
<text text-anchor="start" x="320" y="-64.3" font-family="Helvetica,sans-Serif" font-size="9.00">prior_hessian::Symmetric</text>
<text text-anchor="middle" x="372" y="-54.3" font-family="Helvetica,sans-Serif" font-size="9.00">BetaDist::median</text>
</a>
</g>
</g>
<!-- Node2&#45;&gt;Node3 -->
<g id="edge2" class="edge"><title>Node2&#45;&gt;Node3</title>
<path fill="none" stroke="midnightblue" d="M273.071,-91.3875C290.167,-86.1699 308.753,-80.4976 325.093,-75.5106"/>
<polygon fill="midnightblue" stroke="midnightblue" points="271.748,-88.1318 263.205,-94.3985 273.791,-94.8269 271.748,-88.1318"/>
</g>
<!-- Node5 -->
<g id="node5" class="node"><title>Node5</title>
<g id="a_node5"><a xlink:href="classprior__hessian_1_1SymmetricBetaDist.html#afdc7ff36dab9f6a2de9f53f12ca87973" target="_top" xlink:title="prior_hessian::Symmetric\lBetaDist::operator!=">
<polygon fill="white" stroke="black" points="312,-141.5 312,-169.5 432,-169.5 432,-141.5 312,-141.5"/>
<text text-anchor="start" x="320" y="-158.3" font-family="Helvetica,sans-Serif" font-size="9.00">prior_hessian::Symmetric</text>
<text text-anchor="middle" x="372" y="-148.3" font-family="Helvetica,sans-Serif" font-size="9.00">BetaDist::operator!=</text>
</a>
</g>
</g>
<!-- Node4&#45;&gt;Node5 -->
<g id="edge4" class="edge"><title>Node4&#45;&gt;Node5</title>
<path fill="none" stroke="midnightblue" d="M286.369,-155.5C294.862,-155.5 303.48,-155.5 311.804,-155.5"/>
<polygon fill="midnightblue" stroke="midnightblue" points="286.1,-152 276.1,-155.5 286.1,-159 286.1,-152"/>
</g>
<!-- Node7&#45;&gt;Node3 -->
<g id="edge7" class="edge"><title>Node7&#45;&gt;Node3</title>
<path fill="none" stroke="midnightblue" d="M273.071,-31.6125C290.167,-36.8301 308.753,-42.5024 325.093,-47.4894"/>
<polygon fill="midnightblue" stroke="midnightblue" points="273.791,-28.1731 263.205,-28.6015 271.748,-34.8682 273.791,-28.1731"/>
</g>
</g>
</svg>
