<?xml version="1.0" encoding="UTF-8" standalone="no"?>
<!DOCTYPE svg PUBLIC "-//W3C//DTD SVG 1.1//EN"
 "http://www.w3.org/Graphics/SVG/1.1/DTD/svg11.dtd">
<!-- Generated by graphviz version 2.38.0 (20140413.2041)
 -->
<!-- Title: prior_hessian::TruncatedDist::icdf Pages: 1 -->
<svg width="437pt" height="58pt"
 viewBox="0.00 0.00 437.00 58.00" xmlns="http://www.w3.org/2000/svg" xmlns:xlink="http://www.w3.org/1999/xlink">
<g id="graph0" class="graph" transform="scale(1 1) rotate(0) translate(4 54)">
<title>prior_hessian::TruncatedDist::icdf</title>
<polygon fill="white" stroke="none" points="-4,4 -4,-54 433,-54 433,4 -4,4"/>
<!-- Node1 -->
<g id="node1" class="node"><title>Node1</title>
<polygon fill="#bfbfbf" stroke="black" points="0,-21.5 0,-49.5 119,-49.5 119,-21.5 0,-21.5"/>
<text text-anchor="start" x="8" y="-38.3" font-family="Helvetica,sans-Serif" font-size="9.00">prior_hessian::Truncated</text>
<text text-anchor="middle" x="59.5" y="-28.3" font-family="Helvetica,sans-Serif" font-size="9.00">Dist::icdf</text>
</g>
<!-- Node2 -->
<g id="node2" class="node"><title>Node2</title>
<g id="a_node2"><a xlink:href="classprior__hessian_1_1TruncatedDist.html#a566af94b4be2dcc02bee64a33c936015" target="_top" xlink:title="prior_hessian::Truncated\lDist::median">
<polygon fill="white" stroke="black" points="310,-21.5 310,-49.5 429,-49.5 429,-21.5 310,-21.5"/>
<text text-anchor="start" x="318" y="-38.3" font-family="Helvetica,sans-Serif" font-size="9.00">prior_hessian::Truncated</text>
<text text-anchor="middle" x="369.5" y="-28.3" font-family="Helvetica,sans-Serif" font-size="9.00">Dist::median</text>
</a>
</g>
</g>
<!-- Node1&#45;&gt;Node2 -->
<g id="edge1" class="edge"><title>Node1&#45;&gt;Node2</title>
<path fill="none" stroke="midnightblue" d="M129.308,-37.9392C137.957,-38.1708 146.684,-38.368 155,-38.5 207.882,-39.3392 221.118,-39.3392 274,-38.5 285.571,-38.3164 297.935,-38.0064 309.779,-37.6535"/>
<polygon fill="midnightblue" stroke="midnightblue" points="129.316,-34.4381 119.221,-37.6535 129.118,-41.4353 129.316,-34.4381"/>
</g>
<!-- Node3 -->
<g id="node3" class="node"><title>Node3</title>
<g id="a_node3"><a xlink:href="classprior__hessian_1_1TruncatedDist.html#aac8ee6fc71aefe73e71152b9d4a5529e" target="_top" xlink:title="prior_hessian::Truncated\lDist::sample">
<polygon fill="white" stroke="black" points="155,-0.5 155,-28.5 274,-28.5 274,-0.5 155,-0.5"/>
<text text-anchor="start" x="163" y="-17.3" font-family="Helvetica,sans-Serif" font-size="9.00">prior_hessian::Truncated</text>
<text text-anchor="middle" x="214.5" y="-7.3" font-family="Helvetica,sans-Serif" font-size="9.00">Dist::sample</text>
</a>
</g>
</g>
<!-- Node1&#45;&gt;Node3 -->
<g id="edge2" class="edge"><title>Node1&#45;&gt;Node3</title>
<path fill="none" stroke="midnightblue" d="M129.213,-26.0688C137.803,-24.8898 146.525,-23.6926 154.941,-22.5375"/>
<polygon fill="midnightblue" stroke="midnightblue" points="128.647,-22.6135 119.216,-27.4409 129.599,-29.5485 128.647,-22.6135"/>
</g>
<!-- Node3&#45;&gt;Node2 -->
<g id="edge3" class="edge"><title>Node3&#45;&gt;Node2</title>
<path fill="none" stroke="midnightblue" d="M284.213,-23.9312C292.803,-25.1102 301.525,-26.3074 309.941,-27.4625"/>
<polygon fill="midnightblue" stroke="midnightblue" points="284.599,-20.4515 274.216,-22.5591 283.647,-27.3865 284.599,-20.4515"/>
</g>
</g>
</svg>
