<?xml version="1.0" encoding="UTF-8" standalone="no"?>
<!DOCTYPE svg PUBLIC "-//W3C//DTD SVG 1.1//EN"
 "http://www.w3.org/Graphics/SVG/1.1/DTD/svg11.dtd">
<!-- Generated by graphviz version 2.38.0 (20140413.2041)
 -->
<!-- Title: prior_hessian::ScaledDist::median Pages: 1 -->
<svg width="639pt" height="234pt"
 viewBox="0.00 0.00 639.00 234.00" xmlns="http://www.w3.org/2000/svg" xmlns:xlink="http://www.w3.org/1999/xlink">
<g id="graph0" class="graph" transform="scale(1 1) rotate(0) translate(4 230)">
<title>prior_hessian::ScaledDist::median</title>
<polygon fill="white" stroke="none" points="-4,4 -4,-230 635,-230 635,4 -4,4"/>
<!-- Node1 -->
<g id="node1" class="node"><title>Node1</title>
<polygon fill="#bfbfbf" stroke="black" points="0,-105.5 0,-133.5 122,-133.5 122,-105.5 0,-105.5"/>
<text text-anchor="start" x="8" y="-122.3" font-family="Helvetica,sans-Serif" font-size="9.00">prior_hessian::ScaledDist</text>
<text text-anchor="middle" x="61" y="-112.3" font-family="Helvetica,sans-Serif" font-size="9.00">::median</text>
</g>
<!-- Node2 -->
<g id="node2" class="node"><title>Node2</title>
<g id="a_node2"><a xlink:href="classprior__hessian_1_1ScaledDist.html#a58daada799ea4dd02ab3ea581751d04c" target="_top" xlink:title="prior_hessian::ScaledDist::cdf">
<polygon fill="white" stroke="black" points="158.5,-207.5 158.5,-225.5 296.5,-225.5 296.5,-207.5 158.5,-207.5"/>
<text text-anchor="middle" x="227.5" y="-214.3" font-family="Helvetica,sans-Serif" font-size="9.00">prior_hessian::ScaledDist::cdf</text>
</a>
</g>
</g>
<!-- Node1&#45;&gt;Node2 -->
<g id="edge1" class="edge"><title>Node1&#45;&gt;Node2</title>
<path fill="none" stroke="midnightblue" d="M75.2463,-133.666C92.6012,-151.397 124.755,-181.497 158,-198.5 162.225,-200.661 166.733,-202.579 171.343,-204.279"/>
<polygon fill="midnightblue" stroke="midnightblue" points="170.295,-207.619 180.889,-207.47 172.514,-200.98 170.295,-207.619"/>
</g>
<!-- Node6 -->
<g id="node6" class="node"><title>Node6</title>
<g id="a_node6"><a xlink:href="classprior__hessian_1_1ScaledDist.html#a99eca9762537a354b6d2b1b0e26e1f01" target="_top" xlink:title="prior_hessian::ScaledDist\l::convert_from_unitary_coords">
<polygon fill="white" stroke="black" points="333,-118.5 333,-146.5 473,-146.5 473,-118.5 333,-118.5"/>
<text text-anchor="start" x="341" y="-135.3" font-family="Helvetica,sans-Serif" font-size="9.00">prior_hessian::ScaledDist</text>
<text text-anchor="middle" x="403" y="-125.3" font-family="Helvetica,sans-Serif" font-size="9.00">::convert_from_unitary_coords</text>
</a>
</g>
</g>
<!-- Node1&#45;&gt;Node6 -->
<g id="edge5" class="edge"><title>Node1&#45;&gt;Node6</title>
<path fill="none" stroke="midnightblue" d="M122.003,-121.794C177.894,-123.931 261.585,-127.131 322.912,-129.476"/>
<polygon fill="midnightblue" stroke="midnightblue" points="322.811,-132.975 332.937,-129.859 323.079,-125.98 322.811,-132.975"/>
</g>
<!-- Node7 -->
<g id="node7" class="node"><title>Node7</title>
<g id="a_node7"><a xlink:href="classprior__hessian_1_1ScaledDist.html#ac7b29b1849724c8e561a4cf01408d3f5" target="_top" xlink:title="prior_hessian::ScaledDist\l::icdf">
<polygon fill="white" stroke="black" points="166.5,-84.5 166.5,-112.5 288.5,-112.5 288.5,-84.5 166.5,-84.5"/>
<text text-anchor="start" x="174.5" y="-101.3" font-family="Helvetica,sans-Serif" font-size="9.00">prior_hessian::ScaledDist</text>
<text text-anchor="middle" x="227.5" y="-91.3" font-family="Helvetica,sans-Serif" font-size="9.00">::icdf</text>
</a>
</g>
</g>
<!-- Node1&#45;&gt;Node7 -->
<g id="edge8" class="edge"><title>Node1&#45;&gt;Node7</title>
<path fill="none" stroke="midnightblue" d="M122.32,-111.8C133.342,-110.393 144.931,-108.913 156.213,-107.473"/>
<polygon fill="midnightblue" stroke="midnightblue" points="156.986,-110.903 166.463,-106.164 156.1,-103.959 156.986,-110.903"/>
</g>
<!-- Node8 -->
<g id="node8" class="node"><title>Node8</title>
<g id="a_node8"><a xlink:href="classprior__hessian_1_1ScaledDist.html#add647c73f1879a66f98bcce1b95dd215" target="_top" xlink:title="prior_hessian::ScaledDist::llh">
<polygon fill="white" stroke="black" points="159.5,-0.5 159.5,-18.5 295.5,-18.5 295.5,-0.5 159.5,-0.5"/>
<text text-anchor="middle" x="227.5" y="-7.3" font-family="Helvetica,sans-Serif" font-size="9.00">prior_hessian::ScaledDist::llh</text>
</a>
</g>
</g>
<!-- Node1&#45;&gt;Node8 -->
<g id="edge10" class="edge"><title>Node1&#45;&gt;Node8</title>
<path fill="none" stroke="midnightblue" d="M72.7736,-105.358C89.0137,-85.0392 121.747,-47.8045 158,-27.5 161.681,-25.4383 165.606,-23.606 169.643,-21.9784"/>
<polygon fill="midnightblue" stroke="midnightblue" points="170.979,-25.2177 179.205,-18.5412 168.611,-18.6303 170.979,-25.2177"/>
</g>
<!-- Node9 -->
<g id="node9" class="node"><title>Node9</title>
<g id="a_node9"><a xlink:href="classprior__hessian_1_1ScaledDist.html#a9c2a6620b09c8f9dff9f712a628d9726" target="_top" xlink:title="prior_hessian::ScaledDist::pdf">
<polygon fill="white" stroke="black" points="158,-170.5 158,-188.5 297,-188.5 297,-170.5 158,-170.5"/>
<text text-anchor="middle" x="227.5" y="-177.3" font-family="Helvetica,sans-Serif" font-size="9.00">prior_hessian::ScaledDist::pdf</text>
</a>
</g>
</g>
<!-- Node1&#45;&gt;Node9 -->
<g id="edge11" class="edge"><title>Node1&#45;&gt;Node9</title>
<path fill="none" stroke="midnightblue" d="M98.8562,-133.535C116.687,-140.27 138.422,-148.4 158,-155.5 168.503,-159.309 179.948,-163.358 190.422,-167.025"/>
<polygon fill="midnightblue" stroke="midnightblue" points="189.51,-170.413 200.104,-170.402 191.815,-163.804 189.51,-170.413"/>
</g>
<!-- Node10 -->
<g id="node10" class="node"><title>Node10</title>
<g id="a_node10"><a xlink:href="classprior__hessian_1_1ScaledDist.html#a7a5642c7d22a621f820c494b84abb259" target="_top" xlink:title="prior_hessian::ScaledDist\l::sample">
<polygon fill="white" stroke="black" points="166.5,-37.5 166.5,-65.5 288.5,-65.5 288.5,-37.5 166.5,-37.5"/>
<text text-anchor="start" x="174.5" y="-54.3" font-family="Helvetica,sans-Serif" font-size="9.00">prior_hessian::ScaledDist</text>
<text text-anchor="middle" x="227.5" y="-44.3" font-family="Helvetica,sans-Serif" font-size="9.00">::sample</text>
</a>
</g>
</g>
<!-- Node1&#45;&gt;Node10 -->
<g id="edge13" class="edge"><title>Node1&#45;&gt;Node10</title>
<path fill="none" stroke="midnightblue" d="M89.7719,-105.45C108.744,-96.1084 134.592,-83.8803 158,-74.5 162.683,-72.6232 167.586,-70.7685 172.523,-68.9752"/>
<polygon fill="midnightblue" stroke="midnightblue" points="173.755,-72.2518 182.012,-65.6125 171.417,-65.6539 173.755,-72.2518"/>
</g>
<!-- Node3 -->
<g id="node3" class="node"><title>Node3</title>
<g id="a_node3"><a xlink:href="classprior__hessian_1_1ScaledDist.html#a8c264d2bf6cd034653972de02add2b46" target="_top" xlink:title="prior_hessian::ScaledDist\l::convert_to_unitary_coords">
<polygon fill="white" stroke="black" points="338,-165.5 338,-193.5 468,-193.5 468,-165.5 338,-165.5"/>
<text text-anchor="start" x="346" y="-182.3" font-family="Helvetica,sans-Serif" font-size="9.00">prior_hessian::ScaledDist</text>
<text text-anchor="middle" x="403" y="-172.3" font-family="Helvetica,sans-Serif" font-size="9.00">::convert_to_unitary_coords</text>
</a>
</g>
</g>
<!-- Node2&#45;&gt;Node3 -->
<g id="edge2" class="edge"><title>Node2&#45;&gt;Node3</title>
<path fill="none" stroke="midnightblue" d="M270.943,-207.449C288.193,-203.77 308.638,-199.41 328.187,-195.241"/>
<polygon fill="midnightblue" stroke="midnightblue" points="328.948,-198.657 337.999,-193.149 327.488,-191.811 328.948,-198.657"/>
</g>
<!-- Node4 -->
<g id="node4" class="node"><title>Node4</title>
<g id="a_node4"><a xlink:href="classprior__hessian_1_1ScaledDist.html#a46bce2de3c0e030e9e4542195ecb429f" target="_top" xlink:title="prior_hessian::ScaledDist\l::lbound">
<polygon fill="white" stroke="black" points="509,-165.5 509,-193.5 631,-193.5 631,-165.5 509,-165.5"/>
<text text-anchor="start" x="517" y="-182.3" font-family="Helvetica,sans-Serif" font-size="9.00">prior_hessian::ScaledDist</text>
<text text-anchor="middle" x="570" y="-172.3" font-family="Helvetica,sans-Serif" font-size="9.00">::lbound</text>
</a>
</g>
</g>
<!-- Node3&#45;&gt;Node4 -->
<g id="edge3" class="edge"><title>Node3&#45;&gt;Node4</title>
<path fill="none" stroke="midnightblue" d="M468.266,-179.5C478.31,-179.5 488.733,-179.5 498.9,-179.5"/>
<polygon fill="midnightblue" stroke="midnightblue" points="498.957,-183 508.957,-179.5 498.957,-176 498.957,-183"/>
</g>
<!-- Node5 -->
<g id="node5" class="node"><title>Node5</title>
<g id="a_node5"><a xlink:href="classprior__hessian_1_1ScaledDist.html#a364788705694bdd46cd5876e92e1ad87" target="_top" xlink:title="prior_hessian::ScaledDist\l::unscaled_lbound">
<polygon fill="white" stroke="black" points="509,-118.5 509,-146.5 631,-146.5 631,-118.5 509,-118.5"/>
<text text-anchor="start" x="517" y="-135.3" font-family="Helvetica,sans-Serif" font-size="9.00">prior_hessian::ScaledDist</text>
<text text-anchor="middle" x="570" y="-125.3" font-family="Helvetica,sans-Serif" font-size="9.00">::unscaled_lbound</text>
</a>
</g>
</g>
<!-- Node3&#45;&gt;Node5 -->
<g id="edge4" class="edge"><title>Node3&#45;&gt;Node5</title>
<path fill="none" stroke="midnightblue" d="M453.505,-165.398C471.288,-160.333 491.519,-154.57 510.027,-149.298"/>
<polygon fill="midnightblue" stroke="midnightblue" points="511.155,-152.616 519.814,-146.511 509.238,-145.884 511.155,-152.616"/>
</g>
<!-- Node6&#45;&gt;Node4 -->
<g id="edge6" class="edge"><title>Node6&#45;&gt;Node4</title>
<path fill="none" stroke="midnightblue" d="M453.505,-146.602C471.288,-151.667 491.519,-157.43 510.027,-162.702"/>
<polygon fill="midnightblue" stroke="midnightblue" points="509.238,-166.116 519.814,-165.489 511.155,-159.384 509.238,-166.116"/>
</g>
<!-- Node6&#45;&gt;Node5 -->
<g id="edge7" class="edge"><title>Node6&#45;&gt;Node5</title>
<path fill="none" stroke="midnightblue" d="M473.019,-132.5C481.494,-132.5 490.165,-132.5 498.66,-132.5"/>
<polygon fill="midnightblue" stroke="midnightblue" points="498.91,-136 508.91,-132.5 498.91,-129 498.91,-136"/>
</g>
<!-- Node7&#45;&gt;Node6 -->
<g id="edge9" class="edge"><title>Node7&#45;&gt;Node6</title>
<path fill="none" stroke="midnightblue" d="M288.695,-110.296C299.747,-112.462 311.435,-114.752 322.942,-117.007"/>
<polygon fill="midnightblue" stroke="midnightblue" points="322.5,-120.487 332.986,-118.976 323.846,-113.618 322.5,-120.487"/>
</g>
<!-- Node9&#45;&gt;Node3 -->
<g id="edge12" class="edge"><title>Node9&#45;&gt;Node3</title>
<path fill="none" stroke="midnightblue" d="M297.072,-179.5C307.159,-179.5 317.59,-179.5 327.785,-179.5"/>
<polygon fill="midnightblue" stroke="midnightblue" points="327.88,-183 337.88,-179.5 327.88,-176 327.88,-183"/>
</g>
<!-- Node10&#45;&gt;Node6 -->
<g id="edge14" class="edge"><title>Node10&#45;&gt;Node6</title>
<path fill="none" stroke="midnightblue" d="M274.26,-65.582C281.943,-68.31 289.765,-71.3185 297,-74.5 322.573,-85.7461 350.177,-101.132 370.661,-113.232"/>
<polygon fill="midnightblue" stroke="midnightblue" points="368.877,-116.243 379.258,-118.363 372.465,-110.232 368.877,-116.243"/>
</g>
</g>
</svg>
