<?xml version="1.0" encoding="UTF-8" standalone="no"?>
<!DOCTYPE svg PUBLIC "-//W3C//DTD SVG 1.1//EN"
 "http://www.w3.org/Graphics/SVG/1.1/DTD/svg11.dtd">
<!-- Generated by graphviz version 2.38.0 (20140413.2041)
 -->
<!-- Title: prior_hessian::MultivariateNormalDist::num_dim Pages: 1 -->
<svg width="777pt" height="96pt"
 viewBox="0.00 0.00 777.00 96.00" xmlns="http://www.w3.org/2000/svg" xmlns:xlink="http://www.w3.org/1999/xlink">
<g id="graph0" class="graph" transform="scale(1 1) rotate(0) translate(4 92)">
<title>prior_hessian::MultivariateNormalDist::num_dim</title>
<polygon fill="white" stroke="none" points="-4,4 -4,-92 773,-92 773,4 -4,4"/>
<!-- Node1 -->
<g id="node1" class="node"><title>Node1</title>
<polygon fill="#bfbfbf" stroke="black" points="0,-59.5 0,-87.5 125,-87.5 125,-59.5 0,-59.5"/>
<text text-anchor="start" x="8" y="-76.3" font-family="Helvetica,sans-Serif" font-size="9.00">prior_hessian::Multivariate</text>
<text text-anchor="middle" x="62.5" y="-66.3" font-family="Helvetica,sans-Serif" font-size="9.00">NormalDist::num_dim</text>
</g>
<!-- Node2 -->
<g id="node2" class="node"><title>Node2</title>
<g id="a_node2"><a xlink:href="classprior__hessian_1_1MultivariateNormalDist.html#a4512a641c493e33dfb93b5087e473c76" target="_top" xlink:title="prior_hessian::Multivariate\lNormalDist::rllh">
<polygon fill="white" stroke="black" points="161,-59.5 161,-87.5 286,-87.5 286,-59.5 161,-59.5"/>
<text text-anchor="start" x="169" y="-76.3" font-family="Helvetica,sans-Serif" font-size="9.00">prior_hessian::Multivariate</text>
<text text-anchor="middle" x="223.5" y="-66.3" font-family="Helvetica,sans-Serif" font-size="9.00">NormalDist::rllh</text>
</a>
</g>
</g>
<!-- Node1&#45;&gt;Node2 -->
<g id="edge1" class="edge"><title>Node1&#45;&gt;Node2</title>
<path fill="none" stroke="midnightblue" d="M135.592,-73.5C143.99,-73.5 152.499,-73.5 160.74,-73.5"/>
<polygon fill="midnightblue" stroke="midnightblue" points="135.429,-70.0001 125.429,-73.5 135.429,-77.0001 135.429,-70.0001"/>
</g>
<!-- Node3 -->
<g id="node3" class="node"><title>Node3</title>
<g id="a_node3"><a xlink:href="classprior__hessian_1_1MultivariateNormalDist.html#afdec8e6a453a2c69e0d84833d6b3e5ae" target="_top" xlink:title="prior_hessian::Multivariate\lNormalDist::mode">
<polygon fill="white" stroke="black" points="644,-43.5 644,-71.5 769,-71.5 769,-43.5 644,-43.5"/>
<text text-anchor="start" x="652" y="-60.3" font-family="Helvetica,sans-Serif" font-size="9.00">prior_hessian::Multivariate</text>
<text text-anchor="middle" x="706.5" y="-50.3" font-family="Helvetica,sans-Serif" font-size="9.00">NormalDist::mode</text>
</a>
</g>
</g>
<!-- Node2&#45;&gt;Node3 -->
<g id="edge2" class="edge"><title>Node2&#45;&gt;Node3</title>
<path fill="none" stroke="midnightblue" d="M296.253,-75.9588C304.927,-76.1819 313.663,-76.3718 322,-76.5 449.134,-78.4554 481.288,-80.0357 608,-69.5 619.642,-68.532 632.035,-67.2228 643.943,-65.8244"/>
<polygon fill="midnightblue" stroke="midnightblue" points="296.218,-72.4567 286.127,-75.6835 296.028,-79.4541 296.218,-72.4567"/>
</g>
<!-- Node4 -->
<g id="node4" class="node"><title>Node4</title>
<g id="a_node4"><a xlink:href="classprior__hessian_1_1MultivariateNormalDist.html#a3540b1bcafd58fe26de858c0a4aef3db" target="_top" xlink:title="prior_hessian::Multivariate\lNormalDist::llh">
<polygon fill="white" stroke="black" points="322,-38.5 322,-66.5 447,-66.5 447,-38.5 322,-38.5"/>
<text text-anchor="start" x="330" y="-55.3" font-family="Helvetica,sans-Serif" font-size="9.00">prior_hessian::Multivariate</text>
<text text-anchor="middle" x="384.5" y="-45.3" font-family="Helvetica,sans-Serif" font-size="9.00">NormalDist::llh</text>
</a>
</g>
</g>
<!-- Node2&#45;&gt;Node4 -->
<g id="edge3" class="edge"><title>Node2&#45;&gt;Node4</title>
<path fill="none" stroke="midnightblue" d="M296.592,-63.9784C304.99,-62.8693 313.499,-61.7454 321.74,-60.657"/>
<polygon fill="midnightblue" stroke="midnightblue" points="295.884,-60.5414 286.429,-65.3207 296.801,-67.4811 295.884,-60.5414"/>
</g>
<!-- Node4&#45;&gt;Node3 -->
<g id="edge4" class="edge"><title>Node4&#45;&gt;Node3</title>
<path fill="none" stroke="midnightblue" d="M457.426,-53.6238C513.559,-54.5009 590.702,-55.7063 643.99,-56.5389"/>
<polygon fill="midnightblue" stroke="midnightblue" points="457.253,-50.1208 447.199,-53.4641 457.143,-57.12 457.253,-50.1208"/>
</g>
<!-- Node5 -->
<g id="node5" class="node"><title>Node5</title>
<g id="a_node5"><a xlink:href="classprior__hessian_1_1MultivariateNormalDist.html#a67cba536341528564330b17dcbe5faff" target="_top" xlink:title="prior_hessian::Multivariate\lNormalDist::pdf">
<polygon fill="white" stroke="black" points="483,-0.5 483,-28.5 608,-28.5 608,-0.5 483,-0.5"/>
<text text-anchor="start" x="491" y="-17.3" font-family="Helvetica,sans-Serif" font-size="9.00">prior_hessian::Multivariate</text>
<text text-anchor="middle" x="545.5" y="-7.3" font-family="Helvetica,sans-Serif" font-size="9.00">NormalDist::pdf</text>
</a>
</g>
</g>
<!-- Node4&#45;&gt;Node5 -->
<g id="edge5" class="edge"><title>Node4&#45;&gt;Node5</title>
<path fill="none" stroke="midnightblue" d="M454.215,-36.0775C464.712,-33.5688 475.465,-30.999 485.722,-28.5475"/>
<polygon fill="midnightblue" stroke="midnightblue" points="453.166,-32.7295 444.254,-38.4582 454.794,-39.5377 453.166,-32.7295"/>
</g>
<!-- Node5&#45;&gt;Node3 -->
<g id="edge6" class="edge"><title>Node5&#45;&gt;Node3</title>
<path fill="none" stroke="midnightblue" d="M608.258,-31.2019C623.243,-35.2545 639.115,-39.5467 653.592,-43.462"/>
<polygon fill="midnightblue" stroke="midnightblue" points="609.13,-27.8119 598.563,-28.5798 607.302,-34.5691 609.13,-27.8119"/>
</g>
</g>
</svg>
