<?xml version="1.0" encoding="UTF-8" standalone="no"?>
<!DOCTYPE svg PUBLIC "-//W3C//DTD SVG 1.1//EN"
 "http://www.w3.org/Graphics/SVG/1.1/DTD/svg11.dtd">
<!-- Generated by graphviz version 2.38.0 (20140413.2041)
 -->
<!-- Title: prior_hessian::UpperTruncatedDist::set_bounds Pages: 1 -->
<svg width="512pt" height="106pt"
 viewBox="0.00 0.00 512.00 106.00" xmlns="http://www.w3.org/2000/svg" xmlns:xlink="http://www.w3.org/1999/xlink">
<g id="graph0" class="graph" transform="scale(1 1) rotate(0) translate(4 102)">
<title>prior_hessian::UpperTruncatedDist::set_bounds</title>
<polygon fill="white" stroke="none" points="-4,4 -4,-102 508,-102 508,4 -4,4"/>
<!-- Node1 -->
<g id="node1" class="node"><title>Node1</title>
<polygon fill="#bfbfbf" stroke="black" points="0,-22.5 0,-50.5 144,-50.5 144,-22.5 0,-22.5"/>
<text text-anchor="start" x="8" y="-39.3" font-family="Helvetica,sans-Serif" font-size="9.00">prior_hessian::UpperTruncated</text>
<text text-anchor="middle" x="72" y="-29.3" font-family="Helvetica,sans-Serif" font-size="9.00">Dist::set_bounds</text>
</g>
<!-- Node2 -->
<g id="node2" class="node"><title>Node2</title>
<g id="a_node2"><a xlink:href="classprior__hessian_1_1UpperTruncatedDist.html#a648dfc2c62b958ef82bd231ef74ac4d8" target="_top" xlink:title="prior_hessian::UpperTruncated\lDist::global_ubound">
<polygon fill="white" stroke="black" points="180,-69.5 180,-97.5 324,-97.5 324,-69.5 180,-69.5"/>
<text text-anchor="start" x="188" y="-86.3" font-family="Helvetica,sans-Serif" font-size="9.00">prior_hessian::UpperTruncated</text>
<text text-anchor="middle" x="252" y="-76.3" font-family="Helvetica,sans-Serif" font-size="9.00">Dist::global_ubound</text>
</a>
</g>
</g>
<!-- Node1&#45;&gt;Node2 -->
<g id="edge1" class="edge"><title>Node1&#45;&gt;Node2</title>
<path fill="none" stroke="midnightblue" d="M126.406,-50.6015C145.855,-55.7369 168.019,-61.5892 188.207,-66.9199"/>
<polygon fill="midnightblue" stroke="midnightblue" points="187.377,-70.3204 197.939,-69.4894 189.164,-63.5524 187.377,-70.3204"/>
</g>
<!-- Node3 -->
<g id="node3" class="node"><title>Node3</title>
<g id="a_node3"><a xlink:href="classprior__hessian_1_1UpperTruncatedDist.html#a9b3ea4f5bd030d14315d65682b01b9c4" target="_top" xlink:title="prior_hessian::UpperTruncated\lDist::set_lbound">
<polygon fill="white" stroke="black" points="180,-22.5 180,-50.5 324,-50.5 324,-22.5 180,-22.5"/>
<text text-anchor="start" x="188" y="-39.3" font-family="Helvetica,sans-Serif" font-size="9.00">prior_hessian::UpperTruncated</text>
<text text-anchor="middle" x="252" y="-29.3" font-family="Helvetica,sans-Serif" font-size="9.00">Dist::set_lbound</text>
</a>
</g>
</g>
<!-- Node1&#45;&gt;Node3 -->
<g id="edge2" class="edge"><title>Node1&#45;&gt;Node3</title>
<path fill="none" stroke="midnightblue" d="M144.118,-36.5C152.609,-36.5 161.327,-36.5 169.944,-36.5"/>
<polygon fill="midnightblue" stroke="midnightblue" points="169.995,-40.0001 179.995,-36.5 169.995,-33.0001 169.995,-40.0001"/>
</g>
<!-- Node4 -->
<g id="node4" class="node"><title>Node4</title>
<g id="a_node4"><a xlink:href="classprior__hessian_1_1UpperTruncatedDist.html#a047a08465860a8f2aea2af28760df905" target="_top" xlink:title="prior_hessian::UpperTruncated\lDist::ubound">
<polygon fill="white" stroke="black" points="360,-0.5 360,-28.5 504,-28.5 504,-0.5 360,-0.5"/>
<text text-anchor="start" x="368" y="-17.3" font-family="Helvetica,sans-Serif" font-size="9.00">prior_hessian::UpperTruncated</text>
<text text-anchor="middle" x="432" y="-7.3" font-family="Helvetica,sans-Serif" font-size="9.00">Dist::ubound</text>
</a>
</g>
</g>
<!-- Node1&#45;&gt;Node4 -->
<g id="edge4" class="edge"><title>Node1&#45;&gt;Node4</title>
<path fill="none" stroke="midnightblue" d="M127.348,-22.49C144.113,-18.7992 162.712,-15.3371 180,-13.5 236.435,-7.50305 300.411,-7.86663 349.649,-9.67118"/>
<polygon fill="midnightblue" stroke="midnightblue" points="349.794,-13.1795 359.924,-10.0763 350.07,-6.18496 349.794,-13.1795"/>
</g>
<!-- Node3&#45;&gt;Node4 -->
<g id="edge3" class="edge"><title>Node3&#45;&gt;Node4</title>
<path fill="none" stroke="midnightblue" d="M324.118,-27.7102C332.609,-26.6607 341.327,-25.5832 349.944,-24.5181"/>
<polygon fill="midnightblue" stroke="midnightblue" points="350.5,-27.9761 359.995,-23.2759 349.641,-21.029 350.5,-27.9761"/>
</g>
</g>
</svg>
