<?xml version="1.0" encoding="UTF-8" standalone="no"?>
<!DOCTYPE svg PUBLIC "-//W3C//DTD SVG 1.1//EN"
 "http://www.w3.org/Graphics/SVG/1.1/DTD/svg11.dtd">
<!-- Generated by graphviz version 2.38.0 (20140413.2041)
 -->
<!-- Title: prior_hessian::NormalDist::operator!= Pages: 1 -->
<!--zoomable 126 -->
<svg id="main" version="1.1" xmlns="http://www.w3.org/2000/svg" xmlns:xlink="http://www.w3.org/1999/xlink" xml:space="preserve" onload="init(evt)">
<style type="text/css"><![CDATA[
.edge:hover path { stroke: red; }
.edge:hover polygon { stroke: red; fill: red; }
]]></style>
<script type="text/javascript"><![CDATA[
var edges = document.getElementsByTagName('g');
if (edges && edges.length) {
  for (var i=0;i<edges.length;i++) {
    if (edges[i].id.substr(0,4)=='edge') {
      edges[i].setAttribute('class','edge');
    }
  }
}
]]></script>
        <defs>
                <circle id="rim" cx="0" cy="0" r="7"/>
                <circle id="rim2" cx="0" cy="0" r="3.5"/>
                <g id="zoomPlus">
                        <use xlink:href="#rim" fill="#404040">
                                <set attributeName="fill" to="#808080" begin="zoomplus.mouseover" end="zoomplus.mouseout"/>
                        </use>
                        <path d="M-4,0h8M0,-4v8" fill="none" stroke="white" stroke-width="1.5" pointer-events="none"/>
                </g>
                <g id="zoomMin">
                        <use xlink:href="#rim" fill="#404040">
                                <set attributeName="fill" to="#808080" begin="zoomminus.mouseover" end="zoomminus.mouseout"/>
                        </use>
                        <path d="M-4,0h8" fill="none" stroke="white" stroke-width="1.5" pointer-events="none"/>
                </g>
                <g id="dirArrow">
                        <path fill="none" stroke="white" stroke-width="1.5" d="M0,-3.0v7 M-2.5,-0.5L0,-3.0L2.5,-0.5"/>
                </g>
               <g id="resetDef">
                       <use xlink:href="#rim2" fill="#404040">
                               <set attributeName="fill" to="#808080" begin="reset.mouseover" end="reset.mouseout"/>
                       </use>
               </g>
        </defs>

<script type="text/javascript">
var viewWidth = 625;
var viewHeight = 126;
var sectionId = 'dynsection-30';
</script>
<script xlink:href="svgpan.js"/>
<svg id="graph" class="graph">
<g id="viewport">
<title>prior_hessian::NormalDist::operator!=</title>
<polygon fill="white" stroke="none" points="-4,4 -4,-122 621,-122 621,4 -4,4"/>
<!-- Node1 -->
<g id="node1" class="node"><title>Node1</title>
<polygon fill="#bfbfbf" stroke="black" points="0,-42.5 0,-70.5 123,-70.5 123,-42.5 0,-42.5"/>
<text text-anchor="start" x="8" y="-59.3" font-family="Helvetica,sans-Serif" font-size="9.00">prior_hessian::NormalDist</text>
<text text-anchor="middle" x="61.5" y="-49.3" font-family="Helvetica,sans-Serif" font-size="9.00">::operator!=</text>
</g>
<!-- Node2 -->
<g id="node2" class="node"><title>Node2</title>
<g id="a_node2"><a xlink:href="classprior__hessian_1_1NormalDist.html#a83016bf93c57e8acba0d749c2f7a0bac" target="_top" xlink:title="prior_hessian::NormalDist\l::get_param">
<polygon fill="white" stroke="black" points="159,-42.5 159,-70.5 282,-70.5 282,-42.5 159,-42.5"/>
<text text-anchor="start" x="167" y="-59.3" font-family="Helvetica,sans-Serif" font-size="9.00">prior_hessian::NormalDist</text>
<text text-anchor="middle" x="220.5" y="-49.3" font-family="Helvetica,sans-Serif" font-size="9.00">::get_param</text>
</a>
</g>
</g>
<!-- Node1&#45;&gt;Node2 -->
<g id="edge1" class="edge"><title>Node1&#45;&gt;Node2</title>
<path fill="none" stroke="midnightblue" d="M123.2,-56.5C131.635,-56.5 140.359,-56.5 148.955,-56.5"/>
<polygon fill="midnightblue" stroke="midnightblue" points="148.961,-60.0001 158.961,-56.5 148.961,-53.0001 148.961,-60.0001"/>
</g>
<!-- Node7 -->
<g id="node7" class="node"><title>Node7</title>
<g id="a_node7"><a xlink:href="classprior__hessian_1_1NormalDist.html#aa90f1b24ee10d8692ab29b2ab019d6f7" target="_top" xlink:title="prior_hessian::NormalDist\l::operator==">
<polygon fill="white" stroke="black" points="159,-89.5 159,-117.5 282,-117.5 282,-89.5 159,-89.5"/>
<text text-anchor="start" x="167" y="-106.3" font-family="Helvetica,sans-Serif" font-size="9.00">prior_hessian::NormalDist</text>
<text text-anchor="middle" x="220.5" y="-96.3" font-family="Helvetica,sans-Serif" font-size="9.00">::operator==</text>
</a>
</g>
</g>
<!-- Node1&#45;&gt;Node7 -->
<g id="edge6" class="edge"><title>Node1&#45;&gt;Node7</title>
<path fill="none" stroke="midnightblue" d="M109.605,-70.6015C126.292,-75.5969 145.244,-81.2705 162.655,-86.4826"/>
<polygon fill="midnightblue" stroke="midnightblue" points="162.115,-89.9745 172.699,-89.4894 164.123,-83.2685 162.115,-89.9745"/>
</g>
<!-- Node8 -->
<g id="node8" class="node"><title>Node8</title>
<g id="a_node8"><a xlink:href="classprior__hessian_1_1NormalDist.html#a91ba326ab256fdbf6491e8caedf33f48" target="_top" xlink:title="prior_hessian::NormalDist\l::set_param">
<polygon fill="white" stroke="black" points="326.5,-0.5 326.5,-28.5 449.5,-28.5 449.5,-0.5 326.5,-0.5"/>
<text text-anchor="start" x="334.5" y="-17.3" font-family="Helvetica,sans-Serif" font-size="9.00">prior_hessian::NormalDist</text>
<text text-anchor="middle" x="388" y="-7.3" font-family="Helvetica,sans-Serif" font-size="9.00">::set_param</text>
</a>
</g>
</g>
<!-- Node1&#45;&gt;Node8 -->
<g id="edge9" class="edge"><title>Node1&#45;&gt;Node8</title>
<path fill="none" stroke="midnightblue" d="M112.26,-42.4603C127.184,-38.7019 143.664,-34.9949 159,-32.5 211.285,-23.994 270.995,-19.4651 316.192,-17.0781"/>
<polygon fill="midnightblue" stroke="midnightblue" points="316.378,-20.5733 326.189,-16.5725 316.024,-13.5823 316.378,-20.5733"/>
</g>
<!-- Node3 -->
<g id="node3" class="node"><title>Node3</title>
<g id="a_node3"><a xlink:href="classprior__hessian_1_1NormalDist.html#a33b6cc4357406f8d0dd017fc1088e1bc" target="_top" xlink:title="prior_hessian::NormalDist::mu">
<polygon fill="white" stroke="black" points="318,-47.5 318,-65.5 458,-65.5 458,-47.5 318,-47.5"/>
<text text-anchor="middle" x="388" y="-54.3" font-family="Helvetica,sans-Serif" font-size="9.00">prior_hessian::NormalDist::mu</text>
</a>
</g>
</g>
<!-- Node2&#45;&gt;Node3 -->
<g id="edge2" class="edge"><title>Node2&#45;&gt;Node3</title>
<path fill="none" stroke="midnightblue" d="M282.186,-56.5C290.541,-56.5 299.219,-56.5 307.846,-56.5"/>
<polygon fill="midnightblue" stroke="midnightblue" points="307.925,-60.0001 317.925,-56.5 307.925,-53.0001 307.925,-60.0001"/>
</g>
<!-- Node4 -->
<g id="node4" class="node"><title>Node4</title>
<g id="a_node4"><a xlink:href="classprior__hessian_1_1NormalDist.html#adfc5ab11dc02672d9ef08eda487f97a7" target="_top" xlink:title="prior_hessian::NormalDist\l::sigma">
<polygon fill="white" stroke="black" points="326.5,-84.5 326.5,-112.5 449.5,-112.5 449.5,-84.5 326.5,-84.5"/>
<text text-anchor="start" x="334.5" y="-101.3" font-family="Helvetica,sans-Serif" font-size="9.00">prior_hessian::NormalDist</text>
<text text-anchor="middle" x="388" y="-91.3" font-family="Helvetica,sans-Serif" font-size="9.00">::sigma</text>
</a>
</g>
</g>
<!-- Node2&#45;&gt;Node4 -->
<g id="edge3" class="edge"><title>Node2&#45;&gt;Node4</title>
<path fill="none" stroke="midnightblue" d="M277.07,-70.6022C291.337,-74.223 306.818,-78.1516 321.535,-81.8865"/>
<polygon fill="midnightblue" stroke="midnightblue" points="321.023,-85.3676 331.577,-84.435 322.745,-78.5827 321.023,-85.3676"/>
</g>
<!-- Node5 -->
<g id="node5" class="node"><title>Node5</title>
<g id="a_node5"><a xlink:href="classprior__hessian_1_1NormalDist.html#a078a35e8ded3164ca701e1a1b6918f39" target="_top" xlink:title="prior_hessian::NormalDist\l::set_mu">
<polygon fill="white" stroke="black" points="494,-74.5 494,-102.5 617,-102.5 617,-74.5 494,-74.5"/>
<text text-anchor="start" x="502" y="-91.3" font-family="Helvetica,sans-Serif" font-size="9.00">prior_hessian::NormalDist</text>
<text text-anchor="middle" x="555.5" y="-81.3" font-family="Helvetica,sans-Serif" font-size="9.00">::set_mu</text>
</a>
</g>
</g>
<!-- Node4&#45;&gt;Node5 -->
<g id="edge4" class="edge"><title>Node4&#45;&gt;Node5</title>
<path fill="none" stroke="midnightblue" d="M449.686,-94.8332C460.705,-94.1674 472.286,-93.4676 483.569,-92.7859"/>
<polygon fill="midnightblue" stroke="midnightblue" points="484.05,-96.2633 493.821,-92.1664 483.628,-89.276 484.05,-96.2633"/>
</g>
<!-- Node6 -->
<g id="node6" class="node"><title>Node6</title>
<g id="a_node6"><a xlink:href="classprior__hessian_1_1NormalDist.html#aa72eaaeda9a2fe0475ee78f08359d096" target="_top" xlink:title="prior_hessian::NormalDist\l::set_sigma">
<polygon fill="white" stroke="black" points="494,-18.5 494,-46.5 617,-46.5 617,-18.5 494,-18.5"/>
<text text-anchor="start" x="502" y="-35.3" font-family="Helvetica,sans-Serif" font-size="9.00">prior_hessian::NormalDist</text>
<text text-anchor="middle" x="555.5" y="-25.3" font-family="Helvetica,sans-Serif" font-size="9.00">::set_sigma</text>
</a>
</g>
</g>
<!-- Node4&#45;&gt;Node6 -->
<g id="edge5" class="edge"><title>Node4&#45;&gt;Node6</title>
<path fill="none" stroke="midnightblue" d="M431.148,-84.4089C440.061,-81.2706 449.377,-77.8707 458,-74.5 476.81,-67.1476 497.366,-58.3146 514.655,-50.6501"/>
<polygon fill="midnightblue" stroke="midnightblue" points="516.185,-53.8 523.891,-46.5291 513.333,-47.4073 516.185,-53.8"/>
</g>
<!-- Node7&#45;&gt;Node3 -->
<g id="edge7" class="edge"><title>Node7&#45;&gt;Node3</title>
<path fill="none" stroke="midnightblue" d="M267.052,-89.4359C283.116,-84.5758 301.325,-79.1788 318,-74.5 325.627,-72.36 333.751,-70.1653 341.649,-68.0769"/>
<polygon fill="midnightblue" stroke="midnightblue" points="342.69,-71.4222 351.476,-65.5006 340.915,-64.651 342.69,-71.4222"/>
</g>
<!-- Node7&#45;&gt;Node4 -->
<g id="edge8" class="edge"><title>Node7&#45;&gt;Node4</title>
<path fill="none" stroke="midnightblue" d="M282.186,-101.667C293.205,-101.334 304.786,-100.984 316.069,-100.643"/>
<polygon fill="midnightblue" stroke="midnightblue" points="316.431,-104.134 326.321,-100.333 316.22,-97.1369 316.431,-104.134"/>
</g>
<!-- Node8&#45;&gt;Node5 -->
<g id="edge10" class="edge"><title>Node8&#45;&gt;Node5</title>
<path fill="none" stroke="midnightblue" d="M434.679,-28.5458C442.541,-31.2977 450.569,-34.3235 458,-37.5 470.098,-42.6717 497.466,-57.2395 519.978,-69.4877"/>
<polygon fill="midnightblue" stroke="midnightblue" points="518.5,-72.668 528.954,-74.3876 521.854,-66.5239 518.5,-72.668"/>
</g>
<!-- Node8&#45;&gt;Node6 -->
<g id="edge11" class="edge"><title>Node8&#45;&gt;Node6</title>
<path fill="none" stroke="midnightblue" d="M449.686,-21.1003C460.705,-22.2987 472.286,-23.5583 483.569,-24.7854"/>
<polygon fill="midnightblue" stroke="midnightblue" points="483.501,-28.2986 493.821,-25.9005 484.258,-21.3397 483.501,-28.2986"/>
</g>
</g>
</svg>
        <g id="navigator" transform="translate(0 0)" fill="#404254">
                <rect fill="#f2f5e9" fill-opacity="0.5" stroke="#606060" stroke-width=".5" x="0" y="0" width="60" height="60"/>
                <use id="zoomplus" xlink:href="#zoomPlus" x="17" y="9" onmousedown="handleZoom(evt,'in')"/>
                <use id="zoomminus" xlink:href="#zoomMin" x="42" y="9" onmousedown="handleZoom(evt,'out')"/>
                <use id="reset" xlink:href="#resetDef" x="30" y="36" onmousedown="handleReset()"/>
                <g id="arrowUp" xlink:href="#dirArrow" transform="translate(30 24)" onmousedown="handlePan(0,-1)">
                  <use xlink:href="#rim" fill="#404040">
                        <set attributeName="fill" to="#808080" begin="arrowUp.mouseover" end="arrowUp.mouseout"/>
                  </use>
                  <path fill="none" stroke="white" stroke-width="1.5" d="M0,-3.0v7 M-2.5,-0.5L0,-3.0L2.5,-0.5"/>
                </g>
                <g id="arrowRight" xlink:href="#dirArrow" transform="rotate(90) translate(36 -43)" onmousedown="handlePan(1,0)">
                  <use xlink:href="#rim" fill="#404040">
                        <set attributeName="fill" to="#808080" begin="arrowRight.mouseover" end="arrowRight.mouseout"/>
                  </use>
                  <path fill="none" stroke="white" stroke-width="1.5" d="M0,-3.0v7 M-2.5,-0.5L0,-3.0L2.5,-0.5"/>
                </g>
                <g id="arrowDown" xlink:href="#dirArrow" transform="rotate(180) translate(-30 -48)" onmousedown="handlePan(0,1)">
                  <use xlink:href="#rim" fill="#404040">
                        <set attributeName="fill" to="#808080" begin="arrowDown.mouseover" end="arrowDown.mouseout"/>
                  </use>
                  <path fill="none" stroke="white" stroke-width="1.5" d="M0,-3.0v7 M-2.5,-0.5L0,-3.0L2.5,-0.5"/>
                </g>
                <g id="arrowLeft" xlink:href="#dirArrow" transform="rotate(270) translate(-36 17)" onmousedown="handlePan(-1,0)">
                  <use xlink:href="#rim" fill="#404040">
                        <set attributeName="fill" to="#808080" begin="arrowLeft.mouseover" end="arrowLeft.mouseout"/>
                  </use>
                  <path fill="none" stroke="white" stroke-width="1.5" d="M0,-3.0v7 M-2.5,-0.5L0,-3.0L2.5,-0.5"/>
                </g>
        </g>
        <svg viewBox="0 0 15 15" width="100%" height="30px" preserveAspectRatio="xMaxYMin meet">
         <g id="arrow_out" transform="scale(0.3 0.3)">
          <a xlink:href="classprior__hessian_1_1NormalDist_ade1454cb5b7e913871723f174acd9dcc_cgraph_org.svg" target="_base">
           <rect id="button" ry="5" rx="5" y="6" x="6" height="38" width="38"
                fill="#f2f5e9" fill-opacity="0.5" stroke="#606060" stroke-width="1.0"/>
           <path id="arrow"
             d="M 11.500037,31.436501 C 11.940474,20.09759 22.043105,11.32322 32.158766,21.979434 L 37.068811,17.246167 C 37.068811,17.246167 37.088388,32 37.088388,32 L 22.160133,31.978069 C 22.160133,31.978069 26.997745,27.140456 26.997745,27.140456 C 18.528582,18.264221 13.291696,25.230495 11.500037,31.436501 z"
             style="fill:#404040;"/>
          </a>
         </g>
        </svg>
</svg>
