<?xml version="1.0" encoding="UTF-8" standalone="no"?>
<!DOCTYPE svg PUBLIC "-//W3C//DTD SVG 1.1//EN"
 "http://www.w3.org/Graphics/SVG/1.1/DTD/svg11.dtd">
<!-- Generated by graphviz version 2.38.0 (20140413.2041)
 -->
<!-- Title: prior_hessian::ParetoDist::set_params_iter Pages: 1 -->
<svg width="613pt" height="430pt"
 viewBox="0.00 0.00 613.00 430.00" xmlns="http://www.w3.org/2000/svg" xmlns:xlink="http://www.w3.org/1999/xlink">
<g id="graph0" class="graph" transform="scale(1 1) rotate(0) translate(4 426)">
<title>prior_hessian::ParetoDist::set_params_iter</title>
<polygon fill="white" stroke="none" points="-4,4 -4,-426 609,-426 609,4 -4,4"/>
<!-- Node1 -->
<g id="node1" class="node"><title>Node1</title>
<polygon fill="#bfbfbf" stroke="black" points="0,-178.5 0,-206.5 120,-206.5 120,-178.5 0,-178.5"/>
<text text-anchor="start" x="8" y="-195.3" font-family="Helvetica,sans-Serif" font-size="9.00">prior_hessian::ParetoDist</text>
<text text-anchor="middle" x="60" y="-185.3" font-family="Helvetica,sans-Serif" font-size="9.00">::set_params_iter</text>
</g>
<!-- Node2 -->
<g id="node2" class="node"><title>Node2</title>
<g id="a_node2"><a xlink:href="classprior__hessian_1_1ParetoDist.html#ad117226a3ad1eee827886fc7ba38acbf" target="_top" xlink:title="prior_hessian::ParetoDist\l::lbound">
<polygon fill="white" stroke="black" points="156,-178.5 156,-206.5 276,-206.5 276,-178.5 156,-178.5"/>
<text text-anchor="start" x="164" y="-195.3" font-family="Helvetica,sans-Serif" font-size="9.00">prior_hessian::ParetoDist</text>
<text text-anchor="middle" x="216" y="-185.3" font-family="Helvetica,sans-Serif" font-size="9.00">::lbound</text>
</a>
</g>
</g>
<!-- Node1&#45;&gt;Node2 -->
<g id="edge1" class="edge"><title>Node1&#45;&gt;Node2</title>
<path fill="none" stroke="midnightblue" d="M130.369,-192.5C138.862,-192.5 147.48,-192.5 155.804,-192.5"/>
<polygon fill="midnightblue" stroke="midnightblue" points="130.1,-189 120.1,-192.5 130.1,-196 130.1,-189"/>
</g>
<!-- Node3 -->
<g id="node3" class="node"><title>Node3</title>
<g id="a_node3"><a xlink:href="classprior__hessian_1_1ParetoDist.html#afe706cb12ce6f667e7a3a9eb7311ef65" target="_top" xlink:title="prior_hessian::ParetoDist::cdf">
<polygon fill="white" stroke="black" points="312,-403.5 312,-421.5 449,-421.5 449,-403.5 312,-403.5"/>
<text text-anchor="middle" x="380.5" y="-410.3" font-family="Helvetica,sans-Serif" font-size="9.00">prior_hessian::ParetoDist::cdf</text>
</a>
</g>
</g>
<!-- Node2&#45;&gt;Node3 -->
<g id="edge2" class="edge"><title>Node2&#45;&gt;Node3</title>
<path fill="none" stroke="midnightblue" d="M222.772,-216.753C232.883,-257.901 258.076,-340.458 312,-385.5 324.38,-395.841 342.115,-400.295 356.3,-403.451"/>
<polygon fill="midnightblue" stroke="midnightblue" points="226.119,-215.697 220.413,-206.77 219.306,-217.307 226.119,-215.697"/>
</g>
<!-- Node4 -->
<g id="node4" class="node"><title>Node4</title>
<g id="a_node4"><a xlink:href="classprior__hessian_1_1ParetoDist.html#adc9bafea285be38186ec4ad161850b56" target="_top" xlink:title="prior_hessian::ParetoDist\l::get_param">
<polygon fill="white" stroke="black" points="320.5,-356.5 320.5,-384.5 440.5,-384.5 440.5,-356.5 320.5,-356.5"/>
<text text-anchor="start" x="328.5" y="-373.3" font-family="Helvetica,sans-Serif" font-size="9.00">prior_hessian::ParetoDist</text>
<text text-anchor="middle" x="380.5" y="-363.3" font-family="Helvetica,sans-Serif" font-size="9.00">::get_param</text>
</a>
</g>
</g>
<!-- Node2&#45;&gt;Node4 -->
<g id="edge4" class="edge"><title>Node2&#45;&gt;Node4</title>
<path fill="none" stroke="midnightblue" d="M225.542,-216.306C238.873,-250.189 267.774,-312.124 312,-347.5 316.351,-350.98 321.257,-353.947 326.39,-356.474"/>
<polygon fill="midnightblue" stroke="midnightblue" points="228.733,-214.853 221.905,-206.752 222.191,-217.343 228.733,-214.853"/>
</g>
<!-- Node6 -->
<g id="node6" class="node"><title>Node6</title>
<g id="a_node6"><a xlink:href="classprior__hessian_1_1ParetoDist.html#a9d1040a7a5ca261feebe56f42e5698ea" target="_top" xlink:title="prior_hessian::ParetoDist\l::icdf">
<polygon fill="white" stroke="black" points="320.5,-309.5 320.5,-337.5 440.5,-337.5 440.5,-309.5 320.5,-309.5"/>
<text text-anchor="start" x="328.5" y="-326.3" font-family="Helvetica,sans-Serif" font-size="9.00">prior_hessian::ParetoDist</text>
<text text-anchor="middle" x="380.5" y="-316.3" font-family="Helvetica,sans-Serif" font-size="9.00">::icdf</text>
</a>
</g>
</g>
<!-- Node2&#45;&gt;Node6 -->
<g id="edge6" class="edge"><title>Node2&#45;&gt;Node6</title>
<path fill="none" stroke="midnightblue" d="M236.098,-214.494C253.32,-236.86 280.698,-270.592 312,-291.5 324.045,-299.545 339.18,-305.041 352.063,-309.496"/>
<polygon fill="midnightblue" stroke="midnightblue" points="238.863,-212.347 230.008,-206.528 233.302,-216.598 238.863,-212.347"/>
</g>
<!-- Node7 -->
<g id="node7" class="node"><title>Node7</title>
<g id="a_node7"><a xlink:href="classprior__hessian_1_1ParetoDist.html#ae3776388549cf35e9fea96963624cf6e" target="_top" xlink:title="prior_hessian::ParetoDist\l::in_bounds">
<polygon fill="white" stroke="black" points="320.5,-262.5 320.5,-290.5 440.5,-290.5 440.5,-262.5 320.5,-262.5"/>
<text text-anchor="start" x="328.5" y="-279.3" font-family="Helvetica,sans-Serif" font-size="9.00">prior_hessian::ParetoDist</text>
<text text-anchor="middle" x="380.5" y="-269.3" font-family="Helvetica,sans-Serif" font-size="9.00">::in_bounds</text>
</a>
</g>
</g>
<!-- Node2&#45;&gt;Node7 -->
<g id="edge8" class="edge"><title>Node2&#45;&gt;Node7</title>
<path fill="none" stroke="midnightblue" d="M244.065,-212.394C262.533,-225.326 287.922,-241.881 312,-253.5 318.69,-256.728 325.952,-259.707 333.15,-262.375"/>
<polygon fill="midnightblue" stroke="midnightblue" points="246.025,-209.493 235.845,-206.557 241.972,-215.2 246.025,-209.493"/>
</g>
<!-- Node8 -->
<g id="node8" class="node"><title>Node8</title>
<g id="a_node8"><a xlink:href="classprior__hessian_1_1ParetoDist.html#a0f7ee813a098cd3fc9c7669cda6a340c" target="_top" xlink:title="prior_hessian::ParetoDist::llh">
<polygon fill="white" stroke="black" points="313.5,-225.5 313.5,-243.5 447.5,-243.5 447.5,-225.5 313.5,-225.5"/>
<text text-anchor="middle" x="380.5" y="-232.3" font-family="Helvetica,sans-Serif" font-size="9.00">prior_hessian::ParetoDist::llh</text>
</a>
</g>
</g>
<!-- Node2&#45;&gt;Node8 -->
<g id="edge9" class="edge"><title>Node2&#45;&gt;Node8</title>
<path fill="none" stroke="midnightblue" d="M286.206,-203.704C313.868,-210.546 343.434,-218.945 361.695,-225.486"/>
<polygon fill="midnightblue" stroke="midnightblue" points="286.669,-200.214 276.126,-201.259 285.02,-207.017 286.669,-200.214"/>
</g>
<!-- Node9 -->
<g id="node9" class="node"><title>Node9</title>
<g id="a_node9"><a xlink:href="classprior__hessian_1_1ParetoDist.html#a0a1e20b0aa6c7b52c134fc2341b5fdd4" target="_top" xlink:title="prior_hessian::ParetoDist\l::mean">
<polygon fill="white" stroke="black" points="320.5,-178.5 320.5,-206.5 440.5,-206.5 440.5,-178.5 320.5,-178.5"/>
<text text-anchor="start" x="328.5" y="-195.3" font-family="Helvetica,sans-Serif" font-size="9.00">prior_hessian::ParetoDist</text>
<text text-anchor="middle" x="380.5" y="-185.3" font-family="Helvetica,sans-Serif" font-size="9.00">::mean</text>
</a>
</g>
</g>
<!-- Node2&#45;&gt;Node9 -->
<g id="edge11" class="edge"><title>Node2&#45;&gt;Node9</title>
<path fill="none" stroke="midnightblue" d="M286.411,-185.814C297.735,-185.691 309.373,-185.745 320.418,-185.978"/>
<polygon fill="midnightblue" stroke="midnightblue" points="286.069,-182.319 276.126,-185.978 286.18,-189.318 286.069,-182.319"/>
</g>
<!-- Node10 -->
<g id="node10" class="node"><title>Node10</title>
<g id="a_node10"><a xlink:href="classprior__hessian_1_1ParetoDist.html#a74af41636088b6c727107c60dd9c81b2" target="_top" xlink:title="prior_hessian::ParetoDist\l::median">
<polygon fill="white" stroke="black" points="320.5,-131.5 320.5,-159.5 440.5,-159.5 440.5,-131.5 320.5,-131.5"/>
<text text-anchor="start" x="328.5" y="-148.3" font-family="Helvetica,sans-Serif" font-size="9.00">prior_hessian::ParetoDist</text>
<text text-anchor="middle" x="380.5" y="-138.3" font-family="Helvetica,sans-Serif" font-size="9.00">::median</text>
</a>
</g>
</g>
<!-- Node2&#45;&gt;Node10 -->
<g id="edge13" class="edge"><title>Node2&#45;&gt;Node10</title>
<path fill="none" stroke="midnightblue" d="M256.746,-175.107C275.822,-168.73 299.071,-161.796 320.184,-156.129"/>
<polygon fill="midnightblue" stroke="midnightblue" points="255.511,-171.831 247.184,-178.382 257.779,-178.453 255.511,-171.831"/>
</g>
<!-- Node11 -->
<g id="node11" class="node"><title>Node11</title>
<g id="a_node11"><a xlink:href="classprior__hessian_1_1ParetoDist.html#af5791e2cef16b34e1bbdeec24b13d22e" target="_top" xlink:title="prior_hessian::ParetoDist\l::params">
<polygon fill="white" stroke="black" points="320.5,-84.5 320.5,-112.5 440.5,-112.5 440.5,-84.5 320.5,-84.5"/>
<text text-anchor="start" x="328.5" y="-101.3" font-family="Helvetica,sans-Serif" font-size="9.00">prior_hessian::ParetoDist</text>
<text text-anchor="middle" x="380.5" y="-91.3" font-family="Helvetica,sans-Serif" font-size="9.00">::params</text>
</a>
</g>
</g>
<!-- Node2&#45;&gt;Node11 -->
<g id="edge15" class="edge"><title>Node2&#45;&gt;Node11</title>
<path fill="none" stroke="midnightblue" d="M233.618,-171.228C251.826,-153.446 282.396,-129.226 312,-113.5 314.636,-112.1 317.371,-110.751 320.164,-109.464"/>
<polygon fill="midnightblue" stroke="midnightblue" points="231.088,-168.808 226.611,-178.41 236.099,-173.697 231.088,-168.808"/>
</g>
<!-- Node13 -->
<g id="node13" class="node"><title>Node13</title>
<g id="a_node13"><a xlink:href="classprior__hessian_1_1ParetoDist.html#a07cc43c2b299fc07660684f34f32d4ee" target="_top" xlink:title="prior_hessian::ParetoDist::pdf">
<polygon fill="white" stroke="black" points="312,-47.5 312,-65.5 449,-65.5 449,-47.5 312,-47.5"/>
<text text-anchor="middle" x="380.5" y="-54.3" font-family="Helvetica,sans-Serif" font-size="9.00">prior_hessian::ParetoDist::pdf</text>
</a>
</g>
</g>
<!-- Node2&#45;&gt;Node13 -->
<g id="edge19" class="edge"><title>Node2&#45;&gt;Node13</title>
<path fill="none" stroke="midnightblue" d="M226.376,-169.369C241.157,-140.487 272.321,-92.5865 312,-66.5 312.509,-66.1656 313.023,-65.837 313.543,-65.5142"/>
<polygon fill="midnightblue" stroke="midnightblue" points="223.222,-167.852 222.003,-178.376 229.519,-170.909 223.222,-167.852"/>
</g>
<!-- Node14 -->
<g id="node14" class="node"><title>Node14</title>
<g id="a_node14"><a xlink:href="classprior__hessian_1_1ParetoDist.html#abe706f0786b5e8ef20b7caff07ffad0c" target="_top" xlink:title="prior_hessian::ParetoDist\l::sample">
<polygon fill="white" stroke="black" points="320.5,-0.5 320.5,-28.5 440.5,-28.5 440.5,-0.5 320.5,-0.5"/>
<text text-anchor="start" x="328.5" y="-17.3" font-family="Helvetica,sans-Serif" font-size="9.00">prior_hessian::ParetoDist</text>
<text text-anchor="middle" x="380.5" y="-7.3" font-family="Helvetica,sans-Serif" font-size="9.00">::sample</text>
</a>
</g>
</g>
<!-- Node2&#45;&gt;Node14 -->
<g id="edge21" class="edge"><title>Node2&#45;&gt;Node14</title>
<path fill="none" stroke="midnightblue" d="M223.566,-168.844C235.952,-133.195 265.751,-66.8871 312,-29.5 314.612,-27.3889 317.423,-25.4561 320.363,-23.6981"/>
<polygon fill="midnightblue" stroke="midnightblue" points="220.207,-167.855 220.408,-178.448 226.857,-170.042 220.207,-167.855"/>
</g>
<!-- Node3&#45;&gt;Node2 -->
<g id="edge3" class="edge"><title>Node3&#45;&gt;Node2</title>
<path fill="none" stroke="midnightblue" d="M304.048,-396.397C246.502,-341.567 224.578,-243.734 218.735,-206.747"/>
<polygon fill="midnightblue" stroke="midnightblue" points="301.845,-399.123 311.628,-403.189 306.515,-393.909 301.845,-399.123"/>
</g>
<!-- Node5 -->
<g id="node5" class="node"><title>Node5</title>
<g id="a_node5"><a xlink:href="classprior__hessian_1_1ParetoDist.html#a572ad9f28d83da610e1b81c88876563a" target="_top" xlink:title="prior_hessian::ParetoDist\l::ParetoDist">
<polygon fill="white" stroke="black" points="485,-356.5 485,-384.5 605,-384.5 605,-356.5 485,-356.5"/>
<text text-anchor="start" x="493" y="-373.3" font-family="Helvetica,sans-Serif" font-size="9.00">prior_hessian::ParetoDist</text>
<text text-anchor="middle" x="545" y="-363.3" font-family="Helvetica,sans-Serif" font-size="9.00">::ParetoDist</text>
</a>
</g>
</g>
<!-- Node4&#45;&gt;Node5 -->
<g id="edge5" class="edge"><title>Node4&#45;&gt;Node5</title>
<path fill="none" stroke="midnightblue" d="M450.911,-370.5C462.235,-370.5 473.873,-370.5 484.918,-370.5"/>
<polygon fill="midnightblue" stroke="midnightblue" points="450.626,-367 440.626,-370.5 450.626,-374 450.626,-367"/>
</g>
<!-- Node6&#45;&gt;Node2 -->
<g id="edge7" class="edge"><title>Node6&#45;&gt;Node2</title>
<path fill="none" stroke="midnightblue" d="M312.123,-308.787C266.838,-276.32 235.439,-230.527 222.886,-206.846"/>
<polygon fill="midnightblue" stroke="midnightblue" points="310.203,-311.714 320.429,-314.484 314.162,-305.941 310.203,-311.714"/>
</g>
<!-- Node8&#45;&gt;Node2 -->
<g id="edge10" class="edge"><title>Node8&#45;&gt;Node2</title>
<path fill="none" stroke="midnightblue" d="M309.331,-223.058C288.662,-217.926 267.017,-211.95 249.884,-206.548"/>
<polygon fill="midnightblue" stroke="midnightblue" points="308.512,-226.461 319.056,-225.427 310.168,-219.659 308.512,-226.461"/>
</g>
<!-- Node9&#45;&gt;Node2 -->
<g id="edge12" class="edge"><title>Node9&#45;&gt;Node2</title>
<path fill="none" stroke="midnightblue" d="M310.134,-199.185C298.811,-199.309 287.173,-199.255 276.126,-199.022"/>
<polygon fill="midnightblue" stroke="midnightblue" points="310.475,-202.681 320.418,-199.022 310.364,-195.681 310.475,-202.681"/>
</g>
<!-- Node10&#45;&gt;Node2 -->
<g id="edge14" class="edge"><title>Node10&#45;&gt;Node2</title>
<path fill="none" stroke="midnightblue" d="M339.782,-162.883C320.644,-169.282 297.3,-176.243 276.126,-181.921"/>
<polygon fill="midnightblue" stroke="midnightblue" points="341.048,-166.149 349.374,-159.598 338.779,-159.527 341.048,-166.149"/>
</g>
<!-- Node11&#45;&gt;Node2 -->
<g id="edge18" class="edge"><title>Node11&#45;&gt;Node2</title>
<path fill="none" stroke="midnightblue" d="M347.275,-116.266C335.825,-120.673 323.044,-125.633 312,-131.5 286.671,-144.956 260.633,-164.629 242.238,-178.224"/>
<polygon fill="midnightblue" stroke="midnightblue" points="348.86,-119.406 356.918,-112.528 346.329,-112.879 348.86,-119.406"/>
</g>
<!-- Node12 -->
<g id="node12" class="node"><title>Node12</title>
<g id="a_node12"><a xlink:href="classprior__hessian_1_1ParetoDist.html#ad90392cbacf44f0760b46e80a2676a08" target="_top" xlink:title="prior_hessian::ParetoDist\l::check_params">
<polygon fill="white" stroke="black" points="485,-84.5 485,-112.5 605,-112.5 605,-84.5 485,-84.5"/>
<text text-anchor="start" x="493" y="-101.3" font-family="Helvetica,sans-Serif" font-size="9.00">prior_hessian::ParetoDist</text>
<text text-anchor="middle" x="545" y="-91.3" font-family="Helvetica,sans-Serif" font-size="9.00">::check_params</text>
</a>
</g>
</g>
<!-- Node11&#45;&gt;Node12 -->
<g id="edge16" class="edge"><title>Node11&#45;&gt;Node12</title>
<path fill="none" stroke="midnightblue" d="M450.911,-98.5C462.235,-98.5 473.873,-98.5 484.918,-98.5"/>
<polygon fill="midnightblue" stroke="midnightblue" points="450.626,-95.0001 440.626,-98.5 450.626,-102 450.626,-95.0001"/>
</g>
<!-- Node12&#45;&gt;Node12 -->
<g id="edge17" class="edge"><title>Node12&#45;&gt;Node12</title>
<path fill="none" stroke="midnightblue" d="M515.354,-122.487C518.502,-127.441 528.384,-131 545,-131 571.586,-131 580.933,-121.89 573.04,-112.53"/>
<polygon fill="midnightblue" stroke="midnightblue" points="518.823,-122.96 516.96,-112.53 511.912,-121.845 518.823,-122.96"/>
</g>
<!-- Node13&#45;&gt;Node2 -->
<g id="edge20" class="edge"><title>Node13&#45;&gt;Node2</title>
<path fill="none" stroke="midnightblue" d="M352.646,-68.2449C339.58,-71.8646 324.12,-76.5314 312,-84.5 273.739,-109.654 243.394,-155.092 228.022,-178.453"/>
<polygon fill="midnightblue" stroke="midnightblue" points="353.794,-71.559 362.501,-65.5234 351.93,-64.8116 353.794,-71.559"/>
</g>
<!-- Node14&#45;&gt;Node2 -->
<g id="edge22" class="edge"><title>Node14&#45;&gt;Node2</title>
<path fill="none" stroke="midnightblue" d="M340.61,-32.0073C330.577,-35.9028 320.283,-40.8044 312,-47.5 266.56,-84.2329 237,-148.884 224.232,-178.041"/>
<polygon fill="midnightblue" stroke="midnightblue" points="341.88,-35.2696 350.076,-28.555 339.482,-28.6934 341.88,-35.2696"/>
</g>
</g>
</svg>
