<?xml version="1.0" encoding="UTF-8" standalone="no"?>
<!DOCTYPE svg PUBLIC "-//W3C//DTD SVG 1.1//EN"
 "http://www.w3.org/Graphics/SVG/1.1/DTD/svg11.dtd">
<!-- Generated by graphviz version 2.38.0 (20140413.2041)
 -->
<!-- Title: prior_hessian::AMHCopula::rllh_grad_hess_accumulate Pages: 1 -->
<svg width="307pt" height="37pt"
 viewBox="0.00 0.00 307.00 37.00" xmlns="http://www.w3.org/2000/svg" xmlns:xlink="http://www.w3.org/1999/xlink">
<g id="graph0" class="graph" transform="scale(1 1) rotate(0) translate(4 33)">
<title>prior_hessian::AMHCopula::rllh_grad_hess_accumulate</title>
<polygon fill="white" stroke="none" points="-4,4 -4,-33 303,-33 303,4 -4,4"/>
<!-- Node1 -->
<g id="node1" class="node"><title>Node1</title>
<polygon fill="#bfbfbf" stroke="black" points="0,-0.5 0,-28.5 135,-28.5 135,-0.5 0,-0.5"/>
<text text-anchor="start" x="8" y="-17.3" font-family="Helvetica,sans-Serif" font-size="9.00">prior_hessian::AMHCopula</text>
<text text-anchor="middle" x="67.5" y="-7.3" font-family="Helvetica,sans-Serif" font-size="9.00">::rllh_grad_hess_accumulate</text>
</g>
<!-- Node2 -->
<g id="node2" class="node"><title>Node2</title>
<g id="a_node2"><a xlink:href="classprior__hessian_1_1AMHCopula.html#a5f5ab047fa0c58b93e7b8e072bc9c682" target="_top" xlink:title="prior_hessian::AMHCopula\l::set_params_iter">
<polygon fill="white" stroke="black" points="171,-0.5 171,-28.5 299,-28.5 299,-0.5 171,-0.5"/>
<text text-anchor="start" x="179" y="-17.3" font-family="Helvetica,sans-Serif" font-size="9.00">prior_hessian::AMHCopula</text>
<text text-anchor="middle" x="235" y="-7.3" font-family="Helvetica,sans-Serif" font-size="9.00">::set_params_iter</text>
</a>
</g>
</g>
<!-- Node1&#45;&gt;Node2 -->
<g id="edge1" class="edge"><title>Node1&#45;&gt;Node2</title>
<path fill="none" stroke="midnightblue" d="M145.617,-14.5C154.096,-14.5 162.654,-14.5 170.933,-14.5"/>
<polygon fill="midnightblue" stroke="midnightblue" points="145.338,-11.0001 135.338,-14.5 145.338,-18.0001 145.338,-11.0001"/>
</g>
</g>
</svg>
