<?xml version="1.0" encoding="UTF-8" standalone="no"?>
<!DOCTYPE svg PUBLIC "-//W3C//DTD SVG 1.1//EN"
 "http://www.w3.org/Graphics/SVG/1.1/DTD/svg11.dtd">
<!-- Generated by graphviz version 2.38.0 (20140413.2041)
 -->
<!-- Title: prior_hessian::CompositeDist::global_ubound Pages: 1 -->
<svg width="945pt" height="143pt"
 viewBox="0.00 0.00 945.00 142.50" xmlns="http://www.w3.org/2000/svg" xmlns:xlink="http://www.w3.org/1999/xlink">
<g id="graph0" class="graph" transform="scale(1 1) rotate(0) translate(4 138.5)">
<title>prior_hessian::CompositeDist::global_ubound</title>
<polygon fill="white" stroke="none" points="-4,4 -4,-138.5 941,-138.5 941,4 -4,4"/>
<!-- Node1 -->
<g id="node1" class="node"><title>Node1</title>
<polygon fill="#bfbfbf" stroke="black" points="0,-34 0,-62 122,-62 122,-34 0,-34"/>
<text text-anchor="start" x="8" y="-50.8" font-family="Helvetica,sans-Serif" font-size="9.00">prior_hessian::Composite</text>
<text text-anchor="middle" x="61" y="-40.8" font-family="Helvetica,sans-Serif" font-size="9.00">Dist::global_ubound</text>
</g>
<!-- Node2 -->
<g id="node2" class="node"><title>Node2</title>
<g id="a_node2"><a xlink:href="classprior__hessian_1_1CompositeDist_1_1ComponentDistAdaptor_3_01Dist_00_01meta_1_1EnableIfSubcld67d34d533dbae21b9dad35557546eec.html#a4c54e572a1f7821dd8da1f33770ae1be" target="_top" xlink:title="prior_hessian::Composite\lDist::ComponentDistAdaptor\l\&lt; Dist, meta::EnableIfSubclassT\l\&lt; Dist, MultivariateDist \&gt; \&gt;\l::append_global_ubound">
<polygon fill="white" stroke="black" points="158,-76 158,-134 304,-134 304,-76 158,-76"/>
<text text-anchor="start" x="166" y="-122.8" font-family="Helvetica,sans-Serif" font-size="9.00">prior_hessian::Composite</text>
<text text-anchor="start" x="166" y="-112.8" font-family="Helvetica,sans-Serif" font-size="9.00">Dist::ComponentDistAdaptor</text>
<text text-anchor="start" x="166" y="-102.8" font-family="Helvetica,sans-Serif" font-size="9.00">&lt; Dist, meta::EnableIfSubclassT</text>
<text text-anchor="start" x="166" y="-92.8" font-family="Helvetica,sans-Serif" font-size="9.00">&lt; Dist, MultivariateDist &gt; &gt;</text>
<text text-anchor="middle" x="231" y="-82.8" font-family="Helvetica,sans-Serif" font-size="9.00">::append_global_ubound</text>
</a>
</g>
</g>
<!-- Node1&#45;&gt;Node2 -->
<g id="edge1" class="edge"><title>Node1&#45;&gt;Node2</title>
<path fill="none" stroke="midnightblue" d="M113.05,-65.3207C127.182,-70.1152 142.791,-75.4113 157.879,-80.5303"/>
<polygon fill="midnightblue" stroke="midnightblue" points="114.122,-61.9885 103.528,-62.0899 111.873,-68.6173 114.122,-61.9885"/>
</g>
<!-- Node3 -->
<g id="node3" class="node"><title>Node3</title>
<g id="a_node3"><a xlink:href="namespaceprior__hessian.html#ab26e9ddc3b6a5caccf5d75e1a1e1af1b" target="_top" xlink:title="prior_hessian::operator\&lt;\&lt;">
<polygon fill="white" stroke="black" points="170,-39 170,-57 292,-57 292,-39 170,-39"/>
<text text-anchor="middle" x="231" y="-45.8" font-family="Helvetica,sans-Serif" font-size="9.00">prior_hessian::operator&lt;&lt;</text>
</a>
</g>
</g>
<!-- Node1&#45;&gt;Node3 -->
<g id="edge2" class="edge"><title>Node1&#45;&gt;Node3</title>
<path fill="none" stroke="midnightblue" d="M132.517,-48C144.97,-48 157.829,-48 169.961,-48"/>
<polygon fill="midnightblue" stroke="midnightblue" points="132.177,-44.5001 122.177,-48 132.177,-51.5001 132.177,-44.5001"/>
</g>
<!-- Node7 -->
<g id="node7" class="node"><title>Node7</title>
<g id="a_node7"><a xlink:href="classprior__hessian_1_1CompositeDist.html#a24bac25ae8c0330b8a3aacadffc9d5ae" target="_top" xlink:title="prior_hessian::Composite\lDist::rllh_components">
<polygon fill="white" stroke="black" points="815,-24 815,-52 937,-52 937,-24 815,-24"/>
<text text-anchor="start" x="823" y="-40.8" font-family="Helvetica,sans-Serif" font-size="9.00">prior_hessian::Composite</text>
<text text-anchor="middle" x="876" y="-30.8" font-family="Helvetica,sans-Serif" font-size="9.00">Dist::rllh_components</text>
</a>
</g>
</g>
<!-- Node1&#45;&gt;Node7 -->
<g id="edge9" class="edge"><title>Node1&#45;&gt;Node7</title>
<path fill="none" stroke="midnightblue" d="M132.256,-32.1284C200.337,-18.1499 306.699,-1.42109e-14 400,-0 400,-0 400,-0 560,-0 649.236,-1.42109e-14 751.675,-15.2172 814.872,-26.3923"/>
<polygon fill="midnightblue" stroke="midnightblue" points="131.159,-28.7817 122.081,-34.2451 132.584,-35.635 131.159,-28.7817"/>
</g>
<!-- Node4 -->
<g id="node4" class="node"><title>Node4</title>
<g id="a_node4"><a xlink:href="classprior__hessian_1_1CompositeDist.html#a38c4fdacf927824117d202422b04013c" target="_top" xlink:title="prior_hessian::Composite\lDist::set_param_names">
<polygon fill="white" stroke="black" points="340,-45 340,-73 462,-73 462,-45 340,-45"/>
<text text-anchor="start" x="348" y="-61.8" font-family="Helvetica,sans-Serif" font-size="9.00">prior_hessian::Composite</text>
<text text-anchor="middle" x="401" y="-51.8" font-family="Helvetica,sans-Serif" font-size="9.00">Dist::set_param_names</text>
</a>
</g>
</g>
<!-- Node3&#45;&gt;Node4 -->
<g id="edge3" class="edge"><title>Node3&#45;&gt;Node4</title>
<path fill="none" stroke="midnightblue" d="M302.517,-52.6172C314.97,-53.4326 327.829,-54.2745 339.961,-55.0689"/>
<polygon fill="midnightblue" stroke="midnightblue" points="302.385,-49.1011 292.177,-51.9402 301.927,-56.0862 302.385,-49.1011"/>
</g>
<!-- Node5 -->
<g id="node5" class="node"><title>Node5</title>
<g id="a_node5"><a xlink:href="classprior__hessian_1_1CompositeDist.html#ace0aaa3698d76aba6a47f9061ff98902" target="_top" xlink:title="prior_hessian::Composite\lDist::rename_param">
<polygon fill="white" stroke="black" points="498,-105 498,-133 620,-133 620,-105 498,-105"/>
<text text-anchor="start" x="506" y="-121.8" font-family="Helvetica,sans-Serif" font-size="9.00">prior_hessian::Composite</text>
<text text-anchor="middle" x="559" y="-111.8" font-family="Helvetica,sans-Serif" font-size="9.00">Dist::rename_param</text>
</a>
</g>
</g>
<!-- Node4&#45;&gt;Node5 -->
<g id="edge4" class="edge"><title>Node4&#45;&gt;Node5</title>
<path fill="none" stroke="midnightblue" d="M447.959,-76.6767C471.374,-85.6824 499.452,-96.4814 521.384,-104.917"/>
<polygon fill="midnightblue" stroke="midnightblue" points="449.165,-73.3905 438.575,-73.0673 446.652,-79.9239 449.165,-73.3905"/>
</g>
<!-- Node6 -->
<g id="node6" class="node"><title>Node6</title>
<g id="a_node6"><a xlink:href="classprior__hessian_1_1CompositeDist.html#a927fed39b2b4e87714c728d6e7b11e8b" target="_top" xlink:title="prior_hessian::Composite\lDist::params_components">
<polygon fill="white" stroke="black" points="656,-67 656,-95 779,-95 779,-67 656,-67"/>
<text text-anchor="start" x="664" y="-83.8" font-family="Helvetica,sans-Serif" font-size="9.00">prior_hessian::Composite</text>
<text text-anchor="middle" x="717.5" y="-73.8" font-family="Helvetica,sans-Serif" font-size="9.00">Dist::params_components</text>
</a>
</g>
</g>
<!-- Node4&#45;&gt;Node6 -->
<g id="edge7" class="edge"><title>Node4&#45;&gt;Node6</title>
<path fill="none" stroke="midnightblue" d="M472.312,-63.9185C527.461,-67.7763 603.415,-73.0895 655.902,-76.761"/>
<polygon fill="midnightblue" stroke="midnightblue" points="472.487,-60.4222 462.267,-63.2158 471.998,-67.4052 472.487,-60.4222"/>
</g>
<!-- Node4&#45;&gt;Node7 -->
<g id="edge8" class="edge"><title>Node4&#45;&gt;Node7</title>
<path fill="none" stroke="midnightblue" d="M472.546,-55.8679C565.542,-51.7391 727.558,-44.5461 814.973,-40.665"/>
<polygon fill="midnightblue" stroke="midnightblue" points="472.221,-52.3788 462.386,-56.319 472.532,-59.3719 472.221,-52.3788"/>
</g>
<!-- Node5&#45;&gt;Node6 -->
<g id="edge5" class="edge"><title>Node5&#45;&gt;Node6</title>
<path fill="none" stroke="midnightblue" d="M627.635,-102.577C637.967,-100.069 648.55,-97.499 658.646,-95.0475"/>
<polygon fill="midnightblue" stroke="midnightblue" points="626.722,-99.1974 617.83,-104.958 628.374,-106 626.722,-99.1974"/>
</g>
<!-- Node6&#45;&gt;Node7 -->
<g id="edge6" class="edge"><title>Node6&#45;&gt;Node7</title>
<path fill="none" stroke="midnightblue" d="M779.709,-64.1822C794.334,-60.1638 809.794,-55.916 823.908,-52.038"/>
<polygon fill="midnightblue" stroke="midnightblue" points="778.459,-60.8958 769.744,-66.9202 780.314,-67.6456 778.459,-60.8958"/>
</g>
</g>
</svg>
