<?xml version="1.0" encoding="UTF-8" standalone="no"?>
<!DOCTYPE svg PUBLIC "-//W3C//DTD SVG 1.1//EN"
 "http://www.w3.org/Graphics/SVG/1.1/DTD/svg11.dtd">
<!-- Generated by graphviz version 2.38.0 (20140413.2041)
 -->
<!-- Title: prior_hessian::AMHCopula::cdf Pages: 1 -->
<svg width="644pt" height="37pt"
 viewBox="0.00 0.00 644.00 37.00" xmlns="http://www.w3.org/2000/svg" xmlns:xlink="http://www.w3.org/1999/xlink">
<g id="graph0" class="graph" transform="scale(1 1) rotate(0) translate(4 33)">
<title>prior_hessian::AMHCopula::cdf</title>
<polygon fill="white" stroke="none" points="-4,4 -4,-33 640,-33 640,4 -4,4"/>
<!-- Node1 -->
<g id="node1" class="node"><title>Node1</title>
<polygon fill="#bfbfbf" stroke="black" points="0,-5.5 0,-23.5 144,-23.5 144,-5.5 0,-5.5"/>
<text text-anchor="middle" x="72" y="-12.3" font-family="Helvetica,sans-Serif" font-size="9.00">prior_hessian::AMHCopula::cdf</text>
</g>
<!-- Node2 -->
<g id="node2" class="node"><title>Node2</title>
<g id="a_node2"><a xlink:href="classprior__hessian_1_1AMHCopula.html#a11696b4a8cef12a30706cd745820b201" target="_top" xlink:title="prior_hessian::AMHCopula\l::theta">
<polygon fill="white" stroke="black" points="180,-0.5 180,-28.5 308,-28.5 308,-0.5 180,-0.5"/>
<text text-anchor="start" x="188" y="-17.3" font-family="Helvetica,sans-Serif" font-size="9.00">prior_hessian::AMHCopula</text>
<text text-anchor="middle" x="244" y="-7.3" font-family="Helvetica,sans-Serif" font-size="9.00">::theta</text>
</a>
</g>
</g>
<!-- Node1&#45;&gt;Node2 -->
<g id="edge1" class="edge"><title>Node1&#45;&gt;Node2</title>
<path fill="none" stroke="midnightblue" d="M144.11,-14.5C152.519,-14.5 161.115,-14.5 169.555,-14.5"/>
<polygon fill="midnightblue" stroke="midnightblue" points="169.751,-18.0001 179.751,-14.5 169.751,-11.0001 169.751,-18.0001"/>
</g>
<!-- Node3 -->
<g id="node3" class="node"><title>Node3</title>
<g id="a_node3"><a xlink:href="classprior__hessian_1_1AMHCopula.html#a80bcb09b15bdb3c404f028772932c081" target="_top" xlink:title="prior_hessian::AMHCopula\l::set_theta">
<polygon fill="white" stroke="black" points="344,-0.5 344,-28.5 472,-28.5 472,-0.5 344,-0.5"/>
<text text-anchor="start" x="352" y="-17.3" font-family="Helvetica,sans-Serif" font-size="9.00">prior_hessian::AMHCopula</text>
<text text-anchor="middle" x="408" y="-7.3" font-family="Helvetica,sans-Serif" font-size="9.00">::set_theta</text>
</a>
</g>
</g>
<!-- Node2&#45;&gt;Node3 -->
<g id="edge2" class="edge"><title>Node2&#45;&gt;Node3</title>
<path fill="none" stroke="midnightblue" d="M308.097,-14.5C316.435,-14.5 325.038,-14.5 333.53,-14.5"/>
<polygon fill="midnightblue" stroke="midnightblue" points="333.808,-18.0001 343.808,-14.5 333.808,-11.0001 333.808,-18.0001"/>
</g>
<!-- Node4 -->
<g id="node4" class="node"><title>Node4</title>
<g id="a_node4"><a xlink:href="classprior__hessian_1_1AMHCopula.html#a9d4b8453eedea358f829f8d4c911d8c4" target="_top" xlink:title="prior_hessian::AMHCopula\l::check_theta">
<polygon fill="white" stroke="black" points="508,-0.5 508,-28.5 636,-28.5 636,-0.5 508,-0.5"/>
<text text-anchor="start" x="516" y="-17.3" font-family="Helvetica,sans-Serif" font-size="9.00">prior_hessian::AMHCopula</text>
<text text-anchor="middle" x="572" y="-7.3" font-family="Helvetica,sans-Serif" font-size="9.00">::check_theta</text>
</a>
</g>
</g>
<!-- Node3&#45;&gt;Node4 -->
<g id="edge3" class="edge"><title>Node3&#45;&gt;Node4</title>
<path fill="none" stroke="midnightblue" d="M472.097,-14.5C480.435,-14.5 489.038,-14.5 497.53,-14.5"/>
<polygon fill="midnightblue" stroke="midnightblue" points="497.808,-18.0001 507.808,-14.5 497.808,-11.0001 497.808,-18.0001"/>
</g>
</g>
</svg>
