<?xml version="1.0" encoding="UTF-8" standalone="no"?>
<!DOCTYPE svg PUBLIC "-//W3C//DTD SVG 1.1//EN"
 "http://www.w3.org/Graphics/SVG/1.1/DTD/svg11.dtd">
<!-- Generated by graphviz version 2.38.0 (20140413.2041)
 -->
<!-- Title: prior_hessian::CompositeDist::param_names Pages: 1 -->
<svg width="794pt" height="281pt"
 viewBox="0.00 0.00 794.00 280.66" xmlns="http://www.w3.org/2000/svg" xmlns:xlink="http://www.w3.org/1999/xlink">
<g id="graph0" class="graph" transform="scale(1 1) rotate(0) translate(4 276.66)">
<title>prior_hessian::CompositeDist::param_names</title>
<polygon fill="white" stroke="none" points="-4,4 -4,-276.66 790,-276.66 790,4 -4,4"/>
<!-- Node1 -->
<g id="node1" class="node"><title>Node1</title>
<polygon fill="#bfbfbf" stroke="black" points="0,-76.1604 0,-104.16 122,-104.16 122,-76.1604 0,-76.1604"/>
<text text-anchor="start" x="8" y="-92.9604" font-family="Helvetica,sans-Serif" font-size="9.00">prior_hessian::Composite</text>
<text text-anchor="middle" x="61" y="-82.9604" font-family="Helvetica,sans-Serif" font-size="9.00">Dist::param_names</text>
</g>
<!-- Node2 -->
<g id="node2" class="node"><title>Node2</title>
<g id="a_node2"><a xlink:href="classprior__hessian_1_1CompositeDist_1_1ComponentDistAdaptor_3_01Dist_00_01meta_1_1EnableIfSubclc6c9bd83bba546a81e521c87ad7ee6d3.html#a75bbad1826eb579d89540607f59f3919" target="_top" xlink:title="prior_hessian::Composite\lDist::ComponentDistAdaptor\l\&lt; Dist, meta::EnableIfSubclassT\l\&lt; Dist, UnivariateDist \&gt; \&gt;::append\l_param_names">
<polygon fill="white" stroke="black" points="158,-214.16 158,-272.16 311,-272.16 311,-214.16 158,-214.16"/>
<text text-anchor="start" x="166" y="-260.96" font-family="Helvetica,sans-Serif" font-size="9.00">prior_hessian::Composite</text>
<text text-anchor="start" x="166" y="-250.96" font-family="Helvetica,sans-Serif" font-size="9.00">Dist::ComponentDistAdaptor</text>
<text text-anchor="start" x="166" y="-240.96" font-family="Helvetica,sans-Serif" font-size="9.00">&lt; Dist, meta::EnableIfSubclassT</text>
<text text-anchor="start" x="166" y="-230.96" font-family="Helvetica,sans-Serif" font-size="9.00">&lt; Dist, UnivariateDist &gt; &gt;::append</text>
<text text-anchor="middle" x="234.5" y="-220.96" font-family="Helvetica,sans-Serif" font-size="9.00">_param_names</text>
</a>
</g>
</g>
<!-- Node1&#45;&gt;Node2 -->
<g id="edge1" class="edge"><title>Node1&#45;&gt;Node2</title>
<path fill="none" stroke="midnightblue" d="M76.8198,-113.013C93.9811,-138.105 124.251,-178.381 158,-205.16 161.908,-208.262 166.11,-211.209 170.459,-213.99"/>
<polygon fill="midnightblue" stroke="midnightblue" points="79.5891,-110.859 71.1081,-104.509 73.778,-114.762 79.5891,-110.859"/>
</g>
<!-- Node3 -->
<g id="node3" class="node"><title>Node3</title>
<g id="a_node3"><a xlink:href="classprior__hessian_1_1CompositeDist_1_1ComponentDistAdaptor_3_01Dist_00_01meta_1_1EnableIfSubcld67d34d533dbae21b9dad35557546eec.html#a500e09e7f9b4431f7db471bf075cdce2" target="_top" xlink:title="prior_hessian::Composite\lDist::ComponentDistAdaptor\l\&lt; Dist, meta::EnableIfSubclassT\l\&lt; Dist, MultivariateDist \&gt; \&gt;\l::append_param_names">
<polygon fill="white" stroke="black" points="161.5,-137.16 161.5,-195.16 307.5,-195.16 307.5,-137.16 161.5,-137.16"/>
<text text-anchor="start" x="169.5" y="-183.96" font-family="Helvetica,sans-Serif" font-size="9.00">prior_hessian::Composite</text>
<text text-anchor="start" x="169.5" y="-173.96" font-family="Helvetica,sans-Serif" font-size="9.00">Dist::ComponentDistAdaptor</text>
<text text-anchor="start" x="169.5" y="-163.96" font-family="Helvetica,sans-Serif" font-size="9.00">&lt; Dist, meta::EnableIfSubclassT</text>
<text text-anchor="start" x="169.5" y="-153.96" font-family="Helvetica,sans-Serif" font-size="9.00">&lt; Dist, MultivariateDist &gt; &gt;</text>
<text text-anchor="middle" x="234.5" y="-143.96" font-family="Helvetica,sans-Serif" font-size="9.00">::append_param_names</text>
</a>
</g>
</g>
<!-- Node1&#45;&gt;Node3 -->
<g id="edge2" class="edge"><title>Node1&#45;&gt;Node3</title>
<path fill="none" stroke="midnightblue" d="M103.258,-108.444C122.569,-117.002 146.044,-127.404 167.717,-137.009"/>
<polygon fill="midnightblue" stroke="midnightblue" points="104.416,-105.129 93.8559,-104.277 101.58,-111.529 104.416,-105.129"/>
</g>
<!-- Node4 -->
<g id="node4" class="node"><title>Node4</title>
<g id="a_node4"><a xlink:href="namespaceprior__hessian.html#ab26e9ddc3b6a5caccf5d75e1a1e1af1b" target="_top" xlink:title="prior_hessian::operator\&lt;\&lt;">
<polygon fill="white" stroke="black" points="173.5,-100.16 173.5,-118.16 295.5,-118.16 295.5,-100.16 173.5,-100.16"/>
<text text-anchor="middle" x="234.5" y="-106.96" font-family="Helvetica,sans-Serif" font-size="9.00">prior_hessian::operator&lt;&lt;</text>
</a>
</g>
</g>
<!-- Node1&#45;&gt;Node4 -->
<g id="edge3" class="edge"><title>Node1&#45;&gt;Node4</title>
<path fill="none" stroke="midnightblue" d="M132.66,-97.9886C146.154,-99.4836 160.163,-101.036 173.293,-102.49"/>
<polygon fill="midnightblue" stroke="midnightblue" points="132.789,-94.4816 122.464,-96.8591 132.018,-101.439 132.789,-94.4816"/>
</g>
<!-- Node5 -->
<g id="node5" class="node"><title>Node5</title>
<g id="a_node5"><a xlink:href="classprior__hessian_1_1CompositeDist.html#a38c4fdacf927824117d202422b04013c" target="_top" xlink:title="prior_hessian::Composite\lDist::set_param_names">
<polygon fill="white" stroke="black" points="347,-63.1604 347,-91.1604 469,-91.1604 469,-63.1604 347,-63.1604"/>
<text text-anchor="start" x="355" y="-79.9604" font-family="Helvetica,sans-Serif" font-size="9.00">prior_hessian::Composite</text>
<text text-anchor="middle" x="408" y="-69.9604" font-family="Helvetica,sans-Serif" font-size="9.00">Dist::set_param_names</text>
</a>
</g>
</g>
<!-- Node1&#45;&gt;Node5 -->
<g id="edge10" class="edge"><title>Node1&#45;&gt;Node5</title>
<path fill="none" stroke="midnightblue" d="M132.352,-87.5095C195.417,-85.1331 286.955,-81.6839 346.727,-79.4316"/>
<polygon fill="midnightblue" stroke="midnightblue" points="131.955,-84.0218 122.094,-87.896 132.219,-91.0169 131.955,-84.0218"/>
</g>
<!-- Node6 -->
<g id="node6" class="node"><title>Node6</title>
<g id="a_node6"><a xlink:href="classprior__hessian_1_1CompositeDist.html#a927fed39b2b4e87714c728d6e7b11e8b" target="_top" xlink:title="prior_hessian::Composite\lDist::params_components">
<polygon fill="white" stroke="black" points="505,-22.1604 505,-50.1604 628,-50.1604 628,-22.1604 505,-22.1604"/>
<text text-anchor="start" x="513" y="-38.9604" font-family="Helvetica,sans-Serif" font-size="9.00">prior_hessian::Composite</text>
<text text-anchor="middle" x="566.5" y="-28.9604" font-family="Helvetica,sans-Serif" font-size="9.00">Dist::params_components</text>
</a>
</g>
</g>
<!-- Node1&#45;&gt;Node6 -->
<g id="edge8" class="edge"><title>Node1&#45;&gt;Node6</title>
<path fill="none" stroke="midnightblue" d="M132.254,-79.7192C140.921,-78.4889 149.661,-77.2757 158,-76.1604 241.873,-64.9429 262.798,-61.5554 347,-53.1604 400.195,-47.8569 460.815,-43.2542 504.687,-40.1805"/>
<polygon fill="midnightblue" stroke="midnightblue" points="131.545,-76.2849 122.141,-81.1664 132.537,-83.2143 131.545,-76.2849"/>
</g>
<!-- Node7 -->
<g id="node7" class="node"><title>Node7</title>
<g id="a_node7"><a xlink:href="classprior__hessian_1_1CompositeDist.html#a24bac25ae8c0330b8a3aacadffc9d5ae" target="_top" xlink:title="prior_hessian::Composite\lDist::rllh_components">
<polygon fill="white" stroke="black" points="664,-22.1604 664,-50.1604 786,-50.1604 786,-22.1604 664,-22.1604"/>
<text text-anchor="start" x="672" y="-38.9604" font-family="Helvetica,sans-Serif" font-size="9.00">prior_hessian::Composite</text>
<text text-anchor="middle" x="725" y="-28.9604" font-family="Helvetica,sans-Serif" font-size="9.00">Dist::rllh_components</text>
</a>
</g>
</g>
<!-- Node1&#45;&gt;Node7 -->
<g id="edge9" class="edge"><title>Node1&#45;&gt;Node7</title>
<path fill="none" stroke="midnightblue" d="M102.068,-72.1378C119.014,-65.1979 139.158,-57.826 158,-53.1604 361.535,-2.76033 419.889,13.4592 628,-12.1604 644.369,-14.1755 661.961,-18.0543 677.557,-22.1156"/>
<polygon fill="midnightblue" stroke="midnightblue" points="100.365,-69.0568 92.4946,-76.1502 103.07,-75.5128 100.365,-69.0568"/>
</g>
<!-- Node4&#45;&gt;Node5 -->
<g id="edge4" class="edge"><title>Node4&#45;&gt;Node5</title>
<path fill="none" stroke="midnightblue" d="M294.021,-98.2411C311.078,-95.0584 329.74,-91.5763 346.893,-88.3756"/>
<polygon fill="midnightblue" stroke="midnightblue" points="293.375,-94.8012 284.186,-100.076 294.659,-101.682 293.375,-94.8012"/>
</g>
<!-- Node5&#45;&gt;Node6 -->
<g id="edge5" class="edge"><title>Node5&#45;&gt;Node6</title>
<path fill="none" stroke="midnightblue" d="M472.661,-60.4824C485.654,-57.0785 499.204,-53.5287 511.808,-50.2268"/>
<polygon fill="midnightblue" stroke="midnightblue" points="471.645,-57.1304 462.858,-63.0505 473.419,-63.9019 471.645,-57.1304"/>
</g>
<!-- Node5&#45;&gt;Node7 -->
<g id="edge7" class="edge"><title>Node5&#45;&gt;Node7</title>
<path fill="none" stroke="midnightblue" d="M479.356,-74.1213C522.464,-71.5806 578.653,-67.0522 628,-59.1604 642.216,-56.887 657.438,-53.6292 671.476,-50.2778"/>
<polygon fill="midnightblue" stroke="midnightblue" points="479.037,-70.6337 469.251,-74.6948 479.434,-77.6225 479.037,-70.6337"/>
</g>
<!-- Node6&#45;&gt;Node7 -->
<g id="edge6" class="edge"><title>Node6&#45;&gt;Node7</title>
<path fill="none" stroke="midnightblue" d="M638.059,-36.1604C646.692,-36.1604 655.452,-36.1604 663.912,-36.1604"/>
<polygon fill="midnightblue" stroke="midnightblue" points="638.007,-32.6605 628.007,-36.1604 638.007,-39.6605 638.007,-32.6605"/>
</g>
</g>
</svg>
