<?xml version="1.0" encoding="UTF-8" standalone="no"?>
<!DOCTYPE svg PUBLIC "-//W3C//DTD SVG 1.1//EN"
 "http://www.w3.org/Graphics/SVG/1.1/DTD/svg11.dtd">
<!-- Generated by graphviz version 2.38.0 (20140413.2041)
 -->
<!-- Title: prior_hessian::AMHCopula::num_dim Pages: 1 -->
<svg width="642pt" height="84pt"
 viewBox="0.00 0.00 642.00 84.00" xmlns="http://www.w3.org/2000/svg" xmlns:xlink="http://www.w3.org/1999/xlink">
<g id="graph0" class="graph" transform="scale(1 1) rotate(0) translate(4 80)">
<title>prior_hessian::AMHCopula::num_dim</title>
<polygon fill="white" stroke="none" points="-4,4 -4,-80 638,-80 638,4 -4,4"/>
<!-- Node1 -->
<g id="node1" class="node"><title>Node1</title>
<polygon fill="#bfbfbf" stroke="black" points="0,-23.5 0,-51.5 128,-51.5 128,-23.5 0,-23.5"/>
<text text-anchor="start" x="8" y="-40.3" font-family="Helvetica,sans-Serif" font-size="9.00">prior_hessian::AMHCopula</text>
<text text-anchor="middle" x="64" y="-30.3" font-family="Helvetica,sans-Serif" font-size="9.00">::num_dim</text>
</g>
<!-- Node2 -->
<g id="node2" class="node"><title>Node2</title>
<g id="a_node2"><a xlink:href="classprior__hessian_1_1AMHCopula.html#a19aecc89d6a1d6c46aa595a13999cfb2" target="_top" xlink:title="prior_hessian::AMHCopula\l::d1_igen">
<polygon fill="white" stroke="black" points="164,-47.5 164,-75.5 292,-75.5 292,-47.5 164,-47.5"/>
<text text-anchor="start" x="172" y="-64.3" font-family="Helvetica,sans-Serif" font-size="9.00">prior_hessian::AMHCopula</text>
<text text-anchor="middle" x="228" y="-54.3" font-family="Helvetica,sans-Serif" font-size="9.00">::d1_igen</text>
</a>
</g>
</g>
<!-- Node1&#45;&gt;Node2 -->
<g id="edge1" class="edge"><title>Node1&#45;&gt;Node2</title>
<path fill="none" stroke="midnightblue" d="M138.094,-48.3287C146.676,-49.6001 155.378,-50.8893 163.808,-52.1383"/>
<polygon fill="midnightblue" stroke="midnightblue" points="138.502,-44.8511 128.097,-46.8477 137.476,-51.7755 138.502,-44.8511"/>
</g>
<!-- Node5 -->
<g id="node5" class="node"><title>Node5</title>
<g id="a_node5"><a xlink:href="classprior__hessian_1_1AMHCopula.html#a9fc68a651139c1c7d28a8144562a09f3" target="_top" xlink:title="prior_hessian::AMHCopula\l::ddim_gen">
<polygon fill="white" stroke="black" points="164,-0.5 164,-28.5 292,-28.5 292,-0.5 164,-0.5"/>
<text text-anchor="start" x="172" y="-17.3" font-family="Helvetica,sans-Serif" font-size="9.00">prior_hessian::AMHCopula</text>
<text text-anchor="middle" x="228" y="-7.3" font-family="Helvetica,sans-Serif" font-size="9.00">::ddim_gen</text>
</a>
</g>
</g>
<!-- Node1&#45;&gt;Node5 -->
<g id="edge5" class="edge"><title>Node1&#45;&gt;Node5</title>
<path fill="none" stroke="midnightblue" d="M138.094,-27.1225C146.676,-25.904 155.378,-24.6686 163.808,-23.4716"/>
<polygon fill="midnightblue" stroke="midnightblue" points="137.506,-23.6707 128.097,-28.5417 138.49,-30.6012 137.506,-23.6707"/>
</g>
<!-- Node3 -->
<g id="node3" class="node"><title>Node3</title>
<g id="a_node3"><a xlink:href="classprior__hessian_1_1AMHCopula.html#ad1ce11681554712db7a56bb4cb54c3e9" target="_top" xlink:title="prior_hessian::AMHCopula::llh">
<polygon fill="white" stroke="black" points="328,-29.5 328,-47.5 470,-47.5 470,-29.5 328,-29.5"/>
<text text-anchor="middle" x="399" y="-36.3" font-family="Helvetica,sans-Serif" font-size="9.00">prior_hessian::AMHCopula::llh</text>
</a>
</g>
</g>
<!-- Node2&#45;&gt;Node3 -->
<g id="edge2" class="edge"><title>Node2&#45;&gt;Node3</title>
<path fill="none" stroke="midnightblue" d="M302.451,-51.5038C312.176,-50.1802 322.099,-48.8297 331.695,-47.5238"/>
<polygon fill="midnightblue" stroke="midnightblue" points="301.847,-48.0536 292.41,-52.8702 302.791,-54.9896 301.847,-48.0536"/>
</g>
<!-- Node4 -->
<g id="node4" class="node"><title>Node4</title>
<g id="a_node4"><a xlink:href="classprior__hessian_1_1AMHCopula.html#a5f5ab047fa0c58b93e7b8e072bc9c682" target="_top" xlink:title="prior_hessian::AMHCopula\l::set_params_iter">
<polygon fill="white" stroke="black" points="506,-24.5 506,-52.5 634,-52.5 634,-24.5 506,-24.5"/>
<text text-anchor="start" x="514" y="-41.3" font-family="Helvetica,sans-Serif" font-size="9.00">prior_hessian::AMHCopula</text>
<text text-anchor="middle" x="570" y="-31.3" font-family="Helvetica,sans-Serif" font-size="9.00">::set_params_iter</text>
</a>
</g>
</g>
<!-- Node2&#45;&gt;Node4 -->
<g id="edge4" class="edge"><title>Node2&#45;&gt;Node4</title>
<path fill="none" stroke="midnightblue" d="M302.367,-63.5653C350.219,-64.1042 413.965,-63.298 470,-57.5 481.664,-56.2932 494.003,-54.4166 505.866,-52.3035"/>
<polygon fill="midnightblue" stroke="midnightblue" points="302.146,-60.0621 292.1,-63.4264 302.051,-67.0614 302.146,-60.0621"/>
</g>
<!-- Node3&#45;&gt;Node4 -->
<g id="edge3" class="edge"><title>Node3&#45;&gt;Node4</title>
<path fill="none" stroke="midnightblue" d="M480.22,-38.5C488.794,-38.5 497.427,-38.5 505.765,-38.5"/>
<polygon fill="midnightblue" stroke="midnightblue" points="480.203,-35.0001 470.203,-38.5 480.203,-42.0001 480.203,-35.0001"/>
</g>
<!-- Node5&#45;&gt;Node3 -->
<g id="edge6" class="edge"><title>Node5&#45;&gt;Node3</title>
<path fill="none" stroke="midnightblue" d="M302.531,-24.9423C313.187,-26.4556 324.08,-28.0024 334.516,-29.4845"/>
<polygon fill="midnightblue" stroke="midnightblue" points="302.803,-21.4459 292.41,-23.505 301.819,-28.3763 302.803,-21.4459"/>
</g>
<!-- Node5&#45;&gt;Node4 -->
<g id="edge7" class="edge"><title>Node5&#45;&gt;Node4</title>
<path fill="none" stroke="midnightblue" d="M302.372,-12.8173C350.226,-12.5086 413.973,-13.5853 470,-19.5 481.661,-20.731 493.999,-22.6191 505.862,-24.736"/>
<polygon fill="midnightblue" stroke="midnightblue" points="302.074,-9.31964 292.105,-12.9062 302.134,-16.3194 302.074,-9.31964"/>
</g>
</g>
</svg>
