<?xml version="1.0" encoding="UTF-8" standalone="no"?>
<!DOCTYPE svg PUBLIC "-//W3C//DTD SVG 1.1//EN"
 "http://www.w3.org/Graphics/SVG/1.1/DTD/svg11.dtd">
<!-- Generated by graphviz version 2.38.0 (20140413.2041)
 -->
<!-- Title: prior_hessian::CompositeDist::component_types Pages: 1 -->
<svg width="457pt" height="131pt"
 viewBox="0.00 0.00 457.00 131.00" xmlns="http://www.w3.org/2000/svg" xmlns:xlink="http://www.w3.org/1999/xlink">
<g id="graph0" class="graph" transform="scale(1 1) rotate(0) translate(4 127)">
<title>prior_hessian::CompositeDist::component_types</title>
<polygon fill="white" stroke="none" points="-4,4 -4,-127 453,-127 453,4 -4,4"/>
<!-- Node1 -->
<g id="node1" class="node"><title>Node1</title>
<polygon fill="#bfbfbf" stroke="black" points="0,-47.5 0,-75.5 122,-75.5 122,-47.5 0,-47.5"/>
<text text-anchor="start" x="8" y="-64.3" font-family="Helvetica,sans-Serif" font-size="9.00">prior_hessian::Composite</text>
<text text-anchor="middle" x="61" y="-54.3" font-family="Helvetica,sans-Serif" font-size="9.00">Dist::component_types</text>
</g>
<!-- Node2 -->
<g id="node2" class="node"><title>Node2</title>
<g id="a_node2"><a xlink:href="classprior__hessian_1_1CompositeDist.html#a5f59bcbe24d659084fbe3dc188011779" target="_top" xlink:title="prior_hessian::Composite\lDist::component_names">
<polygon fill="white" stroke="black" points="163.5,-94.5 163.5,-122.5 285.5,-122.5 285.5,-94.5 163.5,-94.5"/>
<text text-anchor="start" x="171.5" y="-111.3" font-family="Helvetica,sans-Serif" font-size="9.00">prior_hessian::Composite</text>
<text text-anchor="middle" x="224.5" y="-101.3" font-family="Helvetica,sans-Serif" font-size="9.00">Dist::component_names</text>
</a>
</g>
</g>
<!-- Node1&#45;&gt;Node2 -->
<g id="edge1" class="edge"><title>Node1&#45;&gt;Node2</title>
<path fill="none" stroke="midnightblue" d="M110.455,-75.6015C127.78,-80.6435 147.48,-86.3766 165.527,-91.6286"/>
<polygon fill="midnightblue" stroke="midnightblue" points="164.778,-95.0557 175.357,-94.4894 166.734,-88.3345 164.778,-95.0557"/>
</g>
<!-- Node3 -->
<g id="node3" class="node"><title>Node3</title>
<g id="a_node3"><a xlink:href="classprior__hessian_1_1CompositeDist.html#a4928ff87d363bf6c4a650fdebfe301be" target="_top" xlink:title="prior_hessian::Composite\lDist::operator==">
<polygon fill="white" stroke="black" points="163.5,-47.5 163.5,-75.5 285.5,-75.5 285.5,-47.5 163.5,-47.5"/>
<text text-anchor="start" x="171.5" y="-64.3" font-family="Helvetica,sans-Serif" font-size="9.00">prior_hessian::Composite</text>
<text text-anchor="middle" x="224.5" y="-54.3" font-family="Helvetica,sans-Serif" font-size="9.00">Dist::operator==</text>
</a>
</g>
</g>
<!-- Node1&#45;&gt;Node3 -->
<g id="edge2" class="edge"><title>Node1&#45;&gt;Node3</title>
<path fill="none" stroke="midnightblue" d="M122.137,-61.5C132.226,-61.5 142.775,-61.5 153.095,-61.5"/>
<polygon fill="midnightblue" stroke="midnightblue" points="153.313,-65.0001 163.313,-61.5 153.313,-58.0001 153.313,-65.0001"/>
</g>
<!-- Node5 -->
<g id="node5" class="node"><title>Node5</title>
<g id="a_node5"><a xlink:href="classprior__hessian_1_1CompositeDist.html#aa2a230c7e878eae70cb347321a95a7f3" target="_top" xlink:title="prior_hessian::Composite\lDist::set_component_names">
<polygon fill="white" stroke="black" points="158,-0.5 158,-28.5 291,-28.5 291,-0.5 158,-0.5"/>
<text text-anchor="start" x="166" y="-17.3" font-family="Helvetica,sans-Serif" font-size="9.00">prior_hessian::Composite</text>
<text text-anchor="middle" x="224.5" y="-7.3" font-family="Helvetica,sans-Serif" font-size="9.00">Dist::set_component_names</text>
</a>
</g>
</g>
<!-- Node1&#45;&gt;Node5 -->
<g id="edge4" class="edge"><title>Node1&#45;&gt;Node5</title>
<path fill="none" stroke="midnightblue" d="M110.455,-47.3985C127.78,-42.3565 147.48,-36.6234 165.527,-31.3714"/>
<polygon fill="midnightblue" stroke="midnightblue" points="166.734,-34.6655 175.357,-28.5106 164.778,-27.9443 166.734,-34.6655"/>
</g>
<!-- Node4 -->
<g id="node4" class="node"><title>Node4</title>
<g id="a_node4"><a xlink:href="classprior__hessian_1_1CompositeDist.html#a56d7b1a0e8195d369cc99c7c2d4d392f" target="_top" xlink:title="prior_hessian::Composite\lDist::is_empty">
<polygon fill="white" stroke="black" points="327,-47.5 327,-75.5 449,-75.5 449,-47.5 327,-47.5"/>
<text text-anchor="start" x="335" y="-64.3" font-family="Helvetica,sans-Serif" font-size="9.00">prior_hessian::Composite</text>
<text text-anchor="middle" x="388" y="-54.3" font-family="Helvetica,sans-Serif" font-size="9.00">Dist::is_empty</text>
</a>
</g>
</g>
<!-- Node3&#45;&gt;Node4 -->
<g id="edge3" class="edge"><title>Node3&#45;&gt;Node4</title>
<path fill="none" stroke="midnightblue" d="M285.637,-61.5C295.726,-61.5 306.275,-61.5 316.595,-61.5"/>
<polygon fill="midnightblue" stroke="midnightblue" points="316.813,-65.0001 326.813,-61.5 316.813,-58.0001 316.813,-65.0001"/>
</g>
<!-- Node6 -->
<g id="node6" class="node"><title>Node6</title>
<g id="a_node6"><a xlink:href="classprior__hessian_1_1CompositeDist.html#a6faf6fbb059017af5756d4327bb504bc" target="_top" xlink:title="prior_hessian::Composite\lDist::num_components">
<polygon fill="white" stroke="black" points="327,-0.5 327,-28.5 449,-28.5 449,-0.5 327,-0.5"/>
<text text-anchor="start" x="335" y="-17.3" font-family="Helvetica,sans-Serif" font-size="9.00">prior_hessian::Composite</text>
<text text-anchor="middle" x="388" y="-7.3" font-family="Helvetica,sans-Serif" font-size="9.00">Dist::num_components</text>
</a>
</g>
</g>
<!-- Node5&#45;&gt;Node6 -->
<g id="edge5" class="edge"><title>Node5&#45;&gt;Node6</title>
<path fill="none" stroke="midnightblue" d="M291.188,-14.5C299.57,-14.5 308.176,-14.5 316.627,-14.5"/>
<polygon fill="midnightblue" stroke="midnightblue" points="316.835,-18.0001 326.835,-14.5 316.835,-11.0001 316.835,-18.0001"/>
</g>
</g>
</svg>
