<?xml version="1.0" encoding="UTF-8" standalone="no"?>
<!DOCTYPE svg PUBLIC "-//W3C//DTD SVG 1.1//EN"
 "http://www.w3.org/Graphics/SVG/1.1/DTD/svg11.dtd">
<!-- Generated by graphviz version 2.38.0 (20140413.2041)
 -->
<!-- Title: prior_hessian::CompositeDist::initialize Pages: 1 -->
<svg width="321pt" height="225pt"
 viewBox="0.00 0.00 321.00 225.00" xmlns="http://www.w3.org/2000/svg" xmlns:xlink="http://www.w3.org/1999/xlink">
<g id="graph0" class="graph" transform="scale(1 1) rotate(0) translate(4 221)">
<title>prior_hessian::CompositeDist::initialize</title>
<polygon fill="white" stroke="none" points="-4,4 -4,-221 317,-221 317,4 -4,4"/>
<!-- Node1 -->
<g id="node1" class="node"><title>Node1</title>
<polygon fill="#bfbfbf" stroke="black" points="0,-94.5 0,-122.5 122,-122.5 122,-94.5 0,-94.5"/>
<text text-anchor="start" x="8" y="-111.3" font-family="Helvetica,sans-Serif" font-size="9.00">prior_hessian::Composite</text>
<text text-anchor="middle" x="61" y="-101.3" font-family="Helvetica,sans-Serif" font-size="9.00">Dist::initialize</text>
</g>
<!-- Node2 -->
<g id="node2" class="node"><title>Node2</title>
<g id="a_node2"><a xlink:href="classprior__hessian_1_1CompositeDist.html#abb88cadec39226df790848e811928021" target="_top" xlink:title="prior_hessian::Composite\lDist::clear">
<polygon fill="white" stroke="black" points="174.5,-188.5 174.5,-216.5 296.5,-216.5 296.5,-188.5 174.5,-188.5"/>
<text text-anchor="start" x="182.5" y="-205.3" font-family="Helvetica,sans-Serif" font-size="9.00">prior_hessian::Composite</text>
<text text-anchor="middle" x="235.5" y="-195.3" font-family="Helvetica,sans-Serif" font-size="9.00">Dist::clear</text>
</a>
</g>
</g>
<!-- Node1&#45;&gt;Node2 -->
<g id="edge1" class="edge"><title>Node1&#45;&gt;Node2</title>
<path fill="none" stroke="midnightblue" d="M77.5185,-122.655C95.6259,-138.504 127.048,-163.994 158,-179.5 161.766,-181.387 165.716,-183.15 169.752,-184.792"/>
<polygon fill="midnightblue" stroke="midnightblue" points="168.691,-188.132 179.282,-188.404 171.172,-181.587 168.691,-188.132"/>
</g>
<!-- Node3 -->
<g id="node3" class="node"><title>Node3</title>
<g id="a_node3"><a xlink:href="classprior__hessian_1_1CompositeDist.html#a0a97c92fc8649f39063fb66070b0c49c" target="_top" xlink:title="prior_hessian::Composite\lDist::CompositeDist">
<polygon fill="white" stroke="black" points="174.5,-141.5 174.5,-169.5 296.5,-169.5 296.5,-141.5 174.5,-141.5"/>
<text text-anchor="start" x="182.5" y="-158.3" font-family="Helvetica,sans-Serif" font-size="9.00">prior_hessian::Composite</text>
<text text-anchor="middle" x="235.5" y="-148.3" font-family="Helvetica,sans-Serif" font-size="9.00">Dist::CompositeDist</text>
</a>
</g>
</g>
<!-- Node1&#45;&gt;Node3 -->
<g id="edge2" class="edge"><title>Node1&#45;&gt;Node3</title>
<path fill="none" stroke="midnightblue" d="M113.756,-122.602C132.518,-127.714 153.887,-133.536 173.381,-138.847"/>
<polygon fill="midnightblue" stroke="midnightblue" points="172.51,-142.237 183.078,-141.489 174.35,-135.484 172.51,-142.237"/>
</g>
<!-- Node4 -->
<g id="node4" class="node"><title>Node4</title>
<g id="a_node4"><a xlink:href="classprior__hessian_1_1CompositeDist.html#a6c7455474c3ffd782329ad3bafb2b710" target="_top" xlink:title="prior_hessian::Composite\lDist::get_dist_tuple">
<polygon fill="white" stroke="black" points="174.5,-94.5 174.5,-122.5 296.5,-122.5 296.5,-94.5 174.5,-94.5"/>
<text text-anchor="start" x="182.5" y="-111.3" font-family="Helvetica,sans-Serif" font-size="9.00">prior_hessian::Composite</text>
<text text-anchor="middle" x="235.5" y="-101.3" font-family="Helvetica,sans-Serif" font-size="9.00">Dist::get_dist_tuple</text>
</a>
</g>
</g>
<!-- Node1&#45;&gt;Node4 -->
<g id="edge3" class="edge"><title>Node1&#45;&gt;Node4</title>
<path fill="none" stroke="midnightblue" d="M122.332,-108.5C135.936,-108.5 150.487,-108.5 164.451,-108.5"/>
<polygon fill="midnightblue" stroke="midnightblue" points="164.493,-112 174.493,-108.5 164.493,-105 164.493,-112"/>
</g>
<!-- Node5 -->
<g id="node5" class="node"><title>Node5</title>
<g id="a_node5"><a xlink:href="classprior__hessian_1_1CompositeDist.html#a0a2be1ee1e4b13310575089c3cacbe23" target="_top" xlink:title="prior_hessian::Composite\lDist::make_component_dist_tuple">
<polygon fill="white" stroke="black" points="158,-47.5 158,-75.5 313,-75.5 313,-47.5 158,-47.5"/>
<text text-anchor="start" x="166" y="-64.3" font-family="Helvetica,sans-Serif" font-size="9.00">prior_hessian::Composite</text>
<text text-anchor="middle" x="235.5" y="-54.3" font-family="Helvetica,sans-Serif" font-size="9.00">Dist::make_component_dist_tuple</text>
</a>
</g>
</g>
<!-- Node1&#45;&gt;Node5 -->
<g id="edge4" class="edge"><title>Node1&#45;&gt;Node5</title>
<path fill="none" stroke="midnightblue" d="M113.756,-94.3985C132.518,-89.2864 153.887,-83.464 173.381,-78.1528"/>
<polygon fill="midnightblue" stroke="midnightblue" points="174.35,-81.5163 183.078,-75.5106 172.51,-74.7625 174.35,-81.5163"/>
</g>
<!-- Node6 -->
<g id="node6" class="node"><title>Node6</title>
<g id="a_node6"><a xlink:href="classprior__hessian_1_1CompositeDist.html#a1cc23d388e8601c84fe0e912ca171214" target="_top" xlink:title="prior_hessian::Composite\lDist::operator=">
<polygon fill="white" stroke="black" points="174.5,-0.5 174.5,-28.5 296.5,-28.5 296.5,-0.5 174.5,-0.5"/>
<text text-anchor="start" x="182.5" y="-17.3" font-family="Helvetica,sans-Serif" font-size="9.00">prior_hessian::Composite</text>
<text text-anchor="middle" x="235.5" y="-7.3" font-family="Helvetica,sans-Serif" font-size="9.00">Dist::operator=</text>
</a>
</g>
</g>
<!-- Node1&#45;&gt;Node6 -->
<g id="edge5" class="edge"><title>Node1&#45;&gt;Node6</title>
<path fill="none" stroke="midnightblue" d="M77.9165,-94.3441C96.1375,-78.7723 127.426,-53.916 158,-38.5 162.544,-36.2087 167.351,-34.0823 172.253,-32.1205"/>
<polygon fill="midnightblue" stroke="midnightblue" points="173.622,-35.345 181.751,-28.5505 171.159,-28.7925 173.622,-35.345"/>
</g>
</g>
</svg>
