<?xml version="1.0" encoding="UTF-8" standalone="no"?>
<!DOCTYPE svg PUBLIC "-//W3C//DTD SVG 1.1//EN"
 "http://www.w3.org/Graphics/SVG/1.1/DTD/svg11.dtd">
<!-- Generated by graphviz version 2.38.0 (20140413.2041)
 -->
<!-- Title: prior_hessian::MultivariateNormalDist::set_params Pages: 1 -->
<svg width="455pt" height="131pt"
 viewBox="0.00 0.00 455.00 131.00" xmlns="http://www.w3.org/2000/svg" xmlns:xlink="http://www.w3.org/1999/xlink">
<g id="graph0" class="graph" transform="scale(1 1) rotate(0) translate(4 127)">
<title>prior_hessian::MultivariateNormalDist::set_params</title>
<polygon fill="white" stroke="none" points="-4,4 -4,-127 451,-127 451,4 -4,4"/>
<!-- Node1 -->
<g id="node1" class="node"><title>Node1</title>
<polygon fill="#bfbfbf" stroke="black" points="0,-47.5 0,-75.5 125,-75.5 125,-47.5 0,-47.5"/>
<text text-anchor="start" x="8" y="-64.3" font-family="Helvetica,sans-Serif" font-size="9.00">prior_hessian::Multivariate</text>
<text text-anchor="middle" x="62.5" y="-54.3" font-family="Helvetica,sans-Serif" font-size="9.00">NormalDist::set_params</text>
</g>
<!-- Node2 -->
<g id="node2" class="node"><title>Node2</title>
<g id="a_node2"><a xlink:href="classprior__hessian_1_1MultivariateNormalDist.html#a9a2d3e50448adb594ed60a92d2942943" target="_top" xlink:title="prior_hessian::Multivariate\lNormalDist::num_params">
<polygon fill="white" stroke="black" points="161,-94.5 161,-122.5 286,-122.5 286,-94.5 161,-94.5"/>
<text text-anchor="start" x="169" y="-111.3" font-family="Helvetica,sans-Serif" font-size="9.00">prior_hessian::Multivariate</text>
<text text-anchor="middle" x="223.5" y="-101.3" font-family="Helvetica,sans-Serif" font-size="9.00">NormalDist::num_params</text>
</a>
</g>
</g>
<!-- Node1&#45;&gt;Node2 -->
<g id="edge1" class="edge"><title>Node1&#45;&gt;Node2</title>
<path fill="none" stroke="midnightblue" d="M111.205,-75.6015C128.262,-80.6435 147.657,-86.3766 165.424,-91.6286"/>
<polygon fill="midnightblue" stroke="midnightblue" points="164.521,-95.0111 175.103,-94.4894 166.505,-88.2982 164.521,-95.0111"/>
</g>
<!-- Node3 -->
<g id="node3" class="node"><title>Node3</title>
<g id="a_node3"><a xlink:href="classprior__hessian_1_1MultivariateNormalDist.html#a3a232f67a79457c91ce1c061a19d18bc" target="_top" xlink:title="prior_hessian::Multivariate\lNormalDist::set_mu">
<polygon fill="white" stroke="black" points="161,-47.5 161,-75.5 286,-75.5 286,-47.5 161,-47.5"/>
<text text-anchor="start" x="169" y="-64.3" font-family="Helvetica,sans-Serif" font-size="9.00">prior_hessian::Multivariate</text>
<text text-anchor="middle" x="223.5" y="-54.3" font-family="Helvetica,sans-Serif" font-size="9.00">NormalDist::set_mu</text>
</a>
</g>
</g>
<!-- Node1&#45;&gt;Node3 -->
<g id="edge2" class="edge"><title>Node1&#45;&gt;Node3</title>
<path fill="none" stroke="midnightblue" d="M125.429,-61.5C133.674,-61.5 142.184,-61.5 150.58,-61.5"/>
<polygon fill="midnightblue" stroke="midnightblue" points="150.74,-65.0001 160.74,-61.5 150.74,-58.0001 150.74,-65.0001"/>
</g>
<!-- Node5 -->
<g id="node5" class="node"><title>Node5</title>
<g id="a_node5"><a xlink:href="classprior__hessian_1_1MultivariateNormalDist.html#aecd463f33fd68330ae245c2ad05e7b2f" target="_top" xlink:title="prior_hessian::Multivariate\lNormalDist::set_sigma">
<polygon fill="white" stroke="black" points="161,-0.5 161,-28.5 286,-28.5 286,-0.5 161,-0.5"/>
<text text-anchor="start" x="169" y="-17.3" font-family="Helvetica,sans-Serif" font-size="9.00">prior_hessian::Multivariate</text>
<text text-anchor="middle" x="223.5" y="-7.3" font-family="Helvetica,sans-Serif" font-size="9.00">NormalDist::set_sigma</text>
</a>
</g>
</g>
<!-- Node1&#45;&gt;Node5 -->
<g id="edge4" class="edge"><title>Node1&#45;&gt;Node5</title>
<path fill="none" stroke="midnightblue" d="M111.205,-47.3985C128.262,-42.3565 147.657,-36.6234 165.424,-31.3714"/>
<polygon fill="midnightblue" stroke="midnightblue" points="166.505,-34.7018 175.103,-28.5106 164.521,-27.9889 166.505,-34.7018"/>
</g>
<!-- Node4 -->
<g id="node4" class="node"><title>Node4</title>
<g id="a_node4"><a xlink:href="classprior__hessian_1_1MultivariateNormalDist.html#af202c613f03a8d07d9ab80ead9f4064b" target="_top" xlink:title="prior_hessian::Multivariate\lNormalDist::check_mu">
<polygon fill="white" stroke="black" points="322,-47.5 322,-75.5 447,-75.5 447,-47.5 322,-47.5"/>
<text text-anchor="start" x="330" y="-64.3" font-family="Helvetica,sans-Serif" font-size="9.00">prior_hessian::Multivariate</text>
<text text-anchor="middle" x="384.5" y="-54.3" font-family="Helvetica,sans-Serif" font-size="9.00">NormalDist::check_mu</text>
</a>
</g>
</g>
<!-- Node3&#45;&gt;Node4 -->
<g id="edge3" class="edge"><title>Node3&#45;&gt;Node4</title>
<path fill="none" stroke="midnightblue" d="M286.429,-61.5C294.674,-61.5 303.184,-61.5 311.58,-61.5"/>
<polygon fill="midnightblue" stroke="midnightblue" points="311.74,-65.0001 321.74,-61.5 311.74,-58.0001 311.74,-65.0001"/>
</g>
</g>
</svg>
