<?xml version="1.0" encoding="UTF-8" standalone="no"?>
<!DOCTYPE svg PUBLIC "-//W3C//DTD SVG 1.1//EN"
 "http://www.w3.org/Graphics/SVG/1.1/DTD/svg11.dtd">
<!-- Generated by graphviz version 2.38.0 (20140413.2041)
 -->
<!-- Title: prior_hessian::MultivariateNormalDist::operator!= Pages: 1 -->
<svg width="616pt" height="248pt"
 viewBox="0.00 0.00 616.00 248.00" xmlns="http://www.w3.org/2000/svg" xmlns:xlink="http://www.w3.org/1999/xlink">
<g id="graph0" class="graph" transform="scale(1 1) rotate(0) translate(4 244)">
<title>prior_hessian::MultivariateNormalDist::operator!=</title>
<polygon fill="white" stroke="none" points="-4,4 -4,-244 612,-244 612,4 -4,4"/>
<!-- Node1 -->
<g id="node1" class="node"><title>Node1</title>
<polygon fill="#bfbfbf" stroke="black" points="0,-140.5 0,-168.5 125,-168.5 125,-140.5 0,-140.5"/>
<text text-anchor="start" x="8" y="-157.3" font-family="Helvetica,sans-Serif" font-size="9.00">prior_hessian::Multivariate</text>
<text text-anchor="middle" x="62.5" y="-147.3" font-family="Helvetica,sans-Serif" font-size="9.00">NormalDist::operator!=</text>
</g>
<!-- Node2 -->
<g id="node2" class="node"><title>Node2</title>
<g id="a_node2"><a xlink:href="classprior__hessian_1_1MultivariateNormalDist.html#ad5428f037acfa512f7f28747bfa8ff6d" target="_top" xlink:title="prior_hessian::Multivariate\lNormalDist::get_param">
<polygon fill="white" stroke="black" points="161,-211.5 161,-239.5 286,-239.5 286,-211.5 161,-211.5"/>
<text text-anchor="start" x="169" y="-228.3" font-family="Helvetica,sans-Serif" font-size="9.00">prior_hessian::Multivariate</text>
<text text-anchor="middle" x="223.5" y="-218.3" font-family="Helvetica,sans-Serif" font-size="9.00">NormalDist::get_param</text>
</a>
</g>
</g>
<!-- Node1&#45;&gt;Node2 -->
<g id="edge1" class="edge"><title>Node1&#45;&gt;Node2</title>
<path fill="none" stroke="midnightblue" d="M90.4779,-168.684C109.865,-178.654 136.751,-192.027 161,-202.5 165.114,-204.277 169.415,-206.05 173.748,-207.779"/>
<polygon fill="midnightblue" stroke="midnightblue" points="172.638,-211.103 183.226,-211.479 175.183,-204.582 172.638,-211.103"/>
</g>
<!-- Node3 -->
<g id="node3" class="node"><title>Node3</title>
<g id="a_node3"><a xlink:href="classprior__hessian_1_1MultivariateNormalDist.html#a50243ac0981ffdd3e6bb3566e8b3afc0" target="_top" xlink:title="prior_hessian::Multivariate\lNormalDist::operator==">
<polygon fill="white" stroke="black" points="161,-164.5 161,-192.5 286,-192.5 286,-164.5 161,-164.5"/>
<text text-anchor="start" x="169" y="-181.3" font-family="Helvetica,sans-Serif" font-size="9.00">prior_hessian::Multivariate</text>
<text text-anchor="middle" x="223.5" y="-171.3" font-family="Helvetica,sans-Serif" font-size="9.00">NormalDist::operator==</text>
</a>
</g>
</g>
<!-- Node1&#45;&gt;Node3 -->
<g id="edge2" class="edge"><title>Node1&#45;&gt;Node3</title>
<path fill="none" stroke="midnightblue" d="M125.429,-163.848C133.674,-165.092 142.184,-166.377 150.58,-167.644"/>
<polygon fill="midnightblue" stroke="midnightblue" points="150.33,-171.146 160.74,-169.178 151.375,-164.224 150.33,-171.146"/>
</g>
<!-- Node6 -->
<g id="node6" class="node"><title>Node6</title>
<g id="a_node6"><a xlink:href="classprior__hessian_1_1MultivariateNormalDist.html#a55a53ff4ea86375a8971a5334c000c9c" target="_top" xlink:title="prior_hessian::Multivariate\lNormalDist::params">
<polygon fill="white" stroke="black" points="161,-117.5 161,-145.5 286,-145.5 286,-117.5 161,-117.5"/>
<text text-anchor="start" x="169" y="-134.3" font-family="Helvetica,sans-Serif" font-size="9.00">prior_hessian::Multivariate</text>
<text text-anchor="middle" x="223.5" y="-124.3" font-family="Helvetica,sans-Serif" font-size="9.00">NormalDist::params</text>
</a>
</g>
</g>
<!-- Node1&#45;&gt;Node6 -->
<g id="edge5" class="edge"><title>Node1&#45;&gt;Node6</title>
<path fill="none" stroke="midnightblue" d="M125.429,-145.542C133.674,-144.349 142.184,-143.118 150.58,-141.903"/>
<polygon fill="midnightblue" stroke="midnightblue" points="151.344,-145.329 160.74,-140.434 150.342,-138.402 151.344,-145.329"/>
</g>
<!-- Node8 -->
<g id="node8" class="node"><title>Node8</title>
<g id="a_node8"><a xlink:href="classprior__hessian_1_1MultivariateNormalDist.html#af968e071050a9b2ba4b4ef96b206602b" target="_top" xlink:title="prior_hessian::Multivariate\lNormalDist::set_params">
<polygon fill="white" stroke="black" points="161,-58.5 161,-86.5 286,-86.5 286,-58.5 161,-58.5"/>
<text text-anchor="start" x="169" y="-75.3" font-family="Helvetica,sans-Serif" font-size="9.00">prior_hessian::Multivariate</text>
<text text-anchor="middle" x="223.5" y="-65.3" font-family="Helvetica,sans-Serif" font-size="9.00">NormalDist::set_params</text>
</a>
</g>
</g>
<!-- Node1&#45;&gt;Node8 -->
<g id="edge9" class="edge"><title>Node1&#45;&gt;Node8</title>
<path fill="none" stroke="midnightblue" d="M90.8331,-140.404C117.192,-126.81 157.25,-106.151 186.259,-91.1903"/>
<polygon fill="midnightblue" stroke="midnightblue" points="187.975,-94.2437 195.258,-86.5493 184.766,-88.0223 187.975,-94.2437"/>
</g>
<!-- Node4 -->
<g id="node4" class="node"><title>Node4</title>
<g id="a_node4"><a xlink:href="classprior__hessian_1_1MultivariateNormalDist.html#a53e894d82ca08f285fc004b77301495d" target="_top" xlink:title="prior_hessian::Multivariate\lNormalDist::mu">
<polygon fill="white" stroke="black" points="322,-141.5 322,-169.5 447,-169.5 447,-141.5 322,-141.5"/>
<text text-anchor="start" x="330" y="-158.3" font-family="Helvetica,sans-Serif" font-size="9.00">prior_hessian::Multivariate</text>
<text text-anchor="middle" x="384.5" y="-148.3" font-family="Helvetica,sans-Serif" font-size="9.00">NormalDist::mu</text>
</a>
</g>
</g>
<!-- Node3&#45;&gt;Node4 -->
<g id="edge3" class="edge"><title>Node3&#45;&gt;Node4</title>
<path fill="none" stroke="midnightblue" d="M286.429,-169.542C294.674,-168.349 303.184,-167.118 311.58,-165.903"/>
<polygon fill="midnightblue" stroke="midnightblue" points="312.344,-169.329 321.74,-164.434 311.342,-162.402 312.344,-169.329"/>
</g>
<!-- Node5 -->
<g id="node5" class="node"><title>Node5</title>
<g id="a_node5"><a xlink:href="classprior__hessian_1_1MultivariateNormalDist.html#aa4e86dd2b8e088553aac8c6b0fa50832" target="_top" xlink:title="prior_hessian::Multivariate\lNormalDist::sigma">
<polygon fill="white" stroke="black" points="322,-188.5 322,-216.5 447,-216.5 447,-188.5 322,-188.5"/>
<text text-anchor="start" x="330" y="-205.3" font-family="Helvetica,sans-Serif" font-size="9.00">prior_hessian::Multivariate</text>
<text text-anchor="middle" x="384.5" y="-195.3" font-family="Helvetica,sans-Serif" font-size="9.00">NormalDist::sigma</text>
</a>
</g>
</g>
<!-- Node3&#45;&gt;Node5 -->
<g id="edge4" class="edge"><title>Node3&#45;&gt;Node5</title>
<path fill="none" stroke="midnightblue" d="M286.429,-187.848C294.674,-189.092 303.184,-190.377 311.58,-191.644"/>
<polygon fill="midnightblue" stroke="midnightblue" points="311.33,-195.146 321.74,-193.178 312.375,-188.224 311.33,-195.146"/>
</g>
<!-- Node6&#45;&gt;Node4 -->
<g id="edge6" class="edge"><title>Node6&#45;&gt;Node4</title>
<path fill="none" stroke="midnightblue" d="M286.429,-140.848C294.674,-142.092 303.184,-143.377 311.58,-144.644"/>
<polygon fill="midnightblue" stroke="midnightblue" points="311.33,-148.146 321.74,-146.178 312.375,-141.224 311.33,-148.146"/>
</g>
<!-- Node6&#45;&gt;Node5 -->
<g id="edge8" class="edge"><title>Node6&#45;&gt;Node5</title>
<path fill="none" stroke="midnightblue" d="M264.43,-145.63C271.73,-148.62 279.189,-151.954 286,-155.5 303.056,-164.38 304.881,-170.741 322,-179.5 325.343,-181.21 328.843,-182.861 332.405,-184.44"/>
<polygon fill="midnightblue" stroke="midnightblue" points="331.34,-187.788 341.914,-188.44 334.054,-181.336 331.34,-187.788"/>
</g>
<!-- Node7 -->
<g id="node7" class="node"><title>Node7</title>
<g id="a_node7"><a xlink:href="classprior__hessian_1_1MultivariateNormalDist.html#a9a2d3e50448adb594ed60a92d2942943" target="_top" xlink:title="prior_hessian::Multivariate\lNormalDist::num_params">
<polygon fill="white" stroke="black" points="322,-94.5 322,-122.5 447,-122.5 447,-94.5 322,-94.5"/>
<text text-anchor="start" x="330" y="-111.3" font-family="Helvetica,sans-Serif" font-size="9.00">prior_hessian::Multivariate</text>
<text text-anchor="middle" x="384.5" y="-101.3" font-family="Helvetica,sans-Serif" font-size="9.00">NormalDist::num_params</text>
</a>
</g>
</g>
<!-- Node6&#45;&gt;Node7 -->
<g id="edge7" class="edge"><title>Node6&#45;&gt;Node7</title>
<path fill="none" stroke="midnightblue" d="M286.429,-122.542C294.674,-121.349 303.184,-120.118 311.58,-118.903"/>
<polygon fill="midnightblue" stroke="midnightblue" points="312.344,-122.329 321.74,-117.434 311.342,-115.402 312.344,-122.329"/>
</g>
<!-- Node8&#45;&gt;Node7 -->
<g id="edge13" class="edge"><title>Node8&#45;&gt;Node7</title>
<path fill="none" stroke="midnightblue" d="M286.429,-86.5216C294.764,-88.4089 303.371,-90.3576 311.857,-92.279"/>
<polygon fill="midnightblue" stroke="midnightblue" points="311.214,-95.7219 321.74,-94.5166 312.76,-88.8947 311.214,-95.7219"/>
</g>
<!-- Node9 -->
<g id="node9" class="node"><title>Node9</title>
<g id="a_node9"><a xlink:href="classprior__hessian_1_1MultivariateNormalDist.html#a3a232f67a79457c91ce1c061a19d18bc" target="_top" xlink:title="prior_hessian::Multivariate\lNormalDist::set_mu">
<polygon fill="white" stroke="black" points="322,-0.5 322,-28.5 447,-28.5 447,-0.5 322,-0.5"/>
<text text-anchor="start" x="330" y="-17.3" font-family="Helvetica,sans-Serif" font-size="9.00">prior_hessian::Multivariate</text>
<text text-anchor="middle" x="384.5" y="-7.3" font-family="Helvetica,sans-Serif" font-size="9.00">NormalDist::set_mu</text>
</a>
</g>
</g>
<!-- Node8&#45;&gt;Node9 -->
<g id="edge10" class="edge"><title>Node8&#45;&gt;Node9</title>
<path fill="none" stroke="midnightblue" d="M262.989,-58.4598C284.783,-50.51 312.239,-40.4947 335.437,-32.0324"/>
<polygon fill="midnightblue" stroke="midnightblue" points="336.895,-35.2263 345.09,-28.5113 334.496,-28.6502 336.895,-35.2263"/>
</g>
<!-- Node11 -->
<g id="node11" class="node"><title>Node11</title>
<g id="a_node11"><a xlink:href="classprior__hessian_1_1MultivariateNormalDist.html#aecd463f33fd68330ae245c2ad05e7b2f" target="_top" xlink:title="prior_hessian::Multivariate\lNormalDist::set_sigma">
<polygon fill="white" stroke="black" points="322,-47.5 322,-75.5 447,-75.5 447,-47.5 322,-47.5"/>
<text text-anchor="start" x="330" y="-64.3" font-family="Helvetica,sans-Serif" font-size="9.00">prior_hessian::Multivariate</text>
<text text-anchor="middle" x="384.5" y="-54.3" font-family="Helvetica,sans-Serif" font-size="9.00">NormalDist::set_sigma</text>
</a>
</g>
</g>
<!-- Node8&#45;&gt;Node11 -->
<g id="edge12" class="edge"><title>Node8&#45;&gt;Node11</title>
<path fill="none" stroke="midnightblue" d="M286.429,-68.2156C294.674,-67.6452 303.184,-67.0565 311.58,-66.4756"/>
<polygon fill="midnightblue" stroke="midnightblue" points="312.006,-69.9546 321.74,-65.7727 311.522,-62.9713 312.006,-69.9546"/>
</g>
<!-- Node10 -->
<g id="node10" class="node"><title>Node10</title>
<g id="a_node10"><a xlink:href="classprior__hessian_1_1MultivariateNormalDist.html#af202c613f03a8d07d9ab80ead9f4064b" target="_top" xlink:title="prior_hessian::Multivariate\lNormalDist::check_mu">
<polygon fill="white" stroke="black" points="483,-0.5 483,-28.5 608,-28.5 608,-0.5 483,-0.5"/>
<text text-anchor="start" x="491" y="-17.3" font-family="Helvetica,sans-Serif" font-size="9.00">prior_hessian::Multivariate</text>
<text text-anchor="middle" x="545.5" y="-7.3" font-family="Helvetica,sans-Serif" font-size="9.00">NormalDist::check_mu</text>
</a>
</g>
</g>
<!-- Node9&#45;&gt;Node10 -->
<g id="edge11" class="edge"><title>Node9&#45;&gt;Node10</title>
<path fill="none" stroke="midnightblue" d="M447.429,-14.5C455.674,-14.5 464.184,-14.5 472.58,-14.5"/>
<polygon fill="midnightblue" stroke="midnightblue" points="472.74,-18.0001 482.74,-14.5 472.74,-11.0001 472.74,-18.0001"/>
</g>
</g>
</svg>
