<?xml version="1.0" encoding="UTF-8" standalone="no"?>
<!DOCTYPE svg PUBLIC "-//W3C//DTD SVG 1.1//EN"
 "http://www.w3.org/Graphics/SVG/1.1/DTD/svg11.dtd">
<!-- Generated by graphviz version 2.38.0 (20140413.2041)
 -->
<!-- Title: prior_hessian::CompositeDist::num_dim Pages: 1 -->
<!--zoomable 993 -->
<svg id="main" version="1.1" xmlns="http://www.w3.org/2000/svg" xmlns:xlink="http://www.w3.org/1999/xlink" xml:space="preserve" onload="init(evt)">
<style type="text/css"><![CDATA[
.edge:hover path { stroke: red; }
.edge:hover polygon { stroke: red; fill: red; }
]]></style>
<script type="text/javascript"><![CDATA[
var edges = document.getElementsByTagName('g');
if (edges && edges.length) {
  for (var i=0;i<edges.length;i++) {
    if (edges[i].id.substr(0,4)=='edge') {
      edges[i].setAttribute('class','edge');
    }
  }
}
]]></script>
        <defs>
                <circle id="rim" cx="0" cy="0" r="7"/>
                <circle id="rim2" cx="0" cy="0" r="3.5"/>
                <g id="zoomPlus">
                        <use xlink:href="#rim" fill="#404040">
                                <set attributeName="fill" to="#808080" begin="zoomplus.mouseover" end="zoomplus.mouseout"/>
                        </use>
                        <path d="M-4,0h8M0,-4v8" fill="none" stroke="white" stroke-width="1.5" pointer-events="none"/>
                </g>
                <g id="zoomMin">
                        <use xlink:href="#rim" fill="#404040">
                                <set attributeName="fill" to="#808080" begin="zoomminus.mouseover" end="zoomminus.mouseout"/>
                        </use>
                        <path d="M-4,0h8" fill="none" stroke="white" stroke-width="1.5" pointer-events="none"/>
                </g>
                <g id="dirArrow">
                        <path fill="none" stroke="white" stroke-width="1.5" d="M0,-3.0v7 M-2.5,-0.5L0,-3.0L2.5,-0.5"/>
                </g>
               <g id="resetDef">
                       <use xlink:href="#rim2" fill="#404040">
                               <set attributeName="fill" to="#808080" begin="reset.mouseover" end="reset.mouseout"/>
                       </use>
               </g>
        </defs>

<script type="text/javascript">
var viewWidth = 1292;
var viewHeight = 993;
var sectionId = 'dynsection-50';
</script>
<script xlink:href="svgpan.js"/>
<svg id="graph" class="graph">
<g id="viewport">
<title>prior_hessian::CompositeDist::num_dim</title>
<polygon fill="white" stroke="none" points="-4,4 -4,-988.5 1288,-988.5 1288,4 -4,4"/>
<!-- Node1 -->
<g id="node1" class="node"><title>Node1</title>
<polygon fill="#bfbfbf" stroke="black" points="0,-274 0,-302 122,-302 122,-274 0,-274"/>
<text text-anchor="start" x="8" y="-290.8" font-family="Helvetica,sans-Serif" font-size="9.00">prior_hessian::Composite</text>
<text text-anchor="middle" x="61" y="-280.8" font-family="Helvetica,sans-Serif" font-size="9.00">Dist::num_dim</text>
</g>
<!-- Node2 -->
<g id="node2" class="node"><title>Node2</title>
<g id="a_node2"><a xlink:href="classprior__hessian_1_1CompositeDist.html#aaa6bfd95f5914c0f68d67cd97ff40db3" target="_top" xlink:title="prior_hessian::Composite\lDist::grad">
<polygon fill="white" stroke="black" points="158,-777 158,-805 280,-805 280,-777 158,-777"/>
<text text-anchor="start" x="166" y="-793.8" font-family="Helvetica,sans-Serif" font-size="9.00">prior_hessian::Composite</text>
<text text-anchor="middle" x="219" y="-783.8" font-family="Helvetica,sans-Serif" font-size="9.00">Dist::grad</text>
</a>
</g>
</g>
<!-- Node1&#45;&gt;Node2 -->
<g id="edge1" class="edge"><title>Node1&#45;&gt;Node2</title>
<path fill="none" stroke="midnightblue" d="M63.4747,-312.212C68.3938,-379.764 88.1181,-574.729 158,-718 169.219,-741.002 189.045,-763.078 202.823,-776.815"/>
<polygon fill="midnightblue" stroke="midnightblue" points="66.9605,-311.883 62.7847,-302.146 59.9769,-312.362 66.9605,-311.883"/>
</g>
<!-- Node7 -->
<g id="node7" class="node"><title>Node7</title>
<g id="a_node7"><a xlink:href="classprior__hessian_1_1CompositeDist.html#a24bac25ae8c0330b8a3aacadffc9d5ae" target="_top" xlink:title="prior_hessian::Composite\lDist::rllh_components">
<polygon fill="white" stroke="black" points="1162,-350 1162,-378 1284,-378 1284,-350 1162,-350"/>
<text text-anchor="start" x="1170" y="-366.8" font-family="Helvetica,sans-Serif" font-size="9.00">prior_hessian::Composite</text>
<text text-anchor="middle" x="1223" y="-356.8" font-family="Helvetica,sans-Serif" font-size="9.00">Dist::rllh_components</text>
</a>
</g>
</g>
<!-- Node1&#45;&gt;Node7 -->
<g id="edge34" class="edge"><title>Node1&#45;&gt;Node7</title>
<path fill="none" stroke="midnightblue" d="M67.9933,-312.026C91.6765,-400.634 187.408,-704 388,-704 388,-704 388,-704 907,-704 1087.65,-704 1193.71,-442.524 1217.07,-378.177"/>
<polygon fill="midnightblue" stroke="midnightblue" points="71.372,-311.112 65.4601,-302.32 64.5988,-312.879 71.372,-311.112"/>
</g>
<!-- Node8 -->
<g id="node8" class="node"><title>Node8</title>
<g id="a_node8"><a xlink:href="classprior__hessian_1_1CompositeDist.html#a90a25995e3e72cc958f188c78fc76d92" target="_top" xlink:title="prior_hessian::Composite\lDist::grad2">
<polygon fill="white" stroke="black" points="158,-487 158,-515 280,-515 280,-487 158,-487"/>
<text text-anchor="start" x="166" y="-503.8" font-family="Helvetica,sans-Serif" font-size="9.00">prior_hessian::Composite</text>
<text text-anchor="middle" x="219" y="-493.8" font-family="Helvetica,sans-Serif" font-size="9.00">Dist::grad2</text>
</a>
</g>
</g>
<!-- Node1&#45;&gt;Node8 -->
<g id="edge7" class="edge"><title>Node1&#45;&gt;Node8</title>
<path fill="none" stroke="midnightblue" d="M78.5679,-310.622C110.783,-354.608 181.031,-450.522 207.568,-486.756"/>
<polygon fill="midnightblue" stroke="midnightblue" points="81.2103,-308.306 72.4778,-302.306 75.5629,-312.442 81.2103,-308.306"/>
</g>
<!-- Node12 -->
<g id="node12" class="node"><title>Node12</title>
<g id="a_node12"><a xlink:href="classprior__hessian_1_1CompositeDist.html#ab8c1ff058081ab81620e24b0e3e85f5d" target="_top" xlink:title="prior_hessian::Composite\lDist::hess">
<polygon fill="white" stroke="black" points="158,-321 158,-349 280,-349 280,-321 158,-321"/>
<text text-anchor="start" x="166" y="-337.8" font-family="Helvetica,sans-Serif" font-size="9.00">prior_hessian::Composite</text>
<text text-anchor="middle" x="219" y="-327.8" font-family="Helvetica,sans-Serif" font-size="9.00">Dist::hess</text>
</a>
</g>
</g>
<!-- Node1&#45;&gt;Node12 -->
<g id="edge13" class="edge"><title>Node1&#45;&gt;Node12</title>
<path fill="none" stroke="midnightblue" d="M118.799,-305.112C136.117,-310.33 154.944,-316.002 171.497,-320.989"/>
<polygon fill="midnightblue" stroke="midnightblue" points="119.39,-301.635 108.805,-302.102 117.37,-308.338 119.39,-301.635"/>
</g>
<!-- Node14 -->
<g id="node14" class="node"><title>Node14</title>
<g id="a_node14"><a xlink:href="classprior__hessian_1_1CompositeDist.html#ac27bd3125d941aa9e83b2c900e63d4fc" target="_top" xlink:title="prior_hessian::Composite\lDist::make_zero_grad">
<polygon fill="white" stroke="black" points="158,-274 158,-302 280,-302 280,-274 158,-274"/>
<text text-anchor="start" x="166" y="-290.8" font-family="Helvetica,sans-Serif" font-size="9.00">prior_hessian::Composite</text>
<text text-anchor="middle" x="219" y="-280.8" font-family="Helvetica,sans-Serif" font-size="9.00">Dist::make_zero_grad</text>
</a>
</g>
</g>
<!-- Node1&#45;&gt;Node14 -->
<g id="edge17" class="edge"><title>Node1&#45;&gt;Node14</title>
<path fill="none" stroke="midnightblue" d="M132.538,-288C140.99,-288 149.56,-288 157.847,-288"/>
<polygon fill="midnightblue" stroke="midnightblue" points="132.314,-284.5 122.314,-288 132.314,-291.5 132.314,-284.5"/>
</g>
<!-- Node15 -->
<g id="node15" class="node"><title>Node15</title>
<g id="a_node15"><a xlink:href="classprior__hessian_1_1CompositeDist.html#ab92419cbc26b5fdd32cf5edffe54453f" target="_top" xlink:title="prior_hessian::Composite\lDist::make_zero_hess">
<polygon fill="white" stroke="black" points="158,-227 158,-255 280,-255 280,-227 158,-227"/>
<text text-anchor="start" x="166" y="-243.8" font-family="Helvetica,sans-Serif" font-size="9.00">prior_hessian::Composite</text>
<text text-anchor="middle" x="219" y="-233.8" font-family="Helvetica,sans-Serif" font-size="9.00">Dist::make_zero_hess</text>
</a>
</g>
</g>
<!-- Node1&#45;&gt;Node15 -->
<g id="edge18" class="edge"><title>Node1&#45;&gt;Node15</title>
<path fill="none" stroke="midnightblue" d="M118.799,-270.888C136.117,-265.67 154.944,-259.998 171.497,-255.011"/>
<polygon fill="midnightblue" stroke="midnightblue" points="117.37,-267.662 108.805,-273.898 119.39,-274.365 117.37,-267.662"/>
</g>
<!-- Node16 -->
<g id="node16" class="node"><title>Node16</title>
<g id="a_node16"><a xlink:href="namespaceprior__hessian.html#ab26e9ddc3b6a5caccf5d75e1a1e1af1b" target="_top" xlink:title="prior_hessian::operator\&lt;\&lt;">
<polygon fill="white" stroke="black" points="513.5,-29 513.5,-47 635.5,-47 635.5,-29 513.5,-29"/>
<text text-anchor="middle" x="574.5" y="-35.8" font-family="Helvetica,sans-Serif" font-size="9.00">prior_hessian::operator&lt;&lt;</text>
</a>
</g>
</g>
<!-- Node1&#45;&gt;Node16 -->
<g id="edge19" class="edge"><title>Node1&#45;&gt;Node16</title>
<path fill="none" stroke="midnightblue" d="M79.3467,-265.771C97.0943,-244.325 126.47,-212.217 158,-192 282.503,-112.168 454.336,-65.389 532.196,-47.0417"/>
<polygon fill="midnightblue" stroke="midnightblue" points="76.4995,-263.726 72.9159,-273.696 81.935,-268.136 76.4995,-263.726"/>
</g>
<!-- Node20 -->
<g id="node20" class="node"><title>Node20</title>
<g id="a_node20"><a xlink:href="classprior__hessian_1_1CompositeDist.html#ae7ca30fd19fb59ebe241873443b9faed" target="_top" xlink:title="prior_hessian::Composite\lDist::param_names">
<polygon fill="white" stroke="black" points="328,-184 328,-212 450,-212 450,-184 328,-184"/>
<text text-anchor="start" x="336" y="-200.8" font-family="Helvetica,sans-Serif" font-size="9.00">prior_hessian::Composite</text>
<text text-anchor="middle" x="389" y="-190.8" font-family="Helvetica,sans-Serif" font-size="9.00">Dist::param_names</text>
</a>
</g>
</g>
<!-- Node1&#45;&gt;Node20 -->
<g id="edge26" class="edge"><title>Node1&#45;&gt;Node20</title>
<path fill="none" stroke="midnightblue" d="M83.4019,-266.615C101.576,-249.926 129.227,-227.818 158,-217 212.943,-196.344 280.324,-193.107 327.915,-194.117"/>
<polygon fill="midnightblue" stroke="midnightblue" points="80.6166,-264.431 75.7486,-273.841 85.4224,-269.521 80.6166,-264.431"/>
</g>
<!-- Node23 -->
<g id="node23" class="node"><title>Node23</title>
<g id="a_node23"><a xlink:href="classprior__hessian_1_1CompositeDist.html#a6a84d1519fcee908bd41abd4a989f666" target="_top" xlink:title="prior_hessian::Composite\lDist::set_dim_variables">
<polygon fill="white" stroke="black" points="158,-54 158,-82 280,-82 280,-54 158,-54"/>
<text text-anchor="start" x="166" y="-70.8" font-family="Helvetica,sans-Serif" font-size="9.00">prior_hessian::Composite</text>
<text text-anchor="middle" x="219" y="-60.8" font-family="Helvetica,sans-Serif" font-size="9.00">Dist::set_dim_variables</text>
</a>
</g>
</g>
<!-- Node1&#45;&gt;Node23 -->
<g id="edge35" class="edge"><title>Node1&#45;&gt;Node23</title>
<path fill="none" stroke="midnightblue" d="M73.362,-264.557C89.7408,-231.89 122.001,-171.565 158,-126 170.933,-109.63 188.301,-93.3246 201.022,-82.1908"/>
<polygon fill="midnightblue" stroke="midnightblue" points="70.1057,-263.246 68.8022,-273.76 76.378,-266.354 70.1057,-263.246"/>
</g>
<!-- Node3 -->
<g id="node3" class="node"><title>Node3</title>
<g id="a_node3"><a xlink:href="classprior__hessian_1_1CompositeDist_1_1ComponentDistAdaptor_3_01Dist_00_01meta_1_1EnableIfSubclc6c9bd83bba546a81e521c87ad7ee6d3.html#afc250548eb1ff396ea65a0c3405a2977" target="_top" xlink:title="prior_hessian::Composite\lDist::ComponentDistAdaptor\l\&lt; Dist, meta::EnableIfSubclassT\l\&lt; Dist, UnivariateDist \&gt; \&gt;::grad\l_accumulate_idx">
<polygon fill="white" stroke="black" points="316,-926 316,-984 462,-984 462,-926 316,-926"/>
<text text-anchor="start" x="324" y="-972.8" font-family="Helvetica,sans-Serif" font-size="9.00">prior_hessian::Composite</text>
<text text-anchor="start" x="324" y="-962.8" font-family="Helvetica,sans-Serif" font-size="9.00">Dist::ComponentDistAdaptor</text>
<text text-anchor="start" x="324" y="-952.8" font-family="Helvetica,sans-Serif" font-size="9.00">&lt; Dist, meta::EnableIfSubclassT</text>
<text text-anchor="start" x="324" y="-942.8" font-family="Helvetica,sans-Serif" font-size="9.00">&lt; Dist, UnivariateDist &gt; &gt;::grad</text>
<text text-anchor="middle" x="389" y="-932.8" font-family="Helvetica,sans-Serif" font-size="9.00">_accumulate_idx</text>
</a>
</g>
</g>
<!-- Node2&#45;&gt;Node3 -->
<g id="edge2" class="edge"><title>Node2&#45;&gt;Node3</title>
<path fill="none" stroke="midnightblue" d="M233.155,-813.895C249.71,-841.158 280.331,-886.794 316,-917 319.667,-920.106 323.63,-923.057 327.746,-925.839"/>
<polygon fill="midnightblue" stroke="midnightblue" points="236.026,-811.874 227.901,-805.073 230.011,-815.456 236.026,-811.874"/>
</g>
<!-- Node4 -->
<g id="node4" class="node"><title>Node4</title>
<g id="a_node4"><a xlink:href="classprior__hessian_1_1CompositeDist_1_1ComponentDistAdaptor_3_01Dist_00_01meta_1_1EnableIfSubcld67d34d533dbae21b9dad35557546eec.html#af28fce0efddb6e8893e101db4f0e91fc" target="_top" xlink:title="prior_hessian::Composite\lDist::ComponentDistAdaptor\l\&lt; Dist, meta::EnableIfSubclassT\l\&lt; Dist, MultivariateDist \&gt; \&gt;\l::grad_accumulate_idx">
<polygon fill="white" stroke="black" points="316,-849 316,-907 462,-907 462,-849 316,-849"/>
<text text-anchor="start" x="324" y="-895.8" font-family="Helvetica,sans-Serif" font-size="9.00">prior_hessian::Composite</text>
<text text-anchor="start" x="324" y="-885.8" font-family="Helvetica,sans-Serif" font-size="9.00">Dist::ComponentDistAdaptor</text>
<text text-anchor="start" x="324" y="-875.8" font-family="Helvetica,sans-Serif" font-size="9.00">&lt; Dist, meta::EnableIfSubclassT</text>
<text text-anchor="start" x="324" y="-865.8" font-family="Helvetica,sans-Serif" font-size="9.00">&lt; Dist, MultivariateDist &gt; &gt;</text>
<text text-anchor="middle" x="389" y="-855.8" font-family="Helvetica,sans-Serif" font-size="9.00">::grad_accumulate_idx</text>
</a>
</g>
</g>
<!-- Node2&#45;&gt;Node4 -->
<g id="edge3" class="edge"><title>Node2&#45;&gt;Node4</title>
<path fill="none" stroke="midnightblue" d="M256.366,-809.833C278.366,-821.225 306.878,-835.99 331.738,-848.864"/>
<polygon fill="midnightblue" stroke="midnightblue" points="257.855,-806.662 247.366,-805.172 254.636,-812.878 257.855,-806.662"/>
</g>
<!-- Node5 -->
<g id="node5" class="node"><title>Node5</title>
<g id="a_node5"><a xlink:href="classprior__hessian_1_1CompositeDist_1_1ComponentDistAdaptor_3_01Dist_00_01meta_1_1EnableIfSubcld67d34d533dbae21b9dad35557546eec.html#a757b275a9e56e7dd98542f9d1c341a50" target="_top" xlink:title="prior_hessian::Composite\lDist::ComponentDistAdaptor\l\&lt; Dist, meta::EnableIfSubclassT\l\&lt; Dist, MultivariateDist \&gt; \&gt;\l::grad_grad2_accumulate_idx">
<polygon fill="white" stroke="black" points="316,-733 316,-791 462,-791 462,-733 316,-733"/>
<text text-anchor="start" x="324" y="-779.8" font-family="Helvetica,sans-Serif" font-size="9.00">prior_hessian::Composite</text>
<text text-anchor="start" x="324" y="-769.8" font-family="Helvetica,sans-Serif" font-size="9.00">Dist::ComponentDistAdaptor</text>
<text text-anchor="start" x="324" y="-759.8" font-family="Helvetica,sans-Serif" font-size="9.00">&lt; Dist, meta::EnableIfSubclassT</text>
<text text-anchor="start" x="324" y="-749.8" font-family="Helvetica,sans-Serif" font-size="9.00">&lt; Dist, MultivariateDist &gt; &gt;</text>
<text text-anchor="middle" x="389" y="-739.8" font-family="Helvetica,sans-Serif" font-size="9.00">::grad_grad2_accumulate_idx</text>
</a>
</g>
</g>
<!-- Node2&#45;&gt;Node5 -->
<g id="edge4" class="edge"><title>Node2&#45;&gt;Node5</title>
<path fill="none" stroke="midnightblue" d="M290.083,-778.902C298.617,-777.429 307.348,-775.922 315.91,-774.444"/>
<polygon fill="midnightblue" stroke="midnightblue" points="289.436,-775.462 280.177,-780.612 290.627,-782.36 289.436,-775.462"/>
</g>
<!-- Node6 -->
<g id="node6" class="node"><title>Node6</title>
<g id="a_node6"><a xlink:href="classprior__hessian_1_1CompositeDist_1_1ComponentDistAdaptor_3_01Dist_00_01meta_1_1EnableIfSubcld67d34d533dbae21b9dad35557546eec.html#ac5283bdcf85d28d389d5a4270fb76f10" target="_top" xlink:title="prior_hessian::Composite\lDist::ComponentDistAdaptor\l\&lt; Dist, meta::EnableIfSubclassT\l\&lt; Dist, MultivariateDist \&gt; \&gt;\l::grad_hess_accumulate_idx">
<polygon fill="white" stroke="black" points="316,-463 316,-521 462,-521 462,-463 316,-463"/>
<text text-anchor="start" x="324" y="-509.8" font-family="Helvetica,sans-Serif" font-size="9.00">prior_hessian::Composite</text>
<text text-anchor="start" x="324" y="-499.8" font-family="Helvetica,sans-Serif" font-size="9.00">Dist::ComponentDistAdaptor</text>
<text text-anchor="start" x="324" y="-489.8" font-family="Helvetica,sans-Serif" font-size="9.00">&lt; Dist, meta::EnableIfSubclassT</text>
<text text-anchor="start" x="324" y="-479.8" font-family="Helvetica,sans-Serif" font-size="9.00">&lt; Dist, MultivariateDist &gt; &gt;</text>
<text text-anchor="middle" x="389" y="-469.8" font-family="Helvetica,sans-Serif" font-size="9.00">::grad_hess_accumulate_idx</text>
</a>
</g>
</g>
<!-- Node2&#45;&gt;Node6 -->
<g id="edge5" class="edge"><title>Node2&#45;&gt;Node6</title>
<path fill="none" stroke="midnightblue" d="M223.061,-766.571C230.479,-716.569 253.635,-601.277 316,-530 318.792,-526.809 321.919,-523.844 325.263,-521.096"/>
<polygon fill="midnightblue" stroke="midnightblue" points="219.556,-766.36 221.638,-776.748 226.489,-767.329 219.556,-766.36"/>
</g>
<!-- Node2&#45;&gt;Node7 -->
<g id="edge6" class="edge"><title>Node2&#45;&gt;Node7</title>
<path fill="none" stroke="midnightblue" d="M290.436,-800.194C361.681,-808.688 475.045,-820 573.5,-820 573.5,-820 573.5,-820 907,-820 1014.37,-820 1056.84,-800.132 1126,-718 1215.42,-611.814 1222.16,-429.77 1222.19,-378.065"/>
<polygon fill="midnightblue" stroke="midnightblue" points="290.584,-796.686 280.237,-798.963 289.745,-803.636 290.584,-796.686"/>
</g>
<!-- Node8&#45;&gt;Node5 -->
<g id="edge10" class="edge"><title>Node8&#45;&gt;Node5</title>
<path fill="none" stroke="midnightblue" d="M229.716,-524.339C245.273,-560.436 277.923,-631.252 316,-685 328.061,-702.025 343.658,-719.156 357.25,-732.923"/>
<polygon fill="midnightblue" stroke="midnightblue" points="232.929,-522.95 225.791,-515.121 226.489,-525.693 232.929,-522.95"/>
</g>
<!-- Node8&#45;&gt;Node7 -->
<g id="edge12" class="edge"><title>Node8&#45;&gt;Node7</title>
<path fill="none" stroke="midnightblue" d="M250.616,-481.826C268.884,-471.391 292.947,-459.347 316,-453 426.639,-422.54 458.744,-434 573.5,-434 573.5,-434 573.5,-434 907,-434 1008.96,-434 1125.16,-398.62 1183.81,-378.166"/>
<polygon fill="midnightblue" stroke="midnightblue" points="248.744,-478.867 241.886,-486.942 252.283,-484.906 248.744,-478.867"/>
</g>
<!-- Node9 -->
<g id="node9" class="node"><title>Node9</title>
<g id="a_node9"><a xlink:href="classprior__hessian_1_1CompositeDist_1_1ComponentDistAdaptor_3_01Dist_00_01meta_1_1EnableIfSubclc6c9bd83bba546a81e521c87ad7ee6d3.html#a5b337a7127326213a5ab5ba3da4ad8c3" target="_top" xlink:title="prior_hessian::Composite\lDist::ComponentDistAdaptor\l\&lt; Dist, meta::EnableIfSubclassT\l\&lt; Dist, UnivariateDist \&gt; \&gt;::grad2\l_accumulate_idx">
<polygon fill="white" stroke="black" points="316,-617 316,-675 462,-675 462,-617 316,-617"/>
<text text-anchor="start" x="324" y="-663.8" font-family="Helvetica,sans-Serif" font-size="9.00">prior_hessian::Composite</text>
<text text-anchor="start" x="324" y="-653.8" font-family="Helvetica,sans-Serif" font-size="9.00">Dist::ComponentDistAdaptor</text>
<text text-anchor="start" x="324" y="-643.8" font-family="Helvetica,sans-Serif" font-size="9.00">&lt; Dist, meta::EnableIfSubclassT</text>
<text text-anchor="start" x="324" y="-633.8" font-family="Helvetica,sans-Serif" font-size="9.00">&lt; Dist, UnivariateDist &gt; &gt;::grad2</text>
<text text-anchor="middle" x="389" y="-623.8" font-family="Helvetica,sans-Serif" font-size="9.00">_accumulate_idx</text>
</a>
</g>
</g>
<!-- Node8&#45;&gt;Node9 -->
<g id="edge8" class="edge"><title>Node8&#45;&gt;Node9</title>
<path fill="none" stroke="midnightblue" d="M236.44,-523.218C254.225,-546.191 284.312,-582.119 316,-607 320.361,-610.424 325.064,-613.71 329.904,-616.82"/>
<polygon fill="midnightblue" stroke="midnightblue" points="239.095,-520.928 230.249,-515.097 233.529,-525.172 239.095,-520.928"/>
</g>
<!-- Node10 -->
<g id="node10" class="node"><title>Node10</title>
<g id="a_node10"><a xlink:href="classprior__hessian_1_1CompositeDist_1_1ComponentDistAdaptor_3_01Dist_00_01meta_1_1EnableIfSubcld67d34d533dbae21b9dad35557546eec.html#a473a0e2099c9875f615593b4ea88f4b1" target="_top" xlink:title="prior_hessian::Composite\lDist::ComponentDistAdaptor\l\&lt; Dist, meta::EnableIfSubclassT\l\&lt; Dist, MultivariateDist \&gt; \&gt;\l::grad2_accumulate_idx">
<polygon fill="white" stroke="black" points="316,-540 316,-598 462,-598 462,-540 316,-540"/>
<text text-anchor="start" x="324" y="-586.8" font-family="Helvetica,sans-Serif" font-size="9.00">prior_hessian::Composite</text>
<text text-anchor="start" x="324" y="-576.8" font-family="Helvetica,sans-Serif" font-size="9.00">Dist::ComponentDistAdaptor</text>
<text text-anchor="start" x="324" y="-566.8" font-family="Helvetica,sans-Serif" font-size="9.00">&lt; Dist, meta::EnableIfSubclassT</text>
<text text-anchor="start" x="324" y="-556.8" font-family="Helvetica,sans-Serif" font-size="9.00">&lt; Dist, MultivariateDist &gt; &gt;</text>
<text text-anchor="middle" x="389" y="-546.8" font-family="Helvetica,sans-Serif" font-size="9.00">::grad2_accumulate_idx</text>
</a>
</g>
</g>
<!-- Node8&#45;&gt;Node10 -->
<g id="edge9" class="edge"><title>Node8&#45;&gt;Node10</title>
<path fill="none" stroke="midnightblue" d="M264.352,-518.952C280.231,-525.379 298.564,-532.8 316.168,-539.925"/>
<polygon fill="midnightblue" stroke="midnightblue" points="265.392,-515.597 254.81,-515.09 262.766,-522.086 265.392,-515.597"/>
</g>
<!-- Node11 -->
<g id="node11" class="node"><title>Node11</title>
<g id="a_node11"><a xlink:href="classprior__hessian_1_1CompositeDist_1_1ComponentDistAdaptor_3_01Dist_00_01meta_1_1EnableIfSubclc6c9bd83bba546a81e521c87ad7ee6d3.html#a98b86dce1c87e3335ccbc32e9cc1b16d" target="_top" xlink:title="prior_hessian::Composite\lDist::ComponentDistAdaptor\l\&lt; Dist, meta::EnableIfSubclassT\l\&lt; Dist, UnivariateDist \&gt; \&gt;::hess\l_accumulate_idx">
<polygon fill="white" stroke="black" points="316,-347 316,-405 462,-405 462,-347 316,-347"/>
<text text-anchor="start" x="324" y="-393.8" font-family="Helvetica,sans-Serif" font-size="9.00">prior_hessian::Composite</text>
<text text-anchor="start" x="324" y="-383.8" font-family="Helvetica,sans-Serif" font-size="9.00">Dist::ComponentDistAdaptor</text>
<text text-anchor="start" x="324" y="-373.8" font-family="Helvetica,sans-Serif" font-size="9.00">&lt; Dist, meta::EnableIfSubclassT</text>
<text text-anchor="start" x="324" y="-363.8" font-family="Helvetica,sans-Serif" font-size="9.00">&lt; Dist, UnivariateDist &gt; &gt;::hess</text>
<text text-anchor="middle" x="389" y="-353.8" font-family="Helvetica,sans-Serif" font-size="9.00">_accumulate_idx</text>
</a>
</g>
</g>
<!-- Node8&#45;&gt;Node11 -->
<g id="edge11" class="edge"><title>Node8&#45;&gt;Node11</title>
<path fill="none" stroke="midnightblue" d="M242.912,-479.95C261.873,-462.958 289.844,-438.86 316,-420 323.011,-414.945 330.614,-409.883 338.165,-405.086"/>
<polygon fill="midnightblue" stroke="midnightblue" points="240.445,-477.462 235.369,-486.761 245.136,-482.657 240.445,-477.462"/>
</g>
<!-- Node12&#45;&gt;Node6 -->
<g id="edge14" class="edge"><title>Node12&#45;&gt;Node6</title>
<path fill="none" stroke="midnightblue" d="M242.535,-356.059C271.972,-383.569 323.657,-431.87 356.833,-462.874"/>
<polygon fill="midnightblue" stroke="midnightblue" points="244.901,-353.48 235.205,-349.21 240.122,-358.595 244.901,-353.48"/>
</g>
<!-- Node12&#45;&gt;Node7 -->
<g id="edge16" class="edge"><title>Node12&#45;&gt;Node7</title>
<path fill="none" stroke="midnightblue" d="M272.789,-316.03C275.308,-314.467 277.73,-312.792 280,-311 301.776,-293.807 291.366,-272.764 316,-260 373.614,-230.147 407.671,-224.518 462,-260 495.324,-281.764 466.56,-317.592 498,-342 586.593,-410.779 634.843,-383 747,-383 747,-383 747,-383 907,-383 995.892,-383 1098.64,-375.368 1161.97,-369.778"/>
<polygon fill="midnightblue" stroke="midnightblue" points="270.991,-313.024 263.925,-320.919 274.372,-319.154 270.991,-313.024"/>
</g>
<!-- Node13 -->
<g id="node13" class="node"><title>Node13</title>
<g id="a_node13"><a xlink:href="classprior__hessian_1_1CompositeDist_1_1ComponentDistAdaptor_3_01Dist_00_01meta_1_1EnableIfSubcld67d34d533dbae21b9dad35557546eec.html#a20e3721013fae2e322cbc280b6178d11" target="_top" xlink:title="prior_hessian::Composite\lDist::ComponentDistAdaptor\l\&lt; Dist, meta::EnableIfSubclassT\l\&lt; Dist, MultivariateDist \&gt; \&gt;\l::hess_accumulate_idx">
<polygon fill="white" stroke="black" points="316,-270 316,-328 462,-328 462,-270 316,-270"/>
<text text-anchor="start" x="324" y="-316.8" font-family="Helvetica,sans-Serif" font-size="9.00">prior_hessian::Composite</text>
<text text-anchor="start" x="324" y="-306.8" font-family="Helvetica,sans-Serif" font-size="9.00">Dist::ComponentDistAdaptor</text>
<text text-anchor="start" x="324" y="-296.8" font-family="Helvetica,sans-Serif" font-size="9.00">&lt; Dist, meta::EnableIfSubclassT</text>
<text text-anchor="start" x="324" y="-286.8" font-family="Helvetica,sans-Serif" font-size="9.00">&lt; Dist, MultivariateDist &gt; &gt;</text>
<text text-anchor="middle" x="389" y="-276.8" font-family="Helvetica,sans-Serif" font-size="9.00">::hess_accumulate_idx</text>
</a>
</g>
</g>
<!-- Node12&#45;&gt;Node13 -->
<g id="edge15" class="edge"><title>Node12&#45;&gt;Node13</title>
<path fill="none" stroke="midnightblue" d="M290.083,-319.982C298.617,-318.154 307.348,-316.283 315.91,-314.448"/>
<polygon fill="midnightblue" stroke="midnightblue" points="289.222,-316.587 280.177,-322.105 290.689,-323.432 289.222,-316.587"/>
</g>
<!-- Node17 -->
<g id="node17" class="node"><title>Node17</title>
<g id="a_node17"><a xlink:href="classprior__hessian_1_1CompositeDist.html#a38c4fdacf927824117d202422b04013c" target="_top" xlink:title="prior_hessian::Composite\lDist::set_param_names">
<polygon fill="white" stroke="black" points="687,-169 687,-197 809,-197 809,-169 687,-169"/>
<text text-anchor="start" x="695" y="-185.8" font-family="Helvetica,sans-Serif" font-size="9.00">prior_hessian::Composite</text>
<text text-anchor="middle" x="748" y="-175.8" font-family="Helvetica,sans-Serif" font-size="9.00">Dist::set_param_names</text>
</a>
</g>
</g>
<!-- Node16&#45;&gt;Node17 -->
<g id="edge20" class="edge"><title>Node16&#45;&gt;Node17</title>
<path fill="none" stroke="midnightblue" d="M628.668,-50.465C636.524,-53.5413 644.239,-57.3355 651,-62 692.937,-90.9336 725.504,-143.571 739.51,-168.789"/>
<polygon fill="midnightblue" stroke="midnightblue" points="629.665,-47.1048 619.07,-47.0585 627.323,-53.7017 629.665,-47.1048"/>
</g>
<!-- Node17&#45;&gt;Node7 -->
<g id="edge25" class="edge"><title>Node17&#45;&gt;Node7</title>
<path fill="none" stroke="midnightblue" d="M819.169,-181.743C899.721,-183.574 1032.72,-196.921 1126,-259 1163.84,-284.179 1196.88,-327.406 1212.47,-349.73"/>
<polygon fill="midnightblue" stroke="midnightblue" points="819.188,-178.243 809.129,-181.569 819.066,-185.242 819.188,-178.243"/>
</g>
<!-- Node18 -->
<g id="node18" class="node"><title>Node18</title>
<g id="a_node18"><a xlink:href="classprior__hessian_1_1CompositeDist.html#ace0aaa3698d76aba6a47f9061ff98902" target="_top" xlink:title="prior_hessian::Composite\lDist::rename_param">
<polygon fill="white" stroke="black" points="845,-250 845,-278 967,-278 967,-250 845,-250"/>
<text text-anchor="start" x="853" y="-266.8" font-family="Helvetica,sans-Serif" font-size="9.00">prior_hessian::Composite</text>
<text text-anchor="middle" x="906" y="-256.8" font-family="Helvetica,sans-Serif" font-size="9.00">Dist::rename_param</text>
</a>
</g>
</g>
<!-- Node17&#45;&gt;Node18 -->
<g id="edge21" class="edge"><title>Node17&#45;&gt;Node18</title>
<path fill="none" stroke="midnightblue" d="M782.925,-201.871C801.207,-211.915 824.217,-224.356 845,-235 854.783,-240.01 865.567,-245.296 875.263,-249.962"/>
<polygon fill="midnightblue" stroke="midnightblue" points="784.544,-198.767 774.097,-197.006 781.165,-204.898 784.544,-198.767"/>
</g>
<!-- Node19 -->
<g id="node19" class="node"><title>Node19</title>
<g id="a_node19"><a xlink:href="classprior__hessian_1_1CompositeDist.html#a927fed39b2b4e87714c728d6e7b11e8b" target="_top" xlink:title="prior_hessian::Composite\lDist::params_components">
<polygon fill="white" stroke="black" points="1003,-269 1003,-297 1126,-297 1126,-269 1003,-269"/>
<text text-anchor="start" x="1011" y="-285.8" font-family="Helvetica,sans-Serif" font-size="9.00">prior_hessian::Composite</text>
<text text-anchor="middle" x="1064.5" y="-275.8" font-family="Helvetica,sans-Serif" font-size="9.00">Dist::params_components</text>
</a>
</g>
</g>
<!-- Node17&#45;&gt;Node19 -->
<g id="edge24" class="edge"><title>Node17&#45;&gt;Node19</title>
<path fill="none" stroke="midnightblue" d="M818.854,-198.191C862.062,-208.341 918.371,-222.937 967,-240 990.537,-248.259 1016.3,-259.879 1035.28,-268.957"/>
<polygon fill="midnightblue" stroke="midnightblue" points="819.538,-194.757 809.005,-195.901 817.953,-201.575 819.538,-194.757"/>
</g>
<!-- Node18&#45;&gt;Node19 -->
<g id="edge22" class="edge"><title>Node18&#45;&gt;Node19</title>
<path fill="none" stroke="midnightblue" d="M977.062,-272.506C985.657,-273.549 994.385,-274.609 1002.83,-275.634"/>
<polygon fill="midnightblue" stroke="midnightblue" points="977.408,-269.022 967.059,-271.292 976.565,-275.971 977.408,-269.022"/>
</g>
<!-- Node19&#45;&gt;Node7 -->
<g id="edge23" class="edge"><title>Node19&#45;&gt;Node7</title>
<path fill="none" stroke="midnightblue" d="M1101.95,-301.866C1130.33,-316.552 1169.08,-336.609 1194.79,-349.917"/>
<polygon fill="midnightblue" stroke="midnightblue" points="1103.25,-298.597 1092.76,-297.109 1100.03,-304.814 1103.25,-298.597"/>
</g>
<!-- Node20&#45;&gt;Node7 -->
<g id="edge30" class="edge"><title>Node20&#45;&gt;Node7</title>
<path fill="none" stroke="midnightblue" d="M448.474,-216.915C453.359,-219.834 457.964,-223.178 462,-227 489.43,-252.976 467.888,-281.188 498,-304 587.4,-371.726 634.843,-345 747,-345 747,-345 747,-345 907,-345 995.892,-345 1098.64,-352.632 1161.97,-358.222"/>
<polygon fill="midnightblue" stroke="midnightblue" points="449.911,-213.715 439.439,-212.105 446.621,-219.894 449.911,-213.715"/>
</g>
<!-- Node20&#45;&gt;Node16 -->
<g id="edge27" class="edge"><title>Node20&#45;&gt;Node16</title>
<path fill="none" stroke="midnightblue" d="M431.486,-178.872C442.528,-172.237 453.683,-163.922 462,-154 490.206,-120.35 465.957,-92.019 498,-62 505.127,-55.3236 514.108,-50.5045 523.366,-47.026"/>
<polygon fill="midnightblue" stroke="midnightblue" points="429.694,-175.865 422.71,-183.832 433.138,-181.959 429.694,-175.865"/>
</g>
<!-- Node20&#45;&gt;Node17 -->
<g id="edge33" class="edge"><title>Node20&#45;&gt;Node17</title>
<path fill="none" stroke="midnightblue" d="M428.938,-178.772C440.412,-171.955 452.44,-163.566 462,-154 483.714,-132.272 471.213,-110.035 498,-95 557.298,-61.717 587.626,-70.3484 651,-95 689.35,-109.918 721.693,-148.102 737.186,-168.931"/>
<polygon fill="midnightblue" stroke="midnightblue" points="426.883,-175.914 419.914,-183.894 430.338,-182.002 426.883,-175.914"/>
</g>
<!-- Node20&#45;&gt;Node18 -->
<g id="edge28" class="edge"><title>Node20&#45;&gt;Node18</title>
<path fill="none" stroke="midnightblue" d="M437.758,-215.938C445.949,-219.382 454.298,-223.129 462,-227 478.754,-235.421 480.046,-243.59 498,-249 616.814,-284.805 764.003,-278.567 844.822,-271.104"/>
<polygon fill="midnightblue" stroke="midnightblue" points="438.843,-212.6 428.263,-212.046 436.188,-219.077 438.843,-212.6"/>
</g>
<!-- Node20&#45;&gt;Node19 -->
<g id="edge29" class="edge"><title>Node20&#45;&gt;Node19</title>
<path fill="none" stroke="midnightblue" d="M445.27,-216.487C451.188,-219.549 456.9,-223.042 462,-227 483.348,-243.569 474.357,-262.913 498,-276 583.043,-323.074 874.821,-301.518 1002.67,-289.334"/>
<polygon fill="midnightblue" stroke="midnightblue" points="446.397,-213.148 435.862,-212.024 443.397,-219.472 446.397,-213.148"/>
</g>
<!-- Node21 -->
<g id="node21" class="node"><title>Node21</title>
<g id="a_node21"><a xlink:href="classprior__hessian_1_1CompositeDist_1_1ComponentDistAdaptor_3_01Dist_00_01meta_1_1EnableIfSubclc6c9bd83bba546a81e521c87ad7ee6d3.html#a75bbad1826eb579d89540607f59f3919" target="_top" xlink:title="prior_hessian::Composite\lDist::ComponentDistAdaptor\l\&lt; Dist, meta::EnableIfSubclassT\l\&lt; Dist, UnivariateDist \&gt; \&gt;::append\l_param_names">
<polygon fill="white" stroke="black" points="498,-182 498,-240 651,-240 651,-182 498,-182"/>
<text text-anchor="start" x="506" y="-228.8" font-family="Helvetica,sans-Serif" font-size="9.00">prior_hessian::Composite</text>
<text text-anchor="start" x="506" y="-218.8" font-family="Helvetica,sans-Serif" font-size="9.00">Dist::ComponentDistAdaptor</text>
<text text-anchor="start" x="506" y="-208.8" font-family="Helvetica,sans-Serif" font-size="9.00">&lt; Dist, meta::EnableIfSubclassT</text>
<text text-anchor="start" x="506" y="-198.8" font-family="Helvetica,sans-Serif" font-size="9.00">&lt; Dist, UnivariateDist &gt; &gt;::append</text>
<text text-anchor="middle" x="574.5" y="-188.8" font-family="Helvetica,sans-Serif" font-size="9.00">_param_names</text>
</a>
</g>
</g>
<!-- Node20&#45;&gt;Node21 -->
<g id="edge31" class="edge"><title>Node20&#45;&gt;Node21</title>
<path fill="none" stroke="midnightblue" d="M460.27,-202.978C472.573,-203.85 485.421,-204.76 497.862,-205.641"/>
<polygon fill="midnightblue" stroke="midnightblue" points="460.307,-199.472 450.085,-202.257 459.812,-206.455 460.307,-199.472"/>
</g>
<!-- Node22 -->
<g id="node22" class="node"><title>Node22</title>
<g id="a_node22"><a xlink:href="classprior__hessian_1_1CompositeDist_1_1ComponentDistAdaptor_3_01Dist_00_01meta_1_1EnableIfSubcld67d34d533dbae21b9dad35557546eec.html#a500e09e7f9b4431f7db471bf075cdce2" target="_top" xlink:title="prior_hessian::Composite\lDist::ComponentDistAdaptor\l\&lt; Dist, meta::EnableIfSubclassT\l\&lt; Dist, MultivariateDist \&gt; \&gt;\l::append_param_names">
<polygon fill="white" stroke="black" points="501.5,-105 501.5,-163 647.5,-163 647.5,-105 501.5,-105"/>
<text text-anchor="start" x="509.5" y="-151.8" font-family="Helvetica,sans-Serif" font-size="9.00">prior_hessian::Composite</text>
<text text-anchor="start" x="509.5" y="-141.8" font-family="Helvetica,sans-Serif" font-size="9.00">Dist::ComponentDistAdaptor</text>
<text text-anchor="start" x="509.5" y="-131.8" font-family="Helvetica,sans-Serif" font-size="9.00">&lt; Dist, meta::EnableIfSubclassT</text>
<text text-anchor="start" x="509.5" y="-121.8" font-family="Helvetica,sans-Serif" font-size="9.00">&lt; Dist, MultivariateDist &gt; &gt;</text>
<text text-anchor="middle" x="574.5" y="-111.8" font-family="Helvetica,sans-Serif" font-size="9.00">::append_param_names</text>
</a>
</g>
</g>
<!-- Node20&#45;&gt;Node22 -->
<g id="edge32" class="edge"><title>Node20&#45;&gt;Node22</title>
<path fill="none" stroke="midnightblue" d="M439.846,-180.615C458.729,-174.029 480.628,-166.391 501.166,-159.228"/>
<polygon fill="midnightblue" stroke="midnightblue" points="438.559,-177.357 430.27,-183.955 440.865,-183.966 438.559,-177.357"/>
</g>
<!-- Node24 -->
<g id="node24" class="node"><title>Node24</title>
<g id="a_node24"><a xlink:href="classprior__hessian_1_1CompositeDist.html#ab33784dcc2971ebaae40e6138bd1e4c2" target="_top" xlink:title="prior_hessian::Composite\lDist::num_dim_components">
<polygon fill="white" stroke="black" points="323.5,-24 323.5,-52 454.5,-52 454.5,-24 323.5,-24"/>
<text text-anchor="start" x="331.5" y="-40.8" font-family="Helvetica,sans-Serif" font-size="9.00">prior_hessian::Composite</text>
<text text-anchor="middle" x="389" y="-30.8" font-family="Helvetica,sans-Serif" font-size="9.00">Dist::num_dim_components</text>
</a>
</g>
</g>
<!-- Node23&#45;&gt;Node24 -->
<g id="edge36" class="edge"><title>Node23&#45;&gt;Node24</title>
<path fill="none" stroke="midnightblue" d="M290.178,-55.4682C301.192,-53.5015 312.532,-51.4765 323.412,-49.5336"/>
<polygon fill="midnightblue" stroke="midnightblue" points="289.406,-52.0506 280.177,-57.254 290.637,-58.9416 289.406,-52.0506"/>
</g>
<!-- Node24&#45;&gt;Node7 -->
<g id="edge38" class="edge"><title>Node24&#45;&gt;Node7</title>
<path fill="none" stroke="midnightblue" d="M464.781,-23.8656C475.891,-22.0502 487.226,-20.3555 498,-19 608.12,-5.14595 636.012,-0 747,-0 747,-0 747,-0 907,-0 1095.45,-0 1196.32,-282.432 1217.68,-349.731"/>
<polygon fill="midnightblue" stroke="midnightblue" points="463.948,-20.4564 454.663,-25.5605 465.104,-27.3602 463.948,-20.4564"/>
</g>
<!-- Node24&#45;&gt;Node16 -->
<g id="edge37" class="edge"><title>Node24&#45;&gt;Node16</title>
<path fill="none" stroke="midnightblue" d="M465.13,-38C481.196,-38 497.966,-38 513.379,-38"/>
<polygon fill="midnightblue" stroke="midnightblue" points="464.695,-34.5001 454.695,-38 464.695,-41.5001 464.695,-34.5001"/>
</g>
</g>
</svg>
        <g id="navigator" transform="translate(0 0)" fill="#404254">
                <rect fill="#f2f5e9" fill-opacity="0.5" stroke="#606060" stroke-width=".5" x="0" y="0" width="60" height="60"/>
                <use id="zoomplus" xlink:href="#zoomPlus" x="17" y="9" onmousedown="handleZoom(evt,'in')"/>
                <use id="zoomminus" xlink:href="#zoomMin" x="42" y="9" onmousedown="handleZoom(evt,'out')"/>
                <use id="reset" xlink:href="#resetDef" x="30" y="36" onmousedown="handleReset()"/>
                <g id="arrowUp" xlink:href="#dirArrow" transform="translate(30 24)" onmousedown="handlePan(0,-1)">
                  <use xlink:href="#rim" fill="#404040">
                        <set attributeName="fill" to="#808080" begin="arrowUp.mouseover" end="arrowUp.mouseout"/>
                  </use>
                  <path fill="none" stroke="white" stroke-width="1.5" d="M0,-3.0v7 M-2.5,-0.5L0,-3.0L2.5,-0.5"/>
                </g>
                <g id="arrowRight" xlink:href="#dirArrow" transform="rotate(90) translate(36 -43)" onmousedown="handlePan(1,0)">
                  <use xlink:href="#rim" fill="#404040">
                        <set attributeName="fill" to="#808080" begin="arrowRight.mouseover" end="arrowRight.mouseout"/>
                  </use>
                  <path fill="none" stroke="white" stroke-width="1.5" d="M0,-3.0v7 M-2.5,-0.5L0,-3.0L2.5,-0.5"/>
                </g>
                <g id="arrowDown" xlink:href="#dirArrow" transform="rotate(180) translate(-30 -48)" onmousedown="handlePan(0,1)">
                  <use xlink:href="#rim" fill="#404040">
                        <set attributeName="fill" to="#808080" begin="arrowDown.mouseover" end="arrowDown.mouseout"/>
                  </use>
                  <path fill="none" stroke="white" stroke-width="1.5" d="M0,-3.0v7 M-2.5,-0.5L0,-3.0L2.5,-0.5"/>
                </g>
                <g id="arrowLeft" xlink:href="#dirArrow" transform="rotate(270) translate(-36 17)" onmousedown="handlePan(-1,0)">
                  <use xlink:href="#rim" fill="#404040">
                        <set attributeName="fill" to="#808080" begin="arrowLeft.mouseover" end="arrowLeft.mouseout"/>
                  </use>
                  <path fill="none" stroke="white" stroke-width="1.5" d="M0,-3.0v7 M-2.5,-0.5L0,-3.0L2.5,-0.5"/>
                </g>
        </g>
        <svg viewBox="0 0 15 15" width="100%" height="30px" preserveAspectRatio="xMaxYMin meet">
         <g id="arrow_out" transform="scale(0.3 0.3)">
          <a xlink:href="classprior__hessian_1_1CompositeDist_ad532e3fe9e7293fef7b293d3c94a1ddc_icgraph_org.svg" target="_base">
           <rect id="button" ry="5" rx="5" y="6" x="6" height="38" width="38"
                fill="#f2f5e9" fill-opacity="0.5" stroke="#606060" stroke-width="1.0"/>
           <path id="arrow"
             d="M 11.500037,31.436501 C 11.940474,20.09759 22.043105,11.32322 32.158766,21.979434 L 37.068811,17.246167 C 37.068811,17.246167 37.088388,32 37.088388,32 L 22.160133,31.978069 C 22.160133,31.978069 26.997745,27.140456 26.997745,27.140456 C 18.528582,18.264221 13.291696,25.230495 11.500037,31.436501 z"
             style="fill:#404040;"/>
          </a>
         </g>
        </svg>
</svg>
