<?xml version="1.0" encoding="UTF-8" standalone="no"?>
<!DOCTYPE svg PUBLIC "-//W3C//DTD SVG 1.1//EN"
 "http://www.w3.org/Graphics/SVG/1.1/DTD/svg11.dtd">
<!-- Generated by graphviz version 2.38.0 (20140413.2041)
 -->
<!-- Title: prior_hessian::ScaledDist::ubound Pages: 1 -->
<!--zoomable 179 -->
<svg id="main" version="1.1" xmlns="http://www.w3.org/2000/svg" xmlns:xlink="http://www.w3.org/1999/xlink" xml:space="preserve" onload="init(evt)">
<style type="text/css"><![CDATA[
.edge:hover path { stroke: red; }
.edge:hover polygon { stroke: red; fill: red; }
]]></style>
<script type="text/javascript"><![CDATA[
var edges = document.getElementsByTagName('g');
if (edges && edges.length) {
  for (var i=0;i<edges.length;i++) {
    if (edges[i].id.substr(0,4)=='edge') {
      edges[i].setAttribute('class','edge');
    }
  }
}
]]></script>
        <defs>
                <circle id="rim" cx="0" cy="0" r="7"/>
                <circle id="rim2" cx="0" cy="0" r="3.5"/>
                <g id="zoomPlus">
                        <use xlink:href="#rim" fill="#404040">
                                <set attributeName="fill" to="#808080" begin="zoomplus.mouseover" end="zoomplus.mouseout"/>
                        </use>
                        <path d="M-4,0h8M0,-4v8" fill="none" stroke="white" stroke-width="1.5" pointer-events="none"/>
                </g>
                <g id="zoomMin">
                        <use xlink:href="#rim" fill="#404040">
                                <set attributeName="fill" to="#808080" begin="zoomminus.mouseover" end="zoomminus.mouseout"/>
                        </use>
                        <path d="M-4,0h8" fill="none" stroke="white" stroke-width="1.5" pointer-events="none"/>
                </g>
                <g id="dirArrow">
                        <path fill="none" stroke="white" stroke-width="1.5" d="M0,-3.0v7 M-2.5,-0.5L0,-3.0L2.5,-0.5"/>
                </g>
               <g id="resetDef">
                       <use xlink:href="#rim2" fill="#404040">
                               <set attributeName="fill" to="#808080" begin="reset.mouseover" end="reset.mouseout"/>
                       </use>
               </g>
        </defs>

<script type="text/javascript">
var viewWidth = 604;
var viewHeight = 179;
var sectionId = 'dynsection-29';
</script>
<script xlink:href="svgpan.js"/>
<svg id="graph" class="graph">
<g id="viewport">
<title>prior_hessian::ScaledDist::ubound</title>
<polygon fill="white" stroke="none" points="-4,4 -4,-175.079 600,-175.079 600,4 -4,4"/>
<!-- Node1 -->
<g id="node1" class="node"><title>Node1</title>
<polygon fill="#bfbfbf" stroke="black" points="0,-89.5 0,-117.5 122,-117.5 122,-89.5 0,-89.5"/>
<text text-anchor="start" x="8" y="-106.3" font-family="Helvetica,sans-Serif" font-size="9.00">prior_hessian::ScaledDist</text>
<text text-anchor="middle" x="61" y="-96.3" font-family="Helvetica,sans-Serif" font-size="9.00">::ubound</text>
</g>
<!-- Node2 -->
<g id="node2" class="node"><title>Node2</title>
<g id="a_node2"><a xlink:href="classprior__hessian_1_1ScaledDist.html#ada92f440acb5566f8e97f653f4da2015" target="_top" xlink:title="prior_hessian::ScaledDist\l::operator!=">
<polygon fill="white" stroke="black" points="474,-92.5 474,-120.5 596,-120.5 596,-92.5 474,-92.5"/>
<text text-anchor="start" x="482" y="-109.3" font-family="Helvetica,sans-Serif" font-size="9.00">prior_hessian::ScaledDist</text>
<text text-anchor="middle" x="535" y="-99.3" font-family="Helvetica,sans-Serif" font-size="9.00">::operator!=</text>
</a>
</g>
</g>
<!-- Node1&#45;&gt;Node2 -->
<g id="edge1" class="edge"><title>Node1&#45;&gt;Node2</title>
<path fill="none" stroke="midnightblue" d="M92.1445,-122.693C110.419,-133.173 134.647,-145.09 158,-150.5 279.234,-178.584 316.418,-177.035 438,-150.5 464.331,-144.753 492.076,-131.098 510.93,-120.512"/>
<polygon fill="midnightblue" stroke="midnightblue" points="93.8151,-119.615 83.4248,-117.543 90.255,-125.642 93.8151,-119.615"/>
</g>
<!-- Node3 -->
<g id="node3" class="node"><title>Node3</title>
<g id="a_node3"><a xlink:href="classprior__hessian_1_1ScaledDist.html#a00102b4332ba97aa1a0cff7a3c02e151" target="_top" xlink:title="prior_hessian::ScaledDist\l::ScaledDist">
<polygon fill="white" stroke="black" points="158,-113.5 158,-141.5 280,-141.5 280,-113.5 158,-113.5"/>
<text text-anchor="start" x="166" y="-130.3" font-family="Helvetica,sans-Serif" font-size="9.00">prior_hessian::ScaledDist</text>
<text text-anchor="middle" x="219" y="-120.3" font-family="Helvetica,sans-Serif" font-size="9.00">::ScaledDist</text>
</a>
</g>
</g>
<!-- Node1&#45;&gt;Node3 -->
<g id="edge2" class="edge"><title>Node1&#45;&gt;Node3</title>
<path fill="none" stroke="midnightblue" d="M132.259,-114.309C140.802,-115.623 149.469,-116.957 157.847,-118.246"/>
<polygon fill="midnightblue" stroke="midnightblue" points="132.73,-110.84 122.314,-112.779 131.665,-117.759 132.73,-110.84"/>
</g>
<!-- Node4 -->
<g id="node4" class="node"><title>Node4</title>
<g id="a_node4"><a xlink:href="classprior__hessian_1_1ScaledDist.html#a07e9dea370e56001f76ed8e10693f399" target="_top" xlink:title="prior_hessian::ScaledDist\l::set_bounds">
<polygon fill="white" stroke="black" points="158,-66.5 158,-94.5 280,-94.5 280,-66.5 158,-66.5"/>
<text text-anchor="start" x="166" y="-83.3" font-family="Helvetica,sans-Serif" font-size="9.00">prior_hessian::ScaledDist</text>
<text text-anchor="middle" x="219" y="-73.3" font-family="Helvetica,sans-Serif" font-size="9.00">::set_bounds</text>
</a>
</g>
</g>
<!-- Node1&#45;&gt;Node4 -->
<g id="edge3" class="edge"><title>Node1&#45;&gt;Node4</title>
<path fill="none" stroke="midnightblue" d="M132.259,-93.1412C140.802,-91.8818 149.469,-90.6039 157.847,-89.3688"/>
<polygon fill="midnightblue" stroke="midnightblue" points="131.696,-89.6864 122.314,-94.6076 132.717,-96.6115 131.696,-89.6864"/>
</g>
<!-- Node6 -->
<g id="node6" class="node"><title>Node6</title>
<g id="a_node6"><a xlink:href="classprior__hessian_1_1ScaledDist.html#a14964efa9531b9906d722a2d9fc52da3" target="_top" xlink:title="prior_hessian::ScaledDist\l::set_lbound">
<polygon fill="white" stroke="black" points="316,-0.5 316,-28.5 438,-28.5 438,-0.5 316,-0.5"/>
<text text-anchor="start" x="324" y="-17.3" font-family="Helvetica,sans-Serif" font-size="9.00">prior_hessian::ScaledDist</text>
<text text-anchor="middle" x="377" y="-7.3" font-family="Helvetica,sans-Serif" font-size="9.00">::set_lbound</text>
</a>
</g>
</g>
<!-- Node1&#45;&gt;Node6 -->
<g id="edge10" class="edge"><title>Node1&#45;&gt;Node6</title>
<path fill="none" stroke="midnightblue" d="M95.0737,-84.5985C113.168,-74.9598 136.27,-63.7688 158,-56.5 209.904,-39.1377 271.301,-28.1142 315.69,-21.7394"/>
<polygon fill="midnightblue" stroke="midnightblue" points="93.2207,-81.6219 86.1015,-89.4684 96.5599,-87.7741 93.2207,-81.6219"/>
</g>
<!-- Node4&#45;&gt;Node2 -->
<g id="edge4" class="edge"><title>Node4&#45;&gt;Node2</title>
<path fill="none" stroke="midnightblue" d="M270.613,-98.642C273.838,-100.183 276.994,-101.804 280,-103.5 297.655,-113.458 296.827,-124.922 316,-131.5 376.716,-152.332 451.95,-134.91 496.286,-120.567"/>
<polygon fill="midnightblue" stroke="midnightblue" points="271.962,-95.4114 261.405,-94.5193 269.101,-101.8 271.962,-95.4114"/>
</g>
<!-- Node5 -->
<g id="node5" class="node"><title>Node5</title>
<g id="a_node5"><a xlink:href="classprior__hessian_1_1ScaledDist.html#adcee5624ff0434c1cf9dcbeee4b66a85" target="_top" xlink:title="prior_hessian::ScaledDist\l::ScaledDist">
<polygon fill="white" stroke="black" points="316,-94.5 316,-122.5 438,-122.5 438,-94.5 316,-94.5"/>
<text text-anchor="start" x="324" y="-111.3" font-family="Helvetica,sans-Serif" font-size="9.00">prior_hessian::ScaledDist</text>
<text text-anchor="middle" x="377" y="-101.3" font-family="Helvetica,sans-Serif" font-size="9.00">::ScaledDist</text>
</a>
</g>
</g>
<!-- Node4&#45;&gt;Node5 -->
<g id="edge5" class="edge"><title>Node4&#45;&gt;Node5</title>
<path fill="none" stroke="midnightblue" d="M290.259,-93.1107C298.802,-94.6439 307.469,-96.1996 315.847,-97.7033"/>
<polygon fill="midnightblue" stroke="midnightblue" points="290.775,-89.6473 280.314,-91.3255 289.538,-96.5372 290.775,-89.6473"/>
</g>
<!-- Node4&#45;&gt;Node6 -->
<g id="edge6" class="edge"><title>Node4&#45;&gt;Node6</title>
<path fill="none" stroke="midnightblue" d="M259.707,-62.1248C276.918,-54.3137 297.358,-45.2412 316,-37.5 323.212,-34.5052 330.966,-31.4285 338.426,-28.5386"/>
<polygon fill="midnightblue" stroke="midnightblue" points="258.157,-58.9849 250.51,-66.318 261.061,-65.3542 258.157,-58.9849"/>
</g>
<!-- Node7 -->
<g id="node7" class="node"><title>Node7</title>
<g id="a_node7"><a xlink:href="classprior__hessian_1_1ScaledDist.html#ace5188e41adff598f3ed4d5dc8530af0" target="_top" xlink:title="prior_hessian::ScaledDist\l::set_ubound">
<polygon fill="white" stroke="black" points="316,-47.5 316,-75.5 438,-75.5 438,-47.5 316,-47.5"/>
<text text-anchor="start" x="324" y="-64.3" font-family="Helvetica,sans-Serif" font-size="9.00">prior_hessian::ScaledDist</text>
<text text-anchor="middle" x="377" y="-54.3" font-family="Helvetica,sans-Serif" font-size="9.00">::set_ubound</text>
</a>
</g>
</g>
<!-- Node4&#45;&gt;Node7 -->
<g id="edge8" class="edge"><title>Node4&#45;&gt;Node7</title>
<path fill="none" stroke="midnightblue" d="M290.259,-71.9428C298.802,-70.9023 307.469,-69.8467 315.847,-68.8264"/>
<polygon fill="midnightblue" stroke="midnightblue" points="289.817,-68.4707 280.314,-73.1541 290.664,-75.4193 289.817,-68.4707"/>
</g>
<!-- Node6&#45;&gt;Node2 -->
<g id="edge7" class="edge"><title>Node6&#45;&gt;Node2</title>
<path fill="none" stroke="midnightblue" d="M428.377,-32.6992C431.677,-34.2308 434.912,-35.8343 438,-37.5 467.627,-53.4791 498.693,-77.3026 517.195,-92.362"/>
<polygon fill="midnightblue" stroke="midnightblue" points="429.542,-29.3884 418.978,-28.5817 426.733,-35.8002 429.542,-29.3884"/>
</g>
<!-- Node7&#45;&gt;Node2 -->
<g id="edge9" class="edge"><title>Node7&#45;&gt;Node2</title>
<path fill="none" stroke="midnightblue" d="M436.716,-78.4374C452.713,-83.0518 469.864,-87.9993 485.242,-92.4353"/>
<polygon fill="midnightblue" stroke="midnightblue" points="437.51,-75.0236 426.931,-75.6148 435.57,-81.7494 437.51,-75.0236"/>
</g>
</g>
</svg>
        <g id="navigator" transform="translate(0 0)" fill="#404254">
                <rect fill="#f2f5e9" fill-opacity="0.5" stroke="#606060" stroke-width=".5" x="0" y="0" width="60" height="60"/>
                <use id="zoomplus" xlink:href="#zoomPlus" x="17" y="9" onmousedown="handleZoom(evt,'in')"/>
                <use id="zoomminus" xlink:href="#zoomMin" x="42" y="9" onmousedown="handleZoom(evt,'out')"/>
                <use id="reset" xlink:href="#resetDef" x="30" y="36" onmousedown="handleReset()"/>
                <g id="arrowUp" xlink:href="#dirArrow" transform="translate(30 24)" onmousedown="handlePan(0,-1)">
                  <use xlink:href="#rim" fill="#404040">
                        <set attributeName="fill" to="#808080" begin="arrowUp.mouseover" end="arrowUp.mouseout"/>
                  </use>
                  <path fill="none" stroke="white" stroke-width="1.5" d="M0,-3.0v7 M-2.5,-0.5L0,-3.0L2.5,-0.5"/>
                </g>
                <g id="arrowRight" xlink:href="#dirArrow" transform="rotate(90) translate(36 -43)" onmousedown="handlePan(1,0)">
                  <use xlink:href="#rim" fill="#404040">
                        <set attributeName="fill" to="#808080" begin="arrowRight.mouseover" end="arrowRight.mouseout"/>
                  </use>
                  <path fill="none" stroke="white" stroke-width="1.5" d="M0,-3.0v7 M-2.5,-0.5L0,-3.0L2.5,-0.5"/>
                </g>
                <g id="arrowDown" xlink:href="#dirArrow" transform="rotate(180) translate(-30 -48)" onmousedown="handlePan(0,1)">
                  <use xlink:href="#rim" fill="#404040">
                        <set attributeName="fill" to="#808080" begin="arrowDown.mouseover" end="arrowDown.mouseout"/>
                  </use>
                  <path fill="none" stroke="white" stroke-width="1.5" d="M0,-3.0v7 M-2.5,-0.5L0,-3.0L2.5,-0.5"/>
                </g>
                <g id="arrowLeft" xlink:href="#dirArrow" transform="rotate(270) translate(-36 17)" onmousedown="handlePan(-1,0)">
                  <use xlink:href="#rim" fill="#404040">
                        <set attributeName="fill" to="#808080" begin="arrowLeft.mouseover" end="arrowLeft.mouseout"/>
                  </use>
                  <path fill="none" stroke="white" stroke-width="1.5" d="M0,-3.0v7 M-2.5,-0.5L0,-3.0L2.5,-0.5"/>
                </g>
        </g>
        <svg viewBox="0 0 15 15" width="100%" height="30px" preserveAspectRatio="xMaxYMin meet">
         <g id="arrow_out" transform="scale(0.3 0.3)">
          <a xlink:href="classprior__hessian_1_1ScaledDist_a70c8013325f5b8709be0900dba6e9eda_icgraph_org.svg" target="_base">
           <rect id="button" ry="5" rx="5" y="6" x="6" height="38" width="38"
                fill="#f2f5e9" fill-opacity="0.5" stroke="#606060" stroke-width="1.0"/>
           <path id="arrow"
             d="M 11.500037,31.436501 C 11.940474,20.09759 22.043105,11.32322 32.158766,21.979434 L 37.068811,17.246167 C 37.068811,17.246167 37.088388,32 37.088388,32 L 22.160133,31.978069 C 22.160133,31.978069 26.997745,27.140456 26.997745,27.140456 C 18.528582,18.264221 13.291696,25.230495 11.500037,31.436501 z"
             style="fill:#404040;"/>
          </a>
         </g>
        </svg>
</svg>
