<?xml version="1.0" encoding="UTF-8" standalone="no"?>
<!DOCTYPE svg PUBLIC "-//W3C//DTD SVG 1.1//EN"
 "http://www.w3.org/Graphics/SVG/1.1/DTD/svg11.dtd">
<!-- Generated by graphviz version 2.38.0 (20140413.2041)
 -->
<!-- Title: prior_hessian::CopulaDistImpl::CopulaDist&lt; CopulaTemplate, MarginalDistTs &gt; Pages: 1 -->
<svg width="170pt" height="157pt"
 viewBox="0.00 0.00 170.00 157.00" xmlns="http://www.w3.org/2000/svg" xmlns:xlink="http://www.w3.org/1999/xlink">
<g id="graph0" class="graph" transform="scale(1 1) rotate(0) translate(4 153)">
<title>prior_hessian::CopulaDistImpl::CopulaDist&lt; CopulaTemplate, MarginalDistTs &gt;</title>
<polygon fill="white" stroke="none" points="-4,4 -4,-153 166,-153 166,4 -4,4"/>
<!-- Node1 -->
<g id="node1" class="node"><title>Node1</title>
<polygon fill="#bfbfbf" stroke="black" points="0,-0.5 0,-38.5 162,-38.5 162,-0.5 0,-0.5"/>
<text text-anchor="start" x="8" y="-27.3" font-family="Helvetica,sans-Serif" font-size="9.00">prior_hessian::CopulaDist</text>
<text text-anchor="start" x="8" y="-17.3" font-family="Helvetica,sans-Serif" font-size="9.00">Impl::CopulaDist&lt; CopulaTemplate,</text>
<text text-anchor="middle" x="81" y="-7.3" font-family="Helvetica,sans-Serif" font-size="9.00"> MarginalDistTs &gt;</text>
</g>
<!-- Node2 -->
<g id="node2" class="node"><title>Node2</title>
<g id="a_node2"><a xlink:href="classprior__hessian_1_1MultivariateDist.html" target="_top" xlink:title="prior_hessian::MultivariateDist">
<polygon fill="white" stroke="black" points="11,-75.5 11,-93.5 151,-93.5 151,-75.5 11,-75.5"/>
<text text-anchor="middle" x="81" y="-82.3" font-family="Helvetica,sans-Serif" font-size="9.00">prior_hessian::MultivariateDist</text>
</a>
</g>
</g>
<!-- Node2&#45;&gt;Node1 -->
<g id="edge1" class="edge"><title>Node2&#45;&gt;Node1</title>
<path fill="none" stroke="midnightblue" d="M81,-65.0758C81,-56.7168 81,-46.8643 81,-38.5506"/>
<polygon fill="midnightblue" stroke="midnightblue" points="77.5001,-65.2638 81,-75.2639 84.5001,-65.2639 77.5001,-65.2638"/>
</g>
<!-- Node3 -->
<g id="node3" class="node"><title>Node3</title>
<g id="a_node3"><a xlink:href="classprior__hessian_1_1BaseDist.html" target="_top" xlink:title="prior_hessian::BaseDist">
<polygon fill="white" stroke="black" points="24,-130.5 24,-148.5 138,-148.5 138,-130.5 24,-130.5"/>
<text text-anchor="middle" x="81" y="-137.3" font-family="Helvetica,sans-Serif" font-size="9.00">prior_hessian::BaseDist</text>
</a>
</g>
</g>
<!-- Node3&#45;&gt;Node2 -->
<g id="edge2" class="edge"><title>Node3&#45;&gt;Node2</title>
<path fill="none" stroke="midnightblue" d="M81,-120.175C81,-111.094 81,-100.595 81,-93.5496"/>
<polygon fill="midnightblue" stroke="midnightblue" points="77.5001,-120.219 81,-130.219 84.5001,-120.219 77.5001,-120.219"/>
</g>
</g>
</svg>
