<?xml version="1.0" encoding="UTF-8" standalone="no"?>
<!DOCTYPE svg PUBLIC "-//W3C//DTD SVG 1.1//EN"
 "http://www.w3.org/Graphics/SVG/1.1/DTD/svg11.dtd">
<!-- Generated by graphviz version 2.38.0 (20140413.2041)
 -->
<!-- Title: prior_hessian::CompositeDist::component_names Pages: 1 -->
<svg width="952pt" height="329pt"
 viewBox="0.00 0.00 952.00 329.00" xmlns="http://www.w3.org/2000/svg" xmlns:xlink="http://www.w3.org/1999/xlink">
<g id="graph0" class="graph" transform="scale(1 1) rotate(0) translate(4 325)">
<title>prior_hessian::CompositeDist::component_names</title>
<polygon fill="white" stroke="none" points="-4,4 -4,-325 948,-325 948,4 -4,4"/>
<!-- Node1 -->
<g id="node1" class="node"><title>Node1</title>
<polygon fill="#bfbfbf" stroke="black" points="0,-264.5 0,-292.5 122,-292.5 122,-264.5 0,-264.5"/>
<text text-anchor="start" x="8" y="-281.3" font-family="Helvetica,sans-Serif" font-size="9.00">prior_hessian::Composite</text>
<text text-anchor="middle" x="61" y="-271.3" font-family="Helvetica,sans-Serif" font-size="9.00">Dist::component_names</text>
</g>
<!-- Node2 -->
<g id="node2" class="node"><title>Node2</title>
<g id="a_node2"><a xlink:href="classprior__hessian_1_1CompositeDist.html#ad796a4f6b17cc35f936dee7d7d9a9a43" target="_top" xlink:title="prior_hessian::Composite\lDist::component_types">
<polygon fill="white" stroke="black" points="505,-292.5 505,-320.5 627,-320.5 627,-292.5 505,-292.5"/>
<text text-anchor="start" x="513" y="-309.3" font-family="Helvetica,sans-Serif" font-size="9.00">prior_hessian::Composite</text>
<text text-anchor="middle" x="566" y="-299.3" font-family="Helvetica,sans-Serif" font-size="9.00">Dist::component_types</text>
</a>
</g>
</g>
<!-- Node1&#45;&gt;Node2 -->
<g id="edge1" class="edge"><title>Node1&#45;&gt;Node2</title>
<path fill="none" stroke="midnightblue" d="M132.175,-289.646C140.855,-290.755 149.62,-291.747 158,-292.5 280.879,-303.539 425.346,-306.034 504.876,-306.503"/>
<polygon fill="midnightblue" stroke="midnightblue" points="132.426,-286.148 122.052,-288.297 131.502,-293.087 132.426,-286.148"/>
</g>
<!-- Node4 -->
<g id="node4" class="node"><title>Node4</title>
<g id="a_node4"><a xlink:href="namespaceprior__hessian.html#ab26e9ddc3b6a5caccf5d75e1a1e1af1b" target="_top" xlink:title="prior_hessian::operator\&lt;\&lt;">
<polygon fill="white" stroke="black" points="331.5,-269.5 331.5,-287.5 453.5,-287.5 453.5,-269.5 331.5,-269.5"/>
<text text-anchor="middle" x="392.5" y="-276.3" font-family="Helvetica,sans-Serif" font-size="9.00">prior_hessian::operator&lt;&lt;</text>
</a>
</g>
</g>
<!-- Node1&#45;&gt;Node4 -->
<g id="edge3" class="edge"><title>Node1&#45;&gt;Node4</title>
<path fill="none" stroke="midnightblue" d="M132.065,-278.5C191.247,-278.5 275.106,-278.5 331.304,-278.5"/>
<polygon fill="midnightblue" stroke="midnightblue" points="132.052,-275 122.052,-278.5 132.052,-282 132.052,-275"/>
</g>
<!-- Node7 -->
<g id="node7" class="node"><title>Node7</title>
<g id="a_node7"><a xlink:href="classprior__hessian_1_1CompositeDist.html#ae7ca30fd19fb59ebe241873443b9faed" target="_top" xlink:title="prior_hessian::Composite\lDist::param_names">
<polygon fill="white" stroke="black" points="158,-188.5 158,-216.5 280,-216.5 280,-188.5 158,-188.5"/>
<text text-anchor="start" x="166" y="-205.3" font-family="Helvetica,sans-Serif" font-size="9.00">prior_hessian::Composite</text>
<text text-anchor="middle" x="219" y="-195.3" font-family="Helvetica,sans-Serif" font-size="9.00">Dist::param_names</text>
</a>
</g>
</g>
<!-- Node1&#45;&gt;Node7 -->
<g id="edge8" class="edge"><title>Node1&#45;&gt;Node7</title>
<path fill="none" stroke="midnightblue" d="M100.283,-259.849C127.743,-246.471 164.161,-228.729 189.178,-216.541"/>
<polygon fill="midnightblue" stroke="midnightblue" points="98.4338,-256.857 90.9768,-264.383 101.5,-263.15 98.4338,-256.857"/>
</g>
<!-- Node3 -->
<g id="node3" class="node"><title>Node3</title>
<g id="a_node3"><a xlink:href="classprior__hessian_1_1CompositeDist.html#a24bac25ae8c0330b8a3aacadffc9d5ae" target="_top" xlink:title="prior_hessian::Composite\lDist::rllh_components">
<polygon fill="white" stroke="black" points="822,-214.5 822,-242.5 944,-242.5 944,-214.5 822,-214.5"/>
<text text-anchor="start" x="830" y="-231.3" font-family="Helvetica,sans-Serif" font-size="9.00">prior_hessian::Composite</text>
<text text-anchor="middle" x="883" y="-221.3" font-family="Helvetica,sans-Serif" font-size="9.00">Dist::rllh_components</text>
</a>
</g>
</g>
<!-- Node2&#45;&gt;Node3 -->
<g id="edge2" class="edge"><title>Node2&#45;&gt;Node3</title>
<path fill="none" stroke="midnightblue" d="M633.653,-289.995C690.526,-275.913 771.415,-255.883 825.245,-242.554"/>
<polygon fill="midnightblue" stroke="midnightblue" points="632.545,-286.664 623.679,-292.465 634.228,-293.459 632.545,-286.664"/>
</g>
<!-- Node5 -->
<g id="node5" class="node"><title>Node5</title>
<g id="a_node5"><a xlink:href="classprior__hessian_1_1CompositeDist.html#a38c4fdacf927824117d202422b04013c" target="_top" xlink:title="prior_hessian::Composite\lDist::set_param_names">
<polygon fill="white" stroke="black" points="505,-233.5 505,-261.5 627,-261.5 627,-233.5 505,-233.5"/>
<text text-anchor="start" x="513" y="-250.3" font-family="Helvetica,sans-Serif" font-size="9.00">prior_hessian::Composite</text>
<text text-anchor="middle" x="566" y="-240.3" font-family="Helvetica,sans-Serif" font-size="9.00">Dist::set_param_names</text>
</a>
</g>
</g>
<!-- Node4&#45;&gt;Node5 -->
<g id="edge4" class="edge"><title>Node4&#45;&gt;Node5</title>
<path fill="none" stroke="midnightblue" d="M453.688,-267.621C470.276,-264.622 488.268,-261.37 504.854,-258.372"/>
<polygon fill="midnightblue" stroke="midnightblue" points="452.784,-264.227 443.566,-269.45 454.029,-271.116 452.784,-264.227"/>
</g>
<!-- Node5&#45;&gt;Node3 -->
<g id="edge7" class="edge"><title>Node5&#45;&gt;Node3</title>
<path fill="none" stroke="midnightblue" d="M637.457,-243.25C692.879,-239.907 769.264,-235.3 821.842,-232.129"/>
<polygon fill="midnightblue" stroke="midnightblue" points="637.134,-239.763 627.362,-243.859 637.555,-246.751 637.134,-239.763"/>
</g>
<!-- Node6 -->
<g id="node6" class="node"><title>Node6</title>
<g id="a_node6"><a xlink:href="classprior__hessian_1_1CompositeDist.html#a927fed39b2b4e87714c728d6e7b11e8b" target="_top" xlink:title="prior_hessian::Composite\lDist::params_components">
<polygon fill="white" stroke="black" points="663,-193.5 663,-221.5 786,-221.5 786,-193.5 663,-193.5"/>
<text text-anchor="start" x="671" y="-210.3" font-family="Helvetica,sans-Serif" font-size="9.00">prior_hessian::Composite</text>
<text text-anchor="middle" x="724.5" y="-200.3" font-family="Helvetica,sans-Serif" font-size="9.00">Dist::params_components</text>
</a>
</g>
</g>
<!-- Node5&#45;&gt;Node6 -->
<g id="edge5" class="edge"><title>Node5&#45;&gt;Node6</title>
<path fill="none" stroke="midnightblue" d="M632.205,-230.834C644.295,-227.744 656.812,-224.545 668.559,-221.543"/>
<polygon fill="midnightblue" stroke="midnightblue" points="630.998,-227.53 622.176,-233.397 632.731,-234.312 630.998,-227.53"/>
</g>
<!-- Node6&#45;&gt;Node3 -->
<g id="edge6" class="edge"><title>Node6&#45;&gt;Node3</title>
<path fill="none" stroke="midnightblue" d="M796.059,-216.968C804.692,-218.126 813.452,-219.302 821.912,-220.437"/>
<polygon fill="midnightblue" stroke="midnightblue" points="796.384,-213.48 786.007,-215.619 795.453,-220.418 796.384,-213.48"/>
</g>
<!-- Node7&#45;&gt;Node3 -->
<g id="edge11" class="edge"><title>Node7&#45;&gt;Node3</title>
<path fill="none" stroke="midnightblue" d="M290.495,-189.33C398.568,-171.575 611.064,-146.32 786,-184.5 812.331,-190.247 840.076,-203.902 858.93,-214.488"/>
<polygon fill="midnightblue" stroke="midnightblue" points="289.653,-185.922 280.367,-191.022 290.807,-192.826 289.653,-185.922"/>
</g>
<!-- Node7&#45;&gt;Node4 -->
<g id="edge9" class="edge"><title>Node7&#45;&gt;Node4</title>
<path fill="none" stroke="midnightblue" d="M251.857,-221.726C270.194,-232.287 293.916,-245.108 316,-254.5 329.543,-260.259 344.955,-265.397 358.307,-269.427"/>
<polygon fill="midnightblue" stroke="midnightblue" points="253.459,-218.609 243.058,-216.594 249.933,-224.655 253.459,-218.609"/>
</g>
<!-- Node7&#45;&gt;Node5 -->
<g id="edge14" class="edge"><title>Node7&#45;&gt;Node5</title>
<path fill="none" stroke="midnightblue" d="M290.257,-212.919C298.923,-214.153 307.662,-215.373 316,-216.5 380.432,-225.208 454.37,-234.299 504.829,-240.367"/>
<polygon fill="midnightblue" stroke="midnightblue" points="290.541,-209.424 280.145,-211.468 289.547,-216.353 290.541,-209.424"/>
</g>
<!-- Node7&#45;&gt;Node6 -->
<g id="edge10" class="edge"><title>Node7&#45;&gt;Node6</title>
<path fill="none" stroke="midnightblue" d="M290.466,-203.2C389.747,-204.186 569.118,-205.967 662.805,-206.897"/>
<polygon fill="midnightblue" stroke="midnightblue" points="290.268,-199.698 280.234,-203.098 290.198,-206.697 290.268,-199.698"/>
</g>
<!-- Node8 -->
<g id="node8" class="node"><title>Node8</title>
<g id="a_node8"><a xlink:href="classprior__hessian_1_1CompositeDist_1_1ComponentDistAdaptor_3_01Dist_00_01meta_1_1EnableIfSubclc6c9bd83bba546a81e521c87ad7ee6d3.html#a75bbad1826eb579d89540607f59f3919" target="_top" xlink:title="prior_hessian::Composite\lDist::ComponentDistAdaptor\l\&lt; Dist, meta::EnableIfSubclassT\l\&lt; Dist, UnivariateDist \&gt; \&gt;::append\l_param_names">
<polygon fill="white" stroke="black" points="316,-77.5 316,-135.5 469,-135.5 469,-77.5 316,-77.5"/>
<text text-anchor="start" x="324" y="-124.3" font-family="Helvetica,sans-Serif" font-size="9.00">prior_hessian::Composite</text>
<text text-anchor="start" x="324" y="-114.3" font-family="Helvetica,sans-Serif" font-size="9.00">Dist::ComponentDistAdaptor</text>
<text text-anchor="start" x="324" y="-104.3" font-family="Helvetica,sans-Serif" font-size="9.00">&lt; Dist, meta::EnableIfSubclassT</text>
<text text-anchor="start" x="324" y="-94.3" font-family="Helvetica,sans-Serif" font-size="9.00">&lt; Dist, UnivariateDist &gt; &gt;::append</text>
<text text-anchor="middle" x="392.5" y="-84.3" font-family="Helvetica,sans-Serif" font-size="9.00">_param_names</text>
</a>
</g>
</g>
<!-- Node7&#45;&gt;Node8 -->
<g id="edge12" class="edge"><title>Node7&#45;&gt;Node8</title>
<path fill="none" stroke="midnightblue" d="M254.19,-183.361C278.582,-169.708 311.827,-151.098 339.495,-135.611"/>
<polygon fill="midnightblue" stroke="midnightblue" points="252.322,-180.396 245.305,-188.335 255.741,-186.504 252.322,-180.396"/>
</g>
<!-- Node9 -->
<g id="node9" class="node"><title>Node9</title>
<g id="a_node9"><a xlink:href="classprior__hessian_1_1CompositeDist_1_1ComponentDistAdaptor_3_01Dist_00_01meta_1_1EnableIfSubcld67d34d533dbae21b9dad35557546eec.html#a500e09e7f9b4431f7db471bf075cdce2" target="_top" xlink:title="prior_hessian::Composite\lDist::ComponentDistAdaptor\l\&lt; Dist, meta::EnableIfSubclassT\l\&lt; Dist, MultivariateDist \&gt; \&gt;\l::append_param_names">
<polygon fill="white" stroke="black" points="319.5,-0.5 319.5,-58.5 465.5,-58.5 465.5,-0.5 319.5,-0.5"/>
<text text-anchor="start" x="327.5" y="-47.3" font-family="Helvetica,sans-Serif" font-size="9.00">prior_hessian::Composite</text>
<text text-anchor="start" x="327.5" y="-37.3" font-family="Helvetica,sans-Serif" font-size="9.00">Dist::ComponentDistAdaptor</text>
<text text-anchor="start" x="327.5" y="-27.3" font-family="Helvetica,sans-Serif" font-size="9.00">&lt; Dist, meta::EnableIfSubclassT</text>
<text text-anchor="start" x="327.5" y="-17.3" font-family="Helvetica,sans-Serif" font-size="9.00">&lt; Dist, MultivariateDist &gt; &gt;</text>
<text text-anchor="middle" x="392.5" y="-7.3" font-family="Helvetica,sans-Serif" font-size="9.00">::append_param_names</text>
</a>
</g>
</g>
<!-- Node7&#45;&gt;Node9 -->
<g id="edge13" class="edge"><title>Node7&#45;&gt;Node9</title>
<path fill="none" stroke="midnightblue" d="M231.964,-179.097C247.858,-149.878 278.361,-99.8174 316,-67.5 319.674,-64.3454 323.655,-61.3727 327.804,-58.5874"/>
<polygon fill="midnightblue" stroke="midnightblue" points="228.754,-177.679 227.145,-188.151 234.933,-180.968 228.754,-177.679"/>
</g>
</g>
</svg>
