<?xml version="1.0" encoding="UTF-8" standalone="no"?>
<!DOCTYPE svg PUBLIC "-//W3C//DTD SVG 1.1//EN"
 "http://www.w3.org/Graphics/SVG/1.1/DTD/svg11.dtd">
<!-- Generated by graphviz version 2.38.0 (20140413.2041)
 -->
<!-- Title: prior_hessian::CompositeDist::make_component_dist_tuple Pages: 1 -->
<svg width="478pt" height="131pt"
 viewBox="0.00 0.00 478.00 131.00" xmlns="http://www.w3.org/2000/svg" xmlns:xlink="http://www.w3.org/1999/xlink">
<g id="graph0" class="graph" transform="scale(1 1) rotate(0) translate(4 127)">
<title>prior_hessian::CompositeDist::make_component_dist_tuple</title>
<polygon fill="white" stroke="none" points="-4,4 -4,-127 474,-127 474,4 -4,4"/>
<!-- Node1 -->
<g id="node1" class="node"><title>Node1</title>
<polygon fill="#bfbfbf" stroke="black" points="0,-47.5 0,-75.5 155,-75.5 155,-47.5 0,-47.5"/>
<text text-anchor="start" x="8" y="-64.3" font-family="Helvetica,sans-Serif" font-size="9.00">prior_hessian::Composite</text>
<text text-anchor="middle" x="77.5" y="-54.3" font-family="Helvetica,sans-Serif" font-size="9.00">Dist::make_component_dist_tuple</text>
</g>
<!-- Node2 -->
<g id="node2" class="node"><title>Node2</title>
<g id="a_node2"><a xlink:href="namespaceprior__hessian.html#a387cc711a6a39924943b5b20ae76bf6a" target="_top" xlink:title="prior_hessian::make\l_adapted_bounded_dist">
<polygon fill="white" stroke="black" points="197.5,-94.5 197.5,-122.5 314.5,-122.5 314.5,-94.5 197.5,-94.5"/>
<text text-anchor="start" x="205.5" y="-111.3" font-family="Helvetica,sans-Serif" font-size="9.00">prior_hessian::make</text>
<text text-anchor="middle" x="256" y="-101.3" font-family="Helvetica,sans-Serif" font-size="9.00">_adapted_bounded_dist</text>
</a>
</g>
</g>
<!-- Node1&#45;&gt;Node2 -->
<g id="edge1" class="edge"><title>Node1&#45;&gt;Node2</title>
<path fill="none" stroke="midnightblue" d="M131.456,-75.6015C150.653,-80.7136 172.518,-86.536 192.463,-91.8472"/>
<polygon fill="midnightblue" stroke="midnightblue" points="191.822,-95.2983 202.386,-94.4894 193.623,-88.534 191.822,-95.2983"/>
</g>
<!-- Node3 -->
<g id="node3" class="node"><title>Node3</title>
<g id="a_node3"><a xlink:href="classprior__hessian_1_1CompositeDist.html#a9473495959c5c652e0eb20fe33545441" target="_top" xlink:title="prior_hessian::Composite\lDist::make_component_dist">
<polygon fill="white" stroke="black" points="191,-47.5 191,-75.5 321,-75.5 321,-47.5 191,-47.5"/>
<text text-anchor="start" x="199" y="-64.3" font-family="Helvetica,sans-Serif" font-size="9.00">prior_hessian::Composite</text>
<text text-anchor="middle" x="256" y="-54.3" font-family="Helvetica,sans-Serif" font-size="9.00">Dist::make_component_dist</text>
</a>
</g>
</g>
<!-- Node1&#45;&gt;Node3 -->
<g id="edge2" class="edge"><title>Node1&#45;&gt;Node3</title>
<path fill="none" stroke="midnightblue" d="M155.145,-61.5C163.611,-61.5 172.222,-61.5 180.659,-61.5"/>
<polygon fill="midnightblue" stroke="midnightblue" points="180.843,-65.0001 190.843,-61.5 180.843,-58.0001 180.843,-65.0001"/>
</g>
<!-- Node4 -->
<g id="node4" class="node"><title>Node4</title>
<g id="a_node4"><a xlink:href="namespaceprior__hessian_1_1meta.html#ab09470f06d05f5c58e249a03ef19242f" target="_top" xlink:title="prior_hessian::meta\l::sum_in_order">
<polygon fill="white" stroke="black" points="207,-0.5 207,-28.5 305,-28.5 305,-0.5 207,-0.5"/>
<text text-anchor="start" x="215" y="-17.3" font-family="Helvetica,sans-Serif" font-size="9.00">prior_hessian::meta</text>
<text text-anchor="middle" x="256" y="-7.3" font-family="Helvetica,sans-Serif" font-size="9.00">::sum_in_order</text>
</a>
</g>
</g>
<!-- Node1&#45;&gt;Node4 -->
<g id="edge3" class="edge"><title>Node1&#45;&gt;Node4</title>
<path fill="none" stroke="midnightblue" d="M131.456,-47.3985C152.143,-41.8896 175.929,-35.5558 197.071,-29.9258"/>
<polygon fill="midnightblue" stroke="midnightblue" points="198.132,-33.2654 206.894,-27.31 196.331,-26.5011 198.132,-33.2654"/>
</g>
<!-- Node5 -->
<g id="node5" class="node"><title>Node5</title>
<g id="a_node5"><a xlink:href="namespaceprior__hessian_1_1meta.html#a8dd1d78533f7011bebda7009c0591041" target="_top" xlink:title="prior_hessian::meta\l::constexpr_accumulate">
<polygon fill="white" stroke="black" points="357,-0.5 357,-28.5 470,-28.5 470,-0.5 357,-0.5"/>
<text text-anchor="start" x="365" y="-17.3" font-family="Helvetica,sans-Serif" font-size="9.00">prior_hessian::meta</text>
<text text-anchor="middle" x="413.5" y="-7.3" font-family="Helvetica,sans-Serif" font-size="9.00">::constexpr_accumulate</text>
</a>
</g>
</g>
<!-- Node4&#45;&gt;Node5 -->
<g id="edge4" class="edge"><title>Node4&#45;&gt;Node5</title>
<path fill="none" stroke="midnightblue" d="M305.349,-14.5C318.478,-14.5 332.918,-14.5 346.83,-14.5"/>
<polygon fill="midnightblue" stroke="midnightblue" points="346.84,-18.0001 356.84,-14.5 346.84,-11.0001 346.84,-18.0001"/>
</g>
</g>
</svg>
