<?xml version="1.0" encoding="UTF-8" standalone="no"?>
<!DOCTYPE svg PUBLIC "-//W3C//DTD SVG 1.1//EN"
 "http://www.w3.org/Graphics/SVG/1.1/DTD/svg11.dtd">
<!-- Generated by graphviz version 2.38.0 (20140413.2041)
 -->
<!-- Title: prior_hessian::CompositeDist::pdf Pages: 1 -->
<svg width="312pt" height="191pt"
 viewBox="0.00 0.00 312.00 191.00" xmlns="http://www.w3.org/2000/svg" xmlns:xlink="http://www.w3.org/1999/xlink">
<g id="graph0" class="graph" transform="scale(1 1) rotate(0) translate(4 187)">
<title>prior_hessian::CompositeDist::pdf</title>
<polygon fill="white" stroke="none" points="-4,4 -4,-187 308,-187 308,4 -4,4"/>
<!-- Node1 -->
<g id="node1" class="node"><title>Node1</title>
<polygon fill="#bfbfbf" stroke="black" points="0,-62.5 0,-90.5 122,-90.5 122,-62.5 0,-62.5"/>
<text text-anchor="start" x="8" y="-79.3" font-family="Helvetica,sans-Serif" font-size="9.00">prior_hessian::Composite</text>
<text text-anchor="middle" x="61" y="-69.3" font-family="Helvetica,sans-Serif" font-size="9.00">Dist::pdf</text>
</g>
<!-- Node2 -->
<g id="node2" class="node"><title>Node2</title>
<g id="a_node2"><a xlink:href="classprior__hessian_1_1CompositeDist_1_1ComponentDistAdaptor_3_01Dist_00_01meta_1_1EnableIfSubclc6c9bd83bba546a81e521c87ad7ee6d3.html#ae9a5a17c12846459bd28e31fa59cb170" target="_top" xlink:title="prior_hessian::Composite\lDist::ComponentDistAdaptor\l\&lt; Dist, meta::EnableIfSubclassT\l\&lt; Dist, UnivariateDist \&gt; \&gt;::pdf\l_from_iter">
<polygon fill="white" stroke="black" points="158,-124.5 158,-182.5 304,-182.5 304,-124.5 158,-124.5"/>
<text text-anchor="start" x="166" y="-171.3" font-family="Helvetica,sans-Serif" font-size="9.00">prior_hessian::Composite</text>
<text text-anchor="start" x="166" y="-161.3" font-family="Helvetica,sans-Serif" font-size="9.00">Dist::ComponentDistAdaptor</text>
<text text-anchor="start" x="166" y="-151.3" font-family="Helvetica,sans-Serif" font-size="9.00">&lt; Dist, meta::EnableIfSubclassT</text>
<text text-anchor="start" x="166" y="-141.3" font-family="Helvetica,sans-Serif" font-size="9.00">&lt; Dist, UnivariateDist &gt; &gt;::pdf</text>
<text text-anchor="middle" x="231" y="-131.3" font-family="Helvetica,sans-Serif" font-size="9.00">_from_iter</text>
</a>
</g>
</g>
<!-- Node1&#45;&gt;Node2 -->
<g id="edge1" class="edge"><title>Node1&#45;&gt;Node2</title>
<path fill="none" stroke="midnightblue" d="M101.93,-94.8014C121.269,-103.665 144.954,-114.521 166.673,-124.475"/>
<polygon fill="midnightblue" stroke="midnightblue" points="103.363,-91.6079 92.8138,-90.623 100.446,-97.9713 103.363,-91.6079"/>
</g>
<!-- Node3 -->
<g id="node3" class="node"><title>Node3</title>
<g id="a_node3"><a xlink:href="classprior__hessian_1_1CompositeDist_1_1ComponentDistAdaptor_3_01Dist_00_01meta_1_1EnableIfSubcld67d34d533dbae21b9dad35557546eec.html#a845f23119e7f1afee29d6f29f9b0edf1" target="_top" xlink:title="prior_hessian::Composite\lDist::ComponentDistAdaptor\l\&lt; Dist, meta::EnableIfSubclassT\l\&lt; Dist, MultivariateDist \&gt; \&gt;\l::pdf_from_iter">
<polygon fill="white" stroke="black" points="158,-47.5 158,-105.5 304,-105.5 304,-47.5 158,-47.5"/>
<text text-anchor="start" x="166" y="-94.3" font-family="Helvetica,sans-Serif" font-size="9.00">prior_hessian::Composite</text>
<text text-anchor="start" x="166" y="-84.3" font-family="Helvetica,sans-Serif" font-size="9.00">Dist::ComponentDistAdaptor</text>
<text text-anchor="start" x="166" y="-74.3" font-family="Helvetica,sans-Serif" font-size="9.00">&lt; Dist, meta::EnableIfSubclassT</text>
<text text-anchor="start" x="166" y="-64.3" font-family="Helvetica,sans-Serif" font-size="9.00">&lt; Dist, MultivariateDist &gt; &gt;</text>
<text text-anchor="middle" x="231" y="-54.3" font-family="Helvetica,sans-Serif" font-size="9.00">::pdf_from_iter</text>
</a>
</g>
</g>
<!-- Node1&#45;&gt;Node3 -->
<g id="edge2" class="edge"><title>Node1&#45;&gt;Node3</title>
<path fill="none" stroke="midnightblue" d="M132.361,-76.5C140.807,-76.5 149.441,-76.5 157.91,-76.5"/>
<polygon fill="midnightblue" stroke="midnightblue" points="132.177,-73.0001 122.177,-76.5 132.177,-80.0001 132.177,-73.0001"/>
</g>
<!-- Node4 -->
<g id="node4" class="node"><title>Node4</title>
<g id="a_node4"><a xlink:href="classprior__hessian_1_1CompositeDist.html#a24bac25ae8c0330b8a3aacadffc9d5ae" target="_top" xlink:title="prior_hessian::Composite\lDist::rllh_components">
<polygon fill="white" stroke="black" points="170,-0.5 170,-28.5 292,-28.5 292,-0.5 170,-0.5"/>
<text text-anchor="start" x="178" y="-17.3" font-family="Helvetica,sans-Serif" font-size="9.00">prior_hessian::Composite</text>
<text text-anchor="middle" x="231" y="-7.3" font-family="Helvetica,sans-Serif" font-size="9.00">Dist::rllh_components</text>
</a>
</g>
</g>
<!-- Node1&#45;&gt;Node4 -->
<g id="edge3" class="edge"><title>Node1&#45;&gt;Node4</title>
<path fill="none" stroke="midnightblue" d="M105.38,-58.7415C121.79,-52.1791 140.683,-44.8081 158,-38.5 167.161,-35.1628 177.043,-31.7495 186.462,-28.583"/>
<polygon fill="midnightblue" stroke="midnightblue" points="104.009,-55.5203 96.0366,-62.4977 106.62,-62.0152 104.009,-55.5203"/>
</g>
</g>
</svg>
