<?xml version="1.0" encoding="UTF-8" standalone="no"?>
<!DOCTYPE svg PUBLIC "-//W3C//DTD SVG 1.1//EN"
 "http://www.w3.org/Graphics/SVG/1.1/DTD/svg11.dtd">
<!-- Generated by graphviz version 2.38.0 (20140413.2041)
 -->
<!-- Title: prior_hessian::ParetoDist::operator== Pages: 1 -->
<svg width="460pt" height="102pt"
 viewBox="0.00 0.00 460.00 102.00" xmlns="http://www.w3.org/2000/svg" xmlns:xlink="http://www.w3.org/1999/xlink">
<g id="graph0" class="graph" transform="scale(1 1) rotate(0) translate(4 98)">
<title>prior_hessian::ParetoDist::operator==</title>
<polygon fill="white" stroke="none" points="-4,4 -4,-98 456,-98 456,4 -4,4"/>
<!-- Node1 -->
<g id="node1" class="node"><title>Node1</title>
<polygon fill="#bfbfbf" stroke="black" points="0,-44.5 0,-72.5 120,-72.5 120,-44.5 0,-44.5"/>
<text text-anchor="start" x="8" y="-61.3" font-family="Helvetica,sans-Serif" font-size="9.00">prior_hessian::ParetoDist</text>
<text text-anchor="middle" x="60" y="-51.3" font-family="Helvetica,sans-Serif" font-size="9.00">::operator==</text>
</g>
<!-- Node2 -->
<g id="node2" class="node"><title>Node2</title>
<g id="a_node2"><a xlink:href="classprior__hessian_1_1ParetoDist.html#ac610ecf8ce6df7b8b48c383e89706b80" target="_top" xlink:title="prior_hessian::ParetoDist\l::alpha">
<polygon fill="white" stroke="black" points="166,-65.5 166,-93.5 286,-93.5 286,-65.5 166,-65.5"/>
<text text-anchor="start" x="174" y="-82.3" font-family="Helvetica,sans-Serif" font-size="9.00">prior_hessian::ParetoDist</text>
<text text-anchor="middle" x="226" y="-72.3" font-family="Helvetica,sans-Serif" font-size="9.00">::alpha</text>
</a>
</g>
</g>
<!-- Node1&#45;&gt;Node2 -->
<g id="edge1" class="edge"><title>Node1&#45;&gt;Node2</title>
<path fill="none" stroke="midnightblue" d="M120.208,-66.0815C131.704,-67.5535 143.849,-69.1087 155.637,-70.6182"/>
<polygon fill="midnightblue" stroke="midnightblue" points="155.516,-74.1311 165.879,-71.9296 156.405,-67.1878 155.516,-74.1311"/>
</g>
<!-- Node3 -->
<g id="node3" class="node"><title>Node3</title>
<g id="a_node3"><a xlink:href="classprior__hessian_1_1ParetoDist.html#acef10b17c003468838f548ed255d7e1f" target="_top" xlink:title="prior_hessian::ParetoDist::min">
<polygon fill="white" stroke="black" points="156,-28.5 156,-46.5 296,-46.5 296,-28.5 156,-28.5"/>
<text text-anchor="middle" x="226" y="-35.3" font-family="Helvetica,sans-Serif" font-size="9.00">prior_hessian::ParetoDist::min</text>
</a>
</g>
</g>
<!-- Node1&#45;&gt;Node3 -->
<g id="edge2" class="edge"><title>Node1&#45;&gt;Node3</title>
<path fill="none" stroke="midnightblue" d="M120.208,-50.9185C128.517,-49.8546 137.165,-48.7472 145.773,-47.645"/>
<polygon fill="midnightblue" stroke="midnightblue" points="146.361,-51.0983 155.835,-46.3564 145.472,-44.155 146.361,-51.0983"/>
</g>
<!-- Node4 -->
<g id="node4" class="node"><title>Node4</title>
<g id="a_node4"><a xlink:href="classprior__hessian_1_1ParetoDist.html#a5c2b026477495e3fc91a1cfb653d8a97" target="_top" xlink:title="prior_hessian::ParetoDist\l::set_alpha">
<polygon fill="white" stroke="black" points="332,-47.5 332,-75.5 452,-75.5 452,-47.5 332,-47.5"/>
<text text-anchor="start" x="340" y="-64.3" font-family="Helvetica,sans-Serif" font-size="9.00">prior_hessian::ParetoDist</text>
<text text-anchor="middle" x="392" y="-54.3" font-family="Helvetica,sans-Serif" font-size="9.00">::set_alpha</text>
</a>
</g>
</g>
<!-- Node3&#45;&gt;Node4 -->
<g id="edge3" class="edge"><title>Node3&#45;&gt;Node4</title>
<path fill="none" stroke="midnightblue" d="M288.534,-46.505C299.39,-48.0936 310.757,-49.7571 321.806,-51.374"/>
<polygon fill="midnightblue" stroke="midnightblue" points="321.438,-54.8574 331.839,-52.8423 322.452,-47.9311 321.438,-54.8574"/>
</g>
<!-- Node5 -->
<g id="node5" class="node"><title>Node5</title>
<g id="a_node5"><a xlink:href="classprior__hessian_1_1ParetoDist.html#ace279cdfa7dbdcd8805ddb2ec4b46ee2" target="_top" xlink:title="prior_hessian::ParetoDist\l::set_min">
<polygon fill="white" stroke="black" points="332,-0.5 332,-28.5 452,-28.5 452,-0.5 332,-0.5"/>
<text text-anchor="start" x="340" y="-17.3" font-family="Helvetica,sans-Serif" font-size="9.00">prior_hessian::ParetoDist</text>
<text text-anchor="middle" x="392" y="-7.3" font-family="Helvetica,sans-Serif" font-size="9.00">::set_min</text>
</a>
</g>
</g>
<!-- Node3&#45;&gt;Node5 -->
<g id="edge4" class="edge"><title>Node3&#45;&gt;Node5</title>
<path fill="none" stroke="midnightblue" d="M291.346,-28.4758C301.375,-27.0694 311.773,-25.6112 321.901,-24.1907"/>
<polygon fill="midnightblue" stroke="midnightblue" points="322.499,-27.6411 331.916,-22.7861 321.527,-20.709 322.499,-27.6411"/>
</g>
</g>
</svg>
