<?xml version="1.0" encoding="UTF-8" standalone="no"?>
<!DOCTYPE svg PUBLIC "-//W3C//DTD SVG 1.1//EN"
 "http://www.w3.org/Graphics/SVG/1.1/DTD/svg11.dtd">
<!-- Generated by graphviz version 2.38.0 (20140413.2041)
 -->
<!-- Title: prior_hessian::CopulaDistImpl::CopulaDist::global_ubound Pages: 1 -->
<!--zoomable 168 -->
<svg id="main" version="1.1" xmlns="http://www.w3.org/2000/svg" xmlns:xlink="http://www.w3.org/1999/xlink" xml:space="preserve" onload="init(evt)">
<style type="text/css"><![CDATA[
.edge:hover path { stroke: red; }
.edge:hover polygon { stroke: red; fill: red; }
]]></style>
<script type="text/javascript"><![CDATA[
var edges = document.getElementsByTagName('g');
if (edges && edges.length) {
  for (var i=0;i<edges.length;i++) {
    if (edges[i].id.substr(0,4)=='edge') {
      edges[i].setAttribute('class','edge');
    }
  }
}
]]></script>
        <defs>
                <circle id="rim" cx="0" cy="0" r="7"/>
                <circle id="rim2" cx="0" cy="0" r="3.5"/>
                <g id="zoomPlus">
                        <use xlink:href="#rim" fill="#404040">
                                <set attributeName="fill" to="#808080" begin="zoomplus.mouseover" end="zoomplus.mouseout"/>
                        </use>
                        <path d="M-4,0h8M0,-4v8" fill="none" stroke="white" stroke-width="1.5" pointer-events="none"/>
                </g>
                <g id="zoomMin">
                        <use xlink:href="#rim" fill="#404040">
                                <set attributeName="fill" to="#808080" begin="zoomminus.mouseover" end="zoomminus.mouseout"/>
                        </use>
                        <path d="M-4,0h8" fill="none" stroke="white" stroke-width="1.5" pointer-events="none"/>
                </g>
                <g id="dirArrow">
                        <path fill="none" stroke="white" stroke-width="1.5" d="M0,-3.0v7 M-2.5,-0.5L0,-3.0L2.5,-0.5"/>
                </g>
               <g id="resetDef">
                       <use xlink:href="#rim2" fill="#404040">
                               <set attributeName="fill" to="#808080" begin="reset.mouseover" end="reset.mouseout"/>
                       </use>
               </g>
        </defs>

<script type="text/javascript">
var viewWidth = 661;
var viewHeight = 168;
var sectionId = 'dynsection-10';
</script>
<script xlink:href="svgpan.js"/>
<svg id="graph" class="graph">
<g id="viewport">
<title>prior_hessian::CopulaDistImpl::CopulaDist::global_ubound</title>
<polygon fill="white" stroke="none" points="-4,4 -4,-164.241 657,-164.241 657,4 -4,4"/>
<!-- Node1 -->
<g id="node1" class="node"><title>Node1</title>
<polygon fill="#bfbfbf" stroke="black" points="0,-37.7412 0,-65.7412 151,-65.7412 151,-37.7412 0,-37.7412"/>
<text text-anchor="start" x="8" y="-54.5412" font-family="Helvetica,sans-Serif" font-size="9.00">prior_hessian::CopulaDist</text>
<text text-anchor="middle" x="75.5" y="-44.5412" font-family="Helvetica,sans-Serif" font-size="9.00">Impl::CopulaDist::global_ubound</text>
</g>
<!-- Node2 -->
<g id="node2" class="node"><title>Node2</title>
<g id="a_node2"><a xlink:href="classprior__hessian_1_1CopulaDistImpl_1_1CopulaDist.html#a26cd71990978df0ddae24dae5148c880" target="_top" xlink:title="prior_hessian::CopulaDist\lImpl::CopulaDist::num_dim">
<polygon fill="white" stroke="black" points="192,-131.741 192,-159.741 319,-159.741 319,-131.741 192,-131.741"/>
<text text-anchor="start" x="200" y="-148.541" font-family="Helvetica,sans-Serif" font-size="9.00">prior_hessian::CopulaDist</text>
<text text-anchor="middle" x="255.5" y="-138.541" font-family="Helvetica,sans-Serif" font-size="9.00">Impl::CopulaDist::num_dim</text>
</a>
</g>
</g>
<!-- Node1&#45;&gt;Node2 -->
<g id="edge1" class="edge"><title>Node1&#45;&gt;Node2</title>
<path fill="none" stroke="midnightblue" d="M103.611,-71.8177C125.338,-87.2391 157.04,-108.278 187,-122.741 193.69,-125.971 200.951,-128.95 208.149,-131.618"/>
<polygon fill="midnightblue" stroke="midnightblue" points="105.393,-68.788 95.2297,-65.7952 101.308,-74.4728 105.393,-68.788"/>
</g>
<!-- Node3 -->
<g id="node3" class="node"><title>Node3</title>
<g id="a_node3"><a xlink:href="classprior__hessian_1_1CopulaDistImpl_1_1CopulaDist.html#ad5f8f42efd9f709625cf60836fa473b9" target="_top" xlink:title="prior_hessian::CopulaDist\lImpl::CopulaDist::set_bounds">
<polygon fill="white" stroke="black" points="187,-84.7412 187,-112.741 324,-112.741 324,-84.7412 187,-84.7412"/>
<text text-anchor="start" x="195" y="-101.541" font-family="Helvetica,sans-Serif" font-size="9.00">prior_hessian::CopulaDist</text>
<text text-anchor="middle" x="255.5" y="-91.5412" font-family="Helvetica,sans-Serif" font-size="9.00">Impl::CopulaDist::set_bounds</text>
</a>
</g>
</g>
<!-- Node1&#45;&gt;Node3 -->
<g id="edge2" class="edge"><title>Node1&#45;&gt;Node3</title>
<path fill="none" stroke="midnightblue" d="M161.055,-67.325C182.566,-72.9323 204.424,-79.1581 221.585,-84.6709"/>
<polygon fill="midnightblue" stroke="midnightblue" points="161.771,-63.8953 151.214,-64.797 160.029,-70.6752 161.771,-63.8953"/>
</g>
<!-- Node6 -->
<g id="node6" class="node"><title>Node6</title>
<g id="a_node6"><a xlink:href="classprior__hessian_1_1CopulaDistImpl_1_1CopulaDist.html#a4b010ffe2c2acd4dc75c80b32312254d" target="_top" xlink:title="prior_hessian::CopulaDist\lImpl::CopulaDist::set_ubound">
<polygon fill="white" stroke="black" points="187,-37.7412 187,-65.7412 324,-65.7412 324,-37.7412 187,-37.7412"/>
<text text-anchor="start" x="195" y="-54.5412" font-family="Helvetica,sans-Serif" font-size="9.00">prior_hessian::CopulaDist</text>
<text text-anchor="middle" x="255.5" y="-44.5412" font-family="Helvetica,sans-Serif" font-size="9.00">Impl::CopulaDist::set_ubound</text>
</a>
</g>
</g>
<!-- Node1&#45;&gt;Node6 -->
<g id="edge9" class="edge"><title>Node1&#45;&gt;Node6</title>
<path fill="none" stroke="midnightblue" d="M161.231,-44.9981C169.8,-44.9704 178.423,-45.0262 186.779,-45.1657"/>
<polygon fill="midnightblue" stroke="midnightblue" points="161.189,-41.4982 151.214,-45.0691 161.239,-48.498 161.189,-41.4982"/>
</g>
<!-- Node3&#45;&gt;Node1 -->
<g id="edge8" class="edge"><title>Node3&#45;&gt;Node1</title>
<path fill="none" stroke="midnightblue" d="M177.236,-85.0375C153.509,-78.9857 128.65,-71.9853 109.563,-65.8593"/>
<polygon fill="midnightblue" stroke="midnightblue" points="176.409,-88.4384 186.96,-87.4801 178.114,-81.6493 176.409,-88.4384"/>
</g>
<!-- Node4 -->
<g id="node4" class="node"><title>Node4</title>
<g id="a_node4"><a xlink:href="classprior__hessian_1_1CopulaDistImpl_1_1CopulaDist.html#abdb39f0c5f7f5f4b16bf501e6083d5b6" target="_top" xlink:title="prior_hessian::CopulaDist\lImpl::CopulaDist::ubound">
<polygon fill="white" stroke="black" points="360,-18.7412 360,-46.7412 483,-46.7412 483,-18.7412 360,-18.7412"/>
<text text-anchor="start" x="368" y="-35.5412" font-family="Helvetica,sans-Serif" font-size="9.00">prior_hessian::CopulaDist</text>
<text text-anchor="middle" x="421.5" y="-25.5412" font-family="Helvetica,sans-Serif" font-size="9.00">Impl::CopulaDist::ubound</text>
</a>
</g>
</g>
<!-- Node3&#45;&gt;Node4 -->
<g id="edge3" class="edge"><title>Node3&#45;&gt;Node4</title>
<path fill="none" stroke="midnightblue" d="M309.202,-81.3017C314.226,-79.4839 319.224,-77.6145 324,-75.7412 346.71,-66.8337 371.869,-55.5754 390.803,-46.8132"/>
<polygon fill="midnightblue" stroke="midnightblue" points="307.817,-78.0794 299.562,-84.7211 310.157,-84.6766 307.817,-78.0794"/>
</g>
<!-- Node4&#45;&gt;Node1 -->
<g id="edge7" class="edge"><title>Node4&#45;&gt;Node1</title>
<path fill="none" stroke="midnightblue" d="M349.676,-29.4693C341.028,-29.1691 332.314,-28.9134 324,-28.7412 263.124,-27.4801 247.569,-22.5045 187,-28.7412 169.165,-30.5777 149.962,-34.0396 132.649,-37.7305"/>
<polygon fill="midnightblue" stroke="midnightblue" points="349.647,-32.9705 359.769,-29.8399 349.904,-25.9752 349.647,-32.9705"/>
</g>
<!-- Node5 -->
<g id="node5" class="node"><title>Node5</title>
<g id="a_node5"><a xlink:href="classprior__hessian_1_1CopulaDistImpl_1_1CopulaDist.html#ac0819ccaeef1afd7a123338823e8fb3c" target="_top" xlink:title="prior_hessian::CopulaDist\lImpl::CopulaDist::set_lbound">
<polygon fill="white" stroke="black" points="519,-18.7412 519,-46.7412 653,-46.7412 653,-18.7412 519,-18.7412"/>
<text text-anchor="start" x="527" y="-35.5412" font-family="Helvetica,sans-Serif" font-size="9.00">prior_hessian::CopulaDist</text>
<text text-anchor="middle" x="586" y="-25.5412" font-family="Helvetica,sans-Serif" font-size="9.00">Impl::CopulaDist::set_lbound</text>
</a>
</g>
</g>
<!-- Node4&#45;&gt;Node5 -->
<g id="edge4" class="edge"><title>Node4&#45;&gt;Node5</title>
<path fill="none" stroke="midnightblue" d="M493.03,-26.0437C501.65,-25.9588 510.435,-25.9769 518.986,-26.0978"/>
<polygon fill="midnightblue" stroke="midnightblue" points="492.957,-22.5443 483.009,-26.1906 493.059,-29.5435 492.957,-22.5443"/>
</g>
<!-- Node5&#45;&gt;Node1 -->
<g id="edge6" class="edge"><title>Node5&#45;&gt;Node1</title>
<path fill="none" stroke="midnightblue" d="M525.676,-16.3482C511.782,-13.1891 496.96,-10.3614 483,-8.7412 352.196,6.44025 316.783,0.544048 187,-21.7412 164.861,-25.5427 140.737,-31.8333 120.694,-37.675"/>
<polygon fill="midnightblue" stroke="midnightblue" points="525.066,-19.8004 535.603,-18.6944 526.676,-12.988 525.066,-19.8004"/>
</g>
<!-- Node5&#45;&gt;Node4 -->
<g id="edge5" class="edge"><title>Node5&#45;&gt;Node4</title>
<path fill="none" stroke="midnightblue" d="M508.864,-39.4793C500.191,-39.5197 491.44,-39.4572 483.009,-39.2918"/>
<polygon fill="midnightblue" stroke="midnightblue" points="509.019,-42.9781 518.986,-39.3846 508.953,-35.9784 509.019,-42.9781"/>
</g>
<!-- Node6&#45;&gt;Node1 -->
<g id="edge11" class="edge"><title>Node6&#45;&gt;Node1</title>
<path fill="none" stroke="midnightblue" d="M176.589,-58.4444C168.162,-58.5159 159.602,-58.5055 151.214,-58.4133"/>
<polygon fill="midnightblue" stroke="midnightblue" points="176.824,-61.9418 186.779,-58.3167 176.736,-54.9424 176.824,-61.9418"/>
</g>
<!-- Node6&#45;&gt;Node4 -->
<g id="edge10" class="edge"><title>Node6&#45;&gt;Node4</title>
<path fill="none" stroke="midnightblue" d="M334.203,-42.7391C342.808,-41.7421 351.477,-40.7377 359.829,-39.7701"/>
<polygon fill="midnightblue" stroke="midnightblue" points="333.683,-39.2758 324.152,-43.9035 334.488,-46.2293 333.683,-39.2758"/>
</g>
</g>
</svg>
        <g id="navigator" transform="translate(0 0)" fill="#404254">
                <rect fill="#f2f5e9" fill-opacity="0.5" stroke="#606060" stroke-width=".5" x="0" y="0" width="60" height="60"/>
                <use id="zoomplus" xlink:href="#zoomPlus" x="17" y="9" onmousedown="handleZoom(evt,'in')"/>
                <use id="zoomminus" xlink:href="#zoomMin" x="42" y="9" onmousedown="handleZoom(evt,'out')"/>
                <use id="reset" xlink:href="#resetDef" x="30" y="36" onmousedown="handleReset()"/>
                <g id="arrowUp" xlink:href="#dirArrow" transform="translate(30 24)" onmousedown="handlePan(0,-1)">
                  <use xlink:href="#rim" fill="#404040">
                        <set attributeName="fill" to="#808080" begin="arrowUp.mouseover" end="arrowUp.mouseout"/>
                  </use>
                  <path fill="none" stroke="white" stroke-width="1.5" d="M0,-3.0v7 M-2.5,-0.5L0,-3.0L2.5,-0.5"/>
                </g>
                <g id="arrowRight" xlink:href="#dirArrow" transform="rotate(90) translate(36 -43)" onmousedown="handlePan(1,0)">
                  <use xlink:href="#rim" fill="#404040">
                        <set attributeName="fill" to="#808080" begin="arrowRight.mouseover" end="arrowRight.mouseout"/>
                  </use>
                  <path fill="none" stroke="white" stroke-width="1.5" d="M0,-3.0v7 M-2.5,-0.5L0,-3.0L2.5,-0.5"/>
                </g>
                <g id="arrowDown" xlink:href="#dirArrow" transform="rotate(180) translate(-30 -48)" onmousedown="handlePan(0,1)">
                  <use xlink:href="#rim" fill="#404040">
                        <set attributeName="fill" to="#808080" begin="arrowDown.mouseover" end="arrowDown.mouseout"/>
                  </use>
                  <path fill="none" stroke="white" stroke-width="1.5" d="M0,-3.0v7 M-2.5,-0.5L0,-3.0L2.5,-0.5"/>
                </g>
                <g id="arrowLeft" xlink:href="#dirArrow" transform="rotate(270) translate(-36 17)" onmousedown="handlePan(-1,0)">
                  <use xlink:href="#rim" fill="#404040">
                        <set attributeName="fill" to="#808080" begin="arrowLeft.mouseover" end="arrowLeft.mouseout"/>
                  </use>
                  <path fill="none" stroke="white" stroke-width="1.5" d="M0,-3.0v7 M-2.5,-0.5L0,-3.0L2.5,-0.5"/>
                </g>
        </g>
        <svg viewBox="0 0 15 15" width="100%" height="30px" preserveAspectRatio="xMaxYMin meet">
         <g id="arrow_out" transform="scale(0.3 0.3)">
          <a xlink:href="classprior__hessian_1_1CopulaDistImpl_1_1CopulaDist_aad110f1a85e7611fd098aa51c2104015_icgraph_org.svg" target="_base">
           <rect id="button" ry="5" rx="5" y="6" x="6" height="38" width="38"
                fill="#f2f5e9" fill-opacity="0.5" stroke="#606060" stroke-width="1.0"/>
           <path id="arrow"
             d="M 11.500037,31.436501 C 11.940474,20.09759 22.043105,11.32322 32.158766,21.979434 L 37.068811,17.246167 C 37.068811,17.246167 37.088388,32 37.088388,32 L 22.160133,31.978069 C 22.160133,31.978069 26.997745,27.140456 26.997745,27.140456 C 18.528582,18.264221 13.291696,25.230495 11.500037,31.436501 z"
             style="fill:#404040;"/>
          </a>
         </g>
        </svg>
</svg>
