<?xml version="1.0" encoding="UTF-8" standalone="no"?>
<!DOCTYPE svg PUBLIC "-//W3C//DTD SVG 1.1//EN"
 "http://www.w3.org/Graphics/SVG/1.1/DTD/svg11.dtd">
<!-- Generated by graphviz version 2.38.0 (20140413.2041)
 -->
<!-- Title: prior_hessian::NormalDist::mu Pages: 1 -->
<svg width="466pt" height="499pt"
 viewBox="0.00 0.00 466.00 499.00" xmlns="http://www.w3.org/2000/svg" xmlns:xlink="http://www.w3.org/1999/xlink">
<g id="graph0" class="graph" transform="scale(1 1) rotate(0) translate(4 495)">
<title>prior_hessian::NormalDist::mu</title>
<polygon fill="white" stroke="none" points="-4,4 -4,-495 462,-495 462,4 -4,4"/>
<!-- Node1 -->
<g id="node1" class="node"><title>Node1</title>
<polygon fill="#bfbfbf" stroke="black" points="0,-232.5 0,-250.5 140,-250.5 140,-232.5 0,-232.5"/>
<text text-anchor="middle" x="70" y="-239.3" font-family="Helvetica,sans-Serif" font-size="9.00">prior_hessian::NormalDist::mu</text>
</g>
<!-- Node2 -->
<g id="node2" class="node"><title>Node2</title>
<g id="a_node2"><a xlink:href="classprior__hessian_1_1NormalDist.html#abf71571c6e5ed7c496f8a5ff556d998c" target="_top" xlink:title="prior_hessian::NormalDist\l::append_params_iter">
<polygon fill="white" stroke="black" points="176,-274.5 176,-302.5 299,-302.5 299,-274.5 176,-274.5"/>
<text text-anchor="start" x="184" y="-291.3" font-family="Helvetica,sans-Serif" font-size="9.00">prior_hessian::NormalDist</text>
<text text-anchor="middle" x="237.5" y="-281.3" font-family="Helvetica,sans-Serif" font-size="9.00">::append_params_iter</text>
</a>
</g>
</g>
<!-- Node1&#45;&gt;Node2 -->
<g id="edge1" class="edge"><title>Node1&#45;&gt;Node2</title>
<path fill="none" stroke="midnightblue" d="M112.563,-253.303C135.196,-259.731 163.347,-267.725 187.097,-274.47"/>
<polygon fill="midnightblue" stroke="midnightblue" points="113.486,-249.927 102.91,-250.562 111.574,-256.661 113.486,-249.927"/>
</g>
<!-- Node3 -->
<g id="node3" class="node"><title>Node3</title>
<g id="a_node3"><a xlink:href="classprior__hessian_1_1NormalDist.html#a01e959b4aea2b94bc05fc42c9abeed3c" target="_top" xlink:title="prior_hessian::NormalDist\l::median">
<polygon fill="white" stroke="black" points="335,-321.5 335,-349.5 458,-349.5 458,-321.5 335,-321.5"/>
<text text-anchor="start" x="343" y="-338.3" font-family="Helvetica,sans-Serif" font-size="9.00">prior_hessian::NormalDist</text>
<text text-anchor="middle" x="396.5" y="-328.3" font-family="Helvetica,sans-Serif" font-size="9.00">::median</text>
</a>
</g>
</g>
<!-- Node1&#45;&gt;Node3 -->
<g id="edge10" class="edge"><title>Node1&#45;&gt;Node3</title>
<path fill="none" stroke="midnightblue" d="M101.603,-228.778C147.029,-211.957 233.93,-187.822 299,-218.5 344.727,-240.059 376.145,-295.092 388.996,-321.261"/>
<polygon fill="midnightblue" stroke="midnightblue" points="100.122,-225.597 92.035,-232.442 102.625,-232.134 100.122,-225.597"/>
</g>
<!-- Node4 -->
<g id="node4" class="node"><title>Node4</title>
<g id="a_node4"><a xlink:href="classprior__hessian_1_1NormalDist.html#ab0fa4841ce15ec70c8a8d876e5ea890f" target="_top" xlink:title="prior_hessian::NormalDist\l::check_params_iter">
<polygon fill="white" stroke="black" points="176,-94.5 176,-122.5 299,-122.5 299,-94.5 176,-94.5"/>
<text text-anchor="start" x="184" y="-111.3" font-family="Helvetica,sans-Serif" font-size="9.00">prior_hessian::NormalDist</text>
<text text-anchor="middle" x="237.5" y="-101.3" font-family="Helvetica,sans-Serif" font-size="9.00">::check_params_iter</text>
</a>
</g>
</g>
<!-- Node1&#45;&gt;Node4 -->
<g id="edge3" class="edge"><title>Node1&#45;&gt;Node4</title>
<path fill="none" stroke="midnightblue" d="M83.6863,-224.305C101.831,-200.761 137.302,-158.459 176,-132.5 181.63,-128.723 187.945,-125.398 194.314,-122.521"/>
<polygon fill="midnightblue" stroke="midnightblue" points="80.8521,-222.25 77.6101,-232.337 86.4346,-226.474 80.8521,-222.25"/>
</g>
<!-- Node5 -->
<g id="node5" class="node"><title>Node5</title>
<g id="a_node5"><a xlink:href="classprior__hessian_1_1NormalDist.html#a83016bf93c57e8acba0d749c2f7a0bac" target="_top" xlink:title="prior_hessian::NormalDist\l::get_param">
<polygon fill="white" stroke="black" points="176,-47.5 176,-75.5 299,-75.5 299,-47.5 176,-47.5"/>
<text text-anchor="start" x="184" y="-64.3" font-family="Helvetica,sans-Serif" font-size="9.00">prior_hessian::NormalDist</text>
<text text-anchor="middle" x="237.5" y="-54.3" font-family="Helvetica,sans-Serif" font-size="9.00">::get_param</text>
</a>
</g>
</g>
<!-- Node1&#45;&gt;Node5 -->
<g id="edge5" class="edge"><title>Node1&#45;&gt;Node5</title>
<path fill="none" stroke="midnightblue" d="M79.0136,-222.822C93.7342,-190.556 128.028,-124.135 176,-85.5 180.752,-81.6726 186.192,-78.3921 191.817,-75.5979"/>
<polygon fill="midnightblue" stroke="midnightblue" points="75.6359,-221.805 74.7803,-232.365 82.0346,-224.643 75.6359,-221.805"/>
</g>
<!-- Node7 -->
<g id="node7" class="node"><title>Node7</title>
<g id="a_node7"><a xlink:href="classprior__hessian_1_1NormalDist.html#ab9b17827daed20f82cb7bc0e40fe62e4" target="_top" xlink:title="prior_hessian::NormalDist\l::icdf">
<polygon fill="white" stroke="black" points="176,-462.5 176,-490.5 299,-490.5 299,-462.5 176,-462.5"/>
<text text-anchor="start" x="184" y="-479.3" font-family="Helvetica,sans-Serif" font-size="9.00">prior_hessian::NormalDist</text>
<text text-anchor="middle" x="237.5" y="-469.3" font-family="Helvetica,sans-Serif" font-size="9.00">::icdf</text>
</a>
</g>
</g>
<!-- Node1&#45;&gt;Node7 -->
<g id="edge7" class="edge"><title>Node1&#45;&gt;Node7</title>
<path fill="none" stroke="midnightblue" d="M75.3327,-260.317C85.6708,-301.152 115.551,-398.624 176,-453.5 179.827,-456.974 184.232,-459.943 188.884,-462.475"/>
<polygon fill="midnightblue" stroke="midnightblue" points="78.7321,-259.484 72.9735,-250.59 71.9293,-261.134 78.7321,-259.484"/>
</g>
<!-- Node8 -->
<g id="node8" class="node"><title>Node8</title>
<g id="a_node8"><a xlink:href="classprior__hessian_1_1NormalDist.html#a461705e4f29f8f968c4dd21d217fa797" target="_top" xlink:title="prior_hessian::NormalDist\l::mean">
<polygon fill="white" stroke="black" points="176,-227.5 176,-255.5 299,-255.5 299,-227.5 176,-227.5"/>
<text text-anchor="start" x="184" y="-244.3" font-family="Helvetica,sans-Serif" font-size="9.00">prior_hessian::NormalDist</text>
<text text-anchor="middle" x="237.5" y="-234.3" font-family="Helvetica,sans-Serif" font-size="9.00">::mean</text>
</a>
</g>
</g>
<!-- Node1&#45;&gt;Node8 -->
<g id="edge9" class="edge"><title>Node1&#45;&gt;Node8</title>
<path fill="none" stroke="midnightblue" d="M150.311,-241.5C158.938,-241.5 167.616,-241.5 175.968,-241.5"/>
<polygon fill="midnightblue" stroke="midnightblue" points="150.228,-238 140.228,-241.5 150.228,-245 150.228,-238"/>
</g>
<!-- Node9 -->
<g id="node9" class="node"><title>Node9</title>
<g id="a_node9"><a xlink:href="classprior__hessian_1_1NormalDist.html#aa90f1b24ee10d8692ab29b2ab019d6f7" target="_top" xlink:title="prior_hessian::NormalDist\l::operator==">
<polygon fill="white" stroke="black" points="176,-0.5 176,-28.5 299,-28.5 299,-0.5 176,-0.5"/>
<text text-anchor="start" x="184" y="-17.3" font-family="Helvetica,sans-Serif" font-size="9.00">prior_hessian::NormalDist</text>
<text text-anchor="middle" x="237.5" y="-7.3" font-family="Helvetica,sans-Serif" font-size="9.00">::operator==</text>
</a>
</g>
</g>
<!-- Node1&#45;&gt;Node9 -->
<g id="edge11" class="edge"><title>Node1&#45;&gt;Node9</title>
<path fill="none" stroke="midnightblue" d="M75.7647,-222.586C86.7173,-182.82 117.363,-89.9089 176,-37.5 179.854,-34.0554 184.276,-31.1061 188.938,-28.5853"/>
<polygon fill="midnightblue" stroke="midnightblue" points="72.3649,-221.752 73.1909,-232.314 79.1321,-223.542 72.3649,-221.752"/>
</g>
<!-- Node10 -->
<g id="node10" class="node"><title>Node10</title>
<g id="a_node10"><a xlink:href="classprior__hessian_1_1NormalDist.html#aa85e47b9c557fb7d9c19a3b5da5e0c44" target="_top" xlink:title="prior_hessian::NormalDist\l::param_ubound">
<polygon fill="white" stroke="black" points="176,-141.5 176,-169.5 299,-169.5 299,-141.5 176,-141.5"/>
<text text-anchor="start" x="184" y="-158.3" font-family="Helvetica,sans-Serif" font-size="9.00">prior_hessian::NormalDist</text>
<text text-anchor="middle" x="237.5" y="-148.3" font-family="Helvetica,sans-Serif" font-size="9.00">::param_ubound</text>
</a>
</g>
</g>
<!-- Node1&#45;&gt;Node10 -->
<g id="edge13" class="edge"><title>Node1&#45;&gt;Node10</title>
<path fill="none" stroke="midnightblue" d="M96.2043,-227.355C117.357,-215.595 148.447,-198.571 176,-184.5 185.855,-179.467 196.727,-174.176 206.504,-169.512"/>
<polygon fill="midnightblue" stroke="midnightblue" points="94.2623,-224.43 87.2334,-232.357 97.6718,-230.544 94.2623,-224.43"/>
</g>
<!-- Node11 -->
<g id="node11" class="node"><title>Node11</title>
<g id="a_node11"><a xlink:href="classprior__hessian_1_1NormalDist.html#aaea8964b1f62318c047e3c75ac104436" target="_top" xlink:title="prior_hessian::NormalDist\l::params">
<polygon fill="white" stroke="black" points="176,-415.5 176,-443.5 299,-443.5 299,-415.5 176,-415.5"/>
<text text-anchor="start" x="184" y="-432.3" font-family="Helvetica,sans-Serif" font-size="9.00">prior_hessian::NormalDist</text>
<text text-anchor="middle" x="237.5" y="-422.3" font-family="Helvetica,sans-Serif" font-size="9.00">::params</text>
</a>
</g>
</g>
<!-- Node1&#45;&gt;Node11 -->
<g id="edge14" class="edge"><title>Node1&#45;&gt;Node11</title>
<path fill="none" stroke="midnightblue" d="M78.2787,-260.41C92.2336,-294.304 125.882,-365.666 176,-406.5 180.181,-409.907 184.922,-412.845 189.865,-415.37"/>
<polygon fill="midnightblue" stroke="midnightblue" points="81.4033,-258.796 74.444,-250.808 74.9026,-261.393 81.4033,-258.796"/>
</g>
<!-- Node12 -->
<g id="node12" class="node"><title>Node12</title>
<g id="a_node12"><a xlink:href="classprior__hessian_1_1NormalDist.html#a1f75e2644054b23d804b7be394ed5a2b" target="_top" xlink:title="prior_hessian::NormalDist\l::sample">
<polygon fill="white" stroke="black" points="176,-368.5 176,-396.5 299,-396.5 299,-368.5 176,-368.5"/>
<text text-anchor="start" x="184" y="-385.3" font-family="Helvetica,sans-Serif" font-size="9.00">prior_hessian::NormalDist</text>
<text text-anchor="middle" x="237.5" y="-375.3" font-family="Helvetica,sans-Serif" font-size="9.00">::sample</text>
</a>
</g>
</g>
<!-- Node1&#45;&gt;Node12 -->
<g id="edge16" class="edge"><title>Node1&#45;&gt;Node12</title>
<path fill="none" stroke="midnightblue" d="M82.5207,-259.117C99.9569,-284.529 135.357,-331.488 176,-359.5 180.904,-362.88 186.37,-365.846 191.956,-368.425"/>
<polygon fill="midnightblue" stroke="midnightblue" points="85.2256,-256.866 76.7443,-250.517 79.4147,-260.77 85.2256,-256.866"/>
</g>
<!-- Node13 -->
<g id="node13" class="node"><title>Node13</title>
<g id="a_node13"><a xlink:href="classprior__hessian_1_1NormalDist.html#a78eea7f027f4dc2024adc00f7cb8cce1" target="_top" xlink:title="prior_hessian::NormalDist\l::set_params_iter">
<polygon fill="white" stroke="black" points="176,-321.5 176,-349.5 299,-349.5 299,-321.5 176,-321.5"/>
<text text-anchor="start" x="184" y="-338.3" font-family="Helvetica,sans-Serif" font-size="9.00">prior_hessian::NormalDist</text>
<text text-anchor="middle" x="237.5" y="-328.3" font-family="Helvetica,sans-Serif" font-size="9.00">::set_params_iter</text>
</a>
</g>
</g>
<!-- Node1&#45;&gt;Node13 -->
<g id="edge18" class="edge"><title>Node1&#45;&gt;Node13</title>
<path fill="none" stroke="midnightblue" d="M90.599,-256.787C111.07,-272.255 144.528,-296.158 176,-312.5 182.183,-315.711 188.92,-318.715 195.579,-321.425"/>
<polygon fill="midnightblue" stroke="midnightblue" points="92.4819,-253.82 82.4124,-250.525 88.2293,-259.381 92.4819,-253.82"/>
</g>
<!-- Node2&#45;&gt;Node3 -->
<g id="edge2" class="edge"><title>Node2&#45;&gt;Node3</title>
<path fill="none" stroke="midnightblue" d="M295.663,-305.612C313.092,-310.83 332.04,-316.502 348.699,-321.489"/>
<polygon fill="midnightblue" stroke="midnightblue" points="296.189,-302.117 285.605,-302.602 294.181,-308.822 296.189,-302.117"/>
</g>
<!-- Node4&#45;&gt;Node3 -->
<g id="edge4" class="edge"><title>Node4&#45;&gt;Node3</title>
<path fill="none" stroke="midnightblue" d="M293.657,-128.082C295.534,-129.461 297.324,-130.932 299,-132.5 357.546,-187.299 384.281,-284.93 392.551,-321.315"/>
<polygon fill="midnightblue" stroke="midnightblue" points="295.292,-124.976 284.965,-122.611 291.563,-130.9 295.292,-124.976"/>
</g>
<!-- Node6 -->
<g id="node6" class="node"><title>Node6</title>
<g id="a_node6"><a xlink:href="classprior__hessian_1_1NormalDist.html#ade1454cb5b7e913871723f174acd9dcc" target="_top" xlink:title="prior_hessian::NormalDist\l::operator!=">
<polygon fill="white" stroke="black" points="335,-24.5 335,-52.5 458,-52.5 458,-24.5 335,-24.5"/>
<text text-anchor="start" x="343" y="-41.3" font-family="Helvetica,sans-Serif" font-size="9.00">prior_hessian::NormalDist</text>
<text text-anchor="middle" x="396.5" y="-31.3" font-family="Helvetica,sans-Serif" font-size="9.00">::operator!=</text>
</a>
</g>
</g>
<!-- Node5&#45;&gt;Node6 -->
<g id="edge6" class="edge"><title>Node5&#45;&gt;Node6</title>
<path fill="none" stroke="midnightblue" d="M309.21,-51.1412C317.807,-49.8818 326.53,-48.6039 334.961,-47.3688"/>
<polygon fill="midnightblue" stroke="midnightblue" points="308.587,-47.695 299.2,-52.6076 309.602,-54.6211 308.587,-47.695"/>
</g>
<!-- Node7&#45;&gt;Node3 -->
<g id="edge8" class="edge"><title>Node7&#45;&gt;Node3</title>
<path fill="none" stroke="midnightblue" d="M292.486,-457.734C294.742,-456.405 296.926,-454.994 299,-453.5 339.583,-424.263 372.841,-373.88 387.469,-349.509"/>
<polygon fill="midnightblue" stroke="midnightblue" points="290.712,-454.713 283.494,-462.468 293.973,-460.907 290.712,-454.713"/>
</g>
<!-- Node9&#45;&gt;Node6 -->
<g id="edge12" class="edge"><title>Node9&#45;&gt;Node6</title>
<path fill="none" stroke="midnightblue" d="M309.21,-25.3091C317.807,-26.6234 326.53,-27.9568 334.961,-29.2457"/>
<polygon fill="midnightblue" stroke="midnightblue" points="309.614,-21.8304 299.2,-23.779 308.557,-28.75 309.614,-21.8304"/>
</g>
<!-- Node11&#45;&gt;Node3 -->
<g id="edge15" class="edge"><title>Node11&#45;&gt;Node3</title>
<path fill="none" stroke="midnightblue" d="M289.484,-411.283C292.749,-409.76 295.947,-408.163 299,-406.5 329.32,-389.983 360.894,-365.033 379.347,-349.532"/>
<polygon fill="midnightblue" stroke="midnightblue" points="287.925,-408.145 280.176,-415.37 290.739,-414.554 287.925,-408.145"/>
</g>
<!-- Node12&#45;&gt;Node3 -->
<g id="edge17" class="edge"><title>Node12&#45;&gt;Node3</title>
<path fill="none" stroke="midnightblue" d="M295.663,-365.388C313.092,-360.17 332.04,-354.498 348.699,-349.511"/>
<polygon fill="midnightblue" stroke="midnightblue" points="294.181,-362.178 285.605,-368.398 296.189,-368.883 294.181,-362.178"/>
</g>
<!-- Node13&#45;&gt;Node3 -->
<g id="edge19" class="edge"><title>Node13&#45;&gt;Node3</title>
<path fill="none" stroke="midnightblue" d="M309.21,-335.5C317.807,-335.5 326.53,-335.5 334.961,-335.5"/>
<polygon fill="midnightblue" stroke="midnightblue" points="309.2,-332 299.2,-335.5 309.2,-339 309.2,-332"/>
</g>
</g>
</svg>
