<?xml version="1.0" encoding="UTF-8" standalone="no"?>
<!DOCTYPE svg PUBLIC "-//W3C//DTD SVG 1.1//EN"
 "http://www.w3.org/Graphics/SVG/1.1/DTD/svg11.dtd">
<!-- Generated by graphviz version 2.38.0 (20140413.2041)
 -->
<!-- Title: prior_hessian::NormalDist::check_params Pages: 1 -->
<svg width="449pt" height="84pt"
 viewBox="0.00 0.00 449.00 84.00" xmlns="http://www.w3.org/2000/svg" xmlns:xlink="http://www.w3.org/1999/xlink">
<g id="graph0" class="graph" transform="scale(1 1) rotate(0) translate(4 80)">
<title>prior_hessian::NormalDist::check_params</title>
<polygon fill="white" stroke="none" points="-4,4 -4,-80 445,-80 445,4 -4,4"/>
<!-- Node1 -->
<g id="node1" class="node"><title>Node1</title>
<polygon fill="#bfbfbf" stroke="black" points="0,-23.5 0,-51.5 123,-51.5 123,-23.5 0,-23.5"/>
<text text-anchor="start" x="8" y="-40.3" font-family="Helvetica,sans-Serif" font-size="9.00">prior_hessian::NormalDist</text>
<text text-anchor="middle" x="61.5" y="-30.3" font-family="Helvetica,sans-Serif" font-size="9.00">::check_params</text>
</g>
<!-- Node2 -->
<g id="node2" class="node"><title>Node2</title>
<g id="a_node2"><a xlink:href="classprior__hessian_1_1NormalDist.html#ab0fa4841ce15ec70c8a8d876e5ea890f" target="_top" xlink:title="prior_hessian::NormalDist\l::check_params_iter">
<polygon fill="white" stroke="black" points="159,-47.5 159,-75.5 282,-75.5 282,-47.5 159,-47.5"/>
<text text-anchor="start" x="167" y="-64.3" font-family="Helvetica,sans-Serif" font-size="9.00">prior_hessian::NormalDist</text>
<text text-anchor="middle" x="220.5" y="-54.3" font-family="Helvetica,sans-Serif" font-size="9.00">::check_params_iter</text>
</a>
</g>
</g>
<!-- Node1&#45;&gt;Node2 -->
<g id="edge1" class="edge"><title>Node1&#45;&gt;Node2</title>
<path fill="none" stroke="midnightblue" d="M133.21,-48.3091C141.807,-49.6234 150.53,-50.9568 158.961,-52.2457"/>
<polygon fill="midnightblue" stroke="midnightblue" points="133.614,-44.8304 123.2,-46.779 132.557,-51.75 133.614,-44.8304"/>
</g>
<!-- Node4 -->
<g id="node4" class="node"><title>Node4</title>
<g id="a_node4"><a xlink:href="classprior__hessian_1_1NormalDist.html#aa85e47b9c557fb7d9c19a3b5da5e0c44" target="_top" xlink:title="prior_hessian::NormalDist\l::param_ubound">
<polygon fill="white" stroke="black" points="159,-0.5 159,-28.5 282,-28.5 282,-0.5 159,-0.5"/>
<text text-anchor="start" x="167" y="-17.3" font-family="Helvetica,sans-Serif" font-size="9.00">prior_hessian::NormalDist</text>
<text text-anchor="middle" x="220.5" y="-7.3" font-family="Helvetica,sans-Serif" font-size="9.00">::param_ubound</text>
</a>
</g>
</g>
<!-- Node1&#45;&gt;Node4 -->
<g id="edge3" class="edge"><title>Node1&#45;&gt;Node4</title>
<path fill="none" stroke="midnightblue" d="M133.21,-27.1412C141.807,-25.8818 150.53,-24.6039 158.961,-23.3688"/>
<polygon fill="midnightblue" stroke="midnightblue" points="132.587,-23.695 123.2,-28.6076 133.602,-30.6211 132.587,-23.695"/>
</g>
<!-- Node3 -->
<g id="node3" class="node"><title>Node3</title>
<g id="a_node3"><a xlink:href="classprior__hessian_1_1NormalDist.html#a01e959b4aea2b94bc05fc42c9abeed3c" target="_top" xlink:title="prior_hessian::NormalDist\l::median">
<polygon fill="white" stroke="black" points="318,-47.5 318,-75.5 441,-75.5 441,-47.5 318,-47.5"/>
<text text-anchor="start" x="326" y="-64.3" font-family="Helvetica,sans-Serif" font-size="9.00">prior_hessian::NormalDist</text>
<text text-anchor="middle" x="379.5" y="-54.3" font-family="Helvetica,sans-Serif" font-size="9.00">::median</text>
</a>
</g>
</g>
<!-- Node2&#45;&gt;Node3 -->
<g id="edge2" class="edge"><title>Node2&#45;&gt;Node3</title>
<path fill="none" stroke="midnightblue" d="M292.21,-61.5C300.807,-61.5 309.53,-61.5 317.961,-61.5"/>
<polygon fill="midnightblue" stroke="midnightblue" points="292.2,-58.0001 282.2,-61.5 292.2,-65.0001 292.2,-58.0001"/>
</g>
</g>
</svg>
