<?xml version="1.0" encoding="UTF-8" standalone="no"?>
<!DOCTYPE svg PUBLIC "-//W3C//DTD SVG 1.1//EN"
 "http://www.w3.org/Graphics/SVG/1.1/DTD/svg11.dtd">
<!-- Generated by graphviz version 2.38.0 (20140413.2041)
 -->
<!-- Title: prior_hessian::NormalDist::llh Pages: 1 -->
<svg width="463pt" height="128pt"
 viewBox="0.00 0.00 463.00 128.00" xmlns="http://www.w3.org/2000/svg" xmlns:xlink="http://www.w3.org/1999/xlink">
<g id="graph0" class="graph" transform="scale(1 1) rotate(0) translate(4 124)">
<title>prior_hessian::NormalDist::llh</title>
<polygon fill="white" stroke="none" points="-4,4 -4,-124 459,-124 459,4 -4,4"/>
<!-- Node1 -->
<g id="node1" class="node"><title>Node1</title>
<polygon fill="#bfbfbf" stroke="black" points="0,-72.5 0,-90.5 137,-90.5 137,-72.5 0,-72.5"/>
<text text-anchor="middle" x="68.5" y="-79.3" font-family="Helvetica,sans-Serif" font-size="9.00">prior_hessian::NormalDist::llh</text>
</g>
<!-- Node2 -->
<g id="node2" class="node"><title>Node2</title>
<g id="a_node2"><a xlink:href="classprior__hessian_1_1NormalDist.html#ab03d24df91ee8865e77ee8322151099f" target="_top" xlink:title="prior_hessian::NormalDist\l::rllh">
<polygon fill="white" stroke="black" points="173,-91.5 173,-119.5 296,-119.5 296,-91.5 173,-91.5"/>
<text text-anchor="start" x="181" y="-108.3" font-family="Helvetica,sans-Serif" font-size="9.00">prior_hessian::NormalDist</text>
<text text-anchor="middle" x="234.5" y="-98.3" font-family="Helvetica,sans-Serif" font-size="9.00">::rllh</text>
</a>
</g>
</g>
<!-- Node1&#45;&gt;Node2 -->
<g id="edge1" class="edge"><title>Node1&#45;&gt;Node2</title>
<path fill="none" stroke="midnightblue" d="M131.034,-90.505C141.435,-92.027 152.304,-93.6177 162.914,-95.1704"/>
<polygon fill="midnightblue" stroke="midnightblue" points="162.582,-98.6589 172.983,-96.6438 163.595,-91.7327 162.582,-98.6589"/>
</g>
<!-- Node4 -->
<g id="node4" class="node"><title>Node4</title>
<g id="a_node4"><a xlink:href="classprior__hessian_1_1NormalDist.html#adfc5ab11dc02672d9ef08eda487f97a7" target="_top" xlink:title="prior_hessian::NormalDist\l::sigma">
<polygon fill="white" stroke="black" points="173,-44.5 173,-72.5 296,-72.5 296,-44.5 173,-44.5"/>
<text text-anchor="start" x="181" y="-61.3" font-family="Helvetica,sans-Serif" font-size="9.00">prior_hessian::NormalDist</text>
<text text-anchor="middle" x="234.5" y="-51.3" font-family="Helvetica,sans-Serif" font-size="9.00">::sigma</text>
</a>
</g>
</g>
<!-- Node1&#45;&gt;Node4 -->
<g id="edge3" class="edge"><title>Node1&#45;&gt;Node4</title>
<path fill="none" stroke="midnightblue" d="M133.846,-72.4758C143.371,-71.1401 153.228,-69.7576 162.872,-68.4052"/>
<polygon fill="midnightblue" stroke="midnightblue" points="163.404,-71.8649 172.821,-67.0098 162.432,-64.9327 163.404,-71.8649"/>
</g>
<!-- Node3 -->
<g id="node3" class="node"><title>Node3</title>
<g id="a_node3"><a xlink:href="namespaceprior__hessian.html#a706cb136b90f16dd920118eb59ef1ad6" target="_top" xlink:title="prior_hessian::square">
<polygon fill="white" stroke="black" points="340.5,-96.5 340.5,-114.5 446.5,-114.5 446.5,-96.5 340.5,-96.5"/>
<text text-anchor="middle" x="393.5" y="-103.3" font-family="Helvetica,sans-Serif" font-size="9.00">prior_hessian::square</text>
</a>
</g>
</g>
<!-- Node2&#45;&gt;Node3 -->
<g id="edge2" class="edge"><title>Node2&#45;&gt;Node3</title>
<path fill="none" stroke="midnightblue" d="M296.2,-105.5C307.365,-105.5 319.037,-105.5 330.247,-105.5"/>
<polygon fill="midnightblue" stroke="midnightblue" points="330.384,-109 340.384,-105.5 330.384,-102 330.384,-109"/>
</g>
<!-- Node5 -->
<g id="node5" class="node"><title>Node5</title>
<g id="a_node5"><a xlink:href="classprior__hessian_1_1NormalDist.html#a078a35e8ded3164ca701e1a1b6918f39" target="_top" xlink:title="prior_hessian::NormalDist\l::set_mu">
<polygon fill="white" stroke="black" points="332,-47.5 332,-75.5 455,-75.5 455,-47.5 332,-47.5"/>
<text text-anchor="start" x="340" y="-64.3" font-family="Helvetica,sans-Serif" font-size="9.00">prior_hessian::NormalDist</text>
<text text-anchor="middle" x="393.5" y="-54.3" font-family="Helvetica,sans-Serif" font-size="9.00">::set_mu</text>
</a>
</g>
</g>
<!-- Node4&#45;&gt;Node5 -->
<g id="edge4" class="edge"><title>Node4&#45;&gt;Node5</title>
<path fill="none" stroke="midnightblue" d="M296.2,-59.6599C304.635,-59.8211 313.359,-59.9878 321.955,-60.152"/>
<polygon fill="midnightblue" stroke="midnightblue" points="321.896,-63.6514 331.961,-60.3432 322.03,-56.6527 321.896,-63.6514"/>
</g>
<!-- Node6 -->
<g id="node6" class="node"><title>Node6</title>
<g id="a_node6"><a xlink:href="classprior__hessian_1_1NormalDist.html#aa72eaaeda9a2fe0475ee78f08359d096" target="_top" xlink:title="prior_hessian::NormalDist\l::set_sigma">
<polygon fill="white" stroke="black" points="332,-0.5 332,-28.5 455,-28.5 455,-0.5 332,-0.5"/>
<text text-anchor="start" x="340" y="-17.3" font-family="Helvetica,sans-Serif" font-size="9.00">prior_hessian::NormalDist</text>
<text text-anchor="middle" x="393.5" y="-7.3" font-family="Helvetica,sans-Serif" font-size="9.00">::set_sigma</text>
</a>
</g>
</g>
<!-- Node4&#45;&gt;Node6 -->
<g id="edge5" class="edge"><title>Node4&#45;&gt;Node6</title>
<path fill="none" stroke="midnightblue" d="M285.607,-44.4572C300.478,-40.2897 316.919,-35.6819 332.357,-31.3554"/>
<polygon fill="midnightblue" stroke="midnightblue" points="333.646,-34.6292 342.33,-28.5604 331.757,-27.8888 333.646,-34.6292"/>
</g>
</g>
</svg>
