<?xml version="1.0" encoding="UTF-8" standalone="no"?>
<!DOCTYPE svg PUBLIC "-//W3C//DTD SVG 1.1//EN"
 "http://www.w3.org/Graphics/SVG/1.1/DTD/svg11.dtd">
<!-- Generated by graphviz version 2.38.0 (20140413.2041)
 -->
<!-- Title: prior_hessian::ParetoDist::lbound Pages: 1 -->
<svg width="457pt" height="430pt"
 viewBox="0.00 0.00 457.00 430.00" xmlns="http://www.w3.org/2000/svg" xmlns:xlink="http://www.w3.org/1999/xlink">
<g id="graph0" class="graph" transform="scale(1 1) rotate(0) translate(4 426)">
<title>prior_hessian::ParetoDist::lbound</title>
<polygon fill="white" stroke="none" points="-4,4 -4,-426 453,-426 453,4 -4,4"/>
<!-- Node1 -->
<g id="node1" class="node"><title>Node1</title>
<polygon fill="#bfbfbf" stroke="black" points="0,-178.5 0,-206.5 120,-206.5 120,-178.5 0,-178.5"/>
<text text-anchor="start" x="8" y="-195.3" font-family="Helvetica,sans-Serif" font-size="9.00">prior_hessian::ParetoDist</text>
<text text-anchor="middle" x="60" y="-185.3" font-family="Helvetica,sans-Serif" font-size="9.00">::lbound</text>
</g>
<!-- Node2 -->
<g id="node2" class="node"><title>Node2</title>
<g id="a_node2"><a xlink:href="classprior__hessian_1_1ParetoDist.html#afe706cb12ce6f667e7a3a9eb7311ef65" target="_top" xlink:title="prior_hessian::ParetoDist::cdf">
<polygon fill="white" stroke="black" points="156,-403.5 156,-421.5 293,-421.5 293,-403.5 156,-403.5"/>
<text text-anchor="middle" x="224.5" y="-410.3" font-family="Helvetica,sans-Serif" font-size="9.00">prior_hessian::ParetoDist::cdf</text>
</a>
</g>
</g>
<!-- Node1&#45;&gt;Node2 -->
<g id="edge1" class="edge"><title>Node1&#45;&gt;Node2</title>
<path fill="none" stroke="midnightblue" d="M66.7719,-216.753C76.8832,-257.901 102.076,-340.458 156,-385.5 168.38,-395.841 186.115,-400.295 200.3,-403.451"/>
<polygon fill="midnightblue" stroke="midnightblue" points="70.1188,-215.697 64.4128,-206.77 63.3065,-217.307 70.1188,-215.697"/>
</g>
<!-- Node3 -->
<g id="node3" class="node"><title>Node3</title>
<g id="a_node3"><a xlink:href="classprior__hessian_1_1ParetoDist.html#adc9bafea285be38186ec4ad161850b56" target="_top" xlink:title="prior_hessian::ParetoDist\l::get_param">
<polygon fill="white" stroke="black" points="164.5,-356.5 164.5,-384.5 284.5,-384.5 284.5,-356.5 164.5,-356.5"/>
<text text-anchor="start" x="172.5" y="-373.3" font-family="Helvetica,sans-Serif" font-size="9.00">prior_hessian::ParetoDist</text>
<text text-anchor="middle" x="224.5" y="-363.3" font-family="Helvetica,sans-Serif" font-size="9.00">::get_param</text>
</a>
</g>
</g>
<!-- Node1&#45;&gt;Node3 -->
<g id="edge3" class="edge"><title>Node1&#45;&gt;Node3</title>
<path fill="none" stroke="midnightblue" d="M69.5418,-216.306C82.873,-250.189 111.774,-312.124 156,-347.5 160.351,-350.98 165.257,-353.947 170.39,-356.474"/>
<polygon fill="midnightblue" stroke="midnightblue" points="72.7335,-214.853 65.9046,-206.752 66.1915,-217.343 72.7335,-214.853"/>
</g>
<!-- Node5 -->
<g id="node5" class="node"><title>Node5</title>
<g id="a_node5"><a xlink:href="classprior__hessian_1_1ParetoDist.html#a9d1040a7a5ca261feebe56f42e5698ea" target="_top" xlink:title="prior_hessian::ParetoDist\l::icdf">
<polygon fill="white" stroke="black" points="164.5,-309.5 164.5,-337.5 284.5,-337.5 284.5,-309.5 164.5,-309.5"/>
<text text-anchor="start" x="172.5" y="-326.3" font-family="Helvetica,sans-Serif" font-size="9.00">prior_hessian::ParetoDist</text>
<text text-anchor="middle" x="224.5" y="-316.3" font-family="Helvetica,sans-Serif" font-size="9.00">::icdf</text>
</a>
</g>
</g>
<!-- Node1&#45;&gt;Node5 -->
<g id="edge5" class="edge"><title>Node1&#45;&gt;Node5</title>
<path fill="none" stroke="midnightblue" d="M80.0984,-214.494C97.3199,-236.86 124.698,-270.592 156,-291.5 168.045,-299.545 183.18,-305.041 196.063,-309.496"/>
<polygon fill="midnightblue" stroke="midnightblue" points="82.8627,-212.347 74.0084,-206.528 77.3018,-216.598 82.8627,-212.347"/>
</g>
<!-- Node6 -->
<g id="node6" class="node"><title>Node6</title>
<g id="a_node6"><a xlink:href="classprior__hessian_1_1ParetoDist.html#ae3776388549cf35e9fea96963624cf6e" target="_top" xlink:title="prior_hessian::ParetoDist\l::in_bounds">
<polygon fill="white" stroke="black" points="164.5,-262.5 164.5,-290.5 284.5,-290.5 284.5,-262.5 164.5,-262.5"/>
<text text-anchor="start" x="172.5" y="-279.3" font-family="Helvetica,sans-Serif" font-size="9.00">prior_hessian::ParetoDist</text>
<text text-anchor="middle" x="224.5" y="-269.3" font-family="Helvetica,sans-Serif" font-size="9.00">::in_bounds</text>
</a>
</g>
</g>
<!-- Node1&#45;&gt;Node6 -->
<g id="edge7" class="edge"><title>Node1&#45;&gt;Node6</title>
<path fill="none" stroke="midnightblue" d="M88.0655,-212.394C106.533,-225.326 131.922,-241.881 156,-253.5 162.69,-256.728 169.952,-259.707 177.15,-262.375"/>
<polygon fill="midnightblue" stroke="midnightblue" points="90.0246,-209.493 79.8447,-206.557 85.9716,-215.2 90.0246,-209.493"/>
</g>
<!-- Node7 -->
<g id="node7" class="node"><title>Node7</title>
<g id="a_node7"><a xlink:href="classprior__hessian_1_1ParetoDist.html#a0f7ee813a098cd3fc9c7669cda6a340c" target="_top" xlink:title="prior_hessian::ParetoDist::llh">
<polygon fill="white" stroke="black" points="157.5,-225.5 157.5,-243.5 291.5,-243.5 291.5,-225.5 157.5,-225.5"/>
<text text-anchor="middle" x="224.5" y="-232.3" font-family="Helvetica,sans-Serif" font-size="9.00">prior_hessian::ParetoDist::llh</text>
</a>
</g>
</g>
<!-- Node1&#45;&gt;Node7 -->
<g id="edge8" class="edge"><title>Node1&#45;&gt;Node7</title>
<path fill="none" stroke="midnightblue" d="M130.206,-203.704C157.868,-210.546 187.434,-218.945 205.695,-225.486"/>
<polygon fill="midnightblue" stroke="midnightblue" points="130.669,-200.214 120.126,-201.259 129.02,-207.017 130.669,-200.214"/>
</g>
<!-- Node8 -->
<g id="node8" class="node"><title>Node8</title>
<g id="a_node8"><a xlink:href="classprior__hessian_1_1ParetoDist.html#a0a1e20b0aa6c7b52c134fc2341b5fdd4" target="_top" xlink:title="prior_hessian::ParetoDist\l::mean">
<polygon fill="white" stroke="black" points="164.5,-178.5 164.5,-206.5 284.5,-206.5 284.5,-178.5 164.5,-178.5"/>
<text text-anchor="start" x="172.5" y="-195.3" font-family="Helvetica,sans-Serif" font-size="9.00">prior_hessian::ParetoDist</text>
<text text-anchor="middle" x="224.5" y="-185.3" font-family="Helvetica,sans-Serif" font-size="9.00">::mean</text>
</a>
</g>
</g>
<!-- Node1&#45;&gt;Node8 -->
<g id="edge10" class="edge"><title>Node1&#45;&gt;Node8</title>
<path fill="none" stroke="midnightblue" d="M130.411,-185.814C141.735,-185.691 153.373,-185.745 164.418,-185.978"/>
<polygon fill="midnightblue" stroke="midnightblue" points="130.069,-182.319 120.126,-185.978 130.18,-189.318 130.069,-182.319"/>
</g>
<!-- Node9 -->
<g id="node9" class="node"><title>Node9</title>
<g id="a_node9"><a xlink:href="classprior__hessian_1_1ParetoDist.html#a74af41636088b6c727107c60dd9c81b2" target="_top" xlink:title="prior_hessian::ParetoDist\l::median">
<polygon fill="white" stroke="black" points="164.5,-131.5 164.5,-159.5 284.5,-159.5 284.5,-131.5 164.5,-131.5"/>
<text text-anchor="start" x="172.5" y="-148.3" font-family="Helvetica,sans-Serif" font-size="9.00">prior_hessian::ParetoDist</text>
<text text-anchor="middle" x="224.5" y="-138.3" font-family="Helvetica,sans-Serif" font-size="9.00">::median</text>
</a>
</g>
</g>
<!-- Node1&#45;&gt;Node9 -->
<g id="edge12" class="edge"><title>Node1&#45;&gt;Node9</title>
<path fill="none" stroke="midnightblue" d="M100.746,-175.107C119.822,-168.73 143.071,-161.796 164.184,-156.129"/>
<polygon fill="midnightblue" stroke="midnightblue" points="99.5108,-171.831 91.1842,-178.382 101.779,-178.453 99.5108,-171.831"/>
</g>
<!-- Node10 -->
<g id="node10" class="node"><title>Node10</title>
<g id="a_node10"><a xlink:href="classprior__hessian_1_1ParetoDist.html#af5791e2cef16b34e1bbdeec24b13d22e" target="_top" xlink:title="prior_hessian::ParetoDist\l::params">
<polygon fill="white" stroke="black" points="164.5,-84.5 164.5,-112.5 284.5,-112.5 284.5,-84.5 164.5,-84.5"/>
<text text-anchor="start" x="172.5" y="-101.3" font-family="Helvetica,sans-Serif" font-size="9.00">prior_hessian::ParetoDist</text>
<text text-anchor="middle" x="224.5" y="-91.3" font-family="Helvetica,sans-Serif" font-size="9.00">::params</text>
</a>
</g>
</g>
<!-- Node1&#45;&gt;Node10 -->
<g id="edge14" class="edge"><title>Node1&#45;&gt;Node10</title>
<path fill="none" stroke="midnightblue" d="M77.618,-171.228C95.8257,-153.446 126.396,-129.226 156,-113.5 158.636,-112.1 161.371,-110.751 164.164,-109.464"/>
<polygon fill="midnightblue" stroke="midnightblue" points="75.0885,-168.808 70.6105,-178.41 80.099,-173.697 75.0885,-168.808"/>
</g>
<!-- Node12 -->
<g id="node12" class="node"><title>Node12</title>
<g id="a_node12"><a xlink:href="classprior__hessian_1_1ParetoDist.html#a07cc43c2b299fc07660684f34f32d4ee" target="_top" xlink:title="prior_hessian::ParetoDist::pdf">
<polygon fill="white" stroke="black" points="156,-47.5 156,-65.5 293,-65.5 293,-47.5 156,-47.5"/>
<text text-anchor="middle" x="224.5" y="-54.3" font-family="Helvetica,sans-Serif" font-size="9.00">prior_hessian::ParetoDist::pdf</text>
</a>
</g>
</g>
<!-- Node1&#45;&gt;Node12 -->
<g id="edge18" class="edge"><title>Node1&#45;&gt;Node12</title>
<path fill="none" stroke="midnightblue" d="M70.3757,-169.369C85.1566,-140.487 116.321,-92.5865 156,-66.5 156.509,-66.1656 157.023,-65.837 157.543,-65.5142"/>
<polygon fill="midnightblue" stroke="midnightblue" points="67.2219,-167.852 66.0025,-178.376 73.5189,-170.909 67.2219,-167.852"/>
</g>
<!-- Node13 -->
<g id="node13" class="node"><title>Node13</title>
<g id="a_node13"><a xlink:href="classprior__hessian_1_1ParetoDist.html#abe706f0786b5e8ef20b7caff07ffad0c" target="_top" xlink:title="prior_hessian::ParetoDist\l::sample">
<polygon fill="white" stroke="black" points="164.5,-0.5 164.5,-28.5 284.5,-28.5 284.5,-0.5 164.5,-0.5"/>
<text text-anchor="start" x="172.5" y="-17.3" font-family="Helvetica,sans-Serif" font-size="9.00">prior_hessian::ParetoDist</text>
<text text-anchor="middle" x="224.5" y="-7.3" font-family="Helvetica,sans-Serif" font-size="9.00">::sample</text>
</a>
</g>
</g>
<!-- Node1&#45;&gt;Node13 -->
<g id="edge20" class="edge"><title>Node1&#45;&gt;Node13</title>
<path fill="none" stroke="midnightblue" d="M67.566,-168.844C79.9525,-133.195 109.751,-66.8871 156,-29.5 158.612,-27.3889 161.423,-25.4561 164.363,-23.6981"/>
<polygon fill="midnightblue" stroke="midnightblue" points="64.207,-167.855 64.4078,-178.448 70.8567,-170.042 64.207,-167.855"/>
</g>
<!-- Node2&#45;&gt;Node1 -->
<g id="edge2" class="edge"><title>Node2&#45;&gt;Node1</title>
<path fill="none" stroke="midnightblue" d="M148.048,-396.397C90.5016,-341.567 68.5784,-243.734 62.7351,-206.747"/>
<polygon fill="midnightblue" stroke="midnightblue" points="145.845,-399.123 155.628,-403.189 150.515,-393.909 145.845,-399.123"/>
</g>
<!-- Node4 -->
<g id="node4" class="node"><title>Node4</title>
<g id="a_node4"><a xlink:href="classprior__hessian_1_1ParetoDist.html#a572ad9f28d83da610e1b81c88876563a" target="_top" xlink:title="prior_hessian::ParetoDist\l::ParetoDist">
<polygon fill="white" stroke="black" points="329,-356.5 329,-384.5 449,-384.5 449,-356.5 329,-356.5"/>
<text text-anchor="start" x="337" y="-373.3" font-family="Helvetica,sans-Serif" font-size="9.00">prior_hessian::ParetoDist</text>
<text text-anchor="middle" x="389" y="-363.3" font-family="Helvetica,sans-Serif" font-size="9.00">::ParetoDist</text>
</a>
</g>
</g>
<!-- Node3&#45;&gt;Node4 -->
<g id="edge4" class="edge"><title>Node3&#45;&gt;Node4</title>
<path fill="none" stroke="midnightblue" d="M294.911,-370.5C306.235,-370.5 317.873,-370.5 328.918,-370.5"/>
<polygon fill="midnightblue" stroke="midnightblue" points="294.626,-367 284.626,-370.5 294.626,-374 294.626,-367"/>
</g>
<!-- Node5&#45;&gt;Node1 -->
<g id="edge6" class="edge"><title>Node5&#45;&gt;Node1</title>
<path fill="none" stroke="midnightblue" d="M156.123,-308.787C110.838,-276.32 79.4394,-230.527 66.8859,-206.846"/>
<polygon fill="midnightblue" stroke="midnightblue" points="154.203,-311.714 164.429,-314.484 158.162,-305.941 154.203,-311.714"/>
</g>
<!-- Node7&#45;&gt;Node1 -->
<g id="edge9" class="edge"><title>Node7&#45;&gt;Node1</title>
<path fill="none" stroke="midnightblue" d="M153.331,-223.058C132.662,-217.926 111.017,-211.95 93.8843,-206.548"/>
<polygon fill="midnightblue" stroke="midnightblue" points="152.512,-226.461 163.056,-225.427 154.168,-219.659 152.512,-226.461"/>
</g>
<!-- Node8&#45;&gt;Node1 -->
<g id="edge11" class="edge"><title>Node8&#45;&gt;Node1</title>
<path fill="none" stroke="midnightblue" d="M154.134,-199.185C142.811,-199.309 131.173,-199.255 120.126,-199.022"/>
<polygon fill="midnightblue" stroke="midnightblue" points="154.475,-202.681 164.418,-199.022 154.364,-195.681 154.475,-202.681"/>
</g>
<!-- Node9&#45;&gt;Node1 -->
<g id="edge13" class="edge"><title>Node9&#45;&gt;Node1</title>
<path fill="none" stroke="midnightblue" d="M183.782,-162.883C164.644,-169.282 141.3,-176.243 120.126,-181.921"/>
<polygon fill="midnightblue" stroke="midnightblue" points="185.048,-166.149 193.374,-159.598 182.779,-159.527 185.048,-166.149"/>
</g>
<!-- Node10&#45;&gt;Node1 -->
<g id="edge17" class="edge"><title>Node10&#45;&gt;Node1</title>
<path fill="none" stroke="midnightblue" d="M191.275,-116.266C179.825,-120.673 167.044,-125.633 156,-131.5 130.671,-144.956 104.633,-164.629 86.2379,-178.224"/>
<polygon fill="midnightblue" stroke="midnightblue" points="192.86,-119.406 200.918,-112.528 190.329,-112.879 192.86,-119.406"/>
</g>
<!-- Node11 -->
<g id="node11" class="node"><title>Node11</title>
<g id="a_node11"><a xlink:href="classprior__hessian_1_1ParetoDist.html#ad90392cbacf44f0760b46e80a2676a08" target="_top" xlink:title="prior_hessian::ParetoDist\l::check_params">
<polygon fill="white" stroke="black" points="329,-84.5 329,-112.5 449,-112.5 449,-84.5 329,-84.5"/>
<text text-anchor="start" x="337" y="-101.3" font-family="Helvetica,sans-Serif" font-size="9.00">prior_hessian::ParetoDist</text>
<text text-anchor="middle" x="389" y="-91.3" font-family="Helvetica,sans-Serif" font-size="9.00">::check_params</text>
</a>
</g>
</g>
<!-- Node10&#45;&gt;Node11 -->
<g id="edge15" class="edge"><title>Node10&#45;&gt;Node11</title>
<path fill="none" stroke="midnightblue" d="M294.911,-98.5C306.235,-98.5 317.873,-98.5 328.918,-98.5"/>
<polygon fill="midnightblue" stroke="midnightblue" points="294.626,-95.0001 284.626,-98.5 294.626,-102 294.626,-95.0001"/>
</g>
<!-- Node11&#45;&gt;Node11 -->
<g id="edge16" class="edge"><title>Node11&#45;&gt;Node11</title>
<path fill="none" stroke="midnightblue" d="M359.354,-122.487C362.502,-127.441 372.384,-131 389,-131 415.586,-131 424.933,-121.89 417.04,-112.53"/>
<polygon fill="midnightblue" stroke="midnightblue" points="362.823,-122.96 360.96,-112.53 355.912,-121.845 362.823,-122.96"/>
</g>
<!-- Node12&#45;&gt;Node1 -->
<g id="edge19" class="edge"><title>Node12&#45;&gt;Node1</title>
<path fill="none" stroke="midnightblue" d="M196.646,-68.2449C183.58,-71.8646 168.12,-76.5314 156,-84.5 117.739,-109.654 87.3945,-155.092 72.0224,-178.453"/>
<polygon fill="midnightblue" stroke="midnightblue" points="197.794,-71.559 206.501,-65.5234 195.93,-64.8116 197.794,-71.559"/>
</g>
<!-- Node13&#45;&gt;Node1 -->
<g id="edge21" class="edge"><title>Node13&#45;&gt;Node1</title>
<path fill="none" stroke="midnightblue" d="M184.61,-32.0073C174.577,-35.9028 164.283,-40.8044 156,-47.5 110.56,-84.2329 81.0003,-148.884 68.2322,-178.041"/>
<polygon fill="midnightblue" stroke="midnightblue" points="185.88,-35.2696 194.076,-28.555 183.482,-28.6934 185.88,-35.2696"/>
</g>
</g>
</svg>
