<?xml version="1.0" encoding="UTF-8" standalone="no"?>
<!DOCTYPE svg PUBLIC "-//W3C//DTD SVG 1.1//EN"
 "http://www.w3.org/Graphics/SVG/1.1/DTD/svg11.dtd">
<!-- Generated by graphviz version 2.38.0 (20140413.2041)
 -->
<!-- Title: prior_hessian::CompositeDist::ComponentDistAdaptor&lt; Dist, meta::EnableIfSubclassT&lt; Dist, UnivariateDist &gt; &gt;::append_lbound Pages: 1 -->
<svg width="353pt" height="57pt"
 viewBox="0.00 0.00 353.00 57.00" xmlns="http://www.w3.org/2000/svg" xmlns:xlink="http://www.w3.org/1999/xlink">
<g id="graph0" class="graph" transform="scale(1 1) rotate(0) translate(4 53)">
<title>prior_hessian::CompositeDist::ComponentDistAdaptor&lt; Dist, meta::EnableIfSubclassT&lt; Dist, UnivariateDist &gt; &gt;::append_lbound</title>
<polygon fill="white" stroke="none" points="-4,4 -4,-53 349,-53 349,4 -4,4"/>
<!-- Node1 -->
<g id="node1" class="node"><title>Node1</title>
<polygon fill="#bfbfbf" stroke="black" points="0,-0.5 0,-48.5 187,-48.5 187,-0.5 0,-0.5"/>
<text text-anchor="start" x="8" y="-37.3" font-family="Helvetica,sans-Serif" font-size="9.00">prior_hessian::Composite</text>
<text text-anchor="start" x="8" y="-27.3" font-family="Helvetica,sans-Serif" font-size="9.00">Dist::ComponentDistAdaptor</text>
<text text-anchor="start" x="8" y="-17.3" font-family="Helvetica,sans-Serif" font-size="9.00">&lt; Dist, meta::EnableIfSubclassT</text>
<text text-anchor="middle" x="93.5" y="-7.3" font-family="Helvetica,sans-Serif" font-size="9.00">&lt; Dist, UnivariateDist &gt; &gt;::append_lbound</text>
</g>
<!-- Node2 -->
<g id="node2" class="node"><title>Node2</title>
<g id="a_node2"><a xlink:href="classprior__hessian_1_1CompositeDist.html#a46c83acc63b87837f3c4cb425e312d67" target="_top" xlink:title="prior_hessian::Composite\lDist::lbound">
<polygon fill="white" stroke="black" points="223,-10.5 223,-38.5 345,-38.5 345,-10.5 223,-10.5"/>
<text text-anchor="start" x="231" y="-27.3" font-family="Helvetica,sans-Serif" font-size="9.00">prior_hessian::Composite</text>
<text text-anchor="middle" x="284" y="-17.3" font-family="Helvetica,sans-Serif" font-size="9.00">Dist::lbound</text>
</a>
</g>
</g>
<!-- Node1&#45;&gt;Node2 -->
<g id="edge1" class="edge"><title>Node1&#45;&gt;Node2</title>
<path fill="none" stroke="midnightblue" d="M187.093,-24.5C195.765,-24.5 204.455,-24.5 212.87,-24.5"/>
<polygon fill="midnightblue" stroke="midnightblue" points="212.978,-28.0001 222.978,-24.5 212.978,-21.0001 212.978,-28.0001"/>
</g>
</g>
</svg>
