<?xml version="1.0" encoding="UTF-8" standalone="no"?>
<!DOCTYPE svg PUBLIC "-//W3C//DTD SVG 1.1//EN"
 "http://www.w3.org/Graphics/SVG/1.1/DTD/svg11.dtd">
<!-- Generated by graphviz version 2.38.0 (20140413.2041)
 -->
<!-- Title: prior_hessian::SymmetricBetaDist::set_param Pages: 1 -->
<svg width="596pt" height="178pt"
 viewBox="0.00 0.00 596.00 178.00" xmlns="http://www.w3.org/2000/svg" xmlns:xlink="http://www.w3.org/1999/xlink">
<g id="graph0" class="graph" transform="scale(1 1) rotate(0) translate(4 174)">
<title>prior_hessian::SymmetricBetaDist::set_param</title>
<polygon fill="white" stroke="none" points="-4,4 -4,-174 592,-174 592,4 -4,4"/>
<!-- Node1 -->
<g id="node1" class="node"><title>Node1</title>
<polygon fill="#bfbfbf" stroke="black" points="0,-70.5 0,-98.5 120,-98.5 120,-70.5 0,-70.5"/>
<text text-anchor="start" x="8" y="-87.3" font-family="Helvetica,sans-Serif" font-size="9.00">prior_hessian::Symmetric</text>
<text text-anchor="middle" x="60" y="-77.3" font-family="Helvetica,sans-Serif" font-size="9.00">BetaDist::set_param</text>
</g>
<!-- Node2 -->
<g id="node2" class="node"><title>Node2</title>
<g id="a_node2"><a xlink:href="classprior__hessian_1_1SymmetricBetaDist.html#a1e726eb12d98240778d7c0bfaafc7edd" target="_top" xlink:title="prior_hessian::Symmetric\lBetaDist::beta">
<polygon fill="white" stroke="black" points="156,-70.5 156,-98.5 276,-98.5 276,-70.5 156,-70.5"/>
<text text-anchor="start" x="164" y="-87.3" font-family="Helvetica,sans-Serif" font-size="9.00">prior_hessian::Symmetric</text>
<text text-anchor="middle" x="216" y="-77.3" font-family="Helvetica,sans-Serif" font-size="9.00">BetaDist::beta</text>
</a>
</g>
</g>
<!-- Node1&#45;&gt;Node2 -->
<g id="edge1" class="edge"><title>Node1&#45;&gt;Node2</title>
<path fill="none" stroke="midnightblue" d="M130.369,-84.5C138.862,-84.5 147.48,-84.5 155.804,-84.5"/>
<polygon fill="midnightblue" stroke="midnightblue" points="130.1,-81.0001 120.1,-84.5 130.1,-88.0001 130.1,-81.0001"/>
</g>
<!-- Node3 -->
<g id="node3" class="node"><title>Node3</title>
<g id="a_node3"><a xlink:href="classprior__hessian_1_1SymmetricBetaDist.html#a705d0521091fc93418588af78d85cc52" target="_top" xlink:title="prior_hessian::Symmetric\lBetaDist::llh">
<polygon fill="white" stroke="black" points="312,-94.5 312,-122.5 432,-122.5 432,-94.5 312,-94.5"/>
<text text-anchor="start" x="320" y="-111.3" font-family="Helvetica,sans-Serif" font-size="9.00">prior_hessian::Symmetric</text>
<text text-anchor="middle" x="372" y="-101.3" font-family="Helvetica,sans-Serif" font-size="9.00">BetaDist::llh</text>
</a>
</g>
</g>
<!-- Node2&#45;&gt;Node3 -->
<g id="edge2" class="edge"><title>Node2&#45;&gt;Node3</title>
<path fill="none" stroke="midnightblue" d="M286.089,-95.2671C294.672,-96.6048 303.388,-97.9631 311.804,-99.2746"/>
<polygon fill="midnightblue" stroke="midnightblue" points="286.52,-91.7921 276.1,-93.7104 285.442,-98.7086 286.52,-91.7921"/>
</g>
<!-- Node5 -->
<g id="node5" class="node"><title>Node5</title>
<g id="a_node5"><a xlink:href="classprior__hessian_1_1SymmetricBetaDist.html#ad4d4bd09ccdf88bb70a66064fc3a9a9d" target="_top" xlink:title="prior_hessian::Symmetric\lBetaDist::operator==">
<polygon fill="white" stroke="black" points="312,-141.5 312,-169.5 432,-169.5 432,-141.5 312,-141.5"/>
<text text-anchor="start" x="320" y="-158.3" font-family="Helvetica,sans-Serif" font-size="9.00">prior_hessian::Symmetric</text>
<text text-anchor="middle" x="372" y="-148.3" font-family="Helvetica,sans-Serif" font-size="9.00">BetaDist::operator==</text>
</a>
</g>
</g>
<!-- Node2&#45;&gt;Node5 -->
<g id="edge4" class="edge"><title>Node2&#45;&gt;Node5</title>
<path fill="none" stroke="midnightblue" d="M252.151,-103.276C269.899,-112.495 291.883,-123.521 312,-132.5 318.827,-135.547 326.19,-138.598 333.322,-141.436"/>
<polygon fill="midnightblue" stroke="midnightblue" points="253.771,-100.174 243.288,-98.6403 250.527,-106.377 253.771,-100.174"/>
</g>
<!-- Node7 -->
<g id="node7" class="node"><title>Node7</title>
<g id="a_node7"><a xlink:href="classprior__hessian_1_1SymmetricBetaDist.html#a59cc29572feb20c003130c417249809d" target="_top" xlink:title="prior_hessian::Symmetric\lBetaDist::param_ubound">
<polygon fill="white" stroke="black" points="312,-47.5 312,-75.5 432,-75.5 432,-47.5 312,-47.5"/>
<text text-anchor="start" x="320" y="-64.3" font-family="Helvetica,sans-Serif" font-size="9.00">prior_hessian::Symmetric</text>
<text text-anchor="middle" x="372" y="-54.3" font-family="Helvetica,sans-Serif" font-size="9.00">BetaDist::param_ubound</text>
</a>
</g>
</g>
<!-- Node2&#45;&gt;Node7 -->
<g id="edge6" class="edge"><title>Node2&#45;&gt;Node7</title>
<path fill="none" stroke="midnightblue" d="M286.089,-74.1815C294.672,-72.8996 303.388,-71.5979 311.804,-70.341"/>
<polygon fill="midnightblue" stroke="midnightblue" points="285.473,-70.7346 276.1,-75.6734 286.507,-77.6578 285.473,-70.7346"/>
</g>
<!-- Node8 -->
<g id="node8" class="node"><title>Node8</title>
<g id="a_node8"><a xlink:href="classprior__hessian_1_1SymmetricBetaDist.html#a2db7bdb8013ac523f58d2b252ea0dbb4" target="_top" xlink:title="prior_hessian::Symmetric\lBetaDist::params">
<polygon fill="white" stroke="black" points="312,-0.5 312,-28.5 432,-28.5 432,-0.5 312,-0.5"/>
<text text-anchor="start" x="320" y="-17.3" font-family="Helvetica,sans-Serif" font-size="9.00">prior_hessian::Symmetric</text>
<text text-anchor="middle" x="372" y="-7.3" font-family="Helvetica,sans-Serif" font-size="9.00">BetaDist::params</text>
</a>
</g>
</g>
<!-- Node2&#45;&gt;Node8 -->
<g id="edge7" class="edge"><title>Node2&#45;&gt;Node8</title>
<path fill="none" stroke="midnightblue" d="M253.06,-65.7296C270.663,-56.8066 292.256,-46.2125 312,-37.5 318.84,-34.4819 326.208,-31.4444 333.343,-28.6107"/>
<polygon fill="midnightblue" stroke="midnightblue" points="251.044,-62.829 243.728,-70.4924 254.227,-69.0639 251.044,-62.829"/>
</g>
<!-- Node4 -->
<g id="node4" class="node"><title>Node4</title>
<g id="a_node4"><a xlink:href="classprior__hessian_1_1SymmetricBetaDist.html#a642a881868f0f031bacc87877714cf8d" target="_top" xlink:title="prior_hessian::Symmetric\lBetaDist::median">
<polygon fill="white" stroke="black" points="468,-47.5 468,-75.5 588,-75.5 588,-47.5 468,-47.5"/>
<text text-anchor="start" x="476" y="-64.3" font-family="Helvetica,sans-Serif" font-size="9.00">prior_hessian::Symmetric</text>
<text text-anchor="middle" x="528" y="-54.3" font-family="Helvetica,sans-Serif" font-size="9.00">BetaDist::median</text>
</a>
</g>
</g>
<!-- Node3&#45;&gt;Node4 -->
<g id="edge3" class="edge"><title>Node3&#45;&gt;Node4</title>
<path fill="none" stroke="midnightblue" d="M429.071,-91.3875C446.167,-86.1699 464.753,-80.4976 481.093,-75.5106"/>
<polygon fill="midnightblue" stroke="midnightblue" points="427.748,-88.1318 419.205,-94.3985 429.791,-94.8269 427.748,-88.1318"/>
</g>
<!-- Node6 -->
<g id="node6" class="node"><title>Node6</title>
<g id="a_node6"><a xlink:href="classprior__hessian_1_1SymmetricBetaDist.html#afdc7ff36dab9f6a2de9f53f12ca87973" target="_top" xlink:title="prior_hessian::Symmetric\lBetaDist::operator!=">
<polygon fill="white" stroke="black" points="468,-141.5 468,-169.5 588,-169.5 588,-141.5 468,-141.5"/>
<text text-anchor="start" x="476" y="-158.3" font-family="Helvetica,sans-Serif" font-size="9.00">prior_hessian::Symmetric</text>
<text text-anchor="middle" x="528" y="-148.3" font-family="Helvetica,sans-Serif" font-size="9.00">BetaDist::operator!=</text>
</a>
</g>
</g>
<!-- Node5&#45;&gt;Node6 -->
<g id="edge5" class="edge"><title>Node5&#45;&gt;Node6</title>
<path fill="none" stroke="midnightblue" d="M442.369,-155.5C450.862,-155.5 459.48,-155.5 467.804,-155.5"/>
<polygon fill="midnightblue" stroke="midnightblue" points="442.1,-152 432.1,-155.5 442.1,-159 442.1,-152"/>
</g>
<!-- Node8&#45;&gt;Node4 -->
<g id="edge8" class="edge"><title>Node8&#45;&gt;Node4</title>
<path fill="none" stroke="midnightblue" d="M429.071,-31.6125C446.167,-36.8301 464.753,-42.5024 481.093,-47.4894"/>
<polygon fill="midnightblue" stroke="midnightblue" points="429.791,-28.1731 419.205,-28.6015 427.748,-34.8682 429.791,-28.1731"/>
</g>
</g>
</svg>
