<?xml version="1.0" encoding="UTF-8" standalone="no"?>
<!DOCTYPE svg PUBLIC "-//W3C//DTD SVG 1.1//EN"
 "http://www.w3.org/Graphics/SVG/1.1/DTD/svg11.dtd">
<!-- Generated by graphviz version 2.38.0 (20140413.2041)
 -->
<!-- Title: prior_hessian::ScaledDist::convert_from_unitary_coords Pages: 1 -->
<svg width="306pt" height="84pt"
 viewBox="0.00 0.00 306.00 84.00" xmlns="http://www.w3.org/2000/svg" xmlns:xlink="http://www.w3.org/1999/xlink">
<g id="graph0" class="graph" transform="scale(1 1) rotate(0) translate(4 80)">
<title>prior_hessian::ScaledDist::convert_from_unitary_coords</title>
<polygon fill="white" stroke="none" points="-4,4 -4,-80 302,-80 302,4 -4,4"/>
<!-- Node1 -->
<g id="node1" class="node"><title>Node1</title>
<polygon fill="#bfbfbf" stroke="black" points="0,-23.5 0,-51.5 140,-51.5 140,-23.5 0,-23.5"/>
<text text-anchor="start" x="8" y="-40.3" font-family="Helvetica,sans-Serif" font-size="9.00">prior_hessian::ScaledDist</text>
<text text-anchor="middle" x="70" y="-30.3" font-family="Helvetica,sans-Serif" font-size="9.00">::convert_from_unitary_coords</text>
</g>
<!-- Node2 -->
<g id="node2" class="node"><title>Node2</title>
<g id="a_node2"><a xlink:href="classprior__hessian_1_1ScaledDist.html#a46bce2de3c0e030e9e4542195ecb429f" target="_top" xlink:title="prior_hessian::ScaledDist\l::lbound">
<polygon fill="white" stroke="black" points="176,-47.5 176,-75.5 298,-75.5 298,-47.5 176,-47.5"/>
<text text-anchor="start" x="184" y="-64.3" font-family="Helvetica,sans-Serif" font-size="9.00">prior_hessian::ScaledDist</text>
<text text-anchor="middle" x="237" y="-54.3" font-family="Helvetica,sans-Serif" font-size="9.00">::lbound</text>
</a>
</g>
</g>
<!-- Node1&#45;&gt;Node2 -->
<g id="edge1" class="edge"><title>Node1&#45;&gt;Node2</title>
<path fill="none" stroke="midnightblue" d="M140.019,-47.5391C148.588,-48.7855 157.356,-50.0608 165.94,-51.3095"/>
<polygon fill="midnightblue" stroke="midnightblue" points="165.51,-54.7837 175.91,-52.7596 166.518,-47.8566 165.51,-54.7837"/>
</g>
<!-- Node3 -->
<g id="node3" class="node"><title>Node3</title>
<g id="a_node3"><a xlink:href="classprior__hessian_1_1ScaledDist.html#a364788705694bdd46cd5876e92e1ad87" target="_top" xlink:title="prior_hessian::ScaledDist\l::unscaled_lbound">
<polygon fill="white" stroke="black" points="176,-0.5 176,-28.5 298,-28.5 298,-0.5 176,-0.5"/>
<text text-anchor="start" x="184" y="-17.3" font-family="Helvetica,sans-Serif" font-size="9.00">prior_hessian::ScaledDist</text>
<text text-anchor="middle" x="237" y="-7.3" font-family="Helvetica,sans-Serif" font-size="9.00">::unscaled_lbound</text>
</a>
</g>
</g>
<!-- Node1&#45;&gt;Node3 -->
<g id="edge2" class="edge"><title>Node1&#45;&gt;Node3</title>
<path fill="none" stroke="midnightblue" d="M140.019,-27.8792C148.588,-26.6848 157.356,-25.4625 165.94,-24.2659"/>
<polygon fill="midnightblue" stroke="midnightblue" points="166.489,-27.7234 175.91,-22.8762 165.522,-20.7904 166.489,-27.7234"/>
</g>
</g>
</svg>
