<?xml version="1.0" encoding="UTF-8" standalone="no"?>
<!DOCTYPE svg PUBLIC "-//W3C//DTD SVG 1.1//EN"
 "http://www.w3.org/Graphics/SVG/1.1/DTD/svg11.dtd">
<!-- Generated by graphviz version 2.38.0 (20140413.2041)
 -->
<!-- Title: prior_hessian::ParetoDist::llh Pages: 1 -->
<!--zoomable 655 -->
<svg id="main" version="1.1" xmlns="http://www.w3.org/2000/svg" xmlns:xlink="http://www.w3.org/1999/xlink" xml:space="preserve" onload="init(evt)">
<style type="text/css"><![CDATA[
.edge:hover path { stroke: red; }
.edge:hover polygon { stroke: red; fill: red; }
]]></style>
<script type="text/javascript"><![CDATA[
var edges = document.getElementsByTagName('g');
if (edges && edges.length) {
  for (var i=0;i<edges.length;i++) {
    if (edges[i].id.substr(0,4)=='edge') {
      edges[i].setAttribute('class','edge');
    }
  }
}
]]></script>
        <defs>
                <circle id="rim" cx="0" cy="0" r="7"/>
                <circle id="rim2" cx="0" cy="0" r="3.5"/>
                <g id="zoomPlus">
                        <use xlink:href="#rim" fill="#404040">
                                <set attributeName="fill" to="#808080" begin="zoomplus.mouseover" end="zoomplus.mouseout"/>
                        </use>
                        <path d="M-4,0h8M0,-4v8" fill="none" stroke="white" stroke-width="1.5" pointer-events="none"/>
                </g>
                <g id="zoomMin">
                        <use xlink:href="#rim" fill="#404040">
                                <set attributeName="fill" to="#808080" begin="zoomminus.mouseover" end="zoomminus.mouseout"/>
                        </use>
                        <path d="M-4,0h8" fill="none" stroke="white" stroke-width="1.5" pointer-events="none"/>
                </g>
                <g id="dirArrow">
                        <path fill="none" stroke="white" stroke-width="1.5" d="M0,-3.0v7 M-2.5,-0.5L0,-3.0L2.5,-0.5"/>
                </g>
               <g id="resetDef">
                       <use xlink:href="#rim2" fill="#404040">
                               <set attributeName="fill" to="#808080" begin="reset.mouseover" end="reset.mouseout"/>
                       </use>
               </g>
        </defs>

<script type="text/javascript">
var viewWidth = 803;
var viewHeight = 655;
var sectionId = 'dynsection-26';
</script>
<script xlink:href="svgpan.js"/>
<svg id="graph" class="graph">
<g id="viewport">
<title>prior_hessian::ParetoDist::llh</title>
<polygon fill="white" stroke="none" points="-4,4 -4,-650.956 799,-650.956 799,4 -4,4"/>
<!-- Node1 -->
<g id="node1" class="node"><title>Node1</title>
<polygon fill="#bfbfbf" stroke="black" points="0,-225.456 0,-243.456 134,-243.456 134,-225.456 0,-225.456"/>
<text text-anchor="middle" x="67" y="-232.256" font-family="Helvetica,sans-Serif" font-size="9.00">prior_hessian::ParetoDist::llh</text>
</g>
<!-- Node2 -->
<g id="node2" class="node"><title>Node2</title>
<g id="a_node2"><a xlink:href="classprior__hessian_1_1ParetoDist.html#ac610ecf8ce6df7b8b48c383e89706b80" target="_top" xlink:title="prior_hessian::ParetoDist\l::alpha">
<polygon fill="white" stroke="black" points="509,-205.456 509,-233.456 629,-233.456 629,-205.456 509,-205.456"/>
<text text-anchor="start" x="517" y="-222.256" font-family="Helvetica,sans-Serif" font-size="9.00">prior_hessian::ParetoDist</text>
<text text-anchor="middle" x="569" y="-212.256" font-family="Helvetica,sans-Serif" font-size="9.00">::alpha</text>
</a>
</g>
</g>
<!-- Node1&#45;&gt;Node2 -->
<g id="edge1" class="edge"><title>Node1&#45;&gt;Node2</title>
<path fill="none" stroke="midnightblue" d="M71.644,-225.452C82.6176,-199.392 117.839,-123.053 170,-80.4556 227.915,-33.1595 252.599,-31.7174 326,-17.4556 385.771,-5.8421 410.955,14.1476 463,-17.4556 527.917,-56.8752 554.538,-150.927 563.778,-195.387"/>
<polygon fill="midnightblue" stroke="midnightblue" points="560.366,-196.173 565.721,-205.314 567.235,-194.828 560.366,-196.173"/>
</g>
<!-- Node3 -->
<g id="node3" class="node"><title>Node3</title>
<g id="a_node3"><a xlink:href="classprior__hessian_1_1ParetoDist.html#ad117226a3ad1eee827886fc7ba38acbf" target="_top" xlink:title="prior_hessian::ParetoDist\l::lbound">
<polygon fill="white" stroke="black" points="170,-299.456 170,-327.456 290,-327.456 290,-299.456 170,-299.456"/>
<text text-anchor="start" x="178" y="-316.256" font-family="Helvetica,sans-Serif" font-size="9.00">prior_hessian::ParetoDist</text>
<text text-anchor="middle" x="230" y="-306.256" font-family="Helvetica,sans-Serif" font-size="9.00">::lbound</text>
</a>
</g>
</g>
<!-- Node1&#45;&gt;Node3 -->
<g id="edge2" class="edge"><title>Node1&#45;&gt;Node3</title>
<path fill="none" stroke="midnightblue" d="M97.5299,-243.581C127.019,-256.171 172.011,-278.281 200.963,-294.432"/>
<polygon fill="midnightblue" stroke="midnightblue" points="199.339,-297.535 209.76,-299.447 202.806,-291.454 199.339,-297.535"/>
</g>
<!-- Node16 -->
<g id="node16" class="node"><title>Node16</title>
<g id="a_node16"><a xlink:href="classprior__hessian_1_1ParetoDist.html#a609ed75305325062ebd80dcfaa487c69" target="_top" xlink:title="prior_hessian::ParetoDist\l::rllh">
<polygon fill="white" stroke="black" points="334.5,-27.4556 334.5,-55.4556 454.5,-55.4556 454.5,-27.4556 334.5,-27.4556"/>
<text text-anchor="start" x="342.5" y="-44.2556" font-family="Helvetica,sans-Serif" font-size="9.00">prior_hessian::ParetoDist</text>
<text text-anchor="middle" x="394.5" y="-34.2556" font-family="Helvetica,sans-Serif" font-size="9.00">::rllh</text>
</a>
</g>
</g>
<!-- Node1&#45;&gt;Node16 -->
<g id="edge40" class="edge"><title>Node1&#45;&gt;Node16</title>
<path fill="none" stroke="midnightblue" d="M79.4415,-225.355C114.479,-197.842 224.117,-114.365 326,-64.4556 329.752,-62.6175 333.688,-60.8642 337.695,-59.2055"/>
<polygon fill="midnightblue" stroke="midnightblue" points="339.084,-62.4201 347.117,-55.511 336.529,-55.9032 339.084,-62.4201"/>
</g>
<!-- Node3&#45;&gt;Node1 -->
<g id="edge17" class="edge"><title>Node3&#45;&gt;Node1</title>
<path fill="none" stroke="midnightblue" d="M188.036,-299.322C155.988,-284.977 112.818,-263.35 87.9383,-248.871"/>
<polygon fill="midnightblue" stroke="midnightblue" points="89.4364,-245.687 79.0662,-243.517 85.8196,-251.681 89.4364,-245.687"/>
</g>
<!-- Node4 -->
<g id="node4" class="node"><title>Node4</title>
<g id="a_node4"><a xlink:href="classprior__hessian_1_1ParetoDist.html#afe706cb12ce6f667e7a3a9eb7311ef65" target="_top" xlink:title="prior_hessian::ParetoDist::cdf">
<polygon fill="white" stroke="black" points="326,-74.4556 326,-92.4556 463,-92.4556 463,-74.4556 326,-74.4556"/>
<text text-anchor="middle" x="394.5" y="-81.2556" font-family="Helvetica,sans-Serif" font-size="9.00">prior_hessian::ParetoDist::cdf</text>
</a>
</g>
</g>
<!-- Node3&#45;&gt;Node4 -->
<g id="edge3" class="edge"><title>Node3&#45;&gt;Node4</title>
<path fill="none" stroke="midnightblue" d="M235.215,-299.304C249.663,-257.313 297.499,-136.208 319.454,-101.014"/>
<polygon fill="midnightblue" stroke="midnightblue" points="322.402,-102.917 325.597,-92.8157 316.8,-98.7193 322.402,-102.917"/>
</g>
<!-- Node5 -->
<g id="node5" class="node"><title>Node5</title>
<g id="a_node5"><a xlink:href="classprior__hessian_1_1ParetoDist.html#a0923e8b25145eed6042aa933aa4354e5" target="_top" xlink:title="prior_hessian::ParetoDist\l::check_params_iter">
<polygon fill="white" stroke="black" points="334.5,-571.456 334.5,-599.456 454.5,-599.456 454.5,-571.456 334.5,-571.456"/>
<text text-anchor="start" x="342.5" y="-588.256" font-family="Helvetica,sans-Serif" font-size="9.00">prior_hessian::ParetoDist</text>
<text text-anchor="middle" x="394.5" y="-578.256" font-family="Helvetica,sans-Serif" font-size="9.00">::check_params_iter</text>
</a>
</g>
</g>
<!-- Node3&#45;&gt;Node5 -->
<g id="edge6" class="edge"><title>Node3&#45;&gt;Node5</title>
<path fill="none" stroke="midnightblue" d="M232.261,-327.55C236.76,-369.473 255.734,-494.68 326,-562.456 327.114,-563.53 328.28,-564.554 329.49,-565.531"/>
<polygon fill="midnightblue" stroke="midnightblue" points="327.796,-568.61 338.041,-571.307 331.714,-562.809 327.796,-568.61"/>
</g>
<!-- Node7 -->
<g id="node7" class="node"><title>Node7</title>
<g id="a_node7"><a xlink:href="classprior__hessian_1_1ParetoDist.html#a3f802550dfcad6f0e3a8ca2e93709fe9" target="_top" xlink:title="prior_hessian::ParetoDist\l::grad">
<polygon fill="white" stroke="black" points="334.5,-393.456 334.5,-421.456 454.5,-421.456 454.5,-393.456 334.5,-393.456"/>
<text text-anchor="start" x="342.5" y="-410.256" font-family="Helvetica,sans-Serif" font-size="9.00">prior_hessian::ParetoDist</text>
<text text-anchor="middle" x="394.5" y="-400.256" font-family="Helvetica,sans-Serif" font-size="9.00">::grad</text>
</a>
</g>
</g>
<!-- Node3&#45;&gt;Node7 -->
<g id="edge8" class="edge"><title>Node3&#45;&gt;Node7</title>
<path fill="none" stroke="midnightblue" d="M246.758,-327.702C264.795,-343.396 295.764,-368.517 326,-384.456 329.316,-386.204 332.793,-387.86 336.345,-389.422"/>
<polygon fill="midnightblue" stroke="midnightblue" points="335.286,-392.771 345.865,-393.334 337.946,-386.296 335.286,-392.771"/>
</g>
<!-- Node8 -->
<g id="node8" class="node"><title>Node8</title>
<g id="a_node8"><a xlink:href="classprior__hessian_1_1ParetoDist.html#a24a4aaa7a8edb42009d0fa8390cb4a8f" target="_top" xlink:title="prior_hessian::ParetoDist\l::grad2">
<polygon fill="white" stroke="black" points="334.5,-299.456 334.5,-327.456 454.5,-327.456 454.5,-299.456 334.5,-299.456"/>
<text text-anchor="start" x="342.5" y="-316.256" font-family="Helvetica,sans-Serif" font-size="9.00">prior_hessian::ParetoDist</text>
<text text-anchor="middle" x="394.5" y="-306.256" font-family="Helvetica,sans-Serif" font-size="9.00">::grad2</text>
</a>
</g>
</g>
<!-- Node3&#45;&gt;Node8 -->
<g id="edge10" class="edge"><title>Node3&#45;&gt;Node8</title>
<path fill="none" stroke="midnightblue" d="M290.126,-313.456C301.173,-313.456 312.811,-313.456 324.134,-313.456"/>
<polygon fill="midnightblue" stroke="midnightblue" points="324.418,-316.956 334.418,-313.456 324.418,-309.956 324.418,-316.956"/>
</g>
<!-- Node9 -->
<g id="node9" class="node"><title>Node9</title>
<g id="a_node9"><a xlink:href="classprior__hessian_1_1ParetoDist.html#a20c3f90ec9ac4b5bfd179a7c97ab36e7" target="_top" xlink:title="prior_hessian::ParetoDist\l::grad_grad2_accumulate">
<polygon fill="white" stroke="black" points="333.5,-252.456 333.5,-280.456 455.5,-280.456 455.5,-252.456 333.5,-252.456"/>
<text text-anchor="start" x="341.5" y="-269.256" font-family="Helvetica,sans-Serif" font-size="9.00">prior_hessian::ParetoDist</text>
<text text-anchor="middle" x="394.5" y="-259.256" font-family="Helvetica,sans-Serif" font-size="9.00">::grad_grad2_accumulate</text>
</a>
</g>
</g>
<!-- Node3&#45;&gt;Node9 -->
<g id="edge12" class="edge"><title>Node3&#45;&gt;Node9</title>
<path fill="none" stroke="midnightblue" d="M279.755,-299.354C297.268,-294.289 317.193,-288.526 335.42,-283.254"/>
<polygon fill="midnightblue" stroke="midnightblue" points="336.425,-286.607 345.059,-280.466 334.481,-279.882 336.425,-286.607"/>
</g>
<!-- Node10 -->
<g id="node10" class="node"><title>Node10</title>
<g id="a_node10"><a xlink:href="classprior__hessian_1_1ParetoDist.html#a9d1040a7a5ca261feebe56f42e5698ea" target="_top" xlink:title="prior_hessian::ParetoDist\l::icdf">
<polygon fill="white" stroke="black" points="334.5,-158.456 334.5,-186.456 454.5,-186.456 454.5,-158.456 334.5,-158.456"/>
<text text-anchor="start" x="342.5" y="-175.256" font-family="Helvetica,sans-Serif" font-size="9.00">prior_hessian::ParetoDist</text>
<text text-anchor="middle" x="394.5" y="-165.256" font-family="Helvetica,sans-Serif" font-size="9.00">::icdf</text>
</a>
</g>
</g>
<!-- Node3&#45;&gt;Node10 -->
<g id="edge14" class="edge"><title>Node3&#45;&gt;Node10</title>
<path fill="none" stroke="midnightblue" d="M236.323,-299.134C248.288,-274.074 279.388,-223.719 326.082,-188.252"/>
<polygon fill="midnightblue" stroke="midnightblue" points="328.307,-190.961 334.342,-182.253 324.194,-185.297 328.307,-190.961"/>
</g>
<!-- Node11 -->
<g id="node11" class="node"><title>Node11</title>
<g id="a_node11"><a xlink:href="classprior__hessian_1_1ParetoDist.html#a0a1e20b0aa6c7b52c134fc2341b5fdd4" target="_top" xlink:title="prior_hessian::ParetoDist\l::mean">
<polygon fill="white" stroke="black" points="334.5,-618.456 334.5,-646.456 454.5,-646.456 454.5,-618.456 334.5,-618.456"/>
<text text-anchor="start" x="342.5" y="-635.256" font-family="Helvetica,sans-Serif" font-size="9.00">prior_hessian::ParetoDist</text>
<text text-anchor="middle" x="394.5" y="-625.256" font-family="Helvetica,sans-Serif" font-size="9.00">::mean</text>
</a>
</g>
</g>
<!-- Node3&#45;&gt;Node11 -->
<g id="edge18" class="edge"><title>Node3&#45;&gt;Node11</title>
<path fill="none" stroke="midnightblue" d="M231.437,-327.484C233.656,-373.619 246.954,-519.986 326,-600.456 332.177,-606.744 340.14,-611.314 348.418,-614.828"/>
<polygon fill="midnightblue" stroke="midnightblue" points="347.227,-618.12 357.818,-618.383 349.702,-611.572 347.227,-618.12"/>
</g>
<!-- Node12 -->
<g id="node12" class="node"><title>Node12</title>
<g id="a_node12"><a xlink:href="classprior__hessian_1_1ParetoDist.html#a74af41636088b6c727107c60dd9c81b2" target="_top" xlink:title="prior_hessian::ParetoDist\l::median">
<polygon fill="white" stroke="black" points="334.5,-111.456 334.5,-139.456 454.5,-139.456 454.5,-111.456 334.5,-111.456"/>
<text text-anchor="start" x="342.5" y="-128.256" font-family="Helvetica,sans-Serif" font-size="9.00">prior_hessian::ParetoDist</text>
<text text-anchor="middle" x="394.5" y="-118.256" font-family="Helvetica,sans-Serif" font-size="9.00">::median</text>
</a>
</g>
</g>
<!-- Node3&#45;&gt;Node12 -->
<g id="edge20" class="edge"><title>Node3&#45;&gt;Node12</title>
<path fill="none" stroke="midnightblue" d="M234.084,-299.245C243.265,-265.91 273.123,-184.425 326,-140.456 326.161,-140.321 326.324,-140.188 326.487,-140.055"/>
<polygon fill="midnightblue" stroke="midnightblue" points="328.125,-143.182 334.292,-134.567 324.099,-137.455 328.125,-143.182"/>
</g>
<!-- Node13 -->
<g id="node13" class="node"><title>Node13</title>
<g id="a_node13"><a xlink:href="classprior__hessian_1_1ParetoDist.html#af5791e2cef16b34e1bbdeec24b13d22e" target="_top" xlink:title="prior_hessian::ParetoDist\l::params">
<polygon fill="white" stroke="black" points="334.5,-440.456 334.5,-468.456 454.5,-468.456 454.5,-440.456 334.5,-440.456"/>
<text text-anchor="start" x="342.5" y="-457.256" font-family="Helvetica,sans-Serif" font-size="9.00">prior_hessian::ParetoDist</text>
<text text-anchor="middle" x="394.5" y="-447.256" font-family="Helvetica,sans-Serif" font-size="9.00">::params</text>
</a>
</g>
</g>
<!-- Node3&#45;&gt;Node13 -->
<g id="edge23" class="edge"><title>Node3&#45;&gt;Node13</title>
<path fill="none" stroke="midnightblue" d="M242.457,-327.769C258.095,-351.132 288.509,-396.214 326,-422.456 334.839,-428.642 345.483,-433.282 355.678,-437.067"/>
<polygon fill="midnightblue" stroke="midnightblue" points="354.647,-440.415 365.241,-440.456 356.985,-433.817 354.647,-440.415"/>
</g>
<!-- Node15 -->
<g id="node15" class="node"><title>Node15</title>
<g id="a_node15"><a xlink:href="classprior__hessian_1_1ParetoDist.html#a07cc43c2b299fc07660684f34f32d4ee" target="_top" xlink:title="prior_hessian::ParetoDist::pdf">
<polygon fill="white" stroke="black" points="326,-487.456 326,-505.456 463,-505.456 463,-487.456 326,-487.456"/>
<text text-anchor="middle" x="394.5" y="-494.256" font-family="Helvetica,sans-Serif" font-size="9.00">prior_hessian::ParetoDist::pdf</text>
</a>
</g>
</g>
<!-- Node3&#45;&gt;Node15 -->
<g id="edge27" class="edge"><title>Node3&#45;&gt;Node15</title>
<path fill="none" stroke="midnightblue" d="M236.752,-327.758C247.979,-358.853 276.174,-431.223 326,-469.456 336.374,-477.416 349.982,-481.864 362.26,-485.018"/>
<polygon fill="midnightblue" stroke="midnightblue" points="361.618,-488.464 372.161,-487.412 363.263,-481.66 361.618,-488.464"/>
</g>
<!-- Node3&#45;&gt;Node16 -->
<g id="edge29" class="edge"><title>Node3&#45;&gt;Node16</title>
<path fill="none" stroke="midnightblue" d="M237.141,-299.258C248.187,-273.552 271.937,-217.505 290,-169.456 307.359,-123.277 291.083,-99.3065 326,-64.4556 327.095,-63.3624 328.245,-62.3211 329.44,-61.3292"/>
<polygon fill="midnightblue" stroke="midnightblue" points="331.676,-64.0384 337.915,-55.4749 327.698,-58.2789 331.676,-64.0384"/>
</g>
<!-- Node17 -->
<g id="node17" class="node"><title>Node17</title>
<g id="a_node17"><a xlink:href="classprior__hessian_1_1ParetoDist.html#abe706f0786b5e8ef20b7caff07ffad0c" target="_top" xlink:title="prior_hessian::ParetoDist\l::sample">
<polygon fill="white" stroke="black" points="334.5,-346.456 334.5,-374.456 454.5,-374.456 454.5,-346.456 334.5,-346.456"/>
<text text-anchor="start" x="342.5" y="-363.256" font-family="Helvetica,sans-Serif" font-size="9.00">prior_hessian::ParetoDist</text>
<text text-anchor="middle" x="394.5" y="-353.256" font-family="Helvetica,sans-Serif" font-size="9.00">::sample</text>
</a>
</g>
</g>
<!-- Node3&#45;&gt;Node17 -->
<g id="edge31" class="edge"><title>Node3&#45;&gt;Node17</title>
<path fill="none" stroke="midnightblue" d="M290.126,-324.034C311.3,-329.713 334.644,-336.673 353.782,-343.073"/>
<polygon fill="midnightblue" stroke="midnightblue" points="352.779,-346.428 363.374,-346.358 355.048,-339.806 352.779,-346.428"/>
</g>
<!-- Node18 -->
<g id="node18" class="node"><title>Node18</title>
<g id="a_node18"><a xlink:href="classprior__hessian_1_1ParetoDist.html#ac755ccef13fd2552861c27bf6c1cc29d" target="_top" xlink:title="prior_hessian::ParetoDist\l::set_lbound">
<polygon fill="white" stroke="black" points="334.5,-205.456 334.5,-233.456 454.5,-233.456 454.5,-205.456 334.5,-205.456"/>
<text text-anchor="start" x="342.5" y="-222.256" font-family="Helvetica,sans-Serif" font-size="9.00">prior_hessian::ParetoDist</text>
<text text-anchor="middle" x="394.5" y="-212.256" font-family="Helvetica,sans-Serif" font-size="9.00">::set_lbound</text>
</a>
</g>
</g>
<!-- Node3&#45;&gt;Node18 -->
<g id="edge33" class="edge"><title>Node3&#45;&gt;Node18</title>
<path fill="none" stroke="midnightblue" d="M247.162,-299.22C265.312,-283.81 296.148,-259.314 326,-243.456 330.001,-241.33 334.229,-239.324 338.54,-237.446"/>
<polygon fill="midnightblue" stroke="midnightblue" points="340.129,-240.577 348.051,-233.542 337.471,-234.101 340.129,-240.577"/>
</g>
<!-- Node19 -->
<g id="node19" class="node"><title>Node19</title>
<g id="a_node19"><a xlink:href="classprior__hessian_1_1ParetoDist.html#abc9e60af487bda1a9ec5f7e55e38682c" target="_top" xlink:title="prior_hessian::ParetoDist\l::set_params_iter">
<polygon fill="white" stroke="black" points="334.5,-524.456 334.5,-552.456 454.5,-552.456 454.5,-524.456 334.5,-524.456"/>
<text text-anchor="start" x="342.5" y="-541.256" font-family="Helvetica,sans-Serif" font-size="9.00">prior_hessian::ParetoDist</text>
<text text-anchor="middle" x="394.5" y="-531.256" font-family="Helvetica,sans-Serif" font-size="9.00">::set_params_iter</text>
</a>
</g>
</g>
<!-- Node3&#45;&gt;Node19 -->
<g id="edge34" class="edge"><title>Node3&#45;&gt;Node19</title>
<path fill="none" stroke="midnightblue" d="M233.647,-327.471C241.243,-363.865 266.499,-462.229 326,-515.456 327.332,-516.647 328.729,-517.778 330.178,-518.85"/>
<polygon fill="midnightblue" stroke="midnightblue" points="328.649,-522.023 338.979,-524.377 332.372,-516.095 328.649,-522.023"/>
</g>
<!-- Node4&#45;&gt;Node2 -->
<g id="edge4" class="edge"><title>Node4&#45;&gt;Node2</title>
<path fill="none" stroke="midnightblue" d="M443.427,-92.4813C450.271,-94.8245 457.011,-97.7662 463,-101.456 502.682,-125.901 535.955,-169.899 553.838,-196.712"/>
<polygon fill="midnightblue" stroke="midnightblue" points="551.118,-198.949 559.507,-205.419 556.984,-195.129 551.118,-198.949"/>
</g>
<!-- Node4&#45;&gt;Node3 -->
<g id="edge5" class="edge"><title>Node4&#45;&gt;Node3</title>
<path fill="none" stroke="midnightblue" d="M369.913,-92.4974C355.757,-95.6189 338.192,-100.08 326,-110.456 311.062,-123.167 263.971,-238.975 242.217,-289.907"/>
<polygon fill="midnightblue" stroke="midnightblue" points="238.965,-288.61 238.222,-299.179 245.394,-291.38 238.965,-288.61"/>
</g>
<!-- Node6 -->
<g id="node6" class="node"><title>Node6</title>
<g id="a_node6"><a xlink:href="classprior__hessian_1_1ParetoDist.html#abac82051de116baf787e442c705e96c3" target="_top" xlink:title="prior_hessian::ParetoDist\l::check_params">
<polygon fill="white" stroke="black" points="509,-571.456 509,-599.456 629,-599.456 629,-571.456 509,-571.456"/>
<text text-anchor="start" x="517" y="-588.256" font-family="Helvetica,sans-Serif" font-size="9.00">prior_hessian::ParetoDist</text>
<text text-anchor="middle" x="569" y="-578.256" font-family="Helvetica,sans-Serif" font-size="9.00">::check_params</text>
</a>
</g>
</g>
<!-- Node5&#45;&gt;Node6 -->
<g id="edge7" class="edge"><title>Node5&#45;&gt;Node6</title>
<path fill="none" stroke="midnightblue" d="M454.865,-585.456C468.902,-585.456 483.996,-585.456 498.44,-585.456"/>
<polygon fill="midnightblue" stroke="midnightblue" points="498.818,-588.956 508.818,-585.456 498.818,-581.956 498.818,-588.956"/>
</g>
<!-- Node7&#45;&gt;Node2 -->
<g id="edge9" class="edge"><title>Node7&#45;&gt;Node2</title>
<path fill="none" stroke="midnightblue" d="M448.55,-393.355C453.694,-390.842 458.62,-387.899 463,-384.456 511.59,-346.257 544.168,-278.956 558.937,-243.254"/>
<polygon fill="midnightblue" stroke="midnightblue" points="562.31,-244.247 562.789,-233.663 555.814,-241.638 562.31,-244.247"/>
</g>
<!-- Node8&#45;&gt;Node2 -->
<g id="edge11" class="edge"><title>Node8&#45;&gt;Node2</title>
<path fill="none" stroke="midnightblue" d="M442.278,-299.336C449.349,-296.683 456.46,-293.708 463,-290.456 491.619,-276.223 521.564,-255.285 542.118,-239.832"/>
<polygon fill="midnightblue" stroke="midnightblue" points="544.488,-242.426 550.32,-233.58 540.245,-236.858 544.488,-242.426"/>
</g>
<!-- Node9&#45;&gt;Node2 -->
<g id="edge13" class="edge"><title>Node9&#45;&gt;Node2</title>
<path fill="none" stroke="midnightblue" d="M447.256,-252.354C466.018,-247.242 487.387,-241.42 506.881,-236.108"/>
<polygon fill="midnightblue" stroke="midnightblue" points="507.85,-239.472 516.578,-233.466 506.01,-232.718 507.85,-239.472"/>
</g>
<!-- Node10&#45;&gt;Node2 -->
<g id="edge15" class="edge"><title>Node10&#45;&gt;Node2</title>
<path fill="none" stroke="midnightblue" d="M447.256,-186.557C466.018,-191.669 487.387,-197.492 506.881,-202.803"/>
<polygon fill="midnightblue" stroke="midnightblue" points="506.01,-206.193 516.578,-205.445 507.85,-199.439 506.01,-206.193"/>
</g>
<!-- Node10&#45;&gt;Node3 -->
<g id="edge16" class="edge"><title>Node10&#45;&gt;Node3</title>
<path fill="none" stroke="midnightblue" d="M366.581,-186.476C353.522,-191.127 338.087,-196.914 326,-205.456 292.886,-228.857 265.051,-266.8 248.238,-291.108"/>
<polygon fill="midnightblue" stroke="midnightblue" points="245.324,-289.169 242.553,-299.395 251.096,-293.129 245.324,-289.169"/>
</g>
<!-- Node11&#45;&gt;Node3 -->
<g id="edge19" class="edge"><title>Node11&#45;&gt;Node3</title>
<path fill="none" stroke="midnightblue" d="M334.337,-625.303C331.328,-623.293 328.516,-621.017 326,-618.456 247.994,-539.045 234.017,-395.459 231.531,-337.944"/>
<polygon fill="midnightblue" stroke="midnightblue" points="235.018,-337.505 231.171,-327.633 228.022,-337.749 235.018,-337.505"/>
</g>
<!-- Node12&#45;&gt;Node2 -->
<g id="edge22" class="edge"><title>Node12&#45;&gt;Node2</title>
<path fill="none" stroke="midnightblue" d="M440.087,-139.548C447.865,-142.501 455.773,-145.832 463,-149.456 491.275,-163.634 521.054,-184.084 541.647,-199.222"/>
<polygon fill="midnightblue" stroke="midnightblue" points="539.768,-202.187 549.879,-205.351 543.948,-196.572 539.768,-202.187"/>
</g>
<!-- Node12&#45;&gt;Node3 -->
<g id="edge21" class="edge"><title>Node12&#45;&gt;Node3</title>
<path fill="none" stroke="midnightblue" d="M363.622,-139.486C350.969,-143.842 336.711,-149.549 326,-158.456 282.666,-194.49 254.792,-255.72 241.089,-289.605"/>
<polygon fill="midnightblue" stroke="midnightblue" points="237.723,-288.598 237.29,-299.184 244.23,-291.179 237.723,-288.598"/>
</g>
<!-- Node13&#45;&gt;Node2 -->
<g id="edge25" class="edge"><title>Node13&#45;&gt;Node2</title>
<path fill="none" stroke="midnightblue" d="M449.948,-440.295C454.646,-437.805 459.09,-434.883 463,-431.456 522.067,-379.685 551.479,-286.961 562.58,-243.357"/>
<polygon fill="midnightblue" stroke="midnightblue" points="565.985,-244.169 564.959,-233.624 559.185,-242.507 565.985,-244.169"/>
</g>
<!-- Node13&#45;&gt;Node3 -->
<g id="edge24" class="edge"><title>Node13&#45;&gt;Node3</title>
<path fill="none" stroke="midnightblue" d="M334.333,-445.579C331.435,-444.01 328.637,-442.301 326,-440.456 287.066,-413.205 255.764,-365.634 240.718,-336.841"/>
<polygon fill="midnightblue" stroke="midnightblue" points="243.666,-334.908 236.088,-327.504 237.395,-338.018 243.666,-334.908"/>
</g>
<!-- Node14 -->
<g id="node14" class="node"><title>Node14</title>
<g id="a_node14"><a xlink:href="classprior__hessian_1_1ParetoDist.html#a218ebbdec10fbdfcaabdd79dd180b39e" target="_top" xlink:title="prior_hessian::ParetoDist\l::set_params">
<polygon fill="white" stroke="black" points="509,-461.456 509,-489.456 629,-489.456 629,-461.456 509,-461.456"/>
<text text-anchor="start" x="517" y="-478.256" font-family="Helvetica,sans-Serif" font-size="9.00">prior_hessian::ParetoDist</text>
<text text-anchor="middle" x="569" y="-468.256" font-family="Helvetica,sans-Serif" font-size="9.00">::set_params</text>
</a>
</g>
</g>
<!-- Node13&#45;&gt;Node14 -->
<g id="edge26" class="edge"><title>Node13&#45;&gt;Node14</title>
<path fill="none" stroke="midnightblue" d="M454.865,-461.683C469.039,-463.408 484.289,-465.265 498.86,-467.039"/>
<polygon fill="midnightblue" stroke="midnightblue" points="498.468,-470.517 508.818,-468.251 499.314,-463.568 498.468,-470.517"/>
</g>
<!-- Node15&#45;&gt;Node3 -->
<g id="edge28" class="edge"><title>Node15&#45;&gt;Node3</title>
<path fill="none" stroke="midnightblue" d="M325.678,-487.208C275.532,-448.509 247.367,-375.253 236.405,-337.203"/>
<polygon fill="midnightblue" stroke="midnightblue" points="239.759,-336.199 233.765,-327.462 233.003,-338.03 239.759,-336.199"/>
</g>
<!-- Node16&#45;&gt;Node2 -->
<g id="edge30" class="edge"><title>Node16&#45;&gt;Node2</title>
<path fill="none" stroke="midnightblue" d="M448.106,-55.5197C453.393,-58.0445 458.473,-61.0005 463,-64.4556 509.363,-99.8394 542.318,-161.772 557.883,-195.651"/>
<polygon fill="midnightblue" stroke="midnightblue" points="554.877,-197.502 562.151,-205.205 561.268,-194.647 554.877,-197.502"/>
</g>
<!-- Node17&#45;&gt;Node3 -->
<g id="edge32" class="edge"><title>Node17&#45;&gt;Node3</title>
<path fill="none" stroke="midnightblue" d="M334.184,-349.826C313.071,-344.16 289.822,-337.226 270.746,-330.848"/>
<polygon fill="midnightblue" stroke="midnightblue" points="271.779,-327.502 261.184,-327.574 269.511,-334.125 271.779,-327.502"/>
</g>
<!-- Node19&#45;&gt;Node2 -->
<g id="edge38" class="edge"><title>Node19&#45;&gt;Node2</title>
<path fill="none" stroke="midnightblue" d="M451.046,-524.397C455.406,-521.889 459.477,-518.935 463,-515.456 503.158,-475.796 547.033,-306.705 562.351,-243.457"/>
<polygon fill="midnightblue" stroke="midnightblue" points="565.789,-244.129 564.716,-233.589 558.981,-242.497 565.789,-244.129"/>
</g>
<!-- Node19&#45;&gt;Node14 -->
<g id="edge39" class="edge"><title>Node19&#45;&gt;Node14</title>
<path fill="none" stroke="midnightblue" d="M437.349,-524.455C445.857,-521.536 454.731,-518.438 463,-515.456 482.689,-508.354 504.318,-500.178 522.803,-493.077"/>
<polygon fill="midnightblue" stroke="midnightblue" points="524.084,-496.334 532.156,-489.472 521.567,-489.802 524.084,-496.334"/>
</g>
<!-- Node20 -->
<g id="node20" class="node"><title>Node20</title>
<g id="a_node20"><a xlink:href="classprior__hessian_1_1ParetoDist.html#acef10b17c003468838f548ed255d7e1f" target="_top" xlink:title="prior_hessian::ParetoDist::min">
<polygon fill="white" stroke="black" points="499,-529.456 499,-547.456 639,-547.456 639,-529.456 499,-529.456"/>
<text text-anchor="middle" x="569" y="-536.256" font-family="Helvetica,sans-Serif" font-size="9.00">prior_hessian::ParetoDist::min</text>
</a>
</g>
</g>
<!-- Node19&#45;&gt;Node20 -->
<g id="edge35" class="edge"><title>Node19&#45;&gt;Node20</title>
<path fill="none" stroke="midnightblue" d="M454.865,-538.456C465.684,-538.456 477.13,-538.456 488.423,-538.456"/>
<polygon fill="midnightblue" stroke="midnightblue" points="488.729,-541.956 498.729,-538.456 488.729,-534.956 488.729,-541.956"/>
</g>
<!-- Node21 -->
<g id="node21" class="node"><title>Node21</title>
<g id="a_node21"><a xlink:href="classprior__hessian_1_1ParetoDist.html#ace279cdfa7dbdcd8805ddb2ec4b46ee2" target="_top" xlink:title="prior_hessian::ParetoDist\l::set_min">
<polygon fill="white" stroke="black" points="675,-548.456 675,-576.456 795,-576.456 795,-548.456 675,-548.456"/>
<text text-anchor="start" x="683" y="-565.256" font-family="Helvetica,sans-Serif" font-size="9.00">prior_hessian::ParetoDist</text>
<text text-anchor="middle" x="735" y="-555.256" font-family="Helvetica,sans-Serif" font-size="9.00">::set_min</text>
</a>
</g>
</g>
<!-- Node20&#45;&gt;Node21 -->
<g id="edge36" class="edge"><title>Node20&#45;&gt;Node21</title>
<path fill="none" stroke="midnightblue" d="M631.534,-547.461C642.39,-549.049 653.757,-550.713 664.806,-552.33"/>
<polygon fill="midnightblue" stroke="midnightblue" points="664.438,-555.813 674.839,-553.798 665.452,-548.887 664.438,-555.813"/>
</g>
<!-- Node22 -->
<g id="node22" class="node"><title>Node22</title>
<g id="a_node22"><a xlink:href="classprior__hessian_1_1ParetoDist.html#a5c2b026477495e3fc91a1cfb653d8a97" target="_top" xlink:title="prior_hessian::ParetoDist\l::set_alpha">
<polygon fill="white" stroke="black" points="675,-501.456 675,-529.456 795,-529.456 795,-501.456 675,-501.456"/>
<text text-anchor="start" x="683" y="-518.256" font-family="Helvetica,sans-Serif" font-size="9.00">prior_hessian::ParetoDist</text>
<text text-anchor="middle" x="735" y="-508.256" font-family="Helvetica,sans-Serif" font-size="9.00">::set_alpha</text>
</a>
</g>
</g>
<!-- Node20&#45;&gt;Node22 -->
<g id="edge37" class="edge"><title>Node20&#45;&gt;Node22</title>
<path fill="none" stroke="midnightblue" d="M634.346,-529.431C644.375,-528.025 654.773,-526.567 664.901,-525.146"/>
<polygon fill="midnightblue" stroke="midnightblue" points="665.499,-528.597 674.916,-523.742 664.527,-521.665 665.499,-528.597"/>
</g>
</g>
</svg>
        <g id="navigator" transform="translate(0 0)" fill="#404254">
                <rect fill="#f2f5e9" fill-opacity="0.5" stroke="#606060" stroke-width=".5" x="0" y="0" width="60" height="60"/>
                <use id="zoomplus" xlink:href="#zoomPlus" x="17" y="9" onmousedown="handleZoom(evt,'in')"/>
                <use id="zoomminus" xlink:href="#zoomMin" x="42" y="9" onmousedown="handleZoom(evt,'out')"/>
                <use id="reset" xlink:href="#resetDef" x="30" y="36" onmousedown="handleReset()"/>
                <g id="arrowUp" xlink:href="#dirArrow" transform="translate(30 24)" onmousedown="handlePan(0,-1)">
                  <use xlink:href="#rim" fill="#404040">
                        <set attributeName="fill" to="#808080" begin="arrowUp.mouseover" end="arrowUp.mouseout"/>
                  </use>
                  <path fill="none" stroke="white" stroke-width="1.5" d="M0,-3.0v7 M-2.5,-0.5L0,-3.0L2.5,-0.5"/>
                </g>
                <g id="arrowRight" xlink:href="#dirArrow" transform="rotate(90) translate(36 -43)" onmousedown="handlePan(1,0)">
                  <use xlink:href="#rim" fill="#404040">
                        <set attributeName="fill" to="#808080" begin="arrowRight.mouseover" end="arrowRight.mouseout"/>
                  </use>
                  <path fill="none" stroke="white" stroke-width="1.5" d="M0,-3.0v7 M-2.5,-0.5L0,-3.0L2.5,-0.5"/>
                </g>
                <g id="arrowDown" xlink:href="#dirArrow" transform="rotate(180) translate(-30 -48)" onmousedown="handlePan(0,1)">
                  <use xlink:href="#rim" fill="#404040">
                        <set attributeName="fill" to="#808080" begin="arrowDown.mouseover" end="arrowDown.mouseout"/>
                  </use>
                  <path fill="none" stroke="white" stroke-width="1.5" d="M0,-3.0v7 M-2.5,-0.5L0,-3.0L2.5,-0.5"/>
                </g>
                <g id="arrowLeft" xlink:href="#dirArrow" transform="rotate(270) translate(-36 17)" onmousedown="handlePan(-1,0)">
                  <use xlink:href="#rim" fill="#404040">
                        <set attributeName="fill" to="#808080" begin="arrowLeft.mouseover" end="arrowLeft.mouseout"/>
                  </use>
                  <path fill="none" stroke="white" stroke-width="1.5" d="M0,-3.0v7 M-2.5,-0.5L0,-3.0L2.5,-0.5"/>
                </g>
        </g>
        <svg viewBox="0 0 15 15" width="100%" height="30px" preserveAspectRatio="xMaxYMin meet">
         <g id="arrow_out" transform="scale(0.3 0.3)">
          <a xlink:href="classprior__hessian_1_1ParetoDist_a0f7ee813a098cd3fc9c7669cda6a340c_cgraph_org.svg" target="_base">
           <rect id="button" ry="5" rx="5" y="6" x="6" height="38" width="38"
                fill="#f2f5e9" fill-opacity="0.5" stroke="#606060" stroke-width="1.0"/>
           <path id="arrow"
             d="M 11.500037,31.436501 C 11.940474,20.09759 22.043105,11.32322 32.158766,21.979434 L 37.068811,17.246167 C 37.068811,17.246167 37.088388,32 37.088388,32 L 22.160133,31.978069 C 22.160133,31.978069 26.997745,27.140456 26.997745,27.140456 C 18.528582,18.264221 13.291696,25.230495 11.500037,31.436501 z"
             style="fill:#404040;"/>
          </a>
         </g>
        </svg>
</svg>
