<?xml version="1.0" encoding="UTF-8" standalone="no"?>
<!DOCTYPE svg PUBLIC "-//W3C//DTD SVG 1.1//EN"
 "http://www.w3.org/Graphics/SVG/1.1/DTD/svg11.dtd">
<!-- Generated by graphviz version 2.38.0 (20140413.2041)
 -->
<!-- Title: prior_hessian::GammaDist::set_shape Pages: 1 -->
<svg width="631pt" height="215pt"
 viewBox="0.00 0.00 631.00 215.00" xmlns="http://www.w3.org/2000/svg" xmlns:xlink="http://www.w3.org/1999/xlink">
<g id="graph0" class="graph" transform="scale(1 1) rotate(0) translate(4 211)">
<title>prior_hessian::GammaDist::set_shape</title>
<polygon fill="white" stroke="none" points="-4,4 -4,-211 627,-211 627,4 -4,4"/>
<!-- Node1 -->
<g id="node1" class="node"><title>Node1</title>
<polygon fill="#bfbfbf" stroke="black" points="0,-126.5 0,-154.5 125,-154.5 125,-126.5 0,-126.5"/>
<text text-anchor="start" x="8" y="-143.3" font-family="Helvetica,sans-Serif" font-size="9.00">prior_hessian::GammaDist</text>
<text text-anchor="middle" x="62.5" y="-133.3" font-family="Helvetica,sans-Serif" font-size="9.00">::set_shape</text>
</g>
<!-- Node2 -->
<g id="node2" class="node"><title>Node2</title>
<g id="a_node2"><a xlink:href="classprior__hessian_1_1GammaDist.html#ae251e9c7554efbd780205a142750b604" target="_top" xlink:title="prior_hessian::GammaDist\l::set_param">
<polygon fill="white" stroke="black" points="161,-159.5 161,-187.5 286,-187.5 286,-159.5 161,-159.5"/>
<text text-anchor="start" x="169" y="-176.3" font-family="Helvetica,sans-Serif" font-size="9.00">prior_hessian::GammaDist</text>
<text text-anchor="middle" x="223.5" y="-166.3" font-family="Helvetica,sans-Serif" font-size="9.00">::set_param</text>
</a>
</g>
</g>
<!-- Node1&#45;&gt;Node2 -->
<g id="edge1" class="edge"><title>Node1&#45;&gt;Node2</title>
<path fill="none" stroke="midnightblue" d="M135.315,-155.405C143.803,-157.167 152.408,-158.953 160.74,-160.682"/>
<polygon fill="midnightblue" stroke="midnightblue" points="135.931,-151.958 125.429,-153.353 134.509,-158.812 135.931,-151.958"/>
</g>
<!-- Node4 -->
<g id="node4" class="node"><title>Node4</title>
<g id="a_node4"><a xlink:href="classprior__hessian_1_1GammaDist.html#a2c8b6939f7920e2e81532b5c1970567a" target="_top" xlink:title="prior_hessian::GammaDist\l::shape">
<polygon fill="white" stroke="black" points="161,-94.5 161,-122.5 286,-122.5 286,-94.5 161,-94.5"/>
<text text-anchor="start" x="169" y="-111.3" font-family="Helvetica,sans-Serif" font-size="9.00">prior_hessian::GammaDist</text>
<text text-anchor="middle" x="223.5" y="-101.3" font-family="Helvetica,sans-Serif" font-size="9.00">::shape</text>
</a>
</g>
</g>
<!-- Node1&#45;&gt;Node4 -->
<g id="edge3" class="edge"><title>Node1&#45;&gt;Node4</title>
<path fill="none" stroke="midnightblue" d="M135.315,-126.047C143.803,-124.338 152.408,-122.606 160.74,-120.93"/>
<polygon fill="midnightblue" stroke="midnightblue" points="134.542,-122.632 125.429,-128.036 135.923,-129.494 134.542,-122.632"/>
</g>
<!-- Node3 -->
<g id="node3" class="node"><title>Node3</title>
<g id="a_node3"><a xlink:href="classprior__hessian_1_1GammaDist.html#a3620d9650205c489c2581565eb791ac8" target="_top" xlink:title="prior_hessian::GammaDist\l::GammaDist">
<polygon fill="white" stroke="black" points="329.5,-178.5 329.5,-206.5 454.5,-206.5 454.5,-178.5 329.5,-178.5"/>
<text text-anchor="start" x="337.5" y="-195.3" font-family="Helvetica,sans-Serif" font-size="9.00">prior_hessian::GammaDist</text>
<text text-anchor="middle" x="392" y="-185.3" font-family="Helvetica,sans-Serif" font-size="9.00">::GammaDist</text>
</a>
</g>
</g>
<!-- Node2&#45;&gt;Node3 -->
<g id="edge2" class="edge"><title>Node2&#45;&gt;Node3</title>
<path fill="none" stroke="midnightblue" d="M296.117,-181.672C307.216,-182.939 318.597,-184.238 329.45,-185.476"/>
<polygon fill="midnightblue" stroke="midnightblue" points="296.358,-178.177 286.025,-180.521 295.564,-185.132 296.358,-178.177"/>
</g>
<!-- Node5 -->
<g id="node5" class="node"><title>Node5</title>
<g id="a_node5"><a xlink:href="classprior__hessian_1_1GammaDist.html#ac823fcaa609dab7cb782ec63626b1529" target="_top" xlink:title="prior_hessian::GammaDist::llh">
<polygon fill="white" stroke="black" points="322,-141.5 322,-159.5 462,-159.5 462,-141.5 322,-141.5"/>
<text text-anchor="middle" x="392" y="-148.3" font-family="Helvetica,sans-Serif" font-size="9.00">prior_hessian::GammaDist::llh</text>
</a>
</g>
</g>
<!-- Node4&#45;&gt;Node5 -->
<g id="edge4" class="edge"><title>Node4&#45;&gt;Node5</title>
<path fill="none" stroke="midnightblue" d="M290.397,-125.123C312.454,-130.687 336.213,-136.68 355.1,-141.444"/>
<polygon fill="midnightblue" stroke="midnightblue" points="290.958,-121.655 280.405,-122.602 289.245,-128.442 290.958,-121.655"/>
</g>
<!-- Node7 -->
<g id="node7" class="node"><title>Node7</title>
<g id="a_node7"><a xlink:href="classprior__hessian_1_1GammaDist.html#a16b8a273203969808d0004b051b484a5" target="_top" xlink:title="prior_hessian::GammaDist\l::param_ubound">
<polygon fill="white" stroke="black" points="329.5,-94.5 329.5,-122.5 454.5,-122.5 454.5,-94.5 329.5,-94.5"/>
<text text-anchor="start" x="337.5" y="-111.3" font-family="Helvetica,sans-Serif" font-size="9.00">prior_hessian::GammaDist</text>
<text text-anchor="middle" x="392" y="-101.3" font-family="Helvetica,sans-Serif" font-size="9.00">::param_ubound</text>
</a>
</g>
</g>
<!-- Node4&#45;&gt;Node7 -->
<g id="edge6" class="edge"><title>Node4&#45;&gt;Node7</title>
<path fill="none" stroke="midnightblue" d="M296.117,-108.5C307.216,-108.5 318.597,-108.5 329.45,-108.5"/>
<polygon fill="midnightblue" stroke="midnightblue" points="296.025,-105 286.025,-108.5 296.025,-112 296.025,-105"/>
</g>
<!-- Node8 -->
<g id="node8" class="node"><title>Node8</title>
<g id="a_node8"><a xlink:href="classprior__hessian_1_1GammaDist.html#a9000e6fd6599a8c687ebd2c670a2cfde" target="_top" xlink:title="prior_hessian::GammaDist\l::check_params_iter">
<polygon fill="white" stroke="black" points="329.5,-47.5 329.5,-75.5 454.5,-75.5 454.5,-47.5 329.5,-47.5"/>
<text text-anchor="start" x="337.5" y="-64.3" font-family="Helvetica,sans-Serif" font-size="9.00">prior_hessian::GammaDist</text>
<text text-anchor="middle" x="392" y="-54.3" font-family="Helvetica,sans-Serif" font-size="9.00">::check_params_iter</text>
</a>
</g>
</g>
<!-- Node4&#45;&gt;Node8 -->
<g id="edge7" class="edge"><title>Node4&#45;&gt;Node8</title>
<path fill="none" stroke="midnightblue" d="M284.087,-91.6796C302.854,-86.3821 323.37,-80.5908 341.367,-75.5106"/>
<polygon fill="midnightblue" stroke="midnightblue" points="283.129,-88.3133 274.455,-94.3985 285.03,-95.0501 283.129,-88.3133"/>
</g>
<!-- Node9 -->
<g id="node9" class="node"><title>Node9</title>
<g id="a_node9"><a xlink:href="classprior__hessian_1_1GammaDist.html#ace2701b4efc741de9c4ecf71f513b844" target="_top" xlink:title="prior_hessian::GammaDist\l::set_params_iter">
<polygon fill="white" stroke="black" points="329.5,-0.5 329.5,-28.5 454.5,-28.5 454.5,-0.5 329.5,-0.5"/>
<text text-anchor="start" x="337.5" y="-17.3" font-family="Helvetica,sans-Serif" font-size="9.00">prior_hessian::GammaDist</text>
<text text-anchor="middle" x="392" y="-7.3" font-family="Helvetica,sans-Serif" font-size="9.00">::set_params_iter</text>
</a>
</g>
</g>
<!-- Node4&#45;&gt;Node9 -->
<g id="edge9" class="edge"><title>Node4&#45;&gt;Node9</title>
<path fill="none" stroke="midnightblue" d="M248.97,-87.8796C267.949,-72.6662 295.416,-52.296 322,-38.5 329.092,-34.8194 336.872,-31.4969 344.573,-28.579"/>
<polygon fill="midnightblue" stroke="midnightblue" points="246.68,-85.2305 241.133,-94.2567 251.098,-90.6602 246.68,-85.2305"/>
</g>
<!-- Node6 -->
<g id="node6" class="node"><title>Node6</title>
<g id="a_node6"><a xlink:href="classprior__hessian_1_1GammaDist.html#a555e2d86894155eb89f59fd1acf727e2" target="_top" xlink:title="prior_hessian::GammaDist\l::median">
<polygon fill="white" stroke="black" points="498,-47.5 498,-75.5 623,-75.5 623,-47.5 498,-47.5"/>
<text text-anchor="start" x="506" y="-64.3" font-family="Helvetica,sans-Serif" font-size="9.00">prior_hessian::GammaDist</text>
<text text-anchor="middle" x="560.5" y="-54.3" font-family="Helvetica,sans-Serif" font-size="9.00">::median</text>
</a>
</g>
</g>
<!-- Node5&#45;&gt;Node6 -->
<g id="edge5" class="edge"><title>Node5&#45;&gt;Node6</title>
<path fill="none" stroke="midnightblue" d="M447.391,-138.389C452.42,-136.652 457.364,-134.696 462,-132.5 493.793,-117.443 525.848,-91.5712 544.128,-75.5635"/>
<polygon fill="midnightblue" stroke="midnightblue" points="446.15,-135.111 437.671,-141.465 448.261,-141.785 446.15,-135.111"/>
</g>
<!-- Node8&#45;&gt;Node6 -->
<g id="edge8" class="edge"><title>Node8&#45;&gt;Node6</title>
<path fill="none" stroke="midnightblue" d="M464.617,-61.5C475.716,-61.5 487.097,-61.5 497.95,-61.5"/>
<polygon fill="midnightblue" stroke="midnightblue" points="464.525,-58.0001 454.525,-61.5 464.525,-65.0001 464.525,-58.0001"/>
</g>
<!-- Node9&#45;&gt;Node6 -->
<g id="edge10" class="edge"><title>Node9&#45;&gt;Node6</title>
<path fill="none" stroke="midnightblue" d="M452.587,-31.3204C471.354,-36.6179 491.87,-42.4092 509.867,-47.4894"/>
<polygon fill="midnightblue" stroke="midnightblue" points="453.53,-27.9499 442.955,-28.6015 451.629,-34.6867 453.53,-27.9499"/>
</g>
</g>
</svg>
