<?xml version="1.0" encoding="UTF-8" standalone="no"?>
<!DOCTYPE svg PUBLIC "-//W3C//DTD SVG 1.1//EN"
 "http://www.w3.org/Graphics/SVG/1.1/DTD/svg11.dtd">
<!-- Generated by graphviz version 2.38.0 (20140413.2041)
 -->
<!-- Title: prior_hessian::MultivariateNormalDist::sigma_inv Pages: 1 -->
<!--zoomable 328 -->
<svg id="main" version="1.1" xmlns="http://www.w3.org/2000/svg" xmlns:xlink="http://www.w3.org/1999/xlink" xml:space="preserve" onload="init(evt)">
<style type="text/css"><![CDATA[
.edge:hover path { stroke: red; }
.edge:hover polygon { stroke: red; fill: red; }
]]></style>
<script type="text/javascript"><![CDATA[
var edges = document.getElementsByTagName('g');
if (edges && edges.length) {
  for (var i=0;i<edges.length;i++) {
    if (edges[i].id.substr(0,4)=='edge') {
      edges[i].setAttribute('class','edge');
    }
  }
}
]]></script>
        <defs>
                <circle id="rim" cx="0" cy="0" r="7"/>
                <circle id="rim2" cx="0" cy="0" r="3.5"/>
                <g id="zoomPlus">
                        <use xlink:href="#rim" fill="#404040">
                                <set attributeName="fill" to="#808080" begin="zoomplus.mouseover" end="zoomplus.mouseout"/>
                        </use>
                        <path d="M-4,0h8M0,-4v8" fill="none" stroke="white" stroke-width="1.5" pointer-events="none"/>
                </g>
                <g id="zoomMin">
                        <use xlink:href="#rim" fill="#404040">
                                <set attributeName="fill" to="#808080" begin="zoomminus.mouseover" end="zoomminus.mouseout"/>
                        </use>
                        <path d="M-4,0h8" fill="none" stroke="white" stroke-width="1.5" pointer-events="none"/>
                </g>
                <g id="dirArrow">
                        <path fill="none" stroke="white" stroke-width="1.5" d="M0,-3.0v7 M-2.5,-0.5L0,-3.0L2.5,-0.5"/>
                </g>
               <g id="resetDef">
                       <use xlink:href="#rim2" fill="#404040">
                               <set attributeName="fill" to="#808080" begin="reset.mouseover" end="reset.mouseout"/>
                       </use>
               </g>
        </defs>

<script type="text/javascript">
var viewWidth = 857;
var viewHeight = 328;
var sectionId = 'dynsection-59';
</script>
<script xlink:href="svgpan.js"/>
<svg id="graph" class="graph">
<g id="viewport">
<title>prior_hessian::MultivariateNormalDist::sigma_inv</title>
<polygon fill="white" stroke="none" points="-4,4 -4,-324 853,-324 853,4 -4,4"/>
<!-- Node1 -->
<g id="node1" class="node"><title>Node1</title>
<polygon fill="#bfbfbf" stroke="black" points="0,-162.5 0,-190.5 125,-190.5 125,-162.5 0,-162.5"/>
<text text-anchor="start" x="8" y="-179.3" font-family="Helvetica,sans-Serif" font-size="9.00">prior_hessian::Multivariate</text>
<text text-anchor="middle" x="62.5" y="-169.3" font-family="Helvetica,sans-Serif" font-size="9.00">NormalDist::sigma_inv</text>
</g>
<!-- Node2 -->
<g id="node2" class="node"><title>Node2</title>
<g id="a_node2"><a xlink:href="classprior__hessian_1_1MultivariateNormalDist.html#a300193a7fac39d098eafd7b4fef86d05" target="_top" xlink:title="prior_hessian::Multivariate\lNormalDist::grad">
<polygon fill="white" stroke="black" points="343,-291.5 343,-319.5 468,-319.5 468,-291.5 343,-291.5"/>
<text text-anchor="start" x="351" y="-308.3" font-family="Helvetica,sans-Serif" font-size="9.00">prior_hessian::Multivariate</text>
<text text-anchor="middle" x="405.5" y="-298.3" font-family="Helvetica,sans-Serif" font-size="9.00">NormalDist::grad</text>
</a>
</g>
</g>
<!-- Node1&#45;&gt;Node2 -->
<g id="edge1" class="edge"><title>Node1&#45;&gt;Node2</title>
<path fill="none" stroke="midnightblue" d="M78.3952,-199.127C95.3381,-222.796 125.329,-258.902 161,-276.5 218.079,-304.659 291.534,-309.819 342.773,-309.239"/>
<polygon fill="midnightblue" stroke="midnightblue" points="81.1385,-196.942 72.5559,-190.73 75.3913,-200.938 81.1385,-196.942"/>
</g>
<!-- Node4 -->
<g id="node4" class="node"><title>Node4</title>
<g id="a_node4"><a xlink:href="classprior__hessian_1_1MultivariateNormalDist.html#abddd70ca592cc71d9269f227ef53f90a" target="_top" xlink:title="prior_hessian::Multivariate\lNormalDist::grad2">
<polygon fill="white" stroke="black" points="544,-248.5 544,-276.5 669,-276.5 669,-248.5 544,-248.5"/>
<text text-anchor="start" x="552" y="-265.3" font-family="Helvetica,sans-Serif" font-size="9.00">prior_hessian::Multivariate</text>
<text text-anchor="middle" x="606.5" y="-255.3" font-family="Helvetica,sans-Serif" font-size="9.00">NormalDist::grad2</text>
</a>
</g>
</g>
<!-- Node1&#45;&gt;Node4 -->
<g id="edge3" class="edge"><title>Node1&#45;&gt;Node4</title>
<path fill="none" stroke="midnightblue" d="M106.833,-194.293C123.554,-200.682 142.969,-207.53 161,-212.5 294.259,-249.232 457.103,-259.056 543.964,-261.633"/>
<polygon fill="midnightblue" stroke="midnightblue" points="107.919,-190.96 97.3298,-190.601 105.384,-197.485 107.919,-190.96"/>
</g>
<!-- Node5 -->
<g id="node5" class="node"><title>Node5</title>
<g id="a_node5"><a xlink:href="classprior__hessian_1_1MultivariateNormalDist.html#ae51a2d1024d5048d0631929092b26cc7" target="_top" xlink:title="prior_hessian::Multivariate\lNormalDist::grad_grad2_accumulate">
<polygon fill="white" stroke="black" points="322,-205.5 322,-233.5 489,-233.5 489,-205.5 322,-205.5"/>
<text text-anchor="start" x="330" y="-222.3" font-family="Helvetica,sans-Serif" font-size="9.00">prior_hessian::Multivariate</text>
<text text-anchor="middle" x="405.5" y="-212.3" font-family="Helvetica,sans-Serif" font-size="9.00">NormalDist::grad_grad2_accumulate</text>
</a>
</g>
</g>
<!-- Node1&#45;&gt;Node5 -->
<g id="edge5" class="edge"><title>Node1&#45;&gt;Node5</title>
<path fill="none" stroke="midnightblue" d="M135.231,-187C143.909,-188.211 152.652,-189.404 161,-190.5 214.502,-197.526 274.716,-204.704 321.881,-210.161"/>
<polygon fill="midnightblue" stroke="midnightblue" points="135.492,-183.503 125.102,-185.575 134.517,-190.434 135.492,-183.503"/>
</g>
<!-- Node6 -->
<g id="node6" class="node"><title>Node6</title>
<g id="a_node6"><a xlink:href="classprior__hessian_1_1MultivariateNormalDist.html#a8cd22c12a8c039623589cc947aba25f0" target="_top" xlink:title="prior_hessian::Multivariate\lNormalDist::grad_hess_accumulate">
<polygon fill="white" stroke="black" points="525,-162.5 525,-190.5 688,-190.5 688,-162.5 525,-162.5"/>
<text text-anchor="start" x="533" y="-179.3" font-family="Helvetica,sans-Serif" font-size="9.00">prior_hessian::Multivariate</text>
<text text-anchor="middle" x="606.5" y="-169.3" font-family="Helvetica,sans-Serif" font-size="9.00">NormalDist::grad_hess_accumulate</text>
</a>
</g>
</g>
<!-- Node1&#45;&gt;Node6 -->
<g id="edge7" class="edge"><title>Node1&#45;&gt;Node6</title>
<path fill="none" stroke="midnightblue" d="M135.234,-176.5C236.027,-176.5 419.021,-176.5 524.561,-176.5"/>
<polygon fill="midnightblue" stroke="midnightblue" points="135.147,-173 125.147,-176.5 135.147,-180 135.147,-173"/>
</g>
<!-- Node7 -->
<g id="node7" class="node"><title>Node7</title>
<g id="a_node7"><a xlink:href="classprior__hessian_1_1MultivariateNormalDist.html#aaf8d6241c639ee69c7854f392ba85480" target="_top" xlink:title="prior_hessian::Multivariate\lNormalDist::hess">
<polygon fill="white" stroke="black" points="161,-119.5 161,-147.5 286,-147.5 286,-119.5 161,-119.5"/>
<text text-anchor="start" x="169" y="-136.3" font-family="Helvetica,sans-Serif" font-size="9.00">prior_hessian::Multivariate</text>
<text text-anchor="middle" x="223.5" y="-126.3" font-family="Helvetica,sans-Serif" font-size="9.00">NormalDist::hess</text>
</a>
</g>
</g>
<!-- Node1&#45;&gt;Node7 -->
<g id="edge9" class="edge"><title>Node1&#45;&gt;Node7</title>
<path fill="none" stroke="midnightblue" d="M125.258,-159.798C140.243,-155.745 156.115,-151.453 170.592,-147.538"/>
<polygon fill="midnightblue" stroke="midnightblue" points="124.302,-156.431 115.563,-162.42 126.13,-163.188 124.302,-156.431"/>
</g>
<!-- Node8 -->
<g id="node8" class="node"><title>Node8</title>
<g id="a_node8"><a xlink:href="classprior__hessian_1_1MultivariateNormalDist.html#aedb257f189a46f8b1ee36a1b344648c3" target="_top" xlink:title="prior_hessian::Multivariate\lNormalDist::in_bounds">
<polygon fill="white" stroke="black" points="161,-72.5 161,-100.5 286,-100.5 286,-72.5 161,-72.5"/>
<text text-anchor="start" x="169" y="-89.3" font-family="Helvetica,sans-Serif" font-size="9.00">prior_hessian::Multivariate</text>
<text text-anchor="middle" x="223.5" y="-79.3" font-family="Helvetica,sans-Serif" font-size="9.00">NormalDist::in_bounds</text>
</a>
</g>
</g>
<!-- Node1&#45;&gt;Node8 -->
<g id="edge11" class="edge"><title>Node1&#45;&gt;Node8</title>
<path fill="none" stroke="midnightblue" d="M89.5073,-156.024C108.541,-141.7 135.407,-122.823 161,-109.5 167.168,-106.289 173.888,-103.303 180.548,-100.616"/>
<polygon fill="midnightblue" stroke="midnightblue" points="87.1748,-153.401 81.3457,-162.248 91.4197,-158.967 87.1748,-153.401"/>
</g>
<!-- Node9 -->
<g id="node9" class="node"><title>Node9</title>
<g id="a_node9"><a xlink:href="classprior__hessian_1_1MultivariateNormalDist.html#a4512a641c493e33dfb93b5087e473c76" target="_top" xlink:title="prior_hessian::Multivariate\lNormalDist::rllh">
<polygon fill="white" stroke="black" points="161,-25.5 161,-53.5 286,-53.5 286,-25.5 161,-25.5"/>
<text text-anchor="start" x="169" y="-42.3" font-family="Helvetica,sans-Serif" font-size="9.00">prior_hessian::Multivariate</text>
<text text-anchor="middle" x="223.5" y="-32.3" font-family="Helvetica,sans-Serif" font-size="9.00">NormalDist::rllh</text>
</a>
</g>
</g>
<!-- Node1&#45;&gt;Node9 -->
<g id="edge12" class="edge"><title>Node1&#45;&gt;Node9</title>
<path fill="none" stroke="midnightblue" d="M77.8772,-153.579C94.8983,-128.129 125.463,-87.3676 161,-62.5 165.857,-59.1015 171.278,-56.1346 176.834,-53.5643"/>
<polygon fill="midnightblue" stroke="midnightblue" points="74.7801,-151.92 72.2349,-162.204 80.6381,-155.752 74.7801,-151.92"/>
</g>
<!-- Node3 -->
<g id="node3" class="node"><title>Node3</title>
<g id="a_node3"><a xlink:href="classprior__hessian_1_1MultivariateNormalDist.html#afdec8e6a453a2c69e0d84833d6b3e5ae" target="_top" xlink:title="prior_hessian::Multivariate\lNormalDist::mode">
<polygon fill="white" stroke="black" points="724,-140.5 724,-168.5 849,-168.5 849,-140.5 724,-140.5"/>
<text text-anchor="start" x="732" y="-157.3" font-family="Helvetica,sans-Serif" font-size="9.00">prior_hessian::Multivariate</text>
<text text-anchor="middle" x="786.5" y="-147.3" font-family="Helvetica,sans-Serif" font-size="9.00">NormalDist::mode</text>
</a>
</g>
</g>
<!-- Node2&#45;&gt;Node3 -->
<g id="edge2" class="edge"><title>Node2&#45;&gt;Node3</title>
<path fill="none" stroke="midnightblue" d="M478.375,-316.595C538.178,-322.246 623.628,-321.75 688,-286.5 736.728,-259.816 767.793,-197.195 779.831,-168.867"/>
<polygon fill="midnightblue" stroke="midnightblue" points="478.567,-313.097 468.262,-315.558 477.853,-320.06 478.567,-313.097"/>
</g>
<!-- Node4&#45;&gt;Node3 -->
<g id="edge4" class="edge"><title>Node4&#45;&gt;Node3</title>
<path fill="none" stroke="midnightblue" d="M664.527,-244.673C672.604,-241.374 680.652,-237.642 688,-233.5 720.452,-215.204 753.053,-186.102 771.124,-168.793"/>
<polygon fill="midnightblue" stroke="midnightblue" points="663.127,-241.462 655.073,-248.346 665.662,-247.987 663.127,-241.462"/>
</g>
<!-- Node5&#45;&gt;Node3 -->
<g id="edge6" class="edge"><title>Node5&#45;&gt;Node3</title>
<path fill="none" stroke="midnightblue" d="M499.231,-221.259C554.78,-220.264 626.354,-215.35 688,-199.5 714.361,-192.722 742.367,-179.039 761.567,-168.531"/>
<polygon fill="midnightblue" stroke="midnightblue" points="499.002,-217.762 489.051,-221.401 499.099,-224.761 499.002,-217.762"/>
</g>
<!-- Node6&#45;&gt;Node3 -->
<g id="edge8" class="edge"><title>Node6&#45;&gt;Node3</title>
<path fill="none" stroke="midnightblue" d="M698.285,-165.279C706.912,-164.213 715.517,-163.15 723.775,-162.129"/>
<polygon fill="midnightblue" stroke="midnightblue" points="697.662,-161.83 688.167,-166.53 698.521,-168.777 697.662,-161.83"/>
</g>
<!-- Node7&#45;&gt;Node3 -->
<g id="edge10" class="edge"><title>Node7&#45;&gt;Node3</title>
<path fill="none" stroke="midnightblue" d="M296.246,-136.186C407.342,-140.344 619.077,-148.27 723.757,-152.189"/>
<polygon fill="midnightblue" stroke="midnightblue" points="296.266,-132.684 286.142,-135.807 296.004,-139.679 296.266,-132.684"/>
</g>
<!-- Node9&#45;&gt;Node3 -->
<g id="edge17" class="edge"><title>Node9&#45;&gt;Node3</title>
<path fill="none" stroke="midnightblue" d="M292.288,-55.8198C302.24,-58.12 312.376,-60.4105 322,-62.5 465.506,-93.6581 634.936,-126.223 723.876,-142.994"/>
<polygon fill="midnightblue" stroke="midnightblue" points="292.957,-52.382 282.423,-53.5233 291.369,-59.1996 292.957,-52.382"/>
</g>
<!-- Node10 -->
<g id="node10" class="node"><title>Node10</title>
<g id="a_node10"><a xlink:href="classprior__hessian_1_1MultivariateNormalDist.html#a3540b1bcafd58fe26de858c0a4aef3db" target="_top" xlink:title="prior_hessian::Multivariate\lNormalDist::llh">
<polygon fill="white" stroke="black" points="343,-25.5 343,-53.5 468,-53.5 468,-25.5 343,-25.5"/>
<text text-anchor="start" x="351" y="-42.3" font-family="Helvetica,sans-Serif" font-size="9.00">prior_hessian::Multivariate</text>
<text text-anchor="middle" x="405.5" y="-32.3" font-family="Helvetica,sans-Serif" font-size="9.00">NormalDist::llh</text>
</a>
</g>
</g>
<!-- Node9&#45;&gt;Node10 -->
<g id="edge13" class="edge"><title>Node9&#45;&gt;Node10</title>
<path fill="none" stroke="midnightblue" d="M296.217,-39.5C311.665,-39.5 327.864,-39.5 342.887,-39.5"/>
<polygon fill="midnightblue" stroke="midnightblue" points="296.194,-36.0001 286.194,-39.5 296.194,-43.0001 296.194,-36.0001"/>
</g>
<!-- Node10&#45;&gt;Node3 -->
<g id="edge14" class="edge"><title>Node10&#45;&gt;Node3</title>
<path fill="none" stroke="midnightblue" d="M478.369,-40.5716C536.85,-43.6818 620.463,-53.3117 688,-81.5 721.37,-95.4276 753.662,-123.32 771.428,-140.307"/>
<polygon fill="midnightblue" stroke="midnightblue" points="478.272,-37.063 468.115,-40.0793 477.936,-44.055 478.272,-37.063"/>
</g>
<!-- Node11 -->
<g id="node11" class="node"><title>Node11</title>
<g id="a_node11"><a xlink:href="classprior__hessian_1_1MultivariateNormalDist.html#a67cba536341528564330b17dcbe5faff" target="_top" xlink:title="prior_hessian::Multivariate\lNormalDist::pdf">
<polygon fill="white" stroke="black" points="544,-0.5 544,-28.5 669,-28.5 669,-0.5 544,-0.5"/>
<text text-anchor="start" x="552" y="-17.3" font-family="Helvetica,sans-Serif" font-size="9.00">prior_hessian::Multivariate</text>
<text text-anchor="middle" x="606.5" y="-7.3" font-family="Helvetica,sans-Serif" font-size="9.00">NormalDist::pdf</text>
</a>
</g>
</g>
<!-- Node10&#45;&gt;Node11 -->
<g id="edge15" class="edge"><title>Node10&#45;&gt;Node11</title>
<path fill="none" stroke="midnightblue" d="M478.158,-30.4977C499.661,-27.7964 523.05,-24.8581 543.846,-22.2454"/>
<polygon fill="midnightblue" stroke="midnightblue" points="477.588,-27.0418 468.102,-31.7611 478.46,-33.9872 477.588,-27.0418"/>
</g>
<!-- Node11&#45;&gt;Node3 -->
<g id="edge16" class="edge"><title>Node11&#45;&gt;Node3</title>
<path fill="none" stroke="midnightblue" d="M668.271,-32.5867C675.186,-35.738 681.923,-39.3607 688,-43.5 727.431,-70.3558 761.033,-116.783 776.462,-140.165"/>
<polygon fill="midnightblue" stroke="midnightblue" points="669.352,-29.2439 658.779,-28.5775 666.629,-35.6924 669.352,-29.2439"/>
</g>
</g>
</svg>
        <g id="navigator" transform="translate(0 0)" fill="#404254">
                <rect fill="#f2f5e9" fill-opacity="0.5" stroke="#606060" stroke-width=".5" x="0" y="0" width="60" height="60"/>
                <use id="zoomplus" xlink:href="#zoomPlus" x="17" y="9" onmousedown="handleZoom(evt,'in')"/>
                <use id="zoomminus" xlink:href="#zoomMin" x="42" y="9" onmousedown="handleZoom(evt,'out')"/>
                <use id="reset" xlink:href="#resetDef" x="30" y="36" onmousedown="handleReset()"/>
                <g id="arrowUp" xlink:href="#dirArrow" transform="translate(30 24)" onmousedown="handlePan(0,-1)">
                  <use xlink:href="#rim" fill="#404040">
                        <set attributeName="fill" to="#808080" begin="arrowUp.mouseover" end="arrowUp.mouseout"/>
                  </use>
                  <path fill="none" stroke="white" stroke-width="1.5" d="M0,-3.0v7 M-2.5,-0.5L0,-3.0L2.5,-0.5"/>
                </g>
                <g id="arrowRight" xlink:href="#dirArrow" transform="rotate(90) translate(36 -43)" onmousedown="handlePan(1,0)">
                  <use xlink:href="#rim" fill="#404040">
                        <set attributeName="fill" to="#808080" begin="arrowRight.mouseover" end="arrowRight.mouseout"/>
                  </use>
                  <path fill="none" stroke="white" stroke-width="1.5" d="M0,-3.0v7 M-2.5,-0.5L0,-3.0L2.5,-0.5"/>
                </g>
                <g id="arrowDown" xlink:href="#dirArrow" transform="rotate(180) translate(-30 -48)" onmousedown="handlePan(0,1)">
                  <use xlink:href="#rim" fill="#404040">
                        <set attributeName="fill" to="#808080" begin="arrowDown.mouseover" end="arrowDown.mouseout"/>
                  </use>
                  <path fill="none" stroke="white" stroke-width="1.5" d="M0,-3.0v7 M-2.5,-0.5L0,-3.0L2.5,-0.5"/>
                </g>
                <g id="arrowLeft" xlink:href="#dirArrow" transform="rotate(270) translate(-36 17)" onmousedown="handlePan(-1,0)">
                  <use xlink:href="#rim" fill="#404040">
                        <set attributeName="fill" to="#808080" begin="arrowLeft.mouseover" end="arrowLeft.mouseout"/>
                  </use>
                  <path fill="none" stroke="white" stroke-width="1.5" d="M0,-3.0v7 M-2.5,-0.5L0,-3.0L2.5,-0.5"/>
                </g>
        </g>
        <svg viewBox="0 0 15 15" width="100%" height="30px" preserveAspectRatio="xMaxYMin meet">
         <g id="arrow_out" transform="scale(0.3 0.3)">
          <a xlink:href="classprior__hessian_1_1MultivariateNormalDist_a38fa22fd87e3603397c433e33ce0c2be_icgraph_org.svg" target="_base">
           <rect id="button" ry="5" rx="5" y="6" x="6" height="38" width="38"
                fill="#f2f5e9" fill-opacity="0.5" stroke="#606060" stroke-width="1.0"/>
           <path id="arrow"
             d="M 11.500037,31.436501 C 11.940474,20.09759 22.043105,11.32322 32.158766,21.979434 L 37.068811,17.246167 C 37.068811,17.246167 37.088388,32 37.088388,32 L 22.160133,31.978069 C 22.160133,31.978069 26.997745,27.140456 26.997745,27.140456 C 18.528582,18.264221 13.291696,25.230495 11.500037,31.436501 z"
             style="fill:#404040;"/>
          </a>
         </g>
        </svg>
</svg>
