<?xml version="1.0" encoding="UTF-8" standalone="no"?>
<!DOCTYPE svg PUBLIC "-//W3C//DTD SVG 1.1//EN"
 "http://www.w3.org/Graphics/SVG/1.1/DTD/svg11.dtd">
<!-- Generated by graphviz version 2.38.0 (20140413.2041)
 -->
<!-- Title: prior_hessian::SymmetricBetaDist::icdf Pages: 1 -->
<svg width="440pt" height="58pt"
 viewBox="0.00 0.00 440.00 58.00" xmlns="http://www.w3.org/2000/svg" xmlns:xlink="http://www.w3.org/1999/xlink">
<g id="graph0" class="graph" transform="scale(1 1) rotate(0) translate(4 54)">
<title>prior_hessian::SymmetricBetaDist::icdf</title>
<polygon fill="white" stroke="none" points="-4,4 -4,-54 436,-54 436,4 -4,4"/>
<!-- Node1 -->
<g id="node1" class="node"><title>Node1</title>
<polygon fill="#bfbfbf" stroke="black" points="0,-21.5 0,-49.5 120,-49.5 120,-21.5 0,-21.5"/>
<text text-anchor="start" x="8" y="-38.3" font-family="Helvetica,sans-Serif" font-size="9.00">prior_hessian::Symmetric</text>
<text text-anchor="middle" x="60" y="-28.3" font-family="Helvetica,sans-Serif" font-size="9.00">BetaDist::icdf</text>
</g>
<!-- Node2 -->
<g id="node2" class="node"><title>Node2</title>
<g id="a_node2"><a xlink:href="classprior__hessian_1_1SymmetricBetaDist.html#a642a881868f0f031bacc87877714cf8d" target="_top" xlink:title="prior_hessian::Symmetric\lBetaDist::median">
<polygon fill="white" stroke="black" points="312,-21.5 312,-49.5 432,-49.5 432,-21.5 312,-21.5"/>
<text text-anchor="start" x="320" y="-38.3" font-family="Helvetica,sans-Serif" font-size="9.00">prior_hessian::Symmetric</text>
<text text-anchor="middle" x="372" y="-28.3" font-family="Helvetica,sans-Serif" font-size="9.00">BetaDist::median</text>
</a>
</g>
</g>
<!-- Node1&#45;&gt;Node2 -->
<g id="edge1" class="edge"><title>Node1&#45;&gt;Node2</title>
<path fill="none" stroke="midnightblue" d="M130.172,-37.9392C138.867,-38.1708 147.64,-38.368 156,-38.5 209.327,-39.3418 222.673,-39.3418 276,-38.5 287.632,-38.3164 300.062,-38.0064 311.969,-37.6535"/>
<polygon fill="midnightblue" stroke="midnightblue" points="130.126,-34.4366 120.031,-37.6535 129.929,-41.4338 130.126,-34.4366"/>
</g>
<!-- Node3 -->
<g id="node3" class="node"><title>Node3</title>
<g id="a_node3"><a xlink:href="classprior__hessian_1_1SymmetricBetaDist.html#a85c544524b8b02e31d5394289b227a4c" target="_top" xlink:title="prior_hessian::Symmetric\lBetaDist::sample">
<polygon fill="white" stroke="black" points="156,-0.5 156,-28.5 276,-28.5 276,-0.5 156,-0.5"/>
<text text-anchor="start" x="164" y="-17.3" font-family="Helvetica,sans-Serif" font-size="9.00">prior_hessian::Symmetric</text>
<text text-anchor="middle" x="216" y="-7.3" font-family="Helvetica,sans-Serif" font-size="9.00">BetaDist::sample</text>
</a>
</g>
</g>
<!-- Node1&#45;&gt;Node3 -->
<g id="edge2" class="edge"><title>Node1&#45;&gt;Node3</title>
<path fill="none" stroke="midnightblue" d="M130.089,-26.0788C138.672,-24.9083 147.388,-23.7198 155.804,-22.5722"/>
<polygon fill="midnightblue" stroke="midnightblue" points="129.535,-22.6218 120.1,-27.4409 130.481,-29.5576 129.535,-22.6218"/>
</g>
<!-- Node3&#45;&gt;Node2 -->
<g id="edge3" class="edge"><title>Node3&#45;&gt;Node2</title>
<path fill="none" stroke="midnightblue" d="M286.089,-23.9212C294.672,-25.0917 303.388,-26.2802 311.804,-27.4278"/>
<polygon fill="midnightblue" stroke="midnightblue" points="286.481,-20.4424 276.1,-22.5591 285.535,-27.3782 286.481,-20.4424"/>
</g>
</g>
</svg>
