<?xml version="1.0" encoding="UTF-8" standalone="no"?>
<!DOCTYPE svg PUBLIC "-//W3C//DTD SVG 1.1//EN"
 "http://www.w3.org/Graphics/SVG/1.1/DTD/svg11.dtd">
<!-- Generated by graphviz version 2.38.0 (20140413.2041)
 -->
<!-- Title: prior_hessian::CompositeDist::params_components Pages: 1 -->
<svg width="968pt" height="734pt"
 viewBox="0.00 0.00 968.00 734.00" xmlns="http://www.w3.org/2000/svg" xmlns:xlink="http://www.w3.org/1999/xlink">
<g id="graph0" class="graph" transform="scale(1 1) rotate(0) translate(4 730)">
<title>prior_hessian::CompositeDist::params_components</title>
<polygon fill="white" stroke="none" points="-4,4 -4,-730 964,-730 964,4 -4,4"/>
<!-- Node1 -->
<g id="node1" class="node"><title>Node1</title>
<polygon fill="#bfbfbf" stroke="black" points="0,-493.5 0,-521.5 123,-521.5 123,-493.5 0,-493.5"/>
<text text-anchor="start" x="8" y="-510.3" font-family="Helvetica,sans-Serif" font-size="9.00">prior_hessian::Composite</text>
<text text-anchor="middle" x="61.5" y="-500.3" font-family="Helvetica,sans-Serif" font-size="9.00">Dist::params_components</text>
</g>
<!-- Node2 -->
<g id="node2" class="node"><title>Node2</title>
<g id="a_node2"><a xlink:href="classprior__hessian_1_1CompositeDist.html#aff137c4d5297d3e5f2d271b863d0b1f4" target="_top" xlink:title="prior_hessian::Composite\lDist::get_dim_variable_index">
<polygon fill="white" stroke="black" points="159,-697.5 159,-725.5 295,-725.5 295,-697.5 159,-697.5"/>
<text text-anchor="start" x="167" y="-714.3" font-family="Helvetica,sans-Serif" font-size="9.00">prior_hessian::Composite</text>
<text text-anchor="middle" x="227" y="-704.3" font-family="Helvetica,sans-Serif" font-size="9.00">Dist::get_dim_variable_index</text>
</a>
</g>
</g>
<!-- Node1&#45;&gt;Node2 -->
<g id="edge1" class="edge"><title>Node1&#45;&gt;Node2</title>
<path fill="none" stroke="midnightblue" d="M66.1214,-521.532C75.5401,-555.271 103.982,-641.608 159,-688.5 160.509,-689.786 162.094,-691.002 163.739,-692.151"/>
<polygon fill="midnightblue" stroke="midnightblue" points="162.021,-695.201 172.395,-697.353 165.627,-689.201 162.021,-695.201"/>
</g>
<!-- Node3 -->
<g id="node3" class="node"><title>Node3</title>
<g id="a_node3"><a xlink:href="classprior__hessian_1_1CompositeDist.html#ad58e2371835b9a338b23e151485639fd" target="_top" xlink:title="prior_hessian::Composite\lDist::get_param_index">
<polygon fill="white" stroke="black" points="166,-650.5 166,-678.5 288,-678.5 288,-650.5 166,-650.5"/>
<text text-anchor="start" x="174" y="-667.3" font-family="Helvetica,sans-Serif" font-size="9.00">prior_hessian::Composite</text>
<text text-anchor="middle" x="227" y="-657.3" font-family="Helvetica,sans-Serif" font-size="9.00">Dist::get_param_index</text>
</a>
</g>
</g>
<!-- Node1&#45;&gt;Node3 -->
<g id="edge2" class="edge"><title>Node1&#45;&gt;Node3</title>
<path fill="none" stroke="midnightblue" d="M69.9249,-521.708C84.069,-547.557 117.225,-602.631 159,-635.5 163.968,-639.409 169.544,-642.896 175.301,-645.976"/>
<polygon fill="midnightblue" stroke="midnightblue" points="173.921,-649.198 184.437,-650.485 177.019,-642.92 173.921,-649.198"/>
</g>
<!-- Node4 -->
<g id="node4" class="node"><title>Node4</title>
<g id="a_node4"><a xlink:href="classprior__hessian_1_1CompositeDist.html#a25183fbeb28704eca9f7fe31dccb7640" target="_top" xlink:title="prior_hessian::Composite\lDist::get_param_value">
<polygon fill="white" stroke="black" points="331,-615.5 331,-643.5 453,-643.5 453,-615.5 331,-615.5"/>
<text text-anchor="start" x="339" y="-632.3" font-family="Helvetica,sans-Serif" font-size="9.00">prior_hessian::Composite</text>
<text text-anchor="middle" x="392" y="-622.3" font-family="Helvetica,sans-Serif" font-size="9.00">Dist::get_param_value</text>
</a>
</g>
</g>
<!-- Node1&#45;&gt;Node4 -->
<g id="edge3" class="edge"><title>Node1&#45;&gt;Node4</title>
<path fill="none" stroke="midnightblue" d="M72.1001,-521.735C87.5598,-543.355 120.199,-583.914 159,-602.5 209.425,-626.654 272.833,-632.621 320.612,-632.986"/>
<polygon fill="midnightblue" stroke="midnightblue" points="320.867,-636.486 330.865,-632.981 320.863,-629.486 320.867,-636.486"/>
</g>
<!-- Node6 -->
<g id="node6" class="node"><title>Node6</title>
<g id="a_node6"><a xlink:href="classprior__hessian_1_1CompositeDist.html#a0703fef1b4c1c1a20629a4d6fd12b8a4" target="_top" xlink:title="prior_hessian::Composite\lDist::has_dim_variable">
<polygon fill="white" stroke="black" points="166,-564.5 166,-592.5 288,-592.5 288,-564.5 166,-564.5"/>
<text text-anchor="start" x="174" y="-581.3" font-family="Helvetica,sans-Serif" font-size="9.00">prior_hessian::Composite</text>
<text text-anchor="middle" x="227" y="-571.3" font-family="Helvetica,sans-Serif" font-size="9.00">Dist::has_dim_variable</text>
</a>
</g>
</g>
<!-- Node1&#45;&gt;Node6 -->
<g id="edge5" class="edge"><title>Node1&#45;&gt;Node6</title>
<path fill="none" stroke="midnightblue" d="M89.5867,-521.678C108.73,-531.454 135.128,-544.446 159,-554.5 164.124,-556.658 169.517,-558.799 174.926,-560.862"/>
<polygon fill="midnightblue" stroke="midnightblue" points="174.032,-564.264 184.625,-564.479 176.478,-557.705 174.032,-564.264"/>
</g>
<!-- Node7 -->
<g id="node7" class="node"><title>Node7</title>
<g id="a_node7"><a xlink:href="classprior__hessian_1_1CompositeDist.html#a6216610bfbcc92a40c7fa43ae60bd5af" target="_top" xlink:title="prior_hessian::Composite\lDist::has_param">
<polygon fill="white" stroke="black" points="166,-517.5 166,-545.5 288,-545.5 288,-517.5 166,-517.5"/>
<text text-anchor="start" x="174" y="-534.3" font-family="Helvetica,sans-Serif" font-size="9.00">prior_hessian::Composite</text>
<text text-anchor="middle" x="227" y="-524.3" font-family="Helvetica,sans-Serif" font-size="9.00">Dist::has_param</text>
</a>
</g>
</g>
<!-- Node1&#45;&gt;Node7 -->
<g id="edge6" class="edge"><title>Node1&#45;&gt;Node7</title>
<path fill="none" stroke="midnightblue" d="M123.381,-516.437C133.908,-517.982 144.93,-519.6 155.682,-521.178"/>
<polygon fill="midnightblue" stroke="midnightblue" points="155.482,-524.686 165.884,-522.676 156.498,-517.76 155.482,-524.686"/>
</g>
<!-- Node8 -->
<g id="node8" class="node"><title>Node8</title>
<g id="a_node8"><a xlink:href="classprior__hessian_1_1CompositeDist.html#ae7ca30fd19fb59ebe241873443b9faed" target="_top" xlink:title="prior_hessian::Composite\lDist::param_names">
<polygon fill="white" stroke="black" points="493.5,-0.5 493.5,-28.5 615.5,-28.5 615.5,-0.5 493.5,-0.5"/>
<text text-anchor="start" x="501.5" y="-17.3" font-family="Helvetica,sans-Serif" font-size="9.00">prior_hessian::Composite</text>
<text text-anchor="middle" x="554.5" y="-7.3" font-family="Helvetica,sans-Serif" font-size="9.00">Dist::param_names</text>
</a>
</g>
</g>
<!-- Node1&#45;&gt;Node8 -->
<g id="edge7" class="edge"><title>Node1&#45;&gt;Node8</title>
<path fill="none" stroke="midnightblue" d="M67.1678,-493.194C87.5091,-433.238 174.482,-200.235 331,-90.5 376.618,-58.517 436.839,-39.0346 483.124,-27.8146"/>
<polygon fill="midnightblue" stroke="midnightblue" points="484.142,-31.1708 493.076,-25.4765 482.541,-24.3563 484.142,-31.1708"/>
</g>
<!-- Node13 -->
<g id="node13" class="node"><title>Node13</title>
<g id="a_node13"><a xlink:href="classprior__hessian_1_1CompositeDist.html#ab6aeadd029eacc9f9e35d6fbba746098" target="_top" xlink:title="prior_hessian::Composite\lDist::rename_dim_variable">
<polygon fill="white" stroke="black" points="163.5,-423.5 163.5,-451.5 290.5,-451.5 290.5,-423.5 163.5,-423.5"/>
<text text-anchor="start" x="171.5" y="-440.3" font-family="Helvetica,sans-Serif" font-size="9.00">prior_hessian::Composite</text>
<text text-anchor="middle" x="227" y="-430.3" font-family="Helvetica,sans-Serif" font-size="9.00">Dist::rename_dim_variable</text>
</a>
</g>
</g>
<!-- Node1&#45;&gt;Node13 -->
<g id="edge12" class="edge"><title>Node1&#45;&gt;Node13</title>
<path fill="none" stroke="midnightblue" d="M89.1335,-493.434C108.289,-483.588 134.89,-470.466 159,-460.5 163.454,-458.659 168.114,-456.843 172.813,-455.087"/>
<polygon fill="midnightblue" stroke="midnightblue" points="174.258,-458.285 182.46,-451.578 171.866,-451.707 174.258,-458.285"/>
</g>
<!-- Node14 -->
<g id="node14" class="node"><title>Node14</title>
<g id="a_node14"><a xlink:href="classprior__hessian_1_1CompositeDist.html#ace0aaa3698d76aba6a47f9061ff98902" target="_top" xlink:title="prior_hessian::Composite\lDist::rename_param">
<polygon fill="white" stroke="black" points="166,-376.5 166,-404.5 288,-404.5 288,-376.5 166,-376.5"/>
<text text-anchor="start" x="174" y="-393.3" font-family="Helvetica,sans-Serif" font-size="9.00">prior_hessian::Composite</text>
<text text-anchor="middle" x="227" y="-383.3" font-family="Helvetica,sans-Serif" font-size="9.00">Dist::rename_param</text>
</a>
</g>
</g>
<!-- Node1&#45;&gt;Node14 -->
<g id="edge13" class="edge"><title>Node1&#45;&gt;Node14</title>
<path fill="none" stroke="midnightblue" d="M73.4843,-493.397C90.0015,-473.069 123.142,-435.557 159,-413.5 161.776,-411.792 164.695,-410.192 167.698,-408.695"/>
<polygon fill="midnightblue" stroke="midnightblue" points="169.246,-411.836 176.899,-404.508 166.347,-405.464 169.246,-411.836"/>
</g>
<!-- Node15 -->
<g id="node15" class="node"><title>Node15</title>
<g id="a_node15"><a xlink:href="classprior__hessian_1_1CompositeDist.html#a38c4fdacf927824117d202422b04013c" target="_top" xlink:title="prior_hessian::Composite\lDist::set_param_names">
<polygon fill="white" stroke="black" points="166,-314.5 166,-342.5 288,-342.5 288,-314.5 166,-314.5"/>
<text text-anchor="start" x="174" y="-331.3" font-family="Helvetica,sans-Serif" font-size="9.00">prior_hessian::Composite</text>
<text text-anchor="middle" x="227" y="-321.3" font-family="Helvetica,sans-Serif" font-size="9.00">Dist::set_param_names</text>
</a>
</g>
</g>
<!-- Node1&#45;&gt;Node15 -->
<g id="edge14" class="edge"><title>Node1&#45;&gt;Node15</title>
<path fill="none" stroke="midnightblue" d="M69.498,-493.124C83.4057,-465.709 116.849,-405.241 159,-366.5 166.834,-359.3 176.271,-352.904 185.558,-347.509"/>
<polygon fill="midnightblue" stroke="midnightblue" points="187.296,-350.547 194.358,-342.649 183.912,-344.419 187.296,-350.547"/>
</g>
<!-- Node27 -->
<g id="node27" class="node"><title>Node27</title>
<g id="a_node27"><a xlink:href="classprior__hessian_1_1CompositeDist.html#a2b9cc7f1661dbd1bbd6f37c462781d5f" target="_top" xlink:title="prior_hessian::Composite\lDist::set_param_value">
<polygon fill="white" stroke="black" points="166,-470.5 166,-498.5 288,-498.5 288,-470.5 166,-470.5"/>
<text text-anchor="start" x="174" y="-487.3" font-family="Helvetica,sans-Serif" font-size="9.00">prior_hessian::Composite</text>
<text text-anchor="middle" x="227" y="-477.3" font-family="Helvetica,sans-Serif" font-size="9.00">Dist::set_param_value</text>
</a>
</g>
</g>
<!-- Node1&#45;&gt;Node27 -->
<g id="edge36" class="edge"><title>Node1&#45;&gt;Node27</title>
<path fill="none" stroke="midnightblue" d="M123.381,-498.936C133.908,-497.455 144.93,-495.904 155.682,-494.392"/>
<polygon fill="midnightblue" stroke="midnightblue" points="156.469,-497.816 165.884,-492.957 155.494,-490.884 156.469,-497.816"/>
</g>
<!-- Node5 -->
<g id="node5" class="node"><title>Node5</title>
<g id="a_node5"><a xlink:href="classprior__hessian_1_1CompositeDist.html#adc8761a6b3dda7ffe7d1694cebcd21f5" target="_top" xlink:title="prior_hessian::Composite\lDist::params">
<polygon fill="white" stroke="black" points="493.5,-617.5 493.5,-645.5 615.5,-645.5 615.5,-617.5 493.5,-617.5"/>
<text text-anchor="start" x="501.5" y="-634.3" font-family="Helvetica,sans-Serif" font-size="9.00">prior_hessian::Composite</text>
<text text-anchor="middle" x="554.5" y="-624.3" font-family="Helvetica,sans-Serif" font-size="9.00">Dist::params</text>
</a>
</g>
</g>
<!-- Node4&#45;&gt;Node5 -->
<g id="edge4" class="edge"><title>Node4&#45;&gt;Node5</title>
<path fill="none" stroke="midnightblue" d="M453.221,-630.25C462.992,-630.372 473.185,-630.499 483.171,-630.624"/>
<polygon fill="midnightblue" stroke="midnightblue" points="483.433,-634.127 493.475,-630.752 483.52,-627.128 483.433,-634.127"/>
</g>
<!-- Node9 -->
<g id="node9" class="node"><title>Node9</title>
<g id="a_node9"><a xlink:href="classprior__hessian_1_1CompositeDist.html#a5f59bcbe24d659084fbe3dc188011779" target="_top" xlink:title="prior_hessian::Composite\lDist::component_names">
<polygon fill="white" stroke="black" points="668,-256.5 668,-284.5 790,-284.5 790,-256.5 668,-256.5"/>
<text text-anchor="start" x="676" y="-273.3" font-family="Helvetica,sans-Serif" font-size="9.00">prior_hessian::Composite</text>
<text text-anchor="middle" x="729" y="-263.3" font-family="Helvetica,sans-Serif" font-size="9.00">Dist::component_names</text>
</a>
</g>
</g>
<!-- Node8&#45;&gt;Node9 -->
<g id="edge8" class="edge"><title>Node8&#45;&gt;Node9</title>
<path fill="none" stroke="midnightblue" d="M609.319,-28.5973C613.276,-31.0959 616.917,-34.0373 620,-37.5 667.32,-90.6403 622.555,-130.695 656,-193.5 667.501,-215.097 686.627,-235.137 702.276,-249.356"/>
<polygon fill="midnightblue" stroke="midnightblue" points="700.268,-252.252 710.084,-256.239 704.897,-247.001 700.268,-252.252"/>
</g>
<!-- Node10 -->
<g id="node10" class="node"><title>Node10</title>
<g id="a_node10"><a xlink:href="classprior__hessian_1_1CompositeDist.html#a6faf6fbb059017af5756d4327bb504bc" target="_top" xlink:title="prior_hessian::Composite\lDist::num_components">
<polygon fill="white" stroke="black" points="668,-156.5 668,-184.5 790,-184.5 790,-156.5 668,-156.5"/>
<text text-anchor="start" x="676" y="-173.3" font-family="Helvetica,sans-Serif" font-size="9.00">prior_hessian::Composite</text>
<text text-anchor="middle" x="729" y="-163.3" font-family="Helvetica,sans-Serif" font-size="9.00">Dist::num_components</text>
</a>
</g>
</g>
<!-- Node8&#45;&gt;Node10 -->
<g id="edge9" class="edge"><title>Node8&#45;&gt;Node10</title>
<path fill="none" stroke="midnightblue" d="M607.861,-28.544C612.282,-31.0576 616.422,-34.0169 620,-37.5 651.758,-68.4176 626.891,-97.0768 656,-130.5 663.334,-138.921 672.894,-145.927 682.639,-151.597"/>
<polygon fill="midnightblue" stroke="midnightblue" points="681.12,-154.755 691.582,-156.431 684.449,-148.597 681.12,-154.755"/>
</g>
<!-- Node11 -->
<g id="node11" class="node"><title>Node11</title>
<g id="a_node11"><a xlink:href="classprior__hessian_1_1CompositeDist.html#ad532e3fe9e7293fef7b293d3c94a1ddc" target="_top" xlink:title="prior_hessian::Composite\lDist::num_dim">
<polygon fill="white" stroke="black" points="838,-441.5 838,-469.5 960,-469.5 960,-441.5 838,-441.5"/>
<text text-anchor="start" x="846" y="-458.3" font-family="Helvetica,sans-Serif" font-size="9.00">prior_hessian::Composite</text>
<text text-anchor="middle" x="899" y="-448.3" font-family="Helvetica,sans-Serif" font-size="9.00">Dist::num_dim</text>
</a>
</g>
</g>
<!-- Node8&#45;&gt;Node11 -->
<g id="edge10" class="edge"><title>Node8&#45;&gt;Node11</title>
<path fill="none" stroke="midnightblue" d="M615.673,-15.117C671.521,-19.0034 753.17,-33.6643 802,-83.5 851.507,-134.027 884.88,-356.207 894.868,-430.903"/>
<polygon fill="midnightblue" stroke="midnightblue" points="891.448,-431.738 896.22,-441.197 898.388,-430.827 891.448,-431.738"/>
</g>
<!-- Node12 -->
<g id="node12" class="node"><title>Node12</title>
<g id="a_node12"><a xlink:href="classprior__hessian_1_1CompositeDist.html#a389c0e5459eeacc5f35afdf14d6a38d7" target="_top" xlink:title="prior_hessian::Composite\lDist::num_params_components">
<polygon fill="white" stroke="black" points="656,-93.5 656,-121.5 802,-121.5 802,-93.5 656,-93.5"/>
<text text-anchor="start" x="664" y="-110.3" font-family="Helvetica,sans-Serif" font-size="9.00">prior_hessian::Composite</text>
<text text-anchor="middle" x="729" y="-100.3" font-family="Helvetica,sans-Serif" font-size="9.00">Dist::num_params_components</text>
</a>
</g>
</g>
<!-- Node8&#45;&gt;Node12 -->
<g id="edge11" class="edge"><title>Node8&#45;&gt;Node12</title>
<path fill="none" stroke="midnightblue" d="M599.441,-28.6142C606.432,-31.3012 613.498,-34.2883 620,-37.5 649.052,-51.8505 679.847,-72.4056 701.087,-87.5305"/>
<polygon fill="midnightblue" stroke="midnightblue" points="699.133,-90.4365 709.292,-93.4425 703.225,-84.7571 699.133,-90.4365"/>
</g>
<!-- Node15&#45;&gt;Node8 -->
<g id="edge16" class="edge"><title>Node15&#45;&gt;Node8</title>
<path fill="none" stroke="midnightblue" d="M242.81,-314.484C280.113,-278.841 380.156,-181.136 453,-90.5 470.839,-68.3044 466.475,-54.9214 489,-37.5 490.796,-36.1112 492.682,-34.8017 494.636,-33.5672"/>
<polygon fill="midnightblue" stroke="midnightblue" points="496.51,-36.5305 503.562,-28.6234 493.118,-30.407 496.51,-36.5305"/>
</g>
<!-- Node16 -->
<g id="node16" class="node"><title>Node16</title>
<g id="a_node16"><a xlink:href="classprior__hessian_1_1CompositeDist.html#ae7742f32d7e64ca2c7b55132a8ae6895" target="_top" xlink:title="prior_hessian::Composite\lDist::num_params">
<polygon fill="white" stroke="black" points="493.5,-570.5 493.5,-598.5 615.5,-598.5 615.5,-570.5 493.5,-570.5"/>
<text text-anchor="start" x="501.5" y="-587.3" font-family="Helvetica,sans-Serif" font-size="9.00">prior_hessian::Composite</text>
<text text-anchor="middle" x="554.5" y="-577.3" font-family="Helvetica,sans-Serif" font-size="9.00">Dist::num_params</text>
</a>
</g>
</g>
<!-- Node15&#45;&gt;Node16 -->
<g id="edge15" class="edge"><title>Node15&#45;&gt;Node16</title>
<path fill="none" stroke="midnightblue" d="M253.62,-342.648C266.174,-349.678 281.466,-358.386 295,-366.5 366.276,-409.234 399.752,-402.695 453,-466.5 480.339,-499.26 459.41,-524.758 489,-555.5 492.58,-559.219 496.724,-562.499 501.15,-565.384"/>
<polygon fill="midnightblue" stroke="midnightblue" points="499.525,-568.487 509.936,-570.455 503.025,-562.424 499.525,-568.487"/>
</g>
<!-- Node17 -->
<g id="node17" class="node"><title>Node17</title>
<g id="a_node17"><a xlink:href="namespaceprior__hessian.html#ab26e9ddc3b6a5caccf5d75e1a1e1af1b" target="_top" xlink:title="prior_hessian::operator\&lt;\&lt;">
<polygon fill="white" stroke="black" points="331,-317.5 331,-335.5 453,-335.5 453,-317.5 331,-317.5"/>
<text text-anchor="middle" x="392" y="-324.3" font-family="Helvetica,sans-Serif" font-size="9.00">prior_hessian::operator&lt;&lt;</text>
</a>
</g>
</g>
<!-- Node15&#45;&gt;Node17 -->
<g id="edge17" class="edge"><title>Node15&#45;&gt;Node17</title>
<path fill="none" stroke="midnightblue" d="M288.232,-327.761C298.747,-327.632 309.77,-327.497 320.531,-327.365"/>
<polygon fill="midnightblue" stroke="midnightblue" points="320.787,-330.862 330.744,-327.239 320.701,-323.862 320.787,-330.862"/>
</g>
<!-- Node17&#45;&gt;Node5 -->
<g id="edge32" class="edge"><title>Node17&#45;&gt;Node5</title>
<path fill="none" stroke="midnightblue" d="M397.393,-335.761C408.003,-358.38 435.445,-418.399 453,-470.5 473.239,-530.568 446.179,-561.765 489,-608.5 489.904,-609.486 490.852,-610.43 491.84,-611.333"/>
<polygon fill="midnightblue" stroke="midnightblue" points="489.987,-614.318 500.093,-617.497 494.176,-608.709 489.987,-614.318"/>
</g>
<!-- Node17&#45;&gt;Node8 -->
<g id="edge31" class="edge"><title>Node17&#45;&gt;Node8</title>
<path fill="none" stroke="midnightblue" d="M401.994,-317.313C415.413,-303.027 440.44,-274.046 453,-244.5 489.531,-158.561 428.826,-108.908 489,-37.5 489.728,-36.6363 490.49,-35.8051 491.284,-35.0051"/>
<polygon fill="midnightblue" stroke="midnightblue" points="493.606,-37.6283 499.175,-28.6147 489.201,-32.1885 493.606,-37.6283"/>
</g>
<!-- Node17&#45;&gt;Node9 -->
<g id="edge18" class="edge"><title>Node17&#45;&gt;Node9</title>
<path fill="none" stroke="midnightblue" d="M453.193,-323.142C499.206,-319.852 564.034,-313.652 620,-302.5 639.014,-298.711 659.498,-293.058 677.463,-287.552"/>
<polygon fill="midnightblue" stroke="midnightblue" points="678.658,-290.845 687.158,-284.521 676.569,-284.164 678.658,-290.845"/>
</g>
<!-- Node17&#45;&gt;Node10 -->
<g id="edge23" class="edge"><title>Node17&#45;&gt;Node10</title>
<path fill="none" stroke="midnightblue" d="M402.925,-317.448C419.59,-302.661 454.746,-273.202 489,-255.5 543.439,-227.367 562.312,-233.168 620,-212.5 641.062,-204.954 664.207,-196.038 683.649,-188.366"/>
<polygon fill="midnightblue" stroke="midnightblue" points="685.152,-191.536 693.159,-184.597 682.573,-185.028 685.152,-191.536"/>
</g>
<!-- Node17&#45;&gt;Node11 -->
<g id="edge24" class="edge"><title>Node17&#45;&gt;Node11</title>
<path fill="none" stroke="midnightblue" d="M403.829,-335.577C416.365,-346.349 437.297,-365.168 453,-383.5 471.286,-404.848 464.428,-421.85 489,-435.5 545.253,-466.749 726.477,-463.803 827.792,-459.398"/>
<polygon fill="midnightblue" stroke="midnightblue" points="828.107,-462.888 837.939,-458.941 827.792,-455.895 828.107,-462.888"/>
</g>
<!-- Node17&#45;&gt;Node12 -->
<g id="edge30" class="edge"><title>Node17&#45;&gt;Node12</title>
<path fill="none" stroke="midnightblue" d="M399.458,-317.493C417.088,-293.139 466.236,-226.849 489,-212.5 539.886,-180.425 566.935,-206.824 620,-178.5 638.885,-168.42 638.472,-158.79 656,-146.5 666.367,-139.231 678.235,-132.299 689.305,-126.35"/>
<polygon fill="midnightblue" stroke="midnightblue" points="691.135,-129.342 698.365,-121.598 687.884,-123.143 691.135,-129.342"/>
</g>
<!-- Node17&#45;&gt;Node16 -->
<g id="edge29" class="edge"><title>Node17&#45;&gt;Node16</title>
<path fill="none" stroke="midnightblue" d="M404.186,-335.514C417.881,-347.183 440.757,-368.845 453,-392.5 487.101,-458.389 442.187,-497.943 489,-555.5 491.911,-559.079 495.357,-562.233 499.119,-565.008"/>
<polygon fill="midnightblue" stroke="midnightblue" points="497.453,-568.096 507.772,-570.499 501.204,-562.186 497.453,-568.096"/>
</g>
<!-- Node18 -->
<g id="node18" class="node"><title>Node18</title>
<g id="a_node18"><a xlink:href="classprior__hessian_1_1CompositeDist.html#a9c8cf14584b037663fe8ef27f77e3bcf" target="_top" xlink:title="prior_hessian::Composite\lDist::dim_variables">
<polygon fill="white" stroke="black" points="668,-531.5 668,-559.5 790,-559.5 790,-531.5 668,-531.5"/>
<text text-anchor="start" x="676" y="-548.3" font-family="Helvetica,sans-Serif" font-size="9.00">prior_hessian::Composite</text>
<text text-anchor="middle" x="729" y="-538.3" font-family="Helvetica,sans-Serif" font-size="9.00">Dist::dim_variables</text>
</a>
</g>
</g>
<!-- Node17&#45;&gt;Node18 -->
<g id="edge19" class="edge"><title>Node17&#45;&gt;Node18</title>
<path fill="none" stroke="midnightblue" d="M403.978,-335.625C417.459,-347.409 440.114,-369.189 453,-392.5 481.797,-444.594 443.449,-483.182 489,-521.5 535.073,-560.257 605.195,-562.932 657.586,-557.896"/>
<polygon fill="midnightblue" stroke="midnightblue" points="658.247,-561.346 667.815,-556.795 657.498,-554.386 658.247,-561.346"/>
</g>
<!-- Node19 -->
<g id="node19" class="node"><title>Node19</title>
<g id="a_node19"><a xlink:href="classprior__hessian_1_1CompositeDist.html#a4034220fc10fed2ff9ebe2f81061ab2f" target="_top" xlink:title="prior_hessian::Composite\lDist::global_lbound">
<polygon fill="white" stroke="black" points="493.5,-141.5 493.5,-169.5 615.5,-169.5 615.5,-141.5 493.5,-141.5"/>
<text text-anchor="start" x="501.5" y="-158.3" font-family="Helvetica,sans-Serif" font-size="9.00">prior_hessian::Composite</text>
<text text-anchor="middle" x="554.5" y="-148.3" font-family="Helvetica,sans-Serif" font-size="9.00">Dist::global_lbound</text>
</a>
</g>
</g>
<!-- Node17&#45;&gt;Node19 -->
<g id="edge20" class="edge"><title>Node17&#45;&gt;Node19</title>
<path fill="none" stroke="midnightblue" d="M400.309,-317.107C411.906,-302.072 435.048,-271.542 453,-244.5 470.2,-218.591 465.753,-205.156 489,-184.5 493.187,-180.779 497.931,-177.464 502.9,-174.527"/>
<polygon fill="midnightblue" stroke="midnightblue" points="504.852,-177.452 512.014,-169.644 501.547,-171.281 504.852,-177.452"/>
</g>
<!-- Node20 -->
<g id="node20" class="node"><title>Node20</title>
<g id="a_node20"><a xlink:href="classprior__hessian_1_1CompositeDist.html#a7e98f7f421d90f4b640e956ddf38987c" target="_top" xlink:title="prior_hessian::Composite\lDist::global_ubound">
<polygon fill="white" stroke="black" points="493.5,-94.5 493.5,-122.5 615.5,-122.5 615.5,-94.5 493.5,-94.5"/>
<text text-anchor="start" x="501.5" y="-111.3" font-family="Helvetica,sans-Serif" font-size="9.00">prior_hessian::Composite</text>
<text text-anchor="middle" x="554.5" y="-101.3" font-family="Helvetica,sans-Serif" font-size="9.00">Dist::global_ubound</text>
</a>
</g>
</g>
<!-- Node17&#45;&gt;Node20 -->
<g id="edge21" class="edge"><title>Node17&#45;&gt;Node20</title>
<path fill="none" stroke="midnightblue" d="M401.497,-317.081C414.267,-302.493 438.459,-273.123 453,-244.5 476.874,-197.507 452.37,-169.401 489,-131.5 490.059,-130.405 491.173,-129.361 492.334,-128.368"/>
<polygon fill="midnightblue" stroke="midnightblue" points="494.47,-131.144 500.601,-122.503 490.42,-125.434 494.47,-131.144"/>
</g>
<!-- Node21 -->
<g id="node21" class="node"><title>Node21</title>
<g id="a_node21"><a xlink:href="classprior__hessian_1_1CompositeDist.html#a46c83acc63b87837f3c4cb425e312d67" target="_top" xlink:title="prior_hessian::Composite\lDist::lbound">
<polygon fill="white" stroke="black" points="493.5,-47.5 493.5,-75.5 615.5,-75.5 615.5,-47.5 493.5,-47.5"/>
<text text-anchor="start" x="501.5" y="-64.3" font-family="Helvetica,sans-Serif" font-size="9.00">prior_hessian::Composite</text>
<text text-anchor="middle" x="554.5" y="-54.3" font-family="Helvetica,sans-Serif" font-size="9.00">Dist::lbound</text>
</a>
</g>
</g>
<!-- Node17&#45;&gt;Node21 -->
<g id="edge22" class="edge"><title>Node17&#45;&gt;Node21</title>
<path fill="none" stroke="midnightblue" d="M401.813,-317.233C414.996,-302.843 439.719,-273.729 453,-244.5 483.153,-178.141 440.676,-139.067 489,-84.5 489.865,-83.5238 490.773,-82.5889 491.721,-81.6938"/>
<polygon fill="midnightblue" stroke="midnightblue" points="493.874,-84.4538 499.661,-75.5791 489.602,-78.9079 493.874,-84.4538"/>
</g>
<!-- Node22 -->
<g id="node22" class="node"><title>Node22</title>
<g id="a_node22"><a xlink:href="classprior__hessian_1_1CompositeDist.html#ab33784dcc2971ebaae40e6138bd1e4c2" target="_top" xlink:title="prior_hessian::Composite\lDist::num_dim_components">
<polygon fill="white" stroke="black" points="489,-484.5 489,-512.5 620,-512.5 620,-484.5 489,-484.5"/>
<text text-anchor="start" x="497" y="-501.3" font-family="Helvetica,sans-Serif" font-size="9.00">prior_hessian::Composite</text>
<text text-anchor="middle" x="554.5" y="-491.3" font-family="Helvetica,sans-Serif" font-size="9.00">Dist::num_dim_components</text>
</a>
</g>
</g>
<!-- Node17&#45;&gt;Node22 -->
<g id="edge25" class="edge"><title>Node17&#45;&gt;Node22</title>
<path fill="none" stroke="midnightblue" d="M402.927,-335.574C415.713,-347.643 438.063,-370.074 453,-392.5 473.942,-423.942 462.09,-442.986 489,-469.5 492.731,-473.176 497.009,-476.432 501.548,-479.306"/>
<polygon fill="midnightblue" stroke="midnightblue" points="500.096,-482.505 510.526,-484.372 503.537,-476.409 500.096,-482.505"/>
</g>
<!-- Node24 -->
<g id="node24" class="node"><title>Node24</title>
<g id="a_node24"><a xlink:href="classprior__hessian_1_1CompositeDist.html#a3520120621a69469e885ba64f08ede3a" target="_top" xlink:title="prior_hessian::Composite\lDist::params_lbound">
<polygon fill="white" stroke="black" points="493.5,-398.5 493.5,-426.5 615.5,-426.5 615.5,-398.5 493.5,-398.5"/>
<text text-anchor="start" x="501.5" y="-415.3" font-family="Helvetica,sans-Serif" font-size="9.00">prior_hessian::Composite</text>
<text text-anchor="middle" x="554.5" y="-405.3" font-family="Helvetica,sans-Serif" font-size="9.00">Dist::params_lbound</text>
</a>
</g>
</g>
<!-- Node17&#45;&gt;Node24 -->
<g id="edge33" class="edge"><title>Node17&#45;&gt;Node24</title>
<path fill="none" stroke="midnightblue" d="M405.214,-335.632C422.968,-348.611 457.254,-372.58 489,-388.5 493.249,-390.631 497.735,-392.679 502.281,-394.618"/>
<polygon fill="midnightblue" stroke="midnightblue" points="501.061,-397.901 511.643,-398.439 503.707,-391.42 501.061,-397.901"/>
</g>
<!-- Node25 -->
<g id="node25" class="node"><title>Node25</title>
<g id="a_node25"><a xlink:href="classprior__hessian_1_1CompositeDist.html#ab9eac2d70f484d2d0d4ead6a21d6f798" target="_top" xlink:title="prior_hessian::Composite\lDist::params_ubound">
<polygon fill="white" stroke="black" points="493.5,-351.5 493.5,-379.5 615.5,-379.5 615.5,-351.5 493.5,-351.5"/>
<text text-anchor="start" x="501.5" y="-368.3" font-family="Helvetica,sans-Serif" font-size="9.00">prior_hessian::Composite</text>
<text text-anchor="middle" x="554.5" y="-358.3" font-family="Helvetica,sans-Serif" font-size="9.00">Dist::params_ubound</text>
</a>
</g>
</g>
<!-- Node17&#45;&gt;Node25 -->
<g id="edge34" class="edge"><title>Node17&#45;&gt;Node25</title>
<path fill="none" stroke="midnightblue" d="M430.225,-335.545C446.786,-339.569 466.816,-344.437 485.873,-349.067"/>
<polygon fill="midnightblue" stroke="midnightblue" points="485.182,-352.501 495.726,-351.461 486.835,-345.699 485.182,-352.501"/>
</g>
<!-- Node26 -->
<g id="node26" class="node"><title>Node26</title>
<g id="a_node26"><a xlink:href="classprior__hessian_1_1CompositeDist.html#aab0290d9dd418c2e7deb26e9f37eb74f" target="_top" xlink:title="prior_hessian::Composite\lDist::ubound">
<polygon fill="white" stroke="black" points="493.5,-265.5 493.5,-293.5 615.5,-293.5 615.5,-265.5 493.5,-265.5"/>
<text text-anchor="start" x="501.5" y="-282.3" font-family="Helvetica,sans-Serif" font-size="9.00">prior_hessian::Composite</text>
<text text-anchor="middle" x="554.5" y="-272.3" font-family="Helvetica,sans-Serif" font-size="9.00">Dist::ubound</text>
</a>
</g>
</g>
<!-- Node17&#45;&gt;Node26 -->
<g id="edge35" class="edge"><title>Node17&#45;&gt;Node26</title>
<path fill="none" stroke="midnightblue" d="M423.946,-317.438C444.282,-311.483 471.514,-303.508 495.762,-296.408"/>
<polygon fill="midnightblue" stroke="midnightblue" points="496.976,-299.699 505.589,-293.53 495.009,-292.981 496.976,-299.699"/>
</g>
<!-- Node22&#45;&gt;Node18 -->
<g id="edge26" class="edge"><title>Node22&#45;&gt;Node18</title>
<path fill="none" stroke="midnightblue" d="M607.256,-512.602C626.018,-517.714 647.387,-523.536 666.881,-528.847"/>
<polygon fill="midnightblue" stroke="midnightblue" points="666.01,-532.237 676.578,-531.489 667.85,-525.484 666.01,-532.237"/>
</g>
<!-- Node23 -->
<g id="node23" class="node"><title>Node23</title>
<g id="a_node23"><a xlink:href="classprior__hessian_1_1CompositeDist.html#a6a84d1519fcee908bd41abd4a989f666" target="_top" xlink:title="prior_hessian::Composite\lDist::set_dim_variables">
<polygon fill="white" stroke="black" points="668,-484.5 668,-512.5 790,-512.5 790,-484.5 668,-484.5"/>
<text text-anchor="start" x="676" y="-501.3" font-family="Helvetica,sans-Serif" font-size="9.00">prior_hessian::Composite</text>
<text text-anchor="middle" x="729" y="-491.3" font-family="Helvetica,sans-Serif" font-size="9.00">Dist::set_dim_variables</text>
</a>
</g>
</g>
<!-- Node22&#45;&gt;Node23 -->
<g id="edge27" class="edge"><title>Node22&#45;&gt;Node23</title>
<path fill="none" stroke="midnightblue" d="M620.223,-498.5C632.398,-498.5 645.183,-498.5 657.523,-498.5"/>
<polygon fill="midnightblue" stroke="midnightblue" points="657.76,-502 667.76,-498.5 657.76,-495 657.76,-502"/>
</g>
<!-- Node23&#45;&gt;Node11 -->
<g id="edge28" class="edge"><title>Node23&#45;&gt;Node11</title>
<path fill="none" stroke="midnightblue" d="M785.009,-484.42C800.463,-480.465 817.408,-476.128 833.367,-472.043"/>
<polygon fill="midnightblue" stroke="midnightblue" points="834.334,-475.408 843.154,-469.538 832.598,-468.627 834.334,-475.408"/>
</g>
<!-- Node27&#45;&gt;Node5 -->
<g id="edge37" class="edge"><title>Node27&#45;&gt;Node5</title>
<path fill="none" stroke="midnightblue" d="M288.428,-472.916C337.816,-467.032 406.787,-467.458 453,-503.5 491.901,-533.839 454.33,-573.403 489,-608.5 490.07,-609.584 491.195,-610.616 492.367,-611.601"/>
<polygon fill="midnightblue" stroke="midnightblue" points="490.482,-614.554 500.682,-617.419 494.495,-608.818 490.482,-614.554"/>
</g>
<!-- Node28 -->
<g id="node28" class="node"><title>Node28</title>
<g id="a_node28"><a xlink:href="classprior__hessian_1_1CompositeDist.html#a8f0b1c79d0d4319adf783fe4fdbf7eb0" target="_top" xlink:title="prior_hessian::Composite\lDist::set_params">
<polygon fill="white" stroke="black" points="331,-513.5 331,-541.5 453,-541.5 453,-513.5 331,-513.5"/>
<text text-anchor="start" x="339" y="-530.3" font-family="Helvetica,sans-Serif" font-size="9.00">prior_hessian::Composite</text>
<text text-anchor="middle" x="392" y="-520.3" font-family="Helvetica,sans-Serif" font-size="9.00">Dist::set_params</text>
</a>
</g>
</g>
<!-- Node27&#45;&gt;Node28 -->
<g id="edge38" class="edge"><title>Node27&#45;&gt;Node28</title>
<path fill="none" stroke="midnightblue" d="M281.372,-498.58C296.224,-502.498 312.497,-506.79 327.852,-510.841"/>
<polygon fill="midnightblue" stroke="midnightblue" points="327.224,-514.295 337.786,-513.462 329.01,-507.527 327.224,-514.295"/>
</g>
</g>
</svg>
