<?xml version="1.0" encoding="UTF-8" standalone="no"?>
<!DOCTYPE svg PUBLIC "-//W3C//DTD SVG 1.1//EN"
 "http://www.w3.org/Graphics/SVG/1.1/DTD/svg11.dtd">
<!-- Generated by graphviz version 2.38.0 (20140413.2041)
 -->
<!-- Title: prior_hessian::CompositeDist::num_params_components Pages: 1 -->
<!--zoomable 331 -->
<svg id="main" version="1.1" xmlns="http://www.w3.org/2000/svg" xmlns:xlink="http://www.w3.org/1999/xlink" xml:space="preserve" onload="init(evt)">
<style type="text/css"><![CDATA[
.edge:hover path { stroke: red; }
.edge:hover polygon { stroke: red; fill: red; }
]]></style>
<script type="text/javascript"><![CDATA[
var edges = document.getElementsByTagName('g');
if (edges && edges.length) {
  for (var i=0;i<edges.length;i++) {
    if (edges[i].id.substr(0,4)=='edge') {
      edges[i].setAttribute('class','edge');
    }
  }
}
]]></script>
        <defs>
                <circle id="rim" cx="0" cy="0" r="7"/>
                <circle id="rim2" cx="0" cy="0" r="3.5"/>
                <g id="zoomPlus">
                        <use xlink:href="#rim" fill="#404040">
                                <set attributeName="fill" to="#808080" begin="zoomplus.mouseover" end="zoomplus.mouseout"/>
                        </use>
                        <path d="M-4,0h8M0,-4v8" fill="none" stroke="white" stroke-width="1.5" pointer-events="none"/>
                </g>
                <g id="zoomMin">
                        <use xlink:href="#rim" fill="#404040">
                                <set attributeName="fill" to="#808080" begin="zoomminus.mouseover" end="zoomminus.mouseout"/>
                        </use>
                        <path d="M-4,0h8" fill="none" stroke="white" stroke-width="1.5" pointer-events="none"/>
                </g>
                <g id="dirArrow">
                        <path fill="none" stroke="white" stroke-width="1.5" d="M0,-3.0v7 M-2.5,-0.5L0,-3.0L2.5,-0.5"/>
                </g>
               <g id="resetDef">
                       <use xlink:href="#rim2" fill="#404040">
                               <set attributeName="fill" to="#808080" begin="reset.mouseover" end="reset.mouseout"/>
                       </use>
               </g>
        </defs>

<script type="text/javascript">
var viewWidth = 976;
var viewHeight = 331;
var sectionId = 'dynsection-56';
</script>
<script xlink:href="svgpan.js"/>
<svg id="graph" class="graph">
<g id="viewport">
<title>prior_hessian::CompositeDist::num_params_components</title>
<polygon fill="white" stroke="none" points="-4,4 -4,-327.369 972,-327.369 972,4 -4,4"/>
<!-- Node1 -->
<g id="node1" class="node"><title>Node1</title>
<polygon fill="#bfbfbf" stroke="black" points="0,-271.369 0,-299.369 146,-299.369 146,-271.369 0,-271.369"/>
<text text-anchor="start" x="8" y="-288.169" font-family="Helvetica,sans-Serif" font-size="9.00">prior_hessian::Composite</text>
<text text-anchor="middle" x="73" y="-278.169" font-family="Helvetica,sans-Serif" font-size="9.00">Dist::num_params_components</text>
</g>
<!-- Node2 -->
<g id="node2" class="node"><title>Node2</title>
<g id="a_node2"><a xlink:href="namespaceprior__hessian.html#ab26e9ddc3b6a5caccf5d75e1a1e1af1b" target="_top" xlink:title="prior_hessian::operator\&lt;\&lt;">
<polygon fill="white" stroke="black" points="355.5,-276.369 355.5,-294.369 477.5,-294.369 477.5,-276.369 355.5,-276.369"/>
<text text-anchor="middle" x="416.5" y="-283.169" font-family="Helvetica,sans-Serif" font-size="9.00">prior_hessian::operator&lt;&lt;</text>
</a>
</g>
</g>
<!-- Node1&#45;&gt;Node2 -->
<g id="edge1" class="edge"><title>Node1&#45;&gt;Node2</title>
<path fill="none" stroke="midnightblue" d="M156.049,-285.369C217.409,-285.369 299.925,-285.369 355.274,-285.369"/>
<polygon fill="midnightblue" stroke="midnightblue" points="156.006,-281.869 146.006,-285.369 156.006,-288.869 156.006,-281.869"/>
</g>
<!-- Node5 -->
<g id="node5" class="node"><title>Node5</title>
<g id="a_node5"><a xlink:href="classprior__hessian_1_1CompositeDist.html#a24bac25ae8c0330b8a3aacadffc9d5ae" target="_top" xlink:title="prior_hessian::Composite\lDist::rllh_components">
<polygon fill="white" stroke="black" points="846,-67.3689 846,-95.3689 968,-95.3689 968,-67.3689 846,-67.3689"/>
<text text-anchor="start" x="854" y="-84.1689" font-family="Helvetica,sans-Serif" font-size="9.00">prior_hessian::Composite</text>
<text text-anchor="middle" x="907" y="-74.1689" font-family="Helvetica,sans-Serif" font-size="9.00">Dist::rllh_components</text>
</a>
</g>
</g>
<!-- Node1&#45;&gt;Node5 -->
<g id="edge13" class="edge"><title>Node1&#45;&gt;Node5</title>
<path fill="none" stroke="midnightblue" d="M155.964,-299.648C224.965,-310.426 326.375,-323.369 415.5,-323.369 415.5,-323.369 415.5,-323.369 591,-323.369 741.684,-323.369 864.62,-147.075 897.403,-95.4259"/>
<polygon fill="midnightblue" stroke="midnightblue" points="156.449,-296.181 146.025,-298.075 155.355,-303.095 156.449,-296.181"/>
</g>
<!-- Node6 -->
<g id="node6" class="node"><title>Node6</title>
<g id="a_node6"><a xlink:href="classprior__hessian_1_1CompositeDist.html#ae7ca30fd19fb59ebe241873443b9faed" target="_top" xlink:title="prior_hessian::Composite\lDist::param_names">
<polygon fill="white" stroke="black" points="182,-137.369 182,-165.369 304,-165.369 304,-137.369 182,-137.369"/>
<text text-anchor="start" x="190" y="-154.169" font-family="Helvetica,sans-Serif" font-size="9.00">prior_hessian::Composite</text>
<text text-anchor="middle" x="243" y="-144.169" font-family="Helvetica,sans-Serif" font-size="9.00">Dist::param_names</text>
</a>
</g>
</g>
<!-- Node1&#45;&gt;Node6 -->
<g id="edge6" class="edge"><title>Node1&#45;&gt;Node6</title>
<path fill="none" stroke="midnightblue" d="M99.846,-264.754C134.352,-237.231 194.568,-189.202 224.323,-165.468"/>
<polygon fill="midnightblue" stroke="midnightblue" points="97.2967,-262.31 91.6614,-271.282 101.662,-267.782 97.2967,-262.31"/>
</g>
<!-- Node3 -->
<g id="node3" class="node"><title>Node3</title>
<g id="a_node3"><a xlink:href="classprior__hessian_1_1CompositeDist.html#a38c4fdacf927824117d202422b04013c" target="_top" xlink:title="prior_hessian::Composite\lDist::set_param_names">
<polygon fill="white" stroke="black" points="529,-87.3689 529,-115.369 651,-115.369 651,-87.3689 529,-87.3689"/>
<text text-anchor="start" x="537" y="-104.169" font-family="Helvetica,sans-Serif" font-size="9.00">prior_hessian::Composite</text>
<text text-anchor="middle" x="590" y="-94.1689" font-family="Helvetica,sans-Serif" font-size="9.00">Dist::set_param_names</text>
</a>
</g>
</g>
<!-- Node2&#45;&gt;Node3 -->
<g id="edge2" class="edge"><title>Node2&#45;&gt;Node3</title>
<path fill="none" stroke="midnightblue" d="M486.04,-271.864C488.465,-270.505 490.797,-269.01 493,-267.369 546.663,-227.393 575.239,-147.858 585.041,-115.528"/>
<polygon fill="midnightblue" stroke="midnightblue" points="484.426,-268.756 476.911,-276.225 487.443,-275.073 484.426,-268.756"/>
</g>
<!-- Node4 -->
<g id="node4" class="node"><title>Node4</title>
<g id="a_node4"><a xlink:href="classprior__hessian_1_1CompositeDist.html#a927fed39b2b4e87714c728d6e7b11e8b" target="_top" xlink:title="prior_hessian::Composite\lDist::params_components">
<polygon fill="white" stroke="black" points="687,-46.3689 687,-74.3689 810,-74.3689 810,-46.3689 687,-46.3689"/>
<text text-anchor="start" x="695" y="-63.1689" font-family="Helvetica,sans-Serif" font-size="9.00">prior_hessian::Composite</text>
<text text-anchor="middle" x="748.5" y="-53.1689" font-family="Helvetica,sans-Serif" font-size="9.00">Dist::params_components</text>
</a>
</g>
</g>
<!-- Node3&#45;&gt;Node4 -->
<g id="edge3" class="edge"><title>Node3&#45;&gt;Node4</title>
<path fill="none" stroke="midnightblue" d="M654.661,-84.6909C667.654,-81.287 681.204,-77.7372 693.808,-74.4353"/>
<polygon fill="midnightblue" stroke="midnightblue" points="653.645,-81.3389 644.858,-87.259 655.419,-88.1104 653.645,-81.3389"/>
</g>
<!-- Node3&#45;&gt;Node5 -->
<g id="edge5" class="edge"><title>Node3&#45;&gt;Node5</title>
<path fill="none" stroke="midnightblue" d="M661.457,-96.8955C716.879,-93.3766 793.264,-88.5268 845.842,-85.1885"/>
<polygon fill="midnightblue" stroke="midnightblue" points="661.121,-93.4097 651.362,-97.5364 661.564,-100.396 661.121,-93.4097"/>
</g>
<!-- Node4&#45;&gt;Node5 -->
<g id="edge4" class="edge"><title>Node4&#45;&gt;Node5</title>
<path fill="none" stroke="midnightblue" d="M820.059,-69.8368C828.692,-70.9953 837.452,-72.1708 845.912,-73.306"/>
<polygon fill="midnightblue" stroke="midnightblue" points="820.384,-66.3492 810.007,-68.4881 819.453,-73.287 820.384,-66.3492"/>
</g>
<!-- Node6&#45;&gt;Node2 -->
<g id="edge7" class="edge"><title>Node6&#45;&gt;Node2</title>
<path fill="none" stroke="midnightblue" d="M256.712,-174.335C272.647,-200.914 302.479,-244.015 340,-267.369 345.949,-271.072 352.596,-274.013 359.412,-276.349"/>
<polygon fill="midnightblue" stroke="midnightblue" points="259.727,-172.557 251.666,-165.682 253.68,-176.083 259.727,-172.557"/>
</g>
<!-- Node6&#45;&gt;Node3 -->
<g id="edge12" class="edge"><title>Node6&#45;&gt;Node3</title>
<path fill="none" stroke="midnightblue" d="M281.449,-133.224C298.838,-125.673 320.042,-117.676 340,-113.369 403.458,-99.6752 478.039,-97.9089 528.921,-98.794"/>
<polygon fill="midnightblue" stroke="midnightblue" points="279.918,-130.075 272.213,-137.347 282.771,-136.467 279.918,-130.075"/>
</g>
<!-- Node6&#45;&gt;Node4 -->
<g id="edge8" class="edge"><title>Node6&#45;&gt;Node4</title>
<path fill="none" stroke="midnightblue" d="M270.879,-131.403C289.339,-118.804 314.949,-103.435 340,-95.3689 458.451,-57.2282 605.695,-54.9052 686.8,-57.2346"/>
<polygon fill="midnightblue" stroke="midnightblue" points="268.864,-128.54 262.676,-137.14 272.877,-134.276 268.864,-128.54"/>
</g>
<!-- Node6&#45;&gt;Node5 -->
<g id="edge9" class="edge"><title>Node6&#45;&gt;Node5</title>
<path fill="none" stroke="midnightblue" d="M260.033,-129.346C277.141,-107.781 306.373,-76.0858 340,-61.3689 531.635,22.5002 605.82,9.11146 810,-36.3689 836.591,-42.2919 864.522,-56.4067 883.356,-67.2619"/>
<polygon fill="midnightblue" stroke="midnightblue" points="257.209,-127.277 253.879,-137.335 262.754,-131.549 257.209,-127.277"/>
</g>
<!-- Node7 -->
<g id="node7" class="node"><title>Node7</title>
<g id="a_node7"><a xlink:href="classprior__hessian_1_1CompositeDist_1_1ComponentDistAdaptor_3_01Dist_00_01meta_1_1EnableIfSubclc6c9bd83bba546a81e521c87ad7ee6d3.html#a75bbad1826eb579d89540607f59f3919" target="_top" xlink:title="prior_hessian::Composite\lDist::ComponentDistAdaptor\l\&lt; Dist, meta::EnableIfSubclassT\l\&lt; Dist, UnivariateDist \&gt; \&gt;::append\l_param_names">
<polygon fill="white" stroke="black" points="340,-199.369 340,-257.369 493,-257.369 493,-199.369 340,-199.369"/>
<text text-anchor="start" x="348" y="-246.169" font-family="Helvetica,sans-Serif" font-size="9.00">prior_hessian::Composite</text>
<text text-anchor="start" x="348" y="-236.169" font-family="Helvetica,sans-Serif" font-size="9.00">Dist::ComponentDistAdaptor</text>
<text text-anchor="start" x="348" y="-226.169" font-family="Helvetica,sans-Serif" font-size="9.00">&lt; Dist, meta::EnableIfSubclassT</text>
<text text-anchor="start" x="348" y="-216.169" font-family="Helvetica,sans-Serif" font-size="9.00">&lt; Dist, UnivariateDist &gt; &gt;::append</text>
<text text-anchor="middle" x="416.5" y="-206.169" font-family="Helvetica,sans-Serif" font-size="9.00">_param_names</text>
</a>
</g>
</g>
<!-- Node6&#45;&gt;Node7 -->
<g id="edge10" class="edge"><title>Node6&#45;&gt;Node7</title>
<path fill="none" stroke="midnightblue" d="M284.762,-169.67C304.503,-178.534 328.682,-189.39 350.854,-199.344"/>
<polygon fill="midnightblue" stroke="midnightblue" points="286.012,-166.395 275.456,-165.492 283.145,-172.781 286.012,-166.395"/>
</g>
<!-- Node8 -->
<g id="node8" class="node"><title>Node8</title>
<g id="a_node8"><a xlink:href="classprior__hessian_1_1CompositeDist_1_1ComponentDistAdaptor_3_01Dist_00_01meta_1_1EnableIfSubcld67d34d533dbae21b9dad35557546eec.html#a500e09e7f9b4431f7db471bf075cdce2" target="_top" xlink:title="prior_hessian::Composite\lDist::ComponentDistAdaptor\l\&lt; Dist, meta::EnableIfSubclassT\l\&lt; Dist, MultivariateDist \&gt; \&gt;\l::append_param_names">
<polygon fill="white" stroke="black" points="343.5,-122.369 343.5,-180.369 489.5,-180.369 489.5,-122.369 343.5,-122.369"/>
<text text-anchor="start" x="351.5" y="-169.169" font-family="Helvetica,sans-Serif" font-size="9.00">prior_hessian::Composite</text>
<text text-anchor="start" x="351.5" y="-159.169" font-family="Helvetica,sans-Serif" font-size="9.00">Dist::ComponentDistAdaptor</text>
<text text-anchor="start" x="351.5" y="-149.169" font-family="Helvetica,sans-Serif" font-size="9.00">&lt; Dist, meta::EnableIfSubclassT</text>
<text text-anchor="start" x="351.5" y="-139.169" font-family="Helvetica,sans-Serif" font-size="9.00">&lt; Dist, MultivariateDist &gt; &gt;</text>
<text text-anchor="middle" x="416.5" y="-129.169" font-family="Helvetica,sans-Serif" font-size="9.00">::append_param_names</text>
</a>
</g>
</g>
<!-- Node6&#45;&gt;Node8 -->
<g id="edge11" class="edge"><title>Node6&#45;&gt;Node8</title>
<path fill="none" stroke="midnightblue" d="M314.6,-151.369C324.053,-151.369 333.759,-151.369 343.24,-151.369"/>
<polygon fill="midnightblue" stroke="midnightblue" points="314.465,-147.869 304.464,-151.369 314.464,-154.869 314.465,-147.869"/>
</g>
</g>
</svg>
        <g id="navigator" transform="translate(0 0)" fill="#404254">
                <rect fill="#f2f5e9" fill-opacity="0.5" stroke="#606060" stroke-width=".5" x="0" y="0" width="60" height="60"/>
                <use id="zoomplus" xlink:href="#zoomPlus" x="17" y="9" onmousedown="handleZoom(evt,'in')"/>
                <use id="zoomminus" xlink:href="#zoomMin" x="42" y="9" onmousedown="handleZoom(evt,'out')"/>
                <use id="reset" xlink:href="#resetDef" x="30" y="36" onmousedown="handleReset()"/>
                <g id="arrowUp" xlink:href="#dirArrow" transform="translate(30 24)" onmousedown="handlePan(0,-1)">
                  <use xlink:href="#rim" fill="#404040">
                        <set attributeName="fill" to="#808080" begin="arrowUp.mouseover" end="arrowUp.mouseout"/>
                  </use>
                  <path fill="none" stroke="white" stroke-width="1.5" d="M0,-3.0v7 M-2.5,-0.5L0,-3.0L2.5,-0.5"/>
                </g>
                <g id="arrowRight" xlink:href="#dirArrow" transform="rotate(90) translate(36 -43)" onmousedown="handlePan(1,0)">
                  <use xlink:href="#rim" fill="#404040">
                        <set attributeName="fill" to="#808080" begin="arrowRight.mouseover" end="arrowRight.mouseout"/>
                  </use>
                  <path fill="none" stroke="white" stroke-width="1.5" d="M0,-3.0v7 M-2.5,-0.5L0,-3.0L2.5,-0.5"/>
                </g>
                <g id="arrowDown" xlink:href="#dirArrow" transform="rotate(180) translate(-30 -48)" onmousedown="handlePan(0,1)">
                  <use xlink:href="#rim" fill="#404040">
                        <set attributeName="fill" to="#808080" begin="arrowDown.mouseover" end="arrowDown.mouseout"/>
                  </use>
                  <path fill="none" stroke="white" stroke-width="1.5" d="M0,-3.0v7 M-2.5,-0.5L0,-3.0L2.5,-0.5"/>
                </g>
                <g id="arrowLeft" xlink:href="#dirArrow" transform="rotate(270) translate(-36 17)" onmousedown="handlePan(-1,0)">
                  <use xlink:href="#rim" fill="#404040">
                        <set attributeName="fill" to="#808080" begin="arrowLeft.mouseover" end="arrowLeft.mouseout"/>
                  </use>
                  <path fill="none" stroke="white" stroke-width="1.5" d="M0,-3.0v7 M-2.5,-0.5L0,-3.0L2.5,-0.5"/>
                </g>
        </g>
        <svg viewBox="0 0 15 15" width="100%" height="30px" preserveAspectRatio="xMaxYMin meet">
         <g id="arrow_out" transform="scale(0.3 0.3)">
          <a xlink:href="classprior__hessian_1_1CompositeDist_a389c0e5459eeacc5f35afdf14d6a38d7_icgraph_org.svg" target="_base">
           <rect id="button" ry="5" rx="5" y="6" x="6" height="38" width="38"
                fill="#f2f5e9" fill-opacity="0.5" stroke="#606060" stroke-width="1.0"/>
           <path id="arrow"
             d="M 11.500037,31.436501 C 11.940474,20.09759 22.043105,11.32322 32.158766,21.979434 L 37.068811,17.246167 C 37.068811,17.246167 37.088388,32 37.088388,32 L 22.160133,31.978069 C 22.160133,31.978069 26.997745,27.140456 26.997745,27.140456 C 18.528582,18.264221 13.291696,25.230495 11.500037,31.436501 z"
             style="fill:#404040;"/>
          </a>
         </g>
        </svg>
</svg>
