<?xml version="1.0" encoding="UTF-8" standalone="no"?>
<!DOCTYPE svg PUBLIC "-//W3C//DTD SVG 1.1//EN"
 "http://www.w3.org/Graphics/SVG/1.1/DTD/svg11.dtd">
<!-- Generated by graphviz version 2.38.0 (20140413.2041)
 -->
<!-- Title: prior_hessian::ParetoDist::mean Pages: 1 -->
<!--zoomable 383 -->
<svg id="main" version="1.1" xmlns="http://www.w3.org/2000/svg" xmlns:xlink="http://www.w3.org/1999/xlink" xml:space="preserve" onload="init(evt)">
<style type="text/css"><![CDATA[
.edge:hover path { stroke: red; }
.edge:hover polygon { stroke: red; fill: red; }
]]></style>
<script type="text/javascript"><![CDATA[
var edges = document.getElementsByTagName('g');
if (edges && edges.length) {
  for (var i=0;i<edges.length;i++) {
    if (edges[i].id.substr(0,4)=='edge') {
      edges[i].setAttribute('class','edge');
    }
  }
}
]]></script>
        <defs>
                <circle id="rim" cx="0" cy="0" r="7"/>
                <circle id="rim2" cx="0" cy="0" r="3.5"/>
                <g id="zoomPlus">
                        <use xlink:href="#rim" fill="#404040">
                                <set attributeName="fill" to="#808080" begin="zoomplus.mouseover" end="zoomplus.mouseout"/>
                        </use>
                        <path d="M-4,0h8M0,-4v8" fill="none" stroke="white" stroke-width="1.5" pointer-events="none"/>
                </g>
                <g id="zoomMin">
                        <use xlink:href="#rim" fill="#404040">
                                <set attributeName="fill" to="#808080" begin="zoomminus.mouseover" end="zoomminus.mouseout"/>
                        </use>
                        <path d="M-4,0h8" fill="none" stroke="white" stroke-width="1.5" pointer-events="none"/>
                </g>
                <g id="dirArrow">
                        <path fill="none" stroke="white" stroke-width="1.5" d="M0,-3.0v7 M-2.5,-0.5L0,-3.0L2.5,-0.5"/>
                </g>
               <g id="resetDef">
                       <use xlink:href="#rim2" fill="#404040">
                               <set attributeName="fill" to="#808080" begin="reset.mouseover" end="reset.mouseout"/>
                       </use>
               </g>
        </defs>

<script type="text/javascript">
var viewWidth = 613;
var viewHeight = 383;
var sectionId = 'dynsection-29';
</script>
<script xlink:href="svgpan.js"/>
<svg id="graph" class="graph">
<g id="viewport">
<title>prior_hessian::ParetoDist::mean</title>
<polygon fill="white" stroke="none" points="-4,4 -4,-379 609,-379 609,4 -4,4"/>
<!-- Node1 -->
<g id="node1" class="node"><title>Node1</title>
<polygon fill="#bfbfbf" stroke="black" points="0,-152.5 0,-180.5 120,-180.5 120,-152.5 0,-152.5"/>
<text text-anchor="start" x="8" y="-169.3" font-family="Helvetica,sans-Serif" font-size="9.00">prior_hessian::ParetoDist</text>
<text text-anchor="middle" x="60" y="-159.3" font-family="Helvetica,sans-Serif" font-size="9.00">::mean</text>
</g>
<!-- Node2 -->
<g id="node2" class="node"><title>Node2</title>
<g id="a_node2"><a xlink:href="classprior__hessian_1_1ParetoDist.html#ad117226a3ad1eee827886fc7ba38acbf" target="_top" xlink:title="prior_hessian::ParetoDist\l::lbound">
<polygon fill="white" stroke="black" points="156,-152.5 156,-180.5 276,-180.5 276,-152.5 156,-152.5"/>
<text text-anchor="start" x="164" y="-169.3" font-family="Helvetica,sans-Serif" font-size="9.00">prior_hessian::ParetoDist</text>
<text text-anchor="middle" x="216" y="-159.3" font-family="Helvetica,sans-Serif" font-size="9.00">::lbound</text>
</a>
</g>
</g>
<!-- Node1&#45;&gt;Node2 -->
<g id="edge1" class="edge"><title>Node1&#45;&gt;Node2</title>
<path fill="none" stroke="midnightblue" d="M130.369,-159.78C138.862,-159.714 147.48,-159.758 155.804,-159.913"/>
<polygon fill="midnightblue" stroke="midnightblue" points="130.053,-156.283 120.1,-159.915 130.145,-163.283 130.053,-156.283"/>
</g>
<!-- Node2&#45;&gt;Node1 -->
<g id="edge11" class="edge"><title>Node2&#45;&gt;Node1</title>
<path fill="none" stroke="midnightblue" d="M145.533,-173.221C137.039,-173.286 128.422,-173.241 120.1,-173.085"/>
<polygon fill="midnightblue" stroke="midnightblue" points="145.85,-176.717 155.804,-173.087 145.759,-169.718 145.85,-176.717"/>
</g>
<!-- Node3 -->
<g id="node3" class="node"><title>Node3</title>
<g id="a_node3"><a xlink:href="classprior__hessian_1_1ParetoDist.html#afe706cb12ce6f667e7a3a9eb7311ef65" target="_top" xlink:title="prior_hessian::ParetoDist::cdf">
<polygon fill="white" stroke="black" points="312,-356.5 312,-374.5 449,-374.5 449,-356.5 312,-356.5"/>
<text text-anchor="middle" x="380.5" y="-363.3" font-family="Helvetica,sans-Serif" font-size="9.00">prior_hessian::ParetoDist::cdf</text>
</a>
</g>
</g>
<!-- Node2&#45;&gt;Node3 -->
<g id="edge2" class="edge"><title>Node2&#45;&gt;Node3</title>
<path fill="none" stroke="midnightblue" d="M224.47,-190.138C236.197,-227.512 262.831,-299.222 312,-338.5 324.887,-348.795 343.132,-353.231 357.405,-356.478"/>
<polygon fill="midnightblue" stroke="midnightblue" points="227.816,-189.108 221.552,-180.563 221.12,-191.149 227.816,-189.108"/>
</g>
<!-- Node4 -->
<g id="node4" class="node"><title>Node4</title>
<g id="a_node4"><a xlink:href="classprior__hessian_1_1ParetoDist.html#adc9bafea285be38186ec4ad161850b56" target="_top" xlink:title="prior_hessian::ParetoDist\l::get_param">
<polygon fill="white" stroke="black" points="320.5,-309.5 320.5,-337.5 440.5,-337.5 440.5,-309.5 320.5,-309.5"/>
<text text-anchor="start" x="328.5" y="-326.3" font-family="Helvetica,sans-Serif" font-size="9.00">prior_hessian::ParetoDist</text>
<text text-anchor="middle" x="380.5" y="-316.3" font-family="Helvetica,sans-Serif" font-size="9.00">::get_param</text>
</a>
</g>
</g>
<!-- Node2&#45;&gt;Node4 -->
<g id="edge4" class="edge"><title>Node2&#45;&gt;Node4</title>
<path fill="none" stroke="midnightblue" d="M227.913,-190.111C242.844,-219.934 272.374,-270.92 312,-300.5 316.564,-303.907 321.667,-306.832 326.968,-309.338"/>
<polygon fill="midnightblue" stroke="midnightblue" points="230.938,-188.33 223.415,-180.87 224.644,-191.393 230.938,-188.33"/>
</g>
<!-- Node6 -->
<g id="node6" class="node"><title>Node6</title>
<g id="a_node6"><a xlink:href="classprior__hessian_1_1ParetoDist.html#a9d1040a7a5ca261feebe56f42e5698ea" target="_top" xlink:title="prior_hessian::ParetoDist\l::icdf">
<polygon fill="white" stroke="black" points="320.5,-262.5 320.5,-290.5 440.5,-290.5 440.5,-262.5 320.5,-262.5"/>
<text text-anchor="start" x="328.5" y="-279.3" font-family="Helvetica,sans-Serif" font-size="9.00">prior_hessian::ParetoDist</text>
<text text-anchor="middle" x="380.5" y="-269.3" font-family="Helvetica,sans-Serif" font-size="9.00">::icdf</text>
</a>
</g>
</g>
<!-- Node2&#45;&gt;Node6 -->
<g id="edge6" class="edge"><title>Node2&#45;&gt;Node6</title>
<path fill="none" stroke="midnightblue" d="M242.265,-187.531C260.149,-204.932 285.569,-228.838 312,-244.5 324.994,-252.2 340.933,-257.784 354.059,-262.495"/>
<polygon fill="midnightblue" stroke="midnightblue" points="244.681,-184.998 235.081,-180.515 239.79,-190.006 244.681,-184.998"/>
</g>
<!-- Node7 -->
<g id="node7" class="node"><title>Node7</title>
<g id="a_node7"><a xlink:href="classprior__hessian_1_1ParetoDist.html#ae3776388549cf35e9fea96963624cf6e" target="_top" xlink:title="prior_hessian::ParetoDist\l::in_bounds">
<polygon fill="white" stroke="black" points="320.5,-215.5 320.5,-243.5 440.5,-243.5 440.5,-215.5 320.5,-215.5"/>
<text text-anchor="start" x="328.5" y="-232.3" font-family="Helvetica,sans-Serif" font-size="9.00">prior_hessian::ParetoDist</text>
<text text-anchor="middle" x="380.5" y="-222.3" font-family="Helvetica,sans-Serif" font-size="9.00">::in_bounds</text>
</a>
</g>
</g>
<!-- Node2&#45;&gt;Node7 -->
<g id="edge8" class="edge"><title>Node2&#45;&gt;Node7</title>
<path fill="none" stroke="midnightblue" d="M258.287,-184.627C274.875,-191.714 294.243,-199.746 312,-206.5 319.984,-209.537 328.568,-212.608 336.849,-215.473"/>
<polygon fill="midnightblue" stroke="midnightblue" points="259.444,-181.314 248.875,-180.579 256.679,-187.745 259.444,-181.314"/>
</g>
<!-- Node8 -->
<g id="node8" class="node"><title>Node8</title>
<g id="a_node8"><a xlink:href="classprior__hessian_1_1ParetoDist.html#a0f7ee813a098cd3fc9c7669cda6a340c" target="_top" xlink:title="prior_hessian::ParetoDist::llh">
<polygon fill="white" stroke="black" points="313.5,-178.5 313.5,-196.5 447.5,-196.5 447.5,-178.5 313.5,-178.5"/>
<text text-anchor="middle" x="380.5" y="-185.3" font-family="Helvetica,sans-Serif" font-size="9.00">prior_hessian::ParetoDist::llh</text>
</a>
</g>
</g>
<!-- Node2&#45;&gt;Node8 -->
<g id="edge9" class="edge"><title>Node2&#45;&gt;Node8</title>
<path fill="none" stroke="midnightblue" d="M286.084,-168.746C308.761,-171.422 332.73,-174.981 350.711,-178.481"/>
<polygon fill="midnightblue" stroke="midnightblue" points="286.456,-165.265 276.126,-167.618 285.669,-172.221 286.456,-165.265"/>
</g>
<!-- Node9 -->
<g id="node9" class="node"><title>Node9</title>
<g id="a_node9"><a xlink:href="classprior__hessian_1_1ParetoDist.html#a74af41636088b6c727107c60dd9c81b2" target="_top" xlink:title="prior_hessian::ParetoDist\l::median">
<polygon fill="white" stroke="black" points="320.5,-131.5 320.5,-159.5 440.5,-159.5 440.5,-131.5 320.5,-131.5"/>
<text text-anchor="start" x="328.5" y="-148.3" font-family="Helvetica,sans-Serif" font-size="9.00">prior_hessian::ParetoDist</text>
<text text-anchor="middle" x="380.5" y="-138.3" font-family="Helvetica,sans-Serif" font-size="9.00">::median</text>
</a>
</g>
</g>
<!-- Node2&#45;&gt;Node9 -->
<g id="edge12" class="edge"><title>Node2&#45;&gt;Node9</title>
<path fill="none" stroke="midnightblue" d="M285.316,-150.998C296.954,-149.355 308.956,-147.854 320.332,-146.623"/>
<polygon fill="midnightblue" stroke="midnightblue" points="284.596,-147.566 275.207,-152.475 285.608,-154.492 284.596,-147.566"/>
</g>
<!-- Node10 -->
<g id="node10" class="node"><title>Node10</title>
<g id="a_node10"><a xlink:href="classprior__hessian_1_1ParetoDist.html#af5791e2cef16b34e1bbdeec24b13d22e" target="_top" xlink:title="prior_hessian::ParetoDist\l::params">
<polygon fill="white" stroke="black" points="320.5,-84.5 320.5,-112.5 440.5,-112.5 440.5,-84.5 320.5,-84.5"/>
<text text-anchor="start" x="328.5" y="-101.3" font-family="Helvetica,sans-Serif" font-size="9.00">prior_hessian::ParetoDist</text>
<text text-anchor="middle" x="380.5" y="-91.3" font-family="Helvetica,sans-Serif" font-size="9.00">::params</text>
</a>
</g>
</g>
<!-- Node2&#45;&gt;Node10 -->
<g id="edge14" class="edge"><title>Node2&#45;&gt;Node10</title>
<path fill="none" stroke="midnightblue" d="M241.239,-147.165C260.275,-136.297 287.561,-123.48 312,-113.5 314.763,-112.372 317.602,-111.244 320.477,-110.134"/>
<polygon fill="midnightblue" stroke="midnightblue" points="239.395,-144.189 232.605,-152.322 242.985,-150.198 239.395,-144.189"/>
</g>
<!-- Node12 -->
<g id="node12" class="node"><title>Node12</title>
<g id="a_node12"><a xlink:href="classprior__hessian_1_1ParetoDist.html#a07cc43c2b299fc07660684f34f32d4ee" target="_top" xlink:title="prior_hessian::ParetoDist::pdf">
<polygon fill="white" stroke="black" points="312,-47.5 312,-65.5 449,-65.5 449,-47.5 312,-47.5"/>
<text text-anchor="middle" x="380.5" y="-54.3" font-family="Helvetica,sans-Serif" font-size="9.00">prior_hessian::ParetoDist::pdf</text>
</a>
</g>
</g>
<!-- Node2&#45;&gt;Node12 -->
<g id="edge18" class="edge"><title>Node2&#45;&gt;Node12</title>
<path fill="none" stroke="midnightblue" d="M229.691,-143.929C246.403,-120.733 277.712,-86.0927 312,-66.5 312.529,-66.198 313.062,-65.9005 313.6,-65.6077"/>
<polygon fill="midnightblue" stroke="midnightblue" points="226.787,-141.975 224.025,-152.203 232.563,-145.93 226.787,-141.975"/>
</g>
<!-- Node13 -->
<g id="node13" class="node"><title>Node13</title>
<g id="a_node13"><a xlink:href="classprior__hessian_1_1ParetoDist.html#abe706f0786b5e8ef20b7caff07ffad0c" target="_top" xlink:title="prior_hessian::ParetoDist\l::sample">
<polygon fill="white" stroke="black" points="320.5,-0.5 320.5,-28.5 440.5,-28.5 440.5,-0.5 320.5,-0.5"/>
<text text-anchor="start" x="328.5" y="-17.3" font-family="Helvetica,sans-Serif" font-size="9.00">prior_hessian::ParetoDist</text>
<text text-anchor="middle" x="380.5" y="-7.3" font-family="Helvetica,sans-Serif" font-size="9.00">::sample</text>
</a>
</g>
</g>
<!-- Node2&#45;&gt;Node13 -->
<g id="edge20" class="edge"><title>Node2&#45;&gt;Node13</title>
<path fill="none" stroke="midnightblue" d="M225.796,-142.935C240.176,-112.187 271.248,-59.6495 312,-29.5 314.6,-27.5767 317.367,-25.7965 320.243,-24.1597"/>
<polygon fill="midnightblue" stroke="midnightblue" points="222.587,-141.537 221.722,-152.097 228.984,-144.381 222.587,-141.537"/>
</g>
<!-- Node3&#45;&gt;Node2 -->
<g id="edge3" class="edge"><title>Node3&#45;&gt;Node2</title>
<path fill="none" stroke="midnightblue" d="M303.978,-349.632C250.909,-301.077 226.419,-214.986 219.298,-180.684"/>
<polygon fill="midnightblue" stroke="midnightblue" points="301.79,-352.366 311.657,-356.225 306.349,-347.055 301.79,-352.366"/>
</g>
<!-- Node5 -->
<g id="node5" class="node"><title>Node5</title>
<g id="a_node5"><a xlink:href="classprior__hessian_1_1ParetoDist.html#a572ad9f28d83da610e1b81c88876563a" target="_top" xlink:title="prior_hessian::ParetoDist\l::ParetoDist">
<polygon fill="white" stroke="black" points="485,-309.5 485,-337.5 605,-337.5 605,-309.5 485,-309.5"/>
<text text-anchor="start" x="493" y="-326.3" font-family="Helvetica,sans-Serif" font-size="9.00">prior_hessian::ParetoDist</text>
<text text-anchor="middle" x="545" y="-316.3" font-family="Helvetica,sans-Serif" font-size="9.00">::ParetoDist</text>
</a>
</g>
</g>
<!-- Node4&#45;&gt;Node5 -->
<g id="edge5" class="edge"><title>Node4&#45;&gt;Node5</title>
<path fill="none" stroke="midnightblue" d="M450.911,-323.5C462.235,-323.5 473.873,-323.5 484.918,-323.5"/>
<polygon fill="midnightblue" stroke="midnightblue" points="450.626,-320 440.626,-323.5 450.626,-327 450.626,-320"/>
</g>
<!-- Node6&#45;&gt;Node2 -->
<g id="edge7" class="edge"><title>Node6&#45;&gt;Node2</title>
<path fill="none" stroke="midnightblue" d="M311.617,-261.68C270.208,-235.484 238.403,-200.452 224.45,-180.528"/>
<polygon fill="midnightblue" stroke="midnightblue" points="309.946,-264.76 320.31,-266.961 313.58,-258.778 309.946,-264.76"/>
</g>
<!-- Node8&#45;&gt;Node2 -->
<g id="edge10" class="edge"><title>Node8&#45;&gt;Node2</title>
<path fill="none" stroke="midnightblue" d="M303.244,-184.384C293.818,-183.209 284.303,-181.9 275.207,-180.525"/>
<polygon fill="midnightblue" stroke="midnightblue" points="303.067,-187.888 313.412,-185.604 303.9,-180.938 303.067,-187.888"/>
</g>
<!-- Node9&#45;&gt;Node2 -->
<g id="edge13" class="edge"><title>Node9&#45;&gt;Node2</title>
<path fill="none" stroke="midnightblue" d="M311.127,-161.01C299.492,-162.652 287.496,-164.151 276.126,-165.382"/>
<polygon fill="midnightblue" stroke="midnightblue" points="311.844,-164.442 321.234,-159.534 310.833,-157.516 311.844,-164.442"/>
</g>
<!-- Node10&#45;&gt;Node2 -->
<g id="edge17" class="edge"><title>Node10&#45;&gt;Node2</title>
<path fill="none" stroke="midnightblue" d="M350.311,-116.547C338.344,-121.375 324.414,-126.431 312,-131.5 296.014,-138.028 278.81,-145.77 263.494,-152.466"/>
<polygon fill="midnightblue" stroke="midnightblue" points="351.961,-119.651 359.825,-112.551 349.25,-113.197 351.961,-119.651"/>
</g>
<!-- Node11 -->
<g id="node11" class="node"><title>Node11</title>
<g id="a_node11"><a xlink:href="classprior__hessian_1_1ParetoDist.html#ad90392cbacf44f0760b46e80a2676a08" target="_top" xlink:title="prior_hessian::ParetoDist\l::check_params">
<polygon fill="white" stroke="black" points="485,-84.5 485,-112.5 605,-112.5 605,-84.5 485,-84.5"/>
<text text-anchor="start" x="493" y="-101.3" font-family="Helvetica,sans-Serif" font-size="9.00">prior_hessian::ParetoDist</text>
<text text-anchor="middle" x="545" y="-91.3" font-family="Helvetica,sans-Serif" font-size="9.00">::check_params</text>
</a>
</g>
</g>
<!-- Node10&#45;&gt;Node11 -->
<g id="edge15" class="edge"><title>Node10&#45;&gt;Node11</title>
<path fill="none" stroke="midnightblue" d="M450.911,-98.5C462.235,-98.5 473.873,-98.5 484.918,-98.5"/>
<polygon fill="midnightblue" stroke="midnightblue" points="450.626,-95.0001 440.626,-98.5 450.626,-102 450.626,-95.0001"/>
</g>
<!-- Node11&#45;&gt;Node11 -->
<g id="edge16" class="edge"><title>Node11&#45;&gt;Node11</title>
<path fill="none" stroke="midnightblue" d="M515.354,-122.487C518.502,-127.441 528.384,-131 545,-131 571.586,-131 580.933,-121.89 573.04,-112.53"/>
<polygon fill="midnightblue" stroke="midnightblue" points="518.823,-122.96 516.96,-112.53 511.912,-121.845 518.823,-122.96"/>
</g>
<!-- Node12&#45;&gt;Node2 -->
<g id="edge19" class="edge"><title>Node12&#45;&gt;Node2</title>
<path fill="none" stroke="midnightblue" d="M354.331,-68.5336C341.116,-72.3873 325.011,-77.0651 312,-84.5 280.272,-102.63 251.095,-133.644 233.673,-152.158"/>
<polygon fill="midnightblue" stroke="midnightblue" points="355.618,-71.8019 364.196,-65.5827 353.612,-65.0955 355.618,-71.8019"/>
</g>
<!-- Node13&#45;&gt;Node2 -->
<g id="edge21" class="edge"><title>Node13&#45;&gt;Node2</title>
<path fill="none" stroke="midnightblue" d="M342.045,-32.0766C331.686,-36.0468 320.865,-40.9413 312,-47.5 272.4,-76.7976 241.94,-127.236 227.055,-152.227"/>
<polygon fill="midnightblue" stroke="midnightblue" points="343.565,-35.2479 351.757,-28.5292 341.163,-28.6729 343.565,-35.2479"/>
</g>
</g>
</svg>
        <g id="navigator" transform="translate(0 0)" fill="#404254">
                <rect fill="#f2f5e9" fill-opacity="0.5" stroke="#606060" stroke-width=".5" x="0" y="0" width="60" height="60"/>
                <use id="zoomplus" xlink:href="#zoomPlus" x="17" y="9" onmousedown="handleZoom(evt,'in')"/>
                <use id="zoomminus" xlink:href="#zoomMin" x="42" y="9" onmousedown="handleZoom(evt,'out')"/>
                <use id="reset" xlink:href="#resetDef" x="30" y="36" onmousedown="handleReset()"/>
                <g id="arrowUp" xlink:href="#dirArrow" transform="translate(30 24)" onmousedown="handlePan(0,-1)">
                  <use xlink:href="#rim" fill="#404040">
                        <set attributeName="fill" to="#808080" begin="arrowUp.mouseover" end="arrowUp.mouseout"/>
                  </use>
                  <path fill="none" stroke="white" stroke-width="1.5" d="M0,-3.0v7 M-2.5,-0.5L0,-3.0L2.5,-0.5"/>
                </g>
                <g id="arrowRight" xlink:href="#dirArrow" transform="rotate(90) translate(36 -43)" onmousedown="handlePan(1,0)">
                  <use xlink:href="#rim" fill="#404040">
                        <set attributeName="fill" to="#808080" begin="arrowRight.mouseover" end="arrowRight.mouseout"/>
                  </use>
                  <path fill="none" stroke="white" stroke-width="1.5" d="M0,-3.0v7 M-2.5,-0.5L0,-3.0L2.5,-0.5"/>
                </g>
                <g id="arrowDown" xlink:href="#dirArrow" transform="rotate(180) translate(-30 -48)" onmousedown="handlePan(0,1)">
                  <use xlink:href="#rim" fill="#404040">
                        <set attributeName="fill" to="#808080" begin="arrowDown.mouseover" end="arrowDown.mouseout"/>
                  </use>
                  <path fill="none" stroke="white" stroke-width="1.5" d="M0,-3.0v7 M-2.5,-0.5L0,-3.0L2.5,-0.5"/>
                </g>
                <g id="arrowLeft" xlink:href="#dirArrow" transform="rotate(270) translate(-36 17)" onmousedown="handlePan(-1,0)">
                  <use xlink:href="#rim" fill="#404040">
                        <set attributeName="fill" to="#808080" begin="arrowLeft.mouseover" end="arrowLeft.mouseout"/>
                  </use>
                  <path fill="none" stroke="white" stroke-width="1.5" d="M0,-3.0v7 M-2.5,-0.5L0,-3.0L2.5,-0.5"/>
                </g>
        </g>
        <svg viewBox="0 0 15 15" width="100%" height="30px" preserveAspectRatio="xMaxYMin meet">
         <g id="arrow_out" transform="scale(0.3 0.3)">
          <a xlink:href="classprior__hessian_1_1ParetoDist_a0a1e20b0aa6c7b52c134fc2341b5fdd4_icgraph_org.svg" target="_base">
           <rect id="button" ry="5" rx="5" y="6" x="6" height="38" width="38"
                fill="#f2f5e9" fill-opacity="0.5" stroke="#606060" stroke-width="1.0"/>
           <path id="arrow"
             d="M 11.500037,31.436501 C 11.940474,20.09759 22.043105,11.32322 32.158766,21.979434 L 37.068811,17.246167 C 37.068811,17.246167 37.088388,32 37.088388,32 L 22.160133,31.978069 C 22.160133,31.978069 26.997745,27.140456 26.997745,27.140456 C 18.528582,18.264221 13.291696,25.230495 11.500037,31.436501 z"
             style="fill:#404040;"/>
          </a>
         </g>
        </svg>
</svg>
