<?xml version="1.0" encoding="UTF-8" standalone="no"?>
<!DOCTYPE svg PUBLIC "-//W3C//DTD SVG 1.1//EN"
 "http://www.w3.org/Graphics/SVG/1.1/DTD/svg11.dtd">
<!-- Generated by graphviz version 2.38.0 (20140413.2041)
 -->
<!-- Title: prior_hessian::TruncatedDist::TruncatedDist Pages: 1 -->
<svg width="437pt" height="225pt"
 viewBox="0.00 0.00 437.00 225.00" xmlns="http://www.w3.org/2000/svg" xmlns:xlink="http://www.w3.org/1999/xlink">
<g id="graph0" class="graph" transform="scale(1 1) rotate(0) translate(4 221)">
<title>prior_hessian::TruncatedDist::TruncatedDist</title>
<polygon fill="white" stroke="none" points="-4,4 -4,-221 433,-221 433,4 -4,4"/>
<!-- Node1 -->
<g id="node1" class="node"><title>Node1</title>
<polygon fill="#bfbfbf" stroke="black" points="0,-94.5 0,-122.5 119,-122.5 119,-94.5 0,-94.5"/>
<text text-anchor="start" x="8" y="-111.3" font-family="Helvetica,sans-Serif" font-size="9.00">prior_hessian::Truncated</text>
<text text-anchor="middle" x="59.5" y="-101.3" font-family="Helvetica,sans-Serif" font-size="9.00">Dist::TruncatedDist</text>
</g>
<!-- Node2 -->
<g id="node2" class="node"><title>Node2</title>
<g id="a_node2"><a xlink:href="classprior__hessian_1_1TruncatedDist.html#a9189a3e17c4bf37c22aebe327b79dd63" target="_top" xlink:title="prior_hessian::Truncated\lDist::set_bounds">
<polygon fill="white" stroke="black" points="155,-94.5 155,-122.5 274,-122.5 274,-94.5 155,-94.5"/>
<text text-anchor="start" x="163" y="-111.3" font-family="Helvetica,sans-Serif" font-size="9.00">prior_hessian::Truncated</text>
<text text-anchor="middle" x="214.5" y="-101.3" font-family="Helvetica,sans-Serif" font-size="9.00">Dist::set_bounds</text>
</a>
</g>
</g>
<!-- Node1&#45;&gt;Node2 -->
<g id="edge1" class="edge"><title>Node1&#45;&gt;Node2</title>
<path fill="none" stroke="midnightblue" d="M119.216,-108.5C127.544,-108.5 136.169,-108.5 144.667,-108.5"/>
<polygon fill="midnightblue" stroke="midnightblue" points="144.941,-112 154.941,-108.5 144.941,-105 144.941,-112"/>
</g>
<!-- Node3 -->
<g id="node3" class="node"><title>Node3</title>
<g id="a_node3"><a xlink:href="classprior__hessian_1_1TruncatedDist.html#a428f9be18df6710e160ee967b0f3a663" target="_top" xlink:title="prior_hessian::Truncated\lDist::global_lbound">
<polygon fill="white" stroke="black" points="310,-188.5 310,-216.5 429,-216.5 429,-188.5 310,-188.5"/>
<text text-anchor="start" x="318" y="-205.3" font-family="Helvetica,sans-Serif" font-size="9.00">prior_hessian::Truncated</text>
<text text-anchor="middle" x="369.5" y="-195.3" font-family="Helvetica,sans-Serif" font-size="9.00">Dist::global_lbound</text>
</a>
</g>
</g>
<!-- Node2&#45;&gt;Node3 -->
<g id="edge2" class="edge"><title>Node2&#45;&gt;Node3</title>
<path fill="none" stroke="midnightblue" d="M231.628,-122.776C249.728,-138.265 280.441,-162.986 310,-179.5 312.997,-181.174 316.14,-182.784 319.349,-184.32"/>
<polygon fill="midnightblue" stroke="midnightblue" points="317.943,-187.526 328.497,-188.447 320.821,-181.145 317.943,-187.526"/>
</g>
<!-- Node4 -->
<g id="node4" class="node"><title>Node4</title>
<g id="a_node4"><a xlink:href="classprior__hessian_1_1TruncatedDist.html#a79ec1c99c3aac7d38309e17808e422ab" target="_top" xlink:title="prior_hessian::Truncated\lDist::global_ubound">
<polygon fill="white" stroke="black" points="310,-141.5 310,-169.5 429,-169.5 429,-141.5 310,-141.5"/>
<text text-anchor="start" x="318" y="-158.3" font-family="Helvetica,sans-Serif" font-size="9.00">prior_hessian::Truncated</text>
<text text-anchor="middle" x="369.5" y="-148.3" font-family="Helvetica,sans-Serif" font-size="9.00">Dist::global_ubound</text>
</a>
</g>
</g>
<!-- Node2&#45;&gt;Node4 -->
<g id="edge3" class="edge"><title>Node2&#45;&gt;Node4</title>
<path fill="none" stroke="midnightblue" d="M261.405,-122.602C277.666,-127.597 296.136,-133.27 313.103,-138.483"/>
<polygon fill="midnightblue" stroke="midnightblue" points="312.304,-141.899 322.891,-141.489 314.36,-135.207 312.304,-141.899"/>
</g>
<!-- Node5 -->
<g id="node5" class="node"><title>Node5</title>
<g id="a_node5"><a xlink:href="classprior__hessian_1_1TruncatedDist.html#a46cba73068eff4d100e8184deebb8016" target="_top" xlink:title="prior_hessian::Truncated\lDist::ubound">
<polygon fill="white" stroke="black" points="310,-94.5 310,-122.5 429,-122.5 429,-94.5 310,-94.5"/>
<text text-anchor="start" x="318" y="-111.3" font-family="Helvetica,sans-Serif" font-size="9.00">prior_hessian::Truncated</text>
<text text-anchor="middle" x="369.5" y="-101.3" font-family="Helvetica,sans-Serif" font-size="9.00">Dist::ubound</text>
</a>
</g>
</g>
<!-- Node2&#45;&gt;Node5 -->
<g id="edge4" class="edge"><title>Node2&#45;&gt;Node5</title>
<path fill="none" stroke="midnightblue" d="M274.216,-108.5C282.544,-108.5 291.169,-108.5 299.667,-108.5"/>
<polygon fill="midnightblue" stroke="midnightblue" points="299.941,-112 309.941,-108.5 299.941,-105 299.941,-112"/>
</g>
<!-- Node6 -->
<g id="node6" class="node"><title>Node6</title>
<g id="a_node6"><a xlink:href="classprior__hessian_1_1TruncatedDist.html#a255e94539840457c405d2621849c2635" target="_top" xlink:title="prior_hessian::Truncated\lDist::truncated">
<polygon fill="white" stroke="black" points="310,-47.5 310,-75.5 429,-75.5 429,-47.5 310,-47.5"/>
<text text-anchor="start" x="318" y="-64.3" font-family="Helvetica,sans-Serif" font-size="9.00">prior_hessian::Truncated</text>
<text text-anchor="middle" x="369.5" y="-54.3" font-family="Helvetica,sans-Serif" font-size="9.00">Dist::truncated</text>
</a>
</g>
</g>
<!-- Node2&#45;&gt;Node6 -->
<g id="edge5" class="edge"><title>Node2&#45;&gt;Node6</title>
<path fill="none" stroke="midnightblue" d="M261.405,-94.3985C277.666,-89.4031 296.136,-83.7295 313.103,-78.5174"/>
<polygon fill="midnightblue" stroke="midnightblue" points="314.36,-81.7928 322.891,-75.5106 312.304,-75.1014 314.36,-81.7928"/>
</g>
<!-- Node7 -->
<g id="node7" class="node"><title>Node7</title>
<g id="a_node7"><a xlink:href="classprior__hessian_1_1TruncatedDist.html#a9e67788ba67e88cedc65f5166f6448ce" target="_top" xlink:title="prior_hessian::Truncated\lDist::lbound">
<polygon fill="white" stroke="black" points="310,-0.5 310,-28.5 429,-28.5 429,-0.5 310,-0.5"/>
<text text-anchor="start" x="318" y="-17.3" font-family="Helvetica,sans-Serif" font-size="9.00">prior_hessian::Truncated</text>
<text text-anchor="middle" x="369.5" y="-7.3" font-family="Helvetica,sans-Serif" font-size="9.00">Dist::lbound</text>
</a>
</g>
</g>
<!-- Node2&#45;&gt;Node7 -->
<g id="edge6" class="edge"><title>Node2&#45;&gt;Node7</title>
<path fill="none" stroke="midnightblue" d="M232.041,-94.2484C250.254,-79.0488 280.833,-54.9463 310,-38.5 313.604,-36.4679 317.414,-34.514 321.293,-32.6593"/>
<polygon fill="midnightblue" stroke="midnightblue" points="322.743,-35.8446 330.4,-28.5215 319.848,-29.4715 322.743,-35.8446"/>
</g>
</g>
</svg>
