<?xml version="1.0" encoding="UTF-8" standalone="no"?>
<!DOCTYPE svg PUBLIC "-//W3C//DTD SVG 1.1//EN"
 "http://www.w3.org/Graphics/SVG/1.1/DTD/svg11.dtd">
<!-- Generated by graphviz version 2.38.0 (20140413.2041)
 -->
<!-- Title: prior_hessian::MultivariateNormalDist::cdf Pages: 1 -->
<svg width="428pt" height="131pt"
 viewBox="0.00 0.00 428.00 131.00" xmlns="http://www.w3.org/2000/svg" xmlns:xlink="http://www.w3.org/1999/xlink">
<g id="graph0" class="graph" transform="scale(1 1) rotate(0) translate(4 127)">
<title>prior_hessian::MultivariateNormalDist::cdf</title>
<polygon fill="white" stroke="none" points="-4,4 -4,-127 424,-127 424,4 -4,4"/>
<!-- Node1 -->
<g id="node1" class="node"><title>Node1</title>
<polygon fill="#bfbfbf" stroke="black" points="0,-47.5 0,-75.5 125,-75.5 125,-47.5 0,-47.5"/>
<text text-anchor="start" x="8" y="-64.3" font-family="Helvetica,sans-Serif" font-size="9.00">prior_hessian::Multivariate</text>
<text text-anchor="middle" x="62.5" y="-54.3" font-family="Helvetica,sans-Serif" font-size="9.00">NormalDist::cdf</text>
</g>
<!-- Node2 -->
<g id="node2" class="node"><title>Node2</title>
<g id="a_node2"><a xlink:href="classprior__hessian_1_1MultivariateNormalDist.html#a53e894d82ca08f285fc004b77301495d" target="_top" xlink:title="prior_hessian::Multivariate\lNormalDist::mu">
<polygon fill="white" stroke="black" points="161,-94.5 161,-122.5 286,-122.5 286,-94.5 161,-94.5"/>
<text text-anchor="start" x="169" y="-111.3" font-family="Helvetica,sans-Serif" font-size="9.00">prior_hessian::Multivariate</text>
<text text-anchor="middle" x="223.5" y="-101.3" font-family="Helvetica,sans-Serif" font-size="9.00">NormalDist::mu</text>
</a>
</g>
</g>
<!-- Node1&#45;&gt;Node2 -->
<g id="edge1" class="edge"><title>Node1&#45;&gt;Node2</title>
<path fill="none" stroke="midnightblue" d="M111.205,-75.6015C128.262,-80.6435 147.657,-86.3766 165.424,-91.6286"/>
<polygon fill="midnightblue" stroke="midnightblue" points="164.521,-95.0111 175.103,-94.4894 166.505,-88.2982 164.521,-95.0111"/>
</g>
<!-- Node3 -->
<g id="node3" class="node"><title>Node3</title>
<g id="a_node3"><a xlink:href="namespaceprior__hessian_1_1genz.html#a5462d1271384fa7431ee84709c0f8a88" target="_top" xlink:title="prior_hessian::genz\l::mvn_cdf_genz">
<polygon fill="white" stroke="black" points="174.5,-47.5 174.5,-75.5 272.5,-75.5 272.5,-47.5 174.5,-47.5"/>
<text text-anchor="start" x="182.5" y="-64.3" font-family="Helvetica,sans-Serif" font-size="9.00">prior_hessian::genz</text>
<text text-anchor="middle" x="223.5" y="-54.3" font-family="Helvetica,sans-Serif" font-size="9.00">::mvn_cdf_genz</text>
</a>
</g>
</g>
<!-- Node1&#45;&gt;Node3 -->
<g id="edge2" class="edge"><title>Node1&#45;&gt;Node3</title>
<path fill="none" stroke="midnightblue" d="M125.429,-61.5C138.1,-61.5 151.397,-61.5 163.945,-61.5"/>
<polygon fill="midnightblue" stroke="midnightblue" points="164.279,-65.0001 174.279,-61.5 164.279,-58.0001 164.279,-65.0001"/>
</g>
<!-- Node5 -->
<g id="node5" class="node"><title>Node5</title>
<g id="a_node5"><a xlink:href="classprior__hessian_1_1MultivariateNormalDist.html#aa4e86dd2b8e088553aac8c6b0fa50832" target="_top" xlink:title="prior_hessian::Multivariate\lNormalDist::sigma">
<polygon fill="white" stroke="black" points="161,-0.5 161,-28.5 286,-28.5 286,-0.5 161,-0.5"/>
<text text-anchor="start" x="169" y="-17.3" font-family="Helvetica,sans-Serif" font-size="9.00">prior_hessian::Multivariate</text>
<text text-anchor="middle" x="223.5" y="-7.3" font-family="Helvetica,sans-Serif" font-size="9.00">NormalDist::sigma</text>
</a>
</g>
</g>
<!-- Node1&#45;&gt;Node5 -->
<g id="edge4" class="edge"><title>Node1&#45;&gt;Node5</title>
<path fill="none" stroke="midnightblue" d="M111.205,-47.3985C128.262,-42.3565 147.657,-36.6234 165.424,-31.3714"/>
<polygon fill="midnightblue" stroke="midnightblue" points="166.505,-34.7018 175.103,-28.5106 164.521,-27.9889 166.505,-34.7018"/>
</g>
<!-- Node4 -->
<g id="node4" class="node"><title>Node4</title>
<g id="a_node4"><a xlink:href="namespaceprior__hessian_1_1genz_1_1fortran.html#a3aa3e81ace64048700679aa6ab8f0879" target="_top" xlink:title="prior_hessian::genz\l::fortran::mvndst_">
<polygon fill="white" stroke="black" points="322,-47.5 322,-75.5 420,-75.5 420,-47.5 322,-47.5"/>
<text text-anchor="start" x="330" y="-64.3" font-family="Helvetica,sans-Serif" font-size="9.00">prior_hessian::genz</text>
<text text-anchor="middle" x="371" y="-54.3" font-family="Helvetica,sans-Serif" font-size="9.00">::fortran::mvndst_</text>
</a>
</g>
</g>
<!-- Node3&#45;&gt;Node4 -->
<g id="edge3" class="edge"><title>Node3&#45;&gt;Node4</title>
<path fill="none" stroke="midnightblue" d="M272.545,-61.5C284.955,-61.5 298.453,-61.5 311.338,-61.5"/>
<polygon fill="midnightblue" stroke="midnightblue" points="311.508,-65.0001 321.508,-61.5 311.508,-58.0001 311.508,-65.0001"/>
</g>
</g>
</svg>
