<?xml version="1.0" encoding="UTF-8" standalone="no"?>
<!DOCTYPE svg PUBLIC "-//W3C//DTD SVG 1.1//EN"
 "http://www.w3.org/Graphics/SVG/1.1/DTD/svg11.dtd">
<!-- Generated by graphviz version 2.38.0 (20140413.2041)
 -->
<!-- Title: prior_hessian::AMHCopula::check_theta Pages: 1 -->
<!--zoomable 619 -->
<svg id="main" version="1.1" xmlns="http://www.w3.org/2000/svg" xmlns:xlink="http://www.w3.org/1999/xlink" xml:space="preserve" onload="init(evt)">
<style type="text/css"><![CDATA[
.edge:hover path { stroke: red; }
.edge:hover polygon { stroke: red; fill: red; }
]]></style>
<script type="text/javascript"><![CDATA[
var edges = document.getElementsByTagName('g');
if (edges && edges.length) {
  for (var i=0;i<edges.length;i++) {
    if (edges[i].id.substr(0,4)=='edge') {
      edges[i].setAttribute('class','edge');
    }
  }
}
]]></script>
        <defs>
                <circle id="rim" cx="0" cy="0" r="7"/>
                <circle id="rim2" cx="0" cy="0" r="3.5"/>
                <g id="zoomPlus">
                        <use xlink:href="#rim" fill="#404040">
                                <set attributeName="fill" to="#808080" begin="zoomplus.mouseover" end="zoomplus.mouseout"/>
                        </use>
                        <path d="M-4,0h8M0,-4v8" fill="none" stroke="white" stroke-width="1.5" pointer-events="none"/>
                </g>
                <g id="zoomMin">
                        <use xlink:href="#rim" fill="#404040">
                                <set attributeName="fill" to="#808080" begin="zoomminus.mouseover" end="zoomminus.mouseout"/>
                        </use>
                        <path d="M-4,0h8" fill="none" stroke="white" stroke-width="1.5" pointer-events="none"/>
                </g>
                <g id="dirArrow">
                        <path fill="none" stroke="white" stroke-width="1.5" d="M0,-3.0v7 M-2.5,-0.5L0,-3.0L2.5,-0.5"/>
                </g>
               <g id="resetDef">
                       <use xlink:href="#rim2" fill="#404040">
                               <set attributeName="fill" to="#808080" begin="reset.mouseover" end="reset.mouseout"/>
                       </use>
               </g>
        </defs>

<script type="text/javascript">
var viewWidth = 1153;
var viewHeight = 619;
var sectionId = 'dynsection-9';
</script>
<script xlink:href="svgpan.js"/>
<svg id="graph" class="graph">
<g id="viewport">
<title>prior_hessian::AMHCopula::check_theta</title>
<polygon fill="white" stroke="none" points="-4,4 -4,-615 1149,-615 1149,4 -4,4"/>
<!-- Node1 -->
<g id="node1" class="node"><title>Node1</title>
<polygon fill="#bfbfbf" stroke="black" points="0,-138.5 0,-166.5 128,-166.5 128,-138.5 0,-138.5"/>
<text text-anchor="start" x="8" y="-155.3" font-family="Helvetica,sans-Serif" font-size="9.00">prior_hessian::AMHCopula</text>
<text text-anchor="middle" x="64" y="-145.3" font-family="Helvetica,sans-Serif" font-size="9.00">::check_theta</text>
</g>
<!-- Node2 -->
<g id="node2" class="node"><title>Node2</title>
<g id="a_node2"><a xlink:href="classprior__hessian_1_1AMHCopula.html#a7052e693079deb29636e505aa37072a5" target="_top" xlink:title="prior_hessian::AMHCopula\l::check_params">
<polygon fill="white" stroke="black" points="164,-209.5 164,-237.5 292,-237.5 292,-209.5 164,-209.5"/>
<text text-anchor="start" x="172" y="-226.3" font-family="Helvetica,sans-Serif" font-size="9.00">prior_hessian::AMHCopula</text>
<text text-anchor="middle" x="228" y="-216.3" font-family="Helvetica,sans-Serif" font-size="9.00">::check_params</text>
</a>
</g>
</g>
<!-- Node1&#45;&gt;Node2 -->
<g id="edge1" class="edge"><title>Node1&#45;&gt;Node2</title>
<path fill="none" stroke="midnightblue" d="M102.517,-171.172C120.892,-180.096 143.438,-190.719 164,-199.5 171.858,-202.856 180.357,-206.249 188.492,-209.386"/>
<polygon fill="midnightblue" stroke="midnightblue" points="103.842,-167.924 93.3204,-166.679 100.769,-174.213 103.842,-167.924"/>
</g>
<!-- Node3 -->
<g id="node3" class="node"><title>Node3</title>
<g id="a_node3"><a xlink:href="classprior__hessian_1_1AMHCopula.html#a5878ce4111fcb580ed74d5100aafc37b" target="_top" xlink:title="prior_hessian::AMHCopula\l::check_params_iter">
<polygon fill="white" stroke="black" points="164,-162.5 164,-190.5 292,-190.5 292,-162.5 164,-162.5"/>
<text text-anchor="start" x="172" y="-179.3" font-family="Helvetica,sans-Serif" font-size="9.00">prior_hessian::AMHCopula</text>
<text text-anchor="middle" x="228" y="-169.3" font-family="Helvetica,sans-Serif" font-size="9.00">::check_params_iter</text>
</a>
</g>
</g>
<!-- Node1&#45;&gt;Node3 -->
<g id="edge2" class="edge"><title>Node1&#45;&gt;Node3</title>
<path fill="none" stroke="midnightblue" d="M138.094,-163.329C146.676,-164.6 155.378,-165.889 163.808,-167.138"/>
<polygon fill="midnightblue" stroke="midnightblue" points="138.502,-159.851 128.097,-161.848 137.476,-166.776 138.502,-159.851"/>
</g>
<!-- Node4 -->
<g id="node4" class="node"><title>Node4</title>
<g id="a_node4"><a xlink:href="classprior__hessian_1_1AMHCopula.html#a7bb6324e170cdc4cc9b1721cd12e99e5" target="_top" xlink:title="prior_hessian::AMHCopula\l::param_ubound">
<polygon fill="white" stroke="black" points="164,-115.5 164,-143.5 292,-143.5 292,-115.5 164,-115.5"/>
<text text-anchor="start" x="172" y="-132.3" font-family="Helvetica,sans-Serif" font-size="9.00">prior_hessian::AMHCopula</text>
<text text-anchor="middle" x="228" y="-122.3" font-family="Helvetica,sans-Serif" font-size="9.00">::param_ubound</text>
</a>
</g>
</g>
<!-- Node1&#45;&gt;Node4 -->
<g id="edge3" class="edge"><title>Node1&#45;&gt;Node4</title>
<path fill="none" stroke="midnightblue" d="M138.094,-142.122C146.676,-140.904 155.378,-139.669 163.808,-138.472"/>
<polygon fill="midnightblue" stroke="midnightblue" points="137.506,-138.671 128.097,-143.542 138.49,-145.601 137.506,-138.671"/>
</g>
<!-- Node5 -->
<g id="node5" class="node"><title>Node5</title>
<g id="a_node5"><a xlink:href="classprior__hessian_1_1AMHCopula.html#a80bcb09b15bdb3c404f028772932c081" target="_top" xlink:title="prior_hessian::AMHCopula\l::set_theta">
<polygon fill="white" stroke="black" points="164,-68.5 164,-96.5 292,-96.5 292,-68.5 164,-68.5"/>
<text text-anchor="start" x="172" y="-85.3" font-family="Helvetica,sans-Serif" font-size="9.00">prior_hessian::AMHCopula</text>
<text text-anchor="middle" x="228" y="-75.3" font-family="Helvetica,sans-Serif" font-size="9.00">::set_theta</text>
</a>
</g>
</g>
<!-- Node1&#45;&gt;Node5 -->
<g id="edge4" class="edge"><title>Node1&#45;&gt;Node5</title>
<path fill="none" stroke="midnightblue" d="M102.065,-133.897C120.5,-124.903 143.228,-114.2 164,-105.5 171.303,-102.441 179.171,-99.3846 186.789,-96.5448"/>
<polygon fill="midnightblue" stroke="midnightblue" points="100.281,-130.873 92.8494,-138.424 103.368,-137.156 100.281,-130.873"/>
</g>
<!-- Node6 -->
<g id="node6" class="node"><title>Node6</title>
<g id="a_node6"><a xlink:href="classprior__hessian_1_1AMHCopula.html#a11696b4a8cef12a30706cd745820b201" target="_top" xlink:title="prior_hessian::AMHCopula\l::theta">
<polygon fill="white" stroke="black" points="328,-314.5 328,-342.5 456,-342.5 456,-314.5 328,-314.5"/>
<text text-anchor="start" x="336" y="-331.3" font-family="Helvetica,sans-Serif" font-size="9.00">prior_hessian::AMHCopula</text>
<text text-anchor="middle" x="392" y="-321.3" font-family="Helvetica,sans-Serif" font-size="9.00">::theta</text>
</a>
</g>
</g>
<!-- Node5&#45;&gt;Node6 -->
<g id="edge5" class="edge"><title>Node5&#45;&gt;Node6</title>
<path fill="none" stroke="midnightblue" d="M288.045,-102.149C289.42,-103.209 290.742,-104.325 292,-105.5 356.376,-165.655 381.496,-275.273 388.653,-314.265"/>
<polygon fill="midnightblue" stroke="midnightblue" points="289.953,-99.2147 279.667,-96.6719 286.122,-105.074 289.953,-99.2147"/>
</g>
<!-- Node13 -->
<g id="node13" class="node"><title>Node13</title>
<g id="a_node13"><a xlink:href="classprior__hessian_1_1AMHCopula.html#a5f5ab047fa0c58b93e7b8e072bc9c682" target="_top" xlink:title="prior_hessian::AMHCopula\l::set_params_iter">
<polygon fill="white" stroke="black" points="1017,-234.5 1017,-262.5 1145,-262.5 1145,-234.5 1017,-234.5"/>
<text text-anchor="start" x="1025" y="-251.3" font-family="Helvetica,sans-Serif" font-size="9.00">prior_hessian::AMHCopula</text>
<text text-anchor="middle" x="1081" y="-241.3" font-family="Helvetica,sans-Serif" font-size="9.00">::set_params_iter</text>
</a>
</g>
</g>
<!-- Node5&#45;&gt;Node13 -->
<g id="edge30" class="edge"><title>Node5&#45;&gt;Node13</title>
<path fill="none" stroke="midnightblue" d="M302.318,-90.2813C368.327,-96.611 468.04,-104.5 555,-104.5 555,-104.5 555,-104.5 729.5,-104.5 841.596,-104.5 881.998,-70.9249 981,-123.5 1028.43,-148.689 1060.83,-207.486 1073.74,-234.488"/>
<polygon fill="midnightblue" stroke="midnightblue" points="302.312,-86.7643 292.02,-89.2802 301.635,-93.7315 302.312,-86.7643"/>
</g>
<!-- Node20 -->
<g id="node20" class="node"><title>Node20</title>
<g id="a_node20"><a xlink:href="classprior__hessian_1_1AMHCopula.html#a20cebde68e635d3ad7d0ad67fbcd711e" target="_top" xlink:title="prior_hessian::AMHCopula\l::set_params">
<polygon fill="white" stroke="black" points="328,-47.5 328,-75.5 456,-75.5 456,-47.5 328,-47.5"/>
<text text-anchor="start" x="336" y="-64.3" font-family="Helvetica,sans-Serif" font-size="9.00">prior_hessian::AMHCopula</text>
<text text-anchor="middle" x="392" y="-54.3" font-family="Helvetica,sans-Serif" font-size="9.00">::set_params</text>
</a>
</g>
</g>
<!-- Node5&#45;&gt;Node20 -->
<g id="edge29" class="edge"><title>Node5&#45;&gt;Node20</title>
<path fill="none" stroke="midnightblue" d="M302.094,-73.0249C310.676,-71.9124 319.378,-70.7844 327.808,-69.6915"/>
<polygon fill="midnightblue" stroke="midnightblue" points="301.564,-69.5641 292.097,-74.3207 302.464,-76.5061 301.564,-69.5641"/>
</g>
<!-- Node21 -->
<g id="node21" class="node"><title>Node21</title>
<g id="a_node21"><a xlink:href="classprior__hessian_1_1AMHCopula.html#a47d4b9c294f1a41069d8991513e81351" target="_top" xlink:title="prior_hessian::AMHCopula\l::AMHCopula">
<polygon fill="white" stroke="black" points="328,-0.5 328,-28.5 456,-28.5 456,-0.5 328,-0.5"/>
<text text-anchor="start" x="336" y="-17.3" font-family="Helvetica,sans-Serif" font-size="9.00">prior_hessian::AMHCopula</text>
<text text-anchor="middle" x="392" y="-7.3" font-family="Helvetica,sans-Serif" font-size="9.00">::AMHCopula</text>
</a>
</g>
</g>
<!-- Node5&#45;&gt;Node21 -->
<g id="edge31" class="edge"><title>Node5&#45;&gt;Node21</title>
<path fill="none" stroke="midnightblue" d="M267.745,-64.0573C285.901,-55.6302 307.912,-45.7183 328,-37.5 335.436,-34.4579 343.44,-31.3848 351.166,-28.5184"/>
<polygon fill="midnightblue" stroke="midnightblue" points="266.213,-60.9099 258.633,-68.312 269.175,-67.2525 266.213,-60.9099"/>
</g>
<!-- Node7 -->
<g id="node7" class="node"><title>Node7</title>
<g id="a_node7"><a xlink:href="classprior__hessian_1_1AMHCopula.html#aea48377467c59f5f882e88f6611a8b56" target="_top" xlink:title="prior_hessian::AMHCopula\l::AMHCopula">
<polygon fill="white" stroke="black" points="492,-582.5 492,-610.5 620,-610.5 620,-582.5 492,-582.5"/>
<text text-anchor="start" x="500" y="-599.3" font-family="Helvetica,sans-Serif" font-size="9.00">prior_hessian::AMHCopula</text>
<text text-anchor="middle" x="556" y="-589.3" font-family="Helvetica,sans-Serif" font-size="9.00">::AMHCopula</text>
</a>
</g>
</g>
<!-- Node6&#45;&gt;Node7 -->
<g id="edge6" class="edge"><title>Node6&#45;&gt;Node7</title>
<path fill="none" stroke="midnightblue" d="M396.194,-352.797C403.835,-401.394 427.583,-511.235 492,-573.5 495.6,-576.98 499.768,-579.939 504.212,-582.455"/>
<polygon fill="midnightblue" stroke="midnightblue" points="399.613,-351.989 394.69,-342.607 392.688,-353.011 399.613,-351.989"/>
</g>
<!-- Node8 -->
<g id="node8" class="node"><title>Node8</title>
<g id="a_node8"><a xlink:href="classprior__hessian_1_1AMHCopula.html#a29ff4d88263399c4ee76233644c0de9f" target="_top" xlink:title="prior_hessian::AMHCopula\l::operator==">
<polygon fill="white" stroke="black" points="492,-535.5 492,-563.5 620,-563.5 620,-535.5 492,-535.5"/>
<text text-anchor="start" x="500" y="-552.3" font-family="Helvetica,sans-Serif" font-size="9.00">prior_hessian::AMHCopula</text>
<text text-anchor="middle" x="556" y="-542.3" font-family="Helvetica,sans-Serif" font-size="9.00">::operator==</text>
</a>
</g>
</g>
<!-- Node6&#45;&gt;Node8 -->
<g id="edge7" class="edge"><title>Node6&#45;&gt;Node8</title>
<path fill="none" stroke="midnightblue" d="M398.73,-352.422C409.795,-393.636 437.924,-478.243 492,-526.5 495.909,-529.989 500.391,-532.962 505.123,-535.492"/>
<polygon fill="midnightblue" stroke="midnightblue" points="402.109,-351.507 396.223,-342.698 395.331,-353.255 402.109,-351.507"/>
</g>
<!-- Node9 -->
<g id="node9" class="node"><title>Node9</title>
<g id="a_node9"><a xlink:href="classprior__hessian_1_1AMHCopula.html#a52be601283a5a2dc619492d74fad860f" target="_top" xlink:title="prior_hessian::AMHCopula\l::operator!=">
<polygon fill="white" stroke="black" points="492,-488.5 492,-516.5 620,-516.5 620,-488.5 492,-488.5"/>
<text text-anchor="start" x="500" y="-505.3" font-family="Helvetica,sans-Serif" font-size="9.00">prior_hessian::AMHCopula</text>
<text text-anchor="middle" x="556" y="-495.3" font-family="Helvetica,sans-Serif" font-size="9.00">::operator!=</text>
</a>
</g>
</g>
<!-- Node6&#45;&gt;Node9 -->
<g id="edge8" class="edge"><title>Node6&#45;&gt;Node9</title>
<path fill="none" stroke="midnightblue" d="M402.662,-352.064C417.308,-385.021 448.143,-444.735 492,-479.5 496.38,-482.972 501.332,-485.95 506.488,-488.498"/>
<polygon fill="midnightblue" stroke="midnightblue" points="405.818,-350.544 398.64,-342.752 399.392,-353.32 405.818,-350.544"/>
</g>
<!-- Node10 -->
<g id="node10" class="node"><title>Node10</title>
<g id="a_node10"><a xlink:href="classprior__hessian_1_1AMHCopula.html#a244661696f89f48e7466f095c1d3c536" target="_top" xlink:title="prior_hessian::AMHCopula\l::append_params">
<polygon fill="white" stroke="black" points="492,-441.5 492,-469.5 620,-469.5 620,-441.5 492,-441.5"/>
<text text-anchor="start" x="500" y="-458.3" font-family="Helvetica,sans-Serif" font-size="9.00">prior_hessian::AMHCopula</text>
<text text-anchor="middle" x="556" y="-448.3" font-family="Helvetica,sans-Serif" font-size="9.00">::append_params</text>
</a>
</g>
</g>
<!-- Node6&#45;&gt;Node10 -->
<g id="edge9" class="edge"><title>Node6&#45;&gt;Node10</title>
<path fill="none" stroke="midnightblue" d="M409.598,-350.88C427.646,-373.852 458.436,-409.289 492,-431.5 497.661,-435.246 503.991,-438.527 510.396,-441.361"/>
<polygon fill="midnightblue" stroke="midnightblue" points="412.202,-348.524 403.326,-342.739 406.657,-352.797 412.202,-348.524"/>
</g>
<!-- Node11 -->
<g id="node11" class="node"><title>Node11</title>
<g id="a_node11"><a xlink:href="classprior__hessian_1_1AMHCopula.html#a38e091a72ecb8c9df42e88017b2d347e" target="_top" xlink:title="prior_hessian::AMHCopula\l::igen_sum">
<polygon fill="white" stroke="black" points="492,-376.5 492,-404.5 620,-404.5 620,-376.5 492,-376.5"/>
<text text-anchor="start" x="500" y="-393.3" font-family="Helvetica,sans-Serif" font-size="9.00">prior_hessian::AMHCopula</text>
<text text-anchor="middle" x="556" y="-383.3" font-family="Helvetica,sans-Serif" font-size="9.00">::igen_sum</text>
</a>
</g>
</g>
<!-- Node6&#45;&gt;Node11 -->
<g id="edge10" class="edge"><title>Node6&#45;&gt;Node11</title>
<path fill="none" stroke="midnightblue" d="M439.427,-346.269C464.499,-355.864 495.009,-367.541 518.385,-376.487"/>
<polygon fill="midnightblue" stroke="midnightblue" points="440.351,-342.874 429.76,-342.569 437.849,-349.412 440.351,-342.874"/>
</g>
<!-- Node14 -->
<g id="node14" class="node"><title>Node14</title>
<g id="a_node14"><a xlink:href="classprior__hessian_1_1AMHCopula.html#a19aecc89d6a1d6c46aa595a13999cfb2" target="_top" xlink:title="prior_hessian::AMHCopula\l::d1_igen">
<polygon fill="white" stroke="black" points="664.5,-338.5 664.5,-366.5 792.5,-366.5 792.5,-338.5 664.5,-338.5"/>
<text text-anchor="start" x="672.5" y="-355.3" font-family="Helvetica,sans-Serif" font-size="9.00">prior_hessian::AMHCopula</text>
<text text-anchor="middle" x="728.5" y="-345.3" font-family="Helvetica,sans-Serif" font-size="9.00">::d1_igen</text>
</a>
</g>
</g>
<!-- Node6&#45;&gt;Node14 -->
<g id="edge28" class="edge"><title>Node6&#45;&gt;Node14</title>
<path fill="none" stroke="midnightblue" d="M466.351,-333.763C525.608,-338.014 608.129,-343.935 664.449,-347.976"/>
<polygon fill="midnightblue" stroke="midnightblue" points="466.535,-330.267 456.31,-333.042 466.034,-337.249 466.535,-330.267"/>
</g>
<!-- Node15 -->
<g id="node15" class="node"><title>Node15</title>
<g id="a_node15"><a xlink:href="classprior__hessian_1_1AMHCopula.html#aa18585757cb2d4b0723ed80258281278" target="_top" xlink:title="prior_hessian::AMHCopula::cdf">
<polygon fill="white" stroke="black" points="837,-296.5 837,-314.5 981,-314.5 981,-296.5 837,-296.5"/>
<text text-anchor="middle" x="909" y="-303.3" font-family="Helvetica,sans-Serif" font-size="9.00">prior_hessian::AMHCopula::cdf</text>
</a>
</g>
</g>
<!-- Node6&#45;&gt;Node15 -->
<g id="edge17" class="edge"><title>Node6&#45;&gt;Node15</title>
<path fill="none" stroke="midnightblue" d="M466.334,-325.225C565.012,-320.818 739.378,-313.031 836.898,-308.675"/>
<polygon fill="midnightblue" stroke="midnightblue" points="465.983,-321.737 456.149,-325.68 466.295,-328.73 465.983,-321.737"/>
</g>
<!-- Node16 -->
<g id="node16" class="node"><title>Node16</title>
<g id="a_node16"><a xlink:href="classprior__hessian_1_1AMHCopula.html#a8129324c2c30bd4900396198b0c9b957" target="_top" xlink:title="prior_hessian::AMHCopula::pdf">
<polygon fill="white" stroke="black" points="656,-262.5 656,-280.5 801,-280.5 801,-262.5 656,-262.5"/>
<text text-anchor="middle" x="728.5" y="-269.3" font-family="Helvetica,sans-Serif" font-size="9.00">prior_hessian::AMHCopula::pdf</text>
</a>
</g>
</g>
<!-- Node6&#45;&gt;Node16 -->
<g id="edge19" class="edge"><title>Node6&#45;&gt;Node16</title>
<path fill="none" stroke="midnightblue" d="M438.181,-311.11C454.87,-305.309 474.084,-299.35 492,-295.5 546.243,-283.845 608.767,-277.808 655.754,-274.705"/>
<polygon fill="midnightblue" stroke="midnightblue" points="436.925,-307.842 428.676,-314.49 439.271,-314.437 436.925,-307.842"/>
</g>
<!-- Node17 -->
<g id="node17" class="node"><title>Node17</title>
<g id="a_node17"><a xlink:href="classprior__hessian_1_1AMHCopula.html#a7c3f0e7eb7f4c8eecd37563c35e1f819" target="_top" xlink:title="prior_hessian::AMHCopula\l::grad">
<polygon fill="white" stroke="black" points="664.5,-215.5 664.5,-243.5 792.5,-243.5 792.5,-215.5 664.5,-215.5"/>
<text text-anchor="start" x="672.5" y="-232.3" font-family="Helvetica,sans-Serif" font-size="9.00">prior_hessian::AMHCopula</text>
<text text-anchor="middle" x="728.5" y="-222.3" font-family="Helvetica,sans-Serif" font-size="9.00">::grad</text>
</a>
</g>
</g>
<!-- Node6&#45;&gt;Node17 -->
<g id="edge21" class="edge"><title>Node6&#45;&gt;Node17</title>
<path fill="none" stroke="midnightblue" d="M422.648,-309.15C441.745,-297.504 467.497,-283.28 492,-274.5 548.525,-254.245 616.122,-242.529 664.366,-236.16"/>
<polygon fill="midnightblue" stroke="midnightblue" points="420.754,-306.206 414.108,-314.457 424.449,-312.152 420.754,-306.206"/>
</g>
<!-- Node18 -->
<g id="node18" class="node"><title>Node18</title>
<g id="a_node18"><a xlink:href="classprior__hessian_1_1AMHCopula.html#af87cadcd28d6af3fa8249932f7d01ec7" target="_top" xlink:title="prior_hessian::AMHCopula\l::grad2">
<polygon fill="white" stroke="black" points="492,-176.5 492,-204.5 620,-204.5 620,-176.5 492,-176.5"/>
<text text-anchor="start" x="500" y="-193.3" font-family="Helvetica,sans-Serif" font-size="9.00">prior_hessian::AMHCopula</text>
<text text-anchor="middle" x="556" y="-183.3" font-family="Helvetica,sans-Serif" font-size="9.00">::grad2</text>
</a>
</g>
</g>
<!-- Node6&#45;&gt;Node18 -->
<g id="edge23" class="edge"><title>Node6&#45;&gt;Node18</title>
<path fill="none" stroke="midnightblue" d="M408.814,-306.322C426.774,-282.398 458.026,-244.397 492,-219.5 499.867,-213.735 509.062,-208.715 517.958,-204.546"/>
<polygon fill="midnightblue" stroke="midnightblue" points="405.939,-304.324 402.818,-314.449 411.572,-308.48 405.939,-304.324"/>
</g>
<!-- Node19 -->
<g id="node19" class="node"><title>Node19</title>
<g id="a_node19"><a xlink:href="classprior__hessian_1_1AMHCopula.html#a324c075c80fb95ed8b69bd601e6a4de6" target="_top" xlink:title="prior_hessian::AMHCopula\l::hess">
<polygon fill="white" stroke="black" points="845,-133.5 845,-161.5 973,-161.5 973,-133.5 845,-133.5"/>
<text text-anchor="start" x="853" y="-150.3" font-family="Helvetica,sans-Serif" font-size="9.00">prior_hessian::AMHCopula</text>
<text text-anchor="middle" x="909" y="-140.3" font-family="Helvetica,sans-Serif" font-size="9.00">::hess</text>
</a>
</g>
</g>
<!-- Node6&#45;&gt;Node19 -->
<g id="edge26" class="edge"><title>Node6&#45;&gt;Node19</title>
<path fill="none" stroke="midnightblue" d="M399.728,-304.5C411.536,-267.438 439.836,-197.341 492,-166.5 602.777,-101.006 760.624,-117.404 846.528,-133.476"/>
<polygon fill="midnightblue" stroke="midnightblue" points="396.266,-303.854 396.706,-314.44 402.963,-305.89 396.266,-303.854"/>
</g>
<!-- Node11&#45;&gt;Node11 -->
<g id="edge11" class="edge"><title>Node11&#45;&gt;Node11</title>
<path fill="none" stroke="midnightblue" d="M526.354,-414.487C529.502,-419.441 539.384,-423 556,-423 582.586,-423 591.933,-413.89 584.04,-404.53"/>
<polygon fill="midnightblue" stroke="midnightblue" points="529.823,-414.96 527.96,-404.53 522.912,-413.845 529.823,-414.96"/>
</g>
<!-- Node12 -->
<g id="node12" class="node"><title>Node12</title>
<g id="a_node12"><a xlink:href="classprior__hessian_1_1AMHCopula.html#ad1ce11681554712db7a56bb4cb54c3e9" target="_top" xlink:title="prior_hessian::AMHCopula::llh">
<polygon fill="white" stroke="black" points="838,-372.5 838,-390.5 980,-390.5 980,-372.5 838,-372.5"/>
<text text-anchor="middle" x="909" y="-379.3" font-family="Helvetica,sans-Serif" font-size="9.00">prior_hessian::AMHCopula::llh</text>
</a>
</g>
</g>
<!-- Node11&#45;&gt;Node12 -->
<g id="edge12" class="edge"><title>Node11&#45;&gt;Node12</title>
<path fill="none" stroke="midnightblue" d="M630.485,-388.616C691.506,-387.051 777.732,-384.84 837.82,-383.299"/>
<polygon fill="midnightblue" stroke="midnightblue" points="630.064,-385.125 620.157,-388.881 630.244,-392.123 630.064,-385.125"/>
</g>
<!-- Node11&#45;&gt;Node14 -->
<g id="edge14" class="edge"><title>Node11&#45;&gt;Node14</title>
<path fill="none" stroke="midnightblue" d="M629.989,-374.233C641.466,-371.675 653.245,-369.05 664.471,-366.548"/>
<polygon fill="midnightblue" stroke="midnightblue" points="629.003,-370.867 620.003,-376.458 630.525,-377.699 629.003,-370.867"/>
</g>
<!-- Node12&#45;&gt;Node13 -->
<g id="edge13" class="edge"><title>Node12&#45;&gt;Node13</title>
<path fill="none" stroke="midnightblue" d="M958.155,-368.945C966.116,-365.84 974.035,-362.06 981,-357.5 1020.78,-331.454 1055.02,-285.716 1070.76,-262.65"/>
<polygon fill="midnightblue" stroke="midnightblue" points="956.722,-365.741 948.486,-372.405 959.08,-372.332 956.722,-365.741"/>
</g>
<!-- Node14&#45;&gt;Node12 -->
<g id="edge16" class="edge"><title>Node14&#45;&gt;Node12</title>
<path fill="none" stroke="midnightblue" d="M802.855,-364.418C819.381,-367.103 836.659,-369.91 852.322,-372.454"/>
<polygon fill="midnightblue" stroke="midnightblue" points="803.116,-360.914 792.684,-362.765 801.993,-367.824 803.116,-360.914"/>
</g>
<!-- Node14&#45;&gt;Node13 -->
<g id="edge15" class="edge"><title>Node14&#45;&gt;Node13</title>
<path fill="none" stroke="midnightblue" d="M802.787,-354.139C854.341,-352.909 924.019,-346.362 981,-323.5 1015.62,-309.609 1048.66,-280.242 1066.45,-262.659"/>
<polygon fill="midnightblue" stroke="midnightblue" points="802.664,-350.64 792.727,-354.317 802.788,-357.639 802.664,-350.64"/>
</g>
<!-- Node15&#45;&gt;Node13 -->
<g id="edge18" class="edge"><title>Node15&#45;&gt;Node13</title>
<path fill="none" stroke="midnightblue" d="M946.709,-293.192C973.532,-284.198 1009.96,-271.986 1037.95,-262.6"/>
<polygon fill="midnightblue" stroke="midnightblue" points="945.306,-289.971 936.937,-296.468 947.531,-296.608 945.306,-289.971"/>
</g>
<!-- Node16&#45;&gt;Node13 -->
<g id="edge20" class="edge"><title>Node16&#45;&gt;Node13</title>
<path fill="none" stroke="midnightblue" d="M811.529,-266.117C874.231,-262.003 959.39,-256.415 1016.85,-252.644"/>
<polygon fill="midnightblue" stroke="midnightblue" points="811.024,-262.643 801.275,-266.79 811.482,-269.628 811.024,-262.643"/>
</g>
<!-- Node17&#45;&gt;Node13 -->
<g id="edge22" class="edge"><title>Node17&#45;&gt;Node13</title>
<path fill="none" stroke="midnightblue" d="M802.88,-233.478C866.201,-236.91 956.704,-241.816 1016.85,-245.077"/>
<polygon fill="midnightblue" stroke="midnightblue" points="802.742,-229.965 792.567,-232.919 802.363,-236.955 802.742,-229.965"/>
</g>
<!-- Node18&#45;&gt;Node13 -->
<g id="edge24" class="edge"><title>Node18&#45;&gt;Node13</title>
<path fill="none" stroke="midnightblue" d="M630.164,-193.325C678.703,-195.61 743.766,-199.46 801,-205.5 881.448,-213.99 901.069,-220.047 981,-232.5 992.612,-234.309 1004.98,-236.277 1016.91,-238.193"/>
<polygon fill="midnightblue" stroke="midnightblue" points="630.216,-189.823 620.066,-192.86 629.895,-196.816 630.216,-189.823"/>
</g>
<!-- Node18&#45;&gt;Node17 -->
<g id="edge25" class="edge"><title>Node18&#45;&gt;Node17</title>
<path fill="none" stroke="midnightblue" d="M628.462,-206.846C640.952,-209.703 653.846,-212.653 666.036,-215.441"/>
<polygon fill="midnightblue" stroke="midnightblue" points="629.083,-203.398 618.554,-204.58 627.522,-210.222 629.083,-203.398"/>
</g>
<!-- Node19&#45;&gt;Node13 -->
<g id="edge27" class="edge"><title>Node19&#45;&gt;Node13</title>
<path fill="none" stroke="midnightblue" d="M958.424,-165.441C966.124,-168.814 973.888,-172.538 981,-176.5 1011.82,-193.669 1044.3,-218.846 1063.32,-234.427"/>
<polygon fill="midnightblue" stroke="midnightblue" points="959.686,-162.175 949.112,-161.508 956.962,-168.623 959.686,-162.175"/>
</g>
</g>
</svg>
        <g id="navigator" transform="translate(0 0)" fill="#404254">
                <rect fill="#f2f5e9" fill-opacity="0.5" stroke="#606060" stroke-width=".5" x="0" y="0" width="60" height="60"/>
                <use id="zoomplus" xlink:href="#zoomPlus" x="17" y="9" onmousedown="handleZoom(evt,'in')"/>
                <use id="zoomminus" xlink:href="#zoomMin" x="42" y="9" onmousedown="handleZoom(evt,'out')"/>
                <use id="reset" xlink:href="#resetDef" x="30" y="36" onmousedown="handleReset()"/>
                <g id="arrowUp" xlink:href="#dirArrow" transform="translate(30 24)" onmousedown="handlePan(0,-1)">
                  <use xlink:href="#rim" fill="#404040">
                        <set attributeName="fill" to="#808080" begin="arrowUp.mouseover" end="arrowUp.mouseout"/>
                  </use>
                  <path fill="none" stroke="white" stroke-width="1.5" d="M0,-3.0v7 M-2.5,-0.5L0,-3.0L2.5,-0.5"/>
                </g>
                <g id="arrowRight" xlink:href="#dirArrow" transform="rotate(90) translate(36 -43)" onmousedown="handlePan(1,0)">
                  <use xlink:href="#rim" fill="#404040">
                        <set attributeName="fill" to="#808080" begin="arrowRight.mouseover" end="arrowRight.mouseout"/>
                  </use>
                  <path fill="none" stroke="white" stroke-width="1.5" d="M0,-3.0v7 M-2.5,-0.5L0,-3.0L2.5,-0.5"/>
                </g>
                <g id="arrowDown" xlink:href="#dirArrow" transform="rotate(180) translate(-30 -48)" onmousedown="handlePan(0,1)">
                  <use xlink:href="#rim" fill="#404040">
                        <set attributeName="fill" to="#808080" begin="arrowDown.mouseover" end="arrowDown.mouseout"/>
                  </use>
                  <path fill="none" stroke="white" stroke-width="1.5" d="M0,-3.0v7 M-2.5,-0.5L0,-3.0L2.5,-0.5"/>
                </g>
                <g id="arrowLeft" xlink:href="#dirArrow" transform="rotate(270) translate(-36 17)" onmousedown="handlePan(-1,0)">
                  <use xlink:href="#rim" fill="#404040">
                        <set attributeName="fill" to="#808080" begin="arrowLeft.mouseover" end="arrowLeft.mouseout"/>
                  </use>
                  <path fill="none" stroke="white" stroke-width="1.5" d="M0,-3.0v7 M-2.5,-0.5L0,-3.0L2.5,-0.5"/>
                </g>
        </g>
        <svg viewBox="0 0 15 15" width="100%" height="30px" preserveAspectRatio="xMaxYMin meet">
         <g id="arrow_out" transform="scale(0.3 0.3)">
          <a xlink:href="classprior__hessian_1_1AMHCopula_a9d4b8453eedea358f829f8d4c911d8c4_icgraph_org.svg" target="_base">
           <rect id="button" ry="5" rx="5" y="6" x="6" height="38" width="38"
                fill="#f2f5e9" fill-opacity="0.5" stroke="#606060" stroke-width="1.0"/>
           <path id="arrow"
             d="M 11.500037,31.436501 C 11.940474,20.09759 22.043105,11.32322 32.158766,21.979434 L 37.068811,17.246167 C 37.068811,17.246167 37.088388,32 37.088388,32 L 22.160133,31.978069 C 22.160133,31.978069 26.997745,27.140456 26.997745,27.140456 C 18.528582,18.264221 13.291696,25.230495 11.500037,31.436501 z"
             style="fill:#404040;"/>
          </a>
         </g>
        </svg>
</svg>
