<?xml version="1.0" encoding="UTF-8" standalone="no"?>
<!DOCTYPE svg PUBLIC "-//W3C//DTD SVG 1.1//EN"
 "http://www.w3.org/Graphics/SVG/1.1/DTD/svg11.dtd">
<!-- Generated by graphviz version 2.38.0 (20140413.2041)
 -->
<!-- Title: prior_hessian::UpperTruncatedDist::ubound Pages: 1 -->
<!--zoomable 196 -->
<svg id="main" version="1.1" xmlns="http://www.w3.org/2000/svg" xmlns:xlink="http://www.w3.org/1999/xlink" xml:space="preserve" onload="init(evt)">
<style type="text/css"><![CDATA[
.edge:hover path { stroke: red; }
.edge:hover polygon { stroke: red; fill: red; }
]]></style>
<script type="text/javascript"><![CDATA[
var edges = document.getElementsByTagName('g');
if (edges && edges.length) {
  for (var i=0;i<edges.length;i++) {
    if (edges[i].id.substr(0,4)=='edge') {
      edges[i].setAttribute('class','edge');
    }
  }
}
]]></script>
        <defs>
                <circle id="rim" cx="0" cy="0" r="7"/>
                <circle id="rim2" cx="0" cy="0" r="3.5"/>
                <g id="zoomPlus">
                        <use xlink:href="#rim" fill="#404040">
                                <set attributeName="fill" to="#808080" begin="zoomplus.mouseover" end="zoomplus.mouseout"/>
                        </use>
                        <path d="M-4,0h8M0,-4v8" fill="none" stroke="white" stroke-width="1.5" pointer-events="none"/>
                </g>
                <g id="zoomMin">
                        <use xlink:href="#rim" fill="#404040">
                                <set attributeName="fill" to="#808080" begin="zoomminus.mouseover" end="zoomminus.mouseout"/>
                        </use>
                        <path d="M-4,0h8" fill="none" stroke="white" stroke-width="1.5" pointer-events="none"/>
                </g>
                <g id="dirArrow">
                        <path fill="none" stroke="white" stroke-width="1.5" d="M0,-3.0v7 M-2.5,-0.5L0,-3.0L2.5,-0.5"/>
                </g>
               <g id="resetDef">
                       <use xlink:href="#rim2" fill="#404040">
                               <set attributeName="fill" to="#808080" begin="reset.mouseover" end="reset.mouseout"/>
                       </use>
               </g>
        </defs>

<script type="text/javascript">
var viewWidth = 692;
var viewHeight = 196;
var sectionId = 'dynsection-21';
</script>
<script xlink:href="svgpan.js"/>
<svg id="graph" class="graph">
<g id="viewport">
<title>prior_hessian::UpperTruncatedDist::ubound</title>
<polygon fill="white" stroke="none" points="-4,4 -4,-192.391 688,-192.391 688,4 -4,4"/>
<!-- Node1 -->
<g id="node1" class="node"><title>Node1</title>
<polygon fill="#bfbfbf" stroke="black" points="0,-94.5 0,-122.5 144,-122.5 144,-94.5 0,-94.5"/>
<text text-anchor="start" x="8" y="-111.3" font-family="Helvetica,sans-Serif" font-size="9.00">prior_hessian::UpperTruncated</text>
<text text-anchor="middle" x="72" y="-101.3" font-family="Helvetica,sans-Serif" font-size="9.00">Dist::ubound</text>
</g>
<!-- Node2 -->
<g id="node2" class="node"><title>Node2</title>
<g id="a_node2"><a xlink:href="classprior__hessian_1_1UpperTruncatedDist.html#a3396c4b08ddb07235c10c4edc97b96e3" target="_top" xlink:title="prior_hessian::UpperTruncated\lDist::operator!=">
<polygon fill="white" stroke="black" points="540,-112.5 540,-140.5 684,-140.5 684,-112.5 540,-112.5"/>
<text text-anchor="start" x="548" y="-129.3" font-family="Helvetica,sans-Serif" font-size="9.00">prior_hessian::UpperTruncated</text>
<text text-anchor="middle" x="612" y="-119.3" font-family="Helvetica,sans-Serif" font-size="9.00">Dist::operator!=</text>
</a>
</g>
</g>
<!-- Node1&#45;&gt;Node2 -->
<g id="edge1" class="edge"><title>Node1&#45;&gt;Node2</title>
<path fill="none" stroke="midnightblue" d="M110.456,-126.924C130.602,-136.052 156.146,-146.399 180,-152.5 319.775,-188.249 362.689,-201.588 504,-172.5 533.51,-166.426 564.915,-151.839 586.014,-140.707"/>
<polygon fill="midnightblue" stroke="midnightblue" points="111.865,-123.719 101.319,-122.701 108.928,-130.073 111.865,-123.719"/>
</g>
<!-- Node3 -->
<g id="node3" class="node"><title>Node3</title>
<g id="a_node3"><a xlink:href="classprior__hessian_1_1UpperTruncatedDist.html#a91569d20bfec0bd4b5404e0aef0b89df" target="_top" xlink:title="prior_hessian::UpperTruncated\lDist::set_bounds">
<polygon fill="white" stroke="black" points="360,-134.5 360,-162.5 504,-162.5 504,-134.5 360,-134.5"/>
<text text-anchor="start" x="368" y="-151.3" font-family="Helvetica,sans-Serif" font-size="9.00">prior_hessian::UpperTruncated</text>
<text text-anchor="middle" x="432" y="-141.3" font-family="Helvetica,sans-Serif" font-size="9.00">Dist::set_bounds</text>
</a>
</g>
</g>
<!-- Node1&#45;&gt;Node3 -->
<g id="edge2" class="edge"><title>Node1&#45;&gt;Node3</title>
<path fill="none" stroke="midnightblue" d="M137.87,-124.762C151.701,-127.747 166.276,-130.536 180,-132.5 240.298,-141.13 309.413,-145.105 359.83,-146.937"/>
<polygon fill="midnightblue" stroke="midnightblue" points="138.474,-121.311 127.953,-122.562 136.958,-128.144 138.474,-121.311"/>
</g>
<!-- Node4 -->
<g id="node4" class="node"><title>Node4</title>
<g id="a_node4"><a xlink:href="classprior__hessian_1_1UpperTruncatedDist.html#a9b3ea4f5bd030d14315d65682b01b9c4" target="_top" xlink:title="prior_hessian::UpperTruncated\lDist::set_lbound">
<polygon fill="white" stroke="black" points="180,-94.5 180,-122.5 324,-122.5 324,-94.5 180,-94.5"/>
<text text-anchor="start" x="188" y="-111.3" font-family="Helvetica,sans-Serif" font-size="9.00">prior_hessian::UpperTruncated</text>
<text text-anchor="middle" x="252" y="-101.3" font-family="Helvetica,sans-Serif" font-size="9.00">Dist::set_lbound</text>
</a>
</g>
</g>
<!-- Node1&#45;&gt;Node4 -->
<g id="edge4" class="edge"><title>Node1&#45;&gt;Node4</title>
<path fill="none" stroke="midnightblue" d="M154.17,-108.5C162.789,-108.5 171.506,-108.5 179.995,-108.5"/>
<polygon fill="midnightblue" stroke="midnightblue" points="154.118,-105 144.118,-108.5 154.118,-112 154.118,-105"/>
</g>
<!-- Node5 -->
<g id="node5" class="node"><title>Node5</title>
<g id="a_node5"><a xlink:href="classprior__hessian_1_1UpperTruncatedDist.html#aef464872d67d72ef3b7036899a5e84ba" target="_top" xlink:title="prior_hessian::UpperTruncated\lDist::set_ubound">
<polygon fill="white" stroke="black" points="180,-47.5 180,-75.5 324,-75.5 324,-47.5 180,-47.5"/>
<text text-anchor="start" x="188" y="-64.3" font-family="Helvetica,sans-Serif" font-size="9.00">prior_hessian::UpperTruncated</text>
<text text-anchor="middle" x="252" y="-54.3" font-family="Helvetica,sans-Serif" font-size="9.00">Dist::set_ubound</text>
</a>
</g>
</g>
<!-- Node1&#45;&gt;Node5 -->
<g id="edge7" class="edge"><title>Node1&#45;&gt;Node5</title>
<path fill="none" stroke="midnightblue" d="M136.151,-91.8253C156.363,-86.4885 178.522,-80.6374 197.939,-75.5106"/>
<polygon fill="midnightblue" stroke="midnightblue" points="135.181,-88.4614 126.406,-94.3985 136.968,-95.2294 135.181,-88.4614"/>
</g>
<!-- Node7 -->
<g id="node7" class="node"><title>Node7</title>
<g id="a_node7"><a xlink:href="classprior__hessian_1_1UpperTruncatedDist.html#ab9763bbf7d9bf54d055c7a892149843f" target="_top" xlink:title="prior_hessian::UpperTruncated\lDist::UpperTruncatedDist">
<polygon fill="white" stroke="black" points="180,-0.5 180,-28.5 324,-28.5 324,-0.5 180,-0.5"/>
<text text-anchor="start" x="188" y="-17.3" font-family="Helvetica,sans-Serif" font-size="9.00">prior_hessian::UpperTruncated</text>
<text text-anchor="middle" x="252" y="-7.3" font-family="Helvetica,sans-Serif" font-size="9.00">Dist::UpperTruncatedDist</text>
</a>
</g>
</g>
<!-- Node1&#45;&gt;Node7 -->
<g id="edge10" class="edge"><title>Node1&#45;&gt;Node7</title>
<path fill="none" stroke="midnightblue" d="M99.57,-88.3775C120.563,-73.1703 151.05,-52.5792 180,-38.5 187.489,-34.858 195.671,-31.537 203.731,-28.6042"/>
<polygon fill="midnightblue" stroke="midnightblue" points="97.4551,-85.5882 91.4626,-94.3255 101.596,-91.2322 97.4551,-85.5882"/>
</g>
<!-- Node3&#45;&gt;Node2 -->
<g id="edge3" class="edge"><title>Node3&#45;&gt;Node2</title>
<path fill="none" stroke="midnightblue" d="M514.17,-138.468C522.789,-137.403 531.506,-136.325 539.995,-135.276"/>
<polygon fill="midnightblue" stroke="midnightblue" points="513.613,-135.01 504.118,-139.71 514.472,-141.957 513.613,-135.01"/>
</g>
<!-- Node4&#45;&gt;Node2 -->
<g id="edge5" class="edge"><title>Node4&#45;&gt;Node2</title>
<path fill="none" stroke="midnightblue" d="M334.287,-112.587C396.242,-115.702 480.715,-119.949 539.977,-122.929"/>
<polygon fill="midnightblue" stroke="midnightblue" points="334.32,-109.084 324.157,-112.078 333.969,-116.076 334.32,-109.084"/>
</g>
<!-- Node4&#45;&gt;Node3 -->
<g id="edge6" class="edge"><title>Node4&#45;&gt;Node3</title>
<path fill="none" stroke="midnightblue" d="M325.332,-124.754C339.692,-127.981 354.652,-131.343 368.645,-134.488"/>
<polygon fill="midnightblue" stroke="midnightblue" points="326.03,-121.324 315.506,-122.546 324.495,-128.154 326.03,-121.324"/>
</g>
<!-- Node5&#45;&gt;Node2 -->
<g id="edge8" class="edge"><title>Node5&#45;&gt;Node2</title>
<path fill="none" stroke="midnightblue" d="M334.287,-76.2588C396.242,-87.5076 480.715,-102.845 539.977,-113.605"/>
<polygon fill="midnightblue" stroke="midnightblue" points="334.622,-72.7624 324.157,-74.4196 333.371,-79.6498 334.622,-72.7624"/>
</g>
<!-- Node6 -->
<g id="node6" class="node"><title>Node6</title>
<g id="a_node6"><a xlink:href="classprior__hessian_1_1UpperTruncatedDist.html#ac0d0f783684526e4d5a7b2bbf1739a05" target="_top" xlink:title="prior_hessian::UpperTruncated\lDist::UpperTruncatedDist">
<polygon fill="white" stroke="black" points="360,-10.5 360,-38.5 504,-38.5 504,-10.5 360,-10.5"/>
<text text-anchor="start" x="368" y="-27.3" font-family="Helvetica,sans-Serif" font-size="9.00">prior_hessian::UpperTruncated</text>
<text text-anchor="middle" x="432" y="-17.3" font-family="Helvetica,sans-Serif" font-size="9.00">Dist::UpperTruncatedDist</text>
</a>
</g>
</g>
<!-- Node5&#45;&gt;Node6 -->
<g id="edge9" class="edge"><title>Node5&#45;&gt;Node6</title>
<path fill="none" stroke="midnightblue" d="M330.542,-45.3816C341.519,-43.1 352.732,-40.7693 363.498,-38.5313"/>
<polygon fill="midnightblue" stroke="midnightblue" points="329.626,-41.9971 320.548,-47.4591 331.051,-48.8507 329.626,-41.9971"/>
</g>
</g>
</svg>
        <g id="navigator" transform="translate(0 0)" fill="#404254">
                <rect fill="#f2f5e9" fill-opacity="0.5" stroke="#606060" stroke-width=".5" x="0" y="0" width="60" height="60"/>
                <use id="zoomplus" xlink:href="#zoomPlus" x="17" y="9" onmousedown="handleZoom(evt,'in')"/>
                <use id="zoomminus" xlink:href="#zoomMin" x="42" y="9" onmousedown="handleZoom(evt,'out')"/>
                <use id="reset" xlink:href="#resetDef" x="30" y="36" onmousedown="handleReset()"/>
                <g id="arrowUp" xlink:href="#dirArrow" transform="translate(30 24)" onmousedown="handlePan(0,-1)">
                  <use xlink:href="#rim" fill="#404040">
                        <set attributeName="fill" to="#808080" begin="arrowUp.mouseover" end="arrowUp.mouseout"/>
                  </use>
                  <path fill="none" stroke="white" stroke-width="1.5" d="M0,-3.0v7 M-2.5,-0.5L0,-3.0L2.5,-0.5"/>
                </g>
                <g id="arrowRight" xlink:href="#dirArrow" transform="rotate(90) translate(36 -43)" onmousedown="handlePan(1,0)">
                  <use xlink:href="#rim" fill="#404040">
                        <set attributeName="fill" to="#808080" begin="arrowRight.mouseover" end="arrowRight.mouseout"/>
                  </use>
                  <path fill="none" stroke="white" stroke-width="1.5" d="M0,-3.0v7 M-2.5,-0.5L0,-3.0L2.5,-0.5"/>
                </g>
                <g id="arrowDown" xlink:href="#dirArrow" transform="rotate(180) translate(-30 -48)" onmousedown="handlePan(0,1)">
                  <use xlink:href="#rim" fill="#404040">
                        <set attributeName="fill" to="#808080" begin="arrowDown.mouseover" end="arrowDown.mouseout"/>
                  </use>
                  <path fill="none" stroke="white" stroke-width="1.5" d="M0,-3.0v7 M-2.5,-0.5L0,-3.0L2.5,-0.5"/>
                </g>
                <g id="arrowLeft" xlink:href="#dirArrow" transform="rotate(270) translate(-36 17)" onmousedown="handlePan(-1,0)">
                  <use xlink:href="#rim" fill="#404040">
                        <set attributeName="fill" to="#808080" begin="arrowLeft.mouseover" end="arrowLeft.mouseout"/>
                  </use>
                  <path fill="none" stroke="white" stroke-width="1.5" d="M0,-3.0v7 M-2.5,-0.5L0,-3.0L2.5,-0.5"/>
                </g>
        </g>
        <svg viewBox="0 0 15 15" width="100%" height="30px" preserveAspectRatio="xMaxYMin meet">
         <g id="arrow_out" transform="scale(0.3 0.3)">
          <a xlink:href="classprior__hessian_1_1UpperTruncatedDist_a047a08465860a8f2aea2af28760df905_icgraph_org.svg" target="_base">
           <rect id="button" ry="5" rx="5" y="6" x="6" height="38" width="38"
                fill="#f2f5e9" fill-opacity="0.5" stroke="#606060" stroke-width="1.0"/>
           <path id="arrow"
             d="M 11.500037,31.436501 C 11.940474,20.09759 22.043105,11.32322 32.158766,21.979434 L 37.068811,17.246167 C 37.068811,17.246167 37.088388,32 37.088388,32 L 22.160133,31.978069 C 22.160133,31.978069 26.997745,27.140456 26.997745,27.140456 C 18.528582,18.264221 13.291696,25.230495 11.500037,31.436501 z"
             style="fill:#404040;"/>
          </a>
         </g>
        </svg>
</svg>
