<?xml version="1.0" encoding="UTF-8" standalone="no"?>
<!DOCTYPE svg PUBLIC "-//W3C//DTD SVG 1.1//EN"
 "http://www.w3.org/Graphics/SVG/1.1/DTD/svg11.dtd">
<!-- Generated by graphviz version 2.38.0 (20140413.2041)
 -->
<!-- Title: prior_hessian::MultivariateNormalDist::grad_hess_accumulate Pages: 1 -->
<svg width="332pt" height="37pt"
 viewBox="0.00 0.00 332.00 37.00" xmlns="http://www.w3.org/2000/svg" xmlns:xlink="http://www.w3.org/1999/xlink">
<g id="graph0" class="graph" transform="scale(1 1) rotate(0) translate(4 33)">
<title>prior_hessian::MultivariateNormalDist::grad_hess_accumulate</title>
<polygon fill="white" stroke="none" points="-4,4 -4,-33 328,-33 328,4 -4,4"/>
<!-- Node1 -->
<g id="node1" class="node"><title>Node1</title>
<polygon fill="#bfbfbf" stroke="black" points="0,-0.5 0,-28.5 163,-28.5 163,-0.5 0,-0.5"/>
<text text-anchor="start" x="8" y="-17.3" font-family="Helvetica,sans-Serif" font-size="9.00">prior_hessian::Multivariate</text>
<text text-anchor="middle" x="81.5" y="-7.3" font-family="Helvetica,sans-Serif" font-size="9.00">NormalDist::grad_hess_accumulate</text>
</g>
<!-- Node2 -->
<g id="node2" class="node"><title>Node2</title>
<g id="a_node2"><a xlink:href="classprior__hessian_1_1MultivariateNormalDist.html#afdec8e6a453a2c69e0d84833d6b3e5ae" target="_top" xlink:title="prior_hessian::Multivariate\lNormalDist::mode">
<polygon fill="white" stroke="black" points="199,-0.5 199,-28.5 324,-28.5 324,-0.5 199,-0.5"/>
<text text-anchor="start" x="207" y="-17.3" font-family="Helvetica,sans-Serif" font-size="9.00">prior_hessian::Multivariate</text>
<text text-anchor="middle" x="261.5" y="-7.3" font-family="Helvetica,sans-Serif" font-size="9.00">NormalDist::mode</text>
</a>
</g>
</g>
<!-- Node1&#45;&gt;Node2 -->
<g id="edge1" class="edge"><title>Node1&#45;&gt;Node2</title>
<path fill="none" stroke="midnightblue" d="M173.285,-14.5C181.912,-14.5 190.517,-14.5 198.775,-14.5"/>
<polygon fill="midnightblue" stroke="midnightblue" points="173.167,-11.0001 163.167,-14.5 173.167,-18.0001 173.167,-11.0001"/>
</g>
</g>
</svg>
