<?xml version="1.0" encoding="UTF-8" standalone="no"?>
<!DOCTYPE svg PUBLIC "-//W3C//DTD SVG 1.1//EN"
 "http://www.w3.org/Graphics/SVG/1.1/DTD/svg11.dtd">
<!-- Generated by graphviz version 2.38.0 (20140413.2041)
 -->
<!-- Title: prior_hessian::CompositeDist::ComponentDistAdaptor&lt; Dist, meta::EnableIfSubclassT&lt; Dist, MultivariateDist &gt; &gt;::grad_grad2_accumulate_idx Pages: 1 -->
<svg width="470pt" height="84pt"
 viewBox="0.00 0.00 470.00 84.00" xmlns="http://www.w3.org/2000/svg" xmlns:xlink="http://www.w3.org/1999/xlink">
<g id="graph0" class="graph" transform="scale(1 1) rotate(0) translate(4 80)">
<title>prior_hessian::CompositeDist::ComponentDistAdaptor&lt; Dist, meta::EnableIfSubclassT&lt; Dist, MultivariateDist &gt; &gt;::grad_grad2_accumulate_idx</title>
<polygon fill="white" stroke="none" points="-4,4 -4,-80 466,-80 466,4 -4,4"/>
<!-- Node1 -->
<g id="node1" class="node"><title>Node1</title>
<polygon fill="#bfbfbf" stroke="black" points="0,-8.5 0,-66.5 146,-66.5 146,-8.5 0,-8.5"/>
<text text-anchor="start" x="8" y="-55.3" font-family="Helvetica,sans-Serif" font-size="9.00">prior_hessian::Composite</text>
<text text-anchor="start" x="8" y="-45.3" font-family="Helvetica,sans-Serif" font-size="9.00">Dist::ComponentDistAdaptor</text>
<text text-anchor="start" x="8" y="-35.3" font-family="Helvetica,sans-Serif" font-size="9.00">&lt; Dist, meta::EnableIfSubclassT</text>
<text text-anchor="start" x="8" y="-25.3" font-family="Helvetica,sans-Serif" font-size="9.00">&lt; Dist, MultivariateDist &gt; &gt;</text>
<text text-anchor="middle" x="73" y="-15.3" font-family="Helvetica,sans-Serif" font-size="9.00">::grad_grad2_accumulate_idx</text>
</g>
<!-- Node2 -->
<g id="node2" class="node"><title>Node2</title>
<g id="a_node2"><a xlink:href="classprior__hessian_1_1CompositeDist.html#aaa6bfd95f5914c0f68d67cd97ff40db3" target="_top" xlink:title="prior_hessian::Composite\lDist::grad">
<polygon fill="white" stroke="black" points="182,-47.5 182,-75.5 304,-75.5 304,-47.5 182,-47.5"/>
<text text-anchor="start" x="190" y="-64.3" font-family="Helvetica,sans-Serif" font-size="9.00">prior_hessian::Composite</text>
<text text-anchor="middle" x="243" y="-54.3" font-family="Helvetica,sans-Serif" font-size="9.00">Dist::grad</text>
</a>
</g>
</g>
<!-- Node1&#45;&gt;Node2 -->
<g id="edge1" class="edge"><title>Node1&#45;&gt;Node2</title>
<path fill="none" stroke="midnightblue" d="M146.222,-47.8174C154.787,-49.0411 163.52,-50.2885 172.052,-51.5075"/>
<polygon fill="midnightblue" stroke="midnightblue" points="171.561,-54.9728 181.956,-52.9223 172.552,-48.0432 171.561,-54.9728"/>
</g>
<!-- Node4 -->
<g id="node4" class="node"><title>Node4</title>
<g id="a_node4"><a xlink:href="classprior__hessian_1_1CompositeDist.html#a90a25995e3e72cc958f188c78fc76d92" target="_top" xlink:title="prior_hessian::Composite\lDist::grad2">
<polygon fill="white" stroke="black" points="182,-0.5 182,-28.5 304,-28.5 304,-0.5 182,-0.5"/>
<text text-anchor="start" x="190" y="-17.3" font-family="Helvetica,sans-Serif" font-size="9.00">prior_hessian::Composite</text>
<text text-anchor="middle" x="243" y="-7.3" font-family="Helvetica,sans-Serif" font-size="9.00">Dist::grad2</text>
</a>
</g>
</g>
<!-- Node1&#45;&gt;Node4 -->
<g id="edge3" class="edge"><title>Node1&#45;&gt;Node4</title>
<path fill="none" stroke="midnightblue" d="M146.222,-27.6124C154.694,-26.4526 163.33,-25.2703 171.774,-24.1143"/>
<polygon fill="midnightblue" stroke="midnightblue" points="172.523,-27.5444 181.956,-22.7203 171.574,-20.6091 172.523,-27.5444"/>
</g>
<!-- Node3 -->
<g id="node3" class="node"><title>Node3</title>
<g id="a_node3"><a xlink:href="classprior__hessian_1_1CompositeDist.html#ad532e3fe9e7293fef7b293d3c94a1ddc" target="_top" xlink:title="prior_hessian::Composite\lDist::num_dim">
<polygon fill="white" stroke="black" points="340,-23.5 340,-51.5 462,-51.5 462,-23.5 340,-23.5"/>
<text text-anchor="start" x="348" y="-40.3" font-family="Helvetica,sans-Serif" font-size="9.00">prior_hessian::Composite</text>
<text text-anchor="middle" x="401" y="-30.3" font-family="Helvetica,sans-Serif" font-size="9.00">Dist::num_dim</text>
</a>
</g>
</g>
<!-- Node2&#45;&gt;Node3 -->
<g id="edge2" class="edge"><title>Node2&#45;&gt;Node3</title>
<path fill="none" stroke="midnightblue" d="M304.314,-52.221C312.695,-50.9316 321.363,-49.598 329.904,-48.284"/>
<polygon fill="midnightblue" stroke="midnightblue" points="330.495,-51.7343 339.847,-46.7543 329.431,-44.8157 330.495,-51.7343"/>
</g>
<!-- Node4&#45;&gt;Node3 -->
<g id="edge4" class="edge"><title>Node4&#45;&gt;Node3</title>
<path fill="none" stroke="midnightblue" d="M304.314,-23.3924C312.695,-24.6281 321.363,-25.9061 329.904,-27.1653"/>
<polygon fill="midnightblue" stroke="midnightblue" points="329.443,-30.6351 339.847,-28.6312 330.464,-23.71 329.443,-30.6351"/>
</g>
</g>
</svg>
