<?xml version="1.0" encoding="UTF-8" standalone="no"?>
<!DOCTYPE svg PUBLIC "-//W3C//DTD SVG 1.1//EN"
 "http://www.w3.org/Graphics/SVG/1.1/DTD/svg11.dtd">
<!-- Generated by graphviz version 2.38.0 (20140413.2041)
 -->
<!-- Title: prior_hessian::MultivariateNormalDist::mode Pages: 1 -->
<!--zoomable 713 -->
<svg id="main" version="1.1" xmlns="http://www.w3.org/2000/svg" xmlns:xlink="http://www.w3.org/1999/xlink" xml:space="preserve" onload="init(evt)">
<style type="text/css"><![CDATA[
.edge:hover path { stroke: red; }
.edge:hover polygon { stroke: red; fill: red; }
]]></style>
<script type="text/javascript"><![CDATA[
var edges = document.getElementsByTagName('g');
if (edges && edges.length) {
  for (var i=0;i<edges.length;i++) {
    if (edges[i].id.substr(0,4)=='edge') {
      edges[i].setAttribute('class','edge');
    }
  }
}
]]></script>
        <defs>
                <circle id="rim" cx="0" cy="0" r="7"/>
                <circle id="rim2" cx="0" cy="0" r="3.5"/>
                <g id="zoomPlus">
                        <use xlink:href="#rim" fill="#404040">
                                <set attributeName="fill" to="#808080" begin="zoomplus.mouseover" end="zoomplus.mouseout"/>
                        </use>
                        <path d="M-4,0h8M0,-4v8" fill="none" stroke="white" stroke-width="1.5" pointer-events="none"/>
                </g>
                <g id="zoomMin">
                        <use xlink:href="#rim" fill="#404040">
                                <set attributeName="fill" to="#808080" begin="zoomminus.mouseover" end="zoomminus.mouseout"/>
                        </use>
                        <path d="M-4,0h8" fill="none" stroke="white" stroke-width="1.5" pointer-events="none"/>
                </g>
                <g id="dirArrow">
                        <path fill="none" stroke="white" stroke-width="1.5" d="M0,-3.0v7 M-2.5,-0.5L0,-3.0L2.5,-0.5"/>
                </g>
               <g id="resetDef">
                       <use xlink:href="#rim2" fill="#404040">
                               <set attributeName="fill" to="#808080" begin="reset.mouseover" end="reset.mouseout"/>
                       </use>
               </g>
        </defs>

<script type="text/javascript">
var viewWidth = 1161;
var viewHeight = 713;
var sectionId = 'dynsection-31';
</script>
<script xlink:href="svgpan.js"/>
<svg id="graph" class="graph">
<g id="viewport">
<title>prior_hessian::MultivariateNormalDist::mode</title>
<polygon fill="white" stroke="none" points="-4,4 -4,-709 1157,-709 1157,4 -4,4"/>
<!-- Node1 -->
<g id="node1" class="node"><title>Node1</title>
<polygon fill="#bfbfbf" stroke="black" points="0,-373.5 0,-401.5 125,-401.5 125,-373.5 0,-373.5"/>
<text text-anchor="start" x="8" y="-390.3" font-family="Helvetica,sans-Serif" font-size="9.00">prior_hessian::Multivariate</text>
<text text-anchor="middle" x="62.5" y="-380.3" font-family="Helvetica,sans-Serif" font-size="9.00">NormalDist::mode</text>
</g>
<!-- Node2 -->
<g id="node2" class="node"><title>Node2</title>
<g id="a_node2"><a xlink:href="classprior__hessian_1_1MultivariateNormalDist.html#a58cde72a7fb9ee4c517149cdb25de76d" target="_top" xlink:title="prior_hessian::Multivariate\lNormalDist::append_params">
<polygon fill="white" stroke="black" points="166.5,-676.5 166.5,-704.5 300.5,-704.5 300.5,-676.5 166.5,-676.5"/>
<text text-anchor="start" x="174.5" y="-693.3" font-family="Helvetica,sans-Serif" font-size="9.00">prior_hessian::Multivariate</text>
<text text-anchor="middle" x="233.5" y="-683.3" font-family="Helvetica,sans-Serif" font-size="9.00">NormalDist::append_params</text>
</a>
</g>
</g>
<!-- Node1&#45;&gt;Node2 -->
<g id="edge1" class="edge"><title>Node1&#45;&gt;Node2</title>
<path fill="none" stroke="midnightblue" d="M64.2252,-401.65C67.3079,-446.887 83.0619,-589.518 161,-666.5 162.467,-667.949 164.025,-669.311 165.655,-670.591"/>
<polygon fill="midnightblue" stroke="midnightblue" points="164.071,-673.738 174.344,-676.328 167.928,-667.897 164.071,-673.738"/>
</g>
<!-- Node3 -->
<g id="node3" class="node"><title>Node3</title>
<g id="a_node3"><a xlink:href="classprior__hessian_1_1MultivariateNormalDist.html#a41f15a93e291cc18bf28c1c0118efa6a" target="_top" xlink:title="prior_hessian::Multivariate\lNormalDist::cdf">
<polygon fill="white" stroke="black" points="171,-572.5 171,-600.5 296,-600.5 296,-572.5 171,-572.5"/>
<text text-anchor="start" x="179" y="-589.3" font-family="Helvetica,sans-Serif" font-size="9.00">prior_hessian::Multivariate</text>
<text text-anchor="middle" x="233.5" y="-579.3" font-family="Helvetica,sans-Serif" font-size="9.00">NormalDist::cdf</text>
</a>
</g>
</g>
<!-- Node1&#45;&gt;Node3 -->
<g id="edge2" class="edge"><title>Node1&#45;&gt;Node3</title>
<path fill="none" stroke="midnightblue" d="M70.2061,-401.74C84.1078,-430.2 118.359,-495.089 161,-538.5 171.623,-549.314 185.047,-559.092 197.387,-566.957"/>
<polygon fill="midnightblue" stroke="midnightblue" points="195.774,-570.075 206.125,-572.334 199.442,-564.113 195.774,-570.075"/>
</g>
<!-- Node4 -->
<g id="node4" class="node"><title>Node4</title>
<g id="a_node4"><a xlink:href="classprior__hessian_1_1MultivariateNormalDist.html#a53e894d82ca08f285fc004b77301495d" target="_top" xlink:title="prior_hessian::Multivariate\lNormalDist::mu">
<polygon fill="white" stroke="black" points="706,-467.5 706,-495.5 831,-495.5 831,-467.5 706,-467.5"/>
<text text-anchor="start" x="714" y="-484.3" font-family="Helvetica,sans-Serif" font-size="9.00">prior_hessian::Multivariate</text>
<text text-anchor="middle" x="768.5" y="-474.3" font-family="Helvetica,sans-Serif" font-size="9.00">NormalDist::mu</text>
</a>
</g>
</g>
<!-- Node1&#45;&gt;Node4 -->
<g id="edge33" class="edge"><title>Node1&#45;&gt;Node4</title>
<path fill="none" stroke="midnightblue" d="M78.6825,-401.751C96.7851,-417.856 128.672,-443.514 161,-456.5 371.85,-541.199 444.297,-530.761 670,-504.5 682.473,-503.049 695.665,-500.587 708.179,-497.799"/>
<polygon fill="midnightblue" stroke="midnightblue" points="709.095,-501.18 718.043,-495.507 707.511,-494.362 709.095,-501.18"/>
</g>
<!-- Node8 -->
<g id="node8" class="node"><title>Node8</title>
<g id="a_node8"><a xlink:href="classprior__hessian_1_1MultivariateNormalDist.html#a894120a427347c2bd834ae0abab32e29" target="_top" xlink:title="prior_hessian::Multivariate\lNormalDist::check_params_iter">
<polygon fill="white" stroke="black" points="161,-138.5 161,-166.5 306,-166.5 306,-138.5 161,-138.5"/>
<text text-anchor="start" x="169" y="-155.3" font-family="Helvetica,sans-Serif" font-size="9.00">prior_hessian::Multivariate</text>
<text text-anchor="middle" x="233.5" y="-145.3" font-family="Helvetica,sans-Serif" font-size="9.00">NormalDist::check_params_iter</text>
</a>
</g>
</g>
<!-- Node1&#45;&gt;Node8 -->
<g id="edge7" class="edge"><title>Node1&#45;&gt;Node8</title>
<path fill="none" stroke="midnightblue" d="M66.4248,-373.401C74.7231,-336.756 101.753,-237.477 161,-181.5 165.077,-177.648 169.734,-174.28 174.671,-171.341"/>
<polygon fill="midnightblue" stroke="midnightblue" points="176.601,-174.279 183.796,-166.502 173.322,-168.095 176.601,-174.279"/>
</g>
<!-- Node11 -->
<g id="node11" class="node"><title>Node11</title>
<g id="a_node11"><a xlink:href="classprior__hessian_1_1MultivariateNormalDist.html#a300193a7fac39d098eafd7b4fef86d05" target="_top" xlink:title="prior_hessian::Multivariate\lNormalDist::grad">
<polygon fill="white" stroke="black" points="524,-467.5 524,-495.5 649,-495.5 649,-467.5 524,-467.5"/>
<text text-anchor="start" x="532" y="-484.3" font-family="Helvetica,sans-Serif" font-size="9.00">prior_hessian::Multivariate</text>
<text text-anchor="middle" x="586.5" y="-474.3" font-family="Helvetica,sans-Serif" font-size="9.00">NormalDist::grad</text>
</a>
</g>
</g>
<!-- Node1&#45;&gt;Node11 -->
<g id="edge10" class="edge"><title>Node1&#45;&gt;Node11</title>
<path fill="none" stroke="midnightblue" d="M92.2484,-401.638C111.309,-410.421 137.117,-421.2 161,-427.5 282.317,-459.503 428.315,-472.783 513.63,-478.114"/>
<polygon fill="midnightblue" stroke="midnightblue" points="513.535,-481.615 523.728,-478.726 513.958,-474.628 513.535,-481.615"/>
</g>
<!-- Node13 -->
<g id="node13" class="node"><title>Node13</title>
<g id="a_node13"><a xlink:href="classprior__hessian_1_1MultivariateNormalDist.html#abddd70ca592cc71d9269f227ef53f90a" target="_top" xlink:title="prior_hessian::Multivariate\lNormalDist::grad2">
<polygon fill="white" stroke="black" points="342,-351.5 342,-379.5 467,-379.5 467,-351.5 342,-351.5"/>
<text text-anchor="start" x="350" y="-368.3" font-family="Helvetica,sans-Serif" font-size="9.00">prior_hessian::Multivariate</text>
<text text-anchor="middle" x="404.5" y="-358.3" font-family="Helvetica,sans-Serif" font-size="9.00">NormalDist::grad2</text>
</a>
</g>
</g>
<!-- Node1&#45;&gt;Node13 -->
<g id="edge13" class="edge"><title>Node1&#45;&gt;Node13</title>
<path fill="none" stroke="midnightblue" d="M125.071,-383.516C183.26,-379.751 270.537,-374.103 331.828,-370.138"/>
<polygon fill="midnightblue" stroke="midnightblue" points="332.06,-373.63 341.813,-369.492 331.608,-366.645 332.06,-373.63"/>
</g>
<!-- Node14 -->
<g id="node14" class="node"><title>Node14</title>
<g id="a_node14"><a xlink:href="classprior__hessian_1_1MultivariateNormalDist.html#ae51a2d1024d5048d0631929092b26cc7" target="_top" xlink:title="prior_hessian::Multivariate\lNormalDist::grad_grad2_accumulate">
<polygon fill="white" stroke="black" points="503,-420.5 503,-448.5 670,-448.5 670,-420.5 503,-420.5"/>
<text text-anchor="start" x="511" y="-437.3" font-family="Helvetica,sans-Serif" font-size="9.00">prior_hessian::Multivariate</text>
<text text-anchor="middle" x="586.5" y="-427.3" font-family="Helvetica,sans-Serif" font-size="9.00">NormalDist::grad_grad2_accumulate</text>
</a>
</g>
</g>
<!-- Node1&#45;&gt;Node14 -->
<g id="edge15" class="edge"><title>Node1&#45;&gt;Node14</title>
<path fill="none" stroke="midnightblue" d="M125.228,-399.996C137.064,-402.08 149.387,-404.036 161,-405.5 274.679,-419.829 406.44,-427.44 492.639,-431.214"/>
<polygon fill="midnightblue" stroke="midnightblue" points="492.519,-434.712 502.66,-431.645 492.819,-427.719 492.519,-434.712"/>
</g>
<!-- Node15 -->
<g id="node15" class="node"><title>Node15</title>
<g id="a_node15"><a xlink:href="classprior__hessian_1_1MultivariateNormalDist.html#a8cd22c12a8c039623589cc947aba25f0" target="_top" xlink:title="prior_hessian::Multivariate\lNormalDist::grad_hess_accumulate">
<polygon fill="white" stroke="black" points="505,-373.5 505,-401.5 668,-401.5 668,-373.5 505,-373.5"/>
<text text-anchor="start" x="513" y="-390.3" font-family="Helvetica,sans-Serif" font-size="9.00">prior_hessian::Multivariate</text>
<text text-anchor="middle" x="586.5" y="-380.3" font-family="Helvetica,sans-Serif" font-size="9.00">NormalDist::grad_hess_accumulate</text>
</a>
</g>
</g>
<!-- Node1&#45;&gt;Node15 -->
<g id="edge18" class="edge"><title>Node1&#45;&gt;Node15</title>
<path fill="none" stroke="midnightblue" d="M125.127,-389.683C137.028,-390.024 149.401,-390.322 161,-390.5 276.07,-392.27 408.703,-390.764 494.659,-389.321"/>
<polygon fill="midnightblue" stroke="midnightblue" points="494.967,-392.816 504.906,-389.145 494.847,-385.817 494.967,-392.816"/>
</g>
<!-- Node16 -->
<g id="node16" class="node"><title>Node16</title>
<g id="a_node16"><a xlink:href="classprior__hessian_1_1MultivariateNormalDist.html#aaf8d6241c639ee69c7854f392ba85480" target="_top" xlink:title="prior_hessian::Multivariate\lNormalDist::hess">
<polygon fill="white" stroke="black" points="342,-304.5 342,-332.5 467,-332.5 467,-304.5 342,-304.5"/>
<text text-anchor="start" x="350" y="-321.3" font-family="Helvetica,sans-Serif" font-size="9.00">prior_hessian::Multivariate</text>
<text text-anchor="middle" x="404.5" y="-311.3" font-family="Helvetica,sans-Serif" font-size="9.00">NormalDist::hess</text>
</a>
</g>
</g>
<!-- Node1&#45;&gt;Node16 -->
<g id="edge21" class="edge"><title>Node1&#45;&gt;Node16</title>
<path fill="none" stroke="midnightblue" d="M125.071,-375.005C183.26,-363.196 270.537,-345.484 331.828,-333.045"/>
<polygon fill="midnightblue" stroke="midnightblue" points="332.709,-336.438 341.813,-331.019 331.317,-329.578 332.709,-336.438"/>
</g>
<!-- Node17 -->
<g id="node17" class="node"><title>Node17</title>
<g id="a_node17"><a xlink:href="classprior__hessian_1_1MultivariateNormalDist.html#a3540b1bcafd58fe26de858c0a4aef3db" target="_top" xlink:title="prior_hessian::Multivariate\lNormalDist::llh">
<polygon fill="white" stroke="black" points="342,-218.5 342,-246.5 467,-246.5 467,-218.5 342,-218.5"/>
<text text-anchor="start" x="350" y="-235.3" font-family="Helvetica,sans-Serif" font-size="9.00">prior_hessian::Multivariate</text>
<text text-anchor="middle" x="404.5" y="-225.3" font-family="Helvetica,sans-Serif" font-size="9.00">NormalDist::llh</text>
</a>
</g>
</g>
<!-- Node1&#45;&gt;Node17 -->
<g id="edge23" class="edge"><title>Node1&#45;&gt;Node17</title>
<path fill="none" stroke="midnightblue" d="M66.4177,-373.378C74.4168,-338.771 100.275,-249.982 161,-214.5 222.467,-178.585 308.178,-197.796 359.522,-215.092"/>
<polygon fill="midnightblue" stroke="midnightblue" points="358.411,-218.411 369.006,-218.397 360.715,-211.801 358.411,-218.411"/>
</g>
<!-- Node18 -->
<g id="node18" class="node"><title>Node18</title>
<g id="a_node18"><a xlink:href="classprior__hessian_1_1MultivariateNormalDist.html#a4512a641c493e33dfb93b5087e473c76" target="_top" xlink:title="prior_hessian::Multivariate\lNormalDist::rllh">
<polygon fill="white" stroke="black" points="524,-249.5 524,-277.5 649,-277.5 649,-249.5 524,-249.5"/>
<text text-anchor="start" x="532" y="-266.3" font-family="Helvetica,sans-Serif" font-size="9.00">prior_hessian::Multivariate</text>
<text text-anchor="middle" x="586.5" y="-256.3" font-family="Helvetica,sans-Serif" font-size="9.00">NormalDist::rllh</text>
</a>
</g>
</g>
<!-- Node1&#45;&gt;Node18 -->
<g id="edge36" class="edge"><title>Node1&#45;&gt;Node18</title>
<path fill="none" stroke="midnightblue" d="M85.9345,-373.301C105.193,-361.666 134.032,-345.539 161,-335.5 279.816,-291.271 427.523,-274.044 513.687,-267.454"/>
<polygon fill="midnightblue" stroke="midnightblue" points="514.169,-270.928 523.884,-266.702 513.654,-263.947 514.169,-270.928"/>
</g>
<!-- Node24 -->
<g id="node24" class="node"><title>Node24</title>
<g id="a_node24"><a xlink:href="classprior__hessian_1_1MultivariateNormalDist.html#a67cba536341528564330b17dcbe5faff" target="_top" xlink:title="prior_hessian::Multivariate\lNormalDist::pdf">
<polygon fill="white" stroke="black" points="171,-224.5 171,-252.5 296,-252.5 296,-224.5 171,-224.5"/>
<text text-anchor="start" x="179" y="-241.3" font-family="Helvetica,sans-Serif" font-size="9.00">prior_hessian::Multivariate</text>
<text text-anchor="middle" x="233.5" y="-231.3" font-family="Helvetica,sans-Serif" font-size="9.00">NormalDist::pdf</text>
</a>
</g>
</g>
<!-- Node1&#45;&gt;Node24 -->
<g id="edge34" class="edge"><title>Node1&#45;&gt;Node24</title>
<path fill="none" stroke="midnightblue" d="M71.6582,-373.344C86.5073,-348.7 120.213,-297.672 161,-267.5 166.427,-263.486 172.487,-259.928 178.722,-256.803"/>
<polygon fill="midnightblue" stroke="midnightblue" points="180.33,-259.915 187.928,-252.531 177.383,-253.566 180.33,-259.915"/>
</g>
<!-- Node25 -->
<g id="node25" class="node"><title>Node25</title>
<g id="a_node25"><a xlink:href="classprior__hessian_1_1MultivariateNormalDist.html#ad17199c0b81608efff2d1e28714992e8" target="_top" xlink:title="prior_hessian::Multivariate\lNormalDist::sample">
<polygon fill="white" stroke="black" points="171,-629.5 171,-657.5 296,-657.5 296,-629.5 171,-629.5"/>
<text text-anchor="start" x="179" y="-646.3" font-family="Helvetica,sans-Serif" font-size="9.00">prior_hessian::Multivariate</text>
<text text-anchor="middle" x="233.5" y="-636.3" font-family="Helvetica,sans-Serif" font-size="9.00">NormalDist::sample</text>
</a>
</g>
</g>
<!-- Node1&#45;&gt;Node25 -->
<g id="edge37" class="edge"><title>Node1&#45;&gt;Node25</title>
<path fill="none" stroke="midnightblue" d="M66.1227,-401.635C73.8954,-439.897 100.171,-546.815 161,-609.5 166.721,-615.395 173.668,-620.391 180.956,-624.586"/>
<polygon fill="midnightblue" stroke="midnightblue" points="179.821,-627.943 190.304,-629.479 183.067,-621.741 179.821,-627.943"/>
</g>
<!-- Node26 -->
<g id="node26" class="node"><title>Node26</title>
<g id="a_node26"><a xlink:href="classprior__hessian_1_1MultivariateNormalDist.html#ad4842325329050c2fc4386096b3496dd" target="_top" xlink:title="prior_hessian::Multivariate\lNormalDist::set_params_iter">
<polygon fill="white" stroke="black" points="167,-75.5 167,-103.5 300,-103.5 300,-75.5 167,-75.5"/>
<text text-anchor="start" x="175" y="-92.3" font-family="Helvetica,sans-Serif" font-size="9.00">prior_hessian::Multivariate</text>
<text text-anchor="middle" x="233.5" y="-82.3" font-family="Helvetica,sans-Serif" font-size="9.00">NormalDist::set_params_iter</text>
</a>
</g>
</g>
<!-- Node1&#45;&gt;Node26 -->
<g id="edge40" class="edge"><title>Node1&#45;&gt;Node26</title>
<path fill="none" stroke="midnightblue" d="M65.3125,-373.396C71.3783,-331.342 94.4787,-204.999 161,-128.5 167.961,-120.495 176.982,-113.833 186.259,-108.413"/>
<polygon fill="midnightblue" stroke="midnightblue" points="188.04,-111.429 195.173,-103.595 184.711,-105.271 188.04,-111.429"/>
</g>
<!-- Node3&#45;&gt;Node4 -->
<g id="edge3" class="edge"><title>Node3&#45;&gt;Node4</title>
<path fill="none" stroke="midnightblue" d="M287.292,-600.509C372.199,-620.16 542.479,-647.526 670,-590.5 709.221,-572.961 739.192,-530.983 755.005,-504.538"/>
<polygon fill="midnightblue" stroke="midnightblue" points="758.212,-505.983 760.181,-495.572 752.15,-502.483 758.212,-505.983"/>
</g>
<!-- Node5 -->
<g id="node5" class="node"><title>Node5</title>
<g id="a_node5"><a xlink:href="namespaceprior__hessian_1_1genz.html#a5462d1271384fa7431ee84709c0f8a88" target="_top" xlink:title="prior_hessian::genz\l::mvn_cdf_genz">
<polygon fill="white" stroke="black" points="355.5,-553.5 355.5,-581.5 453.5,-581.5 453.5,-553.5 355.5,-553.5"/>
<text text-anchor="start" x="363.5" y="-570.3" font-family="Helvetica,sans-Serif" font-size="9.00">prior_hessian::genz</text>
<text text-anchor="middle" x="404.5" y="-560.3" font-family="Helvetica,sans-Serif" font-size="9.00">::mvn_cdf_genz</text>
</a>
</g>
</g>
<!-- Node3&#45;&gt;Node5 -->
<g id="edge4" class="edge"><title>Node3&#45;&gt;Node5</title>
<path fill="none" stroke="midnightblue" d="M296.47,-579.533C312.389,-577.743 329.459,-575.824 345.186,-574.056"/>
<polygon fill="midnightblue" stroke="midnightblue" points="345.755,-577.514 355.301,-572.919 344.973,-570.558 345.755,-577.514"/>
</g>
<!-- Node7 -->
<g id="node7" class="node"><title>Node7</title>
<g id="a_node7"><a xlink:href="classprior__hessian_1_1MultivariateNormalDist.html#aa4e86dd2b8e088553aac8c6b0fa50832" target="_top" xlink:title="prior_hessian::Multivariate\lNormalDist::sigma">
<polygon fill="white" stroke="black" points="342,-639.5 342,-667.5 467,-667.5 467,-639.5 342,-639.5"/>
<text text-anchor="start" x="350" y="-656.3" font-family="Helvetica,sans-Serif" font-size="9.00">prior_hessian::Multivariate</text>
<text text-anchor="middle" x="404.5" y="-646.3" font-family="Helvetica,sans-Serif" font-size="9.00">NormalDist::sigma</text>
</a>
</g>
</g>
<!-- Node3&#45;&gt;Node7 -->
<g id="edge6" class="edge"><title>Node3&#45;&gt;Node7</title>
<path fill="none" stroke="midnightblue" d="M269.928,-600.545C295.729,-610.774 330.871,-624.706 358.634,-635.713"/>
<polygon fill="midnightblue" stroke="midnightblue" points="357.533,-639.041 368.119,-639.473 360.113,-632.534 357.533,-639.041"/>
</g>
<!-- Node6 -->
<g id="node6" class="node"><title>Node6</title>
<g id="a_node6"><a xlink:href="namespaceprior__hessian_1_1genz_1_1fortran.html#a3aa3e81ace64048700679aa6ab8f0879" target="_top" xlink:title="prior_hessian::genz\l::fortran::mvndst_">
<polygon fill="white" stroke="black" points="537.5,-553.5 537.5,-581.5 635.5,-581.5 635.5,-553.5 537.5,-553.5"/>
<text text-anchor="start" x="545.5" y="-570.3" font-family="Helvetica,sans-Serif" font-size="9.00">prior_hessian::genz</text>
<text text-anchor="middle" x="586.5" y="-560.3" font-family="Helvetica,sans-Serif" font-size="9.00">::fortran::mvndst_</text>
</a>
</g>
</g>
<!-- Node5&#45;&gt;Node6 -->
<g id="edge5" class="edge"><title>Node5&#45;&gt;Node6</title>
<path fill="none" stroke="midnightblue" d="M453.737,-567.5C476.324,-567.5 503.421,-567.5 527.153,-567.5"/>
<polygon fill="midnightblue" stroke="midnightblue" points="527.443,-571 537.443,-567.5 527.442,-564 527.443,-571"/>
</g>
<!-- Node9 -->
<g id="node9" class="node"><title>Node9</title>
<g id="a_node9"><a xlink:href="classprior__hessian_1_1MultivariateNormalDist.html#ad0117306c61bf5b4615d40113dc27c83" target="_top" xlink:title="prior_hessian::Multivariate\lNormalDist::check_sigma">
<polygon fill="white" stroke="black" points="342,-171.5 342,-199.5 467,-199.5 467,-171.5 342,-171.5"/>
<text text-anchor="start" x="350" y="-188.3" font-family="Helvetica,sans-Serif" font-size="9.00">prior_hessian::Multivariate</text>
<text text-anchor="middle" x="404.5" y="-178.3" font-family="Helvetica,sans-Serif" font-size="9.00">NormalDist::check_sigma</text>
</a>
</g>
</g>
<!-- Node8&#45;&gt;Node9 -->
<g id="edge8" class="edge"><title>Node8&#45;&gt;Node9</title>
<path fill="none" stroke="midnightblue" d="M306.171,-166.495C314.706,-168.162 323.42,-169.863 331.954,-171.529"/>
<polygon fill="midnightblue" stroke="midnightblue" points="331.382,-174.984 341.867,-173.465 332.723,-168.113 331.382,-174.984"/>
</g>
<!-- Node10 -->
<g id="node10" class="node"><title>Node10</title>
<g id="a_node10"><a xlink:href="classprior__hessian_1_1MultivariateNormalDist.html#a9a2d3e50448adb594ed60a92d2942943" target="_top" xlink:title="prior_hessian::Multivariate\lNormalDist::num_params">
<polygon fill="white" stroke="black" points="1028,-128.5 1028,-156.5 1153,-156.5 1153,-128.5 1028,-128.5"/>
<text text-anchor="start" x="1036" y="-145.3" font-family="Helvetica,sans-Serif" font-size="9.00">prior_hessian::Multivariate</text>
<text text-anchor="middle" x="1090.5" y="-135.3" font-family="Helvetica,sans-Serif" font-size="9.00">NormalDist::num_params</text>
</a>
</g>
</g>
<!-- Node8&#45;&gt;Node10 -->
<g id="edge9" class="edge"><title>Node8&#45;&gt;Node10</title>
<path fill="none" stroke="midnightblue" d="M306.077,-149.267C376.996,-146.345 488.722,-142.5 585.5,-142.5 585.5,-142.5 585.5,-142.5 769.5,-142.5 854.798,-142.5 952.885,-142.5 1017.74,-142.5"/>
<polygon fill="midnightblue" stroke="midnightblue" points="1017.86,-146 1027.86,-142.5 1017.86,-139 1017.86,-146"/>
</g>
<!-- Node11&#45;&gt;Node4 -->
<g id="edge11" class="edge"><title>Node11&#45;&gt;Node4</title>
<path fill="none" stroke="midnightblue" d="M649.194,-481.5C664.221,-481.5 680.42,-481.5 695.866,-481.5"/>
<polygon fill="midnightblue" stroke="midnightblue" points="695.887,-485 705.887,-481.5 695.887,-478 695.887,-485"/>
</g>
<!-- Node12 -->
<g id="node12" class="node"><title>Node12</title>
<g id="a_node12"><a xlink:href="classprior__hessian_1_1MultivariateNormalDist.html#a38fa22fd87e3603397c433e33ce0c2be" target="_top" xlink:title="prior_hessian::Multivariate\lNormalDist::sigma_inv">
<polygon fill="white" stroke="black" points="706,-352.5 706,-380.5 831,-380.5 831,-352.5 706,-352.5"/>
<text text-anchor="start" x="714" y="-369.3" font-family="Helvetica,sans-Serif" font-size="9.00">prior_hessian::Multivariate</text>
<text text-anchor="middle" x="768.5" y="-359.3" font-family="Helvetica,sans-Serif" font-size="9.00">NormalDist::sigma_inv</text>
</a>
</g>
</g>
<!-- Node11&#45;&gt;Node12 -->
<g id="edge12" class="edge"><title>Node11&#45;&gt;Node12</title>
<path fill="none" stroke="midnightblue" d="M648.326,-467.372C655.85,-464.601 663.257,-461.334 670,-457.5 701.807,-439.414 731.497,-408.983 749.564,-388.338"/>
<polygon fill="midnightblue" stroke="midnightblue" points="752.273,-390.556 756.123,-380.686 746.958,-386.001 752.273,-390.556"/>
</g>
<!-- Node13&#45;&gt;Node12 -->
<g id="edge14" class="edge"><title>Node13&#45;&gt;Node12</title>
<path fill="none" stroke="midnightblue" d="M467.13,-364.044C479.032,-363.817 491.403,-363.619 503,-363.5 577.218,-362.739 595.787,-362.359 670,-363.5 678.337,-363.628 687.073,-363.818 695.747,-364.041"/>
<polygon fill="midnightblue" stroke="midnightblue" points="695.782,-367.543 705.873,-364.317 695.972,-360.546 695.782,-367.543"/>
</g>
<!-- Node14&#45;&gt;Node4 -->
<g id="edge16" class="edge"><title>Node14&#45;&gt;Node4</title>
<path fill="none" stroke="midnightblue" d="M641.506,-448.602C661.173,-453.737 683.586,-459.589 704.002,-464.92"/>
<polygon fill="midnightblue" stroke="midnightblue" points="703.283,-468.349 713.843,-467.489 705.051,-461.577 703.283,-468.349"/>
</g>
<!-- Node14&#45;&gt;Node12 -->
<g id="edge17" class="edge"><title>Node14&#45;&gt;Node12</title>
<path fill="none" stroke="midnightblue" d="M639.794,-420.494C649.9,-417.449 660.344,-414.063 670,-410.5 689.992,-403.123 711.652,-393.518 729.467,-385.166"/>
<polygon fill="midnightblue" stroke="midnightblue" points="731.398,-388.124 738.933,-380.677 728.398,-381.799 731.398,-388.124"/>
</g>
<!-- Node15&#45;&gt;Node4 -->
<g id="edge19" class="edge"><title>Node15&#45;&gt;Node4</title>
<path fill="none" stroke="midnightblue" d="M647.912,-401.623C655.504,-404.184 663.04,-407.132 670,-410.5 697.42,-423.767 725.161,-444.883 744.004,-460.643"/>
<polygon fill="midnightblue" stroke="midnightblue" points="741.872,-463.425 751.755,-467.245 746.411,-458.096 741.872,-463.425"/>
</g>
<!-- Node15&#45;&gt;Node12 -->
<g id="edge20" class="edge"><title>Node15&#45;&gt;Node12</title>
<path fill="none" stroke="midnightblue" d="M668.023,-378.106C677.273,-377.027 686.657,-375.932 695.78,-374.867"/>
<polygon fill="midnightblue" stroke="midnightblue" points="696.421,-378.316 705.948,-373.681 695.609,-371.364 696.421,-378.316"/>
</g>
<!-- Node16&#45;&gt;Node12 -->
<g id="edge22" class="edge"><title>Node16&#45;&gt;Node12</title>
<path fill="none" stroke="midnightblue" d="M467.319,-326.697C530.704,-335.102 629.192,-348.161 695.92,-357.009"/>
<polygon fill="midnightblue" stroke="midnightblue" points="695.563,-360.492 705.936,-358.337 696.483,-353.553 695.563,-360.492"/>
</g>
<!-- Node17&#45;&gt;Node18 -->
<g id="edge24" class="edge"><title>Node17&#45;&gt;Node18</title>
<path fill="none" stroke="midnightblue" d="M467.194,-243.125C482.221,-245.713 498.42,-248.503 513.866,-251.163"/>
<polygon fill="midnightblue" stroke="midnightblue" points="513.438,-254.641 523.887,-252.889 514.626,-247.742 513.438,-254.641"/>
</g>
<!-- Node18&#45;&gt;Node4 -->
<g id="edge31" class="edge"><title>Node18&#45;&gt;Node4</title>
<path fill="none" stroke="midnightblue" d="M599.31,-277.804C630.024,-315.001 712.562,-414.964 749.361,-459.532"/>
<polygon fill="midnightblue" stroke="midnightblue" points="746.814,-461.944 755.88,-467.427 752.212,-457.488 746.814,-461.944"/>
</g>
<!-- Node18&#45;&gt;Node12 -->
<g id="edge32" class="edge"><title>Node18&#45;&gt;Node12</title>
<path fill="none" stroke="midnightblue" d="M635.699,-277.614C647.237,-281.755 659.304,-286.745 670,-292.5 697.386,-307.235 725.323,-329.306 744.232,-345.51"/>
<polygon fill="midnightblue" stroke="midnightblue" points="742.162,-348.349 752.002,-352.276 746.759,-343.069 742.162,-348.349"/>
</g>
<!-- Node19 -->
<g id="node19" class="node"><title>Node19</title>
<g id="a_node19"><a xlink:href="namespaceprior__hessian_1_1helpers.html#a5d1bbe705c849e9c225a831c853be8a7" target="_top" xlink:title="prior_hessian::helpers\l::compute_quadratic_from\l_symmetric">
<polygon fill="white" stroke="black" points="707,-185.5 707,-223.5 830,-223.5 830,-185.5 707,-185.5"/>
<text text-anchor="start" x="715" y="-212.3" font-family="Helvetica,sans-Serif" font-size="9.00">prior_hessian::helpers</text>
<text text-anchor="start" x="715" y="-202.3" font-family="Helvetica,sans-Serif" font-size="9.00">::compute_quadratic_from</text>
<text text-anchor="middle" x="768.5" y="-192.3" font-family="Helvetica,sans-Serif" font-size="9.00">_symmetric</text>
</a>
</g>
</g>
<!-- Node18&#45;&gt;Node19 -->
<g id="edge25" class="edge"><title>Node18&#45;&gt;Node19</title>
<path fill="none" stroke="midnightblue" d="M630.614,-249.368C651.273,-242.597 676.504,-234.327 699.65,-226.74"/>
<polygon fill="midnightblue" stroke="midnightblue" points="701.011,-229.977 709.423,-223.536 698.83,-223.325 701.011,-229.977"/>
</g>
<!-- Node21 -->
<g id="node21" class="node"><title>Node21</title>
<g id="a_node21"><a xlink:href="classprior__hessian_1_1MultivariateNormalDist.html#a99b496bd355946a89e6563375dcf5d7a" target="_top" xlink:title="prior_hessian::Multivariate\lNormalDist::num_dim">
<polygon fill="white" stroke="black" points="706,-249.5 706,-277.5 831,-277.5 831,-249.5 706,-249.5"/>
<text text-anchor="start" x="714" y="-266.3" font-family="Helvetica,sans-Serif" font-size="9.00">prior_hessian::Multivariate</text>
<text text-anchor="middle" x="768.5" y="-256.3" font-family="Helvetica,sans-Serif" font-size="9.00">NormalDist::num_dim</text>
</a>
</g>
</g>
<!-- Node18&#45;&gt;Node21 -->
<g id="edge27" class="edge"><title>Node18&#45;&gt;Node21</title>
<path fill="none" stroke="midnightblue" d="M649.194,-263.5C664.221,-263.5 680.42,-263.5 695.866,-263.5"/>
<polygon fill="midnightblue" stroke="midnightblue" points="695.887,-267 705.887,-263.5 695.887,-260 695.887,-267"/>
</g>
<!-- Node20 -->
<g id="node20" class="node"><title>Node20</title>
<g id="a_node20"><a xlink:href="namespaceprior__hessian.html#a706cb136b90f16dd920118eb59ef1ad6" target="_top" xlink:title="prior_hessian::square">
<polygon fill="white" stroke="black" points="876.5,-185.5 876.5,-203.5 982.5,-203.5 982.5,-185.5 876.5,-185.5"/>
<text text-anchor="middle" x="929.5" y="-192.3" font-family="Helvetica,sans-Serif" font-size="9.00">prior_hessian::square</text>
</a>
</g>
</g>
<!-- Node19&#45;&gt;Node20 -->
<g id="edge26" class="edge"><title>Node19&#45;&gt;Node20</title>
<path fill="none" stroke="midnightblue" d="M830.065,-200.691C841.875,-199.948 854.278,-199.168 866.145,-198.422"/>
<polygon fill="midnightblue" stroke="midnightblue" points="866.648,-201.897 876.408,-197.776 866.208,-194.911 866.648,-201.897"/>
</g>
<!-- Node22 -->
<g id="node22" class="node"><title>Node22</title>
<g id="a_node22"><a xlink:href="classprior__hessian_1_1MultivariateNormalDist.html#a492a872d5cfb8838225ac782b801a865" target="_top" xlink:title="prior_hessian::Multivariate\lNormalDist::lbound">
<polygon fill="white" stroke="black" points="867,-222.5 867,-250.5 992,-250.5 992,-222.5 867,-222.5"/>
<text text-anchor="start" x="875" y="-239.3" font-family="Helvetica,sans-Serif" font-size="9.00">prior_hessian::Multivariate</text>
<text text-anchor="middle" x="929.5" y="-229.3" font-family="Helvetica,sans-Serif" font-size="9.00">NormalDist::lbound</text>
</a>
</g>
</g>
<!-- Node21&#45;&gt;Node22 -->
<g id="edge28" class="edge"><title>Node21&#45;&gt;Node22</title>
<path fill="none" stroke="midnightblue" d="M831.429,-252.984C839.764,-251.568 848.371,-250.107 856.857,-248.666"/>
<polygon fill="midnightblue" stroke="midnightblue" points="857.467,-252.112 866.74,-246.988 856.295,-245.211 857.467,-252.112"/>
</g>
<!-- Node23 -->
<g id="node23" class="node"><title>Node23</title>
<g id="a_node23"><a xlink:href="classprior__hessian_1_1MultivariateNormalDist.html#a80a35218c42430f7a5162229779f1492" target="_top" xlink:title="prior_hessian::Multivariate\lNormalDist::ubound">
<polygon fill="white" stroke="black" points="867,-269.5 867,-297.5 992,-297.5 992,-269.5 867,-269.5"/>
<text text-anchor="start" x="875" y="-286.3" font-family="Helvetica,sans-Serif" font-size="9.00">prior_hessian::Multivariate</text>
<text text-anchor="middle" x="929.5" y="-276.3" font-family="Helvetica,sans-Serif" font-size="9.00">NormalDist::ubound</text>
</a>
</g>
</g>
<!-- Node21&#45;&gt;Node23 -->
<g id="edge29" class="edge"><title>Node21&#45;&gt;Node23</title>
<path fill="none" stroke="midnightblue" d="M831.429,-271.29C839.674,-272.327 848.184,-273.397 856.58,-274.454"/>
<polygon fill="midnightblue" stroke="midnightblue" points="856.382,-277.956 866.74,-275.731 857.255,-271.011 856.382,-277.956"/>
</g>
<!-- Node23&#45;&gt;Node10 -->
<g id="edge30" class="edge"><title>Node23&#45;&gt;Node10</title>
<path fill="none" stroke="midnightblue" d="M974.6,-269.46C980.709,-266.625 986.698,-263.317 992,-259.5 1028.08,-233.517 1058.84,-191.181 1075.69,-165.19"/>
<polygon fill="midnightblue" stroke="midnightblue" points="1078.65,-167.05 1081.06,-156.732 1072.74,-163.3 1078.65,-167.05"/>
</g>
<!-- Node24&#45;&gt;Node17 -->
<g id="edge35" class="edge"><title>Node24&#45;&gt;Node17</title>
<path fill="none" stroke="midnightblue" d="M296.47,-236.3C307.909,-235.894 319.942,-235.467 331.645,-235.051"/>
<polygon fill="midnightblue" stroke="midnightblue" points="331.951,-238.543 341.82,-234.69 331.702,-231.547 331.951,-238.543"/>
</g>
<!-- Node25&#45;&gt;Node4 -->
<g id="edge38" class="edge"><title>Node25&#45;&gt;Node4</title>
<path fill="none" stroke="midnightblue" d="M276.834,-657.568C303.938,-666.456 335.253,-676.459 342,-677.5 488.156,-700.062 549.28,-706.924 670,-621.5 712.543,-591.396 742.665,-536.535 757.343,-505.172"/>
<polygon fill="midnightblue" stroke="midnightblue" points="760.616,-506.428 761.561,-495.876 754.242,-503.536 760.616,-506.428"/>
</g>
<!-- Node25&#45;&gt;Node7 -->
<g id="edge39" class="edge"><title>Node25&#45;&gt;Node7</title>
<path fill="none" stroke="midnightblue" d="M296.47,-647.167C307.909,-647.844 319.942,-648.556 331.645,-649.248"/>
<polygon fill="midnightblue" stroke="midnightblue" points="331.631,-652.753 341.82,-649.85 332.044,-645.766 331.631,-652.753"/>
</g>
<!-- Node27 -->
<g id="node27" class="node"><title>Node27</title>
<g id="a_node27"><a xlink:href="classprior__hessian_1_1MultivariateNormalDist.html#af968e071050a9b2ba4b4ef96b206602b" target="_top" xlink:title="prior_hessian::Multivariate\lNormalDist::set_params">
<polygon fill="white" stroke="black" points="342,-66.5 342,-94.5 467,-94.5 467,-66.5 342,-66.5"/>
<text text-anchor="start" x="350" y="-83.3" font-family="Helvetica,sans-Serif" font-size="9.00">prior_hessian::Multivariate</text>
<text text-anchor="middle" x="404.5" y="-73.3" font-family="Helvetica,sans-Serif" font-size="9.00">NormalDist::set_params</text>
</a>
</g>
</g>
<!-- Node26&#45;&gt;Node27 -->
<g id="edge41" class="edge"><title>Node26&#45;&gt;Node27</title>
<path fill="none" stroke="midnightblue" d="M300.324,-85.9946C310.542,-85.4504 321.143,-84.8859 331.489,-84.3349"/>
<polygon fill="midnightblue" stroke="midnightblue" points="331.927,-87.8166 341.727,-83.7897 331.555,-80.8265 331.927,-87.8166"/>
</g>
<!-- Node27&#45;&gt;Node10 -->
<g id="edge45" class="edge"><title>Node27&#45;&gt;Node10</title>
<path fill="none" stroke="midnightblue" d="M467.261,-84.3116C574.302,-91.1953 801.139,-107.007 992,-128.5 1000.37,-129.442 1009.12,-130.54 1017.81,-131.698"/>
<polygon fill="midnightblue" stroke="midnightblue" points="1017.56,-135.197 1027.94,-133.08 1018.5,-128.261 1017.56,-135.197"/>
</g>
<!-- Node28 -->
<g id="node28" class="node"><title>Node28</title>
<g id="a_node28"><a xlink:href="classprior__hessian_1_1MultivariateNormalDist.html#a3a232f67a79457c91ce1c061a19d18bc" target="_top" xlink:title="prior_hessian::Multivariate\lNormalDist::set_mu">
<polygon fill="white" stroke="black" points="524,-47.5 524,-75.5 649,-75.5 649,-47.5 524,-47.5"/>
<text text-anchor="start" x="532" y="-64.3" font-family="Helvetica,sans-Serif" font-size="9.00">prior_hessian::Multivariate</text>
<text text-anchor="middle" x="586.5" y="-54.3" font-family="Helvetica,sans-Serif" font-size="9.00">NormalDist::set_mu</text>
</a>
</g>
</g>
<!-- Node27&#45;&gt;Node28 -->
<g id="edge42" class="edge"><title>Node27&#45;&gt;Node28</title>
<path fill="none" stroke="midnightblue" d="M467.194,-73.9879C482.221,-72.4017 498.42,-70.6918 513.866,-69.0614"/>
<polygon fill="midnightblue" stroke="midnightblue" points="514.309,-72.5341 523.887,-68.0036 513.574,-65.5728 514.309,-72.5341"/>
</g>
<!-- Node30 -->
<g id="node30" class="node"><title>Node30</title>
<g id="a_node30"><a xlink:href="classprior__hessian_1_1MultivariateNormalDist.html#aecd463f33fd68330ae245c2ad05e7b2f" target="_top" xlink:title="prior_hessian::Multivariate\lNormalDist::set_sigma">
<polygon fill="white" stroke="black" points="524,-0.5 524,-28.5 649,-28.5 649,-0.5 524,-0.5"/>
<text text-anchor="start" x="532" y="-17.3" font-family="Helvetica,sans-Serif" font-size="9.00">prior_hessian::Multivariate</text>
<text text-anchor="middle" x="586.5" y="-7.3" font-family="Helvetica,sans-Serif" font-size="9.00">NormalDist::set_sigma</text>
</a>
</g>
</g>
<!-- Node27&#45;&gt;Node30 -->
<g id="edge44" class="edge"><title>Node27&#45;&gt;Node30</title>
<path fill="none" stroke="midnightblue" d="M434.495,-66.4012C453.657,-57.412 479.485,-45.9142 503,-37.5 508.788,-35.4289 514.858,-33.4269 520.969,-31.5257"/>
<polygon fill="midnightblue" stroke="midnightblue" points="522.008,-34.8679 530.569,-28.6255 519.984,-28.167 522.008,-34.8679"/>
</g>
<!-- Node29 -->
<g id="node29" class="node"><title>Node29</title>
<g id="a_node29"><a xlink:href="classprior__hessian_1_1MultivariateNormalDist.html#af202c613f03a8d07d9ab80ead9f4064b" target="_top" xlink:title="prior_hessian::Multivariate\lNormalDist::check_mu">
<polygon fill="white" stroke="black" points="706,-47.5 706,-75.5 831,-75.5 831,-47.5 706,-47.5"/>
<text text-anchor="start" x="714" y="-64.3" font-family="Helvetica,sans-Serif" font-size="9.00">prior_hessian::Multivariate</text>
<text text-anchor="middle" x="768.5" y="-54.3" font-family="Helvetica,sans-Serif" font-size="9.00">NormalDist::check_mu</text>
</a>
</g>
</g>
<!-- Node28&#45;&gt;Node29 -->
<g id="edge43" class="edge"><title>Node28&#45;&gt;Node29</title>
<path fill="none" stroke="midnightblue" d="M649.194,-61.5C664.221,-61.5 680.42,-61.5 695.866,-61.5"/>
<polygon fill="midnightblue" stroke="midnightblue" points="695.887,-65.0001 705.887,-61.5 695.887,-58.0001 695.887,-65.0001"/>
</g>
</g>
</svg>
        <g id="navigator" transform="translate(0 0)" fill="#404254">
                <rect fill="#f2f5e9" fill-opacity="0.5" stroke="#606060" stroke-width=".5" x="0" y="0" width="60" height="60"/>
                <use id="zoomplus" xlink:href="#zoomPlus" x="17" y="9" onmousedown="handleZoom(evt,'in')"/>
                <use id="zoomminus" xlink:href="#zoomMin" x="42" y="9" onmousedown="handleZoom(evt,'out')"/>
                <use id="reset" xlink:href="#resetDef" x="30" y="36" onmousedown="handleReset()"/>
                <g id="arrowUp" xlink:href="#dirArrow" transform="translate(30 24)" onmousedown="handlePan(0,-1)">
                  <use xlink:href="#rim" fill="#404040">
                        <set attributeName="fill" to="#808080" begin="arrowUp.mouseover" end="arrowUp.mouseout"/>
                  </use>
                  <path fill="none" stroke="white" stroke-width="1.5" d="M0,-3.0v7 M-2.5,-0.5L0,-3.0L2.5,-0.5"/>
                </g>
                <g id="arrowRight" xlink:href="#dirArrow" transform="rotate(90) translate(36 -43)" onmousedown="handlePan(1,0)">
                  <use xlink:href="#rim" fill="#404040">
                        <set attributeName="fill" to="#808080" begin="arrowRight.mouseover" end="arrowRight.mouseout"/>
                  </use>
                  <path fill="none" stroke="white" stroke-width="1.5" d="M0,-3.0v7 M-2.5,-0.5L0,-3.0L2.5,-0.5"/>
                </g>
                <g id="arrowDown" xlink:href="#dirArrow" transform="rotate(180) translate(-30 -48)" onmousedown="handlePan(0,1)">
                  <use xlink:href="#rim" fill="#404040">
                        <set attributeName="fill" to="#808080" begin="arrowDown.mouseover" end="arrowDown.mouseout"/>
                  </use>
                  <path fill="none" stroke="white" stroke-width="1.5" d="M0,-3.0v7 M-2.5,-0.5L0,-3.0L2.5,-0.5"/>
                </g>
                <g id="arrowLeft" xlink:href="#dirArrow" transform="rotate(270) translate(-36 17)" onmousedown="handlePan(-1,0)">
                  <use xlink:href="#rim" fill="#404040">
                        <set attributeName="fill" to="#808080" begin="arrowLeft.mouseover" end="arrowLeft.mouseout"/>
                  </use>
                  <path fill="none" stroke="white" stroke-width="1.5" d="M0,-3.0v7 M-2.5,-0.5L0,-3.0L2.5,-0.5"/>
                </g>
        </g>
        <svg viewBox="0 0 15 15" width="100%" height="30px" preserveAspectRatio="xMaxYMin meet">
         <g id="arrow_out" transform="scale(0.3 0.3)">
          <a xlink:href="classprior__hessian_1_1MultivariateNormalDist_afdec8e6a453a2c69e0d84833d6b3e5ae_cgraph_org.svg" target="_base">
           <rect id="button" ry="5" rx="5" y="6" x="6" height="38" width="38"
                fill="#f2f5e9" fill-opacity="0.5" stroke="#606060" stroke-width="1.0"/>
           <path id="arrow"
             d="M 11.500037,31.436501 C 11.940474,20.09759 22.043105,11.32322 32.158766,21.979434 L 37.068811,17.246167 C 37.068811,17.246167 37.088388,32 37.088388,32 L 22.160133,31.978069 C 22.160133,31.978069 26.997745,27.140456 26.997745,27.140456 C 18.528582,18.264221 13.291696,25.230495 11.500037,31.436501 z"
             style="fill:#404040;"/>
          </a>
         </g>
        </svg>
</svg>
