<?xml version="1.0" encoding="UTF-8" standalone="no"?>
<!DOCTYPE svg PUBLIC "-//W3C//DTD SVG 1.1//EN"
 "http://www.w3.org/Graphics/SVG/1.1/DTD/svg11.dtd">
<!-- Generated by graphviz version 2.38.0 (20140413.2041)
 -->
<!-- Title: prior_hessian::ScaledDist::set_ubound Pages: 1 -->
<svg width="446pt" height="178pt"
 viewBox="0.00 0.00 446.00 178.00" xmlns="http://www.w3.org/2000/svg" xmlns:xlink="http://www.w3.org/1999/xlink">
<g id="graph0" class="graph" transform="scale(1 1) rotate(0) translate(4 174)">
<title>prior_hessian::ScaledDist::set_ubound</title>
<polygon fill="white" stroke="none" points="-4,4 -4,-174 442,-174 442,4 -4,4"/>
<!-- Node1 -->
<g id="node1" class="node"><title>Node1</title>
<polygon fill="#bfbfbf" stroke="black" points="0,-116.5 0,-144.5 122,-144.5 122,-116.5 0,-116.5"/>
<text text-anchor="start" x="8" y="-133.3" font-family="Helvetica,sans-Serif" font-size="9.00">prior_hessian::ScaledDist</text>
<text text-anchor="middle" x="61" y="-123.3" font-family="Helvetica,sans-Serif" font-size="9.00">::set_ubound</text>
</g>
<!-- Node2 -->
<g id="node2" class="node"><title>Node2</title>
<g id="a_node2"><a xlink:href="classprior__hessian_1_1ScaledDist.html#a46bce2de3c0e030e9e4542195ecb429f" target="_top" xlink:title="prior_hessian::ScaledDist\l::lbound">
<polygon fill="white" stroke="black" points="316,-141.5 316,-169.5 438,-169.5 438,-141.5 316,-141.5"/>
<text text-anchor="start" x="324" y="-158.3" font-family="Helvetica,sans-Serif" font-size="9.00">prior_hessian::ScaledDist</text>
<text text-anchor="middle" x="377" y="-148.3" font-family="Helvetica,sans-Serif" font-size="9.00">::lbound</text>
</a>
</g>
</g>
<!-- Node1&#45;&gt;Node2 -->
<g id="edge1" class="edge"><title>Node1&#45;&gt;Node2</title>
<path fill="none" stroke="midnightblue" d="M122.171,-135.291C174.559,-139.462 250.546,-145.512 305.717,-149.904"/>
<polygon fill="midnightblue" stroke="midnightblue" points="305.519,-153.399 315.766,-150.704 306.075,-146.422 305.519,-153.399"/>
</g>
<!-- Node3 -->
<g id="node3" class="node"><title>Node3</title>
<g id="a_node3"><a xlink:href="classprior__hessian_1_1ScaledDist.html#a07e9dea370e56001f76ed8e10693f399" target="_top" xlink:title="prior_hessian::ScaledDist\l::set_bounds">
<polygon fill="white" stroke="black" points="158,-94.5 158,-122.5 280,-122.5 280,-94.5 158,-94.5"/>
<text text-anchor="start" x="166" y="-111.3" font-family="Helvetica,sans-Serif" font-size="9.00">prior_hessian::ScaledDist</text>
<text text-anchor="middle" x="219" y="-101.3" font-family="Helvetica,sans-Serif" font-size="9.00">::set_bounds</text>
</a>
</g>
</g>
<!-- Node1&#45;&gt;Node3 -->
<g id="edge2" class="edge"><title>Node1&#45;&gt;Node3</title>
<path fill="none" stroke="midnightblue" d="M122.314,-121.994C130.695,-120.812 139.363,-119.59 147.904,-118.385"/>
<polygon fill="midnightblue" stroke="midnightblue" points="148.433,-121.845 157.847,-116.983 147.456,-114.914 148.433,-121.845"/>
</g>
<!-- Node3&#45;&gt;Node2 -->
<g id="edge3" class="edge"><title>Node3&#45;&gt;Node2</title>
<path fill="none" stroke="midnightblue" d="M266.805,-122.602C283.385,-127.597 302.217,-133.27 319.517,-138.483"/>
<polygon fill="midnightblue" stroke="midnightblue" points="318.912,-141.956 329.497,-141.489 320.932,-135.253 318.912,-141.956"/>
</g>
<!-- Node4 -->
<g id="node4" class="node"><title>Node4</title>
<g id="a_node4"><a xlink:href="classprior__hessian_1_1ScaledDist.html#a70c8013325f5b8709be0900dba6e9eda" target="_top" xlink:title="prior_hessian::ScaledDist\l::ubound">
<polygon fill="white" stroke="black" points="316,-94.5 316,-122.5 438,-122.5 438,-94.5 316,-94.5"/>
<text text-anchor="start" x="324" y="-111.3" font-family="Helvetica,sans-Serif" font-size="9.00">prior_hessian::ScaledDist</text>
<text text-anchor="middle" x="377" y="-101.3" font-family="Helvetica,sans-Serif" font-size="9.00">::ubound</text>
</a>
</g>
</g>
<!-- Node3&#45;&gt;Node4 -->
<g id="edge4" class="edge"><title>Node3&#45;&gt;Node4</title>
<path fill="none" stroke="midnightblue" d="M280.314,-108.5C288.604,-108.5 297.175,-108.5 305.626,-108.5"/>
<polygon fill="midnightblue" stroke="midnightblue" points="305.847,-112 315.847,-108.5 305.847,-105 305.847,-112"/>
</g>
<!-- Node5 -->
<g id="node5" class="node"><title>Node5</title>
<g id="a_node5"><a xlink:href="classprior__hessian_1_1ScaledDist.html#a364788705694bdd46cd5876e92e1ad87" target="_top" xlink:title="prior_hessian::ScaledDist\l::unscaled_lbound">
<polygon fill="white" stroke="black" points="316,-47.5 316,-75.5 438,-75.5 438,-47.5 316,-47.5"/>
<text text-anchor="start" x="324" y="-64.3" font-family="Helvetica,sans-Serif" font-size="9.00">prior_hessian::ScaledDist</text>
<text text-anchor="middle" x="377" y="-54.3" font-family="Helvetica,sans-Serif" font-size="9.00">::unscaled_lbound</text>
</a>
</g>
</g>
<!-- Node3&#45;&gt;Node5 -->
<g id="edge5" class="edge"><title>Node3&#45;&gt;Node5</title>
<path fill="none" stroke="midnightblue" d="M266.805,-94.3985C283.385,-89.4031 302.217,-83.7295 319.517,-78.5174"/>
<polygon fill="midnightblue" stroke="midnightblue" points="320.932,-81.7466 329.497,-75.5106 318.912,-75.0442 320.932,-81.7466"/>
</g>
<!-- Node6 -->
<g id="node6" class="node"><title>Node6</title>
<g id="a_node6"><a xlink:href="classprior__hessian_1_1ScaledDist.html#aa1aa0261a6a67d19016cdd99265bae8e" target="_top" xlink:title="prior_hessian::ScaledDist\l::unscaled_ubound">
<polygon fill="white" stroke="black" points="316,-0.5 316,-28.5 438,-28.5 438,-0.5 316,-0.5"/>
<text text-anchor="start" x="324" y="-17.3" font-family="Helvetica,sans-Serif" font-size="9.00">prior_hessian::ScaledDist</text>
<text text-anchor="middle" x="377" y="-7.3" font-family="Helvetica,sans-Serif" font-size="9.00">::unscaled_ubound</text>
</a>
</g>
</g>
<!-- Node3&#45;&gt;Node6 -->
<g id="edge6" class="edge"><title>Node3&#45;&gt;Node6</title>
<path fill="none" stroke="midnightblue" d="M236.064,-94.4773C254.418,-78.9837 285.825,-54.0407 316,-37.5 319.077,-35.8134 322.303,-34.194 325.596,-32.6508"/>
<polygon fill="midnightblue" stroke="midnightblue" points="327.246,-35.7486 334.984,-28.5109 324.421,-29.3438 327.246,-35.7486"/>
</g>
</g>
</svg>
