<?xml version="1.0" encoding="UTF-8" standalone="no"?>
<!DOCTYPE svg PUBLIC "-//W3C//DTD SVG 1.1//EN"
 "http://www.w3.org/Graphics/SVG/1.1/DTD/svg11.dtd">
<!-- Generated by graphviz version 2.38.0 (20140413.2041)
 -->
<!-- Title: prior_hessian::ScaledDist::set_ubound Pages: 1 -->
<svg width="288pt" height="37pt"
 viewBox="0.00 0.00 288.00 37.00" xmlns="http://www.w3.org/2000/svg" xmlns:xlink="http://www.w3.org/1999/xlink">
<g id="graph0" class="graph" transform="scale(1 1) rotate(0) translate(4 33)">
<title>prior_hessian::ScaledDist::set_ubound</title>
<polygon fill="white" stroke="none" points="-4,4 -4,-33 284,-33 284,4 -4,4"/>
<!-- Node1 -->
<g id="node1" class="node"><title>Node1</title>
<polygon fill="#bfbfbf" stroke="black" points="0,-0.5 0,-28.5 122,-28.5 122,-0.5 0,-0.5"/>
<text text-anchor="start" x="8" y="-17.3" font-family="Helvetica,sans-Serif" font-size="9.00">prior_hessian::ScaledDist</text>
<text text-anchor="middle" x="61" y="-7.3" font-family="Helvetica,sans-Serif" font-size="9.00">::set_ubound</text>
</g>
<!-- Node2 -->
<g id="node2" class="node"><title>Node2</title>
<g id="a_node2"><a xlink:href="classprior__hessian_1_1ScaledDist.html#ada92f440acb5566f8e97f653f4da2015" target="_top" xlink:title="prior_hessian::ScaledDist\l::operator!=">
<polygon fill="white" stroke="black" points="158,-0.5 158,-28.5 280,-28.5 280,-0.5 158,-0.5"/>
<text text-anchor="start" x="166" y="-17.3" font-family="Helvetica,sans-Serif" font-size="9.00">prior_hessian::ScaledDist</text>
<text text-anchor="middle" x="219" y="-7.3" font-family="Helvetica,sans-Serif" font-size="9.00">::operator!=</text>
</a>
</g>
</g>
<!-- Node1&#45;&gt;Node2 -->
<g id="edge1" class="edge"><title>Node1&#45;&gt;Node2</title>
<path fill="none" stroke="midnightblue" d="M132.538,-14.5C140.99,-14.5 149.56,-14.5 157.847,-14.5"/>
<polygon fill="midnightblue" stroke="midnightblue" points="132.314,-11.0001 122.314,-14.5 132.314,-18.0001 132.314,-11.0001"/>
</g>
</g>
</svg>
