<?xml version="1.0" encoding="UTF-8" standalone="no"?>
<!DOCTYPE svg PUBLIC "-//W3C//DTD SVG 1.1//EN"
 "http://www.w3.org/Graphics/SVG/1.1/DTD/svg11.dtd">
<!-- Generated by graphviz version 2.38.0 (20140413.2041)
 -->
<!-- Title: prior_hessian::AMHCopula::igen_sum Pages: 1 -->
<svg width="642pt" height="76pt"
 viewBox="0.00 0.00 642.00 76.00" xmlns="http://www.w3.org/2000/svg" xmlns:xlink="http://www.w3.org/1999/xlink">
<g id="graph0" class="graph" transform="scale(1 1) rotate(0) translate(4 72)">
<title>prior_hessian::AMHCopula::igen_sum</title>
<polygon fill="white" stroke="none" points="-4,4 -4,-72 638,-72 638,4 -4,4"/>
<!-- Node1 -->
<g id="node1" class="node"><title>Node1</title>
<polygon fill="#bfbfbf" stroke="black" points="0,-21.5 0,-49.5 128,-49.5 128,-21.5 0,-21.5"/>
<text text-anchor="start" x="8" y="-38.3" font-family="Helvetica,sans-Serif" font-size="9.00">prior_hessian::AMHCopula</text>
<text text-anchor="middle" x="64" y="-28.3" font-family="Helvetica,sans-Serif" font-size="9.00">::igen_sum</text>
</g>
<!-- Node1&#45;&gt;Node1 -->
<g id="edge5" class="edge"><title>Node1&#45;&gt;Node1</title>
<path fill="none" stroke="midnightblue" d="M34.3537,-59.4873C37.5017,-64.4413 47.3838,-68 64,-68 90.5859,-68 99.9326,-58.8898 92.0399,-49.5305"/>
<polygon fill="midnightblue" stroke="midnightblue" points="37.8226,-59.9603 35.9601,-49.5305 30.9119,-58.8453 37.8226,-59.9603"/>
</g>
<!-- Node2 -->
<g id="node2" class="node"><title>Node2</title>
<g id="a_node2"><a xlink:href="classprior__hessian_1_1AMHCopula.html#a19aecc89d6a1d6c46aa595a13999cfb2" target="_top" xlink:title="prior_hessian::AMHCopula\l::d1_igen">
<polygon fill="white" stroke="black" points="164,-0.5 164,-28.5 292,-28.5 292,-0.5 164,-0.5"/>
<text text-anchor="start" x="172" y="-17.3" font-family="Helvetica,sans-Serif" font-size="9.00">prior_hessian::AMHCopula</text>
<text text-anchor="middle" x="228" y="-7.3" font-family="Helvetica,sans-Serif" font-size="9.00">::d1_igen</text>
</a>
</g>
</g>
<!-- Node1&#45;&gt;Node2 -->
<g id="edge1" class="edge"><title>Node1&#45;&gt;Node2</title>
<path fill="none" stroke="midnightblue" d="M138.094,-26.0249C146.676,-24.9124 155.378,-23.7844 163.808,-22.6915"/>
<polygon fill="midnightblue" stroke="midnightblue" points="137.564,-22.5641 128.097,-27.3207 138.464,-29.5061 137.564,-22.5641"/>
</g>
<!-- Node3 -->
<g id="node3" class="node"><title>Node3</title>
<g id="a_node3"><a xlink:href="classprior__hessian_1_1AMHCopula.html#ad1ce11681554712db7a56bb4cb54c3e9" target="_top" xlink:title="prior_hessian::AMHCopula::llh">
<polygon fill="white" stroke="black" points="328,-43.5 328,-61.5 470,-61.5 470,-43.5 328,-43.5"/>
<text text-anchor="middle" x="399" y="-50.3" font-family="Helvetica,sans-Serif" font-size="9.00">prior_hessian::AMHCopula::llh</text>
</a>
</g>
</g>
<!-- Node1&#45;&gt;Node3 -->
<g id="edge6" class="edge"><title>Node1&#45;&gt;Node3</title>
<path fill="none" stroke="midnightblue" d="M138.301,-39.2421C194.693,-42.121 272.127,-46.0741 327.743,-48.9133"/>
<polygon fill="midnightblue" stroke="midnightblue" points="138.192,-35.732 128.026,-38.7176 137.835,-42.7229 138.192,-35.732"/>
</g>
<!-- Node2&#45;&gt;Node3 -->
<g id="edge2" class="edge"><title>Node2&#45;&gt;Node3</title>
<path fill="none" stroke="midnightblue" d="M301.453,-30.7912C320.775,-35.1358 340.954,-39.6732 357.839,-43.4697"/>
<polygon fill="midnightblue" stroke="midnightblue" points="301.973,-27.3209 291.449,-28.5418 300.438,-34.1504 301.973,-27.3209"/>
</g>
<!-- Node4 -->
<g id="node4" class="node"><title>Node4</title>
<g id="a_node4"><a xlink:href="classprior__hessian_1_1AMHCopula.html#a5f5ab047fa0c58b93e7b8e072bc9c682" target="_top" xlink:title="prior_hessian::AMHCopula\l::set_params_iter">
<polygon fill="white" stroke="black" points="506,-19.5 506,-47.5 634,-47.5 634,-19.5 506,-19.5"/>
<text text-anchor="start" x="514" y="-36.3" font-family="Helvetica,sans-Serif" font-size="9.00">prior_hessian::AMHCopula</text>
<text text-anchor="middle" x="570" y="-26.3" font-family="Helvetica,sans-Serif" font-size="9.00">::set_params_iter</text>
</a>
</g>
</g>
<!-- Node2&#45;&gt;Node4 -->
<g id="edge4" class="edge"><title>Node2&#45;&gt;Node4</title>
<path fill="none" stroke="midnightblue" d="M302.425,-18.6031C363.078,-21.9926 448.273,-26.7535 505.896,-29.9736"/>
<polygon fill="midnightblue" stroke="midnightblue" points="302.334,-15.0927 292.155,-18.0292 301.944,-22.0818 302.334,-15.0927"/>
</g>
<!-- Node3&#45;&gt;Node4 -->
<g id="edge3" class="edge"><title>Node3&#45;&gt;Node4</title>
<path fill="none" stroke="midnightblue" d="M480.22,-43.4812C488.794,-42.5172 497.427,-41.5467 505.765,-40.6093"/>
<polygon fill="midnightblue" stroke="midnightblue" points="479.749,-40.012 470.203,-44.6074 480.531,-46.9681 479.749,-40.012"/>
</g>
</g>
</svg>
