<?xml version="1.0" encoding="UTF-8" standalone="no"?>
<!DOCTYPE svg PUBLIC "-//W3C//DTD SVG 1.1//EN"
 "http://www.w3.org/Graphics/SVG/1.1/DTD/svg11.dtd">
<!-- Generated by graphviz version 2.38.0 (20140413.2041)
 -->
<!-- Title: prior_hessian::CopulaDistImpl::CopulaDist::global_lbound Pages: 1 -->
<svg width="1018pt" height="201pt"
 viewBox="0.00 0.00 1018.00 201.00" xmlns="http://www.w3.org/2000/svg" xmlns:xlink="http://www.w3.org/1999/xlink">
<g id="graph0" class="graph" transform="scale(1 1) rotate(0) translate(4 197)">
<title>prior_hessian::CopulaDistImpl::CopulaDist::global_lbound</title>
<polygon fill="white" stroke="none" points="-4,4 -4,-197 1014,-197 1014,4 -4,4"/>
<!-- Node1 -->
<g id="node1" class="node"><title>Node1</title>
<polygon fill="#bfbfbf" stroke="black" points="0,-128.5 0,-156.5 148,-156.5 148,-128.5 0,-128.5"/>
<text text-anchor="start" x="8" y="-145.3" font-family="Helvetica,sans-Serif" font-size="9.00">prior_hessian::CopulaDist</text>
<text text-anchor="middle" x="74" y="-135.3" font-family="Helvetica,sans-Serif" font-size="9.00">Impl::CopulaDist::global_lbound</text>
</g>
<!-- Node2 -->
<g id="node2" class="node"><title>Node2</title>
<g id="a_node2"><a xlink:href="classprior__hessian_1_1CopulaDistImpl_1_1CopulaDist.html#a26cd71990978df0ddae24dae5148c880" target="_top" xlink:title="prior_hessian::CopulaDist\lImpl::CopulaDist::num_dim">
<polygon fill="white" stroke="black" points="878,-164.5 878,-192.5 1005,-192.5 1005,-164.5 878,-164.5"/>
<text text-anchor="start" x="886" y="-181.3" font-family="Helvetica,sans-Serif" font-size="9.00">prior_hessian::CopulaDist</text>
<text text-anchor="middle" x="941.5" y="-171.3" font-family="Helvetica,sans-Serif" font-size="9.00">Impl::CopulaDist::num_dim</text>
</a>
</g>
</g>
<!-- Node1&#45;&gt;Node2 -->
<g id="edge1" class="edge"><title>Node1&#45;&gt;Node2</title>
<path fill="none" stroke="midnightblue" d="M145.92,-158.595C158.56,-161.14 171.637,-163.566 184,-165.5 287.071,-181.625 313.175,-189.5 417.5,-189.5 417.5,-189.5 417.5,-189.5 584,-189.5 686.945,-189.5 806.532,-184.861 877.73,-181.608"/>
<polygon fill="midnightblue" stroke="midnightblue" points="146.399,-155.12 135.899,-156.535 144.989,-161.977 146.399,-155.12"/>
</g>
<!-- Node3 -->
<g id="node3" class="node"><title>Node3</title>
<g id="a_node3"><a xlink:href="classprior__hessian_1_1CopulaDistImpl_1_1CopulaDist.html#ad5f8f42efd9f709625cf60836fa473b9" target="_top" xlink:title="prior_hessian::CopulaDist\lImpl::CopulaDist::set_bounds">
<polygon fill="white" stroke="black" points="184,-128.5 184,-156.5 321,-156.5 321,-128.5 184,-128.5"/>
<text text-anchor="start" x="192" y="-145.3" font-family="Helvetica,sans-Serif" font-size="9.00">prior_hessian::CopulaDist</text>
<text text-anchor="middle" x="252.5" y="-135.3" font-family="Helvetica,sans-Serif" font-size="9.00">Impl::CopulaDist::set_bounds</text>
</a>
</g>
</g>
<!-- Node1&#45;&gt;Node3 -->
<g id="edge2" class="edge"><title>Node1&#45;&gt;Node3</title>
<path fill="none" stroke="midnightblue" d="M158.135,-142.5C166.758,-142.5 175.445,-142.5 183.867,-142.5"/>
<polygon fill="midnightblue" stroke="midnightblue" points="158.063,-139 148.063,-142.5 158.063,-146 158.063,-139"/>
</g>
<!-- Node5 -->
<g id="node5" class="node"><title>Node5</title>
<g id="a_node5"><a xlink:href="classprior__hessian_1_1CopulaDistImpl_1_1CopulaDist.html#ac0819ccaeef1afd7a123338823e8fb3c" target="_top" xlink:title="prior_hessian::CopulaDist\lImpl::CopulaDist::set_lbound">
<polygon fill="white" stroke="black" points="516,-0.5 516,-28.5 650,-28.5 650,-0.5 516,-0.5"/>
<text text-anchor="start" x="524" y="-17.3" font-family="Helvetica,sans-Serif" font-size="9.00">prior_hessian::CopulaDist</text>
<text text-anchor="middle" x="583" y="-7.3" font-family="Helvetica,sans-Serif" font-size="9.00">Impl::CopulaDist::set_lbound</text>
</a>
</g>
</g>
<!-- Node1&#45;&gt;Node5 -->
<g id="edge14" class="edge"><title>Node1&#45;&gt;Node5</title>
<path fill="none" stroke="midnightblue" d="M112.717,-123.922C165.803,-98.7125 266.237,-54.4207 357,-33.5 409.525,-21.3932 470.536,-16.8105 515.765,-15.162"/>
<polygon fill="midnightblue" stroke="midnightblue" points="110.877,-120.922 103.369,-128.397 113.9,-127.236 110.877,-120.922"/>
</g>
<!-- Node4 -->
<g id="node4" class="node"><title>Node4</title>
<g id="a_node4"><a xlink:href="classprior__hessian_1_1CopulaDistImpl_1_1CopulaDist.html#abdb39f0c5f7f5f4b16bf501e6083d5b6" target="_top" xlink:title="prior_hessian::CopulaDist\lImpl::CopulaDist::ubound">
<polygon fill="white" stroke="black" points="357,-43.5 357,-71.5 480,-71.5 480,-43.5 357,-43.5"/>
<text text-anchor="start" x="365" y="-60.3" font-family="Helvetica,sans-Serif" font-size="9.00">prior_hessian::CopulaDist</text>
<text text-anchor="middle" x="418.5" y="-50.3" font-family="Helvetica,sans-Serif" font-size="9.00">Impl::CopulaDist::ubound</text>
</a>
</g>
</g>
<!-- Node3&#45;&gt;Node4 -->
<g id="edge3" class="edge"><title>Node3&#45;&gt;Node4</title>
<path fill="none" stroke="midnightblue" d="M289.588,-123.796C319.993,-108.037 362.826,-85.8372 390.379,-71.5569"/>
<polygon fill="midnightblue" stroke="midnightblue" points="287.849,-120.755 280.581,-128.464 291.07,-126.97 287.849,-120.755"/>
</g>
<!-- Node6 -->
<g id="node6" class="node"><title>Node6</title>
<g id="a_node6"><a xlink:href="classprior__hessian_1_1CopulaDistImpl_1_1CopulaDist.html#aad110f1a85e7611fd098aa51c2104015" target="_top" xlink:title="prior_hessian::CopulaDist\lImpl::CopulaDist::global_ubound">
<polygon fill="white" stroke="black" points="686,-107.5 686,-135.5 837,-135.5 837,-107.5 686,-107.5"/>
<text text-anchor="start" x="694" y="-124.3" font-family="Helvetica,sans-Serif" font-size="9.00">prior_hessian::CopulaDist</text>
<text text-anchor="middle" x="761.5" y="-114.3" font-family="Helvetica,sans-Serif" font-size="9.00">Impl::CopulaDist::global_ubound</text>
</a>
</g>
</g>
<!-- Node3&#45;&gt;Node6 -->
<g id="edge13" class="edge"><title>Node3&#45;&gt;Node6</title>
<path fill="none" stroke="midnightblue" d="M331.069,-134.264C427.506,-127.942 590.963,-121.197 685.968,-119.639"/>
<polygon fill="midnightblue" stroke="midnightblue" points="330.831,-130.772 321.088,-134.933 331.3,-137.756 330.831,-130.772"/>
</g>
<!-- Node4&#45;&gt;Node5 -->
<g id="edge4" class="edge"><title>Node4&#45;&gt;Node5</title>
<path fill="none" stroke="midnightblue" d="M461.881,-40.2749C478.398,-35.224 497.719,-29.9004 515.976,-25.3273"/>
<polygon fill="midnightblue" stroke="midnightblue" points="460.488,-37.0435 451.994,-43.3754 462.583,-43.7228 460.488,-37.0435"/>
</g>
<!-- Node4&#45;&gt;Node6 -->
<g id="edge12" class="edge"><title>Node4&#45;&gt;Node6</title>
<path fill="none" stroke="midnightblue" d="M490.114,-70.753C547.313,-81.4884 627.681,-96.5721 685.918,-107.502"/>
<polygon fill="midnightblue" stroke="midnightblue" points="490.545,-67.2729 480.071,-68.8682 489.254,-74.1528 490.545,-67.2729"/>
</g>
<!-- Node5&#45;&gt;Node4 -->
<g id="edge5" class="edge"><title>Node5&#45;&gt;Node4</title>
<path fill="none" stroke="midnightblue" d="M539.953,-31.6228C521.692,-37.2156 499.957,-43.1518 480.009,-48.039"/>
<polygon fill="midnightblue" stroke="midnightblue" points="541.215,-34.8952 549.707,-28.5599 539.118,-28.2167 541.215,-34.8952"/>
</g>
<!-- Node5&#45;&gt;Node6 -->
<g id="edge6" class="edge"><title>Node5&#45;&gt;Node6</title>
<path fill="none" stroke="midnightblue" d="M616.31,-34.0871C651.304,-55.302 706.266,-88.6217 737.246,-107.403"/>
<polygon fill="midnightblue" stroke="midnightblue" points="617.804,-30.8999 607.438,-28.7088 614.175,-36.8859 617.804,-30.8999"/>
</g>
<!-- Node6&#45;&gt;Node2 -->
<g id="edge7" class="edge"><title>Node6&#45;&gt;Node2</title>
<path fill="none" stroke="midnightblue" d="M816.118,-138.67C841.876,-146.918 872.357,-156.679 896.698,-164.474"/>
<polygon fill="midnightblue" stroke="midnightblue" points="817.091,-135.306 806.5,-135.59 814.956,-141.973 817.091,-135.306"/>
</g>
<!-- Node6&#45;&gt;Node3 -->
<g id="edge8" class="edge"><title>Node6&#45;&gt;Node3</title>
<path fill="none" stroke="midnightblue" d="M675.933,-130.188C576.281,-136.533 412.705,-143.169 321.088,-144.468"/>
<polygon fill="midnightblue" stroke="midnightblue" points="676.217,-133.677 685.968,-129.536 675.762,-126.692 676.217,-133.677"/>
</g>
<!-- Node7 -->
<g id="node7" class="node"><title>Node7</title>
<g id="a_node7"><a xlink:href="classprior__hessian_1_1CopulaDistImpl_1_1CopulaDist.html#a4b010ffe2c2acd4dc75c80b32312254d" target="_top" xlink:title="prior_hessian::CopulaDist\lImpl::CopulaDist::set_ubound">
<polygon fill="white" stroke="black" points="873,-107.5 873,-135.5 1010,-135.5 1010,-107.5 873,-107.5"/>
<text text-anchor="start" x="881" y="-124.3" font-family="Helvetica,sans-Serif" font-size="9.00">prior_hessian::CopulaDist</text>
<text text-anchor="middle" x="941.5" y="-114.3" font-family="Helvetica,sans-Serif" font-size="9.00">Impl::CopulaDist::set_ubound</text>
</a>
</g>
</g>
<!-- Node6&#45;&gt;Node7 -->
<g id="edge9" class="edge"><title>Node6&#45;&gt;Node7</title>
<path fill="none" stroke="midnightblue" d="M847.231,-114.757C855.8,-114.729 864.423,-114.785 872.779,-114.924"/>
<polygon fill="midnightblue" stroke="midnightblue" points="847.189,-111.257 837.214,-114.828 847.239,-118.257 847.189,-111.257"/>
</g>
<!-- Node7&#45;&gt;Node4 -->
<g id="edge10" class="edge"><title>Node7&#45;&gt;Node4</title>
<path fill="none" stroke="midnightblue" d="M874.477,-105.205C862.068,-102.423 849.171,-99.7195 837,-97.5 754.51,-82.457 733.44,-80.7829 650,-72.5 592.536,-66.7957 526.787,-62.7626 480.256,-60.3255"/>
<polygon fill="midnightblue" stroke="midnightblue" points="873.772,-108.635 884.3,-107.446 875.329,-101.81 873.772,-108.635"/>
</g>
<!-- Node7&#45;&gt;Node6 -->
<g id="edge11" class="edge"><title>Node7&#45;&gt;Node6</title>
<path fill="none" stroke="midnightblue" d="M862.589,-128.203C854.162,-128.275 845.602,-128.264 837.214,-128.172"/>
<polygon fill="midnightblue" stroke="midnightblue" points="862.824,-131.701 872.779,-128.076 862.736,-124.701 862.824,-131.701"/>
</g>
</g>
</svg>
