<?xml version="1.0" encoding="UTF-8" standalone="no"?>
<!DOCTYPE svg PUBLIC "-//W3C//DTD SVG 1.1//EN"
 "http://www.w3.org/Graphics/SVG/1.1/DTD/svg11.dtd">
<!-- Generated by graphviz version 2.38.0 (20140413.2041)
 -->
<!-- Title: prior_hessian::CompositeDist::set_component_names Pages: 1 -->
<svg width="457pt" height="37pt"
 viewBox="0.00 0.00 457.00 37.00" xmlns="http://www.w3.org/2000/svg" xmlns:xlink="http://www.w3.org/1999/xlink">
<g id="graph0" class="graph" transform="scale(1 1) rotate(0) translate(4 33)">
<title>prior_hessian::CompositeDist::set_component_names</title>
<polygon fill="white" stroke="none" points="-4,4 -4,-33 453,-33 453,4 -4,4"/>
<!-- Node1 -->
<g id="node1" class="node"><title>Node1</title>
<polygon fill="#bfbfbf" stroke="black" points="0,-0.5 0,-28.5 133,-28.5 133,-0.5 0,-0.5"/>
<text text-anchor="start" x="8" y="-17.3" font-family="Helvetica,sans-Serif" font-size="9.00">prior_hessian::Composite</text>
<text text-anchor="middle" x="66.5" y="-7.3" font-family="Helvetica,sans-Serif" font-size="9.00">Dist::set_component_names</text>
</g>
<!-- Node2 -->
<g id="node2" class="node"><title>Node2</title>
<g id="a_node2"><a xlink:href="classprior__hessian_1_1CompositeDist.html#ad796a4f6b17cc35f936dee7d7d9a9a43" target="_top" xlink:title="prior_hessian::Composite\lDist::component_types">
<polygon fill="white" stroke="black" points="169,-0.5 169,-28.5 291,-28.5 291,-0.5 169,-0.5"/>
<text text-anchor="start" x="177" y="-17.3" font-family="Helvetica,sans-Serif" font-size="9.00">prior_hessian::Composite</text>
<text text-anchor="middle" x="230" y="-7.3" font-family="Helvetica,sans-Serif" font-size="9.00">Dist::component_types</text>
</a>
</g>
</g>
<!-- Node1&#45;&gt;Node2 -->
<g id="edge1" class="edge"><title>Node1&#45;&gt;Node2</title>
<path fill="none" stroke="midnightblue" d="M143.217,-14.5C151.811,-14.5 160.48,-14.5 168.835,-14.5"/>
<polygon fill="midnightblue" stroke="midnightblue" points="143.188,-11.0001 133.188,-14.5 143.188,-18.0001 143.188,-11.0001"/>
</g>
<!-- Node3 -->
<g id="node3" class="node"><title>Node3</title>
<g id="a_node3"><a xlink:href="classprior__hessian_1_1CompositeDist.html#a24bac25ae8c0330b8a3aacadffc9d5ae" target="_top" xlink:title="prior_hessian::Composite\lDist::rllh_components">
<polygon fill="white" stroke="black" points="327,-0.5 327,-28.5 449,-28.5 449,-0.5 327,-0.5"/>
<text text-anchor="start" x="335" y="-17.3" font-family="Helvetica,sans-Serif" font-size="9.00">prior_hessian::Composite</text>
<text text-anchor="middle" x="388" y="-7.3" font-family="Helvetica,sans-Serif" font-size="9.00">Dist::rllh_components</text>
</a>
</g>
</g>
<!-- Node2&#45;&gt;Node3 -->
<g id="edge2" class="edge"><title>Node2&#45;&gt;Node3</title>
<path fill="none" stroke="midnightblue" d="M301.538,-14.5C309.99,-14.5 318.56,-14.5 326.847,-14.5"/>
<polygon fill="midnightblue" stroke="midnightblue" points="301.314,-11.0001 291.314,-14.5 301.314,-18.0001 301.314,-11.0001"/>
</g>
</g>
</svg>
