<?xml version="1.0" encoding="UTF-8" standalone="no"?>
<!DOCTYPE svg PUBLIC "-//W3C//DTD SVG 1.1//EN"
 "http://www.w3.org/Graphics/SVG/1.1/DTD/svg11.dtd">
<!-- Generated by graphviz version 2.38.0 (20140413.2041)
 -->
<!-- Title: prior_hessian::CopulaDistImpl::CopulaDist::grad2 Pages: 1 -->
<svg width="298pt" height="37pt"
 viewBox="0.00 0.00 298.00 37.00" xmlns="http://www.w3.org/2000/svg" xmlns:xlink="http://www.w3.org/1999/xlink">
<g id="graph0" class="graph" transform="scale(1 1) rotate(0) translate(4 33)">
<title>prior_hessian::CopulaDistImpl::CopulaDist::grad2</title>
<polygon fill="white" stroke="none" points="-4,4 -4,-33 294,-33 294,4 -4,4"/>
<!-- Node1 -->
<g id="node1" class="node"><title>Node1</title>
<polygon fill="#bfbfbf" stroke="black" points="0,-0.5 0,-28.5 123,-28.5 123,-0.5 0,-0.5"/>
<text text-anchor="start" x="8" y="-17.3" font-family="Helvetica,sans-Serif" font-size="9.00">prior_hessian::CopulaDist</text>
<text text-anchor="middle" x="61.5" y="-7.3" font-family="Helvetica,sans-Serif" font-size="9.00">Impl::CopulaDist::grad2</text>
</g>
<!-- Node2 -->
<g id="node2" class="node"><title>Node2</title>
<g id="a_node2"><a xlink:href="classprior__hessian_1_1CopulaDistImpl_1_1CopulaDist.html#a5cd91617bed91a4c401ad05f52958010" target="_top" xlink:title="prior_hessian::CopulaDist\lImpl::CopulaDist::operator!=">
<polygon fill="white" stroke="black" points="159,-0.5 159,-28.5 290,-28.5 290,-0.5 159,-0.5"/>
<text text-anchor="start" x="167" y="-17.3" font-family="Helvetica,sans-Serif" font-size="9.00">prior_hessian::CopulaDist</text>
<text text-anchor="middle" x="224.5" y="-7.3" font-family="Helvetica,sans-Serif" font-size="9.00">Impl::CopulaDist::operator!=</text>
</a>
</g>
</g>
<!-- Node1&#45;&gt;Node2 -->
<g id="edge1" class="edge"><title>Node1&#45;&gt;Node2</title>
<path fill="none" stroke="midnightblue" d="M133.525,-14.5C141.931,-14.5 150.476,-14.5 158.787,-14.5"/>
<polygon fill="midnightblue" stroke="midnightblue" points="133.367,-11.0001 123.367,-14.5 133.367,-18.0001 133.367,-11.0001"/>
</g>
</g>
</svg>
