<?xml version="1.0" encoding="UTF-8" standalone="no"?>
<!DOCTYPE svg PUBLIC "-//W3C//DTD SVG 1.1//EN"
 "http://www.w3.org/Graphics/SVG/1.1/DTD/svg11.dtd">
<!-- Generated by graphviz version 2.38.0 (20140413.2041)
 -->
<!-- Title: prior_hessian::CompositeDist::sample Pages: 1 -->
<svg width="354pt" height="181pt"
 viewBox="0.00 0.00 354.00 181.00" xmlns="http://www.w3.org/2000/svg" xmlns:xlink="http://www.w3.org/1999/xlink">
<g id="graph0" class="graph" transform="scale(1 1) rotate(0) translate(4 177)">
<title>prior_hessian::CompositeDist::sample</title>
<polygon fill="white" stroke="none" points="-4,4 -4,-177 350,-177 350,4 -4,4"/>
<!-- Node1 -->
<g id="node1" class="node"><title>Node1</title>
<polygon fill="#bfbfbf" stroke="black" points="0,-62.5 0,-90.5 122,-90.5 122,-62.5 0,-62.5"/>
<text text-anchor="start" x="8" y="-79.3" font-family="Helvetica,sans-Serif" font-size="9.00">prior_hessian::Composite</text>
<text text-anchor="middle" x="61" y="-69.3" font-family="Helvetica,sans-Serif" font-size="9.00">Dist::sample</text>
</g>
<!-- Node2 -->
<g id="node2" class="node"><title>Node2</title>
<g id="a_node2"><a xlink:href="classprior__hessian_1_1CompositeDist_1_1ComponentDistAdaptor_3_01Dist_00_01meta_1_1EnableIfSubclc6c9bd83bba546a81e521c87ad7ee6d3.html#a763e7c16902f2d6464001fb02cbdd929" target="_top" xlink:title="prior_hessian::Composite\lDist::ComponentDistAdaptor\l\&lt; Dist, meta::EnableIfSubclassT\l\&lt; Dist, UnivariateDist \&gt; \&gt;::append_sample">
<polygon fill="white" stroke="black" points="158,-124.5 158,-172.5 346,-172.5 346,-124.5 158,-124.5"/>
<text text-anchor="start" x="166" y="-161.3" font-family="Helvetica,sans-Serif" font-size="9.00">prior_hessian::Composite</text>
<text text-anchor="start" x="166" y="-151.3" font-family="Helvetica,sans-Serif" font-size="9.00">Dist::ComponentDistAdaptor</text>
<text text-anchor="start" x="166" y="-141.3" font-family="Helvetica,sans-Serif" font-size="9.00">&lt; Dist, meta::EnableIfSubclassT</text>
<text text-anchor="middle" x="252" y="-131.3" font-family="Helvetica,sans-Serif" font-size="9.00">&lt; Dist, UnivariateDist &gt; &gt;::append_sample</text>
</a>
</g>
</g>
<!-- Node1&#45;&gt;Node2 -->
<g id="edge1" class="edge"><title>Node1&#45;&gt;Node2</title>
<path fill="none" stroke="midnightblue" d="M105.011,-94.4534C121.517,-101.216 140.571,-108.871 158,-115.5 165.766,-118.454 173.928,-121.473 182.056,-124.426"/>
<polygon fill="midnightblue" stroke="midnightblue" points="106.199,-91.1573 95.6192,-90.5889 103.535,-97.6308 106.199,-91.1573"/>
</g>
<!-- Node3 -->
<g id="node3" class="node"><title>Node3</title>
<g id="a_node3"><a xlink:href="classprior__hessian_1_1CompositeDist_1_1ComponentDistAdaptor_3_01Dist_00_01meta_1_1EnableIfSubcld67d34d533dbae21b9dad35557546eec.html#a5e017e68676dfa2fc439620d81680225" target="_top" xlink:title="prior_hessian::Composite\lDist::ComponentDistAdaptor\l\&lt; Dist, meta::EnableIfSubclassT\l\&lt; Dist, MultivariateDist \&gt; \&gt;\l::append_sample">
<polygon fill="white" stroke="black" points="179,-47.5 179,-105.5 325,-105.5 325,-47.5 179,-47.5"/>
<text text-anchor="start" x="187" y="-94.3" font-family="Helvetica,sans-Serif" font-size="9.00">prior_hessian::Composite</text>
<text text-anchor="start" x="187" y="-84.3" font-family="Helvetica,sans-Serif" font-size="9.00">Dist::ComponentDistAdaptor</text>
<text text-anchor="start" x="187" y="-74.3" font-family="Helvetica,sans-Serif" font-size="9.00">&lt; Dist, meta::EnableIfSubclassT</text>
<text text-anchor="start" x="187" y="-64.3" font-family="Helvetica,sans-Serif" font-size="9.00">&lt; Dist, MultivariateDist &gt; &gt;</text>
<text text-anchor="middle" x="252" y="-54.3" font-family="Helvetica,sans-Serif" font-size="9.00">::append_sample</text>
</a>
</g>
</g>
<!-- Node1&#45;&gt;Node3 -->
<g id="edge2" class="edge"><title>Node1&#45;&gt;Node3</title>
<path fill="none" stroke="midnightblue" d="M132.398,-76.5C147.565,-76.5 163.62,-76.5 178.853,-76.5"/>
<polygon fill="midnightblue" stroke="midnightblue" points="132.061,-73.0001 122.06,-76.5 132.06,-80.0001 132.061,-73.0001"/>
</g>
<!-- Node4 -->
<g id="node4" class="node"><title>Node4</title>
<g id="a_node4"><a xlink:href="classprior__hessian_1_1CompositeDist.html#a24bac25ae8c0330b8a3aacadffc9d5ae" target="_top" xlink:title="prior_hessian::Composite\lDist::rllh_components">
<polygon fill="white" stroke="black" points="191,-0.5 191,-28.5 313,-28.5 313,-0.5 191,-0.5"/>
<text text-anchor="start" x="199" y="-17.3" font-family="Helvetica,sans-Serif" font-size="9.00">prior_hessian::Composite</text>
<text text-anchor="middle" x="252" y="-7.3" font-family="Helvetica,sans-Serif" font-size="9.00">Dist::rllh_components</text>
</a>
</g>
</g>
<!-- Node1&#45;&gt;Node4 -->
<g id="edge3" class="edge"><title>Node1&#45;&gt;Node4</title>
<path fill="none" stroke="midnightblue" d="M103.963,-58.5785C120.617,-51.8124 140.047,-44.3445 158,-38.5 168.94,-34.9383 180.739,-31.5531 192.14,-28.5079"/>
<polygon fill="midnightblue" stroke="midnightblue" points="102.429,-55.4246 94.5107,-62.4635 105.09,-61.8991 102.429,-55.4246"/>
</g>
</g>
</svg>
