<?xml version="1.0" encoding="UTF-8" standalone="no"?>
<!DOCTYPE svg PUBLIC "-//W3C//DTD SVG 1.1//EN"
 "http://www.w3.org/Graphics/SVG/1.1/DTD/svg11.dtd">
<!-- Generated by graphviz version 2.38.0 (20140413.2041)
 -->
<!-- Title: prior_hessian::CopulaDistImpl::CopulaDist::set_bounds Pages: 1 -->
<svg width="1046pt" height="570pt"
 viewBox="0.00 0.00 1046.00 569.78" xmlns="http://www.w3.org/2000/svg" xmlns:xlink="http://www.w3.org/1999/xlink">
<g id="graph0" class="graph" transform="scale(1 1) rotate(0) translate(4 565.78)">
<title>prior_hessian::CopulaDistImpl::CopulaDist::set_bounds</title>
<polygon fill="white" stroke="none" points="-4,4 -4,-565.78 1042,-565.78 1042,4 -4,4"/>
<!-- Node1 -->
<g id="node1" class="node"><title>Node1</title>
<polygon fill="#bfbfbf" stroke="black" points="0,-374.346 0,-402.346 137,-402.346 137,-374.346 0,-374.346"/>
<text text-anchor="start" x="8" y="-391.146" font-family="Helvetica,sans-Serif" font-size="9.00">prior_hessian::CopulaDist</text>
<text text-anchor="middle" x="68.5" y="-381.146" font-family="Helvetica,sans-Serif" font-size="9.00">Impl::CopulaDist::set_bounds</text>
</g>
<!-- Node2 -->
<g id="node2" class="node"><title>Node2</title>
<g id="a_node2"><a xlink:href="classprior__hessian_1_1CopulaDistImpl_1_1CopulaDist.html#ab751cebc3c628c353729c8f079ffb984" target="_top" xlink:title="prior_hessian::CopulaDist\lImpl::CopulaDist::global_lbound">
<polygon fill="white" stroke="black" points="558,-441.346 558,-469.346 706,-469.346 706,-441.346 558,-441.346"/>
<text text-anchor="start" x="566" y="-458.146" font-family="Helvetica,sans-Serif" font-size="9.00">prior_hessian::CopulaDist</text>
<text text-anchor="middle" x="632" y="-448.146" font-family="Helvetica,sans-Serif" font-size="9.00">Impl::CopulaDist::global_lbound</text>
</a>
</g>
</g>
<!-- Node1&#45;&gt;Node2 -->
<g id="edge1" class="edge"><title>Node1&#45;&gt;Node2</title>
<path fill="none" stroke="midnightblue" d="M137.018,-401.719C195.719,-412.87 283.167,-428.338 360,-437.346 422.694,-444.697 493.927,-449.282 547.623,-451.984"/>
<polygon fill="midnightblue" stroke="midnightblue" points="547.62,-455.488 557.78,-452.483 547.964,-448.496 547.62,-455.488"/>
</g>
<!-- Node3 -->
<g id="node3" class="node"><title>Node3</title>
<g id="a_node3"><a xlink:href="classprior__hessian_1_1CopulaDistImpl_1_1CopulaDist.html#aad110f1a85e7611fd098aa51c2104015" target="_top" xlink:title="prior_hessian::CopulaDist\lImpl::CopulaDist::global_ubound">
<polygon fill="white" stroke="black" points="173,-282.346 173,-310.346 324,-310.346 324,-282.346 173,-282.346"/>
<text text-anchor="start" x="181" y="-299.146" font-family="Helvetica,sans-Serif" font-size="9.00">prior_hessian::CopulaDist</text>
<text text-anchor="middle" x="248.5" y="-289.146" font-family="Helvetica,sans-Serif" font-size="9.00">Impl::CopulaDist::global_ubound</text>
</a>
</g>
</g>
<!-- Node1&#45;&gt;Node3 -->
<g id="edge2" class="edge"><title>Node1&#45;&gt;Node3</title>
<path fill="none" stroke="midnightblue" d="M88.2127,-374.335C114.544,-358.25 163.412,-332.423 200.105,-314.796"/>
<polygon fill="midnightblue" stroke="midnightblue" points="201.618,-317.952 209.151,-310.502 198.616,-311.629 201.618,-317.952"/>
</g>
<!-- Node3&#45;&gt;Node1 -->
<g id="edge11" class="edge"><title>Node3&#45;&gt;Node1</title>
<path fill="none" stroke="midnightblue" d="M228.527,-310.515C202.202,-326.571 153.712,-352.197 117.171,-369.763"/>
<polygon fill="midnightblue" stroke="midnightblue" points="115.218,-366.816 107.685,-374.267 118.22,-373.14 115.218,-366.816"/>
</g>
<!-- Node4 -->
<g id="node4" class="node"><title>Node4</title>
<g id="a_node4"><a xlink:href="namespaceprior__hessian_1_1meta.html#a179314ad7ba735849c4095e735374ab2" target="_top" xlink:title="prior_hessian::meta\l::call_in_order">
<polygon fill="white" stroke="black" points="392,-353.346 392,-381.346 490,-381.346 490,-353.346 392,-353.346"/>
<text text-anchor="start" x="400" y="-370.146" font-family="Helvetica,sans-Serif" font-size="9.00">prior_hessian::meta</text>
<text text-anchor="middle" x="441" y="-360.146" font-family="Helvetica,sans-Serif" font-size="9.00">::call_in_order</text>
</a>
</g>
</g>
<!-- Node3&#45;&gt;Node4 -->
<g id="edge3" class="edge"><title>Node3&#45;&gt;Node4</title>
<path fill="none" stroke="midnightblue" d="M280.096,-310.44C302.077,-320.299 332.552,-333.426 360,-343.346 367.112,-345.916 374.645,-348.435 382.134,-350.817"/>
<polygon fill="midnightblue" stroke="midnightblue" points="381.326,-354.231 391.915,-353.862 383.407,-347.548 381.326,-354.231"/>
</g>
<!-- Node5 -->
<g id="node5" class="node"><title>Node5</title>
<g id="a_node5"><a xlink:href="classprior__hessian_1_1CopulaDistImpl_1_1CopulaDist.html#a75da47e40ee64dd49fe5c84c2df07ebe" target="_top" xlink:title="prior_hessian::CopulaDist\lImpl::CopulaDist::cdf">
<polygon fill="white" stroke="black" points="379.5,-306.346 379.5,-334.346 502.5,-334.346 502.5,-306.346 379.5,-306.346"/>
<text text-anchor="start" x="387.5" y="-323.146" font-family="Helvetica,sans-Serif" font-size="9.00">prior_hessian::CopulaDist</text>
<text text-anchor="middle" x="441" y="-313.146" font-family="Helvetica,sans-Serif" font-size="9.00">Impl::CopulaDist::cdf</text>
</a>
</g>
</g>
<!-- Node3&#45;&gt;Node5 -->
<g id="edge4" class="edge"><title>Node3&#45;&gt;Node5</title>
<path fill="none" stroke="midnightblue" d="M324.244,-305.763C339.065,-307.63 354.582,-309.585 369.265,-311.434"/>
<polygon fill="midnightblue" stroke="midnightblue" points="368.919,-314.918 379.278,-312.696 369.794,-307.973 368.919,-314.918"/>
</g>
<!-- Node6 -->
<g id="node6" class="node"><title>Node6</title>
<g id="a_node6"><a xlink:href="classprior__hessian_1_1CopulaDistImpl_1_1CopulaDist.html#a4b7bf2f72c81574d9e19a2cd629f264d" target="_top" xlink:title="prior_hessian::CopulaDist\lImpl::CopulaDist::lbound">
<polygon fill="white" stroke="black" points="915,-113.346 915,-141.346 1038,-141.346 1038,-113.346 915,-113.346"/>
<text text-anchor="start" x="923" y="-130.146" font-family="Helvetica,sans-Serif" font-size="9.00">prior_hessian::CopulaDist</text>
<text text-anchor="middle" x="976.5" y="-120.146" font-family="Helvetica,sans-Serif" font-size="9.00">Impl::CopulaDist::lbound</text>
</a>
</g>
</g>
<!-- Node3&#45;&gt;Node6 -->
<g id="edge5" class="edge"><title>Node3&#45;&gt;Node6</title>
<path fill="none" stroke="midnightblue" d="M250.773,-282.188C255.557,-238.443 276.712,-105.149 360,-51.346 549.465,71.0454 841.018,-57.7704 940.698,-108.614"/>
<polygon fill="midnightblue" stroke="midnightblue" points="939.244,-111.802 949.736,-113.28 942.455,-105.582 939.244,-111.802"/>
</g>
<!-- Node7 -->
<g id="node7" class="node"><title>Node7</title>
<g id="a_node7"><a xlink:href="namespaceprior__hessian_1_1meta.html#add11951e7edc2c231ca52c32ac0ee07b" target="_top" xlink:title="prior_hessian::meta\l::logical_and_in_order">
<polygon fill="white" stroke="black" points="386.5,-61.346 386.5,-89.346 495.5,-89.346 495.5,-61.346 386.5,-61.346"/>
<text text-anchor="start" x="394.5" y="-78.146" font-family="Helvetica,sans-Serif" font-size="9.00">prior_hessian::meta</text>
<text text-anchor="middle" x="441" y="-68.146" font-family="Helvetica,sans-Serif" font-size="9.00">::logical_and_in_order</text>
</a>
</g>
</g>
<!-- Node3&#45;&gt;Node7 -->
<g id="edge6" class="edge"><title>Node3&#45;&gt;Node7</title>
<path fill="none" stroke="midnightblue" d="M253.802,-282.3C265.247,-247.208 299.753,-154.903 360,-104.346 365.17,-100.007 371.043,-96.2936 377.203,-93.1199"/>
<polygon fill="midnightblue" stroke="midnightblue" points="378.796,-96.2392 386.385,-88.8467 375.842,-89.8928 378.796,-96.2392"/>
</g>
<!-- Node9 -->
<g id="node9" class="node"><title>Node9</title>
<g id="a_node9"><a xlink:href="classprior__hessian_1_1CopulaDistImpl_1_1CopulaDist.html#a58218394a4f213053e28925678ace6d4" target="_top" xlink:title="prior_hessian::CopulaDist\lImpl::CopulaDist::num_components">
<polygon fill="white" stroke="black" points="360,-259.346 360,-287.346 522,-287.346 522,-259.346 360,-259.346"/>
<text text-anchor="start" x="368" y="-276.146" font-family="Helvetica,sans-Serif" font-size="9.00">prior_hessian::CopulaDist</text>
<text text-anchor="middle" x="441" y="-266.146" font-family="Helvetica,sans-Serif" font-size="9.00">Impl::CopulaDist::num_components</text>
</a>
</g>
</g>
<!-- Node3&#45;&gt;Node9 -->
<g id="edge8" class="edge"><title>Node3&#45;&gt;Node9</title>
<path fill="none" stroke="midnightblue" d="M324.244,-287.322C332.635,-286.309 341.249,-285.269 349.808,-284.235"/>
<polygon fill="midnightblue" stroke="midnightblue" points="350.306,-287.701 359.815,-283.027 349.467,-280.751 350.306,-287.701"/>
</g>
<!-- Node10 -->
<g id="node10" class="node"><title>Node10</title>
<g id="a_node10"><a xlink:href="classprior__hessian_1_1CopulaDistImpl_1_1CopulaDist.html#a371e1bc1823bdeb3783e5ce3c38ba0e4" target="_top" xlink:title="prior_hessian::CopulaDist\lImpl::CopulaDist::num_params">
<polygon fill="white" stroke="black" points="369.5,-212.346 369.5,-240.346 512.5,-240.346 512.5,-212.346 369.5,-212.346"/>
<text text-anchor="start" x="377.5" y="-229.146" font-family="Helvetica,sans-Serif" font-size="9.00">prior_hessian::CopulaDist</text>
<text text-anchor="middle" x="441" y="-219.146" font-family="Helvetica,sans-Serif" font-size="9.00">Impl::CopulaDist::num_params</text>
</a>
</g>
</g>
<!-- Node3&#45;&gt;Node10 -->
<g id="edge9" class="edge"><title>Node3&#45;&gt;Node10</title>
<path fill="none" stroke="midnightblue" d="M280.061,-282.154C302.026,-272.249 332.495,-259.108 360,-249.346 365.809,-247.284 371.904,-245.271 378.027,-243.347"/>
<polygon fill="midnightblue" stroke="midnightblue" points="379.1,-246.679 387.637,-240.404 377.05,-239.986 379.1,-246.679"/>
</g>
<!-- Node11 -->
<g id="node11" class="node"><title>Node11</title>
<g id="a_node11"><a xlink:href="classprior__hessian_1_1CopulaDistImpl_1_1CopulaDist.html#aa35ac17e403f5f7a74852abca16c2847" target="_top" xlink:title="prior_hessian::CopulaDist\lImpl::CopulaDist::pdf">
<polygon fill="white" stroke="black" points="379.5,-165.346 379.5,-193.346 502.5,-193.346 502.5,-165.346 379.5,-165.346"/>
<text text-anchor="start" x="387.5" y="-182.146" font-family="Helvetica,sans-Serif" font-size="9.00">prior_hessian::CopulaDist</text>
<text text-anchor="middle" x="441" y="-172.146" font-family="Helvetica,sans-Serif" font-size="9.00">Impl::CopulaDist::pdf</text>
</a>
</g>
</g>
<!-- Node3&#45;&gt;Node11 -->
<g id="edge10" class="edge"><title>Node3&#45;&gt;Node11</title>
<path fill="none" stroke="midnightblue" d="M262.371,-282.078C281.651,-261.544 320.051,-223.779 360,-202.346 363.482,-200.478 367.133,-198.746 370.877,-197.144"/>
<polygon fill="midnightblue" stroke="midnightblue" points="372.31,-200.341 380.332,-193.421 369.745,-193.828 372.31,-200.341"/>
</g>
<!-- Node12 -->
<g id="node12" class="node"><title>Node12</title>
<g id="a_node12"><a xlink:href="classprior__hessian_1_1CopulaDistImpl_1_1CopulaDist.html#ac0819ccaeef1afd7a123338823e8fb3c" target="_top" xlink:title="prior_hessian::CopulaDist\lImpl::CopulaDist::set_lbound">
<polygon fill="white" stroke="black" points="374,-486.346 374,-514.346 508,-514.346 508,-486.346 374,-486.346"/>
<text text-anchor="start" x="382" y="-503.146" font-family="Helvetica,sans-Serif" font-size="9.00">prior_hessian::CopulaDist</text>
<text text-anchor="middle" x="441" y="-493.146" font-family="Helvetica,sans-Serif" font-size="9.00">Impl::CopulaDist::set_lbound</text>
</a>
</g>
</g>
<!-- Node3&#45;&gt;Node12 -->
<g id="edge12" class="edge"><title>Node3&#45;&gt;Node12</title>
<path fill="none" stroke="midnightblue" d="M258.858,-310.451C276.757,-336.897 317.826,-395.073 360,-437.346 375.697,-453.08 395.27,-468.554 411.127,-480.229"/>
<polygon fill="midnightblue" stroke="midnightblue" points="409.355,-483.267 419.506,-486.302 413.463,-477.599 409.355,-483.267"/>
</g>
<!-- Node13 -->
<g id="node13" class="node"><title>Node13</title>
<g id="a_node13"><a xlink:href="classprior__hessian_1_1CopulaDistImpl_1_1CopulaDist.html#abdb39f0c5f7f5f4b16bf501e6083d5b6" target="_top" xlink:title="prior_hessian::CopulaDist\lImpl::CopulaDist::ubound">
<polygon fill="white" stroke="black" points="570.5,-488.346 570.5,-516.346 693.5,-516.346 693.5,-488.346 570.5,-488.346"/>
<text text-anchor="start" x="578.5" y="-505.146" font-family="Helvetica,sans-Serif" font-size="9.00">prior_hessian::CopulaDist</text>
<text text-anchor="middle" x="632" y="-495.146" font-family="Helvetica,sans-Serif" font-size="9.00">Impl::CopulaDist::ubound</text>
</a>
</g>
</g>
<!-- Node3&#45;&gt;Node13 -->
<g id="edge24" class="edge"><title>Node3&#45;&gt;Node13</title>
<path fill="none" stroke="midnightblue" d="M251.274,-310.377C257.367,-351.896 281.588,-474.307 360,-523.346 430.537,-567.46 532.448,-540.854 589.066,-520.012"/>
<polygon fill="midnightblue" stroke="midnightblue" points="590.311,-523.283 598.423,-516.467 587.831,-516.737 590.311,-523.283"/>
</g>
<!-- Node14 -->
<g id="node14" class="node"><title>Node14</title>
<g id="a_node14"><a xlink:href="classprior__hessian_1_1CopulaDistImpl_1_1CopulaDist.html#a4b010ffe2c2acd4dc75c80b32312254d" target="_top" xlink:title="prior_hessian::CopulaDist\lImpl::CopulaDist::set_ubound">
<polygon fill="white" stroke="black" points="742,-113.346 742,-141.346 879,-141.346 879,-113.346 742,-113.346"/>
<text text-anchor="start" x="750" y="-130.146" font-family="Helvetica,sans-Serif" font-size="9.00">prior_hessian::CopulaDist</text>
<text text-anchor="middle" x="810.5" y="-120.146" font-family="Helvetica,sans-Serif" font-size="9.00">Impl::CopulaDist::set_ubound</text>
</a>
</g>
</g>
<!-- Node3&#45;&gt;Node14 -->
<g id="edge23" class="edge"><title>Node3&#45;&gt;Node14</title>
<path fill="none" stroke="midnightblue" d="M253.659,-282.337C265.582,-250.719 302.745,-176.456 360,-146.346 487.607,-79.2387 664.593,-94.2777 753.62,-111.305"/>
<polygon fill="midnightblue" stroke="midnightblue" points="753.022,-114.754 763.513,-113.277 754.391,-107.889 753.022,-114.754"/>
</g>
<!-- Node16 -->
<g id="node16" class="node"><title>Node16</title>
<g id="a_node16"><a xlink:href="classprior__hessian_1_1CopulaDistImpl_1_1CopulaDist.html#a3c76fabe7fefc83aa19454951c1513dd" target="_top" xlink:title="prior_hessian::CopulaDist\lImpl::CopulaDist::set_params_iter">
<polygon fill="white" stroke="black" points="363.5,-400.346 363.5,-428.346 518.5,-428.346 518.5,-400.346 363.5,-400.346"/>
<text text-anchor="start" x="371.5" y="-417.146" font-family="Helvetica,sans-Serif" font-size="9.00">prior_hessian::CopulaDist</text>
<text text-anchor="middle" x="441" y="-407.146" font-family="Helvetica,sans-Serif" font-size="9.00">Impl::CopulaDist::set_params_iter</text>
</a>
</g>
</g>
<!-- Node3&#45;&gt;Node16 -->
<g id="edge22" class="edge"><title>Node3&#45;&gt;Node16</title>
<path fill="none" stroke="midnightblue" d="M262.404,-310.553C281.724,-331.012 320.175,-368.684 360,-390.346 364.16,-392.609 368.56,-394.685 373.072,-396.585"/>
<polygon fill="midnightblue" stroke="midnightblue" points="371.86,-399.869 382.448,-400.241 374.403,-393.347 371.86,-399.869"/>
</g>
<!-- Node8 -->
<g id="node8" class="node"><title>Node8</title>
<g id="a_node8"><a xlink:href="namespaceprior__hessian_1_1meta.html#a8dd1d78533f7011bebda7009c0591041" target="_top" xlink:title="prior_hessian::meta\l::constexpr_accumulate">
<polygon fill="white" stroke="black" points="575.5,-61.346 575.5,-89.346 688.5,-89.346 688.5,-61.346 575.5,-61.346"/>
<text text-anchor="start" x="583.5" y="-78.146" font-family="Helvetica,sans-Serif" font-size="9.00">prior_hessian::meta</text>
<text text-anchor="middle" x="632" y="-68.146" font-family="Helvetica,sans-Serif" font-size="9.00">::constexpr_accumulate</text>
</a>
</g>
</g>
<!-- Node7&#45;&gt;Node8 -->
<g id="edge7" class="edge"><title>Node7&#45;&gt;Node8</title>
<path fill="none" stroke="midnightblue" d="M495.654,-75.346C517.232,-75.346 542.328,-75.346 565.008,-75.346"/>
<polygon fill="midnightblue" stroke="midnightblue" points="565.236,-78.8461 575.236,-75.346 565.236,-71.8461 565.236,-78.8461"/>
</g>
<!-- Node12&#45;&gt;Node2 -->
<g id="edge13" class="edge"><title>Node12&#45;&gt;Node2</title>
<path fill="none" stroke="midnightblue" d="M501.023,-486.293C520.388,-481.682 542.079,-476.518 562.109,-471.749"/>
<polygon fill="midnightblue" stroke="midnightblue" points="563.182,-475.091 572.099,-469.37 561.561,-468.281 563.182,-475.091"/>
</g>
<!-- Node12&#45;&gt;Node13 -->
<g id="edge14" class="edge"><title>Node12&#45;&gt;Node13</title>
<path fill="none" stroke="midnightblue" d="M508.103,-494.574C524.852,-494.413 542.913,-494.574 559.898,-495.031"/>
<polygon fill="midnightblue" stroke="midnightblue" points="560.21,-498.542 570.314,-495.354 560.427,-491.546 560.21,-498.542"/>
</g>
<!-- Node13&#45;&gt;Node1 -->
<g id="edge15" class="edge"><title>Node13&#45;&gt;Node1</title>
<path fill="none" stroke="midnightblue" d="M606.412,-516.406C584.922,-527.834 552.475,-543.056 522,-549.346 451.486,-563.901 429.707,-567.371 360,-549.346 253.093,-521.702 143.571,-445.323 95.1698,-408.591"/>
<polygon fill="midnightblue" stroke="midnightblue" points="97.1916,-405.731 87.1264,-402.423 92.9317,-411.286 97.1916,-405.731"/>
</g>
<!-- Node13&#45;&gt;Node6 -->
<g id="edge16" class="edge"><title>Node13&#45;&gt;Node6</title>
<path fill="none" stroke="midnightblue" d="M693.54,-515.244C748.252,-523.162 827.832,-524.857 879,-482.346 930.984,-439.157 962.969,-224.757 972.494,-151.744"/>
<polygon fill="midnightblue" stroke="midnightblue" points="975.986,-152.023 973.783,-141.66 969.043,-151.135 975.986,-152.023"/>
</g>
<!-- Node13&#45;&gt;Node12 -->
<g id="edge17" class="edge"><title>Node13&#45;&gt;Node12</title>
<path fill="none" stroke="midnightblue" d="M570.314,-508.054C553.723,-508.287 535.531,-508.19 518.194,-507.788"/>
<polygon fill="midnightblue" stroke="midnightblue" points="518.194,-504.287 508.103,-507.517 518.005,-511.285 518.194,-504.287"/>
</g>
<!-- Node13&#45;&gt;Node14 -->
<g id="edge18" class="edge"><title>Node13&#45;&gt;Node14</title>
<path fill="none" stroke="midnightblue" d="M692.926,-488.305C697.732,-485.558 702.192,-482.273 706,-478.346 796.949,-384.544 808.566,-214.936 809.618,-151.851"/>
<polygon fill="midnightblue" stroke="midnightblue" points="813.12,-151.709 809.708,-141.679 806.12,-151.647 813.12,-151.709"/>
</g>
<!-- Node15 -->
<g id="node15" class="node"><title>Node15</title>
<g id="a_node15"><a xlink:href="classprior__hessian_1_1CopulaDistImpl_1_1CopulaDist.html#a9dca9ab8ba47ecef1a7784fe77c8c40f" target="_top" xlink:title="prior_hessian::CopulaDist\lImpl::CopulaDist::operator==">
<polygon fill="white" stroke="black" points="743.5,-445.346 743.5,-473.346 877.5,-473.346 877.5,-445.346 743.5,-445.346"/>
<text text-anchor="start" x="751.5" y="-462.146" font-family="Helvetica,sans-Serif" font-size="9.00">prior_hessian::CopulaDist</text>
<text text-anchor="middle" x="810.5" y="-452.146" font-family="Helvetica,sans-Serif" font-size="9.00">Impl::CopulaDist::operator==</text>
</a>
</g>
</g>
<!-- Node13&#45;&gt;Node15 -->
<g id="edge21" class="edge"><title>Node13&#45;&gt;Node15</title>
<path fill="none" stroke="midnightblue" d="M690.793,-488.266C707.181,-484.274 725.167,-479.892 742.071,-475.773"/>
<polygon fill="midnightblue" stroke="midnightblue" points="742.992,-479.152 751.879,-473.384 741.335,-472.351 742.992,-479.152"/>
</g>
<!-- Node14&#45;&gt;Node3 -->
<g id="edge19" class="edge"><title>Node14&#45;&gt;Node3</title>
<path fill="none" stroke="midnightblue" d="M741.714,-121.236C649.531,-111.141 482.144,-100.111 360,-164.346 313.601,-188.747 280.397,-242.145 263.128,-273.206"/>
<polygon fill="midnightblue" stroke="midnightblue" points="260.007,-271.618 258.283,-282.072 266.15,-274.975 260.007,-271.618"/>
</g>
<!-- Node14&#45;&gt;Node6 -->
<g id="edge20" class="edge"><title>Node14&#45;&gt;Node6</title>
<path fill="none" stroke="midnightblue" d="M879.152,-127.346C887.558,-127.346 896.171,-127.346 904.623,-127.346"/>
<polygon fill="midnightblue" stroke="midnightblue" points="904.829,-130.846 914.829,-127.346 904.829,-123.846 904.829,-130.846"/>
</g>
</g>
</svg>
