<?xml version="1.0" encoding="UTF-8" standalone="no"?>
<!DOCTYPE svg PUBLIC "-//W3C//DTD SVG 1.1//EN"
 "http://www.w3.org/Graphics/SVG/1.1/DTD/svg11.dtd">
<!-- Generated by graphviz version 2.38.0 (20140413.2041)
 -->
<!-- Title: prior_hessian::CompositeDist::component_names Pages: 1 -->
<!--zoomable 340 -->
<svg id="main" version="1.1" xmlns="http://www.w3.org/2000/svg" xmlns:xlink="http://www.w3.org/1999/xlink" xml:space="preserve" onload="init(evt)">
<style type="text/css"><![CDATA[
.edge:hover path { stroke: red; }
.edge:hover polygon { stroke: red; fill: red; }
]]></style>
<script type="text/javascript"><![CDATA[
var edges = document.getElementsByTagName('g');
if (edges && edges.length) {
  for (var i=0;i<edges.length;i++) {
    if (edges[i].id.substr(0,4)=='edge') {
      edges[i].setAttribute('class','edge');
    }
  }
}
]]></script>
        <defs>
                <circle id="rim" cx="0" cy="0" r="7"/>
                <circle id="rim2" cx="0" cy="0" r="3.5"/>
                <g id="zoomPlus">
                        <use xlink:href="#rim" fill="#404040">
                                <set attributeName="fill" to="#808080" begin="zoomplus.mouseover" end="zoomplus.mouseout"/>
                        </use>
                        <path d="M-4,0h8M0,-4v8" fill="none" stroke="white" stroke-width="1.5" pointer-events="none"/>
                </g>
                <g id="zoomMin">
                        <use xlink:href="#rim" fill="#404040">
                                <set attributeName="fill" to="#808080" begin="zoomminus.mouseover" end="zoomminus.mouseout"/>
                        </use>
                        <path d="M-4,0h8" fill="none" stroke="white" stroke-width="1.5" pointer-events="none"/>
                </g>
                <g id="dirArrow">
                        <path fill="none" stroke="white" stroke-width="1.5" d="M0,-3.0v7 M-2.5,-0.5L0,-3.0L2.5,-0.5"/>
                </g>
               <g id="resetDef">
                       <use xlink:href="#rim2" fill="#404040">
                               <set attributeName="fill" to="#808080" begin="reset.mouseover" end="reset.mouseout"/>
                       </use>
               </g>
        </defs>

<script type="text/javascript">
var viewWidth = 1110;
var viewHeight = 340;
var sectionId = 'dynsection-7';
</script>
<script xlink:href="svgpan.js"/>
<svg id="graph" class="graph">
<g id="viewport">
<title>prior_hessian::CompositeDist::component_names</title>
<polygon fill="white" stroke="none" points="-4,4 -4,-336.225 1106,-336.225 1106,4 -4,4"/>
<!-- Node1 -->
<g id="node1" class="node"><title>Node1</title>
<polygon fill="#bfbfbf" stroke="black" points="0,-292 0,-320 122,-320 122,-292 0,-292"/>
<text text-anchor="start" x="8" y="-308.8" font-family="Helvetica,sans-Serif" font-size="9.00">prior_hessian::Composite</text>
<text text-anchor="middle" x="61" y="-298.8" font-family="Helvetica,sans-Serif" font-size="9.00">Dist::component_names</text>
</g>
<!-- Node2 -->
<g id="node2" class="node"><title>Node2</title>
<g id="a_node2"><a xlink:href="classprior__hessian_1_1CompositeDist.html#ad796a4f6b17cc35f936dee7d7d9a9a43" target="_top" xlink:title="prior_hessian::Composite\lDist::component_types">
<polygon fill="white" stroke="black" points="505,-294 505,-322 627,-322 627,-294 505,-294"/>
<text text-anchor="start" x="513" y="-310.8" font-family="Helvetica,sans-Serif" font-size="9.00">prior_hessian::Composite</text>
<text text-anchor="middle" x="566" y="-300.8" font-family="Helvetica,sans-Serif" font-size="9.00">Dist::component_types</text>
</a>
</g>
</g>
<!-- Node1&#45;&gt;Node2 -->
<g id="edge1" class="edge"><title>Node1&#45;&gt;Node2</title>
<path fill="none" stroke="midnightblue" d="M132.173,-317.168C140.854,-318.274 149.619,-319.259 158,-320 295.702,-332.18 331.29,-337.099 469,-325 480.634,-323.978 492.971,-322.272 504.786,-320.325"/>
<polygon fill="midnightblue" stroke="midnightblue" points="132.423,-313.671 122.049,-315.823 131.501,-320.61 132.423,-313.671"/>
</g>
<!-- Node4 -->
<g id="node4" class="node"><title>Node4</title>
<g id="a_node4"><a xlink:href="namespaceprior__hessian.html#ab26e9ddc3b6a5caccf5d75e1a1e1af1b" target="_top" xlink:title="prior_hessian::operator\&lt;\&lt;">
<polygon fill="white" stroke="black" points="331.5,-297 331.5,-315 453.5,-315 453.5,-297 331.5,-297"/>
<text text-anchor="middle" x="392.5" y="-303.8" font-family="Helvetica,sans-Serif" font-size="9.00">prior_hessian::operator&lt;&lt;</text>
</a>
</g>
</g>
<!-- Node1&#45;&gt;Node4 -->
<g id="edge3" class="edge"><title>Node1&#45;&gt;Node4</title>
<path fill="none" stroke="midnightblue" d="M132.065,-306C191.247,-306 275.106,-306 331.304,-306"/>
<polygon fill="midnightblue" stroke="midnightblue" points="132.052,-302.5 122.052,-306 132.052,-309.5 132.052,-302.5"/>
</g>
<!-- Node8 -->
<g id="node8" class="node"><title>Node8</title>
<g id="a_node8"><a xlink:href="classprior__hessian_1_1CompositeDist.html#ae7ca30fd19fb59ebe241873443b9faed" target="_top" xlink:title="prior_hessian::Composite\lDist::param_names">
<polygon fill="white" stroke="black" points="158,-129 158,-157 280,-157 280,-129 158,-129"/>
<text text-anchor="start" x="166" y="-145.8" font-family="Helvetica,sans-Serif" font-size="9.00">prior_hessian::Composite</text>
<text text-anchor="middle" x="219" y="-135.8" font-family="Helvetica,sans-Serif" font-size="9.00">Dist::param_names</text>
</a>
</g>
</g>
<!-- Node1&#45;&gt;Node8 -->
<g id="edge10" class="edge"><title>Node1&#45;&gt;Node8</title>
<path fill="none" stroke="midnightblue" d="M82.7716,-284.296C115.199,-250.414 176.969,-185.872 204.349,-157.263"/>
<polygon fill="midnightblue" stroke="midnightblue" points="79.9568,-282.175 75.5711,-291.82 85.0139,-287.015 79.9568,-282.175"/>
</g>
<!-- Node3 -->
<g id="node3" class="node"><title>Node3</title>
<g id="a_node3"><a xlink:href="classprior__hessian_1_1CompositeDist.html#a24bac25ae8c0330b8a3aacadffc9d5ae" target="_top" xlink:title="prior_hessian::Composite\lDist::rllh_components">
<polygon fill="white" stroke="black" points="980,-117 980,-145 1102,-145 1102,-117 980,-117"/>
<text text-anchor="start" x="988" y="-133.8" font-family="Helvetica,sans-Serif" font-size="9.00">prior_hessian::Composite</text>
<text text-anchor="middle" x="1041" y="-123.8" font-family="Helvetica,sans-Serif" font-size="9.00">Dist::rllh_components</text>
</a>
</g>
</g>
<!-- Node2&#45;&gt;Node3 -->
<g id="edge2" class="edge"><title>Node2&#45;&gt;Node3</title>
<path fill="none" stroke="midnightblue" d="M614.039,-290.398C707.957,-255.253 917.012,-177.023 1002.49,-145.038"/>
<polygon fill="midnightblue" stroke="midnightblue" points="612.65,-287.18 604.511,-293.963 615.103,-293.736 612.65,-287.18"/>
</g>
<!-- Node5 -->
<g id="node5" class="node"><title>Node5</title>
<g id="a_node5"><a xlink:href="classprior__hessian_1_1CompositeDist.html#a38c4fdacf927824117d202422b04013c" target="_top" xlink:title="prior_hessian::Composite\lDist::set_param_names">
<polygon fill="white" stroke="black" points="505,-110 505,-138 627,-138 627,-110 505,-110"/>
<text text-anchor="start" x="513" y="-126.8" font-family="Helvetica,sans-Serif" font-size="9.00">prior_hessian::Composite</text>
<text text-anchor="middle" x="566" y="-116.8" font-family="Helvetica,sans-Serif" font-size="9.00">Dist::set_param_names</text>
</a>
</g>
</g>
<!-- Node4&#45;&gt;Node5 -->
<g id="edge4" class="edge"><title>Node4&#45;&gt;Node5</title>
<path fill="none" stroke="midnightblue" d="M461.61,-292.713C464.188,-291.296 466.665,-289.73 469,-288 522.018,-248.721 550.789,-170.718 560.84,-138.471"/>
<polygon fill="midnightblue" stroke="midnightblue" points="460.075,-289.567 452.508,-296.984 463.048,-295.904 460.075,-289.567"/>
</g>
<!-- Node5&#45;&gt;Node3 -->
<g id="edge9" class="edge"><title>Node5&#45;&gt;Node3</title>
<path fill="none" stroke="midnightblue" d="M637.279,-125.525C645.942,-125.695 654.674,-125.858 663,-126 774.915,-127.908 905.53,-129.498 979.927,-130.343"/>
<polygon fill="midnightblue" stroke="midnightblue" points="637.239,-122.024 627.171,-125.323 637.099,-129.023 637.239,-122.024"/>
</g>
<!-- Node6 -->
<g id="node6" class="node"><title>Node6</title>
<g id="a_node6"><a xlink:href="classprior__hessian_1_1CompositeDist.html#ace0aaa3698d76aba6a47f9061ff98902" target="_top" xlink:title="prior_hessian::Composite\lDist::rename_param">
<polygon fill="white" stroke="black" points="663,-67 663,-95 785,-95 785,-67 663,-67"/>
<text text-anchor="start" x="671" y="-83.8" font-family="Helvetica,sans-Serif" font-size="9.00">prior_hessian::Composite</text>
<text text-anchor="middle" x="724" y="-73.8" font-family="Helvetica,sans-Serif" font-size="9.00">Dist::rename_param</text>
</a>
</g>
</g>
<!-- Node5&#45;&gt;Node6 -->
<g id="edge5" class="edge"><title>Node5&#45;&gt;Node6</title>
<path fill="none" stroke="midnightblue" d="M628.013,-107.182C642.592,-103.164 658.002,-98.916 672.072,-95.038"/>
<polygon fill="midnightblue" stroke="midnightblue" points="626.791,-103.889 618.08,-109.92 628.651,-110.637 626.791,-103.889"/>
</g>
<!-- Node7 -->
<g id="node7" class="node"><title>Node7</title>
<g id="a_node7"><a xlink:href="classprior__hessian_1_1CompositeDist.html#a927fed39b2b4e87714c728d6e7b11e8b" target="_top" xlink:title="prior_hessian::Composite\lDist::params_components">
<polygon fill="white" stroke="black" points="821,-86 821,-114 944,-114 944,-86 821,-86"/>
<text text-anchor="start" x="829" y="-102.8" font-family="Helvetica,sans-Serif" font-size="9.00">prior_hessian::Composite</text>
<text text-anchor="middle" x="882.5" y="-92.8" font-family="Helvetica,sans-Serif" font-size="9.00">Dist::params_components</text>
</a>
</g>
</g>
<!-- Node5&#45;&gt;Node7 -->
<g id="edge8" class="edge"><title>Node5&#45;&gt;Node7</title>
<path fill="none" stroke="midnightblue" d="M637.312,-118.634C692.461,-114.426 768.415,-108.63 820.902,-104.624"/>
<polygon fill="midnightblue" stroke="midnightblue" points="636.971,-115.15 627.267,-119.401 637.504,-122.13 636.971,-115.15"/>
</g>
<!-- Node6&#45;&gt;Node7 -->
<g id="edge6" class="edge"><title>Node6&#45;&gt;Node7</title>
<path fill="none" stroke="midnightblue" d="M795.062,-89.506C803.657,-90.5494 812.385,-91.609 820.825,-92.6337"/>
<polygon fill="midnightblue" stroke="midnightblue" points="795.408,-86.0224 785.059,-88.2916 794.565,-92.9713 795.408,-86.0224"/>
</g>
<!-- Node7&#45;&gt;Node3 -->
<g id="edge7" class="edge"><title>Node7&#45;&gt;Node3</title>
<path fill="none" stroke="midnightblue" d="M954.059,-113.976C962.692,-115.687 971.452,-117.422 979.912,-119.098"/>
<polygon fill="midnightblue" stroke="midnightblue" points="954.496,-110.495 944.007,-111.985 953.136,-117.362 954.496,-110.495"/>
</g>
<!-- Node8&#45;&gt;Node3 -->
<g id="edge14" class="edge"><title>Node8&#45;&gt;Node3</title>
<path fill="none" stroke="midnightblue" d="M240.401,-121.616C258.624,-103.719 286.87,-78.7994 316,-64 417.87,-12.2443 450.736,-0 565,-0 565,-0 565,-0 725,-0 845.825,-0 974.113,-83.1863 1021.25,-116.981"/>
<polygon fill="midnightblue" stroke="midnightblue" points="237.814,-119.253 233.232,-128.806 242.771,-124.196 237.814,-119.253"/>
</g>
<!-- Node8&#45;&gt;Node4 -->
<g id="edge11" class="edge"><title>Node8&#45;&gt;Node4</title>
<path fill="none" stroke="midnightblue" d="M229.093,-166.737C242.825,-199.293 272.012,-257.255 316,-288 321.301,-291.705 327.269,-294.654 333.467,-297"/>
<polygon fill="midnightblue" stroke="midnightblue" points="232.192,-165.067 225.179,-157.126 225.71,-167.708 232.192,-165.067"/>
</g>
<!-- Node8&#45;&gt;Node5 -->
<g id="edge17" class="edge"><title>Node8&#45;&gt;Node5</title>
<path fill="none" stroke="midnightblue" d="M290.246,-135.979C298.914,-135.241 307.657,-134.558 316,-134 380.427,-129.689 454.366,-127.006 504.827,-125.518"/>
<polygon fill="midnightblue" stroke="midnightblue" points="289.788,-132.506 280.133,-136.866 290.4,-139.479 289.788,-132.506"/>
</g>
<!-- Node8&#45;&gt;Node6 -->
<g id="edge12" class="edge"><title>Node8&#45;&gt;Node6</title>
<path fill="none" stroke="midnightblue" d="M289.87,-127.728C298.646,-126.021 307.518,-124.397 316,-123 438.308,-102.854 582.982,-90.6583 662.702,-84.9346"/>
<polygon fill="midnightblue" stroke="midnightblue" points="289.153,-124.302 280.027,-129.684 290.517,-131.168 289.153,-124.302"/>
</g>
<!-- Node8&#45;&gt;Node7 -->
<g id="edge13" class="edge"><title>Node8&#45;&gt;Node7</title>
<path fill="none" stroke="midnightblue" d="M254.157,-124.207C272.065,-115.172 294.664,-105.022 316,-99 465.506,-56.7998 507.934,-66.3503 663,-57 717.124,-53.7364 731.964,-45.7184 785,-57 811.013,-62.5334 838.517,-75.5936 857.477,-85.8789"/>
<polygon fill="midnightblue" stroke="midnightblue" points="252.533,-121.107 245.251,-128.802 255.743,-127.327 252.533,-121.107"/>
</g>
<!-- Node9 -->
<g id="node9" class="node"><title>Node9</title>
<g id="a_node9"><a xlink:href="classprior__hessian_1_1CompositeDist_1_1ComponentDistAdaptor_3_01Dist_00_01meta_1_1EnableIfSubclc6c9bd83bba546a81e521c87ad7ee6d3.html#a75bbad1826eb579d89540607f59f3919" target="_top" xlink:title="prior_hessian::Composite\lDist::ComponentDistAdaptor\l\&lt; Dist, meta::EnableIfSubclassT\l\&lt; Dist, UnivariateDist \&gt; \&gt;::append\l_param_names">
<polygon fill="white" stroke="black" points="316,-220 316,-278 469,-278 469,-220 316,-220"/>
<text text-anchor="start" x="324" y="-266.8" font-family="Helvetica,sans-Serif" font-size="9.00">prior_hessian::Composite</text>
<text text-anchor="start" x="324" y="-256.8" font-family="Helvetica,sans-Serif" font-size="9.00">Dist::ComponentDistAdaptor</text>
<text text-anchor="start" x="324" y="-246.8" font-family="Helvetica,sans-Serif" font-size="9.00">&lt; Dist, meta::EnableIfSubclassT</text>
<text text-anchor="start" x="324" y="-236.8" font-family="Helvetica,sans-Serif" font-size="9.00">&lt; Dist, UnivariateDist &gt; &gt;::append</text>
<text text-anchor="middle" x="392.5" y="-226.8" font-family="Helvetica,sans-Serif" font-size="9.00">_param_names</text>
</a>
</g>
</g>
<!-- Node8&#45;&gt;Node9 -->
<g id="edge15" class="edge"><title>Node8&#45;&gt;Node9</title>
<path fill="none" stroke="midnightblue" d="M246.33,-163.274C265.225,-177.415 291.561,-196.307 316,-211 321.031,-214.024 326.332,-217.031 331.698,-219.952"/>
<polygon fill="midnightblue" stroke="midnightblue" points="248.296,-160.373 238.206,-157.143 244.08,-165.961 248.296,-160.373"/>
</g>
<!-- Node10 -->
<g id="node10" class="node"><title>Node10</title>
<g id="a_node10"><a xlink:href="classprior__hessian_1_1CompositeDist_1_1ComponentDistAdaptor_3_01Dist_00_01meta_1_1EnableIfSubcld67d34d533dbae21b9dad35557546eec.html#a500e09e7f9b4431f7db471bf075cdce2" target="_top" xlink:title="prior_hessian::Composite\lDist::ComponentDistAdaptor\l\&lt; Dist, meta::EnableIfSubclassT\l\&lt; Dist, MultivariateDist \&gt; \&gt;\l::append_param_names">
<polygon fill="white" stroke="black" points="319.5,-143 319.5,-201 465.5,-201 465.5,-143 319.5,-143"/>
<text text-anchor="start" x="327.5" y="-189.8" font-family="Helvetica,sans-Serif" font-size="9.00">prior_hessian::Composite</text>
<text text-anchor="start" x="327.5" y="-179.8" font-family="Helvetica,sans-Serif" font-size="9.00">Dist::ComponentDistAdaptor</text>
<text text-anchor="start" x="327.5" y="-169.8" font-family="Helvetica,sans-Serif" font-size="9.00">&lt; Dist, meta::EnableIfSubclassT</text>
<text text-anchor="start" x="327.5" y="-159.8" font-family="Helvetica,sans-Serif" font-size="9.00">&lt; Dist, MultivariateDist &gt; &gt;</text>
<text text-anchor="middle" x="392.5" y="-149.8" font-family="Helvetica,sans-Serif" font-size="9.00">::append_param_names</text>
</a>
</g>
</g>
<!-- Node8&#45;&gt;Node10 -->
<g id="edge16" class="edge"><title>Node8&#45;&gt;Node10</title>
<path fill="none" stroke="midnightblue" d="M290.6,-154.938C300.053,-156.537 309.759,-158.178 319.24,-159.781"/>
<polygon fill="midnightblue" stroke="midnightblue" points="290.908,-151.441 280.464,-153.224 289.741,-158.343 290.908,-151.441"/>
</g>
</g>
</svg>
        <g id="navigator" transform="translate(0 0)" fill="#404254">
                <rect fill="#f2f5e9" fill-opacity="0.5" stroke="#606060" stroke-width=".5" x="0" y="0" width="60" height="60"/>
                <use id="zoomplus" xlink:href="#zoomPlus" x="17" y="9" onmousedown="handleZoom(evt,'in')"/>
                <use id="zoomminus" xlink:href="#zoomMin" x="42" y="9" onmousedown="handleZoom(evt,'out')"/>
                <use id="reset" xlink:href="#resetDef" x="30" y="36" onmousedown="handleReset()"/>
                <g id="arrowUp" xlink:href="#dirArrow" transform="translate(30 24)" onmousedown="handlePan(0,-1)">
                  <use xlink:href="#rim" fill="#404040">
                        <set attributeName="fill" to="#808080" begin="arrowUp.mouseover" end="arrowUp.mouseout"/>
                  </use>
                  <path fill="none" stroke="white" stroke-width="1.5" d="M0,-3.0v7 M-2.5,-0.5L0,-3.0L2.5,-0.5"/>
                </g>
                <g id="arrowRight" xlink:href="#dirArrow" transform="rotate(90) translate(36 -43)" onmousedown="handlePan(1,0)">
                  <use xlink:href="#rim" fill="#404040">
                        <set attributeName="fill" to="#808080" begin="arrowRight.mouseover" end="arrowRight.mouseout"/>
                  </use>
                  <path fill="none" stroke="white" stroke-width="1.5" d="M0,-3.0v7 M-2.5,-0.5L0,-3.0L2.5,-0.5"/>
                </g>
                <g id="arrowDown" xlink:href="#dirArrow" transform="rotate(180) translate(-30 -48)" onmousedown="handlePan(0,1)">
                  <use xlink:href="#rim" fill="#404040">
                        <set attributeName="fill" to="#808080" begin="arrowDown.mouseover" end="arrowDown.mouseout"/>
                  </use>
                  <path fill="none" stroke="white" stroke-width="1.5" d="M0,-3.0v7 M-2.5,-0.5L0,-3.0L2.5,-0.5"/>
                </g>
                <g id="arrowLeft" xlink:href="#dirArrow" transform="rotate(270) translate(-36 17)" onmousedown="handlePan(-1,0)">
                  <use xlink:href="#rim" fill="#404040">
                        <set attributeName="fill" to="#808080" begin="arrowLeft.mouseover" end="arrowLeft.mouseout"/>
                  </use>
                  <path fill="none" stroke="white" stroke-width="1.5" d="M0,-3.0v7 M-2.5,-0.5L0,-3.0L2.5,-0.5"/>
                </g>
        </g>
        <svg viewBox="0 0 15 15" width="100%" height="30px" preserveAspectRatio="xMaxYMin meet">
         <g id="arrow_out" transform="scale(0.3 0.3)">
          <a xlink:href="classprior__hessian_1_1CompositeDist_a5f59bcbe24d659084fbe3dc188011779_icgraph_org.svg" target="_base">
           <rect id="button" ry="5" rx="5" y="6" x="6" height="38" width="38"
                fill="#f2f5e9" fill-opacity="0.5" stroke="#606060" stroke-width="1.0"/>
           <path id="arrow"
             d="M 11.500037,31.436501 C 11.940474,20.09759 22.043105,11.32322 32.158766,21.979434 L 37.068811,17.246167 C 37.068811,17.246167 37.088388,32 37.088388,32 L 22.160133,31.978069 C 22.160133,31.978069 26.997745,27.140456 26.997745,27.140456 C 18.528582,18.264221 13.291696,25.230495 11.500037,31.436501 z"
             style="fill:#404040;"/>
          </a>
         </g>
        </svg>
</svg>
