<?xml version="1.0" encoding="UTF-8" standalone="no"?>
<!DOCTYPE svg PUBLIC "-//W3C//DTD SVG 1.1//EN"
 "http://www.w3.org/Graphics/SVG/1.1/DTD/svg11.dtd">
<!-- Generated by graphviz version 2.38.0 (20140413.2041)
 -->
<!-- Title: prior_hessian::ParetoDist::icdf Pages: 1 -->
<svg width="613pt" height="383pt"
 viewBox="0.00 0.00 613.00 383.00" xmlns="http://www.w3.org/2000/svg" xmlns:xlink="http://www.w3.org/1999/xlink">
<g id="graph0" class="graph" transform="scale(1 1) rotate(0) translate(4 379)">
<title>prior_hessian::ParetoDist::icdf</title>
<polygon fill="white" stroke="none" points="-4,4 -4,-379 609,-379 609,4 -4,4"/>
<!-- Node1 -->
<g id="node1" class="node"><title>Node1</title>
<polygon fill="#bfbfbf" stroke="black" points="0,-168.5 0,-196.5 120,-196.5 120,-168.5 0,-168.5"/>
<text text-anchor="start" x="8" y="-185.3" font-family="Helvetica,sans-Serif" font-size="9.00">prior_hessian::ParetoDist</text>
<text text-anchor="middle" x="60" y="-175.3" font-family="Helvetica,sans-Serif" font-size="9.00">::icdf</text>
</g>
<!-- Node2 -->
<g id="node2" class="node"><title>Node2</title>
<g id="a_node2"><a xlink:href="classprior__hessian_1_1ParetoDist.html#ad117226a3ad1eee827886fc7ba38acbf" target="_top" xlink:title="prior_hessian::ParetoDist\l::lbound">
<polygon fill="white" stroke="black" points="156,-168.5 156,-196.5 276,-196.5 276,-168.5 156,-168.5"/>
<text text-anchor="start" x="164" y="-185.3" font-family="Helvetica,sans-Serif" font-size="9.00">prior_hessian::ParetoDist</text>
<text text-anchor="middle" x="216" y="-175.3" font-family="Helvetica,sans-Serif" font-size="9.00">::lbound</text>
</a>
</g>
</g>
<!-- Node1&#45;&gt;Node2 -->
<g id="edge1" class="edge"><title>Node1&#45;&gt;Node2</title>
<path fill="none" stroke="midnightblue" d="M130.369,-175.78C138.862,-175.714 147.48,-175.758 155.804,-175.913"/>
<polygon fill="midnightblue" stroke="midnightblue" points="130.053,-172.283 120.1,-175.915 130.145,-179.283 130.053,-172.283"/>
</g>
<!-- Node2&#45;&gt;Node1 -->
<g id="edge17" class="edge"><title>Node2&#45;&gt;Node1</title>
<path fill="none" stroke="midnightblue" d="M145.533,-189.221C137.039,-189.286 128.422,-189.241 120.1,-189.085"/>
<polygon fill="midnightblue" stroke="midnightblue" points="145.85,-192.717 155.804,-189.087 145.759,-185.718 145.85,-192.717"/>
</g>
<!-- Node3 -->
<g id="node3" class="node"><title>Node3</title>
<g id="a_node3"><a xlink:href="classprior__hessian_1_1ParetoDist.html#a0a1e20b0aa6c7b52c134fc2341b5fdd4" target="_top" xlink:title="prior_hessian::ParetoDist\l::mean">
<polygon fill="white" stroke="black" points="320.5,-346.5 320.5,-374.5 440.5,-374.5 440.5,-346.5 320.5,-346.5"/>
<text text-anchor="start" x="328.5" y="-363.3" font-family="Helvetica,sans-Serif" font-size="9.00">prior_hessian::ParetoDist</text>
<text text-anchor="middle" x="380.5" y="-353.3" font-family="Helvetica,sans-Serif" font-size="9.00">::mean</text>
</a>
</g>
</g>
<!-- Node2&#45;&gt;Node3 -->
<g id="edge2" class="edge"><title>Node2&#45;&gt;Node3</title>
<path fill="none" stroke="midnightblue" d="M228.092,-206.232C242.374,-238.48 270.411,-295.233 312,-328.5 322.538,-336.929 336.339,-342.35 348.715,-346.491"/>
<polygon fill="midnightblue" stroke="midnightblue" points="231.138,-204.458 223.939,-196.684 224.718,-207.25 231.138,-204.458"/>
</g>
<!-- Node4 -->
<g id="node4" class="node"><title>Node4</title>
<g id="a_node4"><a xlink:href="classprior__hessian_1_1ParetoDist.html#a74af41636088b6c727107c60dd9c81b2" target="_top" xlink:title="prior_hessian::ParetoDist\l::median">
<polygon fill="white" stroke="black" points="320.5,-299.5 320.5,-327.5 440.5,-327.5 440.5,-299.5 320.5,-299.5"/>
<text text-anchor="start" x="328.5" y="-316.3" font-family="Helvetica,sans-Serif" font-size="9.00">prior_hessian::ParetoDist</text>
<text text-anchor="middle" x="380.5" y="-306.3" font-family="Helvetica,sans-Serif" font-size="9.00">::median</text>
</a>
</g>
</g>
<!-- Node2&#45;&gt;Node4 -->
<g id="edge4" class="edge"><title>Node2&#45;&gt;Node4</title>
<path fill="none" stroke="midnightblue" d="M236.098,-204.494C253.32,-226.86 280.698,-260.592 312,-281.5 324.045,-289.545 339.18,-295.041 352.063,-299.496"/>
<polygon fill="midnightblue" stroke="midnightblue" points="238.863,-202.347 230.008,-196.528 233.302,-206.598 238.863,-202.347"/>
</g>
<!-- Node5 -->
<g id="node5" class="node"><title>Node5</title>
<g id="a_node5"><a xlink:href="classprior__hessian_1_1ParetoDist.html#a0f7ee813a098cd3fc9c7669cda6a340c" target="_top" xlink:title="prior_hessian::ParetoDist::llh">
<polygon fill="white" stroke="black" points="313.5,-262.5 313.5,-280.5 447.5,-280.5 447.5,-262.5 313.5,-262.5"/>
<text text-anchor="middle" x="380.5" y="-269.3" font-family="Helvetica,sans-Serif" font-size="9.00">prior_hessian::ParetoDist::llh</text>
</a>
</g>
</g>
<!-- Node2&#45;&gt;Node5 -->
<g id="edge6" class="edge"><title>Node2&#45;&gt;Node5</title>
<path fill="none" stroke="midnightblue" d="M248.506,-202.888C266.109,-216.429 289.07,-233.389 312,-244.5 329.354,-252.909 351.19,-257.816 365.246,-262.484"/>
<polygon fill="midnightblue" stroke="midnightblue" points="250.37,-199.905 240.318,-196.556 246.088,-205.443 250.37,-199.905"/>
</g>
<!-- Node6 -->
<g id="node6" class="node"><title>Node6</title>
<g id="a_node6"><a xlink:href="classprior__hessian_1_1ParetoDist.html#ae3776388549cf35e9fea96963624cf6e" target="_top" xlink:title="prior_hessian::ParetoDist\l::in_bounds">
<polygon fill="white" stroke="black" points="320.5,-215.5 320.5,-243.5 440.5,-243.5 440.5,-215.5 320.5,-215.5"/>
<text text-anchor="start" x="328.5" y="-232.3" font-family="Helvetica,sans-Serif" font-size="9.00">prior_hessian::ParetoDist</text>
<text text-anchor="middle" x="380.5" y="-222.3" font-family="Helvetica,sans-Serif" font-size="9.00">::in_bounds</text>
</a>
</g>
</g>
<!-- Node2&#45;&gt;Node6 -->
<g id="edge8" class="edge"><title>Node2&#45;&gt;Node6</title>
<path fill="none" stroke="midnightblue" d="M275.408,-199.393C293.655,-204.671 313.575,-210.433 331.059,-215.489"/>
<polygon fill="midnightblue" stroke="midnightblue" points="276.334,-196.018 265.755,-196.602 274.389,-202.742 276.334,-196.018"/>
</g>
<!-- Node7 -->
<g id="node7" class="node"><title>Node7</title>
<g id="a_node7"><a xlink:href="classprior__hessian_1_1ParetoDist.html#af5791e2cef16b34e1bbdeec24b13d22e" target="_top" xlink:title="prior_hessian::ParetoDist\l::params">
<polygon fill="white" stroke="black" points="320.5,-168.5 320.5,-196.5 440.5,-196.5 440.5,-168.5 320.5,-168.5"/>
<text text-anchor="start" x="328.5" y="-185.3" font-family="Helvetica,sans-Serif" font-size="9.00">prior_hessian::ParetoDist</text>
<text text-anchor="middle" x="380.5" y="-175.3" font-family="Helvetica,sans-Serif" font-size="9.00">::params</text>
</a>
</g>
</g>
<!-- Node2&#45;&gt;Node7 -->
<g id="edge9" class="edge"><title>Node2&#45;&gt;Node7</title>
<path fill="none" stroke="midnightblue" d="M286.411,-175.814C297.735,-175.691 309.373,-175.745 320.418,-175.978"/>
<polygon fill="midnightblue" stroke="midnightblue" points="286.069,-172.319 276.126,-175.978 286.18,-179.318 286.069,-172.319"/>
</g>
<!-- Node9 -->
<g id="node9" class="node"><title>Node9</title>
<g id="a_node9"><a xlink:href="classprior__hessian_1_1ParetoDist.html#adc9bafea285be38186ec4ad161850b56" target="_top" xlink:title="prior_hessian::ParetoDist\l::get_param">
<polygon fill="white" stroke="black" points="320.5,-121.5 320.5,-149.5 440.5,-149.5 440.5,-121.5 320.5,-121.5"/>
<text text-anchor="start" x="328.5" y="-138.3" font-family="Helvetica,sans-Serif" font-size="9.00">prior_hessian::ParetoDist</text>
<text text-anchor="middle" x="380.5" y="-128.3" font-family="Helvetica,sans-Serif" font-size="9.00">::get_param</text>
</a>
</g>
</g>
<!-- Node2&#45;&gt;Node9 -->
<g id="edge13" class="edge"><title>Node2&#45;&gt;Node9</title>
<path fill="none" stroke="midnightblue" d="M275.408,-165.607C293.655,-160.329 313.575,-154.567 331.059,-149.511"/>
<polygon fill="midnightblue" stroke="midnightblue" points="274.389,-162.258 265.755,-168.398 276.334,-168.982 274.389,-162.258"/>
</g>
<!-- Node11 -->
<g id="node11" class="node"><title>Node11</title>
<g id="a_node11"><a xlink:href="classprior__hessian_1_1ParetoDist.html#afe706cb12ce6f667e7a3a9eb7311ef65" target="_top" xlink:title="prior_hessian::ParetoDist::cdf">
<polygon fill="white" stroke="black" points="312,-84.5 312,-102.5 449,-102.5 449,-84.5 312,-84.5"/>
<text text-anchor="middle" x="380.5" y="-91.3" font-family="Helvetica,sans-Serif" font-size="9.00">prior_hessian::ParetoDist::cdf</text>
</a>
</g>
</g>
<!-- Node2&#45;&gt;Node11 -->
<g id="edge15" class="edge"><title>Node2&#45;&gt;Node11</title>
<path fill="none" stroke="midnightblue" d="M233.13,-161.125C251.131,-142.984 281.723,-118.301 312,-103.5 312.656,-103.179 313.319,-102.863 313.987,-102.551"/>
<polygon fill="midnightblue" stroke="midnightblue" points="230.536,-158.774 226.224,-168.452 235.63,-163.576 230.536,-158.774"/>
</g>
<!-- Node12 -->
<g id="node12" class="node"><title>Node12</title>
<g id="a_node12"><a xlink:href="classprior__hessian_1_1ParetoDist.html#a07cc43c2b299fc07660684f34f32d4ee" target="_top" xlink:title="prior_hessian::ParetoDist::pdf">
<polygon fill="white" stroke="black" points="312,-47.5 312,-65.5 449,-65.5 449,-47.5 312,-47.5"/>
<text text-anchor="middle" x="380.5" y="-54.3" font-family="Helvetica,sans-Serif" font-size="9.00">prior_hessian::ParetoDist::pdf</text>
</a>
</g>
</g>
<!-- Node2&#45;&gt;Node12 -->
<g id="edge18" class="edge"><title>Node2&#45;&gt;Node12</title>
<path fill="none" stroke="midnightblue" d="M227.614,-159.372C243.192,-132.593 274.499,-89.9879 312,-66.5 312.516,-66.1769 313.037,-65.8592 313.564,-65.5468"/>
<polygon fill="midnightblue" stroke="midnightblue" points="224.368,-158.01 222.604,-168.457 230.498,-161.39 224.368,-158.01"/>
</g>
<!-- Node13 -->
<g id="node13" class="node"><title>Node13</title>
<g id="a_node13"><a xlink:href="classprior__hessian_1_1ParetoDist.html#abe706f0786b5e8ef20b7caff07ffad0c" target="_top" xlink:title="prior_hessian::ParetoDist\l::sample">
<polygon fill="white" stroke="black" points="320.5,-0.5 320.5,-28.5 440.5,-28.5 440.5,-0.5 320.5,-0.5"/>
<text text-anchor="start" x="328.5" y="-17.3" font-family="Helvetica,sans-Serif" font-size="9.00">prior_hessian::ParetoDist</text>
<text text-anchor="middle" x="380.5" y="-7.3" font-family="Helvetica,sans-Serif" font-size="9.00">::sample</text>
</a>
</g>
</g>
<!-- Node2&#45;&gt;Node13 -->
<g id="edge20" class="edge"><title>Node2&#45;&gt;Node13</title>
<path fill="none" stroke="midnightblue" d="M224.442,-158.622C237.646,-124.753 267.988,-63.985 312,-29.5 314.643,-27.4289 317.48,-25.5276 320.44,-23.7941"/>
<polygon fill="midnightblue" stroke="midnightblue" points="221.082,-157.617 220.898,-168.211 227.648,-160.044 221.082,-157.617"/>
</g>
<!-- Node3&#45;&gt;Node2 -->
<g id="edge3" class="edge"><title>Node3&#45;&gt;Node2</title>
<path fill="none" stroke="midnightblue" d="M312.492,-346.889C312.327,-346.76 312.163,-346.63 312,-346.5 260.734,-305.493 230.06,-228.798 220.36,-196.652"/>
<polygon fill="midnightblue" stroke="midnightblue" points="310.117,-349.508 320.36,-352.215 314.041,-343.712 310.117,-349.508"/>
</g>
<!-- Node4&#45;&gt;Node2 -->
<g id="edge5" class="edge"><title>Node4&#45;&gt;Node2</title>
<path fill="none" stroke="midnightblue" d="M312.123,-298.787C266.838,-266.32 235.439,-220.527 222.886,-196.846"/>
<polygon fill="midnightblue" stroke="midnightblue" points="310.203,-301.714 320.429,-304.484 314.162,-295.941 310.203,-301.714"/>
</g>
<!-- Node5&#45;&gt;Node2 -->
<g id="edge7" class="edge"><title>Node5&#45;&gt;Node2</title>
<path fill="none" stroke="midnightblue" d="M304.036,-258.345C271.304,-240.487 240.877,-213.651 226.174,-196.73"/>
<polygon fill="midnightblue" stroke="midnightblue" points="302.826,-261.658 313.318,-263.128 306.032,-255.436 302.826,-261.658"/>
</g>
<!-- Node7&#45;&gt;Node2 -->
<g id="edge12" class="edge"><title>Node7&#45;&gt;Node2</title>
<path fill="none" stroke="midnightblue" d="M310.134,-189.185C298.811,-189.309 287.173,-189.255 276.126,-189.022"/>
<polygon fill="midnightblue" stroke="midnightblue" points="310.475,-192.681 320.418,-189.022 310.364,-185.681 310.475,-192.681"/>
</g>
<!-- Node8 -->
<g id="node8" class="node"><title>Node8</title>
<g id="a_node8"><a xlink:href="classprior__hessian_1_1ParetoDist.html#ad90392cbacf44f0760b46e80a2676a08" target="_top" xlink:title="prior_hessian::ParetoDist\l::check_params">
<polygon fill="white" stroke="black" points="485,-168.5 485,-196.5 605,-196.5 605,-168.5 485,-168.5"/>
<text text-anchor="start" x="493" y="-185.3" font-family="Helvetica,sans-Serif" font-size="9.00">prior_hessian::ParetoDist</text>
<text text-anchor="middle" x="545" y="-175.3" font-family="Helvetica,sans-Serif" font-size="9.00">::check_params</text>
</a>
</g>
</g>
<!-- Node7&#45;&gt;Node8 -->
<g id="edge10" class="edge"><title>Node7&#45;&gt;Node8</title>
<path fill="none" stroke="midnightblue" d="M450.911,-182.5C462.235,-182.5 473.873,-182.5 484.918,-182.5"/>
<polygon fill="midnightblue" stroke="midnightblue" points="450.626,-179 440.626,-182.5 450.626,-186 450.626,-179"/>
</g>
<!-- Node8&#45;&gt;Node8 -->
<g id="edge11" class="edge"><title>Node8&#45;&gt;Node8</title>
<path fill="none" stroke="midnightblue" d="M515.354,-206.487C518.502,-211.441 528.384,-215 545,-215 571.586,-215 580.933,-205.89 573.04,-196.53"/>
<polygon fill="midnightblue" stroke="midnightblue" points="518.823,-206.96 516.96,-196.53 511.912,-205.845 518.823,-206.96"/>
</g>
<!-- Node10 -->
<g id="node10" class="node"><title>Node10</title>
<g id="a_node10"><a xlink:href="classprior__hessian_1_1ParetoDist.html#a572ad9f28d83da610e1b81c88876563a" target="_top" xlink:title="prior_hessian::ParetoDist\l::ParetoDist">
<polygon fill="white" stroke="black" points="485,-121.5 485,-149.5 605,-149.5 605,-121.5 485,-121.5"/>
<text text-anchor="start" x="493" y="-138.3" font-family="Helvetica,sans-Serif" font-size="9.00">prior_hessian::ParetoDist</text>
<text text-anchor="middle" x="545" y="-128.3" font-family="Helvetica,sans-Serif" font-size="9.00">::ParetoDist</text>
</a>
</g>
</g>
<!-- Node9&#45;&gt;Node10 -->
<g id="edge14" class="edge"><title>Node9&#45;&gt;Node10</title>
<path fill="none" stroke="midnightblue" d="M450.911,-135.5C462.235,-135.5 473.873,-135.5 484.918,-135.5"/>
<polygon fill="midnightblue" stroke="midnightblue" points="450.626,-132 440.626,-135.5 450.626,-139 450.626,-132"/>
</g>
<!-- Node11&#45;&gt;Node2 -->
<g id="edge16" class="edge"><title>Node11&#45;&gt;Node2</title>
<path fill="none" stroke="midnightblue" d="M356.196,-105.759C342.829,-109.919 325.981,-114.665 312,-121.5 285.865,-134.277 259.494,-154.417 241.19,-168.284"/>
<polygon fill="midnightblue" stroke="midnightblue" points="357.641,-108.968 366.048,-102.52 355.455,-102.318 357.641,-108.968"/>
</g>
<!-- Node12&#45;&gt;Node2 -->
<g id="edge19" class="edge"><title>Node12&#45;&gt;Node2</title>
<path fill="none" stroke="midnightblue" d="M353.31,-68.3299C340.175,-72.0296 324.456,-76.6984 312,-84.5 276.21,-106.917 246.061,-146.746 229.843,-168.341"/>
<polygon fill="midnightblue" stroke="midnightblue" points="354.514,-71.6266 363.178,-65.5293 352.602,-64.8926 354.514,-71.6266"/>
</g>
<!-- Node13&#45;&gt;Node2 -->
<g id="edge21" class="edge"><title>Node13&#45;&gt;Node2</title>
<path fill="none" stroke="midnightblue" d="M341.011,-32.0726C330.894,-35.9857 320.458,-40.8731 312,-47.5 268.621,-81.4886 238.522,-141.009 225.023,-168.459"/>
<polygon fill="midnightblue" stroke="midnightblue" points="342.344,-35.3119 350.537,-28.5944 339.943,-28.7365 342.344,-35.3119"/>
</g>
</g>
</svg>
