<?xml version="1.0" encoding="UTF-8" standalone="no"?>
<!DOCTYPE svg PUBLIC "-//W3C//DTD SVG 1.1//EN"
 "http://www.w3.org/Graphics/SVG/1.1/DTD/svg11.dtd">
<!-- Generated by graphviz version 2.38.0 (20140413.2041)
 -->
<!-- Title: prior_hessian::ParetoDist::cdf Pages: 1 -->
<svg width="630pt" height="393pt"
 viewBox="0.00 0.00 630.00 393.00" xmlns="http://www.w3.org/2000/svg" xmlns:xlink="http://www.w3.org/1999/xlink">
<g id="graph0" class="graph" transform="scale(1 1) rotate(0) translate(4 389)">
<title>prior_hessian::ParetoDist::cdf</title>
<polygon fill="white" stroke="none" points="-4,4 -4,-389 626,-389 626,4 -4,4"/>
<!-- Node1 -->
<g id="node1" class="node"><title>Node1</title>
<polygon fill="#bfbfbf" stroke="black" points="0,-183.5 0,-201.5 137,-201.5 137,-183.5 0,-183.5"/>
<text text-anchor="middle" x="68.5" y="-190.3" font-family="Helvetica,sans-Serif" font-size="9.00">prior_hessian::ParetoDist::cdf</text>
</g>
<!-- Node2 -->
<g id="node2" class="node"><title>Node2</title>
<g id="a_node2"><a xlink:href="classprior__hessian_1_1ParetoDist.html#ad117226a3ad1eee827886fc7ba38acbf" target="_top" xlink:title="prior_hessian::ParetoDist\l::lbound">
<polygon fill="white" stroke="black" points="173,-178.5 173,-206.5 293,-206.5 293,-178.5 173,-178.5"/>
<text text-anchor="start" x="181" y="-195.3" font-family="Helvetica,sans-Serif" font-size="9.00">prior_hessian::ParetoDist</text>
<text text-anchor="middle" x="233" y="-185.3" font-family="Helvetica,sans-Serif" font-size="9.00">::lbound</text>
</a>
</g>
</g>
<!-- Node1&#45;&gt;Node2 -->
<g id="edge1" class="edge"><title>Node1&#45;&gt;Node2</title>
<path fill="none" stroke="midnightblue" d="M147.156,-185.756C155.846,-185.727 164.592,-185.802 172.994,-185.98"/>
<polygon fill="midnightblue" stroke="midnightblue" points="146.975,-182.257 137.003,-185.837 147.03,-189.257 146.975,-182.257"/>
</g>
<!-- Node2&#45;&gt;Node1 -->
<g id="edge15" class="edge"><title>Node2&#45;&gt;Node1</title>
<path fill="none" stroke="midnightblue" d="M162.716,-199.185C154.196,-199.278 145.496,-199.271 137.003,-199.163"/>
<polygon fill="midnightblue" stroke="midnightblue" points="163.051,-202.68 172.994,-199.02 162.939,-195.681 163.051,-202.68"/>
</g>
<!-- Node3 -->
<g id="node3" class="node"><title>Node3</title>
<g id="a_node3"><a xlink:href="classprior__hessian_1_1ParetoDist.html#a0a1e20b0aa6c7b52c134fc2341b5fdd4" target="_top" xlink:title="prior_hessian::ParetoDist\l::mean">
<polygon fill="white" stroke="black" points="337.5,-356.5 337.5,-384.5 457.5,-384.5 457.5,-356.5 337.5,-356.5"/>
<text text-anchor="start" x="345.5" y="-373.3" font-family="Helvetica,sans-Serif" font-size="9.00">prior_hessian::ParetoDist</text>
<text text-anchor="middle" x="397.5" y="-363.3" font-family="Helvetica,sans-Serif" font-size="9.00">::mean</text>
</a>
</g>
</g>
<!-- Node2&#45;&gt;Node3 -->
<g id="edge2" class="edge"><title>Node2&#45;&gt;Node3</title>
<path fill="none" stroke="midnightblue" d="M245.092,-216.232C259.374,-248.48 287.411,-305.233 329,-338.5 339.538,-346.929 353.339,-352.35 365.715,-356.491"/>
<polygon fill="midnightblue" stroke="midnightblue" points="248.138,-214.458 240.939,-206.684 241.718,-217.25 248.138,-214.458"/>
</g>
<!-- Node4 -->
<g id="node4" class="node"><title>Node4</title>
<g id="a_node4"><a xlink:href="classprior__hessian_1_1ParetoDist.html#a74af41636088b6c727107c60dd9c81b2" target="_top" xlink:title="prior_hessian::ParetoDist\l::median">
<polygon fill="white" stroke="black" points="337.5,-309.5 337.5,-337.5 457.5,-337.5 457.5,-309.5 337.5,-309.5"/>
<text text-anchor="start" x="345.5" y="-326.3" font-family="Helvetica,sans-Serif" font-size="9.00">prior_hessian::ParetoDist</text>
<text text-anchor="middle" x="397.5" y="-316.3" font-family="Helvetica,sans-Serif" font-size="9.00">::median</text>
</a>
</g>
</g>
<!-- Node2&#45;&gt;Node4 -->
<g id="edge4" class="edge"><title>Node2&#45;&gt;Node4</title>
<path fill="none" stroke="midnightblue" d="M253.098,-214.494C270.32,-236.86 297.698,-270.592 329,-291.5 341.045,-299.545 356.18,-305.041 369.063,-309.496"/>
<polygon fill="midnightblue" stroke="midnightblue" points="255.863,-212.347 247.008,-206.528 250.302,-216.598 255.863,-212.347"/>
</g>
<!-- Node5 -->
<g id="node5" class="node"><title>Node5</title>
<g id="a_node5"><a xlink:href="classprior__hessian_1_1ParetoDist.html#a0f7ee813a098cd3fc9c7669cda6a340c" target="_top" xlink:title="prior_hessian::ParetoDist::llh">
<polygon fill="white" stroke="black" points="330.5,-272.5 330.5,-290.5 464.5,-290.5 464.5,-272.5 330.5,-272.5"/>
<text text-anchor="middle" x="397.5" y="-279.3" font-family="Helvetica,sans-Serif" font-size="9.00">prior_hessian::ParetoDist::llh</text>
</a>
</g>
</g>
<!-- Node2&#45;&gt;Node5 -->
<g id="edge6" class="edge"><title>Node2&#45;&gt;Node5</title>
<path fill="none" stroke="midnightblue" d="M265.506,-212.888C283.109,-226.429 306.07,-243.389 329,-254.5 346.354,-262.909 368.19,-267.816 382.246,-272.484"/>
<polygon fill="midnightblue" stroke="midnightblue" points="267.37,-209.905 257.318,-206.556 263.088,-215.443 267.37,-209.905"/>
</g>
<!-- Node6 -->
<g id="node6" class="node"><title>Node6</title>
<g id="a_node6"><a xlink:href="classprior__hessian_1_1ParetoDist.html#ae3776388549cf35e9fea96963624cf6e" target="_top" xlink:title="prior_hessian::ParetoDist\l::in_bounds">
<polygon fill="white" stroke="black" points="337.5,-225.5 337.5,-253.5 457.5,-253.5 457.5,-225.5 337.5,-225.5"/>
<text text-anchor="start" x="345.5" y="-242.3" font-family="Helvetica,sans-Serif" font-size="9.00">prior_hessian::ParetoDist</text>
<text text-anchor="middle" x="397.5" y="-232.3" font-family="Helvetica,sans-Serif" font-size="9.00">::in_bounds</text>
</a>
</g>
</g>
<!-- Node2&#45;&gt;Node6 -->
<g id="edge8" class="edge"><title>Node2&#45;&gt;Node6</title>
<path fill="none" stroke="midnightblue" d="M292.408,-209.393C310.655,-214.671 330.575,-220.433 348.059,-225.489"/>
<polygon fill="midnightblue" stroke="midnightblue" points="293.334,-206.018 282.755,-206.602 291.389,-212.742 293.334,-206.018"/>
</g>
<!-- Node7 -->
<g id="node7" class="node"><title>Node7</title>
<g id="a_node7"><a xlink:href="classprior__hessian_1_1ParetoDist.html#af5791e2cef16b34e1bbdeec24b13d22e" target="_top" xlink:title="prior_hessian::ParetoDist\l::params">
<polygon fill="white" stroke="black" points="337.5,-178.5 337.5,-206.5 457.5,-206.5 457.5,-178.5 337.5,-178.5"/>
<text text-anchor="start" x="345.5" y="-195.3" font-family="Helvetica,sans-Serif" font-size="9.00">prior_hessian::ParetoDist</text>
<text text-anchor="middle" x="397.5" y="-185.3" font-family="Helvetica,sans-Serif" font-size="9.00">::params</text>
</a>
</g>
</g>
<!-- Node2&#45;&gt;Node7 -->
<g id="edge9" class="edge"><title>Node2&#45;&gt;Node7</title>
<path fill="none" stroke="midnightblue" d="M303.411,-185.814C314.735,-185.691 326.373,-185.745 337.418,-185.978"/>
<polygon fill="midnightblue" stroke="midnightblue" points="303.069,-182.319 293.126,-185.978 303.18,-189.318 303.069,-182.319"/>
</g>
<!-- Node9 -->
<g id="node9" class="node"><title>Node9</title>
<g id="a_node9"><a xlink:href="classprior__hessian_1_1ParetoDist.html#adc9bafea285be38186ec4ad161850b56" target="_top" xlink:title="prior_hessian::ParetoDist\l::get_param">
<polygon fill="white" stroke="black" points="337.5,-131.5 337.5,-159.5 457.5,-159.5 457.5,-131.5 337.5,-131.5"/>
<text text-anchor="start" x="345.5" y="-148.3" font-family="Helvetica,sans-Serif" font-size="9.00">prior_hessian::ParetoDist</text>
<text text-anchor="middle" x="397.5" y="-138.3" font-family="Helvetica,sans-Serif" font-size="9.00">::get_param</text>
</a>
</g>
</g>
<!-- Node2&#45;&gt;Node9 -->
<g id="edge13" class="edge"><title>Node2&#45;&gt;Node9</title>
<path fill="none" stroke="midnightblue" d="M292.408,-175.607C310.655,-170.329 330.575,-164.567 348.059,-159.511"/>
<polygon fill="midnightblue" stroke="midnightblue" points="291.389,-172.258 282.755,-178.398 293.334,-178.982 291.389,-172.258"/>
</g>
<!-- Node11 -->
<g id="node11" class="node"><title>Node11</title>
<g id="a_node11"><a xlink:href="classprior__hessian_1_1ParetoDist.html#a9d1040a7a5ca261feebe56f42e5698ea" target="_top" xlink:title="prior_hessian::ParetoDist\l::icdf">
<polygon fill="white" stroke="black" points="337.5,-84.5 337.5,-112.5 457.5,-112.5 457.5,-84.5 337.5,-84.5"/>
<text text-anchor="start" x="345.5" y="-101.3" font-family="Helvetica,sans-Serif" font-size="9.00">prior_hessian::ParetoDist</text>
<text text-anchor="middle" x="397.5" y="-91.3" font-family="Helvetica,sans-Serif" font-size="9.00">::icdf</text>
</a>
</g>
</g>
<!-- Node2&#45;&gt;Node11 -->
<g id="edge16" class="edge"><title>Node2&#45;&gt;Node11</title>
<path fill="none" stroke="midnightblue" d="M250.618,-171.228C268.826,-153.446 299.396,-129.226 329,-113.5 331.636,-112.1 334.371,-110.751 337.164,-109.464"/>
<polygon fill="midnightblue" stroke="midnightblue" points="248.088,-168.808 243.611,-178.41 253.099,-173.697 248.088,-168.808"/>
</g>
<!-- Node12 -->
<g id="node12" class="node"><title>Node12</title>
<g id="a_node12"><a xlink:href="classprior__hessian_1_1ParetoDist.html#a07cc43c2b299fc07660684f34f32d4ee" target="_top" xlink:title="prior_hessian::ParetoDist::pdf">
<polygon fill="white" stroke="black" points="329,-47.5 329,-65.5 466,-65.5 466,-47.5 329,-47.5"/>
<text text-anchor="middle" x="397.5" y="-54.3" font-family="Helvetica,sans-Serif" font-size="9.00">prior_hessian::ParetoDist::pdf</text>
</a>
</g>
</g>
<!-- Node2&#45;&gt;Node12 -->
<g id="edge18" class="edge"><title>Node2&#45;&gt;Node12</title>
<path fill="none" stroke="midnightblue" d="M243.376,-169.369C258.157,-140.487 289.321,-92.5865 329,-66.5 329.509,-66.1656 330.023,-65.837 330.543,-65.5142"/>
<polygon fill="midnightblue" stroke="midnightblue" points="240.222,-167.852 239.003,-178.376 246.519,-170.909 240.222,-167.852"/>
</g>
<!-- Node13 -->
<g id="node13" class="node"><title>Node13</title>
<g id="a_node13"><a xlink:href="classprior__hessian_1_1ParetoDist.html#abe706f0786b5e8ef20b7caff07ffad0c" target="_top" xlink:title="prior_hessian::ParetoDist\l::sample">
<polygon fill="white" stroke="black" points="337.5,-0.5 337.5,-28.5 457.5,-28.5 457.5,-0.5 337.5,-0.5"/>
<text text-anchor="start" x="345.5" y="-17.3" font-family="Helvetica,sans-Serif" font-size="9.00">prior_hessian::ParetoDist</text>
<text text-anchor="middle" x="397.5" y="-7.3" font-family="Helvetica,sans-Serif" font-size="9.00">::sample</text>
</a>
</g>
</g>
<!-- Node2&#45;&gt;Node13 -->
<g id="edge20" class="edge"><title>Node2&#45;&gt;Node13</title>
<path fill="none" stroke="midnightblue" d="M240.566,-168.844C252.952,-133.195 282.751,-66.8871 329,-29.5 331.612,-27.3889 334.423,-25.4561 337.363,-23.6981"/>
<polygon fill="midnightblue" stroke="midnightblue" points="237.207,-167.855 237.408,-178.448 243.857,-170.042 237.207,-167.855"/>
</g>
<!-- Node3&#45;&gt;Node2 -->
<g id="edge3" class="edge"><title>Node3&#45;&gt;Node2</title>
<path fill="none" stroke="midnightblue" d="M329.492,-356.889C329.327,-356.76 329.163,-356.63 329,-356.5 277.734,-315.493 247.06,-238.798 237.36,-206.652"/>
<polygon fill="midnightblue" stroke="midnightblue" points="327.117,-359.508 337.36,-362.215 331.041,-353.712 327.117,-359.508"/>
</g>
<!-- Node4&#45;&gt;Node2 -->
<g id="edge5" class="edge"><title>Node4&#45;&gt;Node2</title>
<path fill="none" stroke="midnightblue" d="M329.123,-308.787C283.838,-276.32 252.439,-230.527 239.886,-206.846"/>
<polygon fill="midnightblue" stroke="midnightblue" points="327.203,-311.714 337.429,-314.484 331.162,-305.941 327.203,-311.714"/>
</g>
<!-- Node5&#45;&gt;Node2 -->
<g id="edge7" class="edge"><title>Node5&#45;&gt;Node2</title>
<path fill="none" stroke="midnightblue" d="M321.036,-268.345C288.304,-250.487 257.877,-223.651 243.174,-206.73"/>
<polygon fill="midnightblue" stroke="midnightblue" points="319.826,-271.658 330.318,-273.128 323.032,-265.436 319.826,-271.658"/>
</g>
<!-- Node7&#45;&gt;Node2 -->
<g id="edge12" class="edge"><title>Node7&#45;&gt;Node2</title>
<path fill="none" stroke="midnightblue" d="M327.134,-199.185C315.811,-199.309 304.173,-199.255 293.126,-199.022"/>
<polygon fill="midnightblue" stroke="midnightblue" points="327.475,-202.681 337.418,-199.022 327.364,-195.681 327.475,-202.681"/>
</g>
<!-- Node8 -->
<g id="node8" class="node"><title>Node8</title>
<g id="a_node8"><a xlink:href="classprior__hessian_1_1ParetoDist.html#ad90392cbacf44f0760b46e80a2676a08" target="_top" xlink:title="prior_hessian::ParetoDist\l::check_params">
<polygon fill="white" stroke="black" points="502,-178.5 502,-206.5 622,-206.5 622,-178.5 502,-178.5"/>
<text text-anchor="start" x="510" y="-195.3" font-family="Helvetica,sans-Serif" font-size="9.00">prior_hessian::ParetoDist</text>
<text text-anchor="middle" x="562" y="-185.3" font-family="Helvetica,sans-Serif" font-size="9.00">::check_params</text>
</a>
</g>
</g>
<!-- Node7&#45;&gt;Node8 -->
<g id="edge10" class="edge"><title>Node7&#45;&gt;Node8</title>
<path fill="none" stroke="midnightblue" d="M467.911,-192.5C479.235,-192.5 490.873,-192.5 501.918,-192.5"/>
<polygon fill="midnightblue" stroke="midnightblue" points="467.626,-189 457.626,-192.5 467.626,-196 467.626,-189"/>
</g>
<!-- Node8&#45;&gt;Node8 -->
<g id="edge11" class="edge"><title>Node8&#45;&gt;Node8</title>
<path fill="none" stroke="midnightblue" d="M532.354,-216.487C535.502,-221.441 545.384,-225 562,-225 588.586,-225 597.933,-215.89 590.04,-206.53"/>
<polygon fill="midnightblue" stroke="midnightblue" points="535.823,-216.96 533.96,-206.53 528.912,-215.845 535.823,-216.96"/>
</g>
<!-- Node10 -->
<g id="node10" class="node"><title>Node10</title>
<g id="a_node10"><a xlink:href="classprior__hessian_1_1ParetoDist.html#a572ad9f28d83da610e1b81c88876563a" target="_top" xlink:title="prior_hessian::ParetoDist\l::ParetoDist">
<polygon fill="white" stroke="black" points="502,-131.5 502,-159.5 622,-159.5 622,-131.5 502,-131.5"/>
<text text-anchor="start" x="510" y="-148.3" font-family="Helvetica,sans-Serif" font-size="9.00">prior_hessian::ParetoDist</text>
<text text-anchor="middle" x="562" y="-138.3" font-family="Helvetica,sans-Serif" font-size="9.00">::ParetoDist</text>
</a>
</g>
</g>
<!-- Node9&#45;&gt;Node10 -->
<g id="edge14" class="edge"><title>Node9&#45;&gt;Node10</title>
<path fill="none" stroke="midnightblue" d="M467.911,-145.5C479.235,-145.5 490.873,-145.5 501.918,-145.5"/>
<polygon fill="midnightblue" stroke="midnightblue" points="467.626,-142 457.626,-145.5 467.626,-149 467.626,-142"/>
</g>
<!-- Node11&#45;&gt;Node2 -->
<g id="edge17" class="edge"><title>Node11&#45;&gt;Node2</title>
<path fill="none" stroke="midnightblue" d="M364.275,-116.266C352.825,-120.673 340.044,-125.633 329,-131.5 303.671,-144.956 277.633,-164.629 259.238,-178.224"/>
<polygon fill="midnightblue" stroke="midnightblue" points="365.86,-119.406 373.918,-112.528 363.329,-112.879 365.86,-119.406"/>
</g>
<!-- Node12&#45;&gt;Node2 -->
<g id="edge19" class="edge"><title>Node12&#45;&gt;Node2</title>
<path fill="none" stroke="midnightblue" d="M369.646,-68.2449C356.58,-71.8646 341.12,-76.5314 329,-84.5 290.739,-109.654 260.394,-155.092 245.022,-178.453"/>
<polygon fill="midnightblue" stroke="midnightblue" points="370.794,-71.559 379.501,-65.5234 368.93,-64.8116 370.794,-71.559"/>
</g>
<!-- Node13&#45;&gt;Node2 -->
<g id="edge21" class="edge"><title>Node13&#45;&gt;Node2</title>
<path fill="none" stroke="midnightblue" d="M357.61,-32.0073C347.577,-35.9028 337.283,-40.8044 329,-47.5 283.56,-84.2329 254,-148.884 241.232,-178.041"/>
<polygon fill="midnightblue" stroke="midnightblue" points="358.88,-35.2696 367.076,-28.555 356.482,-28.6934 358.88,-35.2696"/>
</g>
</g>
</svg>
