<?xml version="1.0" encoding="UTF-8" standalone="no"?>
<!DOCTYPE svg PUBLIC "-//W3C//DTD SVG 1.1//EN"
 "http://www.w3.org/Graphics/SVG/1.1/DTD/svg11.dtd">
<!-- Generated by graphviz version 2.38.0 (20140413.2041)
 -->
<!-- Title: prior_hessian::CompositeDist::lbound Pages: 1 -->
<svg width="828pt" height="397pt"
 viewBox="0.00 0.00 828.00 396.68" xmlns="http://www.w3.org/2000/svg" xmlns:xlink="http://www.w3.org/1999/xlink">
<g id="graph0" class="graph" transform="scale(1 1) rotate(0) translate(4 392.681)">
<title>prior_hessian::CompositeDist::lbound</title>
<polygon fill="white" stroke="none" points="-4,4 -4,-392.681 824,-392.681 824,4 -4,4"/>
<!-- Node1 -->
<g id="node1" class="node"><title>Node1</title>
<polygon fill="#bfbfbf" stroke="black" points="0,-139.181 0,-167.181 122,-167.181 122,-139.181 0,-139.181"/>
<text text-anchor="start" x="8" y="-155.981" font-family="Helvetica,sans-Serif" font-size="9.00">prior_hessian::Composite</text>
<text text-anchor="middle" x="61" y="-145.981" font-family="Helvetica,sans-Serif" font-size="9.00">Dist::lbound</text>
</g>
<!-- Node2 -->
<g id="node2" class="node"><title>Node2</title>
<g id="a_node2"><a xlink:href="classprior__hessian_1_1CompositeDist_1_1ComponentDistAdaptor_3_01Dist_00_01meta_1_1EnableIfSubclc6c9bd83bba546a81e521c87ad7ee6d3.html#a1d66ce9255e672c44d926c8944ac30ce" target="_top" xlink:title="prior_hessian::Composite\lDist::ComponentDistAdaptor\l\&lt; Dist, meta::EnableIfSubclassT\l\&lt; Dist, UnivariateDist \&gt; \&gt;::append\l_global_lbound">
<polygon fill="white" stroke="black" points="175,-330.181 175,-388.181 328,-388.181 328,-330.181 175,-330.181"/>
<text text-anchor="start" x="183" y="-376.981" font-family="Helvetica,sans-Serif" font-size="9.00">prior_hessian::Composite</text>
<text text-anchor="start" x="183" y="-366.981" font-family="Helvetica,sans-Serif" font-size="9.00">Dist::ComponentDistAdaptor</text>
<text text-anchor="start" x="183" y="-356.981" font-family="Helvetica,sans-Serif" font-size="9.00">&lt; Dist, meta::EnableIfSubclassT</text>
<text text-anchor="start" x="183" y="-346.981" font-family="Helvetica,sans-Serif" font-size="9.00">&lt; Dist, UnivariateDist &gt; &gt;::append</text>
<text text-anchor="middle" x="251.5" y="-336.981" font-family="Helvetica,sans-Serif" font-size="9.00">_global_lbound</text>
</a>
</g>
</g>
<!-- Node1&#45;&gt;Node2 -->
<g id="edge1" class="edge"><title>Node1&#45;&gt;Node2</title>
<path fill="none" stroke="midnightblue" d="M69.9056,-177.046C82.9121,-212.919 112.057,-280.827 158,-321.181 163.087,-325.649 168.771,-329.638 174.752,-333.189"/>
<polygon fill="midnightblue" stroke="midnightblue" points="73.1399,-175.692 66.5251,-167.416 66.5351,-178.011 73.1399,-175.692"/>
</g>
<!-- Node3 -->
<g id="node3" class="node"><title>Node3</title>
<g id="a_node3"><a xlink:href="classprior__hessian_1_1CompositeDist_1_1ComponentDistAdaptor_3_01Dist_00_01meta_1_1EnableIfSubclc6c9bd83bba546a81e521c87ad7ee6d3.html#aedfbb603408ea84a80ba7c21c8910e66" target="_top" xlink:title="prior_hessian::Composite\lDist::ComponentDistAdaptor\l\&lt; Dist, meta::EnableIfSubclassT\l\&lt; Dist, UnivariateDist \&gt; \&gt;::append_lbound">
<polygon fill="white" stroke="black" points="158,-263.181 158,-311.181 345,-311.181 345,-263.181 158,-263.181"/>
<text text-anchor="start" x="166" y="-299.981" font-family="Helvetica,sans-Serif" font-size="9.00">prior_hessian::Composite</text>
<text text-anchor="start" x="166" y="-289.981" font-family="Helvetica,sans-Serif" font-size="9.00">Dist::ComponentDistAdaptor</text>
<text text-anchor="start" x="166" y="-279.981" font-family="Helvetica,sans-Serif" font-size="9.00">&lt; Dist, meta::EnableIfSubclassT</text>
<text text-anchor="middle" x="251.5" y="-269.981" font-family="Helvetica,sans-Serif" font-size="9.00">&lt; Dist, UnivariateDist &gt; &gt;::append_lbound</text>
</a>
</g>
</g>
<!-- Node1&#45;&gt;Node3 -->
<g id="edge2" class="edge"><title>Node1&#45;&gt;Node3</title>
<path fill="none" stroke="midnightblue" d="M77.9502,-175.276C95.3323,-197.926 125.094,-232.775 158,-254.181 163.002,-257.435 168.366,-260.416 173.898,-263.138"/>
<polygon fill="midnightblue" stroke="midnightblue" points="80.7204,-173.136 71.9137,-167.246 75.1251,-177.343 80.7204,-173.136"/>
</g>
<!-- Node4 -->
<g id="node4" class="node"><title>Node4</title>
<g id="a_node4"><a xlink:href="classprior__hessian_1_1CompositeDist_1_1ComponentDistAdaptor_3_01Dist_00_01meta_1_1EnableIfSubcld67d34d533dbae21b9dad35557546eec.html#a971c182cb228d2ba1406c32f2257d6e3" target="_top" xlink:title="prior_hessian::Composite\lDist::ComponentDistAdaptor\l\&lt; Dist, meta::EnableIfSubclassT\l\&lt; Dist, MultivariateDist \&gt; \&gt;\l::append_lbound">
<polygon fill="white" stroke="black" points="178.5,-186.181 178.5,-244.181 324.5,-244.181 324.5,-186.181 178.5,-186.181"/>
<text text-anchor="start" x="186.5" y="-232.981" font-family="Helvetica,sans-Serif" font-size="9.00">prior_hessian::Composite</text>
<text text-anchor="start" x="186.5" y="-222.981" font-family="Helvetica,sans-Serif" font-size="9.00">Dist::ComponentDistAdaptor</text>
<text text-anchor="start" x="186.5" y="-212.981" font-family="Helvetica,sans-Serif" font-size="9.00">&lt; Dist, meta::EnableIfSubclassT</text>
<text text-anchor="start" x="186.5" y="-202.981" font-family="Helvetica,sans-Serif" font-size="9.00">&lt; Dist, MultivariateDist &gt; &gt;</text>
<text text-anchor="middle" x="251.5" y="-192.981" font-family="Helvetica,sans-Serif" font-size="9.00">::append_lbound</text>
</a>
</g>
</g>
<!-- Node1&#45;&gt;Node4 -->
<g id="edge3" class="edge"><title>Node1&#45;&gt;Node4</title>
<path fill="none" stroke="midnightblue" d="M114.501,-170.449C134.254,-176.946 157.075,-184.452 178.312,-191.437"/>
<polygon fill="midnightblue" stroke="midnightblue" points="115.367,-167.049 104.774,-167.249 113.179,-173.699 115.367,-167.049"/>
</g>
<!-- Node5 -->
<g id="node5" class="node"><title>Node5</title>
<g id="a_node5"><a xlink:href="classprior__hessian_1_1CompositeDist.html#aad4dece0c6d7857cbe3e9121aa7cc040" target="_top" xlink:title="prior_hessian::Composite\lDist::in_bounds">
<polygon fill="white" stroke="black" points="190.5,-139.181 190.5,-167.181 312.5,-167.181 312.5,-139.181 190.5,-139.181"/>
<text text-anchor="start" x="198.5" y="-155.981" font-family="Helvetica,sans-Serif" font-size="9.00">prior_hessian::Composite</text>
<text text-anchor="middle" x="251.5" y="-145.981" font-family="Helvetica,sans-Serif" font-size="9.00">Dist::in_bounds</text>
</a>
</g>
</g>
<!-- Node1&#45;&gt;Node5 -->
<g id="edge4" class="edge"><title>Node1&#45;&gt;Node5</title>
<path fill="none" stroke="midnightblue" d="M132.283,-153.181C151.346,-153.181 171.81,-153.181 190.264,-153.181"/>
<polygon fill="midnightblue" stroke="midnightblue" points="132.161,-149.681 122.161,-153.181 132.161,-156.681 132.161,-149.681"/>
</g>
<!-- Node6 -->
<g id="node6" class="node"><title>Node6</title>
<g id="a_node6"><a xlink:href="classprior__hessian_1_1CompositeDist.html#ac7063be5346f042c0312d5729aa0883c" target="_top" xlink:title="prior_hessian::Composite\lDist::in_bounds_all">
<polygon fill="white" stroke="black" points="190.5,-92.1806 190.5,-120.181 312.5,-120.181 312.5,-92.1806 190.5,-92.1806"/>
<text text-anchor="start" x="198.5" y="-108.981" font-family="Helvetica,sans-Serif" font-size="9.00">prior_hessian::Composite</text>
<text text-anchor="middle" x="251.5" y="-98.9806" font-family="Helvetica,sans-Serif" font-size="9.00">Dist::in_bounds_all</text>
</a>
</g>
</g>
<!-- Node1&#45;&gt;Node6 -->
<g id="edge5" class="edge"><title>Node1&#45;&gt;Node6</title>
<path fill="none" stroke="midnightblue" d="M128.043,-136.714C149.62,-131.334 173.369,-125.412 194.164,-120.227"/>
<polygon fill="midnightblue" stroke="midnightblue" points="127.157,-133.327 118.301,-139.143 128.851,-140.119 127.157,-133.327"/>
</g>
<!-- Node7 -->
<g id="node7" class="node"><title>Node7</title>
<g id="a_node7"><a xlink:href="namespaceprior__hessian.html#ab26e9ddc3b6a5caccf5d75e1a1e1af1b" target="_top" xlink:title="prior_hessian::operator\&lt;\&lt;">
<polygon fill="white" stroke="black" points="190.5,-55.1806 190.5,-73.1806 312.5,-73.1806 312.5,-55.1806 190.5,-55.1806"/>
<text text-anchor="middle" x="251.5" y="-61.9806" font-family="Helvetica,sans-Serif" font-size="9.00">prior_hessian::operator&lt;&lt;</text>
</a>
</g>
</g>
<!-- Node1&#45;&gt;Node7 -->
<g id="edge6" class="edge"><title>Node1&#45;&gt;Node7</title>
<path fill="none" stroke="midnightblue" d="M84.3886,-132.054C102.761,-115.911 130.192,-94.4156 158,-82.1806 168.033,-77.7662 179.151,-74.4294 190.097,-71.9087"/>
<polygon fill="midnightblue" stroke="midnightblue" points="81.7123,-129.754 76.6158,-139.042 86.3923,-134.959 81.7123,-129.754"/>
</g>
<!-- Node10 -->
<g id="node10" class="node"><title>Node10</title>
<g id="a_node10"><a xlink:href="classprior__hessian_1_1CompositeDist.html#a24bac25ae8c0330b8a3aacadffc9d5ae" target="_top" xlink:title="prior_hessian::Composite\lDist::rllh_components">
<polygon fill="white" stroke="black" points="698,-48.1806 698,-76.1806 820,-76.1806 820,-48.1806 698,-48.1806"/>
<text text-anchor="start" x="706" y="-64.9806" font-family="Helvetica,sans-Serif" font-size="9.00">prior_hessian::Composite</text>
<text text-anchor="middle" x="759" y="-54.9806" font-family="Helvetica,sans-Serif" font-size="9.00">Dist::rllh_components</text>
</a>
</g>
</g>
<!-- Node1&#45;&gt;Node10 -->
<g id="edge11" class="edge"><title>Node1&#45;&gt;Node10</title>
<path fill="none" stroke="midnightblue" d="M74.5394,-130.004C90.1629,-103.841 119.556,-62.6521 158,-45.1806 348.69,41.4815 609.819,-18.423 713.222,-48.1633"/>
<polygon fill="midnightblue" stroke="midnightblue" points="71.3781,-128.48 69.4151,-138.891 77.4423,-131.976 71.3781,-128.48"/>
</g>
<!-- Node8 -->
<g id="node8" class="node"><title>Node8</title>
<g id="a_node8"><a xlink:href="classprior__hessian_1_1CompositeDist.html#a38c4fdacf927824117d202422b04013c" target="_top" xlink:title="prior_hessian::Composite\lDist::set_param_names">
<polygon fill="white" stroke="black" points="381,-53.1806 381,-81.1806 503,-81.1806 503,-53.1806 381,-53.1806"/>
<text text-anchor="start" x="389" y="-69.9806" font-family="Helvetica,sans-Serif" font-size="9.00">prior_hessian::Composite</text>
<text text-anchor="middle" x="442" y="-59.9806" font-family="Helvetica,sans-Serif" font-size="9.00">Dist::set_param_names</text>
</a>
</g>
</g>
<!-- Node7&#45;&gt;Node8 -->
<g id="edge7" class="edge"><title>Node7&#45;&gt;Node8</title>
<path fill="none" stroke="midnightblue" d="M322.783,-65.2992C341.846,-65.6026 362.31,-65.9283 380.764,-66.222"/>
<polygon fill="midnightblue" stroke="midnightblue" points="322.715,-61.7978 312.661,-65.1381 322.604,-68.7969 322.715,-61.7978"/>
</g>
<!-- Node9 -->
<g id="node9" class="node"><title>Node9</title>
<g id="a_node9"><a xlink:href="classprior__hessian_1_1CompositeDist.html#a927fed39b2b4e87714c728d6e7b11e8b" target="_top" xlink:title="prior_hessian::Composite\lDist::params_components">
<polygon fill="white" stroke="black" points="539,-91.1806 539,-119.181 662,-119.181 662,-91.1806 539,-91.1806"/>
<text text-anchor="start" x="547" y="-107.981" font-family="Helvetica,sans-Serif" font-size="9.00">prior_hessian::Composite</text>
<text text-anchor="middle" x="600.5" y="-97.9806" font-family="Helvetica,sans-Serif" font-size="9.00">Dist::params_components</text>
</a>
</g>
</g>
<!-- Node8&#45;&gt;Node9 -->
<g id="edge8" class="edge"><title>Node8&#45;&gt;Node9</title>
<path fill="none" stroke="midnightblue" d="M510.635,-83.6031C520.967,-86.1118 531.55,-88.6816 541.646,-91.1331"/>
<polygon fill="midnightblue" stroke="midnightblue" points="511.374,-80.1809 500.83,-81.2225 509.722,-86.9833 511.374,-80.1809"/>
</g>
<!-- Node8&#45;&gt;Node10 -->
<g id="edge10" class="edge"><title>Node8&#45;&gt;Node10</title>
<path fill="none" stroke="midnightblue" d="M513.457,-66.0623C568.879,-65.1825 645.264,-63.9701 697.842,-63.1355"/>
<polygon fill="midnightblue" stroke="midnightblue" points="513.306,-62.5641 503.362,-66.2225 513.417,-69.5632 513.306,-62.5641"/>
</g>
<!-- Node9&#45;&gt;Node10 -->
<g id="edge9" class="edge"><title>Node9&#45;&gt;Node10</title>
<path fill="none" stroke="midnightblue" d="M662.709,-88.3628C677.334,-84.3444 692.794,-80.0966 706.908,-76.2186"/>
<polygon fill="midnightblue" stroke="midnightblue" points="661.459,-85.0764 652.744,-91.1008 663.314,-91.8263 661.459,-85.0764"/>
</g>
</g>
</svg>
