<?xml version="1.0" encoding="UTF-8" standalone="no"?>
<!DOCTYPE svg PUBLIC "-//W3C//DTD SVG 1.1//EN"
 "http://www.w3.org/Graphics/SVG/1.1/DTD/svg11.dtd">
<!-- Generated by graphviz version 2.38.0 (20140413.2041)
 -->
<!-- Title: prior_hessian::AMHCopula::grad2 Pages: 1 -->
<svg width="464pt" height="59pt"
 viewBox="0.00 0.00 464.00 59.00" xmlns="http://www.w3.org/2000/svg" xmlns:xlink="http://www.w3.org/1999/xlink">
<g id="graph0" class="graph" transform="scale(1 1) rotate(0) translate(4 55)">
<title>prior_hessian::AMHCopula::grad2</title>
<polygon fill="white" stroke="none" points="-4,4 -4,-55 460,-55 460,4 -4,4"/>
<!-- Node1 -->
<g id="node1" class="node"><title>Node1</title>
<polygon fill="#bfbfbf" stroke="black" points="0,-0.5 0,-28.5 128,-28.5 128,-0.5 0,-0.5"/>
<text text-anchor="start" x="8" y="-17.3" font-family="Helvetica,sans-Serif" font-size="9.00">prior_hessian::AMHCopula</text>
<text text-anchor="middle" x="64" y="-7.3" font-family="Helvetica,sans-Serif" font-size="9.00">::grad2</text>
</g>
<!-- Node2 -->
<g id="node2" class="node"><title>Node2</title>
<g id="a_node2"><a xlink:href="classprior__hessian_1_1AMHCopula.html#a7c3f0e7eb7f4c8eecd37563c35e1f819" target="_top" xlink:title="prior_hessian::AMHCopula\l::grad">
<polygon fill="white" stroke="black" points="164,-22.5 164,-50.5 292,-50.5 292,-22.5 164,-22.5"/>
<text text-anchor="start" x="172" y="-39.3" font-family="Helvetica,sans-Serif" font-size="9.00">prior_hessian::AMHCopula</text>
<text text-anchor="middle" x="228" y="-29.3" font-family="Helvetica,sans-Serif" font-size="9.00">::grad</text>
</a>
</g>
</g>
<!-- Node1&#45;&gt;Node2 -->
<g id="edge1" class="edge"><title>Node1&#45;&gt;Node2</title>
<path fill="none" stroke="midnightblue" d="M138.094,-24.4263C146.676,-25.5918 155.378,-26.7735 163.808,-27.9184"/>
<polygon fill="midnightblue" stroke="midnightblue" points="138.477,-20.9464 128.097,-23.0688 137.535,-27.8827 138.477,-20.9464"/>
</g>
<!-- Node3 -->
<g id="node3" class="node"><title>Node3</title>
<g id="a_node3"><a xlink:href="classprior__hessian_1_1AMHCopula.html#a5f5ab047fa0c58b93e7b8e072bc9c682" target="_top" xlink:title="prior_hessian::AMHCopula\l::set_params_iter">
<polygon fill="white" stroke="black" points="328,-0.5 328,-28.5 456,-28.5 456,-0.5 328,-0.5"/>
<text text-anchor="start" x="336" y="-17.3" font-family="Helvetica,sans-Serif" font-size="9.00">prior_hessian::AMHCopula</text>
<text text-anchor="middle" x="392" y="-7.3" font-family="Helvetica,sans-Serif" font-size="9.00">::set_params_iter</text>
</a>
</g>
</g>
<!-- Node1&#45;&gt;Node3 -->
<g id="edge3" class="edge"><title>Node1&#45;&gt;Node3</title>
<path fill="none" stroke="midnightblue" d="M138.248,-13.6771C146.927,-13.6042 155.661,-13.5421 164,-13.5 220.888,-13.2127 235.112,-13.2127 292,-13.5 303.602,-13.5586 315.969,-13.6558 327.89,-13.7672"/>
<polygon fill="midnightblue" stroke="midnightblue" points="138.079,-10.1784 128.11,-13.7672 138.141,-17.1781 138.079,-10.1784"/>
</g>
<!-- Node2&#45;&gt;Node3 -->
<g id="edge2" class="edge"><title>Node2&#45;&gt;Node3</title>
<path fill="none" stroke="midnightblue" d="M302.094,-26.5737C310.676,-25.4082 319.378,-24.2265 327.808,-23.0816"/>
<polygon fill="midnightblue" stroke="midnightblue" points="301.535,-23.1173 292.097,-27.9312 302.477,-30.0536 301.535,-23.1173"/>
</g>
</g>
</svg>
