<?xml version="1.0" encoding="UTF-8" standalone="no"?>
<!DOCTYPE svg PUBLIC "-//W3C//DTD SVG 1.1//EN"
 "http://www.w3.org/Graphics/SVG/1.1/DTD/svg11.dtd">
<!-- Generated by graphviz version 2.38.0 (20140413.2041)
 -->
<!-- Title: prior_hessian::CopulaDistImpl::CopulaDist::num_params Pages: 1 -->
<svg width="840pt" height="178pt"
 viewBox="0.00 0.00 840.00 178.00" xmlns="http://www.w3.org/2000/svg" xmlns:xlink="http://www.w3.org/1999/xlink">
<g id="graph0" class="graph" transform="scale(1 1) rotate(0) translate(4 174)">
<title>prior_hessian::CopulaDistImpl::CopulaDist::num_params</title>
<polygon fill="white" stroke="none" points="-4,4 -4,-174 836,-174 836,4 -4,4"/>
<!-- Node1 -->
<g id="node1" class="node"><title>Node1</title>
<polygon fill="#bfbfbf" stroke="black" points="0,-23.5 0,-51.5 143,-51.5 143,-23.5 0,-23.5"/>
<text text-anchor="start" x="8" y="-40.3" font-family="Helvetica,sans-Serif" font-size="9.00">prior_hessian::CopulaDist</text>
<text text-anchor="middle" x="71.5" y="-30.3" font-family="Helvetica,sans-Serif" font-size="9.00">Impl::CopulaDist::num_params</text>
</g>
<!-- Node2 -->
<g id="node2" class="node"><title>Node2</title>
<g id="a_node2"><a xlink:href="classprior__hessian_1_1CopulaDistImpl_1_1CopulaDist.html#aad110f1a85e7611fd098aa51c2104015" target="_top" xlink:title="prior_hessian::CopulaDist\lImpl::CopulaDist::global_ubound">
<polygon fill="white" stroke="black" points="179,-47.5 179,-75.5 330,-75.5 330,-47.5 179,-47.5"/>
<text text-anchor="start" x="187" y="-64.3" font-family="Helvetica,sans-Serif" font-size="9.00">prior_hessian::CopulaDist</text>
<text text-anchor="middle" x="254.5" y="-54.3" font-family="Helvetica,sans-Serif" font-size="9.00">Impl::CopulaDist::global_ubound</text>
</a>
</g>
</g>
<!-- Node1&#45;&gt;Node2 -->
<g id="edge1" class="edge"><title>Node1&#45;&gt;Node2</title>
<path fill="none" stroke="midnightblue" d="M153.22,-48.2032C161.769,-49.3367 170.435,-50.4859 178.91,-51.6096"/>
<polygon fill="midnightblue" stroke="midnightblue" points="153.63,-44.7271 143.257,-46.8821 152.71,-51.6663 153.63,-44.7271"/>
</g>
<!-- Node8 -->
<g id="node8" class="node"><title>Node8</title>
<g id="a_node8"><a xlink:href="classprior__hessian_1_1CopulaDistImpl_1_1CopulaDist.html#a5cd91617bed91a4c401ad05f52958010" target="_top" xlink:title="prior_hessian::CopulaDist\lImpl::CopulaDist::operator!=">
<polygon fill="white" stroke="black" points="189,-0.5 189,-28.5 320,-28.5 320,-0.5 189,-0.5"/>
<text text-anchor="start" x="197" y="-17.3" font-family="Helvetica,sans-Serif" font-size="9.00">prior_hessian::CopulaDist</text>
<text text-anchor="middle" x="254.5" y="-7.3" font-family="Helvetica,sans-Serif" font-size="9.00">Impl::CopulaDist::operator!=</text>
</a>
</g>
</g>
<!-- Node1&#45;&gt;Node8 -->
<g id="edge13" class="edge"><title>Node1&#45;&gt;Node8</title>
<path fill="none" stroke="midnightblue" d="M153.239,-27.2404C165.209,-25.7193 177.409,-24.169 188.989,-22.6975"/>
<polygon fill="midnightblue" stroke="midnightblue" points="152.736,-23.776 143.257,-28.5088 153.618,-30.7202 152.736,-23.776"/>
</g>
<!-- Node3 -->
<g id="node3" class="node"><title>Node3</title>
<g id="a_node3"><a xlink:href="classprior__hessian_1_1CopulaDistImpl_1_1CopulaDist.html#a26cd71990978df0ddae24dae5148c880" target="_top" xlink:title="prior_hessian::CopulaDist\lImpl::CopulaDist::num_dim">
<polygon fill="white" stroke="black" points="371,-141.5 371,-169.5 498,-169.5 498,-141.5 371,-141.5"/>
<text text-anchor="start" x="379" y="-158.3" font-family="Helvetica,sans-Serif" font-size="9.00">prior_hessian::CopulaDist</text>
<text text-anchor="middle" x="434.5" y="-148.3" font-family="Helvetica,sans-Serif" font-size="9.00">Impl::CopulaDist::num_dim</text>
</a>
</g>
</g>
<!-- Node2&#45;&gt;Node3 -->
<g id="edge2" class="edge"><title>Node2&#45;&gt;Node3</title>
<path fill="none" stroke="midnightblue" d="M282.611,-81.5765C304.338,-96.9979 336.04,-118.036 366,-132.5 372.69,-135.729 379.951,-138.708 387.149,-141.377"/>
<polygon fill="midnightblue" stroke="midnightblue" points="284.393,-78.5468 274.23,-75.554 280.308,-84.2316 284.393,-78.5468"/>
</g>
<!-- Node4 -->
<g id="node4" class="node"><title>Node4</title>
<g id="a_node4"><a xlink:href="classprior__hessian_1_1CopulaDistImpl_1_1CopulaDist.html#ad5f8f42efd9f709625cf60836fa473b9" target="_top" xlink:title="prior_hessian::CopulaDist\lImpl::CopulaDist::set_bounds">
<polygon fill="white" stroke="black" points="366,-94.5 366,-122.5 503,-122.5 503,-94.5 366,-94.5"/>
<text text-anchor="start" x="374" y="-111.3" font-family="Helvetica,sans-Serif" font-size="9.00">prior_hessian::CopulaDist</text>
<text text-anchor="middle" x="434.5" y="-101.3" font-family="Helvetica,sans-Serif" font-size="9.00">Impl::CopulaDist::set_bounds</text>
</a>
</g>
</g>
<!-- Node2&#45;&gt;Node4 -->
<g id="edge3" class="edge"><title>Node2&#45;&gt;Node4</title>
<path fill="none" stroke="midnightblue" d="M340.055,-77.0838C361.566,-82.6911 383.424,-88.9169 400.585,-94.4297"/>
<polygon fill="midnightblue" stroke="midnightblue" points="340.771,-73.6541 330.214,-74.5558 339.029,-80.434 340.771,-73.6541"/>
</g>
<!-- Node7 -->
<g id="node7" class="node"><title>Node7</title>
<g id="a_node7"><a xlink:href="classprior__hessian_1_1CopulaDistImpl_1_1CopulaDist.html#a4b010ffe2c2acd4dc75c80b32312254d" target="_top" xlink:title="prior_hessian::CopulaDist\lImpl::CopulaDist::set_ubound">
<polygon fill="white" stroke="black" points="366,-47.5 366,-75.5 503,-75.5 503,-47.5 366,-47.5"/>
<text text-anchor="start" x="374" y="-64.3" font-family="Helvetica,sans-Serif" font-size="9.00">prior_hessian::CopulaDist</text>
<text text-anchor="middle" x="434.5" y="-54.3" font-family="Helvetica,sans-Serif" font-size="9.00">Impl::CopulaDist::set_ubound</text>
</a>
</g>
</g>
<!-- Node2&#45;&gt;Node7 -->
<g id="edge10" class="edge"><title>Node2&#45;&gt;Node7</title>
<path fill="none" stroke="midnightblue" d="M340.231,-54.7569C348.8,-54.7292 357.423,-54.785 365.779,-54.9245"/>
<polygon fill="midnightblue" stroke="midnightblue" points="340.189,-51.257 330.214,-54.8279 340.239,-58.2568 340.189,-51.257"/>
</g>
<!-- Node4&#45;&gt;Node2 -->
<g id="edge9" class="edge"><title>Node4&#45;&gt;Node2</title>
<path fill="none" stroke="midnightblue" d="M356.236,-94.7963C332.509,-88.7445 307.65,-81.7441 288.563,-75.6181"/>
<polygon fill="midnightblue" stroke="midnightblue" points="355.409,-98.1972 365.96,-97.2389 357.114,-91.4081 355.409,-98.1972"/>
</g>
<!-- Node5 -->
<g id="node5" class="node"><title>Node5</title>
<g id="a_node5"><a xlink:href="classprior__hessian_1_1CopulaDistImpl_1_1CopulaDist.html#abdb39f0c5f7f5f4b16bf501e6083d5b6" target="_top" xlink:title="prior_hessian::CopulaDist\lImpl::CopulaDist::ubound">
<polygon fill="white" stroke="black" points="539,-28.5 539,-56.5 662,-56.5 662,-28.5 539,-28.5"/>
<text text-anchor="start" x="547" y="-45.3" font-family="Helvetica,sans-Serif" font-size="9.00">prior_hessian::CopulaDist</text>
<text text-anchor="middle" x="600.5" y="-35.3" font-family="Helvetica,sans-Serif" font-size="9.00">Impl::CopulaDist::ubound</text>
</a>
</g>
</g>
<!-- Node4&#45;&gt;Node5 -->
<g id="edge4" class="edge"><title>Node4&#45;&gt;Node5</title>
<path fill="none" stroke="midnightblue" d="M485.99,-90.9773C491.748,-88.8518 497.516,-86.6654 503,-84.5 525.093,-75.7765 549.633,-65.0821 568.437,-56.6681"/>
<polygon fill="midnightblue" stroke="midnightblue" points="484.56,-87.773 476.36,-94.4821 486.954,-94.3509 484.56,-87.773"/>
</g>
<!-- Node5&#45;&gt;Node2 -->
<g id="edge8" class="edge"><title>Node5&#45;&gt;Node2</title>
<path fill="none" stroke="midnightblue" d="M528.682,-38.4102C520.033,-38.0349 511.317,-37.7153 503,-37.5 442.132,-35.9242 426.541,-31.0012 366,-37.5 347.262,-39.5115 327.038,-43.3894 309.078,-47.451"/>
<polygon fill="midnightblue" stroke="midnightblue" points="528.625,-41.9112 538.775,-38.8735 528.946,-34.9185 528.625,-41.9112"/>
</g>
<!-- Node6 -->
<g id="node6" class="node"><title>Node6</title>
<g id="a_node6"><a xlink:href="classprior__hessian_1_1CopulaDistImpl_1_1CopulaDist.html#ac0819ccaeef1afd7a123338823e8fb3c" target="_top" xlink:title="prior_hessian::CopulaDist\lImpl::CopulaDist::set_lbound">
<polygon fill="white" stroke="black" points="698,-28.5 698,-56.5 832,-56.5 832,-28.5 698,-28.5"/>
<text text-anchor="start" x="706" y="-45.3" font-family="Helvetica,sans-Serif" font-size="9.00">prior_hessian::CopulaDist</text>
<text text-anchor="middle" x="765" y="-35.3" font-family="Helvetica,sans-Serif" font-size="9.00">Impl::CopulaDist::set_lbound</text>
</a>
</g>
</g>
<!-- Node5&#45;&gt;Node6 -->
<g id="edge5" class="edge"><title>Node5&#45;&gt;Node6</title>
<path fill="none" stroke="midnightblue" d="M672.03,-35.8025C680.65,-35.7176 689.435,-35.7357 697.986,-35.8566"/>
<polygon fill="midnightblue" stroke="midnightblue" points="671.957,-32.3031 662.009,-35.9494 672.059,-39.3023 671.957,-32.3031"/>
</g>
<!-- Node6&#45;&gt;Node2 -->
<g id="edge7" class="edge"><title>Node6&#45;&gt;Node2</title>
<path fill="none" stroke="midnightblue" d="M704.676,-26.107C690.782,-22.9479 675.96,-20.1202 662,-18.5 531.214,-3.32071 495.735,-8.04544 366,-30.5 343.128,-34.4587 318.189,-41.2344 297.801,-47.4433"/>
<polygon fill="midnightblue" stroke="midnightblue" points="704.066,-29.5592 714.603,-28.4532 705.676,-22.7468 704.066,-29.5592"/>
</g>
<!-- Node6&#45;&gt;Node5 -->
<g id="edge6" class="edge"><title>Node6&#45;&gt;Node5</title>
<path fill="none" stroke="midnightblue" d="M687.864,-49.2381C679.191,-49.2785 670.44,-49.216 662.009,-49.0506"/>
<polygon fill="midnightblue" stroke="midnightblue" points="688.019,-52.7369 697.986,-49.1434 687.953,-45.7372 688.019,-52.7369"/>
</g>
<!-- Node7&#45;&gt;Node2 -->
<g id="edge12" class="edge"><title>Node7&#45;&gt;Node2</title>
<path fill="none" stroke="midnightblue" d="M355.589,-68.2032C347.162,-68.2746 338.602,-68.2643 330.214,-68.1721"/>
<polygon fill="midnightblue" stroke="midnightblue" points="355.824,-71.7006 365.779,-68.0755 355.736,-64.7012 355.824,-71.7006"/>
</g>
<!-- Node7&#45;&gt;Node5 -->
<g id="edge11" class="edge"><title>Node7&#45;&gt;Node5</title>
<path fill="none" stroke="midnightblue" d="M513.203,-52.4979C521.808,-51.5009 530.477,-50.4965 538.829,-49.5289"/>
<polygon fill="midnightblue" stroke="midnightblue" points="512.683,-49.0346 503.152,-53.6623 513.488,-55.9881 512.683,-49.0346"/>
</g>
</g>
</svg>
