<?xml version="1.0" encoding="UTF-8" standalone="no"?>
<!DOCTYPE svg PUBLIC "-//W3C//DTD SVG 1.1//EN"
 "http://www.w3.org/Graphics/SVG/1.1/DTD/svg11.dtd">
<!-- Generated by graphviz version 2.38.0 (20140413.2041)
 -->
<!-- Title: prior_hessian::NormalDist::median Pages: 1 -->
<svg width="642pt" height="571pt"
 viewBox="0.00 0.00 642.00 570.64" xmlns="http://www.w3.org/2000/svg" xmlns:xlink="http://www.w3.org/1999/xlink">
<g id="graph0" class="graph" transform="scale(1 1) rotate(0) translate(4 566.644)">
<title>prior_hessian::NormalDist::median</title>
<polygon fill="white" stroke="none" points="-4,4 -4,-566.644 638,-566.644 638,4 -4,4"/>
<!-- Node1 -->
<g id="node1" class="node"><title>Node1</title>
<polygon fill="#bfbfbf" stroke="black" points="0,-244.5 0,-272.5 123,-272.5 123,-244.5 0,-244.5"/>
<text text-anchor="start" x="8" y="-261.3" font-family="Helvetica,sans-Serif" font-size="9.00">prior_hessian::NormalDist</text>
<text text-anchor="middle" x="61.5" y="-251.3" font-family="Helvetica,sans-Serif" font-size="9.00">::median</text>
</g>
<!-- Node2 -->
<g id="node2" class="node"><title>Node2</title>
<g id="a_node2"><a xlink:href="classprior__hessian_1_1NormalDist.html#abf71571c6e5ed7c496f8a5ff556d998c" target="_top" xlink:title="prior_hessian::NormalDist\l::append_params_iter">
<polygon fill="white" stroke="black" points="167.5,-359.5 167.5,-387.5 290.5,-387.5 290.5,-359.5 167.5,-359.5"/>
<text text-anchor="start" x="175.5" y="-376.3" font-family="Helvetica,sans-Serif" font-size="9.00">prior_hessian::NormalDist</text>
<text text-anchor="middle" x="229" y="-366.3" font-family="Helvetica,sans-Serif" font-size="9.00">::append_params_iter</text>
</a>
</g>
</g>
<!-- Node1&#45;&gt;Node2 -->
<g id="edge1" class="edge"><title>Node1&#45;&gt;Node2</title>
<path fill="none" stroke="midnightblue" d="M74.157,-272.774C90.9922,-292.548 123.958,-328.236 159,-349.5 162.439,-351.587 166.086,-353.525 169.835,-355.32"/>
<polygon fill="midnightblue" stroke="midnightblue" points="168.744,-358.663 179.307,-359.486 171.563,-352.256 168.744,-358.663"/>
</g>
<!-- Node3 -->
<g id="node3" class="node"><title>Node3</title>
<g id="a_node3"><a xlink:href="classprior__hessian_1_1NormalDist.html#a33b6cc4357406f8d0dd017fc1088e1bc" target="_top" xlink:title="prior_hessian::NormalDist::mu">
<polygon fill="white" stroke="black" points="335,-411.5 335,-429.5 475,-429.5 475,-411.5 335,-411.5"/>
<text text-anchor="middle" x="405" y="-418.3" font-family="Helvetica,sans-Serif" font-size="9.00">prior_hessian::NormalDist::mu</text>
</a>
</g>
</g>
<!-- Node1&#45;&gt;Node3 -->
<g id="edge24" class="edge"><title>Node1&#45;&gt;Node3</title>
<path fill="none" stroke="midnightblue" d="M62.2068,-272.807C62.1046,-320.447 68.9931,-474.318 159,-538.5 209.661,-574.625 243.206,-566.044 299,-538.5 322.594,-526.852 317.801,-511.414 335,-491.5 351.873,-471.963 372.697,-450.913 387.029,-436.849"/>
<polygon fill="midnightblue" stroke="midnightblue" points="389.535,-439.293 394.256,-429.808 384.651,-434.279 389.535,-439.293"/>
</g>
<!-- Node7 -->
<g id="node7" class="node"><title>Node7</title>
<g id="a_node7"><a xlink:href="classprior__hessian_1_1NormalDist.html#a821fd9870aabac911bfc7d024a82ee4e" target="_top" xlink:title="prior_hessian::NormalDist::cdf">
<polygon fill="white" stroke="black" points="159,-0.5 159,-18.5 299,-18.5 299,-0.5 159,-0.5"/>
<text text-anchor="middle" x="229" y="-7.3" font-family="Helvetica,sans-Serif" font-size="9.00">prior_hessian::NormalDist::cdf</text>
</a>
</g>
</g>
<!-- Node1&#45;&gt;Node7 -->
<g id="edge6" class="edge"><title>Node1&#45;&gt;Node7</title>
<path fill="none" stroke="midnightblue" d="M64.538,-244.376C70.9299,-205.171 94.169,-93.919 159,-33.5 163.689,-29.1305 169.215,-25.551 175.065,-22.6197"/>
<polygon fill="midnightblue" stroke="midnightblue" points="176.684,-25.7321 184.451,-18.5266 173.885,-19.3156 176.684,-25.7321"/>
</g>
<!-- Node8 -->
<g id="node8" class="node"><title>Node8</title>
<g id="a_node8"><a xlink:href="classprior__hessian_1_1NormalDist.html#ab0fa4841ce15ec70c8a8d876e5ea890f" target="_top" xlink:title="prior_hessian::NormalDist\l::check_params_iter">
<polygon fill="white" stroke="black" points="167.5,-500.5 167.5,-528.5 290.5,-528.5 290.5,-500.5 167.5,-500.5"/>
<text text-anchor="start" x="175.5" y="-517.3" font-family="Helvetica,sans-Serif" font-size="9.00">prior_hessian::NormalDist</text>
<text text-anchor="middle" x="229" y="-507.3" font-family="Helvetica,sans-Serif" font-size="9.00">::check_params_iter</text>
</a>
</g>
</g>
<!-- Node1&#45;&gt;Node8 -->
<g id="edge7" class="edge"><title>Node1&#45;&gt;Node8</title>
<path fill="none" stroke="midnightblue" d="M64.2515,-272.581C69.9899,-312.745 91.8814,-428.979 159,-491.5 160.27,-492.683 161.603,-493.806 162.989,-494.871"/>
<polygon fill="midnightblue" stroke="midnightblue" points="161.131,-497.838 171.421,-500.362 164.951,-491.972 161.131,-497.838"/>
</g>
<!-- Node10 -->
<g id="node10" class="node"><title>Node10</title>
<g id="a_node10"><a xlink:href="classprior__hessian_1_1NormalDist.html#a5ea017ef0f5cd34304248c399b4136f3" target="_top" xlink:title="prior_hessian::NormalDist\l::grad">
<polygon fill="white" stroke="black" points="343.5,-27.5 343.5,-55.5 466.5,-55.5 466.5,-27.5 343.5,-27.5"/>
<text text-anchor="start" x="351.5" y="-44.3" font-family="Helvetica,sans-Serif" font-size="9.00">prior_hessian::NormalDist</text>
<text text-anchor="middle" x="405" y="-34.3" font-family="Helvetica,sans-Serif" font-size="9.00">::grad</text>
</a>
</g>
</g>
<!-- Node1&#45;&gt;Node10 -->
<g id="edge11" class="edge"><title>Node1&#45;&gt;Node10</title>
<path fill="none" stroke="midnightblue" d="M65.8526,-244.446C74.6744,-210.76 101.892,-125.191 159,-84.5 209.53,-48.4962 280.51,-39.3608 333.071,-38.2758"/>
<polygon fill="midnightblue" stroke="midnightblue" points="333.366,-41.7728 343.326,-38.1605 333.287,-34.7732 333.366,-41.7728"/>
</g>
<!-- Node12 -->
<g id="node12" class="node"><title>Node12</title>
<g id="a_node12"><a xlink:href="classprior__hessian_1_1NormalDist.html#ab346dd5512cd0ff79d3a8b9e63618126" target="_top" xlink:title="prior_hessian::NormalDist\l::grad2">
<polygon fill="white" stroke="black" points="343.5,-158.5 343.5,-186.5 466.5,-186.5 466.5,-158.5 343.5,-158.5"/>
<text text-anchor="start" x="351.5" y="-175.3" font-family="Helvetica,sans-Serif" font-size="9.00">prior_hessian::NormalDist</text>
<text text-anchor="middle" x="405" y="-165.3" font-family="Helvetica,sans-Serif" font-size="9.00">::grad2</text>
</a>
</g>
</g>
<!-- Node1&#45;&gt;Node12 -->
<g id="edge13" class="edge"><title>Node1&#45;&gt;Node12</title>
<path fill="none" stroke="midnightblue" d="M82.9353,-244.347C101.799,-232.015 131.041,-214.705 159,-205.5 215.922,-186.759 283.636,-178.644 333.436,-175.14"/>
<polygon fill="midnightblue" stroke="midnightblue" points="333.716,-178.629 343.464,-174.479 333.255,-171.644 333.716,-178.629"/>
</g>
<!-- Node13 -->
<g id="node13" class="node"><title>Node13</title>
<g id="a_node13"><a xlink:href="classprior__hessian_1_1NormalDist.html#a8c28e95235a2def2e86c299e4ebe8afb" target="_top" xlink:title="prior_hessian::NormalDist\l::grad_grad2_accumulate">
<polygon fill="white" stroke="black" points="343.5,-111.5 343.5,-139.5 466.5,-139.5 466.5,-111.5 343.5,-111.5"/>
<text text-anchor="start" x="351.5" y="-128.3" font-family="Helvetica,sans-Serif" font-size="9.00">prior_hessian::NormalDist</text>
<text text-anchor="middle" x="405" y="-118.3" font-family="Helvetica,sans-Serif" font-size="9.00">::grad_grad2_accumulate</text>
</a>
</g>
</g>
<!-- Node1&#45;&gt;Node13 -->
<g id="edge15" class="edge"><title>Node1&#45;&gt;Node13</title>
<path fill="none" stroke="midnightblue" d="M74.3173,-244.393C91.0927,-225.359 123.717,-191.842 159,-174.5 213.812,-147.56 282.443,-135.431 333.112,-129.971"/>
<polygon fill="midnightblue" stroke="midnightblue" points="333.723,-133.427 343.318,-128.935 333.016,-126.463 333.723,-133.427"/>
</g>
<!-- Node14 -->
<g id="node14" class="node"><title>Node14</title>
<g id="a_node14"><a xlink:href="classprior__hessian_1_1NormalDist.html#ab9b17827daed20f82cb7bc0e40fe62e4" target="_top" xlink:title="prior_hessian::NormalDist\l::icdf">
<polygon fill="white" stroke="black" points="167.5,-453.5 167.5,-481.5 290.5,-481.5 290.5,-453.5 167.5,-453.5"/>
<text text-anchor="start" x="175.5" y="-470.3" font-family="Helvetica,sans-Serif" font-size="9.00">prior_hessian::NormalDist</text>
<text text-anchor="middle" x="229" y="-460.3" font-family="Helvetica,sans-Serif" font-size="9.00">::icdf</text>
</a>
</g>
</g>
<!-- Node1&#45;&gt;Node14 -->
<g id="edge17" class="edge"><title>Node1&#45;&gt;Node14</title>
<path fill="none" stroke="midnightblue" d="M65.9717,-272.571C75.1386,-306.835 103.209,-395.316 159,-443.5 160.974,-445.205 163.076,-446.79 165.272,-448.265"/>
<polygon fill="midnightblue" stroke="midnightblue" points="163.739,-451.422 174.144,-453.421 167.257,-445.37 163.739,-451.422"/>
</g>
<!-- Node15 -->
<g id="node15" class="node"><title>Node15</title>
<g id="a_node15"><a xlink:href="classprior__hessian_1_1NormalDist.html#a7776d18fd17739446c2848a9452b81f7" target="_top" xlink:title="prior_hessian::NormalDist::llh">
<polygon fill="white" stroke="black" points="160.5,-228.5 160.5,-246.5 297.5,-246.5 297.5,-228.5 160.5,-228.5"/>
<text text-anchor="middle" x="229" y="-235.3" font-family="Helvetica,sans-Serif" font-size="9.00">prior_hessian::NormalDist::llh</text>
</a>
</g>
</g>
<!-- Node1&#45;&gt;Node15 -->
<g id="edge20" class="edge"><title>Node1&#45;&gt;Node15</title>
<path fill="none" stroke="midnightblue" d="M123.186,-250.8C131.967,-249.685 141.105,-248.526 150.164,-247.376"/>
<polygon fill="midnightblue" stroke="midnightblue" points="150.856,-250.817 160.336,-246.086 149.975,-243.872 150.856,-250.817"/>
</g>
<!-- Node16 -->
<g id="node16" class="node"><title>Node16</title>
<g id="a_node16"><a xlink:href="classprior__hessian_1_1NormalDist.html#ab03d24df91ee8865e77ee8322151099f" target="_top" xlink:title="prior_hessian::NormalDist\l::rllh">
<polygon fill="white" stroke="black" points="343.5,-205.5 343.5,-233.5 466.5,-233.5 466.5,-205.5 343.5,-205.5"/>
<text text-anchor="start" x="351.5" y="-222.3" font-family="Helvetica,sans-Serif" font-size="9.00">prior_hessian::NormalDist</text>
<text text-anchor="middle" x="405" y="-212.3" font-family="Helvetica,sans-Serif" font-size="9.00">::rllh</text>
</a>
</g>
</g>
<!-- Node1&#45;&gt;Node16 -->
<g id="edge33" class="edge"><title>Node1&#45;&gt;Node16</title>
<path fill="none" stroke="midnightblue" d="M88.6462,-244.357C107.573,-234.955 134.098,-223.456 159,-218.5 216.836,-206.988 283.883,-208.238 333.203,-211.804"/>
<polygon fill="midnightblue" stroke="midnightblue" points="333.208,-215.315 343.448,-212.596 333.748,-208.336 333.208,-215.315"/>
</g>
<!-- Node17 -->
<g id="node17" class="node"><title>Node17</title>
<g id="a_node17"><a xlink:href="classprior__hessian_1_1NormalDist.html#aaea8964b1f62318c047e3c75ac104436" target="_top" xlink:title="prior_hessian::NormalDist\l::params">
<polygon fill="white" stroke="black" points="167.5,-312.5 167.5,-340.5 290.5,-340.5 290.5,-312.5 167.5,-312.5"/>
<text text-anchor="start" x="175.5" y="-329.3" font-family="Helvetica,sans-Serif" font-size="9.00">prior_hessian::NormalDist</text>
<text text-anchor="middle" x="229" y="-319.3" font-family="Helvetica,sans-Serif" font-size="9.00">::params</text>
</a>
</g>
</g>
<!-- Node1&#45;&gt;Node17 -->
<g id="edge25" class="edge"><title>Node1&#45;&gt;Node17</title>
<path fill="none" stroke="midnightblue" d="M91.7563,-272.699C110.732,-281.694 136.099,-293.319 159,-302.5 164.43,-304.677 170.143,-306.848 175.861,-308.946"/>
<polygon fill="midnightblue" stroke="midnightblue" points="174.846,-312.3 185.44,-312.394 177.217,-305.714 174.846,-312.3"/>
</g>
<!-- Node19 -->
<g id="node19" class="node"><title>Node19</title>
<g id="a_node19"><a xlink:href="classprior__hessian_1_1NormalDist.html#aaa9f65a188d99f432558ae6545e9c060" target="_top" xlink:title="prior_hessian::NormalDist::pdf">
<polygon fill="white" stroke="black" points="335,-74.5 335,-92.5 475,-92.5 475,-74.5 335,-74.5"/>
<text text-anchor="middle" x="405" y="-81.3" font-family="Helvetica,sans-Serif" font-size="9.00">prior_hessian::NormalDist::pdf</text>
</a>
</g>
</g>
<!-- Node1&#45;&gt;Node19 -->
<g id="edge31" class="edge"><title>Node1&#45;&gt;Node19</title>
<path fill="none" stroke="midnightblue" d="M68.9151,-244.347C81.8266,-217.595 113.641,-159.764 159,-131.5 208.558,-100.619 273.805,-88.9476 324.505,-84.8193"/>
<polygon fill="midnightblue" stroke="midnightblue" points="325.048,-88.289 334.767,-84.0696 324.538,-81.3076 325.048,-88.289"/>
</g>
<!-- Node20 -->
<g id="node20" class="node"><title>Node20</title>
<g id="a_node20"><a xlink:href="classprior__hessian_1_1NormalDist.html#a1f75e2644054b23d804b7be394ed5a2b" target="_top" xlink:title="prior_hessian::NormalDist\l::sample">
<polygon fill="white" stroke="black" points="167.5,-406.5 167.5,-434.5 290.5,-434.5 290.5,-406.5 167.5,-406.5"/>
<text text-anchor="start" x="175.5" y="-423.3" font-family="Helvetica,sans-Serif" font-size="9.00">prior_hessian::NormalDist</text>
<text text-anchor="middle" x="229" y="-413.3" font-family="Helvetica,sans-Serif" font-size="9.00">::sample</text>
</a>
</g>
</g>
<!-- Node1&#45;&gt;Node20 -->
<g id="edge34" class="edge"><title>Node1&#45;&gt;Node20</title>
<path fill="none" stroke="midnightblue" d="M68.7798,-272.841C81.6732,-300.675 113.769,-362.283 159,-396.5 161.499,-398.39 164.158,-400.139 166.923,-401.756"/>
<polygon fill="midnightblue" stroke="midnightblue" points="165.559,-404.992 176.048,-406.485 168.78,-398.777 165.559,-404.992"/>
</g>
<!-- Node21 -->
<g id="node21" class="node"><title>Node21</title>
<g id="a_node21"><a xlink:href="classprior__hessian_1_1NormalDist.html#a78eea7f027f4dc2024adc00f7cb8cce1" target="_top" xlink:title="prior_hessian::NormalDist\l::set_params_iter">
<polygon fill="white" stroke="black" points="167.5,-265.5 167.5,-293.5 290.5,-293.5 290.5,-265.5 167.5,-265.5"/>
<text text-anchor="start" x="175.5" y="-282.3" font-family="Helvetica,sans-Serif" font-size="9.00">prior_hessian::NormalDist</text>
<text text-anchor="middle" x="229" y="-272.3" font-family="Helvetica,sans-Serif" font-size="9.00">::set_params_iter</text>
</a>
</g>
</g>
<!-- Node1&#45;&gt;Node21 -->
<g id="edge37" class="edge"><title>Node1&#45;&gt;Node21</title>
<path fill="none" stroke="midnightblue" d="M123.186,-266.2C134.205,-267.598 145.786,-269.068 157.069,-270.5"/>
<polygon fill="midnightblue" stroke="midnightblue" points="156.96,-274.014 167.321,-271.801 157.841,-267.07 156.96,-274.014"/>
</g>
<!-- Node2&#45;&gt;Node3 -->
<g id="edge2" class="edge"><title>Node2&#45;&gt;Node3</title>
<path fill="none" stroke="midnightblue" d="M282.206,-387.602C307.257,-394.368 336.915,-402.379 360.693,-408.802"/>
<polygon fill="midnightblue" stroke="midnightblue" points="359.926,-412.22 370.493,-411.449 361.752,-405.463 359.926,-412.22"/>
</g>
<!-- Node4 -->
<g id="node4" class="node"><title>Node4</title>
<g id="a_node4"><a xlink:href="classprior__hessian_1_1NormalDist.html#adfc5ab11dc02672d9ef08eda487f97a7" target="_top" xlink:title="prior_hessian::NormalDist\l::sigma">
<polygon fill="white" stroke="black" points="343.5,-359.5 343.5,-387.5 466.5,-387.5 466.5,-359.5 343.5,-359.5"/>
<text text-anchor="start" x="351.5" y="-376.3" font-family="Helvetica,sans-Serif" font-size="9.00">prior_hessian::NormalDist</text>
<text text-anchor="middle" x="405" y="-366.3" font-family="Helvetica,sans-Serif" font-size="9.00">::sigma</text>
</a>
</g>
</g>
<!-- Node2&#45;&gt;Node4 -->
<g id="edge3" class="edge"><title>Node2&#45;&gt;Node4</title>
<path fill="none" stroke="midnightblue" d="M290.857,-373.5C304.578,-373.5 319.257,-373.5 333.342,-373.5"/>
<polygon fill="midnightblue" stroke="midnightblue" points="333.471,-377 343.471,-373.5 333.471,-370 333.471,-377"/>
</g>
<!-- Node5 -->
<g id="node5" class="node"><title>Node5</title>
<g id="a_node5"><a xlink:href="classprior__hessian_1_1NormalDist.html#a078a35e8ded3164ca701e1a1b6918f39" target="_top" xlink:title="prior_hessian::NormalDist\l::set_mu">
<polygon fill="white" stroke="black" points="511,-312.5 511,-340.5 634,-340.5 634,-312.5 511,-312.5"/>
<text text-anchor="start" x="519" y="-329.3" font-family="Helvetica,sans-Serif" font-size="9.00">prior_hessian::NormalDist</text>
<text text-anchor="middle" x="572.5" y="-319.3" font-family="Helvetica,sans-Serif" font-size="9.00">::set_mu</text>
</a>
</g>
</g>
<!-- Node4&#45;&gt;Node5 -->
<g id="edge4" class="edge"><title>Node4&#45;&gt;Node5</title>
<path fill="none" stroke="midnightblue" d="M455.655,-359.398C473.492,-354.333 493.784,-348.57 512.348,-343.298"/>
<polygon fill="midnightblue" stroke="midnightblue" points="513.502,-346.609 522.165,-340.511 511.589,-339.876 513.502,-346.609"/>
</g>
<!-- Node6 -->
<g id="node6" class="node"><title>Node6</title>
<g id="a_node6"><a xlink:href="classprior__hessian_1_1NormalDist.html#aa72eaaeda9a2fe0475ee78f08359d096" target="_top" xlink:title="prior_hessian::NormalDist\l::set_sigma">
<polygon fill="white" stroke="black" points="511,-359.5 511,-387.5 634,-387.5 634,-359.5 511,-359.5"/>
<text text-anchor="start" x="519" y="-376.3" font-family="Helvetica,sans-Serif" font-size="9.00">prior_hessian::NormalDist</text>
<text text-anchor="middle" x="572.5" y="-366.3" font-family="Helvetica,sans-Serif" font-size="9.00">::set_sigma</text>
</a>
</g>
</g>
<!-- Node4&#45;&gt;Node6 -->
<g id="edge5" class="edge"><title>Node4&#45;&gt;Node6</title>
<path fill="none" stroke="midnightblue" d="M466.686,-373.5C477.705,-373.5 489.286,-373.5 500.569,-373.5"/>
<polygon fill="midnightblue" stroke="midnightblue" points="500.821,-377 510.821,-373.5 500.821,-370 500.821,-377"/>
</g>
<!-- Node8&#45;&gt;Node3 -->
<g id="edge9" class="edge"><title>Node8&#45;&gt;Node3</title>
<path fill="none" stroke="midnightblue" d="M277.824,-500.456C285.051,-497.793 292.318,-494.795 299,-491.5 330.805,-475.815 364.176,-451.742 384.538,-436.057"/>
<polygon fill="midnightblue" stroke="midnightblue" points="386.95,-438.614 392.676,-429.7 382.641,-433.098 386.95,-438.614"/>
</g>
<!-- Node8&#45;&gt;Node4 -->
<g id="edge10" class="edge"><title>Node8&#45;&gt;Node4</title>
<path fill="none" stroke="midnightblue" d="M286.624,-500.41C291.114,-497.909 295.325,-494.965 299,-491.5 330.345,-461.945 304.613,-432.039 335,-401.5 338.268,-398.215 341.974,-395.301 345.931,-392.719"/>
<polygon fill="midnightblue" stroke="midnightblue" points="347.977,-395.581 354.921,-387.58 344.503,-389.504 347.977,-395.581"/>
</g>
<!-- Node9 -->
<g id="node9" class="node"><title>Node9</title>
<g id="a_node9"><a xlink:href="classprior__hessian_1_1NormalDist.html#ab774425212fe4eaeacf31930d65596f6" target="_top" xlink:title="prior_hessian::NormalDist\l::check_params">
<polygon fill="white" stroke="black" points="343.5,-500.5 343.5,-528.5 466.5,-528.5 466.5,-500.5 343.5,-500.5"/>
<text text-anchor="start" x="351.5" y="-517.3" font-family="Helvetica,sans-Serif" font-size="9.00">prior_hessian::NormalDist</text>
<text text-anchor="middle" x="405" y="-507.3" font-family="Helvetica,sans-Serif" font-size="9.00">::check_params</text>
</a>
</g>
</g>
<!-- Node8&#45;&gt;Node9 -->
<g id="edge8" class="edge"><title>Node8&#45;&gt;Node9</title>
<path fill="none" stroke="midnightblue" d="M290.857,-514.5C304.578,-514.5 319.257,-514.5 333.342,-514.5"/>
<polygon fill="midnightblue" stroke="midnightblue" points="333.471,-518 343.471,-514.5 333.471,-511 333.471,-518"/>
</g>
<!-- Node11 -->
<g id="node11" class="node"><title>Node11</title>
<g id="a_node11"><a xlink:href="namespaceprior__hessian.html#a706cb136b90f16dd920118eb59ef1ad6" target="_top" xlink:title="prior_hessian::square">
<polygon fill="white" stroke="black" points="519.5,-116.5 519.5,-134.5 625.5,-134.5 625.5,-116.5 519.5,-116.5"/>
<text text-anchor="middle" x="572.5" y="-123.3" font-family="Helvetica,sans-Serif" font-size="9.00">prior_hessian::square</text>
</a>
</g>
</g>
<!-- Node10&#45;&gt;Node11 -->
<g id="edge12" class="edge"><title>Node10&#45;&gt;Node11</title>
<path fill="none" stroke="midnightblue" d="M453.367,-55.5942C460.727,-58.2665 468.154,-61.2543 475,-64.5 502.674,-77.6209 532.1,-97.1277 551.079,-110.53"/>
<polygon fill="midnightblue" stroke="midnightblue" points="549.093,-113.413 559.262,-116.389 553.168,-107.722 549.093,-113.413"/>
</g>
<!-- Node12&#45;&gt;Node11 -->
<g id="edge14" class="edge"><title>Node12&#45;&gt;Node11</title>
<path fill="none" stroke="midnightblue" d="M455.655,-158.398C479.376,-151.662 507.441,-143.692 530.005,-137.284"/>
<polygon fill="midnightblue" stroke="midnightblue" points="530.966,-140.65 539.63,-134.551 529.054,-133.916 530.966,-140.65"/>
</g>
<!-- Node13&#45;&gt;Node11 -->
<g id="edge16" class="edge"><title>Node13&#45;&gt;Node11</title>
<path fill="none" stroke="midnightblue" d="M466.686,-125.5C480.433,-125.5 495.057,-125.5 508.882,-125.5"/>
<polygon fill="midnightblue" stroke="midnightblue" points="509.271,-129 519.271,-125.5 509.271,-122 509.271,-129"/>
</g>
<!-- Node14&#45;&gt;Node3 -->
<g id="edge18" class="edge"><title>Node14&#45;&gt;Node3</title>
<path fill="none" stroke="midnightblue" d="M282.206,-453.398C307.257,-446.632 336.915,-438.621 360.693,-432.198"/>
<polygon fill="midnightblue" stroke="midnightblue" points="361.752,-435.537 370.493,-429.551 359.926,-428.78 361.752,-435.537"/>
</g>
<!-- Node14&#45;&gt;Node4 -->
<g id="edge19" class="edge"><title>Node14&#45;&gt;Node4</title>
<path fill="none" stroke="midnightblue" d="M280.515,-453.46C287,-450.657 293.341,-447.358 299,-443.5 319.313,-429.649 315.045,-415.862 335,-401.5 340.027,-397.882 345.588,-394.638 351.309,-391.754"/>
<polygon fill="midnightblue" stroke="midnightblue" points="352.797,-394.922 360.375,-387.517 349.833,-388.58 352.797,-394.922"/>
</g>
<!-- Node15&#45;&gt;Node4 -->
<g id="edge23" class="edge"><title>Node15&#45;&gt;Node4</title>
<path fill="none" stroke="midnightblue" d="M285.235,-246.613C290.239,-248.951 294.941,-251.867 299,-255.5 332.333,-285.337 302.88,-318.361 335,-349.5 336.628,-351.078 338.365,-352.553 340.187,-353.931"/>
<polygon fill="midnightblue" stroke="midnightblue" points="338.353,-356.912 348.658,-359.375 342.138,-351.024 338.353,-356.912"/>
</g>
<!-- Node15&#45;&gt;Node16 -->
<g id="edge21" class="edge"><title>Node15&#45;&gt;Node16</title>
<path fill="none" stroke="midnightblue" d="M297.771,-230.489C309.432,-229.283 321.578,-228.026 333.314,-226.812"/>
<polygon fill="midnightblue" stroke="midnightblue" points="333.911,-230.269 343.498,-225.759 333.191,-223.306 333.911,-230.269"/>
</g>
<!-- Node16&#45;&gt;Node11 -->
<g id="edge22" class="edge"><title>Node16&#45;&gt;Node11</title>
<path fill="none" stroke="midnightblue" d="M452.443,-205.451C460.141,-202.529 467.917,-199.198 475,-195.5 504.434,-180.133 534.875,-156.536 553.501,-141.058"/>
<polygon fill="midnightblue" stroke="midnightblue" points="555.796,-143.701 561.182,-134.577 551.282,-138.352 555.796,-143.701"/>
</g>
<!-- Node17&#45;&gt;Node3 -->
<g id="edge26" class="edge"><title>Node17&#45;&gt;Node3</title>
<path fill="none" stroke="midnightblue" d="M283.215,-340.569C288.784,-343.099 294.168,-346.054 299,-349.5 320.423,-364.777 313.676,-381.084 335,-396.5 341.148,-400.944 348.189,-404.622 355.372,-407.649"/>
<polygon fill="midnightblue" stroke="midnightblue" points="354.591,-411.097 365.182,-411.384 357.082,-404.555 354.591,-411.097"/>
</g>
<!-- Node17&#45;&gt;Node4 -->
<g id="edge27" class="edge"><title>Node17&#45;&gt;Node4</title>
<path fill="none" stroke="midnightblue" d="M282.206,-340.602C301.131,-345.714 322.686,-351.536 342.349,-356.847"/>
<polygon fill="midnightblue" stroke="midnightblue" points="341.564,-360.261 352.131,-359.489 343.39,-353.503 341.564,-360.261"/>
</g>
<!-- Node18 -->
<g id="node18" class="node"><title>Node18</title>
<g id="a_node18"><a xlink:href="classprior__hessian_1_1NormalDist.html#a352979a2485cd990786ae53db6d64123" target="_top" xlink:title="prior_hessian::NormalDist\l::set_params">
<polygon fill="white" stroke="black" points="343.5,-312.5 343.5,-340.5 466.5,-340.5 466.5,-312.5 343.5,-312.5"/>
<text text-anchor="start" x="351.5" y="-329.3" font-family="Helvetica,sans-Serif" font-size="9.00">prior_hessian::NormalDist</text>
<text text-anchor="middle" x="405" y="-319.3" font-family="Helvetica,sans-Serif" font-size="9.00">::set_params</text>
</a>
</g>
</g>
<!-- Node17&#45;&gt;Node18 -->
<g id="edge28" class="edge"><title>Node17&#45;&gt;Node18</title>
<path fill="none" stroke="midnightblue" d="M290.857,-326.5C304.578,-326.5 319.257,-326.5 333.342,-326.5"/>
<polygon fill="midnightblue" stroke="midnightblue" points="333.471,-330 343.471,-326.5 333.471,-323 333.471,-330"/>
</g>
<!-- Node18&#45;&gt;Node5 -->
<g id="edge29" class="edge"><title>Node18&#45;&gt;Node5</title>
<path fill="none" stroke="midnightblue" d="M466.686,-326.5C477.705,-326.5 489.286,-326.5 500.569,-326.5"/>
<polygon fill="midnightblue" stroke="midnightblue" points="500.821,-330 510.821,-326.5 500.821,-323 500.821,-330"/>
</g>
<!-- Node18&#45;&gt;Node6 -->
<g id="edge30" class="edge"><title>Node18&#45;&gt;Node6</title>
<path fill="none" stroke="midnightblue" d="M455.655,-340.602C473.492,-345.667 493.784,-351.43 512.348,-356.702"/>
<polygon fill="midnightblue" stroke="midnightblue" points="511.589,-360.124 522.165,-359.489 513.502,-353.391 511.589,-360.124"/>
</g>
<!-- Node19&#45;&gt;Node11 -->
<g id="edge32" class="edge"><title>Node19&#45;&gt;Node11</title>
<path fill="none" stroke="midnightblue" d="M441.504,-92.5101C466.18,-98.7723 499.286,-107.174 525.913,-113.931"/>
<polygon fill="midnightblue" stroke="midnightblue" points="525.216,-117.365 535.77,-116.432 526.938,-110.58 525.216,-117.365"/>
</g>
<!-- Node20&#45;&gt;Node3 -->
<g id="edge35" class="edge"><title>Node20&#45;&gt;Node3</title>
<path fill="none" stroke="midnightblue" d="M290.857,-420.5C301.736,-420.5 313.217,-420.5 324.527,-420.5"/>
<polygon fill="midnightblue" stroke="midnightblue" points="324.844,-424 334.844,-420.5 324.844,-417 324.844,-424"/>
</g>
<!-- Node20&#45;&gt;Node4 -->
<g id="edge36" class="edge"><title>Node20&#45;&gt;Node4</title>
<path fill="none" stroke="midnightblue" d="M282.206,-406.398C301.131,-401.286 322.686,-395.464 342.349,-390.153"/>
<polygon fill="midnightblue" stroke="midnightblue" points="343.39,-393.497 352.131,-387.511 341.564,-386.739 343.39,-393.497"/>
</g>
<!-- Node21&#45;&gt;Node3 -->
<g id="edge38" class="edge"><title>Node21&#45;&gt;Node3</title>
<path fill="none" stroke="midnightblue" d="M286.679,-293.533C291.157,-296.046 295.351,-299.008 299,-302.5 331.322,-333.43 302.88,-365.361 335,-396.5 339.375,-400.742 344.539,-404.237 350.04,-407.116"/>
<polygon fill="midnightblue" stroke="midnightblue" points="348.985,-410.479 359.539,-411.402 351.864,-404.099 348.985,-410.479"/>
</g>
<!-- Node21&#45;&gt;Node4 -->
<g id="edge39" class="edge"><title>Node21&#45;&gt;Node4</title>
<path fill="none" stroke="midnightblue" d="M283.215,-293.569C288.784,-296.099 294.168,-299.054 299,-302.5 320.423,-317.777 313.676,-334.084 335,-349.5 337.672,-351.432 340.514,-353.219 343.462,-354.871"/>
<polygon fill="midnightblue" stroke="midnightblue" points="342.057,-358.082 352.566,-359.429 345.192,-351.822 342.057,-358.082"/>
</g>
<!-- Node21&#45;&gt;Node18 -->
<g id="edge40" class="edge"><title>Node21&#45;&gt;Node18</title>
<path fill="none" stroke="midnightblue" d="M282.206,-293.602C301.131,-298.714 322.686,-304.536 342.349,-309.847"/>
<polygon fill="midnightblue" stroke="midnightblue" points="341.564,-313.261 352.131,-312.489 343.39,-306.503 341.564,-313.261"/>
</g>
</g>
</svg>
