<?xml version="1.0" encoding="UTF-8" standalone="no"?>
<!DOCTYPE svg PUBLIC "-//W3C//DTD SVG 1.1//EN"
 "http://www.w3.org/Graphics/SVG/1.1/DTD/svg11.dtd">
<!-- Generated by graphviz version 2.38.0 (20140413.2041)
 -->
<!-- Title: prior_hessian::AMHCopula::theta Pages: 1 -->
<!--zoomable 491 -->
<svg id="main" version="1.1" xmlns="http://www.w3.org/2000/svg" xmlns:xlink="http://www.w3.org/1999/xlink" xml:space="preserve" onload="init(evt)">
<style type="text/css"><![CDATA[
.edge:hover path { stroke: red; }
.edge:hover polygon { stroke: red; fill: red; }
]]></style>
<script type="text/javascript"><![CDATA[
var edges = document.getElementsByTagName('g');
if (edges && edges.length) {
  for (var i=0;i<edges.length;i++) {
    if (edges[i].id.substr(0,4)=='edge') {
      edges[i].setAttribute('class','edge');
    }
  }
}
]]></script>
        <defs>
                <circle id="rim" cx="0" cy="0" r="7"/>
                <circle id="rim2" cx="0" cy="0" r="3.5"/>
                <g id="zoomPlus">
                        <use xlink:href="#rim" fill="#404040">
                                <set attributeName="fill" to="#808080" begin="zoomplus.mouseover" end="zoomplus.mouseout"/>
                        </use>
                        <path d="M-4,0h8M0,-4v8" fill="none" stroke="white" stroke-width="1.5" pointer-events="none"/>
                </g>
                <g id="zoomMin">
                        <use xlink:href="#rim" fill="#404040">
                                <set attributeName="fill" to="#808080" begin="zoomminus.mouseover" end="zoomminus.mouseout"/>
                        </use>
                        <path d="M-4,0h8" fill="none" stroke="white" stroke-width="1.5" pointer-events="none"/>
                </g>
                <g id="dirArrow">
                        <path fill="none" stroke="white" stroke-width="1.5" d="M0,-3.0v7 M-2.5,-0.5L0,-3.0L2.5,-0.5"/>
                </g>
               <g id="resetDef">
                       <use xlink:href="#rim2" fill="#404040">
                               <set attributeName="fill" to="#808080" begin="reset.mouseover" end="reset.mouseout"/>
                       </use>
               </g>
        </defs>

<script type="text/javascript">
var viewWidth = 809;
var viewHeight = 491;
var sectionId = 'dynsection-45';
</script>
<script xlink:href="svgpan.js"/>
<svg id="graph" class="graph">
<g id="viewport">
<title>prior_hessian::AMHCopula::theta</title>
<polygon fill="white" stroke="none" points="-4,4 -4,-487.001 805,-487.001 805,4 -4,4"/>
<!-- Node1 -->
<g id="node1" class="node"><title>Node1</title>
<polygon fill="#bfbfbf" stroke="black" points="0,-240.501 0,-268.501 128,-268.501 128,-240.501 0,-240.501"/>
<text text-anchor="start" x="8" y="-257.301" font-family="Helvetica,sans-Serif" font-size="9.00">prior_hessian::AMHCopula</text>
<text text-anchor="middle" x="64" y="-247.301" font-family="Helvetica,sans-Serif" font-size="9.00">::theta</text>
</g>
<!-- Node2 -->
<g id="node2" class="node"><title>Node2</title>
<g id="a_node2"><a xlink:href="classprior__hessian_1_1AMHCopula.html#aea48377467c59f5f882e88f6611a8b56" target="_top" xlink:title="prior_hessian::AMHCopula\l::AMHCopula">
<polygon fill="white" stroke="black" points="164,-454.501 164,-482.501 292,-482.501 292,-454.501 164,-454.501"/>
<text text-anchor="start" x="172" y="-471.301" font-family="Helvetica,sans-Serif" font-size="9.00">prior_hessian::AMHCopula</text>
<text text-anchor="middle" x="228" y="-461.301" font-family="Helvetica,sans-Serif" font-size="9.00">::AMHCopula</text>
</a>
</g>
</g>
<!-- Node1&#45;&gt;Node2 -->
<g id="edge1" class="edge"><title>Node1&#45;&gt;Node2</title>
<path fill="none" stroke="midnightblue" d="M71.2192,-278.425C82.8212,-318.494 111.478,-399.312 164,-445.501 167.935,-448.961 172.433,-451.915 177.174,-454.435"/>
<polygon fill="midnightblue" stroke="midnightblue" points="74.5688,-277.406 68.5126,-268.713 67.8258,-279.285 74.5688,-277.406"/>
</g>
<!-- Node3 -->
<g id="node3" class="node"><title>Node3</title>
<g id="a_node3"><a xlink:href="classprior__hessian_1_1AMHCopula.html#a244661696f89f48e7466f095c1d3c536" target="_top" xlink:title="prior_hessian::AMHCopula\l::append_params">
<polygon fill="white" stroke="black" points="164,-407.501 164,-435.501 292,-435.501 292,-407.501 164,-407.501"/>
<text text-anchor="start" x="172" y="-424.301" font-family="Helvetica,sans-Serif" font-size="9.00">prior_hessian::AMHCopula</text>
<text text-anchor="middle" x="228" y="-414.301" font-family="Helvetica,sans-Serif" font-size="9.00">::append_params</text>
</a>
</g>
</g>
<!-- Node1&#45;&gt;Node3 -->
<g id="edge2" class="edge"><title>Node1&#45;&gt;Node3</title>
<path fill="none" stroke="midnightblue" d="M76.7429,-277.776C92.8593,-307.737 124.395,-359.816 164,-392.501 171.151,-398.402 179.699,-403.377 188.158,-407.449"/>
<polygon fill="midnightblue" stroke="midnightblue" points="79.8153,-276.099 72.0615,-268.879 73.6204,-279.358 79.8153,-276.099"/>
</g>
<!-- Node4 -->
<g id="node4" class="node"><title>Node4</title>
<g id="a_node4"><a xlink:href="classprior__hessian_1_1AMHCopula.html#aa18585757cb2d4b0723ed80258281278" target="_top" xlink:title="prior_hessian::AMHCopula::cdf">
<polygon fill="white" stroke="black" points="492.5,-358.501 492.5,-376.501 636.5,-376.501 636.5,-358.501 492.5,-358.501"/>
<text text-anchor="middle" x="564.5" y="-365.301" font-family="Helvetica,sans-Serif" font-size="9.00">prior_hessian::AMHCopula::cdf</text>
</a>
</g>
</g>
<!-- Node1&#45;&gt;Node4 -->
<g id="edge3" class="edge"><title>Node1&#45;&gt;Node4</title>
<path fill="none" stroke="midnightblue" d="M82.4257,-276.543C100.377,-297.418 130.412,-327.577 164,-341.501 271.706,-386.149 409.797,-383.448 492.205,-376.279"/>
<polygon fill="midnightblue" stroke="midnightblue" points="85.0352,-274.208 75.9357,-268.781 79.665,-278.698 85.0352,-274.208"/>
</g>
<!-- Node6 -->
<g id="node6" class="node"><title>Node6</title>
<g id="a_node6"><a xlink:href="classprior__hessian_1_1AMHCopula.html#a19aecc89d6a1d6c46aa595a13999cfb2" target="_top" xlink:title="prior_hessian::AMHCopula\l::d1_igen">
<polygon fill="white" stroke="black" points="328,-222.501 328,-250.501 456,-250.501 456,-222.501 328,-222.501"/>
<text text-anchor="start" x="336" y="-239.301" font-family="Helvetica,sans-Serif" font-size="9.00">prior_hessian::AMHCopula</text>
<text text-anchor="middle" x="392" y="-229.301" font-family="Helvetica,sans-Serif" font-size="9.00">::d1_igen</text>
</a>
</g>
</g>
<!-- Node1&#45;&gt;Node6 -->
<g id="edge5" class="edge"><title>Node1&#45;&gt;Node6</title>
<path fill="none" stroke="midnightblue" d="M138.278,-250.455C195.322,-247.305 273.662,-242.979 327.933,-239.983"/>
<polygon fill="midnightblue" stroke="midnightblue" points="138.034,-246.963 128.243,-251.009 138.42,-253.952 138.034,-246.963"/>
</g>
<!-- Node8 -->
<g id="node8" class="node"><title>Node8</title>
<g id="a_node8"><a xlink:href="classprior__hessian_1_1AMHCopula.html#a7c3f0e7eb7f4c8eecd37563c35e1f819" target="_top" xlink:title="prior_hessian::AMHCopula\l::grad">
<polygon fill="white" stroke="black" points="328,-308.501 328,-336.501 456,-336.501 456,-308.501 328,-308.501"/>
<text text-anchor="start" x="336" y="-325.301" font-family="Helvetica,sans-Serif" font-size="9.00">prior_hessian::AMHCopula</text>
<text text-anchor="middle" x="392" y="-315.301" font-family="Helvetica,sans-Serif" font-size="9.00">::grad</text>
</a>
</g>
</g>
<!-- Node1&#45;&gt;Node8 -->
<g id="edge9" class="edge"><title>Node1&#45;&gt;Node8</title>
<path fill="none" stroke="midnightblue" d="M87.291,-275.343C106.117,-291.432 134.637,-312.428 164,-321.501 217.468,-338.022 281.463,-336.522 327.856,-331.911"/>
<polygon fill="midnightblue" stroke="midnightblue" points="89.4191,-272.554 79.5986,-268.578 84.7961,-277.81 89.4191,-272.554"/>
</g>
<!-- Node9 -->
<g id="node9" class="node"><title>Node9</title>
<g id="a_node9"><a xlink:href="classprior__hessian_1_1AMHCopula.html#af87cadcd28d6af3fa8249932f7d01ec7" target="_top" xlink:title="prior_hessian::AMHCopula\l::grad2">
<polygon fill="white" stroke="black" points="164,-283.501 164,-311.501 292,-311.501 292,-283.501 164,-283.501"/>
<text text-anchor="start" x="172" y="-300.301" font-family="Helvetica,sans-Serif" font-size="9.00">prior_hessian::AMHCopula</text>
<text text-anchor="middle" x="228" y="-290.301" font-family="Helvetica,sans-Serif" font-size="9.00">::grad2</text>
</a>
</g>
</g>
<!-- Node1&#45;&gt;Node9 -->
<g id="edge11" class="edge"><title>Node1&#45;&gt;Node9</title>
<path fill="none" stroke="midnightblue" d="M127.924,-271.203C143.191,-275.255 159.362,-279.547 174.113,-283.463"/>
<polygon fill="midnightblue" stroke="midnightblue" points="128.608,-267.763 118.045,-268.58 126.812,-274.529 128.608,-267.763"/>
</g>
<!-- Node10 -->
<g id="node10" class="node"><title>Node10</title>
<g id="a_node10"><a xlink:href="classprior__hessian_1_1AMHCopula.html#a324c075c80fb95ed8b69bd601e6a4de6" target="_top" xlink:title="prior_hessian::AMHCopula\l::hess">
<polygon fill="white" stroke="black" points="328,-136.501 328,-164.501 456,-164.501 456,-136.501 328,-136.501"/>
<text text-anchor="start" x="336" y="-153.301" font-family="Helvetica,sans-Serif" font-size="9.00">prior_hessian::AMHCopula</text>
<text text-anchor="middle" x="392" y="-143.301" font-family="Helvetica,sans-Serif" font-size="9.00">::hess</text>
</a>
</g>
</g>
<!-- Node1&#45;&gt;Node10 -->
<g id="edge14" class="edge"><title>Node1&#45;&gt;Node10</title>
<path fill="none" stroke="midnightblue" d="M82.8933,-232.754C101.002,-212.47 130.979,-183.325 164,-169.501 216.166,-147.661 280.883,-144.292 327.852,-145.573"/>
<polygon fill="midnightblue" stroke="midnightblue" points="80.2474,-230.463 76.3298,-240.307 85.5311,-235.055 80.2474,-230.463"/>
</g>
<!-- Node11 -->
<g id="node11" class="node"><title>Node11</title>
<g id="a_node11"><a xlink:href="classprior__hessian_1_1AMHCopula.html#a38e091a72ecb8c9df42e88017b2d347e" target="_top" xlink:title="prior_hessian::AMHCopula\l::igen_sum">
<polygon fill="white" stroke="black" points="164,-179.501 164,-207.501 292,-207.501 292,-179.501 164,-179.501"/>
<text text-anchor="start" x="172" y="-196.301" font-family="Helvetica,sans-Serif" font-size="9.00">prior_hessian::AMHCopula</text>
<text text-anchor="middle" x="228" y="-186.301" font-family="Helvetica,sans-Serif" font-size="9.00">::igen_sum</text>
</a>
</g>
</g>
<!-- Node1&#45;&gt;Node11 -->
<g id="edge16" class="edge"><title>Node1&#45;&gt;Node11</title>
<path fill="none" stroke="midnightblue" d="M112.1,-236.765C136.773,-227.475 166.565,-216.257 189.631,-207.572"/>
<polygon fill="midnightblue" stroke="midnightblue" points="110.698,-233.553 102.573,-240.353 113.165,-240.104 110.698,-233.553"/>
</g>
<!-- Node12 -->
<g id="node12" class="node"><title>Node12</title>
<g id="a_node12"><a xlink:href="classprior__hessian_1_1AMHCopula.html#a52be601283a5a2dc619492d74fad860f" target="_top" xlink:title="prior_hessian::AMHCopula\l::operator!=">
<polygon fill="white" stroke="black" points="164,-93.5006 164,-121.501 292,-121.501 292,-93.5006 164,-93.5006"/>
<text text-anchor="start" x="172" y="-110.301" font-family="Helvetica,sans-Serif" font-size="9.00">prior_hessian::AMHCopula</text>
<text text-anchor="middle" x="228" y="-100.301" font-family="Helvetica,sans-Serif" font-size="9.00">::operator!=</text>
</a>
</g>
</g>
<!-- Node1&#45;&gt;Node12 -->
<g id="edge20" class="edge"><title>Node1&#45;&gt;Node12</title>
<path fill="none" stroke="midnightblue" d="M79.3406,-232C96.7506,-206.148 128.256,-163.79 164,-136.501 171.561,-130.728 180.454,-125.757 189.138,-121.642"/>
<polygon fill="midnightblue" stroke="midnightblue" points="76.3801,-230.132 73.7864,-240.404 82.22,-233.991 76.3801,-230.132"/>
</g>
<!-- Node13 -->
<g id="node13" class="node"><title>Node13</title>
<g id="a_node13"><a xlink:href="classprior__hessian_1_1AMHCopula.html#a29ff4d88263399c4ee76233644c0de9f" target="_top" xlink:title="prior_hessian::AMHCopula\l::operator==">
<polygon fill="white" stroke="black" points="164,-46.5006 164,-74.5006 292,-74.5006 292,-46.5006 164,-46.5006"/>
<text text-anchor="start" x="172" y="-63.3006" font-family="Helvetica,sans-Serif" font-size="9.00">prior_hessian::AMHCopula</text>
<text text-anchor="middle" x="228" y="-53.3006" font-family="Helvetica,sans-Serif" font-size="9.00">::operator==</text>
</a>
</g>
</g>
<!-- Node1&#45;&gt;Node13 -->
<g id="edge21" class="edge"><title>Node1&#45;&gt;Node13</title>
<path fill="none" stroke="midnightblue" d="M72.8398,-230.524C86.0016,-193.847 115.922,-123.834 164,-83.5006 168.103,-80.0583 172.766,-77.1104 177.655,-74.5904"/>
<polygon fill="midnightblue" stroke="midnightblue" points="69.4018,-229.755 69.4306,-240.35 76.0151,-232.049 69.4018,-229.755"/>
</g>
<!-- Node14 -->
<g id="node14" class="node"><title>Node14</title>
<g id="a_node14"><a xlink:href="classprior__hessian_1_1AMHCopula.html#a8129324c2c30bd4900396198b0c9b957" target="_top" xlink:title="prior_hessian::AMHCopula::pdf">
<polygon fill="white" stroke="black" points="492,-58.5006 492,-76.5006 637,-76.5006 637,-58.5006 492,-58.5006"/>
<text text-anchor="middle" x="564.5" y="-65.3006" font-family="Helvetica,sans-Serif" font-size="9.00">prior_hessian::AMHCopula::pdf</text>
</a>
</g>
</g>
<!-- Node1&#45;&gt;Node14 -->
<g id="edge22" class="edge"><title>Node1&#45;&gt;Node14</title>
<path fill="none" stroke="midnightblue" d="M67.6365,-230.319C74.216,-183.284 96.0627,-80.263 164,-36.5006 288.569,43.7412 482.412,-31.0049 544.016,-58.3789"/>
<polygon fill="midnightblue" stroke="midnightblue" points="64.1323,-230.129 66.3325,-240.493 71.0755,-231.019 64.1323,-230.129"/>
</g>
<!-- Node5 -->
<g id="node5" class="node"><title>Node5</title>
<g id="a_node5"><a xlink:href="classprior__hessian_1_1AMHCopula.html#a5f5ab047fa0c58b93e7b8e072bc9c682" target="_top" xlink:title="prior_hessian::AMHCopula\l::set_params_iter">
<polygon fill="white" stroke="black" points="673,-224.501 673,-252.501 801,-252.501 801,-224.501 673,-224.501"/>
<text text-anchor="start" x="681" y="-241.301" font-family="Helvetica,sans-Serif" font-size="9.00">prior_hessian::AMHCopula</text>
<text text-anchor="middle" x="737" y="-231.301" font-family="Helvetica,sans-Serif" font-size="9.00">::set_params_iter</text>
</a>
</g>
</g>
<!-- Node4&#45;&gt;Node5 -->
<g id="edge4" class="edge"><title>Node4&#45;&gt;Node5</title>
<path fill="none" stroke="midnightblue" d="M598.605,-354.429C611.126,-348.811 625.193,-341.654 637,-333.501 672.087,-309.273 706.509,-272.48 724.041,-252.539"/>
<polygon fill="midnightblue" stroke="midnightblue" points="597.182,-351.231 589.395,-358.416 599.963,-357.655 597.182,-351.231"/>
</g>
<!-- Node6&#45;&gt;Node5 -->
<g id="edge8" class="edge"><title>Node6&#45;&gt;Node5</title>
<path fill="none" stroke="midnightblue" d="M466.319,-236.928C527.703,-237.286 614.393,-237.792 672.768,-238.132"/>
<polygon fill="midnightblue" stroke="midnightblue" points="466.331,-233.428 456.311,-236.87 466.291,-240.428 466.331,-233.428"/>
</g>
<!-- Node7 -->
<g id="node7" class="node"><title>Node7</title>
<g id="a_node7"><a xlink:href="classprior__hessian_1_1AMHCopula.html#ad1ce11681554712db7a56bb4cb54c3e9" target="_top" xlink:title="prior_hessian::AMHCopula::llh">
<polygon fill="white" stroke="black" points="493.5,-191.501 493.5,-209.501 635.5,-209.501 635.5,-191.501 493.5,-191.501"/>
<text text-anchor="middle" x="564.5" y="-198.301" font-family="Helvetica,sans-Serif" font-size="9.00">prior_hessian::AMHCopula::llh</text>
</a>
</g>
</g>
<!-- Node6&#45;&gt;Node7 -->
<g id="edge6" class="edge"><title>Node6&#45;&gt;Node7</title>
<path fill="none" stroke="midnightblue" d="M465.965,-221.094C484.626,-217.154 504.088,-213.045 520.674,-209.543"/>
<polygon fill="midnightblue" stroke="midnightblue" points="465.065,-217.707 456.003,-223.198 466.511,-224.556 465.065,-217.707"/>
</g>
<!-- Node7&#45;&gt;Node5 -->
<g id="edge7" class="edge"><title>Node7&#45;&gt;Node5</title>
<path fill="none" stroke="midnightblue" d="M615.837,-211.719C633.717,-215.704 654.073,-220.241 672.885,-224.434"/>
<polygon fill="midnightblue" stroke="midnightblue" points="616.428,-208.265 605.906,-209.506 614.905,-215.098 616.428,-208.265"/>
</g>
<!-- Node8&#45;&gt;Node5 -->
<g id="edge10" class="edge"><title>Node8&#45;&gt;Node5</title>
<path fill="none" stroke="midnightblue" d="M466.353,-321.169C515.641,-318.497 581.484,-311.449 637,-293.501 666.372,-284.004 696.953,-265.47 716.212,-252.554"/>
<polygon fill="midnightblue" stroke="midnightblue" points="465.912,-317.686 456.096,-321.675 466.257,-324.677 465.912,-317.686"/>
</g>
<!-- Node9&#45;&gt;Node5 -->
<g id="edge13" class="edge"><title>Node9&#45;&gt;Node5</title>
<path fill="none" stroke="midnightblue" d="M302.479,-289.625C384.202,-280.771 520.119,-265.762 637,-251.501 648.615,-250.083 660.988,-248.51 672.911,-246.961"/>
<polygon fill="midnightblue" stroke="midnightblue" points="301.862,-286.172 292.296,-290.727 302.615,-293.131 301.862,-286.172"/>
</g>
<!-- Node9&#45;&gt;Node8 -->
<g id="edge12" class="edge"><title>Node9&#45;&gt;Node8</title>
<path fill="none" stroke="midnightblue" d="M302.094,-308.781C310.676,-310.105 319.378,-311.448 327.808,-312.749"/>
<polygon fill="midnightblue" stroke="midnightblue" points="302.514,-305.304 292.097,-307.238 301.446,-312.222 302.514,-305.304"/>
</g>
<!-- Node10&#45;&gt;Node5 -->
<g id="edge15" class="edge"><title>Node10&#45;&gt;Node5</title>
<path fill="none" stroke="midnightblue" d="M466.456,-152.297C515.789,-155.313 581.642,-162.886 637,-181.501 666.889,-191.551 697.841,-211.105 717.005,-224.481"/>
<polygon fill="midnightblue" stroke="midnightblue" points="466.37,-148.786 456.19,-151.72 465.977,-155.775 466.37,-148.786"/>
</g>
<!-- Node11&#45;&gt;Node6 -->
<g id="edge17" class="edge"><title>Node11&#45;&gt;Node6</title>
<path fill="none" stroke="midnightblue" d="M291.924,-210.203C307.191,-214.255 323.362,-218.547 338.113,-222.463"/>
<polygon fill="midnightblue" stroke="midnightblue" points="292.608,-206.763 282.045,-207.58 290.812,-213.529 292.608,-206.763"/>
</g>
<!-- Node11&#45;&gt;Node7 -->
<g id="edge19" class="edge"><title>Node11&#45;&gt;Node7</title>
<path fill="none" stroke="midnightblue" d="M302.649,-195.042C359.393,-196.229 437.34,-197.861 493.221,-199.03"/>
<polygon fill="midnightblue" stroke="midnightblue" points="302.381,-191.536 292.31,-194.826 302.235,-198.534 302.381,-191.536"/>
</g>
<!-- Node11&#45;&gt;Node11 -->
<g id="edge18" class="edge"><title>Node11&#45;&gt;Node11</title>
<path fill="none" stroke="midnightblue" d="M198.354,-217.488C201.502,-222.442 211.384,-226.001 228,-226.001 254.586,-226.001 263.933,-216.89 256.04,-207.531"/>
<polygon fill="midnightblue" stroke="midnightblue" points="201.823,-217.961 199.96,-207.531 194.912,-216.846 201.823,-217.961"/>
</g>
<!-- Node14&#45;&gt;Node5 -->
<g id="edge23" class="edge"><title>Node14&#45;&gt;Node5</title>
<path fill="none" stroke="midnightblue" d="M581.836,-83.8842C615.203,-117.349 690.67,-193.038 721.979,-224.439"/>
<polygon fill="midnightblue" stroke="midnightblue" points="584.206,-81.3045 574.667,-76.6943 579.249,-86.247 584.206,-81.3045"/>
</g>
</g>
</svg>
        <g id="navigator" transform="translate(0 0)" fill="#404254">
                <rect fill="#f2f5e9" fill-opacity="0.5" stroke="#606060" stroke-width=".5" x="0" y="0" width="60" height="60"/>
                <use id="zoomplus" xlink:href="#zoomPlus" x="17" y="9" onmousedown="handleZoom(evt,'in')"/>
                <use id="zoomminus" xlink:href="#zoomMin" x="42" y="9" onmousedown="handleZoom(evt,'out')"/>
                <use id="reset" xlink:href="#resetDef" x="30" y="36" onmousedown="handleReset()"/>
                <g id="arrowUp" xlink:href="#dirArrow" transform="translate(30 24)" onmousedown="handlePan(0,-1)">
                  <use xlink:href="#rim" fill="#404040">
                        <set attributeName="fill" to="#808080" begin="arrowUp.mouseover" end="arrowUp.mouseout"/>
                  </use>
                  <path fill="none" stroke="white" stroke-width="1.5" d="M0,-3.0v7 M-2.5,-0.5L0,-3.0L2.5,-0.5"/>
                </g>
                <g id="arrowRight" xlink:href="#dirArrow" transform="rotate(90) translate(36 -43)" onmousedown="handlePan(1,0)">
                  <use xlink:href="#rim" fill="#404040">
                        <set attributeName="fill" to="#808080" begin="arrowRight.mouseover" end="arrowRight.mouseout"/>
                  </use>
                  <path fill="none" stroke="white" stroke-width="1.5" d="M0,-3.0v7 M-2.5,-0.5L0,-3.0L2.5,-0.5"/>
                </g>
                <g id="arrowDown" xlink:href="#dirArrow" transform="rotate(180) translate(-30 -48)" onmousedown="handlePan(0,1)">
                  <use xlink:href="#rim" fill="#404040">
                        <set attributeName="fill" to="#808080" begin="arrowDown.mouseover" end="arrowDown.mouseout"/>
                  </use>
                  <path fill="none" stroke="white" stroke-width="1.5" d="M0,-3.0v7 M-2.5,-0.5L0,-3.0L2.5,-0.5"/>
                </g>
                <g id="arrowLeft" xlink:href="#dirArrow" transform="rotate(270) translate(-36 17)" onmousedown="handlePan(-1,0)">
                  <use xlink:href="#rim" fill="#404040">
                        <set attributeName="fill" to="#808080" begin="arrowLeft.mouseover" end="arrowLeft.mouseout"/>
                  </use>
                  <path fill="none" stroke="white" stroke-width="1.5" d="M0,-3.0v7 M-2.5,-0.5L0,-3.0L2.5,-0.5"/>
                </g>
        </g>
        <svg viewBox="0 0 15 15" width="100%" height="30px" preserveAspectRatio="xMaxYMin meet">
         <g id="arrow_out" transform="scale(0.3 0.3)">
          <a xlink:href="classprior__hessian_1_1AMHCopula_a11696b4a8cef12a30706cd745820b201_icgraph_org.svg" target="_base">
           <rect id="button" ry="5" rx="5" y="6" x="6" height="38" width="38"
                fill="#f2f5e9" fill-opacity="0.5" stroke="#606060" stroke-width="1.0"/>
           <path id="arrow"
             d="M 11.500037,31.436501 C 11.940474,20.09759 22.043105,11.32322 32.158766,21.979434 L 37.068811,17.246167 C 37.068811,17.246167 37.088388,32 37.088388,32 L 22.160133,31.978069 C 22.160133,31.978069 26.997745,27.140456 26.997745,27.140456 C 18.528582,18.264221 13.291696,25.230495 11.500037,31.436501 z"
             style="fill:#404040;"/>
          </a>
         </g>
        </svg>
</svg>
