<?xml version="1.0" encoding="UTF-8" standalone="no"?>
<!DOCTYPE svg PUBLIC "-//W3C//DTD SVG 1.1//EN"
 "http://www.w3.org/Graphics/SVG/1.1/DTD/svg11.dtd">
<!-- Generated by graphviz version 2.38.0 (20140413.2041)
 -->
<!-- Title: prior_hessian::ParetoDist::median Pages: 1 -->
<!--zoomable 623 -->
<svg id="main" version="1.1" xmlns="http://www.w3.org/2000/svg" xmlns:xlink="http://www.w3.org/1999/xlink" xml:space="preserve" onload="init(evt)">
<style type="text/css"><![CDATA[
.edge:hover path { stroke: red; }
.edge:hover polygon { stroke: red; fill: red; }
]]></style>
<script type="text/javascript"><![CDATA[
var edges = document.getElementsByTagName('g');
if (edges && edges.length) {
  for (var i=0;i<edges.length;i++) {
    if (edges[i].id.substr(0,4)=='edge') {
      edges[i].setAttribute('class','edge');
    }
  }
}
]]></script>
        <defs>
                <circle id="rim" cx="0" cy="0" r="7"/>
                <circle id="rim2" cx="0" cy="0" r="3.5"/>
                <g id="zoomPlus">
                        <use xlink:href="#rim" fill="#404040">
                                <set attributeName="fill" to="#808080" begin="zoomplus.mouseover" end="zoomplus.mouseout"/>
                        </use>
                        <path d="M-4,0h8M0,-4v8" fill="none" stroke="white" stroke-width="1.5" pointer-events="none"/>
                </g>
                <g id="zoomMin">
                        <use xlink:href="#rim" fill="#404040">
                                <set attributeName="fill" to="#808080" begin="zoomminus.mouseover" end="zoomminus.mouseout"/>
                        </use>
                        <path d="M-4,0h8" fill="none" stroke="white" stroke-width="1.5" pointer-events="none"/>
                </g>
                <g id="dirArrow">
                        <path fill="none" stroke="white" stroke-width="1.5" d="M0,-3.0v7 M-2.5,-0.5L0,-3.0L2.5,-0.5"/>
                </g>
               <g id="resetDef">
                       <use xlink:href="#rim2" fill="#404040">
                               <set attributeName="fill" to="#808080" begin="reset.mouseover" end="reset.mouseout"/>
                       </use>
               </g>
        </defs>

<script type="text/javascript">
var viewWidth = 789;
var viewHeight = 623;
var sectionId = 'dynsection-30';
</script>
<script xlink:href="svgpan.js"/>
<svg id="graph" class="graph">
<g id="viewport">
<title>prior_hessian::ParetoDist::median</title>
<polygon fill="white" stroke="none" points="-4,4 -4,-618.956 785,-618.956 785,4 -4,4"/>
<!-- Node1 -->
<g id="node1" class="node"><title>Node1</title>
<polygon fill="#bfbfbf" stroke="black" points="0,-310.5 0,-338.5 120,-338.5 120,-310.5 0,-310.5"/>
<text text-anchor="start" x="8" y="-327.3" font-family="Helvetica,sans-Serif" font-size="9.00">prior_hessian::ParetoDist</text>
<text text-anchor="middle" x="60" y="-317.3" font-family="Helvetica,sans-Serif" font-size="9.00">::median</text>
</g>
<!-- Node2 -->
<g id="node2" class="node"><title>Node2</title>
<g id="a_node2"><a xlink:href="classprior__hessian_1_1ParetoDist.html#ac610ecf8ce6df7b8b48c383e89706b80" target="_top" xlink:title="prior_hessian::ParetoDist\l::alpha">
<polygon fill="white" stroke="black" points="661,-378.5 661,-406.5 781,-406.5 781,-378.5 661,-378.5"/>
<text text-anchor="start" x="669" y="-395.3" font-family="Helvetica,sans-Serif" font-size="9.00">prior_hessian::ParetoDist</text>
<text text-anchor="middle" x="721" y="-385.3" font-family="Helvetica,sans-Serif" font-size="9.00">::alpha</text>
</a>
</g>
</g>
<!-- Node1&#45;&gt;Node2 -->
<g id="edge1" class="edge"><title>Node1&#45;&gt;Node2</title>
<path fill="none" stroke="midnightblue" d="M67.8069,-338.516C92.4024,-387.313 182.124,-549.955 312,-608.5 331.45,-617.268 610.378,-617.084 625,-607.5 691.195,-564.112 711.617,-463.059 717.629,-416.622"/>
<polygon fill="midnightblue" stroke="midnightblue" points="721.119,-416.906 718.813,-406.565 714.167,-416.087 721.119,-416.906"/>
</g>
<!-- Node3 -->
<g id="node3" class="node"><title>Node3</title>
<g id="a_node3"><a xlink:href="classprior__hessian_1_1ParetoDist.html#ad117226a3ad1eee827886fc7ba38acbf" target="_top" xlink:title="prior_hessian::ParetoDist\l::lbound">
<polygon fill="white" stroke="black" points="156,-310.5 156,-338.5 276,-338.5 276,-310.5 156,-310.5"/>
<text text-anchor="start" x="164" y="-327.3" font-family="Helvetica,sans-Serif" font-size="9.00">prior_hessian::ParetoDist</text>
<text text-anchor="middle" x="216" y="-317.3" font-family="Helvetica,sans-Serif" font-size="9.00">::lbound</text>
</a>
</g>
</g>
<!-- Node1&#45;&gt;Node3 -->
<g id="edge2" class="edge"><title>Node1&#45;&gt;Node3</title>
<path fill="none" stroke="midnightblue" d="M120.1,-317.915C128.422,-317.759 137.039,-317.714 145.533,-317.779"/>
<polygon fill="midnightblue" stroke="midnightblue" points="145.759,-321.282 155.804,-317.913 145.85,-314.283 145.759,-321.282"/>
</g>
<!-- Node3&#45;&gt;Node1 -->
<g id="edge24" class="edge"><title>Node3&#45;&gt;Node1</title>
<path fill="none" stroke="midnightblue" d="M155.804,-331.087C147.48,-331.242 138.862,-331.286 130.369,-331.22"/>
<polygon fill="midnightblue" stroke="midnightblue" points="130.145,-327.717 120.1,-331.085 130.053,-334.717 130.145,-327.717"/>
</g>
<!-- Node4 -->
<g id="node4" class="node"><title>Node4</title>
<g id="a_node4"><a xlink:href="classprior__hessian_1_1ParetoDist.html#afe706cb12ce6f667e7a3a9eb7311ef65" target="_top" xlink:title="prior_hessian::ParetoDist::cdf">
<polygon fill="white" stroke="black" points="312,-580.5 312,-598.5 449,-598.5 449,-580.5 312,-580.5"/>
<text text-anchor="middle" x="380.5" y="-587.3" font-family="Helvetica,sans-Serif" font-size="9.00">prior_hessian::ParetoDist::cdf</text>
</a>
</g>
</g>
<!-- Node3&#45;&gt;Node4 -->
<g id="edge3" class="edge"><title>Node3&#45;&gt;Node4</title>
<path fill="none" stroke="midnightblue" d="M218.538,-338.733C223.354,-380.201 242.29,-499.849 312,-562.5 321,-570.589 333.238,-575.107 344.823,-578.141"/>
<polygon fill="midnightblue" stroke="midnightblue" points="344.201,-581.59 354.737,-580.479 345.807,-574.777 344.201,-581.59"/>
</g>
<!-- Node5 -->
<g id="node5" class="node"><title>Node5</title>
<g id="a_node5"><a xlink:href="classprior__hessian_1_1ParetoDist.html#a0923e8b25145eed6042aa933aa4354e5" target="_top" xlink:title="prior_hessian::ParetoDist\l::check_params_iter">
<polygon fill="white" stroke="black" points="320.5,-533.5 320.5,-561.5 440.5,-561.5 440.5,-533.5 320.5,-533.5"/>
<text text-anchor="start" x="328.5" y="-550.3" font-family="Helvetica,sans-Serif" font-size="9.00">prior_hessian::ParetoDist</text>
<text text-anchor="middle" x="380.5" y="-540.3" font-family="Helvetica,sans-Serif" font-size="9.00">::check_params_iter</text>
</a>
</g>
</g>
<!-- Node3&#45;&gt;Node5 -->
<g id="edge6" class="edge"><title>Node3&#45;&gt;Node5</title>
<path fill="none" stroke="midnightblue" d="M220.307,-338.733C229.159,-373.883 256.579,-465.761 312,-518.5 315.985,-522.292 320.542,-525.629 325.367,-528.557"/>
<polygon fill="midnightblue" stroke="midnightblue" points="323.815,-531.697 334.273,-533.396 327.157,-525.547 323.815,-531.697"/>
</g>
<!-- Node7 -->
<g id="node7" class="node"><title>Node7</title>
<g id="a_node7"><a xlink:href="classprior__hessian_1_1ParetoDist.html#a3f802550dfcad6f0e3a8ca2e93709fe9" target="_top" xlink:title="prior_hessian::ParetoDist\l::grad">
<polygon fill="white" stroke="black" points="495,-494.5 495,-522.5 615,-522.5 615,-494.5 495,-494.5"/>
<text text-anchor="start" x="503" y="-511.3" font-family="Helvetica,sans-Serif" font-size="9.00">prior_hessian::ParetoDist</text>
<text text-anchor="middle" x="555" y="-501.3" font-family="Helvetica,sans-Serif" font-size="9.00">::grad</text>
</a>
</g>
</g>
<!-- Node3&#45;&gt;Node7 -->
<g id="edge8" class="edge"><title>Node3&#45;&gt;Node7</title>
<path fill="none" stroke="midnightblue" d="M222.3,-338.673C233.814,-367.359 264.002,-432.221 312,-463.5 363.438,-497.021 433.362,-507.091 484.821,-509.473"/>
<polygon fill="midnightblue" stroke="midnightblue" points="484.731,-512.972 494.856,-509.852 484.995,-505.977 484.731,-512.972"/>
</g>
<!-- Node8 -->
<g id="node8" class="node"><title>Node8</title>
<g id="a_node8"><a xlink:href="classprior__hessian_1_1ParetoDist.html#a24a4aaa7a8edb42009d0fa8390cb4a8f" target="_top" xlink:title="prior_hessian::ParetoDist\l::grad2">
<polygon fill="white" stroke="black" points="495,-447.5 495,-475.5 615,-475.5 615,-447.5 495,-447.5"/>
<text text-anchor="start" x="503" y="-464.3" font-family="Helvetica,sans-Serif" font-size="9.00">prior_hessian::ParetoDist</text>
<text text-anchor="middle" x="555" y="-454.3" font-family="Helvetica,sans-Serif" font-size="9.00">::grad2</text>
</a>
</g>
</g>
<!-- Node3&#45;&gt;Node8 -->
<g id="edge10" class="edge"><title>Node3&#45;&gt;Node8</title>
<path fill="none" stroke="midnightblue" d="M224.753,-338.685C238.694,-362.643 270.452,-410.642 312,-432.5 365.253,-460.516 434.015,-466.356 484.625,-466.011"/>
<polygon fill="midnightblue" stroke="midnightblue" points="484.869,-469.508 494.815,-465.857 484.763,-462.509 484.869,-469.508"/>
</g>
<!-- Node9 -->
<g id="node9" class="node"><title>Node9</title>
<g id="a_node9"><a xlink:href="classprior__hessian_1_1ParetoDist.html#a20c3f90ec9ac4b5bfd179a7c97ab36e7" target="_top" xlink:title="prior_hessian::ParetoDist\l::grad_grad2_accumulate">
<polygon fill="white" stroke="black" points="494,-400.5 494,-428.5 616,-428.5 616,-400.5 494,-400.5"/>
<text text-anchor="start" x="502" y="-417.3" font-family="Helvetica,sans-Serif" font-size="9.00">prior_hessian::ParetoDist</text>
<text text-anchor="middle" x="555" y="-407.3" font-family="Helvetica,sans-Serif" font-size="9.00">::grad_grad2_accumulate</text>
</a>
</g>
</g>
<!-- Node3&#45;&gt;Node9 -->
<g id="edge12" class="edge"><title>Node3&#45;&gt;Node9</title>
<path fill="none" stroke="midnightblue" d="M227.659,-338.815C243.49,-358.762 275.322,-394.088 312,-408.5 366.8,-430.033 434.097,-429.795 483.802,-425.165"/>
<polygon fill="midnightblue" stroke="midnightblue" points="484.218,-428.641 493.814,-424.152 483.512,-421.677 484.218,-428.641"/>
</g>
<!-- Node10 -->
<g id="node10" class="node"><title>Node10</title>
<g id="a_node10"><a xlink:href="classprior__hessian_1_1ParetoDist.html#a9d1040a7a5ca261feebe56f42e5698ea" target="_top" xlink:title="prior_hessian::ParetoDist\l::icdf">
<polygon fill="white" stroke="black" points="320.5,-371.5 320.5,-399.5 440.5,-399.5 440.5,-371.5 320.5,-371.5"/>
<text text-anchor="start" x="328.5" y="-388.3" font-family="Helvetica,sans-Serif" font-size="9.00">prior_hessian::ParetoDist</text>
<text text-anchor="middle" x="380.5" y="-378.3" font-family="Helvetica,sans-Serif" font-size="9.00">::icdf</text>
</a>
</g>
</g>
<!-- Node3&#45;&gt;Node10 -->
<g id="edge14" class="edge"><title>Node3&#45;&gt;Node10</title>
<path fill="none" stroke="midnightblue" d="M274.922,-338.579C287.141,-343.112 299.975,-348.021 312,-352.5 324.876,-357.295 339.208,-362.421 351.343,-367.422"/>
<polygon fill="midnightblue" stroke="midnightblue" points="349.966,-370.64 360.533,-371.398 352.745,-364.215 349.966,-370.64"/>
</g>
<!-- Node11 -->
<g id="node11" class="node"><title>Node11</title>
<g id="a_node11"><a xlink:href="classprior__hessian_1_1ParetoDist.html#a0f7ee813a098cd3fc9c7669cda6a340c" target="_top" xlink:title="prior_hessian::ParetoDist::llh">
<polygon fill="white" stroke="black" points="313.5,-334.5 313.5,-352.5 447.5,-352.5 447.5,-334.5 313.5,-334.5"/>
<text text-anchor="middle" x="380.5" y="-341.3" font-family="Helvetica,sans-Serif" font-size="9.00">prior_hessian::ParetoDist::llh</text>
</a>
</g>
</g>
<!-- Node3&#45;&gt;Node11 -->
<g id="edge17" class="edge"><title>Node3&#45;&gt;Node11</title>
<path fill="none" stroke="midnightblue" d="M276.126,-324.891C296.799,-326.873 319.541,-329.721 338.418,-332.741"/>
<polygon fill="midnightblue" stroke="midnightblue" points="338.028,-336.224 348.47,-334.432 339.189,-329.321 338.028,-336.224"/>
</g>
<!-- Node12 -->
<g id="node12" class="node"><title>Node12</title>
<g id="a_node12"><a xlink:href="classprior__hessian_1_1ParetoDist.html#a609ed75305325062ebd80dcfaa487c69" target="_top" xlink:title="prior_hessian::ParetoDist\l::rllh">
<polygon fill="white" stroke="black" points="495,-276.5 495,-304.5 615,-304.5 615,-276.5 495,-276.5"/>
<text text-anchor="start" x="503" y="-293.3" font-family="Helvetica,sans-Serif" font-size="9.00">prior_hessian::ParetoDist</text>
<text text-anchor="middle" x="555" y="-283.3" font-family="Helvetica,sans-Serif" font-size="9.00">::rllh</text>
</a>
</g>
</g>
<!-- Node3&#45;&gt;Node12 -->
<g id="edge31" class="edge"><title>Node3&#45;&gt;Node12</title>
<path fill="none" stroke="midnightblue" d="M276.087,-318.539C334.38,-312.657 423.455,-303.671 484.973,-297.464"/>
<polygon fill="midnightblue" stroke="midnightblue" points="485.383,-300.941 494.981,-296.454 484.68,-293.976 485.383,-300.941"/>
</g>
<!-- Node13 -->
<g id="node13" class="node"><title>Node13</title>
<g id="a_node13"><a xlink:href="classprior__hessian_1_1ParetoDist.html#a0a1e20b0aa6c7b52c134fc2341b5fdd4" target="_top" xlink:title="prior_hessian::ParetoDist\l::mean">
<polygon fill="white" stroke="black" points="320.5,-248.5 320.5,-276.5 440.5,-276.5 440.5,-248.5 320.5,-248.5"/>
<text text-anchor="start" x="328.5" y="-265.3" font-family="Helvetica,sans-Serif" font-size="9.00">prior_hessian::ParetoDist</text>
<text text-anchor="middle" x="380.5" y="-255.3" font-family="Helvetica,sans-Serif" font-size="9.00">::mean</text>
</a>
</g>
</g>
<!-- Node3&#45;&gt;Node13 -->
<g id="edge22" class="edge"><title>Node3&#45;&gt;Node13</title>
<path fill="none" stroke="midnightblue" d="M240.977,-310.396C260.792,-301.295 289.853,-289.659 316.246,-280.033"/>
<polygon fill="midnightblue" stroke="midnightblue" points="317.602,-283.265 325.827,-276.586 315.233,-276.678 317.602,-283.265"/>
</g>
<!-- Node14 -->
<g id="node14" class="node"><title>Node14</title>
<g id="a_node14"><a xlink:href="classprior__hessian_1_1ParetoDist.html#af5791e2cef16b34e1bbdeec24b13d22e" target="_top" xlink:title="prior_hessian::ParetoDist\l::params">
<polygon fill="white" stroke="black" points="320.5,-201.5 320.5,-229.5 440.5,-229.5 440.5,-201.5 320.5,-201.5"/>
<text text-anchor="start" x="328.5" y="-218.3" font-family="Helvetica,sans-Serif" font-size="9.00">prior_hessian::ParetoDist</text>
<text text-anchor="middle" x="380.5" y="-208.3" font-family="Helvetica,sans-Serif" font-size="9.00">::params</text>
</a>
</g>
</g>
<!-- Node3&#45;&gt;Node14 -->
<g id="edge25" class="edge"><title>Node3&#45;&gt;Node14</title>
<path fill="none" stroke="midnightblue" d="M224.706,-310.253C238.82,-290.465 270.544,-256.088 311.686,-230.265"/>
<polygon fill="midnightblue" stroke="midnightblue" points="313.565,-233.219 320.321,-225.058 309.95,-227.225 313.565,-233.219"/>
</g>
<!-- Node16 -->
<g id="node16" class="node"><title>Node16</title>
<g id="a_node16"><a xlink:href="classprior__hessian_1_1ParetoDist.html#a07cc43c2b299fc07660684f34f32d4ee" target="_top" xlink:title="prior_hessian::ParetoDist::pdf">
<polygon fill="white" stroke="black" points="312,-164.5 312,-182.5 449,-182.5 449,-164.5 312,-164.5"/>
<text text-anchor="middle" x="380.5" y="-171.3" font-family="Helvetica,sans-Serif" font-size="9.00">prior_hessian::ParetoDist::pdf</text>
</a>
</g>
</g>
<!-- Node3&#45;&gt;Node16 -->
<g id="edge29" class="edge"><title>Node3&#45;&gt;Node16</title>
<path fill="none" stroke="midnightblue" d="M221.114,-310.332C231.366,-282.753 260.366,-223.382 303.502,-188.842"/>
<polygon fill="midnightblue" stroke="midnightblue" points="305.809,-191.487 311.72,-182.694 301.616,-185.882 305.809,-191.487"/>
</g>
<!-- Node17 -->
<g id="node17" class="node"><title>Node17</title>
<g id="a_node17"><a xlink:href="classprior__hessian_1_1ParetoDist.html#abe706f0786b5e8ef20b7caff07ffad0c" target="_top" xlink:title="prior_hessian::ParetoDist\l::sample">
<polygon fill="white" stroke="black" points="320.5,-117.5 320.5,-145.5 440.5,-145.5 440.5,-117.5 320.5,-117.5"/>
<text text-anchor="start" x="328.5" y="-134.3" font-family="Helvetica,sans-Serif" font-size="9.00">prior_hessian::ParetoDist</text>
<text text-anchor="middle" x="380.5" y="-124.3" font-family="Helvetica,sans-Serif" font-size="9.00">::sample</text>
</a>
</g>
</g>
<!-- Node3&#45;&gt;Node17 -->
<g id="edge32" class="edge"><title>Node3&#45;&gt;Node17</title>
<path fill="none" stroke="midnightblue" d="M219.817,-310.377C228.473,-276.231 257.459,-190.957 312,-145.5 312.16,-145.366 312.322,-145.233 312.484,-145.101"/>
<polygon fill="midnightblue" stroke="midnightblue" points="314.073,-148.261 320.258,-139.66 310.059,-142.526 314.073,-148.261"/>
</g>
<!-- Node18 -->
<g id="node18" class="node"><title>Node18</title>
<g id="a_node18"><a xlink:href="classprior__hessian_1_1ParetoDist.html#ac755ccef13fd2552861c27bf6c1cc29d" target="_top" xlink:title="prior_hessian::ParetoDist\l::set_lbound">
<polygon fill="white" stroke="black" points="320.5,-70.5 320.5,-98.5 440.5,-98.5 440.5,-70.5 320.5,-70.5"/>
<text text-anchor="start" x="328.5" y="-87.3" font-family="Helvetica,sans-Serif" font-size="9.00">prior_hessian::ParetoDist</text>
<text text-anchor="middle" x="380.5" y="-77.3" font-family="Helvetica,sans-Serif" font-size="9.00">::set_lbound</text>
</a>
</g>
</g>
<!-- Node3&#45;&gt;Node18 -->
<g id="edge34" class="edge"><title>Node3&#45;&gt;Node18</title>
<path fill="none" stroke="midnightblue" d="M219.172,-310.303C225.78,-271.947 249.171,-165.247 312,-107.5 313.285,-106.319 314.632,-105.199 316.033,-104.136"/>
<polygon fill="midnightblue" stroke="midnightblue" points="318.036,-107.008 324.548,-98.6508 314.245,-101.124 318.036,-107.008"/>
</g>
<!-- Node19 -->
<g id="node19" class="node"><title>Node19</title>
<g id="a_node19"><a xlink:href="classprior__hessian_1_1ParetoDist.html#abc9e60af487bda1a9ec5f7e55e38682c" target="_top" xlink:title="prior_hessian::ParetoDist\l::set_params_iter">
<polygon fill="white" stroke="black" points="320.5,-23.5 320.5,-51.5 440.5,-51.5 440.5,-23.5 320.5,-23.5"/>
<text text-anchor="start" x="328.5" y="-40.3" font-family="Helvetica,sans-Serif" font-size="9.00">prior_hessian::ParetoDist</text>
<text text-anchor="middle" x="380.5" y="-30.3" font-family="Helvetica,sans-Serif" font-size="9.00">::set_params_iter</text>
</a>
</g>
</g>
<!-- Node3&#45;&gt;Node19 -->
<g id="edge35" class="edge"><title>Node3&#45;&gt;Node19</title>
<path fill="none" stroke="midnightblue" d="M217.928,-310.2C221.536,-266.435 238.361,-132.896 312,-60.5 313.104,-59.4151 314.26,-58.3813 315.462,-57.3961"/>
<polygon fill="midnightblue" stroke="midnightblue" points="317.693,-60.1107 323.971,-51.5761 313.741,-54.3331 317.693,-60.1107"/>
</g>
<!-- Node4&#45;&gt;Node2 -->
<g id="edge4" class="edge"><title>Node4&#45;&gt;Node2</title>
<path fill="none" stroke="midnightblue" d="M417.465,-598.526C468.14,-609.072 561.454,-620.312 625,-579.5 682.8,-542.379 707.001,-458.425 715.735,-416.816"/>
<polygon fill="midnightblue" stroke="midnightblue" points="719.221,-417.227 717.719,-406.739 712.353,-415.874 719.221,-417.227"/>
</g>
<!-- Node4&#45;&gt;Node3 -->
<g id="edge5" class="edge"><title>Node4&#45;&gt;Node3</title>
<path fill="none" stroke="midnightblue" d="M311.565,-580.108C242.667,-517.764 223.595,-399.662 218.635,-348.629"/>
<polygon fill="midnightblue" stroke="midnightblue" points="222.109,-348.187 217.757,-338.527 215.136,-348.793 222.109,-348.187"/>
</g>
<!-- Node6 -->
<g id="node6" class="node"><title>Node6</title>
<g id="a_node6"><a xlink:href="classprior__hessian_1_1ParetoDist.html#abac82051de116baf787e442c705e96c3" target="_top" xlink:title="prior_hessian::ParetoDist\l::check_params">
<polygon fill="white" stroke="black" points="495,-541.5 495,-569.5 615,-569.5 615,-541.5 495,-541.5"/>
<text text-anchor="start" x="503" y="-558.3" font-family="Helvetica,sans-Serif" font-size="9.00">prior_hessian::ParetoDist</text>
<text text-anchor="middle" x="555" y="-548.3" font-family="Helvetica,sans-Serif" font-size="9.00">::check_params</text>
</a>
</g>
</g>
<!-- Node5&#45;&gt;Node6 -->
<g id="edge7" class="edge"><title>Node5&#45;&gt;Node6</title>
<path fill="none" stroke="midnightblue" d="M440.865,-550.253C454.902,-550.904 469.996,-551.604 484.44,-552.274"/>
<polygon fill="midnightblue" stroke="midnightblue" points="484.667,-555.788 494.818,-552.755 484.991,-548.796 484.667,-555.788"/>
</g>
<!-- Node7&#45;&gt;Node2 -->
<g id="edge9" class="edge"><title>Node7&#45;&gt;Node2</title>
<path fill="none" stroke="midnightblue" d="M605.103,-494.412C612.009,-491.584 618.845,-488.291 625,-484.5 655.755,-465.557 684.588,-435.151 702.246,-414.526"/>
<polygon fill="midnightblue" stroke="midnightblue" points="705.138,-416.524 708.884,-406.613 699.775,-412.025 705.138,-416.524"/>
</g>
<!-- Node8&#45;&gt;Node2 -->
<g id="edge11" class="edge"><title>Node8&#45;&gt;Node2</title>
<path fill="none" stroke="midnightblue" d="M598.598,-447.489C607.393,-444.372 616.549,-440.96 625,-437.5 644.381,-429.566 665.474,-419.703 682.851,-411.235"/>
<polygon fill="midnightblue" stroke="midnightblue" points="684.658,-414.247 692.088,-406.695 681.57,-407.965 684.658,-414.247"/>
</g>
<!-- Node9&#45;&gt;Node2 -->
<g id="edge13" class="edge"><title>Node9&#45;&gt;Node2</title>
<path fill="none" stroke="midnightblue" d="M616.136,-406.433C627.449,-404.915 639.361,-403.317 650.921,-401.767"/>
<polygon fill="midnightblue" stroke="midnightblue" points="651.52,-405.218 660.966,-400.419 650.589,-398.28 651.52,-405.218"/>
</g>
<!-- Node10&#45;&gt;Node2 -->
<g id="edge15" class="edge"><title>Node10&#45;&gt;Node2</title>
<path fill="none" stroke="midnightblue" d="M440.545,-386.704C489.858,-387.711 562.012,-389.19 625,-390.5 633.357,-390.674 642.128,-390.857 650.822,-391.039"/>
<polygon fill="midnightblue" stroke="midnightblue" points="650.89,-394.542 660.962,-391.252 651.037,-387.543 650.89,-394.542"/>
</g>
<!-- Node10&#45;&gt;Node3 -->
<g id="edge16" class="edge"><title>Node10&#45;&gt;Node3</title>
<path fill="none" stroke="midnightblue" d="M320.199,-373.521C317.425,-372.511 314.681,-371.498 312,-370.5 289.259,-362.031 263.629,-352.021 244.726,-343.167"/>
<polygon fill="midnightblue" stroke="midnightblue" points="246.026,-339.907 235.505,-338.657 242.95,-346.195 246.026,-339.907"/>
</g>
<!-- Node11&#45;&gt;Node2 -->
<g id="edge18" class="edge"><title>Node11&#45;&gt;Node2</title>
<path fill="none" stroke="midnightblue" d="M443.981,-352.544C502.49,-361.014 589.771,-373.649 650.464,-382.434"/>
<polygon fill="midnightblue" stroke="midnightblue" points="650.322,-385.95 660.72,-383.919 651.325,-379.022 650.322,-385.95"/>
</g>
<!-- Node11&#45;&gt;Node3 -->
<g id="edge19" class="edge"><title>Node11&#45;&gt;Node3</title>
<path fill="none" stroke="midnightblue" d="M313.269,-342.402C304.333,-341.482 295.146,-340.42 286.161,-339.27"/>
<polygon fill="midnightblue" stroke="midnightblue" points="286.5,-335.784 276.126,-337.936 285.577,-342.723 286.5,-335.784"/>
</g>
<!-- Node11&#45;&gt;Node12 -->
<g id="edge20" class="edge"><title>Node11&#45;&gt;Node12</title>
<path fill="none" stroke="midnightblue" d="M411.154,-334.389C435.127,-327.023 469.544,-316.449 498.588,-307.525"/>
<polygon fill="midnightblue" stroke="midnightblue" points="499.678,-310.852 508.209,-304.569 497.622,-304.16 499.678,-310.852"/>
</g>
<!-- Node12&#45;&gt;Node2 -->
<g id="edge21" class="edge"><title>Node12&#45;&gt;Node2</title>
<path fill="none" stroke="midnightblue" d="M594.449,-304.602C604.636,-308.888 615.451,-313.949 625,-319.5 651.16,-334.706 678.266,-356.203 696.795,-371.931"/>
<polygon fill="midnightblue" stroke="midnightblue" points="694.563,-374.627 704.426,-378.495 699.127,-369.32 694.563,-374.627"/>
</g>
<!-- Node13&#45;&gt;Node3 -->
<g id="edge23" class="edge"><title>Node13&#45;&gt;Node3</title>
<path fill="none" stroke="midnightblue" d="M355.426,-276.648C335.606,-285.746 306.584,-297.365 280.227,-306.977"/>
<polygon fill="midnightblue" stroke="midnightblue" points="278.884,-303.74 270.659,-310.419 281.253,-310.327 278.884,-303.74"/>
</g>
<!-- Node14&#45;&gt;Node2 -->
<g id="edge27" class="edge"><title>Node14&#45;&gt;Node2</title>
<path fill="none" stroke="midnightblue" d="M440.684,-216.408C492.88,-219.747 569.117,-231.026 625,-266.5 664.898,-291.827 694.161,-340.232 709.007,-369.113"/>
<polygon fill="midnightblue" stroke="midnightblue" points="705.891,-370.708 713.483,-378.098 712.156,-367.587 705.891,-370.708"/>
</g>
<!-- Node14&#45;&gt;Node3 -->
<g id="edge26" class="edge"><title>Node14&#45;&gt;Node3</title>
<path fill="none" stroke="midnightblue" d="M354.077,-229.536C340.956,-234.255 325.016,-239.838 312,-247.5 286.064,-262.768 261.01,-285.915 243.149,-303.022"/>
<polygon fill="midnightblue" stroke="midnightblue" points="240.253,-300.953 235.472,-310.407 245.105,-305.997 240.253,-300.953"/>
</g>
<!-- Node15 -->
<g id="node15" class="node"><title>Node15</title>
<g id="a_node15"><a xlink:href="classprior__hessian_1_1ParetoDist.html#a218ebbdec10fbdfcaabdd79dd180b39e" target="_top" xlink:title="prior_hessian::ParetoDist\l::set_params">
<polygon fill="white" stroke="black" points="495,-160.5 495,-188.5 615,-188.5 615,-160.5 495,-160.5"/>
<text text-anchor="start" x="503" y="-177.3" font-family="Helvetica,sans-Serif" font-size="9.00">prior_hessian::ParetoDist</text>
<text text-anchor="middle" x="555" y="-167.3" font-family="Helvetica,sans-Serif" font-size="9.00">::set_params</text>
</a>
</g>
</g>
<!-- Node14&#45;&gt;Node15 -->
<g id="edge28" class="edge"><title>Node14&#45;&gt;Node15</title>
<path fill="none" stroke="midnightblue" d="M440.865,-201.39C455.039,-198.021 470.289,-194.397 484.86,-190.933"/>
<polygon fill="midnightblue" stroke="midnightblue" points="485.899,-194.284 494.818,-188.566 484.28,-187.474 485.899,-194.284"/>
</g>
<!-- Node16&#45;&gt;Node3 -->
<g id="edge30" class="edge"><title>Node16&#45;&gt;Node3</title>
<path fill="none" stroke="midnightblue" d="M360.29,-182.511C345.922,-186.106 326.359,-190.558 312,-200.5 274.227,-226.652 246.233,-272.925 230.758,-301.129"/>
<polygon fill="midnightblue" stroke="midnightblue" points="227.483,-299.827 225.811,-310.289 233.643,-303.154 227.483,-299.827"/>
</g>
<!-- Node17&#45;&gt;Node3 -->
<g id="edge33" class="edge"><title>Node17&#45;&gt;Node3</title>
<path fill="none" stroke="midnightblue" d="M347.861,-145.528C335.638,-149.609 322.176,-155.019 312,-163.5 266.851,-201.13 239.213,-266.045 226.123,-301.018"/>
<polygon fill="midnightblue" stroke="midnightblue" points="222.823,-299.851 222.669,-310.445 229.396,-302.259 222.823,-299.851"/>
</g>
<!-- Node19&#45;&gt;Node2 -->
<g id="edge39" class="edge"><title>Node19&#45;&gt;Node2</title>
<path fill="none" stroke="midnightblue" d="M440.542,-50.7988C495.421,-66.0589 575.875,-96.2743 625,-150.5 683.898,-215.513 708.122,-321.3 716.373,-368.474"/>
<polygon fill="midnightblue" stroke="midnightblue" points="712.928,-369.092 718.019,-378.384 719.833,-367.945 712.928,-369.092"/>
</g>
<!-- Node19&#45;&gt;Node15 -->
<g id="edge40" class="edge"><title>Node19&#45;&gt;Node15</title>
<path fill="none" stroke="midnightblue" d="M432.753,-51.51C438.468,-54.0635 444.016,-57.041 449,-60.5 469.757,-74.9069 468.113,-85.7049 485,-104.5 500.204,-121.422 518.284,-139.702 532.123,-153.338"/>
<polygon fill="midnightblue" stroke="midnightblue" points="529.736,-155.899 539.329,-160.397 534.634,-150.899 529.736,-155.899"/>
</g>
<!-- Node20 -->
<g id="node20" class="node"><title>Node20</title>
<g id="a_node20"><a xlink:href="classprior__hessian_1_1ParetoDist.html#acef10b17c003468838f548ed255d7e1f" target="_top" xlink:title="prior_hessian::ParetoDist::min">
<polygon fill="white" stroke="black" points="485,-28.5 485,-46.5 625,-46.5 625,-28.5 485,-28.5"/>
<text text-anchor="middle" x="555" y="-35.3" font-family="Helvetica,sans-Serif" font-size="9.00">prior_hessian::ParetoDist::min</text>
</a>
</g>
</g>
<!-- Node19&#45;&gt;Node20 -->
<g id="edge36" class="edge"><title>Node19&#45;&gt;Node20</title>
<path fill="none" stroke="midnightblue" d="M440.865,-37.5C451.684,-37.5 463.13,-37.5 474.423,-37.5"/>
<polygon fill="midnightblue" stroke="midnightblue" points="474.729,-41.0001 484.729,-37.5 474.729,-34.0001 474.729,-41.0001"/>
</g>
<!-- Node21 -->
<g id="node21" class="node"><title>Node21</title>
<g id="a_node21"><a xlink:href="classprior__hessian_1_1ParetoDist.html#ace279cdfa7dbdcd8805ddb2ec4b46ee2" target="_top" xlink:title="prior_hessian::ParetoDist\l::set_min">
<polygon fill="white" stroke="black" points="661,-47.5 661,-75.5 781,-75.5 781,-47.5 661,-47.5"/>
<text text-anchor="start" x="669" y="-64.3" font-family="Helvetica,sans-Serif" font-size="9.00">prior_hessian::ParetoDist</text>
<text text-anchor="middle" x="721" y="-54.3" font-family="Helvetica,sans-Serif" font-size="9.00">::set_min</text>
</a>
</g>
</g>
<!-- Node20&#45;&gt;Node21 -->
<g id="edge37" class="edge"><title>Node20&#45;&gt;Node21</title>
<path fill="none" stroke="midnightblue" d="M617.534,-46.505C628.39,-48.0936 639.757,-49.7571 650.806,-51.374"/>
<polygon fill="midnightblue" stroke="midnightblue" points="650.438,-54.8574 660.839,-52.8423 651.452,-47.9311 650.438,-54.8574"/>
</g>
<!-- Node22 -->
<g id="node22" class="node"><title>Node22</title>
<g id="a_node22"><a xlink:href="classprior__hessian_1_1ParetoDist.html#a5c2b026477495e3fc91a1cfb653d8a97" target="_top" xlink:title="prior_hessian::ParetoDist\l::set_alpha">
<polygon fill="white" stroke="black" points="661,-0.5 661,-28.5 781,-28.5 781,-0.5 661,-0.5"/>
<text text-anchor="start" x="669" y="-17.3" font-family="Helvetica,sans-Serif" font-size="9.00">prior_hessian::ParetoDist</text>
<text text-anchor="middle" x="721" y="-7.3" font-family="Helvetica,sans-Serif" font-size="9.00">::set_alpha</text>
</a>
</g>
</g>
<!-- Node20&#45;&gt;Node22 -->
<g id="edge38" class="edge"><title>Node20&#45;&gt;Node22</title>
<path fill="none" stroke="midnightblue" d="M620.346,-28.4758C630.375,-27.0694 640.773,-25.6112 650.901,-24.1907"/>
<polygon fill="midnightblue" stroke="midnightblue" points="651.499,-27.6411 660.916,-22.7861 650.527,-20.709 651.499,-27.6411"/>
</g>
</g>
</svg>
        <g id="navigator" transform="translate(0 0)" fill="#404254">
                <rect fill="#f2f5e9" fill-opacity="0.5" stroke="#606060" stroke-width=".5" x="0" y="0" width="60" height="60"/>
                <use id="zoomplus" xlink:href="#zoomPlus" x="17" y="9" onmousedown="handleZoom(evt,'in')"/>
                <use id="zoomminus" xlink:href="#zoomMin" x="42" y="9" onmousedown="handleZoom(evt,'out')"/>
                <use id="reset" xlink:href="#resetDef" x="30" y="36" onmousedown="handleReset()"/>
                <g id="arrowUp" xlink:href="#dirArrow" transform="translate(30 24)" onmousedown="handlePan(0,-1)">
                  <use xlink:href="#rim" fill="#404040">
                        <set attributeName="fill" to="#808080" begin="arrowUp.mouseover" end="arrowUp.mouseout"/>
                  </use>
                  <path fill="none" stroke="white" stroke-width="1.5" d="M0,-3.0v7 M-2.5,-0.5L0,-3.0L2.5,-0.5"/>
                </g>
                <g id="arrowRight" xlink:href="#dirArrow" transform="rotate(90) translate(36 -43)" onmousedown="handlePan(1,0)">
                  <use xlink:href="#rim" fill="#404040">
                        <set attributeName="fill" to="#808080" begin="arrowRight.mouseover" end="arrowRight.mouseout"/>
                  </use>
                  <path fill="none" stroke="white" stroke-width="1.5" d="M0,-3.0v7 M-2.5,-0.5L0,-3.0L2.5,-0.5"/>
                </g>
                <g id="arrowDown" xlink:href="#dirArrow" transform="rotate(180) translate(-30 -48)" onmousedown="handlePan(0,1)">
                  <use xlink:href="#rim" fill="#404040">
                        <set attributeName="fill" to="#808080" begin="arrowDown.mouseover" end="arrowDown.mouseout"/>
                  </use>
                  <path fill="none" stroke="white" stroke-width="1.5" d="M0,-3.0v7 M-2.5,-0.5L0,-3.0L2.5,-0.5"/>
                </g>
                <g id="arrowLeft" xlink:href="#dirArrow" transform="rotate(270) translate(-36 17)" onmousedown="handlePan(-1,0)">
                  <use xlink:href="#rim" fill="#404040">
                        <set attributeName="fill" to="#808080" begin="arrowLeft.mouseover" end="arrowLeft.mouseout"/>
                  </use>
                  <path fill="none" stroke="white" stroke-width="1.5" d="M0,-3.0v7 M-2.5,-0.5L0,-3.0L2.5,-0.5"/>
                </g>
        </g>
        <svg viewBox="0 0 15 15" width="100%" height="30px" preserveAspectRatio="xMaxYMin meet">
         <g id="arrow_out" transform="scale(0.3 0.3)">
          <a xlink:href="classprior__hessian_1_1ParetoDist_a74af41636088b6c727107c60dd9c81b2_cgraph_org.svg" target="_base">
           <rect id="button" ry="5" rx="5" y="6" x="6" height="38" width="38"
                fill="#f2f5e9" fill-opacity="0.5" stroke="#606060" stroke-width="1.0"/>
           <path id="arrow"
             d="M 11.500037,31.436501 C 11.940474,20.09759 22.043105,11.32322 32.158766,21.979434 L 37.068811,17.246167 C 37.068811,17.246167 37.088388,32 37.088388,32 L 22.160133,31.978069 C 22.160133,31.978069 26.997745,27.140456 26.997745,27.140456 C 18.528582,18.264221 13.291696,25.230495 11.500037,31.436501 z"
             style="fill:#404040;"/>
          </a>
         </g>
        </svg>
</svg>
