<?xml version="1.0" encoding="UTF-8" standalone="no"?>
<!DOCTYPE svg PUBLIC "-//W3C//DTD SVG 1.1//EN"
 "http://www.w3.org/Graphics/SVG/1.1/DTD/svg11.dtd">
<!-- Generated by graphviz version 2.38.0 (20140413.2041)
 -->
<!-- Title: prior_hessian::ParetoDist::cdf Pages: 1 -->
<!--zoomable 680 -->
<svg id="main" version="1.1" xmlns="http://www.w3.org/2000/svg" xmlns:xlink="http://www.w3.org/1999/xlink" xml:space="preserve" onload="init(evt)">
<style type="text/css"><![CDATA[
.edge:hover path { stroke: red; }
.edge:hover polygon { stroke: red; fill: red; }
]]></style>
<script type="text/javascript"><![CDATA[
var edges = document.getElementsByTagName('g');
if (edges && edges.length) {
  for (var i=0;i<edges.length;i++) {
    if (edges[i].id.substr(0,4)=='edge') {
      edges[i].setAttribute('class','edge');
    }
  }
}
]]></script>
        <defs>
                <circle id="rim" cx="0" cy="0" r="7"/>
                <circle id="rim2" cx="0" cy="0" r="3.5"/>
                <g id="zoomPlus">
                        <use xlink:href="#rim" fill="#404040">
                                <set attributeName="fill" to="#808080" begin="zoomplus.mouseover" end="zoomplus.mouseout"/>
                        </use>
                        <path d="M-4,0h8M0,-4v8" fill="none" stroke="white" stroke-width="1.5" pointer-events="none"/>
                </g>
                <g id="zoomMin">
                        <use xlink:href="#rim" fill="#404040">
                                <set attributeName="fill" to="#808080" begin="zoomminus.mouseover" end="zoomminus.mouseout"/>
                        </use>
                        <path d="M-4,0h8" fill="none" stroke="white" stroke-width="1.5" pointer-events="none"/>
                </g>
                <g id="dirArrow">
                        <path fill="none" stroke="white" stroke-width="1.5" d="M0,-3.0v7 M-2.5,-0.5L0,-3.0L2.5,-0.5"/>
                </g>
               <g id="resetDef">
                       <use xlink:href="#rim2" fill="#404040">
                               <set attributeName="fill" to="#808080" begin="reset.mouseover" end="reset.mouseout"/>
                       </use>
               </g>
        </defs>

<script type="text/javascript">
var viewWidth = 806;
var viewHeight = 680;
var sectionId = 'dynsection-4';
</script>
<script xlink:href="svgpan.js"/>
<svg id="graph" class="graph">
<g id="viewport">
<title>prior_hessian::ParetoDist::cdf</title>
<polygon fill="white" stroke="none" points="-4,4 -4,-675.742 802,-675.742 802,4 -4,4"/>
<!-- Node1 -->
<g id="node1" class="node"><title>Node1</title>
<polygon fill="#bfbfbf" stroke="black" points="0,-402.5 0,-420.5 137,-420.5 137,-402.5 0,-402.5"/>
<text text-anchor="middle" x="68.5" y="-409.3" font-family="Helvetica,sans-Serif" font-size="9.00">prior_hessian::ParetoDist::cdf</text>
</g>
<!-- Node2 -->
<g id="node2" class="node"><title>Node2</title>
<g id="a_node2"><a xlink:href="classprior__hessian_1_1ParetoDist.html#ac610ecf8ce6df7b8b48c383e89706b80" target="_top" xlink:title="prior_hessian::ParetoDist\l::alpha">
<polygon fill="white" stroke="black" points="678,-354.5 678,-382.5 798,-382.5 798,-354.5 678,-354.5"/>
<text text-anchor="start" x="686" y="-371.3" font-family="Helvetica,sans-Serif" font-size="9.00">prior_hessian::ParetoDist</text>
<text text-anchor="middle" x="738" y="-361.3" font-family="Helvetica,sans-Serif" font-size="9.00">::alpha</text>
</a>
</g>
</g>
<!-- Node1&#45;&gt;Node2 -->
<g id="edge1" class="edge"><title>Node1&#45;&gt;Node2</title>
<path fill="none" stroke="midnightblue" d="M75.2625,-420.592C99.9513,-458.574 201.373,-604.921 329,-655.5 385.606,-677.933 408.69,-676.067 466,-655.5 598.892,-607.808 693.41,-450.988 725.245,-391.585"/>
<polygon fill="midnightblue" stroke="midnightblue" points="728.411,-393.084 729.975,-382.605 722.218,-389.822 728.411,-393.084"/>
</g>
<!-- Node3 -->
<g id="node3" class="node"><title>Node3</title>
<g id="a_node3"><a xlink:href="classprior__hessian_1_1ParetoDist.html#ad117226a3ad1eee827886fc7ba38acbf" target="_top" xlink:title="prior_hessian::ParetoDist\l::lbound">
<polygon fill="white" stroke="black" points="173,-397.5 173,-425.5 293,-425.5 293,-397.5 173,-397.5"/>
<text text-anchor="start" x="181" y="-414.3" font-family="Helvetica,sans-Serif" font-size="9.00">prior_hessian::ParetoDist</text>
<text text-anchor="middle" x="233" y="-404.3" font-family="Helvetica,sans-Serif" font-size="9.00">::lbound</text>
</a>
</g>
</g>
<!-- Node1&#45;&gt;Node3 -->
<g id="edge2" class="edge"><title>Node1&#45;&gt;Node3</title>
<path fill="none" stroke="midnightblue" d="M137.003,-404.837C145.496,-404.729 154.196,-404.722 162.716,-404.815"/>
<polygon fill="midnightblue" stroke="midnightblue" points="162.939,-408.319 172.994,-404.98 163.051,-401.32 162.939,-408.319"/>
</g>
<!-- Node3&#45;&gt;Node1 -->
<g id="edge9" class="edge"><title>Node3&#45;&gt;Node1</title>
<path fill="none" stroke="midnightblue" d="M172.994,-418.02C164.592,-418.198 155.846,-418.273 147.156,-418.244"/>
<polygon fill="midnightblue" stroke="midnightblue" points="147.03,-414.743 137.003,-418.163 146.975,-421.743 147.03,-414.743"/>
</g>
<!-- Node4 -->
<g id="node4" class="node"><title>Node4</title>
<g id="a_node4"><a xlink:href="classprior__hessian_1_1ParetoDist.html#ac755ccef13fd2552861c27bf6c1cc29d" target="_top" xlink:title="prior_hessian::ParetoDist\l::set_lbound">
<polygon fill="white" stroke="black" points="337.5,-617.5 337.5,-645.5 457.5,-645.5 457.5,-617.5 337.5,-617.5"/>
<text text-anchor="start" x="345.5" y="-634.3" font-family="Helvetica,sans-Serif" font-size="9.00">prior_hessian::ParetoDist</text>
<text text-anchor="middle" x="397.5" y="-624.3" font-family="Helvetica,sans-Serif" font-size="9.00">::set_lbound</text>
</a>
</g>
</g>
<!-- Node3&#45;&gt;Node4 -->
<g id="edge3" class="edge"><title>Node3&#45;&gt;Node4</title>
<path fill="none" stroke="midnightblue" d="M236.871,-425.695C244.866,-461.609 270.734,-556.886 329,-608.5 330.338,-609.685 331.74,-610.81 333.194,-611.877"/>
<polygon fill="midnightblue" stroke="midnightblue" points="331.678,-615.057 342.014,-617.382 335.384,-609.118 331.678,-615.057"/>
</g>
<!-- Node5 -->
<g id="node5" class="node"><title>Node5</title>
<g id="a_node5"><a xlink:href="classprior__hessian_1_1ParetoDist.html#a0a1e20b0aa6c7b52c134fc2341b5fdd4" target="_top" xlink:title="prior_hessian::ParetoDist\l::mean">
<polygon fill="white" stroke="black" points="337.5,-570.5 337.5,-598.5 457.5,-598.5 457.5,-570.5 337.5,-570.5"/>
<text text-anchor="start" x="345.5" y="-587.3" font-family="Helvetica,sans-Serif" font-size="9.00">prior_hessian::ParetoDist</text>
<text text-anchor="middle" x="397.5" y="-577.3" font-family="Helvetica,sans-Serif" font-size="9.00">::mean</text>
</a>
</g>
</g>
<!-- Node3&#45;&gt;Node5 -->
<g id="edge4" class="edge"><title>Node3&#45;&gt;Node5</title>
<path fill="none" stroke="midnightblue" d="M241.323,-425.505C254.221,-453.911 283.964,-517.017 329,-552.5 336.95,-558.764 346.706,-563.372 356.303,-567.037"/>
<polygon fill="midnightblue" stroke="midnightblue" points="355.181,-570.353 365.776,-570.414 357.532,-563.759 355.181,-570.353"/>
</g>
<!-- Node6 -->
<g id="node6" class="node"><title>Node6</title>
<g id="a_node6"><a xlink:href="classprior__hessian_1_1ParetoDist.html#a74af41636088b6c727107c60dd9c81b2" target="_top" xlink:title="prior_hessian::ParetoDist\l::median">
<polygon fill="white" stroke="black" points="337.5,-523.5 337.5,-551.5 457.5,-551.5 457.5,-523.5 337.5,-523.5"/>
<text text-anchor="start" x="345.5" y="-540.3" font-family="Helvetica,sans-Serif" font-size="9.00">prior_hessian::ParetoDist</text>
<text text-anchor="middle" x="397.5" y="-530.3" font-family="Helvetica,sans-Serif" font-size="9.00">::median</text>
</a>
</g>
</g>
<!-- Node3&#45;&gt;Node6 -->
<g id="edge6" class="edge"><title>Node3&#45;&gt;Node6</title>
<path fill="none" stroke="midnightblue" d="M248.52,-425.732C265.449,-446.103 295.426,-482.443 329,-504.5 338.709,-510.879 350.32,-515.798 361.151,-519.91"/>
<polygon fill="midnightblue" stroke="midnightblue" points="360.209,-523.294 370.803,-523.479 362.637,-516.728 360.209,-523.294"/>
</g>
<!-- Node7 -->
<g id="node7" class="node"><title>Node7</title>
<g id="a_node7"><a xlink:href="classprior__hessian_1_1ParetoDist.html#a9d1040a7a5ca261feebe56f42e5698ea" target="_top" xlink:title="prior_hessian::ParetoDist\l::icdf">
<polygon fill="white" stroke="black" points="337.5,-476.5 337.5,-504.5 457.5,-504.5 457.5,-476.5 337.5,-476.5"/>
<text text-anchor="start" x="345.5" y="-493.3" font-family="Helvetica,sans-Serif" font-size="9.00">prior_hessian::ParetoDist</text>
<text text-anchor="middle" x="397.5" y="-483.3" font-family="Helvetica,sans-Serif" font-size="9.00">::icdf</text>
</a>
</g>
</g>
<!-- Node3&#45;&gt;Node7 -->
<g id="edge10" class="edge"><title>Node3&#45;&gt;Node7</title>
<path fill="none" stroke="midnightblue" d="M268.816,-425.62C286.441,-435.426 308.416,-447.98 329,-457.5 340.818,-462.966 354.258,-467.975 366.017,-472.602"/>
<polygon fill="midnightblue" stroke="midnightblue" points="364.844,-475.903 375.428,-476.401 367.465,-469.412 364.844,-475.903"/>
</g>
<!-- Node8 -->
<g id="node8" class="node"><title>Node8</title>
<g id="a_node8"><a xlink:href="classprior__hessian_1_1ParetoDist.html#a07cc43c2b299fc07660684f34f32d4ee" target="_top" xlink:title="prior_hessian::ParetoDist::pdf">
<polygon fill="white" stroke="black" points="329,-439.5 329,-457.5 466,-457.5 466,-439.5 329,-439.5"/>
<text text-anchor="middle" x="397.5" y="-446.3" font-family="Helvetica,sans-Serif" font-size="9.00">prior_hessian::ParetoDist::pdf</text>
</a>
</g>
</g>
<!-- Node3&#45;&gt;Node8 -->
<g id="edge13" class="edge"><title>Node3&#45;&gt;Node8</title>
<path fill="none" stroke="midnightblue" d="M293.126,-418.44C318.279,-423.638 346.493,-430.456 367.084,-436.463"/>
<polygon fill="midnightblue" stroke="midnightblue" points="366.229,-439.861 376.815,-439.426 368.268,-433.165 366.229,-439.861"/>
</g>
<!-- Node9 -->
<g id="node9" class="node"><title>Node9</title>
<g id="a_node9"><a xlink:href="classprior__hessian_1_1ParetoDist.html#a0f7ee813a098cd3fc9c7669cda6a340c" target="_top" xlink:title="prior_hessian::ParetoDist::llh">
<polygon fill="white" stroke="black" points="330.5,-402.5 330.5,-420.5 464.5,-420.5 464.5,-402.5 330.5,-402.5"/>
<text text-anchor="middle" x="397.5" y="-409.3" font-family="Helvetica,sans-Serif" font-size="9.00">prior_hessian::ParetoDist::llh</text>
</a>
</g>
</g>
<!-- Node3&#45;&gt;Node9 -->
<g id="edge15" class="edge"><title>Node3&#45;&gt;Node9</title>
<path fill="none" stroke="midnightblue" d="M293.126,-404.978C301.895,-404.793 311.036,-404.721 320.097,-404.761"/>
<polygon fill="midnightblue" stroke="midnightblue" points="320.237,-408.262 330.269,-404.854 320.301,-401.262 320.237,-408.262"/>
</g>
<!-- Node10 -->
<g id="node10" class="node"><title>Node10</title>
<g id="a_node10"><a xlink:href="classprior__hessian_1_1ParetoDist.html#a609ed75305325062ebd80dcfaa487c69" target="_top" xlink:title="prior_hessian::ParetoDist\l::rllh">
<polygon fill="white" stroke="black" points="512,-378.5 512,-406.5 632,-406.5 632,-378.5 512,-378.5"/>
<text text-anchor="start" x="520" y="-395.3" font-family="Helvetica,sans-Serif" font-size="9.00">prior_hessian::ParetoDist</text>
<text text-anchor="middle" x="572" y="-385.3" font-family="Helvetica,sans-Serif" font-size="9.00">::rllh</text>
</a>
</g>
</g>
<!-- Node3&#45;&gt;Node10 -->
<g id="edge20" class="edge"><title>Node3&#45;&gt;Node10</title>
<path fill="none" stroke="midnightblue" d="M293.02,-397.822C304.872,-395.606 317.284,-393.66 329,-392.5 386.964,-386.76 453.121,-387.237 501.597,-388.881"/>
<polygon fill="midnightblue" stroke="midnightblue" points="501.543,-392.381 511.664,-389.248 501.798,-385.386 501.543,-392.381"/>
</g>
<!-- Node11 -->
<g id="node11" class="node"><title>Node11</title>
<g id="a_node11"><a xlink:href="classprior__hessian_1_1ParetoDist.html#a3f802550dfcad6f0e3a8ca2e93709fe9" target="_top" xlink:title="prior_hessian::ParetoDist\l::grad">
<polygon fill="white" stroke="black" points="512,-331.5 512,-359.5 632,-359.5 632,-331.5 512,-331.5"/>
<text text-anchor="start" x="520" y="-348.3" font-family="Helvetica,sans-Serif" font-size="9.00">prior_hessian::ParetoDist</text>
<text text-anchor="middle" x="572" y="-338.3" font-family="Helvetica,sans-Serif" font-size="9.00">::grad</text>
</a>
</g>
</g>
<!-- Node3&#45;&gt;Node11 -->
<g id="edge21" class="edge"><title>Node3&#45;&gt;Node11</title>
<path fill="none" stroke="midnightblue" d="M279.628,-397.361C295.192,-392.852 312.763,-388.103 329,-384.5 386.792,-371.677 453.232,-361.274 501.857,-354.448"/>
<polygon fill="midnightblue" stroke="midnightblue" points="502.53,-357.888 511.953,-353.046 501.567,-350.954 502.53,-357.888"/>
</g>
<!-- Node12 -->
<g id="node12" class="node"><title>Node12</title>
<g id="a_node12"><a xlink:href="classprior__hessian_1_1ParetoDist.html#a24a4aaa7a8edb42009d0fa8390cb4a8f" target="_top" xlink:title="prior_hessian::ParetoDist\l::grad2">
<polygon fill="white" stroke="black" points="512,-284.5 512,-312.5 632,-312.5 632,-284.5 512,-284.5"/>
<text text-anchor="start" x="520" y="-301.3" font-family="Helvetica,sans-Serif" font-size="9.00">prior_hessian::ParetoDist</text>
<text text-anchor="middle" x="572" y="-291.3" font-family="Helvetica,sans-Serif" font-size="9.00">::grad2</text>
</a>
</g>
</g>
<!-- Node3&#45;&gt;Node12 -->
<g id="edge23" class="edge"><title>Node3&#45;&gt;Node12</title>
<path fill="none" stroke="midnightblue" d="M255.028,-397.274C273.733,-385.184 302.199,-368.143 329,-357.5 385.402,-335.103 452.687,-319.532 501.975,-310.033"/>
<polygon fill="midnightblue" stroke="midnightblue" points="502.721,-313.454 511.897,-308.156 501.42,-306.576 502.721,-313.454"/>
</g>
<!-- Node13 -->
<g id="node13" class="node"><title>Node13</title>
<g id="a_node13"><a xlink:href="classprior__hessian_1_1ParetoDist.html#a20c3f90ec9ac4b5bfd179a7c97ab36e7" target="_top" xlink:title="prior_hessian::ParetoDist\l::grad_grad2_accumulate">
<polygon fill="white" stroke="black" points="511,-237.5 511,-265.5 633,-265.5 633,-237.5 511,-237.5"/>
<text text-anchor="start" x="519" y="-254.3" font-family="Helvetica,sans-Serif" font-size="9.00">prior_hessian::ParetoDist</text>
<text text-anchor="middle" x="572" y="-244.3" font-family="Helvetica,sans-Serif" font-size="9.00">::grad_grad2_accumulate</text>
</a>
</g>
</g>
<!-- Node3&#45;&gt;Node13 -->
<g id="edge25" class="edge"><title>Node3&#45;&gt;Node13</title>
<path fill="none" stroke="midnightblue" d="M243.92,-397.263C259.526,-375.963 291.883,-336.011 329,-314.5 382.063,-283.747 450.255,-267.751 500.72,-259.589"/>
<polygon fill="midnightblue" stroke="midnightblue" points="501.542,-263.004 510.887,-258.012 500.469,-256.086 501.542,-263.004"/>
</g>
<!-- Node14 -->
<g id="node14" class="node"><title>Node14</title>
<g id="a_node14"><a xlink:href="classprior__hessian_1_1ParetoDist.html#abe706f0786b5e8ef20b7caff07ffad0c" target="_top" xlink:title="prior_hessian::ParetoDist\l::sample">
<polygon fill="white" stroke="black" points="337.5,-202.5 337.5,-230.5 457.5,-230.5 457.5,-202.5 337.5,-202.5"/>
<text text-anchor="start" x="345.5" y="-219.3" font-family="Helvetica,sans-Serif" font-size="9.00">prior_hessian::ParetoDist</text>
<text text-anchor="middle" x="397.5" y="-209.3" font-family="Helvetica,sans-Serif" font-size="9.00">::sample</text>
</a>
</g>
</g>
<!-- Node3&#45;&gt;Node14 -->
<g id="edge27" class="edge"><title>Node3&#45;&gt;Node14</title>
<path fill="none" stroke="midnightblue" d="M237.194,-397.337C246.665,-364.105 277.212,-282.697 329,-236.5 329.161,-236.357 329.322,-236.214 329.484,-236.072"/>
<polygon fill="midnightblue" stroke="midnightblue" points="331.457,-238.97 337.263,-230.108 327.198,-233.415 331.457,-238.97"/>
</g>
<!-- Node15 -->
<g id="node15" class="node"><title>Node15</title>
<g id="a_node15"><a xlink:href="classprior__hessian_1_1ParetoDist.html#a0923e8b25145eed6042aa933aa4354e5" target="_top" xlink:title="prior_hessian::ParetoDist\l::check_params_iter">
<polygon fill="white" stroke="black" points="337.5,-155.5 337.5,-183.5 457.5,-183.5 457.5,-155.5 337.5,-155.5"/>
<text text-anchor="start" x="345.5" y="-172.3" font-family="Helvetica,sans-Serif" font-size="9.00">prior_hessian::ParetoDist</text>
<text text-anchor="middle" x="397.5" y="-162.3" font-family="Helvetica,sans-Serif" font-size="9.00">::check_params_iter</text>
</a>
</g>
</g>
<!-- Node3&#45;&gt;Node15 -->
<g id="edge29" class="edge"><title>Node3&#45;&gt;Node15</title>
<path fill="none" stroke="midnightblue" d="M236.084,-397.453C242.521,-358.989 265.63,-250.941 329,-192.5 330.283,-191.317 331.629,-190.195 333.027,-189.13"/>
<polygon fill="midnightblue" stroke="midnightblue" points="335.032,-192.002 341.535,-183.638 331.236,-186.121 335.032,-192.002"/>
</g>
<!-- Node17 -->
<g id="node17" class="node"><title>Node17</title>
<g id="a_node17"><a xlink:href="classprior__hessian_1_1ParetoDist.html#af5791e2cef16b34e1bbdeec24b13d22e" target="_top" xlink:title="prior_hessian::ParetoDist\l::params">
<polygon fill="white" stroke="black" points="337.5,-108.5 337.5,-136.5 457.5,-136.5 457.5,-108.5 337.5,-108.5"/>
<text text-anchor="start" x="345.5" y="-125.3" font-family="Helvetica,sans-Serif" font-size="9.00">prior_hessian::ParetoDist</text>
<text text-anchor="middle" x="397.5" y="-115.3" font-family="Helvetica,sans-Serif" font-size="9.00">::params</text>
</a>
</g>
</g>
<!-- Node3&#45;&gt;Node17 -->
<g id="edge31" class="edge"><title>Node3&#45;&gt;Node17</title>
<path fill="none" stroke="midnightblue" d="M234.606,-397.486C237.435,-352.312 252.684,-211.708 329,-136.5 329.16,-136.342 329.321,-136.186 329.483,-136.031"/>
<polygon fill="midnightblue" stroke="midnightblue" points="331.756,-138.695 337.434,-129.75 327.418,-133.202 331.756,-138.695"/>
</g>
<!-- Node19 -->
<g id="node19" class="node"><title>Node19</title>
<g id="a_node19"><a xlink:href="classprior__hessian_1_1ParetoDist.html#abc9e60af487bda1a9ec5f7e55e38682c" target="_top" xlink:title="prior_hessian::ParetoDist\l::set_params_iter">
<polygon fill="white" stroke="black" points="337.5,-61.5 337.5,-89.5 457.5,-89.5 457.5,-61.5 337.5,-61.5"/>
<text text-anchor="start" x="345.5" y="-78.3" font-family="Helvetica,sans-Serif" font-size="9.00">prior_hessian::ParetoDist</text>
<text text-anchor="middle" x="397.5" y="-68.3" font-family="Helvetica,sans-Serif" font-size="9.00">::set_params_iter</text>
</a>
</g>
</g>
<!-- Node3&#45;&gt;Node19 -->
<g id="edge35" class="edge"><title>Node3&#45;&gt;Node19</title>
<path fill="none" stroke="midnightblue" d="M233.989,-397.422C234.724,-348.887 243.739,-186.685 329,-98.5 330.049,-97.4152 331.151,-96.3816 332.298,-95.3968"/>
<polygon fill="midnightblue" stroke="midnightblue" points="334.347,-98.2346 340.457,-89.5788 330.283,-92.5353 334.347,-98.2346"/>
</g>
<!-- Node5&#45;&gt;Node3 -->
<g id="edge5" class="edge"><title>Node5&#45;&gt;Node3</title>
<path fill="none" stroke="midnightblue" d="M337.397,-576.169C334.448,-574.457 331.626,-572.569 329,-570.5 283.578,-534.713 253.713,-470.828 240.995,-435.7"/>
<polygon fill="midnightblue" stroke="midnightblue" points="244.151,-434.112 237.6,-425.784 237.528,-436.379 244.151,-434.112"/>
</g>
<!-- Node6&#45;&gt;Node2 -->
<g id="edge8" class="edge"><title>Node6&#45;&gt;Node2</title>
<path fill="none" stroke="midnightblue" d="M457.678,-530.491C509.35,-522.291 584.813,-505.147 642,-470.5 675.769,-450.041 705.082,-414.229 721.902,-390.944"/>
<polygon fill="midnightblue" stroke="midnightblue" points="724.819,-392.881 727.72,-382.691 719.098,-388.848 724.819,-392.881"/>
</g>
<!-- Node6&#45;&gt;Node3 -->
<g id="edge7" class="edge"><title>Node6&#45;&gt;Node3</title>
<path fill="none" stroke="midnightblue" d="M337.492,-527.483C334.553,-525.938 331.703,-524.276 329,-522.5 293.334,-499.068 261.727,-459.519 245.51,-434.233"/>
<polygon fill="midnightblue" stroke="midnightblue" points="248.45,-432.332 240.253,-425.619 242.475,-435.978 248.45,-432.332"/>
</g>
<!-- Node7&#45;&gt;Node2 -->
<g id="edge12" class="edge"><title>Node7&#45;&gt;Node2</title>
<path fill="none" stroke="midnightblue" d="M457.606,-483.745C508.226,-476.437 582.197,-462.077 642,-435.5 668.389,-423.772 694.957,-404.224 713.26,-389.26"/>
<polygon fill="midnightblue" stroke="midnightblue" points="715.623,-391.847 721.058,-382.753 711.138,-386.473 715.623,-391.847"/>
</g>
<!-- Node7&#45;&gt;Node3 -->
<g id="edge11" class="edge"><title>Node7&#45;&gt;Node3</title>
<path fill="none" stroke="midnightblue" d="M337.344,-479.173C334.504,-477.982 331.709,-476.753 329,-475.5 302.42,-463.207 273.521,-445.855 254.663,-432"/>
<polygon fill="midnightblue" stroke="midnightblue" points="256.566,-429.048 246.509,-425.715 252.292,-434.592 256.566,-429.048"/>
</g>
<!-- Node8&#45;&gt;Node3 -->
<g id="edge14" class="edge"><title>Node8&#45;&gt;Node3</title>
<path fill="none" stroke="midnightblue" d="M328.799,-439.751C312.554,-436.255 295.566,-432.222 280.532,-428.264"/>
<polygon fill="midnightblue" stroke="midnightblue" points="281.035,-424.775 270.468,-425.544 279.208,-431.532 281.035,-424.775"/>
</g>
<!-- Node9&#45;&gt;Node2 -->
<g id="edge19" class="edge"><title>Node9&#45;&gt;Node2</title>
<path fill="none" stroke="midnightblue" d="M458.157,-420.502C507.99,-426.123 580.555,-429.868 642,-415.5 665.04,-410.112 688.902,-398.279 706.948,-387.835"/>
<polygon fill="midnightblue" stroke="midnightblue" points="709.026,-390.671 715.82,-382.541 705.439,-384.66 709.026,-390.671"/>
</g>
<!-- Node9&#45;&gt;Node3 -->
<g id="edge18" class="edge"><title>Node9&#45;&gt;Node3</title>
<path fill="none" stroke="midnightblue" d="M330.269,-418.146C321.333,-418.271 312.146,-418.283 303.161,-418.183"/>
<polygon fill="midnightblue" stroke="midnightblue" points="303.181,-414.683 293.126,-418.022 303.069,-421.682 303.181,-414.683"/>
</g>
<!-- Node9&#45;&gt;Node10 -->
<g id="edge16" class="edge"><title>Node9&#45;&gt;Node10</title>
<path fill="none" stroke="midnightblue" d="M464.7,-404.208C476.799,-402.876 489.455,-401.482 501.643,-400.139"/>
<polygon fill="midnightblue" stroke="midnightblue" points="502.192,-403.6 511.748,-399.026 501.425,-396.642 502.192,-403.6"/>
</g>
<!-- Node10&#45;&gt;Node2 -->
<g id="edge17" class="edge"><title>Node10&#45;&gt;Node2</title>
<path fill="none" stroke="midnightblue" d="M632.208,-383.835C643.704,-382.153 655.849,-380.376 667.637,-378.651"/>
<polygon fill="midnightblue" stroke="midnightblue" points="668.491,-382.063 677.879,-377.152 667.478,-375.137 668.491,-382.063"/>
</g>
<!-- Node11&#45;&gt;Node2 -->
<g id="edge22" class="edge"><title>Node11&#45;&gt;Node2</title>
<path fill="none" stroke="midnightblue" d="M632.208,-353.804C643.704,-355.416 655.849,-357.119 667.637,-358.772"/>
<polygon fill="midnightblue" stroke="midnightblue" points="667.49,-362.286 677.879,-360.209 668.462,-355.354 667.49,-362.286"/>
</g>
<!-- Node12&#45;&gt;Node2 -->
<g id="edge24" class="edge"><title>Node12&#45;&gt;Node2</title>
<path fill="none" stroke="midnightblue" d="M618.24,-312.586C626.227,-315.354 634.411,-318.375 642,-321.5 662.099,-329.776 683.877,-340.421 701.504,-349.487"/>
<polygon fill="midnightblue" stroke="midnightblue" points="700.346,-352.83 710.833,-354.337 703.575,-346.619 700.346,-352.83"/>
</g>
<!-- Node13&#45;&gt;Node2 -->
<g id="edge26" class="edge"><title>Node13&#45;&gt;Node2</title>
<path fill="none" stroke="midnightblue" d="M624.32,-265.64C630.474,-268.188 636.513,-271.129 642,-274.5 673.415,-293.801 702.433,-325.359 719.926,-346.521"/>
<polygon fill="midnightblue" stroke="midnightblue" points="717.249,-348.776 726.262,-354.346 722.689,-344.371 717.249,-348.776"/>
</g>
<!-- Node14&#45;&gt;Node3 -->
<g id="edge28" class="edge"><title>Node14&#45;&gt;Node3</title>
<path fill="none" stroke="midnightblue" d="M372.211,-230.592C358.322,-236.269 341.278,-243.547 329,-254.5 286.558,-292.36 258.382,-353.868 244.382,-387.736"/>
<polygon fill="midnightblue" stroke="midnightblue" points="241.016,-386.721 240.492,-397.303 247.501,-389.358 241.016,-386.721"/>
</g>
<!-- Node16 -->
<g id="node16" class="node"><title>Node16</title>
<g id="a_node16"><a xlink:href="classprior__hessian_1_1ParetoDist.html#abac82051de116baf787e442c705e96c3" target="_top" xlink:title="prior_hessian::ParetoDist\l::check_params">
<polygon fill="white" stroke="black" points="512,-190.5 512,-218.5 632,-218.5 632,-190.5 512,-190.5"/>
<text text-anchor="start" x="520" y="-207.3" font-family="Helvetica,sans-Serif" font-size="9.00">prior_hessian::ParetoDist</text>
<text text-anchor="middle" x="572" y="-197.3" font-family="Helvetica,sans-Serif" font-size="9.00">::check_params</text>
</a>
</g>
</g>
<!-- Node15&#45;&gt;Node16 -->
<g id="edge30" class="edge"><title>Node15&#45;&gt;Node16</title>
<path fill="none" stroke="midnightblue" d="M457.865,-181.545C472.039,-184.421 487.289,-187.515 501.86,-190.472"/>
<polygon fill="midnightblue" stroke="midnightblue" points="501.322,-193.934 511.818,-192.492 502.714,-187.073 501.322,-193.934"/>
</g>
<!-- Node17&#45;&gt;Node2 -->
<g id="edge33" class="edge"><title>Node17&#45;&gt;Node2</title>
<path fill="none" stroke="midnightblue" d="M457.569,-133.864C524.883,-147.233 627.505,-169.054 642,-180.5 695.879,-223.043 721.823,-304.285 731.83,-344.594"/>
<polygon fill="midnightblue" stroke="midnightblue" points="728.432,-345.436 734.139,-354.363 735.244,-343.826 728.432,-345.436"/>
</g>
<!-- Node17&#45;&gt;Node3 -->
<g id="edge32" class="edge"><title>Node17&#45;&gt;Node3</title>
<path fill="none" stroke="midnightblue" d="M361.327,-136.614C349.802,-140.508 337.73,-145.897 329,-154.5 261.968,-220.559 242.049,-337.069 236.277,-387.467"/>
<polygon fill="midnightblue" stroke="midnightblue" points="232.793,-387.135 235.222,-397.447 239.754,-387.871 232.793,-387.135"/>
</g>
<!-- Node18 -->
<g id="node18" class="node"><title>Node18</title>
<g id="a_node18"><a xlink:href="classprior__hessian_1_1ParetoDist.html#a218ebbdec10fbdfcaabdd79dd180b39e" target="_top" xlink:title="prior_hessian::ParetoDist\l::set_params">
<polygon fill="white" stroke="black" points="512,-104.5 512,-132.5 632,-132.5 632,-104.5 512,-104.5"/>
<text text-anchor="start" x="520" y="-121.3" font-family="Helvetica,sans-Serif" font-size="9.00">prior_hessian::ParetoDist</text>
<text text-anchor="middle" x="572" y="-111.3" font-family="Helvetica,sans-Serif" font-size="9.00">::set_params</text>
</a>
</g>
</g>
<!-- Node17&#45;&gt;Node18 -->
<g id="edge34" class="edge"><title>Node17&#45;&gt;Node18</title>
<path fill="none" stroke="midnightblue" d="M457.865,-121.123C471.902,-120.798 486.996,-120.448 501.44,-120.113"/>
<polygon fill="midnightblue" stroke="midnightblue" points="501.902,-123.603 511.818,-119.872 501.74,-116.605 501.902,-123.603"/>
</g>
<!-- Node19&#45;&gt;Node2 -->
<g id="edge39" class="edge"><title>Node19&#45;&gt;Node2</title>
<path fill="none" stroke="midnightblue" d="M457.746,-63.3193C511.432,-55.8472 589.892,-54.2705 642,-94.5 721.974,-156.243 734.942,-289.554 736.812,-344.291"/>
<polygon fill="midnightblue" stroke="midnightblue" points="733.317,-344.524 737.059,-354.436 740.315,-344.354 733.317,-344.524"/>
</g>
<!-- Node19&#45;&gt;Node18 -->
<g id="edge40" class="edge"><title>Node19&#45;&gt;Node18</title>
<path fill="none" stroke="midnightblue" d="M454.983,-89.5798C470.85,-93.5351 488.249,-97.8723 504.636,-101.957"/>
<polygon fill="midnightblue" stroke="midnightblue" points="504.135,-105.439 514.685,-104.462 505.828,-98.6471 504.135,-105.439"/>
</g>
<!-- Node20 -->
<g id="node20" class="node"><title>Node20</title>
<g id="a_node20"><a xlink:href="classprior__hessian_1_1ParetoDist.html#acef10b17c003468838f548ed255d7e1f" target="_top" xlink:title="prior_hessian::ParetoDist::min">
<polygon fill="white" stroke="black" points="502,-28.5 502,-46.5 642,-46.5 642,-28.5 502,-28.5"/>
<text text-anchor="middle" x="572" y="-35.3" font-family="Helvetica,sans-Serif" font-size="9.00">prior_hessian::ParetoDist::min</text>
</a>
</g>
</g>
<!-- Node19&#45;&gt;Node20 -->
<g id="edge36" class="edge"><title>Node19&#45;&gt;Node20</title>
<path fill="none" stroke="midnightblue" d="M457.865,-62.4226C478.114,-57.9617 500.561,-53.017 520.087,-48.7157"/>
<polygon fill="midnightblue" stroke="midnightblue" points="520.991,-52.1005 530.004,-46.5311 519.485,-45.2644 520.991,-52.1005"/>
</g>
<!-- Node21 -->
<g id="node21" class="node"><title>Node21</title>
<g id="a_node21"><a xlink:href="classprior__hessian_1_1ParetoDist.html#ace279cdfa7dbdcd8805ddb2ec4b46ee2" target="_top" xlink:title="prior_hessian::ParetoDist\l::set_min">
<polygon fill="white" stroke="black" points="678,-47.5 678,-75.5 798,-75.5 798,-47.5 678,-47.5"/>
<text text-anchor="start" x="686" y="-64.3" font-family="Helvetica,sans-Serif" font-size="9.00">prior_hessian::ParetoDist</text>
<text text-anchor="middle" x="738" y="-54.3" font-family="Helvetica,sans-Serif" font-size="9.00">::set_min</text>
</a>
</g>
</g>
<!-- Node20&#45;&gt;Node21 -->
<g id="edge37" class="edge"><title>Node20&#45;&gt;Node21</title>
<path fill="none" stroke="midnightblue" d="M634.534,-46.505C645.39,-48.0936 656.757,-49.7571 667.806,-51.374"/>
<polygon fill="midnightblue" stroke="midnightblue" points="667.438,-54.8574 677.839,-52.8423 668.452,-47.9311 667.438,-54.8574"/>
</g>
<!-- Node22 -->
<g id="node22" class="node"><title>Node22</title>
<g id="a_node22"><a xlink:href="classprior__hessian_1_1ParetoDist.html#a5c2b026477495e3fc91a1cfb653d8a97" target="_top" xlink:title="prior_hessian::ParetoDist\l::set_alpha">
<polygon fill="white" stroke="black" points="678,-0.5 678,-28.5 798,-28.5 798,-0.5 678,-0.5"/>
<text text-anchor="start" x="686" y="-17.3" font-family="Helvetica,sans-Serif" font-size="9.00">prior_hessian::ParetoDist</text>
<text text-anchor="middle" x="738" y="-7.3" font-family="Helvetica,sans-Serif" font-size="9.00">::set_alpha</text>
</a>
</g>
</g>
<!-- Node20&#45;&gt;Node22 -->
<g id="edge38" class="edge"><title>Node20&#45;&gt;Node22</title>
<path fill="none" stroke="midnightblue" d="M637.346,-28.4758C647.375,-27.0694 657.773,-25.6112 667.901,-24.1907"/>
<polygon fill="midnightblue" stroke="midnightblue" points="668.499,-27.6411 677.916,-22.7861 667.527,-20.709 668.499,-27.6411"/>
</g>
</g>
</svg>
        <g id="navigator" transform="translate(0 0)" fill="#404254">
                <rect fill="#f2f5e9" fill-opacity="0.5" stroke="#606060" stroke-width=".5" x="0" y="0" width="60" height="60"/>
                <use id="zoomplus" xlink:href="#zoomPlus" x="17" y="9" onmousedown="handleZoom(evt,'in')"/>
                <use id="zoomminus" xlink:href="#zoomMin" x="42" y="9" onmousedown="handleZoom(evt,'out')"/>
                <use id="reset" xlink:href="#resetDef" x="30" y="36" onmousedown="handleReset()"/>
                <g id="arrowUp" xlink:href="#dirArrow" transform="translate(30 24)" onmousedown="handlePan(0,-1)">
                  <use xlink:href="#rim" fill="#404040">
                        <set attributeName="fill" to="#808080" begin="arrowUp.mouseover" end="arrowUp.mouseout"/>
                  </use>
                  <path fill="none" stroke="white" stroke-width="1.5" d="M0,-3.0v7 M-2.5,-0.5L0,-3.0L2.5,-0.5"/>
                </g>
                <g id="arrowRight" xlink:href="#dirArrow" transform="rotate(90) translate(36 -43)" onmousedown="handlePan(1,0)">
                  <use xlink:href="#rim" fill="#404040">
                        <set attributeName="fill" to="#808080" begin="arrowRight.mouseover" end="arrowRight.mouseout"/>
                  </use>
                  <path fill="none" stroke="white" stroke-width="1.5" d="M0,-3.0v7 M-2.5,-0.5L0,-3.0L2.5,-0.5"/>
                </g>
                <g id="arrowDown" xlink:href="#dirArrow" transform="rotate(180) translate(-30 -48)" onmousedown="handlePan(0,1)">
                  <use xlink:href="#rim" fill="#404040">
                        <set attributeName="fill" to="#808080" begin="arrowDown.mouseover" end="arrowDown.mouseout"/>
                  </use>
                  <path fill="none" stroke="white" stroke-width="1.5" d="M0,-3.0v7 M-2.5,-0.5L0,-3.0L2.5,-0.5"/>
                </g>
                <g id="arrowLeft" xlink:href="#dirArrow" transform="rotate(270) translate(-36 17)" onmousedown="handlePan(-1,0)">
                  <use xlink:href="#rim" fill="#404040">
                        <set attributeName="fill" to="#808080" begin="arrowLeft.mouseover" end="arrowLeft.mouseout"/>
                  </use>
                  <path fill="none" stroke="white" stroke-width="1.5" d="M0,-3.0v7 M-2.5,-0.5L0,-3.0L2.5,-0.5"/>
                </g>
        </g>
        <svg viewBox="0 0 15 15" width="100%" height="30px" preserveAspectRatio="xMaxYMin meet">
         <g id="arrow_out" transform="scale(0.3 0.3)">
          <a xlink:href="classprior__hessian_1_1ParetoDist_afe706cb12ce6f667e7a3a9eb7311ef65_cgraph_org.svg" target="_base">
           <rect id="button" ry="5" rx="5" y="6" x="6" height="38" width="38"
                fill="#f2f5e9" fill-opacity="0.5" stroke="#606060" stroke-width="1.0"/>
           <path id="arrow"
             d="M 11.500037,31.436501 C 11.940474,20.09759 22.043105,11.32322 32.158766,21.979434 L 37.068811,17.246167 C 37.068811,17.246167 37.088388,32 37.088388,32 L 22.160133,31.978069 C 22.160133,31.978069 26.997745,27.140456 26.997745,27.140456 C 18.528582,18.264221 13.291696,25.230495 11.500037,31.436501 z"
             style="fill:#404040;"/>
          </a>
         </g>
        </svg>
</svg>
