<?xml version="1.0" encoding="UTF-8" standalone="no"?>
<!DOCTYPE svg PUBLIC "-//W3C//DTD SVG 1.1//EN"
 "http://www.w3.org/Graphics/SVG/1.1/DTD/svg11.dtd">
<!-- Generated by graphviz version 2.38.0 (20140413.2041)
 -->
<!-- Title: prior_hessian::MultivariateNormalDist::check_mu Pages: 1 -->
<!--zoomable 193 -->
<svg id="main" version="1.1" xmlns="http://www.w3.org/2000/svg" xmlns:xlink="http://www.w3.org/1999/xlink" xml:space="preserve" onload="init(evt)">
<style type="text/css"><![CDATA[
.edge:hover path { stroke: red; }
.edge:hover polygon { stroke: red; fill: red; }
]]></style>
<script type="text/javascript"><![CDATA[
var edges = document.getElementsByTagName('g');
if (edges && edges.length) {
  for (var i=0;i<edges.length;i++) {
    if (edges[i].id.substr(0,4)=='edge') {
      edges[i].setAttribute('class','edge');
    }
  }
}
]]></script>
        <defs>
                <circle id="rim" cx="0" cy="0" r="7"/>
                <circle id="rim2" cx="0" cy="0" r="3.5"/>
                <g id="zoomPlus">
                        <use xlink:href="#rim" fill="#404040">
                                <set attributeName="fill" to="#808080" begin="zoomplus.mouseover" end="zoomplus.mouseout"/>
                        </use>
                        <path d="M-4,0h8M0,-4v8" fill="none" stroke="white" stroke-width="1.5" pointer-events="none"/>
                </g>
                <g id="zoomMin">
                        <use xlink:href="#rim" fill="#404040">
                                <set attributeName="fill" to="#808080" begin="zoomminus.mouseover" end="zoomminus.mouseout"/>
                        </use>
                        <path d="M-4,0h8" fill="none" stroke="white" stroke-width="1.5" pointer-events="none"/>
                </g>
                <g id="dirArrow">
                        <path fill="none" stroke="white" stroke-width="1.5" d="M0,-3.0v7 M-2.5,-0.5L0,-3.0L2.5,-0.5"/>
                </g>
               <g id="resetDef">
                       <use xlink:href="#rim2" fill="#404040">
                               <set attributeName="fill" to="#808080" begin="reset.mouseover" end="reset.mouseout"/>
                       </use>
               </g>
        </defs>

<script type="text/javascript">
var viewWidth = 822;
var viewHeight = 193;
var sectionId = 'dynsection-8';
</script>
<script xlink:href="svgpan.js"/>
<svg id="graph" class="graph">
<g id="viewport">
<title>prior_hessian::MultivariateNormalDist::check_mu</title>
<polygon fill="white" stroke="none" points="-4,4 -4,-189 818,-189 818,4 -4,4"/>
<!-- Node1 -->
<g id="node1" class="node"><title>Node1</title>
<polygon fill="#bfbfbf" stroke="black" points="0,-113.5 0,-141.5 125,-141.5 125,-113.5 0,-113.5"/>
<text text-anchor="start" x="8" y="-130.3" font-family="Helvetica,sans-Serif" font-size="9.00">prior_hessian::Multivariate</text>
<text text-anchor="middle" x="62.5" y="-120.3" font-family="Helvetica,sans-Serif" font-size="9.00">NormalDist::check_mu</text>
</g>
<!-- Node2 -->
<g id="node2" class="node"><title>Node2</title>
<g id="a_node2"><a xlink:href="classprior__hessian_1_1MultivariateNormalDist.html#a820f14758b3a02e29e0498e02fca7e07" target="_top" xlink:title="prior_hessian::Multivariate\lNormalDist::check_params">
<polygon fill="white" stroke="black" points="161,-156.5 161,-184.5 288,-184.5 288,-156.5 161,-156.5"/>
<text text-anchor="start" x="169" y="-173.3" font-family="Helvetica,sans-Serif" font-size="9.00">prior_hessian::Multivariate</text>
<text text-anchor="middle" x="224.5" y="-163.3" font-family="Helvetica,sans-Serif" font-size="9.00">NormalDist::check_params</text>
</a>
</g>
</g>
<!-- Node1&#45;&gt;Node2 -->
<g id="edge1" class="edge"><title>Node1&#45;&gt;Node2</title>
<path fill="none" stroke="midnightblue" d="M125.647,-144.202C140.726,-148.255 156.697,-152.547 171.266,-156.462"/>
<polygon fill="midnightblue" stroke="midnightblue" points="126.456,-140.795 115.89,-141.58 124.639,-147.555 126.456,-140.795"/>
</g>
<!-- Node3 -->
<g id="node3" class="node"><title>Node3</title>
<g id="a_node3"><a xlink:href="classprior__hessian_1_1MultivariateNormalDist.html#aedb257f189a46f8b1ee36a1b344648c3" target="_top" xlink:title="prior_hessian::Multivariate\lNormalDist::in_bounds">
<polygon fill="white" stroke="black" points="341.5,-117.5 341.5,-145.5 466.5,-145.5 466.5,-117.5 341.5,-117.5"/>
<text text-anchor="start" x="349.5" y="-134.3" font-family="Helvetica,sans-Serif" font-size="9.00">prior_hessian::Multivariate</text>
<text text-anchor="middle" x="404" y="-124.3" font-family="Helvetica,sans-Serif" font-size="9.00">NormalDist::in_bounds</text>
</a>
</g>
</g>
<!-- Node1&#45;&gt;Node3 -->
<g id="edge3" class="edge"><title>Node1&#45;&gt;Node3</title>
<path fill="none" stroke="midnightblue" d="M135.708,-128.351C196.786,-129.07 283.364,-130.09 341.264,-130.773"/>
<polygon fill="midnightblue" stroke="midnightblue" points="135.415,-124.847 125.375,-128.229 135.333,-131.847 135.415,-124.847"/>
</g>
<!-- Node4 -->
<g id="node4" class="node"><title>Node4</title>
<g id="a_node4"><a xlink:href="classprior__hessian_1_1MultivariateNormalDist.html#a3a232f67a79457c91ce1c061a19d18bc" target="_top" xlink:title="prior_hessian::Multivariate\lNormalDist::set_mu">
<polygon fill="white" stroke="black" points="162,-70.5 162,-98.5 287,-98.5 287,-70.5 162,-70.5"/>
<text text-anchor="start" x="170" y="-87.3" font-family="Helvetica,sans-Serif" font-size="9.00">prior_hessian::Multivariate</text>
<text text-anchor="middle" x="224.5" y="-77.3" font-family="Helvetica,sans-Serif" font-size="9.00">NormalDist::set_mu</text>
</a>
</g>
</g>
<!-- Node1&#45;&gt;Node4 -->
<g id="edge4" class="edge"><title>Node1&#45;&gt;Node4</title>
<path fill="none" stroke="midnightblue" d="M125.647,-110.798C140.726,-106.745 156.697,-102.453 171.266,-98.538"/>
<polygon fill="midnightblue" stroke="midnightblue" points="124.639,-107.445 115.89,-113.42 126.456,-114.205 124.639,-107.445"/>
</g>
<!-- Node2&#45;&gt;Node3 -->
<g id="edge2" class="edge"><title>Node2&#45;&gt;Node3</title>
<path fill="none" stroke="midnightblue" d="M297.926,-154.587C312.314,-151.425 327.294,-148.134 341.284,-145.06"/>
<polygon fill="midnightblue" stroke="midnightblue" points="297.096,-151.186 288.08,-156.75 298.598,-158.022 297.096,-151.186"/>
</g>
<!-- Node4&#45;&gt;Node3 -->
<g id="edge5" class="edge"><title>Node4&#45;&gt;Node3</title>
<path fill="none" stroke="midnightblue" d="M288.474,-101.175C308.629,-106.512 330.726,-112.363 350.088,-117.489"/>
<polygon fill="midnightblue" stroke="midnightblue" points="289.319,-97.7779 278.756,-98.6015 287.527,-104.545 289.319,-97.7779"/>
</g>
<!-- Node5 -->
<g id="node5" class="node"><title>Node5</title>
<g id="a_node5"><a xlink:href="classprior__hessian_1_1MultivariateNormalDist.html#ab97d0301af152e72c9e6f6d3672d30e0" target="_top" xlink:title="prior_hessian::Multivariate\lNormalDist::MultivariateNormalDist">
<polygon fill="white" stroke="black" points="324,-70.5 324,-98.5 484,-98.5 484,-70.5 324,-70.5"/>
<text text-anchor="start" x="332" y="-87.3" font-family="Helvetica,sans-Serif" font-size="9.00">prior_hessian::Multivariate</text>
<text text-anchor="middle" x="404" y="-77.3" font-family="Helvetica,sans-Serif" font-size="9.00">NormalDist::MultivariateNormalDist</text>
</a>
</g>
</g>
<!-- Node4&#45;&gt;Node5 -->
<g id="edge6" class="edge"><title>Node4&#45;&gt;Node5</title>
<path fill="none" stroke="midnightblue" d="M297.199,-84.5C305.925,-84.5 314.878,-84.5 323.706,-84.5"/>
<polygon fill="midnightblue" stroke="midnightblue" points="297.083,-81.0001 287.083,-84.5 297.083,-88.0001 297.083,-81.0001"/>
</g>
<!-- Node6 -->
<g id="node6" class="node"><title>Node6</title>
<g id="a_node6"><a xlink:href="classprior__hessian_1_1MultivariateNormalDist.html#af968e071050a9b2ba4b4ef96b206602b" target="_top" xlink:title="prior_hessian::Multivariate\lNormalDist::set_params">
<polygon fill="white" stroke="black" points="341.5,-23.5 341.5,-51.5 466.5,-51.5 466.5,-23.5 341.5,-23.5"/>
<text text-anchor="start" x="349.5" y="-40.3" font-family="Helvetica,sans-Serif" font-size="9.00">prior_hessian::Multivariate</text>
<text text-anchor="middle" x="404" y="-30.3" font-family="Helvetica,sans-Serif" font-size="9.00">NormalDist::set_params</text>
</a>
</g>
</g>
<!-- Node4&#45;&gt;Node6 -->
<g id="edge7" class="edge"><title>Node4&#45;&gt;Node6</title>
<path fill="none" stroke="midnightblue" d="M288.474,-67.8253C308.629,-62.4885 330.726,-56.6374 350.088,-51.5106"/>
<polygon fill="midnightblue" stroke="midnightblue" points="287.527,-64.4553 278.756,-70.3985 289.319,-71.2221 287.527,-64.4553"/>
</g>
<!-- Node7 -->
<g id="node7" class="node"><title>Node7</title>
<g id="a_node7"><a xlink:href="classprior__hessian_1_1MultivariateNormalDist.html#a5bdf1c751f8da8a9043542ed080bb230" target="_top" xlink:title="prior_hessian::Multivariate\lNormalDist::operator!=">
<polygon fill="white" stroke="black" points="524,-47.5 524,-75.5 649,-75.5 649,-47.5 524,-47.5"/>
<text text-anchor="start" x="532" y="-64.3" font-family="Helvetica,sans-Serif" font-size="9.00">prior_hessian::Multivariate</text>
<text text-anchor="middle" x="586.5" y="-54.3" font-family="Helvetica,sans-Serif" font-size="9.00">NormalDist::operator!=</text>
</a>
</g>
</g>
<!-- Node6&#45;&gt;Node7 -->
<g id="edge8" class="edge"><title>Node6&#45;&gt;Node7</title>
<path fill="none" stroke="midnightblue" d="M476.73,-47.0375C492.326,-49.1112 508.693,-51.2875 523.858,-53.3039"/>
<polygon fill="midnightblue" stroke="midnightblue" points="476.987,-43.541 466.613,-45.6923 476.064,-50.4799 476.987,-43.541"/>
</g>
<!-- Node8 -->
<g id="node8" class="node"><title>Node8</title>
<g id="a_node8"><a xlink:href="classprior__hessian_1_1MultivariateNormalDist.html#ad4842325329050c2fc4386096b3496dd" target="_top" xlink:title="prior_hessian::Multivariate\lNormalDist::set_params_iter">
<polygon fill="white" stroke="black" points="520,-0.5 520,-28.5 653,-28.5 653,-0.5 520,-0.5"/>
<text text-anchor="start" x="528" y="-17.3" font-family="Helvetica,sans-Serif" font-size="9.00">prior_hessian::Multivariate</text>
<text text-anchor="middle" x="586.5" y="-7.3" font-family="Helvetica,sans-Serif" font-size="9.00">NormalDist::set_params_iter</text>
</a>
</g>
</g>
<!-- Node6&#45;&gt;Node8 -->
<g id="edge9" class="edge"><title>Node6&#45;&gt;Node8</title>
<path fill="none" stroke="midnightblue" d="M476.821,-28.3483C491.024,-26.5385 505.863,-24.6476 519.849,-22.8655"/>
<polygon fill="midnightblue" stroke="midnightblue" points="476.09,-24.913 466.613,-29.649 476.975,-31.8569 476.09,-24.913"/>
</g>
<!-- Node9 -->
<g id="node9" class="node"><title>Node9</title>
<g id="a_node9"><a xlink:href="classprior__hessian_1_1MultivariateNormalDist.html#afdec8e6a453a2c69e0d84833d6b3e5ae" target="_top" xlink:title="prior_hessian::Multivariate\lNormalDist::mode">
<polygon fill="white" stroke="black" points="689,-0.5 689,-28.5 814,-28.5 814,-0.5 689,-0.5"/>
<text text-anchor="start" x="697" y="-17.3" font-family="Helvetica,sans-Serif" font-size="9.00">prior_hessian::Multivariate</text>
<text text-anchor="middle" x="751.5" y="-7.3" font-family="Helvetica,sans-Serif" font-size="9.00">NormalDist::mode</text>
</a>
</g>
</g>
<!-- Node8&#45;&gt;Node9 -->
<g id="edge10" class="edge"><title>Node8&#45;&gt;Node9</title>
<path fill="none" stroke="midnightblue" d="M663.608,-14.5C672.087,-14.5 680.644,-14.5 688.91,-14.5"/>
<polygon fill="midnightblue" stroke="midnightblue" points="663.329,-11.0001 653.328,-14.5 663.328,-18.0001 663.329,-11.0001"/>
</g>
</g>
</svg>
        <g id="navigator" transform="translate(0 0)" fill="#404254">
                <rect fill="#f2f5e9" fill-opacity="0.5" stroke="#606060" stroke-width=".5" x="0" y="0" width="60" height="60"/>
                <use id="zoomplus" xlink:href="#zoomPlus" x="17" y="9" onmousedown="handleZoom(evt,'in')"/>
                <use id="zoomminus" xlink:href="#zoomMin" x="42" y="9" onmousedown="handleZoom(evt,'out')"/>
                <use id="reset" xlink:href="#resetDef" x="30" y="36" onmousedown="handleReset()"/>
                <g id="arrowUp" xlink:href="#dirArrow" transform="translate(30 24)" onmousedown="handlePan(0,-1)">
                  <use xlink:href="#rim" fill="#404040">
                        <set attributeName="fill" to="#808080" begin="arrowUp.mouseover" end="arrowUp.mouseout"/>
                  </use>
                  <path fill="none" stroke="white" stroke-width="1.5" d="M0,-3.0v7 M-2.5,-0.5L0,-3.0L2.5,-0.5"/>
                </g>
                <g id="arrowRight" xlink:href="#dirArrow" transform="rotate(90) translate(36 -43)" onmousedown="handlePan(1,0)">
                  <use xlink:href="#rim" fill="#404040">
                        <set attributeName="fill" to="#808080" begin="arrowRight.mouseover" end="arrowRight.mouseout"/>
                  </use>
                  <path fill="none" stroke="white" stroke-width="1.5" d="M0,-3.0v7 M-2.5,-0.5L0,-3.0L2.5,-0.5"/>
                </g>
                <g id="arrowDown" xlink:href="#dirArrow" transform="rotate(180) translate(-30 -48)" onmousedown="handlePan(0,1)">
                  <use xlink:href="#rim" fill="#404040">
                        <set attributeName="fill" to="#808080" begin="arrowDown.mouseover" end="arrowDown.mouseout"/>
                  </use>
                  <path fill="none" stroke="white" stroke-width="1.5" d="M0,-3.0v7 M-2.5,-0.5L0,-3.0L2.5,-0.5"/>
                </g>
                <g id="arrowLeft" xlink:href="#dirArrow" transform="rotate(270) translate(-36 17)" onmousedown="handlePan(-1,0)">
                  <use xlink:href="#rim" fill="#404040">
                        <set attributeName="fill" to="#808080" begin="arrowLeft.mouseover" end="arrowLeft.mouseout"/>
                  </use>
                  <path fill="none" stroke="white" stroke-width="1.5" d="M0,-3.0v7 M-2.5,-0.5L0,-3.0L2.5,-0.5"/>
                </g>
        </g>
        <svg viewBox="0 0 15 15" width="100%" height="30px" preserveAspectRatio="xMaxYMin meet">
         <g id="arrow_out" transform="scale(0.3 0.3)">
          <a xlink:href="classprior__hessian_1_1MultivariateNormalDist_af202c613f03a8d07d9ab80ead9f4064b_icgraph_org.svg" target="_base">
           <rect id="button" ry="5" rx="5" y="6" x="6" height="38" width="38"
                fill="#f2f5e9" fill-opacity="0.5" stroke="#606060" stroke-width="1.0"/>
           <path id="arrow"
             d="M 11.500037,31.436501 C 11.940474,20.09759 22.043105,11.32322 32.158766,21.979434 L 37.068811,17.246167 C 37.068811,17.246167 37.088388,32 37.088388,32 L 22.160133,31.978069 C 22.160133,31.978069 26.997745,27.140456 26.997745,27.140456 C 18.528582,18.264221 13.291696,25.230495 11.500037,31.436501 z"
             style="fill:#404040;"/>
          </a>
         </g>
        </svg>
</svg>
