<?xml version="1.0" encoding="UTF-8" standalone="no"?>
<!DOCTYPE svg PUBLIC "-//W3C//DTD SVG 1.1//EN"
 "http://www.w3.org/Graphics/SVG/1.1/DTD/svg11.dtd">
<!-- Generated by graphviz version 2.38.0 (20140413.2041)
 -->
<!-- Title: prior_hessian::MultivariateNormalDist::set_mu Pages: 1 -->
<svg width="659pt" height="154pt"
 viewBox="0.00 0.00 659.00 154.00" xmlns="http://www.w3.org/2000/svg" xmlns:xlink="http://www.w3.org/1999/xlink">
<g id="graph0" class="graph" transform="scale(1 1) rotate(0) translate(4 150)">
<title>prior_hessian::MultivariateNormalDist::set_mu</title>
<polygon fill="white" stroke="none" points="-4,4 -4,-150 655,-150 655,4 -4,4"/>
<!-- Node1 -->
<g id="node1" class="node"><title>Node1</title>
<polygon fill="#bfbfbf" stroke="black" points="0,-70.5 0,-98.5 125,-98.5 125,-70.5 0,-70.5"/>
<text text-anchor="start" x="8" y="-87.3" font-family="Helvetica,sans-Serif" font-size="9.00">prior_hessian::Multivariate</text>
<text text-anchor="middle" x="62.5" y="-77.3" font-family="Helvetica,sans-Serif" font-size="9.00">NormalDist::set_mu</text>
</g>
<!-- Node2 -->
<g id="node2" class="node"><title>Node2</title>
<g id="a_node2"><a xlink:href="classprior__hessian_1_1MultivariateNormalDist.html#aedb257f189a46f8b1ee36a1b344648c3" target="_top" xlink:title="prior_hessian::Multivariate\lNormalDist::in_bounds">
<polygon fill="white" stroke="black" points="178.5,-117.5 178.5,-145.5 303.5,-145.5 303.5,-117.5 178.5,-117.5"/>
<text text-anchor="start" x="186.5" y="-134.3" font-family="Helvetica,sans-Serif" font-size="9.00">prior_hessian::Multivariate</text>
<text text-anchor="middle" x="241" y="-124.3" font-family="Helvetica,sans-Serif" font-size="9.00">NormalDist::in_bounds</text>
</a>
</g>
</g>
<!-- Node1&#45;&gt;Node2 -->
<g id="edge1" class="edge"><title>Node1&#45;&gt;Node2</title>
<path fill="none" stroke="midnightblue" d="M126.392,-101.248C146.36,-106.565 168.22,-112.386 187.386,-117.489"/>
<polygon fill="midnightblue" stroke="midnightblue" points="127.02,-97.7927 116.456,-98.6015 125.218,-104.557 127.02,-97.7927"/>
</g>
<!-- Node3 -->
<g id="node3" class="node"><title>Node3</title>
<g id="a_node3"><a xlink:href="classprior__hessian_1_1MultivariateNormalDist.html#ab97d0301af152e72c9e6f6d3672d30e0" target="_top" xlink:title="prior_hessian::Multivariate\lNormalDist::MultivariateNormalDist">
<polygon fill="white" stroke="black" points="161,-70.5 161,-98.5 321,-98.5 321,-70.5 161,-70.5"/>
<text text-anchor="start" x="169" y="-87.3" font-family="Helvetica,sans-Serif" font-size="9.00">prior_hessian::Multivariate</text>
<text text-anchor="middle" x="241" y="-77.3" font-family="Helvetica,sans-Serif" font-size="9.00">NormalDist::MultivariateNormalDist</text>
</a>
</g>
</g>
<!-- Node1&#45;&gt;Node3 -->
<g id="edge2" class="edge"><title>Node1&#45;&gt;Node3</title>
<path fill="none" stroke="midnightblue" d="M135.376,-84.5C143.795,-84.5 152.42,-84.5 160.93,-84.5"/>
<polygon fill="midnightblue" stroke="midnightblue" points="135.231,-81.0001 125.231,-84.5 135.231,-88.0001 135.231,-81.0001"/>
</g>
<!-- Node4 -->
<g id="node4" class="node"><title>Node4</title>
<g id="a_node4"><a xlink:href="classprior__hessian_1_1MultivariateNormalDist.html#af968e071050a9b2ba4b4ef96b206602b" target="_top" xlink:title="prior_hessian::Multivariate\lNormalDist::set_params">
<polygon fill="white" stroke="black" points="178.5,-23.5 178.5,-51.5 303.5,-51.5 303.5,-23.5 178.5,-23.5"/>
<text text-anchor="start" x="186.5" y="-40.3" font-family="Helvetica,sans-Serif" font-size="9.00">prior_hessian::Multivariate</text>
<text text-anchor="middle" x="241" y="-30.3" font-family="Helvetica,sans-Serif" font-size="9.00">NormalDist::set_params</text>
</a>
</g>
</g>
<!-- Node1&#45;&gt;Node4 -->
<g id="edge3" class="edge"><title>Node1&#45;&gt;Node4</title>
<path fill="none" stroke="midnightblue" d="M126.392,-67.7525C146.36,-62.4353 168.22,-56.6141 187.386,-51.5106"/>
<polygon fill="midnightblue" stroke="midnightblue" points="125.218,-64.443 116.456,-70.3985 127.02,-71.2073 125.218,-64.443"/>
</g>
<!-- Node5 -->
<g id="node5" class="node"><title>Node5</title>
<g id="a_node5"><a xlink:href="classprior__hessian_1_1MultivariateNormalDist.html#a5bdf1c751f8da8a9043542ed080bb230" target="_top" xlink:title="prior_hessian::Multivariate\lNormalDist::operator!=">
<polygon fill="white" stroke="black" points="361,-47.5 361,-75.5 486,-75.5 486,-47.5 361,-47.5"/>
<text text-anchor="start" x="369" y="-64.3" font-family="Helvetica,sans-Serif" font-size="9.00">prior_hessian::Multivariate</text>
<text text-anchor="middle" x="423.5" y="-54.3" font-family="Helvetica,sans-Serif" font-size="9.00">NormalDist::operator!=</text>
</a>
</g>
</g>
<!-- Node4&#45;&gt;Node5 -->
<g id="edge4" class="edge"><title>Node4&#45;&gt;Node5</title>
<path fill="none" stroke="midnightblue" d="M313.73,-47.0375C329.326,-49.1112 345.693,-51.2875 360.858,-53.3039"/>
<polygon fill="midnightblue" stroke="midnightblue" points="313.987,-43.541 303.613,-45.6923 313.064,-50.4799 313.987,-43.541"/>
</g>
<!-- Node6 -->
<g id="node6" class="node"><title>Node6</title>
<g id="a_node6"><a xlink:href="classprior__hessian_1_1MultivariateNormalDist.html#ad4842325329050c2fc4386096b3496dd" target="_top" xlink:title="prior_hessian::Multivariate\lNormalDist::set_params_iter">
<polygon fill="white" stroke="black" points="357,-0.5 357,-28.5 490,-28.5 490,-0.5 357,-0.5"/>
<text text-anchor="start" x="365" y="-17.3" font-family="Helvetica,sans-Serif" font-size="9.00">prior_hessian::Multivariate</text>
<text text-anchor="middle" x="423.5" y="-7.3" font-family="Helvetica,sans-Serif" font-size="9.00">NormalDist::set_params_iter</text>
</a>
</g>
</g>
<!-- Node4&#45;&gt;Node6 -->
<g id="edge5" class="edge"><title>Node4&#45;&gt;Node6</title>
<path fill="none" stroke="midnightblue" d="M313.821,-28.3483C328.024,-26.5385 342.863,-24.6476 356.849,-22.8655"/>
<polygon fill="midnightblue" stroke="midnightblue" points="313.09,-24.913 303.613,-29.649 313.975,-31.8569 313.09,-24.913"/>
</g>
<!-- Node7 -->
<g id="node7" class="node"><title>Node7</title>
<g id="a_node7"><a xlink:href="classprior__hessian_1_1MultivariateNormalDist.html#afdec8e6a453a2c69e0d84833d6b3e5ae" target="_top" xlink:title="prior_hessian::Multivariate\lNormalDist::mode">
<polygon fill="white" stroke="black" points="526,-0.5 526,-28.5 651,-28.5 651,-0.5 526,-0.5"/>
<text text-anchor="start" x="534" y="-17.3" font-family="Helvetica,sans-Serif" font-size="9.00">prior_hessian::Multivariate</text>
<text text-anchor="middle" x="588.5" y="-7.3" font-family="Helvetica,sans-Serif" font-size="9.00">NormalDist::mode</text>
</a>
</g>
</g>
<!-- Node6&#45;&gt;Node7 -->
<g id="edge6" class="edge"><title>Node6&#45;&gt;Node7</title>
<path fill="none" stroke="midnightblue" d="M500.608,-14.5C509.087,-14.5 517.644,-14.5 525.91,-14.5"/>
<polygon fill="midnightblue" stroke="midnightblue" points="500.329,-11.0001 490.328,-14.5 500.328,-18.0001 500.329,-11.0001"/>
</g>
</g>
</svg>
