<?xml version="1.0" encoding="UTF-8" standalone="no"?>
<!DOCTYPE svg PUBLIC "-//W3C//DTD SVG 1.1//EN"
 "http://www.w3.org/Graphics/SVG/1.1/DTD/svg11.dtd">
<!-- Generated by graphviz version 2.38.0 (20140413.2041)
 -->
<!-- Title: prior_hessian::GammaDist::param_ubound Pages: 1 -->
<svg width="455pt" height="248pt"
 viewBox="0.00 0.00 455.00 248.00" xmlns="http://www.w3.org/2000/svg" xmlns:xlink="http://www.w3.org/1999/xlink">
<g id="graph0" class="graph" transform="scale(1 1) rotate(0) translate(4 244)">
<title>prior_hessian::GammaDist::param_ubound</title>
<polygon fill="white" stroke="none" points="-4,4 -4,-244 451,-244 451,4 -4,4"/>
<!-- Node1 -->
<g id="node1" class="node"><title>Node1</title>
<polygon fill="#bfbfbf" stroke="black" points="0,-117.5 0,-145.5 125,-145.5 125,-117.5 0,-117.5"/>
<text text-anchor="start" x="8" y="-134.3" font-family="Helvetica,sans-Serif" font-size="9.00">prior_hessian::GammaDist</text>
<text text-anchor="middle" x="62.5" y="-124.3" font-family="Helvetica,sans-Serif" font-size="9.00">::param_ubound</text>
</g>
<!-- Node2 -->
<g id="node2" class="node"><title>Node2</title>
<g id="a_node2"><a xlink:href="classprior__hessian_1_1GammaDist.html#aee83cfdf65aa5f0c9aab22e6a34a5294" target="_top" xlink:title="prior_hessian::GammaDist\l::check_params">
<polygon fill="white" stroke="black" points="161,-211.5 161,-239.5 286,-239.5 286,-211.5 161,-211.5"/>
<text text-anchor="start" x="169" y="-228.3" font-family="Helvetica,sans-Serif" font-size="9.00">prior_hessian::GammaDist</text>
<text text-anchor="middle" x="223.5" y="-218.3" font-family="Helvetica,sans-Serif" font-size="9.00">::check_params</text>
</a>
</g>
</g>
<!-- Node1&#45;&gt;Node2 -->
<g id="edge1" class="edge"><title>Node1&#45;&gt;Node2</title>
<path fill="none" stroke="midnightblue" d="M79.829,-145.549C98.4815,-161.066 130.39,-186.03 161,-202.5 164.106,-204.171 167.359,-205.774 170.679,-207.301"/>
<polygon fill="midnightblue" stroke="midnightblue" points="169.576,-210.638 180.143,-211.397 172.356,-204.213 169.576,-210.638"/>
</g>
<!-- Node3 -->
<g id="node3" class="node"><title>Node3</title>
<g id="a_node3"><a xlink:href="classprior__hessian_1_1GammaDist.html#aba5c79517670be73685664a3832bf372" target="_top" xlink:title="prior_hessian::GammaDist\l::GammaDist">
<polygon fill="white" stroke="black" points="161,-164.5 161,-192.5 286,-192.5 286,-164.5 161,-164.5"/>
<text text-anchor="start" x="169" y="-181.3" font-family="Helvetica,sans-Serif" font-size="9.00">prior_hessian::GammaDist</text>
<text text-anchor="middle" x="223.5" y="-171.3" font-family="Helvetica,sans-Serif" font-size="9.00">::GammaDist</text>
</a>
</g>
</g>
<!-- Node1&#45;&gt;Node3 -->
<g id="edge2" class="edge"><title>Node1&#45;&gt;Node3</title>
<path fill="none" stroke="midnightblue" d="M111.205,-145.602C128.262,-150.644 147.657,-156.377 165.424,-161.629"/>
<polygon fill="midnightblue" stroke="midnightblue" points="164.521,-165.011 175.103,-164.489 166.505,-158.298 164.521,-165.011"/>
</g>
<!-- Node4 -->
<g id="node4" class="node"><title>Node4</title>
<g id="a_node4"><a xlink:href="classprior__hessian_1_1GammaDist.html#a8d30af8f996353fdae1d19a43bf6b016" target="_top" xlink:title="prior_hessian::GammaDist\l::params">
<polygon fill="white" stroke="black" points="161,-117.5 161,-145.5 286,-145.5 286,-117.5 161,-117.5"/>
<text text-anchor="start" x="169" y="-134.3" font-family="Helvetica,sans-Serif" font-size="9.00">prior_hessian::GammaDist</text>
<text text-anchor="middle" x="223.5" y="-124.3" font-family="Helvetica,sans-Serif" font-size="9.00">::params</text>
</a>
</g>
</g>
<!-- Node1&#45;&gt;Node4 -->
<g id="edge3" class="edge"><title>Node1&#45;&gt;Node4</title>
<path fill="none" stroke="midnightblue" d="M125.429,-131.5C133.674,-131.5 142.184,-131.5 150.58,-131.5"/>
<polygon fill="midnightblue" stroke="midnightblue" points="150.74,-135 160.74,-131.5 150.74,-128 150.74,-135"/>
</g>
<!-- Node5 -->
<g id="node5" class="node"><title>Node5</title>
<g id="a_node5"><a xlink:href="classprior__hessian_1_1GammaDist.html#a455e42461877165e4101f9f7f33ae84d" target="_top" xlink:title="prior_hessian::GammaDist\l::scale">
<polygon fill="white" stroke="black" points="161,-70.5 161,-98.5 286,-98.5 286,-70.5 161,-70.5"/>
<text text-anchor="start" x="169" y="-87.3" font-family="Helvetica,sans-Serif" font-size="9.00">prior_hessian::GammaDist</text>
<text text-anchor="middle" x="223.5" y="-77.3" font-family="Helvetica,sans-Serif" font-size="9.00">::scale</text>
</a>
</g>
</g>
<!-- Node1&#45;&gt;Node5 -->
<g id="edge4" class="edge"><title>Node1&#45;&gt;Node5</title>
<path fill="none" stroke="midnightblue" d="M111.205,-117.398C128.262,-112.356 147.657,-106.623 165.424,-101.371"/>
<polygon fill="midnightblue" stroke="midnightblue" points="166.505,-104.702 175.103,-98.5106 164.521,-97.9889 166.505,-104.702"/>
</g>
<!-- Node6 -->
<g id="node6" class="node"><title>Node6</title>
<g id="a_node6"><a xlink:href="classprior__hessian_1_1GammaDist.html#a2c8b6939f7920e2e81532b5c1970567a" target="_top" xlink:title="prior_hessian::GammaDist\l::shape">
<polygon fill="white" stroke="black" points="161,-23.5 161,-51.5 286,-51.5 286,-23.5 161,-23.5"/>
<text text-anchor="start" x="169" y="-40.3" font-family="Helvetica,sans-Serif" font-size="9.00">prior_hessian::GammaDist</text>
<text text-anchor="middle" x="223.5" y="-30.3" font-family="Helvetica,sans-Serif" font-size="9.00">::shape</text>
</a>
</g>
</g>
<!-- Node1&#45;&gt;Node6 -->
<g id="edge5" class="edge"><title>Node1&#45;&gt;Node6</title>
<path fill="none" stroke="midnightblue" d="M80.2467,-117.472C99.0143,-102.242 130.783,-77.9044 161,-61.5 164.739,-59.4699 168.688,-57.5238 172.706,-55.6802"/>
<polygon fill="midnightblue" stroke="midnightblue" points="174.369,-58.7732 182.141,-51.5727 171.575,-52.3549 174.369,-58.7732"/>
</g>
<!-- Node7 -->
<g id="node7" class="node"><title>Node7</title>
<g id="a_node7"><a xlink:href="classprior__hessian_1_1GammaDist.html#a7560c2b0a336870b19240f6bea0eb023" target="_top" xlink:title="prior_hessian::GammaDist\l::set_scale">
<polygon fill="white" stroke="black" points="322,-47.5 322,-75.5 447,-75.5 447,-47.5 322,-47.5"/>
<text text-anchor="start" x="330" y="-64.3" font-family="Helvetica,sans-Serif" font-size="9.00">prior_hessian::GammaDist</text>
<text text-anchor="middle" x="384.5" y="-54.3" font-family="Helvetica,sans-Serif" font-size="9.00">::set_scale</text>
</a>
</g>
</g>
<!-- Node6&#45;&gt;Node7 -->
<g id="edge6" class="edge"><title>Node6&#45;&gt;Node7</title>
<path fill="none" stroke="midnightblue" d="M286.429,-46.8477C294.674,-48.0923 303.184,-49.3768 311.58,-50.6442"/>
<polygon fill="midnightblue" stroke="midnightblue" points="311.33,-54.146 321.74,-52.1778 312.375,-47.2244 311.33,-54.146"/>
</g>
<!-- Node8 -->
<g id="node8" class="node"><title>Node8</title>
<g id="a_node8"><a xlink:href="classprior__hessian_1_1GammaDist.html#aea1effd3a5de08430650cc345312b8bd" target="_top" xlink:title="prior_hessian::GammaDist\l::set_shape">
<polygon fill="white" stroke="black" points="322,-0.5 322,-28.5 447,-28.5 447,-0.5 322,-0.5"/>
<text text-anchor="start" x="330" y="-17.3" font-family="Helvetica,sans-Serif" font-size="9.00">prior_hessian::GammaDist</text>
<text text-anchor="middle" x="384.5" y="-7.3" font-family="Helvetica,sans-Serif" font-size="9.00">::set_shape</text>
</a>
</g>
</g>
<!-- Node6&#45;&gt;Node8 -->
<g id="edge7" class="edge"><title>Node6&#45;&gt;Node8</title>
<path fill="none" stroke="midnightblue" d="M286.429,-28.5417C294.674,-27.3491 303.184,-26.1181 311.58,-24.9035"/>
<polygon fill="midnightblue" stroke="midnightblue" points="312.344,-28.3295 321.74,-23.4338 311.342,-21.4016 312.344,-28.3295"/>
</g>
</g>
</svg>
