<?xml version="1.0" encoding="UTF-8" standalone="no"?>
<!DOCTYPE svg PUBLIC "-//W3C//DTD SVG 1.1//EN"
 "http://www.w3.org/Graphics/SVG/1.1/DTD/svg11.dtd">
<!-- Generated by graphviz version 2.38.0 (20140413.2041)
 -->
<!-- Title: prior_hessian::ParetoDist::check_params Pages: 1 -->
<svg width="945pt" height="656pt"
 viewBox="0.00 0.00 945.00 656.42" xmlns="http://www.w3.org/2000/svg" xmlns:xlink="http://www.w3.org/1999/xlink">
<g id="graph0" class="graph" transform="scale(1 1) rotate(0) translate(4 652.421)">
<title>prior_hessian::ParetoDist::check_params</title>
<polygon fill="white" stroke="none" points="-4,4 -4,-652.421 941,-652.421 941,4 -4,4"/>
<!-- Node1 -->
<g id="node1" class="node"><title>Node1</title>
<polygon fill="#bfbfbf" stroke="black" points="0,-346.5 0,-374.5 120,-374.5 120,-346.5 0,-346.5"/>
<text text-anchor="start" x="8" y="-363.3" font-family="Helvetica,sans-Serif" font-size="9.00">prior_hessian::ParetoDist</text>
<text text-anchor="middle" x="60" y="-353.3" font-family="Helvetica,sans-Serif" font-size="9.00">::check_params</text>
</g>
<!-- Node1&#45;&gt;Node1 -->
<g id="edge2" class="edge"><title>Node1&#45;&gt;Node1</title>
<path fill="none" stroke="midnightblue" d="M33.3279,-374.53C25.8203,-383.89 34.7109,-393 60,-393 75.8057,-393 85.2057,-389.441 88.2001,-384.487"/>
<polygon fill="midnightblue" stroke="midnightblue" points="91.6486,-383.884 86.6721,-374.53 84.7296,-384.946 91.6486,-383.884"/>
</g>
<!-- Node2 -->
<g id="node2" class="node"><title>Node2</title>
<g id="a_node2"><a xlink:href="classprior__hessian_1_1ParetoDist.html#aac45000bf5c6356b22ef148fdfe2cebe" target="_top" xlink:title="prior_hessian::ParetoDist\l::check_lbound">
<polygon fill="white" stroke="black" points="156,-370.5 156,-398.5 276,-398.5 276,-370.5 156,-370.5"/>
<text text-anchor="start" x="164" y="-387.3" font-family="Helvetica,sans-Serif" font-size="9.00">prior_hessian::ParetoDist</text>
<text text-anchor="middle" x="216" y="-377.3" font-family="Helvetica,sans-Serif" font-size="9.00">::check_lbound</text>
</a>
</g>
</g>
<!-- Node1&#45;&gt;Node2 -->
<g id="edge1" class="edge"><title>Node1&#45;&gt;Node2</title>
<path fill="none" stroke="midnightblue" d="M120.1,-369.71C128.513,-371.022 137.228,-372.38 145.813,-373.718"/>
<polygon fill="midnightblue" stroke="midnightblue" points="145.384,-377.193 155.804,-375.275 146.462,-370.276 145.384,-377.193"/>
</g>
<!-- Node3 -->
<g id="node3" class="node"><title>Node3</title>
<g id="a_node3"><a xlink:href="classprior__hessian_1_1ParetoDist.html#af5791e2cef16b34e1bbdeec24b13d22e" target="_top" xlink:title="prior_hessian::ParetoDist\l::params">
<polygon fill="white" stroke="black" points="156,-323.5 156,-351.5 276,-351.5 276,-323.5 156,-323.5"/>
<text text-anchor="start" x="164" y="-340.3" font-family="Helvetica,sans-Serif" font-size="9.00">prior_hessian::ParetoDist</text>
<text text-anchor="middle" x="216" y="-330.3" font-family="Helvetica,sans-Serif" font-size="9.00">::params</text>
</a>
</g>
</g>
<!-- Node1&#45;&gt;Node3 -->
<g id="edge3" class="edge"><title>Node1&#45;&gt;Node3</title>
<path fill="none" stroke="midnightblue" d="M120.1,-351.673C128.513,-350.417 137.228,-349.115 145.813,-347.833"/>
<polygon fill="midnightblue" stroke="midnightblue" points="146.43,-351.28 155.804,-346.341 145.396,-344.357 146.43,-351.28"/>
</g>
<!-- Node4 -->
<g id="node4" class="node"><title>Node4</title>
<g id="a_node4"><a xlink:href="classprior__hessian_1_1ParetoDist.html#ad117226a3ad1eee827886fc7ba38acbf" target="_top" xlink:title="prior_hessian::ParetoDist\l::lbound">
<polygon fill="white" stroke="black" points="312,-323.5 312,-351.5 432,-351.5 432,-323.5 312,-323.5"/>
<text text-anchor="start" x="320" y="-340.3" font-family="Helvetica,sans-Serif" font-size="9.00">prior_hessian::ParetoDist</text>
<text text-anchor="middle" x="372" y="-330.3" font-family="Helvetica,sans-Serif" font-size="9.00">::lbound</text>
</a>
</g>
</g>
<!-- Node3&#45;&gt;Node4 -->
<g id="edge4" class="edge"><title>Node3&#45;&gt;Node4</title>
<path fill="none" stroke="midnightblue" d="M276.1,-330.915C284.422,-330.759 293.039,-330.714 301.533,-330.779"/>
<polygon fill="midnightblue" stroke="midnightblue" points="301.759,-334.282 311.804,-330.913 301.85,-327.283 301.759,-334.282"/>
</g>
<!-- Node8 -->
<g id="node8" class="node"><title>Node8</title>
<g id="a_node8"><a xlink:href="classprior__hessian_1_1ParetoDist.html#ac610ecf8ce6df7b8b48c383e89706b80" target="_top" xlink:title="prior_hessian::ParetoDist\l::alpha">
<polygon fill="white" stroke="black" points="817,-285.5 817,-313.5 937,-313.5 937,-285.5 817,-285.5"/>
<text text-anchor="start" x="825" y="-302.3" font-family="Helvetica,sans-Serif" font-size="9.00">prior_hessian::ParetoDist</text>
<text text-anchor="middle" x="877" y="-292.3" font-family="Helvetica,sans-Serif" font-size="9.00">::alpha</text>
</a>
</g>
</g>
<!-- Node3&#45;&gt;Node8 -->
<g id="edge42" class="edge"><title>Node3&#45;&gt;Node8</title>
<path fill="none" stroke="midnightblue" d="M261.723,-351.623C266.787,-354.165 271.674,-357.109 276,-360.5 392.748,-452.007 336.354,-565.142 468,-633.5 522.038,-661.559 544.65,-641.582 605,-633.5 685.362,-622.738 722.129,-641.25 781,-585.5 857.235,-513.307 872.326,-378.556 875.289,-323.684"/>
<polygon fill="midnightblue" stroke="midnightblue" points="878.792,-323.674 875.744,-313.527 871.799,-323.36 878.792,-323.674"/>
</g>
<!-- Node24 -->
<g id="node24" class="node"><title>Node24</title>
<g id="a_node24"><a xlink:href="classprior__hessian_1_1ParetoDist.html#a218ebbdec10fbdfcaabdd79dd180b39e" target="_top" xlink:title="prior_hessian::ParetoDist\l::set_params">
<polygon fill="white" stroke="black" points="651,-0.5 651,-28.5 771,-28.5 771,-0.5 651,-0.5"/>
<text text-anchor="start" x="659" y="-17.3" font-family="Helvetica,sans-Serif" font-size="9.00">prior_hessian::ParetoDist</text>
<text text-anchor="middle" x="711" y="-7.3" font-family="Helvetica,sans-Serif" font-size="9.00">::set_params</text>
</a>
</g>
</g>
<!-- Node3&#45;&gt;Node24 -->
<g id="edge43" class="edge"><title>Node3&#45;&gt;Node24</title>
<path fill="none" stroke="midnightblue" d="M223.574,-323.383C247.71,-273.387 336.912,-104.073 468,-35.5 521.138,-7.70303 589.913,-4.30769 640.557,-6.78171"/>
<polygon fill="midnightblue" stroke="midnightblue" points="640.57,-10.2882 650.755,-7.37056 640.973,-3.29982 640.57,-10.2882"/>
</g>
<!-- Node4&#45;&gt;Node3 -->
<g id="edge35" class="edge"><title>Node4&#45;&gt;Node3</title>
<path fill="none" stroke="midnightblue" d="M311.804,-344.087C303.48,-344.242 294.862,-344.286 286.369,-344.22"/>
<polygon fill="midnightblue" stroke="midnightblue" points="286.145,-340.717 276.1,-344.085 286.053,-347.717 286.145,-340.717"/>
</g>
<!-- Node5 -->
<g id="node5" class="node"><title>Node5</title>
<g id="a_node5"><a xlink:href="classprior__hessian_1_1ParetoDist.html#ac755ccef13fd2552861c27bf6c1cc29d" target="_top" xlink:title="prior_hessian::ParetoDist\l::set_lbound">
<polygon fill="white" stroke="black" points="476.5,-501.5 476.5,-529.5 596.5,-529.5 596.5,-501.5 476.5,-501.5"/>
<text text-anchor="start" x="484.5" y="-518.3" font-family="Helvetica,sans-Serif" font-size="9.00">prior_hessian::ParetoDist</text>
<text text-anchor="middle" x="536.5" y="-508.3" font-family="Helvetica,sans-Serif" font-size="9.00">::set_lbound</text>
</a>
</g>
</g>
<!-- Node4&#45;&gt;Node5 -->
<g id="edge5" class="edge"><title>Node4&#45;&gt;Node5</title>
<path fill="none" stroke="midnightblue" d="M377.971,-351.611C389.252,-381.658 419.629,-452.397 468,-491.5 470.267,-493.333 472.685,-495.031 475.206,-496.604"/>
<polygon fill="midnightblue" stroke="midnightblue" points="473.662,-499.748 484.113,-501.483 477.025,-493.609 473.662,-499.748"/>
</g>
<!-- Node6 -->
<g id="node6" class="node"><title>Node6</title>
<g id="a_node6"><a xlink:href="classprior__hessian_1_1ParetoDist.html#a0a1e20b0aa6c7b52c134fc2341b5fdd4" target="_top" xlink:title="prior_hessian::ParetoDist\l::mean">
<polygon fill="white" stroke="black" points="476.5,-454.5 476.5,-482.5 596.5,-482.5 596.5,-454.5 476.5,-454.5"/>
<text text-anchor="start" x="484.5" y="-471.3" font-family="Helvetica,sans-Serif" font-size="9.00">prior_hessian::ParetoDist</text>
<text text-anchor="middle" x="536.5" y="-461.3" font-family="Helvetica,sans-Serif" font-size="9.00">::mean</text>
</a>
</g>
</g>
<!-- Node4&#45;&gt;Node6 -->
<g id="edge6" class="edge"><title>Node4&#45;&gt;Node6</title>
<path fill="none" stroke="midnightblue" d="M386.397,-351.632C402.938,-372.918 433.19,-412.032 468,-435.5 477.554,-441.941 489.032,-446.863 499.792,-450.949"/>
<polygon fill="midnightblue" stroke="midnightblue" points="498.801,-454.314 509.395,-454.485 501.22,-447.745 498.801,-454.314"/>
</g>
<!-- Node7 -->
<g id="node7" class="node"><title>Node7</title>
<g id="a_node7"><a xlink:href="classprior__hessian_1_1ParetoDist.html#a74af41636088b6c727107c60dd9c81b2" target="_top" xlink:title="prior_hessian::ParetoDist\l::median">
<polygon fill="white" stroke="black" points="476.5,-407.5 476.5,-435.5 596.5,-435.5 596.5,-407.5 476.5,-407.5"/>
<text text-anchor="start" x="484.5" y="-424.3" font-family="Helvetica,sans-Serif" font-size="9.00">prior_hessian::ParetoDist</text>
<text text-anchor="middle" x="536.5" y="-414.3" font-family="Helvetica,sans-Serif" font-size="9.00">::median</text>
</a>
</g>
</g>
<!-- Node4&#45;&gt;Node7 -->
<g id="edge8" class="edge"><title>Node4&#45;&gt;Node7</title>
<path fill="none" stroke="midnightblue" d="M404.084,-351.7C422.164,-362.818 445.719,-377.669 468,-388.5 479.623,-394.15 492.931,-399.167 504.641,-403.736"/>
<polygon fill="midnightblue" stroke="midnightblue" points="503.444,-407.027 514.03,-407.473 506.033,-400.523 503.444,-407.027"/>
</g>
<!-- Node9 -->
<g id="node9" class="node"><title>Node9</title>
<g id="a_node9"><a xlink:href="classprior__hessian_1_1ParetoDist.html#afe706cb12ce6f667e7a3a9eb7311ef65" target="_top" xlink:title="prior_hessian::ParetoDist::cdf">
<polygon fill="white" stroke="black" points="468,-370.5 468,-388.5 605,-388.5 605,-370.5 468,-370.5"/>
<text text-anchor="middle" x="536.5" y="-377.3" font-family="Helvetica,sans-Serif" font-size="9.00">prior_hessian::ParetoDist::cdf</text>
</a>
</g>
</g>
<!-- Node4&#45;&gt;Node9 -->
<g id="edge11" class="edge"><title>Node4&#45;&gt;Node9</title>
<path fill="none" stroke="midnightblue" d="M432.126,-346.259C458.055,-352.415 487.238,-360.394 507.968,-367.169"/>
<polygon fill="midnightblue" stroke="midnightblue" points="507.1,-370.571 517.695,-370.486 509.359,-363.946 507.1,-370.571"/>
</g>
<!-- Node10 -->
<g id="node10" class="node"><title>Node10</title>
<g id="a_node10"><a xlink:href="classprior__hessian_1_1ParetoDist.html#a9d1040a7a5ca261feebe56f42e5698ea" target="_top" xlink:title="prior_hessian::ParetoDist\l::icdf">
<polygon fill="white" stroke="black" points="476.5,-323.5 476.5,-351.5 596.5,-351.5 596.5,-323.5 476.5,-323.5"/>
<text text-anchor="start" x="484.5" y="-340.3" font-family="Helvetica,sans-Serif" font-size="9.00">prior_hessian::ParetoDist</text>
<text text-anchor="middle" x="536.5" y="-330.3" font-family="Helvetica,sans-Serif" font-size="9.00">::icdf</text>
</a>
</g>
</g>
<!-- Node4&#45;&gt;Node10 -->
<g id="edge14" class="edge"><title>Node4&#45;&gt;Node10</title>
<path fill="none" stroke="midnightblue" d="M432.126,-330.978C443.173,-330.745 454.811,-330.691 466.134,-330.815"/>
<polygon fill="midnightblue" stroke="midnightblue" points="466.364,-334.319 476.418,-330.978 466.475,-327.319 466.364,-334.319"/>
</g>
<!-- Node11 -->
<g id="node11" class="node"><title>Node11</title>
<g id="a_node11"><a xlink:href="classprior__hessian_1_1ParetoDist.html#a07cc43c2b299fc07660684f34f32d4ee" target="_top" xlink:title="prior_hessian::ParetoDist::pdf">
<polygon fill="white" stroke="black" points="468,-45.5 468,-63.5 605,-63.5 605,-45.5 468,-45.5"/>
<text text-anchor="middle" x="536.5" y="-52.3" font-family="Helvetica,sans-Serif" font-size="9.00">prior_hessian::ParetoDist::pdf</text>
</a>
</g>
</g>
<!-- Node4&#45;&gt;Node11 -->
<g id="edge17" class="edge"><title>Node4&#45;&gt;Node11</title>
<path fill="none" stroke="midnightblue" d="M373.458,-323.357C375.685,-279.329 388.455,-145.633 459.963,-71.3603"/>
<polygon fill="midnightblue" stroke="midnightblue" points="462.854,-73.4267 467.54,-63.9244 457.951,-68.4306 462.854,-73.4267"/>
</g>
<!-- Node12 -->
<g id="node12" class="node"><title>Node12</title>
<g id="a_node12"><a xlink:href="classprior__hessian_1_1ParetoDist.html#a0f7ee813a098cd3fc9c7669cda6a340c" target="_top" xlink:title="prior_hessian::ParetoDist::llh">
<polygon fill="white" stroke="black" points="469.5,-286.5 469.5,-304.5 603.5,-304.5 603.5,-286.5 469.5,-286.5"/>
<text text-anchor="middle" x="536.5" y="-293.3" font-family="Helvetica,sans-Serif" font-size="9.00">prior_hessian::ParetoDist::llh</text>
</a>
</g>
</g>
<!-- Node4&#45;&gt;Node12 -->
<g id="edge19" class="edge"><title>Node4&#45;&gt;Node12</title>
<path fill="none" stroke="midnightblue" d="M405.884,-323.452C423.017,-318.05 444.662,-312.074 465.331,-306.942"/>
<polygon fill="midnightblue" stroke="midnightblue" points="466.168,-310.341 475.056,-304.573 464.512,-303.539 466.168,-310.341"/>
</g>
<!-- Node13 -->
<g id="node13" class="node"><title>Node13</title>
<g id="a_node13"><a xlink:href="classprior__hessian_1_1ParetoDist.html#a609ed75305325062ebd80dcfaa487c69" target="_top" xlink:title="prior_hessian::ParetoDist\l::rllh">
<polygon fill="white" stroke="black" points="651,-264.5 651,-292.5 771,-292.5 771,-264.5 651,-264.5"/>
<text text-anchor="start" x="659" y="-281.3" font-family="Helvetica,sans-Serif" font-size="9.00">prior_hessian::ParetoDist</text>
<text text-anchor="middle" x="711" y="-271.3" font-family="Helvetica,sans-Serif" font-size="9.00">::rllh</text>
</a>
</g>
</g>
<!-- Node4&#45;&gt;Node13 -->
<g id="edge24" class="edge"><title>Node4&#45;&gt;Node13</title>
<path fill="none" stroke="midnightblue" d="M388.714,-323.308C406.473,-308.314 436.968,-285.605 468,-276.5 524.458,-259.935 591.564,-262.091 640.773,-267.444"/>
<polygon fill="midnightblue" stroke="midnightblue" points="640.656,-270.954 650.992,-268.629 641.462,-264 640.656,-270.954"/>
</g>
<!-- Node14 -->
<g id="node14" class="node"><title>Node14</title>
<g id="a_node14"><a xlink:href="classprior__hessian_1_1ParetoDist.html#a3f802550dfcad6f0e3a8ca2e93709fe9" target="_top" xlink:title="prior_hessian::ParetoDist\l::grad">
<polygon fill="white" stroke="black" points="651,-217.5 651,-245.5 771,-245.5 771,-217.5 651,-217.5"/>
<text text-anchor="start" x="659" y="-234.3" font-family="Helvetica,sans-Serif" font-size="9.00">prior_hessian::ParetoDist</text>
<text text-anchor="middle" x="711" y="-224.3" font-family="Helvetica,sans-Serif" font-size="9.00">::grad</text>
</a>
</g>
</g>
<!-- Node4&#45;&gt;Node14 -->
<g id="edge25" class="edge"><title>Node4&#45;&gt;Node14</title>
<path fill="none" stroke="midnightblue" d="M385.525,-323.29C402.317,-305.292 433.978,-274.892 468,-260.5 523.053,-237.211 591.039,-230.794 640.92,-229.72"/>
<polygon fill="midnightblue" stroke="midnightblue" points="641.014,-233.219 650.961,-229.571 640.91,-226.22 641.014,-233.219"/>
</g>
<!-- Node15 -->
<g id="node15" class="node"><title>Node15</title>
<g id="a_node15"><a xlink:href="classprior__hessian_1_1ParetoDist.html#a24a4aaa7a8edb42009d0fa8390cb4a8f" target="_top" xlink:title="prior_hessian::ParetoDist\l::grad2">
<polygon fill="white" stroke="black" points="651,-170.5 651,-198.5 771,-198.5 771,-170.5 651,-170.5"/>
<text text-anchor="start" x="659" y="-187.3" font-family="Helvetica,sans-Serif" font-size="9.00">prior_hessian::ParetoDist</text>
<text text-anchor="middle" x="711" y="-177.3" font-family="Helvetica,sans-Serif" font-size="9.00">::grad2</text>
</a>
</g>
</g>
<!-- Node4&#45;&gt;Node15 -->
<g id="edge27" class="edge"><title>Node4&#45;&gt;Node15</title>
<path fill="none" stroke="midnightblue" d="M380.864,-323.45C394.97,-299.674 426.973,-251.821 468,-228.5 520.878,-198.442 589.831,-188.211 640.602,-185.049"/>
<polygon fill="midnightblue" stroke="midnightblue" points="641.03,-188.531 650.825,-184.492 640.649,-181.541 641.03,-188.531"/>
</g>
<!-- Node16 -->
<g id="node16" class="node"><title>Node16</title>
<g id="a_node16"><a xlink:href="classprior__hessian_1_1ParetoDist.html#a20c3f90ec9ac4b5bfd179a7c97ab36e7" target="_top" xlink:title="prior_hessian::ParetoDist\l::grad_grad2_accumulate">
<polygon fill="white" stroke="black" points="650,-123.5 650,-151.5 772,-151.5 772,-123.5 650,-123.5"/>
<text text-anchor="start" x="658" y="-140.3" font-family="Helvetica,sans-Serif" font-size="9.00">prior_hessian::ParetoDist</text>
<text text-anchor="middle" x="711" y="-130.3" font-family="Helvetica,sans-Serif" font-size="9.00">::grad_grad2_accumulate</text>
</a>
</g>
</g>
<!-- Node4&#45;&gt;Node16 -->
<g id="edge29" class="edge"><title>Node4&#45;&gt;Node16</title>
<path fill="none" stroke="midnightblue" d="M377.451,-323.48C387.897,-293.01 417.03,-220.671 468,-185.5 518.485,-150.664 588.214,-139.782 639.86,-136.955"/>
<polygon fill="midnightblue" stroke="midnightblue" points="640.108,-140.448 649.937,-136.492 639.786,-133.455 640.108,-140.448"/>
</g>
<!-- Node17 -->
<g id="node17" class="node"><title>Node17</title>
<g id="a_node17"><a xlink:href="classprior__hessian_1_1ParetoDist.html#abe706f0786b5e8ef20b7caff07ffad0c" target="_top" xlink:title="prior_hessian::ParetoDist\l::sample">
<polygon fill="white" stroke="black" points="476.5,-595.5 476.5,-623.5 596.5,-623.5 596.5,-595.5 476.5,-595.5"/>
<text text-anchor="start" x="484.5" y="-612.3" font-family="Helvetica,sans-Serif" font-size="9.00">prior_hessian::ParetoDist</text>
<text text-anchor="middle" x="536.5" y="-602.3" font-family="Helvetica,sans-Serif" font-size="9.00">::sample</text>
</a>
</g>
</g>
<!-- Node4&#45;&gt;Node17 -->
<g id="edge31" class="edge"><title>Node4&#45;&gt;Node17</title>
<path fill="none" stroke="midnightblue" d="M374.876,-351.764C380.43,-392.908 400.856,-510.962 468,-576.5 474.936,-583.27 483.904,-588.142 493.025,-591.899"/>
<polygon fill="midnightblue" stroke="midnightblue" points="491.913,-595.22 502.505,-595.442 494.364,-588.663 491.913,-595.22"/>
</g>
<!-- Node18 -->
<g id="node18" class="node"><title>Node18</title>
<g id="a_node18"><a xlink:href="classprior__hessian_1_1ParetoDist.html#a0923e8b25145eed6042aa933aa4354e5" target="_top" xlink:title="prior_hessian::ParetoDist\l::check_params_iter">
<polygon fill="white" stroke="black" points="476.5,-548.5 476.5,-576.5 596.5,-576.5 596.5,-548.5 476.5,-548.5"/>
<text text-anchor="start" x="484.5" y="-565.3" font-family="Helvetica,sans-Serif" font-size="9.00">prior_hessian::ParetoDist</text>
<text text-anchor="middle" x="536.5" y="-555.3" font-family="Helvetica,sans-Serif" font-size="9.00">::check_params_iter</text>
</a>
</g>
</g>
<!-- Node4&#45;&gt;Node18 -->
<g id="edge33" class="edge"><title>Node4&#45;&gt;Node18</title>
<path fill="none" stroke="midnightblue" d="M375.766,-351.667C383.579,-387.984 409.184,-485.285 468,-538.5 469.896,-540.216 471.924,-541.811 474.049,-543.293"/>
<polygon fill="midnightblue" stroke="midnightblue" points="472.284,-546.317 482.658,-548.472 475.893,-540.318 472.284,-546.317"/>
</g>
<!-- Node20 -->
<g id="node20" class="node"><title>Node20</title>
<g id="a_node20"><a xlink:href="classprior__hessian_1_1ParetoDist.html#abc9e60af487bda1a9ec5f7e55e38682c" target="_top" xlink:title="prior_hessian::ParetoDist\l::set_params_iter">
<polygon fill="white" stroke="black" points="476.5,-82.5 476.5,-110.5 596.5,-110.5 596.5,-82.5 476.5,-82.5"/>
<text text-anchor="start" x="484.5" y="-99.3" font-family="Helvetica,sans-Serif" font-size="9.00">prior_hessian::ParetoDist</text>
<text text-anchor="middle" x="536.5" y="-89.3" font-family="Helvetica,sans-Serif" font-size="9.00">::set_params_iter</text>
</a>
</g>
</g>
<!-- Node4&#45;&gt;Node20 -->
<g id="edge36" class="edge"><title>Node4&#45;&gt;Node20</title>
<path fill="none" stroke="midnightblue" d="M375.625,-323.341C383.236,-286.039 408.654,-183.934 468,-125.5 471.766,-121.792 476.081,-118.524 480.67,-115.652"/>
<polygon fill="midnightblue" stroke="midnightblue" points="482.715,-118.52 489.757,-110.603 479.315,-112.401 482.715,-118.52"/>
</g>
<!-- Node6&#45;&gt;Node4 -->
<g id="edge7" class="edge"><title>Node6&#45;&gt;Node4</title>
<path fill="none" stroke="midnightblue" d="M476.44,-458.56C473.514,-456.996 470.681,-455.308 468,-453.5 431.493,-428.889 400.001,-387.069 384.078,-360.679"/>
<polygon fill="midnightblue" stroke="midnightblue" points="386.947,-358.647 378.936,-351.714 380.876,-362.13 386.947,-358.647"/>
</g>
<!-- Node7&#45;&gt;Node4 -->
<g id="edge9" class="edge"><title>Node7&#45;&gt;Node4</title>
<path fill="none" stroke="midnightblue" d="M476.283,-410.301C473.459,-409.076 470.685,-407.805 468,-406.5 440.31,-393.04 410.654,-373.371 391.981,-358.156"/>
<polygon fill="midnightblue" stroke="midnightblue" points="394.095,-355.358 384.221,-351.517 389.544,-360.677 394.095,-355.358"/>
</g>
<!-- Node7&#45;&gt;Node8 -->
<g id="edge10" class="edge"><title>Node7&#45;&gt;Node8</title>
<path fill="none" stroke="midnightblue" d="M596.653,-415.147C647.302,-408.145 721.291,-394.146 781,-367.5 807.663,-355.601 834.379,-335.583 852.658,-320.338"/>
<polygon fill="midnightblue" stroke="midnightblue" points="855.088,-322.865 860.431,-313.717 850.549,-317.537 855.088,-322.865"/>
</g>
<!-- Node9&#45;&gt;Node4 -->
<g id="edge13" class="edge"><title>Node9&#45;&gt;Node4</title>
<path fill="none" stroke="midnightblue" d="M475.056,-370.427C455.291,-365.707 433.764,-359.967 415.598,-354.529"/>
<polygon fill="midnightblue" stroke="midnightblue" points="416.471,-351.136 405.884,-351.548 414.417,-357.828 416.471,-351.136"/>
</g>
<!-- Node9&#45;&gt;Node8 -->
<g id="edge12" class="edge"><title>Node9&#45;&gt;Node8</title>
<path fill="none" stroke="midnightblue" d="M605.055,-372.228C654.431,-365.927 722.672,-355.158 781,-338.5 799.917,-333.098 820.176,-325.107 837.106,-317.763"/>
<polygon fill="midnightblue" stroke="midnightblue" points="838.925,-320.785 846.654,-313.537 836.093,-314.383 838.925,-320.785"/>
</g>
<!-- Node10&#45;&gt;Node4 -->
<g id="edge15" class="edge"><title>Node10&#45;&gt;Node4</title>
<path fill="none" stroke="midnightblue" d="M476.418,-344.022C465.373,-344.255 453.735,-344.309 442.411,-344.186"/>
<polygon fill="midnightblue" stroke="midnightblue" points="442.18,-340.682 432.126,-344.022 442.069,-347.681 442.18,-340.682"/>
</g>
<!-- Node10&#45;&gt;Node8 -->
<g id="edge16" class="edge"><title>Node10&#45;&gt;Node8</title>
<path fill="none" stroke="midnightblue" d="M596.709,-333.907C646.118,-330.546 718.324,-324.793 781,-316.5 789.357,-315.394 798.099,-314.066 806.751,-312.647"/>
<polygon fill="midnightblue" stroke="midnightblue" points="807.56,-316.06 816.838,-310.946 806.395,-309.157 807.56,-316.06"/>
</g>
<!-- Node11&#45;&gt;Node4 -->
<g id="edge18" class="edge"><title>Node11&#45;&gt;Node4</title>
<path fill="none" stroke="midnightblue" d="M509.991,-63.5639C496.038,-66.5618 479.337,-71.0732 468,-81.5 398.961,-144.995 380.044,-262.223 374.9,-313.142"/>
<polygon fill="midnightblue" stroke="midnightblue" points="371.403,-312.954 373.976,-323.232 378.373,-313.593 371.403,-312.954"/>
</g>
<!-- Node12&#45;&gt;Node4 -->
<g id="edge22" class="edge"><title>Node12&#45;&gt;Node4</title>
<path fill="none" stroke="midnightblue" d="M517.695,-304.514C499.434,-311.055 469.868,-319.454 442.206,-326.296"/>
<polygon fill="midnightblue" stroke="midnightblue" points="441.02,-322.983 432.126,-328.741 442.669,-329.786 441.02,-322.983"/>
</g>
<!-- Node12&#45;&gt;Node8 -->
<g id="edge23" class="edge"><title>Node12&#45;&gt;Node8</title>
<path fill="none" stroke="midnightblue" d="M603.732,-299.911C616.112,-300.574 628.946,-301.151 641,-301.5 703.196,-303.301 718.781,-302.155 781,-301.5 789.359,-301.412 798.13,-301.281 806.824,-301.126"/>
<polygon fill="midnightblue" stroke="midnightblue" points="807.032,-304.623 816.965,-300.936 806.901,-297.624 807.032,-304.623"/>
</g>
<!-- Node12&#45;&gt;Node13 -->
<g id="edge20" class="edge"><title>Node12&#45;&gt;Node13</title>
<path fill="none" stroke="midnightblue" d="M603.7,-288.976C615.799,-287.784 628.455,-286.536 640.643,-285.335"/>
<polygon fill="midnightblue" stroke="midnightblue" points="641.14,-288.803 650.748,-284.339 640.453,-281.837 641.14,-288.803"/>
</g>
<!-- Node13&#45;&gt;Node8 -->
<g id="edge21" class="edge"><title>Node13&#45;&gt;Node8</title>
<path fill="none" stroke="midnightblue" d="M771.208,-286.081C782.704,-287.554 794.849,-289.109 806.637,-290.618"/>
<polygon fill="midnightblue" stroke="midnightblue" points="806.516,-294.131 816.879,-291.93 807.405,-287.188 806.516,-294.131"/>
</g>
<!-- Node14&#45;&gt;Node8 -->
<g id="edge26" class="edge"><title>Node14&#45;&gt;Node8</title>
<path fill="none" stroke="midnightblue" d="M756.827,-245.567C764.935,-248.359 773.267,-251.393 781,-254.5 800.575,-262.365 821.841,-272.302 839.281,-280.837"/>
<polygon fill="midnightblue" stroke="midnightblue" points="838.025,-284.12 848.54,-285.412 841.125,-277.844 838.025,-284.12"/>
</g>
<!-- Node15&#45;&gt;Node8 -->
<g id="edge28" class="edge"><title>Node15&#45;&gt;Node8</title>
<path fill="none" stroke="midnightblue" d="M762.923,-198.548C769.207,-201.121 775.387,-204.093 781,-207.5 811.877,-226.243 840.682,-256.694 858.3,-277.385"/>
<polygon fill="midnightblue" stroke="midnightblue" points="855.829,-279.887 864.921,-285.325 861.205,-275.404 855.829,-279.887"/>
</g>
<!-- Node16&#45;&gt;Node8 -->
<g id="edge30" class="edge"><title>Node16&#45;&gt;Node8</title>
<path fill="none" stroke="midnightblue" d="M766.11,-151.642C771.391,-154.147 776.464,-157.077 781,-160.5 822.052,-191.482 851.552,-245.542 865.986,-276.318"/>
<polygon fill="midnightblue" stroke="midnightblue" points="862.807,-277.784 870.138,-285.433 869.178,-274.882 862.807,-277.784"/>
</g>
<!-- Node17&#45;&gt;Node4 -->
<g id="edge32" class="edge"><title>Node17&#45;&gt;Node4</title>
<path fill="none" stroke="midnightblue" d="M476.491,-601.284C473.444,-599.276 470.581,-597.019 468,-594.5 401.297,-529.392 380.7,-412.453 374.987,-361.718"/>
<polygon fill="midnightblue" stroke="midnightblue" points="378.458,-361.258 373.958,-351.666 371.495,-361.971 378.458,-361.258"/>
</g>
<!-- Node19 -->
<g id="node19" class="node"><title>Node19</title>
<g id="a_node19"><a xlink:href="classprior__hessian_1_1ParetoDist.html#abac82051de116baf787e442c705e96c3" target="_top" xlink:title="prior_hessian::ParetoDist\l::check_params">
<polygon fill="white" stroke="black" points="651,-548.5 651,-576.5 771,-576.5 771,-548.5 651,-548.5"/>
<text text-anchor="start" x="659" y="-565.3" font-family="Helvetica,sans-Serif" font-size="9.00">prior_hessian::ParetoDist</text>
<text text-anchor="middle" x="711" y="-555.3" font-family="Helvetica,sans-Serif" font-size="9.00">::check_params</text>
</a>
</g>
</g>
<!-- Node18&#45;&gt;Node19 -->
<g id="edge34" class="edge"><title>Node18&#45;&gt;Node19</title>
<path fill="none" stroke="midnightblue" d="M596.865,-562.5C610.902,-562.5 625.996,-562.5 640.44,-562.5"/>
<polygon fill="midnightblue" stroke="midnightblue" points="640.818,-566 650.818,-562.5 640.818,-559 640.818,-566"/>
</g>
<!-- Node20&#45;&gt;Node8 -->
<g id="edge40" class="edge"><title>Node20&#45;&gt;Node8</title>
<path fill="none" stroke="midnightblue" d="M596.737,-85.3051C649.501,-78.6683 726.56,-77.5096 781,-113.5 838.059,-151.222 862.611,-234.349 871.581,-275.481"/>
<polygon fill="midnightblue" stroke="midnightblue" points="868.186,-276.347 873.625,-285.439 875.043,-274.94 868.186,-276.347"/>
</g>
<!-- Node21 -->
<g id="node21" class="node"><title>Node21</title>
<g id="a_node21"><a xlink:href="classprior__hessian_1_1ParetoDist.html#acef10b17c003468838f548ed255d7e1f" target="_top" xlink:title="prior_hessian::ParetoDist::min">
<polygon fill="white" stroke="black" points="641,-47.5 641,-65.5 781,-65.5 781,-47.5 641,-47.5"/>
<text text-anchor="middle" x="711" y="-54.3" font-family="Helvetica,sans-Serif" font-size="9.00">prior_hessian::ParetoDist::min</text>
</a>
</g>
</g>
<!-- Node20&#45;&gt;Node21 -->
<g id="edge37" class="edge"><title>Node20&#45;&gt;Node21</title>
<path fill="none" stroke="midnightblue" d="M596.865,-82.7343C617.874,-77.8625 641.249,-72.4423 661.272,-67.7992"/>
<polygon fill="midnightblue" stroke="midnightblue" points="662.155,-71.1874 671.106,-65.5189 660.574,-64.3683 662.155,-71.1874"/>
</g>
<!-- Node20&#45;&gt;Node24 -->
<g id="edge41" class="edge"><title>Node20&#45;&gt;Node24</title>
<path fill="none" stroke="midnightblue" d="M585.183,-82.4754C592.06,-79.6258 598.875,-76.3102 605,-72.5 623.949,-60.7133 621.935,-49.0979 641,-37.5 643.805,-35.7937 646.752,-34.1968 649.783,-32.7045"/>
<polygon fill="midnightblue" stroke="midnightblue" points="651.38,-35.8243 659.071,-28.5375 648.514,-29.4376 651.38,-35.8243"/>
</g>
<!-- Node22 -->
<g id="node22" class="node"><title>Node22</title>
<g id="a_node22"><a xlink:href="classprior__hessian_1_1ParetoDist.html#ace279cdfa7dbdcd8805ddb2ec4b46ee2" target="_top" xlink:title="prior_hessian::ParetoDist\l::set_min">
<polygon fill="white" stroke="black" points="817,-19.5 817,-47.5 937,-47.5 937,-19.5 817,-19.5"/>
<text text-anchor="start" x="825" y="-36.3" font-family="Helvetica,sans-Serif" font-size="9.00">prior_hessian::ParetoDist</text>
<text text-anchor="middle" x="877" y="-26.3" font-family="Helvetica,sans-Serif" font-size="9.00">::set_min</text>
</a>
</g>
</g>
<!-- Node21&#45;&gt;Node22 -->
<g id="edge38" class="edge"><title>Node21&#45;&gt;Node22</title>
<path fill="none" stroke="midnightblue" d="M776.346,-47.4758C786.375,-46.0694 796.773,-44.6112 806.901,-43.1907"/>
<polygon fill="midnightblue" stroke="midnightblue" points="807.499,-46.6411 816.916,-41.7861 806.527,-39.709 807.499,-46.6411"/>
</g>
<!-- Node23 -->
<g id="node23" class="node"><title>Node23</title>
<g id="a_node23"><a xlink:href="classprior__hessian_1_1ParetoDist.html#a5c2b026477495e3fc91a1cfb653d8a97" target="_top" xlink:title="prior_hessian::ParetoDist\l::set_alpha">
<polygon fill="white" stroke="black" points="817,-66.5 817,-94.5 937,-94.5 937,-66.5 817,-66.5"/>
<text text-anchor="start" x="825" y="-83.3" font-family="Helvetica,sans-Serif" font-size="9.00">prior_hessian::ParetoDist</text>
<text text-anchor="middle" x="877" y="-73.3" font-family="Helvetica,sans-Serif" font-size="9.00">::set_alpha</text>
</a>
</g>
</g>
<!-- Node21&#45;&gt;Node23 -->
<g id="edge39" class="edge"><title>Node21&#45;&gt;Node23</title>
<path fill="none" stroke="midnightblue" d="M773.534,-65.505C784.39,-67.0936 795.757,-68.7571 806.806,-70.374"/>
<polygon fill="midnightblue" stroke="midnightblue" points="806.438,-73.8574 816.839,-71.8423 807.452,-66.9311 806.438,-73.8574"/>
</g>
</g>
</svg>
