<?xml version="1.0" encoding="UTF-8" standalone="no"?>
<!DOCTYPE svg PUBLIC "-//W3C//DTD SVG 1.1//EN"
 "http://www.w3.org/Graphics/SVG/1.1/DTD/svg11.dtd">
<!-- Generated by graphviz version 2.38.0 (20140413.2041)
 -->
<!-- Title: prior_hessian::TruncatedDist::set_bounds Pages: 1 -->
<svg width="437pt" height="147pt"
 viewBox="0.00 0.00 437.00 146.91" xmlns="http://www.w3.org/2000/svg" xmlns:xlink="http://www.w3.org/1999/xlink">
<g id="graph0" class="graph" transform="scale(1 1) rotate(0) translate(4 142.914)">
<title>prior_hessian::TruncatedDist::set_bounds</title>
<polygon fill="white" stroke="none" points="-4,4 -4,-142.914 433,-142.914 433,4 -4,4"/>
<!-- Node1 -->
<g id="node1" class="node"><title>Node1</title>
<polygon fill="#bfbfbf" stroke="black" points="0,-70.5 0,-98.5 119,-98.5 119,-70.5 0,-70.5"/>
<text text-anchor="start" x="8" y="-87.3" font-family="Helvetica,sans-Serif" font-size="9.00">prior_hessian::Truncated</text>
<text text-anchor="middle" x="59.5" y="-77.3" font-family="Helvetica,sans-Serif" font-size="9.00">Dist::set_bounds</text>
</g>
<!-- Node2 -->
<g id="node2" class="node"><title>Node2</title>
<g id="a_node2"><a xlink:href="classprior__hessian_1_1TruncatedDist.html#a05934e74d38db5bd77df1609f43c7d71" target="_top" xlink:title="prior_hessian::Truncated\lDist::operator!=">
<polygon fill="white" stroke="black" points="310,-94.5 310,-122.5 429,-122.5 429,-94.5 310,-94.5"/>
<text text-anchor="start" x="318" y="-111.3" font-family="Helvetica,sans-Serif" font-size="9.00">prior_hessian::Truncated</text>
<text text-anchor="middle" x="369.5" y="-101.3" font-family="Helvetica,sans-Serif" font-size="9.00">Dist::operator!=</text>
</a>
</g>
</g>
<!-- Node1&#45;&gt;Node2 -->
<g id="edge1" class="edge"><title>Node1&#45;&gt;Node2</title>
<path fill="none" stroke="midnightblue" d="M89.9694,-104.029C107.938,-114.746 131.836,-126.954 155,-132.5 211.951,-146.135 279.348,-134.019 322.959,-122.609"/>
<polygon fill="midnightblue" stroke="midnightblue" points="91.5004,-100.862 81.1488,-98.6047 87.8333,-106.825 91.5004,-100.862"/>
</g>
<!-- Node3 -->
<g id="node3" class="node"><title>Node3</title>
<g id="a_node3"><a xlink:href="classprior__hessian_1_1TruncatedDist.html#a21ef557361b62e4c657154d12cb032c2" target="_top" xlink:title="prior_hessian::Truncated\lDist::set_lbound">
<polygon fill="white" stroke="black" points="155,-94.5 155,-122.5 274,-122.5 274,-94.5 155,-94.5"/>
<text text-anchor="start" x="163" y="-111.3" font-family="Helvetica,sans-Serif" font-size="9.00">prior_hessian::Truncated</text>
<text text-anchor="middle" x="214.5" y="-101.3" font-family="Helvetica,sans-Serif" font-size="9.00">Dist::set_lbound</text>
</a>
</g>
</g>
<!-- Node1&#45;&gt;Node3 -->
<g id="edge2" class="edge"><title>Node1&#45;&gt;Node3</title>
<path fill="none" stroke="midnightblue" d="M129.213,-95.2785C137.803,-96.626 146.525,-97.9942 154.941,-99.3143"/>
<polygon fill="midnightblue" stroke="midnightblue" points="129.638,-91.8024 119.216,-93.7104 128.553,-98.7179 129.638,-91.8024"/>
</g>
<!-- Node4 -->
<g id="node4" class="node"><title>Node4</title>
<g id="a_node4"><a xlink:href="classprior__hessian_1_1TruncatedDist.html#ac2d919896743958e03a188b5dde6661e" target="_top" xlink:title="prior_hessian::Truncated\lDist::set_ubound">
<polygon fill="white" stroke="black" points="155,-47.5 155,-75.5 274,-75.5 274,-47.5 155,-47.5"/>
<text text-anchor="start" x="163" y="-64.3" font-family="Helvetica,sans-Serif" font-size="9.00">prior_hessian::Truncated</text>
<text text-anchor="middle" x="214.5" y="-54.3" font-family="Helvetica,sans-Serif" font-size="9.00">Dist::set_ubound</text>
</a>
</g>
</g>
<!-- Node1&#45;&gt;Node4 -->
<g id="edge4" class="edge"><title>Node1&#45;&gt;Node4</title>
<path fill="none" stroke="midnightblue" d="M129.213,-74.1706C137.803,-72.8793 146.525,-71.5681 154.941,-70.303"/>
<polygon fill="midnightblue" stroke="midnightblue" points="128.585,-70.7256 119.216,-75.6734 129.625,-77.6478 128.585,-70.7256"/>
</g>
<!-- Node5 -->
<g id="node5" class="node"><title>Node5</title>
<g id="a_node5"><a xlink:href="classprior__hessian_1_1TruncatedDist.html#a645357d7c21e4aaa39764ca122b1f7c4" target="_top" xlink:title="prior_hessian::Truncated\lDist::TruncatedDist">
<polygon fill="white" stroke="black" points="155,-0.5 155,-28.5 274,-28.5 274,-0.5 155,-0.5"/>
<text text-anchor="start" x="163" y="-17.3" font-family="Helvetica,sans-Serif" font-size="9.00">prior_hessian::Truncated</text>
<text text-anchor="middle" x="214.5" y="-7.3" font-family="Helvetica,sans-Serif" font-size="9.00">Dist::TruncatedDist</text>
</a>
</g>
</g>
<!-- Node1&#45;&gt;Node5 -->
<g id="edge6" class="edge"><title>Node1&#45;&gt;Node5</title>
<path fill="none" stroke="midnightblue" d="M97.6086,-65.7594C114.927,-57.1884 135.892,-47.06 155,-38.5 162.414,-35.1789 170.429,-31.7725 178.08,-28.6075"/>
<polygon fill="midnightblue" stroke="midnightblue" points="95.7924,-62.7536 88.3976,-70.3409 98.9099,-69.0211 95.7924,-62.7536"/>
</g>
<!-- Node3&#45;&gt;Node2 -->
<g id="edge3" class="edge"><title>Node3&#45;&gt;Node2</title>
<path fill="none" stroke="midnightblue" d="M284.493,-108.5C292.993,-108.5 301.617,-108.5 309.941,-108.5"/>
<polygon fill="midnightblue" stroke="midnightblue" points="284.216,-105 274.216,-108.5 284.216,-112 284.216,-105"/>
</g>
<!-- Node4&#45;&gt;Node2 -->
<g id="edge5" class="edge"><title>Node4&#45;&gt;Node2</title>
<path fill="none" stroke="midnightblue" d="M271.207,-78.6125C288.192,-83.8301 306.657,-89.5024 322.891,-94.4894"/>
<polygon fill="midnightblue" stroke="midnightblue" points="271.992,-75.1924 261.405,-75.6015 269.936,-81.8838 271.992,-75.1924"/>
</g>
</g>
</svg>
