<?xml version="1.0" encoding="UTF-8" standalone="no"?>
<!DOCTYPE svg PUBLIC "-//W3C//DTD SVG 1.1//EN"
 "http://www.w3.org/Graphics/SVG/1.1/DTD/svg11.dtd">
<!-- Generated by graphviz version 2.38.0 (20140413.2041)
 -->
<!-- Title: prior_hessian::CompositeDist::make_component_dist Pages: 1 -->
<svg width="291pt" height="37pt"
 viewBox="0.00 0.00 291.00 37.00" xmlns="http://www.w3.org/2000/svg" xmlns:xlink="http://www.w3.org/1999/xlink">
<g id="graph0" class="graph" transform="scale(1 1) rotate(0) translate(4 33)">
<title>prior_hessian::CompositeDist::make_component_dist</title>
<polygon fill="white" stroke="none" points="-4,4 -4,-33 287,-33 287,4 -4,4"/>
<!-- Node1 -->
<g id="node1" class="node"><title>Node1</title>
<polygon fill="#bfbfbf" stroke="black" points="0,-0.5 0,-28.5 130,-28.5 130,-0.5 0,-0.5"/>
<text text-anchor="start" x="8" y="-17.3" font-family="Helvetica,sans-Serif" font-size="9.00">prior_hessian::Composite</text>
<text text-anchor="middle" x="65" y="-7.3" font-family="Helvetica,sans-Serif" font-size="9.00">Dist::make_component_dist</text>
</g>
<!-- Node2 -->
<g id="node2" class="node"><title>Node2</title>
<g id="a_node2"><a xlink:href="namespaceprior__hessian.html#a387cc711a6a39924943b5b20ae76bf6a" target="_top" xlink:title="prior_hessian::make\l_adapted_bounded_dist">
<polygon fill="white" stroke="black" points="166,-0.5 166,-28.5 283,-28.5 283,-0.5 166,-0.5"/>
<text text-anchor="start" x="174" y="-17.3" font-family="Helvetica,sans-Serif" font-size="9.00">prior_hessian::make</text>
<text text-anchor="middle" x="224.5" y="-7.3" font-family="Helvetica,sans-Serif" font-size="9.00">_adapted_bounded_dist</text>
</a>
</g>
</g>
<!-- Node1&#45;&gt;Node2 -->
<g id="edge1" class="edge"><title>Node1&#45;&gt;Node2</title>
<path fill="none" stroke="midnightblue" d="M130.061,-14.5C138.477,-14.5 147.125,-14.5 155.603,-14.5"/>
<polygon fill="midnightblue" stroke="midnightblue" points="155.831,-18.0001 165.831,-14.5 155.831,-11.0001 155.831,-18.0001"/>
</g>
</g>
</svg>
