<?xml version="1.0" encoding="UTF-8" standalone="no"?>
<!DOCTYPE svg PUBLIC "-//W3C//DTD SVG 1.1//EN"
 "http://www.w3.org/Graphics/SVG/1.1/DTD/svg11.dtd">
<!-- Generated by graphviz version 2.38.0 (20140413.2041)
 -->
<!-- Title: prior_hessian::CompositeDist::ComponentDistAdaptor&lt; Dist, meta::EnableIfSubclassT&lt; Dist, UnivariateDist &gt; &gt;::append_sample Pages: 1 -->
<svg width="354pt" height="57pt"
 viewBox="0.00 0.00 354.00 57.00" xmlns="http://www.w3.org/2000/svg" xmlns:xlink="http://www.w3.org/1999/xlink">
<g id="graph0" class="graph" transform="scale(1 1) rotate(0) translate(4 53)">
<title>prior_hessian::CompositeDist::ComponentDistAdaptor&lt; Dist, meta::EnableIfSubclassT&lt; Dist, UnivariateDist &gt; &gt;::append_sample</title>
<polygon fill="white" stroke="none" points="-4,4 -4,-53 350,-53 350,4 -4,4"/>
<!-- Node1 -->
<g id="node1" class="node"><title>Node1</title>
<polygon fill="#bfbfbf" stroke="black" points="0,-0.5 0,-48.5 188,-48.5 188,-0.5 0,-0.5"/>
<text text-anchor="start" x="8" y="-37.3" font-family="Helvetica,sans-Serif" font-size="9.00">prior_hessian::Composite</text>
<text text-anchor="start" x="8" y="-27.3" font-family="Helvetica,sans-Serif" font-size="9.00">Dist::ComponentDistAdaptor</text>
<text text-anchor="start" x="8" y="-17.3" font-family="Helvetica,sans-Serif" font-size="9.00">&lt; Dist, meta::EnableIfSubclassT</text>
<text text-anchor="middle" x="94" y="-7.3" font-family="Helvetica,sans-Serif" font-size="9.00">&lt; Dist, UnivariateDist &gt; &gt;::append_sample</text>
</g>
<!-- Node2 -->
<g id="node2" class="node"><title>Node2</title>
<g id="a_node2"><a xlink:href="classprior__hessian_1_1CompositeDist.html#a175563a90cb53da4f3127cb8d05d0c56" target="_top" xlink:title="prior_hessian::Composite\lDist::sample">
<polygon fill="white" stroke="black" points="224,-10.5 224,-38.5 346,-38.5 346,-10.5 224,-10.5"/>
<text text-anchor="start" x="232" y="-27.3" font-family="Helvetica,sans-Serif" font-size="9.00">prior_hessian::Composite</text>
<text text-anchor="middle" x="285" y="-17.3" font-family="Helvetica,sans-Serif" font-size="9.00">Dist::sample</text>
</a>
</g>
</g>
<!-- Node1&#45;&gt;Node2 -->
<g id="edge1" class="edge"><title>Node1&#45;&gt;Node2</title>
<path fill="none" stroke="midnightblue" d="M188.116,-24.5C196.727,-24.5 205.354,-24.5 213.711,-24.5"/>
<polygon fill="midnightblue" stroke="midnightblue" points="213.75,-28.0001 223.75,-24.5 213.75,-21.0001 213.75,-28.0001"/>
</g>
</g>
</svg>
