<?xml version="1.0" encoding="UTF-8" standalone="no"?>
<!DOCTYPE svg PUBLIC "-//W3C//DTD SVG 1.1//EN"
 "http://www.w3.org/Graphics/SVG/1.1/DTD/svg11.dtd">
<!-- Generated by graphviz version 2.38.0 (20140413.2041)
 -->
<!-- Title: prior_hessian::ParetoDist::mean Pages: 1 -->
<svg width="789pt" height="623pt"
 viewBox="0.00 0.00 789.00 622.96" xmlns="http://www.w3.org/2000/svg" xmlns:xlink="http://www.w3.org/1999/xlink">
<g id="graph0" class="graph" transform="scale(1 1) rotate(0) translate(4 618.964)">
<title>prior_hessian::ParetoDist::mean</title>
<polygon fill="white" stroke="none" points="-4,4 -4,-618.964 785,-618.964 785,4 -4,4"/>
<!-- Node1 -->
<g id="node1" class="node"><title>Node1</title>
<polygon fill="#bfbfbf" stroke="black" points="0,-291.5 0,-319.5 120,-319.5 120,-291.5 0,-291.5"/>
<text text-anchor="start" x="8" y="-308.3" font-family="Helvetica,sans-Serif" font-size="9.00">prior_hessian::ParetoDist</text>
<text text-anchor="middle" x="60" y="-298.3" font-family="Helvetica,sans-Serif" font-size="9.00">::mean</text>
</g>
<!-- Node2 -->
<g id="node2" class="node"><title>Node2</title>
<g id="a_node2"><a xlink:href="classprior__hessian_1_1ParetoDist.html#ad117226a3ad1eee827886fc7ba38acbf" target="_top" xlink:title="prior_hessian::ParetoDist\l::lbound">
<polygon fill="white" stroke="black" points="156,-291.5 156,-319.5 276,-319.5 276,-291.5 156,-291.5"/>
<text text-anchor="start" x="164" y="-308.3" font-family="Helvetica,sans-Serif" font-size="9.00">prior_hessian::ParetoDist</text>
<text text-anchor="middle" x="216" y="-298.3" font-family="Helvetica,sans-Serif" font-size="9.00">::lbound</text>
</a>
</g>
</g>
<!-- Node1&#45;&gt;Node2 -->
<g id="edge1" class="edge"><title>Node1&#45;&gt;Node2</title>
<path fill="none" stroke="midnightblue" d="M120.1,-298.915C128.422,-298.759 137.039,-298.714 145.533,-298.779"/>
<polygon fill="midnightblue" stroke="midnightblue" points="145.759,-302.282 155.804,-298.913 145.85,-295.283 145.759,-302.282"/>
</g>
<!-- Node2&#45;&gt;Node1 -->
<g id="edge21" class="edge"><title>Node2&#45;&gt;Node1</title>
<path fill="none" stroke="midnightblue" d="M155.804,-312.087C147.48,-312.242 138.862,-312.286 130.369,-312.22"/>
<polygon fill="midnightblue" stroke="midnightblue" points="130.145,-308.717 120.1,-312.085 130.053,-315.717 130.145,-308.717"/>
</g>
<!-- Node3 -->
<g id="node3" class="node"><title>Node3</title>
<g id="a_node3"><a xlink:href="classprior__hessian_1_1ParetoDist.html#afe706cb12ce6f667e7a3a9eb7311ef65" target="_top" xlink:title="prior_hessian::ParetoDist::cdf">
<polygon fill="white" stroke="black" points="312,-580.5 312,-598.5 449,-598.5 449,-580.5 312,-580.5"/>
<text text-anchor="middle" x="380.5" y="-587.3" font-family="Helvetica,sans-Serif" font-size="9.00">prior_hessian::ParetoDist::cdf</text>
</a>
</g>
</g>
<!-- Node2&#45;&gt;Node3 -->
<g id="edge2" class="edge"><title>Node2&#45;&gt;Node3</title>
<path fill="none" stroke="midnightblue" d="M218.03,-319.71C221.722,-363.085 238.366,-492.837 312,-561.5 321.252,-570.127 334.113,-574.881 346.13,-578.086"/>
<polygon fill="midnightblue" stroke="midnightblue" points="345.384,-581.507 355.928,-580.466 347.036,-574.705 345.384,-581.507"/>
</g>
<!-- Node5 -->
<g id="node5" class="node"><title>Node5</title>
<g id="a_node5"><a xlink:href="classprior__hessian_1_1ParetoDist.html#a0923e8b25145eed6042aa933aa4354e5" target="_top" xlink:title="prior_hessian::ParetoDist\l::check_params_iter">
<polygon fill="white" stroke="black" points="320.5,-533.5 320.5,-561.5 440.5,-561.5 440.5,-533.5 320.5,-533.5"/>
<text text-anchor="start" x="328.5" y="-550.3" font-family="Helvetica,sans-Serif" font-size="9.00">prior_hessian::ParetoDist</text>
<text text-anchor="middle" x="380.5" y="-540.3" font-family="Helvetica,sans-Serif" font-size="9.00">::check_params_iter</text>
</a>
</g>
</g>
<!-- Node2&#45;&gt;Node5 -->
<g id="edge5" class="edge"><title>Node2&#45;&gt;Node5</title>
<path fill="none" stroke="midnightblue" d="M219.605,-319.725C227.166,-357.201 252.472,-459.784 312,-518.5 315.763,-522.211 320.076,-525.481 324.663,-528.355"/>
<polygon fill="midnightblue" stroke="midnightblue" points="323.307,-531.606 333.748,-533.405 326.708,-525.487 323.307,-531.606"/>
</g>
<!-- Node7 -->
<g id="node7" class="node"><title>Node7</title>
<g id="a_node7"><a xlink:href="classprior__hessian_1_1ParetoDist.html#a3f802550dfcad6f0e3a8ca2e93709fe9" target="_top" xlink:title="prior_hessian::ParetoDist\l::grad">
<polygon fill="white" stroke="black" points="495,-503.5 495,-531.5 615,-531.5 615,-503.5 495,-503.5"/>
<text text-anchor="start" x="503" y="-520.3" font-family="Helvetica,sans-Serif" font-size="9.00">prior_hessian::ParetoDist</text>
<text text-anchor="middle" x="555" y="-510.3" font-family="Helvetica,sans-Serif" font-size="9.00">::grad</text>
</a>
</g>
</g>
<!-- Node2&#45;&gt;Node7 -->
<g id="edge7" class="edge"><title>Node2&#45;&gt;Node7</title>
<path fill="none" stroke="midnightblue" d="M220.859,-319.531C230.435,-351.545 258.473,-430.17 312,-468.5 362.318,-504.532 432.85,-515.507 484.793,-518.228"/>
<polygon fill="midnightblue" stroke="midnightblue" points="484.78,-521.73 494.922,-518.667 485.083,-514.737 484.78,-521.73"/>
</g>
<!-- Node8 -->
<g id="node8" class="node"><title>Node8</title>
<g id="a_node8"><a xlink:href="classprior__hessian_1_1ParetoDist.html#a24a4aaa7a8edb42009d0fa8390cb4a8f" target="_top" xlink:title="prior_hessian::ParetoDist\l::grad2">
<polygon fill="white" stroke="black" points="495,-456.5 495,-484.5 615,-484.5 615,-456.5 495,-456.5"/>
<text text-anchor="start" x="503" y="-473.3" font-family="Helvetica,sans-Serif" font-size="9.00">prior_hessian::ParetoDist</text>
<text text-anchor="middle" x="555" y="-463.3" font-family="Helvetica,sans-Serif" font-size="9.00">::grad2</text>
</a>
</g>
</g>
<!-- Node2&#45;&gt;Node8 -->
<g id="edge9" class="edge"><title>Node2&#45;&gt;Node8</title>
<path fill="none" stroke="midnightblue" d="M222.841,-319.762C234.936,-347.301 265.533,-407.541 312,-435.5 363.98,-466.777 433.337,-474.041 484.474,-474.356"/>
<polygon fill="midnightblue" stroke="midnightblue" points="484.781,-477.855 494.771,-474.327 484.762,-470.855 484.781,-477.855"/>
</g>
<!-- Node9 -->
<g id="node9" class="node"><title>Node9</title>
<g id="a_node9"><a xlink:href="classprior__hessian_1_1ParetoDist.html#a20c3f90ec9ac4b5bfd179a7c97ab36e7" target="_top" xlink:title="prior_hessian::ParetoDist\l::grad_grad2_accumulate">
<polygon fill="white" stroke="black" points="494,-409.5 494,-437.5 616,-437.5 616,-409.5 494,-409.5"/>
<text text-anchor="start" x="502" y="-426.3" font-family="Helvetica,sans-Serif" font-size="9.00">prior_hessian::ParetoDist</text>
<text text-anchor="middle" x="555" y="-416.3" font-family="Helvetica,sans-Serif" font-size="9.00">::grad_grad2_accumulate</text>
</a>
</g>
</g>
<!-- Node2&#45;&gt;Node9 -->
<g id="edge11" class="edge"><title>Node2&#45;&gt;Node9</title>
<path fill="none" stroke="midnightblue" d="M225.03,-319.657C239.163,-343.011 270.917,-388.966 312,-408.5 365.615,-433.993 433.604,-435.95 483.857,-432.566"/>
<polygon fill="midnightblue" stroke="midnightblue" points="484.274,-436.044 493.98,-431.796 483.743,-429.064 484.274,-436.044"/>
</g>
<!-- Node10 -->
<g id="node10" class="node"><title>Node10</title>
<g id="a_node10"><a xlink:href="classprior__hessian_1_1ParetoDist.html#a9d1040a7a5ca261feebe56f42e5698ea" target="_top" xlink:title="prior_hessian::ParetoDist\l::icdf">
<polygon fill="white" stroke="black" points="320.5,-371.5 320.5,-399.5 440.5,-399.5 440.5,-371.5 320.5,-371.5"/>
<text text-anchor="start" x="328.5" y="-388.3" font-family="Helvetica,sans-Serif" font-size="9.00">prior_hessian::ParetoDist</text>
<text text-anchor="middle" x="380.5" y="-378.3" font-family="Helvetica,sans-Serif" font-size="9.00">::icdf</text>
</a>
</g>
</g>
<!-- Node2&#45;&gt;Node10 -->
<g id="edge13" class="edge"><title>Node2&#45;&gt;Node10</title>
<path fill="none" stroke="midnightblue" d="M250.883,-319.563C268.641,-329.646 291.012,-342.693 312,-352.5 323.796,-358.012 337.232,-363.029 348.995,-367.65"/>
<polygon fill="midnightblue" stroke="midnightblue" points="347.825,-370.953 358.409,-371.441 350.44,-364.459 347.825,-370.953"/>
</g>
<!-- Node11 -->
<g id="node11" class="node"><title>Node11</title>
<g id="a_node11"><a xlink:href="classprior__hessian_1_1ParetoDist.html#a0f7ee813a098cd3fc9c7669cda6a340c" target="_top" xlink:title="prior_hessian::ParetoDist::llh">
<polygon fill="white" stroke="black" points="313.5,-334.5 313.5,-352.5 447.5,-352.5 447.5,-334.5 313.5,-334.5"/>
<text text-anchor="middle" x="380.5" y="-341.3" font-family="Helvetica,sans-Serif" font-size="9.00">prior_hessian::ParetoDist::llh</text>
</a>
</g>
</g>
<!-- Node2&#45;&gt;Node11 -->
<g id="edge16" class="edge"><title>Node2&#45;&gt;Node11</title>
<path fill="none" stroke="midnightblue" d="M276.126,-312.804C301.434,-318.189 329.842,-325.235 350.464,-331.395"/>
<polygon fill="midnightblue" stroke="midnightblue" points="349.609,-334.795 360.197,-334.429 351.692,-328.112 349.609,-334.795"/>
</g>
<!-- Node12 -->
<g id="node12" class="node"><title>Node12</title>
<g id="a_node12"><a xlink:href="classprior__hessian_1_1ParetoDist.html#a609ed75305325062ebd80dcfaa487c69" target="_top" xlink:title="prior_hessian::ParetoDist\l::rllh">
<polygon fill="white" stroke="black" points="495,-285.5 495,-313.5 615,-313.5 615,-285.5 495,-285.5"/>
<text text-anchor="start" x="503" y="-302.3" font-family="Helvetica,sans-Serif" font-size="9.00">prior_hessian::ParetoDist</text>
<text text-anchor="middle" x="555" y="-292.3" font-family="Helvetica,sans-Serif" font-size="9.00">::rllh</text>
</a>
</g>
</g>
<!-- Node2&#45;&gt;Node12 -->
<g id="edge31" class="edge"><title>Node2&#45;&gt;Node12</title>
<path fill="none" stroke="midnightblue" d="M276.087,-304.448C334.38,-303.41 423.455,-301.824 484.973,-300.729"/>
<polygon fill="midnightblue" stroke="midnightblue" points="485.045,-304.228 494.981,-300.551 484.921,-297.229 485.045,-304.228"/>
</g>
<!-- Node13 -->
<g id="node13" class="node"><title>Node13</title>
<g id="a_node13"><a xlink:href="classprior__hessian_1_1ParetoDist.html#a74af41636088b6c727107c60dd9c81b2" target="_top" xlink:title="prior_hessian::ParetoDist\l::median">
<polygon fill="white" stroke="black" points="320.5,-248.5 320.5,-276.5 440.5,-276.5 440.5,-248.5 320.5,-248.5"/>
<text text-anchor="start" x="328.5" y="-265.3" font-family="Helvetica,sans-Serif" font-size="9.00">prior_hessian::ParetoDist</text>
<text text-anchor="middle" x="380.5" y="-255.3" font-family="Helvetica,sans-Serif" font-size="9.00">::median</text>
</a>
</g>
</g>
<!-- Node2&#45;&gt;Node13 -->
<g id="edge22" class="edge"><title>Node2&#45;&gt;Node13</title>
<path fill="none" stroke="midnightblue" d="M249.494,-291.375C267.004,-285.733 289.31,-279.446 310.481,-274.082"/>
<polygon fill="midnightblue" stroke="midnightblue" points="311.57,-277.418 320.431,-271.609 309.882,-270.624 311.57,-277.418"/>
</g>
<!-- Node14 -->
<g id="node14" class="node"><title>Node14</title>
<g id="a_node14"><a xlink:href="classprior__hessian_1_1ParetoDist.html#af5791e2cef16b34e1bbdeec24b13d22e" target="_top" xlink:title="prior_hessian::ParetoDist\l::params">
<polygon fill="white" stroke="black" points="320.5,-201.5 320.5,-229.5 440.5,-229.5 440.5,-201.5 320.5,-201.5"/>
<text text-anchor="start" x="328.5" y="-218.3" font-family="Helvetica,sans-Serif" font-size="9.00">prior_hessian::ParetoDist</text>
<text text-anchor="middle" x="380.5" y="-208.3" font-family="Helvetica,sans-Serif" font-size="9.00">::params</text>
</a>
</g>
</g>
<!-- Node2&#45;&gt;Node14 -->
<g id="edge25" class="edge"><title>Node2&#45;&gt;Node14</title>
<path fill="none" stroke="midnightblue" d="M226.922,-291.486C242.325,-275.474 273.461,-250.592 311.035,-230.379"/>
<polygon fill="midnightblue" stroke="midnightblue" points="312.936,-233.335 320.191,-225.615 309.705,-227.126 312.936,-233.335"/>
</g>
<!-- Node16 -->
<g id="node16" class="node"><title>Node16</title>
<g id="a_node16"><a xlink:href="classprior__hessian_1_1ParetoDist.html#a07cc43c2b299fc07660684f34f32d4ee" target="_top" xlink:title="prior_hessian::ParetoDist::pdf">
<polygon fill="white" stroke="black" points="312,-164.5 312,-182.5 449,-182.5 449,-164.5 312,-164.5"/>
<text text-anchor="middle" x="380.5" y="-171.3" font-family="Helvetica,sans-Serif" font-size="9.00">prior_hessian::ParetoDist::pdf</text>
</a>
</g>
</g>
<!-- Node2&#45;&gt;Node16 -->
<g id="edge29" class="edge"><title>Node2&#45;&gt;Node16</title>
<path fill="none" stroke="midnightblue" d="M222.227,-291.191C233.833,-266.557 263.86,-217.662 303.21,-188.558"/>
<polygon fill="midnightblue" stroke="midnightblue" points="305.505,-191.226 311.744,-182.664 301.527,-185.466 305.505,-191.226"/>
</g>
<!-- Node17 -->
<g id="node17" class="node"><title>Node17</title>
<g id="a_node17"><a xlink:href="classprior__hessian_1_1ParetoDist.html#abe706f0786b5e8ef20b7caff07ffad0c" target="_top" xlink:title="prior_hessian::ParetoDist\l::sample">
<polygon fill="white" stroke="black" points="320.5,-117.5 320.5,-145.5 440.5,-145.5 440.5,-117.5 320.5,-117.5"/>
<text text-anchor="start" x="328.5" y="-134.3" font-family="Helvetica,sans-Serif" font-size="9.00">prior_hessian::ParetoDist</text>
<text text-anchor="middle" x="380.5" y="-124.3" font-family="Helvetica,sans-Serif" font-size="9.00">::sample</text>
</a>
</g>
</g>
<!-- Node2&#45;&gt;Node17 -->
<g id="edge32" class="edge"><title>Node2&#45;&gt;Node17</title>
<path fill="none" stroke="midnightblue" d="M220.581,-291.149C230.631,-259.445 261.701,-185.253 312,-145.5 312.164,-145.37 312.329,-145.242 312.494,-145.114"/>
<polygon fill="midnightblue" stroke="midnightblue" points="314.032,-148.296 320.39,-139.821 310.134,-142.482 314.032,-148.296"/>
</g>
<!-- Node18 -->
<g id="node18" class="node"><title>Node18</title>
<g id="a_node18"><a xlink:href="classprior__hessian_1_1ParetoDist.html#ac755ccef13fd2552861c27bf6c1cc29d" target="_top" xlink:title="prior_hessian::ParetoDist\l::set_lbound">
<polygon fill="white" stroke="black" points="320.5,-70.5 320.5,-98.5 440.5,-98.5 440.5,-70.5 320.5,-70.5"/>
<text text-anchor="start" x="328.5" y="-87.3" font-family="Helvetica,sans-Serif" font-size="9.00">prior_hessian::ParetoDist</text>
<text text-anchor="middle" x="380.5" y="-77.3" font-family="Helvetica,sans-Serif" font-size="9.00">::set_lbound</text>
</a>
</g>
</g>
<!-- Node2&#45;&gt;Node18 -->
<g id="edge34" class="edge"><title>Node2&#45;&gt;Node18</title>
<path fill="none" stroke="midnightblue" d="M219.791,-291.497C227.665,-255.608 253.402,-159.511 312,-107.5 313.337,-106.313 314.737,-105.188 316.191,-104.119"/>
<polygon fill="midnightblue" stroke="midnightblue" points="318.382,-106.878 325.007,-98.6098 314.672,-100.941 318.382,-106.878"/>
</g>
<!-- Node19 -->
<g id="node19" class="node"><title>Node19</title>
<g id="a_node19"><a xlink:href="classprior__hessian_1_1ParetoDist.html#abc9e60af487bda1a9ec5f7e55e38682c" target="_top" xlink:title="prior_hessian::ParetoDist\l::set_params_iter">
<polygon fill="white" stroke="black" points="320.5,-23.5 320.5,-51.5 440.5,-51.5 440.5,-23.5 320.5,-23.5"/>
<text text-anchor="start" x="328.5" y="-40.3" font-family="Helvetica,sans-Serif" font-size="9.00">prior_hessian::ParetoDist</text>
<text text-anchor="middle" x="380.5" y="-30.3" font-family="Helvetica,sans-Serif" font-size="9.00">::set_params_iter</text>
</a>
</g>
</g>
<!-- Node2&#45;&gt;Node19 -->
<g id="edge35" class="edge"><title>Node2&#45;&gt;Node19</title>
<path fill="none" stroke="midnightblue" d="M218.369,-291.333C223.135,-249.781 242.701,-126.981 312,-60.5 313.117,-59.4287 314.285,-58.4071 315.498,-57.433"/>
<polygon fill="midnightblue" stroke="midnightblue" points="317.72,-60.1566 324.061,-51.669 313.811,-54.3496 317.72,-60.1566"/>
</g>
<!-- Node3&#45;&gt;Node2 -->
<g id="edge4" class="edge"><title>Node3&#45;&gt;Node2</title>
<path fill="none" stroke="midnightblue" d="M313.084,-580.479C312.718,-580.158 312.356,-579.832 312,-579.5 239.085,-511.507 222.052,-383.611 218.141,-329.897"/>
<polygon fill="midnightblue" stroke="midnightblue" points="221.615,-329.368 217.491,-319.609 214.629,-329.81 221.615,-329.368"/>
</g>
<!-- Node4 -->
<g id="node4" class="node"><title>Node4</title>
<g id="a_node4"><a xlink:href="classprior__hessian_1_1ParetoDist.html#ac610ecf8ce6df7b8b48c383e89706b80" target="_top" xlink:title="prior_hessian::ParetoDist\l::alpha">
<polygon fill="white" stroke="black" points="661,-347.5 661,-375.5 781,-375.5 781,-347.5 661,-347.5"/>
<text text-anchor="start" x="669" y="-364.3" font-family="Helvetica,sans-Serif" font-size="9.00">prior_hessian::ParetoDist</text>
<text text-anchor="middle" x="721" y="-354.3" font-family="Helvetica,sans-Serif" font-size="9.00">::alpha</text>
</a>
</g>
</g>
<!-- Node3&#45;&gt;Node4 -->
<g id="edge3" class="edge"><title>Node3&#45;&gt;Node4</title>
<path fill="none" stroke="midnightblue" d="M409.94,-598.519C458.607,-612.089 558.982,-631.754 625,-587.5 694.041,-541.219 713.03,-434.032 718.154,-385.795"/>
<polygon fill="midnightblue" stroke="midnightblue" points="721.656,-385.938 719.116,-375.652 714.688,-385.277 721.656,-385.938"/>
</g>
<!-- Node6 -->
<g id="node6" class="node"><title>Node6</title>
<g id="a_node6"><a xlink:href="classprior__hessian_1_1ParetoDist.html#abac82051de116baf787e442c705e96c3" target="_top" xlink:title="prior_hessian::ParetoDist\l::check_params">
<polygon fill="white" stroke="black" points="495,-550.5 495,-578.5 615,-578.5 615,-550.5 495,-550.5"/>
<text text-anchor="start" x="503" y="-567.3" font-family="Helvetica,sans-Serif" font-size="9.00">prior_hessian::ParetoDist</text>
<text text-anchor="middle" x="555" y="-557.3" font-family="Helvetica,sans-Serif" font-size="9.00">::check_params</text>
</a>
</g>
</g>
<!-- Node5&#45;&gt;Node6 -->
<g id="edge6" class="edge"><title>Node5&#45;&gt;Node6</title>
<path fill="none" stroke="midnightblue" d="M440.865,-553.35C455.039,-554.747 470.289,-556.25 484.86,-557.686"/>
<polygon fill="midnightblue" stroke="midnightblue" points="484.523,-561.17 494.818,-558.668 485.21,-554.204 484.523,-561.17"/>
</g>
<!-- Node7&#45;&gt;Node4 -->
<g id="edge8" class="edge"><title>Node7&#45;&gt;Node4</title>
<path fill="none" stroke="midnightblue" d="M607.901,-503.418C613.957,-500.646 619.815,-497.367 625,-493.5 664.244,-464.229 693.91,-414.051 708.968,-384.717"/>
<polygon fill="midnightblue" stroke="midnightblue" points="712.17,-386.139 713.508,-375.629 705.908,-383.011 712.17,-386.139"/>
</g>
<!-- Node8&#45;&gt;Node4 -->
<g id="edge10" class="edge"><title>Node8&#45;&gt;Node4</title>
<path fill="none" stroke="midnightblue" d="M604.24,-456.484C611.412,-453.62 618.552,-450.298 625,-446.5 654.33,-429.224 682.709,-402.024 700.692,-383.061"/>
<polygon fill="midnightblue" stroke="midnightblue" points="703.256,-385.444 707.509,-375.74 698.133,-380.674 703.256,-385.444"/>
</g>
<!-- Node9&#45;&gt;Node4 -->
<g id="edge12" class="edge"><title>Node9&#45;&gt;Node4</title>
<path fill="none" stroke="midnightblue" d="M593.214,-409.431C617.013,-400.434 648.073,-388.692 673.493,-379.082"/>
<polygon fill="midnightblue" stroke="midnightblue" points="674.817,-382.323 682.933,-375.513 672.342,-375.776 674.817,-382.323"/>
</g>
<!-- Node10&#45;&gt;Node2 -->
<g id="edge15" class="edge"><title>Node10&#45;&gt;Node2</title>
<path fill="none" stroke="midnightblue" d="M320.332,-374.199C317.495,-373.001 314.704,-371.764 312,-370.5 285.076,-357.919 255.875,-340.006 237.057,-325.846"/>
<polygon fill="midnightblue" stroke="midnightblue" points="239.206,-323.083 229.187,-319.637 234.87,-328.579 239.206,-323.083"/>
</g>
<!-- Node10&#45;&gt;Node4 -->
<g id="edge14" class="edge"><title>Node10&#45;&gt;Node4</title>
<path fill="none" stroke="midnightblue" d="M440.85,-381.292C499.403,-377.141 588.874,-370.797 650.666,-366.416"/>
<polygon fill="midnightblue" stroke="midnightblue" points="650.991,-369.902 660.719,-365.703 650.496,-362.919 650.991,-369.902"/>
</g>
<!-- Node11&#45;&gt;Node2 -->
<g id="edge18" class="edge"><title>Node11&#45;&gt;Node2</title>
<path fill="none" stroke="midnightblue" d="M313.488,-334.707C296.426,-330.958 278.433,-326.582 262.668,-322.317"/>
<polygon fill="midnightblue" stroke="midnightblue" points="263.233,-318.842 252.661,-319.539 261.36,-325.587 263.233,-318.842"/>
</g>
<!-- Node11&#45;&gt;Node4 -->
<g id="edge17" class="edge"><title>Node11&#45;&gt;Node4</title>
<path fill="none" stroke="midnightblue" d="M447.57,-347.013C506.135,-350.128 591.354,-354.659 650.835,-357.822"/>
<polygon fill="midnightblue" stroke="midnightblue" points="650.718,-361.321 660.89,-358.357 651.09,-354.331 650.718,-361.321"/>
</g>
<!-- Node11&#45;&gt;Node12 -->
<g id="edge19" class="edge"><title>Node11&#45;&gt;Node12</title>
<path fill="none" stroke="midnightblue" d="M416.824,-334.49C437.616,-329.186 464.559,-322.314 489.056,-316.065"/>
<polygon fill="midnightblue" stroke="midnightblue" points="490.195,-319.387 499.02,-313.524 488.465,-312.604 490.195,-319.387"/>
</g>
<!-- Node12&#45;&gt;Node4 -->
<g id="edge20" class="edge"><title>Node12&#45;&gt;Node4</title>
<path fill="none" stroke="midnightblue" d="M593.214,-313.569C617.013,-322.566 648.073,-334.308 673.493,-343.918"/>
<polygon fill="midnightblue" stroke="midnightblue" points="672.342,-347.224 682.933,-347.487 674.817,-340.677 672.342,-347.224"/>
</g>
<!-- Node13&#45;&gt;Node2 -->
<g id="edge23" class="edge"><title>Node13&#45;&gt;Node2</title>
<path fill="none" stroke="midnightblue" d="M347.098,-276.595C329.591,-282.239 307.273,-288.532 286.084,-293.902"/>
<polygon fill="midnightblue" stroke="midnightblue" points="284.986,-290.568 276.126,-296.377 286.675,-297.361 284.986,-290.568"/>
</g>
<!-- Node13&#45;&gt;Node4 -->
<g id="edge24" class="edge"><title>Node13&#45;&gt;Node4</title>
<path fill="none" stroke="midnightblue" d="M440.752,-254.886C491.627,-250.821 565.888,-250.888 625,-275.5 657.492,-289.028 686.106,-318.68 703.226,-339.36"/>
<polygon fill="midnightblue" stroke="midnightblue" points="700.637,-341.726 709.628,-347.331 706.095,-337.343 700.637,-341.726"/>
</g>
<!-- Node14&#45;&gt;Node2 -->
<g id="edge26" class="edge"><title>Node14&#45;&gt;Node2</title>
<path fill="none" stroke="midnightblue" d="M356.026,-229.597C342.731,-234.644 326.009,-240.361 312,-247.5 291.022,-258.191 269.434,-273.053 252.15,-285.211"/>
<polygon fill="midnightblue" stroke="midnightblue" points="249.687,-282.665 243.529,-291.287 253.719,-288.387 249.687,-282.665"/>
</g>
<!-- Node14&#45;&gt;Node4 -->
<g id="edge27" class="edge"><title>Node14&#45;&gt;Node4</title>
<path fill="none" stroke="midnightblue" d="M440.501,-212.292C492.229,-212.04 567.876,-218.068 625,-249.5 662.602,-270.191 691.828,-312.095 707.436,-338.37"/>
<polygon fill="midnightblue" stroke="midnightblue" points="704.539,-340.353 712.56,-347.275 710.606,-336.862 704.539,-340.353"/>
</g>
<!-- Node15 -->
<g id="node15" class="node"><title>Node15</title>
<g id="a_node15"><a xlink:href="classprior__hessian_1_1ParetoDist.html#a218ebbdec10fbdfcaabdd79dd180b39e" target="_top" xlink:title="prior_hessian::ParetoDist\l::set_params">
<polygon fill="white" stroke="black" points="495,-144.5 495,-172.5 615,-172.5 615,-144.5 495,-144.5"/>
<text text-anchor="start" x="503" y="-161.3" font-family="Helvetica,sans-Serif" font-size="9.00">prior_hessian::ParetoDist</text>
<text text-anchor="middle" x="555" y="-151.3" font-family="Helvetica,sans-Serif" font-size="9.00">::set_params</text>
</a>
</g>
</g>
<!-- Node14&#45;&gt;Node15 -->
<g id="edge28" class="edge"><title>Node14&#45;&gt;Node15</title>
<path fill="none" stroke="midnightblue" d="M424.14,-201.41C447.657,-193.639 477.044,-183.929 501.912,-175.712"/>
<polygon fill="midnightblue" stroke="midnightblue" points="503.155,-178.987 511.551,-172.526 500.958,-172.341 503.155,-178.987"/>
</g>
<!-- Node16&#45;&gt;Node2 -->
<g id="edge30" class="edge"><title>Node16&#45;&gt;Node2</title>
<path fill="none" stroke="midnightblue" d="M361.673,-182.51C347.325,-186.332 327.128,-190.839 312,-200.5 278.692,-221.771 251.19,-258.484 234.496,-282.558"/>
<polygon fill="midnightblue" stroke="midnightblue" points="231.403,-280.88 228.637,-291.108 237.177,-284.837 231.403,-280.88"/>
</g>
<!-- Node17&#45;&gt;Node2 -->
<g id="edge33" class="edge"><title>Node17&#45;&gt;Node2</title>
<path fill="none" stroke="midnightblue" d="M348.763,-145.57C336.396,-149.721 322.587,-155.133 312,-163.5 271.217,-195.732 243.076,-250.604 228.53,-282.04"/>
<polygon fill="midnightblue" stroke="midnightblue" points="225.243,-280.813 224.287,-291.365 231.615,-283.713 225.243,-280.813"/>
</g>
<!-- Node19&#45;&gt;Node4 -->
<g id="edge39" class="edge"><title>Node19&#45;&gt;Node4</title>
<path fill="none" stroke="midnightblue" d="M440.718,-47.2857C495.141,-59.1519 574.765,-84.1818 625,-134.5 683.139,-192.736 707.571,-291.848 716.105,-337.355"/>
<polygon fill="midnightblue" stroke="midnightblue" points="712.706,-338.232 717.902,-347.466 719.598,-337.007 712.706,-338.232"/>
</g>
<!-- Node19&#45;&gt;Node15 -->
<g id="edge40" class="edge"><title>Node19&#45;&gt;Node15</title>
<path fill="none" stroke="midnightblue" d="M432.676,-51.6223C438.404,-54.1562 443.977,-57.0983 449,-60.5 469.356,-74.2862 467.384,-85.3505 485,-102.5 497.968,-115.124 513.539,-127.937 526.605,-138.115"/>
<polygon fill="midnightblue" stroke="midnightblue" points="524.715,-141.077 534.777,-144.395 528.98,-135.526 524.715,-141.077"/>
</g>
<!-- Node20 -->
<g id="node20" class="node"><title>Node20</title>
<g id="a_node20"><a xlink:href="classprior__hessian_1_1ParetoDist.html#acef10b17c003468838f548ed255d7e1f" target="_top" xlink:title="prior_hessian::ParetoDist::min">
<polygon fill="white" stroke="black" points="485,-28.5 485,-46.5 625,-46.5 625,-28.5 485,-28.5"/>
<text text-anchor="middle" x="555" y="-35.3" font-family="Helvetica,sans-Serif" font-size="9.00">prior_hessian::ParetoDist::min</text>
</a>
</g>
</g>
<!-- Node19&#45;&gt;Node20 -->
<g id="edge36" class="edge"><title>Node19&#45;&gt;Node20</title>
<path fill="none" stroke="midnightblue" d="M440.865,-37.5C451.684,-37.5 463.13,-37.5 474.423,-37.5"/>
<polygon fill="midnightblue" stroke="midnightblue" points="474.729,-41.0001 484.729,-37.5 474.729,-34.0001 474.729,-41.0001"/>
</g>
<!-- Node21 -->
<g id="node21" class="node"><title>Node21</title>
<g id="a_node21"><a xlink:href="classprior__hessian_1_1ParetoDist.html#ace279cdfa7dbdcd8805ddb2ec4b46ee2" target="_top" xlink:title="prior_hessian::ParetoDist\l::set_min">
<polygon fill="white" stroke="black" points="661,-47.5 661,-75.5 781,-75.5 781,-47.5 661,-47.5"/>
<text text-anchor="start" x="669" y="-64.3" font-family="Helvetica,sans-Serif" font-size="9.00">prior_hessian::ParetoDist</text>
<text text-anchor="middle" x="721" y="-54.3" font-family="Helvetica,sans-Serif" font-size="9.00">::set_min</text>
</a>
</g>
</g>
<!-- Node20&#45;&gt;Node21 -->
<g id="edge37" class="edge"><title>Node20&#45;&gt;Node21</title>
<path fill="none" stroke="midnightblue" d="M617.534,-46.505C628.39,-48.0936 639.757,-49.7571 650.806,-51.374"/>
<polygon fill="midnightblue" stroke="midnightblue" points="650.438,-54.8574 660.839,-52.8423 651.452,-47.9311 650.438,-54.8574"/>
</g>
<!-- Node22 -->
<g id="node22" class="node"><title>Node22</title>
<g id="a_node22"><a xlink:href="classprior__hessian_1_1ParetoDist.html#a5c2b026477495e3fc91a1cfb653d8a97" target="_top" xlink:title="prior_hessian::ParetoDist\l::set_alpha">
<polygon fill="white" stroke="black" points="661,-0.5 661,-28.5 781,-28.5 781,-0.5 661,-0.5"/>
<text text-anchor="start" x="669" y="-17.3" font-family="Helvetica,sans-Serif" font-size="9.00">prior_hessian::ParetoDist</text>
<text text-anchor="middle" x="721" y="-7.3" font-family="Helvetica,sans-Serif" font-size="9.00">::set_alpha</text>
</a>
</g>
</g>
<!-- Node20&#45;&gt;Node22 -->
<g id="edge38" class="edge"><title>Node20&#45;&gt;Node22</title>
<path fill="none" stroke="midnightblue" d="M620.346,-28.4758C630.375,-27.0694 640.773,-25.6112 650.901,-24.1907"/>
<polygon fill="midnightblue" stroke="midnightblue" points="651.499,-27.6411 660.916,-22.7861 650.527,-20.709 651.499,-27.6411"/>
</g>
</g>
</svg>
