<?xml version="1.0" encoding="UTF-8" standalone="no"?>
<!DOCTYPE svg PUBLIC "-//W3C//DTD SVG 1.1//EN"
 "http://www.w3.org/Graphics/SVG/1.1/DTD/svg11.dtd">
<!-- Generated by graphviz version 2.38.0 (20140413.2041)
 -->
<!-- Title: prior_hessian::SymmetricBetaDist::llh Pages: 1 -->
<svg width="596pt" height="127pt"
 viewBox="0.00 0.00 596.00 127.00" xmlns="http://www.w3.org/2000/svg" xmlns:xlink="http://www.w3.org/1999/xlink">
<g id="graph0" class="graph" transform="scale(1 1) rotate(0) translate(4 123)">
<title>prior_hessian::SymmetricBetaDist::llh</title>
<polygon fill="white" stroke="none" points="-4,4 -4,-123 592,-123 592,4 -4,4"/>
<!-- Node1 -->
<g id="node1" class="node"><title>Node1</title>
<polygon fill="#bfbfbf" stroke="black" points="0,-23.5 0,-51.5 120,-51.5 120,-23.5 0,-23.5"/>
<text text-anchor="start" x="8" y="-40.3" font-family="Helvetica,sans-Serif" font-size="9.00">prior_hessian::Symmetric</text>
<text text-anchor="middle" x="60" y="-30.3" font-family="Helvetica,sans-Serif" font-size="9.00">BetaDist::llh</text>
</g>
<!-- Node2 -->
<g id="node2" class="node"><title>Node2</title>
<g id="a_node2"><a xlink:href="classprior__hessian_1_1SymmetricBetaDist.html#a1e726eb12d98240778d7c0bfaafc7edd" target="_top" xlink:title="prior_hessian::Symmetric\lBetaDist::beta">
<polygon fill="white" stroke="black" points="156,-47.5 156,-75.5 276,-75.5 276,-47.5 156,-47.5"/>
<text text-anchor="start" x="164" y="-64.3" font-family="Helvetica,sans-Serif" font-size="9.00">prior_hessian::Symmetric</text>
<text text-anchor="middle" x="216" y="-54.3" font-family="Helvetica,sans-Serif" font-size="9.00">BetaDist::beta</text>
</a>
</g>
</g>
<!-- Node1&#45;&gt;Node2 -->
<g id="edge1" class="edge"><title>Node1&#45;&gt;Node2</title>
<path fill="none" stroke="midnightblue" d="M120.1,-46.7104C128.513,-48.0215 137.228,-49.3797 145.813,-50.7175"/>
<polygon fill="midnightblue" stroke="midnightblue" points="145.384,-54.1929 155.804,-52.2746 146.462,-47.2764 145.384,-54.1929"/>
</g>
<!-- Node6 -->
<g id="node6" class="node"><title>Node6</title>
<g id="a_node6"><a xlink:href="classprior__hessian_1_1SymmetricBetaDist.html#aaeb20e0c35223789304c4de29aa0461b" target="_top" xlink:title="prior_hessian::Symmetric\lBetaDist::rllh">
<polygon fill="white" stroke="black" points="156,-0.5 156,-28.5 276,-28.5 276,-0.5 156,-0.5"/>
<text text-anchor="start" x="164" y="-17.3" font-family="Helvetica,sans-Serif" font-size="9.00">prior_hessian::Symmetric</text>
<text text-anchor="middle" x="216" y="-7.3" font-family="Helvetica,sans-Serif" font-size="9.00">BetaDist::rllh</text>
</a>
</g>
</g>
<!-- Node1&#45;&gt;Node6 -->
<g id="edge6" class="edge"><title>Node1&#45;&gt;Node6</title>
<path fill="none" stroke="midnightblue" d="M120.1,-28.6734C128.513,-27.4169 137.228,-26.1152 145.813,-24.8332"/>
<polygon fill="midnightblue" stroke="midnightblue" points="146.43,-28.2798 155.804,-23.341 145.396,-21.3566 146.43,-28.2798"/>
</g>
<!-- Node3 -->
<g id="node3" class="node"><title>Node3</title>
<g id="a_node3"><a xlink:href="classprior__hessian_1_1SymmetricBetaDist.html#a286000c0198e921b56821c4552afdaa4" target="_top" xlink:title="prior_hessian::Symmetric\lBetaDist::get_param">
<polygon fill="white" stroke="black" points="312,-90.5 312,-118.5 432,-118.5 432,-90.5 312,-90.5"/>
<text text-anchor="start" x="320" y="-107.3" font-family="Helvetica,sans-Serif" font-size="9.00">prior_hessian::Symmetric</text>
<text text-anchor="middle" x="372" y="-97.3" font-family="Helvetica,sans-Serif" font-size="9.00">BetaDist::get_param</text>
</a>
</g>
</g>
<!-- Node2&#45;&gt;Node3 -->
<g id="edge2" class="edge"><title>Node2&#45;&gt;Node3</title>
<path fill="none" stroke="midnightblue" d="M267.425,-75.5798C281.324,-79.4605 296.538,-83.7088 310.924,-87.7255"/>
<polygon fill="midnightblue" stroke="midnightblue" points="310.152,-91.1437 320.724,-90.462 312.034,-84.4016 310.152,-91.1437"/>
</g>
<!-- Node4 -->
<g id="node4" class="node"><title>Node4</title>
<g id="a_node4"><a xlink:href="classprior__hessian_1_1SymmetricBetaDist.html#a45a39dc6a12ec1af15a1701023101f1f" target="_top" xlink:title="prior_hessian::Symmetric\lBetaDist::set_beta">
<polygon fill="white" stroke="black" points="468,-25.5 468,-53.5 588,-53.5 588,-25.5 468,-25.5"/>
<text text-anchor="start" x="476" y="-42.3" font-family="Helvetica,sans-Serif" font-size="9.00">prior_hessian::Symmetric</text>
<text text-anchor="middle" x="528" y="-32.3" font-family="Helvetica,sans-Serif" font-size="9.00">BetaDist::set_beta</text>
</a>
</g>
</g>
<!-- Node2&#45;&gt;Node4 -->
<g id="edge3" class="edge"><title>Node2&#45;&gt;Node4</title>
<path fill="none" stroke="midnightblue" d="M276.038,-57.3102C327.777,-53.6384 403.033,-48.2977 457.631,-44.423"/>
<polygon fill="midnightblue" stroke="midnightblue" points="458.191,-47.8921 467.918,-43.6929 457.695,-40.9097 458.191,-47.8921"/>
</g>
<!-- Node5 -->
<g id="node5" class="node"><title>Node5</title>
<g id="a_node5"><a xlink:href="classprior__hessian_1_1SymmetricBetaDist.html#a5ea7086046d4558c83b2211503501fca" target="_top" xlink:title="prior_hessian::Symmetric\lBetaDist::set_param">
<polygon fill="white" stroke="black" points="312,-4.5 312,-32.5 432,-32.5 432,-4.5 312,-4.5"/>
<text text-anchor="start" x="320" y="-21.3" font-family="Helvetica,sans-Serif" font-size="9.00">prior_hessian::Symmetric</text>
<text text-anchor="middle" x="372" y="-11.3" font-family="Helvetica,sans-Serif" font-size="9.00">BetaDist::set_param</text>
</a>
</g>
</g>
<!-- Node2&#45;&gt;Node5 -->
<g id="edge4" class="edge"><title>Node2&#45;&gt;Node5</title>
<path fill="none" stroke="midnightblue" d="M267.425,-47.4202C281.324,-43.5395 296.538,-39.2912 310.924,-35.2745"/>
<polygon fill="midnightblue" stroke="midnightblue" points="312.034,-38.5984 320.724,-32.538 310.152,-31.8563 312.034,-38.5984"/>
</g>
<!-- Node5&#45;&gt;Node4 -->
<g id="edge5" class="edge"><title>Node5&#45;&gt;Node4</title>
<path fill="none" stroke="midnightblue" d="M432.1,-26.5591C440.513,-27.7064 449.228,-28.8948 457.813,-30.0654"/>
<polygon fill="midnightblue" stroke="midnightblue" points="457.422,-33.5445 467.804,-31.4278 458.368,-26.6087 457.422,-33.5445"/>
</g>
</g>
</svg>
