<?xml version="1.0" encoding="UTF-8" standalone="no"?>
<!DOCTYPE svg PUBLIC "-//W3C//DTD SVG 1.1//EN"
 "http://www.w3.org/Graphics/SVG/1.1/DTD/svg11.dtd">
<!-- Generated by graphviz version 2.38.0 (20140413.2041)
 -->
<!-- Title: prior_hessian::CompositeDist::num_components Pages: 1 -->
<svg width="963pt" height="320pt"
 viewBox="0.00 0.00 963.00 320.08" xmlns="http://www.w3.org/2000/svg" xmlns:xlink="http://www.w3.org/1999/xlink">
<g id="graph0" class="graph" transform="scale(1 1) rotate(0) translate(4 316.079)">
<title>prior_hessian::CompositeDist::num_components</title>
<polygon fill="white" stroke="none" points="-4,4 -4,-316.079 959,-316.079 959,4 -4,4"/>
<!-- Node1 -->
<g id="node1" class="node"><title>Node1</title>
<polygon fill="#bfbfbf" stroke="black" points="0,-192.579 0,-220.579 122,-220.579 122,-192.579 0,-192.579"/>
<text text-anchor="start" x="8" y="-209.379" font-family="Helvetica,sans-Serif" font-size="9.00">prior_hessian::Composite</text>
<text text-anchor="middle" x="61" y="-199.379" font-family="Helvetica,sans-Serif" font-size="9.00">Dist::num_components</text>
</g>
<!-- Node2 -->
<g id="node2" class="node"><title>Node2</title>
<g id="a_node2"><a xlink:href="namespaceprior__hessian.html#ab26e9ddc3b6a5caccf5d75e1a1e1af1b" target="_top" xlink:title="prior_hessian::operator\&lt;\&lt;">
<polygon fill="white" stroke="black" points="342.5,-293.579 342.5,-311.579 464.5,-311.579 464.5,-293.579 342.5,-293.579"/>
<text text-anchor="middle" x="403.5" y="-300.379" font-family="Helvetica,sans-Serif" font-size="9.00">prior_hessian::operator&lt;&lt;</text>
</a>
</g>
</g>
<!-- Node1&#45;&gt;Node2 -->
<g id="edge1" class="edge"><title>Node1&#45;&gt;Node2</title>
<path fill="none" stroke="midnightblue" d="M121.77,-223.43C194.172,-243.843 313.495,-277.484 370.39,-293.525"/>
<polygon fill="midnightblue" stroke="midnightblue" points="122.451,-219.986 111.876,-220.641 120.551,-226.723 122.451,-219.986"/>
</g>
<!-- Node6 -->
<g id="node6" class="node"><title>Node6</title>
<g id="a_node6"><a xlink:href="classprior__hessian_1_1CompositeDist.html#ae7ca30fd19fb59ebe241873443b9faed" target="_top" xlink:title="prior_hessian::Composite\lDist::param_names">
<polygon fill="white" stroke="black" points="163.5,-192.579 163.5,-220.579 285.5,-220.579 285.5,-192.579 163.5,-192.579"/>
<text text-anchor="start" x="171.5" y="-209.379" font-family="Helvetica,sans-Serif" font-size="9.00">prior_hessian::Composite</text>
<text text-anchor="middle" x="224.5" y="-199.379" font-family="Helvetica,sans-Serif" font-size="9.00">Dist::param_names</text>
</a>
</g>
</g>
<!-- Node1&#45;&gt;Node6 -->
<g id="edge6" class="edge"><title>Node1&#45;&gt;Node6</title>
<path fill="none" stroke="midnightblue" d="M132.354,-206.579C142.673,-206.579 153.222,-206.579 163.313,-206.579"/>
<polygon fill="midnightblue" stroke="midnightblue" points="132.137,-203.079 122.137,-206.579 132.137,-210.079 132.137,-203.079"/>
</g>
<!-- Node9 -->
<g id="node9" class="node"><title>Node9</title>
<g id="a_node9"><a xlink:href="classprior__hessian_1_1CompositeDist.html#aa2a230c7e878eae70cb347321a95a7f3" target="_top" xlink:title="prior_hessian::Composite\lDist::set_component_names">
<polygon fill="white" stroke="black" points="158,-72.5785 158,-100.579 291,-100.579 291,-72.5785 158,-72.5785"/>
<text text-anchor="start" x="166" y="-89.3785" font-family="Helvetica,sans-Serif" font-size="9.00">prior_hessian::Composite</text>
<text text-anchor="middle" x="224.5" y="-79.3785" font-family="Helvetica,sans-Serif" font-size="9.00">Dist::set_component_names</text>
</a>
</g>
</g>
<!-- Node1&#45;&gt;Node9 -->
<g id="edge13" class="edge"><title>Node1&#45;&gt;Node9</title>
<path fill="none" stroke="midnightblue" d="M89.0619,-186.471C121.768,-162.169 175.96,-121.902 204.528,-100.675"/>
<polygon fill="midnightblue" stroke="midnightblue" points="86.7815,-183.805 80.8422,-192.578 90.9564,-189.423 86.7815,-183.805"/>
</g>
<!-- Node3 -->
<g id="node3" class="node"><title>Node3</title>
<g id="a_node3"><a xlink:href="classprior__hessian_1_1CompositeDist.html#a38c4fdacf927824117d202422b04013c" target="_top" xlink:title="prior_hessian::Composite\lDist::set_param_names">
<polygon fill="white" stroke="black" points="516,-258.579 516,-286.579 638,-286.579 638,-258.579 516,-258.579"/>
<text text-anchor="start" x="524" y="-275.379" font-family="Helvetica,sans-Serif" font-size="9.00">prior_hessian::Composite</text>
<text text-anchor="middle" x="577" y="-265.379" font-family="Helvetica,sans-Serif" font-size="9.00">Dist::set_param_names</text>
</a>
</g>
</g>
<!-- Node2&#45;&gt;Node3 -->
<g id="edge2" class="edge"><title>Node2&#45;&gt;Node3</title>
<path fill="none" stroke="midnightblue" d="M465.884,-291.841C482.13,-288.999 499.65,-285.934 515.831,-283.104"/>
<polygon fill="midnightblue" stroke="midnightblue" points="465.203,-288.407 455.956,-293.578 466.409,-295.302 465.203,-288.407"/>
</g>
<!-- Node4 -->
<g id="node4" class="node"><title>Node4</title>
<g id="a_node4"><a xlink:href="classprior__hessian_1_1CompositeDist.html#a927fed39b2b4e87714c728d6e7b11e8b" target="_top" xlink:title="prior_hessian::Composite\lDist::params_components">
<polygon fill="white" stroke="black" points="674,-217.579 674,-245.579 797,-245.579 797,-217.579 674,-217.579"/>
<text text-anchor="start" x="682" y="-234.379" font-family="Helvetica,sans-Serif" font-size="9.00">prior_hessian::Composite</text>
<text text-anchor="middle" x="735.5" y="-224.379" font-family="Helvetica,sans-Serif" font-size="9.00">Dist::params_components</text>
</a>
</g>
</g>
<!-- Node3&#45;&gt;Node4 -->
<g id="edge3" class="edge"><title>Node3&#45;&gt;Node4</title>
<path fill="none" stroke="midnightblue" d="M641.661,-255.901C654.654,-252.497 668.204,-248.947 680.808,-245.645"/>
<polygon fill="midnightblue" stroke="midnightblue" points="640.645,-252.549 631.858,-258.469 642.419,-259.32 640.645,-252.549"/>
</g>
<!-- Node5 -->
<g id="node5" class="node"><title>Node5</title>
<g id="a_node5"><a xlink:href="classprior__hessian_1_1CompositeDist.html#a24bac25ae8c0330b8a3aacadffc9d5ae" target="_top" xlink:title="prior_hessian::Composite\lDist::rllh_components">
<polygon fill="white" stroke="black" points="833,-195.579 833,-223.579 955,-223.579 955,-195.579 833,-195.579"/>
<text text-anchor="start" x="841" y="-212.379" font-family="Helvetica,sans-Serif" font-size="9.00">prior_hessian::Composite</text>
<text text-anchor="middle" x="894" y="-202.379" font-family="Helvetica,sans-Serif" font-size="9.00">Dist::rllh_components</text>
</a>
</g>
</g>
<!-- Node3&#45;&gt;Node5 -->
<g id="edge5" class="edge"><title>Node3&#45;&gt;Node5</title>
<path fill="none" stroke="midnightblue" d="M648.224,-273.658C691.741,-272.732 748.409,-268.617 797,-255.579 823.239,-248.538 850.998,-234.415 869.88,-223.666"/>
<polygon fill="midnightblue" stroke="midnightblue" points="647.964,-270.161 638.022,-273.822 648.077,-277.16 647.964,-270.161"/>
</g>
<!-- Node4&#45;&gt;Node5 -->
<g id="edge4" class="edge"><title>Node4&#45;&gt;Node5</title>
<path fill="none" stroke="midnightblue" d="M807.059,-221.66C815.692,-220.446 824.452,-219.215 832.912,-218.025"/>
<polygon fill="midnightblue" stroke="midnightblue" points="806.422,-218.215 797.007,-223.073 807.397,-225.147 806.422,-218.215"/>
</g>
<!-- Node6&#45;&gt;Node2 -->
<g id="edge7" class="edge"><title>Node6&#45;&gt;Node2</title>
<path fill="none" stroke="midnightblue" d="M249.928,-227.201C269.676,-243.031 298.745,-264.496 327,-278.579 339.31,-284.714 353.523,-289.718 366.274,-293.539"/>
<polygon fill="midnightblue" stroke="midnightblue" points="252.029,-224.398 242.065,-220.799 247.61,-229.827 252.029,-224.398"/>
</g>
<!-- Node6&#45;&gt;Node3 -->
<g id="edge12" class="edge"><title>Node6&#45;&gt;Node3</title>
<path fill="none" stroke="midnightblue" d="M271.45,-224.088C288.664,-230.083 308.527,-236.34 327,-240.579 390.615,-255.173 465.008,-263.643 515.802,-268.16"/>
<polygon fill="midnightblue" stroke="midnightblue" points="272.247,-220.657 261.652,-220.606 269.902,-227.252 272.247,-220.657"/>
</g>
<!-- Node6&#45;&gt;Node4 -->
<g id="edge8" class="edge"><title>Node6&#45;&gt;Node4</title>
<path fill="none" stroke="midnightblue" d="M295.677,-210.025C396.027,-214.954 578.847,-223.933 673.726,-228.594"/>
<polygon fill="midnightblue" stroke="midnightblue" points="295.796,-206.527 285.636,-209.532 295.453,-213.519 295.796,-206.527"/>
</g>
<!-- Node6&#45;&gt;Node5 -->
<g id="edge9" class="edge"><title>Node6&#45;&gt;Node5</title>
<path fill="none" stroke="midnightblue" d="M295.665,-206.668C403.459,-206.841 616.301,-207.321 797,-208.579 808.584,-208.659 820.953,-208.77 832.828,-208.888"/>
<polygon fill="midnightblue" stroke="midnightblue" points="295.571,-203.168 285.565,-206.652 295.56,-210.168 295.571,-203.168"/>
</g>
<!-- Node7 -->
<g id="node7" class="node"><title>Node7</title>
<g id="a_node7"><a xlink:href="classprior__hessian_1_1CompositeDist_1_1ComponentDistAdaptor_3_01Dist_00_01meta_1_1EnableIfSubclc6c9bd83bba546a81e521c87ad7ee6d3.html#a75bbad1826eb579d89540607f59f3919" target="_top" xlink:title="prior_hessian::Composite\lDist::ComponentDistAdaptor\l\&lt; Dist, meta::EnableIfSubclassT\l\&lt; Dist, UnivariateDist \&gt; \&gt;::append\l_param_names">
<polygon fill="white" stroke="black" points="327,-101.579 327,-159.579 480,-159.579 480,-101.579 327,-101.579"/>
<text text-anchor="start" x="335" y="-148.379" font-family="Helvetica,sans-Serif" font-size="9.00">prior_hessian::Composite</text>
<text text-anchor="start" x="335" y="-138.379" font-family="Helvetica,sans-Serif" font-size="9.00">Dist::ComponentDistAdaptor</text>
<text text-anchor="start" x="335" y="-128.379" font-family="Helvetica,sans-Serif" font-size="9.00">&lt; Dist, meta::EnableIfSubclassT</text>
<text text-anchor="start" x="335" y="-118.379" font-family="Helvetica,sans-Serif" font-size="9.00">&lt; Dist, UnivariateDist &gt; &gt;::append</text>
<text text-anchor="middle" x="403.5" y="-108.379" font-family="Helvetica,sans-Serif" font-size="9.00">_param_names</text>
</a>
</g>
</g>
<!-- Node6&#45;&gt;Node7 -->
<g id="edge10" class="edge"><title>Node6&#45;&gt;Node7</title>
<path fill="none" stroke="midnightblue" d="M267.809,-188.412C287.79,-179.832 312.137,-169.378 334.607,-159.73"/>
<polygon fill="midnightblue" stroke="midnightblue" points="266.185,-185.3 258.378,-192.462 268.947,-191.732 266.185,-185.3"/>
</g>
<!-- Node8 -->
<g id="node8" class="node"><title>Node8</title>
<g id="a_node8"><a xlink:href="classprior__hessian_1_1CompositeDist_1_1ComponentDistAdaptor_3_01Dist_00_01meta_1_1EnableIfSubcld67d34d533dbae21b9dad35557546eec.html#a500e09e7f9b4431f7db471bf075cdce2" target="_top" xlink:title="prior_hessian::Composite\lDist::ComponentDistAdaptor\l\&lt; Dist, meta::EnableIfSubclassT\l\&lt; Dist, MultivariateDist \&gt; \&gt;\l::append_param_names">
<polygon fill="white" stroke="black" points="330.5,-24.5785 330.5,-82.5785 476.5,-82.5785 476.5,-24.5785 330.5,-24.5785"/>
<text text-anchor="start" x="338.5" y="-71.3785" font-family="Helvetica,sans-Serif" font-size="9.00">prior_hessian::Composite</text>
<text text-anchor="start" x="338.5" y="-61.3785" font-family="Helvetica,sans-Serif" font-size="9.00">Dist::ComponentDistAdaptor</text>
<text text-anchor="start" x="338.5" y="-51.3785" font-family="Helvetica,sans-Serif" font-size="9.00">&lt; Dist, meta::EnableIfSubclassT</text>
<text text-anchor="start" x="338.5" y="-41.3785" font-family="Helvetica,sans-Serif" font-size="9.00">&lt; Dist, MultivariateDist &gt; &gt;</text>
<text text-anchor="middle" x="403.5" y="-31.3785" font-family="Helvetica,sans-Serif" font-size="9.00">::append_param_names</text>
</a>
</g>
</g>
<!-- Node6&#45;&gt;Node8 -->
<g id="edge11" class="edge"><title>Node6&#45;&gt;Node8</title>
<path fill="none" stroke="midnightblue" d="M241.302,-184.388C259.74,-159.662 292.171,-119.614 327,-92.5785 331.429,-89.141 336.206,-85.8646 341.131,-82.7774"/>
<polygon fill="midnightblue" stroke="midnightblue" points="238.481,-182.316 235.383,-192.448 244.123,-186.46 238.481,-182.316"/>
</g>
<!-- Node10 -->
<g id="node10" class="node"><title>Node10</title>
<g id="a_node10"><a xlink:href="classprior__hessian_1_1CompositeDist.html#ad796a4f6b17cc35f936dee7d7d9a9a43" target="_top" xlink:title="prior_hessian::Composite\lDist::component_types">
<polygon fill="white" stroke="black" points="516,-56.5785 516,-84.5785 638,-84.5785 638,-56.5785 516,-56.5785"/>
<text text-anchor="start" x="524" y="-73.3785" font-family="Helvetica,sans-Serif" font-size="9.00">prior_hessian::Composite</text>
<text text-anchor="middle" x="577" y="-63.3785" font-family="Helvetica,sans-Serif" font-size="9.00">Dist::component_types</text>
</a>
</g>
</g>
<!-- Node9&#45;&gt;Node10 -->
<g id="edge14" class="edge"><title>Node9&#45;&gt;Node10</title>
<path fill="none" stroke="midnightblue" d="M246.889,-65.3059C266.041,-47.8694 295.84,-24.5082 327,-14.5785 391.79,6.06765 414.357,3.16811 480,-14.5785 509.988,-22.6859 540.227,-42.745 558.54,-56.5162"/>
<polygon fill="midnightblue" stroke="midnightblue" points="244.264,-62.9684 239.36,-72.3595 249.05,-68.0768 244.264,-62.9684"/>
</g>
<!-- Node10&#45;&gt;Node5 -->
<g id="edge15" class="edge"><title>Node10&#45;&gt;Node5</title>
<path fill="none" stroke="midnightblue" d="M619.265,-88.7874C682.863,-116.851 803.49,-170.08 860.978,-195.448"/>
<polygon fill="midnightblue" stroke="midnightblue" points="620.499,-85.5066 609.937,-84.6715 617.673,-91.9108 620.499,-85.5066"/>
</g>
</g>
</svg>
