<?xml version="1.0" encoding="UTF-8" standalone="no"?>
<!DOCTYPE svg PUBLIC "-//W3C//DTD SVG 1.1//EN"
 "http://www.w3.org/Graphics/SVG/1.1/DTD/svg11.dtd">
<!-- Generated by graphviz version 2.38.0 (20140413.2041)
 -->
<!-- Title: prior_hessian::CompositeDist::num_dim Pages: 1 -->
<!--zoomable 988 -->
<svg id="main" version="1.1" xmlns="http://www.w3.org/2000/svg" xmlns:xlink="http://www.w3.org/1999/xlink" xml:space="preserve" onload="init(evt)">
<style type="text/css"><![CDATA[
.edge:hover path { stroke: red; }
.edge:hover polygon { stroke: red; fill: red; }
]]></style>
<script type="text/javascript"><![CDATA[
var edges = document.getElementsByTagName('g');
if (edges && edges.length) {
  for (var i=0;i<edges.length;i++) {
    if (edges[i].id.substr(0,4)=='edge') {
      edges[i].setAttribute('class','edge');
    }
  }
}
]]></script>
        <defs>
                <circle id="rim" cx="0" cy="0" r="7"/>
                <circle id="rim2" cx="0" cy="0" r="3.5"/>
                <g id="zoomPlus">
                        <use xlink:href="#rim" fill="#404040">
                                <set attributeName="fill" to="#808080" begin="zoomplus.mouseover" end="zoomplus.mouseout"/>
                        </use>
                        <path d="M-4,0h8M0,-4v8" fill="none" stroke="white" stroke-width="1.5" pointer-events="none"/>
                </g>
                <g id="zoomMin">
                        <use xlink:href="#rim" fill="#404040">
                                <set attributeName="fill" to="#808080" begin="zoomminus.mouseover" end="zoomminus.mouseout"/>
                        </use>
                        <path d="M-4,0h8" fill="none" stroke="white" stroke-width="1.5" pointer-events="none"/>
                </g>
                <g id="dirArrow">
                        <path fill="none" stroke="white" stroke-width="1.5" d="M0,-3.0v7 M-2.5,-0.5L0,-3.0L2.5,-0.5"/>
                </g>
               <g id="resetDef">
                       <use xlink:href="#rim2" fill="#404040">
                               <set attributeName="fill" to="#808080" begin="reset.mouseover" end="reset.mouseout"/>
                       </use>
               </g>
        </defs>

<script type="text/javascript">
var viewWidth = 1134;
var viewHeight = 988;
var sectionId = 'dynsection-52';
</script>
<script xlink:href="svgpan.js"/>
<svg id="graph" class="graph">
<g id="viewport">
<title>prior_hessian::CompositeDist::num_dim</title>
<polygon fill="white" stroke="none" points="-4,4 -4,-984 1130,-984 1130,4 -4,4"/>
<!-- Node1 -->
<g id="node1" class="node"><title>Node1</title>
<polygon fill="#bfbfbf" stroke="black" points="0,-180.5 0,-208.5 122,-208.5 122,-180.5 0,-180.5"/>
<text text-anchor="start" x="8" y="-197.3" font-family="Helvetica,sans-Serif" font-size="9.00">prior_hessian::Composite</text>
<text text-anchor="middle" x="61" y="-187.3" font-family="Helvetica,sans-Serif" font-size="9.00">Dist::num_dim</text>
</g>
<!-- Node2 -->
<g id="node2" class="node"><title>Node2</title>
<g id="a_node2"><a xlink:href="classprior__hessian_1_1CompositeDist.html#aaa6bfd95f5914c0f68d67cd97ff40db3" target="_top" xlink:title="prior_hessian::Composite\lDist::grad">
<polygon fill="white" stroke="black" points="158,-806.5 158,-834.5 280,-834.5 280,-806.5 158,-806.5"/>
<text text-anchor="start" x="166" y="-823.3" font-family="Helvetica,sans-Serif" font-size="9.00">prior_hessian::Composite</text>
<text text-anchor="middle" x="219" y="-813.3" font-family="Helvetica,sans-Serif" font-size="9.00">Dist::grad</text>
</a>
</g>
</g>
<!-- Node1&#45;&gt;Node2 -->
<g id="edge1" class="edge"><title>Node1&#45;&gt;Node2</title>
<path fill="none" stroke="midnightblue" d="M62.9663,-218.767C67.3813,-318.785 88.5088,-698.167 158,-791.5 162.56,-797.625 168.757,-802.519 175.444,-806.41"/>
<polygon fill="midnightblue" stroke="midnightblue" points="66.4611,-218.569 62.5386,-208.727 59.4674,-218.867 66.4611,-218.569"/>
</g>
<!-- Node7 -->
<g id="node7" class="node"><title>Node7</title>
<g id="a_node7"><a xlink:href="classprior__hessian_1_1CompositeDist.html#a24bac25ae8c0330b8a3aacadffc9d5ae" target="_top" xlink:title="prior_hessian::Composite\lDist::rllh_components">
<polygon fill="white" stroke="black" points="1004,-372.5 1004,-400.5 1126,-400.5 1126,-372.5 1004,-372.5"/>
<text text-anchor="start" x="1012" y="-389.3" font-family="Helvetica,sans-Serif" font-size="9.00">prior_hessian::Composite</text>
<text text-anchor="middle" x="1065" y="-379.3" font-family="Helvetica,sans-Serif" font-size="9.00">Dist::rllh_components</text>
</a>
</g>
</g>
<!-- Node1&#45;&gt;Node7 -->
<g id="edge31" class="edge"><title>Node1&#45;&gt;Node7</title>
<path fill="none" stroke="midnightblue" d="M63.7628,-218.752C73.2039,-328.992 127.615,-777.5 388,-777.5 388,-777.5 388,-777.5 749,-777.5 946.441,-777.5 1041.09,-471.421 1060.28,-400.88"/>
<polygon fill="midnightblue" stroke="midnightblue" points="67.2384,-218.307 62.9427,-208.622 60.2612,-218.872 67.2384,-218.307"/>
</g>
<!-- Node8 -->
<g id="node8" class="node"><title>Node8</title>
<g id="a_node8"><a xlink:href="classprior__hessian_1_1CompositeDist.html#a90a25995e3e72cc958f188c78fc76d92" target="_top" xlink:title="prior_hessian::Composite\lDist::grad2">
<polygon fill="white" stroke="black" points="158,-551.5 158,-579.5 280,-579.5 280,-551.5 158,-551.5"/>
<text text-anchor="start" x="166" y="-568.3" font-family="Helvetica,sans-Serif" font-size="9.00">prior_hessian::Composite</text>
<text text-anchor="middle" x="219" y="-558.3" font-family="Helvetica,sans-Serif" font-size="9.00">Dist::grad2</text>
</a>
</g>
</g>
<!-- Node1&#45;&gt;Node8 -->
<g id="edge7" class="edge"><title>Node1&#45;&gt;Node8</title>
<path fill="none" stroke="midnightblue" d="M71.8469,-217.918C101.361,-288.109 188.506,-495.358 212.069,-551.395"/>
<polygon fill="midnightblue" stroke="midnightblue" points="75.0275,-216.452 67.9249,-208.591 68.5747,-219.166 75.0275,-216.452"/>
</g>
<!-- Node12 -->
<g id="node12" class="node"><title>Node12</title>
<g id="a_node12"><a xlink:href="classprior__hessian_1_1CompositeDist.html#ab8c1ff058081ab81620e24b0e3e85f5d" target="_top" xlink:title="prior_hessian::Composite\lDist::hess">
<polygon fill="white" stroke="black" points="158,-271.5 158,-299.5 280,-299.5 280,-271.5 158,-271.5"/>
<text text-anchor="start" x="166" y="-288.3" font-family="Helvetica,sans-Serif" font-size="9.00">prior_hessian::Composite</text>
<text text-anchor="middle" x="219" y="-278.3" font-family="Helvetica,sans-Serif" font-size="9.00">Dist::hess</text>
</a>
</g>
</g>
<!-- Node1&#45;&gt;Node12 -->
<g id="edge13" class="edge"><title>Node1&#45;&gt;Node12</title>
<path fill="none" stroke="midnightblue" d="M94.7712,-213.617C124.41,-230.906 167.361,-255.961 193.94,-271.465"/>
<polygon fill="midnightblue" stroke="midnightblue" points="96.4345,-210.535 86.0331,-208.519 92.9074,-216.581 96.4345,-210.535"/>
</g>
<!-- Node14 -->
<g id="node14" class="node"><title>Node14</title>
<g id="a_node14"><a xlink:href="classprior__hessian_1_1CompositeDist.html#ac27bd3125d941aa9e83b2c900e63d4fc" target="_top" xlink:title="prior_hessian::Composite\lDist::make_zero_grad">
<polygon fill="white" stroke="black" points="158,-47.5 158,-75.5 280,-75.5 280,-47.5 158,-47.5"/>
<text text-anchor="start" x="166" y="-64.3" font-family="Helvetica,sans-Serif" font-size="9.00">prior_hessian::Composite</text>
<text text-anchor="middle" x="219" y="-54.3" font-family="Helvetica,sans-Serif" font-size="9.00">Dist::make_zero_grad</text>
</a>
</g>
</g>
<!-- Node1&#45;&gt;Node14 -->
<g id="edge17" class="edge"><title>Node1&#45;&gt;Node14</title>
<path fill="none" stroke="midnightblue" d="M76.5675,-172.053C93.5045,-147.53 123.575,-108.542 158,-84.5 162.847,-81.1146 168.259,-78.1451 173.794,-75.5644"/>
<polygon fill="midnightblue" stroke="midnightblue" points="73.6397,-170.135 70.938,-180.379 79.4386,-174.056 73.6397,-170.135"/>
</g>
<!-- Node15 -->
<g id="node15" class="node"><title>Node15</title>
<g id="a_node15"><a xlink:href="classprior__hessian_1_1CompositeDist.html#ab92419cbc26b5fdd32cf5edffe54453f" target="_top" xlink:title="prior_hessian::Composite\lDist::make_zero_hess">
<polygon fill="white" stroke="black" points="158,-0.5 158,-28.5 280,-28.5 280,-0.5 158,-0.5"/>
<text text-anchor="start" x="166" y="-17.3" font-family="Helvetica,sans-Serif" font-size="9.00">prior_hessian::Composite</text>
<text text-anchor="middle" x="219" y="-7.3" font-family="Helvetica,sans-Serif" font-size="9.00">Dist::make_zero_hess</text>
</a>
</g>
</g>
<!-- Node1&#45;&gt;Node15 -->
<g id="edge18" class="edge"><title>Node1&#45;&gt;Node15</title>
<path fill="none" stroke="midnightblue" d="M70.7993,-170.611C84.4769,-136.567 113.933,-74.1689 158,-37.5 162.116,-34.0749 166.798,-31.1256 171.689,-28.5941"/>
<polygon fill="midnightblue" stroke="midnightblue" points="67.4302,-169.617 67.0624,-180.206 73.953,-172.158 67.4302,-169.617"/>
</g>
<!-- Node16 -->
<g id="node16" class="node"><title>Node16</title>
<g id="a_node16"><a xlink:href="namespaceprior__hessian.html#ab26e9ddc3b6a5caccf5d75e1a1e1af1b" target="_top" xlink:title="prior_hessian::operator\&lt;\&lt;">
<polygon fill="white" stroke="black" points="513.5,-89.5 513.5,-107.5 635.5,-107.5 635.5,-89.5 513.5,-89.5"/>
<text text-anchor="middle" x="574.5" y="-96.3" font-family="Helvetica,sans-Serif" font-size="9.00">prior_hessian::operator&lt;&lt;</text>
</a>
</g>
</g>
<!-- Node1&#45;&gt;Node16 -->
<g id="edge19" class="edge"><title>Node1&#45;&gt;Node16</title>
<path fill="none" stroke="midnightblue" d="M132.003,-182.225C211.924,-168.095 346.539,-143.941 462,-121.5 484.797,-117.069 510.157,-111.86 530.924,-107.521"/>
<polygon fill="midnightblue" stroke="midnightblue" points="131.293,-178.796 122.054,-183.982 132.511,-185.69 131.293,-178.796"/>
</g>
<!-- Node19 -->
<g id="node19" class="node"><title>Node19</title>
<g id="a_node19"><a xlink:href="classprior__hessian_1_1CompositeDist.html#ae7ca30fd19fb59ebe241873443b9faed" target="_top" xlink:title="prior_hessian::Composite\lDist::param_names">
<polygon fill="white" stroke="black" points="328,-180.5 328,-208.5 450,-208.5 450,-180.5 328,-180.5"/>
<text text-anchor="start" x="336" y="-197.3" font-family="Helvetica,sans-Serif" font-size="9.00">prior_hessian::Composite</text>
<text text-anchor="middle" x="389" y="-187.3" font-family="Helvetica,sans-Serif" font-size="9.00">Dist::param_names</text>
</a>
</g>
</g>
<!-- Node1&#45;&gt;Node19 -->
<g id="edge24" class="edge"><title>Node1&#45;&gt;Node19</title>
<path fill="none" stroke="midnightblue" d="M132.408,-194.5C190.706,-194.5 272.649,-194.5 327.902,-194.5"/>
<polygon fill="midnightblue" stroke="midnightblue" points="132.173,-191 122.173,-194.5 132.173,-198 132.173,-191"/>
</g>
<!-- Node22 -->
<g id="node22" class="node"><title>Node22</title>
<g id="a_node22"><a xlink:href="classprior__hessian_1_1CompositeDist.html#a6a84d1519fcee908bd41abd4a989f666" target="_top" xlink:title="prior_hessian::Composite\lDist::set_dim_variables">
<polygon fill="white" stroke="black" points="158,-94.5 158,-122.5 280,-122.5 280,-94.5 158,-94.5"/>
<text text-anchor="start" x="166" y="-111.3" font-family="Helvetica,sans-Serif" font-size="9.00">prior_hessian::Composite</text>
<text text-anchor="middle" x="219" y="-101.3" font-family="Helvetica,sans-Serif" font-size="9.00">Dist::set_dim_variables</text>
</a>
</g>
</g>
<!-- Node1&#45;&gt;Node22 -->
<g id="edge32" class="edge"><title>Node1&#45;&gt;Node22</title>
<path fill="none" stroke="midnightblue" d="M93.2154,-175.047C111.804,-163.694 135.99,-149.326 158,-137.5 167.478,-132.408 177.988,-127.188 187.53,-122.605"/>
<polygon fill="midnightblue" stroke="midnightblue" points="91.2638,-172.138 84.5734,-180.353 94.9266,-178.103 91.2638,-172.138"/>
</g>
<!-- Node3 -->
<g id="node3" class="node"><title>Node3</title>
<g id="a_node3"><a xlink:href="classprior__hessian_1_1CompositeDist_1_1ComponentDistAdaptor_3_01Dist_00_01meta_1_1EnableIfSubclc6c9bd83bba546a81e521c87ad7ee6d3.html#afc250548eb1ff396ea65a0c3405a2977" target="_top" xlink:title="prior_hessian::Composite\lDist::ComponentDistAdaptor\l\&lt; Dist, meta::EnableIfSubclassT\l\&lt; Dist, UnivariateDist \&gt; \&gt;::grad\l_accumulate_idx">
<polygon fill="white" stroke="black" points="316,-921.5 316,-979.5 462,-979.5 462,-921.5 316,-921.5"/>
<text text-anchor="start" x="324" y="-968.3" font-family="Helvetica,sans-Serif" font-size="9.00">prior_hessian::Composite</text>
<text text-anchor="start" x="324" y="-958.3" font-family="Helvetica,sans-Serif" font-size="9.00">Dist::ComponentDistAdaptor</text>
<text text-anchor="start" x="324" y="-948.3" font-family="Helvetica,sans-Serif" font-size="9.00">&lt; Dist, meta::EnableIfSubclassT</text>
<text text-anchor="start" x="324" y="-938.3" font-family="Helvetica,sans-Serif" font-size="9.00">&lt; Dist, UnivariateDist &gt; &gt;::grad</text>
<text text-anchor="middle" x="389" y="-928.3" font-family="Helvetica,sans-Serif" font-size="9.00">_accumulate_idx</text>
</a>
</g>
</g>
<!-- Node2&#45;&gt;Node3 -->
<g id="edge2" class="edge"><title>Node2&#45;&gt;Node3</title>
<path fill="none" stroke="midnightblue" d="M239.285,-842.169C257.696,-862.043 286.874,-891.492 316,-912.5 320.241,-915.559 324.761,-918.528 329.389,-921.369"/>
<polygon fill="midnightblue" stroke="midnightblue" points="241.647,-839.566 232.317,-834.548 236.481,-844.29 241.647,-839.566"/>
</g>
<!-- Node4 -->
<g id="node4" class="node"><title>Node4</title>
<g id="a_node4"><a xlink:href="classprior__hessian_1_1CompositeDist_1_1ComponentDistAdaptor_3_01Dist_00_01meta_1_1EnableIfSubcld67d34d533dbae21b9dad35557546eec.html#af28fce0efddb6e8893e101db4f0e91fc" target="_top" xlink:title="prior_hessian::Composite\lDist::ComponentDistAdaptor\l\&lt; Dist, meta::EnableIfSubclassT\l\&lt; Dist, MultivariateDist \&gt; \&gt;\l::grad_accumulate_idx">
<polygon fill="white" stroke="black" points="316,-844.5 316,-902.5 462,-902.5 462,-844.5 316,-844.5"/>
<text text-anchor="start" x="324" y="-891.3" font-family="Helvetica,sans-Serif" font-size="9.00">prior_hessian::Composite</text>
<text text-anchor="start" x="324" y="-881.3" font-family="Helvetica,sans-Serif" font-size="9.00">Dist::ComponentDistAdaptor</text>
<text text-anchor="start" x="324" y="-871.3" font-family="Helvetica,sans-Serif" font-size="9.00">&lt; Dist, meta::EnableIfSubclassT</text>
<text text-anchor="start" x="324" y="-861.3" font-family="Helvetica,sans-Serif" font-size="9.00">&lt; Dist, MultivariateDist &gt; &gt;</text>
<text text-anchor="middle" x="389" y="-851.3" font-family="Helvetica,sans-Serif" font-size="9.00">::grad_accumulate_idx</text>
</a>
</g>
</g>
<!-- Node2&#45;&gt;Node4 -->
<g id="edge3" class="edge"><title>Node2&#45;&gt;Node4</title>
<path fill="none" stroke="midnightblue" d="M274.446,-837.676C287.668,-841.847 302.008,-846.372 315.906,-850.756"/>
<polygon fill="midnightblue" stroke="midnightblue" points="275.17,-834.235 264.58,-834.564 273.064,-840.91 275.17,-834.235"/>
</g>
<!-- Node5 -->
<g id="node5" class="node"><title>Node5</title>
<g id="a_node5"><a xlink:href="classprior__hessian_1_1CompositeDist_1_1ComponentDistAdaptor_3_01Dist_00_01meta_1_1EnableIfSubcld67d34d533dbae21b9dad35557546eec.html#a757b275a9e56e7dd98542f9d1c341a50" target="_top" xlink:title="prior_hessian::Composite\lDist::ComponentDistAdaptor\l\&lt; Dist, meta::EnableIfSubclassT\l\&lt; Dist, MultivariateDist \&gt; \&gt;\l::grad_grad2_accumulate_idx">
<polygon fill="white" stroke="black" points="316,-690.5 316,-748.5 462,-748.5 462,-690.5 316,-690.5"/>
<text text-anchor="start" x="324" y="-737.3" font-family="Helvetica,sans-Serif" font-size="9.00">prior_hessian::Composite</text>
<text text-anchor="start" x="324" y="-727.3" font-family="Helvetica,sans-Serif" font-size="9.00">Dist::ComponentDistAdaptor</text>
<text text-anchor="start" x="324" y="-717.3" font-family="Helvetica,sans-Serif" font-size="9.00">&lt; Dist, meta::EnableIfSubclassT</text>
<text text-anchor="start" x="324" y="-707.3" font-family="Helvetica,sans-Serif" font-size="9.00">&lt; Dist, MultivariateDist &gt; &gt;</text>
<text text-anchor="middle" x="389" y="-697.3" font-family="Helvetica,sans-Serif" font-size="9.00">::grad_grad2_accumulate_idx</text>
</a>
</g>
</g>
<!-- Node2&#45;&gt;Node5 -->
<g id="edge4" class="edge"><title>Node2&#45;&gt;Node5</title>
<path fill="none" stroke="midnightblue" d="M252.006,-801.258C276.78,-786.364 311.498,-765.492 339.654,-748.565"/>
<polygon fill="midnightblue" stroke="midnightblue" points="250.127,-798.304 243.36,-806.456 253.733,-804.304 250.127,-798.304"/>
</g>
<!-- Node6 -->
<g id="node6" class="node"><title>Node6</title>
<g id="a_node6"><a xlink:href="classprior__hessian_1_1CompositeDist_1_1ComponentDistAdaptor_3_01Dist_00_01meta_1_1EnableIfSubcld67d34d533dbae21b9dad35557546eec.html#ac5283bdcf85d28d389d5a4270fb76f10" target="_top" xlink:title="prior_hessian::Composite\lDist::ComponentDistAdaptor\l\&lt; Dist, meta::EnableIfSubclassT\l\&lt; Dist, MultivariateDist \&gt; \&gt;\l::grad_hess_accumulate_idx">
<polygon fill="white" stroke="black" points="316,-343.5 316,-401.5 462,-401.5 462,-343.5 316,-343.5"/>
<text text-anchor="start" x="324" y="-390.3" font-family="Helvetica,sans-Serif" font-size="9.00">prior_hessian::Composite</text>
<text text-anchor="start" x="324" y="-380.3" font-family="Helvetica,sans-Serif" font-size="9.00">Dist::ComponentDistAdaptor</text>
<text text-anchor="start" x="324" y="-370.3" font-family="Helvetica,sans-Serif" font-size="9.00">&lt; Dist, meta::EnableIfSubclassT</text>
<text text-anchor="start" x="324" y="-360.3" font-family="Helvetica,sans-Serif" font-size="9.00">&lt; Dist, MultivariateDist &gt; &gt;</text>
<text text-anchor="middle" x="389" y="-350.3" font-family="Helvetica,sans-Serif" font-size="9.00">::grad_hess_accumulate_idx</text>
</a>
</g>
</g>
<!-- Node2&#45;&gt;Node6 -->
<g id="edge5" class="edge"><title>Node2&#45;&gt;Node6</title>
<path fill="none" stroke="midnightblue" d="M226.629,-796.613C238.168,-754.666 262.395,-664.956 280,-588.5 298.111,-509.845 267.646,-475.125 316,-410.5 318.371,-407.331 321.085,-404.401 324.038,-401.695"/>
<polygon fill="midnightblue" stroke="midnightblue" points="223.203,-795.871 223.917,-806.441 229.951,-797.733 223.203,-795.871"/>
</g>
<!-- Node2&#45;&gt;Node7 -->
<g id="edge6" class="edge"><title>Node2&#45;&gt;Node7</title>
<path fill="none" stroke="midnightblue" d="M290.253,-818.921C361.583,-817.456 475.219,-815.5 573.5,-815.5 573.5,-815.5 573.5,-815.5 749,-815.5 846.916,-815.5 894.619,-856.329 968,-791.5 1028.92,-737.676 1056.91,-465.612 1062.8,-400.51"/>
<polygon fill="midnightblue" stroke="midnightblue" points="289.967,-815.426 280.042,-819.134 290.113,-822.425 289.967,-815.426"/>
</g>
<!-- Node8&#45;&gt;Node5 -->
<g id="edge10" class="edge"><title>Node8&#45;&gt;Node5</title>
<path fill="none" stroke="midnightblue" d="M236.25,-587.887C254.08,-611.474 284.394,-648.829 316,-675.5 322.158,-680.696 328.993,-685.69 335.93,-690.33"/>
<polygon fill="midnightblue" stroke="midnightblue" points="238.834,-585.497 230.051,-579.572 233.222,-589.681 238.834,-585.497"/>
</g>
<!-- Node8&#45;&gt;Node7 -->
<g id="edge12" class="edge"><title>Node8&#45;&gt;Node7</title>
<path fill="none" stroke="midnightblue" d="M239.3,-587.007C257.185,-605.325 285.556,-630.522 316,-642.5 422.788,-684.514 458.744,-661.5 573.5,-661.5 573.5,-661.5 573.5,-661.5 749,-661.5 909.436,-661.5 1027.62,-456.555 1056.94,-400.515"/>
<polygon fill="midnightblue" stroke="midnightblue" points="241.725,-584.478 232.301,-579.637 236.649,-589.298 241.725,-584.478"/>
</g>
<!-- Node9 -->
<g id="node9" class="node"><title>Node9</title>
<g id="a_node9"><a xlink:href="classprior__hessian_1_1CompositeDist_1_1ComponentDistAdaptor_3_01Dist_00_01meta_1_1EnableIfSubclc6c9bd83bba546a81e521c87ad7ee6d3.html#a5b337a7127326213a5ab5ba3da4ad8c3" target="_top" xlink:title="prior_hessian::Composite\lDist::ComponentDistAdaptor\l\&lt; Dist, meta::EnableIfSubclassT\l\&lt; Dist, UnivariateDist \&gt; \&gt;::grad2\l_accumulate_idx">
<polygon fill="white" stroke="black" points="316,-574.5 316,-632.5 462,-632.5 462,-574.5 316,-574.5"/>
<text text-anchor="start" x="324" y="-621.3" font-family="Helvetica,sans-Serif" font-size="9.00">prior_hessian::Composite</text>
<text text-anchor="start" x="324" y="-611.3" font-family="Helvetica,sans-Serif" font-size="9.00">Dist::ComponentDistAdaptor</text>
<text text-anchor="start" x="324" y="-601.3" font-family="Helvetica,sans-Serif" font-size="9.00">&lt; Dist, meta::EnableIfSubclassT</text>
<text text-anchor="start" x="324" y="-591.3" font-family="Helvetica,sans-Serif" font-size="9.00">&lt; Dist, UnivariateDist &gt; &gt;::grad2</text>
<text text-anchor="middle" x="389" y="-581.3" font-family="Helvetica,sans-Serif" font-size="9.00">_accumulate_idx</text>
</a>
</g>
</g>
<!-- Node8&#45;&gt;Node9 -->
<g id="edge8" class="edge"><title>Node8&#45;&gt;Node9</title>
<path fill="none" stroke="midnightblue" d="M290.083,-581.352C298.617,-583.282 307.348,-585.257 315.91,-587.194"/>
<polygon fill="midnightblue" stroke="midnightblue" points="290.703,-577.904 280.177,-579.112 289.159,-584.732 290.703,-577.904"/>
</g>
<!-- Node10 -->
<g id="node10" class="node"><title>Node10</title>
<g id="a_node10"><a xlink:href="classprior__hessian_1_1CompositeDist_1_1ComponentDistAdaptor_3_01Dist_00_01meta_1_1EnableIfSubcld67d34d533dbae21b9dad35557546eec.html#a473a0e2099c9875f615593b4ea88f4b1" target="_top" xlink:title="prior_hessian::Composite\lDist::ComponentDistAdaptor\l\&lt; Dist, meta::EnableIfSubclassT\l\&lt; Dist, MultivariateDist \&gt; \&gt;\l::grad2_accumulate_idx">
<polygon fill="white" stroke="black" points="316,-497.5 316,-555.5 462,-555.5 462,-497.5 316,-497.5"/>
<text text-anchor="start" x="324" y="-544.3" font-family="Helvetica,sans-Serif" font-size="9.00">prior_hessian::Composite</text>
<text text-anchor="start" x="324" y="-534.3" font-family="Helvetica,sans-Serif" font-size="9.00">Dist::ComponentDistAdaptor</text>
<text text-anchor="start" x="324" y="-524.3" font-family="Helvetica,sans-Serif" font-size="9.00">&lt; Dist, meta::EnableIfSubclassT</text>
<text text-anchor="start" x="324" y="-514.3" font-family="Helvetica,sans-Serif" font-size="9.00">&lt; Dist, MultivariateDist &gt; &gt;</text>
<text text-anchor="middle" x="389" y="-504.3" font-family="Helvetica,sans-Serif" font-size="9.00">::grad2_accumulate_idx</text>
</a>
</g>
</g>
<!-- Node8&#45;&gt;Node10 -->
<g id="edge9" class="edge"><title>Node8&#45;&gt;Node10</title>
<path fill="none" stroke="midnightblue" d="M290.083,-549.231C298.617,-547.25 307.348,-545.223 315.91,-543.235"/>
<polygon fill="midnightblue" stroke="midnightblue" points="289.127,-545.86 280.177,-551.53 290.71,-552.678 289.127,-545.86"/>
</g>
<!-- Node11 -->
<g id="node11" class="node"><title>Node11</title>
<g id="a_node11"><a xlink:href="classprior__hessian_1_1CompositeDist_1_1ComponentDistAdaptor_3_01Dist_00_01meta_1_1EnableIfSubclc6c9bd83bba546a81e521c87ad7ee6d3.html#a98b86dce1c87e3335ccbc32e9cc1b16d" target="_top" xlink:title="prior_hessian::Composite\lDist::ComponentDistAdaptor\l\&lt; Dist, meta::EnableIfSubclassT\l\&lt; Dist, UnivariateDist \&gt; \&gt;::hess\l_accumulate_idx">
<polygon fill="white" stroke="black" points="316,-420.5 316,-478.5 462,-478.5 462,-420.5 316,-420.5"/>
<text text-anchor="start" x="324" y="-467.3" font-family="Helvetica,sans-Serif" font-size="9.00">prior_hessian::Composite</text>
<text text-anchor="start" x="324" y="-457.3" font-family="Helvetica,sans-Serif" font-size="9.00">Dist::ComponentDistAdaptor</text>
<text text-anchor="start" x="324" y="-447.3" font-family="Helvetica,sans-Serif" font-size="9.00">&lt; Dist, meta::EnableIfSubclassT</text>
<text text-anchor="start" x="324" y="-437.3" font-family="Helvetica,sans-Serif" font-size="9.00">&lt; Dist, UnivariateDist &gt; &gt;::hess</text>
<text text-anchor="middle" x="389" y="-427.3" font-family="Helvetica,sans-Serif" font-size="9.00">_accumulate_idx</text>
</a>
</g>
</g>
<!-- Node8&#45;&gt;Node11 -->
<g id="edge11" class="edge"><title>Node8&#45;&gt;Node11</title>
<path fill="none" stroke="midnightblue" d="M243.068,-544.586C261.919,-528.04 289.664,-504.904 316,-487.5 320.599,-484.461 325.467,-481.466 330.417,-478.572"/>
<polygon fill="midnightblue" stroke="midnightblue" points="240.725,-541.985 235.563,-551.237 245.368,-547.224 240.725,-541.985"/>
</g>
<!-- Node12&#45;&gt;Node6 -->
<g id="edge14" class="edge"><title>Node12&#45;&gt;Node6</title>
<path fill="none" stroke="midnightblue" d="M256.366,-304.333C278.366,-315.725 306.878,-330.49 331.738,-343.364"/>
<polygon fill="midnightblue" stroke="midnightblue" points="257.855,-301.162 247.366,-299.672 254.636,-307.378 257.855,-301.162"/>
</g>
<!-- Node12&#45;&gt;Node7 -->
<g id="edge16" class="edge"><title>Node12&#45;&gt;Node7</title>
<path fill="none" stroke="midnightblue" d="M290.527,-295.175C350.889,-304.238 432.562,-318.588 462,-333.5 481.363,-343.308 478.261,-357.473 498,-366.5 638.616,-430.805 690.385,-390.032 845,-391.5 899.664,-392.019 913.352,-392.922 968,-391.5 979.595,-391.198 991.97,-390.692 1003.85,-390.114"/>
<polygon fill="midnightblue" stroke="midnightblue" points="290.684,-291.66 280.279,-293.656 289.657,-298.584 290.684,-291.66"/>
</g>
<!-- Node13 -->
<g id="node13" class="node"><title>Node13</title>
<g id="a_node13"><a xlink:href="classprior__hessian_1_1CompositeDist_1_1ComponentDistAdaptor_3_01Dist_00_01meta_1_1EnableIfSubcld67d34d533dbae21b9dad35557546eec.html#a20e3721013fae2e322cbc280b6178d11" target="_top" xlink:title="prior_hessian::Composite\lDist::ComponentDistAdaptor\l\&lt; Dist, meta::EnableIfSubclassT\l\&lt; Dist, MultivariateDist \&gt; \&gt;\l::hess_accumulate_idx">
<polygon fill="white" stroke="black" points="316,-227.5 316,-285.5 462,-285.5 462,-227.5 316,-227.5"/>
<text text-anchor="start" x="324" y="-274.3" font-family="Helvetica,sans-Serif" font-size="9.00">prior_hessian::Composite</text>
<text text-anchor="start" x="324" y="-264.3" font-family="Helvetica,sans-Serif" font-size="9.00">Dist::ComponentDistAdaptor</text>
<text text-anchor="start" x="324" y="-254.3" font-family="Helvetica,sans-Serif" font-size="9.00">&lt; Dist, meta::EnableIfSubclassT</text>
<text text-anchor="start" x="324" y="-244.3" font-family="Helvetica,sans-Serif" font-size="9.00">&lt; Dist, MultivariateDist &gt; &gt;</text>
<text text-anchor="middle" x="389" y="-234.3" font-family="Helvetica,sans-Serif" font-size="9.00">::hess_accumulate_idx</text>
</a>
</g>
</g>
<!-- Node12&#45;&gt;Node13 -->
<g id="edge15" class="edge"><title>Node12&#45;&gt;Node13</title>
<path fill="none" stroke="midnightblue" d="M290.083,-273.402C298.617,-271.929 307.348,-270.422 315.91,-268.944"/>
<polygon fill="midnightblue" stroke="midnightblue" points="289.436,-269.962 280.177,-275.112 290.627,-276.86 289.436,-269.962"/>
</g>
<!-- Node17 -->
<g id="node17" class="node"><title>Node17</title>
<g id="a_node17"><a xlink:href="classprior__hessian_1_1CompositeDist.html#a38c4fdacf927824117d202422b04013c" target="_top" xlink:title="prior_hessian::Composite\lDist::set_param_names">
<polygon fill="white" stroke="black" points="687,-158.5 687,-186.5 809,-186.5 809,-158.5 687,-158.5"/>
<text text-anchor="start" x="695" y="-175.3" font-family="Helvetica,sans-Serif" font-size="9.00">prior_hessian::Composite</text>
<text text-anchor="middle" x="748" y="-165.3" font-family="Helvetica,sans-Serif" font-size="9.00">Dist::set_param_names</text>
</a>
</g>
</g>
<!-- Node16&#45;&gt;Node17 -->
<g id="edge20" class="edge"><title>Node16&#45;&gt;Node17</title>
<path fill="none" stroke="midnightblue" d="M618.019,-110.603C628.904,-114.085 640.498,-118.134 651,-122.5 676.161,-132.96 703.617,-147.611 722.697,-158.35"/>
<polygon fill="midnightblue" stroke="midnightblue" points="618.861,-107.2 608.273,-107.572 616.782,-113.884 618.861,-107.2"/>
</g>
<!-- Node17&#45;&gt;Node7 -->
<g id="edge23" class="edge"><title>Node17&#45;&gt;Node7</title>
<path fill="none" stroke="midnightblue" d="M786.122,-191.239C830.851,-214.474 907.524,-256.433 968,-300.5 999.286,-323.298 1032.13,-354.557 1050.14,-372.431"/>
<polygon fill="midnightblue" stroke="midnightblue" points="787.571,-188.048 777.08,-186.571 784.36,-194.268 787.571,-188.048"/>
</g>
<!-- Node18 -->
<g id="node18" class="node"><title>Node18</title>
<g id="a_node18"><a xlink:href="classprior__hessian_1_1CompositeDist.html#a927fed39b2b4e87714c728d6e7b11e8b" target="_top" xlink:title="prior_hessian::Composite\lDist::params_components">
<polygon fill="white" stroke="black" points="845,-310.5 845,-338.5 968,-338.5 968,-310.5 845,-310.5"/>
<text text-anchor="start" x="853" y="-327.3" font-family="Helvetica,sans-Serif" font-size="9.00">prior_hessian::Composite</text>
<text text-anchor="middle" x="906.5" y="-317.3" font-family="Helvetica,sans-Serif" font-size="9.00">Dist::params_components</text>
</a>
</g>
</g>
<!-- Node17&#45;&gt;Node18 -->
<g id="edge21" class="edge"><title>Node17&#45;&gt;Node18</title>
<path fill="none" stroke="midnightblue" d="M770.642,-193.52C802.92,-224.87 862.846,-283.073 890.636,-310.063"/>
<polygon fill="midnightblue" stroke="midnightblue" points="773.055,-190.984 763.443,-186.527 768.178,-196.005 773.055,-190.984"/>
</g>
<!-- Node18&#45;&gt;Node7 -->
<g id="edge22" class="edge"><title>Node18&#45;&gt;Node7</title>
<path fill="none" stroke="midnightblue" d="M952.351,-342.269C976.571,-351.864 1006.05,-363.541 1028.63,-372.487"/>
<polygon fill="midnightblue" stroke="midnightblue" points="953.598,-338.998 943.012,-338.569 951.02,-345.506 953.598,-338.998"/>
</g>
<!-- Node19&#45;&gt;Node7 -->
<g id="edge27" class="edge"><title>Node19&#45;&gt;Node7</title>
<path fill="none" stroke="midnightblue" d="M458.57,-214.324C459.762,-215.33 460.908,-216.388 462,-217.5 501.022,-257.221 454.803,-302.365 498,-337.5 536.617,-368.91 866.296,-381.252 1003.97,-385.067"/>
<polygon fill="midnightblue" stroke="midnightblue" points="460.307,-211.266 450.109,-208.392 456.288,-216.998 460.307,-211.266"/>
</g>
<!-- Node19&#45;&gt;Node16 -->
<g id="edge25" class="edge"><title>Node19&#45;&gt;Node16</title>
<path fill="none" stroke="midnightblue" d="M444.098,-176.153C450.386,-173.035 456.506,-169.491 462,-165.5 482.164,-150.849 477.3,-136.383 498,-122.5 507.709,-115.988 519.295,-111.155 530.44,-107.603"/>
<polygon fill="midnightblue" stroke="midnightblue" points="442.443,-173.061 434.819,-180.418 445.367,-179.421 442.443,-173.061"/>
</g>
<!-- Node19&#45;&gt;Node17 -->
<g id="edge30" class="edge"><title>Node19&#45;&gt;Node17</title>
<path fill="none" stroke="midnightblue" d="M434.077,-176.842C458.056,-167.586 485.345,-157.715 498,-155.5 561.915,-144.313 636.257,-152.031 686.957,-160.365"/>
<polygon fill="midnightblue" stroke="midnightblue" points="432.793,-173.586 424.745,-180.476 435.333,-180.108 432.793,-173.586"/>
</g>
<!-- Node19&#45;&gt;Node18 -->
<g id="edge26" class="edge"><title>Node19&#45;&gt;Node18</title>
<path fill="none" stroke="midnightblue" d="M457.972,-214.075C459.371,-215.156 460.717,-216.296 462,-217.5 494.022,-247.542 462.196,-284.085 498,-309.5 552.049,-347.866 745.048,-338.132 844.811,-330.137"/>
<polygon fill="midnightblue" stroke="midnightblue" points="459.738,-211.048 449.451,-208.514 455.912,-216.91 459.738,-211.048"/>
</g>
<!-- Node20 -->
<g id="node20" class="node"><title>Node20</title>
<g id="a_node20"><a xlink:href="classprior__hessian_1_1CompositeDist_1_1ComponentDistAdaptor_3_01Dist_00_01meta_1_1EnableIfSubclc6c9bd83bba546a81e521c87ad7ee6d3.html#a75bbad1826eb579d89540607f59f3919" target="_top" xlink:title="prior_hessian::Composite\lDist::ComponentDistAdaptor\l\&lt; Dist, meta::EnableIfSubclassT\l\&lt; Dist, UnivariateDist \&gt; \&gt;::append\l_param_names">
<polygon fill="white" stroke="black" points="498,-242.5 498,-300.5 651,-300.5 651,-242.5 498,-242.5"/>
<text text-anchor="start" x="506" y="-289.3" font-family="Helvetica,sans-Serif" font-size="9.00">prior_hessian::Composite</text>
<text text-anchor="start" x="506" y="-279.3" font-family="Helvetica,sans-Serif" font-size="9.00">Dist::ComponentDistAdaptor</text>
<text text-anchor="start" x="506" y="-269.3" font-family="Helvetica,sans-Serif" font-size="9.00">&lt; Dist, meta::EnableIfSubclassT</text>
<text text-anchor="start" x="506" y="-259.3" font-family="Helvetica,sans-Serif" font-size="9.00">&lt; Dist, UnivariateDist &gt; &gt;::append</text>
<text text-anchor="middle" x="574.5" y="-249.3" font-family="Helvetica,sans-Serif" font-size="9.00">_param_names</text>
</a>
</g>
</g>
<!-- Node19&#45;&gt;Node20 -->
<g id="edge28" class="edge"><title>Node19&#45;&gt;Node20</title>
<path fill="none" stroke="midnightblue" d="M447.017,-211.885C452.117,-213.689 457.173,-215.572 462,-217.5 480.375,-224.842 499.944,-233.881 517.474,-242.449"/>
<polygon fill="midnightblue" stroke="midnightblue" points="447.799,-208.453 437.205,-208.52 445.528,-215.075 447.799,-208.453"/>
</g>
<!-- Node21 -->
<g id="node21" class="node"><title>Node21</title>
<g id="a_node21"><a xlink:href="classprior__hessian_1_1CompositeDist_1_1ComponentDistAdaptor_3_01Dist_00_01meta_1_1EnableIfSubcld67d34d533dbae21b9dad35557546eec.html#a500e09e7f9b4431f7db471bf075cdce2" target="_top" xlink:title="prior_hessian::Composite\lDist::ComponentDistAdaptor\l\&lt; Dist, meta::EnableIfSubclassT\l\&lt; Dist, MultivariateDist \&gt; \&gt;\l::append_param_names">
<polygon fill="white" stroke="black" points="501.5,-165.5 501.5,-223.5 647.5,-223.5 647.5,-165.5 501.5,-165.5"/>
<text text-anchor="start" x="509.5" y="-212.3" font-family="Helvetica,sans-Serif" font-size="9.00">prior_hessian::Composite</text>
<text text-anchor="start" x="509.5" y="-202.3" font-family="Helvetica,sans-Serif" font-size="9.00">Dist::ComponentDistAdaptor</text>
<text text-anchor="start" x="509.5" y="-192.3" font-family="Helvetica,sans-Serif" font-size="9.00">&lt; Dist, meta::EnableIfSubclassT</text>
<text text-anchor="start" x="509.5" y="-182.3" font-family="Helvetica,sans-Serif" font-size="9.00">&lt; Dist, MultivariateDist &gt; &gt;</text>
<text text-anchor="middle" x="574.5" y="-172.3" font-family="Helvetica,sans-Serif" font-size="9.00">::append_param_names</text>
</a>
</g>
</g>
<!-- Node19&#45;&gt;Node21 -->
<g id="edge29" class="edge"><title>Node19&#45;&gt;Node21</title>
<path fill="none" stroke="midnightblue" d="M460.255,-194.5C473.748,-194.5 487.9,-194.5 501.449,-194.5"/>
<polygon fill="midnightblue" stroke="midnightblue" points="460.085,-191 450.085,-194.5 460.085,-198 460.085,-191"/>
</g>
<!-- Node23 -->
<g id="node23" class="node"><title>Node23</title>
<g id="a_node23"><a xlink:href="classprior__hessian_1_1CompositeDist.html#ab33784dcc2971ebaae40e6138bd1e4c2" target="_top" xlink:title="prior_hessian::Composite\lDist::num_dim_components">
<polygon fill="white" stroke="black" points="323.5,-84.5 323.5,-112.5 454.5,-112.5 454.5,-84.5 323.5,-84.5"/>
<text text-anchor="start" x="331.5" y="-101.3" font-family="Helvetica,sans-Serif" font-size="9.00">prior_hessian::Composite</text>
<text text-anchor="middle" x="389" y="-91.3" font-family="Helvetica,sans-Serif" font-size="9.00">Dist::num_dim_components</text>
</a>
</g>
</g>
<!-- Node22&#45;&gt;Node23 -->
<g id="edge33" class="edge"><title>Node22&#45;&gt;Node23</title>
<path fill="none" stroke="midnightblue" d="M290.178,-104.323C301.192,-103.667 312.532,-102.992 323.412,-102.345"/>
<polygon fill="midnightblue" stroke="midnightblue" points="289.952,-100.83 280.177,-104.918 290.368,-107.818 289.952,-100.83"/>
</g>
<!-- Node23&#45;&gt;Node7 -->
<g id="edge35" class="edge"><title>Node23&#45;&gt;Node7</title>
<path fill="none" stroke="midnightblue" d="M461.765,-82.6792C514.599,-73.5856 587.912,-66.3252 651,-79.5 801.941,-111.021 853.699,-117.001 968,-220.5 1017.11,-264.968 1047.88,-340.61 1059.15,-372.09"/>
<polygon fill="midnightblue" stroke="midnightblue" points="461.043,-79.2528 451.813,-84.4553 462.272,-86.1439 461.043,-79.2528"/>
</g>
<!-- Node23&#45;&gt;Node16 -->
<g id="edge34" class="edge"><title>Node23&#45;&gt;Node16</title>
<path fill="none" stroke="midnightblue" d="M465.13,-98.5C481.196,-98.5 497.966,-98.5 513.379,-98.5"/>
<polygon fill="midnightblue" stroke="midnightblue" points="464.695,-95.0001 454.695,-98.5 464.695,-102 464.695,-95.0001"/>
</g>
</g>
</svg>
        <g id="navigator" transform="translate(0 0)" fill="#404254">
                <rect fill="#f2f5e9" fill-opacity="0.5" stroke="#606060" stroke-width=".5" x="0" y="0" width="60" height="60"/>
                <use id="zoomplus" xlink:href="#zoomPlus" x="17" y="9" onmousedown="handleZoom(evt,'in')"/>
                <use id="zoomminus" xlink:href="#zoomMin" x="42" y="9" onmousedown="handleZoom(evt,'out')"/>
                <use id="reset" xlink:href="#resetDef" x="30" y="36" onmousedown="handleReset()"/>
                <g id="arrowUp" xlink:href="#dirArrow" transform="translate(30 24)" onmousedown="handlePan(0,-1)">
                  <use xlink:href="#rim" fill="#404040">
                        <set attributeName="fill" to="#808080" begin="arrowUp.mouseover" end="arrowUp.mouseout"/>
                  </use>
                  <path fill="none" stroke="white" stroke-width="1.5" d="M0,-3.0v7 M-2.5,-0.5L0,-3.0L2.5,-0.5"/>
                </g>
                <g id="arrowRight" xlink:href="#dirArrow" transform="rotate(90) translate(36 -43)" onmousedown="handlePan(1,0)">
                  <use xlink:href="#rim" fill="#404040">
                        <set attributeName="fill" to="#808080" begin="arrowRight.mouseover" end="arrowRight.mouseout"/>
                  </use>
                  <path fill="none" stroke="white" stroke-width="1.5" d="M0,-3.0v7 M-2.5,-0.5L0,-3.0L2.5,-0.5"/>
                </g>
                <g id="arrowDown" xlink:href="#dirArrow" transform="rotate(180) translate(-30 -48)" onmousedown="handlePan(0,1)">
                  <use xlink:href="#rim" fill="#404040">
                        <set attributeName="fill" to="#808080" begin="arrowDown.mouseover" end="arrowDown.mouseout"/>
                  </use>
                  <path fill="none" stroke="white" stroke-width="1.5" d="M0,-3.0v7 M-2.5,-0.5L0,-3.0L2.5,-0.5"/>
                </g>
                <g id="arrowLeft" xlink:href="#dirArrow" transform="rotate(270) translate(-36 17)" onmousedown="handlePan(-1,0)">
                  <use xlink:href="#rim" fill="#404040">
                        <set attributeName="fill" to="#808080" begin="arrowLeft.mouseover" end="arrowLeft.mouseout"/>
                  </use>
                  <path fill="none" stroke="white" stroke-width="1.5" d="M0,-3.0v7 M-2.5,-0.5L0,-3.0L2.5,-0.5"/>
                </g>
        </g>
        <svg viewBox="0 0 15 15" width="100%" height="30px" preserveAspectRatio="xMaxYMin meet">
         <g id="arrow_out" transform="scale(0.3 0.3)">
          <a xlink:href="classprior__hessian_1_1CompositeDist_ad532e3fe9e7293fef7b293d3c94a1ddc_icgraph_org.svg" target="_base">
           <rect id="button" ry="5" rx="5" y="6" x="6" height="38" width="38"
                fill="#f2f5e9" fill-opacity="0.5" stroke="#606060" stroke-width="1.0"/>
           <path id="arrow"
             d="M 11.500037,31.436501 C 11.940474,20.09759 22.043105,11.32322 32.158766,21.979434 L 37.068811,17.246167 C 37.068811,17.246167 37.088388,32 37.088388,32 L 22.160133,31.978069 C 22.160133,31.978069 26.997745,27.140456 26.997745,27.140456 C 18.528582,18.264221 13.291696,25.230495 11.500037,31.436501 z"
             style="fill:#404040;"/>
          </a>
         </g>
        </svg>
</svg>
