<?xml version="1.0" encoding="UTF-8" standalone="no"?>
<!DOCTYPE svg PUBLIC "-//W3C//DTD SVG 1.1//EN"
 "http://www.w3.org/Graphics/SVG/1.1/DTD/svg11.dtd">
<!-- Generated by graphviz version 2.38.0 (20140413.2041)
 -->
<!-- Title: prior_hessian::ParetoDist::llh Pages: 1 -->
<svg width="627pt" height="393pt"
 viewBox="0.00 0.00 627.00 393.00" xmlns="http://www.w3.org/2000/svg" xmlns:xlink="http://www.w3.org/1999/xlink">
<g id="graph0" class="graph" transform="scale(1 1) rotate(0) translate(4 389)">
<title>prior_hessian::ParetoDist::llh</title>
<polygon fill="white" stroke="none" points="-4,4 -4,-389 623,-389 623,4 -4,4"/>
<!-- Node1 -->
<g id="node1" class="node"><title>Node1</title>
<polygon fill="#bfbfbf" stroke="black" points="0,-159.5 0,-177.5 134,-177.5 134,-159.5 0,-159.5"/>
<text text-anchor="middle" x="67" y="-166.3" font-family="Helvetica,sans-Serif" font-size="9.00">prior_hessian::ParetoDist::llh</text>
</g>
<!-- Node2 -->
<g id="node2" class="node"><title>Node2</title>
<g id="a_node2"><a xlink:href="classprior__hessian_1_1ParetoDist.html#ad117226a3ad1eee827886fc7ba38acbf" target="_top" xlink:title="prior_hessian::ParetoDist\l::lbound">
<polygon fill="white" stroke="black" points="170,-154.5 170,-182.5 290,-182.5 290,-154.5 170,-154.5"/>
<text text-anchor="start" x="178" y="-171.3" font-family="Helvetica,sans-Serif" font-size="9.00">prior_hessian::ParetoDist</text>
<text text-anchor="middle" x="230" y="-161.3" font-family="Helvetica,sans-Serif" font-size="9.00">::lbound</text>
</a>
</g>
</g>
<!-- Node1&#45;&gt;Node2 -->
<g id="edge1" class="edge"><title>Node1&#45;&gt;Node2</title>
<path fill="none" stroke="midnightblue" d="M144.429,-161.758C153.004,-161.725 161.641,-161.795 169.949,-161.968"/>
<polygon fill="midnightblue" stroke="midnightblue" points="144.384,-158.258 134.414,-161.843 144.444,-165.258 144.384,-158.258"/>
</g>
<!-- Node2&#45;&gt;Node1 -->
<g id="edge9" class="edge"><title>Node2&#45;&gt;Node1</title>
<path fill="none" stroke="midnightblue" d="M159.791,-175.191C151.374,-175.28 142.789,-175.269 134.414,-175.157"/>
<polygon fill="midnightblue" stroke="midnightblue" points="160.005,-178.688 169.949,-175.032 159.896,-171.689 160.005,-178.688"/>
</g>
<!-- Node3 -->
<g id="node3" class="node"><title>Node3</title>
<g id="a_node3"><a xlink:href="classprior__hessian_1_1ParetoDist.html#afe706cb12ce6f667e7a3a9eb7311ef65" target="_top" xlink:title="prior_hessian::ParetoDist::cdf">
<polygon fill="white" stroke="black" points="326,-366.5 326,-384.5 463,-384.5 463,-366.5 326,-366.5"/>
<text text-anchor="middle" x="394.5" y="-373.3" font-family="Helvetica,sans-Serif" font-size="9.00">prior_hessian::ParetoDist::cdf</text>
</a>
</g>
</g>
<!-- Node2&#45;&gt;Node3 -->
<g id="edge2" class="edge"><title>Node2&#45;&gt;Node3</title>
<path fill="none" stroke="midnightblue" d="M237.828,-192.525C248.963,-231.399 275.087,-307.091 326,-348.5 338.702,-358.831 356.779,-363.272 371.029,-366.481"/>
<polygon fill="midnightblue" stroke="midnightblue" points="241.12,-191.298 235.077,-182.596 234.374,-193.168 241.12,-191.298"/>
</g>
<!-- Node4 -->
<g id="node4" class="node"><title>Node4</title>
<g id="a_node4"><a xlink:href="classprior__hessian_1_1ParetoDist.html#adc9bafea285be38186ec4ad161850b56" target="_top" xlink:title="prior_hessian::ParetoDist\l::get_param">
<polygon fill="white" stroke="black" points="334.5,-319.5 334.5,-347.5 454.5,-347.5 454.5,-319.5 334.5,-319.5"/>
<text text-anchor="start" x="342.5" y="-336.3" font-family="Helvetica,sans-Serif" font-size="9.00">prior_hessian::ParetoDist</text>
<text text-anchor="middle" x="394.5" y="-326.3" font-family="Helvetica,sans-Serif" font-size="9.00">::get_param</text>
</a>
</g>
</g>
<!-- Node2&#45;&gt;Node4 -->
<g id="edge4" class="edge"><title>Node2&#45;&gt;Node4</title>
<path fill="none" stroke="midnightblue" d="M240.913,-192.144C255.233,-223.54 284.603,-278.716 326,-310.5 330.517,-313.968 335.59,-316.933 340.874,-319.462"/>
<polygon fill="midnightblue" stroke="midnightblue" points="244.045,-190.572 236.797,-182.845 237.645,-193.406 244.045,-190.572"/>
</g>
<!-- Node6 -->
<g id="node6" class="node"><title>Node6</title>
<g id="a_node6"><a xlink:href="classprior__hessian_1_1ParetoDist.html#a9d1040a7a5ca261feebe56f42e5698ea" target="_top" xlink:title="prior_hessian::ParetoDist\l::icdf">
<polygon fill="white" stroke="black" points="334.5,-272.5 334.5,-300.5 454.5,-300.5 454.5,-272.5 334.5,-272.5"/>
<text text-anchor="start" x="342.5" y="-289.3" font-family="Helvetica,sans-Serif" font-size="9.00">prior_hessian::ParetoDist</text>
<text text-anchor="middle" x="394.5" y="-279.3" font-family="Helvetica,sans-Serif" font-size="9.00">::icdf</text>
</a>
</g>
</g>
<!-- Node2&#45;&gt;Node6 -->
<g id="edge6" class="edge"><title>Node2&#45;&gt;Node6</title>
<path fill="none" stroke="midnightblue" d="M253.868,-190.203C271.588,-209.532 297.808,-236.946 326,-254.5 338.612,-262.352 354.231,-267.897 367.268,-272.499"/>
<polygon fill="midnightblue" stroke="midnightblue" points="256.37,-187.752 247.045,-182.722 251.198,-192.469 256.37,-187.752"/>
</g>
<!-- Node7 -->
<g id="node7" class="node"><title>Node7</title>
<g id="a_node7"><a xlink:href="classprior__hessian_1_1ParetoDist.html#ae3776388549cf35e9fea96963624cf6e" target="_top" xlink:title="prior_hessian::ParetoDist\l::in_bounds">
<polygon fill="white" stroke="black" points="334.5,-225.5 334.5,-253.5 454.5,-253.5 454.5,-225.5 334.5,-225.5"/>
<text text-anchor="start" x="342.5" y="-242.3" font-family="Helvetica,sans-Serif" font-size="9.00">prior_hessian::ParetoDist</text>
<text text-anchor="middle" x="394.5" y="-232.3" font-family="Helvetica,sans-Serif" font-size="9.00">::in_bounds</text>
</a>
</g>
</g>
<!-- Node2&#45;&gt;Node7 -->
<g id="edge8" class="edge"><title>Node2&#45;&gt;Node7</title>
<path fill="none" stroke="midnightblue" d="M265.232,-187.253C283.068,-196.648 305.403,-207.837 326,-216.5 333.418,-219.62 341.42,-222.638 349.233,-225.405"/>
<polygon fill="midnightblue" stroke="midnightblue" points="266.821,-184.134 256.349,-182.526 263.533,-190.313 266.821,-184.134"/>
</g>
<!-- Node8 -->
<g id="node8" class="node"><title>Node8</title>
<g id="a_node8"><a xlink:href="classprior__hessian_1_1ParetoDist.html#a0a1e20b0aa6c7b52c134fc2341b5fdd4" target="_top" xlink:title="prior_hessian::ParetoDist\l::mean">
<polygon fill="white" stroke="black" points="334.5,-178.5 334.5,-206.5 454.5,-206.5 454.5,-178.5 334.5,-178.5"/>
<text text-anchor="start" x="342.5" y="-195.3" font-family="Helvetica,sans-Serif" font-size="9.00">prior_hessian::ParetoDist</text>
<text text-anchor="middle" x="394.5" y="-185.3" font-family="Helvetica,sans-Serif" font-size="9.00">::mean</text>
</a>
</g>
</g>
<!-- Node2&#45;&gt;Node8 -->
<g id="edge10" class="edge"><title>Node2&#45;&gt;Node8</title>
<path fill="none" stroke="midnightblue" d="M300.095,-172.022C313.936,-173.912 328.258,-176.138 341.406,-178.458"/>
<polygon fill="midnightblue" stroke="midnightblue" points="300.497,-168.545 290.126,-170.71 299.584,-175.485 300.497,-168.545"/>
</g>
<!-- Node9 -->
<g id="node9" class="node"><title>Node9</title>
<g id="a_node9"><a xlink:href="classprior__hessian_1_1ParetoDist.html#a74af41636088b6c727107c60dd9c81b2" target="_top" xlink:title="prior_hessian::ParetoDist\l::median">
<polygon fill="white" stroke="black" points="334.5,-131.5 334.5,-159.5 454.5,-159.5 454.5,-131.5 334.5,-131.5"/>
<text text-anchor="start" x="342.5" y="-148.3" font-family="Helvetica,sans-Serif" font-size="9.00">prior_hessian::ParetoDist</text>
<text text-anchor="middle" x="394.5" y="-138.3" font-family="Helvetica,sans-Serif" font-size="9.00">::median</text>
</a>
</g>
</g>
<!-- Node2&#45;&gt;Node9 -->
<g id="edge12" class="edge"><title>Node2&#45;&gt;Node9</title>
<path fill="none" stroke="midnightblue" d="M295.281,-152.784C308.155,-150.758 321.623,-148.883 334.315,-147.353"/>
<polygon fill="midnightblue" stroke="midnightblue" points="294.419,-149.378 285.11,-154.438 295.542,-156.288 294.419,-149.378"/>
</g>
<!-- Node10 -->
<g id="node10" class="node"><title>Node10</title>
<g id="a_node10"><a xlink:href="classprior__hessian_1_1ParetoDist.html#af5791e2cef16b34e1bbdeec24b13d22e" target="_top" xlink:title="prior_hessian::ParetoDist\l::params">
<polygon fill="white" stroke="black" points="334.5,-84.5 334.5,-112.5 454.5,-112.5 454.5,-84.5 334.5,-84.5"/>
<text text-anchor="start" x="342.5" y="-101.3" font-family="Helvetica,sans-Serif" font-size="9.00">prior_hessian::ParetoDist</text>
<text text-anchor="middle" x="394.5" y="-91.3" font-family="Helvetica,sans-Serif" font-size="9.00">::params</text>
</a>
</g>
</g>
<!-- Node2&#45;&gt;Node10 -->
<g id="edge14" class="edge"><title>Node2&#45;&gt;Node10</title>
<path fill="none" stroke="midnightblue" d="M254.505,-148.931C273.532,-137.513 301.158,-123.894 326,-113.5 328.754,-112.348 331.584,-111.201 334.453,-110.075"/>
<polygon fill="midnightblue" stroke="midnightblue" points="252.509,-146.052 245.904,-154.336 256.233,-151.979 252.509,-146.052"/>
</g>
<!-- Node12 -->
<g id="node12" class="node"><title>Node12</title>
<g id="a_node12"><a xlink:href="classprior__hessian_1_1ParetoDist.html#a07cc43c2b299fc07660684f34f32d4ee" target="_top" xlink:title="prior_hessian::ParetoDist::pdf">
<polygon fill="white" stroke="black" points="326,-47.5 326,-65.5 463,-65.5 463,-47.5 326,-47.5"/>
<text text-anchor="middle" x="394.5" y="-54.3" font-family="Helvetica,sans-Serif" font-size="9.00">prior_hessian::ParetoDist::pdf</text>
</a>
</g>
</g>
<!-- Node2&#45;&gt;Node12 -->
<g id="edge18" class="edge"><title>Node2&#45;&gt;Node12</title>
<path fill="none" stroke="midnightblue" d="M243.356,-145.921C259.917,-122.266 291.281,-86.5903 326,-66.5 326.527,-66.1951 327.059,-65.8949 327.596,-65.5994"/>
<polygon fill="midnightblue" stroke="midnightblue" points="240.379,-144.077 237.757,-154.342 246.208,-147.952 240.379,-144.077"/>
</g>
<!-- Node13 -->
<g id="node13" class="node"><title>Node13</title>
<g id="a_node13"><a xlink:href="classprior__hessian_1_1ParetoDist.html#abe706f0786b5e8ef20b7caff07ffad0c" target="_top" xlink:title="prior_hessian::ParetoDist\l::sample">
<polygon fill="white" stroke="black" points="334.5,-0.5 334.5,-28.5 454.5,-28.5 454.5,-0.5 334.5,-0.5"/>
<text text-anchor="start" x="342.5" y="-17.3" font-family="Helvetica,sans-Serif" font-size="9.00">prior_hessian::ParetoDist</text>
<text text-anchor="middle" x="394.5" y="-7.3" font-family="Helvetica,sans-Serif" font-size="9.00">::sample</text>
</a>
</g>
</g>
<!-- Node2&#45;&gt;Node13 -->
<g id="edge20" class="edge"><title>Node2&#45;&gt;Node13</title>
<path fill="none" stroke="midnightblue" d="M239.514,-145.112C253.702,-113.997 284.748,-60.257 326,-29.5 328.592,-27.5671 331.355,-25.7793 334.225,-24.1364"/>
<polygon fill="midnightblue" stroke="midnightblue" points="236.27,-143.794 235.508,-154.361 242.694,-146.576 236.27,-143.794"/>
</g>
<!-- Node3&#45;&gt;Node2 -->
<g id="edge3" class="edge"><title>Node3&#45;&gt;Node2</title>
<path fill="none" stroke="midnightblue" d="M318.066,-359.594C263.209,-308.618 239.657,-217.883 233.053,-182.604"/>
<polygon fill="midnightblue" stroke="midnightblue" points="315.811,-362.271 325.646,-366.211 320.414,-356.998 315.811,-362.271"/>
</g>
<!-- Node5 -->
<g id="node5" class="node"><title>Node5</title>
<g id="a_node5"><a xlink:href="classprior__hessian_1_1ParetoDist.html#a572ad9f28d83da610e1b81c88876563a" target="_top" xlink:title="prior_hessian::ParetoDist\l::ParetoDist">
<polygon fill="white" stroke="black" points="499,-319.5 499,-347.5 619,-347.5 619,-319.5 499,-319.5"/>
<text text-anchor="start" x="507" y="-336.3" font-family="Helvetica,sans-Serif" font-size="9.00">prior_hessian::ParetoDist</text>
<text text-anchor="middle" x="559" y="-326.3" font-family="Helvetica,sans-Serif" font-size="9.00">::ParetoDist</text>
</a>
</g>
</g>
<!-- Node4&#45;&gt;Node5 -->
<g id="edge5" class="edge"><title>Node4&#45;&gt;Node5</title>
<path fill="none" stroke="midnightblue" d="M464.911,-333.5C476.235,-333.5 487.873,-333.5 498.918,-333.5"/>
<polygon fill="midnightblue" stroke="midnightblue" points="464.626,-330 454.626,-333.5 464.626,-337 464.626,-330"/>
</g>
<!-- Node6&#45;&gt;Node2 -->
<g id="edge7" class="edge"><title>Node6&#45;&gt;Node2</title>
<path fill="none" stroke="midnightblue" d="M325.547,-271.552C282.889,-243.058 251.227,-204.061 237.814,-182.688"/>
<polygon fill="midnightblue" stroke="midnightblue" points="323.913,-274.662 334.223,-277.103 327.686,-268.766 323.913,-274.662"/>
</g>
<!-- Node8&#45;&gt;Node2 -->
<g id="edge11" class="edge"><title>Node8&#45;&gt;Node2</title>
<path fill="none" stroke="midnightblue" d="M324.227,-188.953C310.36,-187.058 296.018,-184.826 282.863,-182.501"/>
<polygon fill="midnightblue" stroke="midnightblue" points="323.844,-192.433 334.216,-190.27 324.759,-185.493 323.844,-192.433"/>
</g>
<!-- Node9&#45;&gt;Node2 -->
<g id="edge13" class="edge"><title>Node9&#45;&gt;Node2</title>
<path fill="none" stroke="midnightblue" d="M329.332,-161.198C316.404,-163.234 302.872,-165.118 290.126,-166.654"/>
<polygon fill="midnightblue" stroke="midnightblue" points="330.235,-164.597 339.543,-159.536 329.111,-157.688 330.235,-164.597"/>
</g>
<!-- Node10&#45;&gt;Node2 -->
<g id="edge17" class="edge"><title>Node10&#45;&gt;Node2</title>
<path fill="none" stroke="midnightblue" d="M364.006,-116.545C352.091,-121.325 338.28,-126.362 326,-131.5 309.095,-138.573 290.902,-147.139 275.005,-154.417"/>
<polygon fill="midnightblue" stroke="midnightblue" points="365.608,-119.669 373.493,-112.594 362.916,-113.207 365.608,-119.669"/>
</g>
<!-- Node11 -->
<g id="node11" class="node"><title>Node11</title>
<g id="a_node11"><a xlink:href="classprior__hessian_1_1ParetoDist.html#ad90392cbacf44f0760b46e80a2676a08" target="_top" xlink:title="prior_hessian::ParetoDist\l::check_params">
<polygon fill="white" stroke="black" points="499,-84.5 499,-112.5 619,-112.5 619,-84.5 499,-84.5"/>
<text text-anchor="start" x="507" y="-101.3" font-family="Helvetica,sans-Serif" font-size="9.00">prior_hessian::ParetoDist</text>
<text text-anchor="middle" x="559" y="-91.3" font-family="Helvetica,sans-Serif" font-size="9.00">::check_params</text>
</a>
</g>
</g>
<!-- Node10&#45;&gt;Node11 -->
<g id="edge15" class="edge"><title>Node10&#45;&gt;Node11</title>
<path fill="none" stroke="midnightblue" d="M464.911,-98.5C476.235,-98.5 487.873,-98.5 498.918,-98.5"/>
<polygon fill="midnightblue" stroke="midnightblue" points="464.626,-95.0001 454.626,-98.5 464.626,-102 464.626,-95.0001"/>
</g>
<!-- Node11&#45;&gt;Node11 -->
<g id="edge16" class="edge"><title>Node11&#45;&gt;Node11</title>
<path fill="none" stroke="midnightblue" d="M529.354,-122.487C532.502,-127.441 542.384,-131 559,-131 585.586,-131 594.933,-121.89 587.04,-112.53"/>
<polygon fill="midnightblue" stroke="midnightblue" points="532.823,-122.96 530.96,-112.53 525.912,-121.845 532.823,-122.96"/>
</g>
<!-- Node12&#45;&gt;Node2 -->
<g id="edge19" class="edge"><title>Node12&#45;&gt;Node2</title>
<path fill="none" stroke="midnightblue" d="M368.299,-68.4765C355.074,-72.314 338.971,-76.9946 326,-84.5 293.637,-103.227 264.191,-135.494 246.929,-154.385"/>
<polygon fill="midnightblue" stroke="midnightblue" points="369.584,-71.7459 378.172,-65.5418 367.59,-65.036 369.584,-71.7459"/>
</g>
<!-- Node13&#45;&gt;Node2 -->
<g id="edge21" class="edge"><title>Node13&#45;&gt;Node2</title>
<path fill="none" stroke="midnightblue" d="M355.748,-32.1366C345.47,-36.0879 334.765,-40.9648 326,-47.5 285.886,-77.4085 255.423,-129.05 240.726,-154.333"/>
<polygon fill="midnightblue" stroke="midnightblue" points="357.206,-35.3302 365.395,-28.6079 354.802,-28.7562 357.206,-35.3302"/>
</g>
</g>
</svg>
