<?xml version="1.0" encoding="UTF-8" standalone="no"?>
<!DOCTYPE svg PUBLIC "-//W3C//DTD SVG 1.1//EN"
 "http://www.w3.org/Graphics/SVG/1.1/DTD/svg11.dtd">
<!-- Generated by graphviz version 2.38.0 (20140413.2041)
 -->
<!-- Title: prior_hessian::GammaDist::in_bounds Pages: 1 -->
<svg width="294pt" height="84pt"
 viewBox="0.00 0.00 294.00 84.00" xmlns="http://www.w3.org/2000/svg" xmlns:xlink="http://www.w3.org/1999/xlink">
<g id="graph0" class="graph" transform="scale(1 1) rotate(0) translate(4 80)">
<title>prior_hessian::GammaDist::in_bounds</title>
<polygon fill="white" stroke="none" points="-4,4 -4,-80 290,-80 290,4 -4,4"/>
<!-- Node1 -->
<g id="node1" class="node"><title>Node1</title>
<polygon fill="#bfbfbf" stroke="black" points="0,-23.5 0,-51.5 125,-51.5 125,-23.5 0,-23.5"/>
<text text-anchor="start" x="8" y="-40.3" font-family="Helvetica,sans-Serif" font-size="9.00">prior_hessian::GammaDist</text>
<text text-anchor="middle" x="62.5" y="-30.3" font-family="Helvetica,sans-Serif" font-size="9.00">::in_bounds</text>
</g>
<!-- Node2 -->
<g id="node2" class="node"><title>Node2</title>
<g id="a_node2"><a xlink:href="classprior__hessian_1_1GammaDist.html#ade738352c5a0e12da9d4fd2a09aafbf7" target="_top" xlink:title="prior_hessian::GammaDist\l::lbound">
<polygon fill="white" stroke="black" points="161,-47.5 161,-75.5 286,-75.5 286,-47.5 161,-47.5"/>
<text text-anchor="start" x="169" y="-64.3" font-family="Helvetica,sans-Serif" font-size="9.00">prior_hessian::GammaDist</text>
<text text-anchor="middle" x="223.5" y="-54.3" font-family="Helvetica,sans-Serif" font-size="9.00">::lbound</text>
</a>
</g>
</g>
<!-- Node1&#45;&gt;Node2 -->
<g id="edge1" class="edge"><title>Node1&#45;&gt;Node2</title>
<path fill="none" stroke="midnightblue" d="M125.429,-46.8477C133.674,-48.0923 142.184,-49.3768 150.58,-50.6442"/>
<polygon fill="midnightblue" stroke="midnightblue" points="150.33,-54.146 160.74,-52.1778 151.375,-47.2244 150.33,-54.146"/>
</g>
<!-- Node3 -->
<g id="node3" class="node"><title>Node3</title>
<g id="a_node3"><a xlink:href="classprior__hessian_1_1GammaDist.html#a7292a1f23badc19d8c608d3a32fc6400" target="_top" xlink:title="prior_hessian::GammaDist\l::ubound">
<polygon fill="white" stroke="black" points="161,-0.5 161,-28.5 286,-28.5 286,-0.5 161,-0.5"/>
<text text-anchor="start" x="169" y="-17.3" font-family="Helvetica,sans-Serif" font-size="9.00">prior_hessian::GammaDist</text>
<text text-anchor="middle" x="223.5" y="-7.3" font-family="Helvetica,sans-Serif" font-size="9.00">::ubound</text>
</a>
</g>
</g>
<!-- Node1&#45;&gt;Node3 -->
<g id="edge2" class="edge"><title>Node1&#45;&gt;Node3</title>
<path fill="none" stroke="midnightblue" d="M125.429,-28.5417C133.674,-27.3491 142.184,-26.1181 150.58,-24.9035"/>
<polygon fill="midnightblue" stroke="midnightblue" points="151.344,-28.3295 160.74,-23.4338 150.342,-21.4016 151.344,-28.3295"/>
</g>
</g>
</svg>
