<?xml version="1.0" encoding="UTF-8" standalone="no"?>
<!DOCTYPE svg PUBLIC "-//W3C//DTD SVG 1.1//EN"
 "http://www.w3.org/Graphics/SVG/1.1/DTD/svg11.dtd">
<!-- Generated by graphviz version 2.38.0 (20140413.2041)
 -->
<!-- Title: prior_hessian::CopulaDistImpl::CopulaDist::ubound Pages: 1 -->
<svg width="661pt" height="131pt"
 viewBox="0.00 0.00 661.00 131.00" xmlns="http://www.w3.org/2000/svg" xmlns:xlink="http://www.w3.org/1999/xlink">
<g id="graph0" class="graph" transform="scale(1 1) rotate(0) translate(4 127)">
<title>prior_hessian::CopulaDistImpl::CopulaDist::ubound</title>
<polygon fill="white" stroke="none" points="-4,4 -4,-127 657,-127 657,4 -4,4"/>
<!-- Node1 -->
<g id="node1" class="node"><title>Node1</title>
<polygon fill="#bfbfbf" stroke="black" points="0,-66.5 0,-94.5 123,-94.5 123,-66.5 0,-66.5"/>
<text text-anchor="start" x="8" y="-83.3" font-family="Helvetica,sans-Serif" font-size="9.00">prior_hessian::CopulaDist</text>
<text text-anchor="middle" x="61.5" y="-73.3" font-family="Helvetica,sans-Serif" font-size="9.00">Impl::CopulaDist::ubound</text>
</g>
<!-- Node2 -->
<g id="node2" class="node"><title>Node2</title>
<g id="a_node2"><a xlink:href="classprior__hessian_1_1CopulaDistImpl_1_1CopulaDist.html#aad110f1a85e7611fd098aa51c2104015" target="_top" xlink:title="prior_hessian::CopulaDist\lImpl::CopulaDist::global_ubound">
<polygon fill="white" stroke="black" points="329,-47.5 329,-75.5 480,-75.5 480,-47.5 329,-47.5"/>
<text text-anchor="start" x="337" y="-64.3" font-family="Helvetica,sans-Serif" font-size="9.00">prior_hessian::CopulaDist</text>
<text text-anchor="middle" x="404.5" y="-54.3" font-family="Helvetica,sans-Serif" font-size="9.00">Impl::CopulaDist::global_ubound</text>
</a>
</g>
</g>
<!-- Node1&#45;&gt;Node2 -->
<g id="edge1" class="edge"><title>Node1&#45;&gt;Node2</title>
<path fill="none" stroke="midnightblue" d="M118.964,-64.0168C132,-60.8948 145.891,-58.1057 159,-56.5 215.681,-49.5574 280.293,-51.2901 328.857,-54.4987"/>
<polygon fill="midnightblue" stroke="midnightblue" points="118.045,-60.6388 109.189,-66.455 119.739,-67.4307 118.045,-60.6388"/>
</g>
<!-- Node6 -->
<g id="node6" class="node"><title>Node6</title>
<g id="a_node6"><a xlink:href="classprior__hessian_1_1CopulaDistImpl_1_1CopulaDist.html#ac0819ccaeef1afd7a123338823e8fb3c" target="_top" xlink:title="prior_hessian::CopulaDist\lImpl::CopulaDist::set_lbound">
<polygon fill="white" stroke="black" points="159,-66.5 159,-94.5 293,-94.5 293,-66.5 159,-66.5"/>
<text text-anchor="start" x="167" y="-83.3" font-family="Helvetica,sans-Serif" font-size="9.00">prior_hessian::CopulaDist</text>
<text text-anchor="middle" x="226" y="-73.3" font-family="Helvetica,sans-Serif" font-size="9.00">Impl::CopulaDist::set_lbound</text>
</a>
</g>
</g>
<!-- Node1&#45;&gt;Node6 -->
<g id="edge9" class="edge"><title>Node1&#45;&gt;Node6</title>
<path fill="none" stroke="midnightblue" d="M133.03,-73.8025C141.65,-73.7176 150.435,-73.7357 158.986,-73.8566"/>
<polygon fill="midnightblue" stroke="midnightblue" points="132.957,-70.3031 123.009,-73.9494 133.059,-77.3023 132.957,-70.3031"/>
</g>
<!-- Node3 -->
<g id="node3" class="node"><title>Node3</title>
<g id="a_node3"><a xlink:href="classprior__hessian_1_1CopulaDistImpl_1_1CopulaDist.html#a26cd71990978df0ddae24dae5148c880" target="_top" xlink:title="prior_hessian::CopulaDist\lImpl::CopulaDist::num_dim">
<polygon fill="white" stroke="black" points="521,-47.5 521,-75.5 648,-75.5 648,-47.5 521,-47.5"/>
<text text-anchor="start" x="529" y="-64.3" font-family="Helvetica,sans-Serif" font-size="9.00">prior_hessian::CopulaDist</text>
<text text-anchor="middle" x="584.5" y="-54.3" font-family="Helvetica,sans-Serif" font-size="9.00">Impl::CopulaDist::num_dim</text>
</a>
</g>
</g>
<!-- Node2&#45;&gt;Node3 -->
<g id="edge2" class="edge"><title>Node2&#45;&gt;Node3</title>
<path fill="none" stroke="midnightblue" d="M490.411,-61.5C500.652,-61.5 510.966,-61.5 520.807,-61.5"/>
<polygon fill="midnightblue" stroke="midnightblue" points="490.214,-58.0001 480.214,-61.5 490.214,-65.0001 490.214,-58.0001"/>
</g>
<!-- Node4 -->
<g id="node4" class="node"><title>Node4</title>
<g id="a_node4"><a xlink:href="classprior__hessian_1_1CopulaDistImpl_1_1CopulaDist.html#ad5f8f42efd9f709625cf60836fa473b9" target="_top" xlink:title="prior_hessian::CopulaDist\lImpl::CopulaDist::set_bounds">
<polygon fill="white" stroke="black" points="516,-94.5 516,-122.5 653,-122.5 653,-94.5 516,-94.5"/>
<text text-anchor="start" x="524" y="-111.3" font-family="Helvetica,sans-Serif" font-size="9.00">prior_hessian::CopulaDist</text>
<text text-anchor="middle" x="584.5" y="-101.3" font-family="Helvetica,sans-Serif" font-size="9.00">Impl::CopulaDist::set_bounds</text>
</a>
</g>
</g>
<!-- Node2&#45;&gt;Node4 -->
<g id="edge3" class="edge"><title>Node2&#45;&gt;Node4</title>
<path fill="none" stroke="midnightblue" d="M490.055,-77.0838C511.566,-82.6911 533.424,-88.9169 550.585,-94.4297"/>
<polygon fill="midnightblue" stroke="midnightblue" points="490.771,-73.6541 480.214,-74.5558 489.029,-80.434 490.771,-73.6541"/>
</g>
<!-- Node5 -->
<g id="node5" class="node"><title>Node5</title>
<g id="a_node5"><a xlink:href="classprior__hessian_1_1CopulaDistImpl_1_1CopulaDist.html#a4b010ffe2c2acd4dc75c80b32312254d" target="_top" xlink:title="prior_hessian::CopulaDist\lImpl::CopulaDist::set_ubound">
<polygon fill="white" stroke="black" points="516,-0.5 516,-28.5 653,-28.5 653,-0.5 516,-0.5"/>
<text text-anchor="start" x="524" y="-17.3" font-family="Helvetica,sans-Serif" font-size="9.00">prior_hessian::CopulaDist</text>
<text text-anchor="middle" x="584.5" y="-7.3" font-family="Helvetica,sans-Serif" font-size="9.00">Impl::CopulaDist::set_ubound</text>
</a>
</g>
</g>
<!-- Node2&#45;&gt;Node5 -->
<g id="edge6" class="edge"><title>Node2&#45;&gt;Node5</title>
<path fill="none" stroke="midnightblue" d="M448.14,-44.3818C468.436,-38.1639 493.194,-31.3889 515.96,-25.7611"/>
<polygon fill="midnightblue" stroke="midnightblue" points="447.06,-41.0524 438.563,-47.3819 449.152,-47.7323 447.06,-41.0524"/>
</g>
<!-- Node4&#45;&gt;Node1 -->
<g id="edge5" class="edge"><title>Node4&#45;&gt;Node1</title>
<path fill="none" stroke="midnightblue" d="M505.786,-112.732C420.398,-116.186 279.372,-118.366 159,-103.5 143.616,-101.6 127.122,-98.1934 112.2,-94.5741"/>
<polygon fill="midnightblue" stroke="midnightblue" points="506.074,-116.223 515.918,-112.305 505.78,-109.229 506.074,-116.223"/>
</g>
<!-- Node4&#45;&gt;Node2 -->
<g id="edge4" class="edge"><title>Node4&#45;&gt;Node2</title>
<path fill="none" stroke="midnightblue" d="M506.236,-94.7963C482.509,-88.7445 457.65,-81.7441 438.563,-75.6181"/>
<polygon fill="midnightblue" stroke="midnightblue" points="505.409,-98.1972 515.96,-97.2389 507.114,-91.4081 505.409,-98.1972"/>
</g>
<!-- Node5&#45;&gt;Node1 -->
<g id="edge8" class="edge"><title>Node5&#45;&gt;Node1</title>
<path fill="none" stroke="midnightblue" d="M505.728,-15.1516C420.002,-17.1577 278.413,-24.2863 159,-48.5 138.415,-52.6741 116.116,-59.8822 98.1441,-66.4016"/>
<polygon fill="midnightblue" stroke="midnightblue" points="505.978,-18.6471 515.9,-14.9315 505.826,-11.6487 505.978,-18.6471"/>
</g>
<!-- Node5&#45;&gt;Node2 -->
<g id="edge7" class="edge"><title>Node5&#45;&gt;Node2</title>
<path fill="none" stroke="midnightblue" d="M540.881,-31.6119C522.696,-37.1836 500.925,-43.2032 480.214,-48.4442"/>
<polygon fill="midnightblue" stroke="midnightblue" points="542.09,-34.9009 550.585,-28.5703 539.996,-28.2213 542.09,-34.9009"/>
</g>
<!-- Node6&#45;&gt;Node1 -->
<g id="edge11" class="edge"><title>Node6&#45;&gt;Node1</title>
<path fill="none" stroke="midnightblue" d="M148.864,-87.2381C140.191,-87.2785 131.44,-87.216 123.009,-87.0506"/>
<polygon fill="midnightblue" stroke="midnightblue" points="149.019,-90.7369 158.986,-87.1434 148.953,-83.7372 149.019,-90.7369"/>
</g>
<!-- Node6&#45;&gt;Node2 -->
<g id="edge10" class="edge"><title>Node6&#45;&gt;Node2</title>
<path fill="none" stroke="midnightblue" d="M303.434,-72.272C311.882,-71.3626 320.476,-70.4374 328.901,-69.5305"/>
<polygon fill="midnightblue" stroke="midnightblue" points="302.792,-68.8208 293.224,-73.371 303.541,-75.7805 302.792,-68.8208"/>
</g>
</g>
</svg>
