<?xml version="1.0" encoding="UTF-8" standalone="no"?>
<!DOCTYPE svg PUBLIC "-//W3C//DTD SVG 1.1//EN"
 "http://www.w3.org/Graphics/SVG/1.1/DTD/svg11.dtd">
<!-- Generated by graphviz version 2.38.0 (20140413.2041)
 -->
<!-- Title: prior_hessian::AMHCopula::set_params_iter Pages: 1 -->
<!--zoomable 827 -->
<svg id="main" version="1.1" xmlns="http://www.w3.org/2000/svg" xmlns:xlink="http://www.w3.org/1999/xlink" xml:space="preserve" onload="init(evt)">
<style type="text/css"><![CDATA[
.edge:hover path { stroke: red; }
.edge:hover polygon { stroke: red; fill: red; }
]]></style>
<script type="text/javascript"><![CDATA[
var edges = document.getElementsByTagName('g');
if (edges && edges.length) {
  for (var i=0;i<edges.length;i++) {
    if (edges[i].id.substr(0,4)=='edge') {
      edges[i].setAttribute('class','edge');
    }
  }
}
]]></script>
        <defs>
                <circle id="rim" cx="0" cy="0" r="7"/>
                <circle id="rim2" cx="0" cy="0" r="3.5"/>
                <g id="zoomPlus">
                        <use xlink:href="#rim" fill="#404040">
                                <set attributeName="fill" to="#808080" begin="zoomplus.mouseover" end="zoomplus.mouseout"/>
                        </use>
                        <path d="M-4,0h8M0,-4v8" fill="none" stroke="white" stroke-width="1.5" pointer-events="none"/>
                </g>
                <g id="zoomMin">
                        <use xlink:href="#rim" fill="#404040">
                                <set attributeName="fill" to="#808080" begin="zoomminus.mouseover" end="zoomminus.mouseout"/>
                        </use>
                        <path d="M-4,0h8" fill="none" stroke="white" stroke-width="1.5" pointer-events="none"/>
                </g>
                <g id="dirArrow">
                        <path fill="none" stroke="white" stroke-width="1.5" d="M0,-3.0v7 M-2.5,-0.5L0,-3.0L2.5,-0.5"/>
                </g>
               <g id="resetDef">
                       <use xlink:href="#rim2" fill="#404040">
                               <set attributeName="fill" to="#808080" begin="reset.mouseover" end="reset.mouseout"/>
                       </use>
               </g>
        </defs>

<script type="text/javascript">
var viewWidth = 1173;
var viewHeight = 827;
var sectionId = 'dynsection-41';
</script>
<script xlink:href="svgpan.js"/>
<svg id="graph" class="graph">
<g id="viewport">
<title>prior_hessian::AMHCopula::set_params_iter</title>
<polygon fill="white" stroke="none" points="-4,4 -4,-822.946 1169,-822.946 1169,4 -4,4"/>
<!-- Node1 -->
<g id="node1" class="node"><title>Node1</title>
<polygon fill="#bfbfbf" stroke="black" points="0,-418.5 0,-446.5 128,-446.5 128,-418.5 0,-418.5"/>
<text text-anchor="start" x="8" y="-435.3" font-family="Helvetica,sans-Serif" font-size="9.00">prior_hessian::AMHCopula</text>
<text text-anchor="middle" x="64" y="-425.3" font-family="Helvetica,sans-Serif" font-size="9.00">::set_params_iter</text>
</g>
<!-- Node2 -->
<g id="node2" class="node"><title>Node2</title>
<g id="a_node2"><a xlink:href="classprior__hessian_1_1AMHCopula.html#aa18585757cb2d4b0723ed80258281278" target="_top" xlink:title="prior_hessian::AMHCopula::cdf">
<polygon fill="white" stroke="black" points="348,-575.5 348,-593.5 492,-593.5 492,-575.5 348,-575.5"/>
<text text-anchor="middle" x="420" y="-582.3" font-family="Helvetica,sans-Serif" font-size="9.00">prior_hessian::AMHCopula::cdf</text>
</a>
</g>
</g>
<!-- Node1&#45;&gt;Node2 -->
<g id="edge1" class="edge"><title>Node1&#45;&gt;Node2</title>
<path fill="none" stroke="midnightblue" d="M72.2072,-446.836C86.0509,-472.697 119.022,-526.765 164,-551.5 216.897,-580.59 285.068,-588.155 337.613,-588.818"/>
<polygon fill="midnightblue" stroke="midnightblue" points="337.889,-592.319 347.905,-588.863 337.92,-585.32 337.889,-592.319"/>
</g>
<!-- Node4 -->
<g id="node4" class="node"><title>Node4</title>
<g id="a_node4"><a xlink:href="classprior__hessian_1_1AMHCopula.html#a80bcb09b15bdb3c404f028772932c081" target="_top" xlink:title="prior_hessian::AMHCopula\l::set_theta">
<polygon fill="white" stroke="black" points="873,-722.5 873,-750.5 1001,-750.5 1001,-722.5 873,-722.5"/>
<text text-anchor="start" x="881" y="-739.3" font-family="Helvetica,sans-Serif" font-size="9.00">prior_hessian::AMHCopula</text>
<text text-anchor="middle" x="937" y="-729.3" font-family="Helvetica,sans-Serif" font-size="9.00">::set_theta</text>
</a>
</g>
</g>
<!-- Node1&#45;&gt;Node4 -->
<g id="edge40" class="edge"><title>Node1&#45;&gt;Node4</title>
<path fill="none" stroke="midnightblue" d="M64.4318,-446.524C63.1754,-497.932 66.2017,-677.618 164,-765.5 249.718,-842.527 303.758,-812.5 419,-812.5 419,-812.5 419,-812.5 601.5,-812.5 706.361,-812.5 825.22,-776.545 889.213,-754.096"/>
<polygon fill="midnightblue" stroke="midnightblue" points="890.751,-757.264 899.001,-750.617 888.407,-750.668 890.751,-757.264"/>
</g>
<!-- Node6 -->
<g id="node6" class="node"><title>Node6</title>
<g id="a_node6"><a xlink:href="classprior__hessian_1_1AMHCopula.html#a19aecc89d6a1d6c46aa595a13999cfb2" target="_top" xlink:title="prior_hessian::AMHCopula\l::d1_igen">
<polygon fill="white" stroke="black" points="356,-462.5 356,-490.5 484,-490.5 484,-462.5 356,-462.5"/>
<text text-anchor="start" x="364" y="-479.3" font-family="Helvetica,sans-Serif" font-size="9.00">prior_hessian::AMHCopula</text>
<text text-anchor="middle" x="420" y="-469.3" font-family="Helvetica,sans-Serif" font-size="9.00">::d1_igen</text>
</a>
</g>
</g>
<!-- Node1&#45;&gt;Node6 -->
<g id="edge5" class="edge"><title>Node1&#45;&gt;Node6</title>
<path fill="none" stroke="midnightblue" d="M128.23,-445.532C140.083,-447.72 152.395,-449.821 164,-451.5 224.957,-460.318 294.571,-466.911 345.646,-471.106"/>
<polygon fill="midnightblue" stroke="midnightblue" points="345.679,-474.62 355.929,-471.939 346.244,-467.643 345.679,-474.62"/>
</g>
<!-- Node10 -->
<g id="node10" class="node"><title>Node10</title>
<g id="a_node10"><a xlink:href="classprior__hessian_1_1AMHCopula.html#a9fc68a651139c1c7d28a8144562a09f3" target="_top" xlink:title="prior_hessian::AMHCopula\l::ddim_gen">
<polygon fill="white" stroke="black" points="356,-521.5 356,-549.5 484,-549.5 484,-521.5 356,-521.5"/>
<text text-anchor="start" x="364" y="-538.3" font-family="Helvetica,sans-Serif" font-size="9.00">prior_hessian::AMHCopula</text>
<text text-anchor="middle" x="420" y="-528.3" font-family="Helvetica,sans-Serif" font-size="9.00">::ddim_gen</text>
</a>
</g>
</g>
<!-- Node1&#45;&gt;Node10 -->
<g id="edge12" class="edge"><title>Node1&#45;&gt;Node10</title>
<path fill="none" stroke="midnightblue" d="M74.5003,-446.785C90.1296,-468.866 123.597,-510.51 164,-527.5 221.512,-551.685 292.937,-551.677 345.552,-546.778"/>
<polygon fill="midnightblue" stroke="midnightblue" points="346.218,-550.229 355.814,-545.739 345.512,-543.264 346.218,-550.229"/>
</g>
<!-- Node11 -->
<g id="node11" class="node"><title>Node11</title>
<g id="a_node11"><a xlink:href="classprior__hessian_1_1AMHCopula.html#a2c3506804bb44c972b94cf100404e2c6" target="_top" xlink:title="prior_hessian::AMHCopula::gen">
<polygon fill="white" stroke="black" points="164,-423.5 164,-441.5 312,-441.5 312,-423.5 164,-423.5"/>
<text text-anchor="middle" x="238" y="-430.3" font-family="Helvetica,sans-Serif" font-size="9.00">prior_hessian::AMHCopula::gen</text>
</a>
</g>
</g>
<!-- Node1&#45;&gt;Node11 -->
<g id="edge15" class="edge"><title>Node1&#45;&gt;Node11</title>
<path fill="none" stroke="midnightblue" d="M128.07,-432.5C136.408,-432.5 145.057,-432.5 153.669,-432.5"/>
<polygon fill="midnightblue" stroke="midnightblue" points="153.743,-436 163.743,-432.5 153.743,-429 153.743,-436"/>
</g>
<!-- Node12 -->
<g id="node12" class="node"><title>Node12</title>
<g id="a_node12"><a xlink:href="classprior__hessian_1_1AMHCopula.html#a7c3f0e7eb7f4c8eecd37563c35e1f819" target="_top" xlink:title="prior_hessian::AMHCopula\l::grad">
<polygon fill="white" stroke="black" points="174,-727.5 174,-755.5 302,-755.5 302,-727.5 174,-727.5"/>
<text text-anchor="start" x="182" y="-744.3" font-family="Helvetica,sans-Serif" font-size="9.00">prior_hessian::AMHCopula</text>
<text text-anchor="middle" x="238" y="-734.3" font-family="Helvetica,sans-Serif" font-size="9.00">::grad</text>
</a>
</g>
</g>
<!-- Node1&#45;&gt;Node12 -->
<g id="edge16" class="edge"><title>Node1&#45;&gt;Node12</title>
<path fill="none" stroke="midnightblue" d="M65.9681,-446.531C69.7971,-491.417 87.6654,-633.185 164,-712.5 167.63,-716.272 171.814,-719.565 176.302,-722.438"/>
<polygon fill="midnightblue" stroke="midnightblue" points="174.812,-725.615 185.246,-727.459 178.24,-719.512 174.812,-725.615"/>
</g>
<!-- Node13 -->
<g id="node13" class="node"><title>Node13</title>
<g id="a_node13"><a xlink:href="classprior__hessian_1_1AMHCopula.html#af87cadcd28d6af3fa8249932f7d01ec7" target="_top" xlink:title="prior_hessian::AMHCopula\l::grad2">
<polygon fill="white" stroke="black" points="356,-708.5 356,-736.5 484,-736.5 484,-708.5 356,-708.5"/>
<text text-anchor="start" x="364" y="-725.3" font-family="Helvetica,sans-Serif" font-size="9.00">prior_hessian::AMHCopula</text>
<text text-anchor="middle" x="420" y="-715.3" font-family="Helvetica,sans-Serif" font-size="9.00">::grad2</text>
</a>
</g>
</g>
<!-- Node1&#45;&gt;Node13 -->
<g id="edge21" class="edge"><title>Node1&#45;&gt;Node13</title>
<path fill="none" stroke="midnightblue" d="M66.4099,-446.636C71.331,-488.02 91.6081,-609.75 164,-669.5 191.268,-692.006 280.379,-706.793 345.601,-714.893"/>
<polygon fill="midnightblue" stroke="midnightblue" points="345.502,-718.407 355.85,-716.136 346.344,-711.458 345.502,-718.407"/>
</g>
<!-- Node15 -->
<g id="node15" class="node"><title>Node15</title>
<g id="a_node15"><a xlink:href="classprior__hessian_1_1AMHCopula.html#a324c075c80fb95ed8b69bd601e6a4de6" target="_top" xlink:title="prior_hessian::AMHCopula\l::hess">
<polygon fill="white" stroke="black" points="356,-651.5 356,-679.5 484,-679.5 484,-651.5 356,-651.5"/>
<text text-anchor="start" x="364" y="-668.3" font-family="Helvetica,sans-Serif" font-size="9.00">prior_hessian::AMHCopula</text>
<text text-anchor="middle" x="420" y="-658.3" font-family="Helvetica,sans-Serif" font-size="9.00">::hess</text>
</a>
</g>
</g>
<!-- Node1&#45;&gt;Node15 -->
<g id="edge22" class="edge"><title>Node1&#45;&gt;Node15</title>
<path fill="none" stroke="midnightblue" d="M67.1352,-446.609C73.6979,-484.589 97.3332,-589.296 164,-636.5 216.548,-673.707 291.023,-678.149 345.927,-674.961"/>
<polygon fill="midnightblue" stroke="midnightblue" points="346.201,-678.451 355.942,-674.284 345.728,-671.467 346.201,-678.451"/>
</g>
<!-- Node16 -->
<g id="node16" class="node"><title>Node16</title>
<g id="a_node16"><a xlink:href="classprior__hessian_1_1AMHCopula.html#a8d5daac3653a101d7068ef9dc0591002" target="_top" xlink:title="prior_hessian::AMHCopula\l::igen">
<polygon fill="white" stroke="black" points="174,-376.5 174,-404.5 302,-404.5 302,-376.5 174,-376.5"/>
<text text-anchor="start" x="182" y="-393.3" font-family="Helvetica,sans-Serif" font-size="9.00">prior_hessian::AMHCopula</text>
<text text-anchor="middle" x="238" y="-383.3" font-family="Helvetica,sans-Serif" font-size="9.00">::igen</text>
</a>
</g>
</g>
<!-- Node1&#45;&gt;Node16 -->
<g id="edge25" class="edge"><title>Node1&#45;&gt;Node16</title>
<path fill="none" stroke="midnightblue" d="M122.752,-418.398C137.723,-414.742 153.978,-410.773 169.405,-407.006"/>
<polygon fill="midnightblue" stroke="midnightblue" points="170.516,-410.337 179.4,-404.565 168.856,-403.537 170.516,-410.337"/>
</g>
<!-- Node17 -->
<g id="node17" class="node"><title>Node17</title>
<g id="a_node17"><a xlink:href="classprior__hessian_1_1AMHCopula.html#ad1ce11681554712db7a56bb4cb54c3e9" target="_top" xlink:title="prior_hessian::AMHCopula::llh">
<polygon fill="white" stroke="black" points="167,-499.5 167,-517.5 309,-517.5 309,-499.5 167,-499.5"/>
<text text-anchor="middle" x="238" y="-506.3" font-family="Helvetica,sans-Serif" font-size="9.00">prior_hessian::AMHCopula::llh</text>
</a>
</g>
</g>
<!-- Node1&#45;&gt;Node17 -->
<g id="edge26" class="edge"><title>Node1&#45;&gt;Node17</title>
<path fill="none" stroke="midnightblue" d="M89.2672,-446.7C108.979,-457.876 137.721,-473.37 164,-484.5 174.147,-488.798 185.346,-492.821 195.862,-496.299"/>
<polygon fill="midnightblue" stroke="midnightblue" points="195.087,-499.726 205.678,-499.458 197.231,-493.063 195.087,-499.726"/>
</g>
<!-- Node18 -->
<g id="node18" class="node"><title>Node18</title>
<g id="a_node18"><a xlink:href="classprior__hessian_1_1AMHCopula.html#a8129324c2c30bd4900396198b0c9b957" target="_top" xlink:title="prior_hessian::AMHCopula::pdf">
<polygon fill="white" stroke="black" points="528,-613.5 528,-631.5 673,-631.5 673,-613.5 528,-613.5"/>
<text text-anchor="middle" x="600.5" y="-620.3" font-family="Helvetica,sans-Serif" font-size="9.00">prior_hessian::AMHCopula::pdf</text>
</a>
</g>
</g>
<!-- Node1&#45;&gt;Node18 -->
<g id="edge30" class="edge"><title>Node1&#45;&gt;Node18</title>
<path fill="none" stroke="midnightblue" d="M69.6258,-446.78C80.4865,-477.751 110.798,-550.928 164,-583.5 281.039,-655.156 449.957,-645.057 539.116,-632.936"/>
<polygon fill="midnightblue" stroke="midnightblue" points="539.65,-636.395 549.061,-631.53 538.67,-629.464 539.65,-636.395"/>
</g>
<!-- Node19 -->
<g id="node19" class="node"><title>Node19</title>
<g id="a_node19"><a xlink:href="classprior__hessian_1_1AMHCopula.html#a4c1752aeba875e7ab9563a1a7cd1524b" target="_top" xlink:title="prior_hessian::AMHCopula\l::rllh">
<polygon fill="white" stroke="black" points="174,-329.5 174,-357.5 302,-357.5 302,-329.5 174,-329.5"/>
<text text-anchor="start" x="182" y="-346.3" font-family="Helvetica,sans-Serif" font-size="9.00">prior_hessian::AMHCopula</text>
<text text-anchor="middle" x="238" y="-336.3" font-family="Helvetica,sans-Serif" font-size="9.00">::rllh</text>
</a>
</g>
</g>
<!-- Node1&#45;&gt;Node19 -->
<g id="edge32" class="edge"><title>Node1&#45;&gt;Node19</title>
<path fill="none" stroke="midnightblue" d="M83.1056,-418.496C102.322,-404.154 133.997,-381.967 164,-367.5 168.613,-365.275 173.485,-363.178 178.433,-361.221"/>
<polygon fill="midnightblue" stroke="midnightblue" points="179.864,-364.422 187.996,-357.63 177.404,-357.868 179.864,-364.422"/>
</g>
<!-- Node20 -->
<g id="node20" class="node"><title>Node20</title>
<g id="a_node20"><a xlink:href="classprior__hessian_1_1AMHCopula.html#ab0031223c39aec7287cc3cfa3160f6e8" target="_top" xlink:title="prior_hessian::AMHCopula\l::rllh_const">
<polygon fill="white" stroke="black" points="174,-282.5 174,-310.5 302,-310.5 302,-282.5 174,-282.5"/>
<text text-anchor="start" x="182" y="-299.3" font-family="Helvetica,sans-Serif" font-size="9.00">prior_hessian::AMHCopula</text>
<text text-anchor="middle" x="238" y="-289.3" font-family="Helvetica,sans-Serif" font-size="9.00">::rllh_const</text>
</a>
</g>
</g>
<!-- Node1&#45;&gt;Node20 -->
<g id="edge33" class="edge"><title>Node1&#45;&gt;Node20</title>
<path fill="none" stroke="midnightblue" d="M73.8655,-418.293C89.3255,-394.648 123.467,-347.188 164,-320.5 167.137,-318.434 170.468,-316.533 173.91,-314.784"/>
<polygon fill="midnightblue" stroke="midnightblue" points="175.604,-317.858 183.231,-310.505 172.683,-311.496 175.604,-317.858"/>
</g>
<!-- Node21 -->
<g id="node21" class="node"><title>Node21</title>
<g id="a_node21"><a xlink:href="classprior__hessian_1_1AMHCopula.html#aee053f024e655950ad677d53e01d6b4f" target="_top" xlink:title="prior_hessian::AMHCopula\l::rllh_d2theta_accumulate">
<polygon fill="white" stroke="black" points="174,-235.5 174,-263.5 302,-263.5 302,-235.5 174,-235.5"/>
<text text-anchor="start" x="182" y="-252.3" font-family="Helvetica,sans-Serif" font-size="9.00">prior_hessian::AMHCopula</text>
<text text-anchor="middle" x="238" y="-242.3" font-family="Helvetica,sans-Serif" font-size="9.00">::rllh_d2theta_accumulate</text>
</a>
</g>
</g>
<!-- Node1&#45;&gt;Node21 -->
<g id="edge34" class="edge"><title>Node1&#45;&gt;Node21</title>
<path fill="none" stroke="midnightblue" d="M69.9695,-418.307C81.5155,-387.377 113.109,-313.469 164,-273.5 166.312,-271.685 168.766,-270.004 171.321,-268.448"/>
<polygon fill="midnightblue" stroke="midnightblue" points="173.171,-271.428 180.338,-263.626 169.87,-265.255 173.171,-271.428"/>
</g>
<!-- Node22 -->
<g id="node22" class="node"><title>Node22</title>
<g id="a_node22"><a xlink:href="classprior__hessian_1_1AMHCopula.html#a8602b8b27ee8b50be3dc979f8b229406" target="_top" xlink:title="prior_hessian::AMHCopula\l::rllh_dtheta_accumulate">
<polygon fill="white" stroke="black" points="174,-188.5 174,-216.5 302,-216.5 302,-188.5 174,-188.5"/>
<text text-anchor="start" x="182" y="-205.3" font-family="Helvetica,sans-Serif" font-size="9.00">prior_hessian::AMHCopula</text>
<text text-anchor="middle" x="238" y="-195.3" font-family="Helvetica,sans-Serif" font-size="9.00">::rllh_dtheta_accumulate</text>
</a>
</g>
</g>
<!-- Node1&#45;&gt;Node22 -->
<g id="edge35" class="edge"><title>Node1&#45;&gt;Node22</title>
<path fill="none" stroke="midnightblue" d="M67.7647,-418.434C75.7658,-381.437 102.41,-280.542 164,-226.5 165.93,-224.806 167.983,-223.231 170.129,-221.767"/>
<polygon fill="midnightblue" stroke="midnightblue" points="171.969,-224.745 178.806,-216.651 168.414,-218.716 171.969,-224.745"/>
</g>
<!-- Node23 -->
<g id="node23" class="node"><title>Node23</title>
<g id="a_node23"><a xlink:href="classprior__hessian_1_1AMHCopula.html#ad86ca50954d51be0a25a9523f4d7ff5a" target="_top" xlink:title="prior_hessian::AMHCopula\l::rllh_grad_accumulate">
<polygon fill="white" stroke="black" points="174,-141.5 174,-169.5 302,-169.5 302,-141.5 174,-141.5"/>
<text text-anchor="start" x="182" y="-158.3" font-family="Helvetica,sans-Serif" font-size="9.00">prior_hessian::AMHCopula</text>
<text text-anchor="middle" x="238" y="-148.3" font-family="Helvetica,sans-Serif" font-size="9.00">::rllh_grad_accumulate</text>
</a>
</g>
</g>
<!-- Node1&#45;&gt;Node23 -->
<g id="edge36" class="edge"><title>Node1&#45;&gt;Node23</title>
<path fill="none" stroke="midnightblue" d="M66.3655,-418.439C71.2339,-376.023 91.5358,-248.06 164,-179.5 165.693,-177.898 167.495,-176.403 169.383,-175.008"/>
<polygon fill="midnightblue" stroke="midnightblue" points="171.534,-177.79 178.141,-169.508 167.811,-171.862 171.534,-177.79"/>
</g>
<!-- Node24 -->
<g id="node24" class="node"><title>Node24</title>
<g id="a_node24"><a xlink:href="classprior__hessian_1_1AMHCopula.html#ae6aab20b3c845dfe2dd699df724755eb" target="_top" xlink:title="prior_hessian::AMHCopula\l::rllh_grad_grad2_accumulate">
<polygon fill="white" stroke="black" points="168,-94.5 168,-122.5 308,-122.5 308,-94.5 168,-94.5"/>
<text text-anchor="start" x="176" y="-111.3" font-family="Helvetica,sans-Serif" font-size="9.00">prior_hessian::AMHCopula</text>
<text text-anchor="middle" x="238" y="-101.3" font-family="Helvetica,sans-Serif" font-size="9.00">::rllh_grad_grad2_accumulate</text>
</a>
</g>
</g>
<!-- Node1&#45;&gt;Node24 -->
<g id="edge37" class="edge"><title>Node1&#45;&gt;Node24</title>
<path fill="none" stroke="midnightblue" d="M65.3849,-418.292C67.4487,-370.794 80.5724,-215.835 164,-132.5 165.451,-131.05 166.991,-129.688 168.605,-128.409"/>
<polygon fill="midnightblue" stroke="midnightblue" points="170.83,-131.132 177.206,-122.671 166.945,-125.308 170.83,-131.132"/>
</g>
<!-- Node25 -->
<g id="node25" class="node"><title>Node25</title>
<g id="a_node25"><a xlink:href="classprior__hessian_1_1AMHCopula.html#ab869b33caebfb6ae4e94f180c8f851bb" target="_top" xlink:title="prior_hessian::AMHCopula\l::rllh_grad_hess_accumulate">
<polygon fill="white" stroke="black" points="170.5,-47.5 170.5,-75.5 305.5,-75.5 305.5,-47.5 170.5,-47.5"/>
<text text-anchor="start" x="178.5" y="-64.3" font-family="Helvetica,sans-Serif" font-size="9.00">prior_hessian::AMHCopula</text>
<text text-anchor="middle" x="238" y="-54.3" font-family="Helvetica,sans-Serif" font-size="9.00">::rllh_grad_hess_accumulate</text>
</a>
</g>
</g>
<!-- Node1&#45;&gt;Node25 -->
<g id="edge38" class="edge"><title>Node1&#45;&gt;Node25</title>
<path fill="none" stroke="midnightblue" d="M64.6411,-418.342C64.1151,-366.363 69.3668,-183.968 164,-85.5 165.421,-84.0211 166.935,-82.6332 168.525,-81.3309"/>
<polygon fill="midnightblue" stroke="midnightblue" points="170.762,-84.0415 177.038,-75.5053 166.808,-78.2648 170.762,-84.0415"/>
</g>
<!-- Node26 -->
<g id="node26" class="node"><title>Node26</title>
<g id="a_node26"><a xlink:href="classprior__hessian_1_1AMHCopula.html#a96b5928f1be384c8d0a4efb09b8e49a1" target="_top" xlink:title="prior_hessian::AMHCopula\l::sample">
<polygon fill="white" stroke="black" points="174,-0.5 174,-28.5 302,-28.5 302,-0.5 174,-0.5"/>
<text text-anchor="start" x="182" y="-17.3" font-family="Helvetica,sans-Serif" font-size="9.00">prior_hessian::AMHCopula</text>
<text text-anchor="middle" x="238" y="-7.3" font-family="Helvetica,sans-Serif" font-size="9.00">::sample</text>
</a>
</g>
</g>
<!-- Node1&#45;&gt;Node26 -->
<g id="edge39" class="edge"><title>Node1&#45;&gt;Node26</title>
<path fill="none" stroke="midnightblue" d="M66.7309,-418.28C74.7468,-354.61 110.175,-96.3159 164,-38.5 165.364,-37.0353 166.818,-35.6599 168.348,-34.3683"/>
<polygon fill="midnightblue" stroke="midnightblue" points="170.398,-37.2053 176.556,-28.5835 166.365,-31.4836 170.398,-37.2053"/>
</g>
<!-- Node3 -->
<g id="node3" class="node"><title>Node3</title>
<g id="a_node3"><a xlink:href="classprior__hessian_1_1AMHCopula.html#a11696b4a8cef12a30706cd745820b201" target="_top" xlink:title="prior_hessian::AMHCopula\l::theta">
<polygon fill="white" stroke="black" points="709,-627.5 709,-655.5 837,-655.5 837,-627.5 709,-627.5"/>
<text text-anchor="start" x="717" y="-644.3" font-family="Helvetica,sans-Serif" font-size="9.00">prior_hessian::AMHCopula</text>
<text text-anchor="middle" x="773" y="-634.3" font-family="Helvetica,sans-Serif" font-size="9.00">::theta</text>
</a>
</g>
</g>
<!-- Node2&#45;&gt;Node3 -->
<g id="edge2" class="edge"><title>Node2&#45;&gt;Node3</title>
<path fill="none" stroke="midnightblue" d="M492.113,-584.888C543.025,-586.435 612.91,-591.162 673,-604.5 692.799,-608.895 713.957,-616.392 731.609,-623.494"/>
<polygon fill="midnightblue" stroke="midnightblue" points="730.445,-626.799 741.024,-627.376 733.113,-620.328 730.445,-626.799"/>
</g>
<!-- Node3&#45;&gt;Node4 -->
<g id="edge3" class="edge"><title>Node3&#45;&gt;Node4</title>
<path fill="none" stroke="midnightblue" d="M797.904,-655.518C825.781,-671.865 872.015,-698.978 903.227,-717.281"/>
<polygon fill="midnightblue" stroke="midnightblue" points="901.602,-720.385 911.998,-722.425 905.143,-714.347 901.602,-720.385"/>
</g>
<!-- Node5 -->
<g id="node5" class="node"><title>Node5</title>
<g id="a_node5"><a xlink:href="classprior__hessian_1_1AMHCopula.html#a9d4b8453eedea358f829f8d4c911d8c4" target="_top" xlink:title="prior_hessian::AMHCopula\l::check_theta">
<polygon fill="white" stroke="black" points="1037,-722.5 1037,-750.5 1165,-750.5 1165,-722.5 1037,-722.5"/>
<text text-anchor="start" x="1045" y="-739.3" font-family="Helvetica,sans-Serif" font-size="9.00">prior_hessian::AMHCopula</text>
<text text-anchor="middle" x="1101" y="-729.3" font-family="Helvetica,sans-Serif" font-size="9.00">::check_theta</text>
</a>
</g>
</g>
<!-- Node4&#45;&gt;Node5 -->
<g id="edge4" class="edge"><title>Node4&#45;&gt;Node5</title>
<path fill="none" stroke="midnightblue" d="M1001.1,-736.5C1009.43,-736.5 1018.04,-736.5 1026.53,-736.5"/>
<polygon fill="midnightblue" stroke="midnightblue" points="1026.81,-740 1036.81,-736.5 1026.81,-733 1026.81,-740"/>
</g>
<!-- Node6&#45;&gt;Node3 -->
<g id="edge11" class="edge"><title>Node6&#45;&gt;Node3</title>
<path fill="none" stroke="midnightblue" d="M466.317,-462.39C519.6,-448.628 608.887,-434.644 673,-471.5 728.078,-503.162 755.384,-578.565 766.197,-617.428"/>
<polygon fill="midnightblue" stroke="midnightblue" points="762.881,-618.579 768.819,-627.354 769.649,-616.792 762.881,-618.579"/>
</g>
<!-- Node7 -->
<g id="node7" class="node"><title>Node7</title>
<g id="a_node7"><a xlink:href="classprior__hessian_1_1AMHCopula.html#a38e091a72ecb8c9df42e88017b2d347e" target="_top" xlink:title="prior_hessian::AMHCopula\l::igen_sum">
<polygon fill="white" stroke="black" points="536.5,-376.5 536.5,-404.5 664.5,-404.5 664.5,-376.5 536.5,-376.5"/>
<text text-anchor="start" x="544.5" y="-393.3" font-family="Helvetica,sans-Serif" font-size="9.00">prior_hessian::AMHCopula</text>
<text text-anchor="middle" x="600.5" y="-383.3" font-family="Helvetica,sans-Serif" font-size="9.00">::igen_sum</text>
</a>
</g>
</g>
<!-- Node6&#45;&gt;Node7 -->
<g id="edge6" class="edge"><title>Node6&#45;&gt;Node7</title>
<path fill="none" stroke="midnightblue" d="M450.076,-462.491C480.287,-447.936 527.717,-425.085 561.018,-409.041"/>
<polygon fill="midnightblue" stroke="midnightblue" points="562.946,-411.996 570.436,-404.503 559.908,-405.69 562.946,-411.996"/>
</g>
<!-- Node8 -->
<g id="node8" class="node"><title>Node8</title>
<g id="a_node8"><a xlink:href="classprior__hessian_1_1AMHCopula.html#aaacec957c8d8e24df1100aee2694fe3a" target="_top" xlink:title="prior_hessian::AMHCopula\l::num_dim">
<polygon fill="white" stroke="black" points="536.5,-527.5 536.5,-555.5 664.5,-555.5 664.5,-527.5 536.5,-527.5"/>
<text text-anchor="start" x="544.5" y="-544.3" font-family="Helvetica,sans-Serif" font-size="9.00">prior_hessian::AMHCopula</text>
<text text-anchor="middle" x="600.5" y="-534.3" font-family="Helvetica,sans-Serif" font-size="9.00">::num_dim</text>
</a>
</g>
</g>
<!-- Node6&#45;&gt;Node8 -->
<g id="edge9" class="edge"><title>Node6&#45;&gt;Node8</title>
<path fill="none" stroke="midnightblue" d="M455.488,-490.673C476.354,-499.089 503.565,-509.784 528,-518.5 533.429,-520.437 539.115,-522.39 544.807,-524.297"/>
<polygon fill="midnightblue" stroke="midnightblue" points="543.755,-527.635 554.348,-527.451 545.952,-520.989 543.755,-527.635"/>
</g>
<!-- Node9 -->
<g id="node9" class="node"><title>Node9</title>
<g id="a_node9"><a xlink:href="namespaceprior__hessian_1_1polylog.html#abb5fc2ad3b1509f49ea4b2fc05d916bb" target="_top" xlink:title="prior_hessian::polylog\l::polylog">
<polygon fill="white" stroke="black" points="547,-480.5 547,-508.5 654,-508.5 654,-480.5 547,-480.5"/>
<text text-anchor="start" x="555" y="-497.3" font-family="Helvetica,sans-Serif" font-size="9.00">prior_hessian::polylog</text>
<text text-anchor="middle" x="600.5" y="-487.3" font-family="Helvetica,sans-Serif" font-size="9.00">::polylog</text>
</a>
</g>
</g>
<!-- Node6&#45;&gt;Node9 -->
<g id="edge10" class="edge"><title>Node6&#45;&gt;Node9</title>
<path fill="none" stroke="midnightblue" d="M484.184,-482.871C501.127,-484.58 519.443,-486.427 536.382,-488.135"/>
<polygon fill="midnightblue" stroke="midnightblue" points="536.426,-491.657 546.727,-489.178 537.129,-484.693 536.426,-491.657"/>
</g>
<!-- Node7&#45;&gt;Node3 -->
<g id="edge8" class="edge"><title>Node7&#45;&gt;Node3</title>
<path fill="none" stroke="midnightblue" d="M630.286,-404.657C644.519,-412.755 661.141,-423.993 673,-437.5 721.863,-493.151 752.373,-577.174 765.117,-617.818"/>
<polygon fill="midnightblue" stroke="midnightblue" points="761.774,-618.856 768.041,-627.399 768.469,-616.813 761.774,-618.856"/>
</g>
<!-- Node7&#45;&gt;Node7 -->
<g id="edge7" class="edge"><title>Node7&#45;&gt;Node7</title>
<path fill="none" stroke="midnightblue" d="M571.092,-404.53C562.815,-413.89 572.617,-423 600.5,-423 617.927,-423 628.291,-419.441 631.592,-414.487"/>
<polygon fill="midnightblue" stroke="midnightblue" points="635.027,-413.806 629.908,-404.53 628.125,-414.974 635.027,-413.806"/>
</g>
<!-- Node10&#45;&gt;Node8 -->
<g id="edge13" class="edge"><title>Node10&#45;&gt;Node8</title>
<path fill="none" stroke="midnightblue" d="M484.184,-537.624C497.822,-538.082 512.351,-538.571 526.335,-539.041"/>
<polygon fill="midnightblue" stroke="midnightblue" points="526.289,-542.541 536.401,-539.379 526.525,-535.545 526.289,-542.541"/>
</g>
<!-- Node10&#45;&gt;Node9 -->
<g id="edge14" class="edge"><title>Node10&#45;&gt;Node9</title>
<path fill="none" stroke="midnightblue" d="M482.43,-521.39C499.964,-517.363 519.091,-512.969 536.706,-508.923"/>
<polygon fill="midnightblue" stroke="midnightblue" points="537.917,-512.236 546.879,-506.587 536.35,-505.414 537.917,-512.236"/>
</g>
<!-- Node12&#45;&gt;Node3 -->
<g id="edge20" class="edge"><title>Node12&#45;&gt;Node3</title>
<path fill="none" stroke="midnightblue" d="M299.229,-755.568C385.933,-772.724 549.105,-793.273 673,-739.5 709.393,-723.705 739.796,-687.912 756.942,-664.236"/>
<polygon fill="midnightblue" stroke="midnightblue" points="759.968,-666.018 762.85,-655.822 754.239,-661.996 759.968,-666.018"/>
</g>
<!-- Node12&#45;&gt;Node13 -->
<g id="edge17" class="edge"><title>Node12&#45;&gt;Node13</title>
<path fill="none" stroke="midnightblue" d="M302.208,-734.828C316.229,-733.348 331.204,-731.767 345.592,-730.249"/>
<polygon fill="midnightblue" stroke="midnightblue" points="346.367,-733.686 355.944,-729.156 345.632,-726.725 346.367,-733.686"/>
</g>
<!-- Node13&#45;&gt;Node3 -->
<g id="edge19" class="edge"><title>Node13&#45;&gt;Node3</title>
<path fill="none" stroke="midnightblue" d="M484.025,-731.918C536.2,-737.23 611.473,-739.076 673,-717.5 704.31,-706.52 733.584,-681.484 752.056,-663.136"/>
<polygon fill="midnightblue" stroke="midnightblue" points="754.797,-665.339 759.285,-655.742 749.792,-660.445 754.797,-665.339"/>
</g>
<!-- Node14 -->
<g id="node14" class="node"><title>Node14</title>
<g id="a_node14"><a xlink:href="namespaceprior__hessian.html#a706cb136b90f16dd920118eb59ef1ad6" target="_top" xlink:title="prior_hessian::square">
<polygon fill="white" stroke="black" points="547.5,-689.5 547.5,-707.5 653.5,-707.5 653.5,-689.5 547.5,-689.5"/>
<text text-anchor="middle" x="600.5" y="-696.3" font-family="Helvetica,sans-Serif" font-size="9.00">prior_hessian::square</text>
</a>
</g>
</g>
<!-- Node13&#45;&gt;Node14 -->
<g id="edge18" class="edge"><title>Node13&#45;&gt;Node14</title>
<path fill="none" stroke="midnightblue" d="M484.184,-714.005C501.454,-711.683 520.152,-709.169 537.363,-706.855"/>
<polygon fill="midnightblue" stroke="midnightblue" points="537.859,-710.319 547.303,-705.518 536.926,-703.382 537.859,-710.319"/>
</g>
<!-- Node15&#45;&gt;Node3 -->
<g id="edge24" class="edge"><title>Node15&#45;&gt;Node3</title>
<path fill="none" stroke="midnightblue" d="M484.157,-661.182C544.36,-657.065 634.99,-650.868 698.427,-646.531"/>
<polygon fill="midnightblue" stroke="midnightblue" points="699.021,-649.998 708.759,-645.824 698.543,-643.015 699.021,-649.998"/>
</g>
<!-- Node15&#45;&gt;Node14 -->
<g id="edge23" class="edge"><title>Node15&#45;&gt;Node14</title>
<path fill="none" stroke="midnightblue" d="M484.184,-677.181C502.631,-680.591 522.707,-684.303 540.86,-687.659"/>
<polygon fill="midnightblue" stroke="midnightblue" points="540.255,-691.106 550.725,-689.483 541.528,-684.223 540.255,-691.106"/>
</g>
<!-- Node17&#45;&gt;Node6 -->
<g id="edge27" class="edge"><title>Node17&#45;&gt;Node6</title>
<path fill="none" stroke="midnightblue" d="M290.099,-499.416C307.456,-496.33 327.202,-492.82 345.933,-489.49"/>
<polygon fill="midnightblue" stroke="midnightblue" points="346.681,-492.912 355.914,-487.715 345.456,-486.02 346.681,-492.912"/>
</g>
<!-- Node17&#45;&gt;Node7 -->
<g id="edge29" class="edge"><title>Node17&#45;&gt;Node7</title>
<path fill="none" stroke="midnightblue" d="M254.391,-499.353C275.066,-487.391 313.237,-466.441 348,-453.5 406.53,-431.711 475.494,-415.034 526.388,-404.329"/>
<polygon fill="midnightblue" stroke="midnightblue" points="527.238,-407.727 536.318,-402.268 525.815,-400.873 527.238,-407.727"/>
</g>
<!-- Node17&#45;&gt;Node10 -->
<g id="edge28" class="edge"><title>Node17&#45;&gt;Node10</title>
<path fill="none" stroke="midnightblue" d="M299.188,-517.528C314.111,-519.767 330.267,-522.19 345.738,-524.511"/>
<polygon fill="midnightblue" stroke="midnightblue" points="345.378,-527.996 355.787,-526.018 346.417,-521.073 345.378,-527.996"/>
</g>
<!-- Node18&#45;&gt;Node3 -->
<g id="edge31" class="edge"><title>Node18&#45;&gt;Node3</title>
<path fill="none" stroke="midnightblue" d="M673.313,-630.503C681.724,-631.44 690.315,-632.397 698.745,-633.337"/>
<polygon fill="midnightblue" stroke="midnightblue" points="698.6,-636.842 708.927,-634.471 699.376,-629.885 698.6,-636.842"/>
</g>
</g>
</svg>
        <g id="navigator" transform="translate(0 0)" fill="#404254">
                <rect fill="#f2f5e9" fill-opacity="0.5" stroke="#606060" stroke-width=".5" x="0" y="0" width="60" height="60"/>
                <use id="zoomplus" xlink:href="#zoomPlus" x="17" y="9" onmousedown="handleZoom(evt,'in')"/>
                <use id="zoomminus" xlink:href="#zoomMin" x="42" y="9" onmousedown="handleZoom(evt,'out')"/>
                <use id="reset" xlink:href="#resetDef" x="30" y="36" onmousedown="handleReset()"/>
                <g id="arrowUp" xlink:href="#dirArrow" transform="translate(30 24)" onmousedown="handlePan(0,-1)">
                  <use xlink:href="#rim" fill="#404040">
                        <set attributeName="fill" to="#808080" begin="arrowUp.mouseover" end="arrowUp.mouseout"/>
                  </use>
                  <path fill="none" stroke="white" stroke-width="1.5" d="M0,-3.0v7 M-2.5,-0.5L0,-3.0L2.5,-0.5"/>
                </g>
                <g id="arrowRight" xlink:href="#dirArrow" transform="rotate(90) translate(36 -43)" onmousedown="handlePan(1,0)">
                  <use xlink:href="#rim" fill="#404040">
                        <set attributeName="fill" to="#808080" begin="arrowRight.mouseover" end="arrowRight.mouseout"/>
                  </use>
                  <path fill="none" stroke="white" stroke-width="1.5" d="M0,-3.0v7 M-2.5,-0.5L0,-3.0L2.5,-0.5"/>
                </g>
                <g id="arrowDown" xlink:href="#dirArrow" transform="rotate(180) translate(-30 -48)" onmousedown="handlePan(0,1)">
                  <use xlink:href="#rim" fill="#404040">
                        <set attributeName="fill" to="#808080" begin="arrowDown.mouseover" end="arrowDown.mouseout"/>
                  </use>
                  <path fill="none" stroke="white" stroke-width="1.5" d="M0,-3.0v7 M-2.5,-0.5L0,-3.0L2.5,-0.5"/>
                </g>
                <g id="arrowLeft" xlink:href="#dirArrow" transform="rotate(270) translate(-36 17)" onmousedown="handlePan(-1,0)">
                  <use xlink:href="#rim" fill="#404040">
                        <set attributeName="fill" to="#808080" begin="arrowLeft.mouseover" end="arrowLeft.mouseout"/>
                  </use>
                  <path fill="none" stroke="white" stroke-width="1.5" d="M0,-3.0v7 M-2.5,-0.5L0,-3.0L2.5,-0.5"/>
                </g>
        </g>
        <svg viewBox="0 0 15 15" width="100%" height="30px" preserveAspectRatio="xMaxYMin meet">
         <g id="arrow_out" transform="scale(0.3 0.3)">
          <a xlink:href="classprior__hessian_1_1AMHCopula_a5f5ab047fa0c58b93e7b8e072bc9c682_cgraph_org.svg" target="_base">
           <rect id="button" ry="5" rx="5" y="6" x="6" height="38" width="38"
                fill="#f2f5e9" fill-opacity="0.5" stroke="#606060" stroke-width="1.0"/>
           <path id="arrow"
             d="M 11.500037,31.436501 C 11.940474,20.09759 22.043105,11.32322 32.158766,21.979434 L 37.068811,17.246167 C 37.068811,17.246167 37.088388,32 37.088388,32 L 22.160133,31.978069 C 22.160133,31.978069 26.997745,27.140456 26.997745,27.140456 C 18.528582,18.264221 13.291696,25.230495 11.500037,31.436501 z"
             style="fill:#404040;"/>
          </a>
         </g>
        </svg>
</svg>
