<?xml version="1.0" encoding="UTF-8" standalone="no"?>
<!DOCTYPE svg PUBLIC "-//W3C//DTD SVG 1.1//EN"
 "http://www.w3.org/Graphics/SVG/1.1/DTD/svg11.dtd">
<!-- Generated by graphviz version 2.38.0 (20140413.2041)
 -->
<!-- Title: prior_hessian::CompositeDist::make_component_dist Pages: 1 -->
<svg width="329pt" height="131pt"
 viewBox="0.00 0.00 329.00 131.00" xmlns="http://www.w3.org/2000/svg" xmlns:xlink="http://www.w3.org/1999/xlink">
<g id="graph0" class="graph" transform="scale(1 1) rotate(0) translate(4 127)">
<title>prior_hessian::CompositeDist::make_component_dist</title>
<polygon fill="white" stroke="none" points="-4,4 -4,-127 325,-127 325,4 -4,4"/>
<!-- Node1 -->
<g id="node1" class="node"><title>Node1</title>
<polygon fill="#bfbfbf" stroke="black" points="0,-47.5 0,-75.5 130,-75.5 130,-47.5 0,-47.5"/>
<text text-anchor="start" x="8" y="-64.3" font-family="Helvetica,sans-Serif" font-size="9.00">prior_hessian::Composite</text>
<text text-anchor="middle" x="65" y="-54.3" font-family="Helvetica,sans-Serif" font-size="9.00">Dist::make_component_dist</text>
</g>
<!-- Node2 -->
<g id="node2" class="node"><title>Node2</title>
<g id="a_node2"><a xlink:href="classprior__hessian_1_1CompositeDist.html#a60f58ad66846c3e1ac4a5ab68f615ee4" target="_top" xlink:title="Construct from a variadic list of subclasses of UnivariateDist&#39;s or MulitvariateDist&#39;s. ">
<polygon fill="white" stroke="black" points="182.5,-94.5 182.5,-122.5 304.5,-122.5 304.5,-94.5 182.5,-94.5"/>
<text text-anchor="start" x="190.5" y="-111.3" font-family="Helvetica,sans-Serif" font-size="9.00">prior_hessian::Composite</text>
<text text-anchor="middle" x="243.5" y="-101.3" font-family="Helvetica,sans-Serif" font-size="9.00">Dist::CompositeDist</text>
</a>
</g>
</g>
<!-- Node1&#45;&gt;Node2 -->
<g id="edge1" class="edge"><title>Node1&#45;&gt;Node2</title>
<path fill="none" stroke="midnightblue" d="M128.892,-78.2475C148.86,-83.5647 170.72,-89.3859 189.886,-94.4894"/>
<polygon fill="midnightblue" stroke="midnightblue" points="129.52,-74.7927 118.956,-75.6015 127.718,-81.557 129.52,-74.7927"/>
</g>
<!-- Node3 -->
<g id="node3" class="node"><title>Node3</title>
<g id="a_node3"><a xlink:href="classprior__hessian_1_1CompositeDist.html#a752ffdacab596d293cb93f67efa43899" target="_top" xlink:title="Initialize of an empty rvalue tuple produces the empty state. ">
<polygon fill="white" stroke="black" points="182.5,-47.5 182.5,-75.5 304.5,-75.5 304.5,-47.5 182.5,-47.5"/>
<text text-anchor="start" x="190.5" y="-64.3" font-family="Helvetica,sans-Serif" font-size="9.00">prior_hessian::Composite</text>
<text text-anchor="middle" x="243.5" y="-54.3" font-family="Helvetica,sans-Serif" font-size="9.00">Dist::initialize</text>
</a>
</g>
</g>
<!-- Node1&#45;&gt;Node3 -->
<g id="edge2" class="edge"><title>Node1&#45;&gt;Node3</title>
<path fill="none" stroke="midnightblue" d="M140.338,-61.5C154.381,-61.5 168.905,-61.5 182.44,-61.5"/>
<polygon fill="midnightblue" stroke="midnightblue" points="140.22,-58.0001 130.22,-61.5 140.22,-65.0001 140.22,-58.0001"/>
</g>
<!-- Node4 -->
<g id="node4" class="node"><title>Node4</title>
<g id="a_node4"><a xlink:href="classprior__hessian_1_1CompositeDist.html#a203677b1eebcc71684aeb1776b8b343a" target="_top" xlink:title="prior_hessian::Composite\lDist::make_component_dist_tuple">
<polygon fill="white" stroke="black" points="166,-0.5 166,-28.5 321,-28.5 321,-0.5 166,-0.5"/>
<text text-anchor="start" x="174" y="-17.3" font-family="Helvetica,sans-Serif" font-size="9.00">prior_hessian::Composite</text>
<text text-anchor="middle" x="243.5" y="-7.3" font-family="Helvetica,sans-Serif" font-size="9.00">Dist::make_component_dist_tuple</text>
</a>
</g>
</g>
<!-- Node1&#45;&gt;Node4 -->
<g id="edge3" class="edge"><title>Node1&#45;&gt;Node4</title>
<path fill="none" stroke="midnightblue" d="M128.892,-44.7525C148.86,-39.4353 170.72,-33.6141 189.886,-28.5106"/>
<polygon fill="midnightblue" stroke="midnightblue" points="127.718,-41.443 118.956,-47.3985 129.52,-48.2073 127.718,-41.443"/>
</g>
</g>
</svg>
