<?xml version="1.0" encoding="UTF-8" standalone="no"?>
<!DOCTYPE svg PUBLIC "-//W3C//DTD SVG 1.1//EN"
 "http://www.w3.org/Graphics/SVG/1.1/DTD/svg11.dtd">
<!-- Generated by graphviz version 2.38.0 (20140413.2041)
 -->
<!-- Title: prior_hessian::MultivariateNormalDist::in_bounds Pages: 1 -->
<svg width="490pt" height="706pt"
 viewBox="0.00 0.00 490.00 705.69" xmlns="http://www.w3.org/2000/svg" xmlns:xlink="http://www.w3.org/1999/xlink">
<g id="graph0" class="graph" transform="scale(1 1) rotate(0) translate(4 701.689)">
<title>prior_hessian::MultivariateNormalDist::in_bounds</title>
<polygon fill="white" stroke="none" points="-4,4 -4,-701.689 486,-701.689 486,4 -4,4"/>
<!-- Node1 -->
<g id="node1" class="node"><title>Node1</title>
<polygon fill="#bfbfbf" stroke="black" points="0,-346.5 0,-374.5 125,-374.5 125,-346.5 0,-346.5"/>
<text text-anchor="start" x="8" y="-363.3" font-family="Helvetica,sans-Serif" font-size="9.00">prior_hessian::Multivariate</text>
<text text-anchor="middle" x="62.5" y="-353.3" font-family="Helvetica,sans-Serif" font-size="9.00">NormalDist::in_bounds</text>
</g>
<!-- Node2 -->
<g id="node2" class="node"><title>Node2</title>
<g id="a_node2"><a xlink:href="classprior__hessian_1_1MultivariateNormalDist.html#af202c613f03a8d07d9ab80ead9f4064b" target="_top" xlink:title="prior_hessian::Multivariate\lNormalDist::check_mu">
<polygon fill="white" stroke="black" points="357,-634.5 357,-662.5 482,-662.5 482,-634.5 357,-634.5"/>
<text text-anchor="start" x="365" y="-651.3" font-family="Helvetica,sans-Serif" font-size="9.00">prior_hessian::Multivariate</text>
<text text-anchor="middle" x="419.5" y="-641.3" font-family="Helvetica,sans-Serif" font-size="9.00">NormalDist::check_mu</text>
</a>
</g>
</g>
<!-- Node1&#45;&gt;Node2 -->
<g id="edge1" class="edge"><title>Node1&#45;&gt;Node2</title>
<path fill="none" stroke="midnightblue" d="M65.6966,-374.697C74.6853,-430.753 110.591,-635.439 161,-672.5 225.838,-720.169 326.113,-689.322 380.417,-666.537"/>
<polygon fill="midnightblue" stroke="midnightblue" points="381.889,-669.714 389.684,-662.539 379.116,-663.287 381.889,-669.714"/>
</g>
<!-- Node3 -->
<g id="node3" class="node"><title>Node3</title>
<g id="a_node3"><a xlink:href="classprior__hessian_1_1MultivariateNormalDist.html#a820f14758b3a02e29e0498e02fca7e07" target="_top" xlink:title="prior_hessian::Multivariate\lNormalDist::check_params">
<polygon fill="white" stroke="black" points="177.5,-587.5 177.5,-615.5 304.5,-615.5 304.5,-587.5 177.5,-587.5"/>
<text text-anchor="start" x="185.5" y="-604.3" font-family="Helvetica,sans-Serif" font-size="9.00">prior_hessian::Multivariate</text>
<text text-anchor="middle" x="241" y="-594.3" font-family="Helvetica,sans-Serif" font-size="9.00">NormalDist::check_params</text>
</a>
</g>
</g>
<!-- Node1&#45;&gt;Node3 -->
<g id="edge2" class="edge"><title>Node1&#45;&gt;Node3</title>
<path fill="none" stroke="midnightblue" d="M66.0784,-374.573C73.6712,-412.107 99.4007,-515.598 161,-572.5 165.159,-576.342 169.868,-579.685 174.867,-582.592"/>
<polygon fill="midnightblue" stroke="midnightblue" points="173.629,-585.892 184.12,-587.368 176.84,-579.671 173.629,-585.892"/>
</g>
<!-- Node4 -->
<g id="node4" class="node"><title>Node4</title>
<g id="a_node4"><a xlink:href="classprior__hessian_1_1MultivariateNormalDist.html#ad0117306c61bf5b4615d40113dc27c83" target="_top" xlink:title="prior_hessian::Multivariate\lNormalDist::check_sigma">
<polygon fill="white" stroke="black" points="357,-565.5 357,-593.5 482,-593.5 482,-565.5 357,-565.5"/>
<text text-anchor="start" x="365" y="-582.3" font-family="Helvetica,sans-Serif" font-size="9.00">prior_hessian::Multivariate</text>
<text text-anchor="middle" x="419.5" y="-572.3" font-family="Helvetica,sans-Serif" font-size="9.00">NormalDist::check_sigma</text>
</a>
</g>
</g>
<!-- Node1&#45;&gt;Node4 -->
<g id="edge5" class="edge"><title>Node1&#45;&gt;Node4</title>
<path fill="none" stroke="midnightblue" d="M66.6259,-374.515C75.1002,-408.959 101.957,-497.963 161,-539.5 190.152,-560.009 280.972,-570.425 346.501,-575.403"/>
<polygon fill="midnightblue" stroke="midnightblue" points="346.558,-578.916 356.787,-576.156 347.069,-571.935 346.558,-578.916"/>
</g>
<!-- Node5 -->
<g id="node5" class="node"><title>Node5</title>
<g id="a_node5"><a xlink:href="classprior__hessian_1_1MultivariateNormalDist.html#a492a872d5cfb8838225ac782b801a865" target="_top" xlink:title="prior_hessian::Multivariate\lNormalDist::lbound">
<polygon fill="white" stroke="black" points="178.5,-501.5 178.5,-529.5 303.5,-529.5 303.5,-501.5 178.5,-501.5"/>
<text text-anchor="start" x="186.5" y="-518.3" font-family="Helvetica,sans-Serif" font-size="9.00">prior_hessian::Multivariate</text>
<text text-anchor="middle" x="241" y="-508.3" font-family="Helvetica,sans-Serif" font-size="9.00">NormalDist::lbound</text>
</a>
</g>
</g>
<!-- Node1&#45;&gt;Node5 -->
<g id="edge6" class="edge"><title>Node1&#45;&gt;Node5</title>
<path fill="none" stroke="midnightblue" d="M70.9213,-374.708C85.0808,-400.512 118.375,-455.289 161,-486.5 166.544,-490.559 172.717,-494.106 179.102,-497.191"/>
<polygon fill="midnightblue" stroke="midnightblue" points="177.998,-500.531 188.558,-501.388 180.837,-494.132 177.998,-500.531"/>
</g>
<!-- Node6 -->
<g id="node6" class="node"><title>Node6</title>
<g id="a_node6"><a xlink:href="classprior__hessian_1_1MultivariateNormalDist.html#a53e894d82ca08f285fc004b77301495d" target="_top" xlink:title="prior_hessian::Multivariate\lNormalDist::mu">
<polygon fill="white" stroke="black" points="357,-415.5 357,-443.5 482,-443.5 482,-415.5 357,-415.5"/>
<text text-anchor="start" x="365" y="-432.3" font-family="Helvetica,sans-Serif" font-size="9.00">prior_hessian::Multivariate</text>
<text text-anchor="middle" x="419.5" y="-422.3" font-family="Helvetica,sans-Serif" font-size="9.00">NormalDist::mu</text>
</a>
</g>
</g>
<!-- Node1&#45;&gt;Node6 -->
<g id="edge7" class="edge"><title>Node1&#45;&gt;Node6</title>
<path fill="none" stroke="midnightblue" d="M72.8168,-374.634C88.1551,-396.456 121.042,-437.499 161,-453.5 230.113,-481.176 317.724,-462.931 370.875,-446.642"/>
<polygon fill="midnightblue" stroke="midnightblue" points="372.231,-449.884 380.709,-443.529 370.118,-443.21 372.231,-449.884"/>
</g>
<!-- Node7 -->
<g id="node7" class="node"><title>Node7</title>
<g id="a_node7"><a xlink:href="classprior__hessian_1_1MultivariateNormalDist.html#a9347495e045f105c79a13db3422c6391" target="_top" xlink:title="prior_hessian::Multivariate\lNormalDist::MultivariateNormalDist">
<polygon fill="white" stroke="black" points="161,-235.5 161,-263.5 321,-263.5 321,-235.5 161,-235.5"/>
<text text-anchor="start" x="169" y="-252.3" font-family="Helvetica,sans-Serif" font-size="9.00">prior_hessian::Multivariate</text>
<text text-anchor="middle" x="241" y="-242.3" font-family="Helvetica,sans-Serif" font-size="9.00">NormalDist::MultivariateNormalDist</text>
</a>
</g>
</g>
<!-- Node1&#45;&gt;Node7 -->
<g id="edge8" class="edge"><title>Node1&#45;&gt;Node7</title>
<path fill="none" stroke="midnightblue" d="M75.6221,-346.376C92.7829,-327.226 125.99,-293.164 161,-273.5 164.974,-271.268 169.179,-269.22 173.498,-267.345"/>
<polygon fill="midnightblue" stroke="midnightblue" points="175.099,-270.475 183.085,-263.513 172.5,-263.975 175.099,-270.475"/>
</g>
<!-- Node8 -->
<g id="node8" class="node"><title>Node8</title>
<g id="a_node8"><a xlink:href="classprior__hessian_1_1MultivariateNormalDist.html#a50243ac0981ffdd3e6bb3566e8b3afc0" target="_top" xlink:title="prior_hessian::Multivariate\lNormalDist::operator==">
<polygon fill="white" stroke="black" points="178.5,-415.5 178.5,-443.5 303.5,-443.5 303.5,-415.5 178.5,-415.5"/>
<text text-anchor="start" x="186.5" y="-432.3" font-family="Helvetica,sans-Serif" font-size="9.00">prior_hessian::Multivariate</text>
<text text-anchor="middle" x="241" y="-422.3" font-family="Helvetica,sans-Serif" font-size="9.00">NormalDist::operator==</text>
</a>
</g>
</g>
<!-- Node1&#45;&gt;Node8 -->
<g id="edge9" class="edge"><title>Node1&#45;&gt;Node8</title>
<path fill="none" stroke="midnightblue" d="M90.3209,-374.558C109.634,-384.331 136.496,-397.219 161,-406.5 166.391,-408.542 172.046,-410.512 177.748,-412.382"/>
<polygon fill="midnightblue" stroke="midnightblue" points="176.758,-415.74 187.349,-415.429 178.876,-409.067 176.758,-415.74"/>
</g>
<!-- Node9 -->
<g id="node9" class="node"><title>Node9</title>
<g id="a_node9"><a xlink:href="classprior__hessian_1_1MultivariateNormalDist.html#aa4e86dd2b8e088553aac8c6b0fa50832" target="_top" xlink:title="prior_hessian::Multivariate\lNormalDist::sigma">
<polygon fill="white" stroke="black" points="357,-368.5 357,-396.5 482,-396.5 482,-368.5 357,-368.5"/>
<text text-anchor="start" x="365" y="-385.3" font-family="Helvetica,sans-Serif" font-size="9.00">prior_hessian::Multivariate</text>
<text text-anchor="middle" x="419.5" y="-375.3" font-family="Helvetica,sans-Serif" font-size="9.00">NormalDist::sigma</text>
</a>
</g>
</g>
<!-- Node1&#45;&gt;Node9 -->
<g id="edge22" class="edge"><title>Node1&#45;&gt;Node9</title>
<path fill="none" stroke="midnightblue" d="M125.124,-356.141C177.434,-353.425 254.392,-351.75 321,-359.5 333.473,-360.951 346.665,-363.413 359.179,-366.201"/>
<polygon fill="midnightblue" stroke="midnightblue" points="358.511,-369.638 369.043,-368.493 360.095,-362.82 358.511,-369.638"/>
</g>
<!-- Node10 -->
<g id="node10" class="node"><title>Node10</title>
<g id="a_node10"><a xlink:href="classprior__hessian_1_1MultivariateNormalDist.html#a4d070bbd6455931c57ac1bb924f32777" target="_top" xlink:title="prior_hessian::Multivariate\lNormalDist::param_lbound">
<polygon fill="white" stroke="black" points="177.5,-188.5 177.5,-216.5 304.5,-216.5 304.5,-188.5 177.5,-188.5"/>
<text text-anchor="start" x="185.5" y="-205.3" font-family="Helvetica,sans-Serif" font-size="9.00">prior_hessian::Multivariate</text>
<text text-anchor="middle" x="241" y="-195.3" font-family="Helvetica,sans-Serif" font-size="9.00">NormalDist::param_lbound</text>
</a>
</g>
</g>
<!-- Node1&#45;&gt;Node10 -->
<g id="edge12" class="edge"><title>Node1&#45;&gt;Node10</title>
<path fill="none" stroke="midnightblue" d="M69.8837,-346.421C82.9786,-319.126 115.521,-258.856 161,-226.5 163.831,-224.486 166.833,-222.639 169.95,-220.944"/>
<polygon fill="midnightblue" stroke="midnightblue" points="171.517,-224.074 178.987,-216.561 168.462,-217.775 171.517,-224.074"/>
</g>
<!-- Node11 -->
<g id="node11" class="node"><title>Node11</title>
<g id="a_node11"><a xlink:href="classprior__hessian_1_1MultivariateNormalDist.html#ad9330423616166e7062b9c70c1d54358" target="_top" xlink:title="prior_hessian::Multivariate\lNormalDist::param_names">
<polygon fill="white" stroke="black" points="178,-141.5 178,-169.5 304,-169.5 304,-141.5 178,-141.5"/>
<text text-anchor="start" x="186" y="-158.3" font-family="Helvetica,sans-Serif" font-size="9.00">prior_hessian::Multivariate</text>
<text text-anchor="middle" x="241" y="-148.3" font-family="Helvetica,sans-Serif" font-size="9.00">NormalDist::param_names</text>
</a>
</g>
</g>
<!-- Node1&#45;&gt;Node11 -->
<g id="edge13" class="edge"><title>Node1&#45;&gt;Node11</title>
<path fill="none" stroke="midnightblue" d="M67.0964,-346.339C76.4739,-312.313 104.926,-225.387 161,-179.5 163.418,-177.521 165.997,-175.706 168.692,-174.039"/>
<polygon fill="midnightblue" stroke="midnightblue" points="170.501,-177.04 177.639,-169.211 167.176,-170.88 170.501,-177.04"/>
</g>
<!-- Node12 -->
<g id="node12" class="node"><title>Node12</title>
<g id="a_node12"><a xlink:href="classprior__hessian_1_1MultivariateNormalDist.html#aa0eeb70f83993bb6553b36d01aadec17" target="_top" xlink:title="prior_hessian::Multivariate\lNormalDist::param_ubound">
<polygon fill="white" stroke="black" points="176,-94.5 176,-122.5 306,-122.5 306,-94.5 176,-94.5"/>
<text text-anchor="start" x="184" y="-111.3" font-family="Helvetica,sans-Serif" font-size="9.00">prior_hessian::Multivariate</text>
<text text-anchor="middle" x="241" y="-101.3" font-family="Helvetica,sans-Serif" font-size="9.00">NormalDist::param_ubound</text>
</a>
</g>
</g>
<!-- Node1&#45;&gt;Node12 -->
<g id="edge14" class="edge"><title>Node1&#45;&gt;Node12</title>
<path fill="none" stroke="midnightblue" d="M65.3776,-346.339C71.4133,-306.519 94.0013,-192.557 161,-132.5 162.915,-130.784 164.949,-129.19 167.076,-127.711"/>
<polygon fill="midnightblue" stroke="midnightblue" points="168.911,-130.692 175.69,-122.55 165.313,-124.687 168.911,-130.692"/>
</g>
<!-- Node13 -->
<g id="node13" class="node"><title>Node13</title>
<g id="a_node13"><a xlink:href="classprior__hessian_1_1MultivariateNormalDist.html#a55a53ff4ea86375a8971a5334c000c9c" target="_top" xlink:title="prior_hessian::Multivariate\lNormalDist::params">
<polygon fill="white" stroke="black" points="178.5,-368.5 178.5,-396.5 303.5,-396.5 303.5,-368.5 178.5,-368.5"/>
<text text-anchor="start" x="186.5" y="-385.3" font-family="Helvetica,sans-Serif" font-size="9.00">prior_hessian::Multivariate</text>
<text text-anchor="middle" x="241" y="-375.3" font-family="Helvetica,sans-Serif" font-size="9.00">NormalDist::params</text>
</a>
</g>
</g>
<!-- Node1&#45;&gt;Node13 -->
<g id="edge15" class="edge"><title>Node1&#45;&gt;Node13</title>
<path fill="none" stroke="midnightblue" d="M125.231,-368.195C139.07,-369.919 153.868,-371.764 168.08,-373.536"/>
<polygon fill="midnightblue" stroke="midnightblue" points="167.948,-377.046 178.304,-374.81 168.813,-370.1 167.948,-377.046"/>
</g>
<!-- Node15 -->
<g id="node15" class="node"><title>Node15</title>
<g id="a_node15"><a xlink:href="classprior__hessian_1_1MultivariateNormalDist.html#a3a232f67a79457c91ce1c061a19d18bc" target="_top" xlink:title="prior_hessian::Multivariate\lNormalDist::set_mu">
<polygon fill="white" stroke="black" points="178.5,-634.5 178.5,-662.5 303.5,-662.5 303.5,-634.5 178.5,-634.5"/>
<text text-anchor="start" x="186.5" y="-651.3" font-family="Helvetica,sans-Serif" font-size="9.00">prior_hessian::Multivariate</text>
<text text-anchor="middle" x="241" y="-641.3" font-family="Helvetica,sans-Serif" font-size="9.00">NormalDist::set_mu</text>
</a>
</g>
</g>
<!-- Node1&#45;&gt;Node15 -->
<g id="edge19" class="edge"><title>Node1&#45;&gt;Node15</title>
<path fill="none" stroke="midnightblue" d="M64.3912,-374.698C67.9349,-418.756 84.8336,-554.433 161,-625.5 163.585,-627.912 166.409,-630.072 169.4,-632.008"/>
<polygon fill="midnightblue" stroke="midnightblue" points="167.775,-635.108 178.219,-636.887 171.163,-628.983 167.775,-635.108"/>
</g>
<!-- Node16 -->
<g id="node16" class="node"><title>Node16</title>
<g id="a_node16"><a xlink:href="classprior__hessian_1_1MultivariateNormalDist.html#aecd463f33fd68330ae245c2ad05e7b2f" target="_top" xlink:title="prior_hessian::Multivariate\lNormalDist::set_sigma">
<polygon fill="white" stroke="black" points="178.5,-47.5 178.5,-75.5 303.5,-75.5 303.5,-47.5 178.5,-47.5"/>
<text text-anchor="start" x="186.5" y="-64.3" font-family="Helvetica,sans-Serif" font-size="9.00">prior_hessian::Multivariate</text>
<text text-anchor="middle" x="241" y="-54.3" font-family="Helvetica,sans-Serif" font-size="9.00">NormalDist::set_sigma</text>
</a>
</g>
</g>
<!-- Node1&#45;&gt;Node16 -->
<g id="edge21" class="edge"><title>Node1&#45;&gt;Node16</title>
<path fill="none" stroke="midnightblue" d="M64.2033,-346.455C67.2201,-301.574 82.7972,-160.202 161,-85.5 163.565,-83.0495 166.373,-80.8484 169.352,-78.8716"/>
<polygon fill="midnightblue" stroke="midnightblue" points="171.181,-81.8582 178.144,-73.8729 167.721,-75.7731 171.181,-81.8582"/>
</g>
<!-- Node17 -->
<g id="node17" class="node"><title>Node17</title>
<g id="a_node17"><a xlink:href="classprior__hessian_1_1MultivariateNormalDist.html#a38fa22fd87e3603397c433e33ce0c2be" target="_top" xlink:title="prior_hessian::Multivariate\lNormalDist::sigma_inv">
<polygon fill="white" stroke="black" points="178.5,-0.5 178.5,-28.5 303.5,-28.5 303.5,-0.5 178.5,-0.5"/>
<text text-anchor="start" x="186.5" y="-17.3" font-family="Helvetica,sans-Serif" font-size="9.00">prior_hessian::Multivariate</text>
<text text-anchor="middle" x="241" y="-7.3" font-family="Helvetica,sans-Serif" font-size="9.00">NormalDist::sigma_inv</text>
</a>
</g>
</g>
<!-- Node1&#45;&gt;Node17 -->
<g id="edge23" class="edge"><title>Node1&#45;&gt;Node17</title>
<path fill="none" stroke="midnightblue" d="M63.3639,-346.257C63.6855,-296.405 71.6231,-127.959 161,-38.5 163.56,-35.9379 166.384,-33.6478 169.395,-31.601"/>
<polygon fill="midnightblue" stroke="midnightblue" points="171.402,-34.4837 178.312,-26.4526 167.902,-28.4215 171.402,-34.4837"/>
</g>
<!-- Node18 -->
<g id="node18" class="node"><title>Node18</title>
<g id="a_node18"><a xlink:href="classprior__hessian_1_1MultivariateNormalDist.html#a80a35218c42430f7a5162229779f1492" target="_top" xlink:title="prior_hessian::Multivariate\lNormalDist::ubound">
<polygon fill="white" stroke="black" points="178.5,-282.5 178.5,-310.5 303.5,-310.5 303.5,-282.5 178.5,-282.5"/>
<text text-anchor="start" x="186.5" y="-299.3" font-family="Helvetica,sans-Serif" font-size="9.00">prior_hessian::Multivariate</text>
<text text-anchor="middle" x="241" y="-289.3" font-family="Helvetica,sans-Serif" font-size="9.00">NormalDist::ubound</text>
</a>
</g>
</g>
<!-- Node1&#45;&gt;Node18 -->
<g id="edge24" class="edge"><title>Node1&#45;&gt;Node18</title>
<path fill="none" stroke="midnightblue" d="M102.234,-346.455C128.558,-336.91 163.573,-324.213 191.715,-314.009"/>
<polygon fill="midnightblue" stroke="midnightblue" points="193.149,-317.212 201.357,-310.512 190.763,-310.631 193.149,-317.212"/>
</g>
<!-- Node3&#45;&gt;Node2 -->
<g id="edge3" class="edge"><title>Node3&#45;&gt;Node2</title>
<path fill="none" stroke="midnightblue" d="M294.956,-615.602C314.153,-620.714 336.018,-626.536 355.963,-631.847"/>
<polygon fill="midnightblue" stroke="midnightblue" points="355.322,-635.298 365.886,-634.489 357.123,-628.534 355.322,-635.298"/>
</g>
<!-- Node3&#45;&gt;Node4 -->
<g id="edge4" class="edge"><title>Node3&#45;&gt;Node4</title>
<path fill="none" stroke="midnightblue" d="M304.724,-593.682C318.358,-591.982 332.882,-590.172 346.832,-588.433"/>
<polygon fill="midnightblue" stroke="midnightblue" points="347.377,-591.892 356.868,-587.182 346.511,-584.946 347.377,-591.892"/>
</g>
<!-- Node8&#45;&gt;Node6 -->
<g id="edge10" class="edge"><title>Node8&#45;&gt;Node6</title>
<path fill="none" stroke="midnightblue" d="M303.731,-429.5C317.57,-429.5 332.368,-429.5 346.58,-429.5"/>
<polygon fill="midnightblue" stroke="midnightblue" points="346.804,-433 356.804,-429.5 346.804,-426 346.804,-433"/>
</g>
<!-- Node8&#45;&gt;Node9 -->
<g id="edge11" class="edge"><title>Node8&#45;&gt;Node9</title>
<path fill="none" stroke="midnightblue" d="M294.956,-415.398C314.153,-410.286 336.018,-404.464 355.963,-399.153"/>
<polygon fill="midnightblue" stroke="midnightblue" points="357.123,-402.466 365.886,-396.511 355.322,-395.702 357.123,-402.466"/>
</g>
<!-- Node13&#45;&gt;Node6 -->
<g id="edge16" class="edge"><title>Node13&#45;&gt;Node6</title>
<path fill="none" stroke="midnightblue" d="M294.956,-396.602C314.153,-401.714 336.018,-407.536 355.963,-412.847"/>
<polygon fill="midnightblue" stroke="midnightblue" points="355.322,-416.298 365.886,-415.489 357.123,-409.534 355.322,-416.298"/>
</g>
<!-- Node13&#45;&gt;Node9 -->
<g id="edge18" class="edge"><title>Node13&#45;&gt;Node9</title>
<path fill="none" stroke="midnightblue" d="M303.731,-382.5C317.57,-382.5 332.368,-382.5 346.58,-382.5"/>
<polygon fill="midnightblue" stroke="midnightblue" points="346.804,-386 356.804,-382.5 346.804,-379 346.804,-386"/>
</g>
<!-- Node14 -->
<g id="node14" class="node"><title>Node14</title>
<g id="a_node14"><a xlink:href="classprior__hessian_1_1MultivariateNormalDist.html#a9a2d3e50448adb594ed60a92d2942943" target="_top" xlink:title="prior_hessian::Multivariate\lNormalDist::num_params">
<polygon fill="white" stroke="black" points="357,-302.5 357,-330.5 482,-330.5 482,-302.5 357,-302.5"/>
<text text-anchor="start" x="365" y="-319.3" font-family="Helvetica,sans-Serif" font-size="9.00">prior_hessian::Multivariate</text>
<text text-anchor="middle" x="419.5" y="-309.3" font-family="Helvetica,sans-Serif" font-size="9.00">NormalDist::num_params</text>
</a>
</g>
</g>
<!-- Node13&#45;&gt;Node14 -->
<g id="edge17" class="edge"><title>Node13&#45;&gt;Node14</title>
<path fill="none" stroke="midnightblue" d="M279.864,-368.341C306.71,-358.302 342.912,-344.765 371.59,-334.042"/>
<polygon fill="midnightblue" stroke="midnightblue" points="372.862,-337.303 381.002,-330.522 370.41,-330.746 372.862,-337.303"/>
</g>
<!-- Node15&#45;&gt;Node2 -->
<g id="edge20" class="edge"><title>Node15&#45;&gt;Node2</title>
<path fill="none" stroke="midnightblue" d="M303.731,-648.5C317.57,-648.5 332.368,-648.5 346.58,-648.5"/>
<polygon fill="midnightblue" stroke="midnightblue" points="346.804,-652 356.804,-648.5 346.804,-645 346.804,-652"/>
</g>
<!-- Node18&#45;&gt;Node14 -->
<g id="edge25" class="edge"><title>Node18&#45;&gt;Node14</title>
<path fill="none" stroke="midnightblue" d="M303.731,-303.495C317.57,-305.063 332.368,-306.74 346.58,-308.35"/>
<polygon fill="midnightblue" stroke="midnightblue" points="346.473,-311.861 356.804,-309.509 347.261,-304.905 346.473,-311.861"/>
</g>
</g>
</svg>
