<?xml version="1.0" encoding="UTF-8" standalone="no"?>
<!DOCTYPE svg PUBLIC "-//W3C//DTD SVG 1.1//EN"
 "http://www.w3.org/Graphics/SVG/1.1/DTD/svg11.dtd">
<!-- Generated by graphviz version 2.38.0 (20140413.2041)
 -->
<!-- Title: prior_hessian::CompositeDist::ComponentDistAdaptor&lt; Dist, meta::EnableIfSubclassT&lt; Dist, UnivariateDist &gt; &gt;::grad_grad2_accumulate_idx Pages: 1 -->
<svg width="327pt" height="67pt"
 viewBox="0.00 0.00 327.00 67.00" xmlns="http://www.w3.org/2000/svg" xmlns:xlink="http://www.w3.org/1999/xlink">
<g id="graph0" class="graph" transform="scale(1 1) rotate(0) translate(4 63)">
<title>prior_hessian::CompositeDist::ComponentDistAdaptor&lt; Dist, meta::EnableIfSubclassT&lt; Dist, UnivariateDist &gt; &gt;::grad_grad2_accumulate_idx</title>
<polygon fill="white" stroke="none" points="-4,4 -4,-63 323,-63 323,4 -4,4"/>
<!-- Node1 -->
<g id="node1" class="node"><title>Node1</title>
<polygon fill="#bfbfbf" stroke="black" points="0,-0.5 0,-58.5 146,-58.5 146,-0.5 0,-0.5"/>
<text text-anchor="start" x="8" y="-47.3" font-family="Helvetica,sans-Serif" font-size="9.00">prior_hessian::Composite</text>
<text text-anchor="start" x="8" y="-37.3" font-family="Helvetica,sans-Serif" font-size="9.00">Dist::ComponentDistAdaptor</text>
<text text-anchor="start" x="8" y="-27.3" font-family="Helvetica,sans-Serif" font-size="9.00">&lt; Dist, meta::EnableIfSubclassT</text>
<text text-anchor="start" x="8" y="-17.3" font-family="Helvetica,sans-Serif" font-size="9.00">&lt; Dist, UnivariateDist &gt; &gt;::grad</text>
<text text-anchor="middle" x="73" y="-7.3" font-family="Helvetica,sans-Serif" font-size="9.00">_grad2_accumulate_idx</text>
</g>
<!-- Node2 -->
<g id="node2" class="node"><title>Node2</title>
<g id="a_node2"><a xlink:href="classprior__hessian_1_1CompositeDist.html#a33df256e69cfe0b95fdc15ded7f94945" target="_top" xlink:title="prior_hessian::Composite\lDist::grad_grad2_accumulate">
<polygon fill="white" stroke="black" points="182,-15.5 182,-43.5 319,-43.5 319,-15.5 182,-15.5"/>
<text text-anchor="start" x="190" y="-32.3" font-family="Helvetica,sans-Serif" font-size="9.00">prior_hessian::Composite</text>
<text text-anchor="middle" x="250.5" y="-22.3" font-family="Helvetica,sans-Serif" font-size="9.00">Dist::grad_grad2_accumulate</text>
</a>
</g>
</g>
<!-- Node1&#45;&gt;Node2 -->
<g id="edge1" class="edge"><title>Node1&#45;&gt;Node2</title>
<path fill="none" stroke="midnightblue" d="M146.142,-29.5C154.544,-29.5 163.143,-29.5 171.617,-29.5"/>
<polygon fill="midnightblue" stroke="midnightblue" points="171.871,-33.0001 181.871,-29.5 171.871,-26.0001 171.871,-33.0001"/>
</g>
</g>
</svg>
