<?xml version="1.0" encoding="UTF-8" standalone="no"?>
<!DOCTYPE svg PUBLIC "-//W3C//DTD SVG 1.1//EN"
 "http://www.w3.org/Graphics/SVG/1.1/DTD/svg11.dtd">
<!-- Generated by graphviz version 2.38.0 (20140413.2041)
 -->
<!-- Title: prior_hessian::NormalDist::NormalDist Pages: 1 -->
<svg width="449pt" height="84pt"
 viewBox="0.00 0.00 449.00 84.00" xmlns="http://www.w3.org/2000/svg" xmlns:xlink="http://www.w3.org/1999/xlink">
<g id="graph0" class="graph" transform="scale(1 1) rotate(0) translate(4 80)">
<title>prior_hessian::NormalDist::NormalDist</title>
<polygon fill="white" stroke="none" points="-4,4 -4,-80 445,-80 445,4 -4,4"/>
<!-- Node1 -->
<g id="node1" class="node"><title>Node1</title>
<polygon fill="#bfbfbf" stroke="black" points="0,-23.5 0,-51.5 123,-51.5 123,-23.5 0,-23.5"/>
<text text-anchor="start" x="8" y="-40.3" font-family="Helvetica,sans-Serif" font-size="9.00">prior_hessian::NormalDist</text>
<text text-anchor="middle" x="61.5" y="-30.3" font-family="Helvetica,sans-Serif" font-size="9.00">::NormalDist</text>
</g>
<!-- Node2 -->
<g id="node2" class="node"><title>Node2</title>
<g id="a_node2"><a xlink:href="classprior__hessian_1_1NormalDist.html#a352979a2485cd990786ae53db6d64123" target="_top" xlink:title="prior_hessian::NormalDist\l::set_params">
<polygon fill="white" stroke="black" points="159,-23.5 159,-51.5 282,-51.5 282,-23.5 159,-23.5"/>
<text text-anchor="start" x="167" y="-40.3" font-family="Helvetica,sans-Serif" font-size="9.00">prior_hessian::NormalDist</text>
<text text-anchor="middle" x="220.5" y="-30.3" font-family="Helvetica,sans-Serif" font-size="9.00">::set_params</text>
</a>
</g>
</g>
<!-- Node1&#45;&gt;Node2 -->
<g id="edge1" class="edge"><title>Node1&#45;&gt;Node2</title>
<path fill="none" stroke="midnightblue" d="M123.2,-37.5C131.635,-37.5 140.359,-37.5 148.955,-37.5"/>
<polygon fill="midnightblue" stroke="midnightblue" points="148.961,-41.0001 158.961,-37.5 148.961,-34.0001 148.961,-41.0001"/>
</g>
<!-- Node3 -->
<g id="node3" class="node"><title>Node3</title>
<g id="a_node3"><a xlink:href="classprior__hessian_1_1NormalDist.html#a078a35e8ded3164ca701e1a1b6918f39" target="_top" xlink:title="prior_hessian::NormalDist\l::set_mu">
<polygon fill="white" stroke="black" points="318,-47.5 318,-75.5 441,-75.5 441,-47.5 318,-47.5"/>
<text text-anchor="start" x="326" y="-64.3" font-family="Helvetica,sans-Serif" font-size="9.00">prior_hessian::NormalDist</text>
<text text-anchor="middle" x="379.5" y="-54.3" font-family="Helvetica,sans-Serif" font-size="9.00">::set_mu</text>
</a>
</g>
</g>
<!-- Node2&#45;&gt;Node3 -->
<g id="edge2" class="edge"><title>Node2&#45;&gt;Node3</title>
<path fill="none" stroke="midnightblue" d="M282.2,-46.779C290.635,-48.0684 299.359,-49.402 307.955,-50.716"/>
<polygon fill="midnightblue" stroke="midnightblue" points="307.547,-54.1943 317.961,-52.2457 308.605,-47.2746 307.547,-54.1943"/>
</g>
<!-- Node4 -->
<g id="node4" class="node"><title>Node4</title>
<g id="a_node4"><a xlink:href="classprior__hessian_1_1NormalDist.html#aa72eaaeda9a2fe0475ee78f08359d096" target="_top" xlink:title="prior_hessian::NormalDist\l::set_sigma">
<polygon fill="white" stroke="black" points="318,-0.5 318,-28.5 441,-28.5 441,-0.5 318,-0.5"/>
<text text-anchor="start" x="326" y="-17.3" font-family="Helvetica,sans-Serif" font-size="9.00">prior_hessian::NormalDist</text>
<text text-anchor="middle" x="379.5" y="-7.3" font-family="Helvetica,sans-Serif" font-size="9.00">::set_sigma</text>
</a>
</g>
</g>
<!-- Node2&#45;&gt;Node4 -->
<g id="edge3" class="edge"><title>Node2&#45;&gt;Node4</title>
<path fill="none" stroke="midnightblue" d="M282.2,-28.6076C290.635,-27.3719 299.359,-26.0939 307.955,-24.8347"/>
<polygon fill="midnightblue" stroke="midnightblue" points="308.574,-28.2814 317.961,-23.3688 307.559,-21.3553 308.574,-28.2814"/>
</g>
</g>
</svg>
