<?xml version="1.0" encoding="UTF-8" standalone="no"?>
<!DOCTYPE svg PUBLIC "-//W3C//DTD SVG 1.1//EN"
 "http://www.w3.org/Graphics/SVG/1.1/DTD/svg11.dtd">
<!-- Generated by graphviz version 2.38.0 (20140413.2041)
 -->
<!-- Title: prior_hessian::NormalDist::param_ubound Pages: 1 -->
<svg width="466pt" height="144pt"
 viewBox="0.00 0.00 466.00 144.00" xmlns="http://www.w3.org/2000/svg" xmlns:xlink="http://www.w3.org/1999/xlink">
<g id="graph0" class="graph" transform="scale(1 1) rotate(0) translate(4 140)">
<title>prior_hessian::NormalDist::param_ubound</title>
<polygon fill="white" stroke="none" points="-4,4 -4,-140 462,-140 462,4 -4,4"/>
<!-- Node1 -->
<g id="node1" class="node"><title>Node1</title>
<polygon fill="#bfbfbf" stroke="black" points="0,-65.5 0,-93.5 123,-93.5 123,-65.5 0,-65.5"/>
<text text-anchor="start" x="8" y="-82.3" font-family="Helvetica,sans-Serif" font-size="9.00">prior_hessian::NormalDist</text>
<text text-anchor="middle" x="61.5" y="-72.3" font-family="Helvetica,sans-Serif" font-size="9.00">::param_ubound</text>
</g>
<!-- Node2 -->
<g id="node2" class="node"><title>Node2</title>
<g id="a_node2"><a xlink:href="classprior__hessian_1_1NormalDist.html#ab774425212fe4eaeacf31930d65596f6" target="_top" xlink:title="prior_hessian::NormalDist\l::check_params">
<polygon fill="white" stroke="black" points="167.5,-107.5 167.5,-135.5 290.5,-135.5 290.5,-107.5 167.5,-107.5"/>
<text text-anchor="start" x="175.5" y="-124.3" font-family="Helvetica,sans-Serif" font-size="9.00">prior_hessian::NormalDist</text>
<text text-anchor="middle" x="229" y="-114.3" font-family="Helvetica,sans-Serif" font-size="9.00">::check_params</text>
</a>
</g>
</g>
<!-- Node1&#45;&gt;Node2 -->
<g id="edge1" class="edge"><title>Node1&#45;&gt;Node2</title>
<path fill="none" stroke="midnightblue" d="M118.07,-93.6022C132.337,-97.223 147.818,-101.152 162.535,-104.886"/>
<polygon fill="midnightblue" stroke="midnightblue" points="162.023,-108.368 172.577,-107.435 163.745,-101.583 162.023,-108.368"/>
</g>
<!-- Node3 -->
<g id="node3" class="node"><title>Node3</title>
<g id="a_node3"><a xlink:href="classprior__hessian_1_1NormalDist.html#a33b6cc4357406f8d0dd017fc1088e1bc" target="_top" xlink:title="prior_hessian::NormalDist::mu">
<polygon fill="white" stroke="black" points="159,-70.5 159,-88.5 299,-88.5 299,-70.5 159,-70.5"/>
<text text-anchor="middle" x="229" y="-77.3" font-family="Helvetica,sans-Serif" font-size="9.00">prior_hessian::NormalDist::mu</text>
</a>
</g>
</g>
<!-- Node1&#45;&gt;Node3 -->
<g id="edge2" class="edge"><title>Node1&#45;&gt;Node3</title>
<path fill="none" stroke="midnightblue" d="M123.186,-79.5C131.541,-79.5 140.219,-79.5 148.846,-79.5"/>
<polygon fill="midnightblue" stroke="midnightblue" points="148.925,-83.0001 158.925,-79.5 148.925,-76.0001 148.925,-83.0001"/>
</g>
<!-- Node4 -->
<g id="node4" class="node"><title>Node4</title>
<g id="a_node4"><a xlink:href="classprior__hessian_1_1NormalDist.html#adfc5ab11dc02672d9ef08eda487f97a7" target="_top" xlink:title="prior_hessian::NormalDist\l::sigma">
<polygon fill="white" stroke="black" points="167.5,-23.5 167.5,-51.5 290.5,-51.5 290.5,-23.5 167.5,-23.5"/>
<text text-anchor="start" x="175.5" y="-40.3" font-family="Helvetica,sans-Serif" font-size="9.00">prior_hessian::NormalDist</text>
<text text-anchor="middle" x="229" y="-30.3" font-family="Helvetica,sans-Serif" font-size="9.00">::sigma</text>
</a>
</g>
</g>
<!-- Node1&#45;&gt;Node4 -->
<g id="edge3" class="edge"><title>Node1&#45;&gt;Node4</title>
<path fill="none" stroke="midnightblue" d="M118.07,-65.3978C132.337,-61.777 147.818,-57.8484 162.535,-54.1135"/>
<polygon fill="midnightblue" stroke="midnightblue" points="163.745,-57.4173 172.577,-51.565 162.023,-50.6324 163.745,-57.4173"/>
</g>
<!-- Node5 -->
<g id="node5" class="node"><title>Node5</title>
<g id="a_node5"><a xlink:href="classprior__hessian_1_1NormalDist.html#a078a35e8ded3164ca701e1a1b6918f39" target="_top" xlink:title="prior_hessian::NormalDist\l::set_mu">
<polygon fill="white" stroke="black" points="335,-47.5 335,-75.5 458,-75.5 458,-47.5 335,-47.5"/>
<text text-anchor="start" x="343" y="-64.3" font-family="Helvetica,sans-Serif" font-size="9.00">prior_hessian::NormalDist</text>
<text text-anchor="middle" x="396.5" y="-54.3" font-family="Helvetica,sans-Serif" font-size="9.00">::set_mu</text>
</a>
</g>
</g>
<!-- Node4&#45;&gt;Node5 -->
<g id="edge4" class="edge"><title>Node4&#45;&gt;Node5</title>
<path fill="none" stroke="midnightblue" d="M290.686,-46.3004C301.817,-47.9146 313.523,-49.6121 324.914,-51.2639"/>
<polygon fill="midnightblue" stroke="midnightblue" points="324.422,-54.7292 334.821,-52.7006 325.427,-47.8016 324.422,-54.7292"/>
</g>
<!-- Node6 -->
<g id="node6" class="node"><title>Node6</title>
<g id="a_node6"><a xlink:href="classprior__hessian_1_1NormalDist.html#aa72eaaeda9a2fe0475ee78f08359d096" target="_top" xlink:title="prior_hessian::NormalDist\l::set_sigma">
<polygon fill="white" stroke="black" points="335,-0.5 335,-28.5 458,-28.5 458,-0.5 335,-0.5"/>
<text text-anchor="start" x="343" y="-17.3" font-family="Helvetica,sans-Serif" font-size="9.00">prior_hessian::NormalDist</text>
<text text-anchor="middle" x="396.5" y="-7.3" font-family="Helvetica,sans-Serif" font-size="9.00">::set_sigma</text>
</a>
</g>
</g>
<!-- Node4&#45;&gt;Node6 -->
<g id="edge5" class="edge"><title>Node4&#45;&gt;Node6</title>
<path fill="none" stroke="midnightblue" d="M290.686,-29.0662C301.817,-27.5194 313.523,-25.8926 324.914,-24.3096"/>
<polygon fill="midnightblue" stroke="midnightblue" points="325.398,-27.776 334.821,-22.9327 324.434,-20.8426 325.398,-27.776"/>
</g>
</g>
</svg>
