<?xml version="1.0" encoding="UTF-8" standalone="no"?>
<!DOCTYPE svg PUBLIC "-//W3C//DTD SVG 1.1//EN"
 "http://www.w3.org/Graphics/SVG/1.1/DTD/svg11.dtd">
<!-- Generated by graphviz version 2.38.0 (20140413.2041)
 -->
<!-- Title: prior_hessian::CompositeDist::num_dim_components Pages: 1 -->
<svg width="930pt" height="142pt"
 viewBox="0.00 0.00 930.00 141.50" xmlns="http://www.w3.org/2000/svg" xmlns:xlink="http://www.w3.org/1999/xlink">
<g id="graph0" class="graph" transform="scale(1 1) rotate(0) translate(4 137.5)">
<title>prior_hessian::CompositeDist::num_dim_components</title>
<polygon fill="white" stroke="none" points="-4,4 -4,-137.5 926,-137.5 926,4 -4,4"/>
<!-- Node1 -->
<g id="node1" class="node"><title>Node1</title>
<polygon fill="#bfbfbf" stroke="black" points="0,-10 0,-38 131,-38 131,-10 0,-10"/>
<text text-anchor="start" x="8" y="-26.8" font-family="Helvetica,sans-Serif" font-size="9.00">prior_hessian::Composite</text>
<text text-anchor="middle" x="65.5" y="-16.8" font-family="Helvetica,sans-Serif" font-size="9.00">Dist::num_dim_components</text>
</g>
<!-- Node2 -->
<g id="node2" class="node"><title>Node2</title>
<g id="a_node2"><a xlink:href="namespaceprior__hessian.html#ab26e9ddc3b6a5caccf5d75e1a1e1af1b" target="_top" xlink:title="prior_hessian::operator\&lt;\&lt;">
<polygon fill="white" stroke="black" points="167,-39 167,-57 289,-57 289,-39 167,-39"/>
<text text-anchor="middle" x="228" y="-45.8" font-family="Helvetica,sans-Serif" font-size="9.00">prior_hessian::operator&lt;&lt;</text>
</a>
</g>
</g>
<!-- Node1&#45;&gt;Node2 -->
<g id="edge1" class="edge"><title>Node1&#45;&gt;Node2</title>
<path fill="none" stroke="midnightblue" d="M141.314,-35.1871C149.881,-36.4682 158.531,-37.7616 166.871,-39.0087"/>
<polygon fill="midnightblue" stroke="midnightblue" points="141.727,-31.71 131.319,-33.6925 140.691,-38.633 141.727,-31.71"/>
</g>
<!-- Node6 -->
<g id="node6" class="node"><title>Node6</title>
<g id="a_node6"><a xlink:href="classprior__hessian_1_1CompositeDist.html#a24bac25ae8c0330b8a3aacadffc9d5ae" target="_top" xlink:title="prior_hessian::Composite\lDist::rllh_components">
<polygon fill="white" stroke="black" points="800,-24 800,-52 922,-52 922,-24 800,-24"/>
<text text-anchor="start" x="808" y="-40.8" font-family="Helvetica,sans-Serif" font-size="9.00">prior_hessian::Composite</text>
<text text-anchor="middle" x="861" y="-30.8" font-family="Helvetica,sans-Serif" font-size="9.00">Dist::rllh_components</text>
</a>
</g>
</g>
<!-- Node1&#45;&gt;Node6 -->
<g id="edge8" class="edge"><title>Node1&#45;&gt;Node6</title>
<path fill="none" stroke="midnightblue" d="M141.126,-15.1895C205.596,-8.34177 301.309,-0 385,-0 385,-0 385,-0 545,-0 634.236,-1.42109e-14 736.675,-15.2172 799.872,-26.3923"/>
<polygon fill="midnightblue" stroke="midnightblue" points="140.621,-11.7235 131.054,-16.2741 141.371,-18.6832 140.621,-11.7235"/>
</g>
<!-- Node3 -->
<g id="node3" class="node"><title>Node3</title>
<g id="a_node3"><a xlink:href="classprior__hessian_1_1CompositeDist.html#a38c4fdacf927824117d202422b04013c" target="_top" xlink:title="prior_hessian::Composite\lDist::set_param_names">
<polygon fill="white" stroke="black" points="325,-45 325,-73 447,-73 447,-45 325,-45"/>
<text text-anchor="start" x="333" y="-61.8" font-family="Helvetica,sans-Serif" font-size="9.00">prior_hessian::Composite</text>
<text text-anchor="middle" x="386" y="-51.8" font-family="Helvetica,sans-Serif" font-size="9.00">Dist::set_param_names</text>
</a>
</g>
</g>
<!-- Node2&#45;&gt;Node3 -->
<g id="edge2" class="edge"><title>Node2&#45;&gt;Node3</title>
<path fill="none" stroke="midnightblue" d="M299.538,-52.9738C307.99,-53.5698 316.56,-54.1741 324.847,-54.7584"/>
<polygon fill="midnightblue" stroke="midnightblue" points="299.535,-49.465 289.314,-52.2529 299.043,-56.4477 299.535,-49.465"/>
</g>
<!-- Node4 -->
<g id="node4" class="node"><title>Node4</title>
<g id="a_node4"><a xlink:href="classprior__hessian_1_1CompositeDist.html#ace0aaa3698d76aba6a47f9061ff98902" target="_top" xlink:title="prior_hessian::Composite\lDist::rename_param">
<polygon fill="white" stroke="black" points="483,-105 483,-133 605,-133 605,-105 483,-105"/>
<text text-anchor="start" x="491" y="-121.8" font-family="Helvetica,sans-Serif" font-size="9.00">prior_hessian::Composite</text>
<text text-anchor="middle" x="544" y="-111.8" font-family="Helvetica,sans-Serif" font-size="9.00">Dist::rename_param</text>
</a>
</g>
</g>
<!-- Node3&#45;&gt;Node4 -->
<g id="edge3" class="edge"><title>Node3&#45;&gt;Node4</title>
<path fill="none" stroke="midnightblue" d="M432.959,-76.6767C456.374,-85.6824 484.452,-96.4814 506.384,-104.917"/>
<polygon fill="midnightblue" stroke="midnightblue" points="434.165,-73.3905 423.575,-73.0673 431.652,-79.9239 434.165,-73.3905"/>
</g>
<!-- Node5 -->
<g id="node5" class="node"><title>Node5</title>
<g id="a_node5"><a xlink:href="classprior__hessian_1_1CompositeDist.html#a927fed39b2b4e87714c728d6e7b11e8b" target="_top" xlink:title="prior_hessian::Composite\lDist::params_components">
<polygon fill="white" stroke="black" points="641,-67 641,-95 764,-95 764,-67 641,-67"/>
<text text-anchor="start" x="649" y="-83.8" font-family="Helvetica,sans-Serif" font-size="9.00">prior_hessian::Composite</text>
<text text-anchor="middle" x="702.5" y="-73.8" font-family="Helvetica,sans-Serif" font-size="9.00">Dist::params_components</text>
</a>
</g>
</g>
<!-- Node3&#45;&gt;Node5 -->
<g id="edge6" class="edge"><title>Node3&#45;&gt;Node5</title>
<path fill="none" stroke="midnightblue" d="M457.312,-63.9185C512.461,-67.7763 588.415,-73.0895 640.902,-76.761"/>
<polygon fill="midnightblue" stroke="midnightblue" points="457.487,-60.4222 447.267,-63.2158 456.998,-67.4052 457.487,-60.4222"/>
</g>
<!-- Node3&#45;&gt;Node6 -->
<g id="edge7" class="edge"><title>Node3&#45;&gt;Node6</title>
<path fill="none" stroke="midnightblue" d="M457.546,-55.8679C550.542,-51.7391 712.558,-44.5461 799.973,-40.665"/>
<polygon fill="midnightblue" stroke="midnightblue" points="457.221,-52.3788 447.386,-56.319 457.532,-59.3719 457.221,-52.3788"/>
</g>
<!-- Node4&#45;&gt;Node5 -->
<g id="edge4" class="edge"><title>Node4&#45;&gt;Node5</title>
<path fill="none" stroke="midnightblue" d="M612.635,-102.577C622.967,-100.069 633.55,-97.499 643.646,-95.0475"/>
<polygon fill="midnightblue" stroke="midnightblue" points="611.722,-99.1974 602.83,-104.958 613.374,-106 611.722,-99.1974"/>
</g>
<!-- Node5&#45;&gt;Node6 -->
<g id="edge5" class="edge"><title>Node5&#45;&gt;Node6</title>
<path fill="none" stroke="midnightblue" d="M764.709,-64.1822C779.334,-60.1638 794.794,-55.916 808.908,-52.038"/>
<polygon fill="midnightblue" stroke="midnightblue" points="763.459,-60.8958 754.744,-66.9202 765.314,-67.6456 763.459,-60.8958"/>
</g>
</g>
</svg>
