<?xml version="1.0" encoding="UTF-8" standalone="no"?>
<!DOCTYPE svg PUBLIC "-//W3C//DTD SVG 1.1//EN"
 "http://www.w3.org/Graphics/SVG/1.1/DTD/svg11.dtd">
<!-- Generated by graphviz version 2.38.0 (20140413.2041)
 -->
<!-- Title: prior_hessian::MultivariateNormalDist::mu Pages: 1 -->
<!--zoomable 529 -->
<svg id="main" version="1.1" xmlns="http://www.w3.org/2000/svg" xmlns:xlink="http://www.w3.org/1999/xlink" xml:space="preserve" onload="init(evt)">
<style type="text/css"><![CDATA[
.edge:hover path { stroke: red; }
.edge:hover polygon { stroke: red; fill: red; }
]]></style>
<script type="text/javascript"><![CDATA[
var edges = document.getElementsByTagName('g');
if (edges && edges.length) {
  for (var i=0;i<edges.length;i++) {
    if (edges[i].id.substr(0,4)=='edge') {
      edges[i].setAttribute('class','edge');
    }
  }
}
]]></script>
        <defs>
                <circle id="rim" cx="0" cy="0" r="7"/>
                <circle id="rim2" cx="0" cy="0" r="3.5"/>
                <g id="zoomPlus">
                        <use xlink:href="#rim" fill="#404040">
                                <set attributeName="fill" to="#808080" begin="zoomplus.mouseover" end="zoomplus.mouseout"/>
                        </use>
                        <path d="M-4,0h8M0,-4v8" fill="none" stroke="white" stroke-width="1.5" pointer-events="none"/>
                </g>
                <g id="zoomMin">
                        <use xlink:href="#rim" fill="#404040">
                                <set attributeName="fill" to="#808080" begin="zoomminus.mouseover" end="zoomminus.mouseout"/>
                        </use>
                        <path d="M-4,0h8" fill="none" stroke="white" stroke-width="1.5" pointer-events="none"/>
                </g>
                <g id="dirArrow">
                        <path fill="none" stroke="white" stroke-width="1.5" d="M0,-3.0v7 M-2.5,-0.5L0,-3.0L2.5,-0.5"/>
                </g>
               <g id="resetDef">
                       <use xlink:href="#rim2" fill="#404040">
                               <set attributeName="fill" to="#808080" begin="reset.mouseover" end="reset.mouseout"/>
                       </use>
               </g>
        </defs>

<script type="text/javascript">
var viewWidth = 892;
var viewHeight = 529;
var sectionId = 'dynsection-32';
</script>
<script xlink:href="svgpan.js"/>
<svg id="graph" class="graph">
<g id="viewport">
<title>prior_hessian::MultivariateNormalDist::mu</title>
<polygon fill="white" stroke="none" points="-4,4 -4,-524.974 888,-524.974 888,4 -4,4"/>
<!-- Node1 -->
<g id="node1" class="node"><title>Node1</title>
<polygon fill="#bfbfbf" stroke="black" points="0,-243.5 0,-271.5 125,-271.5 125,-243.5 0,-243.5"/>
<text text-anchor="start" x="8" y="-260.3" font-family="Helvetica,sans-Serif" font-size="9.00">prior_hessian::Multivariate</text>
<text text-anchor="middle" x="62.5" y="-250.3" font-family="Helvetica,sans-Serif" font-size="9.00">NormalDist::mu</text>
</g>
<!-- Node2 -->
<g id="node2" class="node"><title>Node2</title>
<g id="a_node2"><a xlink:href="classprior__hessian_1_1MultivariateNormalDist.html#a41f15a93e291cc18bf28c1c0118efa6a" target="_top" xlink:title="prior_hessian::Multivariate\lNormalDist::cdf">
<polygon fill="white" stroke="black" points="579,-441.5 579,-469.5 704,-469.5 704,-441.5 579,-441.5"/>
<text text-anchor="start" x="587" y="-458.3" font-family="Helvetica,sans-Serif" font-size="9.00">prior_hessian::Multivariate</text>
<text text-anchor="middle" x="641.5" y="-448.3" font-family="Helvetica,sans-Serif" font-size="9.00">NormalDist::cdf</text>
</a>
</g>
</g>
<!-- Node1&#45;&gt;Node2 -->
<g id="edge1" class="edge"><title>Node1&#45;&gt;Node2</title>
<path fill="none" stroke="midnightblue" d="M72.1059,-280.922C85.5906,-314.064 115.012,-373.898 161,-403.5 290.553,-486.891 481.584,-477.271 578.791,-465.263"/>
<polygon fill="midnightblue" stroke="midnightblue" points="75.3423,-279.588 68.432,-271.557 68.8257,-282.144 75.3423,-279.588"/>
</g>
<!-- Node3 -->
<g id="node3" class="node"><title>Node3</title>
<g id="a_node3"><a xlink:href="classprior__hessian_1_1MultivariateNormalDist.html#afdec8e6a453a2c69e0d84833d6b3e5ae" target="_top" xlink:title="prior_hessian::Multivariate\lNormalDist::mode">
<polygon fill="white" stroke="black" points="759,-308.5 759,-336.5 884,-336.5 884,-308.5 759,-308.5"/>
<text text-anchor="start" x="767" y="-325.3" font-family="Helvetica,sans-Serif" font-size="9.00">prior_hessian::Multivariate</text>
<text text-anchor="middle" x="821.5" y="-315.3" font-family="Helvetica,sans-Serif" font-size="9.00">NormalDist::mode</text>
</a>
</g>
</g>
<!-- Node1&#45;&gt;Node3 -->
<g id="edge11" class="edge"><title>Node1&#45;&gt;Node3</title>
<path fill="none" stroke="midnightblue" d="M68.7561,-281.339C79.0082,-321.891 105.685,-403.937 161,-445.5 232.008,-498.854 268.609,-475.791 357,-484.5 518.898,-500.451 581.829,-560.346 723,-479.5 778.964,-447.45 807.153,-368.943 816.682,-336.688"/>
<polygon fill="midnightblue" stroke="midnightblue" points="72.1357,-280.423 66.3924,-271.52 65.3301,-282.062 72.1357,-280.423"/>
</g>
<!-- Node4 -->
<g id="node4" class="node"><title>Node4</title>
<g id="a_node4"><a xlink:href="classprior__hessian_1_1MultivariateNormalDist.html#a300193a7fac39d098eafd7b4fef86d05" target="_top" xlink:title="prior_hessian::Multivariate\lNormalDist::grad">
<polygon fill="white" stroke="black" points="579,-394.5 579,-422.5 704,-422.5 704,-394.5 579,-394.5"/>
<text text-anchor="start" x="587" y="-411.3" font-family="Helvetica,sans-Serif" font-size="9.00">prior_hessian::Multivariate</text>
<text text-anchor="middle" x="641.5" y="-401.3" font-family="Helvetica,sans-Serif" font-size="9.00">NormalDist::grad</text>
</a>
</g>
</g>
<!-- Node1&#45;&gt;Node4 -->
<g id="edge3" class="edge"><title>Node1&#45;&gt;Node4</title>
<path fill="none" stroke="midnightblue" d="M76.9571,-280.332C93.3224,-305.808 123.468,-346.001 161,-365.5 296.728,-436.014 483.433,-427.688 578.876,-417.206"/>
<polygon fill="midnightblue" stroke="midnightblue" points="79.8229,-278.313 71.5631,-271.678 73.8823,-282.016 79.8229,-278.313"/>
</g>
<!-- Node5 -->
<g id="node5" class="node"><title>Node5</title>
<g id="a_node5"><a xlink:href="classprior__hessian_1_1MultivariateNormalDist.html#ae51a2d1024d5048d0631929092b26cc7" target="_top" xlink:title="prior_hessian::Multivariate\lNormalDist::grad_grad2_accumulate">
<polygon fill="white" stroke="black" points="357,-351.5 357,-379.5 524,-379.5 524,-351.5 357,-351.5"/>
<text text-anchor="start" x="365" y="-368.3" font-family="Helvetica,sans-Serif" font-size="9.00">prior_hessian::Multivariate</text>
<text text-anchor="middle" x="440.5" y="-358.3" font-family="Helvetica,sans-Serif" font-size="9.00">NormalDist::grad_grad2_accumulate</text>
</a>
</g>
</g>
<!-- Node1&#45;&gt;Node5 -->
<g id="edge5" class="edge"><title>Node1&#45;&gt;Node5</title>
<path fill="none" stroke="midnightblue" d="M82.8363,-279.021C101.013,-297.689 129.999,-323.671 161,-336.5 223.324,-362.291 299.9,-368.643 356.972,-369.053"/>
<polygon fill="midnightblue" stroke="midnightblue" points="85.1533,-276.377 75.7337,-271.527 80.0729,-281.193 85.1533,-276.377"/>
</g>
<!-- Node6 -->
<g id="node6" class="node"><title>Node6</title>
<g id="a_node6"><a xlink:href="classprior__hessian_1_1MultivariateNormalDist.html#a8cd22c12a8c039623589cc947aba25f0" target="_top" xlink:title="prior_hessian::Multivariate\lNormalDist::grad_hess_accumulate">
<polygon fill="white" stroke="black" points="560,-308.5 560,-336.5 723,-336.5 723,-308.5 560,-308.5"/>
<text text-anchor="start" x="568" y="-325.3" font-family="Helvetica,sans-Serif" font-size="9.00">prior_hessian::Multivariate</text>
<text text-anchor="middle" x="641.5" y="-315.3" font-family="Helvetica,sans-Serif" font-size="9.00">NormalDist::grad_hess_accumulate</text>
</a>
</g>
</g>
<!-- Node1&#45;&gt;Node6 -->
<g id="edge7" class="edge"><title>Node1&#45;&gt;Node6</title>
<path fill="none" stroke="midnightblue" d="M95.4051,-276.554C113.885,-286.55 137.984,-297.862 161,-303.5 297.957,-337.047 463.408,-334.541 559.813,-328.99"/>
<polygon fill="midnightblue" stroke="midnightblue" points="96.9929,-273.432 86.5517,-271.634 93.5928,-279.551 96.9929,-273.432"/>
</g>
<!-- Node7 -->
<g id="node7" class="node"><title>Node7</title>
<g id="a_node7"><a xlink:href="classprior__hessian_1_1MultivariateNormalDist.html#aedb257f189a46f8b1ee36a1b344648c3" target="_top" xlink:title="prior_hessian::Multivariate\lNormalDist::in_bounds">
<polygon fill="white" stroke="black" points="378,-128.5 378,-156.5 503,-156.5 503,-128.5 378,-128.5"/>
<text text-anchor="start" x="386" y="-145.3" font-family="Helvetica,sans-Serif" font-size="9.00">prior_hessian::Multivariate</text>
<text text-anchor="middle" x="440.5" y="-135.3" font-family="Helvetica,sans-Serif" font-size="9.00">NormalDist::in_bounds</text>
</a>
</g>
</g>
<!-- Node1&#45;&gt;Node7 -->
<g id="edge9" class="edge"><title>Node1&#45;&gt;Node7</title>
<path fill="none" stroke="midnightblue" d="M98.7899,-238.83C116.971,-229.83 139.737,-219.497 161,-212.5 229.97,-189.805 251.12,-199.214 321,-179.5 337.372,-174.881 340.825,-171.767 357,-166.5 367.354,-163.128 378.511,-159.728 389.172,-156.589"/>
<polygon fill="midnightblue" stroke="midnightblue" points="97.0903,-235.767 89.7324,-243.39 100.238,-242.019 97.0903,-235.767"/>
</g>
<!-- Node8 -->
<g id="node8" class="node"><title>Node8</title>
<g id="a_node8"><a xlink:href="classprior__hessian_1_1MultivariateNormalDist.html#af6e3b749b02b2afafadb01d76f96e334" target="_top" xlink:title="prior_hessian::Multivariate\lNormalDist::mean">
<polygon fill="white" stroke="black" points="178.5,-47.5 178.5,-75.5 303.5,-75.5 303.5,-47.5 178.5,-47.5"/>
<text text-anchor="start" x="186.5" y="-64.3" font-family="Helvetica,sans-Serif" font-size="9.00">prior_hessian::Multivariate</text>
<text text-anchor="middle" x="241" y="-54.3" font-family="Helvetica,sans-Serif" font-size="9.00">NormalDist::mean</text>
</a>
</g>
</g>
<!-- Node1&#45;&gt;Node8 -->
<g id="edge10" class="edge"><title>Node1&#45;&gt;Node8</title>
<path fill="none" stroke="midnightblue" d="M70.6531,-233.537C82.9816,-196.344 111.766,-124.91 161,-85.5 166.148,-81.3795 171.996,-77.9649 178.127,-75.1355"/>
<polygon fill="midnightblue" stroke="midnightblue" points="67.3186,-232.473 67.6088,-243.064 73.9865,-234.604 67.3186,-232.473"/>
</g>
<!-- Node9 -->
<g id="node9" class="node"><title>Node9</title>
<g id="a_node9"><a xlink:href="classprior__hessian_1_1MultivariateNormalDist.html#ab97d0301af152e72c9e6f6d3672d30e0" target="_top" xlink:title="prior_hessian::Multivariate\lNormalDist::MultivariateNormalDist">
<polygon fill="white" stroke="black" points="161,-0.5 161,-28.5 321,-28.5 321,-0.5 161,-0.5"/>
<text text-anchor="start" x="169" y="-17.3" font-family="Helvetica,sans-Serif" font-size="9.00">prior_hessian::Multivariate</text>
<text text-anchor="middle" x="241" y="-7.3" font-family="Helvetica,sans-Serif" font-size="9.00">NormalDist::MultivariateNormalDist</text>
</a>
</g>
</g>
<!-- Node1&#45;&gt;Node9 -->
<g id="edge12" class="edge"><title>Node1&#45;&gt;Node9</title>
<path fill="none" stroke="midnightblue" d="M67.4831,-233.309C76.1689,-188.293 101.058,-91.4392 161,-38.5 165.405,-34.6096 170.425,-31.3498 175.751,-28.6183"/>
<polygon fill="midnightblue" stroke="midnightblue" points="64.006,-232.868 65.6545,-243.333 70.8923,-234.124 64.006,-232.868"/>
</g>
<!-- Node10 -->
<g id="node10" class="node"><title>Node10</title>
<g id="a_node10"><a xlink:href="classprior__hessian_1_1MultivariateNormalDist.html#a50243ac0981ffdd3e6bb3566e8b3afc0" target="_top" xlink:title="prior_hessian::Multivariate\lNormalDist::operator==">
<polygon fill="white" stroke="black" points="178.5,-141.5 178.5,-169.5 303.5,-169.5 303.5,-141.5 178.5,-141.5"/>
<text text-anchor="start" x="186.5" y="-158.3" font-family="Helvetica,sans-Serif" font-size="9.00">prior_hessian::Multivariate</text>
<text text-anchor="middle" x="241" y="-148.3" font-family="Helvetica,sans-Serif" font-size="9.00">NormalDist::operator==</text>
</a>
</g>
</g>
<!-- Node1&#45;&gt;Node10 -->
<g id="edge13" class="edge"><title>Node1&#45;&gt;Node10</title>
<path fill="none" stroke="midnightblue" d="M87.211,-236.633C106.171,-220.743 133.964,-199.173 161,-184.5 171.53,-178.785 183.419,-173.756 194.717,-169.56"/>
<polygon fill="midnightblue" stroke="midnightblue" points="84.7542,-234.128 79.4053,-243.273 89.2899,-239.459 84.7542,-234.128"/>
</g>
<!-- Node12 -->
<g id="node12" class="node"><title>Node12</title>
<g id="a_node12"><a xlink:href="classprior__hessian_1_1MultivariateNormalDist.html#a55a53ff4ea86375a8971a5334c000c9c" target="_top" xlink:title="prior_hessian::Multivariate\lNormalDist::params">
<polygon fill="white" stroke="black" points="178.5,-94.5 178.5,-122.5 303.5,-122.5 303.5,-94.5 178.5,-94.5"/>
<text text-anchor="start" x="186.5" y="-111.3" font-family="Helvetica,sans-Serif" font-size="9.00">prior_hessian::Multivariate</text>
<text text-anchor="middle" x="241" y="-101.3" font-family="Helvetica,sans-Serif" font-size="9.00">NormalDist::params</text>
</a>
</g>
</g>
<!-- Node1&#45;&gt;Node12 -->
<g id="edge16" class="edge"><title>Node1&#45;&gt;Node12</title>
<path fill="none" stroke="midnightblue" d="M75.817,-234.048C91.7839,-205.883 122.234,-159.116 161,-132.5 166.672,-128.606 172.995,-125.328 179.524,-122.572"/>
<polygon fill="midnightblue" stroke="midnightblue" points="72.5499,-232.725 70.7835,-243.171 78.6789,-236.106 72.5499,-232.725"/>
</g>
<!-- Node13 -->
<g id="node13" class="node"><title>Node13</title>
<g id="a_node13"><a xlink:href="classprior__hessian_1_1MultivariateNormalDist.html#a4512a641c493e33dfb93b5087e473c76" target="_top" xlink:title="prior_hessian::Multivariate\lNormalDist::rllh">
<polygon fill="white" stroke="black" points="178.5,-265.5 178.5,-293.5 303.5,-293.5 303.5,-265.5 178.5,-265.5"/>
<text text-anchor="start" x="186.5" y="-282.3" font-family="Helvetica,sans-Serif" font-size="9.00">prior_hessian::Multivariate</text>
<text text-anchor="middle" x="241" y="-272.3" font-family="Helvetica,sans-Serif" font-size="9.00">NormalDist::rllh</text>
</a>
</g>
</g>
<!-- Node1&#45;&gt;Node13 -->
<g id="edge19" class="edge"><title>Node1&#45;&gt;Node13</title>
<path fill="none" stroke="midnightblue" d="M135.455,-266.469C149.669,-268.241 164.466,-270.085 178.304,-271.81"/>
<polygon fill="midnightblue" stroke="midnightblue" points="135.587,-262.958 125.231,-265.195 134.721,-269.905 135.587,-262.958"/>
</g>
<!-- Node16 -->
<g id="node16" class="node"><title>Node16</title>
<g id="a_node16"><a xlink:href="classprior__hessian_1_1MultivariateNormalDist.html#ad17199c0b81608efff2d1e28714992e8" target="_top" xlink:title="prior_hessian::Multivariate\lNormalDist::sample">
<polygon fill="white" stroke="black" points="378,-175.5 378,-203.5 503,-203.5 503,-175.5 378,-175.5"/>
<text text-anchor="start" x="386" y="-192.3" font-family="Helvetica,sans-Serif" font-size="9.00">prior_hessian::Multivariate</text>
<text text-anchor="middle" x="440.5" y="-182.3" font-family="Helvetica,sans-Serif" font-size="9.00">NormalDist::sample</text>
</a>
</g>
</g>
<!-- Node1&#45;&gt;Node16 -->
<g id="edge25" class="edge"><title>Node1&#45;&gt;Node16</title>
<path fill="none" stroke="midnightblue" d="M135.279,-245.326C186.968,-236.469 258.344,-224.054 321,-212.5 339.445,-209.099 359.477,-205.264 377.732,-201.715"/>
<polygon fill="midnightblue" stroke="midnightblue" points="134.478,-241.912 125.212,-247.049 135.659,-248.812 134.478,-241.912"/>
</g>
<!-- Node2&#45;&gt;Node3 -->
<g id="edge2" class="edge"><title>Node2&#45;&gt;Node3</title>
<path fill="none" stroke="midnightblue" d="M713.643,-437.694C716.881,-436.104 720.019,-434.377 723,-432.5 763.383,-407.073 796.793,-360.099 811.87,-336.624"/>
<polygon fill="midnightblue" stroke="midnightblue" points="712.032,-434.579 704.297,-441.819 714.859,-440.983 712.032,-434.579"/>
</g>
<!-- Node4&#45;&gt;Node3 -->
<g id="edge4" class="edge"><title>Node4&#45;&gt;Node3</title>
<path fill="none" stroke="midnightblue" d="M695.644,-390.92C704.884,-387.421 714.311,-383.563 723,-379.5 750.175,-366.793 779.694,-348.914 799.048,-336.585"/>
<polygon fill="midnightblue" stroke="midnightblue" points="694.295,-387.687 686.121,-394.429 696.715,-394.255 694.295,-387.687"/>
</g>
<!-- Node5&#45;&gt;Node3 -->
<g id="edge6" class="edge"><title>Node5&#45;&gt;Node3</title>
<path fill="none" stroke="midnightblue" d="M534.236,-363.296C589.344,-360.98 660.463,-356.232 723,-346.5 738.675,-344.061 755.526,-340.323 770.736,-336.518"/>
<polygon fill="midnightblue" stroke="midnightblue" points="533.99,-359.803 524.138,-363.701 534.27,-366.797 533.99,-359.803"/>
</g>
<!-- Node6&#45;&gt;Node3 -->
<g id="edge8" class="edge"><title>Node6&#45;&gt;Node3</title>
<path fill="none" stroke="midnightblue" d="M733.285,-322.5C741.912,-322.5 750.517,-322.5 758.775,-322.5"/>
<polygon fill="midnightblue" stroke="midnightblue" points="733.167,-319 723.167,-322.5 733.167,-326 733.167,-319"/>
</g>
<!-- Node10&#45;&gt;Node7 -->
<g id="edge14" class="edge"><title>Node10&#45;&gt;Node7</title>
<path fill="none" stroke="midnightblue" d="M313.836,-150.772C334.854,-149.388 357.632,-147.889 377.95,-146.551"/>
<polygon fill="midnightblue" stroke="midnightblue" points="313.426,-147.291 303.678,-151.44 313.886,-154.276 313.426,-147.291"/>
</g>
<!-- Node11 -->
<g id="node11" class="node"><title>Node11</title>
<g id="a_node11"><a xlink:href="classprior__hessian_1_1MultivariateNormalDist.html#a5bdf1c751f8da8a9043542ed080bb230" target="_top" xlink:title="prior_hessian::Multivariate\lNormalDist::operator!=">
<polygon fill="white" stroke="black" points="378,-81.5 378,-109.5 503,-109.5 503,-81.5 378,-81.5"/>
<text text-anchor="start" x="386" y="-98.3" font-family="Helvetica,sans-Serif" font-size="9.00">prior_hessian::Multivariate</text>
<text text-anchor="middle" x="440.5" y="-88.3" font-family="Helvetica,sans-Serif" font-size="9.00">NormalDist::operator!=</text>
</a>
</g>
</g>
<!-- Node10&#45;&gt;Node11 -->
<g id="edge15" class="edge"><title>Node10&#45;&gt;Node11</title>
<path fill="none" stroke="midnightblue" d="M301.498,-138.616C308.097,-136.614 314.703,-134.551 321,-132.5 337.175,-127.231 340.825,-124.767 357,-119.5 367.354,-116.128 378.511,-112.728 389.172,-109.589"/>
<polygon fill="midnightblue" stroke="midnightblue" points="300.45,-135.277 291.875,-141.499 302.458,-141.982 300.45,-135.277"/>
</g>
<!-- Node12&#45;&gt;Node7 -->
<g id="edge17" class="edge"><title>Node12&#45;&gt;Node7</title>
<path fill="none" stroke="midnightblue" d="M313.549,-120.817C334.646,-124.449 357.54,-128.39 377.95,-131.904"/>
<polygon fill="midnightblue" stroke="midnightblue" points="314.127,-117.365 303.678,-119.118 312.939,-124.264 314.127,-117.365"/>
</g>
<!-- Node12&#45;&gt;Node11 -->
<g id="edge18" class="edge"><title>Node12&#45;&gt;Node11</title>
<path fill="none" stroke="midnightblue" d="M313.836,-103.772C334.854,-102.388 357.632,-100.889 377.95,-99.5514"/>
<polygon fill="midnightblue" stroke="midnightblue" points="313.426,-100.291 303.678,-104.44 313.886,-107.276 313.426,-100.291"/>
</g>
<!-- Node13&#45;&gt;Node3 -->
<g id="edge20" class="edge"><title>Node13&#45;&gt;Node3</title>
<path fill="none" stroke="midnightblue" d="M313.84,-278.247C408.191,-277.569 578.799,-279.677 723,-299.5 738.162,-301.584 754.421,-304.953 769.232,-308.478"/>
<polygon fill="midnightblue" stroke="midnightblue" points="313.805,-274.747 303.835,-278.332 313.864,-281.747 313.805,-274.747"/>
</g>
<!-- Node14 -->
<g id="node14" class="node"><title>Node14</title>
<g id="a_node14"><a xlink:href="classprior__hessian_1_1MultivariateNormalDist.html#a3540b1bcafd58fe26de858c0a4aef3db" target="_top" xlink:title="prior_hessian::Multivariate\lNormalDist::llh">
<polygon fill="white" stroke="black" points="378,-222.5 378,-250.5 503,-250.5 503,-222.5 378,-222.5"/>
<text text-anchor="start" x="386" y="-239.3" font-family="Helvetica,sans-Serif" font-size="9.00">prior_hessian::Multivariate</text>
<text text-anchor="middle" x="440.5" y="-229.3" font-family="Helvetica,sans-Serif" font-size="9.00">NormalDist::llh</text>
</a>
</g>
</g>
<!-- Node13&#45;&gt;Node14 -->
<g id="edge21" class="edge"><title>Node13&#45;&gt;Node14</title>
<path fill="none" stroke="midnightblue" d="M313.549,-263.922C334.646,-259.329 357.54,-254.344 377.95,-249.901"/>
<polygon fill="midnightblue" stroke="midnightblue" points="312.704,-260.524 303.678,-266.071 314.194,-267.364 312.704,-260.524"/>
</g>
<!-- Node14&#45;&gt;Node3 -->
<g id="edge22" class="edge"><title>Node14&#45;&gt;Node3</title>
<path fill="none" stroke="midnightblue" d="M511.947,-220.528C527.679,-217.605 544.342,-215.005 560,-213.5 632.112,-206.566 656.867,-183.926 723,-213.5 767.037,-233.193 799.414,-283.696 813.181,-308.428"/>
<polygon fill="midnightblue" stroke="midnightblue" points="510.921,-217.161 501.762,-222.488 512.243,-224.035 510.921,-217.161"/>
</g>
<!-- Node15 -->
<g id="node15" class="node"><title>Node15</title>
<g id="a_node15"><a xlink:href="classprior__hessian_1_1MultivariateNormalDist.html#a67cba536341528564330b17dcbe5faff" target="_top" xlink:title="prior_hessian::Multivariate\lNormalDist::pdf">
<polygon fill="white" stroke="black" points="579,-222.5 579,-250.5 704,-250.5 704,-222.5 579,-222.5"/>
<text text-anchor="start" x="587" y="-239.3" font-family="Helvetica,sans-Serif" font-size="9.00">prior_hessian::Multivariate</text>
<text text-anchor="middle" x="641.5" y="-229.3" font-family="Helvetica,sans-Serif" font-size="9.00">NormalDist::pdf</text>
</a>
</g>
</g>
<!-- Node14&#45;&gt;Node15 -->
<g id="edge23" class="edge"><title>Node14&#45;&gt;Node15</title>
<path fill="none" stroke="midnightblue" d="M513.158,-236.5C534.661,-236.5 558.05,-236.5 578.846,-236.5"/>
<polygon fill="midnightblue" stroke="midnightblue" points="513.102,-233 503.102,-236.5 513.102,-240 513.102,-233"/>
</g>
<!-- Node15&#45;&gt;Node3 -->
<g id="edge24" class="edge"><title>Node15&#45;&gt;Node3</title>
<path fill="none" stroke="midnightblue" d="M695.644,-254.08C704.884,-257.579 714.311,-261.437 723,-265.5 750.175,-278.207 779.694,-296.086 799.048,-308.415"/>
<polygon fill="midnightblue" stroke="midnightblue" points="696.715,-250.745 686.121,-250.571 694.295,-257.313 696.715,-250.745"/>
</g>
<!-- Node16&#45;&gt;Node3 -->
<g id="edge26" class="edge"><title>Node16&#45;&gt;Node3</title>
<path fill="none" stroke="midnightblue" d="M513.159,-174.251C572.648,-165.329 657.768,-161.463 723,-194.5 771.596,-219.112 802.73,-280.497 814.808,-308.353"/>
<polygon fill="midnightblue" stroke="midnightblue" points="512.431,-170.823 503.101,-175.844 513.526,-177.737 512.431,-170.823"/>
</g>
</g>
</svg>
        <g id="navigator" transform="translate(0 0)" fill="#404254">
                <rect fill="#f2f5e9" fill-opacity="0.5" stroke="#606060" stroke-width=".5" x="0" y="0" width="60" height="60"/>
                <use id="zoomplus" xlink:href="#zoomPlus" x="17" y="9" onmousedown="handleZoom(evt,'in')"/>
                <use id="zoomminus" xlink:href="#zoomMin" x="42" y="9" onmousedown="handleZoom(evt,'out')"/>
                <use id="reset" xlink:href="#resetDef" x="30" y="36" onmousedown="handleReset()"/>
                <g id="arrowUp" xlink:href="#dirArrow" transform="translate(30 24)" onmousedown="handlePan(0,-1)">
                  <use xlink:href="#rim" fill="#404040">
                        <set attributeName="fill" to="#808080" begin="arrowUp.mouseover" end="arrowUp.mouseout"/>
                  </use>
                  <path fill="none" stroke="white" stroke-width="1.5" d="M0,-3.0v7 M-2.5,-0.5L0,-3.0L2.5,-0.5"/>
                </g>
                <g id="arrowRight" xlink:href="#dirArrow" transform="rotate(90) translate(36 -43)" onmousedown="handlePan(1,0)">
                  <use xlink:href="#rim" fill="#404040">
                        <set attributeName="fill" to="#808080" begin="arrowRight.mouseover" end="arrowRight.mouseout"/>
                  </use>
                  <path fill="none" stroke="white" stroke-width="1.5" d="M0,-3.0v7 M-2.5,-0.5L0,-3.0L2.5,-0.5"/>
                </g>
                <g id="arrowDown" xlink:href="#dirArrow" transform="rotate(180) translate(-30 -48)" onmousedown="handlePan(0,1)">
                  <use xlink:href="#rim" fill="#404040">
                        <set attributeName="fill" to="#808080" begin="arrowDown.mouseover" end="arrowDown.mouseout"/>
                  </use>
                  <path fill="none" stroke="white" stroke-width="1.5" d="M0,-3.0v7 M-2.5,-0.5L0,-3.0L2.5,-0.5"/>
                </g>
                <g id="arrowLeft" xlink:href="#dirArrow" transform="rotate(270) translate(-36 17)" onmousedown="handlePan(-1,0)">
                  <use xlink:href="#rim" fill="#404040">
                        <set attributeName="fill" to="#808080" begin="arrowLeft.mouseover" end="arrowLeft.mouseout"/>
                  </use>
                  <path fill="none" stroke="white" stroke-width="1.5" d="M0,-3.0v7 M-2.5,-0.5L0,-3.0L2.5,-0.5"/>
                </g>
        </g>
        <svg viewBox="0 0 15 15" width="100%" height="30px" preserveAspectRatio="xMaxYMin meet">
         <g id="arrow_out" transform="scale(0.3 0.3)">
          <a xlink:href="classprior__hessian_1_1MultivariateNormalDist_a53e894d82ca08f285fc004b77301495d_icgraph_org.svg" target="_base">
           <rect id="button" ry="5" rx="5" y="6" x="6" height="38" width="38"
                fill="#f2f5e9" fill-opacity="0.5" stroke="#606060" stroke-width="1.0"/>
           <path id="arrow"
             d="M 11.500037,31.436501 C 11.940474,20.09759 22.043105,11.32322 32.158766,21.979434 L 37.068811,17.246167 C 37.068811,17.246167 37.088388,32 37.088388,32 L 22.160133,31.978069 C 22.160133,31.978069 26.997745,27.140456 26.997745,27.140456 C 18.528582,18.264221 13.291696,25.230495 11.500037,31.436501 z"
             style="fill:#404040;"/>
          </a>
         </g>
        </svg>
</svg>
