<?xml version="1.0" encoding="UTF-8" standalone="no"?>
<!DOCTYPE svg PUBLIC "-//W3C//DTD SVG 1.1//EN"
 "http://www.w3.org/Graphics/SVG/1.1/DTD/svg11.dtd">
<!-- Generated by graphviz version 2.38.0 (20140413.2041)
 -->
<!-- Title: prior_hessian::CompositeDist::param_names Pages: 1 -->
<svg width="952pt" height="324pt"
 viewBox="0.00 0.00 952.00 323.50" xmlns="http://www.w3.org/2000/svg" xmlns:xlink="http://www.w3.org/1999/xlink">
<g id="graph0" class="graph" transform="scale(1 1) rotate(0) translate(4 319.5)">
<title>prior_hessian::CompositeDist::param_names</title>
<polygon fill="white" stroke="none" points="-4,4 -4,-319.5 948,-319.5 948,4 -4,4"/>
<!-- Node1 -->
<g id="node1" class="node"><title>Node1</title>
<polygon fill="#bfbfbf" stroke="black" points="0,-100 0,-128 122,-128 122,-100 0,-100"/>
<text text-anchor="start" x="8" y="-116.8" font-family="Helvetica,sans-Serif" font-size="9.00">prior_hessian::Composite</text>
<text text-anchor="middle" x="61" y="-106.8" font-family="Helvetica,sans-Serif" font-size="9.00">Dist::param_names</text>
</g>
<!-- Node2 -->
<g id="node2" class="node"><title>Node2</title>
<g id="a_node2"><a xlink:href="classprior__hessian_1_1CompositeDist_1_1ComponentDistAdaptor_3_01Dist_00_01meta_1_1EnableIfSubclc6c9bd83bba546a81e521c87ad7ee6d3.html#a75bbad1826eb579d89540607f59f3919" target="_top" xlink:title="prior_hessian::Composite\lDist::ComponentDistAdaptor\l\&lt; Dist, meta::EnableIfSubclassT\l\&lt; Dist, UnivariateDist \&gt; \&gt;::append\l_param_names">
<polygon fill="white" stroke="black" points="158,-257 158,-315 311,-315 311,-257 158,-257"/>
<text text-anchor="start" x="166" y="-303.8" font-family="Helvetica,sans-Serif" font-size="9.00">prior_hessian::Composite</text>
<text text-anchor="start" x="166" y="-293.8" font-family="Helvetica,sans-Serif" font-size="9.00">Dist::ComponentDistAdaptor</text>
<text text-anchor="start" x="166" y="-283.8" font-family="Helvetica,sans-Serif" font-size="9.00">&lt; Dist, meta::EnableIfSubclassT</text>
<text text-anchor="start" x="166" y="-273.8" font-family="Helvetica,sans-Serif" font-size="9.00">&lt; Dist, UnivariateDist &gt; &gt;::append</text>
<text text-anchor="middle" x="234.5" y="-263.8" font-family="Helvetica,sans-Serif" font-size="9.00">_param_names</text>
</a>
</g>
</g>
<!-- Node1&#45;&gt;Node2 -->
<g id="edge1" class="edge"><title>Node1&#45;&gt;Node2</title>
<path fill="none" stroke="midnightblue" d="M74.0051,-137.225C89.9419,-166.223 120.489,-215.907 158,-248 161.68,-251.148 165.665,-254.116 169.816,-256.898"/>
<polygon fill="midnightblue" stroke="midnightblue" points="76.9914,-135.389 69.1717,-128.24 70.8267,-138.705 76.9914,-135.389"/>
</g>
<!-- Node3 -->
<g id="node3" class="node"><title>Node3</title>
<g id="a_node3"><a xlink:href="classprior__hessian_1_1CompositeDist_1_1ComponentDistAdaptor_3_01Dist_00_01meta_1_1EnableIfSubcld67d34d533dbae21b9dad35557546eec.html#a500e09e7f9b4431f7db471bf075cdce2" target="_top" xlink:title="prior_hessian::Composite\lDist::ComponentDistAdaptor\l\&lt; Dist, meta::EnableIfSubclassT\l\&lt; Dist, MultivariateDist \&gt; \&gt;\l::append_param_names">
<polygon fill="white" stroke="black" points="161.5,-180 161.5,-238 307.5,-238 307.5,-180 161.5,-180"/>
<text text-anchor="start" x="169.5" y="-226.8" font-family="Helvetica,sans-Serif" font-size="9.00">prior_hessian::Composite</text>
<text text-anchor="start" x="169.5" y="-216.8" font-family="Helvetica,sans-Serif" font-size="9.00">Dist::ComponentDistAdaptor</text>
<text text-anchor="start" x="169.5" y="-206.8" font-family="Helvetica,sans-Serif" font-size="9.00">&lt; Dist, meta::EnableIfSubclassT</text>
<text text-anchor="start" x="169.5" y="-196.8" font-family="Helvetica,sans-Serif" font-size="9.00">&lt; Dist, MultivariateDist &gt; &gt;</text>
<text text-anchor="middle" x="234.5" y="-186.8" font-family="Helvetica,sans-Serif" font-size="9.00">::append_param_names</text>
</a>
</g>
</g>
<!-- Node1&#45;&gt;Node3 -->
<g id="edge2" class="edge"><title>Node1&#45;&gt;Node3</title>
<path fill="none" stroke="midnightblue" d="M93.2861,-133.323C111.899,-144.63 136.085,-158.998 158,-171 163.406,-173.96 169.07,-176.972 174.762,-179.939"/>
<polygon fill="midnightblue" stroke="midnightblue" points="94.9901,-130.262 84.6307,-128.041 91.344,-136.238 94.9901,-130.262"/>
</g>
<!-- Node4 -->
<g id="node4" class="node"><title>Node4</title>
<g id="a_node4"><a xlink:href="namespaceprior__hessian.html#ab26e9ddc3b6a5caccf5d75e1a1e1af1b" target="_top" xlink:title="prior_hessian::operator\&lt;\&lt;">
<polygon fill="white" stroke="black" points="173.5,-143 173.5,-161 295.5,-161 295.5,-143 173.5,-143"/>
<text text-anchor="middle" x="234.5" y="-149.8" font-family="Helvetica,sans-Serif" font-size="9.00">prior_hessian::operator&lt;&lt;</text>
</a>
</g>
</g>
<!-- Node1&#45;&gt;Node4 -->
<g id="edge3" class="edge"><title>Node1&#45;&gt;Node4</title>
<path fill="none" stroke="midnightblue" d="M132.409,-129.601C152.909,-134.143 174.618,-138.953 192.642,-142.947"/>
<polygon fill="midnightblue" stroke="midnightblue" points="132.985,-126.144 122.464,-127.397 131.471,-132.978 132.985,-126.144"/>
</g>
<!-- Node5 -->
<g id="node5" class="node"><title>Node5</title>
<g id="a_node5"><a xlink:href="classprior__hessian_1_1CompositeDist.html#a38c4fdacf927824117d202422b04013c" target="_top" xlink:title="prior_hessian::Composite\lDist::set_param_names">
<polygon fill="white" stroke="black" points="347,-110 347,-138 469,-138 469,-110 347,-110"/>
<text text-anchor="start" x="355" y="-126.8" font-family="Helvetica,sans-Serif" font-size="9.00">prior_hessian::Composite</text>
<text text-anchor="middle" x="408" y="-116.8" font-family="Helvetica,sans-Serif" font-size="9.00">Dist::set_param_names</text>
</a>
</g>
</g>
<!-- Node1&#45;&gt;Node5 -->
<g id="edge13" class="edge"><title>Node1&#45;&gt;Node5</title>
<path fill="none" stroke="midnightblue" d="M132.352,-116.039C195.417,-117.867 286.955,-120.52 346.727,-122.253"/>
<polygon fill="midnightblue" stroke="midnightblue" points="132.192,-112.533 122.094,-115.742 131.989,-119.53 132.192,-112.533"/>
</g>
<!-- Node6 -->
<g id="node6" class="node"><title>Node6</title>
<g id="a_node6"><a xlink:href="classprior__hessian_1_1CompositeDist.html#ace0aaa3698d76aba6a47f9061ff98902" target="_top" xlink:title="prior_hessian::Composite\lDist::rename_param">
<polygon fill="white" stroke="black" points="505,-67 505,-95 627,-95 627,-67 505,-67"/>
<text text-anchor="start" x="513" y="-83.8" font-family="Helvetica,sans-Serif" font-size="9.00">prior_hessian::Composite</text>
<text text-anchor="middle" x="566" y="-73.8" font-family="Helvetica,sans-Serif" font-size="9.00">Dist::rename_param</text>
</a>
</g>
</g>
<!-- Node1&#45;&gt;Node6 -->
<g id="edge11" class="edge"><title>Node1&#45;&gt;Node6</title>
<path fill="none" stroke="midnightblue" d="M132.41,-109.381C231.734,-102.864 411.277,-91.0852 504.757,-84.9523"/>
<polygon fill="midnightblue" stroke="midnightblue" points="131.923,-105.905 122.174,-110.052 132.382,-112.89 131.923,-105.905"/>
</g>
<!-- Node7 -->
<g id="node7" class="node"><title>Node7</title>
<g id="a_node7"><a xlink:href="classprior__hessian_1_1CompositeDist.html#a927fed39b2b4e87714c728d6e7b11e8b" target="_top" xlink:title="prior_hessian::Composite\lDist::params_components">
<polygon fill="white" stroke="black" points="663,-67 663,-95 786,-95 786,-67 663,-67"/>
<text text-anchor="start" x="671" y="-83.8" font-family="Helvetica,sans-Serif" font-size="9.00">prior_hessian::Composite</text>
<text text-anchor="middle" x="724.5" y="-73.8" font-family="Helvetica,sans-Serif" font-size="9.00">Dist::params_components</text>
</a>
</g>
</g>
<!-- Node1&#45;&gt;Node7 -->
<g id="edge10" class="edge"><title>Node1&#45;&gt;Node7</title>
<path fill="none" stroke="midnightblue" d="M128.519,-97.7066C234.254,-73.9643 447.119,-34.967 627,-57 643.45,-59.0149 661.133,-62.8937 676.811,-66.955"/>
<polygon fill="midnightblue" stroke="midnightblue" points="127.602,-94.3257 118.626,-99.9541 129.153,-101.152 127.602,-94.3257"/>
</g>
<!-- Node8 -->
<g id="node8" class="node"><title>Node8</title>
<g id="a_node8"><a xlink:href="classprior__hessian_1_1CompositeDist.html#a24bac25ae8c0330b8a3aacadffc9d5ae" target="_top" xlink:title="prior_hessian::Composite\lDist::rllh_components">
<polygon fill="white" stroke="black" points="822,-67 822,-95 944,-95 944,-67 822,-67"/>
<text text-anchor="start" x="830" y="-83.8" font-family="Helvetica,sans-Serif" font-size="9.00">prior_hessian::Composite</text>
<text text-anchor="middle" x="883" y="-73.8" font-family="Helvetica,sans-Serif" font-size="9.00">Dist::rllh_components</text>
</a>
</g>
</g>
<!-- Node1&#45;&gt;Node8 -->
<g id="edge12" class="edge"><title>Node1&#45;&gt;Node8</title>
<path fill="none" stroke="midnightblue" d="M92.8988,-94.6651C111.262,-83.8437 135.325,-70.8006 158,-62 264.319,-20.7351 292.954,-0 407,-0 407,-0 407,-0 567,-0 673.157,-0 793.278,-43.6838 849.601,-66.8909"/>
<polygon fill="midnightblue" stroke="midnightblue" points="90.8933,-91.7865 84.1139,-99.9284 94.491,-97.7912 90.8933,-91.7865"/>
</g>
<!-- Node4&#45;&gt;Node5 -->
<g id="edge4" class="edge"><title>Node4&#45;&gt;Node5</title>
<path fill="none" stroke="midnightblue" d="M300.978,-141.31C316.054,-138.848 332.017,-136.242 346.854,-133.82"/>
<polygon fill="midnightblue" stroke="midnightblue" points="300.013,-137.921 290.708,-142.986 301.141,-144.829 300.013,-137.921"/>
</g>
<!-- Node5&#45;&gt;Node6 -->
<g id="edge5" class="edge"><title>Node5&#45;&gt;Node6</title>
<path fill="none" stroke="midnightblue" d="M470.013,-107.182C484.592,-103.164 500.002,-98.916 514.072,-95.038"/>
<polygon fill="midnightblue" stroke="midnightblue" points="468.791,-103.889 460.08,-109.92 470.651,-110.637 468.791,-103.889"/>
</g>
<!-- Node5&#45;&gt;Node7 -->
<g id="edge8" class="edge"><title>Node5&#45;&gt;Node7</title>
<path fill="none" stroke="midnightblue" d="M479.485,-120.089C522.333,-117.079 578.044,-112.038 627,-104 641.276,-101.656 656.573,-98.3741 670.684,-95.0219"/>
<polygon fill="midnightblue" stroke="midnightblue" points="479.177,-116.602 469.438,-120.774 479.653,-123.586 479.177,-116.602"/>
</g>
<!-- Node5&#45;&gt;Node8 -->
<g id="edge9" class="edge"><title>Node5&#45;&gt;Node8</title>
<path fill="none" stroke="midnightblue" d="M479.28,-124.816C487.942,-124.892 496.674,-124.957 505,-125 559.221,-125.282 572.895,-128.558 627,-125 698.127,-120.323 715.913,-116.988 786,-104 799.65,-101.471 814.272,-98.2392 827.886,-95.0033"/>
<polygon fill="midnightblue" stroke="midnightblue" points="479.203,-121.316 469.171,-124.723 479.138,-128.315 479.203,-121.316"/>
</g>
<!-- Node6&#45;&gt;Node7 -->
<g id="edge6" class="edge"><title>Node6&#45;&gt;Node7</title>
<path fill="none" stroke="midnightblue" d="M637.062,-81C645.657,-81 654.385,-81 662.825,-81"/>
<polygon fill="midnightblue" stroke="midnightblue" points="637.059,-77.5001 627.059,-81 637.059,-84.5001 637.059,-77.5001"/>
</g>
<!-- Node7&#45;&gt;Node8 -->
<g id="edge7" class="edge"><title>Node7&#45;&gt;Node8</title>
<path fill="none" stroke="midnightblue" d="M796.059,-81C804.692,-81 813.452,-81 821.912,-81"/>
<polygon fill="midnightblue" stroke="midnightblue" points="796.007,-77.5001 786.007,-81 796.007,-84.5001 796.007,-77.5001"/>
</g>
</g>
</svg>
