<?xml version="1.0" encoding="UTF-8" standalone="no"?>
<!DOCTYPE svg PUBLIC "-//W3C//DTD SVG 1.1//EN"
 "http://www.w3.org/Graphics/SVG/1.1/DTD/svg11.dtd">
<!-- Generated by graphviz version 2.38.0 (20140413.2041)
 -->
<!-- Title: prior_hessian::ParetoDist::pdf Pages: 1 -->
<svg width="630pt" height="393pt"
 viewBox="0.00 0.00 630.00 393.00" xmlns="http://www.w3.org/2000/svg" xmlns:xlink="http://www.w3.org/1999/xlink">
<g id="graph0" class="graph" transform="scale(1 1) rotate(0) translate(4 389)">
<title>prior_hessian::ParetoDist::pdf</title>
<polygon fill="white" stroke="none" points="-4,4 -4,-389 626,-389 626,4 -4,4"/>
<!-- Node1 -->
<g id="node1" class="node"><title>Node1</title>
<polygon fill="#bfbfbf" stroke="black" points="0,-167.5 0,-185.5 137,-185.5 137,-167.5 0,-167.5"/>
<text text-anchor="middle" x="68.5" y="-174.3" font-family="Helvetica,sans-Serif" font-size="9.00">prior_hessian::ParetoDist::pdf</text>
</g>
<!-- Node2 -->
<g id="node2" class="node"><title>Node2</title>
<g id="a_node2"><a xlink:href="classprior__hessian_1_1ParetoDist.html#ad117226a3ad1eee827886fc7ba38acbf" target="_top" xlink:title="prior_hessian::ParetoDist\l::lbound">
<polygon fill="white" stroke="black" points="173,-162.5 173,-190.5 293,-190.5 293,-162.5 173,-162.5"/>
<text text-anchor="start" x="181" y="-179.3" font-family="Helvetica,sans-Serif" font-size="9.00">prior_hessian::ParetoDist</text>
<text text-anchor="middle" x="233" y="-169.3" font-family="Helvetica,sans-Serif" font-size="9.00">::lbound</text>
</a>
</g>
</g>
<!-- Node1&#45;&gt;Node2 -->
<g id="edge1" class="edge"><title>Node1&#45;&gt;Node2</title>
<path fill="none" stroke="midnightblue" d="M147.156,-169.756C155.846,-169.727 164.592,-169.802 172.994,-169.98"/>
<polygon fill="midnightblue" stroke="midnightblue" points="146.975,-166.257 137.003,-169.837 147.03,-173.257 146.975,-166.257"/>
</g>
<!-- Node2&#45;&gt;Node1 -->
<g id="edge19" class="edge"><title>Node2&#45;&gt;Node1</title>
<path fill="none" stroke="midnightblue" d="M162.716,-183.185C154.196,-183.278 145.496,-183.271 137.003,-183.163"/>
<polygon fill="midnightblue" stroke="midnightblue" points="163.051,-186.68 172.994,-183.02 162.939,-179.681 163.051,-186.68"/>
</g>
<!-- Node3 -->
<g id="node3" class="node"><title>Node3</title>
<g id="a_node3"><a xlink:href="classprior__hessian_1_1ParetoDist.html#afe706cb12ce6f667e7a3a9eb7311ef65" target="_top" xlink:title="prior_hessian::ParetoDist::cdf">
<polygon fill="white" stroke="black" points="329,-366.5 329,-384.5 466,-384.5 466,-366.5 329,-366.5"/>
<text text-anchor="middle" x="397.5" y="-373.3" font-family="Helvetica,sans-Serif" font-size="9.00">prior_hessian::ParetoDist::cdf</text>
</a>
</g>
</g>
<!-- Node2&#45;&gt;Node3 -->
<g id="edge2" class="edge"><title>Node2&#45;&gt;Node3</title>
<path fill="none" stroke="midnightblue" d="M241.47,-200.138C253.197,-237.512 279.831,-309.222 329,-348.5 341.887,-358.795 360.132,-363.231 374.405,-366.478"/>
<polygon fill="midnightblue" stroke="midnightblue" points="244.816,-199.108 238.552,-190.563 238.12,-201.149 244.816,-199.108"/>
</g>
<!-- Node4 -->
<g id="node4" class="node"><title>Node4</title>
<g id="a_node4"><a xlink:href="classprior__hessian_1_1ParetoDist.html#adc9bafea285be38186ec4ad161850b56" target="_top" xlink:title="prior_hessian::ParetoDist\l::get_param">
<polygon fill="white" stroke="black" points="337.5,-319.5 337.5,-347.5 457.5,-347.5 457.5,-319.5 337.5,-319.5"/>
<text text-anchor="start" x="345.5" y="-336.3" font-family="Helvetica,sans-Serif" font-size="9.00">prior_hessian::ParetoDist</text>
<text text-anchor="middle" x="397.5" y="-326.3" font-family="Helvetica,sans-Serif" font-size="9.00">::get_param</text>
</a>
</g>
</g>
<!-- Node2&#45;&gt;Node4 -->
<g id="edge4" class="edge"><title>Node2&#45;&gt;Node4</title>
<path fill="none" stroke="midnightblue" d="M244.913,-200.111C259.844,-229.934 289.374,-280.92 329,-310.5 333.564,-313.907 338.667,-316.832 343.968,-319.338"/>
<polygon fill="midnightblue" stroke="midnightblue" points="247.938,-198.33 240.415,-190.87 241.644,-201.393 247.938,-198.33"/>
</g>
<!-- Node6 -->
<g id="node6" class="node"><title>Node6</title>
<g id="a_node6"><a xlink:href="classprior__hessian_1_1ParetoDist.html#a9d1040a7a5ca261feebe56f42e5698ea" target="_top" xlink:title="prior_hessian::ParetoDist\l::icdf">
<polygon fill="white" stroke="black" points="337.5,-272.5 337.5,-300.5 457.5,-300.5 457.5,-272.5 337.5,-272.5"/>
<text text-anchor="start" x="345.5" y="-289.3" font-family="Helvetica,sans-Serif" font-size="9.00">prior_hessian::ParetoDist</text>
<text text-anchor="middle" x="397.5" y="-279.3" font-family="Helvetica,sans-Serif" font-size="9.00">::icdf</text>
</a>
</g>
</g>
<!-- Node2&#45;&gt;Node6 -->
<g id="edge6" class="edge"><title>Node2&#45;&gt;Node6</title>
<path fill="none" stroke="midnightblue" d="M259.265,-197.531C277.149,-214.932 302.569,-238.838 329,-254.5 341.994,-262.2 357.933,-267.784 371.059,-272.495"/>
<polygon fill="midnightblue" stroke="midnightblue" points="261.681,-194.998 252.081,-190.515 256.79,-200.006 261.681,-194.998"/>
</g>
<!-- Node7 -->
<g id="node7" class="node"><title>Node7</title>
<g id="a_node7"><a xlink:href="classprior__hessian_1_1ParetoDist.html#ae3776388549cf35e9fea96963624cf6e" target="_top" xlink:title="prior_hessian::ParetoDist\l::in_bounds">
<polygon fill="white" stroke="black" points="337.5,-225.5 337.5,-253.5 457.5,-253.5 457.5,-225.5 337.5,-225.5"/>
<text text-anchor="start" x="345.5" y="-242.3" font-family="Helvetica,sans-Serif" font-size="9.00">prior_hessian::ParetoDist</text>
<text text-anchor="middle" x="397.5" y="-232.3" font-family="Helvetica,sans-Serif" font-size="9.00">::in_bounds</text>
</a>
</g>
</g>
<!-- Node2&#45;&gt;Node7 -->
<g id="edge8" class="edge"><title>Node2&#45;&gt;Node7</title>
<path fill="none" stroke="midnightblue" d="M275.287,-194.627C291.875,-201.714 311.243,-209.746 329,-216.5 336.984,-219.537 345.568,-222.608 353.849,-225.473"/>
<polygon fill="midnightblue" stroke="midnightblue" points="276.444,-191.314 265.875,-190.579 273.679,-197.745 276.444,-191.314"/>
</g>
<!-- Node8 -->
<g id="node8" class="node"><title>Node8</title>
<g id="a_node8"><a xlink:href="classprior__hessian_1_1ParetoDist.html#a0f7ee813a098cd3fc9c7669cda6a340c" target="_top" xlink:title="prior_hessian::ParetoDist::llh">
<polygon fill="white" stroke="black" points="330.5,-188.5 330.5,-206.5 464.5,-206.5 464.5,-188.5 330.5,-188.5"/>
<text text-anchor="middle" x="397.5" y="-195.3" font-family="Helvetica,sans-Serif" font-size="9.00">prior_hessian::ParetoDist::llh</text>
</a>
</g>
</g>
<!-- Node2&#45;&gt;Node8 -->
<g id="edge9" class="edge"><title>Node2&#45;&gt;Node8</title>
<path fill="none" stroke="midnightblue" d="M303.084,-178.746C325.761,-181.422 349.73,-184.981 367.711,-188.481"/>
<polygon fill="midnightblue" stroke="midnightblue" points="303.456,-175.265 293.126,-177.618 302.669,-182.221 303.456,-175.265"/>
</g>
<!-- Node9 -->
<g id="node9" class="node"><title>Node9</title>
<g id="a_node9"><a xlink:href="classprior__hessian_1_1ParetoDist.html#a0a1e20b0aa6c7b52c134fc2341b5fdd4" target="_top" xlink:title="prior_hessian::ParetoDist\l::mean">
<polygon fill="white" stroke="black" points="337.5,-141.5 337.5,-169.5 457.5,-169.5 457.5,-141.5 337.5,-141.5"/>
<text text-anchor="start" x="345.5" y="-158.3" font-family="Helvetica,sans-Serif" font-size="9.00">prior_hessian::ParetoDist</text>
<text text-anchor="middle" x="397.5" y="-148.3" font-family="Helvetica,sans-Serif" font-size="9.00">::mean</text>
</a>
</g>
</g>
<!-- Node2&#45;&gt;Node9 -->
<g id="edge11" class="edge"><title>Node2&#45;&gt;Node9</title>
<path fill="none" stroke="midnightblue" d="M302.316,-160.998C313.954,-159.355 325.956,-157.854 337.332,-156.623"/>
<polygon fill="midnightblue" stroke="midnightblue" points="301.596,-157.566 292.207,-162.475 302.608,-164.492 301.596,-157.566"/>
</g>
<!-- Node10 -->
<g id="node10" class="node"><title>Node10</title>
<g id="a_node10"><a xlink:href="classprior__hessian_1_1ParetoDist.html#a74af41636088b6c727107c60dd9c81b2" target="_top" xlink:title="prior_hessian::ParetoDist\l::median">
<polygon fill="white" stroke="black" points="337.5,-94.5 337.5,-122.5 457.5,-122.5 457.5,-94.5 337.5,-94.5"/>
<text text-anchor="start" x="345.5" y="-111.3" font-family="Helvetica,sans-Serif" font-size="9.00">prior_hessian::ParetoDist</text>
<text text-anchor="middle" x="397.5" y="-101.3" font-family="Helvetica,sans-Serif" font-size="9.00">::median</text>
</a>
</g>
</g>
<!-- Node2&#45;&gt;Node10 -->
<g id="edge13" class="edge"><title>Node2&#45;&gt;Node10</title>
<path fill="none" stroke="midnightblue" d="M258.239,-157.165C277.275,-146.297 304.561,-133.48 329,-123.5 331.763,-122.372 334.602,-121.244 337.477,-120.134"/>
<polygon fill="midnightblue" stroke="midnightblue" points="256.395,-154.189 249.605,-162.322 259.985,-160.198 256.395,-154.189"/>
</g>
<!-- Node11 -->
<g id="node11" class="node"><title>Node11</title>
<g id="a_node11"><a xlink:href="classprior__hessian_1_1ParetoDist.html#af5791e2cef16b34e1bbdeec24b13d22e" target="_top" xlink:title="prior_hessian::ParetoDist\l::params">
<polygon fill="white" stroke="black" points="337.5,-47.5 337.5,-75.5 457.5,-75.5 457.5,-47.5 337.5,-47.5"/>
<text text-anchor="start" x="345.5" y="-64.3" font-family="Helvetica,sans-Serif" font-size="9.00">prior_hessian::ParetoDist</text>
<text text-anchor="middle" x="397.5" y="-54.3" font-family="Helvetica,sans-Serif" font-size="9.00">::params</text>
</a>
</g>
</g>
<!-- Node2&#45;&gt;Node11 -->
<g id="edge15" class="edge"><title>Node2&#45;&gt;Node11</title>
<path fill="none" stroke="midnightblue" d="M247.13,-153.987C264.121,-131.173 295.538,-97.1427 329,-76.5 331.646,-74.8675 334.42,-73.3249 337.27,-71.8787"/>
<polygon fill="midnightblue" stroke="midnightblue" points="244.079,-152.239 241.155,-162.422 249.791,-156.285 244.079,-152.239"/>
</g>
<!-- Node13 -->
<g id="node13" class="node"><title>Node13</title>
<g id="a_node13"><a xlink:href="classprior__hessian_1_1ParetoDist.html#abe706f0786b5e8ef20b7caff07ffad0c" target="_top" xlink:title="prior_hessian::ParetoDist\l::sample">
<polygon fill="white" stroke="black" points="337.5,-0.5 337.5,-28.5 457.5,-28.5 457.5,-0.5 337.5,-0.5"/>
<text text-anchor="start" x="345.5" y="-17.3" font-family="Helvetica,sans-Serif" font-size="9.00">prior_hessian::ParetoDist</text>
<text text-anchor="middle" x="397.5" y="-7.3" font-family="Helvetica,sans-Serif" font-size="9.00">::sample</text>
</a>
</g>
</g>
<!-- Node2&#45;&gt;Node13 -->
<g id="edge20" class="edge"><title>Node2&#45;&gt;Node13</title>
<path fill="none" stroke="midnightblue" d="M242.024,-152.491C255.719,-119.732 286.323,-62.2649 329,-29.5 331.664,-27.455 334.516,-25.5744 337.488,-23.8569"/>
<polygon fill="midnightblue" stroke="midnightblue" points="238.608,-151.61 238.178,-162.196 245.116,-154.189 238.608,-151.61"/>
</g>
<!-- Node3&#45;&gt;Node2 -->
<g id="edge3" class="edge"><title>Node3&#45;&gt;Node2</title>
<path fill="none" stroke="midnightblue" d="M320.978,-359.632C267.909,-311.077 243.419,-224.986 236.298,-190.684"/>
<polygon fill="midnightblue" stroke="midnightblue" points="318.79,-362.366 328.657,-366.225 323.349,-357.055 318.79,-362.366"/>
</g>
<!-- Node5 -->
<g id="node5" class="node"><title>Node5</title>
<g id="a_node5"><a xlink:href="classprior__hessian_1_1ParetoDist.html#a572ad9f28d83da610e1b81c88876563a" target="_top" xlink:title="prior_hessian::ParetoDist\l::ParetoDist">
<polygon fill="white" stroke="black" points="502,-319.5 502,-347.5 622,-347.5 622,-319.5 502,-319.5"/>
<text text-anchor="start" x="510" y="-336.3" font-family="Helvetica,sans-Serif" font-size="9.00">prior_hessian::ParetoDist</text>
<text text-anchor="middle" x="562" y="-326.3" font-family="Helvetica,sans-Serif" font-size="9.00">::ParetoDist</text>
</a>
</g>
</g>
<!-- Node4&#45;&gt;Node5 -->
<g id="edge5" class="edge"><title>Node4&#45;&gt;Node5</title>
<path fill="none" stroke="midnightblue" d="M467.911,-333.5C479.235,-333.5 490.873,-333.5 501.918,-333.5"/>
<polygon fill="midnightblue" stroke="midnightblue" points="467.626,-330 457.626,-333.5 467.626,-337 467.626,-330"/>
</g>
<!-- Node6&#45;&gt;Node2 -->
<g id="edge7" class="edge"><title>Node6&#45;&gt;Node2</title>
<path fill="none" stroke="midnightblue" d="M328.617,-271.68C287.208,-245.484 255.403,-210.452 241.45,-190.528"/>
<polygon fill="midnightblue" stroke="midnightblue" points="326.946,-274.76 337.31,-276.961 330.58,-268.778 326.946,-274.76"/>
</g>
<!-- Node8&#45;&gt;Node2 -->
<g id="edge10" class="edge"><title>Node8&#45;&gt;Node2</title>
<path fill="none" stroke="midnightblue" d="M320.244,-194.384C310.818,-193.209 301.303,-191.9 292.207,-190.525"/>
<polygon fill="midnightblue" stroke="midnightblue" points="320.067,-197.888 330.412,-195.604 320.9,-190.938 320.067,-197.888"/>
</g>
<!-- Node9&#45;&gt;Node2 -->
<g id="edge12" class="edge"><title>Node9&#45;&gt;Node2</title>
<path fill="none" stroke="midnightblue" d="M328.127,-171.01C316.492,-172.652 304.496,-174.151 293.126,-175.382"/>
<polygon fill="midnightblue" stroke="midnightblue" points="328.844,-174.442 338.234,-169.534 327.833,-167.516 328.844,-174.442"/>
</g>
<!-- Node10&#45;&gt;Node2 -->
<g id="edge14" class="edge"><title>Node10&#45;&gt;Node2</title>
<path fill="none" stroke="midnightblue" d="M367.311,-126.547C355.344,-131.375 341.414,-136.431 329,-141.5 313.014,-148.028 295.81,-155.77 280.494,-162.466"/>
<polygon fill="midnightblue" stroke="midnightblue" points="368.961,-129.651 376.825,-122.551 366.25,-123.197 368.961,-129.651"/>
</g>
<!-- Node11&#45;&gt;Node2 -->
<g id="edge18" class="edge"><title>Node11&#45;&gt;Node2</title>
<path fill="none" stroke="midnightblue" d="M362.233,-79.0976C351.171,-83.2985 339.152,-88.2372 329,-94.5 298.094,-113.566 268.932,-144.052 251.27,-162.262"/>
<polygon fill="midnightblue" stroke="midnightblue" points="363.497,-82.3619 371.638,-75.581 361.045,-75.8053 363.497,-82.3619"/>
</g>
<!-- Node12 -->
<g id="node12" class="node"><title>Node12</title>
<g id="a_node12"><a xlink:href="classprior__hessian_1_1ParetoDist.html#ad90392cbacf44f0760b46e80a2676a08" target="_top" xlink:title="prior_hessian::ParetoDist\l::check_params">
<polygon fill="white" stroke="black" points="502,-47.5 502,-75.5 622,-75.5 622,-47.5 502,-47.5"/>
<text text-anchor="start" x="510" y="-64.3" font-family="Helvetica,sans-Serif" font-size="9.00">prior_hessian::ParetoDist</text>
<text text-anchor="middle" x="562" y="-54.3" font-family="Helvetica,sans-Serif" font-size="9.00">::check_params</text>
</a>
</g>
</g>
<!-- Node11&#45;&gt;Node12 -->
<g id="edge16" class="edge"><title>Node11&#45;&gt;Node12</title>
<path fill="none" stroke="midnightblue" d="M467.911,-61.5C479.235,-61.5 490.873,-61.5 501.918,-61.5"/>
<polygon fill="midnightblue" stroke="midnightblue" points="467.626,-58.0001 457.626,-61.5 467.626,-65.0001 467.626,-58.0001"/>
</g>
<!-- Node12&#45;&gt;Node12 -->
<g id="edge17" class="edge"><title>Node12&#45;&gt;Node12</title>
<path fill="none" stroke="midnightblue" d="M532.354,-85.4873C535.502,-90.4413 545.384,-94 562,-94 588.586,-94 597.933,-84.8898 590.04,-75.5305"/>
<polygon fill="midnightblue" stroke="midnightblue" points="535.823,-85.9603 533.96,-75.5305 528.912,-84.8453 535.823,-85.9603"/>
</g>
<!-- Node13&#45;&gt;Node2 -->
<g id="edge21" class="edge"><title>Node13&#45;&gt;Node2</title>
<path fill="none" stroke="midnightblue" d="M358.362,-32.08C348.164,-36.0115 337.598,-40.8994 329,-47.5 287.01,-79.737 256.709,-135.887 242.699,-162.421"/>
<polygon fill="midnightblue" stroke="midnightblue" points="359.758,-35.2965 367.951,-28.5791 357.357,-28.7211 359.758,-35.2965"/>
</g>
</g>
</svg>
