<?xml version="1.0" encoding="UTF-8" standalone="no"?>
<!DOCTYPE svg PUBLIC "-//W3C//DTD SVG 1.1//EN"
 "http://www.w3.org/Graphics/SVG/1.1/DTD/svg11.dtd">
<!-- Generated by graphviz version 2.38.0 (20140413.2041)
 -->
<!-- Title: prior_hessian::ParetoDist::sample Pages: 1 -->
<svg width="789pt" height="618pt"
 viewBox="0.00 0.00 789.00 617.58" xmlns="http://www.w3.org/2000/svg" xmlns:xlink="http://www.w3.org/1999/xlink">
<g id="graph0" class="graph" transform="scale(1 1) rotate(0) translate(4 613.581)">
<title>prior_hessian::ParetoDist::sample</title>
<polygon fill="white" stroke="none" points="-4,4 -4,-613.581 785,-613.581 785,4 -4,4"/>
<!-- Node1 -->
<g id="node1" class="node"><title>Node1</title>
<polygon fill="#bfbfbf" stroke="black" points="0,-291.5 0,-319.5 120,-319.5 120,-291.5 0,-291.5"/>
<text text-anchor="start" x="8" y="-308.3" font-family="Helvetica,sans-Serif" font-size="9.00">prior_hessian::ParetoDist</text>
<text text-anchor="middle" x="60" y="-298.3" font-family="Helvetica,sans-Serif" font-size="9.00">::sample</text>
</g>
<!-- Node2 -->
<g id="node2" class="node"><title>Node2</title>
<g id="a_node2"><a xlink:href="classprior__hessian_1_1ParetoDist.html#ad117226a3ad1eee827886fc7ba38acbf" target="_top" xlink:title="prior_hessian::ParetoDist\l::lbound">
<polygon fill="white" stroke="black" points="156,-291.5 156,-319.5 276,-319.5 276,-291.5 156,-291.5"/>
<text text-anchor="start" x="164" y="-308.3" font-family="Helvetica,sans-Serif" font-size="9.00">prior_hessian::ParetoDist</text>
<text text-anchor="middle" x="216" y="-298.3" font-family="Helvetica,sans-Serif" font-size="9.00">::lbound</text>
</a>
</g>
</g>
<!-- Node1&#45;&gt;Node2 -->
<g id="edge1" class="edge"><title>Node1&#45;&gt;Node2</title>
<path fill="none" stroke="midnightblue" d="M120.1,-298.915C128.422,-298.759 137.039,-298.714 145.533,-298.779"/>
<polygon fill="midnightblue" stroke="midnightblue" points="145.759,-302.282 155.804,-298.913 145.85,-295.283 145.759,-302.282"/>
</g>
<!-- Node2&#45;&gt;Node1 -->
<g id="edge33" class="edge"><title>Node2&#45;&gt;Node1</title>
<path fill="none" stroke="midnightblue" d="M155.804,-312.087C147.48,-312.242 138.862,-312.286 130.369,-312.22"/>
<polygon fill="midnightblue" stroke="midnightblue" points="130.145,-308.717 120.1,-312.085 130.053,-315.717 130.145,-308.717"/>
</g>
<!-- Node3 -->
<g id="node3" class="node"><title>Node3</title>
<g id="a_node3"><a xlink:href="classprior__hessian_1_1ParetoDist.html#afe706cb12ce6f667e7a3a9eb7311ef65" target="_top" xlink:title="prior_hessian::ParetoDist::cdf">
<polygon fill="white" stroke="black" points="312,-580.5 312,-598.5 449,-598.5 449,-580.5 312,-580.5"/>
<text text-anchor="middle" x="380.5" y="-587.3" font-family="Helvetica,sans-Serif" font-size="9.00">prior_hessian::ParetoDist::cdf</text>
</a>
</g>
</g>
<!-- Node2&#45;&gt;Node3 -->
<g id="edge2" class="edge"><title>Node2&#45;&gt;Node3</title>
<path fill="none" stroke="midnightblue" d="M218.03,-319.71C221.722,-363.085 238.366,-492.837 312,-561.5 321.252,-570.127 334.113,-574.881 346.13,-578.086"/>
<polygon fill="midnightblue" stroke="midnightblue" points="345.384,-581.507 355.928,-580.466 347.036,-574.705 345.384,-581.507"/>
</g>
<!-- Node5 -->
<g id="node5" class="node"><title>Node5</title>
<g id="a_node5"><a xlink:href="classprior__hessian_1_1ParetoDist.html#a0923e8b25145eed6042aa933aa4354e5" target="_top" xlink:title="prior_hessian::ParetoDist\l::check_params_iter">
<polygon fill="white" stroke="black" points="320.5,-533.5 320.5,-561.5 440.5,-561.5 440.5,-533.5 320.5,-533.5"/>
<text text-anchor="start" x="328.5" y="-550.3" font-family="Helvetica,sans-Serif" font-size="9.00">prior_hessian::ParetoDist</text>
<text text-anchor="middle" x="380.5" y="-540.3" font-family="Helvetica,sans-Serif" font-size="9.00">::check_params_iter</text>
</a>
</g>
</g>
<!-- Node2&#45;&gt;Node5 -->
<g id="edge5" class="edge"><title>Node2&#45;&gt;Node5</title>
<path fill="none" stroke="midnightblue" d="M219.605,-319.725C227.166,-357.201 252.472,-459.784 312,-518.5 315.763,-522.211 320.076,-525.481 324.663,-528.355"/>
<polygon fill="midnightblue" stroke="midnightblue" points="323.307,-531.606 333.748,-533.405 326.708,-525.487 323.307,-531.606"/>
</g>
<!-- Node7 -->
<g id="node7" class="node"><title>Node7</title>
<g id="a_node7"><a xlink:href="classprior__hessian_1_1ParetoDist.html#a3f802550dfcad6f0e3a8ca2e93709fe9" target="_top" xlink:title="prior_hessian::ParetoDist\l::grad">
<polygon fill="white" stroke="black" points="495,-494.5 495,-522.5 615,-522.5 615,-494.5 495,-494.5"/>
<text text-anchor="start" x="503" y="-511.3" font-family="Helvetica,sans-Serif" font-size="9.00">prior_hessian::ParetoDist</text>
<text text-anchor="middle" x="555" y="-501.3" font-family="Helvetica,sans-Serif" font-size="9.00">::grad</text>
</a>
</g>
</g>
<!-- Node2&#45;&gt;Node7 -->
<g id="edge7" class="edge"><title>Node2&#45;&gt;Node7</title>
<path fill="none" stroke="midnightblue" d="M221.061,-319.738C230.891,-351.427 259.141,-427.867 312,-464.5 362.59,-499.561 432.931,-509.089 484.742,-510.721"/>
<polygon fill="midnightblue" stroke="midnightblue" points="484.771,-514.223 494.846,-510.948 484.927,-507.225 484.771,-514.223"/>
</g>
<!-- Node8 -->
<g id="node8" class="node"><title>Node8</title>
<g id="a_node8"><a xlink:href="classprior__hessian_1_1ParetoDist.html#a24a4aaa7a8edb42009d0fa8390cb4a8f" target="_top" xlink:title="prior_hessian::ParetoDist\l::grad2">
<polygon fill="white" stroke="black" points="495,-447.5 495,-475.5 615,-475.5 615,-447.5 495,-447.5"/>
<text text-anchor="start" x="503" y="-464.3" font-family="Helvetica,sans-Serif" font-size="9.00">prior_hessian::ParetoDist</text>
<text text-anchor="middle" x="555" y="-454.3" font-family="Helvetica,sans-Serif" font-size="9.00">::grad2</text>
</a>
</g>
</g>
<!-- Node2&#45;&gt;Node8 -->
<g id="edge9" class="edge"><title>Node2&#45;&gt;Node8</title>
<path fill="none" stroke="midnightblue" d="M222.837,-319.662C234.925,-346.986 265.509,-406.649 312,-433.5 364.338,-463.728 433.654,-468.933 484.683,-467.633"/>
<polygon fill="midnightblue" stroke="midnightblue" points="485.085,-471.121 494.958,-467.278 484.843,-464.125 485.085,-471.121"/>
</g>
<!-- Node9 -->
<g id="node9" class="node"><title>Node9</title>
<g id="a_node9"><a xlink:href="classprior__hessian_1_1ParetoDist.html#a20c3f90ec9ac4b5bfd179a7c97ab36e7" target="_top" xlink:title="prior_hessian::ParetoDist\l::grad_grad2_accumulate">
<polygon fill="white" stroke="black" points="494,-400.5 494,-428.5 616,-428.5 616,-400.5 494,-400.5"/>
<text text-anchor="start" x="502" y="-417.3" font-family="Helvetica,sans-Serif" font-size="9.00">prior_hessian::ParetoDist</text>
<text text-anchor="middle" x="555" y="-407.3" font-family="Helvetica,sans-Serif" font-size="9.00">::grad_grad2_accumulate</text>
</a>
</g>
</g>
<!-- Node2&#45;&gt;Node9 -->
<g id="edge11" class="edge"><title>Node2&#45;&gt;Node9</title>
<path fill="none" stroke="midnightblue" d="M224.953,-319.824C238.971,-343.423 270.561,-389.731 312,-408.5 365.903,-432.914 433.717,-432.287 483.835,-426.78"/>
<polygon fill="midnightblue" stroke="midnightblue" points="484.415,-430.236 493.931,-425.579 483.588,-423.285 484.415,-430.236"/>
</g>
<!-- Node10 -->
<g id="node10" class="node"><title>Node10</title>
<g id="a_node10"><a xlink:href="classprior__hessian_1_1ParetoDist.html#a9d1040a7a5ca261feebe56f42e5698ea" target="_top" xlink:title="prior_hessian::ParetoDist\l::icdf">
<polygon fill="white" stroke="black" points="320.5,-371.5 320.5,-399.5 440.5,-399.5 440.5,-371.5 320.5,-371.5"/>
<text text-anchor="start" x="328.5" y="-388.3" font-family="Helvetica,sans-Serif" font-size="9.00">prior_hessian::ParetoDist</text>
<text text-anchor="middle" x="380.5" y="-378.3" font-family="Helvetica,sans-Serif" font-size="9.00">::icdf</text>
</a>
</g>
</g>
<!-- Node2&#45;&gt;Node10 -->
<g id="edge13" class="edge"><title>Node2&#45;&gt;Node10</title>
<path fill="none" stroke="midnightblue" d="M250.883,-319.563C268.641,-329.646 291.012,-342.693 312,-352.5 323.796,-358.012 337.232,-363.029 348.995,-367.65"/>
<polygon fill="midnightblue" stroke="midnightblue" points="347.825,-370.953 358.409,-371.441 350.44,-364.459 347.825,-370.953"/>
</g>
<!-- Node11 -->
<g id="node11" class="node"><title>Node11</title>
<g id="a_node11"><a xlink:href="classprior__hessian_1_1ParetoDist.html#a0f7ee813a098cd3fc9c7669cda6a340c" target="_top" xlink:title="prior_hessian::ParetoDist::llh">
<polygon fill="white" stroke="black" points="313.5,-334.5 313.5,-352.5 447.5,-352.5 447.5,-334.5 313.5,-334.5"/>
<text text-anchor="middle" x="380.5" y="-341.3" font-family="Helvetica,sans-Serif" font-size="9.00">prior_hessian::ParetoDist::llh</text>
</a>
</g>
</g>
<!-- Node2&#45;&gt;Node11 -->
<g id="edge16" class="edge"><title>Node2&#45;&gt;Node11</title>
<path fill="none" stroke="midnightblue" d="M276.126,-312.804C301.434,-318.189 329.842,-325.235 350.464,-331.395"/>
<polygon fill="midnightblue" stroke="midnightblue" points="349.609,-334.795 360.197,-334.429 351.692,-328.112 349.609,-334.795"/>
</g>
<!-- Node12 -->
<g id="node12" class="node"><title>Node12</title>
<g id="a_node12"><a xlink:href="classprior__hessian_1_1ParetoDist.html#a609ed75305325062ebd80dcfaa487c69" target="_top" xlink:title="prior_hessian::ParetoDist\l::rllh">
<polygon fill="white" stroke="black" points="495,-276.5 495,-304.5 615,-304.5 615,-276.5 495,-276.5"/>
<text text-anchor="start" x="503" y="-293.3" font-family="Helvetica,sans-Serif" font-size="9.00">prior_hessian::ParetoDist</text>
<text text-anchor="middle" x="555" y="-283.3" font-family="Helvetica,sans-Serif" font-size="9.00">::rllh</text>
</a>
</g>
</g>
<!-- Node2&#45;&gt;Node12 -->
<g id="edge32" class="edge"><title>Node2&#45;&gt;Node12</title>
<path fill="none" stroke="midnightblue" d="M276.087,-302.87C334.38,-300.275 423.455,-296.311 484.973,-293.572"/>
<polygon fill="midnightblue" stroke="midnightblue" points="485.147,-297.068 494.981,-293.127 484.836,-290.075 485.147,-297.068"/>
</g>
<!-- Node13 -->
<g id="node13" class="node"><title>Node13</title>
<g id="a_node13"><a xlink:href="classprior__hessian_1_1ParetoDist.html#a0a1e20b0aa6c7b52c134fc2341b5fdd4" target="_top" xlink:title="prior_hessian::ParetoDist\l::mean">
<polygon fill="white" stroke="black" points="320.5,-248.5 320.5,-276.5 440.5,-276.5 440.5,-248.5 320.5,-248.5"/>
<text text-anchor="start" x="328.5" y="-265.3" font-family="Helvetica,sans-Serif" font-size="9.00">prior_hessian::ParetoDist</text>
<text text-anchor="middle" x="380.5" y="-255.3" font-family="Helvetica,sans-Serif" font-size="9.00">::mean</text>
</a>
</g>
</g>
<!-- Node2&#45;&gt;Node13 -->
<g id="edge21" class="edge"><title>Node2&#45;&gt;Node13</title>
<path fill="none" stroke="midnightblue" d="M249.494,-291.375C267.004,-285.733 289.31,-279.446 310.481,-274.082"/>
<polygon fill="midnightblue" stroke="midnightblue" points="311.57,-277.418 320.431,-271.609 309.882,-270.624 311.57,-277.418"/>
</g>
<!-- Node14 -->
<g id="node14" class="node"><title>Node14</title>
<g id="a_node14"><a xlink:href="classprior__hessian_1_1ParetoDist.html#a74af41636088b6c727107c60dd9c81b2" target="_top" xlink:title="prior_hessian::ParetoDist\l::median">
<polygon fill="white" stroke="black" points="320.5,-201.5 320.5,-229.5 440.5,-229.5 440.5,-201.5 320.5,-201.5"/>
<text text-anchor="start" x="328.5" y="-218.3" font-family="Helvetica,sans-Serif" font-size="9.00">prior_hessian::ParetoDist</text>
<text text-anchor="middle" x="380.5" y="-208.3" font-family="Helvetica,sans-Serif" font-size="9.00">::median</text>
</a>
</g>
</g>
<!-- Node2&#45;&gt;Node14 -->
<g id="edge23" class="edge"><title>Node2&#45;&gt;Node14</title>
<path fill="none" stroke="midnightblue" d="M226.922,-291.486C242.325,-275.474 273.461,-250.592 311.035,-230.379"/>
<polygon fill="midnightblue" stroke="midnightblue" points="312.936,-233.335 320.191,-225.615 309.705,-227.126 312.936,-233.335"/>
</g>
<!-- Node15 -->
<g id="node15" class="node"><title>Node15</title>
<g id="a_node15"><a xlink:href="classprior__hessian_1_1ParetoDist.html#af5791e2cef16b34e1bbdeec24b13d22e" target="_top" xlink:title="prior_hessian::ParetoDist\l::params">
<polygon fill="white" stroke="black" points="320.5,-154.5 320.5,-182.5 440.5,-182.5 440.5,-154.5 320.5,-154.5"/>
<text text-anchor="start" x="328.5" y="-171.3" font-family="Helvetica,sans-Serif" font-size="9.00">prior_hessian::ParetoDist</text>
<text text-anchor="middle" x="380.5" y="-161.3" font-family="Helvetica,sans-Serif" font-size="9.00">::params</text>
</a>
</g>
</g>
<!-- Node2&#45;&gt;Node15 -->
<g id="edge26" class="edge"><title>Node2&#45;&gt;Node15</title>
<path fill="none" stroke="midnightblue" d="M222.362,-291.393C234.402,-266.805 265.647,-217.609 312.148,-183.239"/>
<polygon fill="midnightblue" stroke="midnightblue" points="314.222,-186.059 320.371,-177.43 310.184,-180.341 314.222,-186.059"/>
</g>
<!-- Node17 -->
<g id="node17" class="node"><title>Node17</title>
<g id="a_node17"><a xlink:href="classprior__hessian_1_1ParetoDist.html#a07cc43c2b299fc07660684f34f32d4ee" target="_top" xlink:title="prior_hessian::ParetoDist::pdf">
<polygon fill="white" stroke="black" points="312,-117.5 312,-135.5 449,-135.5 449,-117.5 312,-117.5"/>
<text text-anchor="middle" x="380.5" y="-124.3" font-family="Helvetica,sans-Serif" font-size="9.00">prior_hessian::ParetoDist::pdf</text>
</a>
</g>
</g>
<!-- Node2&#45;&gt;Node17 -->
<g id="edge30" class="edge"><title>Node2&#45;&gt;Node17</title>
<path fill="none" stroke="midnightblue" d="M219.967,-291.256C228.373,-259.623 254.957,-184.936 303.674,-142.297"/>
<polygon fill="midnightblue" stroke="midnightblue" points="306.163,-144.783 311.684,-135.741 301.729,-139.367 306.163,-144.783"/>
</g>
<!-- Node18 -->
<g id="node18" class="node"><title>Node18</title>
<g id="a_node18"><a xlink:href="classprior__hessian_1_1ParetoDist.html#ac755ccef13fd2552861c27bf6c1cc29d" target="_top" xlink:title="prior_hessian::ParetoDist\l::set_lbound">
<polygon fill="white" stroke="black" points="320.5,-70.5 320.5,-98.5 440.5,-98.5 440.5,-70.5 320.5,-70.5"/>
<text text-anchor="start" x="328.5" y="-87.3" font-family="Helvetica,sans-Serif" font-size="9.00">prior_hessian::ParetoDist</text>
<text text-anchor="middle" x="380.5" y="-77.3" font-family="Helvetica,sans-Serif" font-size="9.00">::set_lbound</text>
</a>
</g>
</g>
<!-- Node2&#45;&gt;Node18 -->
<g id="edge34" class="edge"><title>Node2&#45;&gt;Node18</title>
<path fill="none" stroke="midnightblue" d="M219.791,-291.497C227.665,-255.608 253.402,-159.511 312,-107.5 313.337,-106.313 314.737,-105.188 316.191,-104.119"/>
<polygon fill="midnightblue" stroke="midnightblue" points="318.382,-106.878 325.007,-98.6098 314.672,-100.941 318.382,-106.878"/>
</g>
<!-- Node19 -->
<g id="node19" class="node"><title>Node19</title>
<g id="a_node19"><a xlink:href="classprior__hessian_1_1ParetoDist.html#abc9e60af487bda1a9ec5f7e55e38682c" target="_top" xlink:title="prior_hessian::ParetoDist\l::set_params_iter">
<polygon fill="white" stroke="black" points="320.5,-23.5 320.5,-51.5 440.5,-51.5 440.5,-23.5 320.5,-23.5"/>
<text text-anchor="start" x="328.5" y="-40.3" font-family="Helvetica,sans-Serif" font-size="9.00">prior_hessian::ParetoDist</text>
<text text-anchor="middle" x="380.5" y="-30.3" font-family="Helvetica,sans-Serif" font-size="9.00">::set_params_iter</text>
</a>
</g>
</g>
<!-- Node2&#45;&gt;Node19 -->
<g id="edge35" class="edge"><title>Node2&#45;&gt;Node19</title>
<path fill="none" stroke="midnightblue" d="M218.369,-291.333C223.135,-249.781 242.701,-126.981 312,-60.5 313.117,-59.4287 314.285,-58.4071 315.498,-57.433"/>
<polygon fill="midnightblue" stroke="midnightblue" points="317.72,-60.1566 324.061,-51.669 313.811,-54.3496 317.72,-60.1566"/>
</g>
<!-- Node3&#45;&gt;Node2 -->
<g id="edge4" class="edge"><title>Node3&#45;&gt;Node2</title>
<path fill="none" stroke="midnightblue" d="M313.084,-580.479C312.718,-580.158 312.356,-579.832 312,-579.5 239.085,-511.507 222.052,-383.611 218.141,-329.897"/>
<polygon fill="midnightblue" stroke="midnightblue" points="221.615,-329.368 217.491,-319.609 214.629,-329.81 221.615,-329.368"/>
</g>
<!-- Node4 -->
<g id="node4" class="node"><title>Node4</title>
<g id="a_node4"><a xlink:href="classprior__hessian_1_1ParetoDist.html#ac610ecf8ce6df7b8b48c383e89706b80" target="_top" xlink:title="prior_hessian::ParetoDist\l::alpha">
<polygon fill="white" stroke="black" points="661,-338.5 661,-366.5 781,-366.5 781,-338.5 661,-338.5"/>
<text text-anchor="start" x="669" y="-355.3" font-family="Helvetica,sans-Serif" font-size="9.00">prior_hessian::ParetoDist</text>
<text text-anchor="middle" x="721" y="-345.3" font-family="Helvetica,sans-Serif" font-size="9.00">::alpha</text>
</a>
</g>
</g>
<!-- Node3&#45;&gt;Node4 -->
<g id="edge3" class="edge"><title>Node3&#45;&gt;Node4</title>
<path fill="none" stroke="midnightblue" d="M415.777,-598.503C466.465,-609.672 562.176,-622.316 625,-578.5 693.175,-530.952 712.62,-424.431 718.008,-376.581"/>
<polygon fill="midnightblue" stroke="midnightblue" points="721.501,-376.825 719.028,-366.523 714.537,-376.119 721.501,-376.825"/>
</g>
<!-- Node6 -->
<g id="node6" class="node"><title>Node6</title>
<g id="a_node6"><a xlink:href="classprior__hessian_1_1ParetoDist.html#abac82051de116baf787e442c705e96c3" target="_top" xlink:title="prior_hessian::ParetoDist\l::check_params">
<polygon fill="white" stroke="black" points="495,-541.5 495,-569.5 615,-569.5 615,-541.5 495,-541.5"/>
<text text-anchor="start" x="503" y="-558.3" font-family="Helvetica,sans-Serif" font-size="9.00">prior_hessian::ParetoDist</text>
<text text-anchor="middle" x="555" y="-548.3" font-family="Helvetica,sans-Serif" font-size="9.00">::check_params</text>
</a>
</g>
</g>
<!-- Node5&#45;&gt;Node6 -->
<g id="edge6" class="edge"><title>Node5&#45;&gt;Node6</title>
<path fill="none" stroke="midnightblue" d="M440.865,-550.253C454.902,-550.904 469.996,-551.604 484.44,-552.274"/>
<polygon fill="midnightblue" stroke="midnightblue" points="484.667,-555.788 494.818,-552.755 484.991,-548.796 484.667,-555.788"/>
</g>
<!-- Node7&#45;&gt;Node4 -->
<g id="edge8" class="edge"><title>Node7&#45;&gt;Node4</title>
<path fill="none" stroke="midnightblue" d="M607.901,-494.418C613.957,-491.646 619.815,-488.367 625,-484.5 664.244,-455.229 693.91,-405.051 708.968,-375.717"/>
<polygon fill="midnightblue" stroke="midnightblue" points="712.17,-377.139 713.508,-366.629 705.908,-374.011 712.17,-377.139"/>
</g>
<!-- Node8&#45;&gt;Node4 -->
<g id="edge10" class="edge"><title>Node8&#45;&gt;Node4</title>
<path fill="none" stroke="midnightblue" d="M604.24,-447.484C611.412,-444.62 618.552,-441.298 625,-437.5 654.33,-420.224 682.709,-393.024 700.692,-374.061"/>
<polygon fill="midnightblue" stroke="midnightblue" points="703.256,-376.444 707.509,-366.74 698.133,-371.674 703.256,-376.444"/>
</g>
<!-- Node9&#45;&gt;Node4 -->
<g id="edge12" class="edge"><title>Node9&#45;&gt;Node4</title>
<path fill="none" stroke="midnightblue" d="M593.214,-400.431C617.013,-391.434 648.073,-379.692 673.493,-370.082"/>
<polygon fill="midnightblue" stroke="midnightblue" points="674.817,-373.323 682.933,-366.513 672.342,-366.776 674.817,-373.323"/>
</g>
<!-- Node10&#45;&gt;Node2 -->
<g id="edge15" class="edge"><title>Node10&#45;&gt;Node2</title>
<path fill="none" stroke="midnightblue" d="M320.332,-374.199C317.495,-373.001 314.704,-371.764 312,-370.5 285.076,-357.919 255.875,-340.006 237.057,-325.846"/>
<polygon fill="midnightblue" stroke="midnightblue" points="239.206,-323.083 229.187,-319.637 234.87,-328.579 239.206,-323.083"/>
</g>
<!-- Node10&#45;&gt;Node4 -->
<g id="edge14" class="edge"><title>Node10&#45;&gt;Node4</title>
<path fill="none" stroke="midnightblue" d="M440.85,-379.714C499.403,-374.006 588.874,-365.283 650.666,-359.259"/>
<polygon fill="midnightblue" stroke="midnightblue" points="651.105,-362.733 660.719,-358.279 650.426,-355.766 651.105,-362.733"/>
</g>
<!-- Node11&#45;&gt;Node2 -->
<g id="edge18" class="edge"><title>Node11&#45;&gt;Node2</title>
<path fill="none" stroke="midnightblue" d="M313.488,-334.707C296.426,-330.958 278.433,-326.582 262.668,-322.317"/>
<polygon fill="midnightblue" stroke="midnightblue" points="263.233,-318.842 252.661,-319.539 261.36,-325.587 263.233,-318.842"/>
</g>
<!-- Node11&#45;&gt;Node4 -->
<g id="edge17" class="edge"><title>Node11&#45;&gt;Node4</title>
<path fill="none" stroke="midnightblue" d="M447.57,-345.257C506.135,-346.814 591.354,-349.08 650.835,-350.661"/>
<polygon fill="midnightblue" stroke="midnightblue" points="650.8,-354.161 660.89,-350.928 650.986,-347.164 650.8,-354.161"/>
</g>
<!-- Node11&#45;&gt;Node12 -->
<g id="edge19" class="edge"><title>Node11&#45;&gt;Node12</title>
<path fill="none" stroke="midnightblue" d="M411.154,-334.389C435.127,-327.023 469.544,-316.449 498.588,-307.525"/>
<polygon fill="midnightblue" stroke="midnightblue" points="499.678,-310.852 508.209,-304.569 497.622,-304.16 499.678,-310.852"/>
</g>
<!-- Node12&#45;&gt;Node4 -->
<g id="edge20" class="edge"><title>Node12&#45;&gt;Node4</title>
<path fill="none" stroke="midnightblue" d="M593.214,-304.569C617.013,-313.566 648.073,-325.308 673.493,-334.918"/>
<polygon fill="midnightblue" stroke="midnightblue" points="672.342,-338.224 682.933,-338.487 674.817,-331.677 672.342,-338.224"/>
</g>
<!-- Node13&#45;&gt;Node2 -->
<g id="edge22" class="edge"><title>Node13&#45;&gt;Node2</title>
<path fill="none" stroke="midnightblue" d="M347.098,-276.595C329.591,-282.239 307.273,-288.532 286.084,-293.902"/>
<polygon fill="midnightblue" stroke="midnightblue" points="284.986,-290.568 276.126,-296.377 286.675,-297.361 284.986,-290.568"/>
</g>
<!-- Node14&#45;&gt;Node2 -->
<g id="edge25" class="edge"><title>Node14&#45;&gt;Node2</title>
<path fill="none" stroke="midnightblue" d="M356.026,-229.597C342.731,-234.644 326.009,-240.361 312,-247.5 291.022,-258.191 269.434,-273.053 252.15,-285.211"/>
<polygon fill="midnightblue" stroke="midnightblue" points="249.687,-282.665 243.529,-291.287 253.719,-288.387 249.687,-282.665"/>
</g>
<!-- Node14&#45;&gt;Node4 -->
<g id="edge24" class="edge"><title>Node14&#45;&gt;Node4</title>
<path fill="none" stroke="midnightblue" d="M440.697,-219.185C491.872,-224.352 566.596,-236.753 625,-266.5 656.014,-282.296 684.6,-310.904 702.144,-330.765"/>
<polygon fill="midnightblue" stroke="midnightblue" points="699.563,-333.131 708.744,-338.419 704.865,-328.56 699.563,-333.131"/>
</g>
<!-- Node15&#45;&gt;Node2 -->
<g id="edge28" class="edge"><title>Node15&#45;&gt;Node2</title>
<path fill="none" stroke="midnightblue" d="M351.304,-182.59C338.546,-186.974 323.733,-192.435 312,-200.5 279.62,-222.759 252.103,-258.958 235.147,-282.684"/>
<polygon fill="midnightblue" stroke="midnightblue" points="232.102,-280.928 229.178,-291.111 237.814,-284.974 232.102,-280.928"/>
</g>
<!-- Node15&#45;&gt;Node4 -->
<g id="edge27" class="edge"><title>Node15&#45;&gt;Node4</title>
<path fill="none" stroke="midnightblue" d="M440.592,-170.047C492.903,-173.962 569.365,-186.131 625,-222.5 665.571,-249.022 694.766,-299.257 709.383,-328.914"/>
<polygon fill="midnightblue" stroke="midnightblue" points="706.31,-330.602 713.776,-338.119 712.627,-327.587 706.31,-330.602"/>
</g>
<!-- Node16 -->
<g id="node16" class="node"><title>Node16</title>
<g id="a_node16"><a xlink:href="classprior__hessian_1_1ParetoDist.html#a218ebbdec10fbdfcaabdd79dd180b39e" target="_top" xlink:title="prior_hessian::ParetoDist\l::set_params">
<polygon fill="white" stroke="black" points="495,-117.5 495,-145.5 615,-145.5 615,-117.5 495,-117.5"/>
<text text-anchor="start" x="503" y="-134.3" font-family="Helvetica,sans-Serif" font-size="9.00">prior_hessian::ParetoDist</text>
<text text-anchor="middle" x="555" y="-124.3" font-family="Helvetica,sans-Serif" font-size="9.00">::set_params</text>
</a>
</g>
</g>
<!-- Node15&#45;&gt;Node16 -->
<g id="edge29" class="edge"><title>Node15&#45;&gt;Node16</title>
<path fill="none" stroke="midnightblue" d="M440.865,-155.767C455.039,-152.726 470.289,-149.455 484.86,-146.33"/>
<polygon fill="midnightblue" stroke="midnightblue" points="485.775,-149.714 494.818,-144.194 484.307,-142.869 485.775,-149.714"/>
</g>
<!-- Node17&#45;&gt;Node2 -->
<g id="edge31" class="edge"><title>Node17&#45;&gt;Node2</title>
<path fill="none" stroke="midnightblue" d="M358.505,-135.516C344.175,-138.878 325.429,-143.309 312,-153.5 267.719,-187.104 240.165,-247.813 226.777,-281.619"/>
<polygon fill="midnightblue" stroke="midnightblue" points="223.42,-280.597 223.075,-291.187 229.948,-283.124 223.42,-280.597"/>
</g>
<!-- Node19&#45;&gt;Node4 -->
<g id="edge39" class="edge"><title>Node19&#45;&gt;Node4</title>
<path fill="none" stroke="midnightblue" d="M440.633,-48.24C503.666,-60.7502 598.049,-82.8716 625,-107.5 691.062,-167.87 711.662,-279.576 717.683,-328.497"/>
<polygon fill="midnightblue" stroke="midnightblue" points="714.21,-328.927 718.813,-338.47 721.165,-328.14 714.21,-328.927"/>
</g>
<!-- Node19&#45;&gt;Node16 -->
<g id="edge40" class="edge"><title>Node19&#45;&gt;Node16</title>
<path fill="none" stroke="midnightblue" d="M430.871,-51.6382C437.156,-54.2071 443.356,-57.1536 449,-60.5 467.67,-71.5694 467.368,-80.8414 485,-93.5 494.623,-100.409 505.634,-106.993 515.992,-112.682"/>
<polygon fill="midnightblue" stroke="midnightblue" points="514.407,-115.803 524.875,-117.435 517.71,-109.631 514.407,-115.803"/>
</g>
<!-- Node20 -->
<g id="node20" class="node"><title>Node20</title>
<g id="a_node20"><a xlink:href="classprior__hessian_1_1ParetoDist.html#acef10b17c003468838f548ed255d7e1f" target="_top" xlink:title="prior_hessian::ParetoDist::min">
<polygon fill="white" stroke="black" points="485,-28.5 485,-46.5 625,-46.5 625,-28.5 485,-28.5"/>
<text text-anchor="middle" x="555" y="-35.3" font-family="Helvetica,sans-Serif" font-size="9.00">prior_hessian::ParetoDist::min</text>
</a>
</g>
</g>
<!-- Node19&#45;&gt;Node20 -->
<g id="edge36" class="edge"><title>Node19&#45;&gt;Node20</title>
<path fill="none" stroke="midnightblue" d="M440.865,-37.5C451.684,-37.5 463.13,-37.5 474.423,-37.5"/>
<polygon fill="midnightblue" stroke="midnightblue" points="474.729,-41.0001 484.729,-37.5 474.729,-34.0001 474.729,-41.0001"/>
</g>
<!-- Node21 -->
<g id="node21" class="node"><title>Node21</title>
<g id="a_node21"><a xlink:href="classprior__hessian_1_1ParetoDist.html#a5c2b026477495e3fc91a1cfb653d8a97" target="_top" xlink:title="prior_hessian::ParetoDist\l::set_alpha">
<polygon fill="white" stroke="black" points="661,-47.5 661,-75.5 781,-75.5 781,-47.5 661,-47.5"/>
<text text-anchor="start" x="669" y="-64.3" font-family="Helvetica,sans-Serif" font-size="9.00">prior_hessian::ParetoDist</text>
<text text-anchor="middle" x="721" y="-54.3" font-family="Helvetica,sans-Serif" font-size="9.00">::set_alpha</text>
</a>
</g>
</g>
<!-- Node20&#45;&gt;Node21 -->
<g id="edge37" class="edge"><title>Node20&#45;&gt;Node21</title>
<path fill="none" stroke="midnightblue" d="M617.534,-46.505C628.39,-48.0936 639.757,-49.7571 650.806,-51.374"/>
<polygon fill="midnightblue" stroke="midnightblue" points="650.438,-54.8574 660.839,-52.8423 651.452,-47.9311 650.438,-54.8574"/>
</g>
<!-- Node22 -->
<g id="node22" class="node"><title>Node22</title>
<g id="a_node22"><a xlink:href="classprior__hessian_1_1ParetoDist.html#ace279cdfa7dbdcd8805ddb2ec4b46ee2" target="_top" xlink:title="prior_hessian::ParetoDist\l::set_min">
<polygon fill="white" stroke="black" points="661,-0.5 661,-28.5 781,-28.5 781,-0.5 661,-0.5"/>
<text text-anchor="start" x="669" y="-17.3" font-family="Helvetica,sans-Serif" font-size="9.00">prior_hessian::ParetoDist</text>
<text text-anchor="middle" x="721" y="-7.3" font-family="Helvetica,sans-Serif" font-size="9.00">::set_min</text>
</a>
</g>
</g>
<!-- Node20&#45;&gt;Node22 -->
<g id="edge38" class="edge"><title>Node20&#45;&gt;Node22</title>
<path fill="none" stroke="midnightblue" d="M620.346,-28.4758C630.375,-27.0694 640.773,-25.6112 650.901,-24.1907"/>
<polygon fill="midnightblue" stroke="midnightblue" points="651.499,-27.6411 660.916,-22.7861 650.527,-20.709 651.499,-27.6411"/>
</g>
</g>
</svg>
