<?xml version="1.0" encoding="UTF-8" standalone="no"?>
<!DOCTYPE svg PUBLIC "-//W3C//DTD SVG 1.1//EN"
 "http://www.w3.org/Graphics/SVG/1.1/DTD/svg11.dtd">
<!-- Generated by graphviz version 2.38.0 (20140413.2041)
 -->
<!-- Title: prior_hessian::ParetoDist::lbound Pages: 1 -->
<!--zoomable 665 -->
<svg id="main" version="1.1" xmlns="http://www.w3.org/2000/svg" xmlns:xlink="http://www.w3.org/1999/xlink" xml:space="preserve" onload="init(evt)">
<style type="text/css"><![CDATA[
.edge:hover path { stroke: red; }
.edge:hover polygon { stroke: red; fill: red; }
]]></style>
<script type="text/javascript"><![CDATA[
var edges = document.getElementsByTagName('g');
if (edges && edges.length) {
  for (var i=0;i<edges.length;i++) {
    if (edges[i].id.substr(0,4)=='edge') {
      edges[i].setAttribute('class','edge');
    }
  }
}
]]></script>
        <defs>
                <circle id="rim" cx="0" cy="0" r="7"/>
                <circle id="rim2" cx="0" cy="0" r="3.5"/>
                <g id="zoomPlus">
                        <use xlink:href="#rim" fill="#404040">
                                <set attributeName="fill" to="#808080" begin="zoomplus.mouseover" end="zoomplus.mouseout"/>
                        </use>
                        <path d="M-4,0h8M0,-4v8" fill="none" stroke="white" stroke-width="1.5" pointer-events="none"/>
                </g>
                <g id="zoomMin">
                        <use xlink:href="#rim" fill="#404040">
                                <set attributeName="fill" to="#808080" begin="zoomminus.mouseover" end="zoomminus.mouseout"/>
                        </use>
                        <path d="M-4,0h8" fill="none" stroke="white" stroke-width="1.5" pointer-events="none"/>
                </g>
                <g id="dirArrow">
                        <path fill="none" stroke="white" stroke-width="1.5" d="M0,-3.0v7 M-2.5,-0.5L0,-3.0L2.5,-0.5"/>
                </g>
               <g id="resetDef">
                       <use xlink:href="#rim2" fill="#404040">
                               <set attributeName="fill" to="#808080" begin="reset.mouseover" end="reset.mouseout"/>
                       </use>
               </g>
        </defs>

<script type="text/javascript">
var viewWidth = 633;
var viewHeight = 665;
var sectionId = 'dynsection-24';
</script>
<script xlink:href="svgpan.js"/>
<svg id="graph" class="graph">
<g id="viewport">
<title>prior_hessian::ParetoDist::lbound</title>
<polygon fill="white" stroke="none" points="-4,4 -4,-660.581 629,-660.581 629,4 -4,4"/>
<!-- Node1 -->
<g id="node1" class="node"><title>Node1</title>
<polygon fill="#bfbfbf" stroke="black" points="0,-295.5 0,-323.5 120,-323.5 120,-295.5 0,-295.5"/>
<text text-anchor="start" x="8" y="-312.3" font-family="Helvetica,sans-Serif" font-size="9.00">prior_hessian::ParetoDist</text>
<text text-anchor="middle" x="60" y="-302.3" font-family="Helvetica,sans-Serif" font-size="9.00">::lbound</text>
</g>
<!-- Node2 -->
<g id="node2" class="node"><title>Node2</title>
<g id="a_node2"><a xlink:href="classprior__hessian_1_1ParetoDist.html#afe706cb12ce6f667e7a3a9eb7311ef65" target="_top" xlink:title="prior_hessian::ParetoDist::cdf">
<polygon fill="white" stroke="black" points="156,-627.5 156,-645.5 293,-645.5 293,-627.5 156,-627.5"/>
<text text-anchor="middle" x="224.5" y="-634.3" font-family="Helvetica,sans-Serif" font-size="9.00">prior_hessian::ParetoDist::cdf</text>
</a>
</g>
</g>
<!-- Node1&#45;&gt;Node2 -->
<g id="edge1" class="edge"><title>Node1&#45;&gt;Node2</title>
<path fill="none" stroke="midnightblue" d="M60.9518,-323.78C61.8436,-371.754 71.8826,-526.443 156,-608.5 164.762,-617.048 177.054,-621.812 188.751,-624.991"/>
<polygon fill="midnightblue" stroke="midnightblue" points="188.23,-628.466 198.774,-627.433 189.887,-621.665 188.23,-628.466"/>
</g>
<!-- Node4 -->
<g id="node4" class="node"><title>Node4</title>
<g id="a_node4"><a xlink:href="classprior__hessian_1_1ParetoDist.html#a0923e8b25145eed6042aa933aa4354e5" target="_top" xlink:title="prior_hessian::ParetoDist\l::check_params_iter">
<polygon fill="white" stroke="black" points="164.5,-580.5 164.5,-608.5 284.5,-608.5 284.5,-580.5 164.5,-580.5"/>
<text text-anchor="start" x="172.5" y="-597.3" font-family="Helvetica,sans-Serif" font-size="9.00">prior_hessian::ParetoDist</text>
<text text-anchor="middle" x="224.5" y="-587.3" font-family="Helvetica,sans-Serif" font-size="9.00">::check_params_iter</text>
</a>
</g>
</g>
<!-- Node1&#45;&gt;Node4 -->
<g id="edge4" class="edge"><title>Node1&#45;&gt;Node4</title>
<path fill="none" stroke="midnightblue" d="M62.3853,-323.73C67.2322,-366.105 87.0767,-493.009 156,-565.5 159.535,-569.218 163.625,-572.483 168.008,-575.346"/>
<polygon fill="midnightblue" stroke="midnightblue" points="166.319,-578.412 176.732,-580.37 169.813,-572.346 166.319,-578.412"/>
</g>
<!-- Node6 -->
<g id="node6" class="node"><title>Node6</title>
<g id="a_node6"><a xlink:href="classprior__hessian_1_1ParetoDist.html#a3f802550dfcad6f0e3a8ca2e93709fe9" target="_top" xlink:title="prior_hessian::ParetoDist\l::grad">
<polygon fill="white" stroke="black" points="339,-541.5 339,-569.5 459,-569.5 459,-541.5 339,-541.5"/>
<text text-anchor="start" x="347" y="-558.3" font-family="Helvetica,sans-Serif" font-size="9.00">prior_hessian::ParetoDist</text>
<text text-anchor="middle" x="399" y="-548.3" font-family="Helvetica,sans-Serif" font-size="9.00">::grad</text>
</a>
</g>
</g>
<!-- Node1&#45;&gt;Node6 -->
<g id="edge6" class="edge"><title>Node1&#45;&gt;Node6</title>
<path fill="none" stroke="midnightblue" d="M63.0171,-323.739C69.1856,-361.597 91.4745,-465.209 156,-514.5 205.128,-552.028 276.294,-560.189 328.742,-560.215"/>
<polygon fill="midnightblue" stroke="midnightblue" points="329.004,-563.713 338.97,-560.118 328.937,-556.713 329.004,-563.713"/>
</g>
<!-- Node7 -->
<g id="node7" class="node"><title>Node7</title>
<g id="a_node7"><a xlink:href="classprior__hessian_1_1ParetoDist.html#a24a4aaa7a8edb42009d0fa8390cb4a8f" target="_top" xlink:title="prior_hessian::ParetoDist\l::grad2">
<polygon fill="white" stroke="black" points="339,-494.5 339,-522.5 459,-522.5 459,-494.5 339,-494.5"/>
<text text-anchor="start" x="347" y="-511.3" font-family="Helvetica,sans-Serif" font-size="9.00">prior_hessian::ParetoDist</text>
<text text-anchor="middle" x="399" y="-501.3" font-family="Helvetica,sans-Serif" font-size="9.00">::grad2</text>
</a>
</g>
</g>
<!-- Node1&#45;&gt;Node7 -->
<g id="edge8" class="edge"><title>Node1&#45;&gt;Node7</title>
<path fill="none" stroke="midnightblue" d="M64.0867,-323.715C72.2969,-357.746 98.117,-443.926 156,-482.5 206.684,-516.276 277.013,-520.26 328.796,-517.292"/>
<polygon fill="midnightblue" stroke="midnightblue" points="329.152,-520.776 338.894,-516.613 328.682,-513.792 329.152,-520.776"/>
</g>
<!-- Node8 -->
<g id="node8" class="node"><title>Node8</title>
<g id="a_node8"><a xlink:href="classprior__hessian_1_1ParetoDist.html#a20c3f90ec9ac4b5bfd179a7c97ab36e7" target="_top" xlink:title="prior_hessian::ParetoDist\l::grad_grad2_accumulate">
<polygon fill="white" stroke="black" points="338,-447.5 338,-475.5 460,-475.5 460,-447.5 338,-447.5"/>
<text text-anchor="start" x="346" y="-464.3" font-family="Helvetica,sans-Serif" font-size="9.00">prior_hessian::ParetoDist</text>
<text text-anchor="middle" x="399" y="-454.3" font-family="Helvetica,sans-Serif" font-size="9.00">::grad_grad2_accumulate</text>
</a>
</g>
</g>
<!-- Node1&#45;&gt;Node8 -->
<g id="edge10" class="edge"><title>Node1&#45;&gt;Node8</title>
<path fill="none" stroke="midnightblue" d="M65.2177,-323.627C75.1984,-354.21 103.46,-426.155 156,-455.5 208.2,-484.655 277.119,-483.258 328.054,-476.263"/>
<polygon fill="midnightblue" stroke="midnightblue" points="328.609,-479.719 337.991,-474.797 327.587,-472.794 328.609,-479.719"/>
</g>
<!-- Node9 -->
<g id="node9" class="node"><title>Node9</title>
<g id="a_node9"><a xlink:href="classprior__hessian_1_1ParetoDist.html#a9d1040a7a5ca261feebe56f42e5698ea" target="_top" xlink:title="prior_hessian::ParetoDist\l::icdf">
<polygon fill="white" stroke="black" points="164.5,-418.5 164.5,-446.5 284.5,-446.5 284.5,-418.5 164.5,-418.5"/>
<text text-anchor="start" x="172.5" y="-435.3" font-family="Helvetica,sans-Serif" font-size="9.00">prior_hessian::ParetoDist</text>
<text text-anchor="middle" x="224.5" y="-425.3" font-family="Helvetica,sans-Serif" font-size="9.00">::icdf</text>
</a>
</g>
</g>
<!-- Node1&#45;&gt;Node9 -->
<g id="edge12" class="edge"><title>Node1&#45;&gt;Node9</title>
<path fill="none" stroke="midnightblue" d="M76.2774,-323.817C93.4304,-343.628 123.191,-378.293 156,-399.5 165.757,-405.806 177.38,-410.706 188.208,-414.823"/>
<polygon fill="midnightblue" stroke="midnightblue" points="187.26,-418.204 197.853,-418.401 189.695,-411.641 187.26,-418.204"/>
</g>
<!-- Node10 -->
<g id="node10" class="node"><title>Node10</title>
<g id="a_node10"><a xlink:href="classprior__hessian_1_1ParetoDist.html#a0f7ee813a098cd3fc9c7669cda6a340c" target="_top" xlink:title="prior_hessian::ParetoDist::llh">
<polygon fill="white" stroke="black" points="157.5,-381.5 157.5,-399.5 291.5,-399.5 291.5,-381.5 157.5,-381.5"/>
<text text-anchor="middle" x="224.5" y="-388.3" font-family="Helvetica,sans-Serif" font-size="9.00">prior_hessian::ParetoDist::llh</text>
</a>
</g>
</g>
<!-- Node1&#45;&gt;Node10 -->
<g id="edge15" class="edge"><title>Node1&#45;&gt;Node10</title>
<path fill="none" stroke="midnightblue" d="M94.3952,-323.743C112.209,-334.069 134.78,-347.484 156,-357.5 171.595,-364.861 190.099,-371.289 203.785,-377.065"/>
<polygon fill="midnightblue" stroke="midnightblue" points="202.634,-380.387 213.184,-381.36 205.543,-374.02 202.634,-380.387"/>
</g>
<!-- Node11 -->
<g id="node11" class="node"><title>Node11</title>
<g id="a_node11"><a xlink:href="classprior__hessian_1_1ParetoDist.html#a609ed75305325062ebd80dcfaa487c69" target="_top" xlink:title="prior_hessian::ParetoDist\l::rllh">
<polygon fill="white" stroke="black" points="339,-323.5 339,-351.5 459,-351.5 459,-323.5 339,-323.5"/>
<text text-anchor="start" x="347" y="-340.3" font-family="Helvetica,sans-Serif" font-size="9.00">prior_hessian::ParetoDist</text>
<text text-anchor="middle" x="399" y="-330.3" font-family="Helvetica,sans-Serif" font-size="9.00">::rllh</text>
</a>
</g>
</g>
<!-- Node1&#45;&gt;Node11 -->
<g id="edge31" class="edge"><title>Node1&#45;&gt;Node11</title>
<path fill="none" stroke="midnightblue" d="M110.416,-323.611C124.977,-327.183 141.023,-330.556 156,-332.5 213.775,-340 279.948,-340.843 328.478,-340.04"/>
<polygon fill="midnightblue" stroke="midnightblue" points="328.626,-343.538 338.557,-339.845 328.491,-336.539 328.626,-343.538"/>
</g>
<!-- Node12 -->
<g id="node12" class="node"><title>Node12</title>
<g id="a_node12"><a xlink:href="classprior__hessian_1_1ParetoDist.html#a0a1e20b0aa6c7b52c134fc2341b5fdd4" target="_top" xlink:title="prior_hessian::ParetoDist\l::mean">
<polygon fill="white" stroke="black" points="164.5,-295.5 164.5,-323.5 284.5,-323.5 284.5,-295.5 164.5,-295.5"/>
<text text-anchor="start" x="172.5" y="-312.3" font-family="Helvetica,sans-Serif" font-size="9.00">prior_hessian::ParetoDist</text>
<text text-anchor="middle" x="224.5" y="-302.3" font-family="Helvetica,sans-Serif" font-size="9.00">::mean</text>
</a>
</g>
</g>
<!-- Node1&#45;&gt;Node12 -->
<g id="edge20" class="edge"><title>Node1&#45;&gt;Node12</title>
<path fill="none" stroke="midnightblue" d="M120.126,-302.978C131.173,-302.745 142.811,-302.691 154.134,-302.815"/>
<polygon fill="midnightblue" stroke="midnightblue" points="154.364,-306.319 164.418,-302.978 154.475,-299.319 154.364,-306.319"/>
</g>
<!-- Node13 -->
<g id="node13" class="node"><title>Node13</title>
<g id="a_node13"><a xlink:href="classprior__hessian_1_1ParetoDist.html#a74af41636088b6c727107c60dd9c81b2" target="_top" xlink:title="prior_hessian::ParetoDist\l::median">
<polygon fill="white" stroke="black" points="164.5,-248.5 164.5,-276.5 284.5,-276.5 284.5,-248.5 164.5,-248.5"/>
<text text-anchor="start" x="172.5" y="-265.3" font-family="Helvetica,sans-Serif" font-size="9.00">prior_hessian::ParetoDist</text>
<text text-anchor="middle" x="224.5" y="-255.3" font-family="Helvetica,sans-Serif" font-size="9.00">::median</text>
</a>
</g>
</g>
<!-- Node1&#45;&gt;Node13 -->
<g id="edge22" class="edge"><title>Node1&#45;&gt;Node13</title>
<path fill="none" stroke="midnightblue" d="M91.1842,-295.382C109.014,-289.114 132.36,-281.93 154.471,-275.784"/>
<polygon fill="midnightblue" stroke="midnightblue" points="155.461,-279.142 164.184,-273.129 153.616,-272.389 155.461,-279.142"/>
</g>
<!-- Node14 -->
<g id="node14" class="node"><title>Node14</title>
<g id="a_node14"><a xlink:href="classprior__hessian_1_1ParetoDist.html#af5791e2cef16b34e1bbdeec24b13d22e" target="_top" xlink:title="prior_hessian::ParetoDist\l::params">
<polygon fill="white" stroke="black" points="164.5,-201.5 164.5,-229.5 284.5,-229.5 284.5,-201.5 164.5,-201.5"/>
<text text-anchor="start" x="172.5" y="-218.3" font-family="Helvetica,sans-Serif" font-size="9.00">prior_hessian::ParetoDist</text>
<text text-anchor="middle" x="224.5" y="-208.3" font-family="Helvetica,sans-Serif" font-size="9.00">::params</text>
</a>
</g>
</g>
<!-- Node1&#45;&gt;Node14 -->
<g id="edge25" class="edge"><title>Node1&#45;&gt;Node14</title>
<path fill="none" stroke="midnightblue" d="M70.5607,-295.228C85.796,-278.34 117.11,-251.562 155.633,-230.132"/>
<polygon fill="midnightblue" stroke="midnightblue" points="157.343,-233.186 164.493,-225.368 154.028,-227.021 157.343,-233.186"/>
</g>
<!-- Node16 -->
<g id="node16" class="node"><title>Node16</title>
<g id="a_node16"><a xlink:href="classprior__hessian_1_1ParetoDist.html#a07cc43c2b299fc07660684f34f32d4ee" target="_top" xlink:title="prior_hessian::ParetoDist::pdf">
<polygon fill="white" stroke="black" points="156,-164.5 156,-182.5 293,-182.5 293,-164.5 156,-164.5"/>
<text text-anchor="middle" x="224.5" y="-171.3" font-family="Helvetica,sans-Serif" font-size="9.00">prior_hessian::ParetoDist::pdf</text>
</a>
</g>
</g>
<!-- Node1&#45;&gt;Node16 -->
<g id="edge29" class="edge"><title>Node1&#45;&gt;Node16</title>
<path fill="none" stroke="midnightblue" d="M65.9534,-295.253C77.2852,-269.932 107.259,-218.646 147.547,-188.421"/>
<polygon fill="midnightblue" stroke="midnightblue" points="149.565,-191.28 155.739,-182.67 145.543,-185.55 149.565,-191.28"/>
</g>
<!-- Node17 -->
<g id="node17" class="node"><title>Node17</title>
<g id="a_node17"><a xlink:href="classprior__hessian_1_1ParetoDist.html#abe706f0786b5e8ef20b7caff07ffad0c" target="_top" xlink:title="prior_hessian::ParetoDist\l::sample">
<polygon fill="white" stroke="black" points="164.5,-117.5 164.5,-145.5 284.5,-145.5 284.5,-117.5 164.5,-117.5"/>
<text text-anchor="start" x="172.5" y="-134.3" font-family="Helvetica,sans-Serif" font-size="9.00">prior_hessian::ParetoDist</text>
<text text-anchor="middle" x="224.5" y="-124.3" font-family="Helvetica,sans-Serif" font-size="9.00">::sample</text>
</a>
</g>
</g>
<!-- Node1&#45;&gt;Node17 -->
<g id="edge32" class="edge"><title>Node1&#45;&gt;Node17</title>
<path fill="none" stroke="midnightblue" d="M64.3601,-295.348C74.0605,-263.202 104.734,-186.507 156,-145.5 156.163,-145.37 156.327,-145.24 156.492,-145.111"/>
<polygon fill="midnightblue" stroke="midnightblue" points="158.041,-148.288 164.36,-139.785 154.117,-142.492 158.041,-148.288"/>
</g>
<!-- Node18 -->
<g id="node18" class="node"><title>Node18</title>
<g id="a_node18"><a xlink:href="classprior__hessian_1_1ParetoDist.html#ac755ccef13fd2552861c27bf6c1cc29d" target="_top" xlink:title="prior_hessian::ParetoDist\l::set_lbound">
<polygon fill="white" stroke="black" points="164.5,-70.5 164.5,-98.5 284.5,-98.5 284.5,-70.5 164.5,-70.5"/>
<text text-anchor="start" x="172.5" y="-87.3" font-family="Helvetica,sans-Serif" font-size="9.00">prior_hessian::ParetoDist</text>
<text text-anchor="middle" x="224.5" y="-77.3" font-family="Helvetica,sans-Serif" font-size="9.00">::set_lbound</text>
</a>
</g>
</g>
<!-- Node1&#45;&gt;Node18 -->
<g id="edge34" class="edge"><title>Node1&#45;&gt;Node18</title>
<path fill="none" stroke="midnightblue" d="M63.647,-295.484C71.2429,-259.091 96.4992,-160.727 156,-107.5 157.332,-106.308 158.729,-105.178 160.178,-104.106"/>
<polygon fill="midnightblue" stroke="midnightblue" points="162.372,-106.861 168.979,-98.5782 158.649,-100.933 162.372,-106.861"/>
</g>
<!-- Node19 -->
<g id="node19" class="node"><title>Node19</title>
<g id="a_node19"><a xlink:href="classprior__hessian_1_1ParetoDist.html#abc9e60af487bda1a9ec5f7e55e38682c" target="_top" xlink:title="prior_hessian::ParetoDist\l::set_params_iter">
<polygon fill="white" stroke="black" points="164.5,-23.5 164.5,-51.5 284.5,-51.5 284.5,-23.5 164.5,-23.5"/>
<text text-anchor="start" x="172.5" y="-40.3" font-family="Helvetica,sans-Serif" font-size="9.00">prior_hessian::ParetoDist</text>
<text text-anchor="middle" x="224.5" y="-30.3" font-family="Helvetica,sans-Serif" font-size="9.00">::set_params_iter</text>
</a>
</g>
</g>
<!-- Node1&#45;&gt;Node19 -->
<g id="edge35" class="edge"><title>Node1&#45;&gt;Node19</title>
<path fill="none" stroke="midnightblue" d="M62.2607,-295.406C66.76,-253.482 85.7335,-128.276 156,-60.5 157.114,-59.4256 158.28,-58.4014 159.49,-57.4248"/>
<polygon fill="midnightblue" stroke="midnightblue" points="161.714,-60.1464 168.041,-51.6483 157.796,-54.3459 161.714,-60.1464"/>
</g>
<!-- Node2&#45;&gt;Node1 -->
<g id="edge3" class="edge"><title>Node2&#45;&gt;Node1</title>
<path fill="none" stroke="midnightblue" d="M156.794,-627.255C156.526,-627.007 156.261,-626.755 156,-626.5 72.8363,-545.374 62.0808,-393.252 60.9858,-333.85"/>
<polygon fill="midnightblue" stroke="midnightblue" points="64.4826,-333.527 60.8776,-323.564 57.483,-333.601 64.4826,-333.527"/>
</g>
<!-- Node3 -->
<g id="node3" class="node"><title>Node3</title>
<g id="a_node3"><a xlink:href="classprior__hessian_1_1ParetoDist.html#ac610ecf8ce6df7b8b48c383e89706b80" target="_top" xlink:title="prior_hessian::ParetoDist\l::alpha">
<polygon fill="white" stroke="black" points="505,-385.5 505,-413.5 625,-413.5 625,-385.5 505,-385.5"/>
<text text-anchor="start" x="513" y="-402.3" font-family="Helvetica,sans-Serif" font-size="9.00">prior_hessian::ParetoDist</text>
<text text-anchor="middle" x="565" y="-392.3" font-family="Helvetica,sans-Serif" font-size="9.00">::alpha</text>
</a>
</g>
</g>
<!-- Node2&#45;&gt;Node3 -->
<g id="edge2" class="edge"><title>Node2&#45;&gt;Node3</title>
<path fill="none" stroke="midnightblue" d="M259.777,-645.503C310.465,-656.672 406.176,-669.316 469,-625.5 537.175,-577.952 556.62,-471.431 562.008,-423.581"/>
<polygon fill="midnightblue" stroke="midnightblue" points="565.501,-423.825 563.028,-413.523 558.537,-423.119 565.501,-423.825"/>
</g>
<!-- Node5 -->
<g id="node5" class="node"><title>Node5</title>
<g id="a_node5"><a xlink:href="classprior__hessian_1_1ParetoDist.html#abac82051de116baf787e442c705e96c3" target="_top" xlink:title="prior_hessian::ParetoDist\l::check_params">
<polygon fill="white" stroke="black" points="339,-588.5 339,-616.5 459,-616.5 459,-588.5 339,-588.5"/>
<text text-anchor="start" x="347" y="-605.3" font-family="Helvetica,sans-Serif" font-size="9.00">prior_hessian::ParetoDist</text>
<text text-anchor="middle" x="399" y="-595.3" font-family="Helvetica,sans-Serif" font-size="9.00">::check_params</text>
</a>
</g>
</g>
<!-- Node4&#45;&gt;Node5 -->
<g id="edge5" class="edge"><title>Node4&#45;&gt;Node5</title>
<path fill="none" stroke="midnightblue" d="M284.865,-597.253C298.902,-597.904 313.996,-598.604 328.44,-599.274"/>
<polygon fill="midnightblue" stroke="midnightblue" points="328.667,-602.788 338.818,-599.755 328.991,-595.796 328.667,-602.788"/>
</g>
<!-- Node6&#45;&gt;Node3 -->
<g id="edge7" class="edge"><title>Node6&#45;&gt;Node3</title>
<path fill="none" stroke="midnightblue" d="M451.901,-541.418C457.957,-538.646 463.815,-535.367 469,-531.5 508.244,-502.229 537.91,-452.051 552.968,-422.717"/>
<polygon fill="midnightblue" stroke="midnightblue" points="556.17,-424.139 557.508,-413.629 549.908,-421.011 556.17,-424.139"/>
</g>
<!-- Node7&#45;&gt;Node3 -->
<g id="edge9" class="edge"><title>Node7&#45;&gt;Node3</title>
<path fill="none" stroke="midnightblue" d="M448.24,-494.484C455.412,-491.62 462.552,-488.298 469,-484.5 498.33,-467.224 526.709,-440.024 544.692,-421.061"/>
<polygon fill="midnightblue" stroke="midnightblue" points="547.256,-423.444 551.509,-413.74 542.133,-418.674 547.256,-423.444"/>
</g>
<!-- Node8&#45;&gt;Node3 -->
<g id="edge11" class="edge"><title>Node8&#45;&gt;Node3</title>
<path fill="none" stroke="midnightblue" d="M437.214,-447.431C461.013,-438.434 492.073,-426.692 517.493,-417.082"/>
<polygon fill="midnightblue" stroke="midnightblue" points="518.817,-420.323 526.933,-413.513 516.342,-413.776 518.817,-420.323"/>
</g>
<!-- Node9&#45;&gt;Node1 -->
<g id="edge14" class="edge"><title>Node9&#45;&gt;Node1</title>
<path fill="none" stroke="midnightblue" d="M164.184,-422.257C161.356,-420.775 158.611,-419.188 156,-417.5 121.054,-394.912 89.5659,-357.055 73.0883,-332.424"/>
<polygon fill="midnightblue" stroke="midnightblue" points="75.8531,-330.249 67.5321,-323.691 69.9471,-334.007 75.8531,-330.249"/>
</g>
<!-- Node9&#45;&gt;Node3 -->
<g id="edge13" class="edge"><title>Node9&#45;&gt;Node3</title>
<path fill="none" stroke="midnightblue" d="M284.85,-426.714C343.403,-421.006 432.874,-412.283 494.666,-406.259"/>
<polygon fill="midnightblue" stroke="midnightblue" points="495.105,-409.733 504.719,-405.279 494.426,-402.766 495.105,-409.733"/>
</g>
<!-- Node10&#45;&gt;Node1 -->
<g id="edge18" class="edge"><title>Node10&#45;&gt;Node1</title>
<path fill="none" stroke="midnightblue" d="M169.678,-381.433C165.003,-379.567 160.386,-377.571 156,-375.5 128.85,-362.684 99.4891,-344.305 80.7078,-329.872"/>
<polygon fill="midnightblue" stroke="midnightblue" points="82.8507,-327.104 72.8689,-323.552 78.4572,-332.553 82.8507,-327.104"/>
</g>
<!-- Node10&#45;&gt;Node3 -->
<g id="edge19" class="edge"><title>Node10&#45;&gt;Node3</title>
<path fill="none" stroke="midnightblue" d="M291.57,-392.257C350.135,-393.814 435.354,-396.08 494.835,-397.661"/>
<polygon fill="midnightblue" stroke="midnightblue" points="494.8,-401.161 504.89,-397.928 494.986,-394.164 494.8,-401.161"/>
</g>
<!-- Node10&#45;&gt;Node11 -->
<g id="edge16" class="edge"><title>Node10&#45;&gt;Node11</title>
<path fill="none" stroke="midnightblue" d="M255.154,-381.389C279.127,-374.023 313.544,-363.449 342.588,-354.525"/>
<polygon fill="midnightblue" stroke="midnightblue" points="343.678,-357.852 352.209,-351.569 341.622,-351.16 343.678,-357.852"/>
</g>
<!-- Node11&#45;&gt;Node3 -->
<g id="edge17" class="edge"><title>Node11&#45;&gt;Node3</title>
<path fill="none" stroke="midnightblue" d="M437.214,-351.569C461.013,-360.566 492.073,-372.308 517.493,-381.918"/>
<polygon fill="midnightblue" stroke="midnightblue" points="516.342,-385.224 526.933,-385.487 518.817,-378.677 516.342,-385.224"/>
</g>
<!-- Node12&#45;&gt;Node1 -->
<g id="edge21" class="edge"><title>Node12&#45;&gt;Node1</title>
<path fill="none" stroke="midnightblue" d="M164.418,-316.022C153.373,-316.255 141.735,-316.309 130.411,-316.186"/>
<polygon fill="midnightblue" stroke="midnightblue" points="130.18,-312.682 120.126,-316.022 130.069,-319.681 130.18,-312.682"/>
</g>
<!-- Node13&#45;&gt;Node1 -->
<g id="edge23" class="edge"><title>Node13&#45;&gt;Node1</title>
<path fill="none" stroke="midnightblue" d="M193.374,-276.598C175.494,-282.886 152.051,-290.098 129.869,-296.261"/>
<polygon fill="midnightblue" stroke="midnightblue" points="128.851,-292.911 120.126,-298.921 130.695,-299.663 128.851,-292.911"/>
</g>
<!-- Node13&#45;&gt;Node3 -->
<g id="edge24" class="edge"><title>Node13&#45;&gt;Node3</title>
<path fill="none" stroke="midnightblue" d="M284.697,-266.185C335.872,-271.352 410.596,-283.753 469,-313.5 500.014,-329.296 528.6,-357.904 546.144,-377.765"/>
<polygon fill="midnightblue" stroke="midnightblue" points="543.563,-380.131 552.744,-385.419 548.865,-375.56 543.563,-380.131"/>
</g>
<!-- Node14&#45;&gt;Node1 -->
<g id="edge26" class="edge"><title>Node14&#45;&gt;Node1</title>
<path fill="none" stroke="midnightblue" d="M199.635,-229.569C186.367,-234.541 169.799,-240.226 156,-247.5 133.772,-259.217 111.149,-275.896 93.5583,-289.17"/>
<polygon fill="midnightblue" stroke="midnightblue" points="91.2164,-286.553 85.3509,-295.376 95.4383,-292.136 91.2164,-286.553"/>
</g>
<!-- Node14&#45;&gt;Node3 -->
<g id="edge27" class="edge"><title>Node14&#45;&gt;Node3</title>
<path fill="none" stroke="midnightblue" d="M284.592,-217.047C336.903,-220.962 413.365,-233.131 469,-269.5 509.571,-296.022 538.766,-346.257 553.383,-375.914"/>
<polygon fill="midnightblue" stroke="midnightblue" points="550.31,-377.602 557.776,-385.119 556.627,-374.587 550.31,-377.602"/>
</g>
<!-- Node15 -->
<g id="node15" class="node"><title>Node15</title>
<g id="a_node15"><a xlink:href="classprior__hessian_1_1ParetoDist.html#a218ebbdec10fbdfcaabdd79dd180b39e" target="_top" xlink:title="prior_hessian::ParetoDist\l::set_params">
<polygon fill="white" stroke="black" points="339,-152.5 339,-180.5 459,-180.5 459,-152.5 339,-152.5"/>
<text text-anchor="start" x="347" y="-169.3" font-family="Helvetica,sans-Serif" font-size="9.00">prior_hessian::ParetoDist</text>
<text text-anchor="middle" x="399" y="-159.3" font-family="Helvetica,sans-Serif" font-size="9.00">::set_params</text>
</a>
</g>
</g>
<!-- Node14&#45;&gt;Node15 -->
<g id="edge28" class="edge"><title>Node14&#45;&gt;Node15</title>
<path fill="none" stroke="midnightblue" d="M274.932,-201.459C294.871,-195.795 318.043,-189.213 338.866,-183.297"/>
<polygon fill="midnightblue" stroke="midnightblue" points="339.898,-186.643 348.561,-180.543 337.985,-179.909 339.898,-186.643"/>
</g>
<!-- Node16&#45;&gt;Node1 -->
<g id="edge30" class="edge"><title>Node16&#45;&gt;Node1</title>
<path fill="none" stroke="midnightblue" d="M205.337,-182.519C190.983,-186.286 170.944,-190.778 156,-200.5 121.64,-222.854 93.9051,-261.727 77.4643,-286.688"/>
<polygon fill="midnightblue" stroke="midnightblue" points="74.447,-284.908 71.9268,-295.199 80.3143,-288.726 74.447,-284.908"/>
</g>
<!-- Node17&#45;&gt;Node1 -->
<g id="edge33" class="edge"><title>Node17&#45;&gt;Node1</title>
<path fill="none" stroke="midnightblue" d="M192.715,-145.509C180.339,-149.65 166.538,-155.071 156,-163.5 114.411,-196.767 86.374,-253.52 72.0924,-285.768"/>
<polygon fill="midnightblue" stroke="midnightblue" points="68.7185,-284.75 67.9392,-295.316 75.1375,-287.542 68.7185,-284.75"/>
</g>
<!-- Node19&#45;&gt;Node3 -->
<g id="edge39" class="edge"><title>Node19&#45;&gt;Node3</title>
<path fill="none" stroke="midnightblue" d="M284.61,-48.6136C339.539,-61.8931 420.028,-89.3412 469,-142.5 532.225,-211.129 554.336,-325.483 561.218,-375.19"/>
<polygon fill="midnightblue" stroke="midnightblue" points="557.774,-375.844 562.53,-385.311 564.716,-374.945 557.774,-375.844"/>
</g>
<!-- Node19&#45;&gt;Node15 -->
<g id="edge40" class="edge"><title>Node19&#45;&gt;Node15</title>
<path fill="none" stroke="midnightblue" d="M277.139,-51.6138C282.724,-54.1418 288.137,-57.0848 293,-60.5 313.96,-75.2193 311.34,-86.9493 329,-105.5 342.603,-119.79 359.123,-134.476 372.588,-145.856"/>
<polygon fill="midnightblue" stroke="midnightblue" points="370.604,-148.759 380.523,-152.482 375.09,-143.386 370.604,-148.759"/>
</g>
<!-- Node20 -->
<g id="node20" class="node"><title>Node20</title>
<g id="a_node20"><a xlink:href="classprior__hessian_1_1ParetoDist.html#acef10b17c003468838f548ed255d7e1f" target="_top" xlink:title="prior_hessian::ParetoDist::min">
<polygon fill="white" stroke="black" points="329,-28.5 329,-46.5 469,-46.5 469,-28.5 329,-28.5"/>
<text text-anchor="middle" x="399" y="-35.3" font-family="Helvetica,sans-Serif" font-size="9.00">prior_hessian::ParetoDist::min</text>
</a>
</g>
</g>
<!-- Node19&#45;&gt;Node20 -->
<g id="edge36" class="edge"><title>Node19&#45;&gt;Node20</title>
<path fill="none" stroke="midnightblue" d="M284.865,-37.5C295.684,-37.5 307.13,-37.5 318.423,-37.5"/>
<polygon fill="midnightblue" stroke="midnightblue" points="318.729,-41.0001 328.729,-37.5 318.729,-34.0001 318.729,-41.0001"/>
</g>
<!-- Node21 -->
<g id="node21" class="node"><title>Node21</title>
<g id="a_node21"><a xlink:href="classprior__hessian_1_1ParetoDist.html#ace279cdfa7dbdcd8805ddb2ec4b46ee2" target="_top" xlink:title="prior_hessian::ParetoDist\l::set_min">
<polygon fill="white" stroke="black" points="505,-47.5 505,-75.5 625,-75.5 625,-47.5 505,-47.5"/>
<text text-anchor="start" x="513" y="-64.3" font-family="Helvetica,sans-Serif" font-size="9.00">prior_hessian::ParetoDist</text>
<text text-anchor="middle" x="565" y="-54.3" font-family="Helvetica,sans-Serif" font-size="9.00">::set_min</text>
</a>
</g>
</g>
<!-- Node20&#45;&gt;Node21 -->
<g id="edge37" class="edge"><title>Node20&#45;&gt;Node21</title>
<path fill="none" stroke="midnightblue" d="M461.534,-46.505C472.39,-48.0936 483.757,-49.7571 494.806,-51.374"/>
<polygon fill="midnightblue" stroke="midnightblue" points="494.438,-54.8574 504.839,-52.8423 495.452,-47.9311 494.438,-54.8574"/>
</g>
<!-- Node22 -->
<g id="node22" class="node"><title>Node22</title>
<g id="a_node22"><a xlink:href="classprior__hessian_1_1ParetoDist.html#a5c2b026477495e3fc91a1cfb653d8a97" target="_top" xlink:title="prior_hessian::ParetoDist\l::set_alpha">
<polygon fill="white" stroke="black" points="505,-0.5 505,-28.5 625,-28.5 625,-0.5 505,-0.5"/>
<text text-anchor="start" x="513" y="-17.3" font-family="Helvetica,sans-Serif" font-size="9.00">prior_hessian::ParetoDist</text>
<text text-anchor="middle" x="565" y="-7.3" font-family="Helvetica,sans-Serif" font-size="9.00">::set_alpha</text>
</a>
</g>
</g>
<!-- Node20&#45;&gt;Node22 -->
<g id="edge38" class="edge"><title>Node20&#45;&gt;Node22</title>
<path fill="none" stroke="midnightblue" d="M464.346,-28.4758C474.375,-27.0694 484.773,-25.6112 494.901,-24.1907"/>
<polygon fill="midnightblue" stroke="midnightblue" points="495.499,-27.6411 504.916,-22.7861 494.527,-20.709 495.499,-27.6411"/>
</g>
</g>
</svg>
        <g id="navigator" transform="translate(0 0)" fill="#404254">
                <rect fill="#f2f5e9" fill-opacity="0.5" stroke="#606060" stroke-width=".5" x="0" y="0" width="60" height="60"/>
                <use id="zoomplus" xlink:href="#zoomPlus" x="17" y="9" onmousedown="handleZoom(evt,'in')"/>
                <use id="zoomminus" xlink:href="#zoomMin" x="42" y="9" onmousedown="handleZoom(evt,'out')"/>
                <use id="reset" xlink:href="#resetDef" x="30" y="36" onmousedown="handleReset()"/>
                <g id="arrowUp" xlink:href="#dirArrow" transform="translate(30 24)" onmousedown="handlePan(0,-1)">
                  <use xlink:href="#rim" fill="#404040">
                        <set attributeName="fill" to="#808080" begin="arrowUp.mouseover" end="arrowUp.mouseout"/>
                  </use>
                  <path fill="none" stroke="white" stroke-width="1.5" d="M0,-3.0v7 M-2.5,-0.5L0,-3.0L2.5,-0.5"/>
                </g>
                <g id="arrowRight" xlink:href="#dirArrow" transform="rotate(90) translate(36 -43)" onmousedown="handlePan(1,0)">
                  <use xlink:href="#rim" fill="#404040">
                        <set attributeName="fill" to="#808080" begin="arrowRight.mouseover" end="arrowRight.mouseout"/>
                  </use>
                  <path fill="none" stroke="white" stroke-width="1.5" d="M0,-3.0v7 M-2.5,-0.5L0,-3.0L2.5,-0.5"/>
                </g>
                <g id="arrowDown" xlink:href="#dirArrow" transform="rotate(180) translate(-30 -48)" onmousedown="handlePan(0,1)">
                  <use xlink:href="#rim" fill="#404040">
                        <set attributeName="fill" to="#808080" begin="arrowDown.mouseover" end="arrowDown.mouseout"/>
                  </use>
                  <path fill="none" stroke="white" stroke-width="1.5" d="M0,-3.0v7 M-2.5,-0.5L0,-3.0L2.5,-0.5"/>
                </g>
                <g id="arrowLeft" xlink:href="#dirArrow" transform="rotate(270) translate(-36 17)" onmousedown="handlePan(-1,0)">
                  <use xlink:href="#rim" fill="#404040">
                        <set attributeName="fill" to="#808080" begin="arrowLeft.mouseover" end="arrowLeft.mouseout"/>
                  </use>
                  <path fill="none" stroke="white" stroke-width="1.5" d="M0,-3.0v7 M-2.5,-0.5L0,-3.0L2.5,-0.5"/>
                </g>
        </g>
        <svg viewBox="0 0 15 15" width="100%" height="30px" preserveAspectRatio="xMaxYMin meet">
         <g id="arrow_out" transform="scale(0.3 0.3)">
          <a xlink:href="classprior__hessian_1_1ParetoDist_ad117226a3ad1eee827886fc7ba38acbf_cgraph_org.svg" target="_base">
           <rect id="button" ry="5" rx="5" y="6" x="6" height="38" width="38"
                fill="#f2f5e9" fill-opacity="0.5" stroke="#606060" stroke-width="1.0"/>
           <path id="arrow"
             d="M 11.500037,31.436501 C 11.940474,20.09759 22.043105,11.32322 32.158766,21.979434 L 37.068811,17.246167 C 37.068811,17.246167 37.088388,32 37.088388,32 L 22.160133,31.978069 C 22.160133,31.978069 26.997745,27.140456 26.997745,27.140456 C 18.528582,18.264221 13.291696,25.230495 11.500037,31.436501 z"
             style="fill:#404040;"/>
          </a>
         </g>
        </svg>
</svg>
