<?xml version="1.0" encoding="UTF-8" standalone="no"?>
<!DOCTYPE svg PUBLIC "-//W3C//DTD SVG 1.1//EN"
 "http://www.w3.org/Graphics/SVG/1.1/DTD/svg11.dtd">
<!-- Generated by graphviz version 2.38.0 (20140413.2041)
 -->
<!-- Title: prior_hessian::GammaDist::check_params Pages: 1 -->
<svg width="455pt" height="84pt"
 viewBox="0.00 0.00 455.00 84.00" xmlns="http://www.w3.org/2000/svg" xmlns:xlink="http://www.w3.org/1999/xlink">
<g id="graph0" class="graph" transform="scale(1 1) rotate(0) translate(4 80)">
<title>prior_hessian::GammaDist::check_params</title>
<polygon fill="white" stroke="none" points="-4,4 -4,-80 451,-80 451,4 -4,4"/>
<!-- Node1 -->
<g id="node1" class="node"><title>Node1</title>
<polygon fill="#bfbfbf" stroke="black" points="0,-23.5 0,-51.5 125,-51.5 125,-23.5 0,-23.5"/>
<text text-anchor="start" x="8" y="-40.3" font-family="Helvetica,sans-Serif" font-size="9.00">prior_hessian::GammaDist</text>
<text text-anchor="middle" x="62.5" y="-30.3" font-family="Helvetica,sans-Serif" font-size="9.00">::check_params</text>
</g>
<!-- Node2 -->
<g id="node2" class="node"><title>Node2</title>
<g id="a_node2"><a xlink:href="classprior__hessian_1_1GammaDist.html#a9000e6fd6599a8c687ebd2c670a2cfde" target="_top" xlink:title="prior_hessian::GammaDist\l::check_params_iter">
<polygon fill="white" stroke="black" points="161,-47.5 161,-75.5 286,-75.5 286,-47.5 161,-47.5"/>
<text text-anchor="start" x="169" y="-64.3" font-family="Helvetica,sans-Serif" font-size="9.00">prior_hessian::GammaDist</text>
<text text-anchor="middle" x="223.5" y="-54.3" font-family="Helvetica,sans-Serif" font-size="9.00">::check_params_iter</text>
</a>
</g>
</g>
<!-- Node1&#45;&gt;Node2 -->
<g id="edge1" class="edge"><title>Node1&#45;&gt;Node2</title>
<path fill="none" stroke="midnightblue" d="M135.592,-48.3818C143.99,-49.6494 152.499,-50.9338 160.74,-52.1778"/>
<polygon fill="midnightblue" stroke="midnightblue" points="135.839,-44.8796 125.429,-46.8477 134.794,-51.8012 135.839,-44.8796"/>
</g>
<!-- Node4 -->
<g id="node4" class="node"><title>Node4</title>
<g id="a_node4"><a xlink:href="classprior__hessian_1_1GammaDist.html#a16b8a273203969808d0004b051b484a5" target="_top" xlink:title="prior_hessian::GammaDist\l::param_ubound">
<polygon fill="white" stroke="black" points="161,-0.5 161,-28.5 286,-28.5 286,-0.5 161,-0.5"/>
<text text-anchor="start" x="169" y="-17.3" font-family="Helvetica,sans-Serif" font-size="9.00">prior_hessian::GammaDist</text>
<text text-anchor="middle" x="223.5" y="-7.3" font-family="Helvetica,sans-Serif" font-size="9.00">::param_ubound</text>
</a>
</g>
</g>
<!-- Node1&#45;&gt;Node4 -->
<g id="edge3" class="edge"><title>Node1&#45;&gt;Node4</title>
<path fill="none" stroke="midnightblue" d="M135.592,-27.0716C143.99,-25.8568 152.499,-24.6259 160.74,-23.4338"/>
<polygon fill="midnightblue" stroke="midnightblue" points="134.825,-23.6461 125.429,-28.5417 135.827,-30.574 134.825,-23.6461"/>
</g>
<!-- Node3 -->
<g id="node3" class="node"><title>Node3</title>
<g id="a_node3"><a xlink:href="classprior__hessian_1_1GammaDist.html#a555e2d86894155eb89f59fd1acf727e2" target="_top" xlink:title="prior_hessian::GammaDist\l::median">
<polygon fill="white" stroke="black" points="322,-47.5 322,-75.5 447,-75.5 447,-47.5 322,-47.5"/>
<text text-anchor="start" x="330" y="-64.3" font-family="Helvetica,sans-Serif" font-size="9.00">prior_hessian::GammaDist</text>
<text text-anchor="middle" x="384.5" y="-54.3" font-family="Helvetica,sans-Serif" font-size="9.00">::median</text>
</a>
</g>
</g>
<!-- Node2&#45;&gt;Node3 -->
<g id="edge2" class="edge"><title>Node2&#45;&gt;Node3</title>
<path fill="none" stroke="midnightblue" d="M296.592,-61.5C304.99,-61.5 313.499,-61.5 321.74,-61.5"/>
<polygon fill="midnightblue" stroke="midnightblue" points="296.429,-58.0001 286.429,-61.5 296.429,-65.0001 296.429,-58.0001"/>
</g>
</g>
</svg>
