<?xml version="1.0" encoding="UTF-8" standalone="no"?>
<!DOCTYPE svg PUBLIC "-//W3C//DTD SVG 1.1//EN"
 "http://www.w3.org/Graphics/SVG/1.1/DTD/svg11.dtd">
<!-- Generated by graphviz version 2.38.0 (20140413.2041)
 -->
<!-- Title: prior_hessian::ScaledDist::unscaled_ubound Pages: 1 -->
<svg width="604pt" height="152pt"
 viewBox="0.00 0.00 604.00 151.82" xmlns="http://www.w3.org/2000/svg" xmlns:xlink="http://www.w3.org/1999/xlink">
<g id="graph0" class="graph" transform="scale(1 1) rotate(0) translate(4 147.819)">
<title>prior_hessian::ScaledDist::unscaled_ubound</title>
<polygon fill="white" stroke="none" points="-4,4 -4,-147.819 600,-147.819 600,4 -4,4"/>
<!-- Node1 -->
<g id="node1" class="node"><title>Node1</title>
<polygon fill="#bfbfbf" stroke="black" points="0,-70.5 0,-98.5 122,-98.5 122,-70.5 0,-70.5"/>
<text text-anchor="start" x="8" y="-87.3" font-family="Helvetica,sans-Serif" font-size="9.00">prior_hessian::ScaledDist</text>
<text text-anchor="middle" x="61" y="-77.3" font-family="Helvetica,sans-Serif" font-size="9.00">::unscaled_ubound</text>
</g>
<!-- Node2 -->
<g id="node2" class="node"><title>Node2</title>
<g id="a_node2"><a xlink:href="classprior__hessian_1_1ScaledDist.html#a07e9dea370e56001f76ed8e10693f399" target="_top" xlink:title="prior_hessian::ScaledDist\l::set_bounds">
<polygon fill="white" stroke="black" points="158,-70.5 158,-98.5 280,-98.5 280,-70.5 158,-70.5"/>
<text text-anchor="start" x="166" y="-87.3" font-family="Helvetica,sans-Serif" font-size="9.00">prior_hessian::ScaledDist</text>
<text text-anchor="middle" x="219" y="-77.3" font-family="Helvetica,sans-Serif" font-size="9.00">::set_bounds</text>
</a>
</g>
</g>
<!-- Node1&#45;&gt;Node2 -->
<g id="edge1" class="edge"><title>Node1&#45;&gt;Node2</title>
<path fill="none" stroke="midnightblue" d="M132.538,-84.5C140.99,-84.5 149.56,-84.5 157.847,-84.5"/>
<polygon fill="midnightblue" stroke="midnightblue" points="132.314,-81.0001 122.314,-84.5 132.314,-88.0001 132.314,-81.0001"/>
</g>
<!-- Node3 -->
<g id="node3" class="node"><title>Node3</title>
<g id="a_node3"><a xlink:href="classprior__hessian_1_1ScaledDist.html#ada92f440acb5566f8e97f653f4da2015" target="_top" xlink:title="prior_hessian::ScaledDist\l::operator!=">
<polygon fill="white" stroke="black" points="474,-47.5 474,-75.5 596,-75.5 596,-47.5 474,-47.5"/>
<text text-anchor="start" x="482" y="-64.3" font-family="Helvetica,sans-Serif" font-size="9.00">prior_hessian::ScaledDist</text>
<text text-anchor="middle" x="535" y="-54.3" font-family="Helvetica,sans-Serif" font-size="9.00">::operator!=</text>
</a>
</g>
</g>
<!-- Node2&#45;&gt;Node3 -->
<g id="edge2" class="edge"><title>Node2&#45;&gt;Node3</title>
<path fill="none" stroke="midnightblue" d="M249.728,-103.885C268.025,-114.638 292.418,-126.933 316,-132.5 368.772,-144.958 386.503,-149.474 438,-132.5 472.06,-121.273 503.927,-92.7959 521.011,-75.5102"/>
<polygon fill="midnightblue" stroke="midnightblue" points="251.377,-100.792 241.01,-98.6072 247.752,-106.78 251.377,-100.792"/>
</g>
<!-- Node4 -->
<g id="node4" class="node"><title>Node4</title>
<g id="a_node4"><a xlink:href="classprior__hessian_1_1ScaledDist.html#adcee5624ff0434c1cf9dcbeee4b66a85" target="_top" xlink:title="prior_hessian::ScaledDist\l::ScaledDist">
<polygon fill="white" stroke="black" points="316,-94.5 316,-122.5 438,-122.5 438,-94.5 316,-94.5"/>
<text text-anchor="start" x="324" y="-111.3" font-family="Helvetica,sans-Serif" font-size="9.00">prior_hessian::ScaledDist</text>
<text text-anchor="middle" x="377" y="-101.3" font-family="Helvetica,sans-Serif" font-size="9.00">::ScaledDist</text>
</a>
</g>
</g>
<!-- Node2&#45;&gt;Node4 -->
<g id="edge3" class="edge"><title>Node2&#45;&gt;Node4</title>
<path fill="none" stroke="midnightblue" d="M290.259,-95.3091C298.802,-96.6234 307.469,-97.9568 315.847,-99.2457"/>
<polygon fill="midnightblue" stroke="midnightblue" points="290.73,-91.8404 280.314,-93.779 289.665,-98.759 290.73,-91.8404"/>
</g>
<!-- Node5 -->
<g id="node5" class="node"><title>Node5</title>
<g id="a_node5"><a xlink:href="classprior__hessian_1_1ScaledDist.html#a14964efa9531b9906d722a2d9fc52da3" target="_top" xlink:title="prior_hessian::ScaledDist\l::set_lbound">
<polygon fill="white" stroke="black" points="316,-47.5 316,-75.5 438,-75.5 438,-47.5 316,-47.5"/>
<text text-anchor="start" x="324" y="-64.3" font-family="Helvetica,sans-Serif" font-size="9.00">prior_hessian::ScaledDist</text>
<text text-anchor="middle" x="377" y="-54.3" font-family="Helvetica,sans-Serif" font-size="9.00">::set_lbound</text>
</a>
</g>
</g>
<!-- Node2&#45;&gt;Node5 -->
<g id="edge4" class="edge"><title>Node2&#45;&gt;Node5</title>
<path fill="none" stroke="midnightblue" d="M290.259,-74.1412C298.802,-72.8818 307.469,-71.6039 315.847,-70.3688"/>
<polygon fill="midnightblue" stroke="midnightblue" points="289.696,-70.6864 280.314,-75.6076 290.717,-77.6115 289.696,-70.6864"/>
</g>
<!-- Node6 -->
<g id="node6" class="node"><title>Node6</title>
<g id="a_node6"><a xlink:href="classprior__hessian_1_1ScaledDist.html#ace5188e41adff598f3ed4d5dc8530af0" target="_top" xlink:title="prior_hessian::ScaledDist\l::set_ubound">
<polygon fill="white" stroke="black" points="316,-0.5 316,-28.5 438,-28.5 438,-0.5 316,-0.5"/>
<text text-anchor="start" x="324" y="-17.3" font-family="Helvetica,sans-Serif" font-size="9.00">prior_hessian::ScaledDist</text>
<text text-anchor="middle" x="377" y="-7.3" font-family="Helvetica,sans-Serif" font-size="9.00">::set_ubound</text>
</a>
</g>
</g>
<!-- Node2&#45;&gt;Node6 -->
<g id="edge6" class="edge"><title>Node2&#45;&gt;Node6</title>
<path fill="none" stroke="midnightblue" d="M257.692,-65.7273C275.283,-57.1496 296.582,-47.0248 316,-38.5 323.602,-35.1627 331.822,-31.7495 339.669,-28.583"/>
<polygon fill="midnightblue" stroke="midnightblue" points="255.774,-62.7692 248.335,-70.3134 258.855,-69.0547 255.774,-62.7692"/>
</g>
<!-- Node5&#45;&gt;Node3 -->
<g id="edge5" class="edge"><title>Node5&#45;&gt;Node3</title>
<path fill="none" stroke="midnightblue" d="M448.538,-61.5C456.99,-61.5 465.56,-61.5 473.847,-61.5"/>
<polygon fill="midnightblue" stroke="midnightblue" points="448.314,-58.0001 438.314,-61.5 448.314,-65.0001 448.314,-58.0001"/>
</g>
<!-- Node6&#45;&gt;Node3 -->
<g id="edge7" class="edge"><title>Node6&#45;&gt;Node3</title>
<path fill="none" stroke="midnightblue" d="M434.799,-31.6125C452.117,-36.8301 470.944,-42.5024 487.497,-47.4894"/>
<polygon fill="midnightblue" stroke="midnightblue" points="435.39,-28.1351 424.805,-28.6015 433.37,-34.8376 435.39,-28.1351"/>
</g>
</g>
</svg>
