<?xml version="1.0" encoding="UTF-8" standalone="no"?>
<!DOCTYPE svg PUBLIC "-//W3C//DTD SVG 1.1//EN"
 "http://www.w3.org/Graphics/SVG/1.1/DTD/svg11.dtd">
<!-- Generated by graphviz version 2.38.0 (20140413.2041)
 -->
<!-- Title: prior_hessian::NormalDist::check_params Pages: 1 -->
<svg width="290pt" height="55pt"
 viewBox="0.00 0.00 290.00 55.00" xmlns="http://www.w3.org/2000/svg" xmlns:xlink="http://www.w3.org/1999/xlink">
<g id="graph0" class="graph" transform="scale(1 1) rotate(0) translate(4 51)">
<title>prior_hessian::NormalDist::check_params</title>
<polygon fill="white" stroke="none" points="-4,4 -4,-51 286,-51 286,4 -4,4"/>
<!-- Node1 -->
<g id="node1" class="node"><title>Node1</title>
<polygon fill="#bfbfbf" stroke="black" points="0,-0.5 0,-28.5 123,-28.5 123,-0.5 0,-0.5"/>
<text text-anchor="start" x="8" y="-17.3" font-family="Helvetica,sans-Serif" font-size="9.00">prior_hessian::NormalDist</text>
<text text-anchor="middle" x="61.5" y="-7.3" font-family="Helvetica,sans-Serif" font-size="9.00">::check_params</text>
</g>
<!-- Node1&#45;&gt;Node1 -->
<g id="edge1" class="edge"><title>Node1&#45;&gt;Node1</title>
<path fill="none" stroke="midnightblue" d="M34.486,-28.5305C26.882,-37.8898 35.8867,-47 61.5,-47 77.5083,-47 87.0289,-43.4413 90.0617,-38.4873"/>
<polygon fill="midnightblue" stroke="midnightblue" points="93.5085,-37.8742 88.514,-28.5305 86.5916,-38.9494 93.5085,-37.8742"/>
</g>
<!-- Node2 -->
<g id="node2" class="node"><title>Node2</title>
<g id="a_node2"><a xlink:href="classprior__hessian_1_1NormalDist.html#ab9cb95afad0a45d4b588c3c8ea847805" target="_top" xlink:title="prior_hessian::NormalDist\l::NormalDist">
<polygon fill="white" stroke="black" points="159,-0.5 159,-28.5 282,-28.5 282,-0.5 159,-0.5"/>
<text text-anchor="start" x="167" y="-17.3" font-family="Helvetica,sans-Serif" font-size="9.00">prior_hessian::NormalDist</text>
<text text-anchor="middle" x="220.5" y="-7.3" font-family="Helvetica,sans-Serif" font-size="9.00">::NormalDist</text>
</a>
</g>
</g>
<!-- Node1&#45;&gt;Node2 -->
<g id="edge2" class="edge"><title>Node1&#45;&gt;Node2</title>
<path fill="none" stroke="midnightblue" d="M123.2,-14.5C131.635,-14.5 140.359,-14.5 148.955,-14.5"/>
<polygon fill="midnightblue" stroke="midnightblue" points="148.961,-18.0001 158.961,-14.5 148.961,-11.0001 148.961,-18.0001"/>
</g>
</g>
</svg>
