<?xml version="1.0" encoding="UTF-8" standalone="no"?>
<!DOCTYPE svg PUBLIC "-//W3C//DTD SVG 1.1//EN"
 "http://www.w3.org/Graphics/SVG/1.1/DTD/svg11.dtd">
<!-- Generated by graphviz version 2.38.0 (20140413.2041)
 -->
<!-- Title: prior_hessian::MultivariateNormalDist::check_params_iter Pages: 1 -->
<svg width="314pt" height="84pt"
 viewBox="0.00 0.00 314.00 84.00" xmlns="http://www.w3.org/2000/svg" xmlns:xlink="http://www.w3.org/1999/xlink">
<g id="graph0" class="graph" transform="scale(1 1) rotate(0) translate(4 80)">
<title>prior_hessian::MultivariateNormalDist::check_params_iter</title>
<polygon fill="white" stroke="none" points="-4,4 -4,-80 310,-80 310,4 -4,4"/>
<!-- Node1 -->
<g id="node1" class="node"><title>Node1</title>
<polygon fill="#bfbfbf" stroke="black" points="0,-23.5 0,-51.5 145,-51.5 145,-23.5 0,-23.5"/>
<text text-anchor="start" x="8" y="-40.3" font-family="Helvetica,sans-Serif" font-size="9.00">prior_hessian::Multivariate</text>
<text text-anchor="middle" x="72.5" y="-30.3" font-family="Helvetica,sans-Serif" font-size="9.00">NormalDist::check_params_iter</text>
</g>
<!-- Node2 -->
<g id="node2" class="node"><title>Node2</title>
<g id="a_node2"><a xlink:href="classprior__hessian_1_1MultivariateNormalDist.html#ad0117306c61bf5b4615d40113dc27c83" target="_top" xlink:title="prior_hessian::Multivariate\lNormalDist::check_sigma">
<polygon fill="white" stroke="black" points="181,-47.5 181,-75.5 306,-75.5 306,-47.5 181,-47.5"/>
<text text-anchor="start" x="189" y="-64.3" font-family="Helvetica,sans-Serif" font-size="9.00">prior_hessian::Multivariate</text>
<text text-anchor="middle" x="243.5" y="-54.3" font-family="Helvetica,sans-Serif" font-size="9.00">NormalDist::check_sigma</text>
</a>
</g>
</g>
<!-- Node1&#45;&gt;Node2 -->
<g id="edge1" class="edge"><title>Node1&#45;&gt;Node2</title>
<path fill="none" stroke="midnightblue" d="M145.171,-47.6782C153.706,-48.8903 162.42,-50.1278 170.954,-51.3396"/>
<polygon fill="midnightblue" stroke="midnightblue" points="170.474,-54.8065 180.867,-52.7474 171.458,-47.8761 170.474,-54.8065"/>
</g>
<!-- Node3 -->
<g id="node3" class="node"><title>Node3</title>
<g id="a_node3"><a xlink:href="classprior__hessian_1_1MultivariateNormalDist.html#a9a2d3e50448adb594ed60a92d2942943" target="_top" xlink:title="prior_hessian::Multivariate\lNormalDist::num_params">
<polygon fill="white" stroke="black" points="181,-0.5 181,-28.5 306,-28.5 306,-0.5 181,-0.5"/>
<text text-anchor="start" x="189" y="-17.3" font-family="Helvetica,sans-Serif" font-size="9.00">prior_hessian::Multivariate</text>
<text text-anchor="middle" x="243.5" y="-7.3" font-family="Helvetica,sans-Serif" font-size="9.00">NormalDist::num_params</text>
</a>
</g>
</g>
<!-- Node1&#45;&gt;Node3 -->
<g id="edge2" class="edge"><title>Node1&#45;&gt;Node3</title>
<path fill="none" stroke="midnightblue" d="M145.171,-27.7459C153.706,-26.5843 162.42,-25.3984 170.954,-24.237"/>
<polygon fill="midnightblue" stroke="midnightblue" points="171.43,-27.7046 180.867,-22.8879 170.486,-20.7685 171.43,-27.7046"/>
</g>
</g>
</svg>
