<?xml version="1.0" encoding="UTF-8" standalone="no"?>
<!DOCTYPE svg PUBLIC "-//W3C//DTD SVG 1.1//EN"
 "http://www.w3.org/Graphics/SVG/1.1/DTD/svg11.dtd">
<!-- Generated by graphviz version 2.38.0 (20140413.2041)
 -->
<!-- Title: prior_hessian::CompositeDist::is_empty Pages: 1 -->
<svg width="604pt" height="84pt"
 viewBox="0.00 0.00 604.00 84.00" xmlns="http://www.w3.org/2000/svg" xmlns:xlink="http://www.w3.org/1999/xlink">
<g id="graph0" class="graph" transform="scale(1 1) rotate(0) translate(4 80)">
<title>prior_hessian::CompositeDist::is_empty</title>
<polygon fill="white" stroke="none" points="-4,4 -4,-80 600,-80 600,4 -4,4"/>
<!-- Node1 -->
<g id="node1" class="node"><title>Node1</title>
<polygon fill="#bfbfbf" stroke="black" points="0,-23.5 0,-51.5 122,-51.5 122,-23.5 0,-23.5"/>
<text text-anchor="start" x="8" y="-40.3" font-family="Helvetica,sans-Serif" font-size="9.00">prior_hessian::Composite</text>
<text text-anchor="middle" x="61" y="-30.3" font-family="Helvetica,sans-Serif" font-size="9.00">Dist::is_empty</text>
</g>
<!-- Node2 -->
<g id="node2" class="node"><title>Node2</title>
<g id="a_node2"><a xlink:href="classprior__hessian_1_1CompositeDist.html#a4928ff87d363bf6c4a650fdebfe301be" target="_top" xlink:title="prior_hessian::Composite\lDist::operator==">
<polygon fill="white" stroke="black" points="158,-23.5 158,-51.5 280,-51.5 280,-23.5 158,-23.5"/>
<text text-anchor="start" x="166" y="-40.3" font-family="Helvetica,sans-Serif" font-size="9.00">prior_hessian::Composite</text>
<text text-anchor="middle" x="219" y="-30.3" font-family="Helvetica,sans-Serif" font-size="9.00">Dist::operator==</text>
</a>
</g>
</g>
<!-- Node1&#45;&gt;Node2 -->
<g id="edge1" class="edge"><title>Node1&#45;&gt;Node2</title>
<path fill="none" stroke="midnightblue" d="M132.538,-37.5C140.99,-37.5 149.56,-37.5 157.847,-37.5"/>
<polygon fill="midnightblue" stroke="midnightblue" points="132.314,-34.0001 122.314,-37.5 132.314,-41.0001 132.314,-34.0001"/>
</g>
<!-- Node3 -->
<g id="node3" class="node"><title>Node3</title>
<g id="a_node3"><a xlink:href="classprior__hessian_1_1CompositeDist.html#ad796a4f6b17cc35f936dee7d7d9a9a43" target="_top" xlink:title="prior_hessian::Composite\lDist::component_types">
<polygon fill="white" stroke="black" points="316,-47.5 316,-75.5 438,-75.5 438,-47.5 316,-47.5"/>
<text text-anchor="start" x="324" y="-64.3" font-family="Helvetica,sans-Serif" font-size="9.00">prior_hessian::Composite</text>
<text text-anchor="middle" x="377" y="-54.3" font-family="Helvetica,sans-Serif" font-size="9.00">Dist::component_types</text>
</a>
</g>
</g>
<!-- Node2&#45;&gt;Node3 -->
<g id="edge2" class="edge"><title>Node2&#45;&gt;Node3</title>
<path fill="none" stroke="midnightblue" d="M290.259,-48.3091C298.802,-49.6234 307.469,-50.9568 315.847,-52.2457"/>
<polygon fill="midnightblue" stroke="midnightblue" points="290.73,-44.8404 280.314,-46.779 289.665,-51.759 290.73,-44.8404"/>
</g>
<!-- Node5 -->
<g id="node5" class="node"><title>Node5</title>
<g id="a_node5"><a xlink:href="classprior__hessian_1_1CompositeDist.html#a250487f51401fa1d367e5ef5eb92c072" target="_top" xlink:title="prior_hessian::Composite\lDist::operator!=">
<polygon fill="white" stroke="black" points="316,-0.5 316,-28.5 438,-28.5 438,-0.5 316,-0.5"/>
<text text-anchor="start" x="324" y="-17.3" font-family="Helvetica,sans-Serif" font-size="9.00">prior_hessian::Composite</text>
<text text-anchor="middle" x="377" y="-7.3" font-family="Helvetica,sans-Serif" font-size="9.00">Dist::operator!=</text>
</a>
</g>
</g>
<!-- Node2&#45;&gt;Node5 -->
<g id="edge4" class="edge"><title>Node2&#45;&gt;Node5</title>
<path fill="none" stroke="midnightblue" d="M290.259,-27.1412C298.802,-25.8818 307.469,-24.6039 315.847,-23.3688"/>
<polygon fill="midnightblue" stroke="midnightblue" points="289.696,-23.6864 280.314,-28.6076 290.717,-30.6115 289.696,-23.6864"/>
</g>
<!-- Node4 -->
<g id="node4" class="node"><title>Node4</title>
<g id="a_node4"><a xlink:href="classprior__hessian_1_1CompositeDist.html#a24bac25ae8c0330b8a3aacadffc9d5ae" target="_top" xlink:title="prior_hessian::Composite\lDist::rllh_components">
<polygon fill="white" stroke="black" points="474,-47.5 474,-75.5 596,-75.5 596,-47.5 474,-47.5"/>
<text text-anchor="start" x="482" y="-64.3" font-family="Helvetica,sans-Serif" font-size="9.00">prior_hessian::Composite</text>
<text text-anchor="middle" x="535" y="-54.3" font-family="Helvetica,sans-Serif" font-size="9.00">Dist::rllh_components</text>
</a>
</g>
</g>
<!-- Node3&#45;&gt;Node4 -->
<g id="edge3" class="edge"><title>Node3&#45;&gt;Node4</title>
<path fill="none" stroke="midnightblue" d="M448.538,-61.5C456.99,-61.5 465.56,-61.5 473.847,-61.5"/>
<polygon fill="midnightblue" stroke="midnightblue" points="448.314,-58.0001 438.314,-61.5 448.314,-65.0001 448.314,-58.0001"/>
</g>
</g>
</svg>
