<?xml version="1.0" encoding="UTF-8" standalone="no"?>
<!DOCTYPE svg PUBLIC "-//W3C//DTD SVG 1.1//EN"
 "http://www.w3.org/Graphics/SVG/1.1/DTD/svg11.dtd">
<!-- Generated by graphviz version 2.38.0 (20140413.2041)
 -->
<!-- Title: prior_hessian::ScaledDist::ScaledDist Pages: 1 -->
<svg width="446pt" height="178pt"
 viewBox="0.00 0.00 446.00 178.00" xmlns="http://www.w3.org/2000/svg" xmlns:xlink="http://www.w3.org/1999/xlink">
<g id="graph0" class="graph" transform="scale(1 1) rotate(0) translate(4 174)">
<title>prior_hessian::ScaledDist::ScaledDist</title>
<polygon fill="white" stroke="none" points="-4,4 -4,-174 442,-174 442,4 -4,4"/>
<!-- Node1 -->
<g id="node1" class="node"><title>Node1</title>
<polygon fill="#bfbfbf" stroke="black" points="0,-70.5 0,-98.5 122,-98.5 122,-70.5 0,-70.5"/>
<text text-anchor="start" x="8" y="-87.3" font-family="Helvetica,sans-Serif" font-size="9.00">prior_hessian::ScaledDist</text>
<text text-anchor="middle" x="61" y="-77.3" font-family="Helvetica,sans-Serif" font-size="9.00">::ScaledDist</text>
</g>
<!-- Node2 -->
<g id="node2" class="node"><title>Node2</title>
<g id="a_node2"><a xlink:href="classprior__hessian_1_1ScaledDist.html#a07e9dea370e56001f76ed8e10693f399" target="_top" xlink:title="prior_hessian::ScaledDist\l::set_bounds">
<polygon fill="white" stroke="black" points="158,-70.5 158,-98.5 280,-98.5 280,-70.5 158,-70.5"/>
<text text-anchor="start" x="166" y="-87.3" font-family="Helvetica,sans-Serif" font-size="9.00">prior_hessian::ScaledDist</text>
<text text-anchor="middle" x="219" y="-77.3" font-family="Helvetica,sans-Serif" font-size="9.00">::set_bounds</text>
</a>
</g>
</g>
<!-- Node1&#45;&gt;Node2 -->
<g id="edge1" class="edge"><title>Node1&#45;&gt;Node2</title>
<path fill="none" stroke="midnightblue" d="M122.314,-84.5C130.604,-84.5 139.175,-84.5 147.626,-84.5"/>
<polygon fill="midnightblue" stroke="midnightblue" points="147.847,-88.0001 157.847,-84.5 147.847,-81.0001 147.847,-88.0001"/>
</g>
<!-- Node3 -->
<g id="node3" class="node"><title>Node3</title>
<g id="a_node3"><a xlink:href="classprior__hessian_1_1ScaledDist.html#a70c8013325f5b8709be0900dba6e9eda" target="_top" xlink:title="prior_hessian::ScaledDist\l::ubound">
<polygon fill="white" stroke="black" points="316,-141.5 316,-169.5 438,-169.5 438,-141.5 316,-141.5"/>
<text text-anchor="start" x="324" y="-158.3" font-family="Helvetica,sans-Serif" font-size="9.00">prior_hessian::ScaledDist</text>
<text text-anchor="middle" x="377" y="-148.3" font-family="Helvetica,sans-Serif" font-size="9.00">::ubound</text>
</a>
</g>
</g>
<!-- Node2&#45;&gt;Node3 -->
<g id="edge2" class="edge"><title>Node2&#45;&gt;Node3</title>
<path fill="none" stroke="midnightblue" d="M246.564,-98.6582C265.653,-108.616 292.125,-121.985 316,-132.5 319.905,-134.22 323.983,-135.939 328.094,-137.62"/>
<polygon fill="midnightblue" stroke="midnightblue" points="327.099,-140.991 337.684,-141.453 329.697,-134.491 327.099,-140.991"/>
</g>
<!-- Node4 -->
<g id="node4" class="node"><title>Node4</title>
<g id="a_node4"><a xlink:href="classprior__hessian_1_1ScaledDist.html#aa1aa0261a6a67d19016cdd99265bae8e" target="_top" xlink:title="prior_hessian::ScaledDist\l::unscaled_ubound">
<polygon fill="white" stroke="black" points="316,-94.5 316,-122.5 438,-122.5 438,-94.5 316,-94.5"/>
<text text-anchor="start" x="324" y="-111.3" font-family="Helvetica,sans-Serif" font-size="9.00">prior_hessian::ScaledDist</text>
<text text-anchor="middle" x="377" y="-101.3" font-family="Helvetica,sans-Serif" font-size="9.00">::unscaled_ubound</text>
</a>
</g>
</g>
<!-- Node2&#45;&gt;Node4 -->
<g id="edge3" class="edge"><title>Node2&#45;&gt;Node4</title>
<path fill="none" stroke="midnightblue" d="M280.314,-93.779C288.695,-95.0684 297.363,-96.402 305.904,-97.716"/>
<polygon fill="midnightblue" stroke="midnightblue" points="305.431,-101.184 315.847,-99.2457 306.495,-94.2657 305.431,-101.184"/>
</g>
<!-- Node5 -->
<g id="node5" class="node"><title>Node5</title>
<g id="a_node5"><a xlink:href="classprior__hessian_1_1ScaledDist.html#a364788705694bdd46cd5876e92e1ad87" target="_top" xlink:title="prior_hessian::ScaledDist\l::unscaled_lbound">
<polygon fill="white" stroke="black" points="316,-47.5 316,-75.5 438,-75.5 438,-47.5 316,-47.5"/>
<text text-anchor="start" x="324" y="-64.3" font-family="Helvetica,sans-Serif" font-size="9.00">prior_hessian::ScaledDist</text>
<text text-anchor="middle" x="377" y="-54.3" font-family="Helvetica,sans-Serif" font-size="9.00">::unscaled_lbound</text>
</a>
</g>
</g>
<!-- Node2&#45;&gt;Node5 -->
<g id="edge4" class="edge"><title>Node2&#45;&gt;Node5</title>
<path fill="none" stroke="midnightblue" d="M280.314,-75.6076C288.695,-74.3719 297.363,-73.0939 305.904,-71.8347"/>
<polygon fill="midnightblue" stroke="midnightblue" points="306.464,-75.29 315.847,-70.3688 305.443,-68.3649 306.464,-75.29"/>
</g>
<!-- Node6 -->
<g id="node6" class="node"><title>Node6</title>
<g id="a_node6"><a xlink:href="classprior__hessian_1_1ScaledDist.html#a46bce2de3c0e030e9e4542195ecb429f" target="_top" xlink:title="prior_hessian::ScaledDist\l::lbound">
<polygon fill="white" stroke="black" points="316,-0.5 316,-28.5 438,-28.5 438,-0.5 316,-0.5"/>
<text text-anchor="start" x="324" y="-17.3" font-family="Helvetica,sans-Serif" font-size="9.00">prior_hessian::ScaledDist</text>
<text text-anchor="middle" x="377" y="-7.3" font-family="Helvetica,sans-Serif" font-size="9.00">::lbound</text>
</a>
</g>
</g>
<!-- Node2&#45;&gt;Node6 -->
<g id="edge5" class="edge"><title>Node2&#45;&gt;Node6</title>
<path fill="none" stroke="midnightblue" d="M248.335,-70.3134C267.33,-60.9544 292.986,-48.6035 316,-38.5 320.632,-36.4664 325.494,-34.4045 330.362,-32.3874"/>
<polygon fill="midnightblue" stroke="midnightblue" points="331.736,-35.6066 339.669,-28.583 329.088,-29.1271 331.736,-35.6066"/>
</g>
</g>
</svg>
