<?xml version="1.0" encoding="UTF-8" standalone="no"?>
<!DOCTYPE svg PUBLIC "-//W3C//DTD SVG 1.1//EN"
 "http://www.w3.org/Graphics/SVG/1.1/DTD/svg11.dtd">
<!-- Generated by graphviz version 2.38.0 (20140413.2041)
 -->
<!-- Title: prior_hessian::CompositeDist::param_names Pages: 1 -->
<svg width="312pt" height="178pt"
 viewBox="0.00 0.00 312.00 178.00" xmlns="http://www.w3.org/2000/svg" xmlns:xlink="http://www.w3.org/1999/xlink">
<g id="graph0" class="graph" transform="scale(1 1) rotate(0) translate(4 174)">
<title>prior_hessian::CompositeDist::param_names</title>
<polygon fill="white" stroke="none" points="-4,4 -4,-174 308,-174 308,4 -4,4"/>
<!-- Node1 -->
<g id="node1" class="node"><title>Node1</title>
<polygon fill="#bfbfbf" stroke="black" points="0,-70.5 0,-98.5 122,-98.5 122,-70.5 0,-70.5"/>
<text text-anchor="start" x="8" y="-87.3" font-family="Helvetica,sans-Serif" font-size="9.00">prior_hessian::Composite</text>
<text text-anchor="middle" x="61" y="-77.3" font-family="Helvetica,sans-Serif" font-size="9.00">Dist::param_names</text>
</g>
<!-- Node2 -->
<g id="node2" class="node"><title>Node2</title>
<g id="a_node2"><a xlink:href="classprior__hessian_1_1CompositeDist.html#a5f59bcbe24d659084fbe3dc188011779" target="_top" xlink:title="prior_hessian::Composite\lDist::component_names">
<polygon fill="white" stroke="black" points="170,-141.5 170,-169.5 292,-169.5 292,-141.5 170,-141.5"/>
<text text-anchor="start" x="178" y="-158.3" font-family="Helvetica,sans-Serif" font-size="9.00">prior_hessian::Composite</text>
<text text-anchor="middle" x="231" y="-148.3" font-family="Helvetica,sans-Serif" font-size="9.00">Dist::component_names</text>
</a>
</g>
</g>
<!-- Node1&#45;&gt;Node2 -->
<g id="edge1" class="edge"><title>Node1&#45;&gt;Node2</title>
<path fill="none" stroke="midnightblue" d="M87.5757,-98.6456C106.635,-108.85 133.491,-122.528 158,-132.5 162.74,-134.429 167.707,-136.304 172.722,-138.096"/>
<polygon fill="midnightblue" stroke="midnightblue" points="171.782,-141.475 182.377,-141.435 174.07,-134.859 171.782,-141.475"/>
</g>
<!-- Node3 -->
<g id="node3" class="node"><title>Node3</title>
<g id="a_node3"><a xlink:href="classprior__hessian_1_1CompositeDist.html#a6faf6fbb059017af5756d4327bb504bc" target="_top" xlink:title="prior_hessian::Composite\lDist::num_components">
<polygon fill="white" stroke="black" points="170,-94.5 170,-122.5 292,-122.5 292,-94.5 170,-94.5"/>
<text text-anchor="start" x="178" y="-111.3" font-family="Helvetica,sans-Serif" font-size="9.00">prior_hessian::Composite</text>
<text text-anchor="middle" x="231" y="-101.3" font-family="Helvetica,sans-Serif" font-size="9.00">Dist::num_components</text>
</a>
</g>
</g>
<!-- Node1&#45;&gt;Node3 -->
<g id="edge2" class="edge"><title>Node1&#45;&gt;Node3</title>
<path fill="none" stroke="midnightblue" d="M122.177,-93.0968C134.435,-94.8479 147.431,-96.7045 159.997,-98.4996"/>
<polygon fill="midnightblue" stroke="midnightblue" points="159.566,-101.973 169.961,-99.9229 160.556,-95.0438 159.566,-101.973"/>
</g>
<!-- Node4 -->
<g id="node4" class="node"><title>Node4</title>
<g id="a_node4"><a xlink:href="classprior__hessian_1_1CompositeDist.html#ad532e3fe9e7293fef7b293d3c94a1ddc" target="_top" xlink:title="prior_hessian::Composite\lDist::num_dim">
<polygon fill="white" stroke="black" points="170,-47.5 170,-75.5 292,-75.5 292,-47.5 170,-47.5"/>
<text text-anchor="start" x="178" y="-64.3" font-family="Helvetica,sans-Serif" font-size="9.00">prior_hessian::Composite</text>
<text text-anchor="middle" x="231" y="-54.3" font-family="Helvetica,sans-Serif" font-size="9.00">Dist::num_dim</text>
</a>
</g>
</g>
<!-- Node1&#45;&gt;Node4 -->
<g id="edge3" class="edge"><title>Node1&#45;&gt;Node4</title>
<path fill="none" stroke="midnightblue" d="M122.177,-76.2614C134.435,-74.5832 147.431,-72.804 159.997,-71.0837"/>
<polygon fill="midnightblue" stroke="midnightblue" points="160.528,-74.5438 169.961,-69.7197 159.578,-67.6085 160.528,-74.5438"/>
</g>
<!-- Node5 -->
<g id="node5" class="node"><title>Node5</title>
<g id="a_node5"><a xlink:href="classprior__hessian_1_1CompositeDist.html#a389c0e5459eeacc5f35afdf14d6a38d7" target="_top" xlink:title="prior_hessian::Composite\lDist::num_params_components">
<polygon fill="white" stroke="black" points="158,-0.5 158,-28.5 304,-28.5 304,-0.5 158,-0.5"/>
<text text-anchor="start" x="166" y="-17.3" font-family="Helvetica,sans-Serif" font-size="9.00">prior_hessian::Composite</text>
<text text-anchor="middle" x="231" y="-7.3" font-family="Helvetica,sans-Serif" font-size="9.00">Dist::num_params_components</text>
</a>
</g>
</g>
<!-- Node1&#45;&gt;Node5 -->
<g id="edge4" class="edge"><title>Node1&#45;&gt;Node5</title>
<path fill="none" stroke="midnightblue" d="M88.9043,-70.4926C107.929,-60.8648 134.185,-48.131 158,-38.5 163.478,-36.2848 169.246,-34.1092 175.034,-32.0274"/>
<polygon fill="midnightblue" stroke="midnightblue" points="176.469,-35.2334 184.747,-28.6219 174.152,-28.6277 176.469,-35.2334"/>
</g>
</g>
</svg>
