<?xml version="1.0" encoding="UTF-8" standalone="no"?>
<!DOCTYPE svg PUBLIC "-//W3C//DTD SVG 1.1//EN"
 "http://www.w3.org/Graphics/SVG/1.1/DTD/svg11.dtd">
<!-- Generated by graphviz version 2.38.0 (20140413.2041)
 -->
<!-- Title: prior_hessian::CompositeDist::set_params Pages: 1 -->
<svg width="605pt" height="58pt"
 viewBox="0.00 0.00 605.00 58.00" xmlns="http://www.w3.org/2000/svg" xmlns:xlink="http://www.w3.org/1999/xlink">
<g id="graph0" class="graph" transform="scale(1 1) rotate(0) translate(4 54)">
<title>prior_hessian::CompositeDist::set_params</title>
<polygon fill="white" stroke="none" points="-4,4 -4,-54 601,-54 601,4 -4,4"/>
<!-- Node1 -->
<g id="node1" class="node"><title>Node1</title>
<polygon fill="#bfbfbf" stroke="black" points="0,-21.5 0,-49.5 122,-49.5 122,-21.5 0,-21.5"/>
<text text-anchor="start" x="8" y="-38.3" font-family="Helvetica,sans-Serif" font-size="9.00">prior_hessian::Composite</text>
<text text-anchor="middle" x="61" y="-28.3" font-family="Helvetica,sans-Serif" font-size="9.00">Dist::set_params</text>
</g>
<!-- Node2 -->
<g id="node2" class="node"><title>Node2</title>
<g id="a_node2"><a xlink:href="classprior__hessian_1_1CompositeDist.html#a24bac25ae8c0330b8a3aacadffc9d5ae" target="_top" xlink:title="prior_hessian::Composite\lDist::rllh_components">
<polygon fill="white" stroke="black" points="475,-21.5 475,-49.5 597,-49.5 597,-21.5 475,-21.5"/>
<text text-anchor="start" x="483" y="-38.3" font-family="Helvetica,sans-Serif" font-size="9.00">prior_hessian::Composite</text>
<text text-anchor="middle" x="536" y="-28.3" font-family="Helvetica,sans-Serif" font-size="9.00">Dist::rllh_components</text>
</a>
</g>
</g>
<!-- Node1&#45;&gt;Node2 -->
<g id="edge1" class="edge"><title>Node1&#45;&gt;Node2</title>
<path fill="none" stroke="midnightblue" d="M132.278,-37.1327C140.941,-37.2842 149.673,-37.4133 158,-37.5 282.882,-38.8007 314.118,-38.8007 439,-37.5 450.585,-37.3793 462.956,-37.1768 474.831,-36.9457"/>
<polygon fill="midnightblue" stroke="midnightblue" points="132.232,-33.6314 122.169,-36.9457 132.103,-40.6302 132.232,-33.6314"/>
</g>
<!-- Node3 -->
<g id="node3" class="node"><title>Node3</title>
<g id="a_node3"><a xlink:href="classprior__hessian_1_1CompositeDist.html#a2b9cc7f1661dbd1bbd6f37c462781d5f" target="_top" xlink:title="prior_hessian::Composite\lDist::set_param_value">
<polygon fill="white" stroke="black" points="158,-0.5 158,-28.5 280,-28.5 280,-0.5 158,-0.5"/>
<text text-anchor="start" x="166" y="-17.3" font-family="Helvetica,sans-Serif" font-size="9.00">prior_hessian::Composite</text>
<text text-anchor="middle" x="219" y="-7.3" font-family="Helvetica,sans-Serif" font-size="9.00">Dist::set_param_value</text>
</a>
</g>
</g>
<!-- Node1&#45;&gt;Node3 -->
<g id="edge2" class="edge"><title>Node1&#45;&gt;Node3</title>
<path fill="none" stroke="midnightblue" d="M132.259,-26.042C140.802,-24.8921 149.469,-23.7253 157.847,-22.5976"/>
<polygon fill="midnightblue" stroke="midnightblue" points="131.757,-22.5779 122.314,-27.3809 132.691,-29.5154 131.757,-22.5779"/>
</g>
<!-- Node4 -->
<g id="node4" class="node"><title>Node4</title>
<g id="a_node4"><a xlink:href="classprior__hessian_1_1CompositeDist.html#a927fed39b2b4e87714c728d6e7b11e8b" target="_top" xlink:title="prior_hessian::Composite\lDist::params_components">
<polygon fill="white" stroke="black" points="316,-0.5 316,-28.5 439,-28.5 439,-0.5 316,-0.5"/>
<text text-anchor="start" x="324" y="-17.3" font-family="Helvetica,sans-Serif" font-size="9.00">prior_hessian::Composite</text>
<text text-anchor="middle" x="377.5" y="-7.3" font-family="Helvetica,sans-Serif" font-size="9.00">Dist::params_components</text>
</a>
</g>
</g>
<!-- Node3&#45;&gt;Node4 -->
<g id="edge3" class="edge"><title>Node3&#45;&gt;Node4</title>
<path fill="none" stroke="midnightblue" d="M290.062,-14.5C298.657,-14.5 307.385,-14.5 315.825,-14.5"/>
<polygon fill="midnightblue" stroke="midnightblue" points="290.059,-11.0001 280.059,-14.5 290.059,-18.0001 290.059,-11.0001"/>
</g>
<!-- Node4&#45;&gt;Node2 -->
<g id="edge4" class="edge"><title>Node4&#45;&gt;Node2</title>
<path fill="none" stroke="midnightblue" d="M449.059,-23.9679C457.692,-25.1264 466.452,-26.3018 474.912,-27.437"/>
<polygon fill="midnightblue" stroke="midnightblue" points="449.384,-20.4803 439.007,-22.6191 448.453,-27.4181 449.384,-20.4803"/>
</g>
</g>
</svg>
