<?xml version="1.0" encoding="UTF-8" standalone="no"?>
<!DOCTYPE svg PUBLIC "-//W3C//DTD SVG 1.1//EN"
 "http://www.w3.org/Graphics/SVG/1.1/DTD/svg11.dtd">
<!-- Generated by graphviz version 2.38.0 (20140413.2041)
 -->
<!-- Title: prior_hessian::GammaDist::llh Pages: 1 -->
<svg width="470pt" height="154pt"
 viewBox="0.00 0.00 470.00 154.00" xmlns="http://www.w3.org/2000/svg" xmlns:xlink="http://www.w3.org/1999/xlink">
<g id="graph0" class="graph" transform="scale(1 1) rotate(0) translate(4 150)">
<title>prior_hessian::GammaDist::llh</title>
<polygon fill="white" stroke="none" points="-4,4 -4,-150 466,-150 466,4 -4,4"/>
<!-- Node1 -->
<g id="node1" class="node"><title>Node1</title>
<polygon fill="#bfbfbf" stroke="black" points="0,-75.5 0,-93.5 140,-93.5 140,-75.5 0,-75.5"/>
<text text-anchor="middle" x="70" y="-82.3" font-family="Helvetica,sans-Serif" font-size="9.00">prior_hessian::GammaDist::llh</text>
</g>
<!-- Node2 -->
<g id="node2" class="node"><title>Node2</title>
<g id="a_node2"><a xlink:href="classprior__hessian_1_1GammaDist.html#a39fee270e1ff80a3125cfdfb4920adb9" target="_top" xlink:title="prior_hessian::GammaDist\l::rllh">
<polygon fill="white" stroke="black" points="176,-117.5 176,-145.5 301,-145.5 301,-117.5 176,-117.5"/>
<text text-anchor="start" x="184" y="-134.3" font-family="Helvetica,sans-Serif" font-size="9.00">prior_hessian::GammaDist</text>
<text text-anchor="middle" x="238.5" y="-124.3" font-family="Helvetica,sans-Serif" font-size="9.00">::rllh</text>
</a>
</g>
</g>
<!-- Node1&#45;&gt;Node2 -->
<g id="edge1" class="edge"><title>Node1&#45;&gt;Node2</title>
<path fill="none" stroke="midnightblue" d="M103.103,-93.5621C124.293,-99.5435 152.7,-107.563 177.939,-114.687"/>
<polygon fill="midnightblue" stroke="midnightblue" points="177.223,-118.122 187.798,-117.47 179.125,-111.385 177.223,-118.122"/>
</g>
<!-- Node3 -->
<g id="node3" class="node"><title>Node3</title>
<g id="a_node3"><a xlink:href="classprior__hessian_1_1GammaDist.html#a455e42461877165e4101f9f7f33ae84d" target="_top" xlink:title="prior_hessian::GammaDist\l::scale">
<polygon fill="white" stroke="black" points="176,-70.5 176,-98.5 301,-98.5 301,-70.5 176,-70.5"/>
<text text-anchor="start" x="184" y="-87.3" font-family="Helvetica,sans-Serif" font-size="9.00">prior_hessian::GammaDist</text>
<text text-anchor="middle" x="238.5" y="-77.3" font-family="Helvetica,sans-Serif" font-size="9.00">::scale</text>
</a>
</g>
</g>
<!-- Node1&#45;&gt;Node3 -->
<g id="edge2" class="edge"><title>Node1&#45;&gt;Node3</title>
<path fill="none" stroke="midnightblue" d="M140.165,-84.5C148.613,-84.5 157.26,-84.5 165.745,-84.5"/>
<polygon fill="midnightblue" stroke="midnightblue" points="165.99,-88.0001 175.99,-84.5 165.99,-81.0001 165.99,-88.0001"/>
</g>
<!-- Node4 -->
<g id="node4" class="node"><title>Node4</title>
<g id="a_node4"><a xlink:href="classprior__hessian_1_1GammaDist.html#a2c8b6939f7920e2e81532b5c1970567a" target="_top" xlink:title="prior_hessian::GammaDist\l::shape">
<polygon fill="white" stroke="black" points="176,-23.5 176,-51.5 301,-51.5 301,-23.5 176,-23.5"/>
<text text-anchor="start" x="184" y="-40.3" font-family="Helvetica,sans-Serif" font-size="9.00">prior_hessian::GammaDist</text>
<text text-anchor="middle" x="238.5" y="-30.3" font-family="Helvetica,sans-Serif" font-size="9.00">::shape</text>
</a>
</g>
</g>
<!-- Node1&#45;&gt;Node4 -->
<g id="edge3" class="edge"><title>Node1&#45;&gt;Node4</title>
<path fill="none" stroke="midnightblue" d="M103.103,-75.4379C124.293,-69.4565 152.7,-61.4375 177.939,-54.313"/>
<polygon fill="midnightblue" stroke="midnightblue" points="179.125,-57.615 187.798,-51.5299 177.223,-50.8783 179.125,-57.615"/>
</g>
<!-- Node5 -->
<g id="node5" class="node"><title>Node5</title>
<g id="a_node5"><a xlink:href="classprior__hessian_1_1GammaDist.html#a7560c2b0a336870b19240f6bea0eb023" target="_top" xlink:title="prior_hessian::GammaDist\l::set_scale">
<polygon fill="white" stroke="black" points="337,-47.5 337,-75.5 462,-75.5 462,-47.5 337,-47.5"/>
<text text-anchor="start" x="345" y="-64.3" font-family="Helvetica,sans-Serif" font-size="9.00">prior_hessian::GammaDist</text>
<text text-anchor="middle" x="399.5" y="-54.3" font-family="Helvetica,sans-Serif" font-size="9.00">::set_scale</text>
</a>
</g>
</g>
<!-- Node4&#45;&gt;Node5 -->
<g id="edge4" class="edge"><title>Node4&#45;&gt;Node5</title>
<path fill="none" stroke="midnightblue" d="M301.429,-46.8477C309.674,-48.0923 318.184,-49.3768 326.58,-50.6442"/>
<polygon fill="midnightblue" stroke="midnightblue" points="326.33,-54.146 336.74,-52.1778 327.375,-47.2244 326.33,-54.146"/>
</g>
<!-- Node6 -->
<g id="node6" class="node"><title>Node6</title>
<g id="a_node6"><a xlink:href="classprior__hessian_1_1GammaDist.html#aea1effd3a5de08430650cc345312b8bd" target="_top" xlink:title="prior_hessian::GammaDist\l::set_shape">
<polygon fill="white" stroke="black" points="337,-0.5 337,-28.5 462,-28.5 462,-0.5 337,-0.5"/>
<text text-anchor="start" x="345" y="-17.3" font-family="Helvetica,sans-Serif" font-size="9.00">prior_hessian::GammaDist</text>
<text text-anchor="middle" x="399.5" y="-7.3" font-family="Helvetica,sans-Serif" font-size="9.00">::set_shape</text>
</a>
</g>
</g>
<!-- Node4&#45;&gt;Node6 -->
<g id="edge5" class="edge"><title>Node4&#45;&gt;Node6</title>
<path fill="none" stroke="midnightblue" d="M301.429,-28.5417C309.674,-27.3491 318.184,-26.1181 326.58,-24.9035"/>
<polygon fill="midnightblue" stroke="midnightblue" points="327.344,-28.3295 336.74,-23.4338 326.342,-21.4016 327.344,-28.3295"/>
</g>
</g>
</svg>
