<?xml version="1.0" encoding="UTF-8" standalone="no"?>
<!DOCTYPE svg PUBLIC "-//W3C//DTD SVG 1.1//EN"
 "http://www.w3.org/Graphics/SVG/1.1/DTD/svg11.dtd">
<!-- Generated by graphviz version 2.38.0 (20140413.2041)
 -->
<!-- Title: prior_hessian::ParetoDist::icdf Pages: 1 -->
<svg width="789pt" height="670pt"
 viewBox="0.00 0.00 789.00 669.50" xmlns="http://www.w3.org/2000/svg" xmlns:xlink="http://www.w3.org/1999/xlink">
<g id="graph0" class="graph" transform="scale(1 1) rotate(0) translate(4 665.504)">
<title>prior_hessian::ParetoDist::icdf</title>
<polygon fill="white" stroke="none" points="-4,4 -4,-665.504 785,-665.504 785,4 -4,4"/>
<!-- Node1 -->
<g id="node1" class="node"><title>Node1</title>
<polygon fill="#bfbfbf" stroke="black" points="0,-397.5 0,-425.5 120,-425.5 120,-397.5 0,-397.5"/>
<text text-anchor="start" x="8" y="-414.3" font-family="Helvetica,sans-Serif" font-size="9.00">prior_hessian::ParetoDist</text>
<text text-anchor="middle" x="60" y="-404.3" font-family="Helvetica,sans-Serif" font-size="9.00">::icdf</text>
</g>
<!-- Node2 -->
<g id="node2" class="node"><title>Node2</title>
<g id="a_node2"><a xlink:href="classprior__hessian_1_1ParetoDist.html#ac610ecf8ce6df7b8b48c383e89706b80" target="_top" xlink:title="prior_hessian::ParetoDist\l::alpha">
<polygon fill="white" stroke="black" points="661,-354.5 661,-382.5 781,-382.5 781,-354.5 661,-354.5"/>
<text text-anchor="start" x="669" y="-371.3" font-family="Helvetica,sans-Serif" font-size="9.00">prior_hessian::ParetoDist</text>
<text text-anchor="middle" x="721" y="-361.3" font-family="Helvetica,sans-Serif" font-size="9.00">::alpha</text>
</a>
</g>
</g>
<!-- Node1&#45;&gt;Node2 -->
<g id="edge1" class="edge"><title>Node1&#45;&gt;Node2</title>
<path fill="none" stroke="midnightblue" d="M70.281,-425.76C99.4704,-469.116 194.484,-599.218 312,-645.5 368.654,-667.812 391.481,-665.474 449,-645.5 579.339,-600.238 674.767,-449.725 707.571,-391.643"/>
<polygon fill="midnightblue" stroke="midnightblue" points="710.667,-393.278 712.463,-382.836 704.547,-389.879 710.667,-393.278"/>
</g>
<!-- Node3 -->
<g id="node3" class="node"><title>Node3</title>
<g id="a_node3"><a xlink:href="classprior__hessian_1_1ParetoDist.html#ad117226a3ad1eee827886fc7ba38acbf" target="_top" xlink:title="prior_hessian::ParetoDist\l::lbound">
<polygon fill="white" stroke="black" points="156,-397.5 156,-425.5 276,-425.5 276,-397.5 156,-397.5"/>
<text text-anchor="start" x="164" y="-414.3" font-family="Helvetica,sans-Serif" font-size="9.00">prior_hessian::ParetoDist</text>
<text text-anchor="middle" x="216" y="-404.3" font-family="Helvetica,sans-Serif" font-size="9.00">::lbound</text>
</a>
</g>
</g>
<!-- Node1&#45;&gt;Node3 -->
<g id="edge2" class="edge"><title>Node1&#45;&gt;Node3</title>
<path fill="none" stroke="midnightblue" d="M120.1,-404.915C128.422,-404.759 137.039,-404.714 145.533,-404.779"/>
<polygon fill="midnightblue" stroke="midnightblue" points="145.759,-408.282 155.804,-404.913 145.85,-401.283 145.759,-408.282"/>
</g>
<!-- Node3&#45;&gt;Node1 -->
<g id="edge12" class="edge"><title>Node3&#45;&gt;Node1</title>
<path fill="none" stroke="midnightblue" d="M155.804,-418.087C147.48,-418.242 138.862,-418.286 130.369,-418.22"/>
<polygon fill="midnightblue" stroke="midnightblue" points="130.145,-414.717 120.1,-418.085 130.053,-421.717 130.145,-414.717"/>
</g>
<!-- Node4 -->
<g id="node4" class="node"><title>Node4</title>
<g id="a_node4"><a xlink:href="classprior__hessian_1_1ParetoDist.html#ac755ccef13fd2552861c27bf6c1cc29d" target="_top" xlink:title="prior_hessian::ParetoDist\l::set_lbound">
<polygon fill="white" stroke="black" points="320.5,-607.5 320.5,-635.5 440.5,-635.5 440.5,-607.5 320.5,-607.5"/>
<text text-anchor="start" x="328.5" y="-624.3" font-family="Helvetica,sans-Serif" font-size="9.00">prior_hessian::ParetoDist</text>
<text text-anchor="middle" x="380.5" y="-614.3" font-family="Helvetica,sans-Serif" font-size="9.00">::set_lbound</text>
</a>
</g>
</g>
<!-- Node3&#45;&gt;Node4 -->
<g id="edge3" class="edge"><title>Node3&#45;&gt;Node4</title>
<path fill="none" stroke="midnightblue" d="M220.285,-425.741C229.011,-460.417 256.024,-549.94 312,-598.5 313.508,-599.808 315.094,-601.043 316.742,-602.208"/>
<polygon fill="midnightblue" stroke="midnightblue" points="315.059,-605.281 325.425,-607.474 318.689,-599.296 315.059,-605.281"/>
</g>
<!-- Node5 -->
<g id="node5" class="node"><title>Node5</title>
<g id="a_node5"><a xlink:href="classprior__hessian_1_1ParetoDist.html#a0a1e20b0aa6c7b52c134fc2341b5fdd4" target="_top" xlink:title="prior_hessian::ParetoDist\l::mean">
<polygon fill="white" stroke="black" points="320.5,-560.5 320.5,-588.5 440.5,-588.5 440.5,-560.5 320.5,-560.5"/>
<text text-anchor="start" x="328.5" y="-577.3" font-family="Helvetica,sans-Serif" font-size="9.00">prior_hessian::ParetoDist</text>
<text text-anchor="middle" x="380.5" y="-567.3" font-family="Helvetica,sans-Serif" font-size="9.00">::mean</text>
</a>
</g>
</g>
<!-- Node3&#45;&gt;Node5 -->
<g id="edge4" class="edge"><title>Node3&#45;&gt;Node5</title>
<path fill="none" stroke="midnightblue" d="M225.569,-425.939C239.408,-452.999 269.491,-510.083 312,-542.5 320.196,-548.75 330.199,-553.367 339.968,-557.062"/>
<polygon fill="midnightblue" stroke="midnightblue" points="338.988,-560.428 349.583,-560.476 341.331,-553.832 338.988,-560.428"/>
</g>
<!-- Node6 -->
<g id="node6" class="node"><title>Node6</title>
<g id="a_node6"><a xlink:href="classprior__hessian_1_1ParetoDist.html#a74af41636088b6c727107c60dd9c81b2" target="_top" xlink:title="prior_hessian::ParetoDist\l::median">
<polygon fill="white" stroke="black" points="320.5,-513.5 320.5,-541.5 440.5,-541.5 440.5,-513.5 320.5,-513.5"/>
<text text-anchor="start" x="328.5" y="-530.3" font-family="Helvetica,sans-Serif" font-size="9.00">prior_hessian::ParetoDist</text>
<text text-anchor="middle" x="380.5" y="-520.3" font-family="Helvetica,sans-Serif" font-size="9.00">::median</text>
</a>
</g>
</g>
<!-- Node3&#45;&gt;Node6 -->
<g id="edge6" class="edge"><title>Node3&#45;&gt;Node6</title>
<path fill="none" stroke="midnightblue" d="M233.891,-425.634C251.482,-444.033 280.788,-475.128 312,-494.5 322.135,-500.79 334.15,-505.736 345.213,-509.935"/>
<polygon fill="midnightblue" stroke="midnightblue" points="344.027,-513.228 354.62,-513.448 346.476,-506.67 344.027,-513.228"/>
</g>
<!-- Node7 -->
<g id="node7" class="node"><title>Node7</title>
<g id="a_node7"><a xlink:href="classprior__hessian_1_1ParetoDist.html#afe706cb12ce6f667e7a3a9eb7311ef65" target="_top" xlink:title="prior_hessian::ParetoDist::cdf">
<polygon fill="white" stroke="black" points="312,-476.5 312,-494.5 449,-494.5 449,-476.5 312,-476.5"/>
<text text-anchor="middle" x="380.5" y="-483.3" font-family="Helvetica,sans-Serif" font-size="9.00">prior_hessian::ParetoDist::cdf</text>
</a>
</g>
</g>
<!-- Node3&#45;&gt;Node7 -->
<g id="edge9" class="edge"><title>Node3&#45;&gt;Node7</title>
<path fill="none" stroke="midnightblue" d="M250.67,-425.72C268.372,-435.751 290.757,-448.529 312,-457.5 326.69,-463.704 344.019,-468.533 357.44,-472.976"/>
<polygon fill="midnightblue" stroke="midnightblue" points="356.646,-476.409 367.241,-476.475 359,-469.817 356.646,-476.409"/>
</g>
<!-- Node8 -->
<g id="node8" class="node"><title>Node8</title>
<g id="a_node8"><a xlink:href="classprior__hessian_1_1ParetoDist.html#a07cc43c2b299fc07660684f34f32d4ee" target="_top" xlink:title="prior_hessian::ParetoDist::pdf">
<polygon fill="white" stroke="black" points="312,-439.5 312,-457.5 449,-457.5 449,-439.5 312,-439.5"/>
<text text-anchor="middle" x="380.5" y="-446.3" font-family="Helvetica,sans-Serif" font-size="9.00">prior_hessian::ParetoDist::pdf</text>
</a>
</g>
</g>
<!-- Node3&#45;&gt;Node8 -->
<g id="edge13" class="edge"><title>Node3&#45;&gt;Node8</title>
<path fill="none" stroke="midnightblue" d="M276.126,-418.44C301.279,-423.638 329.493,-430.456 350.084,-436.463"/>
<polygon fill="midnightblue" stroke="midnightblue" points="349.229,-439.861 359.815,-439.426 351.268,-433.165 349.229,-439.861"/>
</g>
<!-- Node9 -->
<g id="node9" class="node"><title>Node9</title>
<g id="a_node9"><a xlink:href="classprior__hessian_1_1ParetoDist.html#a0f7ee813a098cd3fc9c7669cda6a340c" target="_top" xlink:title="prior_hessian::ParetoDist::llh">
<polygon fill="white" stroke="black" points="313.5,-402.5 313.5,-420.5 447.5,-420.5 447.5,-402.5 313.5,-402.5"/>
<text text-anchor="middle" x="380.5" y="-409.3" font-family="Helvetica,sans-Serif" font-size="9.00">prior_hessian::ParetoDist::llh</text>
</a>
</g>
</g>
<!-- Node3&#45;&gt;Node9 -->
<g id="edge15" class="edge"><title>Node3&#45;&gt;Node9</title>
<path fill="none" stroke="midnightblue" d="M276.126,-404.978C284.895,-404.793 294.036,-404.721 303.097,-404.761"/>
<polygon fill="midnightblue" stroke="midnightblue" points="303.237,-408.262 313.269,-404.854 303.301,-401.262 303.237,-408.262"/>
</g>
<!-- Node10 -->
<g id="node10" class="node"><title>Node10</title>
<g id="a_node10"><a xlink:href="classprior__hessian_1_1ParetoDist.html#a609ed75305325062ebd80dcfaa487c69" target="_top" xlink:title="prior_hessian::ParetoDist\l::rllh">
<polygon fill="white" stroke="black" points="495,-378.5 495,-406.5 615,-406.5 615,-378.5 495,-378.5"/>
<text text-anchor="start" x="503" y="-395.3" font-family="Helvetica,sans-Serif" font-size="9.00">prior_hessian::ParetoDist</text>
<text text-anchor="middle" x="555" y="-385.3" font-family="Helvetica,sans-Serif" font-size="9.00">::rllh</text>
</a>
</g>
</g>
<!-- Node3&#45;&gt;Node10 -->
<g id="edge20" class="edge"><title>Node3&#45;&gt;Node10</title>
<path fill="none" stroke="midnightblue" d="M276.02,-397.822C287.872,-395.606 300.284,-393.66 312,-392.5 369.964,-386.76 436.121,-387.237 484.597,-388.881"/>
<polygon fill="midnightblue" stroke="midnightblue" points="484.543,-392.381 494.664,-389.248 484.798,-385.386 484.543,-392.381"/>
</g>
<!-- Node11 -->
<g id="node11" class="node"><title>Node11</title>
<g id="a_node11"><a xlink:href="classprior__hessian_1_1ParetoDist.html#a3f802550dfcad6f0e3a8ca2e93709fe9" target="_top" xlink:title="prior_hessian::ParetoDist\l::grad">
<polygon fill="white" stroke="black" points="495,-331.5 495,-359.5 615,-359.5 615,-331.5 495,-331.5"/>
<text text-anchor="start" x="503" y="-348.3" font-family="Helvetica,sans-Serif" font-size="9.00">prior_hessian::ParetoDist</text>
<text text-anchor="middle" x="555" y="-338.3" font-family="Helvetica,sans-Serif" font-size="9.00">::grad</text>
</a>
</g>
</g>
<!-- Node3&#45;&gt;Node11 -->
<g id="edge21" class="edge"><title>Node3&#45;&gt;Node11</title>
<path fill="none" stroke="midnightblue" d="M262.628,-397.361C278.192,-392.852 295.763,-388.103 312,-384.5 369.792,-371.677 436.232,-361.274 484.857,-354.448"/>
<polygon fill="midnightblue" stroke="midnightblue" points="485.53,-357.888 494.953,-353.046 484.567,-350.954 485.53,-357.888"/>
</g>
<!-- Node12 -->
<g id="node12" class="node"><title>Node12</title>
<g id="a_node12"><a xlink:href="classprior__hessian_1_1ParetoDist.html#a24a4aaa7a8edb42009d0fa8390cb4a8f" target="_top" xlink:title="prior_hessian::ParetoDist\l::grad2">
<polygon fill="white" stroke="black" points="495,-284.5 495,-312.5 615,-312.5 615,-284.5 495,-284.5"/>
<text text-anchor="start" x="503" y="-301.3" font-family="Helvetica,sans-Serif" font-size="9.00">prior_hessian::ParetoDist</text>
<text text-anchor="middle" x="555" y="-291.3" font-family="Helvetica,sans-Serif" font-size="9.00">::grad2</text>
</a>
</g>
</g>
<!-- Node3&#45;&gt;Node12 -->
<g id="edge23" class="edge"><title>Node3&#45;&gt;Node12</title>
<path fill="none" stroke="midnightblue" d="M238.028,-397.274C256.733,-385.184 285.199,-368.143 312,-357.5 368.402,-335.103 435.687,-319.532 484.975,-310.033"/>
<polygon fill="midnightblue" stroke="midnightblue" points="485.721,-313.454 494.897,-308.156 484.42,-306.576 485.721,-313.454"/>
</g>
<!-- Node13 -->
<g id="node13" class="node"><title>Node13</title>
<g id="a_node13"><a xlink:href="classprior__hessian_1_1ParetoDist.html#a20c3f90ec9ac4b5bfd179a7c97ab36e7" target="_top" xlink:title="prior_hessian::ParetoDist\l::grad_grad2_accumulate">
<polygon fill="white" stroke="black" points="494,-237.5 494,-265.5 616,-265.5 616,-237.5 494,-237.5"/>
<text text-anchor="start" x="502" y="-254.3" font-family="Helvetica,sans-Serif" font-size="9.00">prior_hessian::ParetoDist</text>
<text text-anchor="middle" x="555" y="-244.3" font-family="Helvetica,sans-Serif" font-size="9.00">::grad_grad2_accumulate</text>
</a>
</g>
</g>
<!-- Node3&#45;&gt;Node13 -->
<g id="edge25" class="edge"><title>Node3&#45;&gt;Node13</title>
<path fill="none" stroke="midnightblue" d="M226.92,-397.263C242.526,-375.963 274.883,-336.011 312,-314.5 365.063,-283.747 433.255,-267.751 483.72,-259.589"/>
<polygon fill="midnightblue" stroke="midnightblue" points="484.542,-263.004 493.887,-258.012 483.469,-256.086 484.542,-263.004"/>
</g>
<!-- Node14 -->
<g id="node14" class="node"><title>Node14</title>
<g id="a_node14"><a xlink:href="classprior__hessian_1_1ParetoDist.html#abe706f0786b5e8ef20b7caff07ffad0c" target="_top" xlink:title="prior_hessian::ParetoDist\l::sample">
<polygon fill="white" stroke="black" points="320.5,-202.5 320.5,-230.5 440.5,-230.5 440.5,-202.5 320.5,-202.5"/>
<text text-anchor="start" x="328.5" y="-219.3" font-family="Helvetica,sans-Serif" font-size="9.00">prior_hessian::ParetoDist</text>
<text text-anchor="middle" x="380.5" y="-209.3" font-family="Helvetica,sans-Serif" font-size="9.00">::sample</text>
</a>
</g>
</g>
<!-- Node3&#45;&gt;Node14 -->
<g id="edge27" class="edge"><title>Node3&#45;&gt;Node14</title>
<path fill="none" stroke="midnightblue" d="M220.194,-397.337C229.665,-364.105 260.212,-282.697 312,-236.5 312.161,-236.357 312.322,-236.214 312.484,-236.072"/>
<polygon fill="midnightblue" stroke="midnightblue" points="314.457,-238.97 320.263,-230.108 310.198,-233.415 314.457,-238.97"/>
</g>
<!-- Node15 -->
<g id="node15" class="node"><title>Node15</title>
<g id="a_node15"><a xlink:href="classprior__hessian_1_1ParetoDist.html#a0923e8b25145eed6042aa933aa4354e5" target="_top" xlink:title="prior_hessian::ParetoDist\l::check_params_iter">
<polygon fill="white" stroke="black" points="320.5,-155.5 320.5,-183.5 440.5,-183.5 440.5,-155.5 320.5,-155.5"/>
<text text-anchor="start" x="328.5" y="-172.3" font-family="Helvetica,sans-Serif" font-size="9.00">prior_hessian::ParetoDist</text>
<text text-anchor="middle" x="380.5" y="-162.3" font-family="Helvetica,sans-Serif" font-size="9.00">::check_params_iter</text>
</a>
</g>
</g>
<!-- Node3&#45;&gt;Node15 -->
<g id="edge29" class="edge"><title>Node3&#45;&gt;Node15</title>
<path fill="none" stroke="midnightblue" d="M219.084,-397.453C225.521,-358.989 248.63,-250.941 312,-192.5 313.283,-191.317 314.629,-190.195 316.027,-189.13"/>
<polygon fill="midnightblue" stroke="midnightblue" points="318.032,-192.002 324.535,-183.638 314.236,-186.121 318.032,-192.002"/>
</g>
<!-- Node17 -->
<g id="node17" class="node"><title>Node17</title>
<g id="a_node17"><a xlink:href="classprior__hessian_1_1ParetoDist.html#af5791e2cef16b34e1bbdeec24b13d22e" target="_top" xlink:title="prior_hessian::ParetoDist\l::params">
<polygon fill="white" stroke="black" points="320.5,-108.5 320.5,-136.5 440.5,-136.5 440.5,-108.5 320.5,-108.5"/>
<text text-anchor="start" x="328.5" y="-125.3" font-family="Helvetica,sans-Serif" font-size="9.00">prior_hessian::ParetoDist</text>
<text text-anchor="middle" x="380.5" y="-115.3" font-family="Helvetica,sans-Serif" font-size="9.00">::params</text>
</a>
</g>
</g>
<!-- Node3&#45;&gt;Node17 -->
<g id="edge31" class="edge"><title>Node3&#45;&gt;Node17</title>
<path fill="none" stroke="midnightblue" d="M217.606,-397.486C220.435,-352.312 235.684,-211.708 312,-136.5 312.16,-136.342 312.321,-136.186 312.483,-136.031"/>
<polygon fill="midnightblue" stroke="midnightblue" points="314.756,-138.695 320.434,-129.75 310.418,-133.202 314.756,-138.695"/>
</g>
<!-- Node19 -->
<g id="node19" class="node"><title>Node19</title>
<g id="a_node19"><a xlink:href="classprior__hessian_1_1ParetoDist.html#abc9e60af487bda1a9ec5f7e55e38682c" target="_top" xlink:title="prior_hessian::ParetoDist\l::set_params_iter">
<polygon fill="white" stroke="black" points="320.5,-61.5 320.5,-89.5 440.5,-89.5 440.5,-61.5 320.5,-61.5"/>
<text text-anchor="start" x="328.5" y="-78.3" font-family="Helvetica,sans-Serif" font-size="9.00">prior_hessian::ParetoDist</text>
<text text-anchor="middle" x="380.5" y="-68.3" font-family="Helvetica,sans-Serif" font-size="9.00">::set_params_iter</text>
</a>
</g>
</g>
<!-- Node3&#45;&gt;Node19 -->
<g id="edge35" class="edge"><title>Node3&#45;&gt;Node19</title>
<path fill="none" stroke="midnightblue" d="M216.989,-397.422C217.724,-348.887 226.739,-186.685 312,-98.5 313.049,-97.4152 314.151,-96.3816 315.298,-95.3968"/>
<polygon fill="midnightblue" stroke="midnightblue" points="317.347,-98.2346 323.457,-89.5788 313.283,-92.5353 317.347,-98.2346"/>
</g>
<!-- Node5&#45;&gt;Node3 -->
<g id="edge5" class="edge"><title>Node5&#45;&gt;Node3</title>
<path fill="none" stroke="midnightblue" d="M320.475,-566.069C317.506,-564.382 314.658,-562.527 312,-560.5 268.396,-527.249 237.867,-468.042 224.532,-434.928"/>
<polygon fill="midnightblue" stroke="midnightblue" points="227.787,-433.641 220.95,-425.547 221.247,-436.138 227.787,-433.641"/>
</g>
<!-- Node6&#45;&gt;Node2 -->
<g id="edge8" class="edge"><title>Node6&#45;&gt;Node2</title>
<path fill="none" stroke="midnightblue" d="M440.564,-522.652C492.161,-516.291 567.579,-501.712 625,-468.5 658.82,-448.939 688.119,-413.693 704.923,-390.7"/>
<polygon fill="midnightblue" stroke="midnightblue" points="707.78,-392.721 710.734,-382.546 702.08,-388.658 707.78,-392.721"/>
</g>
<!-- Node6&#45;&gt;Node3 -->
<g id="edge7" class="edge"><title>Node6&#45;&gt;Node3</title>
<path fill="none" stroke="midnightblue" d="M320.259,-517.139C317.411,-515.688 314.642,-514.14 312,-512.5 278.27,-491.564 246.765,-456.939 229.867,-433.894"/>
<polygon fill="midnightblue" stroke="midnightblue" points="232.727,-431.877 224.132,-425.682 226.988,-435.885 232.727,-431.877"/>
</g>
<!-- Node7&#45;&gt;Node2 -->
<g id="edge10" class="edge"><title>Node7&#45;&gt;Node2</title>
<path fill="none" stroke="midnightblue" d="M449.104,-479.166C499.263,-472.693 568.461,-459.965 625,-435.5 651.664,-423.962 678.38,-404.215 696.658,-389.139"/>
<polygon fill="midnightblue" stroke="midnightblue" points="699.041,-391.708 704.432,-382.587 694.53,-386.355 699.041,-391.708"/>
</g>
<!-- Node7&#45;&gt;Node3 -->
<g id="edge11" class="edge"><title>Node7&#45;&gt;Node3</title>
<path fill="none" stroke="midnightblue" d="M314.377,-476.483C313.578,-476.159 312.785,-475.832 312,-475.5 284.719,-463.979 255.555,-446.18 236.845,-431.957"/>
<polygon fill="midnightblue" stroke="midnightblue" points="238.785,-429.026 228.791,-425.507 234.409,-434.49 238.785,-429.026"/>
</g>
<!-- Node8&#45;&gt;Node3 -->
<g id="edge14" class="edge"><title>Node8&#45;&gt;Node3</title>
<path fill="none" stroke="midnightblue" d="M311.799,-439.751C295.554,-436.255 278.566,-432.222 263.532,-428.264"/>
<polygon fill="midnightblue" stroke="midnightblue" points="264.035,-424.775 253.468,-425.544 262.208,-431.532 264.035,-424.775"/>
</g>
<!-- Node9&#45;&gt;Node2 -->
<g id="edge19" class="edge"><title>Node9&#45;&gt;Node2</title>
<path fill="none" stroke="midnightblue" d="M441.157,-420.502C490.99,-426.123 563.555,-429.868 625,-415.5 648.04,-410.112 671.902,-398.279 689.948,-387.835"/>
<polygon fill="midnightblue" stroke="midnightblue" points="692.026,-390.671 698.82,-382.541 688.439,-384.66 692.026,-390.671"/>
</g>
<!-- Node9&#45;&gt;Node3 -->
<g id="edge18" class="edge"><title>Node9&#45;&gt;Node3</title>
<path fill="none" stroke="midnightblue" d="M313.269,-418.146C304.333,-418.271 295.146,-418.283 286.161,-418.183"/>
<polygon fill="midnightblue" stroke="midnightblue" points="286.181,-414.683 276.126,-418.022 286.069,-421.682 286.181,-414.683"/>
</g>
<!-- Node9&#45;&gt;Node10 -->
<g id="edge16" class="edge"><title>Node9&#45;&gt;Node10</title>
<path fill="none" stroke="midnightblue" d="M447.7,-404.208C459.799,-402.876 472.455,-401.482 484.643,-400.139"/>
<polygon fill="midnightblue" stroke="midnightblue" points="485.192,-403.6 494.748,-399.026 484.425,-396.642 485.192,-403.6"/>
</g>
<!-- Node10&#45;&gt;Node2 -->
<g id="edge17" class="edge"><title>Node10&#45;&gt;Node2</title>
<path fill="none" stroke="midnightblue" d="M615.208,-383.835C626.704,-382.153 638.849,-380.376 650.637,-378.651"/>
<polygon fill="midnightblue" stroke="midnightblue" points="651.491,-382.063 660.879,-377.152 650.478,-375.137 651.491,-382.063"/>
</g>
<!-- Node11&#45;&gt;Node2 -->
<g id="edge22" class="edge"><title>Node11&#45;&gt;Node2</title>
<path fill="none" stroke="midnightblue" d="M615.208,-353.804C626.704,-355.416 638.849,-357.119 650.637,-358.772"/>
<polygon fill="midnightblue" stroke="midnightblue" points="650.49,-362.286 660.879,-360.209 651.462,-355.354 650.49,-362.286"/>
</g>
<!-- Node12&#45;&gt;Node2 -->
<g id="edge24" class="edge"><title>Node12&#45;&gt;Node2</title>
<path fill="none" stroke="midnightblue" d="M601.24,-312.586C609.227,-315.354 617.411,-318.375 625,-321.5 645.099,-329.776 666.877,-340.421 684.504,-349.487"/>
<polygon fill="midnightblue" stroke="midnightblue" points="683.346,-352.83 693.833,-354.337 686.575,-346.619 683.346,-352.83"/>
</g>
<!-- Node13&#45;&gt;Node2 -->
<g id="edge26" class="edge"><title>Node13&#45;&gt;Node2</title>
<path fill="none" stroke="midnightblue" d="M607.32,-265.64C613.474,-268.188 619.513,-271.129 625,-274.5 656.415,-293.801 685.433,-325.359 702.926,-346.521"/>
<polygon fill="midnightblue" stroke="midnightblue" points="700.249,-348.776 709.262,-354.346 705.689,-344.371 700.249,-348.776"/>
</g>
<!-- Node14&#45;&gt;Node3 -->
<g id="edge28" class="edge"><title>Node14&#45;&gt;Node3</title>
<path fill="none" stroke="midnightblue" d="M355.211,-230.592C341.322,-236.269 324.278,-243.547 312,-254.5 269.558,-292.36 241.382,-353.868 227.382,-387.736"/>
<polygon fill="midnightblue" stroke="midnightblue" points="224.016,-386.721 223.492,-397.303 230.501,-389.358 224.016,-386.721"/>
</g>
<!-- Node16 -->
<g id="node16" class="node"><title>Node16</title>
<g id="a_node16"><a xlink:href="classprior__hessian_1_1ParetoDist.html#abac82051de116baf787e442c705e96c3" target="_top" xlink:title="prior_hessian::ParetoDist\l::check_params">
<polygon fill="white" stroke="black" points="495,-190.5 495,-218.5 615,-218.5 615,-190.5 495,-190.5"/>
<text text-anchor="start" x="503" y="-207.3" font-family="Helvetica,sans-Serif" font-size="9.00">prior_hessian::ParetoDist</text>
<text text-anchor="middle" x="555" y="-197.3" font-family="Helvetica,sans-Serif" font-size="9.00">::check_params</text>
</a>
</g>
</g>
<!-- Node15&#45;&gt;Node16 -->
<g id="edge30" class="edge"><title>Node15&#45;&gt;Node16</title>
<path fill="none" stroke="midnightblue" d="M440.865,-181.545C455.039,-184.421 470.289,-187.515 484.86,-190.472"/>
<polygon fill="midnightblue" stroke="midnightblue" points="484.322,-193.934 494.818,-192.492 485.714,-187.073 484.322,-193.934"/>
</g>
<!-- Node17&#45;&gt;Node2 -->
<g id="edge33" class="edge"><title>Node17&#45;&gt;Node2</title>
<path fill="none" stroke="midnightblue" d="M440.569,-133.864C507.883,-147.233 610.505,-169.054 625,-180.5 678.879,-223.043 704.823,-304.285 714.83,-344.594"/>
<polygon fill="midnightblue" stroke="midnightblue" points="711.432,-345.436 717.139,-354.363 718.244,-343.826 711.432,-345.436"/>
</g>
<!-- Node17&#45;&gt;Node3 -->
<g id="edge32" class="edge"><title>Node17&#45;&gt;Node3</title>
<path fill="none" stroke="midnightblue" d="M344.327,-136.614C332.802,-140.508 320.73,-145.897 312,-154.5 244.968,-220.559 225.049,-337.069 219.277,-387.467"/>
<polygon fill="midnightblue" stroke="midnightblue" points="215.793,-387.135 218.222,-397.447 222.754,-387.871 215.793,-387.135"/>
</g>
<!-- Node18 -->
<g id="node18" class="node"><title>Node18</title>
<g id="a_node18"><a xlink:href="classprior__hessian_1_1ParetoDist.html#a218ebbdec10fbdfcaabdd79dd180b39e" target="_top" xlink:title="prior_hessian::ParetoDist\l::set_params">
<polygon fill="white" stroke="black" points="495,-104.5 495,-132.5 615,-132.5 615,-104.5 495,-104.5"/>
<text text-anchor="start" x="503" y="-121.3" font-family="Helvetica,sans-Serif" font-size="9.00">prior_hessian::ParetoDist</text>
<text text-anchor="middle" x="555" y="-111.3" font-family="Helvetica,sans-Serif" font-size="9.00">::set_params</text>
</a>
</g>
</g>
<!-- Node17&#45;&gt;Node18 -->
<g id="edge34" class="edge"><title>Node17&#45;&gt;Node18</title>
<path fill="none" stroke="midnightblue" d="M440.865,-121.123C454.902,-120.798 469.996,-120.448 484.44,-120.113"/>
<polygon fill="midnightblue" stroke="midnightblue" points="484.902,-123.603 494.818,-119.872 484.74,-116.605 484.902,-123.603"/>
</g>
<!-- Node19&#45;&gt;Node2 -->
<g id="edge39" class="edge"><title>Node19&#45;&gt;Node2</title>
<path fill="none" stroke="midnightblue" d="M440.746,-63.3193C494.432,-55.8472 572.892,-54.2705 625,-94.5 704.974,-156.243 717.942,-289.554 719.812,-344.291"/>
<polygon fill="midnightblue" stroke="midnightblue" points="716.317,-344.524 720.059,-354.436 723.315,-344.354 716.317,-344.524"/>
</g>
<!-- Node19&#45;&gt;Node18 -->
<g id="edge40" class="edge"><title>Node19&#45;&gt;Node18</title>
<path fill="none" stroke="midnightblue" d="M437.983,-89.5798C453.85,-93.5351 471.249,-97.8723 487.636,-101.957"/>
<polygon fill="midnightblue" stroke="midnightblue" points="487.135,-105.439 497.685,-104.462 488.828,-98.6471 487.135,-105.439"/>
</g>
<!-- Node20 -->
<g id="node20" class="node"><title>Node20</title>
<g id="a_node20"><a xlink:href="classprior__hessian_1_1ParetoDist.html#acef10b17c003468838f548ed255d7e1f" target="_top" xlink:title="prior_hessian::ParetoDist::min">
<polygon fill="white" stroke="black" points="485,-28.5 485,-46.5 625,-46.5 625,-28.5 485,-28.5"/>
<text text-anchor="middle" x="555" y="-35.3" font-family="Helvetica,sans-Serif" font-size="9.00">prior_hessian::ParetoDist::min</text>
</a>
</g>
</g>
<!-- Node19&#45;&gt;Node20 -->
<g id="edge36" class="edge"><title>Node19&#45;&gt;Node20</title>
<path fill="none" stroke="midnightblue" d="M440.865,-62.4226C461.114,-57.9617 483.561,-53.017 503.087,-48.7157"/>
<polygon fill="midnightblue" stroke="midnightblue" points="503.991,-52.1005 513.004,-46.5311 502.485,-45.2644 503.991,-52.1005"/>
</g>
<!-- Node21 -->
<g id="node21" class="node"><title>Node21</title>
<g id="a_node21"><a xlink:href="classprior__hessian_1_1ParetoDist.html#ace279cdfa7dbdcd8805ddb2ec4b46ee2" target="_top" xlink:title="prior_hessian::ParetoDist\l::set_min">
<polygon fill="white" stroke="black" points="661,-47.5 661,-75.5 781,-75.5 781,-47.5 661,-47.5"/>
<text text-anchor="start" x="669" y="-64.3" font-family="Helvetica,sans-Serif" font-size="9.00">prior_hessian::ParetoDist</text>
<text text-anchor="middle" x="721" y="-54.3" font-family="Helvetica,sans-Serif" font-size="9.00">::set_min</text>
</a>
</g>
</g>
<!-- Node20&#45;&gt;Node21 -->
<g id="edge37" class="edge"><title>Node20&#45;&gt;Node21</title>
<path fill="none" stroke="midnightblue" d="M617.534,-46.505C628.39,-48.0936 639.757,-49.7571 650.806,-51.374"/>
<polygon fill="midnightblue" stroke="midnightblue" points="650.438,-54.8574 660.839,-52.8423 651.452,-47.9311 650.438,-54.8574"/>
</g>
<!-- Node22 -->
<g id="node22" class="node"><title>Node22</title>
<g id="a_node22"><a xlink:href="classprior__hessian_1_1ParetoDist.html#a5c2b026477495e3fc91a1cfb653d8a97" target="_top" xlink:title="prior_hessian::ParetoDist\l::set_alpha">
<polygon fill="white" stroke="black" points="661,-0.5 661,-28.5 781,-28.5 781,-0.5 661,-0.5"/>
<text text-anchor="start" x="669" y="-17.3" font-family="Helvetica,sans-Serif" font-size="9.00">prior_hessian::ParetoDist</text>
<text text-anchor="middle" x="721" y="-7.3" font-family="Helvetica,sans-Serif" font-size="9.00">::set_alpha</text>
</a>
</g>
</g>
<!-- Node20&#45;&gt;Node22 -->
<g id="edge38" class="edge"><title>Node20&#45;&gt;Node22</title>
<path fill="none" stroke="midnightblue" d="M620.346,-28.4758C630.375,-27.0694 640.773,-25.6112 650.901,-24.1907"/>
<polygon fill="midnightblue" stroke="midnightblue" points="651.499,-27.6411 660.916,-22.7861 650.527,-20.709 651.499,-27.6411"/>
</g>
</g>
</svg>
