<?xml version="1.0" encoding="UTF-8" standalone="no"?>
<!DOCTYPE svg PUBLIC "-//W3C//DTD SVG 1.1//EN"
 "http://www.w3.org/Graphics/SVG/1.1/DTD/svg11.dtd">
<!-- Generated by graphviz version 2.38.0 (20140413.2041)
 -->
<!-- Title: prior_hessian::ParetoDist::sample Pages: 1 -->
<svg width="613pt" height="383pt"
 viewBox="0.00 0.00 613.00 383.00" xmlns="http://www.w3.org/2000/svg" xmlns:xlink="http://www.w3.org/1999/xlink">
<g id="graph0" class="graph" transform="scale(1 1) rotate(0) translate(4 379)">
<title>prior_hessian::ParetoDist::sample</title>
<polygon fill="white" stroke="none" points="-4,4 -4,-379 609,-379 609,4 -4,4"/>
<!-- Node1 -->
<g id="node1" class="node"><title>Node1</title>
<polygon fill="#bfbfbf" stroke="black" points="0,-152.5 0,-180.5 120,-180.5 120,-152.5 0,-152.5"/>
<text text-anchor="start" x="8" y="-169.3" font-family="Helvetica,sans-Serif" font-size="9.00">prior_hessian::ParetoDist</text>
<text text-anchor="middle" x="60" y="-159.3" font-family="Helvetica,sans-Serif" font-size="9.00">::sample</text>
</g>
<!-- Node2 -->
<g id="node2" class="node"><title>Node2</title>
<g id="a_node2"><a xlink:href="classprior__hessian_1_1ParetoDist.html#ad117226a3ad1eee827886fc7ba38acbf" target="_top" xlink:title="prior_hessian::ParetoDist\l::lbound">
<polygon fill="white" stroke="black" points="156,-152.5 156,-180.5 276,-180.5 276,-152.5 156,-152.5"/>
<text text-anchor="start" x="164" y="-169.3" font-family="Helvetica,sans-Serif" font-size="9.00">prior_hessian::ParetoDist</text>
<text text-anchor="middle" x="216" y="-159.3" font-family="Helvetica,sans-Serif" font-size="9.00">::lbound</text>
</a>
</g>
</g>
<!-- Node1&#45;&gt;Node2 -->
<g id="edge1" class="edge"><title>Node1&#45;&gt;Node2</title>
<path fill="none" stroke="midnightblue" d="M130.369,-159.78C138.862,-159.714 147.48,-159.758 155.804,-159.913"/>
<polygon fill="midnightblue" stroke="midnightblue" points="130.053,-156.283 120.1,-159.915 130.145,-163.283 130.053,-156.283"/>
</g>
<!-- Node2&#45;&gt;Node1 -->
<g id="edge21" class="edge"><title>Node2&#45;&gt;Node1</title>
<path fill="none" stroke="midnightblue" d="M145.533,-173.221C137.039,-173.286 128.422,-173.241 120.1,-173.085"/>
<polygon fill="midnightblue" stroke="midnightblue" points="145.85,-176.717 155.804,-173.087 145.759,-169.718 145.85,-176.717"/>
</g>
<!-- Node3 -->
<g id="node3" class="node"><title>Node3</title>
<g id="a_node3"><a xlink:href="classprior__hessian_1_1ParetoDist.html#afe706cb12ce6f667e7a3a9eb7311ef65" target="_top" xlink:title="prior_hessian::ParetoDist::cdf">
<polygon fill="white" stroke="black" points="312,-356.5 312,-374.5 449,-374.5 449,-356.5 312,-356.5"/>
<text text-anchor="middle" x="380.5" y="-363.3" font-family="Helvetica,sans-Serif" font-size="9.00">prior_hessian::ParetoDist::cdf</text>
</a>
</g>
</g>
<!-- Node2&#45;&gt;Node3 -->
<g id="edge2" class="edge"><title>Node2&#45;&gt;Node3</title>
<path fill="none" stroke="midnightblue" d="M224.47,-190.138C236.197,-227.512 262.831,-299.222 312,-338.5 324.887,-348.795 343.132,-353.231 357.405,-356.478"/>
<polygon fill="midnightblue" stroke="midnightblue" points="227.816,-189.108 221.552,-180.563 221.12,-191.149 227.816,-189.108"/>
</g>
<!-- Node4 -->
<g id="node4" class="node"><title>Node4</title>
<g id="a_node4"><a xlink:href="classprior__hessian_1_1ParetoDist.html#adc9bafea285be38186ec4ad161850b56" target="_top" xlink:title="prior_hessian::ParetoDist\l::get_param">
<polygon fill="white" stroke="black" points="320.5,-309.5 320.5,-337.5 440.5,-337.5 440.5,-309.5 320.5,-309.5"/>
<text text-anchor="start" x="328.5" y="-326.3" font-family="Helvetica,sans-Serif" font-size="9.00">prior_hessian::ParetoDist</text>
<text text-anchor="middle" x="380.5" y="-316.3" font-family="Helvetica,sans-Serif" font-size="9.00">::get_param</text>
</a>
</g>
</g>
<!-- Node2&#45;&gt;Node4 -->
<g id="edge4" class="edge"><title>Node2&#45;&gt;Node4</title>
<path fill="none" stroke="midnightblue" d="M227.913,-190.111C242.844,-219.934 272.374,-270.92 312,-300.5 316.564,-303.907 321.667,-306.832 326.968,-309.338"/>
<polygon fill="midnightblue" stroke="midnightblue" points="230.938,-188.33 223.415,-180.87 224.644,-191.393 230.938,-188.33"/>
</g>
<!-- Node6 -->
<g id="node6" class="node"><title>Node6</title>
<g id="a_node6"><a xlink:href="classprior__hessian_1_1ParetoDist.html#a9d1040a7a5ca261feebe56f42e5698ea" target="_top" xlink:title="prior_hessian::ParetoDist\l::icdf">
<polygon fill="white" stroke="black" points="320.5,-262.5 320.5,-290.5 440.5,-290.5 440.5,-262.5 320.5,-262.5"/>
<text text-anchor="start" x="328.5" y="-279.3" font-family="Helvetica,sans-Serif" font-size="9.00">prior_hessian::ParetoDist</text>
<text text-anchor="middle" x="380.5" y="-269.3" font-family="Helvetica,sans-Serif" font-size="9.00">::icdf</text>
</a>
</g>
</g>
<!-- Node2&#45;&gt;Node6 -->
<g id="edge6" class="edge"><title>Node2&#45;&gt;Node6</title>
<path fill="none" stroke="midnightblue" d="M242.265,-187.531C260.149,-204.932 285.569,-228.838 312,-244.5 324.994,-252.2 340.933,-257.784 354.059,-262.495"/>
<polygon fill="midnightblue" stroke="midnightblue" points="244.681,-184.998 235.081,-180.515 239.79,-190.006 244.681,-184.998"/>
</g>
<!-- Node7 -->
<g id="node7" class="node"><title>Node7</title>
<g id="a_node7"><a xlink:href="classprior__hessian_1_1ParetoDist.html#ae3776388549cf35e9fea96963624cf6e" target="_top" xlink:title="prior_hessian::ParetoDist\l::in_bounds">
<polygon fill="white" stroke="black" points="320.5,-215.5 320.5,-243.5 440.5,-243.5 440.5,-215.5 320.5,-215.5"/>
<text text-anchor="start" x="328.5" y="-232.3" font-family="Helvetica,sans-Serif" font-size="9.00">prior_hessian::ParetoDist</text>
<text text-anchor="middle" x="380.5" y="-222.3" font-family="Helvetica,sans-Serif" font-size="9.00">::in_bounds</text>
</a>
</g>
</g>
<!-- Node2&#45;&gt;Node7 -->
<g id="edge8" class="edge"><title>Node2&#45;&gt;Node7</title>
<path fill="none" stroke="midnightblue" d="M258.287,-184.627C274.875,-191.714 294.243,-199.746 312,-206.5 319.984,-209.537 328.568,-212.608 336.849,-215.473"/>
<polygon fill="midnightblue" stroke="midnightblue" points="259.444,-181.314 248.875,-180.579 256.679,-187.745 259.444,-181.314"/>
</g>
<!-- Node8 -->
<g id="node8" class="node"><title>Node8</title>
<g id="a_node8"><a xlink:href="classprior__hessian_1_1ParetoDist.html#a0f7ee813a098cd3fc9c7669cda6a340c" target="_top" xlink:title="prior_hessian::ParetoDist::llh">
<polygon fill="white" stroke="black" points="313.5,-178.5 313.5,-196.5 447.5,-196.5 447.5,-178.5 313.5,-178.5"/>
<text text-anchor="middle" x="380.5" y="-185.3" font-family="Helvetica,sans-Serif" font-size="9.00">prior_hessian::ParetoDist::llh</text>
</a>
</g>
</g>
<!-- Node2&#45;&gt;Node8 -->
<g id="edge9" class="edge"><title>Node2&#45;&gt;Node8</title>
<path fill="none" stroke="midnightblue" d="M286.084,-168.746C308.761,-171.422 332.73,-174.981 350.711,-178.481"/>
<polygon fill="midnightblue" stroke="midnightblue" points="286.456,-165.265 276.126,-167.618 285.669,-172.221 286.456,-165.265"/>
</g>
<!-- Node9 -->
<g id="node9" class="node"><title>Node9</title>
<g id="a_node9"><a xlink:href="classprior__hessian_1_1ParetoDist.html#a0a1e20b0aa6c7b52c134fc2341b5fdd4" target="_top" xlink:title="prior_hessian::ParetoDist\l::mean">
<polygon fill="white" stroke="black" points="320.5,-131.5 320.5,-159.5 440.5,-159.5 440.5,-131.5 320.5,-131.5"/>
<text text-anchor="start" x="328.5" y="-148.3" font-family="Helvetica,sans-Serif" font-size="9.00">prior_hessian::ParetoDist</text>
<text text-anchor="middle" x="380.5" y="-138.3" font-family="Helvetica,sans-Serif" font-size="9.00">::mean</text>
</a>
</g>
</g>
<!-- Node2&#45;&gt;Node9 -->
<g id="edge11" class="edge"><title>Node2&#45;&gt;Node9</title>
<path fill="none" stroke="midnightblue" d="M285.316,-150.998C296.954,-149.355 308.956,-147.854 320.332,-146.623"/>
<polygon fill="midnightblue" stroke="midnightblue" points="284.596,-147.566 275.207,-152.475 285.608,-154.492 284.596,-147.566"/>
</g>
<!-- Node10 -->
<g id="node10" class="node"><title>Node10</title>
<g id="a_node10"><a xlink:href="classprior__hessian_1_1ParetoDist.html#a74af41636088b6c727107c60dd9c81b2" target="_top" xlink:title="prior_hessian::ParetoDist\l::median">
<polygon fill="white" stroke="black" points="320.5,-84.5 320.5,-112.5 440.5,-112.5 440.5,-84.5 320.5,-84.5"/>
<text text-anchor="start" x="328.5" y="-101.3" font-family="Helvetica,sans-Serif" font-size="9.00">prior_hessian::ParetoDist</text>
<text text-anchor="middle" x="380.5" y="-91.3" font-family="Helvetica,sans-Serif" font-size="9.00">::median</text>
</a>
</g>
</g>
<!-- Node2&#45;&gt;Node10 -->
<g id="edge13" class="edge"><title>Node2&#45;&gt;Node10</title>
<path fill="none" stroke="midnightblue" d="M241.239,-147.165C260.275,-136.297 287.561,-123.48 312,-113.5 314.763,-112.372 317.602,-111.244 320.477,-110.134"/>
<polygon fill="midnightblue" stroke="midnightblue" points="239.395,-144.189 232.605,-152.322 242.985,-150.198 239.395,-144.189"/>
</g>
<!-- Node11 -->
<g id="node11" class="node"><title>Node11</title>
<g id="a_node11"><a xlink:href="classprior__hessian_1_1ParetoDist.html#af5791e2cef16b34e1bbdeec24b13d22e" target="_top" xlink:title="prior_hessian::ParetoDist\l::params">
<polygon fill="white" stroke="black" points="320.5,-37.5 320.5,-65.5 440.5,-65.5 440.5,-37.5 320.5,-37.5"/>
<text text-anchor="start" x="328.5" y="-54.3" font-family="Helvetica,sans-Serif" font-size="9.00">prior_hessian::ParetoDist</text>
<text text-anchor="middle" x="380.5" y="-44.3" font-family="Helvetica,sans-Serif" font-size="9.00">::params</text>
</a>
</g>
</g>
<!-- Node2&#45;&gt;Node11 -->
<g id="edge15" class="edge"><title>Node2&#45;&gt;Node11</title>
<path fill="none" stroke="midnightblue" d="M230.13,-143.987C247.121,-121.173 278.538,-87.1427 312,-66.5 314.646,-64.8675 317.42,-63.3249 320.27,-61.8787"/>
<polygon fill="midnightblue" stroke="midnightblue" points="227.079,-142.239 224.155,-152.422 232.791,-146.285 227.079,-142.239"/>
</g>
<!-- Node13 -->
<g id="node13" class="node"><title>Node13</title>
<g id="a_node13"><a xlink:href="classprior__hessian_1_1ParetoDist.html#a07cc43c2b299fc07660684f34f32d4ee" target="_top" xlink:title="prior_hessian::ParetoDist::pdf">
<polygon fill="white" stroke="black" points="312,-0.5 312,-18.5 449,-18.5 449,-0.5 312,-0.5"/>
<text text-anchor="middle" x="380.5" y="-7.3" font-family="Helvetica,sans-Serif" font-size="9.00">prior_hessian::ParetoDist::pdf</text>
</a>
</g>
</g>
<!-- Node2&#45;&gt;Node13 -->
<g id="edge19" class="edge"><title>Node2&#45;&gt;Node13</title>
<path fill="none" stroke="midnightblue" d="M224.41,-143.069C237.567,-110.001 267.842,-51.1009 312,-19.5 312.396,-19.2166 312.796,-18.9374 313.2,-18.6624"/>
<polygon fill="midnightblue" stroke="midnightblue" points="221.129,-141.852 220.88,-152.444 227.68,-144.318 221.129,-141.852"/>
</g>
<!-- Node3&#45;&gt;Node2 -->
<g id="edge3" class="edge"><title>Node3&#45;&gt;Node2</title>
<path fill="none" stroke="midnightblue" d="M303.978,-349.632C250.909,-301.077 226.419,-214.986 219.298,-180.684"/>
<polygon fill="midnightblue" stroke="midnightblue" points="301.79,-352.366 311.657,-356.225 306.349,-347.055 301.79,-352.366"/>
</g>
<!-- Node5 -->
<g id="node5" class="node"><title>Node5</title>
<g id="a_node5"><a xlink:href="classprior__hessian_1_1ParetoDist.html#a572ad9f28d83da610e1b81c88876563a" target="_top" xlink:title="prior_hessian::ParetoDist\l::ParetoDist">
<polygon fill="white" stroke="black" points="485,-309.5 485,-337.5 605,-337.5 605,-309.5 485,-309.5"/>
<text text-anchor="start" x="493" y="-326.3" font-family="Helvetica,sans-Serif" font-size="9.00">prior_hessian::ParetoDist</text>
<text text-anchor="middle" x="545" y="-316.3" font-family="Helvetica,sans-Serif" font-size="9.00">::ParetoDist</text>
</a>
</g>
</g>
<!-- Node4&#45;&gt;Node5 -->
<g id="edge5" class="edge"><title>Node4&#45;&gt;Node5</title>
<path fill="none" stroke="midnightblue" d="M450.911,-323.5C462.235,-323.5 473.873,-323.5 484.918,-323.5"/>
<polygon fill="midnightblue" stroke="midnightblue" points="450.626,-320 440.626,-323.5 450.626,-327 450.626,-320"/>
</g>
<!-- Node6&#45;&gt;Node2 -->
<g id="edge7" class="edge"><title>Node6&#45;&gt;Node2</title>
<path fill="none" stroke="midnightblue" d="M311.617,-261.68C270.208,-235.484 238.403,-200.452 224.45,-180.528"/>
<polygon fill="midnightblue" stroke="midnightblue" points="309.946,-264.76 320.31,-266.961 313.58,-258.778 309.946,-264.76"/>
</g>
<!-- Node8&#45;&gt;Node2 -->
<g id="edge10" class="edge"><title>Node8&#45;&gt;Node2</title>
<path fill="none" stroke="midnightblue" d="M303.244,-184.384C293.818,-183.209 284.303,-181.9 275.207,-180.525"/>
<polygon fill="midnightblue" stroke="midnightblue" points="303.067,-187.888 313.412,-185.604 303.9,-180.938 303.067,-187.888"/>
</g>
<!-- Node9&#45;&gt;Node2 -->
<g id="edge12" class="edge"><title>Node9&#45;&gt;Node2</title>
<path fill="none" stroke="midnightblue" d="M311.127,-161.01C299.492,-162.652 287.496,-164.151 276.126,-165.382"/>
<polygon fill="midnightblue" stroke="midnightblue" points="311.844,-164.442 321.234,-159.534 310.833,-157.516 311.844,-164.442"/>
</g>
<!-- Node10&#45;&gt;Node2 -->
<g id="edge14" class="edge"><title>Node10&#45;&gt;Node2</title>
<path fill="none" stroke="midnightblue" d="M350.311,-116.547C338.344,-121.375 324.414,-126.431 312,-131.5 296.014,-138.028 278.81,-145.77 263.494,-152.466"/>
<polygon fill="midnightblue" stroke="midnightblue" points="351.961,-119.651 359.825,-112.551 349.25,-113.197 351.961,-119.651"/>
</g>
<!-- Node11&#45;&gt;Node2 -->
<g id="edge18" class="edge"><title>Node11&#45;&gt;Node2</title>
<path fill="none" stroke="midnightblue" d="M345.233,-69.0976C334.171,-73.2985 322.152,-78.2372 312,-84.5 281.094,-103.566 251.932,-134.052 234.27,-152.262"/>
<polygon fill="midnightblue" stroke="midnightblue" points="346.497,-72.3619 354.638,-65.581 344.045,-65.8053 346.497,-72.3619"/>
</g>
<!-- Node12 -->
<g id="node12" class="node"><title>Node12</title>
<g id="a_node12"><a xlink:href="classprior__hessian_1_1ParetoDist.html#ad90392cbacf44f0760b46e80a2676a08" target="_top" xlink:title="prior_hessian::ParetoDist\l::check_params">
<polygon fill="white" stroke="black" points="485,-37.5 485,-65.5 605,-65.5 605,-37.5 485,-37.5"/>
<text text-anchor="start" x="493" y="-54.3" font-family="Helvetica,sans-Serif" font-size="9.00">prior_hessian::ParetoDist</text>
<text text-anchor="middle" x="545" y="-44.3" font-family="Helvetica,sans-Serif" font-size="9.00">::check_params</text>
</a>
</g>
</g>
<!-- Node11&#45;&gt;Node12 -->
<g id="edge16" class="edge"><title>Node11&#45;&gt;Node12</title>
<path fill="none" stroke="midnightblue" d="M450.911,-51.5C462.235,-51.5 473.873,-51.5 484.918,-51.5"/>
<polygon fill="midnightblue" stroke="midnightblue" points="450.626,-48.0001 440.626,-51.5 450.626,-55.0001 450.626,-48.0001"/>
</g>
<!-- Node12&#45;&gt;Node12 -->
<g id="edge17" class="edge"><title>Node12&#45;&gt;Node12</title>
<path fill="none" stroke="midnightblue" d="M515.354,-75.4873C518.502,-80.4413 528.384,-84 545,-84 571.586,-84 580.933,-74.8898 573.04,-65.5305"/>
<polygon fill="midnightblue" stroke="midnightblue" points="518.823,-75.9603 516.96,-65.5305 511.912,-74.8453 518.823,-75.9603"/>
</g>
<!-- Node13&#45;&gt;Node2 -->
<g id="edge20" class="edge"><title>Node13&#45;&gt;Node2</title>
<path fill="none" stroke="midnightblue" d="M351.319,-21.1217C338.418,-24.6106 323.483,-29.2821 312,-37.5 268.95,-68.3075 239.096,-125.06 225.433,-152.062"/>
<polygon fill="midnightblue" stroke="midnightblue" points="352.35,-24.4695 361.125,-18.532 350.562,-17.7016 352.35,-24.4695"/>
</g>
</g>
</svg>
