<?xml version="1.0" encoding="UTF-8" standalone="no"?>
<!DOCTYPE svg PUBLIC "-//W3C//DTD SVG 1.1//EN"
 "http://www.w3.org/Graphics/SVG/1.1/DTD/svg11.dtd">
<!-- Generated by graphviz version 2.38.0 (20140413.2041)
 -->
<!-- Title: prior_hessian::CompositeDist::num_dim_components Pages: 1 -->
<svg width="455pt" height="84pt"
 viewBox="0.00 0.00 455.00 84.00" xmlns="http://www.w3.org/2000/svg" xmlns:xlink="http://www.w3.org/1999/xlink">
<g id="graph0" class="graph" transform="scale(1 1) rotate(0) translate(4 80)">
<title>prior_hessian::CompositeDist::num_dim_components</title>
<polygon fill="white" stroke="none" points="-4,4 -4,-80 451,-80 451,4 -4,4"/>
<!-- Node1 -->
<g id="node1" class="node"><title>Node1</title>
<polygon fill="#bfbfbf" stroke="black" points="0,-23.5 0,-51.5 131,-51.5 131,-23.5 0,-23.5"/>
<text text-anchor="start" x="8" y="-40.3" font-family="Helvetica,sans-Serif" font-size="9.00">prior_hessian::Composite</text>
<text text-anchor="middle" x="65.5" y="-30.3" font-family="Helvetica,sans-Serif" font-size="9.00">Dist::num_dim_components</text>
</g>
<!-- Node2 -->
<g id="node2" class="node"><title>Node2</title>
<g id="a_node2"><a xlink:href="classprior__hessian_1_1CompositeDist.html#a9c8cf14584b037663fe8ef27f77e3bcf" target="_top" xlink:title="prior_hessian::Composite\lDist::dim_variables">
<polygon fill="white" stroke="black" points="167,-47.5 167,-75.5 289,-75.5 289,-47.5 167,-47.5"/>
<text text-anchor="start" x="175" y="-64.3" font-family="Helvetica,sans-Serif" font-size="9.00">prior_hessian::Composite</text>
<text text-anchor="middle" x="228" y="-54.3" font-family="Helvetica,sans-Serif" font-size="9.00">Dist::dim_variables</text>
</a>
</g>
</g>
<!-- Node1&#45;&gt;Node2 -->
<g id="edge1" class="edge"><title>Node1&#45;&gt;Node2</title>
<path fill="none" stroke="midnightblue" d="M131.319,-47.1925C139.761,-48.4549 148.439,-49.7526 156.962,-51.027"/>
<polygon fill="midnightblue" stroke="midnightblue" points="156.463,-54.4913 166.871,-52.5087 157.499,-47.5683 156.463,-54.4913"/>
</g>
<!-- Node3 -->
<g id="node3" class="node"><title>Node3</title>
<g id="a_node3"><a xlink:href="classprior__hessian_1_1CompositeDist.html#a6a84d1519fcee908bd41abd4a989f666" target="_top" xlink:title="prior_hessian::Composite\lDist::set_dim_variables">
<polygon fill="white" stroke="black" points="167,-0.5 167,-28.5 289,-28.5 289,-0.5 167,-0.5"/>
<text text-anchor="start" x="175" y="-17.3" font-family="Helvetica,sans-Serif" font-size="9.00">prior_hessian::Composite</text>
<text text-anchor="middle" x="228" y="-7.3" font-family="Helvetica,sans-Serif" font-size="9.00">Dist::set_dim_variables</text>
</a>
</g>
</g>
<!-- Node1&#45;&gt;Node3 -->
<g id="edge2" class="edge"><title>Node1&#45;&gt;Node3</title>
<path fill="none" stroke="midnightblue" d="M131.319,-28.2113C139.761,-27.0016 148.439,-25.7579 156.962,-24.5366"/>
<polygon fill="midnightblue" stroke="midnightblue" points="157.469,-27.9998 166.871,-23.1166 156.476,-21.0706 157.469,-27.9998"/>
</g>
<!-- Node4 -->
<g id="node4" class="node"><title>Node4</title>
<g id="a_node4"><a xlink:href="classprior__hessian_1_1CompositeDist.html#ad532e3fe9e7293fef7b293d3c94a1ddc" target="_top" xlink:title="prior_hessian::Composite\lDist::num_dim">
<polygon fill="white" stroke="black" points="325,-0.5 325,-28.5 447,-28.5 447,-0.5 325,-0.5"/>
<text text-anchor="start" x="333" y="-17.3" font-family="Helvetica,sans-Serif" font-size="9.00">prior_hessian::Composite</text>
<text text-anchor="middle" x="386" y="-7.3" font-family="Helvetica,sans-Serif" font-size="9.00">Dist::num_dim</text>
</a>
</g>
</g>
<!-- Node3&#45;&gt;Node4 -->
<g id="edge3" class="edge"><title>Node3&#45;&gt;Node4</title>
<path fill="none" stroke="midnightblue" d="M289.314,-14.5C297.604,-14.5 306.175,-14.5 314.626,-14.5"/>
<polygon fill="midnightblue" stroke="midnightblue" points="314.847,-18.0001 324.847,-14.5 314.847,-11.0001 314.847,-18.0001"/>
</g>
</g>
</svg>
