<?xml version="1.0" encoding="UTF-8" standalone="no"?>
<!DOCTYPE svg PUBLIC "-//W3C//DTD SVG 1.1//EN"
 "http://www.w3.org/Graphics/SVG/1.1/DTD/svg11.dtd">
<!-- Generated by graphviz version 2.38.0 (20140413.2041)
 -->
<!-- Title: prior_hessian::CompositeDist::params Pages: 1 -->
<svg width="988pt" height="338pt"
 viewBox="0.00 0.00 988.00 338.00" xmlns="http://www.w3.org/2000/svg" xmlns:xlink="http://www.w3.org/1999/xlink">
<g id="graph0" class="graph" transform="scale(1 1) rotate(0) translate(4 334)">
<title>prior_hessian::CompositeDist::params</title>
<polygon fill="white" stroke="none" points="-4,4 -4,-334 984,-334 984,4 -4,4"/>
<!-- Node1 -->
<g id="node1" class="node"><title>Node1</title>
<polygon fill="#bfbfbf" stroke="black" points="0,-140.5 0,-168.5 122,-168.5 122,-140.5 0,-140.5"/>
<text text-anchor="start" x="8" y="-157.3" font-family="Helvetica,sans-Serif" font-size="9.00">prior_hessian::Composite</text>
<text text-anchor="middle" x="61" y="-147.3" font-family="Helvetica,sans-Serif" font-size="9.00">Dist::params</text>
</g>
<!-- Node2 -->
<g id="node2" class="node"><title>Node2</title>
<g id="a_node2"><a xlink:href="classprior__hessian_1_1CompositeDist_1_1ComponentDistAdaptor_3_01Dist_00_01meta_1_1EnableIfSubclc6c9bd83bba546a81e521c87ad7ee6d3.html#a77177345ebf003c453a3850d370d18b4" target="_top" xlink:title="prior_hessian::Composite\lDist::ComponentDistAdaptor\l\&lt; Dist, meta::EnableIfSubclassT\l\&lt; Dist, UnivariateDist \&gt; \&gt;::append_params">
<polygon fill="white" stroke="black" points="158,-281.5 158,-329.5 347,-329.5 347,-281.5 158,-281.5"/>
<text text-anchor="start" x="166" y="-318.3" font-family="Helvetica,sans-Serif" font-size="9.00">prior_hessian::Composite</text>
<text text-anchor="start" x="166" y="-308.3" font-family="Helvetica,sans-Serif" font-size="9.00">Dist::ComponentDistAdaptor</text>
<text text-anchor="start" x="166" y="-298.3" font-family="Helvetica,sans-Serif" font-size="9.00">&lt; Dist, meta::EnableIfSubclassT</text>
<text text-anchor="middle" x="252.5" y="-288.3" font-family="Helvetica,sans-Serif" font-size="9.00">&lt; Dist, UnivariateDist &gt; &gt;::append_params</text>
</a>
</g>
</g>
<!-- Node1&#45;&gt;Node2 -->
<g id="edge1" class="edge"><title>Node1&#45;&gt;Node2</title>
<path fill="none" stroke="midnightblue" d="M75.0636,-177.187C91.3364,-203.574 121.495,-246.791 158,-272.5 162.644,-275.771 167.645,-278.747 172.833,-281.449"/>
<polygon fill="midnightblue" stroke="midnightblue" points="78.0565,-175.372 69.8991,-168.611 72.06,-178.983 78.0565,-175.372"/>
</g>
<!-- Node3 -->
<g id="node3" class="node"><title>Node3</title>
<g id="a_node3"><a xlink:href="classprior__hessian_1_1CompositeDist_1_1ComponentDistAdaptor_3_01Dist_00_01meta_1_1EnableIfSubcld67d34d533dbae21b9dad35557546eec.html#a4b45af315fe88daef877ec564b33272a" target="_top" xlink:title="prior_hessian::Composite\lDist::ComponentDistAdaptor\l\&lt; Dist, meta::EnableIfSubclassT\l\&lt; Dist, MultivariateDist \&gt; \&gt;\l::append_params">
<polygon fill="white" stroke="black" points="179.5,-204.5 179.5,-262.5 325.5,-262.5 325.5,-204.5 179.5,-204.5"/>
<text text-anchor="start" x="187.5" y="-251.3" font-family="Helvetica,sans-Serif" font-size="9.00">prior_hessian::Composite</text>
<text text-anchor="start" x="187.5" y="-241.3" font-family="Helvetica,sans-Serif" font-size="9.00">Dist::ComponentDistAdaptor</text>
<text text-anchor="start" x="187.5" y="-231.3" font-family="Helvetica,sans-Serif" font-size="9.00">&lt; Dist, meta::EnableIfSubclassT</text>
<text text-anchor="start" x="187.5" y="-221.3" font-family="Helvetica,sans-Serif" font-size="9.00">&lt; Dist, MultivariateDist &gt; &gt;</text>
<text text-anchor="middle" x="252.5" y="-211.3" font-family="Helvetica,sans-Serif" font-size="9.00">::append_params</text>
</a>
</g>
</g>
<!-- Node1&#45;&gt;Node3 -->
<g id="edge2" class="edge"><title>Node1&#45;&gt;Node3</title>
<path fill="none" stroke="midnightblue" d="M105.215,-172.516C127.864,-181.958 156.158,-193.753 181.812,-204.448"/>
<polygon fill="midnightblue" stroke="midnightblue" points="106.456,-169.241 95.8788,-168.624 103.762,-175.702 106.456,-169.241"/>
</g>
<!-- Node4 -->
<g id="node4" class="node"><title>Node4</title>
<g id="a_node4"><a xlink:href="classprior__hessian_1_1CompositeDist.html#a25183fbeb28704eca9f7fe31dccb7640" target="_top" xlink:title="prior_hessian::Composite\lDist::get_param_value">
<polygon fill="white" stroke="black" points="383,-118.5 383,-146.5 505,-146.5 505,-118.5 383,-118.5"/>
<text text-anchor="start" x="391" y="-135.3" font-family="Helvetica,sans-Serif" font-size="9.00">prior_hessian::Composite</text>
<text text-anchor="middle" x="444" y="-125.3" font-family="Helvetica,sans-Serif" font-size="9.00">Dist::get_param_value</text>
</a>
</g>
</g>
<!-- Node1&#45;&gt;Node4 -->
<g id="edge3" class="edge"><title>Node1&#45;&gt;Node4</title>
<path fill="none" stroke="midnightblue" d="M132.701,-150.418C204.67,-146.262 315.032,-139.889 382.912,-135.97"/>
<polygon fill="midnightblue" stroke="midnightblue" points="132.152,-146.943 122.371,-151.014 132.556,-153.932 132.152,-146.943"/>
</g>
<!-- Node6 -->
<g id="node6" class="node"><title>Node6</title>
<g id="a_node6"><a xlink:href="classprior__hessian_1_1CompositeDist.html#a24bac25ae8c0330b8a3aacadffc9d5ae" target="_top" xlink:title="prior_hessian::Composite\lDist::rllh_components">
<polygon fill="white" stroke="black" points="858,-54.5 858,-82.5 980,-82.5 980,-54.5 858,-54.5"/>
<text text-anchor="start" x="866" y="-71.3" font-family="Helvetica,sans-Serif" font-size="9.00">prior_hessian::Composite</text>
<text text-anchor="middle" x="919" y="-61.3" font-family="Helvetica,sans-Serif" font-size="9.00">Dist::rllh_components</text>
</a>
</g>
</g>
<!-- Node1&#45;&gt;Node6 -->
<g id="edge12" class="edge"><title>Node1&#45;&gt;Node6</title>
<path fill="none" stroke="midnightblue" d="M132.309,-160.699C208.716,-166.893 334.428,-175.5 443,-175.5 443,-175.5 443,-175.5 603,-175.5 717.069,-175.5 842.617,-111.815 894.04,-82.7088"/>
<polygon fill="midnightblue" stroke="midnightblue" points="132.574,-157.209 122.322,-159.881 132.003,-164.186 132.574,-157.209"/>
</g>
<!-- Node7 -->
<g id="node7" class="node"><title>Node7</title>
<g id="a_node7"><a xlink:href="namespaceprior__hessian.html#ab26e9ddc3b6a5caccf5d75e1a1e1af1b" target="_top" xlink:title="prior_hessian::operator\&lt;\&lt;">
<polygon fill="white" stroke="black" points="191.5,-19.5 191.5,-37.5 313.5,-37.5 313.5,-19.5 191.5,-19.5"/>
<text text-anchor="middle" x="252.5" y="-26.3" font-family="Helvetica,sans-Serif" font-size="9.00">prior_hessian::operator&lt;&lt;</text>
</a>
</g>
</g>
<!-- Node1&#45;&gt;Node7 -->
<g id="edge6" class="edge"><title>Node1&#45;&gt;Node7</title>
<path fill="none" stroke="midnightblue" d="M84.5956,-133.447C103.374,-116.571 131.252,-92.9162 158,-75.5 181.447,-60.2332 210.52,-46.326 229.965,-37.6674"/>
<polygon fill="midnightblue" stroke="midnightblue" points="82.1822,-130.911 77.1348,-140.226 86.8896,-136.091 82.1822,-130.911"/>
</g>
<!-- Node10 -->
<g id="node10" class="node"><title>Node10</title>
<g id="a_node10"><a xlink:href="classprior__hessian_1_1CompositeDist.html#a2b9cc7f1661dbd1bbd6f37c462781d5f" target="_top" xlink:title="prior_hessian::Composite\lDist::set_param_value">
<polygon fill="white" stroke="black" points="541,-78.5 541,-106.5 663,-106.5 663,-78.5 541,-78.5"/>
<text text-anchor="start" x="549" y="-95.3" font-family="Helvetica,sans-Serif" font-size="9.00">prior_hessian::Composite</text>
<text text-anchor="middle" x="602" y="-85.3" font-family="Helvetica,sans-Serif" font-size="9.00">Dist::set_param_value</text>
</a>
</g>
</g>
<!-- Node1&#45;&gt;Node10 -->
<g id="edge13" class="edge"><title>Node1&#45;&gt;Node10</title>
<path fill="none" stroke="midnightblue" d="M131.862,-139.179C140.64,-137.48 149.513,-135.871 158,-134.5 293.943,-112.531 455.349,-100.793 540.852,-95.6898"/>
<polygon fill="midnightblue" stroke="midnightblue" points="131.147,-135.752 122.017,-141.127 132.507,-142.619 131.147,-135.752"/>
</g>
<!-- Node5 -->
<g id="node5" class="node"><title>Node5</title>
<g id="a_node5"><a xlink:href="classprior__hessian_1_1CompositeDist.html#a927fed39b2b4e87714c728d6e7b11e8b" target="_top" xlink:title="prior_hessian::Composite\lDist::params_components">
<polygon fill="white" stroke="black" points="699,-54.5 699,-82.5 822,-82.5 822,-54.5 699,-54.5"/>
<text text-anchor="start" x="707" y="-71.3" font-family="Helvetica,sans-Serif" font-size="9.00">prior_hessian::Composite</text>
<text text-anchor="middle" x="760.5" y="-61.3" font-family="Helvetica,sans-Serif" font-size="9.00">Dist::params_components</text>
</a>
</g>
</g>
<!-- Node4&#45;&gt;Node5 -->
<g id="edge4" class="edge"><title>Node4&#45;&gt;Node5</title>
<path fill="none" stroke="midnightblue" d="M515.39,-133.643C558.659,-132.725 614.844,-128.596 663,-115.5 689.613,-108.263 717.708,-93.6847 736.676,-82.6727"/>
<polygon fill="midnightblue" stroke="midnightblue" points="515.186,-130.145 505.243,-133.805 515.298,-137.145 515.186,-130.145"/>
</g>
<!-- Node5&#45;&gt;Node6 -->
<g id="edge5" class="edge"><title>Node5&#45;&gt;Node6</title>
<path fill="none" stroke="midnightblue" d="M832.059,-68.5C840.692,-68.5 849.452,-68.5 857.912,-68.5"/>
<polygon fill="midnightblue" stroke="midnightblue" points="832.007,-65.0001 822.007,-68.5 832.007,-72.0001 832.007,-65.0001"/>
</g>
<!-- Node8 -->
<g id="node8" class="node"><title>Node8</title>
<g id="a_node8"><a xlink:href="classprior__hessian_1_1CompositeDist.html#a38c4fdacf927824117d202422b04013c" target="_top" xlink:title="prior_hessian::Composite\lDist::set_param_names">
<polygon fill="white" stroke="black" points="383,-0.5 383,-28.5 505,-28.5 505,-0.5 383,-0.5"/>
<text text-anchor="start" x="391" y="-17.3" font-family="Helvetica,sans-Serif" font-size="9.00">prior_hessian::Composite</text>
<text text-anchor="middle" x="444" y="-7.3" font-family="Helvetica,sans-Serif" font-size="9.00">Dist::set_param_names</text>
</a>
</g>
</g>
<!-- Node7&#45;&gt;Node8 -->
<g id="edge7" class="edge"><title>Node7&#45;&gt;Node8</title>
<path fill="none" stroke="midnightblue" d="M323.738,-23.3109C343.19,-21.8738 364.122,-20.3274 382.937,-18.9373"/>
<polygon fill="midnightblue" stroke="midnightblue" points="323.434,-19.8237 313.719,-24.0511 323.95,-26.8047 323.434,-19.8237"/>
</g>
<!-- Node8&#45;&gt;Node5 -->
<g id="edge10" class="edge"><title>Node8&#45;&gt;Node5</title>
<path fill="none" stroke="midnightblue" d="M515.272,-9.36542C558.498,-8.01586 614.679,-9.53835 663,-21.5 690.133,-28.2167 718.6,-43.1984 737.523,-54.4536"/>
<polygon fill="midnightblue" stroke="midnightblue" points="515,-5.87302 505.137,-9.74148 515.26,-12.8682 515,-5.87302"/>
</g>
<!-- Node8&#45;&gt;Node6 -->
<g id="edge11" class="edge"><title>Node8&#45;&gt;Node6</title>
<path fill="none" stroke="midnightblue" d="M515.227,-7.15358C523.899,-6.47158 532.647,-5.89069 541,-5.5 595.163,-2.96666 609.169,1.00544 663,-5.5 735.236,-14.2297 751.372,-27.0097 822,-44.5 835.007,-47.7211 849,-51.2074 862.171,-54.4982"/>
<polygon fill="midnightblue" stroke="midnightblue" points="514.787,-3.67805 505.111,-7.99529 515.367,-10.6539 514.787,-3.67805"/>
</g>
<!-- Node9 -->
<g id="node9" class="node"><title>Node9</title>
<g id="a_node9"><a xlink:href="classprior__hessian_1_1CompositeDist.html#ace0aaa3698d76aba6a47f9061ff98902" target="_top" xlink:title="prior_hessian::Composite\lDist::rename_param">
<polygon fill="white" stroke="black" points="541,-31.5 541,-59.5 663,-59.5 663,-31.5 541,-31.5"/>
<text text-anchor="start" x="549" y="-48.3" font-family="Helvetica,sans-Serif" font-size="9.00">prior_hessian::Composite</text>
<text text-anchor="middle" x="602" y="-38.3" font-family="Helvetica,sans-Serif" font-size="9.00">Dist::rename_param</text>
</a>
</g>
</g>
<!-- Node8&#45;&gt;Node9 -->
<g id="edge8" class="edge"><title>Node8&#45;&gt;Node9</title>
<path fill="none" stroke="midnightblue" d="M515.259,-28.4618C523.802,-30.1594 532.469,-31.8817 540.847,-33.5465"/>
<polygon fill="midnightblue" stroke="midnightblue" points="515.804,-25.0017 505.314,-26.4854 514.44,-31.8674 515.804,-25.0017"/>
</g>
<!-- Node9&#45;&gt;Node5 -->
<g id="edge9" class="edge"><title>Node9&#45;&gt;Node5</title>
<path fill="none" stroke="midnightblue" d="M673.062,-55.7967C681.657,-57.0598 690.385,-58.3425 698.825,-59.5829"/>
<polygon fill="midnightblue" stroke="midnightblue" points="673.462,-52.3179 663.059,-54.3266 672.444,-59.2435 673.462,-52.3179"/>
</g>
<!-- Node10&#45;&gt;Node5 -->
<g id="edge14" class="edge"><title>Node10&#45;&gt;Node5</title>
<path fill="none" stroke="midnightblue" d="M673.062,-81.7556C681.657,-80.4376 690.385,-79.0991 698.825,-77.8048"/>
<polygon fill="midnightblue" stroke="midnightblue" points="672.413,-78.3141 663.059,-83.2896 673.474,-85.2333 672.413,-78.3141"/>
</g>
</g>
</svg>
