<?xml version="1.0" encoding="UTF-8" standalone="no"?>
<!DOCTYPE svg PUBLIC "-//W3C//DTD SVG 1.1//EN"
 "http://www.w3.org/Graphics/SVG/1.1/DTD/svg11.dtd">
<!-- Generated by graphviz version 2.38.0 (20140413.2041)
 -->
<!-- Title: prior_hessian::SymmetricBetaDist::params Pages: 1 -->
<svg width="596pt" height="123pt"
 viewBox="0.00 0.00 596.00 123.00" xmlns="http://www.w3.org/2000/svg" xmlns:xlink="http://www.w3.org/1999/xlink">
<g id="graph0" class="graph" transform="scale(1 1) rotate(0) translate(4 119)">
<title>prior_hessian::SymmetricBetaDist::params</title>
<polygon fill="white" stroke="none" points="-4,4 -4,-119 592,-119 592,4 -4,4"/>
<!-- Node1 -->
<g id="node1" class="node"><title>Node1</title>
<polygon fill="#bfbfbf" stroke="black" points="0,-43.5 0,-71.5 120,-71.5 120,-43.5 0,-43.5"/>
<text text-anchor="start" x="8" y="-60.3" font-family="Helvetica,sans-Serif" font-size="9.00">prior_hessian::Symmetric</text>
<text text-anchor="middle" x="60" y="-50.3" font-family="Helvetica,sans-Serif" font-size="9.00">BetaDist::params</text>
</g>
<!-- Node2 -->
<g id="node2" class="node"><title>Node2</title>
<g id="a_node2"><a xlink:href="classprior__hessian_1_1SymmetricBetaDist.html#a1e726eb12d98240778d7c0bfaafc7edd" target="_top" xlink:title="prior_hessian::Symmetric\lBetaDist::beta">
<polygon fill="white" stroke="black" points="156,-43.5 156,-71.5 276,-71.5 276,-43.5 156,-43.5"/>
<text text-anchor="start" x="164" y="-60.3" font-family="Helvetica,sans-Serif" font-size="9.00">prior_hessian::Symmetric</text>
<text text-anchor="middle" x="216" y="-50.3" font-family="Helvetica,sans-Serif" font-size="9.00">BetaDist::beta</text>
</a>
</g>
</g>
<!-- Node1&#45;&gt;Node2 -->
<g id="edge1" class="edge"><title>Node1&#45;&gt;Node2</title>
<path fill="none" stroke="midnightblue" d="M120.1,-57.5C128.422,-57.5 137.039,-57.5 145.533,-57.5"/>
<polygon fill="midnightblue" stroke="midnightblue" points="145.804,-61.0001 155.804,-57.5 145.804,-54.0001 145.804,-61.0001"/>
</g>
<!-- Node3 -->
<g id="node3" class="node"><title>Node3</title>
<g id="a_node3"><a xlink:href="classprior__hessian_1_1SymmetricBetaDist.html#a286000c0198e921b56821c4552afdaa4" target="_top" xlink:title="prior_hessian::Symmetric\lBetaDist::get_param">
<polygon fill="white" stroke="black" points="312,-86.5 312,-114.5 432,-114.5 432,-86.5 312,-86.5"/>
<text text-anchor="start" x="320" y="-103.3" font-family="Helvetica,sans-Serif" font-size="9.00">prior_hessian::Symmetric</text>
<text text-anchor="middle" x="372" y="-93.3" font-family="Helvetica,sans-Serif" font-size="9.00">BetaDist::get_param</text>
</a>
</g>
</g>
<!-- Node2&#45;&gt;Node3 -->
<g id="edge2" class="edge"><title>Node2&#45;&gt;Node3</title>
<path fill="none" stroke="midnightblue" d="M267.425,-71.5798C281.324,-75.4605 296.538,-79.7088 310.924,-83.7255"/>
<polygon fill="midnightblue" stroke="midnightblue" points="310.152,-87.1437 320.724,-86.462 312.034,-80.4016 310.152,-87.1437"/>
</g>
<!-- Node4 -->
<g id="node4" class="node"><title>Node4</title>
<g id="a_node4"><a xlink:href="classprior__hessian_1_1SymmetricBetaDist.html#a45a39dc6a12ec1af15a1701023101f1f" target="_top" xlink:title="prior_hessian::Symmetric\lBetaDist::set_beta">
<polygon fill="white" stroke="black" points="468,-21.5 468,-49.5 588,-49.5 588,-21.5 468,-21.5"/>
<text text-anchor="start" x="476" y="-38.3" font-family="Helvetica,sans-Serif" font-size="9.00">prior_hessian::Symmetric</text>
<text text-anchor="middle" x="528" y="-28.3" font-family="Helvetica,sans-Serif" font-size="9.00">BetaDist::set_beta</text>
</a>
</g>
</g>
<!-- Node2&#45;&gt;Node4 -->
<g id="edge3" class="edge"><title>Node2&#45;&gt;Node4</title>
<path fill="none" stroke="midnightblue" d="M276.038,-53.3102C327.777,-49.6384 403.033,-44.2977 457.631,-40.423"/>
<polygon fill="midnightblue" stroke="midnightblue" points="458.191,-43.8921 467.918,-39.6929 457.695,-36.9097 458.191,-43.8921"/>
</g>
<!-- Node5 -->
<g id="node5" class="node"><title>Node5</title>
<g id="a_node5"><a xlink:href="classprior__hessian_1_1SymmetricBetaDist.html#a5ea7086046d4558c83b2211503501fca" target="_top" xlink:title="prior_hessian::Symmetric\lBetaDist::set_param">
<polygon fill="white" stroke="black" points="312,-0.5 312,-28.5 432,-28.5 432,-0.5 312,-0.5"/>
<text text-anchor="start" x="320" y="-17.3" font-family="Helvetica,sans-Serif" font-size="9.00">prior_hessian::Symmetric</text>
<text text-anchor="middle" x="372" y="-7.3" font-family="Helvetica,sans-Serif" font-size="9.00">BetaDist::set_param</text>
</a>
</g>
</g>
<!-- Node2&#45;&gt;Node5 -->
<g id="edge4" class="edge"><title>Node2&#45;&gt;Node5</title>
<path fill="none" stroke="midnightblue" d="M267.425,-43.4202C281.324,-39.5395 296.538,-35.2912 310.924,-31.2745"/>
<polygon fill="midnightblue" stroke="midnightblue" points="312.034,-34.5984 320.724,-28.538 310.152,-27.8563 312.034,-34.5984"/>
</g>
<!-- Node5&#45;&gt;Node4 -->
<g id="edge5" class="edge"><title>Node5&#45;&gt;Node4</title>
<path fill="none" stroke="midnightblue" d="M432.1,-22.5591C440.513,-23.7064 449.228,-24.8948 457.813,-26.0654"/>
<polygon fill="midnightblue" stroke="midnightblue" points="457.422,-29.5445 467.804,-27.4278 458.368,-22.6087 457.422,-29.5445"/>
</g>
</g>
</svg>
