<?xml version="1.0" encoding="UTF-8" standalone="no"?>
<!DOCTYPE svg PUBLIC "-//W3C//DTD SVG 1.1//EN"
 "http://www.w3.org/Graphics/SVG/1.1/DTD/svg11.dtd">
<!-- Generated by graphviz version 2.38.0 (20140413.2041)
 -->
<!-- Title: prior_hessian::CopulaDistImpl::CopulaDist::set_ubound Pages: 1 -->
<!--zoomable 564 -->
<svg id="main" version="1.1" xmlns="http://www.w3.org/2000/svg" xmlns:xlink="http://www.w3.org/1999/xlink" xml:space="preserve" onload="init(evt)">
<style type="text/css"><![CDATA[
.edge:hover path { stroke: red; }
.edge:hover polygon { stroke: red; fill: red; }
]]></style>
<script type="text/javascript"><![CDATA[
var edges = document.getElementsByTagName('g');
if (edges && edges.length) {
  for (var i=0;i<edges.length;i++) {
    if (edges[i].id.substr(0,4)=='edge') {
      edges[i].setAttribute('class','edge');
    }
  }
}
]]></script>
        <defs>
                <circle id="rim" cx="0" cy="0" r="7"/>
                <circle id="rim2" cx="0" cy="0" r="3.5"/>
                <g id="zoomPlus">
                        <use xlink:href="#rim" fill="#404040">
                                <set attributeName="fill" to="#808080" begin="zoomplus.mouseover" end="zoomplus.mouseout"/>
                        </use>
                        <path d="M-4,0h8M0,-4v8" fill="none" stroke="white" stroke-width="1.5" pointer-events="none"/>
                </g>
                <g id="zoomMin">
                        <use xlink:href="#rim" fill="#404040">
                                <set attributeName="fill" to="#808080" begin="zoomminus.mouseover" end="zoomminus.mouseout"/>
                        </use>
                        <path d="M-4,0h8" fill="none" stroke="white" stroke-width="1.5" pointer-events="none"/>
                </g>
                <g id="dirArrow">
                        <path fill="none" stroke="white" stroke-width="1.5" d="M0,-3.0v7 M-2.5,-0.5L0,-3.0L2.5,-0.5"/>
                </g>
               <g id="resetDef">
                       <use xlink:href="#rim2" fill="#404040">
                               <set attributeName="fill" to="#808080" begin="reset.mouseover" end="reset.mouseout"/>
                       </use>
               </g>
        </defs>

<script type="text/javascript">
var viewWidth = 1046;
var viewHeight = 564;
var sectionId = 'dynsection-39';
</script>
<script xlink:href="svgpan.js"/>
<svg id="graph" class="graph">
<g id="viewport">
<title>prior_hessian::CopulaDistImpl::CopulaDist::set_ubound</title>
<polygon fill="white" stroke="none" points="-4,4 -4,-559.591 1042,-559.591 1042,4 -4,4"/>
<!-- Node1 -->
<g id="node1" class="node"><title>Node1</title>
<polygon fill="#bfbfbf" stroke="black" points="0,-394.5 0,-422.5 137,-422.5 137,-394.5 0,-394.5"/>
<text text-anchor="start" x="8" y="-411.3" font-family="Helvetica,sans-Serif" font-size="9.00">prior_hessian::CopulaDist</text>
<text text-anchor="middle" x="68.5" y="-401.3" font-family="Helvetica,sans-Serif" font-size="9.00">Impl::CopulaDist::set_ubound</text>
</g>
<!-- Node2 -->
<g id="node2" class="node"><title>Node2</title>
<g id="a_node2"><a xlink:href="classprior__hessian_1_1CopulaDistImpl_1_1CopulaDist.html#aad110f1a85e7611fd098aa51c2104015" target="_top" xlink:title="prior_hessian::CopulaDist\lImpl::CopulaDist::global_ubound">
<polygon fill="white" stroke="black" points="173,-260.5 173,-288.5 324,-288.5 324,-260.5 173,-260.5"/>
<text text-anchor="start" x="181" y="-277.3" font-family="Helvetica,sans-Serif" font-size="9.00">prior_hessian::CopulaDist</text>
<text text-anchor="middle" x="248.5" y="-267.3" font-family="Helvetica,sans-Serif" font-size="9.00">Impl::CopulaDist::global_ubound</text>
</a>
</g>
</g>
<!-- Node1&#45;&gt;Node2 -->
<g id="edge1" class="edge"><title>Node1&#45;&gt;Node2</title>
<path fill="none" stroke="midnightblue" d="M83.1718,-394.399C110.872,-370.269 174.333,-321.956 213.788,-294.454"/>
<polygon fill="midnightblue" stroke="midnightblue" points="216.052,-297.145 222.302,-288.591 212.081,-291.38 216.052,-297.145"/>
</g>
<!-- Node5 -->
<g id="node5" class="node"><title>Node5</title>
<g id="a_node5"><a xlink:href="classprior__hessian_1_1CopulaDistImpl_1_1CopulaDist.html#a4b7bf2f72c81574d9e19a2cd629f264d" target="_top" xlink:title="prior_hessian::CopulaDist\lImpl::CopulaDist::lbound">
<polygon fill="white" stroke="black" points="724,-468.5 724,-496.5 847,-496.5 847,-468.5 724,-468.5"/>
<text text-anchor="start" x="732" y="-485.3" font-family="Helvetica,sans-Serif" font-size="9.00">prior_hessian::CopulaDist</text>
<text text-anchor="middle" x="785.5" y="-475.3" font-family="Helvetica,sans-Serif" font-size="9.00">Impl::CopulaDist::lbound</text>
</a>
</g>
</g>
<!-- Node1&#45;&gt;Node5 -->
<g id="edge24" class="edge"><title>Node1&#45;&gt;Node5</title>
<path fill="none" stroke="midnightblue" d="M81.4734,-422.739C99.1596,-442.624 134.37,-478.009 173,-493.5 382.898,-577.671 458.688,-563.964 681,-522.5 703.681,-518.27 727.793,-509.243 747.033,-500.833"/>
<polygon fill="midnightblue" stroke="midnightblue" points="748.652,-503.943 756.337,-496.65 745.781,-497.559 748.652,-503.943"/>
</g>
<!-- Node2&#45;&gt;Node1 -->
<g id="edge22" class="edge"><title>Node2&#45;&gt;Node1</title>
<path fill="none" stroke="midnightblue" d="M233.811,-288.616C206.084,-312.767 142.577,-361.112 103.136,-388.599"/>
<polygon fill="midnightblue" stroke="midnightblue" points="100.877,-385.904 94.6255,-394.458 104.847,-391.67 100.877,-385.904"/>
</g>
<!-- Node3 -->
<g id="node3" class="node"><title>Node3</title>
<g id="a_node3"><a xlink:href="namespaceprior__hessian_1_1meta.html#a179314ad7ba735849c4095e735374ab2" target="_top" xlink:title="prior_hessian::meta\l::call_in_order">
<polygon fill="white" stroke="black" points="392,-284.5 392,-312.5 490,-312.5 490,-284.5 392,-284.5"/>
<text text-anchor="start" x="400" y="-301.3" font-family="Helvetica,sans-Serif" font-size="9.00">prior_hessian::meta</text>
<text text-anchor="middle" x="441" y="-291.3" font-family="Helvetica,sans-Serif" font-size="9.00">::call_in_order</text>
</a>
</g>
</g>
<!-- Node2&#45;&gt;Node3 -->
<g id="edge2" class="edge"><title>Node2&#45;&gt;Node3</title>
<path fill="none" stroke="midnightblue" d="M324.244,-283.917C343.328,-286.321 363.566,-288.87 381.691,-291.154"/>
<polygon fill="midnightblue" stroke="midnightblue" points="381.449,-294.651 391.808,-292.429 382.324,-287.706 381.449,-294.651"/>
</g>
<!-- Node4 -->
<g id="node4" class="node"><title>Node4</title>
<g id="a_node4"><a xlink:href="classprior__hessian_1_1CopulaDistImpl_1_1CopulaDist.html#a75da47e40ee64dd49fe5c84c2df07ebe" target="_top" xlink:title="prior_hessian::CopulaDist\lImpl::CopulaDist::cdf">
<polygon fill="white" stroke="black" points="379.5,-237.5 379.5,-265.5 502.5,-265.5 502.5,-237.5 379.5,-237.5"/>
<text text-anchor="start" x="387.5" y="-254.3" font-family="Helvetica,sans-Serif" font-size="9.00">prior_hessian::CopulaDist</text>
<text text-anchor="middle" x="441" y="-244.3" font-family="Helvetica,sans-Serif" font-size="9.00">Impl::CopulaDist::cdf</text>
</a>
</g>
</g>
<!-- Node2&#45;&gt;Node4 -->
<g id="edge3" class="edge"><title>Node2&#45;&gt;Node4</title>
<path fill="none" stroke="midnightblue" d="M324.244,-265.476C339.065,-263.686 354.582,-261.813 369.265,-260.04"/>
<polygon fill="midnightblue" stroke="midnightblue" points="369.769,-263.505 379.278,-258.831 368.93,-256.555 369.769,-263.505"/>
</g>
<!-- Node2&#45;&gt;Node5 -->
<g id="edge4" class="edge"><title>Node2&#45;&gt;Node5</title>
<path fill="none" stroke="midnightblue" d="M252.829,-288.681C262.266,-325.309 292.973,-423.027 360,-463.5 469.607,-529.684 625.713,-514.859 714.887,-498.448"/>
<polygon fill="midnightblue" stroke="midnightblue" points="715.721,-501.852 724.893,-496.548 714.415,-494.975 715.721,-501.852"/>
</g>
<!-- Node6 -->
<g id="node6" class="node"><title>Node6</title>
<g id="a_node6"><a xlink:href="namespaceprior__hessian_1_1meta.html#add11951e7edc2c231ca52c32ac0ee07b" target="_top" xlink:title="prior_hessian::meta\l::logical_and_in_order">
<polygon fill="white" stroke="black" points="386.5,-0.5 386.5,-28.5 495.5,-28.5 495.5,-0.5 386.5,-0.5"/>
<text text-anchor="start" x="394.5" y="-17.3" font-family="Helvetica,sans-Serif" font-size="9.00">prior_hessian::meta</text>
<text text-anchor="middle" x="441" y="-7.3" font-family="Helvetica,sans-Serif" font-size="9.00">::logical_and_in_order</text>
</a>
</g>
</g>
<!-- Node2&#45;&gt;Node6 -->
<g id="edge5" class="edge"><title>Node2&#45;&gt;Node6</title>
<path fill="none" stroke="midnightblue" d="M252.344,-260.309C261.068,-220.374 291.148,-105.889 360,-43.5 365.075,-38.9012 370.936,-35.017 377.131,-31.7394"/>
<polygon fill="midnightblue" stroke="midnightblue" points="378.85,-34.798 386.394,-27.3588 375.858,-28.4699 378.85,-34.798"/>
</g>
<!-- Node8 -->
<g id="node8" class="node"><title>Node8</title>
<g id="a_node8"><a xlink:href="classprior__hessian_1_1CopulaDistImpl_1_1CopulaDist.html#a58218394a4f213053e28925678ace6d4" target="_top" xlink:title="prior_hessian::CopulaDist\lImpl::CopulaDist::num_components">
<polygon fill="white" stroke="black" points="360,-425.5 360,-453.5 522,-453.5 522,-425.5 360,-425.5"/>
<text text-anchor="start" x="368" y="-442.3" font-family="Helvetica,sans-Serif" font-size="9.00">prior_hessian::CopulaDist</text>
<text text-anchor="middle" x="441" y="-432.3" font-family="Helvetica,sans-Serif" font-size="9.00">Impl::CopulaDist::num_components</text>
</a>
</g>
</g>
<!-- Node2&#45;&gt;Node8 -->
<g id="edge7" class="edge"><title>Node2&#45;&gt;Node8</title>
<path fill="none" stroke="midnightblue" d="M256.507,-288.591C271.455,-317.182 309.287,-382.196 360,-416.5 362.413,-418.132 364.941,-419.65 367.553,-421.061"/>
<polygon fill="midnightblue" stroke="midnightblue" points="366.174,-424.281 376.703,-425.46 369.207,-417.972 366.174,-424.281"/>
</g>
<!-- Node9 -->
<g id="node9" class="node"><title>Node9</title>
<g id="a_node9"><a xlink:href="classprior__hessian_1_1CopulaDistImpl_1_1CopulaDist.html#a371e1bc1823bdeb3783e5ce3c38ba0e4" target="_top" xlink:title="prior_hessian::CopulaDist\lImpl::CopulaDist::num_params">
<polygon fill="white" stroke="black" points="369.5,-378.5 369.5,-406.5 512.5,-406.5 512.5,-378.5 369.5,-378.5"/>
<text text-anchor="start" x="377.5" y="-395.3" font-family="Helvetica,sans-Serif" font-size="9.00">prior_hessian::CopulaDist</text>
<text text-anchor="middle" x="441" y="-385.3" font-family="Helvetica,sans-Serif" font-size="9.00">Impl::CopulaDist::num_params</text>
</a>
</g>
</g>
<!-- Node2&#45;&gt;Node9 -->
<g id="edge8" class="edge"><title>Node2&#45;&gt;Node9</title>
<path fill="none" stroke="midnightblue" d="M262.02,-288.583C281.152,-309.264 319.706,-347.746 360,-369.5 363.477,-371.377 367.124,-373.116 370.865,-374.724"/>
<polygon fill="midnightblue" stroke="midnightblue" points="369.728,-378.038 380.315,-378.458 372.3,-371.528 369.728,-378.038"/>
</g>
<!-- Node10 -->
<g id="node10" class="node"><title>Node10</title>
<g id="a_node10"><a xlink:href="classprior__hessian_1_1CopulaDistImpl_1_1CopulaDist.html#aa35ac17e403f5f7a74852abca16c2847" target="_top" xlink:title="prior_hessian::CopulaDist\lImpl::CopulaDist::pdf">
<polygon fill="white" stroke="black" points="379.5,-331.5 379.5,-359.5 502.5,-359.5 502.5,-331.5 379.5,-331.5"/>
<text text-anchor="start" x="387.5" y="-348.3" font-family="Helvetica,sans-Serif" font-size="9.00">prior_hessian::CopulaDist</text>
<text text-anchor="middle" x="441" y="-338.3" font-family="Helvetica,sans-Serif" font-size="9.00">Impl::CopulaDist::pdf</text>
</a>
</g>
</g>
<!-- Node2&#45;&gt;Node10 -->
<g id="edge9" class="edge"><title>Node2&#45;&gt;Node10</title>
<path fill="none" stroke="midnightblue" d="M279.093,-288.605C301.107,-298.789 332.048,-312.459 360,-322.5 365.801,-324.584 371.891,-326.612 378.011,-328.545"/>
<polygon fill="midnightblue" stroke="midnightblue" points="377.029,-331.905 387.617,-331.499 379.087,-325.214 377.029,-331.905"/>
</g>
<!-- Node11 -->
<g id="node11" class="node"><title>Node11</title>
<g id="a_node11"><a xlink:href="classprior__hessian_1_1CopulaDistImpl_1_1CopulaDist.html#ad5f8f42efd9f709625cf60836fa473b9" target="_top" xlink:title="prior_hessian::CopulaDist\lImpl::CopulaDist::set_bounds">
<polygon fill="white" stroke="black" points="717,-55.5 717,-83.5 854,-83.5 854,-55.5 717,-55.5"/>
<text text-anchor="start" x="725" y="-72.3" font-family="Helvetica,sans-Serif" font-size="9.00">prior_hessian::CopulaDist</text>
<text text-anchor="middle" x="785.5" y="-62.3" font-family="Helvetica,sans-Serif" font-size="9.00">Impl::CopulaDist::set_bounds</text>
</a>
</g>
</g>
<!-- Node2&#45;&gt;Node11 -->
<g id="edge10" class="edge"><title>Node2&#45;&gt;Node11</title>
<path fill="none" stroke="midnightblue" d="M252.196,-260.29C261.143,-223.129 293.148,-125.53 360,-85.5 478.686,-14.4325 651.059,-34.0084 734.937,-53.1377"/>
<polygon fill="midnightblue" stroke="midnightblue" points="734.179,-56.5551 744.718,-55.4623 735.798,-49.7448 734.179,-56.5551"/>
</g>
<!-- Node13 -->
<g id="node13" class="node"><title>Node13</title>
<g id="a_node13"><a xlink:href="classprior__hessian_1_1CopulaDistImpl_1_1CopulaDist.html#ac0819ccaeef1afd7a123338823e8fb3c" target="_top" xlink:title="prior_hessian::CopulaDist\lImpl::CopulaDist::set_lbound">
<polygon fill="white" stroke="black" points="374,-104.5 374,-132.5 508,-132.5 508,-104.5 374,-104.5"/>
<text text-anchor="start" x="382" y="-121.3" font-family="Helvetica,sans-Serif" font-size="9.00">prior_hessian::CopulaDist</text>
<text text-anchor="middle" x="441" y="-111.3" font-family="Helvetica,sans-Serif" font-size="9.00">Impl::CopulaDist::set_lbound</text>
</a>
</g>
</g>
<!-- Node2&#45;&gt;Node13 -->
<g id="edge13" class="edge"><title>Node2&#45;&gt;Node13</title>
<path fill="none" stroke="midnightblue" d="M258.351,-260.203C275.114,-234.231 313.968,-179.078 360,-147.5 366.03,-143.363 372.72,-139.742 379.588,-136.592"/>
<polygon fill="midnightblue" stroke="midnightblue" points="381.184,-139.716 389.019,-132.583 378.446,-133.274 381.184,-139.716"/>
</g>
<!-- Node14 -->
<g id="node14" class="node"><title>Node14</title>
<g id="a_node14"><a xlink:href="classprior__hessian_1_1CopulaDistImpl_1_1CopulaDist.html#abdb39f0c5f7f5f4b16bf501e6083d5b6" target="_top" xlink:title="prior_hessian::CopulaDist\lImpl::CopulaDist::ubound">
<polygon fill="white" stroke="black" points="558,-146.5 558,-174.5 681,-174.5 681,-146.5 558,-146.5"/>
<text text-anchor="start" x="566" y="-163.3" font-family="Helvetica,sans-Serif" font-size="9.00">prior_hessian::CopulaDist</text>
<text text-anchor="middle" x="619.5" y="-153.3" font-family="Helvetica,sans-Serif" font-size="9.00">Impl::CopulaDist::ubound</text>
</a>
</g>
</g>
<!-- Node2&#45;&gt;Node14 -->
<g id="edge23" class="edge"><title>Node2&#45;&gt;Node14</title>
<path fill="none" stroke="midnightblue" d="M260.936,-260.214C279.232,-238.553 317.388,-198.068 360,-180.5 419.913,-155.799 494.196,-152.555 547.736,-154.447"/>
<polygon fill="midnightblue" stroke="midnightblue" points="547.681,-157.948 557.82,-154.872 547.976,-150.954 547.681,-157.948"/>
</g>
<!-- Node16 -->
<g id="node16" class="node"><title>Node16</title>
<g id="a_node16"><a xlink:href="classprior__hessian_1_1CopulaDistImpl_1_1CopulaDist.html#a3c76fabe7fefc83aa19454951c1513dd" target="_top" xlink:title="prior_hessian::CopulaDist\lImpl::CopulaDist::set_params_iter">
<polygon fill="white" stroke="black" points="363.5,-190.5 363.5,-218.5 518.5,-218.5 518.5,-190.5 363.5,-190.5"/>
<text text-anchor="start" x="371.5" y="-207.3" font-family="Helvetica,sans-Serif" font-size="9.00">prior_hessian::CopulaDist</text>
<text text-anchor="middle" x="441" y="-197.3" font-family="Helvetica,sans-Serif" font-size="9.00">Impl::CopulaDist::set_params_iter</text>
</a>
</g>
</g>
<!-- Node2&#45;&gt;Node16 -->
<g id="edge21" class="edge"><title>Node2&#45;&gt;Node16</title>
<path fill="none" stroke="midnightblue" d="M281.075,-260.336C302.994,-250.757 332.994,-238.143 360,-228.5 366.514,-226.174 373.379,-223.881 380.236,-221.691"/>
<polygon fill="midnightblue" stroke="midnightblue" points="381.739,-224.888 390.238,-218.562 379.649,-218.207 381.739,-224.888"/>
</g>
<!-- Node7 -->
<g id="node7" class="node"><title>Node7</title>
<g id="a_node7"><a xlink:href="namespaceprior__hessian_1_1meta.html#a8dd1d78533f7011bebda7009c0591041" target="_top" xlink:title="prior_hessian::meta\l::constexpr_accumulate">
<polygon fill="white" stroke="black" points="563,-0.5 563,-28.5 676,-28.5 676,-0.5 563,-0.5"/>
<text text-anchor="start" x="571" y="-17.3" font-family="Helvetica,sans-Serif" font-size="9.00">prior_hessian::meta</text>
<text text-anchor="middle" x="619.5" y="-7.3" font-family="Helvetica,sans-Serif" font-size="9.00">::constexpr_accumulate</text>
</a>
</g>
</g>
<!-- Node6&#45;&gt;Node7 -->
<g id="edge6" class="edge"><title>Node6&#45;&gt;Node7</title>
<path fill="none" stroke="midnightblue" d="M495.915,-14.5C513.792,-14.5 533.897,-14.5 552.573,-14.5"/>
<polygon fill="midnightblue" stroke="midnightblue" points="552.779,-18.0001 562.779,-14.5 552.779,-11.0001 552.779,-18.0001"/>
</g>
<!-- Node11&#45;&gt;Node2 -->
<g id="edge12" class="edge"><title>Node11&#45;&gt;Node2</title>
<path fill="none" stroke="midnightblue" d="M716.809,-61.5653C628.061,-49.7809 470.685,-37.2237 360,-103.5 303.781,-137.163 272.206,-211.537 258.263,-250.322"/>
<polygon fill="midnightblue" stroke="midnightblue" points="254.787,-249.66 254.792,-260.254 261.395,-251.969 254.787,-249.66"/>
</g>
<!-- Node12 -->
<g id="node12" class="node"><title>Node12</title>
<g id="a_node12"><a xlink:href="classprior__hessian_1_1CopulaDistImpl_1_1CopulaDist.html#ab751cebc3c628c353729c8f079ffb984" target="_top" xlink:title="prior_hessian::CopulaDist\lImpl::CopulaDist::global_lbound">
<polygon fill="white" stroke="black" points="890,-80.5 890,-108.5 1038,-108.5 1038,-80.5 890,-80.5"/>
<text text-anchor="start" x="898" y="-97.3" font-family="Helvetica,sans-Serif" font-size="9.00">prior_hessian::CopulaDist</text>
<text text-anchor="middle" x="964" y="-87.3" font-family="Helvetica,sans-Serif" font-size="9.00">Impl::CopulaDist::global_lbound</text>
</a>
</g>
</g>
<!-- Node11&#45;&gt;Node12 -->
<g id="edge11" class="edge"><title>Node11&#45;&gt;Node12</title>
<path fill="none" stroke="midnightblue" d="M854.235,-79.0942C862.619,-80.2818 871.266,-81.5065 879.848,-82.7221"/>
<polygon fill="midnightblue" stroke="midnightblue" points="879.481,-86.2049 889.873,-84.142 880.463,-79.2741 879.481,-86.2049"/>
</g>
<!-- Node13&#45;&gt;Node12 -->
<g id="edge14" class="edge"><title>Node13&#45;&gt;Node12</title>
<path fill="none" stroke="midnightblue" d="M508.249,-115.448C602.807,-111.092 776.42,-103.095 879.609,-98.3414"/>
<polygon fill="midnightblue" stroke="midnightblue" points="879.849,-101.834 889.678,-97.8776 879.527,-94.8416 879.849,-101.834"/>
</g>
<!-- Node13&#45;&gt;Node14 -->
<g id="edge15" class="edge"><title>Node13&#45;&gt;Node14</title>
<path fill="none" stroke="midnightblue" d="M508.224,-127.699C529.814,-132.456 553.282,-138.23 572.997,-143.682"/>
<polygon fill="midnightblue" stroke="midnightblue" points="572.066,-147.056 582.641,-146.411 573.972,-140.32 572.066,-147.056"/>
</g>
<!-- Node14&#45;&gt;Node1 -->
<g id="edge19" class="edge"><title>Node14&#45;&gt;Node1</title>
<path fill="none" stroke="midnightblue" d="M619.197,-174.532C620.805,-224.247 618.715,-392.801 522,-463.5 392.924,-557.856 185.744,-469.022 104.136,-427.379"/>
<polygon fill="midnightblue" stroke="midnightblue" points="105.309,-424.045 94.82,-422.55 102.087,-430.259 105.309,-424.045"/>
</g>
<!-- Node14&#45;&gt;Node5 -->
<g id="edge17" class="edge"><title>Node14&#45;&gt;Node5</title>
<path fill="none" stroke="midnightblue" d="M627.758,-174.751C653.531,-225.354 740.801,-396.701 772.699,-459.33"/>
<polygon fill="midnightblue" stroke="midnightblue" points="769.668,-461.091 777.325,-468.413 775.906,-457.914 769.668,-461.091"/>
</g>
<!-- Node14&#45;&gt;Node11 -->
<g id="edge16" class="edge"><title>Node14&#45;&gt;Node11</title>
<path fill="none" stroke="midnightblue" d="M645.766,-146.481C673.815,-130.916 719.237,-105.713 750.418,-88.4111"/>
<polygon fill="midnightblue" stroke="midnightblue" points="752.16,-91.4476 759.206,-83.5353 748.763,-85.3268 752.16,-91.4476"/>
</g>
<!-- Node14&#45;&gt;Node13 -->
<g id="edge18" class="edge"><title>Node14&#45;&gt;Node13</title>
<path fill="none" stroke="midnightblue" d="M557.805,-152.506C534.763,-147.542 508.935,-141.244 487.527,-135.325"/>
<polygon fill="midnightblue" stroke="midnightblue" points="488.293,-131.904 477.717,-132.548 486.386,-138.639 488.293,-131.904"/>
</g>
<!-- Node15 -->
<g id="node15" class="node"><title>Node15</title>
<g id="a_node15"><a xlink:href="classprior__hessian_1_1CopulaDistImpl_1_1CopulaDist.html#a9dca9ab8ba47ecef1a7784fe77c8c40f" target="_top" xlink:title="prior_hessian::CopulaDist\lImpl::CopulaDist::operator==">
<polygon fill="white" stroke="black" points="718.5,-146.5 718.5,-174.5 852.5,-174.5 852.5,-146.5 718.5,-146.5"/>
<text text-anchor="start" x="726.5" y="-163.3" font-family="Helvetica,sans-Serif" font-size="9.00">prior_hessian::CopulaDist</text>
<text text-anchor="middle" x="785.5" y="-153.3" font-family="Helvetica,sans-Serif" font-size="9.00">Impl::CopulaDist::operator==</text>
</a>
</g>
</g>
<!-- Node14&#45;&gt;Node15 -->
<g id="edge20" class="edge"><title>Node14&#45;&gt;Node15</title>
<path fill="none" stroke="midnightblue" d="M681.102,-160.5C689.919,-160.5 699.091,-160.5 708.17,-160.5"/>
<polygon fill="midnightblue" stroke="midnightblue" points="708.357,-164 718.357,-160.5 708.357,-157 708.357,-164"/>
</g>
</g>
</svg>
        <g id="navigator" transform="translate(0 0)" fill="#404254">
                <rect fill="#f2f5e9" fill-opacity="0.5" stroke="#606060" stroke-width=".5" x="0" y="0" width="60" height="60"/>
                <use id="zoomplus" xlink:href="#zoomPlus" x="17" y="9" onmousedown="handleZoom(evt,'in')"/>
                <use id="zoomminus" xlink:href="#zoomMin" x="42" y="9" onmousedown="handleZoom(evt,'out')"/>
                <use id="reset" xlink:href="#resetDef" x="30" y="36" onmousedown="handleReset()"/>
                <g id="arrowUp" xlink:href="#dirArrow" transform="translate(30 24)" onmousedown="handlePan(0,-1)">
                  <use xlink:href="#rim" fill="#404040">
                        <set attributeName="fill" to="#808080" begin="arrowUp.mouseover" end="arrowUp.mouseout"/>
                  </use>
                  <path fill="none" stroke="white" stroke-width="1.5" d="M0,-3.0v7 M-2.5,-0.5L0,-3.0L2.5,-0.5"/>
                </g>
                <g id="arrowRight" xlink:href="#dirArrow" transform="rotate(90) translate(36 -43)" onmousedown="handlePan(1,0)">
                  <use xlink:href="#rim" fill="#404040">
                        <set attributeName="fill" to="#808080" begin="arrowRight.mouseover" end="arrowRight.mouseout"/>
                  </use>
                  <path fill="none" stroke="white" stroke-width="1.5" d="M0,-3.0v7 M-2.5,-0.5L0,-3.0L2.5,-0.5"/>
                </g>
                <g id="arrowDown" xlink:href="#dirArrow" transform="rotate(180) translate(-30 -48)" onmousedown="handlePan(0,1)">
                  <use xlink:href="#rim" fill="#404040">
                        <set attributeName="fill" to="#808080" begin="arrowDown.mouseover" end="arrowDown.mouseout"/>
                  </use>
                  <path fill="none" stroke="white" stroke-width="1.5" d="M0,-3.0v7 M-2.5,-0.5L0,-3.0L2.5,-0.5"/>
                </g>
                <g id="arrowLeft" xlink:href="#dirArrow" transform="rotate(270) translate(-36 17)" onmousedown="handlePan(-1,0)">
                  <use xlink:href="#rim" fill="#404040">
                        <set attributeName="fill" to="#808080" begin="arrowLeft.mouseover" end="arrowLeft.mouseout"/>
                  </use>
                  <path fill="none" stroke="white" stroke-width="1.5" d="M0,-3.0v7 M-2.5,-0.5L0,-3.0L2.5,-0.5"/>
                </g>
        </g>
        <svg viewBox="0 0 15 15" width="100%" height="30px" preserveAspectRatio="xMaxYMin meet">
         <g id="arrow_out" transform="scale(0.3 0.3)">
          <a xlink:href="classprior__hessian_1_1CopulaDistImpl_1_1CopulaDist_a4b010ffe2c2acd4dc75c80b32312254d_cgraph_org.svg" target="_base">
           <rect id="button" ry="5" rx="5" y="6" x="6" height="38" width="38"
                fill="#f2f5e9" fill-opacity="0.5" stroke="#606060" stroke-width="1.0"/>
           <path id="arrow"
             d="M 11.500037,31.436501 C 11.940474,20.09759 22.043105,11.32322 32.158766,21.979434 L 37.068811,17.246167 C 37.068811,17.246167 37.088388,32 37.088388,32 L 22.160133,31.978069 C 22.160133,31.978069 26.997745,27.140456 26.997745,27.140456 C 18.528582,18.264221 13.291696,25.230495 11.500037,31.436501 z"
             style="fill:#404040;"/>
          </a>
         </g>
        </svg>
</svg>
