<?xml version="1.0" encoding="UTF-8" standalone="no"?>
<!DOCTYPE svg PUBLIC "-//W3C//DTD SVG 1.1//EN"
 "http://www.w3.org/Graphics/SVG/1.1/DTD/svg11.dtd">
<!-- Generated by graphviz version 2.38.0 (20140413.2041)
 -->
<!-- Title: prior_hessian::TruncatedDist::lbound Pages: 1 -->
<svg width="592pt" height="181pt"
 viewBox="0.00 0.00 592.00 180.58" xmlns="http://www.w3.org/2000/svg" xmlns:xlink="http://www.w3.org/1999/xlink">
<g id="graph0" class="graph" transform="scale(1 1) rotate(0) translate(4 176.583)">
<title>prior_hessian::TruncatedDist::lbound</title>
<polygon fill="white" stroke="none" points="-4,4 -4,-176.583 588,-176.583 588,4 -4,4"/>
<!-- Node1 -->
<g id="node1" class="node"><title>Node1</title>
<polygon fill="#bfbfbf" stroke="black" points="0,-64.5 0,-92.5 119,-92.5 119,-64.5 0,-64.5"/>
<text text-anchor="start" x="8" y="-81.3" font-family="Helvetica,sans-Serif" font-size="9.00">prior_hessian::Truncated</text>
<text text-anchor="middle" x="59.5" y="-71.3" font-family="Helvetica,sans-Serif" font-size="9.00">Dist::lbound</text>
</g>
<!-- Node2 -->
<g id="node2" class="node"><title>Node2</title>
<g id="a_node2"><a xlink:href="classprior__hessian_1_1TruncatedDist.html#a05934e74d38db5bd77df1609f43c7d71" target="_top" xlink:title="prior_hessian::Truncated\lDist::operator!=">
<polygon fill="white" stroke="black" points="465,-108.5 465,-136.5 584,-136.5 584,-108.5 465,-108.5"/>
<text text-anchor="start" x="473" y="-125.3" font-family="Helvetica,sans-Serif" font-size="9.00">prior_hessian::Truncated</text>
<text text-anchor="middle" x="524.5" y="-115.3" font-family="Helvetica,sans-Serif" font-size="9.00">Dist::operator!=</text>
</a>
</g>
</g>
<!-- Node1&#45;&gt;Node2 -->
<g id="edge1" class="edge"><title>Node1&#45;&gt;Node2</title>
<path fill="none" stroke="midnightblue" d="M96.0658,-97.3029C113.506,-106.038 135.014,-116.102 155,-123.5 221.935,-148.276 239.251,-156.084 310,-165.5 362.427,-172.477 377.312,-176.707 429,-165.5 454.543,-159.962 481.467,-146.902 500.014,-136.618"/>
<polygon fill="midnightblue" stroke="midnightblue" points="97.3317,-94.0203 86.8308,-92.6124 94.1617,-100.261 97.3317,-94.0203"/>
</g>
<!-- Node3 -->
<g id="node3" class="node"><title>Node3</title>
<g id="a_node3"><a xlink:href="classprior__hessian_1_1TruncatedDist.html#a9189a3e17c4bf37c22aebe327b79dd63" target="_top" xlink:title="prior_hessian::Truncated\lDist::set_bounds">
<polygon fill="white" stroke="black" points="155,-86.5 155,-114.5 274,-114.5 274,-86.5 155,-86.5"/>
<text text-anchor="start" x="163" y="-103.3" font-family="Helvetica,sans-Serif" font-size="9.00">prior_hessian::Truncated</text>
<text text-anchor="middle" x="214.5" y="-93.3" font-family="Helvetica,sans-Serif" font-size="9.00">Dist::set_bounds</text>
</a>
</g>
</g>
<!-- Node1&#45;&gt;Node3 -->
<g id="edge2" class="edge"><title>Node1&#45;&gt;Node3</title>
<path fill="none" stroke="midnightblue" d="M129.213,-88.3803C137.803,-89.6155 146.525,-90.8697 154.941,-92.0797"/>
<polygon fill="midnightblue" stroke="midnightblue" points="129.613,-84.9018 119.216,-86.9429 128.616,-91.8306 129.613,-84.9018"/>
</g>
<!-- Node6 -->
<g id="node6" class="node"><title>Node6</title>
<g id="a_node6"><a xlink:href="classprior__hessian_1_1TruncatedDist.html#ac2d919896743958e03a188b5dde6661e" target="_top" xlink:title="prior_hessian::Truncated\lDist::set_ubound">
<polygon fill="white" stroke="black" points="310,-16.5 310,-44.5 429,-44.5 429,-16.5 310,-16.5"/>
<text text-anchor="start" x="318" y="-33.3" font-family="Helvetica,sans-Serif" font-size="9.00">prior_hessian::Truncated</text>
<text text-anchor="middle" x="369.5" y="-23.3" font-family="Helvetica,sans-Serif" font-size="9.00">Dist::set_ubound</text>
</a>
</g>
</g>
<!-- Node1&#45;&gt;Node6 -->
<g id="edge9" class="edge"><title>Node1&#45;&gt;Node6</title>
<path fill="none" stroke="midnightblue" d="M129.376,-67.7661C183.61,-59.314 258.382,-47.6613 309.799,-39.6482"/>
<polygon fill="midnightblue" stroke="midnightblue" points="128.499,-64.3604 119.157,-69.3586 129.577,-71.2769 128.499,-64.3604"/>
</g>
<!-- Node7 -->
<g id="node7" class="node"><title>Node7</title>
<g id="a_node7"><a xlink:href="classprior__hessian_1_1TruncatedDist.html#a79ff97eb5315095d9e1f590285994b4d" target="_top" xlink:title="prior_hessian::Truncated\lDist::TruncatedDist">
<polygon fill="white" stroke="black" points="155,-0.5 155,-28.5 274,-28.5 274,-0.5 155,-0.5"/>
<text text-anchor="start" x="163" y="-17.3" font-family="Helvetica,sans-Serif" font-size="9.00">prior_hessian::Truncated</text>
<text text-anchor="middle" x="214.5" y="-7.3" font-family="Helvetica,sans-Serif" font-size="9.00">Dist::TruncatedDist</text>
</a>
</g>
</g>
<!-- Node1&#45;&gt;Node7 -->
<g id="edge10" class="edge"><title>Node1&#45;&gt;Node7</title>
<path fill="none" stroke="midnightblue" d="M103.402,-60.5539C127.642,-50.4143 157.498,-37.9255 180.002,-28.5123"/>
<polygon fill="midnightblue" stroke="midnightblue" points="101.951,-57.367 94.0765,-64.4549 104.653,-63.8248 101.951,-57.367"/>
</g>
<!-- Node3&#45;&gt;Node2 -->
<g id="edge4" class="edge"><title>Node3&#45;&gt;Node2</title>
<path fill="none" stroke="midnightblue" d="M244.969,-120.029C262.938,-130.746 286.836,-142.954 310,-148.5 361.435,-160.814 376.587,-155.579 429,-148.5 446.537,-146.131 465.422,-141.396 481.664,-136.608"/>
<polygon fill="midnightblue" stroke="midnightblue" points="246.5,-116.862 236.149,-114.605 242.833,-122.825 246.5,-116.862"/>
</g>
<!-- Node4 -->
<g id="node4" class="node"><title>Node4</title>
<g id="a_node4"><a xlink:href="classprior__hessian_1_1TruncatedDist.html#a645357d7c21e4aaa39764ca122b1f7c4" target="_top" xlink:title="prior_hessian::Truncated\lDist::TruncatedDist">
<polygon fill="white" stroke="black" points="310,-110.5 310,-138.5 429,-138.5 429,-110.5 310,-110.5"/>
<text text-anchor="start" x="318" y="-127.3" font-family="Helvetica,sans-Serif" font-size="9.00">prior_hessian::Truncated</text>
<text text-anchor="middle" x="369.5" y="-117.3" font-family="Helvetica,sans-Serif" font-size="9.00">Dist::TruncatedDist</text>
</a>
</g>
</g>
<!-- Node3&#45;&gt;Node4 -->
<g id="edge3" class="edge"><title>Node3&#45;&gt;Node4</title>
<path fill="none" stroke="midnightblue" d="M284.213,-111.279C292.803,-112.626 301.525,-113.994 309.941,-115.314"/>
<polygon fill="midnightblue" stroke="midnightblue" points="284.638,-107.802 274.216,-109.71 283.553,-114.718 284.638,-107.802"/>
</g>
<!-- Node5 -->
<g id="node5" class="node"><title>Node5</title>
<g id="a_node5"><a xlink:href="classprior__hessian_1_1TruncatedDist.html#a21ef557361b62e4c657154d12cb032c2" target="_top" xlink:title="prior_hessian::Truncated\lDist::set_lbound">
<polygon fill="white" stroke="black" points="310,-63.5 310,-91.5 429,-91.5 429,-63.5 310,-63.5"/>
<text text-anchor="start" x="318" y="-80.3" font-family="Helvetica,sans-Serif" font-size="9.00">prior_hessian::Truncated</text>
<text text-anchor="middle" x="369.5" y="-70.3" font-family="Helvetica,sans-Serif" font-size="9.00">Dist::set_lbound</text>
</a>
</g>
</g>
<!-- Node3&#45;&gt;Node5 -->
<g id="edge5" class="edge"><title>Node3&#45;&gt;Node5</title>
<path fill="none" stroke="midnightblue" d="M284.213,-90.1706C292.803,-88.8793 301.525,-87.5681 309.941,-86.303"/>
<polygon fill="midnightblue" stroke="midnightblue" points="283.585,-86.7256 274.216,-91.6734 284.625,-93.6478 283.585,-86.7256"/>
</g>
<!-- Node3&#45;&gt;Node6 -->
<g id="edge7" class="edge"><title>Node3&#45;&gt;Node6</title>
<path fill="none" stroke="midnightblue" d="M253.272,-81.7989C260.17,-78.377 267.303,-74.8344 274,-71.5 290.014,-63.5274 293.66,-60.7799 310,-53.5 316.779,-50.48 324.084,-47.4416 331.157,-44.6076"/>
<polygon fill="midnightblue" stroke="midnightblue" points="251.479,-78.7815 244.074,-86.3594 254.588,-85.053 251.479,-78.7815"/>
</g>
<!-- Node5&#45;&gt;Node2 -->
<g id="edge6" class="edge"><title>Node5&#45;&gt;Node2</title>
<path fill="none" stroke="midnightblue" d="M428.087,-94.4374C443.776,-99.0518 460.598,-103.999 475.68,-108.435"/>
<polygon fill="midnightblue" stroke="midnightblue" points="429.072,-91.0788 418.49,-91.6148 427.096,-97.7943 429.072,-91.0788"/>
</g>
<!-- Node6&#45;&gt;Node2 -->
<g id="edge8" class="edge"><title>Node6&#45;&gt;Node2</title>
<path fill="none" stroke="midnightblue" d="M419.625,-48.7271C422.84,-50.252 425.992,-51.8464 429,-53.5 458.195,-69.5493 488.766,-93.3531 506.969,-108.389"/>
<polygon fill="midnightblue" stroke="midnightblue" points="421.021,-45.5174 410.464,-44.6226 418.159,-51.9055 421.021,-45.5174"/>
</g>
</g>
</svg>
