<?xml version="1.0" encoding="UTF-8" standalone="no"?>
<!DOCTYPE svg PUBLIC "-//W3C//DTD SVG 1.1//EN"
 "http://www.w3.org/Graphics/SVG/1.1/DTD/svg11.dtd">
<!-- Generated by graphviz version 2.38.0 (20140413.2041)
 -->
<!-- Title: prior_hessian::ParetoDist::get_param Pages: 1 -->
<!--zoomable 691 -->
<svg id="main" version="1.1" xmlns="http://www.w3.org/2000/svg" xmlns:xlink="http://www.w3.org/1999/xlink" xml:space="preserve" onload="init(evt)">
<style type="text/css"><![CDATA[
.edge:hover path { stroke: red; }
.edge:hover polygon { stroke: red; fill: red; }
]]></style>
<script type="text/javascript"><![CDATA[
var edges = document.getElementsByTagName('g');
if (edges && edges.length) {
  for (var i=0;i<edges.length;i++) {
    if (edges[i].id.substr(0,4)=='edge') {
      edges[i].setAttribute('class','edge');
    }
  }
}
]]></script>
        <defs>
                <circle id="rim" cx="0" cy="0" r="7"/>
                <circle id="rim2" cx="0" cy="0" r="3.5"/>
                <g id="zoomPlus">
                        <use xlink:href="#rim" fill="#404040">
                                <set attributeName="fill" to="#808080" begin="zoomplus.mouseover" end="zoomplus.mouseout"/>
                        </use>
                        <path d="M-4,0h8M0,-4v8" fill="none" stroke="white" stroke-width="1.5" pointer-events="none"/>
                </g>
                <g id="zoomMin">
                        <use xlink:href="#rim" fill="#404040">
                                <set attributeName="fill" to="#808080" begin="zoomminus.mouseover" end="zoomminus.mouseout"/>
                        </use>
                        <path d="M-4,0h8" fill="none" stroke="white" stroke-width="1.5" pointer-events="none"/>
                </g>
                <g id="dirArrow">
                        <path fill="none" stroke="white" stroke-width="1.5" d="M0,-3.0v7 M-2.5,-0.5L0,-3.0L2.5,-0.5"/>
                </g>
               <g id="resetDef">
                       <use xlink:href="#rim2" fill="#404040">
                               <set attributeName="fill" to="#808080" begin="reset.mouseover" end="reset.mouseout"/>
                       </use>
               </g>
        </defs>

<script type="text/javascript">
var viewWidth = 789;
var viewHeight = 691;
var sectionId = 'dynsection-13';
</script>
<script xlink:href="svgpan.js"/>
<svg id="graph" class="graph">
<g id="viewport">
<title>prior_hessian::ParetoDist::get_param</title>
<polygon fill="white" stroke="none" points="-4,4 -4,-687 785,-687 785,4 -4,4"/>
<!-- Node1 -->
<g id="node1" class="node"><title>Node1</title>
<polygon fill="#bfbfbf" stroke="black" points="0,-397.5 0,-425.5 120,-425.5 120,-397.5 0,-397.5"/>
<text text-anchor="start" x="8" y="-414.3" font-family="Helvetica,sans-Serif" font-size="9.00">prior_hessian::ParetoDist</text>
<text text-anchor="middle" x="60" y="-404.3" font-family="Helvetica,sans-Serif" font-size="9.00">::get_param</text>
</g>
<!-- Node2 -->
<g id="node2" class="node"><title>Node2</title>
<g id="a_node2"><a xlink:href="classprior__hessian_1_1ParetoDist.html#ad117226a3ad1eee827886fc7ba38acbf" target="_top" xlink:title="prior_hessian::ParetoDist\l::lbound">
<polygon fill="white" stroke="black" points="156,-397.5 156,-425.5 276,-425.5 276,-397.5 156,-397.5"/>
<text text-anchor="start" x="164" y="-414.3" font-family="Helvetica,sans-Serif" font-size="9.00">prior_hessian::ParetoDist</text>
<text text-anchor="middle" x="216" y="-404.3" font-family="Helvetica,sans-Serif" font-size="9.00">::lbound</text>
</a>
</g>
</g>
<!-- Node1&#45;&gt;Node2 -->
<g id="edge1" class="edge"><title>Node1&#45;&gt;Node2</title>
<path fill="none" stroke="midnightblue" d="M120.1,-411.5C128.422,-411.5 137.039,-411.5 145.533,-411.5"/>
<polygon fill="midnightblue" stroke="midnightblue" points="145.804,-415 155.804,-411.5 145.804,-408 145.804,-415"/>
</g>
<!-- Node3 -->
<g id="node3" class="node"><title>Node3</title>
<g id="a_node3"><a xlink:href="classprior__hessian_1_1ParetoDist.html#ac755ccef13fd2552861c27bf6c1cc29d" target="_top" xlink:title="prior_hessian::ParetoDist\l::set_lbound">
<polygon fill="white" stroke="black" points="320.5,-654.5 320.5,-682.5 440.5,-682.5 440.5,-654.5 320.5,-654.5"/>
<text text-anchor="start" x="328.5" y="-671.3" font-family="Helvetica,sans-Serif" font-size="9.00">prior_hessian::ParetoDist</text>
<text text-anchor="middle" x="380.5" y="-661.3" font-family="Helvetica,sans-Serif" font-size="9.00">::set_lbound</text>
</a>
</g>
</g>
<!-- Node2&#45;&gt;Node3 -->
<g id="edge2" class="edge"><title>Node2&#45;&gt;Node3</title>
<path fill="none" stroke="midnightblue" d="M218.654,-425.614C224.116,-465.877 245.216,-582.434 312,-645.5 313.269,-646.698 314.602,-647.834 315.99,-648.911"/>
<polygon fill="midnightblue" stroke="midnightblue" points="314.166,-651.9 324.449,-654.455 318.004,-646.046 314.166,-651.9"/>
</g>
<!-- Node4 -->
<g id="node4" class="node"><title>Node4</title>
<g id="a_node4"><a xlink:href="classprior__hessian_1_1ParetoDist.html#a0a1e20b0aa6c7b52c134fc2341b5fdd4" target="_top" xlink:title="prior_hessian::ParetoDist\l::mean">
<polygon fill="white" stroke="black" points="320.5,-607.5 320.5,-635.5 440.5,-635.5 440.5,-607.5 320.5,-607.5"/>
<text text-anchor="start" x="328.5" y="-624.3" font-family="Helvetica,sans-Serif" font-size="9.00">prior_hessian::ParetoDist</text>
<text text-anchor="middle" x="380.5" y="-614.3" font-family="Helvetica,sans-Serif" font-size="9.00">::mean</text>
</a>
</g>
</g>
<!-- Node2&#45;&gt;Node4 -->
<g id="edge3" class="edge"><title>Node2&#45;&gt;Node4</title>
<path fill="none" stroke="midnightblue" d="M221.551,-425.603C231.457,-459.256 258.5,-543.088 312,-589.5 319.288,-595.822 328.394,-600.427 337.535,-604.027"/>
<polygon fill="midnightblue" stroke="midnightblue" points="336.406,-607.341 347,-607.446 338.784,-600.757 336.406,-607.341"/>
</g>
<!-- Node5 -->
<g id="node5" class="node"><title>Node5</title>
<g id="a_node5"><a xlink:href="classprior__hessian_1_1ParetoDist.html#a74af41636088b6c727107c60dd9c81b2" target="_top" xlink:title="prior_hessian::ParetoDist\l::median">
<polygon fill="white" stroke="black" points="320.5,-560.5 320.5,-588.5 440.5,-588.5 440.5,-560.5 320.5,-560.5"/>
<text text-anchor="start" x="328.5" y="-577.3" font-family="Helvetica,sans-Serif" font-size="9.00">prior_hessian::ParetoDist</text>
<text text-anchor="middle" x="380.5" y="-567.3" font-family="Helvetica,sans-Serif" font-size="9.00">::median</text>
</a>
</g>
</g>
<!-- Node2&#45;&gt;Node5 -->
<g id="edge5" class="edge"><title>Node2&#45;&gt;Node5</title>
<path fill="none" stroke="midnightblue" d="M225.661,-425.724C239.621,-452.475 269.858,-509.033 312,-541.5 320.586,-548.115 331.149,-553.008 341.348,-556.939"/>
<polygon fill="midnightblue" stroke="midnightblue" points="340.344,-560.298 350.938,-560.438 342.743,-553.722 340.344,-560.298"/>
</g>
<!-- Node7 -->
<g id="node7" class="node"><title>Node7</title>
<g id="a_node7"><a xlink:href="classprior__hessian_1_1ParetoDist.html#afe706cb12ce6f667e7a3a9eb7311ef65" target="_top" xlink:title="prior_hessian::ParetoDist::cdf">
<polygon fill="white" stroke="black" points="312,-523.5 312,-541.5 449,-541.5 449,-523.5 312,-523.5"/>
<text text-anchor="middle" x="380.5" y="-530.3" font-family="Helvetica,sans-Serif" font-size="9.00">prior_hessian::ParetoDist::cdf</text>
</a>
</g>
</g>
<!-- Node2&#45;&gt;Node7 -->
<g id="edge8" class="edge"><title>Node2&#45;&gt;Node7</title>
<path fill="none" stroke="midnightblue" d="M230.952,-425.781C247.583,-446.463 277.498,-483.458 312,-504.5 324.63,-512.203 340.478,-516.874 353.644,-520.618"/>
<polygon fill="midnightblue" stroke="midnightblue" points="352.937,-524.057 363.515,-523.463 354.875,-517.331 352.937,-524.057"/>
</g>
<!-- Node8 -->
<g id="node8" class="node"><title>Node8</title>
<g id="a_node8"><a xlink:href="classprior__hessian_1_1ParetoDist.html#a9d1040a7a5ca261feebe56f42e5698ea" target="_top" xlink:title="prior_hessian::ParetoDist\l::icdf">
<polygon fill="white" stroke="black" points="320.5,-476.5 320.5,-504.5 440.5,-504.5 440.5,-476.5 320.5,-476.5"/>
<text text-anchor="start" x="328.5" y="-493.3" font-family="Helvetica,sans-Serif" font-size="9.00">prior_hessian::ParetoDist</text>
<text text-anchor="middle" x="380.5" y="-483.3" font-family="Helvetica,sans-Serif" font-size="9.00">::icdf</text>
</a>
</g>
</g>
<!-- Node2&#45;&gt;Node8 -->
<g id="edge11" class="edge"><title>Node2&#45;&gt;Node8</title>
<path fill="none" stroke="midnightblue" d="M251.816,-425.62C269.441,-435.426 291.416,-447.98 312,-457.5 323.818,-462.966 337.258,-467.975 349.017,-472.602"/>
<polygon fill="midnightblue" stroke="midnightblue" points="347.844,-475.903 358.428,-476.401 350.465,-469.412 347.844,-475.903"/>
</g>
<!-- Node9 -->
<g id="node9" class="node"><title>Node9</title>
<g id="a_node9"><a xlink:href="classprior__hessian_1_1ParetoDist.html#a07cc43c2b299fc07660684f34f32d4ee" target="_top" xlink:title="prior_hessian::ParetoDist::pdf">
<polygon fill="white" stroke="black" points="312,-439.5 312,-457.5 449,-457.5 449,-439.5 312,-439.5"/>
<text text-anchor="middle" x="380.5" y="-446.3" font-family="Helvetica,sans-Serif" font-size="9.00">prior_hessian::ParetoDist::pdf</text>
</a>
</g>
</g>
<!-- Node2&#45;&gt;Node9 -->
<g id="edge14" class="edge"><title>Node2&#45;&gt;Node9</title>
<path fill="none" stroke="midnightblue" d="M276.126,-418.44C301.279,-423.638 329.493,-430.456 350.084,-436.463"/>
<polygon fill="midnightblue" stroke="midnightblue" points="349.229,-439.861 359.815,-439.426 351.268,-433.165 349.229,-439.861"/>
</g>
<!-- Node10 -->
<g id="node10" class="node"><title>Node10</title>
<g id="a_node10"><a xlink:href="classprior__hessian_1_1ParetoDist.html#a0f7ee813a098cd3fc9c7669cda6a340c" target="_top" xlink:title="prior_hessian::ParetoDist::llh">
<polygon fill="white" stroke="black" points="313.5,-402.5 313.5,-420.5 447.5,-420.5 447.5,-402.5 313.5,-402.5"/>
<text text-anchor="middle" x="380.5" y="-409.3" font-family="Helvetica,sans-Serif" font-size="9.00">prior_hessian::ParetoDist::llh</text>
</a>
</g>
</g>
<!-- Node2&#45;&gt;Node10 -->
<g id="edge16" class="edge"><title>Node2&#45;&gt;Node10</title>
<path fill="none" stroke="midnightblue" d="M276.126,-404.978C284.895,-404.793 294.036,-404.721 303.097,-404.761"/>
<polygon fill="midnightblue" stroke="midnightblue" points="303.237,-408.262 313.269,-404.854 303.301,-401.262 303.237,-408.262"/>
</g>
<!-- Node11 -->
<g id="node11" class="node"><title>Node11</title>
<g id="a_node11"><a xlink:href="classprior__hessian_1_1ParetoDist.html#a609ed75305325062ebd80dcfaa487c69" target="_top" xlink:title="prior_hessian::ParetoDist\l::rllh">
<polygon fill="white" stroke="black" points="495,-378.5 495,-406.5 615,-406.5 615,-378.5 495,-378.5"/>
<text text-anchor="start" x="503" y="-395.3" font-family="Helvetica,sans-Serif" font-size="9.00">prior_hessian::ParetoDist</text>
<text text-anchor="middle" x="555" y="-385.3" font-family="Helvetica,sans-Serif" font-size="9.00">::rllh</text>
</a>
</g>
</g>
<!-- Node2&#45;&gt;Node11 -->
<g id="edge21" class="edge"><title>Node2&#45;&gt;Node11</title>
<path fill="none" stroke="midnightblue" d="M276.02,-397.822C287.872,-395.606 300.284,-393.66 312,-392.5 369.964,-386.76 436.121,-387.237 484.597,-388.881"/>
<polygon fill="midnightblue" stroke="midnightblue" points="484.543,-392.381 494.664,-389.248 484.798,-385.386 484.543,-392.381"/>
</g>
<!-- Node12 -->
<g id="node12" class="node"><title>Node12</title>
<g id="a_node12"><a xlink:href="classprior__hessian_1_1ParetoDist.html#a3f802550dfcad6f0e3a8ca2e93709fe9" target="_top" xlink:title="prior_hessian::ParetoDist\l::grad">
<polygon fill="white" stroke="black" points="495,-331.5 495,-359.5 615,-359.5 615,-331.5 495,-331.5"/>
<text text-anchor="start" x="503" y="-348.3" font-family="Helvetica,sans-Serif" font-size="9.00">prior_hessian::ParetoDist</text>
<text text-anchor="middle" x="555" y="-338.3" font-family="Helvetica,sans-Serif" font-size="9.00">::grad</text>
</a>
</g>
</g>
<!-- Node2&#45;&gt;Node12 -->
<g id="edge22" class="edge"><title>Node2&#45;&gt;Node12</title>
<path fill="none" stroke="midnightblue" d="M262.628,-397.361C278.192,-392.852 295.763,-388.103 312,-384.5 369.792,-371.677 436.232,-361.274 484.857,-354.448"/>
<polygon fill="midnightblue" stroke="midnightblue" points="485.53,-357.888 494.953,-353.046 484.567,-350.954 485.53,-357.888"/>
</g>
<!-- Node13 -->
<g id="node13" class="node"><title>Node13</title>
<g id="a_node13"><a xlink:href="classprior__hessian_1_1ParetoDist.html#a24a4aaa7a8edb42009d0fa8390cb4a8f" target="_top" xlink:title="prior_hessian::ParetoDist\l::grad2">
<polygon fill="white" stroke="black" points="495,-284.5 495,-312.5 615,-312.5 615,-284.5 495,-284.5"/>
<text text-anchor="start" x="503" y="-301.3" font-family="Helvetica,sans-Serif" font-size="9.00">prior_hessian::ParetoDist</text>
<text text-anchor="middle" x="555" y="-291.3" font-family="Helvetica,sans-Serif" font-size="9.00">::grad2</text>
</a>
</g>
</g>
<!-- Node2&#45;&gt;Node13 -->
<g id="edge24" class="edge"><title>Node2&#45;&gt;Node13</title>
<path fill="none" stroke="midnightblue" d="M238.028,-397.274C256.733,-385.184 285.199,-368.143 312,-357.5 368.402,-335.103 435.687,-319.532 484.975,-310.033"/>
<polygon fill="midnightblue" stroke="midnightblue" points="485.721,-313.454 494.897,-308.156 484.42,-306.576 485.721,-313.454"/>
</g>
<!-- Node14 -->
<g id="node14" class="node"><title>Node14</title>
<g id="a_node14"><a xlink:href="classprior__hessian_1_1ParetoDist.html#a20c3f90ec9ac4b5bfd179a7c97ab36e7" target="_top" xlink:title="prior_hessian::ParetoDist\l::grad_grad2_accumulate">
<polygon fill="white" stroke="black" points="494,-237.5 494,-265.5 616,-265.5 616,-237.5 494,-237.5"/>
<text text-anchor="start" x="502" y="-254.3" font-family="Helvetica,sans-Serif" font-size="9.00">prior_hessian::ParetoDist</text>
<text text-anchor="middle" x="555" y="-244.3" font-family="Helvetica,sans-Serif" font-size="9.00">::grad_grad2_accumulate</text>
</a>
</g>
</g>
<!-- Node2&#45;&gt;Node14 -->
<g id="edge26" class="edge"><title>Node2&#45;&gt;Node14</title>
<path fill="none" stroke="midnightblue" d="M226.92,-397.263C242.526,-375.963 274.883,-336.011 312,-314.5 365.063,-283.747 433.255,-267.751 483.72,-259.589"/>
<polygon fill="midnightblue" stroke="midnightblue" points="484.542,-263.004 493.887,-258.012 483.469,-256.086 484.542,-263.004"/>
</g>
<!-- Node15 -->
<g id="node15" class="node"><title>Node15</title>
<g id="a_node15"><a xlink:href="classprior__hessian_1_1ParetoDist.html#abe706f0786b5e8ef20b7caff07ffad0c" target="_top" xlink:title="prior_hessian::ParetoDist\l::sample">
<polygon fill="white" stroke="black" points="320.5,-202.5 320.5,-230.5 440.5,-230.5 440.5,-202.5 320.5,-202.5"/>
<text text-anchor="start" x="328.5" y="-219.3" font-family="Helvetica,sans-Serif" font-size="9.00">prior_hessian::ParetoDist</text>
<text text-anchor="middle" x="380.5" y="-209.3" font-family="Helvetica,sans-Serif" font-size="9.00">::sample</text>
</a>
</g>
</g>
<!-- Node2&#45;&gt;Node15 -->
<g id="edge28" class="edge"><title>Node2&#45;&gt;Node15</title>
<path fill="none" stroke="midnightblue" d="M220.194,-397.337C229.665,-364.105 260.212,-282.697 312,-236.5 312.161,-236.357 312.322,-236.214 312.484,-236.072"/>
<polygon fill="midnightblue" stroke="midnightblue" points="314.457,-238.97 320.263,-230.108 310.198,-233.415 314.457,-238.97"/>
</g>
<!-- Node16 -->
<g id="node16" class="node"><title>Node16</title>
<g id="a_node16"><a xlink:href="classprior__hessian_1_1ParetoDist.html#a0923e8b25145eed6042aa933aa4354e5" target="_top" xlink:title="prior_hessian::ParetoDist\l::check_params_iter">
<polygon fill="white" stroke="black" points="320.5,-155.5 320.5,-183.5 440.5,-183.5 440.5,-155.5 320.5,-155.5"/>
<text text-anchor="start" x="328.5" y="-172.3" font-family="Helvetica,sans-Serif" font-size="9.00">prior_hessian::ParetoDist</text>
<text text-anchor="middle" x="380.5" y="-162.3" font-family="Helvetica,sans-Serif" font-size="9.00">::check_params_iter</text>
</a>
</g>
</g>
<!-- Node2&#45;&gt;Node16 -->
<g id="edge30" class="edge"><title>Node2&#45;&gt;Node16</title>
<path fill="none" stroke="midnightblue" d="M219.084,-397.453C225.521,-358.989 248.63,-250.941 312,-192.5 313.283,-191.317 314.629,-190.195 316.027,-189.13"/>
<polygon fill="midnightblue" stroke="midnightblue" points="318.032,-192.002 324.535,-183.638 314.236,-186.121 318.032,-192.002"/>
</g>
<!-- Node18 -->
<g id="node18" class="node"><title>Node18</title>
<g id="a_node18"><a xlink:href="classprior__hessian_1_1ParetoDist.html#af5791e2cef16b34e1bbdeec24b13d22e" target="_top" xlink:title="prior_hessian::ParetoDist\l::params">
<polygon fill="white" stroke="black" points="320.5,-108.5 320.5,-136.5 440.5,-136.5 440.5,-108.5 320.5,-108.5"/>
<text text-anchor="start" x="328.5" y="-125.3" font-family="Helvetica,sans-Serif" font-size="9.00">prior_hessian::ParetoDist</text>
<text text-anchor="middle" x="380.5" y="-115.3" font-family="Helvetica,sans-Serif" font-size="9.00">::params</text>
</a>
</g>
</g>
<!-- Node2&#45;&gt;Node18 -->
<g id="edge32" class="edge"><title>Node2&#45;&gt;Node18</title>
<path fill="none" stroke="midnightblue" d="M217.606,-397.486C220.435,-352.312 235.684,-211.708 312,-136.5 312.16,-136.342 312.321,-136.186 312.483,-136.031"/>
<polygon fill="midnightblue" stroke="midnightblue" points="314.756,-138.695 320.434,-129.75 310.418,-133.202 314.756,-138.695"/>
</g>
<!-- Node20 -->
<g id="node20" class="node"><title>Node20</title>
<g id="a_node20"><a xlink:href="classprior__hessian_1_1ParetoDist.html#abc9e60af487bda1a9ec5f7e55e38682c" target="_top" xlink:title="prior_hessian::ParetoDist\l::set_params_iter">
<polygon fill="white" stroke="black" points="320.5,-61.5 320.5,-89.5 440.5,-89.5 440.5,-61.5 320.5,-61.5"/>
<text text-anchor="start" x="328.5" y="-78.3" font-family="Helvetica,sans-Serif" font-size="9.00">prior_hessian::ParetoDist</text>
<text text-anchor="middle" x="380.5" y="-68.3" font-family="Helvetica,sans-Serif" font-size="9.00">::set_params_iter</text>
</a>
</g>
</g>
<!-- Node2&#45;&gt;Node20 -->
<g id="edge36" class="edge"><title>Node2&#45;&gt;Node20</title>
<path fill="none" stroke="midnightblue" d="M216.989,-397.422C217.724,-348.887 226.739,-186.685 312,-98.5 313.049,-97.4152 314.151,-96.3816 315.298,-95.3968"/>
<polygon fill="midnightblue" stroke="midnightblue" points="317.347,-98.2346 323.457,-89.5788 313.283,-92.5353 317.347,-98.2346"/>
</g>
<!-- Node4&#45;&gt;Node2 -->
<g id="edge4" class="edge"><title>Node4&#45;&gt;Node2</title>
<path fill="none" stroke="midnightblue" d="M320.477,-613.659C317.472,-611.821 314.618,-609.772 312,-607.5 258.356,-560.963 231.311,-476.804 221.471,-435.374"/>
<polygon fill="midnightblue" stroke="midnightblue" points="224.88,-434.577 219.287,-425.579 218.048,-436.101 224.88,-434.577"/>
</g>
<!-- Node5&#45;&gt;Node2 -->
<g id="edge6" class="edge"><title>Node5&#45;&gt;Node2</title>
<path fill="none" stroke="midnightblue" d="M320.48,-565.154C317.51,-563.434 314.66,-561.549 312,-559.5 268.983,-526.359 238.369,-468.115 224.812,-435.216"/>
<polygon fill="midnightblue" stroke="midnightblue" points="228.061,-433.913 221.157,-425.876 221.542,-436.464 228.061,-433.913"/>
</g>
<!-- Node6 -->
<g id="node6" class="node"><title>Node6</title>
<g id="a_node6"><a xlink:href="classprior__hessian_1_1ParetoDist.html#ac610ecf8ce6df7b8b48c383e89706b80" target="_top" xlink:title="prior_hessian::ParetoDist\l::alpha">
<polygon fill="white" stroke="black" points="661,-354.5 661,-382.5 781,-382.5 781,-354.5 661,-354.5"/>
<text text-anchor="start" x="669" y="-371.3" font-family="Helvetica,sans-Serif" font-size="9.00">prior_hessian::ParetoDist</text>
<text text-anchor="middle" x="721" y="-361.3" font-family="Helvetica,sans-Serif" font-size="9.00">::alpha</text>
</a>
</g>
</g>
<!-- Node5&#45;&gt;Node6 -->
<g id="edge7" class="edge"><title>Node5&#45;&gt;Node6</title>
<path fill="none" stroke="midnightblue" d="M440.535,-570.396C493.162,-564.194 570.135,-548.617 625,-509.5 667.506,-479.194 696.623,-423.465 710.563,-391.905"/>
<polygon fill="midnightblue" stroke="midnightblue" points="713.841,-393.142 714.554,-382.571 707.404,-390.39 713.841,-393.142"/>
</g>
<!-- Node7&#45;&gt;Node2 -->
<g id="edge10" class="edge"><title>Node7&#45;&gt;Node2</title>
<path fill="none" stroke="midnightblue" d="M313.575,-523.435C313.045,-523.129 312.52,-522.817 312,-522.5 275.567,-500.28 244.249,-460.273 228.287,-434.585"/>
<polygon fill="midnightblue" stroke="midnightblue" points="231.217,-432.663 223.12,-425.829 225.188,-436.22 231.217,-432.663"/>
</g>
<!-- Node7&#45;&gt;Node6 -->
<g id="edge9" class="edge"><title>Node7&#45;&gt;Node6</title>
<path fill="none" stroke="midnightblue" d="M449.246,-525.715C500.43,-518.2 570.87,-502.589 625,-470.5 658.963,-450.366 688.223,-414.465 704.979,-391.072"/>
<polygon fill="midnightblue" stroke="midnightblue" points="707.915,-392.981 710.772,-382.778 702.177,-388.972 707.915,-392.981"/>
</g>
<!-- Node8&#45;&gt;Node2 -->
<g id="edge12" class="edge"><title>Node8&#45;&gt;Node2</title>
<path fill="none" stroke="midnightblue" d="M320.344,-479.173C317.504,-477.982 314.709,-476.753 312,-475.5 285.42,-463.207 256.521,-445.855 237.663,-432"/>
<polygon fill="midnightblue" stroke="midnightblue" points="239.566,-429.048 229.509,-425.715 235.292,-434.592 239.566,-429.048"/>
</g>
<!-- Node8&#45;&gt;Node6 -->
<g id="edge13" class="edge"><title>Node8&#45;&gt;Node6</title>
<path fill="none" stroke="midnightblue" d="M440.606,-483.745C491.226,-476.437 565.197,-462.077 625,-435.5 651.389,-423.772 677.957,-404.224 696.26,-389.26"/>
<polygon fill="midnightblue" stroke="midnightblue" points="698.623,-391.847 704.058,-382.753 694.138,-386.473 698.623,-391.847"/>
</g>
<!-- Node9&#45;&gt;Node2 -->
<g id="edge15" class="edge"><title>Node9&#45;&gt;Node2</title>
<path fill="none" stroke="midnightblue" d="M311.799,-439.751C295.554,-436.255 278.566,-432.222 263.532,-428.264"/>
<polygon fill="midnightblue" stroke="midnightblue" points="264.035,-424.775 253.468,-425.544 262.208,-431.532 264.035,-424.775"/>
</g>
<!-- Node10&#45;&gt;Node2 -->
<g id="edge19" class="edge"><title>Node10&#45;&gt;Node2</title>
<path fill="none" stroke="midnightblue" d="M313.269,-418.146C304.333,-418.271 295.146,-418.283 286.161,-418.183"/>
<polygon fill="midnightblue" stroke="midnightblue" points="286.181,-414.683 276.126,-418.022 286.069,-421.682 286.181,-414.683"/>
</g>
<!-- Node10&#45;&gt;Node6 -->
<g id="edge20" class="edge"><title>Node10&#45;&gt;Node6</title>
<path fill="none" stroke="midnightblue" d="M441.157,-420.502C490.99,-426.123 563.555,-429.868 625,-415.5 648.04,-410.112 671.902,-398.279 689.948,-387.835"/>
<polygon fill="midnightblue" stroke="midnightblue" points="692.026,-390.671 698.82,-382.541 688.439,-384.66 692.026,-390.671"/>
</g>
<!-- Node10&#45;&gt;Node11 -->
<g id="edge17" class="edge"><title>Node10&#45;&gt;Node11</title>
<path fill="none" stroke="midnightblue" d="M447.7,-404.208C459.799,-402.876 472.455,-401.482 484.643,-400.139"/>
<polygon fill="midnightblue" stroke="midnightblue" points="485.192,-403.6 494.748,-399.026 484.425,-396.642 485.192,-403.6"/>
</g>
<!-- Node11&#45;&gt;Node6 -->
<g id="edge18" class="edge"><title>Node11&#45;&gt;Node6</title>
<path fill="none" stroke="midnightblue" d="M615.208,-383.835C626.704,-382.153 638.849,-380.376 650.637,-378.651"/>
<polygon fill="midnightblue" stroke="midnightblue" points="651.491,-382.063 660.879,-377.152 650.478,-375.137 651.491,-382.063"/>
</g>
<!-- Node12&#45;&gt;Node6 -->
<g id="edge23" class="edge"><title>Node12&#45;&gt;Node6</title>
<path fill="none" stroke="midnightblue" d="M615.208,-353.804C626.704,-355.416 638.849,-357.119 650.637,-358.772"/>
<polygon fill="midnightblue" stroke="midnightblue" points="650.49,-362.286 660.879,-360.209 651.462,-355.354 650.49,-362.286"/>
</g>
<!-- Node13&#45;&gt;Node6 -->
<g id="edge25" class="edge"><title>Node13&#45;&gt;Node6</title>
<path fill="none" stroke="midnightblue" d="M601.24,-312.586C609.227,-315.354 617.411,-318.375 625,-321.5 645.099,-329.776 666.877,-340.421 684.504,-349.487"/>
<polygon fill="midnightblue" stroke="midnightblue" points="683.346,-352.83 693.833,-354.337 686.575,-346.619 683.346,-352.83"/>
</g>
<!-- Node14&#45;&gt;Node6 -->
<g id="edge27" class="edge"><title>Node14&#45;&gt;Node6</title>
<path fill="none" stroke="midnightblue" d="M607.32,-265.64C613.474,-268.188 619.513,-271.129 625,-274.5 656.415,-293.801 685.433,-325.359 702.926,-346.521"/>
<polygon fill="midnightblue" stroke="midnightblue" points="700.249,-348.776 709.262,-354.346 705.689,-344.371 700.249,-348.776"/>
</g>
<!-- Node15&#45;&gt;Node2 -->
<g id="edge29" class="edge"><title>Node15&#45;&gt;Node2</title>
<path fill="none" stroke="midnightblue" d="M355.211,-230.592C341.322,-236.269 324.278,-243.547 312,-254.5 269.558,-292.36 241.382,-353.868 227.382,-387.736"/>
<polygon fill="midnightblue" stroke="midnightblue" points="224.016,-386.721 223.492,-397.303 230.501,-389.358 224.016,-386.721"/>
</g>
<!-- Node17 -->
<g id="node17" class="node"><title>Node17</title>
<g id="a_node17"><a xlink:href="classprior__hessian_1_1ParetoDist.html#abac82051de116baf787e442c705e96c3" target="_top" xlink:title="prior_hessian::ParetoDist\l::check_params">
<polygon fill="white" stroke="black" points="495,-190.5 495,-218.5 615,-218.5 615,-190.5 495,-190.5"/>
<text text-anchor="start" x="503" y="-207.3" font-family="Helvetica,sans-Serif" font-size="9.00">prior_hessian::ParetoDist</text>
<text text-anchor="middle" x="555" y="-197.3" font-family="Helvetica,sans-Serif" font-size="9.00">::check_params</text>
</a>
</g>
</g>
<!-- Node16&#45;&gt;Node17 -->
<g id="edge31" class="edge"><title>Node16&#45;&gt;Node17</title>
<path fill="none" stroke="midnightblue" d="M440.865,-181.545C455.039,-184.421 470.289,-187.515 484.86,-190.472"/>
<polygon fill="midnightblue" stroke="midnightblue" points="484.322,-193.934 494.818,-192.492 485.714,-187.073 484.322,-193.934"/>
</g>
<!-- Node18&#45;&gt;Node2 -->
<g id="edge33" class="edge"><title>Node18&#45;&gt;Node2</title>
<path fill="none" stroke="midnightblue" d="M344.327,-136.614C332.802,-140.508 320.73,-145.897 312,-154.5 244.968,-220.559 225.049,-337.069 219.277,-387.467"/>
<polygon fill="midnightblue" stroke="midnightblue" points="215.793,-387.135 218.222,-397.447 222.754,-387.871 215.793,-387.135"/>
</g>
<!-- Node18&#45;&gt;Node6 -->
<g id="edge34" class="edge"><title>Node18&#45;&gt;Node6</title>
<path fill="none" stroke="midnightblue" d="M440.569,-133.864C507.883,-147.233 610.505,-169.054 625,-180.5 678.879,-223.043 704.823,-304.285 714.83,-344.594"/>
<polygon fill="midnightblue" stroke="midnightblue" points="711.432,-345.436 717.139,-354.363 718.244,-343.826 711.432,-345.436"/>
</g>
<!-- Node19 -->
<g id="node19" class="node"><title>Node19</title>
<g id="a_node19"><a xlink:href="classprior__hessian_1_1ParetoDist.html#a218ebbdec10fbdfcaabdd79dd180b39e" target="_top" xlink:title="prior_hessian::ParetoDist\l::set_params">
<polygon fill="white" stroke="black" points="495,-104.5 495,-132.5 615,-132.5 615,-104.5 495,-104.5"/>
<text text-anchor="start" x="503" y="-121.3" font-family="Helvetica,sans-Serif" font-size="9.00">prior_hessian::ParetoDist</text>
<text text-anchor="middle" x="555" y="-111.3" font-family="Helvetica,sans-Serif" font-size="9.00">::set_params</text>
</a>
</g>
</g>
<!-- Node18&#45;&gt;Node19 -->
<g id="edge35" class="edge"><title>Node18&#45;&gt;Node19</title>
<path fill="none" stroke="midnightblue" d="M440.865,-121.123C454.902,-120.798 469.996,-120.448 484.44,-120.113"/>
<polygon fill="midnightblue" stroke="midnightblue" points="484.902,-123.603 494.818,-119.872 484.74,-116.605 484.902,-123.603"/>
</g>
<!-- Node20&#45;&gt;Node6 -->
<g id="edge40" class="edge"><title>Node20&#45;&gt;Node6</title>
<path fill="none" stroke="midnightblue" d="M440.746,-63.3193C494.432,-55.8472 572.892,-54.2705 625,-94.5 704.974,-156.243 717.942,-289.554 719.812,-344.291"/>
<polygon fill="midnightblue" stroke="midnightblue" points="716.317,-344.524 720.059,-354.436 723.315,-344.354 716.317,-344.524"/>
</g>
<!-- Node20&#45;&gt;Node19 -->
<g id="edge41" class="edge"><title>Node20&#45;&gt;Node19</title>
<path fill="none" stroke="midnightblue" d="M437.983,-89.5798C453.85,-93.5351 471.249,-97.8723 487.636,-101.957"/>
<polygon fill="midnightblue" stroke="midnightblue" points="487.135,-105.439 497.685,-104.462 488.828,-98.6471 487.135,-105.439"/>
</g>
<!-- Node21 -->
<g id="node21" class="node"><title>Node21</title>
<g id="a_node21"><a xlink:href="classprior__hessian_1_1ParetoDist.html#acef10b17c003468838f548ed255d7e1f" target="_top" xlink:title="prior_hessian::ParetoDist::min">
<polygon fill="white" stroke="black" points="485,-28.5 485,-46.5 625,-46.5 625,-28.5 485,-28.5"/>
<text text-anchor="middle" x="555" y="-35.3" font-family="Helvetica,sans-Serif" font-size="9.00">prior_hessian::ParetoDist::min</text>
</a>
</g>
</g>
<!-- Node20&#45;&gt;Node21 -->
<g id="edge37" class="edge"><title>Node20&#45;&gt;Node21</title>
<path fill="none" stroke="midnightblue" d="M440.865,-62.4226C461.114,-57.9617 483.561,-53.017 503.087,-48.7157"/>
<polygon fill="midnightblue" stroke="midnightblue" points="503.991,-52.1005 513.004,-46.5311 502.485,-45.2644 503.991,-52.1005"/>
</g>
<!-- Node22 -->
<g id="node22" class="node"><title>Node22</title>
<g id="a_node22"><a xlink:href="classprior__hessian_1_1ParetoDist.html#ace279cdfa7dbdcd8805ddb2ec4b46ee2" target="_top" xlink:title="prior_hessian::ParetoDist\l::set_min">
<polygon fill="white" stroke="black" points="661,-47.5 661,-75.5 781,-75.5 781,-47.5 661,-47.5"/>
<text text-anchor="start" x="669" y="-64.3" font-family="Helvetica,sans-Serif" font-size="9.00">prior_hessian::ParetoDist</text>
<text text-anchor="middle" x="721" y="-54.3" font-family="Helvetica,sans-Serif" font-size="9.00">::set_min</text>
</a>
</g>
</g>
<!-- Node21&#45;&gt;Node22 -->
<g id="edge38" class="edge"><title>Node21&#45;&gt;Node22</title>
<path fill="none" stroke="midnightblue" d="M617.534,-46.505C628.39,-48.0936 639.757,-49.7571 650.806,-51.374"/>
<polygon fill="midnightblue" stroke="midnightblue" points="650.438,-54.8574 660.839,-52.8423 651.452,-47.9311 650.438,-54.8574"/>
</g>
<!-- Node23 -->
<g id="node23" class="node"><title>Node23</title>
<g id="a_node23"><a xlink:href="classprior__hessian_1_1ParetoDist.html#a5c2b026477495e3fc91a1cfb653d8a97" target="_top" xlink:title="prior_hessian::ParetoDist\l::set_alpha">
<polygon fill="white" stroke="black" points="661,-0.5 661,-28.5 781,-28.5 781,-0.5 661,-0.5"/>
<text text-anchor="start" x="669" y="-17.3" font-family="Helvetica,sans-Serif" font-size="9.00">prior_hessian::ParetoDist</text>
<text text-anchor="middle" x="721" y="-7.3" font-family="Helvetica,sans-Serif" font-size="9.00">::set_alpha</text>
</a>
</g>
</g>
<!-- Node21&#45;&gt;Node23 -->
<g id="edge39" class="edge"><title>Node21&#45;&gt;Node23</title>
<path fill="none" stroke="midnightblue" d="M620.346,-28.4758C630.375,-27.0694 640.773,-25.6112 650.901,-24.1907"/>
<polygon fill="midnightblue" stroke="midnightblue" points="651.499,-27.6411 660.916,-22.7861 650.527,-20.709 651.499,-27.6411"/>
</g>
</g>
</svg>
        <g id="navigator" transform="translate(0 0)" fill="#404254">
                <rect fill="#f2f5e9" fill-opacity="0.5" stroke="#606060" stroke-width=".5" x="0" y="0" width="60" height="60"/>
                <use id="zoomplus" xlink:href="#zoomPlus" x="17" y="9" onmousedown="handleZoom(evt,'in')"/>
                <use id="zoomminus" xlink:href="#zoomMin" x="42" y="9" onmousedown="handleZoom(evt,'out')"/>
                <use id="reset" xlink:href="#resetDef" x="30" y="36" onmousedown="handleReset()"/>
                <g id="arrowUp" xlink:href="#dirArrow" transform="translate(30 24)" onmousedown="handlePan(0,-1)">
                  <use xlink:href="#rim" fill="#404040">
                        <set attributeName="fill" to="#808080" begin="arrowUp.mouseover" end="arrowUp.mouseout"/>
                  </use>
                  <path fill="none" stroke="white" stroke-width="1.5" d="M0,-3.0v7 M-2.5,-0.5L0,-3.0L2.5,-0.5"/>
                </g>
                <g id="arrowRight" xlink:href="#dirArrow" transform="rotate(90) translate(36 -43)" onmousedown="handlePan(1,0)">
                  <use xlink:href="#rim" fill="#404040">
                        <set attributeName="fill" to="#808080" begin="arrowRight.mouseover" end="arrowRight.mouseout"/>
                  </use>
                  <path fill="none" stroke="white" stroke-width="1.5" d="M0,-3.0v7 M-2.5,-0.5L0,-3.0L2.5,-0.5"/>
                </g>
                <g id="arrowDown" xlink:href="#dirArrow" transform="rotate(180) translate(-30 -48)" onmousedown="handlePan(0,1)">
                  <use xlink:href="#rim" fill="#404040">
                        <set attributeName="fill" to="#808080" begin="arrowDown.mouseover" end="arrowDown.mouseout"/>
                  </use>
                  <path fill="none" stroke="white" stroke-width="1.5" d="M0,-3.0v7 M-2.5,-0.5L0,-3.0L2.5,-0.5"/>
                </g>
                <g id="arrowLeft" xlink:href="#dirArrow" transform="rotate(270) translate(-36 17)" onmousedown="handlePan(-1,0)">
                  <use xlink:href="#rim" fill="#404040">
                        <set attributeName="fill" to="#808080" begin="arrowLeft.mouseover" end="arrowLeft.mouseout"/>
                  </use>
                  <path fill="none" stroke="white" stroke-width="1.5" d="M0,-3.0v7 M-2.5,-0.5L0,-3.0L2.5,-0.5"/>
                </g>
        </g>
        <svg viewBox="0 0 15 15" width="100%" height="30px" preserveAspectRatio="xMaxYMin meet">
         <g id="arrow_out" transform="scale(0.3 0.3)">
          <a xlink:href="classprior__hessian_1_1ParetoDist_adc9bafea285be38186ec4ad161850b56_cgraph_org.svg" target="_base">
           <rect id="button" ry="5" rx="5" y="6" x="6" height="38" width="38"
                fill="#f2f5e9" fill-opacity="0.5" stroke="#606060" stroke-width="1.0"/>
           <path id="arrow"
             d="M 11.500037,31.436501 C 11.940474,20.09759 22.043105,11.32322 32.158766,21.979434 L 37.068811,17.246167 C 37.068811,17.246167 37.088388,32 37.088388,32 L 22.160133,31.978069 C 22.160133,31.978069 26.997745,27.140456 26.997745,27.140456 C 18.528582,18.264221 13.291696,25.230495 11.500037,31.436501 z"
             style="fill:#404040;"/>
          </a>
         </g>
        </svg>
</svg>
