<?xml version="1.0" encoding="UTF-8" standalone="no"?>
<!DOCTYPE svg PUBLIC "-//W3C//DTD SVG 1.1//EN"
 "http://www.w3.org/Graphics/SVG/1.1/DTD/svg11.dtd">
<!-- Generated by graphviz version 2.38.0 (20140413.2041)
 -->
<!-- Title: prior_hessian::NormalDist::sample Pages: 1 -->
<svg width="466pt" height="97pt"
 viewBox="0.00 0.00 466.00 97.00" xmlns="http://www.w3.org/2000/svg" xmlns:xlink="http://www.w3.org/1999/xlink">
<g id="graph0" class="graph" transform="scale(1 1) rotate(0) translate(4 93)">
<title>prior_hessian::NormalDist::sample</title>
<polygon fill="white" stroke="none" points="-4,4 -4,-93 462,-93 462,4 -4,4"/>
<!-- Node1 -->
<g id="node1" class="node"><title>Node1</title>
<polygon fill="#bfbfbf" stroke="black" points="0,-44.5 0,-72.5 123,-72.5 123,-44.5 0,-44.5"/>
<text text-anchor="start" x="8" y="-61.3" font-family="Helvetica,sans-Serif" font-size="9.00">prior_hessian::NormalDist</text>
<text text-anchor="middle" x="61.5" y="-51.3" font-family="Helvetica,sans-Serif" font-size="9.00">::sample</text>
</g>
<!-- Node2 -->
<g id="node2" class="node"><title>Node2</title>
<g id="a_node2"><a xlink:href="classprior__hessian_1_1NormalDist.html#a33b6cc4357406f8d0dd017fc1088e1bc" target="_top" xlink:title="prior_hessian::NormalDist::mu">
<polygon fill="white" stroke="black" points="159,-70.5 159,-88.5 299,-88.5 299,-70.5 159,-70.5"/>
<text text-anchor="middle" x="229" y="-77.3" font-family="Helvetica,sans-Serif" font-size="9.00">prior_hessian::NormalDist::mu</text>
</a>
</g>
</g>
<!-- Node1&#45;&gt;Node2 -->
<g id="edge1" class="edge"><title>Node1&#45;&gt;Node2</title>
<path fill="none" stroke="midnightblue" d="M123.186,-66.2004C131.541,-67.2605 140.219,-68.3617 148.846,-69.4562"/>
<polygon fill="midnightblue" stroke="midnightblue" points="148.564,-72.9485 158.925,-70.7353 149.446,-66.0042 148.564,-72.9485"/>
</g>
<!-- Node3 -->
<g id="node3" class="node"><title>Node3</title>
<g id="a_node3"><a xlink:href="classprior__hessian_1_1NormalDist.html#adfc5ab11dc02672d9ef08eda487f97a7" target="_top" xlink:title="prior_hessian::NormalDist\l::sigma">
<polygon fill="white" stroke="black" points="167.5,-23.5 167.5,-51.5 290.5,-51.5 290.5,-23.5 167.5,-23.5"/>
<text text-anchor="start" x="175.5" y="-40.3" font-family="Helvetica,sans-Serif" font-size="9.00">prior_hessian::NormalDist</text>
<text text-anchor="middle" x="229" y="-30.3" font-family="Helvetica,sans-Serif" font-size="9.00">::sigma</text>
</a>
</g>
</g>
<!-- Node1&#45;&gt;Node3 -->
<g id="edge2" class="edge"><title>Node1&#45;&gt;Node3</title>
<path fill="none" stroke="midnightblue" d="M123.186,-50.7996C134.205,-49.4015 145.786,-47.9319 157.069,-46.5004"/>
<polygon fill="midnightblue" stroke="midnightblue" points="157.841,-49.9305 167.321,-45.1995 156.96,-42.9862 157.841,-49.9305"/>
</g>
<!-- Node4 -->
<g id="node4" class="node"><title>Node4</title>
<g id="a_node4"><a xlink:href="classprior__hessian_1_1NormalDist.html#a078a35e8ded3164ca701e1a1b6918f39" target="_top" xlink:title="prior_hessian::NormalDist\l::set_mu">
<polygon fill="white" stroke="black" points="335,-47.5 335,-75.5 458,-75.5 458,-47.5 335,-47.5"/>
<text text-anchor="start" x="343" y="-64.3" font-family="Helvetica,sans-Serif" font-size="9.00">prior_hessian::NormalDist</text>
<text text-anchor="middle" x="396.5" y="-54.3" font-family="Helvetica,sans-Serif" font-size="9.00">::set_mu</text>
</a>
</g>
</g>
<!-- Node3&#45;&gt;Node4 -->
<g id="edge3" class="edge"><title>Node3&#45;&gt;Node4</title>
<path fill="none" stroke="midnightblue" d="M290.686,-46.3004C301.817,-47.9146 313.523,-49.6121 324.914,-51.2639"/>
<polygon fill="midnightblue" stroke="midnightblue" points="324.422,-54.7292 334.821,-52.7006 325.427,-47.8016 324.422,-54.7292"/>
</g>
<!-- Node5 -->
<g id="node5" class="node"><title>Node5</title>
<g id="a_node5"><a xlink:href="classprior__hessian_1_1NormalDist.html#aa72eaaeda9a2fe0475ee78f08359d096" target="_top" xlink:title="prior_hessian::NormalDist\l::set_sigma">
<polygon fill="white" stroke="black" points="335,-0.5 335,-28.5 458,-28.5 458,-0.5 335,-0.5"/>
<text text-anchor="start" x="343" y="-17.3" font-family="Helvetica,sans-Serif" font-size="9.00">prior_hessian::NormalDist</text>
<text text-anchor="middle" x="396.5" y="-7.3" font-family="Helvetica,sans-Serif" font-size="9.00">::set_sigma</text>
</a>
</g>
</g>
<!-- Node3&#45;&gt;Node5 -->
<g id="edge4" class="edge"><title>Node3&#45;&gt;Node5</title>
<path fill="none" stroke="midnightblue" d="M290.686,-29.0662C301.817,-27.5194 313.523,-25.8926 324.914,-24.3096"/>
<polygon fill="midnightblue" stroke="midnightblue" points="325.398,-27.776 334.821,-22.9327 324.434,-20.8426 325.398,-27.776"/>
</g>
</g>
</svg>
