<?xml version="1.0" encoding="UTF-8" standalone="no"?>
<!DOCTYPE svg PUBLIC "-//W3C//DTD SVG 1.1//EN"
 "http://www.w3.org/Graphics/SVG/1.1/DTD/svg11.dtd">
<!-- Generated by graphviz version 2.38.0 (20140413.2041)
 -->
<!-- Title: prior_hessian::MultivariateNormalDist::cdf Pages: 1 -->
<svg width="694pt" height="131pt"
 viewBox="0.00 0.00 694.00 131.00" xmlns="http://www.w3.org/2000/svg" xmlns:xlink="http://www.w3.org/1999/xlink">
<g id="graph0" class="graph" transform="scale(1 1) rotate(0) translate(4 127)">
<title>prior_hessian::MultivariateNormalDist::cdf</title>
<polygon fill="white" stroke="none" points="-4,4 -4,-127 690,-127 690,4 -4,4"/>
<!-- Node1 -->
<g id="node1" class="node"><title>Node1</title>
<polygon fill="#bfbfbf" stroke="black" points="0,-47.5 0,-75.5 125,-75.5 125,-47.5 0,-47.5"/>
<text text-anchor="start" x="8" y="-64.3" font-family="Helvetica,sans-Serif" font-size="9.00">prior_hessian::Multivariate</text>
<text text-anchor="middle" x="62.5" y="-54.3" font-family="Helvetica,sans-Serif" font-size="9.00">NormalDist::cdf</text>
</g>
<!-- Node2 -->
<g id="node2" class="node"><title>Node2</title>
<g id="a_node2"><a xlink:href="classprior__hessian_1_1MultivariateNormalDist.html#a53e894d82ca08f285fc004b77301495d" target="_top" xlink:title="prior_hessian::Multivariate\lNormalDist::mu">
<polygon fill="white" stroke="black" points="161,-94.5 161,-122.5 286,-122.5 286,-94.5 161,-94.5"/>
<text text-anchor="start" x="169" y="-111.3" font-family="Helvetica,sans-Serif" font-size="9.00">prior_hessian::Multivariate</text>
<text text-anchor="middle" x="223.5" y="-101.3" font-family="Helvetica,sans-Serif" font-size="9.00">NormalDist::mu</text>
</a>
</g>
</g>
<!-- Node1&#45;&gt;Node2 -->
<g id="edge1" class="edge"><title>Node1&#45;&gt;Node2</title>
<path fill="none" stroke="midnightblue" d="M111.205,-75.6015C128.262,-80.6435 147.657,-86.3766 165.424,-91.6286"/>
<polygon fill="midnightblue" stroke="midnightblue" points="164.521,-95.0111 175.103,-94.4894 166.505,-88.2982 164.521,-95.0111"/>
</g>
<!-- Node3 -->
<g id="node3" class="node"><title>Node3</title>
<g id="a_node3"><a xlink:href="namespaceprior__hessian.html#a5f7ff26e783adec5fd8ba5e290a7c892" target="_top" xlink:title="prior_hessian::owen\l_bvn_cdf">
<polygon fill="white" stroke="black" points="173.5,-47.5 173.5,-75.5 273.5,-75.5 273.5,-47.5 173.5,-47.5"/>
<text text-anchor="start" x="181.5" y="-64.3" font-family="Helvetica,sans-Serif" font-size="9.00">prior_hessian::owen</text>
<text text-anchor="middle" x="223.5" y="-54.3" font-family="Helvetica,sans-Serif" font-size="9.00">_bvn_cdf</text>
</a>
</g>
</g>
<!-- Node1&#45;&gt;Node3 -->
<g id="edge2" class="edge"><title>Node1&#45;&gt;Node3</title>
<path fill="none" stroke="midnightblue" d="M125.429,-61.5C137.827,-61.5 150.825,-61.5 163.135,-61.5"/>
<polygon fill="midnightblue" stroke="midnightblue" points="163.284,-65.0001 173.284,-61.5 163.284,-58.0001 163.284,-65.0001"/>
</g>
<!-- Node7 -->
<g id="node7" class="node"><title>Node7</title>
<g id="a_node7"><a xlink:href="classprior__hessian_1_1MultivariateNormalDist.html#aa4e86dd2b8e088553aac8c6b0fa50832" target="_top" xlink:title="prior_hessian::Multivariate\lNormalDist::sigma">
<polygon fill="white" stroke="black" points="161,-0.5 161,-28.5 286,-28.5 286,-0.5 161,-0.5"/>
<text text-anchor="start" x="169" y="-17.3" font-family="Helvetica,sans-Serif" font-size="9.00">prior_hessian::Multivariate</text>
<text text-anchor="middle" x="223.5" y="-7.3" font-family="Helvetica,sans-Serif" font-size="9.00">NormalDist::sigma</text>
</a>
</g>
</g>
<!-- Node1&#45;&gt;Node7 -->
<g id="edge7" class="edge"><title>Node1&#45;&gt;Node7</title>
<path fill="none" stroke="midnightblue" d="M111.205,-47.3985C128.262,-42.3565 147.657,-36.6234 165.424,-31.3714"/>
<polygon fill="midnightblue" stroke="midnightblue" points="166.505,-34.7018 175.103,-28.5106 164.521,-27.9889 166.505,-34.7018"/>
</g>
<!-- Node4 -->
<g id="node4" class="node"><title>Node4</title>
<g id="a_node4"><a xlink:href="namespaceprior__hessian.html#a8e1226cb7a7a644fe985a8530b3df07a" target="_top" xlink:title="prior_hessian::owen\l_b_integral">
<polygon fill="white" stroke="black" points="322,-47.5 322,-75.5 422,-75.5 422,-47.5 322,-47.5"/>
<text text-anchor="start" x="330" y="-64.3" font-family="Helvetica,sans-Serif" font-size="9.00">prior_hessian::owen</text>
<text text-anchor="middle" x="372" y="-54.3" font-family="Helvetica,sans-Serif" font-size="9.00">_b_integral</text>
</a>
</g>
</g>
<!-- Node3&#45;&gt;Node4 -->
<g id="edge3" class="edge"><title>Node3&#45;&gt;Node4</title>
<path fill="none" stroke="midnightblue" d="M273.69,-61.5C285.769,-61.5 298.83,-61.5 311.343,-61.5"/>
<polygon fill="midnightblue" stroke="midnightblue" points="311.691,-65.0001 321.691,-61.5 311.691,-58.0001 311.691,-65.0001"/>
</g>
<!-- Node5 -->
<g id="node5" class="node"><title>Node5</title>
<g id="a_node5"><a xlink:href="namespaceprior__hessian.html#a31c9cb28381da665bdef9a77b4858fc5" target="_top" xlink:title="prior_hessian::owen\l_t_integral">
<polygon fill="white" stroke="black" points="458,-69.5 458,-97.5 558,-97.5 558,-69.5 458,-69.5"/>
<text text-anchor="start" x="466" y="-86.3" font-family="Helvetica,sans-Serif" font-size="9.00">prior_hessian::owen</text>
<text text-anchor="middle" x="508" y="-76.3" font-family="Helvetica,sans-Serif" font-size="9.00">_t_integral</text>
</a>
</g>
</g>
<!-- Node4&#45;&gt;Node5 -->
<g id="edge4" class="edge"><title>Node4&#45;&gt;Node5</title>
<path fill="none" stroke="midnightblue" d="M422.136,-69.5671C430.511,-70.9421 439.288,-72.3831 447.889,-73.7952"/>
<polygon fill="midnightblue" stroke="midnightblue" points="447.435,-77.2675 457.87,-75.4339 448.569,-70.36 447.435,-77.2675"/>
</g>
<!-- Node6 -->
<g id="node6" class="node"><title>Node6</title>
<g id="a_node6"><a xlink:href="namespaceprior__hessian.html#ad0373e8965088cd5481ca019aed56a87" target="_top" xlink:title="prior_hessian::unit\l_normal_cdf">
<polygon fill="white" stroke="black" points="594,-47.5 594,-75.5 686,-75.5 686,-47.5 594,-47.5"/>
<text text-anchor="start" x="602" y="-64.3" font-family="Helvetica,sans-Serif" font-size="9.00">prior_hessian::unit</text>
<text text-anchor="middle" x="640" y="-54.3" font-family="Helvetica,sans-Serif" font-size="9.00">_normal_cdf</text>
</a>
</g>
</g>
<!-- Node4&#45;&gt;Node6 -->
<g id="edge6" class="edge"><title>Node4&#45;&gt;Node6</title>
<path fill="none" stroke="midnightblue" d="M422.44,-60.8201C434.102,-60.687 446.489,-60.5677 458,-60.5 502.444,-60.2386 513.556,-60.2257 558,-60.5 566.198,-60.5506 574.863,-60.63 583.357,-60.7225"/>
<polygon fill="midnightblue" stroke="midnightblue" points="583.55,-64.2249 593.59,-60.8407 583.631,-57.2253 583.55,-64.2249"/>
</g>
<!-- Node5&#45;&gt;Node6 -->
<g id="edge5" class="edge"><title>Node5&#45;&gt;Node6</title>
<path fill="none" stroke="midnightblue" d="M558.147,-75.1827C566.428,-73.7813 575.075,-72.3181 583.504,-70.8916"/>
<polygon fill="midnightblue" stroke="midnightblue" points="584.362,-74.2963 593.638,-69.1767 583.194,-67.3944 584.362,-74.2963"/>
</g>
</g>
</svg>
