<?xml version="1.0" encoding="UTF-8" standalone="no"?>
<!DOCTYPE svg PUBLIC "-//W3C//DTD SVG 1.1//EN"
 "http://www.w3.org/Graphics/SVG/1.1/DTD/svg11.dtd">
<!-- Generated by graphviz version 2.38.0 (20140413.2041)
 -->
<!-- Title: prior_hessian::AMHCopula::grad Pages: 1 -->
<svg width="792pt" height="79pt"
 viewBox="0.00 0.00 792.00 79.00" xmlns="http://www.w3.org/2000/svg" xmlns:xlink="http://www.w3.org/1999/xlink">
<g id="graph0" class="graph" transform="scale(1 1) rotate(0) translate(4 75)">
<title>prior_hessian::AMHCopula::grad</title>
<polygon fill="white" stroke="none" points="-4,4 -4,-75 788,-75 788,4 -4,4"/>
<!-- Node1 -->
<g id="node1" class="node"><title>Node1</title>
<polygon fill="#bfbfbf" stroke="black" points="0,-21.5 0,-49.5 128,-49.5 128,-21.5 0,-21.5"/>
<text text-anchor="start" x="8" y="-38.3" font-family="Helvetica,sans-Serif" font-size="9.00">prior_hessian::AMHCopula</text>
<text text-anchor="middle" x="64" y="-28.3" font-family="Helvetica,sans-Serif" font-size="9.00">::grad</text>
</g>
<!-- Node2 -->
<g id="node2" class="node"><title>Node2</title>
<g id="a_node2"><a xlink:href="classprior__hessian_1_1AMHCopula.html#af87cadcd28d6af3fa8249932f7d01ec7" target="_top" xlink:title="prior_hessian::AMHCopula\l::grad2">
<polygon fill="white" stroke="black" points="164,-0.5 164,-28.5 292,-28.5 292,-0.5 164,-0.5"/>
<text text-anchor="start" x="172" y="-17.3" font-family="Helvetica,sans-Serif" font-size="9.00">prior_hessian::AMHCopula</text>
<text text-anchor="middle" x="228" y="-7.3" font-family="Helvetica,sans-Serif" font-size="9.00">::grad2</text>
</a>
</g>
</g>
<!-- Node1&#45;&gt;Node2 -->
<g id="edge1" class="edge"><title>Node1&#45;&gt;Node2</title>
<path fill="none" stroke="midnightblue" d="M128.097,-27.3207C136.526,-26.2281 145.227,-25.1002 153.81,-23.9876"/>
<polygon fill="midnightblue" stroke="midnightblue" points="154.341,-27.4481 163.808,-22.6915 153.441,-20.5062 154.341,-27.4481"/>
</g>
<!-- Node3 -->
<g id="node3" class="node"><title>Node3</title>
<g id="a_node3"><a xlink:href="classprior__hessian_1_1AMHCopula.html#a11696b4a8cef12a30706cd745820b201" target="_top" xlink:title="prior_hessian::AMHCopula\l::theta">
<polygon fill="white" stroke="black" points="328,-42.5 328,-70.5 456,-70.5 456,-42.5 328,-42.5"/>
<text text-anchor="start" x="336" y="-59.3" font-family="Helvetica,sans-Serif" font-size="9.00">prior_hessian::AMHCopula</text>
<text text-anchor="middle" x="392" y="-49.3" font-family="Helvetica,sans-Serif" font-size="9.00">::theta</text>
</a>
</g>
</g>
<!-- Node1&#45;&gt;Node3 -->
<g id="edge6" class="edge"><title>Node1&#45;&gt;Node3</title>
<path fill="none" stroke="midnightblue" d="M128.243,-39.5739C182.566,-43.0733 260.909,-48.1199 317.907,-51.7916"/>
<polygon fill="midnightblue" stroke="midnightblue" points="317.729,-55.2873 327.933,-52.4374 318.179,-48.3017 317.729,-55.2873"/>
</g>
<!-- Node2&#45;&gt;Node3 -->
<g id="edge2" class="edge"><title>Node2&#45;&gt;Node3</title>
<path fill="none" stroke="midnightblue" d="M283.394,-28.6022C297.36,-32.223 312.513,-36.1516 326.919,-39.8865"/>
<polygon fill="midnightblue" stroke="midnightblue" points="326.191,-43.3133 336.749,-42.435 327.948,-36.5373 326.191,-43.3133"/>
</g>
<!-- Node6 -->
<g id="node6" class="node"><title>Node6</title>
<g id="a_node6"><a xlink:href="namespaceprior__hessian.html#a706cb136b90f16dd920118eb59ef1ad6" target="_top" xlink:title="prior_hessian::square">
<polygon fill="white" stroke="black" points="339,-5.5 339,-23.5 445,-23.5 445,-5.5 339,-5.5"/>
<text text-anchor="middle" x="392" y="-12.3" font-family="Helvetica,sans-Serif" font-size="9.00">prior_hessian::square</text>
</a>
</g>
</g>
<!-- Node2&#45;&gt;Node6 -->
<g id="edge5" class="edge"><title>Node2&#45;&gt;Node6</title>
<path fill="none" stroke="midnightblue" d="M292.097,-14.5C304.053,-14.5 316.557,-14.5 328.495,-14.5"/>
<polygon fill="midnightblue" stroke="midnightblue" points="328.812,-18.0001 338.812,-14.5 328.812,-11.0001 328.812,-18.0001"/>
</g>
<!-- Node4 -->
<g id="node4" class="node"><title>Node4</title>
<g id="a_node4"><a xlink:href="classprior__hessian_1_1AMHCopula.html#a80bcb09b15bdb3c404f028772932c081" target="_top" xlink:title="prior_hessian::AMHCopula\l::set_theta">
<polygon fill="white" stroke="black" points="492,-42.5 492,-70.5 620,-70.5 620,-42.5 492,-42.5"/>
<text text-anchor="start" x="500" y="-59.3" font-family="Helvetica,sans-Serif" font-size="9.00">prior_hessian::AMHCopula</text>
<text text-anchor="middle" x="556" y="-49.3" font-family="Helvetica,sans-Serif" font-size="9.00">::set_theta</text>
</a>
</g>
</g>
<!-- Node3&#45;&gt;Node4 -->
<g id="edge3" class="edge"><title>Node3&#45;&gt;Node4</title>
<path fill="none" stroke="midnightblue" d="M456.097,-56.5C464.435,-56.5 473.038,-56.5 481.53,-56.5"/>
<polygon fill="midnightblue" stroke="midnightblue" points="481.808,-60.0001 491.808,-56.5 481.808,-53.0001 481.808,-60.0001"/>
</g>
<!-- Node5 -->
<g id="node5" class="node"><title>Node5</title>
<g id="a_node5"><a xlink:href="classprior__hessian_1_1AMHCopula.html#a9d4b8453eedea358f829f8d4c911d8c4" target="_top" xlink:title="prior_hessian::AMHCopula\l::check_theta">
<polygon fill="white" stroke="black" points="656,-42.5 656,-70.5 784,-70.5 784,-42.5 656,-42.5"/>
<text text-anchor="start" x="664" y="-59.3" font-family="Helvetica,sans-Serif" font-size="9.00">prior_hessian::AMHCopula</text>
<text text-anchor="middle" x="720" y="-49.3" font-family="Helvetica,sans-Serif" font-size="9.00">::check_theta</text>
</a>
</g>
</g>
<!-- Node4&#45;&gt;Node5 -->
<g id="edge4" class="edge"><title>Node4&#45;&gt;Node5</title>
<path fill="none" stroke="midnightblue" d="M620.097,-56.5C628.435,-56.5 637.038,-56.5 645.53,-56.5"/>
<polygon fill="midnightblue" stroke="midnightblue" points="645.808,-60.0001 655.808,-56.5 645.808,-53.0001 645.808,-60.0001"/>
</g>
</g>
</svg>
