<?xml version="1.0" encoding="UTF-8" standalone="no"?>
<!DOCTYPE svg PUBLIC "-//W3C//DTD SVG 1.1//EN"
 "http://www.w3.org/Graphics/SVG/1.1/DTD/svg11.dtd">
<!-- Generated by graphviz version 2.38.0 (20140413.2041)
 -->
<!-- Title: prior_hessian::GammaDist::median Pages: 1 -->
<!--zoomable 479 -->
<svg id="main" version="1.1" xmlns="http://www.w3.org/2000/svg" xmlns:xlink="http://www.w3.org/1999/xlink" xml:space="preserve" onload="init(evt)">
<style type="text/css"><![CDATA[
.edge:hover path { stroke: red; }
.edge:hover polygon { stroke: red; fill: red; }
]]></style>
<script type="text/javascript"><![CDATA[
var edges = document.getElementsByTagName('g');
if (edges && edges.length) {
  for (var i=0;i<edges.length;i++) {
    if (edges[i].id.substr(0,4)=='edge') {
      edges[i].setAttribute('class','edge');
    }
  }
}
]]></script>
        <defs>
                <circle id="rim" cx="0" cy="0" r="7"/>
                <circle id="rim2" cx="0" cy="0" r="3.5"/>
                <g id="zoomPlus">
                        <use xlink:href="#rim" fill="#404040">
                                <set attributeName="fill" to="#808080" begin="zoomplus.mouseover" end="zoomplus.mouseout"/>
                        </use>
                        <path d="M-4,0h8M0,-4v8" fill="none" stroke="white" stroke-width="1.5" pointer-events="none"/>
                </g>
                <g id="zoomMin">
                        <use xlink:href="#rim" fill="#404040">
                                <set attributeName="fill" to="#808080" begin="zoomminus.mouseover" end="zoomminus.mouseout"/>
                        </use>
                        <path d="M-4,0h8" fill="none" stroke="white" stroke-width="1.5" pointer-events="none"/>
                </g>
                <g id="dirArrow">
                        <path fill="none" stroke="white" stroke-width="1.5" d="M0,-3.0v7 M-2.5,-0.5L0,-3.0L2.5,-0.5"/>
                </g>
               <g id="resetDef">
                       <use xlink:href="#rim2" fill="#404040">
                               <set attributeName="fill" to="#808080" begin="reset.mouseover" end="reset.mouseout"/>
                       </use>
               </g>
        </defs>

<script type="text/javascript">
var viewWidth = 634;
var viewHeight = 479;
var sectionId = 'dynsection-19';
</script>
<script xlink:href="svgpan.js"/>
<svg id="graph" class="graph">
<g id="viewport">
<title>prior_hessian::GammaDist::median</title>
<polygon fill="white" stroke="none" points="-4,4 -4,-475 630,-475 630,4 -4,4"/>
<!-- Node1 -->
<g id="node1" class="node"><title>Node1</title>
<polygon fill="#bfbfbf" stroke="black" points="0,-225.5 0,-253.5 125,-253.5 125,-225.5 0,-225.5"/>
<text text-anchor="start" x="8" y="-242.3" font-family="Helvetica,sans-Serif" font-size="9.00">prior_hessian::GammaDist</text>
<text text-anchor="middle" x="62.5" y="-232.3" font-family="Helvetica,sans-Serif" font-size="9.00">::median</text>
</g>
<!-- Node2 -->
<g id="node2" class="node"><title>Node2</title>
<g id="a_node2"><a xlink:href="classprior__hessian_1_1GammaDist.html#abdc4e134ab9887665f063ba2031499e3" target="_top" xlink:title="prior_hessian::GammaDist::cdf">
<polygon fill="white" stroke="black" points="161.5,-442.5 161.5,-460.5 303.5,-460.5 303.5,-442.5 161.5,-442.5"/>
<text text-anchor="middle" x="232.5" y="-449.3" font-family="Helvetica,sans-Serif" font-size="9.00">prior_hessian::GammaDist::cdf</text>
</a>
</g>
</g>
<!-- Node1&#45;&gt;Node2 -->
<g id="edge1" class="edge"><title>Node1&#45;&gt;Node2</title>
<path fill="none" stroke="midnightblue" d="M66.3397,-253.5C74.3615,-289.332 100.647,-384.94 161,-433.5 162.839,-434.98 164.786,-436.34 166.814,-437.589"/>
<polygon fill="midnightblue" stroke="midnightblue" points="165.656,-440.929 176.15,-442.388 168.857,-434.704 165.656,-440.929"/>
</g>
<!-- Node3 -->
<g id="node3" class="node"><title>Node3</title>
<g id="a_node3"><a xlink:href="classprior__hessian_1_1GammaDist.html#a9000e6fd6599a8c687ebd2c670a2cfde" target="_top" xlink:title="prior_hessian::GammaDist\l::check_params_iter">
<polygon fill="white" stroke="black" points="170,-395.5 170,-423.5 295,-423.5 295,-395.5 170,-395.5"/>
<text text-anchor="start" x="178" y="-412.3" font-family="Helvetica,sans-Serif" font-size="9.00">prior_hessian::GammaDist</text>
<text text-anchor="middle" x="232.5" y="-402.3" font-family="Helvetica,sans-Serif" font-size="9.00">::check_params_iter</text>
</a>
</g>
</g>
<!-- Node1&#45;&gt;Node3 -->
<g id="edge2" class="edge"><title>Node1&#45;&gt;Node3</title>
<path fill="none" stroke="midnightblue" d="M68.9977,-253.505C81.1292,-282.615 112.982,-349.977 161,-386.5 162.832,-387.893 164.751,-389.204 166.738,-390.437"/>
<polygon fill="midnightblue" stroke="midnightblue" points="165.35,-393.666 175.808,-395.36 168.689,-387.514 165.35,-393.666"/>
</g>
<!-- Node9 -->
<g id="node9" class="node"><title>Node9</title>
<g id="a_node9"><a xlink:href="classprior__hessian_1_1GammaDist.html#aa8ebf56666a40c3778462a6ff036b4e3" target="_top" xlink:title="prior_hessian::GammaDist\l::grad">
<polygon fill="white" stroke="black" points="170,-225.5 170,-253.5 295,-253.5 295,-225.5 170,-225.5"/>
<text text-anchor="start" x="178" y="-242.3" font-family="Helvetica,sans-Serif" font-size="9.00">prior_hessian::GammaDist</text>
<text text-anchor="middle" x="232.5" y="-232.3" font-family="Helvetica,sans-Serif" font-size="9.00">::grad</text>
</a>
</g>
</g>
<!-- Node1&#45;&gt;Node9 -->
<g id="edge8" class="edge"><title>Node1&#45;&gt;Node9</title>
<path fill="none" stroke="midnightblue" d="M125.103,-239.5C136.402,-239.5 148.284,-239.5 159.848,-239.5"/>
<polygon fill="midnightblue" stroke="midnightblue" points="159.904,-243 169.904,-239.5 159.904,-236 159.904,-243"/>
</g>
<!-- Node10 -->
<g id="node10" class="node"><title>Node10</title>
<g id="a_node10"><a xlink:href="classprior__hessian_1_1GammaDist.html#a56d9a1006a32bdb6184fc50e69327e5b" target="_top" xlink:title="prior_hessian::GammaDist\l::grad2">
<polygon fill="white" stroke="black" points="170,-178.5 170,-206.5 295,-206.5 295,-178.5 170,-178.5"/>
<text text-anchor="start" x="178" y="-195.3" font-family="Helvetica,sans-Serif" font-size="9.00">prior_hessian::GammaDist</text>
<text text-anchor="middle" x="232.5" y="-185.3" font-family="Helvetica,sans-Serif" font-size="9.00">::grad2</text>
</a>
</g>
</g>
<!-- Node1&#45;&gt;Node10 -->
<g id="edge9" class="edge"><title>Node1&#45;&gt;Node10</title>
<path fill="none" stroke="midnightblue" d="M113.906,-225.398C132.095,-220.31 152.8,-214.517 171.715,-209.226"/>
<polygon fill="midnightblue" stroke="midnightblue" points="172.732,-212.575 181.42,-206.511 170.846,-205.834 172.732,-212.575"/>
</g>
<!-- Node11 -->
<g id="node11" class="node"><title>Node11</title>
<g id="a_node11"><a xlink:href="classprior__hessian_1_1GammaDist.html#a6e6149eb5bcf65a64c31f8b8dac5054c" target="_top" xlink:title="prior_hessian::GammaDist\l::grad_grad2_accumulate">
<polygon fill="white" stroke="black" points="170,-131.5 170,-159.5 295,-159.5 295,-131.5 170,-131.5"/>
<text text-anchor="start" x="178" y="-148.3" font-family="Helvetica,sans-Serif" font-size="9.00">prior_hessian::GammaDist</text>
<text text-anchor="middle" x="232.5" y="-138.3" font-family="Helvetica,sans-Serif" font-size="9.00">::grad_grad2_accumulate</text>
</a>
</g>
</g>
<!-- Node1&#45;&gt;Node11 -->
<g id="edge10" class="edge"><title>Node1&#45;&gt;Node11</title>
<path fill="none" stroke="midnightblue" d="M79.7751,-225.498C98.3794,-210.065 130.245,-185.332 161,-169.5 165.232,-167.322 169.704,-165.273 174.261,-163.363"/>
<polygon fill="midnightblue" stroke="midnightblue" points="175.669,-166.57 183.682,-159.638 173.095,-160.06 175.669,-166.57"/>
</g>
<!-- Node12 -->
<g id="node12" class="node"><title>Node12</title>
<g id="a_node12"><a xlink:href="classprior__hessian_1_1GammaDist.html#a6a57fffb433fa1ac1284619c42651b46" target="_top" xlink:title="prior_hessian::GammaDist\l::icdf">
<polygon fill="white" stroke="black" points="170,-84.5 170,-112.5 295,-112.5 295,-84.5 170,-84.5"/>
<text text-anchor="start" x="178" y="-101.3" font-family="Helvetica,sans-Serif" font-size="9.00">prior_hessian::GammaDist</text>
<text text-anchor="middle" x="232.5" y="-91.3" font-family="Helvetica,sans-Serif" font-size="9.00">::icdf</text>
</a>
</g>
</g>
<!-- Node1&#45;&gt;Node12 -->
<g id="edge11" class="edge"><title>Node1&#45;&gt;Node12</title>
<path fill="none" stroke="midnightblue" d="M71.5763,-225.469C86.2985,-201.087 119.814,-150.803 161,-122.5 163.912,-120.499 167.006,-118.651 170.209,-116.948"/>
<polygon fill="midnightblue" stroke="midnightblue" points="171.957,-119.991 179.468,-112.519 168.936,-113.677 171.957,-119.991"/>
</g>
<!-- Node13 -->
<g id="node13" class="node"><title>Node13</title>
<g id="a_node13"><a xlink:href="classprior__hessian_1_1GammaDist.html#ac823fcaa609dab7cb782ec63626b1529" target="_top" xlink:title="prior_hessian::GammaDist::llh">
<polygon fill="white" stroke="black" points="162.5,-311.5 162.5,-329.5 302.5,-329.5 302.5,-311.5 162.5,-311.5"/>
<text text-anchor="middle" x="232.5" y="-318.3" font-family="Helvetica,sans-Serif" font-size="9.00">prior_hessian::GammaDist::llh</text>
</a>
</g>
</g>
<!-- Node1&#45;&gt;Node13 -->
<g id="edge12" class="edge"><title>Node1&#45;&gt;Node13</title>
<path fill="none" stroke="midnightblue" d="M84.898,-253.702C104.217,-266.108 133.714,-284.033 161,-296.5 170.437,-300.812 180.886,-304.779 190.784,-308.193"/>
<polygon fill="midnightblue" stroke="midnightblue" points="189.847,-311.571 200.441,-311.416 192.063,-304.931 189.847,-311.571"/>
</g>
<!-- Node14 -->
<g id="node14" class="node"><title>Node14</title>
<g id="a_node14"><a xlink:href="classprior__hessian_1_1GammaDist.html#a39fee270e1ff80a3125cfdfb4920adb9" target="_top" xlink:title="prior_hessian::GammaDist\l::rllh">
<polygon fill="white" stroke="black" points="340,-236.5 340,-264.5 465,-264.5 465,-236.5 340,-236.5"/>
<text text-anchor="start" x="348" y="-253.3" font-family="Helvetica,sans-Serif" font-size="9.00">prior_hessian::GammaDist</text>
<text text-anchor="middle" x="402.5" y="-243.3" font-family="Helvetica,sans-Serif" font-size="9.00">::rllh</text>
</a>
</g>
</g>
<!-- Node1&#45;&gt;Node14 -->
<g id="edge17" class="edge"><title>Node1&#45;&gt;Node14</title>
<path fill="none" stroke="midnightblue" d="M110.682,-253.545C126.522,-257.607 144.387,-261.485 161,-263.5 224.093,-271.151 240.584,-267.709 304,-263.5 312.389,-262.943 321.158,-262.12 329.85,-261.153"/>
<polygon fill="midnightblue" stroke="midnightblue" points="330.468,-264.604 339.991,-259.959 329.65,-257.652 330.468,-264.604"/>
</g>
<!-- Node15 -->
<g id="node15" class="node"><title>Node15</title>
<g id="a_node15"><a xlink:href="classprior__hessian_1_1GammaDist.html#a39dfbff78fec9e25d9e2cdfaf0301b68" target="_top" xlink:title="prior_hessian::GammaDist::pdf">
<polygon fill="white" stroke="black" points="161,-47.5 161,-65.5 304,-65.5 304,-47.5 161,-47.5"/>
<text text-anchor="middle" x="232.5" y="-54.3" font-family="Helvetica,sans-Serif" font-size="9.00">prior_hessian::GammaDist::pdf</text>
</a>
</g>
</g>
<!-- Node1&#45;&gt;Node15 -->
<g id="edge16" class="edge"><title>Node1&#45;&gt;Node15</title>
<path fill="none" stroke="midnightblue" d="M67.6588,-225.481C77.905,-193.461 107.498,-114.629 161,-74.5 163.198,-72.8514 165.531,-71.353 167.961,-69.9912"/>
<polygon fill="midnightblue" stroke="midnightblue" points="169.589,-73.0928 177.113,-65.6335 166.579,-66.7728 169.589,-73.0928"/>
</g>
<!-- Node16 -->
<g id="node16" class="node"><title>Node16</title>
<g id="a_node16"><a xlink:href="classprior__hessian_1_1GammaDist.html#a43b441f59ff1a5506110585ffde4adf3" target="_top" xlink:title="prior_hessian::GammaDist\l::sample">
<polygon fill="white" stroke="black" points="170,-0.5 170,-28.5 295,-28.5 295,-0.5 170,-0.5"/>
<text text-anchor="start" x="178" y="-17.3" font-family="Helvetica,sans-Serif" font-size="9.00">prior_hessian::GammaDist</text>
<text text-anchor="middle" x="232.5" y="-7.3" font-family="Helvetica,sans-Serif" font-size="9.00">::sample</text>
</a>
</g>
</g>
<!-- Node1&#45;&gt;Node16 -->
<g id="edge18" class="edge"><title>Node1&#45;&gt;Node16</title>
<path fill="none" stroke="midnightblue" d="M66.2927,-225.434C74.2721,-188.92 100.598,-90.2878 161,-37.5 162.49,-36.1974 164.056,-34.9683 165.683,-33.8086"/>
<polygon fill="midnightblue" stroke="midnightblue" points="167.549,-36.7703 174.256,-28.569 163.898,-30.7974 167.549,-36.7703"/>
</g>
<!-- Node17 -->
<g id="node17" class="node"><title>Node17</title>
<g id="a_node17"><a xlink:href="classprior__hessian_1_1GammaDist.html#ace2701b4efc741de9c4ecf71f513b844" target="_top" xlink:title="prior_hessian::GammaDist\l::set_params_iter">
<polygon fill="white" stroke="black" points="170,-348.5 170,-376.5 295,-376.5 295,-348.5 170,-348.5"/>
<text text-anchor="start" x="178" y="-365.3" font-family="Helvetica,sans-Serif" font-size="9.00">prior_hessian::GammaDist</text>
<text text-anchor="middle" x="232.5" y="-355.3" font-family="Helvetica,sans-Serif" font-size="9.00">::set_params_iter</text>
</a>
</g>
</g>
<!-- Node1&#45;&gt;Node17 -->
<g id="edge19" class="edge"><title>Node1&#45;&gt;Node17</title>
<path fill="none" stroke="midnightblue" d="M73.573,-253.537C89.6923,-275.028 123.328,-316.054 161,-339.5 163.647,-341.148 166.425,-342.689 169.284,-344.13"/>
<polygon fill="midnightblue" stroke="midnightblue" points="168.083,-347.43 178.634,-348.397 170.989,-341.061 168.083,-347.43"/>
</g>
<!-- Node4 -->
<g id="node4" class="node"><title>Node4</title>
<g id="a_node4"><a xlink:href="classprior__hessian_1_1GammaDist.html#aee83cfdf65aa5f0c9aab22e6a34a5294" target="_top" xlink:title="prior_hessian::GammaDist\l::check_params">
<polygon fill="white" stroke="black" points="340,-442.5 340,-470.5 465,-470.5 465,-442.5 340,-442.5"/>
<text text-anchor="start" x="348" y="-459.3" font-family="Helvetica,sans-Serif" font-size="9.00">prior_hessian::GammaDist</text>
<text text-anchor="middle" x="402.5" y="-449.3" font-family="Helvetica,sans-Serif" font-size="9.00">::check_params</text>
</a>
</g>
</g>
<!-- Node3&#45;&gt;Node4 -->
<g id="edge3" class="edge"><title>Node3&#45;&gt;Node4</title>
<path fill="none" stroke="midnightblue" d="M283.906,-423.602C302.095,-428.69 322.8,-434.483 341.715,-439.774"/>
<polygon fill="midnightblue" stroke="midnightblue" points="340.846,-443.166 351.42,-442.489 342.732,-436.425 340.846,-443.166"/>
</g>
<!-- Node5 -->
<g id="node5" class="node"><title>Node5</title>
<g id="a_node5"><a xlink:href="classprior__hessian_1_1GammaDist.html#a455e42461877165e4101f9f7f33ae84d" target="_top" xlink:title="prior_hessian::GammaDist\l::scale">
<polygon fill="white" stroke="black" points="340,-395.5 340,-423.5 465,-423.5 465,-395.5 340,-395.5"/>
<text text-anchor="start" x="348" y="-412.3" font-family="Helvetica,sans-Serif" font-size="9.00">prior_hessian::GammaDist</text>
<text text-anchor="middle" x="402.5" y="-402.3" font-family="Helvetica,sans-Serif" font-size="9.00">::scale</text>
</a>
</g>
</g>
<!-- Node3&#45;&gt;Node5 -->
<g id="edge4" class="edge"><title>Node3&#45;&gt;Node5</title>
<path fill="none" stroke="midnightblue" d="M295.103,-409.5C306.402,-409.5 318.284,-409.5 329.848,-409.5"/>
<polygon fill="midnightblue" stroke="midnightblue" points="329.904,-413 339.904,-409.5 329.904,-406 329.904,-413"/>
</g>
<!-- Node6 -->
<g id="node6" class="node"><title>Node6</title>
<g id="a_node6"><a xlink:href="classprior__hessian_1_1GammaDist.html#a2c8b6939f7920e2e81532b5c1970567a" target="_top" xlink:title="prior_hessian::GammaDist\l::shape">
<polygon fill="white" stroke="black" points="340,-348.5 340,-376.5 465,-376.5 465,-348.5 340,-348.5"/>
<text text-anchor="start" x="348" y="-365.3" font-family="Helvetica,sans-Serif" font-size="9.00">prior_hessian::GammaDist</text>
<text text-anchor="middle" x="402.5" y="-355.3" font-family="Helvetica,sans-Serif" font-size="9.00">::shape</text>
</a>
</g>
</g>
<!-- Node3&#45;&gt;Node6 -->
<g id="edge5" class="edge"><title>Node3&#45;&gt;Node6</title>
<path fill="none" stroke="midnightblue" d="M283.906,-395.398C302.095,-390.31 322.8,-384.517 341.715,-379.226"/>
<polygon fill="midnightblue" stroke="midnightblue" points="342.732,-382.575 351.42,-376.511 340.846,-375.834 342.732,-382.575"/>
</g>
<!-- Node7 -->
<g id="node7" class="node"><title>Node7</title>
<g id="a_node7"><a xlink:href="classprior__hessian_1_1GammaDist.html#a7560c2b0a336870b19240f6bea0eb023" target="_top" xlink:title="prior_hessian::GammaDist\l::set_scale">
<polygon fill="white" stroke="black" points="501,-372.5 501,-400.5 626,-400.5 626,-372.5 501,-372.5"/>
<text text-anchor="start" x="509" y="-389.3" font-family="Helvetica,sans-Serif" font-size="9.00">prior_hessian::GammaDist</text>
<text text-anchor="middle" x="563.5" y="-379.3" font-family="Helvetica,sans-Serif" font-size="9.00">::set_scale</text>
</a>
</g>
</g>
<!-- Node6&#45;&gt;Node7 -->
<g id="edge6" class="edge"><title>Node6&#45;&gt;Node7</title>
<path fill="none" stroke="midnightblue" d="M465.429,-371.848C473.674,-373.092 482.184,-374.377 490.58,-375.644"/>
<polygon fill="midnightblue" stroke="midnightblue" points="490.33,-379.146 500.74,-377.178 491.375,-372.224 490.33,-379.146"/>
</g>
<!-- Node8 -->
<g id="node8" class="node"><title>Node8</title>
<g id="a_node8"><a xlink:href="classprior__hessian_1_1GammaDist.html#aea1effd3a5de08430650cc345312b8bd" target="_top" xlink:title="prior_hessian::GammaDist\l::set_shape">
<polygon fill="white" stroke="black" points="501,-325.5 501,-353.5 626,-353.5 626,-325.5 501,-325.5"/>
<text text-anchor="start" x="509" y="-342.3" font-family="Helvetica,sans-Serif" font-size="9.00">prior_hessian::GammaDist</text>
<text text-anchor="middle" x="563.5" y="-332.3" font-family="Helvetica,sans-Serif" font-size="9.00">::set_shape</text>
</a>
</g>
</g>
<!-- Node6&#45;&gt;Node8 -->
<g id="edge7" class="edge"><title>Node6&#45;&gt;Node8</title>
<path fill="none" stroke="midnightblue" d="M465.429,-353.542C473.674,-352.349 482.184,-351.118 490.58,-349.903"/>
<polygon fill="midnightblue" stroke="midnightblue" points="491.344,-353.329 500.74,-348.434 490.342,-346.402 491.344,-353.329"/>
</g>
<!-- Node13&#45;&gt;Node5 -->
<g id="edge14" class="edge"><title>Node13&#45;&gt;Node5</title>
<path fill="none" stroke="midnightblue" d="M283.453,-329.543C290.692,-332.085 297.786,-335.338 304,-339.5 325.861,-354.144 318.856,-370.839 340,-386.5 341.861,-387.878 343.813,-389.182 345.831,-390.416"/>
<polygon fill="midnightblue" stroke="midnightblue" points="344.557,-393.706 355.019,-395.379 347.884,-387.547 344.557,-393.706"/>
</g>
<!-- Node13&#45;&gt;Node6 -->
<g id="edge15" class="edge"><title>Node13&#45;&gt;Node6</title>
<path fill="none" stroke="midnightblue" d="M269.54,-329.51C288.773,-334.318 313.05,-340.388 335.522,-346.005"/>
<polygon fill="midnightblue" stroke="midnightblue" points="334.806,-349.434 345.357,-348.464 336.504,-342.643 334.806,-349.434"/>
</g>
<!-- Node13&#45;&gt;Node14 -->
<g id="edge13" class="edge"><title>Node13&#45;&gt;Node14</title>
<path fill="none" stroke="midnightblue" d="M264.967,-311.428C277.371,-307.431 291.591,-302.317 304,-296.5 320.978,-288.541 323.201,-282.83 340,-274.5 344.096,-272.469 348.409,-270.488 352.772,-268.591"/>
<polygon fill="midnightblue" stroke="midnightblue" points="354.465,-271.677 362.337,-264.586 351.761,-265.22 354.465,-271.677"/>
</g>
<!-- Node17&#45;&gt;Node5 -->
<g id="edge20" class="edge"><title>Node17&#45;&gt;Node5</title>
<path fill="none" stroke="midnightblue" d="M283.906,-376.602C302.095,-381.69 322.8,-387.483 341.715,-392.774"/>
<polygon fill="midnightblue" stroke="midnightblue" points="340.846,-396.166 351.42,-395.489 342.732,-389.425 340.846,-396.166"/>
</g>
<!-- Node17&#45;&gt;Node6 -->
<g id="edge21" class="edge"><title>Node17&#45;&gt;Node6</title>
<path fill="none" stroke="midnightblue" d="M295.103,-362.5C306.402,-362.5 318.284,-362.5 329.848,-362.5"/>
<polygon fill="midnightblue" stroke="midnightblue" points="329.904,-366 339.904,-362.5 329.904,-359 329.904,-366"/>
</g>
<!-- Node18 -->
<g id="node18" class="node"><title>Node18</title>
<g id="a_node18"><a xlink:href="classprior__hessian_1_1GammaDist.html#aebc6101c1e09881dacfee4da4c950d40" target="_top" xlink:title="prior_hessian::GammaDist\l::set_params">
<polygon fill="white" stroke="black" points="340,-283.5 340,-311.5 465,-311.5 465,-283.5 340,-283.5"/>
<text text-anchor="start" x="348" y="-300.3" font-family="Helvetica,sans-Serif" font-size="9.00">prior_hessian::GammaDist</text>
<text text-anchor="middle" x="402.5" y="-290.3" font-family="Helvetica,sans-Serif" font-size="9.00">::set_params</text>
</a>
</g>
</g>
<!-- Node17&#45;&gt;Node18 -->
<g id="edge22" class="edge"><title>Node17&#45;&gt;Node18</title>
<path fill="none" stroke="midnightblue" d="M278.845,-348.384C287.255,-345.575 295.93,-342.547 304,-339.5 323.058,-332.304 343.835,-323.492 361.294,-315.801"/>
<polygon fill="midnightblue" stroke="midnightblue" points="362.9,-318.918 370.62,-311.661 360.06,-312.52 362.9,-318.918"/>
</g>
<!-- Node18&#45;&gt;Node18 -->
<g id="edge23" class="edge"><title>Node18&#45;&gt;Node18</title>
<path fill="none" stroke="midnightblue" d="M375.144,-311.53C367.444,-320.89 376.562,-330 402.5,-330 418.711,-330 428.352,-326.441 431.423,-321.487"/>
<polygon fill="midnightblue" stroke="midnightblue" points="434.868,-320.865 429.856,-311.53 427.954,-321.953 434.868,-320.865"/>
</g>
</g>
</svg>
        <g id="navigator" transform="translate(0 0)" fill="#404254">
                <rect fill="#f2f5e9" fill-opacity="0.5" stroke="#606060" stroke-width=".5" x="0" y="0" width="60" height="60"/>
                <use id="zoomplus" xlink:href="#zoomPlus" x="17" y="9" onmousedown="handleZoom(evt,'in')"/>
                <use id="zoomminus" xlink:href="#zoomMin" x="42" y="9" onmousedown="handleZoom(evt,'out')"/>
                <use id="reset" xlink:href="#resetDef" x="30" y="36" onmousedown="handleReset()"/>
                <g id="arrowUp" xlink:href="#dirArrow" transform="translate(30 24)" onmousedown="handlePan(0,-1)">
                  <use xlink:href="#rim" fill="#404040">
                        <set attributeName="fill" to="#808080" begin="arrowUp.mouseover" end="arrowUp.mouseout"/>
                  </use>
                  <path fill="none" stroke="white" stroke-width="1.5" d="M0,-3.0v7 M-2.5,-0.5L0,-3.0L2.5,-0.5"/>
                </g>
                <g id="arrowRight" xlink:href="#dirArrow" transform="rotate(90) translate(36 -43)" onmousedown="handlePan(1,0)">
                  <use xlink:href="#rim" fill="#404040">
                        <set attributeName="fill" to="#808080" begin="arrowRight.mouseover" end="arrowRight.mouseout"/>
                  </use>
                  <path fill="none" stroke="white" stroke-width="1.5" d="M0,-3.0v7 M-2.5,-0.5L0,-3.0L2.5,-0.5"/>
                </g>
                <g id="arrowDown" xlink:href="#dirArrow" transform="rotate(180) translate(-30 -48)" onmousedown="handlePan(0,1)">
                  <use xlink:href="#rim" fill="#404040">
                        <set attributeName="fill" to="#808080" begin="arrowDown.mouseover" end="arrowDown.mouseout"/>
                  </use>
                  <path fill="none" stroke="white" stroke-width="1.5" d="M0,-3.0v7 M-2.5,-0.5L0,-3.0L2.5,-0.5"/>
                </g>
                <g id="arrowLeft" xlink:href="#dirArrow" transform="rotate(270) translate(-36 17)" onmousedown="handlePan(-1,0)">
                  <use xlink:href="#rim" fill="#404040">
                        <set attributeName="fill" to="#808080" begin="arrowLeft.mouseover" end="arrowLeft.mouseout"/>
                  </use>
                  <path fill="none" stroke="white" stroke-width="1.5" d="M0,-3.0v7 M-2.5,-0.5L0,-3.0L2.5,-0.5"/>
                </g>
        </g>
        <svg viewBox="0 0 15 15" width="100%" height="30px" preserveAspectRatio="xMaxYMin meet">
         <g id="arrow_out" transform="scale(0.3 0.3)">
          <a xlink:href="classprior__hessian_1_1GammaDist_a555e2d86894155eb89f59fd1acf727e2_cgraph_org.svg" target="_base">
           <rect id="button" ry="5" rx="5" y="6" x="6" height="38" width="38"
                fill="#f2f5e9" fill-opacity="0.5" stroke="#606060" stroke-width="1.0"/>
           <path id="arrow"
             d="M 11.500037,31.436501 C 11.940474,20.09759 22.043105,11.32322 32.158766,21.979434 L 37.068811,17.246167 C 37.068811,17.246167 37.088388,32 37.088388,32 L 22.160133,31.978069 C 22.160133,31.978069 26.997745,27.140456 26.997745,27.140456 C 18.528582,18.264221 13.291696,25.230495 11.500037,31.436501 z"
             style="fill:#404040;"/>
          </a>
         </g>
        </svg>
</svg>
