<?xml version="1.0" encoding="UTF-8" standalone="no"?>
<!DOCTYPE svg PUBLIC "-//W3C//DTD SVG 1.1//EN"
 "http://www.w3.org/Graphics/SVG/1.1/DTD/svg11.dtd">
<!-- Generated by graphviz version 2.38.0 (20140413.2041)
 -->
<!-- Title: prior_hessian::ScaledDist::convert_to_unitary_coords Pages: 1 -->
<svg width="471pt" height="64pt"
 viewBox="0.00 0.00 471.00 64.00" xmlns="http://www.w3.org/2000/svg" xmlns:xlink="http://www.w3.org/1999/xlink">
<g id="graph0" class="graph" transform="scale(1 1) rotate(0) translate(4 60)">
<title>prior_hessian::ScaledDist::convert_to_unitary_coords</title>
<polygon fill="white" stroke="none" points="-4,4 -4,-60 467,-60 467,4 -4,4"/>
<!-- Node1 -->
<g id="node1" class="node"><title>Node1</title>
<polygon fill="#bfbfbf" stroke="black" points="0,-13.5 0,-41.5 130,-41.5 130,-13.5 0,-13.5"/>
<text text-anchor="start" x="8" y="-30.3" font-family="Helvetica,sans-Serif" font-size="9.00">prior_hessian::ScaledDist</text>
<text text-anchor="middle" x="65" y="-20.3" font-family="Helvetica,sans-Serif" font-size="9.00">::convert_to_unitary_coords</text>
</g>
<!-- Node2 -->
<g id="node2" class="node"><title>Node2</title>
<g id="a_node2"><a xlink:href="classprior__hessian_1_1ScaledDist.html#a58daada799ea4dd02ab3ea581751d04c" target="_top" xlink:title="prior_hessian::ScaledDist::cdf">
<polygon fill="white" stroke="black" points="166.5,-37.5 166.5,-55.5 304.5,-55.5 304.5,-37.5 166.5,-37.5"/>
<text text-anchor="middle" x="235.5" y="-44.3" font-family="Helvetica,sans-Serif" font-size="9.00">prior_hessian::ScaledDist::cdf</text>
</a>
</g>
</g>
<!-- Node1&#45;&gt;Node2 -->
<g id="edge1" class="edge"><title>Node1&#45;&gt;Node2</title>
<path fill="none" stroke="midnightblue" d="M140.26,-35.8735C148.918,-36.8498 157.719,-37.8422 166.29,-38.8087"/>
<polygon fill="midnightblue" stroke="midnightblue" points="140.513,-32.3799 130.183,-34.7373 139.728,-39.3358 140.513,-32.3799"/>
</g>
<!-- Node4 -->
<g id="node4" class="node"><title>Node4</title>
<g id="a_node4"><a xlink:href="classprior__hessian_1_1ScaledDist.html#a9c2a6620b09c8f9dff9f712a628d9726" target="_top" xlink:title="prior_hessian::ScaledDist::pdf">
<polygon fill="white" stroke="black" points="166,-0.5 166,-18.5 305,-18.5 305,-0.5 166,-0.5"/>
<text text-anchor="middle" x="235.5" y="-7.3" font-family="Helvetica,sans-Serif" font-size="9.00">prior_hessian::ScaledDist::pdf</text>
</a>
</g>
</g>
<!-- Node1&#45;&gt;Node4 -->
<g id="edge3" class="edge"><title>Node1&#45;&gt;Node4</title>
<path fill="none" stroke="midnightblue" d="M140.377,-19.5546C148.808,-18.654 157.372,-17.7392 165.726,-16.8467"/>
<polygon fill="midnightblue" stroke="midnightblue" points="139.755,-16.1011 130.183,-20.6436 140.499,-23.0615 139.755,-16.1011"/>
</g>
<!-- Node3 -->
<g id="node3" class="node"><title>Node3</title>
<g id="a_node3"><a xlink:href="classprior__hessian_1_1ScaledDist.html#a61f5160e1a6d2b2055596e14844975e0" target="_top" xlink:title="prior_hessian::ScaledDist\l::median">
<polygon fill="white" stroke="black" points="341,-13.5 341,-41.5 463,-41.5 463,-13.5 341,-13.5"/>
<text text-anchor="start" x="349" y="-30.3" font-family="Helvetica,sans-Serif" font-size="9.00">prior_hessian::ScaledDist</text>
<text text-anchor="middle" x="402" y="-20.3" font-family="Helvetica,sans-Serif" font-size="9.00">::median</text>
</a>
</g>
</g>
<!-- Node2&#45;&gt;Node3 -->
<g id="edge2" class="edge"><title>Node2&#45;&gt;Node3</title>
<path fill="none" stroke="midnightblue" d="M314.961,-37.4377C323.629,-36.4364 332.354,-35.4287 340.749,-34.4591"/>
<polygon fill="midnightblue" stroke="midnightblue" points="314.366,-33.983 304.834,-38.6074 315.169,-40.9368 314.366,-33.983"/>
</g>
<!-- Node4&#45;&gt;Node3 -->
<g id="edge4" class="edge"><title>Node4&#45;&gt;Node3</title>
<path fill="none" stroke="midnightblue" d="M315.331,-18.1259C323.907,-19.0643 332.532,-20.0081 340.833,-20.9164"/>
<polygon fill="midnightblue" stroke="midnightblue" points="315.631,-14.6379 305.31,-17.0293 314.87,-21.5964 315.631,-14.6379"/>
</g>
</g>
</svg>
