<?xml version="1.0" encoding="UTF-8" standalone="no"?>
<!DOCTYPE svg PUBLIC "-//W3C//DTD SVG 1.1//EN"
 "http://www.w3.org/Graphics/SVG/1.1/DTD/svg11.dtd">
<!-- Generated by graphviz version 2.38.0 (20140413.2041)
 -->
<!-- Title: prior_hessian::UpperTruncatedDist::set_lbound Pages: 1 -->
<svg width="512pt" height="58pt"
 viewBox="0.00 0.00 512.00 58.00" xmlns="http://www.w3.org/2000/svg" xmlns:xlink="http://www.w3.org/1999/xlink">
<g id="graph0" class="graph" transform="scale(1 1) rotate(0) translate(4 54)">
<title>prior_hessian::UpperTruncatedDist::set_lbound</title>
<polygon fill="white" stroke="none" points="-4,4 -4,-54 508,-54 508,4 -4,4"/>
<!-- Node1 -->
<g id="node1" class="node"><title>Node1</title>
<polygon fill="#bfbfbf" stroke="black" points="0,-21.5 0,-49.5 144,-49.5 144,-21.5 0,-21.5"/>
<text text-anchor="start" x="8" y="-38.3" font-family="Helvetica,sans-Serif" font-size="9.00">prior_hessian::UpperTruncated</text>
<text text-anchor="middle" x="72" y="-28.3" font-family="Helvetica,sans-Serif" font-size="9.00">Dist::set_lbound</text>
</g>
<!-- Node2 -->
<g id="node2" class="node"><title>Node2</title>
<g id="a_node2"><a xlink:href="classprior__hessian_1_1UpperTruncatedDist.html#a3396c4b08ddb07235c10c4edc97b96e3" target="_top" xlink:title="prior_hessian::UpperTruncated\lDist::operator!=">
<polygon fill="white" stroke="black" points="360,-21.5 360,-49.5 504,-49.5 504,-21.5 360,-21.5"/>
<text text-anchor="start" x="368" y="-38.3" font-family="Helvetica,sans-Serif" font-size="9.00">prior_hessian::UpperTruncated</text>
<text text-anchor="middle" x="432" y="-28.3" font-family="Helvetica,sans-Serif" font-size="9.00">Dist::operator!=</text>
</a>
</g>
</g>
<!-- Node1&#45;&gt;Node2 -->
<g id="edge1" class="edge"><title>Node1&#45;&gt;Node2</title>
<path fill="none" stroke="midnightblue" d="M154.248,-38.0167C162.94,-38.2147 171.653,-38.383 180,-38.5 243.994,-39.3969 260.006,-39.3969 324,-38.5 335.614,-38.3372 347.934,-38.0751 359.924,-37.7719"/>
<polygon fill="midnightblue" stroke="midnightblue" points="154.157,-34.5136 144.076,-37.7719 153.988,-41.5116 154.157,-34.5136"/>
</g>
<!-- Node3 -->
<g id="node3" class="node"><title>Node3</title>
<g id="a_node3"><a xlink:href="classprior__hessian_1_1UpperTruncatedDist.html#a91569d20bfec0bd4b5404e0aef0b89df" target="_top" xlink:title="prior_hessian::UpperTruncated\lDist::set_bounds">
<polygon fill="white" stroke="black" points="180,-0.5 180,-28.5 324,-28.5 324,-0.5 180,-0.5"/>
<text text-anchor="start" x="188" y="-17.3" font-family="Helvetica,sans-Serif" font-size="9.00">prior_hessian::UpperTruncated</text>
<text text-anchor="middle" x="252" y="-7.3" font-family="Helvetica,sans-Serif" font-size="9.00">Dist::set_bounds</text>
</a>
</g>
</g>
<!-- Node1&#45;&gt;Node3 -->
<g id="edge2" class="edge"><title>Node1&#45;&gt;Node3</title>
<path fill="none" stroke="midnightblue" d="M154.17,-25.9237C162.789,-24.9069 171.506,-23.8785 179.995,-22.877"/>
<polygon fill="midnightblue" stroke="midnightblue" points="153.639,-22.4621 144.118,-27.1097 154.459,-29.4139 153.639,-22.4621"/>
</g>
<!-- Node3&#45;&gt;Node2 -->
<g id="edge3" class="edge"><title>Node3&#45;&gt;Node2</title>
<path fill="none" stroke="midnightblue" d="M334.17,-24.0763C342.789,-25.0931 351.506,-26.1215 359.995,-27.123"/>
<polygon fill="midnightblue" stroke="midnightblue" points="334.459,-20.5861 324.118,-22.8903 333.639,-27.5379 334.459,-20.5861"/>
</g>
</g>
</svg>
