<?xml version="1.0" encoding="UTF-8" standalone="no"?>
<!DOCTYPE svg PUBLIC "-//W3C//DTD SVG 1.1//EN"
 "http://www.w3.org/Graphics/SVG/1.1/DTD/svg11.dtd">
<!-- Generated by graphviz version 2.38.0 (20140413.2041)
 -->
<!-- Title: prior_hessian::SymmetricBetaDist::check_params Pages: 1 -->
<svg width="454pt" height="84pt"
 viewBox="0.00 0.00 454.00 84.00" xmlns="http://www.w3.org/2000/svg" xmlns:xlink="http://www.w3.org/1999/xlink">
<g id="graph0" class="graph" transform="scale(1 1) rotate(0) translate(4 80)">
<title>prior_hessian::SymmetricBetaDist::check_params</title>
<polygon fill="white" stroke="none" points="-4,4 -4,-80 450,-80 450,4 -4,4"/>
<!-- Node1 -->
<g id="node1" class="node"><title>Node1</title>
<polygon fill="#bfbfbf" stroke="black" points="0,-23.5 0,-51.5 120,-51.5 120,-23.5 0,-23.5"/>
<text text-anchor="start" x="8" y="-40.3" font-family="Helvetica,sans-Serif" font-size="9.00">prior_hessian::Symmetric</text>
<text text-anchor="middle" x="60" y="-30.3" font-family="Helvetica,sans-Serif" font-size="9.00">BetaDist::check_params</text>
</g>
<!-- Node2 -->
<g id="node2" class="node"><title>Node2</title>
<g id="a_node2"><a xlink:href="classprior__hessian_1_1SymmetricBetaDist.html#ae44cf9a26f2f8649b8f29c7ca8e7ef24" target="_top" xlink:title="prior_hessian::Symmetric\lBetaDist::check_params_iter">
<polygon fill="white" stroke="black" points="156,-47.5 156,-75.5 290,-75.5 290,-47.5 156,-47.5"/>
<text text-anchor="start" x="164" y="-64.3" font-family="Helvetica,sans-Serif" font-size="9.00">prior_hessian::Symmetric</text>
<text text-anchor="middle" x="223" y="-54.3" font-family="Helvetica,sans-Serif" font-size="9.00">BetaDist::check_params_iter</text>
</a>
</g>
</g>
<!-- Node1&#45;&gt;Node2 -->
<g id="edge1" class="edge"><title>Node1&#45;&gt;Node2</title>
<path fill="none" stroke="midnightblue" d="M130.01,-47.7872C138.596,-49.0672 147.361,-50.3737 155.902,-51.6468"/>
<polygon fill="midnightblue" stroke="midnightblue" points="130.443,-44.3132 120.036,-46.3004 129.411,-51.2367 130.443,-44.3132"/>
</g>
<!-- Node4 -->
<g id="node4" class="node"><title>Node4</title>
<g id="a_node4"><a xlink:href="classprior__hessian_1_1SymmetricBetaDist.html#a59cc29572feb20c003130c417249809d" target="_top" xlink:title="prior_hessian::Symmetric\lBetaDist::param_ubound">
<polygon fill="white" stroke="black" points="163,-0.5 163,-28.5 283,-28.5 283,-0.5 163,-0.5"/>
<text text-anchor="start" x="171" y="-17.3" font-family="Helvetica,sans-Serif" font-size="9.00">prior_hessian::Symmetric</text>
<text text-anchor="middle" x="223" y="-7.3" font-family="Helvetica,sans-Serif" font-size="9.00">BetaDist::param_ubound</text>
</a>
</g>
</g>
<!-- Node1&#45;&gt;Node4 -->
<g id="edge3" class="edge"><title>Node1&#45;&gt;Node4</title>
<path fill="none" stroke="midnightblue" d="M130.01,-27.6414C140.986,-26.0735 152.252,-24.464 162.971,-22.9327"/>
<polygon fill="midnightblue" stroke="midnightblue" points="129.441,-24.1871 120.036,-29.0662 130.431,-31.1168 129.441,-24.1871"/>
</g>
<!-- Node3 -->
<g id="node3" class="node"><title>Node3</title>
<g id="a_node3"><a xlink:href="classprior__hessian_1_1SymmetricBetaDist.html#a642a881868f0f031bacc87877714cf8d" target="_top" xlink:title="prior_hessian::Symmetric\lBetaDist::median">
<polygon fill="white" stroke="black" points="326,-47.5 326,-75.5 446,-75.5 446,-47.5 326,-47.5"/>
<text text-anchor="start" x="334" y="-64.3" font-family="Helvetica,sans-Serif" font-size="9.00">prior_hessian::Symmetric</text>
<text text-anchor="middle" x="386" y="-54.3" font-family="Helvetica,sans-Serif" font-size="9.00">BetaDist::median</text>
</a>
</g>
</g>
<!-- Node2&#45;&gt;Node3 -->
<g id="edge2" class="edge"><title>Node2&#45;&gt;Node3</title>
<path fill="none" stroke="midnightblue" d="M300.429,-61.5C309.004,-61.5 317.641,-61.5 325.949,-61.5"/>
<polygon fill="midnightblue" stroke="midnightblue" points="300.414,-58.0001 290.414,-61.5 300.414,-65.0001 300.414,-58.0001"/>
</g>
</g>
</svg>
