<?xml version="1.0" encoding="UTF-8" standalone="no"?>
<!DOCTYPE svg PUBLIC "-//W3C//DTD SVG 1.1//EN"
 "http://www.w3.org/Graphics/SVG/1.1/DTD/svg11.dtd">
<!-- Generated by graphviz version 2.38.0 (20140413.2041)
 -->
<!-- Title: prior_hessian::CompositeDist::params_ubound Pages: 1 -->
<svg width="921pt" height="142pt"
 viewBox="0.00 0.00 921.00 141.50" xmlns="http://www.w3.org/2000/svg" xmlns:xlink="http://www.w3.org/1999/xlink">
<g id="graph0" class="graph" transform="scale(1 1) rotate(0) translate(4 137.5)">
<title>prior_hessian::CompositeDist::params_ubound</title>
<polygon fill="white" stroke="none" points="-4,4 -4,-137.5 917,-137.5 917,4 -4,4"/>
<!-- Node1 -->
<g id="node1" class="node"><title>Node1</title>
<polygon fill="#bfbfbf" stroke="black" points="0,-10 0,-38 122,-38 122,-10 0,-10"/>
<text text-anchor="start" x="8" y="-26.8" font-family="Helvetica,sans-Serif" font-size="9.00">prior_hessian::Composite</text>
<text text-anchor="middle" x="61" y="-16.8" font-family="Helvetica,sans-Serif" font-size="9.00">Dist::params_ubound</text>
</g>
<!-- Node2 -->
<g id="node2" class="node"><title>Node2</title>
<g id="a_node2"><a xlink:href="namespaceprior__hessian.html#ab26e9ddc3b6a5caccf5d75e1a1e1af1b" target="_top" xlink:title="prior_hessian::operator\&lt;\&lt;">
<polygon fill="white" stroke="black" points="158,-39 158,-57 280,-57 280,-39 158,-39"/>
<text text-anchor="middle" x="219" y="-45.8" font-family="Helvetica,sans-Serif" font-size="9.00">prior_hessian::operator&lt;&lt;</text>
</a>
</g>
</g>
<!-- Node1&#45;&gt;Node2 -->
<g id="edge1" class="edge"><title>Node1&#45;&gt;Node2</title>
<path fill="none" stroke="midnightblue" d="M132.411,-34.8325C141.429,-36.2198 150.583,-37.6282 159.386,-38.9825"/>
<polygon fill="midnightblue" stroke="midnightblue" points="132.73,-31.3404 122.314,-33.279 131.665,-38.259 132.73,-31.3404"/>
</g>
<!-- Node6 -->
<g id="node6" class="node"><title>Node6</title>
<g id="a_node6"><a xlink:href="classprior__hessian_1_1CompositeDist.html#a24bac25ae8c0330b8a3aacadffc9d5ae" target="_top" xlink:title="prior_hessian::Composite\lDist::rllh_components">
<polygon fill="white" stroke="black" points="791,-24 791,-52 913,-52 913,-24 791,-24"/>
<text text-anchor="start" x="799" y="-40.8" font-family="Helvetica,sans-Serif" font-size="9.00">prior_hessian::Composite</text>
<text text-anchor="middle" x="852" y="-30.8" font-family="Helvetica,sans-Serif" font-size="9.00">Dist::rllh_components</text>
</a>
</g>
</g>
<!-- Node1&#45;&gt;Node6 -->
<g id="edge8" class="edge"><title>Node1&#45;&gt;Node6</title>
<path fill="none" stroke="midnightblue" d="M132.396,-15.5327C195.957,-8.62392 292.101,-0 376,-0 376,-0 376,-0 536,-0 625.236,-1.42109e-14 727.675,-15.2172 790.872,-26.3923"/>
<polygon fill="midnightblue" stroke="midnightblue" points="131.648,-12.0939 122.092,-16.6688 132.415,-19.0518 131.648,-12.0939"/>
</g>
<!-- Node3 -->
<g id="node3" class="node"><title>Node3</title>
<g id="a_node3"><a xlink:href="classprior__hessian_1_1CompositeDist.html#a38c4fdacf927824117d202422b04013c" target="_top" xlink:title="prior_hessian::Composite\lDist::set_param_names">
<polygon fill="white" stroke="black" points="316,-45 316,-73 438,-73 438,-45 316,-45"/>
<text text-anchor="start" x="324" y="-61.8" font-family="Helvetica,sans-Serif" font-size="9.00">prior_hessian::Composite</text>
<text text-anchor="middle" x="377" y="-51.8" font-family="Helvetica,sans-Serif" font-size="9.00">Dist::set_param_names</text>
</a>
</g>
</g>
<!-- Node2&#45;&gt;Node3 -->
<g id="edge2" class="edge"><title>Node2&#45;&gt;Node3</title>
<path fill="none" stroke="midnightblue" d="M290.538,-52.9738C298.99,-53.5698 307.56,-54.1741 315.847,-54.7584"/>
<polygon fill="midnightblue" stroke="midnightblue" points="290.535,-49.465 280.314,-52.2529 290.043,-56.4477 290.535,-49.465"/>
</g>
<!-- Node4 -->
<g id="node4" class="node"><title>Node4</title>
<g id="a_node4"><a xlink:href="classprior__hessian_1_1CompositeDist.html#ace0aaa3698d76aba6a47f9061ff98902" target="_top" xlink:title="prior_hessian::Composite\lDist::rename_param">
<polygon fill="white" stroke="black" points="474,-105 474,-133 596,-133 596,-105 474,-105"/>
<text text-anchor="start" x="482" y="-121.8" font-family="Helvetica,sans-Serif" font-size="9.00">prior_hessian::Composite</text>
<text text-anchor="middle" x="535" y="-111.8" font-family="Helvetica,sans-Serif" font-size="9.00">Dist::rename_param</text>
</a>
</g>
</g>
<!-- Node3&#45;&gt;Node4 -->
<g id="edge3" class="edge"><title>Node3&#45;&gt;Node4</title>
<path fill="none" stroke="midnightblue" d="M423.959,-76.6767C447.374,-85.6824 475.452,-96.4814 497.384,-104.917"/>
<polygon fill="midnightblue" stroke="midnightblue" points="425.165,-73.3905 414.575,-73.0673 422.652,-79.9239 425.165,-73.3905"/>
</g>
<!-- Node5 -->
<g id="node5" class="node"><title>Node5</title>
<g id="a_node5"><a xlink:href="classprior__hessian_1_1CompositeDist.html#a927fed39b2b4e87714c728d6e7b11e8b" target="_top" xlink:title="prior_hessian::Composite\lDist::params_components">
<polygon fill="white" stroke="black" points="632,-67 632,-95 755,-95 755,-67 632,-67"/>
<text text-anchor="start" x="640" y="-83.8" font-family="Helvetica,sans-Serif" font-size="9.00">prior_hessian::Composite</text>
<text text-anchor="middle" x="693.5" y="-73.8" font-family="Helvetica,sans-Serif" font-size="9.00">Dist::params_components</text>
</a>
</g>
</g>
<!-- Node3&#45;&gt;Node5 -->
<g id="edge6" class="edge"><title>Node3&#45;&gt;Node5</title>
<path fill="none" stroke="midnightblue" d="M448.312,-63.9185C503.461,-67.7763 579.415,-73.0895 631.902,-76.761"/>
<polygon fill="midnightblue" stroke="midnightblue" points="448.487,-60.4222 438.267,-63.2158 447.998,-67.4052 448.487,-60.4222"/>
</g>
<!-- Node3&#45;&gt;Node6 -->
<g id="edge7" class="edge"><title>Node3&#45;&gt;Node6</title>
<path fill="none" stroke="midnightblue" d="M448.546,-55.8679C541.542,-51.7391 703.558,-44.5461 790.973,-40.665"/>
<polygon fill="midnightblue" stroke="midnightblue" points="448.221,-52.3788 438.386,-56.319 448.532,-59.3719 448.221,-52.3788"/>
</g>
<!-- Node4&#45;&gt;Node5 -->
<g id="edge4" class="edge"><title>Node4&#45;&gt;Node5</title>
<path fill="none" stroke="midnightblue" d="M603.635,-102.577C613.967,-100.069 624.55,-97.499 634.646,-95.0475"/>
<polygon fill="midnightblue" stroke="midnightblue" points="602.722,-99.1974 593.83,-104.958 604.374,-106 602.722,-99.1974"/>
</g>
<!-- Node5&#45;&gt;Node6 -->
<g id="edge5" class="edge"><title>Node5&#45;&gt;Node6</title>
<path fill="none" stroke="midnightblue" d="M755.709,-64.1822C770.334,-60.1638 785.794,-55.916 799.908,-52.038"/>
<polygon fill="midnightblue" stroke="midnightblue" points="754.459,-60.8958 745.744,-66.9202 756.314,-67.6456 754.459,-60.8958"/>
</g>
</g>
</svg>
