<?xml version="1.0" encoding="UTF-8" standalone="no"?>
<!DOCTYPE svg PUBLIC "-//W3C//DTD SVG 1.1//EN"
 "http://www.w3.org/Graphics/SVG/1.1/DTD/svg11.dtd">
<!-- Generated by graphviz version 2.38.0 (20140413.2041)
 -->
<!-- Title: prior_hessian::ScaledDist::cdf Pages: 1 -->
<svg width="470pt" height="84pt"
 viewBox="0.00 0.00 470.00 84.00" xmlns="http://www.w3.org/2000/svg" xmlns:xlink="http://www.w3.org/1999/xlink">
<g id="graph0" class="graph" transform="scale(1 1) rotate(0) translate(4 80)">
<title>prior_hessian::ScaledDist::cdf</title>
<polygon fill="white" stroke="none" points="-4,4 -4,-80 466,-80 466,4 -4,4"/>
<!-- Node1 -->
<g id="node1" class="node"><title>Node1</title>
<polygon fill="#bfbfbf" stroke="black" points="0,-28.5 0,-46.5 138,-46.5 138,-28.5 0,-28.5"/>
<text text-anchor="middle" x="69" y="-35.3" font-family="Helvetica,sans-Serif" font-size="9.00">prior_hessian::ScaledDist::cdf</text>
</g>
<!-- Node2 -->
<g id="node2" class="node"><title>Node2</title>
<g id="a_node2"><a xlink:href="classprior__hessian_1_1ScaledDist.html#a8c264d2bf6cd034653972de02add2b46" target="_top" xlink:title="prior_hessian::ScaledDist\l::convert_to_unitary_coords">
<polygon fill="white" stroke="black" points="174,-23.5 174,-51.5 304,-51.5 304,-23.5 174,-23.5"/>
<text text-anchor="start" x="182" y="-40.3" font-family="Helvetica,sans-Serif" font-size="9.00">prior_hessian::ScaledDist</text>
<text text-anchor="middle" x="239" y="-30.3" font-family="Helvetica,sans-Serif" font-size="9.00">::convert_to_unitary_coords</text>
</a>
</g>
</g>
<!-- Node1&#45;&gt;Node2 -->
<g id="edge1" class="edge"><title>Node1&#45;&gt;Node2</title>
<path fill="none" stroke="midnightblue" d="M138.332,-37.5C146.663,-37.5 155.208,-37.5 163.622,-37.5"/>
<polygon fill="midnightblue" stroke="midnightblue" points="163.797,-41.0001 173.797,-37.5 163.797,-34.0001 163.797,-41.0001"/>
</g>
<!-- Node3 -->
<g id="node3" class="node"><title>Node3</title>
<g id="a_node3"><a xlink:href="classprior__hessian_1_1ScaledDist.html#a46bce2de3c0e030e9e4542195ecb429f" target="_top" xlink:title="prior_hessian::ScaledDist\l::lbound">
<polygon fill="white" stroke="black" points="340,-47.5 340,-75.5 462,-75.5 462,-47.5 340,-47.5"/>
<text text-anchor="start" x="348" y="-64.3" font-family="Helvetica,sans-Serif" font-size="9.00">prior_hessian::ScaledDist</text>
<text text-anchor="middle" x="401" y="-54.3" font-family="Helvetica,sans-Serif" font-size="9.00">::lbound</text>
</a>
</g>
</g>
<!-- Node2&#45;&gt;Node3 -->
<g id="edge2" class="edge"><title>Node2&#45;&gt;Node3</title>
<path fill="none" stroke="midnightblue" d="M304.156,-47.1234C312.655,-48.3982 321.401,-49.7102 329.992,-50.9988"/>
<polygon fill="midnightblue" stroke="midnightblue" points="329.572,-54.4749 339.981,-52.4971 330.611,-47.5524 329.572,-54.4749"/>
</g>
<!-- Node4 -->
<g id="node4" class="node"><title>Node4</title>
<g id="a_node4"><a xlink:href="classprior__hessian_1_1ScaledDist.html#a364788705694bdd46cd5876e92e1ad87" target="_top" xlink:title="prior_hessian::ScaledDist\l::unscaled_lbound">
<polygon fill="white" stroke="black" points="340,-0.5 340,-28.5 462,-28.5 462,-0.5 340,-0.5"/>
<text text-anchor="start" x="348" y="-17.3" font-family="Helvetica,sans-Serif" font-size="9.00">prior_hessian::ScaledDist</text>
<text text-anchor="middle" x="401" y="-7.3" font-family="Helvetica,sans-Serif" font-size="9.00">::unscaled_lbound</text>
</a>
</g>
</g>
<!-- Node2&#45;&gt;Node4 -->
<g id="edge3" class="edge"><title>Node2&#45;&gt;Node4</title>
<path fill="none" stroke="midnightblue" d="M304.156,-28.2775C312.655,-27.0559 321.401,-25.7985 329.992,-24.5636"/>
<polygon fill="midnightblue" stroke="midnightblue" points="330.581,-28.0151 339.981,-23.1277 329.585,-21.0863 330.581,-28.0151"/>
</g>
</g>
</svg>
