<?xml version="1.0" encoding="UTF-8" standalone="no"?>
<!DOCTYPE svg PUBLIC "-//W3C//DTD SVG 1.1//EN"
 "http://www.w3.org/Graphics/SVG/1.1/DTD/svg11.dtd">
<!-- Generated by graphviz version 2.38.0 (20140413.2041)
 -->
<!-- Title: prior_hessian::MultivariateDist Pages: 1 -->
<svg width="496pt" height="94pt"
 viewBox="0.00 0.00 496.00 94.00" xmlns="http://www.w3.org/2000/svg" xmlns:xlink="http://www.w3.org/1999/xlink">
<g id="graph0" class="graph" transform="scale(1 1) rotate(0) translate(4 90)">
<title>prior_hessian::MultivariateDist</title>
<polygon fill="white" stroke="none" points="-4,4 -4,-90 492,-90 492,4 -4,4"/>
<!-- Node1 -->
<g id="node1" class="node"><title>Node1</title>
<polygon fill="#bfbfbf" stroke="black" points="150,-31.5 150,-49.5 290,-49.5 290,-31.5 150,-31.5"/>
<text text-anchor="middle" x="220" y="-38.3" font-family="Helvetica,sans-Serif" font-size="9.00">prior_hessian::MultivariateDist</text>
</g>
<!-- Node3 -->
<g id="node3" class="node"><title>Node3</title>
<g id="a_node3"><a xlink:href="classprior__hessian_1_1CopulaDistImpl_1_1CopulaDist.html" target="_top" xlink:title="prior_hessian::CopulaDist\lImpl::CopulaDist\&lt; CopulaTemplate,\l MarginalDistTs \&gt;">
<polygon fill="white" stroke="black" points="326,-47.5 326,-85.5 488,-85.5 488,-47.5 326,-47.5"/>
<text text-anchor="start" x="334" y="-74.3" font-family="Helvetica,sans-Serif" font-size="9.00">prior_hessian::CopulaDist</text>
<text text-anchor="start" x="334" y="-64.3" font-family="Helvetica,sans-Serif" font-size="9.00">Impl::CopulaDist&lt; CopulaTemplate,</text>
<text text-anchor="middle" x="407" y="-54.3" font-family="Helvetica,sans-Serif" font-size="9.00"> MarginalDistTs &gt;</text>
</a>
</g>
</g>
<!-- Node1&#45;&gt;Node3 -->
<g id="edge2" class="edge"><title>Node1&#45;&gt;Node3</title>
<path fill="none" stroke="midnightblue" d="M295.186,-50.9262C305.308,-52.3487 315.735,-53.8141 325.955,-55.2505"/>
<polygon fill="midnightblue" stroke="midnightblue" points="295.575,-47.4464 285.185,-49.5206 294.6,-54.3783 295.575,-47.4464"/>
</g>
<!-- Node4 -->
<g id="node4" class="node"><title>Node4</title>
<g id="a_node4"><a xlink:href="classprior__hessian_1_1MultivariateNormalDist.html" target="_top" xlink:title="Multivariate Normal distribution. ">
<polygon fill="white" stroke="black" points="344.5,-0.5 344.5,-28.5 469.5,-28.5 469.5,-0.5 344.5,-0.5"/>
<text text-anchor="start" x="352.5" y="-17.3" font-family="Helvetica,sans-Serif" font-size="9.00">prior_hessian::Multivariate</text>
<text text-anchor="middle" x="407" y="-7.3" font-family="Helvetica,sans-Serif" font-size="9.00">NormalDist&lt; Ndim &gt;</text>
</a>
</g>
</g>
<!-- Node1&#45;&gt;Node4 -->
<g id="edge3" class="edge"><title>Node1&#45;&gt;Node4</title>
<path fill="none" stroke="midnightblue" d="M295.227,-30.0682C311.549,-27.7742 328.662,-25.3691 344.422,-23.1542"/>
<polygon fill="midnightblue" stroke="midnightblue" points="294.6,-26.6217 285.185,-31.4794 295.575,-33.5536 294.6,-26.6217"/>
</g>
<!-- Node2 -->
<g id="node2" class="node"><title>Node2</title>
<g id="a_node2"><a xlink:href="classprior__hessian_1_1BaseDist.html" target="_top" xlink:title="prior_hessian::BaseDist">
<polygon fill="white" stroke="black" points="0,-31.5 0,-49.5 114,-49.5 114,-31.5 0,-31.5"/>
<text text-anchor="middle" x="57" y="-38.3" font-family="Helvetica,sans-Serif" font-size="9.00">prior_hessian::BaseDist</text>
</a>
</g>
</g>
<!-- Node2&#45;&gt;Node1 -->
<g id="edge1" class="edge"><title>Node2&#45;&gt;Node1</title>
<path fill="none" stroke="midnightblue" d="M124.453,-40.5C132.876,-40.5 141.511,-40.5 149.973,-40.5"/>
<polygon fill="midnightblue" stroke="midnightblue" points="124.31,-37.0001 114.31,-40.5 124.31,-44.0001 124.31,-37.0001"/>
</g>
</g>
</svg>
