<?xml version="1.0" encoding="UTF-8" standalone="no"?>
<!DOCTYPE svg PUBLIC "-//W3C//DTD SVG 1.1//EN"
 "http://www.w3.org/Graphics/SVG/1.1/DTD/svg11.dtd">
<!-- Generated by graphviz version 2.38.0 (20140413.2041)
 -->
<!-- Title: prior_hessian::TruncatedDist::set_bounds Pages: 1 -->
<svg width="282pt" height="225pt"
 viewBox="0.00 0.00 282.00 225.00" xmlns="http://www.w3.org/2000/svg" xmlns:xlink="http://www.w3.org/1999/xlink">
<g id="graph0" class="graph" transform="scale(1 1) rotate(0) translate(4 221)">
<title>prior_hessian::TruncatedDist::set_bounds</title>
<polygon fill="white" stroke="none" points="-4,4 -4,-221 278,-221 278,4 -4,4"/>
<!-- Node1 -->
<g id="node1" class="node"><title>Node1</title>
<polygon fill="#bfbfbf" stroke="black" points="0,-94.5 0,-122.5 119,-122.5 119,-94.5 0,-94.5"/>
<text text-anchor="start" x="8" y="-111.3" font-family="Helvetica,sans-Serif" font-size="9.00">prior_hessian::Truncated</text>
<text text-anchor="middle" x="59.5" y="-101.3" font-family="Helvetica,sans-Serif" font-size="9.00">Dist::set_bounds</text>
</g>
<!-- Node2 -->
<g id="node2" class="node"><title>Node2</title>
<g id="a_node2"><a xlink:href="classprior__hessian_1_1TruncatedDist.html#a428f9be18df6710e160ee967b0f3a663" target="_top" xlink:title="prior_hessian::Truncated\lDist::global_lbound">
<polygon fill="white" stroke="black" points="155,-188.5 155,-216.5 274,-216.5 274,-188.5 155,-188.5"/>
<text text-anchor="start" x="163" y="-205.3" font-family="Helvetica,sans-Serif" font-size="9.00">prior_hessian::Truncated</text>
<text text-anchor="middle" x="214.5" y="-195.3" font-family="Helvetica,sans-Serif" font-size="9.00">Dist::global_lbound</text>
</a>
</g>
</g>
<!-- Node1&#45;&gt;Node2 -->
<g id="edge1" class="edge"><title>Node1&#45;&gt;Node2</title>
<path fill="none" stroke="midnightblue" d="M76.6281,-122.776C94.7279,-138.265 125.441,-162.986 155,-179.5 157.997,-181.174 161.14,-182.784 164.349,-184.32"/>
<polygon fill="midnightblue" stroke="midnightblue" points="162.943,-187.526 173.497,-188.447 165.821,-181.145 162.943,-187.526"/>
</g>
<!-- Node3 -->
<g id="node3" class="node"><title>Node3</title>
<g id="a_node3"><a xlink:href="classprior__hessian_1_1TruncatedDist.html#a79ec1c99c3aac7d38309e17808e422ab" target="_top" xlink:title="prior_hessian::Truncated\lDist::global_ubound">
<polygon fill="white" stroke="black" points="155,-141.5 155,-169.5 274,-169.5 274,-141.5 155,-141.5"/>
<text text-anchor="start" x="163" y="-158.3" font-family="Helvetica,sans-Serif" font-size="9.00">prior_hessian::Truncated</text>
<text text-anchor="middle" x="214.5" y="-148.3" font-family="Helvetica,sans-Serif" font-size="9.00">Dist::global_ubound</text>
</a>
</g>
</g>
<!-- Node1&#45;&gt;Node3 -->
<g id="edge2" class="edge"><title>Node1&#45;&gt;Node3</title>
<path fill="none" stroke="midnightblue" d="M106.405,-122.602C122.666,-127.597 141.136,-133.27 158.103,-138.483"/>
<polygon fill="midnightblue" stroke="midnightblue" points="157.304,-141.899 167.891,-141.489 159.36,-135.207 157.304,-141.899"/>
</g>
<!-- Node4 -->
<g id="node4" class="node"><title>Node4</title>
<g id="a_node4"><a xlink:href="classprior__hessian_1_1TruncatedDist.html#a9e67788ba67e88cedc65f5166f6448ce" target="_top" xlink:title="prior_hessian::Truncated\lDist::lbound">
<polygon fill="white" stroke="black" points="155,-94.5 155,-122.5 274,-122.5 274,-94.5 155,-94.5"/>
<text text-anchor="start" x="163" y="-111.3" font-family="Helvetica,sans-Serif" font-size="9.00">prior_hessian::Truncated</text>
<text text-anchor="middle" x="214.5" y="-101.3" font-family="Helvetica,sans-Serif" font-size="9.00">Dist::lbound</text>
</a>
</g>
</g>
<!-- Node1&#45;&gt;Node4 -->
<g id="edge3" class="edge"><title>Node1&#45;&gt;Node4</title>
<path fill="none" stroke="midnightblue" d="M119.216,-108.5C127.544,-108.5 136.169,-108.5 144.667,-108.5"/>
<polygon fill="midnightblue" stroke="midnightblue" points="144.941,-112 154.941,-108.5 144.941,-105 144.941,-112"/>
</g>
<!-- Node5 -->
<g id="node5" class="node"><title>Node5</title>
<g id="a_node5"><a xlink:href="classprior__hessian_1_1TruncatedDist.html#a255e94539840457c405d2621849c2635" target="_top" xlink:title="prior_hessian::Truncated\lDist::truncated">
<polygon fill="white" stroke="black" points="155,-47.5 155,-75.5 274,-75.5 274,-47.5 155,-47.5"/>
<text text-anchor="start" x="163" y="-64.3" font-family="Helvetica,sans-Serif" font-size="9.00">prior_hessian::Truncated</text>
<text text-anchor="middle" x="214.5" y="-54.3" font-family="Helvetica,sans-Serif" font-size="9.00">Dist::truncated</text>
</a>
</g>
</g>
<!-- Node1&#45;&gt;Node5 -->
<g id="edge4" class="edge"><title>Node1&#45;&gt;Node5</title>
<path fill="none" stroke="midnightblue" d="M106.405,-94.3985C122.666,-89.4031 141.136,-83.7295 158.103,-78.5174"/>
<polygon fill="midnightblue" stroke="midnightblue" points="159.36,-81.7928 167.891,-75.5106 157.304,-75.1014 159.36,-81.7928"/>
</g>
<!-- Node6 -->
<g id="node6" class="node"><title>Node6</title>
<g id="a_node6"><a xlink:href="classprior__hessian_1_1TruncatedDist.html#a46cba73068eff4d100e8184deebb8016" target="_top" xlink:title="prior_hessian::Truncated\lDist::ubound">
<polygon fill="white" stroke="black" points="155,-0.5 155,-28.5 274,-28.5 274,-0.5 155,-0.5"/>
<text text-anchor="start" x="163" y="-17.3" font-family="Helvetica,sans-Serif" font-size="9.00">prior_hessian::Truncated</text>
<text text-anchor="middle" x="214.5" y="-7.3" font-family="Helvetica,sans-Serif" font-size="9.00">Dist::ubound</text>
</a>
</g>
</g>
<!-- Node1&#45;&gt;Node6 -->
<g id="edge5" class="edge"><title>Node1&#45;&gt;Node6</title>
<path fill="none" stroke="midnightblue" d="M77.0414,-94.2484C95.2536,-79.0488 125.833,-54.9463 155,-38.5 158.604,-36.4679 162.414,-34.514 166.293,-32.6593"/>
<polygon fill="midnightblue" stroke="midnightblue" points="167.743,-35.8446 175.4,-28.5215 164.848,-29.4715 167.743,-35.8446"/>
</g>
</g>
</svg>
