<?xml version="1.0" encoding="UTF-8" standalone="no"?>
<!DOCTYPE svg PUBLIC "-//W3C//DTD SVG 1.1//EN"
 "http://www.w3.org/Graphics/SVG/1.1/DTD/svg11.dtd">
<!-- Generated by graphviz version 2.38.0 (20140413.2041)
 -->
<!-- Title: prior_hessian::MultivariateNormalDist::rllh Pages: 1 -->
<svg width="616pt" height="188pt"
 viewBox="0.00 0.00 616.00 188.00" xmlns="http://www.w3.org/2000/svg" xmlns:xlink="http://www.w3.org/1999/xlink">
<g id="graph0" class="graph" transform="scale(1 1) rotate(0) translate(4 184)">
<title>prior_hessian::MultivariateNormalDist::rllh</title>
<polygon fill="white" stroke="none" points="-4,4 -4,-184 612,-184 612,4 -4,4"/>
<!-- Node1 -->
<g id="node1" class="node"><title>Node1</title>
<polygon fill="#bfbfbf" stroke="black" points="0,-70.5 0,-98.5 125,-98.5 125,-70.5 0,-70.5"/>
<text text-anchor="start" x="8" y="-87.3" font-family="Helvetica,sans-Serif" font-size="9.00">prior_hessian::Multivariate</text>
<text text-anchor="middle" x="62.5" y="-77.3" font-family="Helvetica,sans-Serif" font-size="9.00">NormalDist::rllh</text>
</g>
<!-- Node2 -->
<g id="node2" class="node"><title>Node2</title>
<g id="a_node2"><a xlink:href="namespaceprior__hessian_1_1helpers.html#a5d1bbe705c849e9c225a831c853be8a7" target="_top" xlink:title="prior_hessian::helpers\l::compute_quadratic_from\l_symmetric">
<polygon fill="white" stroke="black" points="162,-141.5 162,-179.5 285,-179.5 285,-141.5 162,-141.5"/>
<text text-anchor="start" x="170" y="-168.3" font-family="Helvetica,sans-Serif" font-size="9.00">prior_hessian::helpers</text>
<text text-anchor="start" x="170" y="-158.3" font-family="Helvetica,sans-Serif" font-size="9.00">::compute_quadratic_from</text>
<text text-anchor="middle" x="223.5" y="-148.3" font-family="Helvetica,sans-Serif" font-size="9.00">_symmetric</text>
</a>
</g>
</g>
<!-- Node1&#45;&gt;Node2 -->
<g id="edge1" class="edge"><title>Node1&#45;&gt;Node2</title>
<path fill="none" stroke="midnightblue" d="M91.5506,-98.5891C110.975,-108.277 137.469,-121.354 161,-132.5 164.171,-134.002 167.44,-135.535 170.741,-137.072"/>
<polygon fill="midnightblue" stroke="midnightblue" points="169.53,-140.367 180.076,-141.388 172.468,-134.014 169.53,-140.367"/>
</g>
<!-- Node4 -->
<g id="node4" class="node"><title>Node4</title>
<g id="a_node4"><a xlink:href="classprior__hessian_1_1MultivariateNormalDist.html#a53e894d82ca08f285fc004b77301495d" target="_top" xlink:title="prior_hessian::Multivariate\lNormalDist::mu">
<polygon fill="white" stroke="black" points="161,-94.5 161,-122.5 286,-122.5 286,-94.5 161,-94.5"/>
<text text-anchor="start" x="169" y="-111.3" font-family="Helvetica,sans-Serif" font-size="9.00">prior_hessian::Multivariate</text>
<text text-anchor="middle" x="223.5" y="-101.3" font-family="Helvetica,sans-Serif" font-size="9.00">NormalDist::mu</text>
</a>
</g>
</g>
<!-- Node1&#45;&gt;Node4 -->
<g id="edge3" class="edge"><title>Node1&#45;&gt;Node4</title>
<path fill="none" stroke="midnightblue" d="M125.429,-93.8477C133.674,-95.0923 142.184,-96.3768 150.58,-97.6442"/>
<polygon fill="midnightblue" stroke="midnightblue" points="150.33,-101.146 160.74,-99.1778 151.375,-94.2244 150.33,-101.146"/>
</g>
<!-- Node5 -->
<g id="node5" class="node"><title>Node5</title>
<g id="a_node5"><a xlink:href="classprior__hessian_1_1MultivariateNormalDist.html#a99b496bd355946a89e6563375dcf5d7a" target="_top" xlink:title="prior_hessian::Multivariate\lNormalDist::num_dim">
<polygon fill="white" stroke="black" points="161,-47.5 161,-75.5 286,-75.5 286,-47.5 161,-47.5"/>
<text text-anchor="start" x="169" y="-64.3" font-family="Helvetica,sans-Serif" font-size="9.00">prior_hessian::Multivariate</text>
<text text-anchor="middle" x="223.5" y="-54.3" font-family="Helvetica,sans-Serif" font-size="9.00">NormalDist::num_dim</text>
</a>
</g>
</g>
<!-- Node1&#45;&gt;Node5 -->
<g id="edge4" class="edge"><title>Node1&#45;&gt;Node5</title>
<path fill="none" stroke="midnightblue" d="M125.429,-75.5417C133.674,-74.3491 142.184,-73.1181 150.58,-71.9035"/>
<polygon fill="midnightblue" stroke="midnightblue" points="151.344,-75.3295 160.74,-70.4338 150.342,-68.4016 151.344,-75.3295"/>
</g>
<!-- Node9 -->
<g id="node9" class="node"><title>Node9</title>
<g id="a_node9"><a xlink:href="classprior__hessian_1_1MultivariateNormalDist.html#a38fa22fd87e3603397c433e33ce0c2be" target="_top" xlink:title="prior_hessian::Multivariate\lNormalDist::sigma_inv">
<polygon fill="white" stroke="black" points="161,-0.5 161,-28.5 286,-28.5 286,-0.5 161,-0.5"/>
<text text-anchor="start" x="169" y="-17.3" font-family="Helvetica,sans-Serif" font-size="9.00">prior_hessian::Multivariate</text>
<text text-anchor="middle" x="223.5" y="-7.3" font-family="Helvetica,sans-Serif" font-size="9.00">NormalDist::sigma_inv</text>
</a>
</g>
</g>
<!-- Node1&#45;&gt;Node9 -->
<g id="edge8" class="edge"><title>Node1&#45;&gt;Node9</title>
<path fill="none" stroke="midnightblue" d="M91.8492,-70.4932C111.18,-61.0986 137.448,-48.6374 161,-38.5 165.747,-36.4567 170.73,-34.3886 175.719,-32.3678"/>
<polygon fill="midnightblue" stroke="midnightblue" points="177.269,-35.5176 185.258,-28.5589 174.673,-29.0167 177.269,-35.5176"/>
</g>
<!-- Node3 -->
<g id="node3" class="node"><title>Node3</title>
<g id="a_node3"><a xlink:href="namespaceprior__hessian.html#a706cb136b90f16dd920118eb59ef1ad6" target="_top" xlink:title="prior_hessian::square">
<polygon fill="white" stroke="black" points="331.5,-151.5 331.5,-169.5 437.5,-169.5 437.5,-151.5 331.5,-151.5"/>
<text text-anchor="middle" x="384.5" y="-158.3" font-family="Helvetica,sans-Serif" font-size="9.00">prior_hessian::square</text>
</a>
</g>
</g>
<!-- Node2&#45;&gt;Node3 -->
<g id="edge2" class="edge"><title>Node2&#45;&gt;Node3</title>
<path fill="none" stroke="midnightblue" d="M285.065,-160.5C296.875,-160.5 309.278,-160.5 321.145,-160.5"/>
<polygon fill="midnightblue" stroke="midnightblue" points="321.408,-164 331.408,-160.5 321.408,-157 321.408,-164"/>
</g>
<!-- Node6 -->
<g id="node6" class="node"><title>Node6</title>
<g id="a_node6"><a xlink:href="classprior__hessian_1_1MultivariateNormalDist.html#a492a872d5cfb8838225ac782b801a865" target="_top" xlink:title="prior_hessian::Multivariate\lNormalDist::lbound">
<polygon fill="white" stroke="black" points="322,-70.5 322,-98.5 447,-98.5 447,-70.5 322,-70.5"/>
<text text-anchor="start" x="330" y="-87.3" font-family="Helvetica,sans-Serif" font-size="9.00">prior_hessian::Multivariate</text>
<text text-anchor="middle" x="384.5" y="-77.3" font-family="Helvetica,sans-Serif" font-size="9.00">NormalDist::lbound</text>
</a>
</g>
</g>
<!-- Node5&#45;&gt;Node6 -->
<g id="edge5" class="edge"><title>Node5&#45;&gt;Node6</title>
<path fill="none" stroke="midnightblue" d="M286.429,-70.4583C294.674,-71.6509 303.184,-72.8819 311.58,-74.0965"/>
<polygon fill="midnightblue" stroke="midnightblue" points="311.342,-77.5984 321.74,-75.5662 312.344,-70.6705 311.342,-77.5984"/>
</g>
<!-- Node7 -->
<g id="node7" class="node"><title>Node7</title>
<g id="a_node7"><a xlink:href="classprior__hessian_1_1MultivariateNormalDist.html#a80a35218c42430f7a5162229779f1492" target="_top" xlink:title="prior_hessian::Multivariate\lNormalDist::ubound">
<polygon fill="white" stroke="black" points="322,-23.5 322,-51.5 447,-51.5 447,-23.5 322,-23.5"/>
<text text-anchor="start" x="330" y="-40.3" font-family="Helvetica,sans-Serif" font-size="9.00">prior_hessian::Multivariate</text>
<text text-anchor="middle" x="384.5" y="-30.3" font-family="Helvetica,sans-Serif" font-size="9.00">NormalDist::ubound</text>
</a>
</g>
</g>
<!-- Node5&#45;&gt;Node7 -->
<g id="edge6" class="edge"><title>Node5&#45;&gt;Node7</title>
<path fill="none" stroke="midnightblue" d="M286.429,-52.1523C294.674,-50.9077 303.184,-49.6232 311.58,-48.3558"/>
<polygon fill="midnightblue" stroke="midnightblue" points="312.375,-51.7756 321.74,-46.8222 311.33,-44.854 312.375,-51.7756"/>
</g>
<!-- Node8 -->
<g id="node8" class="node"><title>Node8</title>
<g id="a_node8"><a xlink:href="classprior__hessian_1_1MultivariateNormalDist.html#a9a2d3e50448adb594ed60a92d2942943" target="_top" xlink:title="prior_hessian::Multivariate\lNormalDist::num_params">
<polygon fill="white" stroke="black" points="483,-23.5 483,-51.5 608,-51.5 608,-23.5 483,-23.5"/>
<text text-anchor="start" x="491" y="-40.3" font-family="Helvetica,sans-Serif" font-size="9.00">prior_hessian::Multivariate</text>
<text text-anchor="middle" x="545.5" y="-30.3" font-family="Helvetica,sans-Serif" font-size="9.00">NormalDist::num_params</text>
</a>
</g>
</g>
<!-- Node7&#45;&gt;Node8 -->
<g id="edge7" class="edge"><title>Node7&#45;&gt;Node8</title>
<path fill="none" stroke="midnightblue" d="M447.429,-37.5C455.674,-37.5 464.184,-37.5 472.58,-37.5"/>
<polygon fill="midnightblue" stroke="midnightblue" points="472.74,-41.0001 482.74,-37.5 472.74,-34.0001 472.74,-41.0001"/>
</g>
</g>
</svg>
