<?xml version="1.0" encoding="UTF-8" standalone="no"?>
<!DOCTYPE svg PUBLIC "-//W3C//DTD SVG 1.1//EN"
 "http://www.w3.org/Graphics/SVG/1.1/DTD/svg11.dtd">
<!-- Generated by graphviz version 2.38.0 (20140413.2041)
 -->
<!-- Title: prior_hessian::ParetoDist::operator!= Pages: 1 -->
<svg width="616pt" height="102pt"
 viewBox="0.00 0.00 616.00 102.00" xmlns="http://www.w3.org/2000/svg" xmlns:xlink="http://www.w3.org/1999/xlink">
<g id="graph0" class="graph" transform="scale(1 1) rotate(0) translate(4 98)">
<title>prior_hessian::ParetoDist::operator!=</title>
<polygon fill="white" stroke="none" points="-4,4 -4,-98 612,-98 612,4 -4,4"/>
<!-- Node1 -->
<g id="node1" class="node"><title>Node1</title>
<polygon fill="#bfbfbf" stroke="black" points="0,-21.5 0,-49.5 120,-49.5 120,-21.5 0,-21.5"/>
<text text-anchor="start" x="8" y="-38.3" font-family="Helvetica,sans-Serif" font-size="9.00">prior_hessian::ParetoDist</text>
<text text-anchor="middle" x="60" y="-28.3" font-family="Helvetica,sans-Serif" font-size="9.00">::operator!=</text>
</g>
<!-- Node2 -->
<g id="node2" class="node"><title>Node2</title>
<g id="a_node2"><a xlink:href="classprior__hessian_1_1ParetoDist.html#a941f8b98fe55483d7823aa33863ee050" target="_top" xlink:title="prior_hessian::ParetoDist\l::operator==">
<polygon fill="white" stroke="black" points="156,-21.5 156,-49.5 276,-49.5 276,-21.5 156,-21.5"/>
<text text-anchor="start" x="164" y="-38.3" font-family="Helvetica,sans-Serif" font-size="9.00">prior_hessian::ParetoDist</text>
<text text-anchor="middle" x="216" y="-28.3" font-family="Helvetica,sans-Serif" font-size="9.00">::operator==</text>
</a>
</g>
</g>
<!-- Node1&#45;&gt;Node2 -->
<g id="edge1" class="edge"><title>Node1&#45;&gt;Node2</title>
<path fill="none" stroke="midnightblue" d="M120.1,-35.5C128.422,-35.5 137.039,-35.5 145.533,-35.5"/>
<polygon fill="midnightblue" stroke="midnightblue" points="145.804,-39.0001 155.804,-35.5 145.804,-32.0001 145.804,-39.0001"/>
</g>
<!-- Node3 -->
<g id="node3" class="node"><title>Node3</title>
<g id="a_node3"><a xlink:href="classprior__hessian_1_1ParetoDist.html#acef10b17c003468838f548ed255d7e1f" target="_top" xlink:title="prior_hessian::ParetoDist::min">
<polygon fill="white" stroke="black" points="312,-47.5 312,-65.5 452,-65.5 452,-47.5 312,-47.5"/>
<text text-anchor="middle" x="382" y="-54.3" font-family="Helvetica,sans-Serif" font-size="9.00">prior_hessian::ParetoDist::min</text>
</a>
</g>
</g>
<!-- Node2&#45;&gt;Node3 -->
<g id="edge2" class="edge"><title>Node2&#45;&gt;Node3</title>
<path fill="none" stroke="midnightblue" d="M276.208,-43.0815C284.517,-44.1454 293.165,-45.2528 301.773,-46.355"/>
<polygon fill="midnightblue" stroke="midnightblue" points="301.472,-49.845 311.835,-47.6436 302.361,-42.9017 301.472,-49.845"/>
</g>
<!-- Node6 -->
<g id="node6" class="node"><title>Node6</title>
<g id="a_node6"><a xlink:href="classprior__hessian_1_1ParetoDist.html#ac610ecf8ce6df7b8b48c383e89706b80" target="_top" xlink:title="prior_hessian::ParetoDist\l::alpha">
<polygon fill="white" stroke="black" points="322,-0.5 322,-28.5 442,-28.5 442,-0.5 322,-0.5"/>
<text text-anchor="start" x="330" y="-17.3" font-family="Helvetica,sans-Serif" font-size="9.00">prior_hessian::ParetoDist</text>
<text text-anchor="middle" x="382" y="-7.3" font-family="Helvetica,sans-Serif" font-size="9.00">::alpha</text>
</a>
</g>
</g>
<!-- Node2&#45;&gt;Node6 -->
<g id="edge5" class="edge"><title>Node2&#45;&gt;Node6</title>
<path fill="none" stroke="midnightblue" d="M276.208,-27.9185C287.704,-26.4465 299.849,-24.8913 311.637,-23.3818"/>
<polygon fill="midnightblue" stroke="midnightblue" points="312.405,-26.8122 321.879,-22.0704 311.516,-19.8689 312.405,-26.8122"/>
</g>
<!-- Node4 -->
<g id="node4" class="node"><title>Node4</title>
<g id="a_node4"><a xlink:href="classprior__hessian_1_1ParetoDist.html#a5c2b026477495e3fc91a1cfb653d8a97" target="_top" xlink:title="prior_hessian::ParetoDist\l::set_alpha">
<polygon fill="white" stroke="black" points="488,-65.5 488,-93.5 608,-93.5 608,-65.5 488,-65.5"/>
<text text-anchor="start" x="496" y="-82.3" font-family="Helvetica,sans-Serif" font-size="9.00">prior_hessian::ParetoDist</text>
<text text-anchor="middle" x="548" y="-72.3" font-family="Helvetica,sans-Serif" font-size="9.00">::set_alpha</text>
</a>
</g>
</g>
<!-- Node3&#45;&gt;Node4 -->
<g id="edge3" class="edge"><title>Node3&#45;&gt;Node4</title>
<path fill="none" stroke="midnightblue" d="M447.346,-65.5242C457.375,-66.9306 467.773,-68.3888 477.901,-69.8093"/>
<polygon fill="midnightblue" stroke="midnightblue" points="477.527,-73.291 487.916,-71.2139 478.499,-66.3589 477.527,-73.291"/>
</g>
<!-- Node5 -->
<g id="node5" class="node"><title>Node5</title>
<g id="a_node5"><a xlink:href="classprior__hessian_1_1ParetoDist.html#ace279cdfa7dbdcd8805ddb2ec4b46ee2" target="_top" xlink:title="prior_hessian::ParetoDist\l::set_min">
<polygon fill="white" stroke="black" points="488,-18.5 488,-46.5 608,-46.5 608,-18.5 488,-18.5"/>
<text text-anchor="start" x="496" y="-35.3" font-family="Helvetica,sans-Serif" font-size="9.00">prior_hessian::ParetoDist</text>
<text text-anchor="middle" x="548" y="-25.3" font-family="Helvetica,sans-Serif" font-size="9.00">::set_min</text>
</a>
</g>
</g>
<!-- Node3&#45;&gt;Node5 -->
<g id="edge4" class="edge"><title>Node3&#45;&gt;Node5</title>
<path fill="none" stroke="midnightblue" d="M444.534,-47.495C455.39,-45.9064 466.757,-44.2429 477.806,-42.626"/>
<polygon fill="midnightblue" stroke="midnightblue" points="478.452,-46.0689 487.839,-41.1577 477.438,-39.1426 478.452,-46.0689"/>
</g>
</g>
</svg>
