<?xml version="1.0" encoding="UTF-8" standalone="no"?>
<!DOCTYPE svg PUBLIC "-//W3C//DTD SVG 1.1//EN"
 "http://www.w3.org/Graphics/SVG/1.1/DTD/svg11.dtd">
<!-- Generated by graphviz version 2.38.0 (20140413.2041)
 -->
<!-- Title: prior_hessian::NormalDist::sigma Pages: 1 -->
<svg width="463pt" height="450pt"
 viewBox="0.00 0.00 463.00 450.00" xmlns="http://www.w3.org/2000/svg" xmlns:xlink="http://www.w3.org/1999/xlink">
<g id="graph0" class="graph" transform="scale(1 1) rotate(0) translate(4 446)">
<title>prior_hessian::NormalDist::sigma</title>
<polygon fill="white" stroke="none" points="-4,4 -4,-446 459,-446 459,4 -4,4"/>
<!-- Node1 -->
<g id="node1" class="node"><title>Node1</title>
<polygon fill="#bfbfbf" stroke="black" points="0,-201.5 0,-229.5 123,-229.5 123,-201.5 0,-201.5"/>
<text text-anchor="start" x="8" y="-218.3" font-family="Helvetica,sans-Serif" font-size="9.00">prior_hessian::NormalDist</text>
<text text-anchor="middle" x="61.5" y="-208.3" font-family="Helvetica,sans-Serif" font-size="9.00">::sigma</text>
</g>
<!-- Node2 -->
<g id="node2" class="node"><title>Node2</title>
<g id="a_node2"><a xlink:href="classprior__hessian_1_1NormalDist.html#abf71571c6e5ed7c496f8a5ff556d998c" target="_top" xlink:title="prior_hessian::NormalDist\l::append_params_iter">
<polygon fill="white" stroke="black" points="166,-272.5 166,-300.5 289,-300.5 289,-272.5 166,-272.5"/>
<text text-anchor="start" x="174" y="-289.3" font-family="Helvetica,sans-Serif" font-size="9.00">prior_hessian::NormalDist</text>
<text text-anchor="middle" x="227.5" y="-279.3" font-family="Helvetica,sans-Serif" font-size="9.00">::append_params_iter</text>
</a>
</g>
</g>
<!-- Node1&#45;&gt;Node2 -->
<g id="edge1" class="edge"><title>Node1&#45;&gt;Node2</title>
<path fill="none" stroke="midnightblue" d="M97.6884,-234.415C115.75,-243.76 138.263,-254.855 159,-263.5 166.542,-266.644 174.682,-269.696 182.609,-272.494"/>
<polygon fill="midnightblue" stroke="midnightblue" points="99.1663,-231.238 88.6823,-229.71 95.925,-237.443 99.1663,-231.238"/>
</g>
<!-- Node4 -->
<g id="node4" class="node"><title>Node4</title>
<g id="a_node4"><a xlink:href="classprior__hessian_1_1NormalDist.html#ab0fa4841ce15ec70c8a8d876e5ea890f" target="_top" xlink:title="prior_hessian::NormalDist\l::check_params_iter">
<polygon fill="white" stroke="black" points="166,-225.5 166,-253.5 289,-253.5 289,-225.5 166,-225.5"/>
<text text-anchor="start" x="174" y="-242.3" font-family="Helvetica,sans-Serif" font-size="9.00">prior_hessian::NormalDist</text>
<text text-anchor="middle" x="227.5" y="-232.3" font-family="Helvetica,sans-Serif" font-size="9.00">::check_params_iter</text>
</a>
</g>
</g>
<!-- Node1&#45;&gt;Node4 -->
<g id="edge3" class="edge"><title>Node1&#45;&gt;Node4</title>
<path fill="none" stroke="midnightblue" d="M133.041,-225.823C143.974,-227.423 155.185,-229.064 165.874,-230.628"/>
<polygon fill="midnightblue" stroke="midnightblue" points="133.503,-222.353 123.102,-224.369 132.489,-229.28 133.503,-222.353"/>
</g>
<!-- Node5 -->
<g id="node5" class="node"><title>Node5</title>
<g id="a_node5"><a xlink:href="classprior__hessian_1_1NormalDist.html#a83016bf93c57e8acba0d749c2f7a0bac" target="_top" xlink:title="prior_hessian::NormalDist\l::get_param">
<polygon fill="white" stroke="black" points="166,-0.5 166,-28.5 289,-28.5 289,-0.5 166,-0.5"/>
<text text-anchor="start" x="174" y="-17.3" font-family="Helvetica,sans-Serif" font-size="9.00">prior_hessian::NormalDist</text>
<text text-anchor="middle" x="227.5" y="-7.3" font-family="Helvetica,sans-Serif" font-size="9.00">::get_param</text>
</a>
</g>
</g>
<!-- Node1&#45;&gt;Node5 -->
<g id="edge5" class="edge"><title>Node1&#45;&gt;Node5</title>
<path fill="none" stroke="midnightblue" d="M69.3573,-191.689C81.3997,-153.968 109.851,-80.4582 159,-38.5 163.54,-34.6238 168.751,-31.3575 174.222,-28.6085"/>
<polygon fill="midnightblue" stroke="midnightblue" points="65.9886,-190.736 66.3923,-201.323 72.679,-192.795 65.9886,-190.736"/>
</g>
<!-- Node7 -->
<g id="node7" class="node"><title>Node7</title>
<g id="a_node7"><a xlink:href="classprior__hessian_1_1NormalDist.html#ab9b17827daed20f82cb7bc0e40fe62e4" target="_top" xlink:title="prior_hessian::NormalDist\l::icdf">
<polygon fill="white" stroke="black" points="166,-178.5 166,-206.5 289,-206.5 289,-178.5 166,-178.5"/>
<text text-anchor="start" x="174" y="-195.3" font-family="Helvetica,sans-Serif" font-size="9.00">prior_hessian::NormalDist</text>
<text text-anchor="middle" x="227.5" y="-185.3" font-family="Helvetica,sans-Serif" font-size="9.00">::icdf</text>
</a>
</g>
</g>
<!-- Node1&#45;&gt;Node7 -->
<g id="edge7" class="edge"><title>Node1&#45;&gt;Node7</title>
<path fill="none" stroke="midnightblue" d="M133.041,-205.607C143.974,-204.074 155.185,-202.502 165.874,-201.002"/>
<polygon fill="midnightblue" stroke="midnightblue" points="132.519,-202.146 123.102,-207.001 133.491,-209.078 132.519,-202.146"/>
</g>
<!-- Node8 -->
<g id="node8" class="node"><title>Node8</title>
<g id="a_node8"><a xlink:href="classprior__hessian_1_1NormalDist.html#a7776d18fd17739446c2848a9452b81f7" target="_top" xlink:title="prior_hessian::NormalDist::llh">
<polygon fill="white" stroke="black" points="159,-94.5 159,-112.5 296,-112.5 296,-94.5 159,-94.5"/>
<text text-anchor="middle" x="227.5" y="-101.3" font-family="Helvetica,sans-Serif" font-size="9.00">prior_hessian::NormalDist::llh</text>
</a>
</g>
</g>
<!-- Node1&#45;&gt;Node8 -->
<g id="edge9" class="edge"><title>Node1&#45;&gt;Node8</title>
<path fill="none" stroke="midnightblue" d="M79.773,-193.451C97.4887,-172.285 126.926,-140.892 159,-122.5 166.181,-118.382 174.31,-115.111 182.377,-112.528"/>
<polygon fill="midnightblue" stroke="midnightblue" points="76.9856,-191.331 73.3589,-201.286 82.402,-195.765 76.9856,-191.331"/>
</g>
<!-- Node9 -->
<g id="node9" class="node"><title>Node9</title>
<g id="a_node9"><a xlink:href="classprior__hessian_1_1NormalDist.html#aa90f1b24ee10d8692ab29b2ab019d6f7" target="_top" xlink:title="prior_hessian::NormalDist\l::operator==">
<polygon fill="white" stroke="black" points="166,-47.5 166,-75.5 289,-75.5 289,-47.5 166,-47.5"/>
<text text-anchor="start" x="174" y="-64.3" font-family="Helvetica,sans-Serif" font-size="9.00">prior_hessian::NormalDist</text>
<text text-anchor="middle" x="227.5" y="-54.3" font-family="Helvetica,sans-Serif" font-size="9.00">::operator==</text>
</a>
</g>
</g>
<!-- Node1&#45;&gt;Node9 -->
<g id="edge11" class="edge"><title>Node1&#45;&gt;Node9</title>
<path fill="none" stroke="midnightblue" d="M74.1612,-192.234C89.7567,-163.337 120.021,-114.336 159,-85.5 164.199,-81.6536 170.072,-78.3796 176.129,-75.6041"/>
<polygon fill="midnightblue" stroke="midnightblue" points="71.0002,-190.726 69.4433,-201.205 77.1957,-193.984 71.0002,-190.726"/>
</g>
<!-- Node10 -->
<g id="node10" class="node"><title>Node10</title>
<g id="a_node10"><a xlink:href="classprior__hessian_1_1NormalDist.html#aa85e47b9c557fb7d9c19a3b5da5e0c44" target="_top" xlink:title="prior_hessian::NormalDist\l::param_ubound">
<polygon fill="white" stroke="black" points="166,-131.5 166,-159.5 289,-159.5 289,-131.5 166,-131.5"/>
<text text-anchor="start" x="174" y="-148.3" font-family="Helvetica,sans-Serif" font-size="9.00">prior_hessian::NormalDist</text>
<text text-anchor="middle" x="227.5" y="-138.3" font-family="Helvetica,sans-Serif" font-size="9.00">::param_ubound</text>
</a>
</g>
</g>
<!-- Node1&#45;&gt;Node10 -->
<g id="edge13" class="edge"><title>Node1&#45;&gt;Node10</title>
<path fill="none" stroke="midnightblue" d="M99.4724,-196.775C117.273,-188.044 139.039,-177.78 159,-169.5 167.272,-166.069 176.23,-162.669 184.834,-159.555"/>
<polygon fill="midnightblue" stroke="midnightblue" points="97.4407,-193.875 90.0282,-201.445 100.544,-200.15 97.4407,-193.875"/>
</g>
<!-- Node11 -->
<g id="node11" class="node"><title>Node11</title>
<g id="a_node11"><a xlink:href="classprior__hessian_1_1NormalDist.html#aaea8964b1f62318c047e3c75ac104436" target="_top" xlink:title="prior_hessian::NormalDist\l::params">
<polygon fill="white" stroke="black" points="166,-413.5 166,-441.5 289,-441.5 289,-413.5 166,-413.5"/>
<text text-anchor="start" x="174" y="-430.3" font-family="Helvetica,sans-Serif" font-size="9.00">prior_hessian::NormalDist</text>
<text text-anchor="middle" x="227.5" y="-420.3" font-family="Helvetica,sans-Serif" font-size="9.00">::params</text>
</a>
</g>
</g>
<!-- Node1&#45;&gt;Node11 -->
<g id="edge14" class="edge"><title>Node1&#45;&gt;Node11</title>
<path fill="none" stroke="midnightblue" d="M68.4239,-239.547C79.4701,-279.458 106.95,-359.438 159,-404.5 163.025,-407.984 167.602,-410.947 172.432,-413.465"/>
<polygon fill="midnightblue" stroke="midnightblue" points="71.7421,-238.405 65.7938,-229.637 64.9763,-240.2 71.7421,-238.405"/>
</g>
<!-- Node12 -->
<g id="node12" class="node"><title>Node12</title>
<g id="a_node12"><a xlink:href="classprior__hessian_1_1NormalDist.html#a1f75e2644054b23d804b7be394ed5a2b" target="_top" xlink:title="prior_hessian::NormalDist\l::sample">
<polygon fill="white" stroke="black" points="166,-366.5 166,-394.5 289,-394.5 289,-366.5 166,-366.5"/>
<text text-anchor="start" x="174" y="-383.3" font-family="Helvetica,sans-Serif" font-size="9.00">prior_hessian::NormalDist</text>
<text text-anchor="middle" x="227.5" y="-373.3" font-family="Helvetica,sans-Serif" font-size="9.00">::sample</text>
</a>
</g>
</g>
<!-- Node1&#45;&gt;Node12 -->
<g id="edge16" class="edge"><title>Node1&#45;&gt;Node12</title>
<path fill="none" stroke="midnightblue" d="M72.668,-239.142C87.3248,-270.537 117.285,-325.712 159,-357.5 163.53,-360.952 168.611,-363.906 173.899,-366.429"/>
<polygon fill="midnightblue" stroke="midnightblue" points="75.7692,-237.506 68.4515,-229.844 69.3941,-240.397 75.7692,-237.506"/>
</g>
<!-- Node13 -->
<g id="node13" class="node"><title>Node13</title>
<g id="a_node13"><a xlink:href="classprior__hessian_1_1NormalDist.html#a78eea7f027f4dc2024adc00f7cb8cce1" target="_top" xlink:title="prior_hessian::NormalDist\l::set_params_iter">
<polygon fill="white" stroke="black" points="166,-319.5 166,-347.5 289,-347.5 289,-319.5 166,-319.5"/>
<text text-anchor="start" x="174" y="-336.3" font-family="Helvetica,sans-Serif" font-size="9.00">prior_hessian::NormalDist</text>
<text text-anchor="middle" x="227.5" y="-326.3" font-family="Helvetica,sans-Serif" font-size="9.00">::set_params_iter</text>
</a>
</g>
</g>
<!-- Node1&#45;&gt;Node13 -->
<g id="edge18" class="edge"><title>Node1&#45;&gt;Node13</title>
<path fill="none" stroke="midnightblue" d="M79.8954,-237.663C97.7039,-259.012 127.21,-290.878 159,-310.5 164.478,-313.881 170.516,-316.838 176.66,-319.403"/>
<polygon fill="midnightblue" stroke="midnightblue" points="82.4826,-235.298 73.4439,-229.77 77.0628,-239.728 82.4826,-235.298"/>
</g>
<!-- Node3 -->
<g id="node3" class="node"><title>Node3</title>
<g id="a_node3"><a xlink:href="classprior__hessian_1_1NormalDist.html#a01e959b4aea2b94bc05fc42c9abeed3c" target="_top" xlink:title="prior_hessian::NormalDist\l::median">
<polygon fill="white" stroke="black" points="332,-272.5 332,-300.5 455,-300.5 455,-272.5 332,-272.5"/>
<text text-anchor="start" x="340" y="-289.3" font-family="Helvetica,sans-Serif" font-size="9.00">prior_hessian::NormalDist</text>
<text text-anchor="middle" x="393.5" y="-279.3" font-family="Helvetica,sans-Serif" font-size="9.00">::median</text>
</a>
</g>
</g>
<!-- Node2&#45;&gt;Node3 -->
<g id="edge2" class="edge"><title>Node2&#45;&gt;Node3</title>
<path fill="none" stroke="midnightblue" d="M299.376,-286.5C310.203,-286.5 321.294,-286.5 331.874,-286.5"/>
<polygon fill="midnightblue" stroke="midnightblue" points="299.102,-283 289.102,-286.5 299.102,-290 299.102,-283"/>
</g>
<!-- Node4&#45;&gt;Node3 -->
<g id="edge4" class="edge"><title>Node4&#45;&gt;Node3</title>
<path fill="none" stroke="midnightblue" d="M287.447,-256.393C305.863,-261.671 325.967,-267.433 343.612,-272.489"/>
<polygon fill="midnightblue" stroke="midnightblue" points="288.283,-252.992 277.705,-253.602 286.354,-259.721 288.283,-252.992"/>
</g>
<!-- Node6 -->
<g id="node6" class="node"><title>Node6</title>
<g id="a_node6"><a xlink:href="classprior__hessian_1_1NormalDist.html#ade1454cb5b7e913871723f174acd9dcc" target="_top" xlink:title="prior_hessian::NormalDist\l::operator!=">
<polygon fill="white" stroke="black" points="332,-23.5 332,-51.5 455,-51.5 455,-23.5 332,-23.5"/>
<text text-anchor="start" x="340" y="-40.3" font-family="Helvetica,sans-Serif" font-size="9.00">prior_hessian::NormalDist</text>
<text text-anchor="middle" x="393.5" y="-30.3" font-family="Helvetica,sans-Serif" font-size="9.00">::operator!=</text>
</a>
</g>
</g>
<!-- Node5&#45;&gt;Node6 -->
<g id="edge6" class="edge"><title>Node5&#45;&gt;Node6</title>
<path fill="none" stroke="midnightblue" d="M299.041,-24.393C309.974,-25.9263 321.185,-27.4984 331.874,-28.9976"/>
<polygon fill="midnightblue" stroke="midnightblue" points="299.491,-20.9219 289.102,-22.999 298.519,-27.854 299.491,-20.9219"/>
</g>
<!-- Node7&#45;&gt;Node3 -->
<g id="edge8" class="edge"><title>Node7&#45;&gt;Node3</title>
<path fill="none" stroke="midnightblue" d="M283.443,-210.523C287.757,-212.394 291.992,-214.39 296,-216.5 326.218,-232.409 357.571,-256.89 376.043,-272.284"/>
<polygon fill="midnightblue" stroke="midnightblue" points="284.507,-207.177 273.926,-206.631 281.857,-213.656 284.507,-207.177"/>
</g>
<!-- Node8&#45;&gt;Node3 -->
<g id="edge10" class="edge"><title>Node8&#45;&gt;Node3</title>
<path fill="none" stroke="midnightblue" d="M287.043,-116.762C290.201,-118.45 293.216,-120.354 296,-122.5 348.331,-162.835 377.794,-240.244 388.18,-272.181"/>
<polygon fill="midnightblue" stroke="midnightblue" points="288.386,-113.527 277.836,-112.55 285.473,-119.893 288.386,-113.527"/>
</g>
<!-- Node9&#45;&gt;Node6 -->
<g id="edge12" class="edge"><title>Node9&#45;&gt;Node6</title>
<path fill="none" stroke="midnightblue" d="M299.041,-51.1769C309.974,-49.5769 321.185,-47.9364 331.874,-46.3721"/>
<polygon fill="midnightblue" stroke="midnightblue" points="298.489,-47.7203 289.102,-52.6315 299.503,-54.6465 298.489,-47.7203"/>
</g>
<!-- Node11&#45;&gt;Node3 -->
<g id="edge15" class="edge"><title>Node11&#45;&gt;Node3</title>
<path fill="none" stroke="midnightblue" d="M288.915,-408.911C291.368,-407.536 293.742,-406.068 296,-404.5 337.087,-375.976 370.105,-325.252 384.573,-300.656"/>
<polygon fill="midnightblue" stroke="midnightblue" points="287.133,-405.889 279.753,-413.491 290.263,-412.15 287.133,-405.889"/>
</g>
<!-- Node12&#45;&gt;Node3 -->
<g id="edge17" class="edge"><title>Node12&#45;&gt;Node3</title>
<path fill="none" stroke="midnightblue" d="M285.133,-362.658C288.865,-361.039 292.519,-359.318 296,-357.5 326.604,-341.514 358.094,-316.407 376.453,-300.729"/>
<polygon fill="midnightblue" stroke="midnightblue" points="283.698,-359.463 275.753,-366.473 286.335,-365.948 283.698,-359.463"/>
</g>
<!-- Node13&#45;&gt;Node3 -->
<g id="edge19" class="edge"><title>Node13&#45;&gt;Node3</title>
<path fill="none" stroke="midnightblue" d="M287.447,-316.607C305.863,-311.329 325.967,-305.567 343.612,-300.511"/>
<polygon fill="midnightblue" stroke="midnightblue" points="286.354,-313.279 277.705,-319.398 288.283,-320.008 286.354,-313.279"/>
</g>
</g>
</svg>
