<?xml version="1.0" encoding="UTF-8" standalone="no"?>
<!DOCTYPE svg PUBLIC "-//W3C//DTD SVG 1.1//EN"
 "http://www.w3.org/Graphics/SVG/1.1/DTD/svg11.dtd">
<!-- Generated by graphviz version 2.38.0 (20140413.2041)
 -->
<!-- Title: prior_hessian::TruncatedDist::ubound Pages: 1 -->
<!--zoomable 189 -->
<svg id="main" version="1.1" xmlns="http://www.w3.org/2000/svg" xmlns:xlink="http://www.w3.org/1999/xlink" xml:space="preserve" onload="init(evt)">
<style type="text/css"><![CDATA[
.edge:hover path { stroke: red; }
.edge:hover polygon { stroke: red; fill: red; }
]]></style>
<script type="text/javascript"><![CDATA[
var edges = document.getElementsByTagName('g');
if (edges && edges.length) {
  for (var i=0;i<edges.length;i++) {
    if (edges[i].id.substr(0,4)=='edge') {
      edges[i].setAttribute('class','edge');
    }
  }
}
]]></script>
        <defs>
                <circle id="rim" cx="0" cy="0" r="7"/>
                <circle id="rim2" cx="0" cy="0" r="3.5"/>
                <g id="zoomPlus">
                        <use xlink:href="#rim" fill="#404040">
                                <set attributeName="fill" to="#808080" begin="zoomplus.mouseover" end="zoomplus.mouseout"/>
                        </use>
                        <path d="M-4,0h8M0,-4v8" fill="none" stroke="white" stroke-width="1.5" pointer-events="none"/>
                </g>
                <g id="zoomMin">
                        <use xlink:href="#rim" fill="#404040">
                                <set attributeName="fill" to="#808080" begin="zoomminus.mouseover" end="zoomminus.mouseout"/>
                        </use>
                        <path d="M-4,0h8" fill="none" stroke="white" stroke-width="1.5" pointer-events="none"/>
                </g>
                <g id="dirArrow">
                        <path fill="none" stroke="white" stroke-width="1.5" d="M0,-3.0v7 M-2.5,-0.5L0,-3.0L2.5,-0.5"/>
                </g>
               <g id="resetDef">
                       <use xlink:href="#rim2" fill="#404040">
                               <set attributeName="fill" to="#808080" begin="reset.mouseover" end="reset.mouseout"/>
                       </use>
               </g>
        </defs>

<script type="text/javascript">
var viewWidth = 592;
var viewHeight = 189;
var sectionId = 'dynsection-24';
</script>
<script xlink:href="svgpan.js"/>
<svg id="graph" class="graph">
<g id="viewport">
<title>prior_hessian::TruncatedDist::ubound</title>
<polygon fill="white" stroke="none" points="-4,4 -4,-185.124 588,-185.124 588,4 -4,4"/>
<!-- Node1 -->
<g id="node1" class="node"><title>Node1</title>
<polygon fill="#bfbfbf" stroke="black" points="0,-111.5 0,-139.5 119,-139.5 119,-111.5 0,-111.5"/>
<text text-anchor="start" x="8" y="-128.3" font-family="Helvetica,sans-Serif" font-size="9.00">prior_hessian::Truncated</text>
<text text-anchor="middle" x="59.5" y="-118.3" font-family="Helvetica,sans-Serif" font-size="9.00">Dist::ubound</text>
</g>
<!-- Node2 -->
<g id="node2" class="node"><title>Node2</title>
<g id="a_node2"><a xlink:href="classprior__hessian_1_1TruncatedDist.html#a05934e74d38db5bd77df1609f43c7d71" target="_top" xlink:title="prior_hessian::Truncated\lDist::operator!=">
<polygon fill="white" stroke="black" points="465,-111.5 465,-139.5 584,-139.5 584,-111.5 465,-111.5"/>
<text text-anchor="start" x="473" y="-128.3" font-family="Helvetica,sans-Serif" font-size="9.00">prior_hessian::Truncated</text>
<text text-anchor="middle" x="524.5" y="-118.3" font-family="Helvetica,sans-Serif" font-size="9.00">Dist::operator!=</text>
</a>
</g>
</g>
<!-- Node1&#45;&gt;Node2 -->
<g id="edge1" class="edge"><title>Node1&#45;&gt;Node2</title>
<path fill="none" stroke="midnightblue" d="M110.13,-142.575C181.432,-164.66 316.644,-197.394 429,-171.5 455.493,-165.394 483.159,-150.813 501.659,-139.691"/>
<polygon fill="midnightblue" stroke="midnightblue" points="111.092,-139.209 100.502,-139.537 108.986,-145.884 111.092,-139.209"/>
</g>
<!-- Node3 -->
<g id="node3" class="node"><title>Node3</title>
<g id="a_node3"><a xlink:href="classprior__hessian_1_1TruncatedDist.html#a9189a3e17c4bf37c22aebe327b79dd63" target="_top" xlink:title="prior_hessian::Truncated\lDist::set_bounds">
<polygon fill="white" stroke="black" points="155,-90.5 155,-118.5 274,-118.5 274,-90.5 155,-90.5"/>
<text text-anchor="start" x="163" y="-107.3" font-family="Helvetica,sans-Serif" font-size="9.00">prior_hessian::Truncated</text>
<text text-anchor="middle" x="214.5" y="-97.3" font-family="Helvetica,sans-Serif" font-size="9.00">Dist::set_bounds</text>
</a>
</g>
</g>
<!-- Node1&#45;&gt;Node3 -->
<g id="edge2" class="edge"><title>Node1&#45;&gt;Node3</title>
<path fill="none" stroke="midnightblue" d="M129.213,-116.069C137.803,-114.89 146.525,-113.693 154.941,-112.538"/>
<polygon fill="midnightblue" stroke="midnightblue" points="128.647,-112.614 119.216,-117.441 129.599,-119.549 128.647,-112.614"/>
</g>
<!-- Node4 -->
<g id="node4" class="node"><title>Node4</title>
<g id="a_node4"><a xlink:href="classprior__hessian_1_1TruncatedDist.html#a21ef557361b62e4c657154d12cb032c2" target="_top" xlink:title="prior_hessian::Truncated\lDist::set_lbound">
<polygon fill="white" stroke="black" points="310,-133.5 310,-161.5 429,-161.5 429,-133.5 310,-133.5"/>
<text text-anchor="start" x="318" y="-150.3" font-family="Helvetica,sans-Serif" font-size="9.00">prior_hessian::Truncated</text>
<text text-anchor="middle" x="369.5" y="-140.3" font-family="Helvetica,sans-Serif" font-size="9.00">Dist::set_lbound</text>
</a>
</g>
</g>
<!-- Node1&#45;&gt;Node4 -->
<g id="edge9" class="edge"><title>Node1&#45;&gt;Node4</title>
<path fill="none" stroke="midnightblue" d="M129.376,-130.42C183.61,-134.294 258.382,-139.634 309.799,-143.307"/>
<polygon fill="midnightblue" stroke="midnightblue" points="129.381,-126.911 119.157,-129.69 128.883,-133.893 129.381,-126.911"/>
</g>
<!-- Node7 -->
<g id="node7" class="node"><title>Node7</title>
<g id="a_node7"><a xlink:href="classprior__hessian_1_1TruncatedDist.html#a79ff97eb5315095d9e1f590285994b4d" target="_top" xlink:title="prior_hessian::Truncated\lDist::TruncatedDist">
<polygon fill="white" stroke="black" points="155,-43.5 155,-71.5 274,-71.5 274,-43.5 155,-43.5"/>
<text text-anchor="start" x="163" y="-60.3" font-family="Helvetica,sans-Serif" font-size="9.00">prior_hessian::Truncated</text>
<text text-anchor="middle" x="214.5" y="-50.3" font-family="Helvetica,sans-Serif" font-size="9.00">Dist::TruncatedDist</text>
</a>
</g>
</g>
<!-- Node1&#45;&gt;Node7 -->
<g id="edge10" class="edge"><title>Node1&#45;&gt;Node7</title>
<path fill="none" stroke="midnightblue" d="M98.8374,-107.158C115.943,-99.1012 136.395,-89.6425 155,-81.5 162.543,-78.199 170.687,-74.7722 178.433,-71.5767"/>
<polygon fill="midnightblue" stroke="midnightblue" points="97.2565,-104.033 89.7119,-111.472 100.248,-110.362 97.2565,-104.033"/>
</g>
<!-- Node3&#45;&gt;Node2 -->
<g id="edge3" class="edge"><title>Node3&#45;&gt;Node2</title>
<path fill="none" stroke="midnightblue" d="M284.376,-109.196C338.61,-112.894 413.382,-117.992 464.799,-121.498"/>
<polygon fill="midnightblue" stroke="midnightblue" points="284.372,-105.688 274.157,-108.499 283.896,-112.672 284.372,-105.688"/>
</g>
<!-- Node3&#45;&gt;Node4 -->
<g id="edge4" class="edge"><title>Node3&#45;&gt;Node4</title>
<path fill="none" stroke="midnightblue" d="M275.34,-121.318C289.638,-125.336 304.752,-129.584 318.551,-133.462"/>
<polygon fill="midnightblue" stroke="midnightblue" points="276.172,-117.916 265.598,-118.58 274.278,-124.655 276.172,-117.916"/>
</g>
<!-- Node5 -->
<g id="node5" class="node"><title>Node5</title>
<g id="a_node5"><a xlink:href="classprior__hessian_1_1TruncatedDist.html#ac2d919896743958e03a188b5dde6661e" target="_top" xlink:title="prior_hessian::Truncated\lDist::set_ubound">
<polygon fill="white" stroke="black" points="310,-47.5 310,-75.5 429,-75.5 429,-47.5 310,-47.5"/>
<text text-anchor="start" x="318" y="-64.3" font-family="Helvetica,sans-Serif" font-size="9.00">prior_hessian::Truncated</text>
<text text-anchor="middle" x="369.5" y="-54.3" font-family="Helvetica,sans-Serif" font-size="9.00">Dist::set_ubound</text>
</a>
</g>
</g>
<!-- Node3&#45;&gt;Node5 -->
<g id="edge6" class="edge"><title>Node3&#45;&gt;Node5</title>
<path fill="none" stroke="midnightblue" d="M275.34,-87.6822C289.638,-83.6638 304.752,-79.416 318.551,-75.538"/>
<polygon fill="midnightblue" stroke="midnightblue" points="274.278,-84.345 265.598,-90.4202 276.172,-91.0839 274.278,-84.345"/>
</g>
<!-- Node6 -->
<g id="node6" class="node"><title>Node6</title>
<g id="a_node6"><a xlink:href="classprior__hessian_1_1TruncatedDist.html#a645357d7c21e4aaa39764ca122b1f7c4" target="_top" xlink:title="prior_hessian::Truncated\lDist::TruncatedDist">
<polygon fill="white" stroke="black" points="310,-0.5 310,-28.5 429,-28.5 429,-0.5 310,-0.5"/>
<text text-anchor="start" x="318" y="-17.3" font-family="Helvetica,sans-Serif" font-size="9.00">prior_hessian::Truncated</text>
<text text-anchor="middle" x="369.5" y="-7.3" font-family="Helvetica,sans-Serif" font-size="9.00">Dist::TruncatedDist</text>
</a>
</g>
</g>
<!-- Node3&#45;&gt;Node6 -->
<g id="edge8" class="edge"><title>Node3&#45;&gt;Node6</title>
<path fill="none" stroke="midnightblue" d="M266.123,-85.633C268.863,-84.031 271.511,-82.3208 274,-80.5 294.117,-65.7847 289.775,-52.0669 310,-37.5 314.693,-34.1197 319.951,-31.1532 325.337,-28.5741"/>
<polygon fill="midnightblue" stroke="midnightblue" points="264.337,-82.6179 257.13,-90.3837 267.607,-88.8073 264.337,-82.6179"/>
</g>
<!-- Node4&#45;&gt;Node2 -->
<g id="edge5" class="edge"><title>Node4&#45;&gt;Node2</title>
<path fill="none" stroke="midnightblue" d="M439.213,-137.62C447.803,-136.385 456.525,-135.13 464.941,-133.92"/>
<polygon fill="midnightblue" stroke="midnightblue" points="438.616,-134.169 429.216,-139.057 439.613,-141.098 438.616,-134.169"/>
</g>
<!-- Node5&#45;&gt;Node2 -->
<g id="edge7" class="edge"><title>Node5&#45;&gt;Node2</title>
<path fill="none" stroke="midnightblue" d="M413.402,-79.4461C437.642,-89.5857 467.498,-102.075 490.002,-111.488"/>
<polygon fill="midnightblue" stroke="midnightblue" points="414.653,-76.1752 404.076,-75.5451 411.951,-82.633 414.653,-76.1752"/>
</g>
</g>
</svg>
        <g id="navigator" transform="translate(0 0)" fill="#404254">
                <rect fill="#f2f5e9" fill-opacity="0.5" stroke="#606060" stroke-width=".5" x="0" y="0" width="60" height="60"/>
                <use id="zoomplus" xlink:href="#zoomPlus" x="17" y="9" onmousedown="handleZoom(evt,'in')"/>
                <use id="zoomminus" xlink:href="#zoomMin" x="42" y="9" onmousedown="handleZoom(evt,'out')"/>
                <use id="reset" xlink:href="#resetDef" x="30" y="36" onmousedown="handleReset()"/>
                <g id="arrowUp" xlink:href="#dirArrow" transform="translate(30 24)" onmousedown="handlePan(0,-1)">
                  <use xlink:href="#rim" fill="#404040">
                        <set attributeName="fill" to="#808080" begin="arrowUp.mouseover" end="arrowUp.mouseout"/>
                  </use>
                  <path fill="none" stroke="white" stroke-width="1.5" d="M0,-3.0v7 M-2.5,-0.5L0,-3.0L2.5,-0.5"/>
                </g>
                <g id="arrowRight" xlink:href="#dirArrow" transform="rotate(90) translate(36 -43)" onmousedown="handlePan(1,0)">
                  <use xlink:href="#rim" fill="#404040">
                        <set attributeName="fill" to="#808080" begin="arrowRight.mouseover" end="arrowRight.mouseout"/>
                  </use>
                  <path fill="none" stroke="white" stroke-width="1.5" d="M0,-3.0v7 M-2.5,-0.5L0,-3.0L2.5,-0.5"/>
                </g>
                <g id="arrowDown" xlink:href="#dirArrow" transform="rotate(180) translate(-30 -48)" onmousedown="handlePan(0,1)">
                  <use xlink:href="#rim" fill="#404040">
                        <set attributeName="fill" to="#808080" begin="arrowDown.mouseover" end="arrowDown.mouseout"/>
                  </use>
                  <path fill="none" stroke="white" stroke-width="1.5" d="M0,-3.0v7 M-2.5,-0.5L0,-3.0L2.5,-0.5"/>
                </g>
                <g id="arrowLeft" xlink:href="#dirArrow" transform="rotate(270) translate(-36 17)" onmousedown="handlePan(-1,0)">
                  <use xlink:href="#rim" fill="#404040">
                        <set attributeName="fill" to="#808080" begin="arrowLeft.mouseover" end="arrowLeft.mouseout"/>
                  </use>
                  <path fill="none" stroke="white" stroke-width="1.5" d="M0,-3.0v7 M-2.5,-0.5L0,-3.0L2.5,-0.5"/>
                </g>
        </g>
        <svg viewBox="0 0 15 15" width="100%" height="30px" preserveAspectRatio="xMaxYMin meet">
         <g id="arrow_out" transform="scale(0.3 0.3)">
          <a xlink:href="classprior__hessian_1_1TruncatedDist_a46cba73068eff4d100e8184deebb8016_icgraph_org.svg" target="_base">
           <rect id="button" ry="5" rx="5" y="6" x="6" height="38" width="38"
                fill="#f2f5e9" fill-opacity="0.5" stroke="#606060" stroke-width="1.0"/>
           <path id="arrow"
             d="M 11.500037,31.436501 C 11.940474,20.09759 22.043105,11.32322 32.158766,21.979434 L 37.068811,17.246167 C 37.068811,17.246167 37.088388,32 37.088388,32 L 22.160133,31.978069 C 22.160133,31.978069 26.997745,27.140456 26.997745,27.140456 C 18.528582,18.264221 13.291696,25.230495 11.500037,31.436501 z"
             style="fill:#404040;"/>
          </a>
         </g>
        </svg>
</svg>
