<?xml version="1.0" encoding="UTF-8" standalone="no"?>
<!DOCTYPE svg PUBLIC "-//W3C//DTD SVG 1.1//EN"
 "http://www.w3.org/Graphics/SVG/1.1/DTD/svg11.dtd">
<!-- Generated by graphviz version 2.38.0 (20140413.2041)
 -->
<!-- Title: prior_hessian::UpperTruncatedDist::operator== Pages: 1 -->
<svg width="332pt" height="37pt"
 viewBox="0.00 0.00 332.00 37.00" xmlns="http://www.w3.org/2000/svg" xmlns:xlink="http://www.w3.org/1999/xlink">
<g id="graph0" class="graph" transform="scale(1 1) rotate(0) translate(4 33)">
<title>prior_hessian::UpperTruncatedDist::operator==</title>
<polygon fill="white" stroke="none" points="-4,4 -4,-33 328,-33 328,4 -4,4"/>
<!-- Node1 -->
<g id="node1" class="node"><title>Node1</title>
<polygon fill="#bfbfbf" stroke="black" points="0,-0.5 0,-28.5 144,-28.5 144,-0.5 0,-0.5"/>
<text text-anchor="start" x="8" y="-17.3" font-family="Helvetica,sans-Serif" font-size="9.00">prior_hessian::UpperTruncated</text>
<text text-anchor="middle" x="72" y="-7.3" font-family="Helvetica,sans-Serif" font-size="9.00">Dist::operator==</text>
</g>
<!-- Node2 -->
<g id="node2" class="node"><title>Node2</title>
<g id="a_node2"><a xlink:href="classprior__hessian_1_1UpperTruncatedDist.html#a3396c4b08ddb07235c10c4edc97b96e3" target="_top" xlink:title="prior_hessian::UpperTruncated\lDist::operator!=">
<polygon fill="white" stroke="black" points="180,-0.5 180,-28.5 324,-28.5 324,-0.5 180,-0.5"/>
<text text-anchor="start" x="188" y="-17.3" font-family="Helvetica,sans-Serif" font-size="9.00">prior_hessian::UpperTruncated</text>
<text text-anchor="middle" x="252" y="-7.3" font-family="Helvetica,sans-Serif" font-size="9.00">Dist::operator!=</text>
</a>
</g>
</g>
<!-- Node1&#45;&gt;Node2 -->
<g id="edge1" class="edge"><title>Node1&#45;&gt;Node2</title>
<path fill="none" stroke="midnightblue" d="M154.17,-14.5C162.789,-14.5 171.506,-14.5 179.995,-14.5"/>
<polygon fill="midnightblue" stroke="midnightblue" points="154.118,-11.0001 144.118,-14.5 154.118,-18.0001 154.118,-11.0001"/>
</g>
</g>
</svg>
