<?xml version="1.0" encoding="UTF-8" standalone="no"?>
<!DOCTYPE svg PUBLIC "-//W3C//DTD SVG 1.1//EN"
 "http://www.w3.org/Graphics/SVG/1.1/DTD/svg11.dtd">
<!-- Generated by graphviz version 2.38.0 (20140413.2041)
 -->
<!-- Title: prior_hessian::CopulaDistImpl::CopulaDist::get_copula_theta Pages: 1 -->
<svg width="335pt" height="37pt"
 viewBox="0.00 0.00 335.00 37.00" xmlns="http://www.w3.org/2000/svg" xmlns:xlink="http://www.w3.org/1999/xlink">
<g id="graph0" class="graph" transform="scale(1 1) rotate(0) translate(4 33)">
<title>prior_hessian::CopulaDistImpl::CopulaDist::get_copula_theta</title>
<polygon fill="white" stroke="none" points="-4,4 -4,-33 331,-33 331,4 -4,4"/>
<!-- Node1 -->
<g id="node1" class="node"><title>Node1</title>
<polygon fill="#bfbfbf" stroke="black" points="0,-0.5 0,-28.5 160,-28.5 160,-0.5 0,-0.5"/>
<text text-anchor="start" x="8" y="-17.3" font-family="Helvetica,sans-Serif" font-size="9.00">prior_hessian::CopulaDist</text>
<text text-anchor="middle" x="80" y="-7.3" font-family="Helvetica,sans-Serif" font-size="9.00">Impl::CopulaDist::get_copula_theta</text>
</g>
<!-- Node2 -->
<g id="node2" class="node"><title>Node2</title>
<g id="a_node2"><a xlink:href="classprior__hessian_1_1CopulaDistImpl_1_1CopulaDist.html#a5cd91617bed91a4c401ad05f52958010" target="_top" xlink:title="prior_hessian::CopulaDist\lImpl::CopulaDist::operator!=">
<polygon fill="white" stroke="black" points="196,-0.5 196,-28.5 327,-28.5 327,-0.5 196,-0.5"/>
<text text-anchor="start" x="204" y="-17.3" font-family="Helvetica,sans-Serif" font-size="9.00">prior_hessian::CopulaDist</text>
<text text-anchor="middle" x="261.5" y="-7.3" font-family="Helvetica,sans-Serif" font-size="9.00">Impl::CopulaDist::operator!=</text>
</a>
</g>
</g>
<!-- Node1&#45;&gt;Node2 -->
<g id="edge1" class="edge"><title>Node1&#45;&gt;Node2</title>
<path fill="none" stroke="midnightblue" d="M170.358,-14.5C178.983,-14.5 187.614,-14.5 195.93,-14.5"/>
<polygon fill="midnightblue" stroke="midnightblue" points="170.254,-11.0001 160.254,-14.5 170.254,-18.0001 170.254,-11.0001"/>
</g>
</g>
</svg>
