<?xml version="1.0" encoding="UTF-8" standalone="no"?>
<!DOCTYPE svg PUBLIC "-//W3C//DTD SVG 1.1//EN"
 "http://www.w3.org/Graphics/SVG/1.1/DTD/svg11.dtd">
<!-- Generated by graphviz version 2.38.0 (20140413.2041)
 -->
<!-- Title: prior_hessian::CompositeDist::params_lbound Pages: 1 -->
<svg width="763pt" height="98pt"
 viewBox="0.00 0.00 763.00 98.00" xmlns="http://www.w3.org/2000/svg" xmlns:xlink="http://www.w3.org/1999/xlink">
<g id="graph0" class="graph" transform="scale(1 1) rotate(0) translate(4 94)">
<title>prior_hessian::CompositeDist::params_lbound</title>
<polygon fill="white" stroke="none" points="-4,4 -4,-94 759,-94 759,4 -4,4"/>
<!-- Node1 -->
<g id="node1" class="node"><title>Node1</title>
<polygon fill="#bfbfbf" stroke="black" points="0,-0.5 0,-28.5 122,-28.5 122,-0.5 0,-0.5"/>
<text text-anchor="start" x="8" y="-17.3" font-family="Helvetica,sans-Serif" font-size="9.00">prior_hessian::Composite</text>
<text text-anchor="middle" x="61" y="-7.3" font-family="Helvetica,sans-Serif" font-size="9.00">Dist::params_lbound</text>
</g>
<!-- Node2 -->
<g id="node2" class="node"><title>Node2</title>
<g id="a_node2"><a xlink:href="namespaceprior__hessian.html#ab26e9ddc3b6a5caccf5d75e1a1e1af1b" target="_top" xlink:title="prior_hessian::operator\&lt;\&lt;">
<polygon fill="white" stroke="black" points="158,-25.5 158,-43.5 280,-43.5 280,-25.5 158,-25.5"/>
<text text-anchor="middle" x="219" y="-32.3" font-family="Helvetica,sans-Serif" font-size="9.00">prior_hessian::operator&lt;&lt;</text>
</a>
</g>
</g>
<!-- Node1&#45;&gt;Node2 -->
<g id="edge1" class="edge"><title>Node1&#45;&gt;Node2</title>
<path fill="none" stroke="midnightblue" d="M132.259,-23.5076C140.802,-24.6028 149.469,-25.714 157.847,-26.788"/>
<polygon fill="midnightblue" stroke="midnightblue" points="132.678,-20.0327 122.314,-22.2325 131.787,-26.9758 132.678,-20.0327"/>
</g>
<!-- Node5 -->
<g id="node5" class="node"><title>Node5</title>
<g id="a_node5"><a xlink:href="classprior__hessian_1_1CompositeDist.html#a24bac25ae8c0330b8a3aacadffc9d5ae" target="_top" xlink:title="prior_hessian::Composite\lDist::rllh_components">
<polygon fill="white" stroke="black" points="633,-18.5 633,-46.5 755,-46.5 755,-18.5 633,-18.5"/>
<text text-anchor="start" x="641" y="-35.3" font-family="Helvetica,sans-Serif" font-size="9.00">prior_hessian::Composite</text>
<text text-anchor="middle" x="694" y="-25.3" font-family="Helvetica,sans-Serif" font-size="9.00">Dist::rllh_components</text>
</a>
</g>
</g>
<!-- Node1&#45;&gt;Node5 -->
<g id="edge6" class="edge"><title>Node1&#45;&gt;Node5</title>
<path fill="none" stroke="midnightblue" d="M132.604,-12.6361C208.19,-11.0327 331.618,-9.54225 438,-13.5 504.766,-15.9839 581.162,-22.114 632.789,-26.7446"/>
<polygon fill="midnightblue" stroke="midnightblue" points="132.183,-9.1444 122.262,-12.8626 132.337,-16.1427 132.183,-9.1444"/>
</g>
<!-- Node3 -->
<g id="node3" class="node"><title>Node3</title>
<g id="a_node3"><a xlink:href="classprior__hessian_1_1CompositeDist.html#a38c4fdacf927824117d202422b04013c" target="_top" xlink:title="prior_hessian::Composite\lDist::set_param_names">
<polygon fill="white" stroke="black" points="316,-23.5 316,-51.5 438,-51.5 438,-23.5 316,-23.5"/>
<text text-anchor="start" x="324" y="-40.3" font-family="Helvetica,sans-Serif" font-size="9.00">prior_hessian::Composite</text>
<text text-anchor="middle" x="377" y="-30.3" font-family="Helvetica,sans-Serif" font-size="9.00">Dist::set_param_names</text>
</a>
</g>
</g>
<!-- Node2&#45;&gt;Node3 -->
<g id="edge2" class="edge"><title>Node2&#45;&gt;Node3</title>
<path fill="none" stroke="midnightblue" d="M290.538,-35.8565C298.99,-36.019 307.56,-36.1839 315.847,-36.3432"/>
<polygon fill="midnightblue" stroke="midnightblue" points="290.379,-32.3529 280.314,-35.6599 290.244,-39.3516 290.379,-32.3529"/>
</g>
<!-- Node4 -->
<g id="node4" class="node"><title>Node4</title>
<g id="a_node4"><a xlink:href="classprior__hessian_1_1CompositeDist.html#a927fed39b2b4e87714c728d6e7b11e8b" target="_top" xlink:title="prior_hessian::Composite\lDist::params_components">
<polygon fill="white" stroke="black" points="474,-61.5 474,-89.5 597,-89.5 597,-61.5 474,-61.5"/>
<text text-anchor="start" x="482" y="-78.3" font-family="Helvetica,sans-Serif" font-size="9.00">prior_hessian::Composite</text>
<text text-anchor="middle" x="535.5" y="-68.3" font-family="Helvetica,sans-Serif" font-size="9.00">Dist::params_components</text>
</a>
</g>
</g>
<!-- Node3&#45;&gt;Node4 -->
<g id="edge3" class="edge"><title>Node3&#45;&gt;Node4</title>
<path fill="none" stroke="midnightblue" d="M445.635,-53.9225C455.967,-56.4312 466.55,-59.001 476.646,-61.4525"/>
<polygon fill="midnightblue" stroke="midnightblue" points="446.374,-50.5003 435.83,-51.5418 444.722,-57.3026 446.374,-50.5003"/>
</g>
<!-- Node3&#45;&gt;Node5 -->
<g id="edge5" class="edge"><title>Node3&#45;&gt;Node5</title>
<path fill="none" stroke="midnightblue" d="M448.457,-36.3816C503.879,-35.5019 580.264,-34.2895 632.842,-33.4549"/>
<polygon fill="midnightblue" stroke="midnightblue" points="448.306,-32.8835 438.362,-36.5419 448.417,-39.8826 448.306,-32.8835"/>
</g>
<!-- Node4&#45;&gt;Node5 -->
<g id="edge4" class="edge"><title>Node4&#45;&gt;Node5</title>
<path fill="none" stroke="midnightblue" d="M597.709,-58.6822C612.334,-54.6638 627.794,-50.416 641.908,-46.538"/>
<polygon fill="midnightblue" stroke="midnightblue" points="596.459,-55.3958 587.744,-61.4202 598.314,-62.1456 596.459,-55.3958"/>
</g>
</g>
</svg>
