<?xml version="1.0" encoding="UTF-8" standalone="no"?>
<!DOCTYPE svg PUBLIC "-//W3C//DTD SVG 1.1//EN"
 "http://www.w3.org/Graphics/SVG/1.1/DTD/svg11.dtd">
<!-- Generated by graphviz version 2.38.0 (20140413.2041)
 -->
<!-- Title: prior_hessian::MultivariateNormalDist::pdf Pages: 1 -->
<svg width="938pt" height="188pt"
 viewBox="0.00 0.00 938.00 188.00" xmlns="http://www.w3.org/2000/svg" xmlns:xlink="http://www.w3.org/1999/xlink">
<g id="graph0" class="graph" transform="scale(1 1) rotate(0) translate(4 184)">
<title>prior_hessian::MultivariateNormalDist::pdf</title>
<polygon fill="white" stroke="none" points="-4,4 -4,-184 934,-184 934,4 -4,4"/>
<!-- Node1 -->
<g id="node1" class="node"><title>Node1</title>
<polygon fill="#bfbfbf" stroke="black" points="0,-70.5 0,-98.5 125,-98.5 125,-70.5 0,-70.5"/>
<text text-anchor="start" x="8" y="-87.3" font-family="Helvetica,sans-Serif" font-size="9.00">prior_hessian::Multivariate</text>
<text text-anchor="middle" x="62.5" y="-77.3" font-family="Helvetica,sans-Serif" font-size="9.00">NormalDist::pdf</text>
</g>
<!-- Node2 -->
<g id="node2" class="node"><title>Node2</title>
<g id="a_node2"><a xlink:href="classprior__hessian_1_1MultivariateNormalDist.html#a3540b1bcafd58fe26de858c0a4aef3db" target="_top" xlink:title="prior_hessian::Multivariate\lNormalDist::llh">
<polygon fill="white" stroke="black" points="161,-70.5 161,-98.5 286,-98.5 286,-70.5 161,-70.5"/>
<text text-anchor="start" x="169" y="-87.3" font-family="Helvetica,sans-Serif" font-size="9.00">prior_hessian::Multivariate</text>
<text text-anchor="middle" x="223.5" y="-77.3" font-family="Helvetica,sans-Serif" font-size="9.00">NormalDist::llh</text>
</a>
</g>
</g>
<!-- Node1&#45;&gt;Node2 -->
<g id="edge1" class="edge"><title>Node1&#45;&gt;Node2</title>
<path fill="none" stroke="midnightblue" d="M125.429,-84.5C133.674,-84.5 142.184,-84.5 150.58,-84.5"/>
<polygon fill="midnightblue" stroke="midnightblue" points="150.74,-88.0001 160.74,-84.5 150.74,-81.0001 150.74,-88.0001"/>
</g>
<!-- Node3 -->
<g id="node3" class="node"><title>Node3</title>
<g id="a_node3"><a xlink:href="classprior__hessian_1_1MultivariateNormalDist.html#a4512a641c493e33dfb93b5087e473c76" target="_top" xlink:title="prior_hessian::Multivariate\lNormalDist::rllh">
<polygon fill="white" stroke="black" points="322,-70.5 322,-98.5 447,-98.5 447,-70.5 322,-70.5"/>
<text text-anchor="start" x="330" y="-87.3" font-family="Helvetica,sans-Serif" font-size="9.00">prior_hessian::Multivariate</text>
<text text-anchor="middle" x="384.5" y="-77.3" font-family="Helvetica,sans-Serif" font-size="9.00">NormalDist::rllh</text>
</a>
</g>
</g>
<!-- Node2&#45;&gt;Node3 -->
<g id="edge2" class="edge"><title>Node2&#45;&gt;Node3</title>
<path fill="none" stroke="midnightblue" d="M286.429,-84.5C294.674,-84.5 303.184,-84.5 311.58,-84.5"/>
<polygon fill="midnightblue" stroke="midnightblue" points="311.74,-88.0001 321.74,-84.5 311.74,-81.0001 311.74,-88.0001"/>
</g>
<!-- Node4 -->
<g id="node4" class="node"><title>Node4</title>
<g id="a_node4"><a xlink:href="namespaceprior__hessian_1_1helpers.html#a5d1bbe705c849e9c225a831c853be8a7" target="_top" xlink:title="prior_hessian::helpers\l::compute_quadratic_from\l_symmetric">
<polygon fill="white" stroke="black" points="484,-141.5 484,-179.5 607,-179.5 607,-141.5 484,-141.5"/>
<text text-anchor="start" x="492" y="-168.3" font-family="Helvetica,sans-Serif" font-size="9.00">prior_hessian::helpers</text>
<text text-anchor="start" x="492" y="-158.3" font-family="Helvetica,sans-Serif" font-size="9.00">::compute_quadratic_from</text>
<text text-anchor="middle" x="545.5" y="-148.3" font-family="Helvetica,sans-Serif" font-size="9.00">_symmetric</text>
</a>
</g>
</g>
<!-- Node3&#45;&gt;Node4 -->
<g id="edge3" class="edge"><title>Node3&#45;&gt;Node4</title>
<path fill="none" stroke="midnightblue" d="M413.551,-98.5891C432.975,-108.277 459.469,-121.354 483,-132.5 486.171,-134.002 489.44,-135.535 492.741,-137.072"/>
<polygon fill="midnightblue" stroke="midnightblue" points="491.53,-140.367 502.076,-141.388 494.468,-134.014 491.53,-140.367"/>
</g>
<!-- Node6 -->
<g id="node6" class="node"><title>Node6</title>
<g id="a_node6"><a xlink:href="classprior__hessian_1_1MultivariateNormalDist.html#a99b496bd355946a89e6563375dcf5d7a" target="_top" xlink:title="prior_hessian::Multivariate\lNormalDist::num_dim">
<polygon fill="white" stroke="black" points="483,-94.5 483,-122.5 608,-122.5 608,-94.5 483,-94.5"/>
<text text-anchor="start" x="491" y="-111.3" font-family="Helvetica,sans-Serif" font-size="9.00">prior_hessian::Multivariate</text>
<text text-anchor="middle" x="545.5" y="-101.3" font-family="Helvetica,sans-Serif" font-size="9.00">NormalDist::num_dim</text>
</a>
</g>
</g>
<!-- Node3&#45;&gt;Node6 -->
<g id="edge5" class="edge"><title>Node3&#45;&gt;Node6</title>
<path fill="none" stroke="midnightblue" d="M447.429,-93.8477C455.674,-95.0923 464.184,-96.3768 472.58,-97.6442"/>
<polygon fill="midnightblue" stroke="midnightblue" points="472.33,-101.146 482.74,-99.1778 473.375,-94.2244 472.33,-101.146"/>
</g>
<!-- Node10 -->
<g id="node10" class="node"><title>Node10</title>
<g id="a_node10"><a xlink:href="classprior__hessian_1_1MultivariateNormalDist.html#a53e894d82ca08f285fc004b77301495d" target="_top" xlink:title="prior_hessian::Multivariate\lNormalDist::mu">
<polygon fill="white" stroke="black" points="483,-47.5 483,-75.5 608,-75.5 608,-47.5 483,-47.5"/>
<text text-anchor="start" x="491" y="-64.3" font-family="Helvetica,sans-Serif" font-size="9.00">prior_hessian::Multivariate</text>
<text text-anchor="middle" x="545.5" y="-54.3" font-family="Helvetica,sans-Serif" font-size="9.00">NormalDist::mu</text>
</a>
</g>
</g>
<!-- Node3&#45;&gt;Node10 -->
<g id="edge9" class="edge"><title>Node3&#45;&gt;Node10</title>
<path fill="none" stroke="midnightblue" d="M447.429,-75.5417C455.674,-74.3491 464.184,-73.1181 472.58,-71.9035"/>
<polygon fill="midnightblue" stroke="midnightblue" points="473.344,-75.3295 482.74,-70.4338 472.342,-68.4016 473.344,-75.3295"/>
</g>
<!-- Node11 -->
<g id="node11" class="node"><title>Node11</title>
<g id="a_node11"><a xlink:href="classprior__hessian_1_1MultivariateNormalDist.html#a38fa22fd87e3603397c433e33ce0c2be" target="_top" xlink:title="prior_hessian::Multivariate\lNormalDist::sigma_inv">
<polygon fill="white" stroke="black" points="483,-0.5 483,-28.5 608,-28.5 608,-0.5 483,-0.5"/>
<text text-anchor="start" x="491" y="-17.3" font-family="Helvetica,sans-Serif" font-size="9.00">prior_hessian::Multivariate</text>
<text text-anchor="middle" x="545.5" y="-7.3" font-family="Helvetica,sans-Serif" font-size="9.00">NormalDist::sigma_inv</text>
</a>
</g>
</g>
<!-- Node3&#45;&gt;Node11 -->
<g id="edge10" class="edge"><title>Node3&#45;&gt;Node11</title>
<path fill="none" stroke="midnightblue" d="M413.849,-70.4932C433.18,-61.0986 459.448,-48.6374 483,-38.5 487.747,-36.4567 492.73,-34.3886 497.719,-32.3678"/>
<polygon fill="midnightblue" stroke="midnightblue" points="499.269,-35.5176 507.258,-28.5589 496.673,-29.0167 499.269,-35.5176"/>
</g>
<!-- Node5 -->
<g id="node5" class="node"><title>Node5</title>
<g id="a_node5"><a xlink:href="namespaceprior__hessian.html#a706cb136b90f16dd920118eb59ef1ad6" target="_top" xlink:title="prior_hessian::square">
<polygon fill="white" stroke="black" points="653.5,-151.5 653.5,-169.5 759.5,-169.5 759.5,-151.5 653.5,-151.5"/>
<text text-anchor="middle" x="706.5" y="-158.3" font-family="Helvetica,sans-Serif" font-size="9.00">prior_hessian::square</text>
</a>
</g>
</g>
<!-- Node4&#45;&gt;Node5 -->
<g id="edge4" class="edge"><title>Node4&#45;&gt;Node5</title>
<path fill="none" stroke="midnightblue" d="M607.065,-160.5C618.875,-160.5 631.278,-160.5 643.145,-160.5"/>
<polygon fill="midnightblue" stroke="midnightblue" points="643.408,-164 653.408,-160.5 643.408,-157 643.408,-164"/>
</g>
<!-- Node7 -->
<g id="node7" class="node"><title>Node7</title>
<g id="a_node7"><a xlink:href="classprior__hessian_1_1MultivariateNormalDist.html#a492a872d5cfb8838225ac782b801a865" target="_top" xlink:title="prior_hessian::Multivariate\lNormalDist::lbound">
<polygon fill="white" stroke="black" points="644,-99.5 644,-127.5 769,-127.5 769,-99.5 644,-99.5"/>
<text text-anchor="start" x="652" y="-116.3" font-family="Helvetica,sans-Serif" font-size="9.00">prior_hessian::Multivariate</text>
<text text-anchor="middle" x="706.5" y="-106.3" font-family="Helvetica,sans-Serif" font-size="9.00">NormalDist::lbound</text>
</a>
</g>
</g>
<!-- Node6&#45;&gt;Node7 -->
<g id="edge6" class="edge"><title>Node6&#45;&gt;Node7</title>
<path fill="none" stroke="midnightblue" d="M608.429,-110.447C616.674,-110.707 625.184,-110.974 633.58,-111.238"/>
<polygon fill="midnightblue" stroke="midnightblue" points="633.635,-114.742 643.74,-111.558 633.855,-107.745 633.635,-114.742"/>
</g>
<!-- Node8 -->
<g id="node8" class="node"><title>Node8</title>
<g id="a_node8"><a xlink:href="classprior__hessian_1_1MultivariateNormalDist.html#a80a35218c42430f7a5162229779f1492" target="_top" xlink:title="prior_hessian::Multivariate\lNormalDist::ubound">
<polygon fill="white" stroke="black" points="644,-52.5 644,-80.5 769,-80.5 769,-52.5 644,-52.5"/>
<text text-anchor="start" x="652" y="-69.3" font-family="Helvetica,sans-Serif" font-size="9.00">prior_hessian::Multivariate</text>
<text text-anchor="middle" x="706.5" y="-59.3" font-family="Helvetica,sans-Serif" font-size="9.00">NormalDist::ubound</text>
</a>
</g>
</g>
<!-- Node6&#45;&gt;Node8 -->
<g id="edge7" class="edge"><title>Node6&#45;&gt;Node8</title>
<path fill="none" stroke="midnightblue" d="M599.887,-94.3978C613.463,-90.8118 628.181,-86.9239 642.198,-83.2213"/>
<polygon fill="midnightblue" stroke="midnightblue" points="643.479,-86.5029 652.254,-80.565 641.692,-79.7351 643.479,-86.5029"/>
</g>
<!-- Node9 -->
<g id="node9" class="node"><title>Node9</title>
<g id="a_node9"><a xlink:href="classprior__hessian_1_1MultivariateNormalDist.html#a9a2d3e50448adb594ed60a92d2942943" target="_top" xlink:title="prior_hessian::Multivariate\lNormalDist::num_params">
<polygon fill="white" stroke="black" points="805,-52.5 805,-80.5 930,-80.5 930,-52.5 805,-52.5"/>
<text text-anchor="start" x="813" y="-69.3" font-family="Helvetica,sans-Serif" font-size="9.00">prior_hessian::Multivariate</text>
<text text-anchor="middle" x="867.5" y="-59.3" font-family="Helvetica,sans-Serif" font-size="9.00">NormalDist::num_params</text>
</a>
</g>
</g>
<!-- Node8&#45;&gt;Node9 -->
<g id="edge8" class="edge"><title>Node8&#45;&gt;Node9</title>
<path fill="none" stroke="midnightblue" d="M769.429,-66.5C777.674,-66.5 786.184,-66.5 794.58,-66.5"/>
<polygon fill="midnightblue" stroke="midnightblue" points="794.74,-70.0001 804.74,-66.5 794.74,-63.0001 794.74,-70.0001"/>
</g>
</g>
</svg>
