<?xml version="1.0" encoding="UTF-8" standalone="no"?>
<!DOCTYPE svg PUBLIC "-//W3C//DTD SVG 1.1//EN"
 "http://www.w3.org/Graphics/SVG/1.1/DTD/svg11.dtd">
<!-- Generated by graphviz version 2.38.0 (20140413.2041)
 -->
<!-- Title: CompositeDist.h Pages: 1 -->
<svg width="1066pt" height="257pt"
 viewBox="0.00 0.00 1066.34 257.00" xmlns="http://www.w3.org/2000/svg" xmlns:xlink="http://www.w3.org/1999/xlink">
<g id="graph0" class="graph" transform="scale(1 1) rotate(0) translate(4 253)">
<title>CompositeDist.h</title>
<polygon fill="white" stroke="none" points="-4,4 -4,-253 1062.34,-253 1062.34,4 -4,4"/>
<!-- Node1 -->
<g id="node1" class="node"><title>Node1</title>
<polygon fill="#bfbfbf" stroke="black" points="416.837,-230.5 416.837,-248.5 500.837,-248.5 500.837,-230.5 416.837,-230.5"/>
<text text-anchor="middle" x="458.837" y="-237.3" font-family="Helvetica,sans-Serif" font-size="9.00">CompositeDist.h</text>
</g>
<!-- Node2 -->
<g id="node2" class="node"><title>Node2</title>
<polygon fill="white" stroke="#bfbfbf" points="725.837,-110.5 725.837,-128.5 763.837,-128.5 763.837,-110.5 725.837,-110.5"/>
<text text-anchor="middle" x="744.837" y="-117.3" font-family="Helvetica,sans-Serif" font-size="9.00">utility</text>
</g>
<!-- Node1&#45;&gt;Node2 -->
<g id="edge1" class="edge"><title>Node1&#45;&gt;Node2</title>
<path fill="none" stroke="midnightblue" d="M501.142,-239.391C550.387,-238.505 632.41,-230.903 690.837,-194 712.123,-180.556 727.798,-155.459 736.622,-138.37"/>
<polygon fill="midnightblue" stroke="midnightblue" points="739.983,-139.463 741.219,-128.94 733.69,-136.395 739.983,-139.463"/>
</g>
<!-- Node3 -->
<g id="node3" class="node"><title>Node3</title>
<polygon fill="white" stroke="#bfbfbf" points="19.8368,-170.5 19.8368,-188.5 69.8368,-188.5 69.8368,-170.5 19.8368,-170.5"/>
<text text-anchor="middle" x="44.8368" y="-177.3" font-family="Helvetica,sans-Serif" font-size="9.00">memory</text>
</g>
<!-- Node1&#45;&gt;Node3 -->
<g id="edge2" class="edge"><title>Node1&#45;&gt;Node3</title>
<path fill="none" stroke="midnightblue" d="M416.58,-237.146C345.733,-234.081 198.948,-224.321 78.8368,-194 76.6353,-193.444 74.3857,-192.78 72.1442,-192.05"/>
<polygon fill="midnightblue" stroke="midnightblue" points="73.1388,-188.687 62.5449,-188.544 70.7373,-195.262 73.1388,-188.687"/>
</g>
<!-- Node4 -->
<g id="node4" class="node"><title>Node4</title>
<polygon fill="white" stroke="#bfbfbf" points="88.3368,-170.5 88.3368,-188.5 171.337,-188.5 171.337,-170.5 88.3368,-170.5"/>
<text text-anchor="middle" x="129.837" y="-177.3" font-family="Helvetica,sans-Serif" font-size="9.00">unordered_map</text>
</g>
<!-- Node1&#45;&gt;Node4 -->
<g id="edge3" class="edge"><title>Node1&#45;&gt;Node4</title>
<path fill="none" stroke="midnightblue" d="M416.513,-233.166C361.623,-225.924 263.052,-211.818 179.837,-194 175.732,-193.121 171.461,-192.114 167.222,-191.054"/>
<polygon fill="midnightblue" stroke="midnightblue" points="168.038,-187.65 157.479,-188.522 166.278,-194.425 168.038,-187.65"/>
</g>
<!-- Node5 -->
<g id="node5" class="node"><title>Node5</title>
<polygon fill="white" stroke="#bfbfbf" points="189.337,-170.5 189.337,-188.5 266.337,-188.5 266.337,-170.5 189.337,-170.5"/>
<text text-anchor="middle" x="227.837" y="-177.3" font-family="Helvetica,sans-Serif" font-size="9.00">unordered_set</text>
</g>
<!-- Node1&#45;&gt;Node5 -->
<g id="edge4" class="edge"><title>Node1&#45;&gt;Node5</title>
<path fill="none" stroke="midnightblue" d="M423.794,-230.491C386.691,-221.903 326.469,-207.652 274.837,-194 271.636,-193.154 268.319,-192.252 264.997,-191.331"/>
<polygon fill="midnightblue" stroke="midnightblue" points="265.695,-187.892 255.121,-188.549 263.797,-194.629 265.695,-187.892"/>
</g>
<!-- Node6 -->
<g id="node6" class="node"><title>Node6</title>
<polygon fill="white" stroke="#bfbfbf" points="284.337,-170.5 284.337,-188.5 333.337,-188.5 333.337,-170.5 284.337,-170.5"/>
<text text-anchor="middle" x="308.837" y="-177.3" font-family="Helvetica,sans-Serif" font-size="9.00">sstream</text>
</g>
<!-- Node1&#45;&gt;Node6 -->
<g id="edge5" class="edge"><title>Node1&#45;&gt;Node6</title>
<path fill="none" stroke="midnightblue" d="M437.98,-230.435C412.377,-220.536 368.75,-203.666 339.371,-192.306"/>
<polygon fill="midnightblue" stroke="midnightblue" points="340.589,-189.025 330,-188.683 338.065,-195.554 340.589,-189.025"/>
</g>
<!-- Node7 -->
<g id="node7" class="node"><title>Node7</title>
<polygon fill="white" stroke="#bfbfbf" points="31.3368,-55.5 31.3368,-73.5 86.3368,-73.5 86.3368,-55.5 31.3368,-55.5"/>
<text text-anchor="middle" x="58.8368" y="-62.3" font-family="Helvetica,sans-Serif" font-size="9.00">armadillo</text>
</g>
<!-- Node1&#45;&gt;Node7 -->
<g id="edge6" class="edge"><title>Node1&#45;&gt;Node7</title>
<path fill="none" stroke="midnightblue" d="M416.561,-237.463C310.154,-234.418 37.7909,-223.764 10.8368,-194 -19.0219,-161.028 20.2442,-107.763 43.6597,-81.3701"/>
<polygon fill="midnightblue" stroke="midnightblue" points="46.418,-83.5407 50.5974,-73.8051 41.259,-78.8095 46.418,-83.5407"/>
</g>
<!-- Node8 -->
<g id="node8" class="node"><title>Node8</title>
<g id="a_node8"><a xlink:href="Meta_8h.html" target="_top" xlink:title="Enables the use of variadic templates in interesting ways. ">
<polygon fill="white" stroke="black" points="607.837,-110.5 607.837,-128.5 707.837,-128.5 707.837,-110.5 607.837,-110.5"/>
<text text-anchor="middle" x="657.837" y="-117.3" font-family="Helvetica,sans-Serif" font-size="9.00">PriorHessian/Meta.h</text>
</a>
</g>
</g>
<!-- Node1&#45;&gt;Node8 -->
<g id="edge7" class="edge"><title>Node1&#45;&gt;Node8</title>
<path fill="none" stroke="midnightblue" d="M500.868,-235.883C556.923,-231.416 651.585,-220.126 672.837,-194 685.768,-178.104 677.137,-153.982 668.564,-137.752"/>
<polygon fill="midnightblue" stroke="midnightblue" points="671.443,-135.737 663.427,-128.809 665.374,-139.224 671.443,-135.737"/>
</g>
<!-- Node12 -->
<g id="node12" class="node"><title>Node12</title>
<g id="a_node12"><a xlink:href="util_8h.html" target="_top" xlink:title="Utilities and namespace globals. ">
<polygon fill="white" stroke="black" points="327.837,-110.5 327.837,-128.5 419.837,-128.5 419.837,-110.5 327.837,-110.5"/>
<text text-anchor="middle" x="373.837" y="-117.3" font-family="Helvetica,sans-Serif" font-size="9.00">PriorHessian/util.h</text>
</a>
</g>
</g>
<!-- Node1&#45;&gt;Node12 -->
<g id="edge11" class="edge"><title>Node1&#45;&gt;Node12</title>
<path fill="none" stroke="midnightblue" d="M431.84,-230.37C414.267,-223.59 392.513,-212.071 380.837,-194 370.201,-177.539 369.773,-154.524 371.153,-138.655"/>
<polygon fill="midnightblue" stroke="midnightblue" points="374.648,-138.902 372.357,-128.558 367.697,-138.073 374.648,-138.902"/>
</g>
<!-- Node18 -->
<g id="node18" class="node"><title>Node18</title>
<g id="a_node18"><a xlink:href="PriorHessianError_8h.html" target="_top" xlink:title="The Exception classes for the PriorHessian library. ">
<polygon fill="white" stroke="black" points="549.837,-55.5 549.837,-73.5 647.837,-73.5 647.837,-55.5 549.837,-55.5"/>
<text text-anchor="middle" x="598.837" y="-62.3" font-family="Helvetica,sans-Serif" font-size="9.00">PriorHessianError.h</text>
</a>
</g>
</g>
<!-- Node1&#45;&gt;Node18 -->
<g id="edge21" class="edge"><title>Node1&#45;&gt;Node18</title>
<path fill="none" stroke="midnightblue" d="M501.018,-237.456C607.188,-234.393 878.946,-223.701 905.837,-194 914.143,-184.826 919.025,-126.098 904.837,-110 869.814,-70.2615 726.9,-80.8208 657.901,-73.9051"/>
<polygon fill="midnightblue" stroke="midnightblue" points="658.232,-70.4197 647.884,-72.6927 657.391,-77.369 658.232,-70.4197"/>
</g>
<!-- Node20 -->
<g id="node20" class="node"><title>Node20</title>
<g id="a_node20"><a xlink:href="UnivariateDist_8h.html" target="_top" xlink:title="UnivariateDist base class. ">
<polygon fill="white" stroke="black" points="390.337,-170.5 390.337,-188.5 527.337,-188.5 527.337,-170.5 390.337,-170.5"/>
<text text-anchor="middle" x="458.837" y="-177.3" font-family="Helvetica,sans-Serif" font-size="9.00">PriorHessian/UnivariateDist.h</text>
</a>
</g>
</g>
<!-- Node1&#45;&gt;Node20 -->
<g id="edge22" class="edge"><title>Node1&#45;&gt;Node20</title>
<path fill="none" stroke="midnightblue" d="M458.837,-230.435C458.837,-222.389 458.837,-209.739 458.837,-199.185"/>
<polygon fill="midnightblue" stroke="midnightblue" points="462.337,-198.872 458.837,-188.872 455.337,-198.872 462.337,-198.872"/>
</g>
<!-- Node22 -->
<g id="node22" class="node"><title>Node22</title>
<g id="a_node22"><a xlink:href="MultivariateDist_8h.html" target="_top" xlink:title="MultivariateDist base class. ">
<polygon fill="white" stroke="black" points="545.337,-165.5 545.337,-193.5 664.337,-193.5 664.337,-165.5 545.337,-165.5"/>
<text text-anchor="start" x="553.337" y="-182.3" font-family="Helvetica,sans-Serif" font-size="9.00">PriorHessian/Multivariate</text>
<text text-anchor="middle" x="604.837" y="-172.3" font-family="Helvetica,sans-Serif" font-size="9.00">Dist.h</text>
</a>
</g>
</g>
<!-- Node1&#45;&gt;Node22 -->
<g id="edge26" class="edge"><title>Node1&#45;&gt;Node22</title>
<path fill="none" stroke="midnightblue" d="M479.137,-230.435C500.655,-221.887 535.252,-208.143 562.708,-197.236"/>
<polygon fill="midnightblue" stroke="midnightblue" points="564.087,-200.454 572.089,-193.51 561.503,-193.949 564.087,-200.454"/>
</g>
<!-- Node23 -->
<g id="node23" class="node"><title>Node23</title>
<g id="a_node23"><a xlink:href="BoundsAdaptedDist_8h.html" target="_top" xlink:title="Functions and type&#45;traits to enable easy wrapping of distributions in bounds&#45;modifiable adapters...">
<polygon fill="white" stroke="black" points="758.837,-165.5 758.837,-193.5 896.837,-193.5 896.837,-165.5 758.837,-165.5"/>
<text text-anchor="start" x="766.837" y="-182.3" font-family="Helvetica,sans-Serif" font-size="9.00">PriorHessian/BoundsAdapted</text>
<text text-anchor="middle" x="827.837" y="-172.3" font-family="Helvetica,sans-Serif" font-size="9.00">Dist.h</text>
</a>
</g>
</g>
<!-- Node1&#45;&gt;Node23 -->
<g id="edge30" class="edge"><title>Node1&#45;&gt;Node23</title>
<path fill="none" stroke="midnightblue" d="M501.01,-232.031C556.813,-223.45 658.24,-207.779 744.837,-194 746.094,-193.8 747.362,-193.598 748.638,-193.394"/>
<polygon fill="midnightblue" stroke="midnightblue" points="749.231,-196.844 758.551,-191.806 748.123,-189.932 749.231,-196.844"/>
</g>
<!-- Node26 -->
<g id="node26" class="node"><title>Node26</title>
<polygon fill="white" stroke="#bfbfbf" points="953.337,-165.5 953.337,-193.5 1058.34,-193.5 1058.34,-165.5 953.337,-165.5"/>
<text text-anchor="start" x="961.337" y="-182.3" font-family="Helvetica,sans-Serif" font-size="9.00">PriorHessian/AnyRng</text>
<text text-anchor="middle" x="1005.84" y="-172.3" font-family="Helvetica,sans-Serif" font-size="9.00">/AnyRng.h</text>
</g>
<!-- Node1&#45;&gt;Node26 -->
<g id="edge35" class="edge"><title>Node1&#45;&gt;Node26</title>
<path fill="none" stroke="midnightblue" d="M501.071,-236.1C584.875,-231.003 777.989,-217.593 938.837,-194 940.304,-193.785 941.788,-193.558 943.284,-193.322"/>
<polygon fill="midnightblue" stroke="midnightblue" points="943.982,-196.754 953.262,-191.643 942.82,-189.851 943.982,-196.754"/>
</g>
<!-- Node9 -->
<g id="node9" class="node"><title>Node9</title>
<polygon fill="white" stroke="#bfbfbf" points="753.837,-55.5 753.837,-73.5 809.837,-73.5 809.837,-55.5 753.837,-55.5"/>
<text text-anchor="middle" x="781.837" y="-62.3" font-family="Helvetica,sans-Serif" font-size="9.00">functional</text>
</g>
<!-- Node8&#45;&gt;Node9 -->
<g id="edge8" class="edge"><title>Node8&#45;&gt;Node9</title>
<path fill="none" stroke="midnightblue" d="M676.67,-110.45C697.063,-101.734 729.825,-87.7306 753.366,-77.6691"/>
<polygon fill="midnightblue" stroke="midnightblue" points="755.007,-80.774 762.827,-73.6253 752.256,-74.3373 755.007,-80.774"/>
</g>
<!-- Node10 -->
<g id="node10" class="node"><title>Node10</title>
<polygon fill="white" stroke="#bfbfbf" points="665.837,-55.5 665.837,-73.5 735.837,-73.5 735.837,-55.5 665.837,-55.5"/>
<text text-anchor="middle" x="700.837" y="-62.3" font-family="Helvetica,sans-Serif" font-size="9.00">initializer_list</text>
</g>
<!-- Node8&#45;&gt;Node10 -->
<g id="edge9" class="edge"><title>Node8&#45;&gt;Node10</title>
<path fill="none" stroke="midnightblue" d="M664.556,-110.219C670.777,-102.551 680.198,-90.9387 687.881,-81.4691"/>
<polygon fill="midnightblue" stroke="midnightblue" points="690.724,-83.5204 694.306,-73.5496 685.288,-79.11 690.724,-83.5204"/>
</g>
<!-- Node11 -->
<g id="node11" class="node"><title>Node11</title>
<polygon fill="white" stroke="#bfbfbf" points="488.337,-55.5 488.337,-73.5 531.337,-73.5 531.337,-55.5 488.337,-55.5"/>
<text text-anchor="middle" x="509.837" y="-62.3" font-family="Helvetica,sans-Serif" font-size="9.00">cstdint</text>
</g>
<!-- Node8&#45;&gt;Node11 -->
<g id="edge10" class="edge"><title>Node8&#45;&gt;Node11</title>
<path fill="none" stroke="midnightblue" d="M635.359,-110.45C610.296,-101.475 569.58,-86.8944 541.346,-76.7835"/>
<polygon fill="midnightblue" stroke="midnightblue" points="542.155,-73.3558 531.56,-73.2794 539.795,-79.946 542.155,-73.3558"/>
</g>
<!-- Node12&#45;&gt;Node7 -->
<g id="edge17" class="edge"><title>Node12&#45;&gt;Node7</title>
<path fill="none" stroke="midnightblue" d="M327.696,-110.737C265.116,-100.207 154.513,-81.598 96.5991,-71.8537"/>
<polygon fill="midnightblue" stroke="midnightblue" points="96.864,-68.3491 86.4218,-70.1413 95.7025,-75.2521 96.864,-68.3491"/>
</g>
<!-- Node13 -->
<g id="node13" class="node"><title>Node13</title>
<polygon fill="white" stroke="#bfbfbf" points="390.337,-55.5 390.337,-73.5 431.337,-73.5 431.337,-55.5 390.337,-55.5"/>
<text text-anchor="middle" x="410.837" y="-62.3" font-family="Helvetica,sans-Serif" font-size="9.00">cmath</text>
</g>
<!-- Node12&#45;&gt;Node13 -->
<g id="edge12" class="edge"><title>Node12&#45;&gt;Node13</title>
<path fill="none" stroke="midnightblue" d="M379.618,-110.219C384.916,-102.629 392.913,-91.1753 399.486,-81.7597"/>
<polygon fill="midnightblue" stroke="midnightblue" points="402.363,-83.7527 405.217,-73.5496 396.623,-79.7457 402.363,-83.7527"/>
</g>
<!-- Node14 -->
<g id="node14" class="node"><title>Node14</title>
<polygon fill="white" stroke="#bfbfbf" points="477.337,-0.5 477.337,-18.5 516.337,-18.5 516.337,-0.5 477.337,-0.5"/>
<text text-anchor="middle" x="496.837" y="-7.3" font-family="Helvetica,sans-Serif" font-size="9.00">string</text>
</g>
<!-- Node12&#45;&gt;Node14 -->
<g id="edge13" class="edge"><title>Node12&#45;&gt;Node14</title>
<path fill="none" stroke="midnightblue" d="M387.944,-110.389C401.817,-102.099 423.263,-88.4268 439.837,-74 456.519,-59.4785 473.13,-40.2976 484.079,-26.8308"/>
<polygon fill="midnightblue" stroke="midnightblue" points="486.896,-28.9114 490.4,-18.9127 481.426,-24.5442 486.896,-28.9114"/>
</g>
<!-- Node15 -->
<g id="node15" class="node"><title>Node15</title>
<polygon fill="white" stroke="#bfbfbf" points="189.837,-55.5 189.837,-73.5 237.837,-73.5 237.837,-55.5 189.837,-55.5"/>
<text text-anchor="middle" x="213.837" y="-62.3" font-family="Helvetica,sans-Serif" font-size="9.00">random</text>
</g>
<!-- Node12&#45;&gt;Node15 -->
<g id="edge14" class="edge"><title>Node12&#45;&gt;Node15</title>
<path fill="none" stroke="midnightblue" d="M349.536,-110.45C322.361,-101.449 278.162,-86.8076 247.628,-76.6934"/>
<polygon fill="midnightblue" stroke="midnightblue" points="248.435,-73.2737 237.842,-73.4517 246.234,-79.9187 248.435,-73.2737"/>
</g>
<!-- Node16 -->
<g id="node16" class="node"><title>Node16</title>
<polygon fill="white" stroke="#bfbfbf" points="256.337,-55.5 256.337,-73.5 297.337,-73.5 297.337,-55.5 256.337,-55.5"/>
<text text-anchor="middle" x="276.837" y="-62.3" font-family="Helvetica,sans-Serif" font-size="9.00">vector</text>
</g>
<!-- Node12&#45;&gt;Node16 -->
<g id="edge15" class="edge"><title>Node12&#45;&gt;Node16</title>
<path fill="none" stroke="midnightblue" d="M359.105,-110.45C343.579,-101.968 318.889,-88.477 300.604,-78.486"/>
<polygon fill="midnightblue" stroke="midnightblue" points="302.161,-75.3488 291.708,-73.6253 298.805,-81.4917 302.161,-75.3488"/>
</g>
<!-- Node17 -->
<g id="node17" class="node"><title>Node17</title>
<polygon fill="white" stroke="#bfbfbf" points="315.837,-55.5 315.837,-73.5 371.837,-73.5 371.837,-55.5 315.837,-55.5"/>
<text text-anchor="middle" x="343.837" y="-62.3" font-family="Helvetica,sans-Serif" font-size="9.00">typeindex</text>
</g>
<!-- Node12&#45;&gt;Node17 -->
<g id="edge16" class="edge"><title>Node12&#45;&gt;Node17</title>
<path fill="none" stroke="midnightblue" d="M369.149,-110.219C364.942,-102.786 358.636,-91.646 353.371,-82.3446"/>
<polygon fill="midnightblue" stroke="midnightblue" points="356.365,-80.528 348.393,-73.5496 350.273,-83.9763 356.365,-80.528"/>
</g>
<!-- Node12&#45;&gt;Node18 -->
<g id="edge18" class="edge"><title>Node12&#45;&gt;Node18</title>
<path fill="none" stroke="midnightblue" d="M408.009,-110.45C447.274,-101.201 511.811,-85.9994 554.81,-75.8708"/>
<polygon fill="midnightblue" stroke="midnightblue" points="555.781,-79.238 564.712,-73.5383 554.176,-72.4244 555.781,-79.238"/>
</g>
<!-- Node18&#45;&gt;Node14 -->
<g id="edge20" class="edge"><title>Node18&#45;&gt;Node14</title>
<path fill="none" stroke="midnightblue" d="M583.345,-55.4504C566.945,-46.9286 540.818,-33.3532 521.564,-23.3487"/>
<polygon fill="midnightblue" stroke="midnightblue" points="522.962,-20.1304 512.474,-18.6253 519.734,-26.3419 522.962,-20.1304"/>
</g>
<!-- Node19 -->
<g id="node19" class="node"><title>Node19</title>
<polygon fill="white" stroke="#bfbfbf" points="570.837,-0.5 570.837,-18.5 626.837,-18.5 626.837,-0.5 570.837,-0.5"/>
<text text-anchor="middle" x="598.837" y="-7.3" font-family="Helvetica,sans-Serif" font-size="9.00">exception</text>
</g>
<!-- Node18&#45;&gt;Node19 -->
<g id="edge19" class="edge"><title>Node18&#45;&gt;Node19</title>
<path fill="none" stroke="midnightblue" d="M598.837,-55.2188C598.837,-48.1769 598.837,-37.8083 598.837,-28.8277"/>
<polygon fill="midnightblue" stroke="midnightblue" points="602.337,-28.5495 598.837,-18.5496 595.337,-28.5496 602.337,-28.5495"/>
</g>
<!-- Node20&#45;&gt;Node8 -->
<g id="edge24" class="edge"><title>Node20&#45;&gt;Node8</title>
<path fill="none" stroke="midnightblue" d="M486.507,-170.435C521.31,-160.292 581.217,-142.831 620.173,-131.477"/>
<polygon fill="midnightblue" stroke="midnightblue" points="621.46,-134.748 630.082,-128.589 619.502,-128.027 621.46,-134.748"/>
</g>
<!-- Node20&#45;&gt;Node12 -->
<g id="edge23" class="edge"><title>Node20&#45;&gt;Node12</title>
<path fill="none" stroke="midnightblue" d="M447.018,-170.435C433.393,-161.138 410.759,-145.694 394.265,-134.439"/>
<polygon fill="midnightblue" stroke="midnightblue" points="396.062,-131.428 385.829,-128.683 392.117,-137.211 396.062,-131.428"/>
</g>
<!-- Node21 -->
<g id="node21" class="node"><title>Node21</title>
<g id="a_node21"><a xlink:href="BaseDist_8h.html" target="_top" xlink:title="The Base classes for UnivariateDist and MultivariateDist. ">
<polygon fill="white" stroke="black" points="461.837,-110.5 461.837,-128.5 577.837,-128.5 577.837,-110.5 461.837,-110.5"/>
<text text-anchor="middle" x="519.837" y="-117.3" font-family="Helvetica,sans-Serif" font-size="9.00">PriorHessian/BaseDist.h</text>
</a>
</g>
</g>
<!-- Node20&#45;&gt;Node21 -->
<g id="edge25" class="edge"><title>Node20&#45;&gt;Node21</title>
<path fill="none" stroke="midnightblue" d="M467.319,-170.435C476.681,-161.533 491.971,-146.995 503.645,-135.895"/>
<polygon fill="midnightblue" stroke="midnightblue" points="506.197,-138.299 511.032,-128.872 501.373,-133.226 506.197,-138.299"/>
</g>
<!-- Node22&#45;&gt;Node8 -->
<g id="edge28" class="edge"><title>Node22&#45;&gt;Node8</title>
<path fill="none" stroke="midnightblue" d="M616.863,-165.339C624.72,-156.741 635.025,-145.463 643.335,-136.37"/>
<polygon fill="midnightblue" stroke="midnightblue" points="646.116,-138.515 650.278,-128.771 640.949,-133.793 646.116,-138.515"/>
</g>
<!-- Node22&#45;&gt;Node12 -->
<g id="edge27" class="edge"><title>Node22&#45;&gt;Node12</title>
<path fill="none" stroke="midnightblue" d="M552.996,-165.484C511.601,-155.09 454.341,-140.713 415.794,-131.035"/>
<polygon fill="midnightblue" stroke="midnightblue" points="416.484,-127.599 405.933,-128.559 414.779,-134.389 416.484,-127.599"/>
</g>
<!-- Node22&#45;&gt;Node21 -->
<g id="edge29" class="edge"><title>Node22&#45;&gt;Node21</title>
<path fill="none" stroke="midnightblue" d="M585.549,-165.339C572.048,-156.127 554.04,-143.839 540.29,-134.456"/>
<polygon fill="midnightblue" stroke="midnightblue" points="542.192,-131.517 531.959,-128.771 538.246,-137.299 542.192,-131.517"/>
</g>
<!-- Node23&#45;&gt;Node2 -->
<g id="edge31" class="edge"><title>Node23&#45;&gt;Node2</title>
<path fill="none" stroke="midnightblue" d="M809.003,-165.339C795.945,-156.215 778.57,-144.072 765.193,-134.725"/>
<polygon fill="midnightblue" stroke="midnightblue" points="766.875,-131.631 756.674,-128.771 762.866,-137.368 766.875,-131.631"/>
</g>
<!-- Node23&#45;&gt;Node8 -->
<g id="edge34" class="edge"><title>Node23&#45;&gt;Node8</title>
<path fill="none" stroke="midnightblue" d="M789.685,-165.484C760.216,-155.43 719.822,-141.648 691.536,-131.997"/>
<polygon fill="midnightblue" stroke="midnightblue" points="692.3,-128.56 681.705,-128.643 690.04,-135.185 692.3,-128.56"/>
</g>
<!-- Node24 -->
<g id="node24" class="node"><title>Node24</title>
<polygon fill="white" stroke="#bfbfbf" points="782.337,-110.5 782.337,-128.5 819.337,-128.5 819.337,-110.5 782.337,-110.5"/>
<text text-anchor="middle" x="800.837" y="-117.3" font-family="Helvetica,sans-Serif" font-size="9.00">tuple</text>
</g>
<!-- Node23&#45;&gt;Node24 -->
<g id="edge32" class="edge"><title>Node23&#45;&gt;Node24</title>
<path fill="none" stroke="midnightblue" d="M821.71,-165.339C817.953,-157.267 813.096,-146.834 809.013,-138.063"/>
<polygon fill="midnightblue" stroke="midnightblue" points="812.081,-136.36 804.687,-128.771 805.735,-139.314 812.081,-136.36"/>
</g>
<!-- Node25 -->
<g id="node25" class="node"><title>Node25</title>
<polygon fill="white" stroke="#bfbfbf" points="837.337,-110.5 837.337,-128.5 896.337,-128.5 896.337,-110.5 837.337,-110.5"/>
<text text-anchor="middle" x="866.837" y="-117.3" font-family="Helvetica,sans-Serif" font-size="9.00">type_traits</text>
</g>
<!-- Node23&#45;&gt;Node25 -->
<g id="edge33" class="edge"><title>Node23&#45;&gt;Node25</title>
<path fill="none" stroke="midnightblue" d="M836.686,-165.339C842.291,-157.004 849.588,-146.151 855.6,-137.211"/>
<polygon fill="midnightblue" stroke="midnightblue" points="858.599,-139.023 861.275,-128.771 852.79,-135.117 858.599,-139.023"/>
</g>
</g>
</svg>
