<?xml version="1.0" encoding="UTF-8" standalone="no"?>
<!DOCTYPE svg PUBLIC "-//W3C//DTD SVG 1.1//EN"
 "http://www.w3.org/Graphics/SVG/1.1/DTD/svg11.dtd">
<!-- Generated by graphviz version 2.38.0 (20140413.2041)
 -->
<!-- Title: CopulaDist.h Pages: 1 -->
<svg width="817pt" height="257pt"
 viewBox="0.00 0.00 816.50 257.00" xmlns="http://www.w3.org/2000/svg" xmlns:xlink="http://www.w3.org/1999/xlink">
<g id="graph0" class="graph" transform="scale(1 1) rotate(0) translate(4 253)">
<title>CopulaDist.h</title>
<polygon fill="white" stroke="none" points="-4,4 -4,-253 812.5,-253 812.5,4 -4,4"/>
<!-- Node1 -->
<g id="node1" class="node"><title>Node1</title>
<polygon fill="#bfbfbf" stroke="black" points="461,-230.5 461,-248.5 531,-248.5 531,-230.5 461,-230.5"/>
<text text-anchor="middle" x="496" y="-237.3" font-family="Helvetica,sans-Serif" font-size="9.00">CopulaDist.h</text>
</g>
<!-- Node2 -->
<g id="node2" class="node"><title>Node2</title>
<g id="a_node2"><a xlink:href="util_8h.html" target="_top" xlink:title="Utilities and namespace globals. ">
<polygon fill="white" stroke="black" points="249,-110.5 249,-128.5 341,-128.5 341,-110.5 249,-110.5"/>
<text text-anchor="middle" x="295" y="-117.3" font-family="Helvetica,sans-Serif" font-size="9.00">PriorHessian/util.h</text>
</a>
</g>
</g>
<!-- Node1&#45;&gt;Node2 -->
<g id="edge1" class="edge"><title>Node1&#45;&gt;Node2</title>
<path fill="none" stroke="midnightblue" d="M460.697,-236.439C405.628,-232.405 303.262,-221.342 281,-194 268.095,-178.151 276.342,-154.018 284.615,-137.772"/>
<polygon fill="midnightblue" stroke="midnightblue" points="287.791,-139.263 289.581,-128.821 281.669,-135.868 287.791,-139.263"/>
</g>
<!-- Node11 -->
<g id="node11" class="node"><title>Node11</title>
<g id="a_node11"><a xlink:href="Meta_8h.html" target="_top" xlink:title="Enables the use of variadic templates in interesting ways. ">
<polygon fill="white" stroke="black" points="520,-110.5 520,-128.5 620,-128.5 620,-110.5 520,-110.5"/>
<text text-anchor="middle" x="570" y="-117.3" font-family="Helvetica,sans-Serif" font-size="9.00">PriorHessian/Meta.h</text>
</a>
</g>
</g>
<!-- Node1&#45;&gt;Node11 -->
<g id="edge11" class="edge"><title>Node1&#45;&gt;Node11</title>
<path fill="none" stroke="midnightblue" d="M523.593,-230.469C541.119,-223.777 562.428,-212.321 573,-194 582.657,-177.266 579.852,-154.643 575.943,-138.934"/>
<polygon fill="midnightblue" stroke="midnightblue" points="579.186,-137.547 573.063,-128.901 572.458,-139.478 579.186,-137.547"/>
</g>
<!-- Node15 -->
<g id="node15" class="node"><title>Node15</title>
<g id="a_node15"><a xlink:href="UnivariateDist_8h.html" target="_top" xlink:title="UnivariateDist base class. ">
<polygon fill="white" stroke="black" points="427.5,-170.5 427.5,-188.5 564.5,-188.5 564.5,-170.5 427.5,-170.5"/>
<text text-anchor="middle" x="496" y="-177.3" font-family="Helvetica,sans-Serif" font-size="9.00">PriorHessian/UnivariateDist.h</text>
</a>
</g>
</g>
<!-- Node1&#45;&gt;Node15 -->
<g id="edge15" class="edge"><title>Node1&#45;&gt;Node15</title>
<path fill="none" stroke="midnightblue" d="M496,-230.435C496,-222.389 496,-209.739 496,-199.185"/>
<polygon fill="midnightblue" stroke="midnightblue" points="499.5,-198.872 496,-188.872 492.5,-198.872 499.5,-198.872"/>
</g>
<!-- Node17 -->
<g id="node17" class="node"><title>Node17</title>
<g id="a_node17"><a xlink:href="MultivariateDist_8h.html" target="_top" xlink:title="MultivariateDist base class. ">
<polygon fill="white" stroke="black" points="290.5,-165.5 290.5,-193.5 409.5,-193.5 409.5,-165.5 290.5,-165.5"/>
<text text-anchor="start" x="298.5" y="-182.3" font-family="Helvetica,sans-Serif" font-size="9.00">PriorHessian/Multivariate</text>
<text text-anchor="middle" x="350" y="-172.3" font-family="Helvetica,sans-Serif" font-size="9.00">Dist.h</text>
</a>
</g>
</g>
<!-- Node1&#45;&gt;Node17 -->
<g id="edge19" class="edge"><title>Node1&#45;&gt;Node17</title>
<path fill="none" stroke="midnightblue" d="M475.699,-230.435C454.182,-221.887 419.584,-208.143 392.129,-197.236"/>
<polygon fill="midnightblue" stroke="midnightblue" points="393.334,-193.949 382.748,-193.51 390.75,-200.454 393.334,-193.949"/>
</g>
<!-- Node18 -->
<g id="node18" class="node"><title>Node18</title>
<g id="a_node18"><a xlink:href="BoundsAdaptedDist_8h.html" target="_top" xlink:title="Functions and type&#45;traits to enable easy wrapping of distributions in bounds&#45;modifiable adapters...">
<polygon fill="white" stroke="black" points="621,-165.5 621,-193.5 759,-193.5 759,-165.5 621,-165.5"/>
<text text-anchor="start" x="629" y="-182.3" font-family="Helvetica,sans-Serif" font-size="9.00">PriorHessian/BoundsAdapted</text>
<text text-anchor="middle" x="690" y="-172.3" font-family="Helvetica,sans-Serif" font-size="9.00">Dist.h</text>
</a>
</g>
</g>
<!-- Node1&#45;&gt;Node18 -->
<g id="edge23" class="edge"><title>Node1&#45;&gt;Node18</title>
<path fill="none" stroke="midnightblue" d="M522.975,-230.435C552.316,-221.663 599.96,-207.419 636.868,-196.385"/>
<polygon fill="midnightblue" stroke="midnightblue" points="637.907,-199.727 646.485,-193.51 635.902,-193.021 637.907,-199.727"/>
</g>
<!-- Node3 -->
<g id="node3" class="node"><title>Node3</title>
<polygon fill="white" stroke="#bfbfbf" points="389.5,-55.5 389.5,-73.5 430.5,-73.5 430.5,-55.5 389.5,-55.5"/>
<text text-anchor="middle" x="410" y="-62.3" font-family="Helvetica,sans-Serif" font-size="9.00">cmath</text>
</g>
<!-- Node2&#45;&gt;Node3 -->
<g id="edge2" class="edge"><title>Node2&#45;&gt;Node3</title>
<path fill="none" stroke="midnightblue" d="M312.466,-110.45C331.21,-101.812 361.222,-87.9803 383.008,-77.9396"/>
<polygon fill="midnightblue" stroke="midnightblue" points="384.753,-80.9896 392.37,-73.6253 381.823,-74.6323 384.753,-80.9896"/>
</g>
<!-- Node4 -->
<g id="node4" class="node"><title>Node4</title>
<polygon fill="white" stroke="#bfbfbf" points="267.5,-0.5 267.5,-18.5 306.5,-18.5 306.5,-0.5 267.5,-0.5"/>
<text text-anchor="middle" x="287" y="-7.3" font-family="Helvetica,sans-Serif" font-size="9.00">string</text>
</g>
<!-- Node2&#45;&gt;Node4 -->
<g id="edge3" class="edge"><title>Node2&#45;&gt;Node4</title>
<path fill="none" stroke="midnightblue" d="M340.773,-110.434C378.323,-102.774 427.156,-90.0564 439,-74 444.013,-67.2043 444.063,-61.7581 439,-55 424.32,-35.4056 356.507,-21.5381 316.589,-14.9119"/>
<polygon fill="midnightblue" stroke="midnightblue" points="317.043,-11.4399 306.614,-13.3101 315.933,-18.3514 317.043,-11.4399"/>
</g>
<!-- Node5 -->
<g id="node5" class="node"><title>Node5</title>
<polygon fill="white" stroke="#bfbfbf" points="116,-55.5 116,-73.5 164,-73.5 164,-55.5 116,-55.5"/>
<text text-anchor="middle" x="140" y="-62.3" font-family="Helvetica,sans-Serif" font-size="9.00">random</text>
</g>
<!-- Node2&#45;&gt;Node5 -->
<g id="edge4" class="edge"><title>Node2&#45;&gt;Node5</title>
<path fill="none" stroke="midnightblue" d="M271.459,-110.45C245.209,-101.475 202.562,-86.8922 172.992,-76.7813"/>
<polygon fill="midnightblue" stroke="midnightblue" points="174.103,-73.4621 163.508,-73.5383 171.838,-80.0856 174.103,-73.4621"/>
</g>
<!-- Node6 -->
<g id="node6" class="node"><title>Node6</title>
<polygon fill="white" stroke="#bfbfbf" points="182.5,-55.5 182.5,-73.5 223.5,-73.5 223.5,-55.5 182.5,-55.5"/>
<text text-anchor="middle" x="203" y="-62.3" font-family="Helvetica,sans-Serif" font-size="9.00">vector</text>
</g>
<!-- Node2&#45;&gt;Node6 -->
<g id="edge5" class="edge"><title>Node2&#45;&gt;Node6</title>
<path fill="none" stroke="midnightblue" d="M281.027,-110.45C266.437,-102.045 243.314,-88.7241 226.021,-78.7618"/>
<polygon fill="midnightblue" stroke="midnightblue" points="227.516,-75.5844 217.104,-73.6253 224.022,-81.6499 227.516,-75.5844"/>
</g>
<!-- Node7 -->
<g id="node7" class="node"><title>Node7</title>
<polygon fill="white" stroke="#bfbfbf" points="242,-55.5 242,-73.5 298,-73.5 298,-55.5 242,-55.5"/>
<text text-anchor="middle" x="270" y="-62.3" font-family="Helvetica,sans-Serif" font-size="9.00">typeindex</text>
</g>
<!-- Node2&#45;&gt;Node7 -->
<g id="edge6" class="edge"><title>Node2&#45;&gt;Node7</title>
<path fill="none" stroke="midnightblue" d="M291.094,-110.219C287.624,-102.864 282.443,-91.8801 278.084,-82.639"/>
<polygon fill="midnightblue" stroke="midnightblue" points="281.229,-81.1007 273.797,-73.5496 274.898,-84.0871 281.229,-81.1007"/>
</g>
<!-- Node8 -->
<g id="node8" class="node"><title>Node8</title>
<polygon fill="white" stroke="#bfbfbf" points="316.5,-55.5 316.5,-73.5 371.5,-73.5 371.5,-55.5 316.5,-55.5"/>
<text text-anchor="middle" x="344" y="-62.3" font-family="Helvetica,sans-Serif" font-size="9.00">armadillo</text>
</g>
<!-- Node2&#45;&gt;Node8 -->
<g id="edge7" class="edge"><title>Node2&#45;&gt;Node8</title>
<path fill="none" stroke="midnightblue" d="M302.656,-110.219C309.818,-102.473 320.701,-90.7013 329.503,-81.1799"/>
<polygon fill="midnightblue" stroke="midnightblue" points="332.339,-83.2683 336.558,-73.5496 327.199,-78.5163 332.339,-83.2683"/>
</g>
<!-- Node9 -->
<g id="node9" class="node"><title>Node9</title>
<g id="a_node9"><a xlink:href="PriorHessianError_8h.html" target="_top" xlink:title="The Exception classes for the PriorHessian library. ">
<polygon fill="white" stroke="black" points="0,-55.5 0,-73.5 98,-73.5 98,-55.5 0,-55.5"/>
<text text-anchor="middle" x="49" y="-62.3" font-family="Helvetica,sans-Serif" font-size="9.00">PriorHessianError.h</text>
</a>
</g>
</g>
<!-- Node2&#45;&gt;Node9 -->
<g id="edge8" class="edge"><title>Node2&#45;&gt;Node9</title>
<path fill="none" stroke="midnightblue" d="M257.638,-110.45C214.436,-101.143 143.254,-85.8067 96.2463,-75.6791"/>
<polygon fill="midnightblue" stroke="midnightblue" points="96.8228,-72.223 86.3099,-73.5383 95.3484,-79.066 96.8228,-72.223"/>
</g>
<!-- Node9&#45;&gt;Node4 -->
<g id="edge10" class="edge"><title>Node9&#45;&gt;Node4</title>
<path fill="none" stroke="midnightblue" d="M85.1471,-55.4504C132.239,-44.9635 213.698,-26.8236 257.348,-17.1032"/>
<polygon fill="midnightblue" stroke="midnightblue" points="258.334,-20.4695 267.334,-14.8795 256.812,-13.6369 258.334,-20.4695"/>
</g>
<!-- Node10 -->
<g id="node10" class="node"><title>Node10</title>
<polygon fill="white" stroke="#bfbfbf" points="21,-0.5 21,-18.5 77,-18.5 77,-0.5 21,-0.5"/>
<text text-anchor="middle" x="49" y="-7.3" font-family="Helvetica,sans-Serif" font-size="9.00">exception</text>
</g>
<!-- Node9&#45;&gt;Node10 -->
<g id="edge9" class="edge"><title>Node9&#45;&gt;Node10</title>
<path fill="none" stroke="midnightblue" d="M49,-55.2188C49,-48.1769 49,-37.8083 49,-28.8277"/>
<polygon fill="midnightblue" stroke="midnightblue" points="52.5001,-28.5495 49,-18.5496 45.5001,-28.5496 52.5001,-28.5495"/>
</g>
<!-- Node12 -->
<g id="node12" class="node"><title>Node12</title>
<polygon fill="white" stroke="#bfbfbf" points="487,-55.5 487,-73.5 543,-73.5 543,-55.5 487,-55.5"/>
<text text-anchor="middle" x="515" y="-62.3" font-family="Helvetica,sans-Serif" font-size="9.00">functional</text>
</g>
<!-- Node11&#45;&gt;Node12 -->
<g id="edge12" class="edge"><title>Node11&#45;&gt;Node12</title>
<path fill="none" stroke="midnightblue" d="M561.406,-110.219C553.205,-102.316 540.657,-90.2241 530.676,-80.6057"/>
<polygon fill="midnightblue" stroke="midnightblue" points="532.983,-77.9682 523.353,-73.5496 528.125,-83.0088 532.983,-77.9682"/>
</g>
<!-- Node13 -->
<g id="node13" class="node"><title>Node13</title>
<polygon fill="white" stroke="#bfbfbf" points="561,-55.5 561,-73.5 631,-73.5 631,-55.5 561,-55.5"/>
<text text-anchor="middle" x="596" y="-62.3" font-family="Helvetica,sans-Serif" font-size="9.00">initializer_list</text>
</g>
<!-- Node11&#45;&gt;Node13 -->
<g id="edge13" class="edge"><title>Node11&#45;&gt;Node13</title>
<path fill="none" stroke="midnightblue" d="M574.062,-110.219C577.671,-102.864 583.059,-91.8801 587.592,-82.639"/>
<polygon fill="midnightblue" stroke="midnightblue" points="590.789,-84.069 592.051,-73.5496 584.505,-80.986 590.789,-84.069"/>
</g>
<!-- Node14 -->
<g id="node14" class="node"><title>Node14</title>
<polygon fill="white" stroke="#bfbfbf" points="649.5,-55.5 649.5,-73.5 692.5,-73.5 692.5,-55.5 649.5,-55.5"/>
<text text-anchor="middle" x="671" y="-62.3" font-family="Helvetica,sans-Serif" font-size="9.00">cstdint</text>
</g>
<!-- Node11&#45;&gt;Node14 -->
<g id="edge14" class="edge"><title>Node11&#45;&gt;Node14</title>
<path fill="none" stroke="midnightblue" d="M585.34,-110.45C601.579,-101.929 627.45,-88.3532 646.515,-78.3487"/>
<polygon fill="midnightblue" stroke="midnightblue" points="648.287,-81.3712 655.516,-73.6253 645.035,-75.1728 648.287,-81.3712"/>
</g>
<!-- Node15&#45;&gt;Node2 -->
<g id="edge16" class="edge"><title>Node15&#45;&gt;Node2</title>
<path fill="none" stroke="midnightblue" d="M468.052,-170.435C432.825,-160.27 372.132,-142.757 332.792,-131.405"/>
<polygon fill="midnightblue" stroke="midnightblue" points="333.612,-127.999 323.034,-128.589 331.672,-134.725 333.612,-127.999"/>
</g>
<!-- Node15&#45;&gt;Node11 -->
<g id="edge17" class="edge"><title>Node15&#45;&gt;Node11</title>
<path fill="none" stroke="midnightblue" d="M506.289,-170.435C517.866,-161.362 536.912,-146.434 551.17,-135.259"/>
<polygon fill="midnightblue" stroke="midnightblue" points="553.607,-137.795 559.319,-128.872 549.289,-132.286 553.607,-137.795"/>
</g>
<!-- Node16 -->
<g id="node16" class="node"><title>Node16</title>
<g id="a_node16"><a xlink:href="BaseDist_8h.html" target="_top" xlink:title="The Base class for UnivariateDist and MultivariateDist. ">
<polygon fill="white" stroke="black" points="377,-110.5 377,-128.5 493,-128.5 493,-110.5 377,-110.5"/>
<text text-anchor="middle" x="435" y="-117.3" font-family="Helvetica,sans-Serif" font-size="9.00">PriorHessian/BaseDist.h</text>
</a>
</g>
</g>
<!-- Node15&#45;&gt;Node16 -->
<g id="edge18" class="edge"><title>Node15&#45;&gt;Node16</title>
<path fill="none" stroke="midnightblue" d="M487.518,-170.435C478.156,-161.533 462.866,-146.995 451.192,-135.895"/>
<polygon fill="midnightblue" stroke="midnightblue" points="453.464,-133.226 443.805,-128.872 448.64,-138.299 453.464,-133.226"/>
</g>
<!-- Node17&#45;&gt;Node2 -->
<g id="edge20" class="edge"><title>Node17&#45;&gt;Node2</title>
<path fill="none" stroke="midnightblue" d="M337.52,-165.339C329.283,-156.653 318.454,-145.233 309.785,-136.092"/>
<polygon fill="midnightblue" stroke="midnightblue" points="312.264,-133.619 302.844,-128.771 307.185,-138.436 312.264,-133.619"/>
</g>
<!-- Node17&#45;&gt;Node11 -->
<g id="edge21" class="edge"><title>Node17&#45;&gt;Node11</title>
<path fill="none" stroke="midnightblue" d="M399.372,-165.484C438.628,-155.134 492.865,-140.836 529.571,-131.158"/>
<polygon fill="midnightblue" stroke="midnightblue" points="530.655,-134.492 539.433,-128.559 528.871,-127.724 530.655,-134.492"/>
</g>
<!-- Node17&#45;&gt;Node16 -->
<g id="edge22" class="edge"><title>Node17&#45;&gt;Node16</title>
<path fill="none" stroke="midnightblue" d="M369.288,-165.339C382.788,-156.127 400.797,-143.839 414.547,-134.456"/>
<polygon fill="midnightblue" stroke="midnightblue" points="416.591,-137.299 422.878,-128.771 412.645,-131.517 416.591,-137.299"/>
</g>
<!-- Node18&#45;&gt;Node11 -->
<g id="edge27" class="edge"><title>Node18&#45;&gt;Node11</title>
<path fill="none" stroke="midnightblue" d="M663.07,-165.484C642.998,-155.782 615.746,-142.61 595.92,-133.028"/>
<polygon fill="midnightblue" stroke="midnightblue" points="597.375,-129.844 586.848,-128.643 594.329,-136.146 597.375,-129.844"/>
</g>
<!-- Node19 -->
<g id="node19" class="node"><title>Node19</title>
<polygon fill="white" stroke="#bfbfbf" points="638,-110.5 638,-128.5 676,-128.5 676,-110.5 638,-110.5"/>
<text text-anchor="middle" x="657" y="-117.3" font-family="Helvetica,sans-Serif" font-size="9.00">utility</text>
</g>
<!-- Node18&#45;&gt;Node19 -->
<g id="edge24" class="edge"><title>Node18&#45;&gt;Node19</title>
<path fill="none" stroke="midnightblue" d="M682.512,-165.339C677.819,-157.092 671.725,-146.38 666.669,-137.494"/>
<polygon fill="midnightblue" stroke="midnightblue" points="669.694,-135.732 661.706,-128.771 663.609,-139.194 669.694,-135.732"/>
</g>
<!-- Node20 -->
<g id="node20" class="node"><title>Node20</title>
<polygon fill="white" stroke="#bfbfbf" points="694.5,-110.5 694.5,-128.5 731.5,-128.5 731.5,-110.5 694.5,-110.5"/>
<text text-anchor="middle" x="713" y="-117.3" font-family="Helvetica,sans-Serif" font-size="9.00">tuple</text>
</g>
<!-- Node18&#45;&gt;Node20 -->
<g id="edge25" class="edge"><title>Node18&#45;&gt;Node20</title>
<path fill="none" stroke="midnightblue" d="M695.219,-165.339C698.385,-157.355 702.467,-147.061 705.922,-138.35"/>
<polygon fill="midnightblue" stroke="midnightblue" points="709.287,-139.357 709.72,-128.771 702.78,-136.777 709.287,-139.357"/>
</g>
<!-- Node21 -->
<g id="node21" class="node"><title>Node21</title>
<polygon fill="white" stroke="#bfbfbf" points="749.5,-110.5 749.5,-128.5 808.5,-128.5 808.5,-110.5 749.5,-110.5"/>
<text text-anchor="middle" x="779" y="-117.3" font-family="Helvetica,sans-Serif" font-size="9.00">type_traits</text>
</g>
<!-- Node18&#45;&gt;Node21 -->
<g id="edge26" class="edge"><title>Node18&#45;&gt;Node21</title>
<path fill="none" stroke="midnightblue" d="M710.195,-165.339C724.415,-156.072 743.412,-143.692 757.841,-134.289"/>
<polygon fill="midnightblue" stroke="midnightblue" points="760.101,-136.994 766.568,-128.602 756.279,-131.129 760.101,-136.994"/>
</g>
</g>
</svg>
