<?xml version="1.0" encoding="UTF-8" standalone="no"?>
<!DOCTYPE svg PUBLIC "-//W3C//DTD SVG 1.1//EN"
 "http://www.w3.org/Graphics/SVG/1.1/DTD/svg11.dtd">
<!-- Generated by graphviz version 2.38.0 (20140413.2041)
 -->
<!-- Title: GammaDist.cpp Pages: 1 -->
<!--zoomable 312 -->
<svg id="main" version="1.1" xmlns="http://www.w3.org/2000/svg" xmlns:xlink="http://www.w3.org/1999/xlink" xml:space="preserve" onload="init(evt)">
<style type="text/css"><![CDATA[
.edge:hover path { stroke: red; }
.edge:hover polygon { stroke: red; fill: red; }
]]></style>
<script type="text/javascript"><![CDATA[
var edges = document.getElementsByTagName('g');
if (edges && edges.length) {
  for (var i=0;i<edges.length;i++) {
    if (edges[i].id.substr(0,4)=='edge') {
      edges[i].setAttribute('class','edge');
    }
  }
}
]]></script>
        <defs>
                <circle id="rim" cx="0" cy="0" r="7"/>
                <circle id="rim2" cx="0" cy="0" r="3.5"/>
                <g id="zoomPlus">
                        <use xlink:href="#rim" fill="#404040">
                                <set attributeName="fill" to="#808080" begin="zoomplus.mouseover" end="zoomplus.mouseout"/>
                        </use>
                        <path d="M-4,0h8M0,-4v8" fill="none" stroke="white" stroke-width="1.5" pointer-events="none"/>
                </g>
                <g id="zoomMin">
                        <use xlink:href="#rim" fill="#404040">
                                <set attributeName="fill" to="#808080" begin="zoomminus.mouseover" end="zoomminus.mouseout"/>
                        </use>
                        <path d="M-4,0h8" fill="none" stroke="white" stroke-width="1.5" pointer-events="none"/>
                </g>
                <g id="dirArrow">
                        <path fill="none" stroke="white" stroke-width="1.5" d="M0,-3.0v7 M-2.5,-0.5L0,-3.0L2.5,-0.5"/>
                </g>
               <g id="resetDef">
                       <use xlink:href="#rim2" fill="#404040">
                               <set attributeName="fill" to="#808080" begin="reset.mouseover" end="reset.mouseout"/>
                       </use>
               </g>
        </defs>

<script type="text/javascript">
var viewWidth = 716;
var viewHeight = 312;
var sectionId = 'dynsection-0';
</script>
<script xlink:href="svgpan.js"/>
<svg id="graph" class="graph">
<g id="viewport">
<title>GammaDist.cpp</title>
<polygon fill="white" stroke="none" points="-4,4 -4,-308 711.5,-308 711.5,4 -4,4"/>
<!-- Node1 -->
<g id="node1" class="node"><title>Node1</title>
<polygon fill="#bfbfbf" stroke="black" points="404.5,-285.5 404.5,-303.5 486.5,-303.5 486.5,-285.5 404.5,-285.5"/>
<text text-anchor="middle" x="445.5" y="-292.3" font-family="Helvetica,sans-Serif" font-size="9.00">GammaDist.cpp</text>
</g>
<!-- Node2 -->
<g id="node2" class="node"><title>Node2</title>
<g id="a_node2"><a xlink:href="GammaDist_8h.html" target="_top" xlink:title="GammaDist class declaration and templated methods. ">
<polygon fill="white" stroke="black" points="249.5,-225.5 249.5,-243.5 377.5,-243.5 377.5,-225.5 249.5,-225.5"/>
<text text-anchor="middle" x="313.5" y="-232.3" font-family="Helvetica,sans-Serif" font-size="9.00">PriorHessian/GammaDist.h</text>
</a>
</g>
</g>
<!-- Node1&#45;&gt;Node2 -->
<g id="edge1" class="edge"><title>Node1&#45;&gt;Node2</title>
<path fill="none" stroke="midnightblue" d="M427.146,-285.435C404.909,-275.665 367.222,-259.105 341.388,-247.754"/>
<polygon fill="midnightblue" stroke="midnightblue" points="342.687,-244.502 332.124,-243.683 339.871,-250.91 342.687,-244.502"/>
</g>
<!-- Node4 -->
<g id="node4" class="node"><title>Node4</title>
<polygon fill="white" stroke="#bfbfbf" points="0,-55.5 0,-73.5 41,-73.5 41,-55.5 0,-55.5"/>
<text text-anchor="middle" x="20.5" y="-62.3" font-family="Helvetica,sans-Serif" font-size="9.00">cmath</text>
</g>
<!-- Node1&#45;&gt;Node4 -->
<g id="edge24" class="edge"><title>Node1&#45;&gt;Node4</title>
<path fill="none" stroke="midnightblue" d="M404.233,-290.426C335.532,-284.758 201.136,-271.173 159.5,-249 95.375,-214.85 88.368,-189.735 48.5,-129 39.099,-114.678 31.5032,-96.6766 26.6075,-83.5008"/>
<polygon fill="midnightblue" stroke="midnightblue" points="29.7921,-82.0091 23.1498,-73.755 23.195,-84.3497 29.7921,-82.0091"/>
</g>
<!-- Node11 -->
<g id="node11" class="node"><title>Node11</title>
<g id="a_node11"><a xlink:href="util_8h.html" target="_top" xlink:title="Utilities and namespace globals. ">
<polygon fill="white" stroke="black" points="115.5,-110.5 115.5,-128.5 207.5,-128.5 207.5,-110.5 115.5,-110.5"/>
<text text-anchor="middle" x="161.5" y="-117.3" font-family="Helvetica,sans-Serif" font-size="9.00">PriorHessian/util.h</text>
</a>
</g>
</g>
<!-- Node1&#45;&gt;Node11 -->
<g id="edge22" class="edge"><title>Node1&#45;&gt;Node11</title>
<path fill="none" stroke="midnightblue" d="M404.312,-288.508C362.096,-282.489 295.087,-270.407 240.5,-249 187.634,-228.268 158.644,-233.321 130.5,-184 121.437,-168.117 133.439,-149.201 145.047,-136.17"/>
<polygon fill="midnightblue" stroke="midnightblue" points="147.63,-138.533 152.032,-128.896 142.581,-133.684 147.63,-138.533"/>
</g>
<!-- Node16 -->
<g id="node16" class="node"><title>Node16</title>
<g id="a_node16"><a xlink:href="PriorHessianError_8h.html" target="_top" xlink:title="The Exception classes for the PriorHessian library. ">
<polygon fill="white" stroke="black" points="371.5,-55.5 371.5,-73.5 469.5,-73.5 469.5,-55.5 371.5,-55.5"/>
<text text-anchor="middle" x="420.5" y="-62.3" font-family="Helvetica,sans-Serif" font-size="9.00">PriorHessianError.h</text>
</a>
</g>
</g>
<!-- Node1&#45;&gt;Node16 -->
<g id="edge23" class="edge"><title>Node1&#45;&gt;Node16</title>
<path fill="none" stroke="midnightblue" d="M444.61,-285.385C441.034,-252.769 427.653,-130.739 422.521,-83.9343"/>
<polygon fill="midnightblue" stroke="midnightblue" points="425.974,-83.3146 421.405,-73.7557 419.016,-84.0776 425.974,-83.3146"/>
</g>
<!-- Node19 -->
<g id="node19" class="node"><title>Node19</title>
<polygon fill="white" stroke="#bfbfbf" points="474,-225.5 474,-243.5 523,-243.5 523,-225.5 474,-225.5"/>
<text text-anchor="middle" x="498.5" y="-232.3" font-family="Helvetica,sans-Serif" font-size="9.00">sstream</text>
</g>
<!-- Node1&#45;&gt;Node19 -->
<g id="edge25" class="edge"><title>Node1&#45;&gt;Node19</title>
<path fill="none" stroke="midnightblue" d="M452.869,-285.435C460.848,-276.704 473.78,-262.552 483.843,-251.54"/>
<polygon fill="midnightblue" stroke="midnightblue" points="486.688,-253.615 490.85,-243.872 481.52,-248.893 486.688,-253.615"/>
</g>
<!-- Node20 -->
<g id="node20" class="node"><title>Node20</title>
<polygon fill="white" stroke="#bfbfbf" points="541.5,-225.5 541.5,-243.5 579.5,-243.5 579.5,-225.5 541.5,-225.5"/>
<text text-anchor="middle" x="560.5" y="-232.3" font-family="Helvetica,sans-Serif" font-size="9.00">limits</text>
</g>
<!-- Node1&#45;&gt;Node20 -->
<g id="edge26" class="edge"><title>Node1&#45;&gt;Node20</title>
<path fill="none" stroke="midnightblue" d="M461.49,-285.435C480.607,-275.794 512.831,-259.542 535.306,-248.206"/>
<polygon fill="midnightblue" stroke="midnightblue" points="536.922,-251.311 544.275,-243.683 533.77,-245.061 536.922,-251.311"/>
</g>
<!-- Node21 -->
<g id="node21" class="node"><title>Node21</title>
<polygon fill="white" stroke="#bfbfbf" points="597.5,-220.5 597.5,-248.5 707.5,-248.5 707.5,-220.5 597.5,-220.5"/>
<text text-anchor="start" x="605.5" y="-237.3" font-family="Helvetica,sans-Serif" font-size="9.00">boost/math/special</text>
<text text-anchor="middle" x="652.5" y="-227.3" font-family="Helvetica,sans-Serif" font-size="9.00">_functions/gamma.hpp</text>
</g>
<!-- Node1&#45;&gt;Node21 -->
<g id="edge27" class="edge"><title>Node1&#45;&gt;Node21</title>
<path fill="none" stroke="midnightblue" d="M474.282,-285.435C505.723,-276.626 556.859,-262.298 596.31,-251.244"/>
<polygon fill="midnightblue" stroke="midnightblue" points="597.385,-254.578 606.069,-248.51 595.496,-247.837 597.385,-254.578"/>
</g>
<!-- Node3 -->
<g id="node3" class="node"><title>Node3</title>
<polygon fill="white" stroke="#bfbfbf" points="139.5,-165.5 139.5,-183.5 185.5,-183.5 185.5,-165.5 139.5,-165.5"/>
<text text-anchor="middle" x="162.5" y="-172.3" font-family="Helvetica,sans-Serif" font-size="9.00">cassert</text>
</g>
<!-- Node2&#45;&gt;Node3 -->
<g id="edge2" class="edge"><title>Node2&#45;&gt;Node3</title>
<path fill="none" stroke="midnightblue" d="M292.504,-225.435C266.731,-215.536 222.813,-198.666 193.237,-187.306"/>
<polygon fill="midnightblue" stroke="midnightblue" points="194.394,-184.002 183.804,-183.683 191.884,-190.536 194.394,-184.002"/>
</g>
<!-- Node2&#45;&gt;Node4 -->
<g id="edge3" class="edge"><title>Node2&#45;&gt;Node4</title>
<path fill="none" stroke="midnightblue" d="M251.187,-225.486C214.101,-218.636 167.265,-206.207 130.5,-184 86.3975,-157.361 48.9885,-108.003 31.3469,-82.2"/>
<polygon fill="midnightblue" stroke="midnightblue" points="34.0433,-79.935 25.5807,-73.5604 28.2209,-83.821 34.0433,-79.935"/>
</g>
<!-- Node5 -->
<g id="node5" class="node"><title>Node5</title>
<polygon fill="white" stroke="#bfbfbf" points="305.5,-55.5 305.5,-73.5 353.5,-73.5 353.5,-55.5 305.5,-55.5"/>
<text text-anchor="middle" x="329.5" y="-62.3" font-family="Helvetica,sans-Serif" font-size="9.00">random</text>
</g>
<!-- Node2&#45;&gt;Node5 -->
<g id="edge4" class="edge"><title>Node2&#45;&gt;Node5</title>
<path fill="none" stroke="midnightblue" d="M321.96,-225.318C330.744,-216.191 343.96,-200.523 349.5,-184 359.956,-152.814 357.693,-142.096 350.5,-110 348.348,-100.399 343.882,-90.4303 339.62,-82.3675"/>
<polygon fill="midnightblue" stroke="midnightblue" points="342.653,-80.6206 334.691,-73.6311 336.556,-84.0603 342.653,-80.6206"/>
</g>
<!-- Node6 -->
<g id="node6" class="node"><title>Node6</title>
<g id="a_node6"><a xlink:href="Meta_8h.html" target="_top" xlink:title="Enables the use of variadic templates in interesting ways. ">
<polygon fill="white" stroke="black" points="473.5,-110.5 473.5,-128.5 573.5,-128.5 573.5,-110.5 473.5,-110.5"/>
<text text-anchor="middle" x="523.5" y="-117.3" font-family="Helvetica,sans-Serif" font-size="9.00">PriorHessian/Meta.h</text>
</a>
</g>
</g>
<!-- Node2&#45;&gt;Node6 -->
<g id="edge5" class="edge"><title>Node2&#45;&gt;Node6</title>
<path fill="none" stroke="midnightblue" d="M328.603,-225.373C364.625,-205.99 455.827,-156.914 499.488,-133.421"/>
<polygon fill="midnightblue" stroke="midnightblue" points="501.387,-136.374 508.534,-128.553 498.07,-130.209 501.387,-136.374"/>
</g>
<!-- Node10 -->
<g id="node10" class="node"><title>Node10</title>
<g id="a_node10"><a xlink:href="UnivariateDist_8h.html" target="_top" xlink:title="UnivariateDist base class. ">
<polygon fill="white" stroke="black" points="204,-165.5 204,-183.5 341,-183.5 341,-165.5 204,-165.5"/>
<text text-anchor="middle" x="272.5" y="-172.3" font-family="Helvetica,sans-Serif" font-size="9.00">PriorHessian/UnivariateDist.h</text>
</a>
</g>
</g>
<!-- Node2&#45;&gt;Node10 -->
<g id="edge9" class="edge"><title>Node2&#45;&gt;Node10</title>
<path fill="none" stroke="midnightblue" d="M307.799,-225.435C301.748,-216.876 292.014,-203.105 284.299,-192.191"/>
<polygon fill="midnightblue" stroke="midnightblue" points="287.048,-190.017 278.418,-183.872 281.332,-194.058 287.048,-190.017"/>
</g>
<!-- Node7 -->
<g id="node7" class="node"><title>Node7</title>
<polygon fill="white" stroke="#bfbfbf" points="549.5,-55.5 549.5,-73.5 605.5,-73.5 605.5,-55.5 549.5,-55.5"/>
<text text-anchor="middle" x="577.5" y="-62.3" font-family="Helvetica,sans-Serif" font-size="9.00">functional</text>
</g>
<!-- Node6&#45;&gt;Node7 -->
<g id="edge6" class="edge"><title>Node6&#45;&gt;Node7</title>
<path fill="none" stroke="midnightblue" d="M531.938,-110.219C539.989,-102.316 552.309,-90.2241 562.109,-80.6057"/>
<polygon fill="midnightblue" stroke="midnightblue" points="564.613,-83.0522 569.299,-73.5496 559.71,-78.0564 564.613,-83.0522"/>
</g>
<!-- Node8 -->
<g id="node8" class="node"><title>Node8</title>
<polygon fill="white" stroke="#bfbfbf" points="623.5,-55.5 623.5,-73.5 693.5,-73.5 693.5,-55.5 623.5,-55.5"/>
<text text-anchor="middle" x="658.5" y="-62.3" font-family="Helvetica,sans-Serif" font-size="9.00">initializer_list</text>
</g>
<!-- Node6&#45;&gt;Node8 -->
<g id="edge7" class="edge"><title>Node6&#45;&gt;Node8</title>
<path fill="none" stroke="midnightblue" d="M544.004,-110.45C566.404,-101.656 602.513,-87.4802 628.187,-77.4006"/>
<polygon fill="midnightblue" stroke="midnightblue" points="629.774,-80.5377 637.803,-73.6253 627.216,-74.0218 629.774,-80.5377"/>
</g>
<!-- Node9 -->
<g id="node9" class="node"><title>Node9</title>
<polygon fill="white" stroke="#bfbfbf" points="488,-55.5 488,-73.5 531,-73.5 531,-55.5 488,-55.5"/>
<text text-anchor="middle" x="509.5" y="-62.3" font-family="Helvetica,sans-Serif" font-size="9.00">cstdint</text>
</g>
<!-- Node6&#45;&gt;Node9 -->
<g id="edge8" class="edge"><title>Node6&#45;&gt;Node9</title>
<path fill="none" stroke="midnightblue" d="M521.312,-110.219C519.411,-103.02 516.591,-92.3458 514.184,-83.2311"/>
<polygon fill="midnightblue" stroke="midnightblue" points="517.564,-82.324 511.626,-73.5496 510.796,-84.1118 517.564,-82.324"/>
</g>
<!-- Node10&#45;&gt;Node6 -->
<g id="edge20" class="edge"><title>Node10&#45;&gt;Node6</title>
<path fill="none" stroke="midnightblue" d="M310.621,-165.45C354.793,-156.123 427.635,-140.742 475.595,-130.615"/>
<polygon fill="midnightblue" stroke="midnightblue" points="476.371,-134.029 485.432,-128.538 474.924,-127.18 476.371,-134.029"/>
</g>
<!-- Node10&#45;&gt;Node11 -->
<g id="edge10" class="edge"><title>Node10&#45;&gt;Node11</title>
<path fill="none" stroke="midnightblue" d="M255.641,-165.45C237.549,-156.812 208.581,-142.98 187.553,-132.94"/>
<polygon fill="midnightblue" stroke="midnightblue" points="189.049,-129.776 178.517,-128.625 186.033,-136.093 189.049,-129.776"/>
</g>
<!-- Node18 -->
<g id="node18" class="node"><title>Node18</title>
<g id="a_node18"><a xlink:href="BaseDist_8h.html" target="_top" xlink:title="The Base class for UnivariateDist and MultivariateDist. ">
<polygon fill="white" stroke="black" points="225.5,-110.5 225.5,-128.5 341.5,-128.5 341.5,-110.5 225.5,-110.5"/>
<text text-anchor="middle" x="283.5" y="-117.3" font-family="Helvetica,sans-Serif" font-size="9.00">PriorHessian/BaseDist.h</text>
</a>
</g>
</g>
<!-- Node10&#45;&gt;Node18 -->
<g id="edge21" class="edge"><title>Node10&#45;&gt;Node18</title>
<path fill="none" stroke="midnightblue" d="M274.219,-165.219C275.697,-158.099 277.88,-147.577 279.758,-138.529"/>
<polygon fill="midnightblue" stroke="midnightblue" points="283.224,-139.052 281.829,-128.55 276.37,-137.63 283.224,-139.052"/>
</g>
<!-- Node11&#45;&gt;Node4 -->
<g id="edge11" class="edge"><title>Node11&#45;&gt;Node4</title>
<path fill="none" stroke="midnightblue" d="M140.085,-110.45C116.312,-101.515 77.7571,-87.0222 50.8731,-76.9168"/>
<polygon fill="midnightblue" stroke="midnightblue" points="51.7882,-73.5218 41.1962,-73.2794 49.3252,-80.0742 51.7882,-73.5218"/>
</g>
<!-- Node11&#45;&gt;Node5 -->
<g id="edge13" class="edge"><title>Node11&#45;&gt;Node5</title>
<path fill="none" stroke="midnightblue" d="M187.016,-110.45C216.005,-101.305 263.445,-86.3389 295.543,-76.2127"/>
<polygon fill="midnightblue" stroke="midnightblue" points="296.899,-79.4551 305.382,-73.1086 294.792,-72.7794 296.899,-79.4551"/>
</g>
<!-- Node12 -->
<g id="node12" class="node"><title>Node12</title>
<polygon fill="white" stroke="#bfbfbf" points="267,-0.5 267,-18.5 306,-18.5 306,-0.5 267,-0.5"/>
<text text-anchor="middle" x="286.5" y="-7.3" font-family="Helvetica,sans-Serif" font-size="9.00">string</text>
</g>
<!-- Node11&#45;&gt;Node12 -->
<g id="edge12" class="edge"><title>Node11&#45;&gt;Node12</title>
<path fill="none" stroke="midnightblue" d="M170.895,-110.382C191.798,-92.3222 242.413,-48.5913 269.203,-25.4449"/>
<polygon fill="midnightblue" stroke="midnightblue" points="271.717,-27.898 276.996,-18.7118 267.141,-22.6011 271.717,-27.898"/>
</g>
<!-- Node13 -->
<g id="node13" class="node"><title>Node13</title>
<polygon fill="white" stroke="#bfbfbf" points="246,-55.5 246,-73.5 287,-73.5 287,-55.5 246,-55.5"/>
<text text-anchor="middle" x="266.5" y="-62.3" font-family="Helvetica,sans-Serif" font-size="9.00">vector</text>
</g>
<!-- Node11&#45;&gt;Node13 -->
<g id="edge14" class="edge"><title>Node11&#45;&gt;Node13</title>
<path fill="none" stroke="midnightblue" d="M177.447,-110.45C194.407,-101.89 221.471,-88.2291 241.316,-78.2119"/>
<polygon fill="midnightblue" stroke="midnightblue" points="243.053,-81.256 250.403,-73.6253 239.898,-75.007 243.053,-81.256"/>
</g>
<!-- Node14 -->
<g id="node14" class="node"><title>Node14</title>
<polygon fill="white" stroke="#bfbfbf" points="59.5,-55.5 59.5,-73.5 115.5,-73.5 115.5,-55.5 59.5,-55.5"/>
<text text-anchor="middle" x="87.5" y="-62.3" font-family="Helvetica,sans-Serif" font-size="9.00">typeindex</text>
</g>
<!-- Node11&#45;&gt;Node14 -->
<g id="edge15" class="edge"><title>Node11&#45;&gt;Node14</title>
<path fill="none" stroke="midnightblue" d="M150.261,-110.45C138.852,-102.279 120.954,-89.4604 107.186,-79.5996"/>
<polygon fill="midnightblue" stroke="midnightblue" points="109.013,-76.6027 98.8448,-73.6253 104.937,-82.2936 109.013,-76.6027"/>
</g>
<!-- Node15 -->
<g id="node15" class="node"><title>Node15</title>
<polygon fill="white" stroke="#bfbfbf" points="134,-55.5 134,-73.5 189,-73.5 189,-55.5 134,-55.5"/>
<text text-anchor="middle" x="161.5" y="-62.3" font-family="Helvetica,sans-Serif" font-size="9.00">armadillo</text>
</g>
<!-- Node11&#45;&gt;Node15 -->
<g id="edge16" class="edge"><title>Node11&#45;&gt;Node15</title>
<path fill="none" stroke="midnightblue" d="M161.5,-110.219C161.5,-103.177 161.5,-92.8083 161.5,-83.8277"/>
<polygon fill="midnightblue" stroke="midnightblue" points="165,-83.5495 161.5,-73.5496 158,-83.5496 165,-83.5495"/>
</g>
<!-- Node11&#45;&gt;Node16 -->
<g id="edge17" class="edge"><title>Node11&#45;&gt;Node16</title>
<path fill="none" stroke="midnightblue" d="M200.837,-110.45C246.512,-101.104 321.894,-85.678 371.378,-75.552"/>
<polygon fill="midnightblue" stroke="midnightblue" points="372.123,-78.9721 381.218,-73.5383 370.72,-72.1142 372.123,-78.9721"/>
</g>
<!-- Node16&#45;&gt;Node12 -->
<g id="edge19" class="edge"><title>Node16&#45;&gt;Node12</title>
<path fill="none" stroke="midnightblue" d="M400.148,-55.4504C377.655,-46.5539 341.237,-32.1498 315.704,-22.0506"/>
<polygon fill="midnightblue" stroke="midnightblue" points="316.755,-18.7028 306.169,-18.2794 314.18,-25.2121 316.755,-18.7028"/>
</g>
<!-- Node17 -->
<g id="node17" class="node"><title>Node17</title>
<polygon fill="white" stroke="#bfbfbf" points="392.5,-0.5 392.5,-18.5 448.5,-18.5 448.5,-0.5 392.5,-0.5"/>
<text text-anchor="middle" x="420.5" y="-7.3" font-family="Helvetica,sans-Serif" font-size="9.00">exception</text>
</g>
<!-- Node16&#45;&gt;Node17 -->
<g id="edge18" class="edge"><title>Node16&#45;&gt;Node17</title>
<path fill="none" stroke="midnightblue" d="M420.5,-55.2188C420.5,-48.1769 420.5,-37.8083 420.5,-28.8277"/>
<polygon fill="midnightblue" stroke="midnightblue" points="424,-28.5495 420.5,-18.5496 417,-28.5496 424,-28.5495"/>
</g>
</g>
</svg>
        <g id="navigator" transform="translate(0 0)" fill="#404254">
                <rect fill="#f2f5e9" fill-opacity="0.5" stroke="#606060" stroke-width=".5" x="0" y="0" width="60" height="60"/>
                <use id="zoomplus" xlink:href="#zoomPlus" x="17" y="9" onmousedown="handleZoom(evt,'in')"/>
                <use id="zoomminus" xlink:href="#zoomMin" x="42" y="9" onmousedown="handleZoom(evt,'out')"/>
                <use id="reset" xlink:href="#resetDef" x="30" y="36" onmousedown="handleReset()"/>
                <g id="arrowUp" xlink:href="#dirArrow" transform="translate(30 24)" onmousedown="handlePan(0,-1)">
                  <use xlink:href="#rim" fill="#404040">
                        <set attributeName="fill" to="#808080" begin="arrowUp.mouseover" end="arrowUp.mouseout"/>
                  </use>
                  <path fill="none" stroke="white" stroke-width="1.5" d="M0,-3.0v7 M-2.5,-0.5L0,-3.0L2.5,-0.5"/>
                </g>
                <g id="arrowRight" xlink:href="#dirArrow" transform="rotate(90) translate(36 -43)" onmousedown="handlePan(1,0)">
                  <use xlink:href="#rim" fill="#404040">
                        <set attributeName="fill" to="#808080" begin="arrowRight.mouseover" end="arrowRight.mouseout"/>
                  </use>
                  <path fill="none" stroke="white" stroke-width="1.5" d="M0,-3.0v7 M-2.5,-0.5L0,-3.0L2.5,-0.5"/>
                </g>
                <g id="arrowDown" xlink:href="#dirArrow" transform="rotate(180) translate(-30 -48)" onmousedown="handlePan(0,1)">
                  <use xlink:href="#rim" fill="#404040">
                        <set attributeName="fill" to="#808080" begin="arrowDown.mouseover" end="arrowDown.mouseout"/>
                  </use>
                  <path fill="none" stroke="white" stroke-width="1.5" d="M0,-3.0v7 M-2.5,-0.5L0,-3.0L2.5,-0.5"/>
                </g>
                <g id="arrowLeft" xlink:href="#dirArrow" transform="rotate(270) translate(-36 17)" onmousedown="handlePan(-1,0)">
                  <use xlink:href="#rim" fill="#404040">
                        <set attributeName="fill" to="#808080" begin="arrowLeft.mouseover" end="arrowLeft.mouseout"/>
                  </use>
                  <path fill="none" stroke="white" stroke-width="1.5" d="M0,-3.0v7 M-2.5,-0.5L0,-3.0L2.5,-0.5"/>
                </g>
        </g>
        <svg viewBox="0 0 15 15" width="100%" height="30px" preserveAspectRatio="xMaxYMin meet">
         <g id="arrow_out" transform="scale(0.3 0.3)">
          <a xlink:href="GammaDist_8cpp__incl_org.svg" target="_base">
           <rect id="button" ry="5" rx="5" y="6" x="6" height="38" width="38"
                fill="#f2f5e9" fill-opacity="0.5" stroke="#606060" stroke-width="1.0"/>
           <path id="arrow"
             d="M 11.500037,31.436501 C 11.940474,20.09759 22.043105,11.32322 32.158766,21.979434 L 37.068811,17.246167 C 37.068811,17.246167 37.088388,32 37.088388,32 L 22.160133,31.978069 C 22.160133,31.978069 26.997745,27.140456 26.997745,27.140456 C 18.528582,18.264221 13.291696,25.230495 11.500037,31.436501 z"
             style="fill:#404040;"/>
          </a>
         </g>
        </svg>
</svg>
