<?xml version="1.0" encoding="UTF-8" standalone="no"?>
<!DOCTYPE svg PUBLIC "-//W3C//DTD SVG 1.1//EN"
 "http://www.w3.org/Graphics/SVG/1.1/DTD/svg11.dtd">
<!-- Generated by graphviz version 2.38.0 (20140413.2041)
 -->
<!-- Title: GammaDist.h Pages: 1 -->
<svg width="222pt" height="82pt"
 viewBox="0.00 0.00 221.50 82.00" xmlns="http://www.w3.org/2000/svg" xmlns:xlink="http://www.w3.org/1999/xlink">
<g id="graph0" class="graph" transform="scale(1 1) rotate(0) translate(4 78)">
<title>GammaDist.h</title>
<polygon fill="white" stroke="none" points="-4,4 -4,-78 217.5,-78 217.5,4 -4,4"/>
<!-- Node1 -->
<g id="node1" class="node"><title>Node1</title>
<polygon fill="#bfbfbf" stroke="black" points="63,-55.5 63,-73.5 135,-73.5 135,-55.5 63,-55.5"/>
<text text-anchor="middle" x="99" y="-62.3" font-family="Helvetica,sans-Serif" font-size="9.00">GammaDist.h</text>
</g>
<!-- Node2 -->
<g id="node2" class="node"><title>Node2</title>
<g id="a_node2"><a xlink:href="GammaDist_8cpp.html" target="_top" xlink:title="GammaDist class definition. ">
<polygon fill="white" stroke="black" points="0,-0.5 0,-18.5 82,-18.5 82,-0.5 0,-0.5"/>
<text text-anchor="middle" x="41" y="-7.3" font-family="Helvetica,sans-Serif" font-size="9.00">GammaDist.cpp</text>
</a>
</g>
</g>
<!-- Node1&#45;&gt;Node2 -->
<g id="edge1" class="edge"><title>Node1&#45;&gt;Node2</title>
<path fill="none" stroke="midnightblue" d="M82.4717,-48.3965C71.8421,-38.6833 58.451,-26.4466 49.809,-18.5496"/>
<polygon fill="midnightblue" stroke="midnightblue" points="80.1944,-51.0568 89.9375,-55.2188 84.9164,-45.8893 80.1944,-51.0568"/>
</g>
<!-- Node3 -->
<g id="node3" class="node"><title>Node3</title>
<g id="a_node3"><a xlink:href="TruncatedGammaDist_8h.html" target="_top" xlink:title="TruncatedGammaDist class declaration and templated methods. ">
<polygon fill="white" stroke="black" points="100.5,-0.5 100.5,-18.5 213.5,-18.5 213.5,-0.5 100.5,-0.5"/>
<text text-anchor="middle" x="157" y="-7.3" font-family="Helvetica,sans-Serif" font-size="9.00">TruncatedGammaDist.h</text>
</a>
</g>
</g>
<!-- Node1&#45;&gt;Node3 -->
<g id="edge2" class="edge"><title>Node1&#45;&gt;Node3</title>
<path fill="none" stroke="midnightblue" d="M115.528,-48.3965C126.158,-38.6833 139.549,-26.4466 148.191,-18.5496"/>
<polygon fill="midnightblue" stroke="midnightblue" points="113.084,-45.8893 108.062,-55.2188 117.806,-51.0568 113.084,-45.8893"/>
</g>
</g>
</svg>
