<?xml version="1.0" encoding="UTF-8" standalone="no"?>
<!DOCTYPE svg PUBLIC "-//W3C//DTD SVG 1.1//EN"
 "http://www.w3.org/Graphics/SVG/1.1/DTD/svg11.dtd">
<!-- Generated by graphviz version 2.38.0 (20140413.2041)
 -->
<!-- Title: GammaDist.h Pages: 1 -->
<!--zoomable 247 -->
<svg id="main" version="1.1" xmlns="http://www.w3.org/2000/svg" xmlns:xlink="http://www.w3.org/1999/xlink" xml:space="preserve" onload="init(evt)">
<style type="text/css"><![CDATA[
.edge:hover path { stroke: red; }
.edge:hover polygon { stroke: red; fill: red; }
]]></style>
<script type="text/javascript"><![CDATA[
var edges = document.getElementsByTagName('g');
if (edges && edges.length) {
  for (var i=0;i<edges.length;i++) {
    if (edges[i].id.substr(0,4)=='edge') {
      edges[i].setAttribute('class','edge');
    }
  }
}
]]></script>
        <defs>
                <circle id="rim" cx="0" cy="0" r="7"/>
                <circle id="rim2" cx="0" cy="0" r="3.5"/>
                <g id="zoomPlus">
                        <use xlink:href="#rim" fill="#404040">
                                <set attributeName="fill" to="#808080" begin="zoomplus.mouseover" end="zoomplus.mouseout"/>
                        </use>
                        <path d="M-4,0h8M0,-4v8" fill="none" stroke="white" stroke-width="1.5" pointer-events="none"/>
                </g>
                <g id="zoomMin">
                        <use xlink:href="#rim" fill="#404040">
                                <set attributeName="fill" to="#808080" begin="zoomminus.mouseover" end="zoomminus.mouseout"/>
                        </use>
                        <path d="M-4,0h8" fill="none" stroke="white" stroke-width="1.5" pointer-events="none"/>
                </g>
                <g id="dirArrow">
                        <path fill="none" stroke="white" stroke-width="1.5" d="M0,-3.0v7 M-2.5,-0.5L0,-3.0L2.5,-0.5"/>
                </g>
               <g id="resetDef">
                       <use xlink:href="#rim2" fill="#404040">
                               <set attributeName="fill" to="#808080" begin="reset.mouseover" end="reset.mouseout"/>
                       </use>
               </g>
        </defs>

<script type="text/javascript">
var viewWidth = 730;
var viewHeight = 247;
var sectionId = 'dynsection-0';
</script>
<script xlink:href="svgpan.js"/>
<svg id="graph" class="graph">
<g id="viewport">
<title>GammaDist.h</title>
<polygon fill="white" stroke="none" points="-4,4 -4,-243 725.5,-243 725.5,4 -4,4"/>
<!-- Node1 -->
<g id="node1" class="node"><title>Node1</title>
<polygon fill="#bfbfbf" stroke="black" points="76,-220.5 76,-238.5 148,-238.5 148,-220.5 76,-220.5"/>
<text text-anchor="middle" x="112" y="-227.3" font-family="Helvetica,sans-Serif" font-size="9.00">GammaDist.h</text>
</g>
<!-- Node2 -->
<g id="node2" class="node"><title>Node2</title>
<polygon fill="white" stroke="#bfbfbf" points="0,-165.5 0,-183.5 46,-183.5 46,-165.5 0,-165.5"/>
<text text-anchor="middle" x="23" y="-172.3" font-family="Helvetica,sans-Serif" font-size="9.00">cassert</text>
</g>
<!-- Node1&#45;&gt;Node2 -->
<g id="edge1" class="edge"><title>Node1&#45;&gt;Node2</title>
<path fill="none" stroke="midnightblue" d="M98.4828,-220.45C84.3686,-212.045 61.999,-198.724 45.2699,-188.762"/>
<polygon fill="midnightblue" stroke="midnightblue" points="47.0271,-185.735 36.6444,-183.625 43.4455,-191.749 47.0271,-185.735"/>
</g>
<!-- Node3 -->
<g id="node3" class="node"><title>Node3</title>
<polygon fill="white" stroke="#bfbfbf" points="28.5,-55.5 28.5,-73.5 69.5,-73.5 69.5,-55.5 28.5,-55.5"/>
<text text-anchor="middle" x="49" y="-62.3" font-family="Helvetica,sans-Serif" font-size="9.00">cmath</text>
</g>
<!-- Node1&#45;&gt;Node3 -->
<g id="edge2" class="edge"><title>Node1&#45;&gt;Node3</title>
<path fill="none" stroke="midnightblue" d="M108.789,-220.193C98.9725,-194.794 69.2105,-117.791 55.7451,-82.9517"/>
<polygon fill="midnightblue" stroke="midnightblue" points="58.9994,-81.6629 52.1296,-73.5971 52.4701,-84.1865 58.9994,-81.6629"/>
</g>
<!-- Node4 -->
<g id="node4" class="node"><title>Node4</title>
<polygon fill="white" stroke="#bfbfbf" points="88,-55.5 88,-73.5 136,-73.5 136,-55.5 88,-55.5"/>
<text text-anchor="middle" x="112" y="-62.3" font-family="Helvetica,sans-Serif" font-size="9.00">random</text>
</g>
<!-- Node1&#45;&gt;Node4 -->
<g id="edge3" class="edge"><title>Node1&#45;&gt;Node4</title>
<path fill="none" stroke="midnightblue" d="M112,-220.193C112,-195.013 112,-119.114 112,-83.8621"/>
<polygon fill="midnightblue" stroke="midnightblue" points="115.5,-83.5971 112,-73.5971 108.5,-83.5972 115.5,-83.5971"/>
</g>
<!-- Node5 -->
<g id="node5" class="node"><title>Node5</title>
<g id="a_node5"><a xlink:href="Meta_8h.html" target="_top" xlink:title="Enables the use of variadic templates in interesting ways. ">
<polygon fill="white" stroke="black" points="494,-110.5 494,-128.5 594,-128.5 594,-110.5 494,-110.5"/>
<text text-anchor="middle" x="544" y="-117.3" font-family="Helvetica,sans-Serif" font-size="9.00">PriorHessian/Meta.h</text>
</a>
</g>
</g>
<!-- Node1&#45;&gt;Node5 -->
<g id="edge4" class="edge"><title>Node1&#45;&gt;Node5</title>
<path fill="none" stroke="midnightblue" d="M148.134,-222.814C193.67,-215.35 274.183,-201.161 342,-184 402.651,-168.652 471.934,-145.647 511.568,-131.949"/>
<polygon fill="midnightblue" stroke="midnightblue" points="512.923,-135.183 521.219,-128.594 510.625,-128.571 512.923,-135.183"/>
</g>
<!-- Node9 -->
<g id="node9" class="node"><title>Node9</title>
<g id="a_node9"><a xlink:href="UnivariateDist_8h.html" target="_top" xlink:title="UnivariateDist base class. ">
<polygon fill="white" stroke="black" points="195.5,-165.5 195.5,-183.5 332.5,-183.5 332.5,-165.5 195.5,-165.5"/>
<text text-anchor="middle" x="264" y="-172.3" font-family="Helvetica,sans-Serif" font-size="9.00">PriorHessian/UnivariateDist.h</text>
</a>
</g>
</g>
<!-- Node1&#45;&gt;Node9 -->
<g id="edge8" class="edge"><title>Node1&#45;&gt;Node9</title>
<path fill="none" stroke="midnightblue" d="M135.086,-220.45C160.642,-211.539 202.045,-197.103 231.015,-187.001"/>
<polygon fill="midnightblue" stroke="midnightblue" points="232.407,-190.223 240.697,-183.625 230.102,-183.613 232.407,-190.223"/>
</g>
<!-- Node6 -->
<g id="node6" class="node"><title>Node6</title>
<polygon fill="white" stroke="#bfbfbf" points="516,-55.5 516,-73.5 572,-73.5 572,-55.5 516,-55.5"/>
<text text-anchor="middle" x="544" y="-62.3" font-family="Helvetica,sans-Serif" font-size="9.00">functional</text>
</g>
<!-- Node5&#45;&gt;Node6 -->
<g id="edge5" class="edge"><title>Node5&#45;&gt;Node6</title>
<path fill="none" stroke="midnightblue" d="M544,-110.219C544,-103.177 544,-92.8083 544,-83.8277"/>
<polygon fill="midnightblue" stroke="midnightblue" points="547.5,-83.5495 544,-73.5496 540.5,-83.5496 547.5,-83.5495"/>
</g>
<!-- Node7 -->
<g id="node7" class="node"><title>Node7</title>
<polygon fill="white" stroke="#bfbfbf" points="590,-55.5 590,-73.5 660,-73.5 660,-55.5 590,-55.5"/>
<text text-anchor="middle" x="625" y="-62.3" font-family="Helvetica,sans-Serif" font-size="9.00">initializer_list</text>
</g>
<!-- Node5&#45;&gt;Node7 -->
<g id="edge6" class="edge"><title>Node5&#45;&gt;Node7</title>
<path fill="none" stroke="midnightblue" d="M556.302,-110.45C568.91,-102.201 588.755,-89.2158 603.881,-79.3187"/>
<polygon fill="midnightblue" stroke="midnightblue" points="606.131,-82.0294 612.582,-73.6253 602.298,-76.1719 606.131,-82.0294"/>
</g>
<!-- Node8 -->
<g id="node8" class="node"><title>Node8</title>
<polygon fill="white" stroke="#bfbfbf" points="678.5,-55.5 678.5,-73.5 721.5,-73.5 721.5,-55.5 678.5,-55.5"/>
<text text-anchor="middle" x="700" y="-62.3" font-family="Helvetica,sans-Serif" font-size="9.00">cstdint</text>
</g>
<!-- Node5&#45;&gt;Node8 -->
<g id="edge7" class="edge"><title>Node5&#45;&gt;Node8</title>
<path fill="none" stroke="midnightblue" d="M567.693,-110.45C594.649,-101.292 638.783,-86.2981 668.59,-76.1714"/>
<polygon fill="midnightblue" stroke="midnightblue" points="669.761,-79.4701 678.103,-72.9392 667.509,-72.8422 669.761,-79.4701"/>
</g>
<!-- Node9&#45;&gt;Node5 -->
<g id="edge19" class="edge"><title>Node9&#45;&gt;Node5</title>
<path fill="none" stroke="midnightblue" d="M306.526,-165.45C356.111,-156.065 438.08,-140.549 491.564,-130.425"/>
<polygon fill="midnightblue" stroke="midnightblue" points="492.359,-133.837 501.533,-128.538 491.057,-126.959 492.359,-133.837"/>
</g>
<!-- Node10 -->
<g id="node10" class="node"><title>Node10</title>
<g id="a_node10"><a xlink:href="util_8h.html" target="_top" xlink:title="Utilities and namespace globals. ">
<polygon fill="white" stroke="black" points="274,-110.5 274,-128.5 366,-128.5 366,-110.5 274,-110.5"/>
<text text-anchor="middle" x="320" y="-117.3" font-family="Helvetica,sans-Serif" font-size="9.00">PriorHessian/util.h</text>
</a>
</g>
</g>
<!-- Node9&#45;&gt;Node10 -->
<g id="edge9" class="edge"><title>Node9&#45;&gt;Node10</title>
<path fill="none" stroke="midnightblue" d="M272.75,-165.219C281.1,-157.316 293.876,-145.224 304.039,-135.606"/>
<polygon fill="midnightblue" stroke="midnightblue" points="306.638,-137.965 311.495,-128.55 301.826,-132.881 306.638,-137.965"/>
</g>
<!-- Node17 -->
<g id="node17" class="node"><title>Node17</title>
<g id="a_node17"><a xlink:href="BaseDist_8h.html" target="_top" xlink:title="The Base class for UnivariateDist and MultivariateDist. ">
<polygon fill="white" stroke="black" points="140,-110.5 140,-128.5 256,-128.5 256,-110.5 140,-110.5"/>
<text text-anchor="middle" x="198" y="-117.3" font-family="Helvetica,sans-Serif" font-size="9.00">PriorHessian/BaseDist.h</text>
</a>
</g>
</g>
<!-- Node9&#45;&gt;Node17 -->
<g id="edge20" class="edge"><title>Node9&#45;&gt;Node17</title>
<path fill="none" stroke="midnightblue" d="M253.976,-165.45C243.994,-157.434 228.443,-144.947 216.264,-135.166"/>
<polygon fill="midnightblue" stroke="midnightblue" points="218.107,-132.158 208.118,-128.625 213.724,-137.616 218.107,-132.158"/>
</g>
<!-- Node10&#45;&gt;Node3 -->
<g id="edge10" class="edge"><title>Node10&#45;&gt;Node3</title>
<path fill="none" stroke="midnightblue" d="M273.982,-111.318C227.38,-103.752 153.059,-90.8843 79.4927,-73.9178"/>
<polygon fill="midnightblue" stroke="midnightblue" points="80.1246,-70.4713 69.5909,-71.6078 78.5343,-77.2882 80.1246,-70.4713"/>
</g>
<!-- Node10&#45;&gt;Node4 -->
<g id="edge12" class="edge"><title>Node10&#45;&gt;Node4</title>
<path fill="none" stroke="midnightblue" d="M288.409,-110.45C249.936,-100.647 185.217,-84.1563 145.779,-74.1072"/>
<polygon fill="midnightblue" stroke="midnightblue" points="146.643,-70.7157 136.089,-71.638 144.915,-77.4989 146.643,-70.7157"/>
</g>
<!-- Node11 -->
<g id="node11" class="node"><title>Node11</title>
<polygon fill="white" stroke="#bfbfbf" points="150.5,-0.5 150.5,-18.5 189.5,-18.5 189.5,-0.5 150.5,-0.5"/>
<text text-anchor="middle" x="170" y="-7.3" font-family="Helvetica,sans-Serif" font-size="9.00">string</text>
</g>
<!-- Node10&#45;&gt;Node11 -->
<g id="edge11" class="edge"><title>Node10&#45;&gt;Node11</title>
<path fill="none" stroke="midnightblue" d="M281.267,-110.483C245.577,-102.315 196.207,-88.7773 183,-74 172.104,-61.8077 169.389,-42.997 169.078,-29.0099"/>
<polygon fill="midnightblue" stroke="midnightblue" points="172.584,-28.7049 169.256,-18.6463 165.585,-28.5848 172.584,-28.7049"/>
</g>
<!-- Node12 -->
<g id="node12" class="node"><title>Node12</title>
<polygon fill="white" stroke="#bfbfbf" points="308.5,-55.5 308.5,-73.5 349.5,-73.5 349.5,-55.5 308.5,-55.5"/>
<text text-anchor="middle" x="329" y="-62.3" font-family="Helvetica,sans-Serif" font-size="9.00">vector</text>
</g>
<!-- Node10&#45;&gt;Node12 -->
<g id="edge13" class="edge"><title>Node10&#45;&gt;Node12</title>
<path fill="none" stroke="midnightblue" d="M321.406,-110.219C322.615,-103.099 324.402,-92.5775 325.938,-83.5289"/>
<polygon fill="midnightblue" stroke="midnightblue" points="329.409,-83.9944 327.633,-73.5496 322.508,-82.8224 329.409,-83.9944"/>
</g>
<!-- Node13 -->
<g id="node13" class="node"><title>Node13</title>
<polygon fill="white" stroke="#bfbfbf" points="368,-55.5 368,-73.5 424,-73.5 424,-55.5 368,-55.5"/>
<text text-anchor="middle" x="396" y="-62.3" font-family="Helvetica,sans-Serif" font-size="9.00">typeindex</text>
</g>
<!-- Node10&#45;&gt;Node13 -->
<g id="edge14" class="edge"><title>Node10&#45;&gt;Node13</title>
<path fill="none" stroke="midnightblue" d="M331.543,-110.45C343.261,-102.279 361.642,-89.4604 375.782,-79.5996"/>
<polygon fill="midnightblue" stroke="midnightblue" points="378.148,-82.2163 384.349,-73.6253 374.144,-76.4746 378.148,-82.2163"/>
</g>
<!-- Node14 -->
<g id="node14" class="node"><title>Node14</title>
<polygon fill="white" stroke="#bfbfbf" points="442.5,-55.5 442.5,-73.5 497.5,-73.5 497.5,-55.5 442.5,-55.5"/>
<text text-anchor="middle" x="470" y="-62.3" font-family="Helvetica,sans-Serif" font-size="9.00">armadillo</text>
</g>
<!-- Node10&#45;&gt;Node14 -->
<g id="edge15" class="edge"><title>Node10&#45;&gt;Node14</title>
<path fill="none" stroke="midnightblue" d="M342.782,-110.45C368.002,-101.539 408.86,-87.1029 437.449,-77.0014"/>
<polygon fill="midnightblue" stroke="midnightblue" points="438.741,-80.2569 447.004,-73.6253 436.409,-73.6568 438.741,-80.2569"/>
</g>
<!-- Node15 -->
<g id="node15" class="node"><title>Node15</title>
<g id="a_node15"><a xlink:href="PriorHessianError_8h.html" target="_top" xlink:title="The Exception classes for the PriorHessian library. ">
<polygon fill="white" stroke="black" points="192,-55.5 192,-73.5 290,-73.5 290,-55.5 192,-55.5"/>
<text text-anchor="middle" x="241" y="-62.3" font-family="Helvetica,sans-Serif" font-size="9.00">PriorHessianError.h</text>
</a>
</g>
</g>
<!-- Node10&#45;&gt;Node15 -->
<g id="edge16" class="edge"><title>Node10&#45;&gt;Node15</title>
<path fill="none" stroke="midnightblue" d="M308.002,-110.45C295.705,-102.201 276.35,-89.2158 261.598,-79.3187"/>
<polygon fill="midnightblue" stroke="midnightblue" points="263.366,-76.2901 253.111,-73.6253 259.466,-82.1031 263.366,-76.2901"/>
</g>
<!-- Node15&#45;&gt;Node11 -->
<g id="edge18" class="edge"><title>Node15&#45;&gt;Node11</title>
<path fill="none" stroke="midnightblue" d="M230.217,-55.4504C219.374,-47.3566 202.424,-34.7042 189.267,-24.8822"/>
<polygon fill="midnightblue" stroke="midnightblue" points="190.992,-21.8025 180.885,-18.6253 186.805,-27.412 190.992,-21.8025"/>
</g>
<!-- Node16 -->
<g id="node16" class="node"><title>Node16</title>
<polygon fill="white" stroke="#bfbfbf" points="213,-0.5 213,-18.5 269,-18.5 269,-0.5 213,-0.5"/>
<text text-anchor="middle" x="241" y="-7.3" font-family="Helvetica,sans-Serif" font-size="9.00">exception</text>
</g>
<!-- Node15&#45;&gt;Node16 -->
<g id="edge17" class="edge"><title>Node15&#45;&gt;Node16</title>
<path fill="none" stroke="midnightblue" d="M241,-55.2188C241,-48.1769 241,-37.8083 241,-28.8277"/>
<polygon fill="midnightblue" stroke="midnightblue" points="244.5,-28.5495 241,-18.5496 237.5,-28.5496 244.5,-28.5495"/>
</g>
</g>
</svg>
        <g id="navigator" transform="translate(0 0)" fill="#404254">
                <rect fill="#f2f5e9" fill-opacity="0.5" stroke="#606060" stroke-width=".5" x="0" y="0" width="60" height="60"/>
                <use id="zoomplus" xlink:href="#zoomPlus" x="17" y="9" onmousedown="handleZoom(evt,'in')"/>
                <use id="zoomminus" xlink:href="#zoomMin" x="42" y="9" onmousedown="handleZoom(evt,'out')"/>
                <use id="reset" xlink:href="#resetDef" x="30" y="36" onmousedown="handleReset()"/>
                <g id="arrowUp" xlink:href="#dirArrow" transform="translate(30 24)" onmousedown="handlePan(0,-1)">
                  <use xlink:href="#rim" fill="#404040">
                        <set attributeName="fill" to="#808080" begin="arrowUp.mouseover" end="arrowUp.mouseout"/>
                  </use>
                  <path fill="none" stroke="white" stroke-width="1.5" d="M0,-3.0v7 M-2.5,-0.5L0,-3.0L2.5,-0.5"/>
                </g>
                <g id="arrowRight" xlink:href="#dirArrow" transform="rotate(90) translate(36 -43)" onmousedown="handlePan(1,0)">
                  <use xlink:href="#rim" fill="#404040">
                        <set attributeName="fill" to="#808080" begin="arrowRight.mouseover" end="arrowRight.mouseout"/>
                  </use>
                  <path fill="none" stroke="white" stroke-width="1.5" d="M0,-3.0v7 M-2.5,-0.5L0,-3.0L2.5,-0.5"/>
                </g>
                <g id="arrowDown" xlink:href="#dirArrow" transform="rotate(180) translate(-30 -48)" onmousedown="handlePan(0,1)">
                  <use xlink:href="#rim" fill="#404040">
                        <set attributeName="fill" to="#808080" begin="arrowDown.mouseover" end="arrowDown.mouseout"/>
                  </use>
                  <path fill="none" stroke="white" stroke-width="1.5" d="M0,-3.0v7 M-2.5,-0.5L0,-3.0L2.5,-0.5"/>
                </g>
                <g id="arrowLeft" xlink:href="#dirArrow" transform="rotate(270) translate(-36 17)" onmousedown="handlePan(-1,0)">
                  <use xlink:href="#rim" fill="#404040">
                        <set attributeName="fill" to="#808080" begin="arrowLeft.mouseover" end="arrowLeft.mouseout"/>
                  </use>
                  <path fill="none" stroke="white" stroke-width="1.5" d="M0,-3.0v7 M-2.5,-0.5L0,-3.0L2.5,-0.5"/>
                </g>
        </g>
        <svg viewBox="0 0 15 15" width="100%" height="30px" preserveAspectRatio="xMaxYMin meet">
         <g id="arrow_out" transform="scale(0.3 0.3)">
          <a xlink:href="GammaDist_8h__incl_org.svg" target="_base">
           <rect id="button" ry="5" rx="5" y="6" x="6" height="38" width="38"
                fill="#f2f5e9" fill-opacity="0.5" stroke="#606060" stroke-width="1.0"/>
           <path id="arrow"
             d="M 11.500037,31.436501 C 11.940474,20.09759 22.043105,11.32322 32.158766,21.979434 L 37.068811,17.246167 C 37.068811,17.246167 37.088388,32 37.088388,32 L 22.160133,31.978069 C 22.160133,31.978069 26.997745,27.140456 26.997745,27.140456 C 18.528582,18.264221 13.291696,25.230495 11.500037,31.436501 z"
             style="fill:#404040;"/>
          </a>
         </g>
        </svg>
</svg>
