<?xml version="1.0" encoding="UTF-8" standalone="no"?>
<!DOCTYPE svg PUBLIC "-//W3C//DTD SVG 1.1//EN"
 "http://www.w3.org/Graphics/SVG/1.1/DTD/svg11.dtd">
<!-- Generated by graphviz version 2.38.0 (20140413.2041)
 -->
<!-- Title: Graphical Class Hierarchy Pages: 1 -->
<svg width="308pt" height="37pt"
 viewBox="0.00 0.00 308.00 37.00" xmlns="http://www.w3.org/2000/svg" xmlns:xlink="http://www.w3.org/1999/xlink">
<g id="graph0" class="graph" transform="scale(1 1) rotate(0) translate(4 33)">
<title>Graphical Class Hierarchy</title>
<polygon fill="white" stroke="none" points="-4,4 -4,-33 304,-33 304,4 -4,4"/>
<!-- Node1 -->
<g id="node1" class="node"><title>Node1</title>
<g id="a_node1"><a xlink:href="structprior__hessian_1_1ArchimedeanCopula_1_1D__IGenTerms.html" target="_top" xlink:title="prior_hessian::Archimedean\lCopula::D_IGenTerms">
<polygon fill="white" stroke="black" points="0,-0.5 0,-28.5 132,-28.5 132,-0.5 0,-0.5"/>
<text text-anchor="start" x="8" y="-17.3" font-family="Helvetica,sans-Serif" font-size="9.00">prior_hessian::Archimedean</text>
<text text-anchor="middle" x="66" y="-7.3" font-family="Helvetica,sans-Serif" font-size="9.00">Copula::D_IGenTerms</text>
</a>
</g>
</g>
<!-- Node2 -->
<g id="node2" class="node"><title>Node2</title>
<g id="a_node2"><a xlink:href="structprior__hessian_1_1ArchimedeanCopula_1_1D2__IGenTerms.html" target="_top" xlink:title="prior_hessian::Archimedean\lCopula::D2_IGenTerms">
<polygon fill="white" stroke="black" points="168,-0.5 168,-28.5 300,-28.5 300,-0.5 168,-0.5"/>
<text text-anchor="start" x="176" y="-17.3" font-family="Helvetica,sans-Serif" font-size="9.00">prior_hessian::Archimedean</text>
<text text-anchor="middle" x="234" y="-7.3" font-family="Helvetica,sans-Serif" font-size="9.00">Copula::D2_IGenTerms</text>
</a>
</g>
</g>
<!-- Node1&#45;&gt;Node2 -->
<g id="edge1" class="edge"><title>Node1&#45;&gt;Node2</title>
<path fill="none" stroke="midnightblue" d="M142.393,-14.5C150.869,-14.5 159.452,-14.5 167.784,-14.5"/>
<polygon fill="midnightblue" stroke="midnightblue" points="142.131,-11.0001 132.131,-14.5 142.131,-18.0001 142.131,-11.0001"/>
</g>
</g>
</svg>
