<?xml version="1.0" encoding="UTF-8" standalone="no"?>
<!DOCTYPE svg PUBLIC "-//W3C//DTD SVG 1.1//EN"
 "http://www.w3.org/Graphics/SVG/1.1/DTD/svg11.dtd">
<!-- Generated by graphviz version 2.38.0 (20140413.2041)
 -->
<!-- Title: Graphical Class Hierarchy Pages: 1 -->
<svg width="171pt" height="84pt"
 viewBox="0.00 0.00 171.00 84.00" xmlns="http://www.w3.org/2000/svg" xmlns:xlink="http://www.w3.org/1999/xlink">
<g id="graph0" class="graph" transform="scale(1 1) rotate(0) translate(4 80)">
<title>Graphical Class Hierarchy</title>
<polygon fill="white" stroke="none" points="-4,4 -4,-80 167,-80 167,4 -4,4"/>
<!-- Node1 -->
<g id="node1" class="node"><title>Node1</title>
<polygon fill="white" stroke="#bfbfbf" points="0,-28.5 0,-46.5 29,-46.5 29,-28.5 0,-28.5"/>
<text text-anchor="middle" x="14.5" y="-35.3" font-family="Helvetica,sans-Serif" font-size="9.00">B1</text>
</g>
<!-- Node2 -->
<g id="node2" class="node"><title>Node2</title>
<g id="a_node2"><a xlink:href="structprior__hessian_1_1meta_1_1conjunction_3_01B1_01_4.html" target="_top" xlink:title="prior_hessian::meta\l::conjunction\&lt; B1 \&gt;">
<polygon fill="white" stroke="black" points="65,-47.5 65,-75.5 163,-75.5 163,-47.5 65,-47.5"/>
<text text-anchor="start" x="73" y="-64.3" font-family="Helvetica,sans-Serif" font-size="9.00">prior_hessian::meta</text>
<text text-anchor="middle" x="114" y="-54.3" font-family="Helvetica,sans-Serif" font-size="9.00">::conjunction&lt; B1 &gt;</text>
</a>
</g>
</g>
<!-- Node1&#45;&gt;Node2 -->
<g id="edge1" class="edge"><title>Node1&#45;&gt;Node2</title>
<path fill="none" stroke="midnightblue" d="M38.8701,-43.2527C46.7025,-45.1806 55.7469,-47.4069 64.7677,-49.6274"/>
<polygon fill="midnightblue" stroke="midnightblue" points="39.6037,-39.8288 29.057,-40.8371 37.9305,-46.6259 39.6037,-39.8288"/>
</g>
<!-- Node3 -->
<g id="node3" class="node"><title>Node3</title>
<g id="a_node3"><a xlink:href="structprior__hessian_1_1meta_1_1disjunction_3_01B1_01_4.html" target="_top" xlink:title="prior_hessian::meta\l::disjunction\&lt; B1 \&gt;">
<polygon fill="white" stroke="black" points="65,-0.5 65,-28.5 163,-28.5 163,-0.5 65,-0.5"/>
<text text-anchor="start" x="73" y="-17.3" font-family="Helvetica,sans-Serif" font-size="9.00">prior_hessian::meta</text>
<text text-anchor="middle" x="114" y="-7.3" font-family="Helvetica,sans-Serif" font-size="9.00">::disjunction&lt; B1 &gt;</text>
</a>
</g>
</g>
<!-- Node1&#45;&gt;Node3 -->
<g id="edge2" class="edge"><title>Node1&#45;&gt;Node3</title>
<path fill="none" stroke="midnightblue" d="M38.8701,-31.987C46.7025,-30.1394 55.7469,-28.0059 64.7677,-25.8779"/>
<polygon fill="midnightblue" stroke="midnightblue" points="37.9862,-28.5994 29.057,-34.3019 39.5934,-35.4124 37.9862,-28.5994"/>
</g>
</g>
</svg>
