<?xml version="1.0" encoding="UTF-8" standalone="no"?>
<!DOCTYPE svg PUBLIC "-//W3C//DTD SVG 1.1//EN"
 "http://www.w3.org/Graphics/SVG/1.1/DTD/svg11.dtd">
<!-- Generated by graphviz version 2.38.0 (20140413.2041)
 -->
<!-- Title: Graphical Class Hierarchy Pages: 1 -->
<svg width="451pt" height="497pt"
 viewBox="0.00 0.00 451.00 497.00" xmlns="http://www.w3.org/2000/svg" xmlns:xlink="http://www.w3.org/1999/xlink">
<g id="graph0" class="graph" transform="scale(1 1) rotate(0) translate(4 493)">
<title>Graphical Class Hierarchy</title>
<polygon fill="white" stroke="none" points="-4,4 -4,-493 447,-493 447,4 -4,4"/>
<!-- Node1 -->
<g id="node1" class="node"><title>Node1</title>
<g id="a_node1"><a xlink:title="STL class. ">
<polygon fill="white" stroke="#bfbfbf" points="0,-240.5 0,-258.5 73,-258.5 73,-240.5 0,-240.5"/>
<text text-anchor="middle" x="36.5" y="-247.3" font-family="Helvetica,sans-Serif" font-size="9.00">std::exception</text>
</a>
</g>
</g>
<!-- Node2 -->
<g id="node2" class="node"><title>Node2</title>
<g id="a_node2"><a xlink:href="classprior__hessian_1_1PriorHessianError.html" target="_top" xlink:title="prior_hessian::PriorHessian\lError">
<polygon fill="white" stroke="black" points="109,-235.5 109,-263.5 240,-263.5 240,-235.5 109,-235.5"/>
<text text-anchor="start" x="117" y="-252.3" font-family="Helvetica,sans-Serif" font-size="9.00">prior_hessian::PriorHessian</text>
<text text-anchor="middle" x="174.5" y="-242.3" font-family="Helvetica,sans-Serif" font-size="9.00">Error</text>
</a>
</g>
</g>
<!-- Node1&#45;&gt;Node2 -->
<g id="edge1" class="edge"><title>Node1&#45;&gt;Node2</title>
<path fill="none" stroke="midnightblue" d="M83.317,-249.5C91.5155,-249.5 100.197,-249.5 108.808,-249.5"/>
<polygon fill="midnightblue" stroke="midnightblue" points="83.2324,-246 73.2324,-249.5 83.2324,-253 83.2324,-246"/>
</g>
<!-- Node3 -->
<g id="node3" class="node"><title>Node3</title>
<g id="a_node3"><a xlink:href="structprior__hessian_1_1IndexError.html" target="_top" xlink:title="Indicates a index access was out of bounds. ">
<polygon fill="white" stroke="black" points="299.5,-470.5 299.5,-488.5 419.5,-488.5 419.5,-470.5 299.5,-470.5"/>
<text text-anchor="middle" x="359.5" y="-477.3" font-family="Helvetica,sans-Serif" font-size="9.00">prior_hessian::IndexError</text>
</a>
</g>
</g>
<!-- Node2&#45;&gt;Node3 -->
<g id="edge2" class="edge"><title>Node2&#45;&gt;Node3</title>
<path fill="none" stroke="midnightblue" d="M179.701,-273.394C188.813,-317.768 214.723,-412.806 276,-461.5 282.772,-466.881 290.804,-470.738 299.156,-473.487"/>
<polygon fill="midnightblue" stroke="midnightblue" points="183.122,-272.654 177.779,-263.505 176.251,-273.989 183.122,-272.654"/>
</g>
<!-- Node4 -->
<g id="node4" class="node"><title>Node4</title>
<g id="a_node4"><a xlink:href="structprior__hessian_1_1InvalidOperationError.html" target="_top" xlink:title="prior_hessian::InvalidOperation\lError">
<polygon fill="white" stroke="black" points="287,-423.5 287,-451.5 432,-451.5 432,-423.5 287,-423.5"/>
<text text-anchor="start" x="295" y="-440.3" font-family="Helvetica,sans-Serif" font-size="9.00">prior_hessian::InvalidOperation</text>
<text text-anchor="middle" x="359.5" y="-430.3" font-family="Helvetica,sans-Serif" font-size="9.00">Error</text>
</a>
</g>
</g>
<!-- Node2&#45;&gt;Node4 -->
<g id="edge3" class="edge"><title>Node2&#45;&gt;Node4</title>
<path fill="none" stroke="midnightblue" d="M183.629,-273.638C197.052,-309.784 227.314,-377.657 276,-414.5 280.624,-417.999 285.754,-420.966 291.128,-423.482"/>
<polygon fill="midnightblue" stroke="midnightblue" points="186.814,-272.153 180.144,-263.921 180.225,-274.516 186.814,-272.153"/>
</g>
<!-- Node5 -->
<g id="node5" class="node"><title>Node5</title>
<g id="a_node5"><a xlink:href="structprior__hessian_1_1NotImplementedError.html" target="_top" xlink:title="prior_hessian::NotImplemented\lError">
<polygon fill="white" stroke="black" points="287,-376.5 287,-404.5 432,-404.5 432,-376.5 287,-376.5"/>
<text text-anchor="start" x="295" y="-393.3" font-family="Helvetica,sans-Serif" font-size="9.00">prior_hessian::NotImplemented</text>
<text text-anchor="middle" x="359.5" y="-383.3" font-family="Helvetica,sans-Serif" font-size="9.00">Error</text>
</a>
</g>
</g>
<!-- Node2&#45;&gt;Node5 -->
<g id="edge4" class="edge"><title>Node2&#45;&gt;Node5</title>
<path fill="none" stroke="midnightblue" d="M189.135,-272.606C206.13,-299.397 237.664,-343.003 276,-367.5 281.388,-370.943 287.293,-373.878 293.39,-376.379"/>
<polygon fill="midnightblue" stroke="midnightblue" points="191.98,-270.552 183.742,-263.89 186.027,-274.235 191.98,-270.552"/>
</g>
<!-- Node6 -->
<g id="node6" class="node"><title>Node6</title>
<g id="a_node6"><a xlink:href="structprior__hessian_1_1NumericalOverflowError.html" target="_top" xlink:title="prior_hessian::Numerical\lOverflowError">
<polygon fill="white" stroke="black" points="300,-329.5 300,-357.5 419,-357.5 419,-329.5 300,-329.5"/>
<text text-anchor="start" x="308" y="-346.3" font-family="Helvetica,sans-Serif" font-size="9.00">prior_hessian::Numerical</text>
<text text-anchor="middle" x="359.5" y="-336.3" font-family="Helvetica,sans-Serif" font-size="9.00">OverflowError</text>
</a>
</g>
</g>
<!-- Node2&#45;&gt;Node6 -->
<g id="edge5" class="edge"><title>Node2&#45;&gt;Node6</title>
<path fill="none" stroke="midnightblue" d="M199.566,-270.108C219.052,-285.87 247.803,-307.106 276,-320.5 283.521,-324.073 291.7,-327.183 299.888,-329.862"/>
<polygon fill="midnightblue" stroke="midnightblue" points="201.756,-267.378 191.81,-263.727 197.309,-272.783 201.756,-267.378"/>
</g>
<!-- Node7 -->
<g id="node7" class="node"><title>Node7</title>
<g id="a_node7"><a xlink:href="structprior__hessian_1_1ParameterNameError.html" target="_top" xlink:title="prior_hessian::Parameter\lNameError">
<polygon fill="white" stroke="black" points="299.5,-282.5 299.5,-310.5 419.5,-310.5 419.5,-282.5 299.5,-282.5"/>
<text text-anchor="start" x="307.5" y="-299.3" font-family="Helvetica,sans-Serif" font-size="9.00">prior_hessian::Parameter</text>
<text text-anchor="middle" x="359.5" y="-289.3" font-family="Helvetica,sans-Serif" font-size="9.00">NameError</text>
</a>
</g>
</g>
<!-- Node2&#45;&gt;Node7 -->
<g id="edge6" class="edge"><title>Node2&#45;&gt;Node7</title>
<path fill="none" stroke="midnightblue" d="M240.142,-266.102C260.997,-271.458 283.896,-277.339 303.948,-282.489"/>
<polygon fill="midnightblue" stroke="midnightblue" points="240.962,-262.699 230.406,-263.602 239.221,-269.479 240.962,-262.699"/>
</g>
<!-- Node8 -->
<g id="node8" class="node"><title>Node8</title>
<g id="a_node8"><a xlink:href="structprior__hessian_1_1ParameterNameUniquenessError.html" target="_top" xlink:title="prior_hessian::Parameter\lNameUniquenessError">
<polygon fill="white" stroke="black" points="299.5,-235.5 299.5,-263.5 419.5,-263.5 419.5,-235.5 299.5,-235.5"/>
<text text-anchor="start" x="307.5" y="-252.3" font-family="Helvetica,sans-Serif" font-size="9.00">prior_hessian::Parameter</text>
<text text-anchor="middle" x="359.5" y="-242.3" font-family="Helvetica,sans-Serif" font-size="9.00">NameUniquenessError</text>
</a>
</g>
</g>
<!-- Node2&#45;&gt;Node8 -->
<g id="edge7" class="edge"><title>Node2&#45;&gt;Node8</title>
<path fill="none" stroke="midnightblue" d="M250.131,-249.5C266.559,-249.5 283.739,-249.5 299.452,-249.5"/>
<polygon fill="midnightblue" stroke="midnightblue" points="250.019,-246 240.019,-249.5 250.019,-253 250.019,-246"/>
</g>
<!-- Node9 -->
<g id="node9" class="node"><title>Node9</title>
<g id="a_node9"><a xlink:href="structprior__hessian_1_1ParameterSizeError.html" target="_top" xlink:title="prior_hessian::Parameter\lSizeError">
<polygon fill="white" stroke="black" points="299.5,-188.5 299.5,-216.5 419.5,-216.5 419.5,-188.5 299.5,-188.5"/>
<text text-anchor="start" x="307.5" y="-205.3" font-family="Helvetica,sans-Serif" font-size="9.00">prior_hessian::Parameter</text>
<text text-anchor="middle" x="359.5" y="-195.3" font-family="Helvetica,sans-Serif" font-size="9.00">SizeError</text>
</a>
</g>
</g>
<!-- Node2&#45;&gt;Node9 -->
<g id="edge8" class="edge"><title>Node2&#45;&gt;Node9</title>
<path fill="none" stroke="midnightblue" d="M240.142,-232.898C260.997,-227.542 283.896,-221.661 303.948,-216.511"/>
<polygon fill="midnightblue" stroke="midnightblue" points="239.221,-229.521 230.406,-235.398 240.962,-236.301 239.221,-229.521"/>
</g>
<!-- Node10 -->
<g id="node10" class="node"><title>Node10</title>
<g id="a_node10"><a xlink:href="structprior__hessian_1_1ParameterValueError.html" target="_top" xlink:title="prior_hessian::Parameter\lValueError">
<polygon fill="white" stroke="black" points="299.5,-141.5 299.5,-169.5 419.5,-169.5 419.5,-141.5 299.5,-141.5"/>
<text text-anchor="start" x="307.5" y="-158.3" font-family="Helvetica,sans-Serif" font-size="9.00">prior_hessian::Parameter</text>
<text text-anchor="middle" x="359.5" y="-148.3" font-family="Helvetica,sans-Serif" font-size="9.00">ValueError</text>
</a>
</g>
</g>
<!-- Node2&#45;&gt;Node10 -->
<g id="edge9" class="edge"><title>Node2&#45;&gt;Node10</title>
<path fill="none" stroke="midnightblue" d="M200.269,-228.801C219.791,-213.37 248.257,-192.756 276,-179.5 283.941,-175.706 292.604,-172.386 301.234,-169.523"/>
<polygon fill="midnightblue" stroke="midnightblue" points="197.823,-226.277 192.222,-235.27 202.208,-231.733 197.823,-226.277"/>
</g>
<!-- Node11 -->
<g id="node11" class="node"><title>Node11</title>
<g id="a_node11"><a xlink:href="structprior__hessian_1_1RuntimeConvergenceError.html" target="_top" xlink:title="prior_hessian::RuntimeConvergence\lError">
<polygon fill="white" stroke="black" points="276,-94.5 276,-122.5 443,-122.5 443,-94.5 276,-94.5"/>
<text text-anchor="start" x="284" y="-111.3" font-family="Helvetica,sans-Serif" font-size="9.00">prior_hessian::RuntimeConvergence</text>
<text text-anchor="middle" x="359.5" y="-101.3" font-family="Helvetica,sans-Serif" font-size="9.00">Error</text>
</a>
</g>
</g>
<!-- Node2&#45;&gt;Node11 -->
<g id="edge10" class="edge"><title>Node2&#45;&gt;Node11</title>
<path fill="none" stroke="midnightblue" d="M189.229,-226.666C206.316,-200.176 237.937,-157.01 276,-132.5 282.02,-128.624 288.683,-125.357 295.536,-122.608"/>
<polygon fill="midnightblue" stroke="midnightblue" points="186.17,-224.956 183.805,-235.283 192.094,-228.685 186.17,-224.956"/>
</g>
<!-- Node12 -->
<g id="node12" class="node"><title>Node12</title>
<g id="a_node12"><a xlink:href="structprior__hessian_1_1RuntimeSamplingError.html" target="_top" xlink:title="prior_hessian::RuntimeSampling\lError">
<polygon fill="white" stroke="black" points="284,-47.5 284,-75.5 435,-75.5 435,-47.5 284,-47.5"/>
<text text-anchor="start" x="292" y="-64.3" font-family="Helvetica,sans-Serif" font-size="9.00">prior_hessian::RuntimeSampling</text>
<text text-anchor="middle" x="359.5" y="-54.3" font-family="Helvetica,sans-Serif" font-size="9.00">Error</text>
</a>
</g>
</g>
<!-- Node2&#45;&gt;Node12 -->
<g id="edge11" class="edge"><title>Node2&#45;&gt;Node12</title>
<path fill="none" stroke="midnightblue" d="M183.722,-225.575C197.266,-189.735 227.685,-122.386 276,-85.5 281.098,-81.6077 286.811,-78.3459 292.789,-75.6126"/>
<polygon fill="midnightblue" stroke="midnightblue" points="180.346,-224.614 180.203,-235.208 186.922,-227.016 180.346,-224.614"/>
</g>
<!-- Node13 -->
<g id="node13" class="node"><title>Node13</title>
<g id="a_node13"><a xlink:href="structprior__hessian_1_1RuntimeTypeError.html" target="_top" xlink:title="prior_hessian::RuntimeType\lError">
<polygon fill="white" stroke="black" points="293.5,-0.5 293.5,-28.5 425.5,-28.5 425.5,-0.5 293.5,-0.5"/>
<text text-anchor="start" x="301.5" y="-17.3" font-family="Helvetica,sans-Serif" font-size="9.00">prior_hessian::RuntimeType</text>
<text text-anchor="middle" x="359.5" y="-7.3" font-family="Helvetica,sans-Serif" font-size="9.00">Error</text>
</a>
</g>
</g>
<!-- Node2&#45;&gt;Node13 -->
<g id="edge12" class="edge"><title>Node2&#45;&gt;Node13</title>
<path fill="none" stroke="midnightblue" d="M180.193,-225.469C190.01,-181.674 216.889,-88.7643 276,-38.5 281.114,-34.1517 286.979,-30.5904 293.173,-27.674"/>
<polygon fill="midnightblue" stroke="midnightblue" points="176.77,-224.738 178.104,-235.248 183.616,-226.2 176.77,-224.738"/>
</g>
</g>
</svg>
