<?xml version="1.0" encoding="UTF-8" standalone="no"?>
<!DOCTYPE svg PUBLIC "-//W3C//DTD SVG 1.1//EN"
 "http://www.w3.org/Graphics/SVG/1.1/DTD/svg11.dtd">
<!-- Generated by graphviz version 2.38.0 (20140413.2041)
 -->
<!-- Title: Graphical Class Hierarchy Pages: 1 -->
<svg width="496pt" height="252pt"
 viewBox="0.00 0.00 496.00 252.00" xmlns="http://www.w3.org/2000/svg" xmlns:xlink="http://www.w3.org/1999/xlink">
<g id="graph0" class="graph" transform="scale(1 1) rotate(0) translate(4 248)">
<title>Graphical Class Hierarchy</title>
<polygon fill="white" stroke="none" points="-4,4 -4,-248 492,-248 492,4 -4,4"/>
<!-- Node1 -->
<g id="node1" class="node"><title>Node1</title>
<g id="a_node1"><a xlink:href="classprior__hessian_1_1BaseDist.html" target="_top" xlink:title="prior_hessian::BaseDist">
<polygon fill="white" stroke="black" points="0,-123.5 0,-141.5 114,-141.5 114,-123.5 0,-123.5"/>
<text text-anchor="middle" x="57" y="-130.3" font-family="Helvetica,sans-Serif" font-size="9.00">prior_hessian::BaseDist</text>
</a>
</g>
</g>
<!-- Node2 -->
<g id="node2" class="node"><title>Node2</title>
<g id="a_node2"><a xlink:href="classprior__hessian_1_1MultivariateDist.html" target="_top" xlink:title="prior_hessian::MultivariateDist">
<polygon fill="white" stroke="black" points="150,-163.5 150,-181.5 290,-181.5 290,-163.5 150,-163.5"/>
<text text-anchor="middle" x="220" y="-170.3" font-family="Helvetica,sans-Serif" font-size="9.00">prior_hessian::MultivariateDist</text>
</a>
</g>
</g>
<!-- Node1&#45;&gt;Node2 -->
<g id="edge1" class="edge"><title>Node1&#45;&gt;Node2</title>
<path fill="none" stroke="midnightblue" d="M104.472,-144.046C129.325,-150.221 159.482,-157.713 182.611,-163.459"/>
<polygon fill="midnightblue" stroke="midnightblue" points="105.082,-140.591 94.5334,-141.577 103.394,-147.385 105.082,-140.591"/>
</g>
<!-- Node5 -->
<g id="node5" class="node"><title>Node5</title>
<g id="a_node5"><a xlink:href="classprior__hessian_1_1UnivariateDist.html" target="_top" xlink:title="prior_hessian::UnivariateDist">
<polygon fill="white" stroke="black" points="152.5,-84.5 152.5,-102.5 287.5,-102.5 287.5,-84.5 152.5,-84.5"/>
<text text-anchor="middle" x="220" y="-91.3" font-family="Helvetica,sans-Serif" font-size="9.00">prior_hessian::UnivariateDist</text>
</a>
</g>
</g>
<!-- Node1&#45;&gt;Node5 -->
<g id="edge4" class="edge"><title>Node1&#45;&gt;Node5</title>
<path fill="none" stroke="midnightblue" d="M105.099,-121.091C129.463,-115.189 158.789,-108.085 181.583,-102.564"/>
<polygon fill="midnightblue" stroke="midnightblue" points="104.236,-117.699 95.3413,-123.455 105.884,-124.502 104.236,-117.699"/>
</g>
<!-- Node3 -->
<g id="node3" class="node"><title>Node3</title>
<g id="a_node3"><a xlink:href="classprior__hessian_1_1CopulaDistImpl_1_1CopulaDist.html" target="_top" xlink:title="prior_hessian::CopulaDist\lImpl::CopulaDist\&lt; CopulaTemplate,\l MarginalDistTs \&gt;">
<polygon fill="white" stroke="black" points="326,-205.5 326,-243.5 488,-243.5 488,-205.5 326,-205.5"/>
<text text-anchor="start" x="334" y="-232.3" font-family="Helvetica,sans-Serif" font-size="9.00">prior_hessian::CopulaDist</text>
<text text-anchor="start" x="334" y="-222.3" font-family="Helvetica,sans-Serif" font-size="9.00">Impl::CopulaDist&lt; CopulaTemplate,</text>
<text text-anchor="middle" x="407" y="-212.3" font-family="Helvetica,sans-Serif" font-size="9.00"> MarginalDistTs &gt;</text>
</a>
</g>
</g>
<!-- Node2&#45;&gt;Node3 -->
<g id="edge2" class="edge"><title>Node2&#45;&gt;Node3</title>
<path fill="none" stroke="midnightblue" d="M262.999,-184.305C285.194,-190.544 312.983,-198.355 338.147,-205.428"/>
<polygon fill="midnightblue" stroke="midnightblue" points="263.799,-180.894 253.225,-181.558 261.904,-187.633 263.799,-180.894"/>
</g>
<!-- Node4 -->
<g id="node4" class="node"><title>Node4</title>
<g id="a_node4"><a xlink:href="classprior__hessian_1_1MultivariateNormalDist.html" target="_top" xlink:title="Multivariate Normal distribution. ">
<polygon fill="white" stroke="black" points="344.5,-158.5 344.5,-186.5 469.5,-186.5 469.5,-158.5 344.5,-158.5"/>
<text text-anchor="start" x="352.5" y="-175.3" font-family="Helvetica,sans-Serif" font-size="9.00">prior_hessian::Multivariate</text>
<text text-anchor="middle" x="407" y="-165.3" font-family="Helvetica,sans-Serif" font-size="9.00">NormalDist&lt; Ndim &gt;</text>
</a>
</g>
</g>
<!-- Node2&#45;&gt;Node4 -->
<g id="edge3" class="edge"><title>Node2&#45;&gt;Node4</title>
<path fill="none" stroke="midnightblue" d="M300.248,-172.5C314.967,-172.5 330.142,-172.5 344.242,-172.5"/>
<polygon fill="midnightblue" stroke="midnightblue" points="300.15,-169 290.15,-172.5 300.15,-176 300.15,-169"/>
</g>
<!-- Node6 -->
<g id="node6" class="node"><title>Node6</title>
<g id="a_node6"><a xlink:href="classprior__hessian_1_1GammaDist.html" target="_top" xlink:title="Gamma distribution. ">
<polygon fill="white" stroke="black" points="344.5,-121.5 344.5,-139.5 469.5,-139.5 469.5,-121.5 344.5,-121.5"/>
<text text-anchor="middle" x="407" y="-128.3" font-family="Helvetica,sans-Serif" font-size="9.00">prior_hessian::GammaDist</text>
</a>
</g>
</g>
<!-- Node5&#45;&gt;Node6 -->
<g id="edge5" class="edge"><title>Node5&#45;&gt;Node6</title>
<path fill="none" stroke="midnightblue" d="M276.332,-104.566C303.332,-109.966 335.401,-116.38 360.891,-121.478"/>
<polygon fill="midnightblue" stroke="midnightblue" points="276.748,-101.08 266.256,-102.551 275.375,-107.944 276.748,-101.08"/>
</g>
<!-- Node7 -->
<g id="node7" class="node"><title>Node7</title>
<g id="a_node7"><a xlink:href="classprior__hessian_1_1NormalDist.html" target="_top" xlink:title="Normal distribution with truncation. ">
<polygon fill="white" stroke="black" points="345.5,-84.5 345.5,-102.5 468.5,-102.5 468.5,-84.5 345.5,-84.5"/>
<text text-anchor="middle" x="407" y="-91.3" font-family="Helvetica,sans-Serif" font-size="9.00">prior_hessian::NormalDist</text>
</a>
</g>
</g>
<!-- Node5&#45;&gt;Node7 -->
<g id="edge6" class="edge"><title>Node5&#45;&gt;Node7</title>
<path fill="none" stroke="midnightblue" d="M297.822,-93.5C313.657,-93.5 330.123,-93.5 345.291,-93.5"/>
<polygon fill="midnightblue" stroke="midnightblue" points="297.528,-90.0001 287.528,-93.5 297.528,-97.0001 297.528,-90.0001"/>
</g>
<!-- Node8 -->
<g id="node8" class="node"><title>Node8</title>
<g id="a_node8"><a xlink:href="classprior__hessian_1_1ParetoDist.html" target="_top" xlink:title="Pareto dist with infinite upper bound. ">
<polygon fill="white" stroke="black" points="347,-47.5 347,-65.5 467,-65.5 467,-47.5 347,-47.5"/>
<text text-anchor="middle" x="407" y="-54.3" font-family="Helvetica,sans-Serif" font-size="9.00">prior_hessian::ParetoDist</text>
</a>
</g>
</g>
<!-- Node5&#45;&gt;Node8 -->
<g id="edge7" class="edge"><title>Node5&#45;&gt;Node8</title>
<path fill="none" stroke="midnightblue" d="M276.332,-82.4336C303.332,-77.0335 335.401,-70.6199 360.891,-65.5218"/>
<polygon fill="midnightblue" stroke="midnightblue" points="275.375,-79.0555 266.256,-84.4488 276.748,-85.9196 275.375,-79.0555"/>
</g>
<!-- Node9 -->
<g id="node9" class="node"><title>Node9</title>
<g id="a_node9"><a xlink:href="classprior__hessian_1_1SymmetricBetaDist.html" target="_top" xlink:title="Single parameter beta distribution where , leading to symmetric bounded distribution. ">
<polygon fill="white" stroke="black" points="347,-0.5 347,-28.5 467,-28.5 467,-0.5 347,-0.5"/>
<text text-anchor="start" x="355" y="-17.3" font-family="Helvetica,sans-Serif" font-size="9.00">prior_hessian::Symmetric</text>
<text text-anchor="middle" x="407" y="-7.3" font-family="Helvetica,sans-Serif" font-size="9.00">BetaDist</text>
</a>
</g>
</g>
<!-- Node5&#45;&gt;Node9 -->
<g id="edge8" class="edge"><title>Node5&#45;&gt;Node9</title>
<path fill="none" stroke="midnightblue" d="M245.025,-79.2248C265.909,-67.2306 297.245,-50.2187 326,-38.5 334.863,-34.8882 344.473,-31.5435 353.856,-28.5683"/>
<polygon fill="midnightblue" stroke="midnightblue" points="243.099,-76.2954 236.211,-84.3455 246.616,-82.3479 243.099,-76.2954"/>
</g>
</g>
</svg>
