<?xml version="1.0" encoding="UTF-8" standalone="no"?>
<!DOCTYPE svg PUBLIC "-//W3C//DTD SVG 1.1//EN"
 "http://www.w3.org/Graphics/SVG/1.1/DTD/svg11.dtd">
<!-- Generated by graphviz version 2.38.0 (20140413.2041)
 -->
<!-- Title: Graphical Class Hierarchy Pages: 1 -->
<svg width="251pt" height="208pt"
 viewBox="0.00 0.00 251.00 208.00" xmlns="http://www.w3.org/2000/svg" xmlns:xlink="http://www.w3.org/1999/xlink">
<g id="graph0" class="graph" transform="scale(1 1) rotate(0) translate(4 204)">
<title>Graphical Class Hierarchy</title>
<polygon fill="white" stroke="none" points="-4,4 -4,-204 247,-204 247,4 -4,4"/>
<!-- Node1 -->
<g id="node1" class="node"><title>Node1</title>
<polygon fill="white" stroke="#bfbfbf" points="0,-100.5 0,-118.5 55,-118.5 55,-100.5 0,-100.5"/>
<text text-anchor="middle" x="27.5" y="-107.3" font-family="Helvetica,sans-Serif" font-size="9.00">true_type</text>
</g>
<!-- Node2 -->
<g id="node2" class="node"><title>Node2</title>
<g id="a_node2"><a xlink:href="structprior__hessian_1_1meta_1_1conjunction.html" target="_top" xlink:title="prior_hessian::meta\l::conjunction\&lt;... \&gt;">
<polygon fill="white" stroke="black" points="118,-171.5 118,-199.5 216,-199.5 216,-171.5 118,-171.5"/>
<text text-anchor="start" x="126" y="-188.3" font-family="Helvetica,sans-Serif" font-size="9.00">prior_hessian::meta</text>
<text text-anchor="middle" x="167" y="-178.3" font-family="Helvetica,sans-Serif" font-size="9.00">::conjunction&lt;... &gt;</text>
</a>
</g>
</g>
<!-- Node1&#45;&gt;Node2 -->
<g id="edge1" class="edge"><title>Node1&#45;&gt;Node2</title>
<path fill="none" stroke="midnightblue" d="M44.2561,-126.057C56.1363,-137.694 73.3533,-152.849 91,-162.5 99.2449,-167.009 108.494,-170.758 117.607,-173.83"/>
<polygon fill="midnightblue" stroke="midnightblue" points="46.4679,-123.316 36.9444,-118.674 41.4941,-128.242 46.4679,-123.316"/>
</g>
<!-- Node3 -->
<g id="node3" class="node"><title>Node3</title>
<g id="a_node3"><a xlink:href="structprior__hessian_1_1meta_1_1disjunction.html" target="_top" xlink:title="prior_hessian::meta\l::disjunction\&lt;... \&gt;">
<polygon fill="white" stroke="black" points="118,-124.5 118,-152.5 216,-152.5 216,-124.5 118,-124.5"/>
<text text-anchor="start" x="126" y="-141.3" font-family="Helvetica,sans-Serif" font-size="9.00">prior_hessian::meta</text>
<text text-anchor="middle" x="167" y="-131.3" font-family="Helvetica,sans-Serif" font-size="9.00">::disjunction&lt;... &gt;</text>
</a>
</g>
</g>
<!-- Node1&#45;&gt;Node3 -->
<g id="edge2" class="edge"><title>Node1&#45;&gt;Node3</title>
<path fill="none" stroke="midnightblue" d="M65.1475,-117.229C81.3211,-120.64 100.551,-124.696 117.861,-128.347"/>
<polygon fill="midnightblue" stroke="midnightblue" points="65.5184,-113.731 55.0114,-115.091 64.0738,-120.58 65.5184,-113.731"/>
</g>
<!-- Node4 -->
<g id="node4" class="node"><title>Node4</title>
<g id="a_node4"><a xlink:href="structprior__hessian_1_1meta_1_1is__numeric__template__of_3_01ClassNumericTemplate_00_01ClassNum9ff24e61e3d3187d075a4a72dee66cb3.html" target="_top" xlink:title="prior_hessian::meta\l::is_numeric_template\l_of\&lt; ClassNumericTemplate,\l ClassNumericTemplate\&lt; Is... \&gt; \&gt;">
<polygon fill="white" stroke="black" points="91.5,-57.5 91.5,-105.5 242.5,-105.5 242.5,-57.5 91.5,-57.5"/>
<text text-anchor="start" x="99.5" y="-94.3" font-family="Helvetica,sans-Serif" font-size="9.00">prior_hessian::meta</text>
<text text-anchor="start" x="99.5" y="-84.3" font-family="Helvetica,sans-Serif" font-size="9.00">::is_numeric_template</text>
<text text-anchor="start" x="99.5" y="-74.3" font-family="Helvetica,sans-Serif" font-size="9.00">_of&lt; ClassNumericTemplate,</text>
<text text-anchor="middle" x="167" y="-64.3" font-family="Helvetica,sans-Serif" font-size="9.00"> ClassNumericTemplate&lt; Is... &gt; &gt;</text>
</a>
</g>
</g>
<!-- Node1&#45;&gt;Node4 -->
<g id="edge3" class="edge"><title>Node1&#45;&gt;Node4</title>
<path fill="none" stroke="midnightblue" d="M64.9166,-102.084C73.1102,-100.416 82.0972,-98.5857 91.227,-96.7265"/>
<polygon fill="midnightblue" stroke="midnightblue" points="64.1119,-98.6762 55.0114,-104.101 65.5087,-105.535 64.1119,-98.6762"/>
</g>
<!-- Node5 -->
<g id="node5" class="node"><title>Node5</title>
<g id="a_node5"><a xlink:href="structprior__hessian_1_1meta_1_1is__template__of_3_01ClassTemplate_00_01ClassTemplate_3_01Ts_8_8_8_01_4_01_4.html" target="_top" xlink:title="prior_hessian::meta\l::is_template_of\&lt; ClassTemplate,\l ClassTemplate\&lt; Ts... \&gt; \&gt;">
<polygon fill="white" stroke="black" points="91,-0.5 91,-38.5 243,-38.5 243,-0.5 91,-0.5"/>
<text text-anchor="start" x="99" y="-27.3" font-family="Helvetica,sans-Serif" font-size="9.00">prior_hessian::meta</text>
<text text-anchor="start" x="99" y="-17.3" font-family="Helvetica,sans-Serif" font-size="9.00">::is_template_of&lt; ClassTemplate,</text>
<text text-anchor="middle" x="167" y="-7.3" font-family="Helvetica,sans-Serif" font-size="9.00"> ClassTemplate&lt; Ts... &gt; &gt;</text>
</a>
</g>
</g>
<!-- Node1&#45;&gt;Node5 -->
<g id="edge4" class="edge"><title>Node1&#45;&gt;Node5</title>
<path fill="none" stroke="midnightblue" d="M42.4874,-92.4733C54.265,-79.037 72.165,-60.6021 91,-48.5 96.6375,-44.8777 102.798,-41.5943 109.086,-38.6499"/>
<polygon fill="midnightblue" stroke="midnightblue" points="39.5016,-90.5812 35.6837,-100.464 44.8315,-95.1192 39.5016,-90.5812"/>
</g>
</g>
</svg>
