<?xml version="1.0" encoding="UTF-8" standalone="no"?>
<!DOCTYPE svg PUBLIC "-//W3C//DTD SVG 1.1//EN"
 "http://www.w3.org/Graphics/SVG/1.1/DTD/svg11.dtd">
<!-- Generated by graphviz version 2.38.0 (20140413.2041)
 -->
<!-- Title: Graphical Class Hierarchy Pages: 1 -->
<svg width="222pt" height="312pt"
 viewBox="0.00 0.00 222.00 312.00" xmlns="http://www.w3.org/2000/svg" xmlns:xlink="http://www.w3.org/1999/xlink">
<g id="graph0" class="graph" transform="scale(1 1) rotate(0) translate(4 308)">
<title>Graphical Class Hierarchy</title>
<polygon fill="white" stroke="none" points="-4,4 -4,-308 218,-308 218,4 -4,4"/>
<!-- Node1 -->
<g id="node1" class="node"><title>Node1</title>
<polygon fill="white" stroke="#bfbfbf" points="0,-122.5 0,-140.5 32,-140.5 32,-122.5 0,-122.5"/>
<text text-anchor="middle" x="16" y="-129.3" font-family="Helvetica,sans-Serif" font-size="9.00">Dist</text>
</g>
<!-- Node2 -->
<g id="node2" class="node"><title>Node2</title>
<g id="a_node2"><a xlink:href="classprior__hessian_1_1CompositeDist_1_1ComponentDistAdaptor_3_01Dist_00_01meta_1_1EnableIfSubcld67d34d533dbae21b9dad35557546eec.html" target="_top" xlink:title="prior_hessian::Composite\lDist::ComponentDistAdaptor\l\&lt; Dist, meta::EnableIfSubclassT\l\&lt; Dist, MultivariateDist \&gt; \&gt;">
<polygon fill="white" stroke="black" points="68,-255.5 68,-303.5 214,-303.5 214,-255.5 68,-255.5"/>
<text text-anchor="start" x="76" y="-292.3" font-family="Helvetica,sans-Serif" font-size="9.00">prior_hessian::Composite</text>
<text text-anchor="start" x="76" y="-282.3" font-family="Helvetica,sans-Serif" font-size="9.00">Dist::ComponentDistAdaptor</text>
<text text-anchor="start" x="76" y="-272.3" font-family="Helvetica,sans-Serif" font-size="9.00">&lt; Dist, meta::EnableIfSubclassT</text>
<text text-anchor="middle" x="141" y="-262.3" font-family="Helvetica,sans-Serif" font-size="9.00">&lt; Dist, MultivariateDist &gt; &gt;</text>
</a>
</g>
</g>
<!-- Node1&#45;&gt;Node2 -->
<g id="edge1" class="edge"><title>Node1&#45;&gt;Node2</title>
<path fill="none" stroke="midnightblue" d="M21.0014,-150.513C27.1436,-175.467 41.1147,-219.281 68,-246.5 71.1887,-249.728 74.7518,-252.673 78.5396,-255.353"/>
<polygon fill="midnightblue" stroke="midnightblue" points="24.3534,-149.47 18.712,-140.502 17.5296,-151.031 24.3534,-149.47"/>
</g>
<!-- Node3 -->
<g id="node3" class="node"><title>Node3</title>
<g id="a_node3"><a xlink:href="classprior__hessian_1_1CompositeDist_1_1ComponentDistAdaptor_3_01Dist_00_01meta_1_1EnableIfSubclc6c9bd83bba546a81e521c87ad7ee6d3.html" target="_top" xlink:title="prior_hessian::Composite\lDist::ComponentDistAdaptor\l\&lt; Dist, meta::EnableIfSubclassT\l\&lt; Dist, UnivariateDist \&gt; \&gt;">
<polygon fill="white" stroke="black" points="68,-188.5 68,-236.5 214,-236.5 214,-188.5 68,-188.5"/>
<text text-anchor="start" x="76" y="-225.3" font-family="Helvetica,sans-Serif" font-size="9.00">prior_hessian::Composite</text>
<text text-anchor="start" x="76" y="-215.3" font-family="Helvetica,sans-Serif" font-size="9.00">Dist::ComponentDistAdaptor</text>
<text text-anchor="start" x="76" y="-205.3" font-family="Helvetica,sans-Serif" font-size="9.00">&lt; Dist, meta::EnableIfSubclassT</text>
<text text-anchor="middle" x="141" y="-195.3" font-family="Helvetica,sans-Serif" font-size="9.00">&lt; Dist, UnivariateDist &gt; &gt;</text>
</a>
</g>
</g>
<!-- Node1&#45;&gt;Node3 -->
<g id="edge2" class="edge"><title>Node1&#45;&gt;Node3</title>
<path fill="none" stroke="midnightblue" d="M31.8108,-147.94C41.43,-157.95 54.6286,-170.5 68,-179.5 72.6769,-182.648 77.7026,-185.634 82.8453,-188.429"/>
<polygon fill="midnightblue" stroke="midnightblue" points="34.3129,-145.491 24.9288,-140.573 29.1976,-150.27 34.3129,-145.491"/>
</g>
<!-- Node4 -->
<g id="node4" class="node"><title>Node4</title>
<g id="a_node4"><a xlink:href="classprior__hessian_1_1ScaledDist.html" target="_top" xlink:title="prior_hessian::ScaledDist\l\&lt; Dist \&gt;">
<polygon fill="white" stroke="black" points="80,-141.5 80,-169.5 202,-169.5 202,-141.5 80,-141.5"/>
<text text-anchor="start" x="88" y="-158.3" font-family="Helvetica,sans-Serif" font-size="9.00">prior_hessian::ScaledDist</text>
<text text-anchor="middle" x="141" y="-148.3" font-family="Helvetica,sans-Serif" font-size="9.00">&lt; Dist &gt;</text>
</a>
</g>
</g>
<!-- Node1&#45;&gt;Node4 -->
<g id="edge3" class="edge"><title>Node1&#45;&gt;Node4</title>
<path fill="none" stroke="midnightblue" d="M42.1621,-136.41C53.1366,-138.551 66.5181,-141.162 79.8174,-143.757"/>
<polygon fill="midnightblue" stroke="midnightblue" points="42.5674,-132.923 32.0822,-134.443 41.2268,-139.793 42.5674,-132.923"/>
</g>
<!-- Node5 -->
<g id="node5" class="node"><title>Node5</title>
<g id="a_node5"><a xlink:href="classprior__hessian_1_1TruncatedDist.html" target="_top" xlink:title="prior_hessian::Truncated\lDist\&lt; Dist \&gt;">
<polygon fill="white" stroke="black" points="81.5,-94.5 81.5,-122.5 200.5,-122.5 200.5,-94.5 81.5,-94.5"/>
<text text-anchor="start" x="89.5" y="-111.3" font-family="Helvetica,sans-Serif" font-size="9.00">prior_hessian::Truncated</text>
<text text-anchor="middle" x="141" y="-101.3" font-family="Helvetica,sans-Serif" font-size="9.00">Dist&lt; Dist &gt;</text>
</a>
</g>
</g>
<!-- Node1&#45;&gt;Node5 -->
<g id="edge4" class="edge"><title>Node1&#45;&gt;Node5</title>
<path fill="none" stroke="midnightblue" d="M42.1005,-126.806C53.4732,-124.68 67.4402,-122.068 81.2244,-119.491"/>
<polygon fill="midnightblue" stroke="midnightblue" points="41.2685,-123.401 32.0822,-128.68 42.5552,-130.282 41.2685,-123.401"/>
</g>
<!-- Node6 -->
<g id="node6" class="node"><title>Node6</title>
<g id="a_node6"><a xlink:href="classprior__hessian_1_1TruncatedMultivariateDist.html" target="_top" xlink:title="prior_hessian::Truncated\lMultivariateDist\&lt; Dist \&gt;">
<polygon fill="white" stroke="black" points="81.5,-47.5 81.5,-75.5 200.5,-75.5 200.5,-47.5 81.5,-47.5"/>
<text text-anchor="start" x="89.5" y="-64.3" font-family="Helvetica,sans-Serif" font-size="9.00">prior_hessian::Truncated</text>
<text text-anchor="middle" x="141" y="-54.3" font-family="Helvetica,sans-Serif" font-size="9.00">MultivariateDist&lt; Dist &gt;</text>
</a>
</g>
</g>
<!-- Node1&#45;&gt;Node6 -->
<g id="edge5" class="edge"><title>Node1&#45;&gt;Node6</title>
<path fill="none" stroke="midnightblue" d="M32.2389,-114.643C41.7287,-104.991 54.641,-93.2883 68,-85.5 74.4883,-81.7173 81.6567,-78.4293 88.8807,-75.6032"/>
<polygon fill="midnightblue" stroke="midnightblue" points="29.4751,-112.471 25.1378,-122.138 34.5564,-117.286 29.4751,-112.471"/>
</g>
<!-- Node7 -->
<g id="node7" class="node"><title>Node7</title>
<g id="a_node7"><a xlink:href="classprior__hessian_1_1UpperTruncatedDist.html" target="_top" xlink:title="prior_hessian::UpperTruncated\lDist\&lt; Dist \&gt;">
<polygon fill="white" stroke="black" points="69,-0.5 69,-28.5 213,-28.5 213,-0.5 69,-0.5"/>
<text text-anchor="start" x="77" y="-17.3" font-family="Helvetica,sans-Serif" font-size="9.00">prior_hessian::UpperTruncated</text>
<text text-anchor="middle" x="141" y="-7.3" font-family="Helvetica,sans-Serif" font-size="9.00">Dist&lt; Dist &gt;</text>
</a>
</g>
</g>
<!-- Node1&#45;&gt;Node7 -->
<g id="edge6" class="edge"><title>Node1&#45;&gt;Node7</title>
<path fill="none" stroke="midnightblue" d="M22.6578,-112.704C29.897,-91.7392 44.4035,-58.1931 68,-38.5 72.6534,-34.6164 77.9591,-31.3536 83.5326,-28.6138"/>
<polygon fill="midnightblue" stroke="midnightblue" points="19.2754,-111.788 19.5249,-122.38 25.9351,-113.944 19.2754,-111.788"/>
</g>
</g>
</svg>
