<?xml version="1.0" encoding="UTF-8" standalone="no"?>
<!DOCTYPE svg PUBLIC "-//W3C//DTD SVG 1.1//EN"
 "http://www.w3.org/Graphics/SVG/1.1/DTD/svg11.dtd">
<!-- Generated by graphviz version 2.38.0 (20140413.2041)
 -->
<!-- Title: Graphical Class Hierarchy Pages: 1 -->
<svg width="242pt" height="84pt"
 viewBox="0.00 0.00 242.00 84.00" xmlns="http://www.w3.org/2000/svg" xmlns:xlink="http://www.w3.org/1999/xlink">
<g id="graph0" class="graph" transform="scale(1 1) rotate(0) translate(4 80)">
<title>Graphical Class Hierarchy</title>
<polygon fill="white" stroke="none" points="-4,4 -4,-80 238,-80 238,4 -4,4"/>
<!-- Node1 -->
<g id="node1" class="node"><title>Node1</title>
<polygon fill="white" stroke="#bfbfbf" points="0,-28.5 0,-46.5 87,-46.5 87,-28.5 0,-28.5"/>
<text text-anchor="middle" x="43.5" y="-35.3" font-family="Helvetica,sans-Serif" font-size="9.00">integral_constant</text>
</g>
<!-- Node2 -->
<g id="node2" class="node"><title>Node2</title>
<g id="a_node2"><a xlink:href="structprior__hessian_1_1eulerian__number.html" target="_top" xlink:title="prior_hessian::eulerian\l_number\&lt; N, M \&gt;">
<polygon fill="white" stroke="black" points="123,-47.5 123,-75.5 234,-75.5 234,-47.5 123,-47.5"/>
<text text-anchor="start" x="131" y="-64.3" font-family="Helvetica,sans-Serif" font-size="9.00">prior_hessian::eulerian</text>
<text text-anchor="middle" x="178.5" y="-54.3" font-family="Helvetica,sans-Serif" font-size="9.00">_number&lt; N, M &gt;</text>
</a>
</g>
</g>
<!-- Node1&#45;&gt;Node2 -->
<g id="edge1" class="edge"><title>Node1&#45;&gt;Node2</title>
<path fill="none" stroke="midnightblue" d="M97.2833,-47.0248C105.609,-48.5271 114.234,-50.0836 122.606,-51.5943"/>
<polygon fill="midnightblue" stroke="midnightblue" points="97.7768,-43.5574 87.3141,-45.2259 96.5336,-50.4461 97.7768,-43.5574"/>
</g>
<!-- Node3 -->
<g id="node3" class="node"><title>Node3</title>
<g id="a_node3"><a xlink:href="structprior__hessian_1_1eulerian__number_3_010_00_01M_01_4.html" target="_top" xlink:title="prior_hessian::eulerian\l_number\&lt; 0, M \&gt;">
<polygon fill="white" stroke="black" points="123,-0.5 123,-28.5 234,-28.5 234,-0.5 123,-0.5"/>
<text text-anchor="start" x="131" y="-17.3" font-family="Helvetica,sans-Serif" font-size="9.00">prior_hessian::eulerian</text>
<text text-anchor="middle" x="178.5" y="-7.3" font-family="Helvetica,sans-Serif" font-size="9.00">_number&lt; 0, M &gt;</text>
</a>
</g>
</g>
<!-- Node1&#45;&gt;Node3 -->
<g id="edge2" class="edge"><title>Node1&#45;&gt;Node3</title>
<path fill="none" stroke="midnightblue" d="M97.2833,-28.3721C105.609,-26.9323 114.234,-25.4407 122.606,-23.993"/>
<polygon fill="midnightblue" stroke="midnightblue" points="96.5714,-24.9431 87.3141,-30.0961 97.7643,-31.8408 96.5714,-24.9431"/>
</g>
</g>
</svg>
