<?xml version="1.0" encoding="UTF-8" standalone="no"?>
<!DOCTYPE svg PUBLIC "-//W3C//DTD SVG 1.1//EN"
 "http://www.w3.org/Graphics/SVG/1.1/DTD/svg11.dtd">
<!-- Generated by graphviz version 2.38.0 (20140413.2041)
 -->
<!-- Title: Graphical Class Hierarchy Pages: 1 -->
<svg width="230pt" height="84pt"
 viewBox="0.00 0.00 230.00 84.00" xmlns="http://www.w3.org/2000/svg" xmlns:xlink="http://www.w3.org/1999/xlink">
<g id="graph0" class="graph" transform="scale(1 1) rotate(0) translate(4 80)">
<title>Graphical Class Hierarchy</title>
<polygon fill="white" stroke="none" points="-4,4 -4,-80 226,-80 226,4 -4,4"/>
<!-- Node1 -->
<g id="node1" class="node"><title>Node1</title>
<polygon fill="white" stroke="#bfbfbf" points="0,-28.5 0,-46.5 69,-46.5 69,-28.5 0,-28.5"/>
<text text-anchor="middle" x="34.5" y="-35.3" font-family="Helvetica,sans-Serif" font-size="9.00">conditional_t</text>
</g>
<!-- Node2 -->
<g id="node2" class="node"><title>Node2</title>
<g id="a_node2"><a xlink:href="structprior__hessian_1_1meta_1_1conjunction_3_01B1_00_01Bn_8_8_8_01_4.html" target="_top" xlink:title="prior_hessian::meta\l::conjunction\&lt; B1, Bn... \&gt;">
<polygon fill="white" stroke="black" points="105,-47.5 105,-75.5 222,-75.5 222,-47.5 105,-47.5"/>
<text text-anchor="start" x="113" y="-64.3" font-family="Helvetica,sans-Serif" font-size="9.00">prior_hessian::meta</text>
<text text-anchor="middle" x="163.5" y="-54.3" font-family="Helvetica,sans-Serif" font-size="9.00">::conjunction&lt; B1, Bn... &gt;</text>
</a>
</g>
</g>
<!-- Node1&#45;&gt;Node2 -->
<g id="edge1" class="edge"><title>Node1&#45;&gt;Node2</title>
<path fill="none" stroke="midnightblue" d="M79.2387,-45.7656C87.4051,-47.3088 96.0558,-48.9436 104.572,-50.5529"/>
<polygon fill="midnightblue" stroke="midnightblue" points="79.6763,-42.2864 69.2002,-43.8685 78.3764,-49.1647 79.6763,-42.2864"/>
</g>
<!-- Node3 -->
<g id="node3" class="node"><title>Node3</title>
<g id="a_node3"><a xlink:href="structprior__hessian_1_1meta_1_1disjunction_3_01B1_00_01Bn_8_8_8_01_4.html" target="_top" xlink:title="prior_hessian::meta\l::disjunction\&lt; B1, Bn... \&gt;">
<polygon fill="white" stroke="black" points="106.5,-0.5 106.5,-28.5 220.5,-28.5 220.5,-0.5 106.5,-0.5"/>
<text text-anchor="start" x="114.5" y="-17.3" font-family="Helvetica,sans-Serif" font-size="9.00">prior_hessian::meta</text>
<text text-anchor="middle" x="163.5" y="-7.3" font-family="Helvetica,sans-Serif" font-size="9.00">::disjunction&lt; B1, Bn... &gt;</text>
</a>
</g>
</g>
<!-- Node1&#45;&gt;Node3 -->
<g id="edge2" class="edge"><title>Node1&#45;&gt;Node3</title>
<path fill="none" stroke="midnightblue" d="M79.0916,-29.6055C87.7717,-28.0335 97.0039,-26.3615 106.043,-24.7244"/>
<polygon fill="midnightblue" stroke="midnightblue" points="78.4164,-26.1707 69.2002,-31.3968 79.6639,-33.0587 78.4164,-26.1707"/>
</g>
</g>
</svg>
