<?xml version="1.0" encoding="UTF-8" standalone="no"?>
<!DOCTYPE svg PUBLIC "-//W3C//DTD SVG 1.1//EN"
 "http://www.w3.org/Graphics/SVG/1.1/DTD/svg11.dtd">
<!-- Generated by graphviz version 2.38.0 (20140413.2041)
 -->
<!-- Title: Graphical Class Hierarchy Pages: 1 -->
<svg width="215pt" height="104pt"
 viewBox="0.00 0.00 215.00 104.00" xmlns="http://www.w3.org/2000/svg" xmlns:xlink="http://www.w3.org/1999/xlink">
<g id="graph0" class="graph" transform="scale(1 1) rotate(0) translate(4 100)">
<title>Graphical Class Hierarchy</title>
<polygon fill="white" stroke="none" points="-4,4 -4,-100 211,-100 211,4 -4,4"/>
<!-- Node1 -->
<g id="node1" class="node"><title>Node1</title>
<polygon fill="white" stroke="#bfbfbf" points="0,-38.5 0,-56.5 59,-56.5 59,-38.5 0,-38.5"/>
<text text-anchor="middle" x="29.5" y="-45.3" font-family="Helvetica,sans-Serif" font-size="9.00">false_type</text>
</g>
<!-- Node2 -->
<g id="node2" class="node"><title>Node2</title>
<g id="a_node2"><a xlink:href="structprior__hessian_1_1meta_1_1is__numeric__template__of.html" target="_top" xlink:title="prior_hessian::meta\l::is_numeric_template\l_of\&lt; class, typename \&gt;">
<polygon fill="white" stroke="black" points="96,-57.5 96,-95.5 206,-95.5 206,-57.5 96,-57.5"/>
<text text-anchor="start" x="104" y="-84.3" font-family="Helvetica,sans-Serif" font-size="9.00">prior_hessian::meta</text>
<text text-anchor="start" x="104" y="-74.3" font-family="Helvetica,sans-Serif" font-size="9.00">::is_numeric_template</text>
<text text-anchor="middle" x="151" y="-64.3" font-family="Helvetica,sans-Serif" font-size="9.00">_of&lt; class, typename &gt;</text>
</a>
</g>
</g>
<!-- Node1&#45;&gt;Node2 -->
<g id="edge1" class="edge"><title>Node1&#45;&gt;Node2</title>
<path fill="none" stroke="midnightblue" d="M68.8609,-56.8093C77.4665,-58.8977 86.7542,-61.1516 95.8661,-63.3629"/>
<polygon fill="midnightblue" stroke="midnightblue" points="69.6666,-53.4033 59.1232,-54.4462 68.0157,-60.2059 69.6666,-53.4033"/>
</g>
<!-- Node3 -->
<g id="node3" class="node"><title>Node3</title>
<g id="a_node3"><a xlink:href="structprior__hessian_1_1meta_1_1is__template__of.html" target="_top" xlink:title="prior_hessian::meta\l::is_template_of\&lt; class,\l typename \&gt;">
<polygon fill="white" stroke="black" points="95,-0.5 95,-38.5 207,-38.5 207,-0.5 95,-0.5"/>
<text text-anchor="start" x="103" y="-27.3" font-family="Helvetica,sans-Serif" font-size="9.00">prior_hessian::meta</text>
<text text-anchor="start" x="103" y="-17.3" font-family="Helvetica,sans-Serif" font-size="9.00">::is_template_of&lt; class,</text>
<text text-anchor="middle" x="151" y="-7.3" font-family="Helvetica,sans-Serif" font-size="9.00"> typename &gt;</text>
</a>
</g>
</g>
<!-- Node1&#45;&gt;Node3 -->
<g id="edge2" class="edge"><title>Node1&#45;&gt;Node3</title>
<path fill="none" stroke="midnightblue" d="M68.8819,-38.5067C77.1823,-36.5619 86.1163,-34.4686 94.9147,-32.407"/>
<polygon fill="midnightblue" stroke="midnightblue" points="68.061,-35.1042 59.1232,-40.7933 69.658,-41.9196 68.061,-35.1042"/>
</g>
</g>
</svg>
