<?xml version="1.0" encoding="UTF-8" standalone="no"?>
<!DOCTYPE svg PUBLIC "-//W3C//DTD SVG 1.1//EN"
 "http://www.w3.org/Graphics/SVG/1.1/DTD/svg11.dtd">
<!-- Generated by graphviz version 2.38.0 (20140413.2041)
 -->
<!-- Title: Meta.h Pages: 1 -->
<svg width="214pt" height="82pt"
 viewBox="0.00 0.00 213.50 82.00" xmlns="http://www.w3.org/2000/svg" xmlns:xlink="http://www.w3.org/1999/xlink">
<g id="graph0" class="graph" transform="scale(1 1) rotate(0) translate(4 78)">
<title>Meta.h</title>
<polygon fill="white" stroke="none" points="-4,4 -4,-78 209.5,-78 209.5,4 -4,4"/>
<!-- Node1 -->
<g id="node1" class="node"><title>Node1</title>
<polygon fill="#bfbfbf" stroke="black" points="87,-55.5 87,-73.5 131,-73.5 131,-55.5 87,-55.5"/>
<text text-anchor="middle" x="109" y="-62.3" font-family="Helvetica,sans-Serif" font-size="9.00">Meta.h</text>
</g>
<!-- Node2 -->
<g id="node2" class="node"><title>Node2</title>
<polygon fill="white" stroke="#bfbfbf" points="0,-0.5 0,-18.5 56,-18.5 56,-0.5 0,-0.5"/>
<text text-anchor="middle" x="28" y="-7.3" font-family="Helvetica,sans-Serif" font-size="9.00">functional</text>
</g>
<!-- Node1&#45;&gt;Node2 -->
<g id="edge1" class="edge"><title>Node1&#45;&gt;Node2</title>
<path fill="none" stroke="midnightblue" d="M96.6978,-55.4504C84.0902,-47.201 64.245,-34.2158 49.1191,-24.3187"/>
<polygon fill="midnightblue" stroke="midnightblue" points="50.7022,-21.1719 40.4179,-18.6253 46.8695,-27.0294 50.7022,-21.1719"/>
</g>
<!-- Node3 -->
<g id="node3" class="node"><title>Node3</title>
<polygon fill="white" stroke="#bfbfbf" points="74,-0.5 74,-18.5 144,-18.5 144,-0.5 74,-0.5"/>
<text text-anchor="middle" x="109" y="-7.3" font-family="Helvetica,sans-Serif" font-size="9.00">initializer_list</text>
</g>
<!-- Node1&#45;&gt;Node3 -->
<g id="edge2" class="edge"><title>Node1&#45;&gt;Node3</title>
<path fill="none" stroke="midnightblue" d="M109,-55.2188C109,-48.1769 109,-37.8083 109,-28.8277"/>
<polygon fill="midnightblue" stroke="midnightblue" points="112.5,-28.5495 109,-18.5496 105.5,-28.5496 112.5,-28.5495"/>
</g>
<!-- Node4 -->
<g id="node4" class="node"><title>Node4</title>
<polygon fill="white" stroke="#bfbfbf" points="162.5,-0.5 162.5,-18.5 205.5,-18.5 205.5,-0.5 162.5,-0.5"/>
<text text-anchor="middle" x="184" y="-7.3" font-family="Helvetica,sans-Serif" font-size="9.00">cstdint</text>
</g>
<!-- Node1&#45;&gt;Node4 -->
<g id="edge3" class="edge"><title>Node1&#45;&gt;Node4</title>
<path fill="none" stroke="midnightblue" d="M120.391,-55.4504C131.955,-47.2788 150.094,-34.4604 164.048,-24.5996"/>
<polygon fill="midnightblue" stroke="midnightblue" points="166.355,-27.2548 172.502,-18.6253 162.315,-21.5381 166.355,-27.2548"/>
</g>
</g>
</svg>
