<?xml version="1.0" encoding="UTF-8" standalone="no"?>
<!DOCTYPE svg PUBLIC "-//W3C//DTD SVG 1.1//EN"
 "http://www.w3.org/Graphics/SVG/1.1/DTD/svg11.dtd">
<!-- Generated by graphviz version 2.38.0 (20140413.2041)
 -->
<!-- Title: Meta.h Pages: 1 -->
<svg width="1274pt" height="202pt"
 viewBox="0.00 0.00 1274.00 202.00" xmlns="http://www.w3.org/2000/svg" xmlns:xlink="http://www.w3.org/1999/xlink">
<g id="graph0" class="graph" transform="scale(1 1) rotate(0) translate(4 198)">
<title>Meta.h</title>
<polygon fill="white" stroke="none" points="-4,4 -4,-198 1270,-198 1270,4 -4,4"/>
<!-- Node1 -->
<g id="node1" class="node"><title>Node1</title>
<polygon fill="#bfbfbf" stroke="black" points="517.5,-175.5 517.5,-193.5 561.5,-193.5 561.5,-175.5 517.5,-175.5"/>
<text text-anchor="middle" x="539.5" y="-182.3" font-family="Helvetica,sans-Serif" font-size="9.00">Meta.h</text>
</g>
<!-- Node2 -->
<g id="node2" class="node"><title>Node2</title>
<g id="a_node2"><a xlink:href="BoundsAdaptedDist_8h.html" target="_top" xlink:title="Functions and type&#45;traits to enable easy wrapping of distributions in bounds&#45;modifiable adapters...">
<polygon fill="white" stroke="black" points="446.5,-120.5 446.5,-138.5 552.5,-138.5 552.5,-120.5 446.5,-120.5"/>
<text text-anchor="middle" x="499.5" y="-127.3" font-family="Helvetica,sans-Serif" font-size="9.00">BoundsAdaptedDist.h</text>
</a>
</g>
</g>
<!-- Node1&#45;&gt;Node2 -->
<g id="edge1" class="edge"><title>Node1&#45;&gt;Node2</title>
<path fill="none" stroke="midnightblue" d="M527.01,-166.951C519.873,-157.494 511.243,-146.059 505.575,-138.55"/>
<polygon fill="midnightblue" stroke="midnightblue" points="524.432,-169.345 533.25,-175.219 530.02,-165.128 524.432,-169.345"/>
</g>
<!-- Node3 -->
<g id="node3" class="node"><title>Node3</title>
<g id="a_node3"><a xlink:href="CompositeDist_8h.html" target="_top" xlink:title="The Frank copula computations. ">
<polygon fill="white" stroke="black" points="281.5,-65.5 281.5,-83.5 365.5,-83.5 365.5,-65.5 281.5,-65.5"/>
<text text-anchor="middle" x="323.5" y="-72.3" font-family="Helvetica,sans-Serif" font-size="9.00">CompositeDist.h</text>
</a>
</g>
</g>
<!-- Node1&#45;&gt;Node3 -->
<g id="edge14" class="edge"><title>Node1&#45;&gt;Node3</title>
<path fill="none" stroke="midnightblue" d="M507.381,-182.596C447.044,-180.149 320.405,-171.208 293.5,-139 279.117,-121.782 300.908,-96.5108 314.303,-83.6576"/>
<polygon fill="midnightblue" stroke="midnightblue" points="507.373,-186.098 517.496,-182.97 507.632,-179.103 507.373,-186.098"/>
</g>
<!-- Node5 -->
<g id="node5" class="node"><title>Node5</title>
<g id="a_node5"><a xlink:href="CopulaDist_8h.html" target="_top" xlink:title="CopulaDist base class. ">
<polygon fill="white" stroke="black" points="383.5,-65.5 383.5,-83.5 453.5,-83.5 453.5,-65.5 383.5,-65.5"/>
<text text-anchor="middle" x="418.5" y="-72.3" font-family="Helvetica,sans-Serif" font-size="9.00">CopulaDist.h</text>
</a>
</g>
</g>
<!-- Node1&#45;&gt;Node5 -->
<g id="edge15" class="edge"><title>Node1&#45;&gt;Node5</title>
<path fill="none" stroke="midnightblue" d="M507.348,-177.017C484.819,-170.875 455.611,-159.44 437.5,-139 423.305,-122.981 419.707,-96.7182 418.801,-83.5537"/>
<polygon fill="midnightblue" stroke="midnightblue" points="506.614,-180.442 517.166,-179.48 508.318,-173.652 506.614,-180.442"/>
</g>
<!-- Node6 -->
<g id="node6" class="node"><title>Node6</title>
<g id="a_node6"><a xlink:href="ScaledDist_8h.html" target="_top" xlink:title="SemiInfiniteDist class declaration and templated methods. ">
<polygon fill="white" stroke="black" points="571.5,-65.5 571.5,-83.5 639.5,-83.5 639.5,-65.5 571.5,-65.5"/>
<text text-anchor="middle" x="605.5" y="-72.3" font-family="Helvetica,sans-Serif" font-size="9.00">ScaledDist.h</text>
</a>
</g>
</g>
<!-- Node1&#45;&gt;Node6 -->
<g id="edge28" class="edge"><title>Node1&#45;&gt;Node6</title>
<path fill="none" stroke="midnightblue" d="M554.787,-167.906C562.259,-159.745 571.014,-149.322 577.5,-139 589.167,-120.433 598.397,-96.1712 602.758,-83.696"/>
<polygon fill="midnightblue" stroke="midnightblue" points="552.196,-165.553 547.875,-175.226 557.285,-170.359 552.196,-165.553"/>
</g>
<!-- Node8 -->
<g id="node8" class="node"><title>Node8</title>
<g id="a_node8"><a xlink:href="TruncatedDist_8h.html" target="_top" xlink:title="TruncatedDist declaration and templated methods definitions. ">
<polygon fill="white" stroke="black" points="472,-65.5 472,-83.5 553,-83.5 553,-65.5 472,-65.5"/>
<text text-anchor="middle" x="512.5" y="-72.3" font-family="Helvetica,sans-Serif" font-size="9.00">TruncatedDist.h</text>
</a>
</g>
</g>
<!-- Node1&#45;&gt;Node8 -->
<g id="edge29" class="edge"><title>Node1&#45;&gt;Node8</title>
<path fill="none" stroke="midnightblue" d="M552.21,-166.721C560.398,-153.747 568.341,-135.453 561.5,-120 554.43,-104.028 538.481,-91.3347 526.689,-83.6575"/>
<polygon fill="midnightblue" stroke="midnightblue" points="549.218,-164.894 546.413,-175.111 554.977,-168.873 549.218,-164.894"/>
</g>
<!-- Node11 -->
<g id="node11" class="node"><title>Node11</title>
<g id="a_node11"><a xlink:href="TruncatedMultivariateDist_8h.html" target="_top" xlink:title="TruncatedMultivariateDist declaration and templated methods definitions. ">
<polygon fill="white" stroke="black" points="135.5,-65.5 135.5,-83.5 263.5,-83.5 263.5,-65.5 135.5,-65.5"/>
<text text-anchor="middle" x="199.5" y="-72.3" font-family="Helvetica,sans-Serif" font-size="9.00">TruncatedMultivariateDist.h</text>
</a>
</g>
</g>
<!-- Node1&#45;&gt;Node11 -->
<g id="edge30" class="edge"><title>Node1&#45;&gt;Node11</title>
<path fill="none" stroke="midnightblue" d="M507.365,-182.562C457.819,-180.099 360.644,-171.19 285.5,-139 253.427,-125.261 222.081,-97.455 207.691,-83.6527"/>
<polygon fill="midnightblue" stroke="midnightblue" points="507.33,-186.064 517.474,-183.006 507.638,-179.07 507.33,-186.064"/>
</g>
<!-- Node13 -->
<g id="node13" class="node"><title>Node13</title>
<g id="a_node13"><a xlink:href="UpperTruncatedDist_8h.html" target="_top" xlink:title="UpperTruncatedDist declaration and templated methods definitions. ">
<polygon fill="white" stroke="black" points="955,-65.5 955,-83.5 1062,-83.5 1062,-65.5 955,-65.5"/>
<text text-anchor="middle" x="1008.5" y="-72.3" font-family="Helvetica,sans-Serif" font-size="9.00">UpperTruncatedDist.h</text>
</a>
</g>
</g>
<!-- Node1&#45;&gt;Node13 -->
<g id="edge43" class="edge"><title>Node1&#45;&gt;Node13</title>
<path fill="none" stroke="midnightblue" d="M571.826,-179.844C623.252,-173.667 726.658,-159.775 812.5,-139 877.338,-123.309 951.729,-96.7784 987.342,-83.5298"/>
<polygon fill="midnightblue" stroke="midnightblue" points="571.186,-176.395 561.666,-181.044 572.008,-183.347 571.186,-176.395"/>
</g>
<!-- Node15 -->
<g id="node15" class="node"><title>Node15</title>
<g id="a_node15"><a xlink:href="GammaDist_8h.html" target="_top" xlink:title="GammaDist class declaration and templated methods. ">
<polygon fill="white" stroke="black" points="657.5,-65.5 657.5,-83.5 729.5,-83.5 729.5,-65.5 657.5,-65.5"/>
<text text-anchor="middle" x="693.5" y="-72.3" font-family="Helvetica,sans-Serif" font-size="9.00">GammaDist.h</text>
</a>
</g>
</g>
<!-- Node1&#45;&gt;Node15 -->
<g id="edge16" class="edge"><title>Node1&#45;&gt;Node15</title>
<path fill="none" stroke="midnightblue" d="M559.372,-169.564C591.916,-146.741 655.575,-102.097 681.791,-83.7118"/>
<polygon fill="midnightblue" stroke="midnightblue" points="557.253,-166.775 551.075,-175.382 561.272,-172.506 557.253,-166.775"/>
</g>
<!-- Node17 -->
<g id="node17" class="node"><title>Node17</title>
<g id="a_node17"><a xlink:href="MultivariateDist_8h.html" target="_top" xlink:title="MultivariateDist base class. ">
<polygon fill="white" stroke="black" points="303,-120.5 303,-138.5 390,-138.5 390,-120.5 303,-120.5"/>
<text text-anchor="middle" x="346.5" y="-127.3" font-family="Helvetica,sans-Serif" font-size="9.00">MultivariateDist.h</text>
</a>
</g>
</g>
<!-- Node1&#45;&gt;Node17 -->
<g id="edge19" class="edge"><title>Node1&#45;&gt;Node17</title>
<path fill="none" stroke="midnightblue" d="M507.687,-174.764C471.086,-164.713 411.476,-148.343 375.918,-138.578"/>
<polygon fill="midnightblue" stroke="midnightblue" points="506.791,-178.147 517.36,-177.42 508.644,-171.397 506.791,-178.147"/>
</g>
<!-- Node18 -->
<g id="node18" class="node"><title>Node18</title>
<g id="a_node18"><a xlink:href="MultivariateNormalDist_8h.html" target="_top" xlink:title="MultivariateNormalDist base class. ">
<polygon fill="white" stroke="black" points="0,-65.5 0,-83.5 117,-83.5 117,-65.5 0,-65.5"/>
<text text-anchor="middle" x="58.5" y="-72.3" font-family="Helvetica,sans-Serif" font-size="9.00">MultivariateNormalDist.h</text>
</a>
</g>
</g>
<!-- Node1&#45;&gt;Node18 -->
<g id="edge24" class="edge"><title>Node1&#45;&gt;Node18</title>
<path fill="none" stroke="midnightblue" d="M507.342,-180.398C453.325,-174.785 341.18,-161.4 248.5,-139 185.282,-123.721 113.041,-96.881 78.6905,-83.5226"/>
<polygon fill="midnightblue" stroke="midnightblue" points="507.044,-183.886 517.348,-181.418 507.754,-176.922 507.044,-183.886"/>
</g>
<!-- Node19 -->
<g id="node19" class="node"><title>Node19</title>
<g id="a_node19"><a xlink:href="ParetoDist_8h.html" target="_top" xlink:title="ParetoDist class declaration and templated methods. ">
<polygon fill="white" stroke="black" points="1191,-65.5 1191,-83.5 1258,-83.5 1258,-65.5 1191,-65.5"/>
<text text-anchor="middle" x="1224.5" y="-72.3" font-family="Helvetica,sans-Serif" font-size="9.00">ParetoDist.h</text>
</a>
</g>
</g>
<!-- Node1&#45;&gt;Node19 -->
<g id="edge25" class="edge"><title>Node1&#45;&gt;Node19</title>
<path fill="none" stroke="midnightblue" d="M571.621,-179.368C629.331,-171.87 754.355,-155.287 859.5,-139 1002.97,-116.777 1038.72,-110.302 1181.5,-84 1184.49,-83.4486 1187.6,-82.8619 1190.71,-82.2646"/>
<polygon fill="midnightblue" stroke="midnightblue" points="571.116,-175.904 561.648,-180.66 572.015,-182.846 571.116,-175.904"/>
</g>
<!-- Node21 -->
<g id="node21" class="node"><title>Node21</title>
<g id="a_node21"><a xlink:href="UnivariateDist_8h.html" target="_top" xlink:title="UnivariateDist base class. ">
<polygon fill="white" stroke="black" points="721.5,-120.5 721.5,-138.5 803.5,-138.5 803.5,-120.5 721.5,-120.5"/>
<text text-anchor="middle" x="762.5" y="-127.3" font-family="Helvetica,sans-Serif" font-size="9.00">UnivariateDist.h</text>
</a>
</g>
</g>
<!-- Node1&#45;&gt;Node21 -->
<g id="edge31" class="edge"><title>Node1&#45;&gt;Node21</title>
<path fill="none" stroke="midnightblue" d="M571.601,-175.871C613.312,-165.957 685.831,-148.722 728.468,-138.588"/>
<polygon fill="midnightblue" stroke="midnightblue" points="570.617,-172.507 561.697,-178.224 572.236,-179.317 570.617,-172.507"/>
</g>
<!-- Node2&#45;&gt;Node3 -->
<g id="edge2" class="edge"><title>Node2&#45;&gt;Node3</title>
<path fill="none" stroke="midnightblue" d="M462.868,-117.469C429.251,-107.345 380.244,-92.5875 350.193,-83.5383"/>
<polygon fill="midnightblue" stroke="midnightblue" points="462.185,-120.918 472.769,-120.45 464.203,-114.216 462.185,-120.918"/>
</g>
<!-- Node2&#45;&gt;Node5 -->
<g id="edge4" class="edge"><title>Node2&#45;&gt;Node5</title>
<path fill="none" stroke="midnightblue" d="M478.519,-114.772C463.423,-104.894 443.57,-91.9036 430.918,-83.6253"/>
<polygon fill="midnightblue" stroke="midnightblue" points="476.914,-117.904 487.198,-120.45 480.746,-112.046 476.914,-117.904"/>
</g>
<!-- Node2&#45;&gt;Node6 -->
<g id="edge5" class="edge"><title>Node2&#45;&gt;Node6</title>
<path fill="none" stroke="midnightblue" d="M524.747,-115.877C544.738,-105.881 572.068,-92.216 589.249,-83.6253"/>
<polygon fill="midnightblue" stroke="midnightblue" points="522.978,-112.848 515.599,-120.45 526.109,-119.109 522.978,-112.848"/>
</g>
<!-- Node2&#45;&gt;Node8 -->
<g id="edge7" class="edge"><title>Node2&#45;&gt;Node8</title>
<path fill="none" stroke="midnightblue" d="M503.922,-110.473C506.165,-101.326 508.778,-90.6724 510.526,-83.5496"/>
<polygon fill="midnightblue" stroke="midnightblue" points="500.514,-109.673 501.531,-120.219 507.313,-111.34 500.514,-109.673"/>
</g>
<!-- Node2&#45;&gt;Node11 -->
<g id="edge10" class="edge"><title>Node2&#45;&gt;Node11</title>
<path fill="none" stroke="midnightblue" d="M443.963,-118.689C386.653,-108.564 298.319,-92.9581 245,-83.5383"/>
<polygon fill="midnightblue" stroke="midnightblue" points="443.48,-122.157 453.936,-120.45 444.698,-115.264 443.48,-122.157"/>
</g>
<!-- Node2&#45;&gt;Node13 -->
<g id="edge12" class="edge"><title>Node2&#45;&gt;Node13</title>
<path fill="none" stroke="midnightblue" d="M562.957,-122.866C649.515,-115.022 809.407,-99.9654 945.5,-84 948.569,-83.6399 951.721,-83.257 954.9,-82.8604"/>
<polygon fill="midnightblue" stroke="midnightblue" points="562.415,-119.401 552.771,-123.787 563.045,-126.372 562.415,-119.401"/>
</g>
<!-- Node4 -->
<g id="node4" class="node"><title>Node4</title>
<g id="a_node4"><a xlink:href="CompositeDist_8cpp.html" target="_top" xlink:title="CompositeDist and associated classes and nested classes. ">
<polygon fill="white" stroke="black" points="213.5,-5.5 213.5,-23.5 307.5,-23.5 307.5,-5.5 213.5,-5.5"/>
<text text-anchor="middle" x="260.5" y="-12.3" font-family="Helvetica,sans-Serif" font-size="9.00">CompositeDist.cpp</text>
</a>
</g>
</g>
<!-- Node3&#45;&gt;Node4 -->
<g id="edge3" class="edge"><title>Node3&#45;&gt;Node4</title>
<path fill="none" stroke="midnightblue" d="M307.189,-58.4834C295.219,-47.4633 279.402,-32.9015 269.593,-23.8718"/>
<polygon fill="midnightblue" stroke="midnightblue" points="305.013,-61.2372 314.74,-65.4353 309.754,-56.0873 305.013,-61.2372"/>
</g>
<!-- Node7 -->
<g id="node7" class="node"><title>Node7</title>
<g id="a_node7"><a xlink:href="ScaledSymmetricBetaDist_8h.html" target="_top" xlink:title="SymmetricBetaDist class declaration and templated methods. ">
<polygon fill="white" stroke="black" points="586.5,-5.5 586.5,-23.5 716.5,-23.5 716.5,-5.5 586.5,-5.5"/>
<text text-anchor="middle" x="651.5" y="-12.3" font-family="Helvetica,sans-Serif" font-size="9.00">ScaledSymmetricBetaDist.h</text>
</a>
</g>
</g>
<!-- Node6&#45;&gt;Node7 -->
<g id="edge6" class="edge"><title>Node6&#45;&gt;Node7</title>
<path fill="none" stroke="midnightblue" d="M618.173,-57.5211C626.812,-46.6278 637.905,-32.641 644.86,-23.8718"/>
<polygon fill="midnightblue" stroke="midnightblue" points="615.368,-55.4255 611.896,-65.4353 620.852,-59.7752 615.368,-55.4255"/>
</g>
<!-- Node9 -->
<g id="node9" class="node"><title>Node9</title>
<g id="a_node9"><a xlink:href="TruncatedGammaDist_8h.html" target="_top" xlink:title="TruncatedGammaDist class declaration and templated methods. ">
<polygon fill="white" stroke="black" points="326,-5.5 326,-23.5 439,-23.5 439,-5.5 326,-5.5"/>
<text text-anchor="middle" x="382.5" y="-12.3" font-family="Helvetica,sans-Serif" font-size="9.00">TruncatedGammaDist.h</text>
</a>
</g>
</g>
<!-- Node8&#45;&gt;Node9 -->
<g id="edge8" class="edge"><title>Node8&#45;&gt;Node9</title>
<path fill="none" stroke="midnightblue" d="M485.006,-61.2335C459.666,-49.9281 422.766,-33.465 400.842,-23.6831"/>
<polygon fill="midnightblue" stroke="midnightblue" points="483.866,-64.5572 494.424,-65.4353 486.718,-58.1646 483.866,-64.5572"/>
</g>
<!-- Node10 -->
<g id="node10" class="node"><title>Node10</title>
<g id="a_node10"><a xlink:href="TruncatedNormalDist_8h.html" target="_top" xlink:title="TruncatedNormalDist class declaration. ">
<polygon fill="white" stroke="black" points="457,-5.5 457,-23.5 568,-23.5 568,-5.5 457,-5.5"/>
<text text-anchor="middle" x="512.5" y="-12.3" font-family="Helvetica,sans-Serif" font-size="9.00">TruncatedNormalDist.h</text>
</a>
</g>
</g>
<!-- Node8&#45;&gt;Node10 -->
<g id="edge9" class="edge"><title>Node8&#45;&gt;Node10</title>
<path fill="none" stroke="midnightblue" d="M512.5,-55.2144C512.5,-44.7141 512.5,-32.0332 512.5,-23.8718"/>
<polygon fill="midnightblue" stroke="midnightblue" points="509,-55.4353 512.5,-65.4353 516,-55.4354 509,-55.4353"/>
</g>
<!-- Node12 -->
<g id="node12" class="node"><title>Node12</title>
<g id="a_node12"><a xlink:href="TruncatedMultivariateNormalDist_8h.html" target="_top" xlink:title="TruncatedMultivariateNormalDist class declaration. ">
<polygon fill="white" stroke="black" points="26,-0.5 26,-28.5 161,-28.5 161,-0.5 26,-0.5"/>
<text text-anchor="start" x="34" y="-17.3" font-family="Helvetica,sans-Serif" font-size="9.00">TruncatedMultivariateNormal</text>
<text text-anchor="middle" x="93.5" y="-7.3" font-family="Helvetica,sans-Serif" font-size="9.00">Dist.h</text>
</a>
</g>
</g>
<!-- Node11&#45;&gt;Node12 -->
<g id="edge11" class="edge"><title>Node11&#45;&gt;Node12</title>
<path fill="none" stroke="midnightblue" d="M175.815,-60.5405C158.438,-51.0319 134.925,-38.1665 117.479,-28.6203"/>
<polygon fill="midnightblue" stroke="midnightblue" points="174.308,-63.7056 184.761,-65.4353 177.669,-57.5648 174.308,-63.7056"/>
</g>
<!-- Node14 -->
<g id="node14" class="node"><title>Node14</title>
<g id="a_node14"><a xlink:href="TruncatedParetoDist_8h.html" target="_top" xlink:title="ParetoDist class declaration and templated methods. ">
<polygon fill="white" stroke="black" points="1062.5,-5.5 1062.5,-23.5 1170.5,-23.5 1170.5,-5.5 1062.5,-5.5"/>
<text text-anchor="middle" x="1116.5" y="-12.3" font-family="Helvetica,sans-Serif" font-size="9.00">TruncatedParetoDist.h</text>
</a>
</g>
</g>
<!-- Node13&#45;&gt;Node14 -->
<g id="edge13" class="edge"><title>Node13&#45;&gt;Node14</title>
<path fill="none" stroke="midnightblue" d="M1032.47,-60.6284C1053.47,-49.3474 1083.37,-33.2918 1101.26,-23.6831"/>
<polygon fill="midnightblue" stroke="midnightblue" points="1030.67,-57.6205 1023.52,-65.4353 1033.98,-63.7875 1030.67,-57.6205"/>
</g>
<!-- Node15&#45;&gt;Node9 -->
<g id="edge18" class="edge"><title>Node15&#45;&gt;Node9</title>
<path fill="none" stroke="midnightblue" d="M647.102,-64.76C557.569,-48.394 533.472,-45.6235 447.5,-29 438.674,-27.2933 429.191,-25.3734 420.273,-23.5286"/>
<polygon fill="midnightblue" stroke="midnightblue" points="646.689,-68.2425 657.156,-66.6045 647.952,-61.3574 646.689,-68.2425"/>
</g>
<!-- Node16 -->
<g id="node16" class="node"><title>Node16</title>
<g id="a_node16"><a xlink:href="GammaDist_8cpp.html" target="_top" xlink:title="GammaDist class defintion. ">
<polygon fill="white" stroke="black" points="734.5,-5.5 734.5,-23.5 816.5,-23.5 816.5,-5.5 734.5,-5.5"/>
<text text-anchor="middle" x="775.5" y="-12.3" font-family="Helvetica,sans-Serif" font-size="9.00">GammaDist.cpp</text>
</a>
</g>
</g>
<!-- Node15&#45;&gt;Node16 -->
<g id="edge17" class="edge"><title>Node15&#45;&gt;Node16</title>
<path fill="none" stroke="midnightblue" d="M713.447,-59.3908C729.271,-48.1986 750.836,-32.9456 763.931,-23.6831"/>
<polygon fill="midnightblue" stroke="midnightblue" points="711.045,-56.8032 704.902,-65.4353 715.087,-62.5181 711.045,-56.8032"/>
</g>
<!-- Node17&#45;&gt;Node3 -->
<g id="edge20" class="edge"><title>Node17&#45;&gt;Node3</title>
<path fill="none" stroke="midnightblue" d="M338.806,-110.771C334.808,-101.558 330.118,-90.7498 326.993,-83.5496"/>
<polygon fill="midnightblue" stroke="midnightblue" points="335.715,-112.439 342.906,-120.219 342.136,-109.652 335.715,-112.439"/>
</g>
<!-- Node17&#45;&gt;Node5 -->
<g id="edge21" class="edge"><title>Node17&#45;&gt;Node5</title>
<path fill="none" stroke="midnightblue" d="M365.53,-114.492C378.901,-104.649 396.322,-91.8255 407.462,-83.6253"/>
<polygon fill="midnightblue" stroke="midnightblue" points="363.414,-111.704 357.435,-120.45 367.564,-117.341 363.414,-111.704"/>
</g>
<!-- Node17&#45;&gt;Node18 -->
<g id="edge22" class="edge"><title>Node17&#45;&gt;Node18</title>
<path fill="none" stroke="midnightblue" d="M292.843,-118.626C237.815,-108.499 153.261,-92.9386 102.18,-83.5383"/>
<polygon fill="midnightblue" stroke="midnightblue" points="292.291,-122.083 302.759,-120.45 293.558,-115.198 292.291,-122.083"/>
</g>
<!-- Node18&#45;&gt;Node12 -->
<g id="edge23" class="edge"><title>Node18&#45;&gt;Node12</title>
<path fill="none" stroke="midnightblue" d="M68.6069,-56.7514C73.9586,-47.8828 80.4406,-37.1413 85.4483,-28.8428"/>
<polygon fill="midnightblue" stroke="midnightblue" points="65.5366,-55.0651 63.3666,-65.4353 71.53,-58.6818 65.5366,-55.0651"/>
</g>
<!-- Node19&#45;&gt;Node14 -->
<g id="edge27" class="edge"><title>Node19&#45;&gt;Node14</title>
<path fill="none" stroke="midnightblue" d="M1200.53,-60.6284C1179.53,-49.3474 1149.63,-33.2918 1131.74,-23.6831"/>
<polygon fill="midnightblue" stroke="midnightblue" points="1199.02,-63.7875 1209.48,-65.4353 1202.33,-57.6205 1199.02,-63.7875"/>
</g>
<!-- Node20 -->
<g id="node20" class="node"><title>Node20</title>
<g id="a_node20"><a xlink:href="ParetoDist_8cpp.html" target="_top" xlink:title="ParetoDist class defintion. ">
<polygon fill="white" stroke="black" points="1189,-5.5 1189,-23.5 1266,-23.5 1266,-5.5 1189,-5.5"/>
<text text-anchor="middle" x="1227.5" y="-12.3" font-family="Helvetica,sans-Serif" font-size="9.00">ParetoDist.cpp</text>
</a>
</g>
</g>
<!-- Node19&#45;&gt;Node20 -->
<g id="edge26" class="edge"><title>Node19&#45;&gt;Node20</title>
<path fill="none" stroke="midnightblue" d="M1225.45,-55.2144C1225.99,-44.7141 1226.64,-32.0332 1227.07,-23.8718"/>
<polygon fill="midnightblue" stroke="midnightblue" points="1221.94,-55.2679 1224.92,-65.4353 1228.93,-55.6295 1221.94,-55.2679"/>
</g>
<!-- Node21&#45;&gt;Node3 -->
<g id="edge33" class="edge"><title>Node21&#45;&gt;Node3</title>
<path fill="none" stroke="midnightblue" d="M711.322,-123.47C636.995,-115.974 494.897,-100.926 374.5,-84 371.656,-83.6001 368.725,-83.1674 365.775,-82.7163"/>
<polygon fill="midnightblue" stroke="midnightblue" points="711.052,-126.96 721.351,-124.477 711.751,-119.995 711.052,-126.96"/>
</g>
<!-- Node21&#45;&gt;Node5 -->
<g id="edge34" class="edge"><title>Node21&#45;&gt;Node5</title>
<path fill="none" stroke="midnightblue" d="M711.213,-121.585C651.396,-113.36 549.589,-98.8639 462.5,-84 459.586,-83.5026 456.567,-82.9656 453.539,-82.4117"/>
<polygon fill="midnightblue" stroke="midnightblue" points="710.779,-125.059 721.162,-122.949 711.73,-118.123 710.779,-125.059"/>
</g>
<!-- Node21&#45;&gt;Node15 -->
<g id="edge35" class="edge"><title>Node21&#45;&gt;Node15</title>
<path fill="none" stroke="midnightblue" d="M743.895,-114.21C731.131,-104.405 714.652,-91.7474 704.078,-83.6253"/>
<polygon fill="midnightblue" stroke="midnightblue" points="741.958,-117.135 752.02,-120.45 746.222,-111.583 741.958,-117.135"/>
</g>
<!-- Node21&#45;&gt;Node19 -->
<g id="edge39" class="edge"><title>Node21&#45;&gt;Node19</title>
<path fill="none" stroke="midnightblue" d="M813.884,-124.531C893.084,-118.079 1049.64,-103.994 1181.5,-84 1184.51,-83.5437 1187.63,-83.0224 1190.75,-82.4677"/>
<polygon fill="midnightblue" stroke="midnightblue" points="813.379,-121.061 803.693,-125.354 813.942,-128.038 813.379,-121.061"/>
</g>
<!-- Node22 -->
<g id="node22" class="node"><title>Node22</title>
<g id="a_node22"><a xlink:href="UnivariateDist_8cpp.html" target="_top" xlink:title="UnivariateDist base class method definition. ">
<polygon fill="white" stroke="black" points="1080.5,-65.5 1080.5,-83.5 1172.5,-83.5 1172.5,-65.5 1080.5,-65.5"/>
<text text-anchor="middle" x="1126.5" y="-72.3" font-family="Helvetica,sans-Serif" font-size="9.00">UnivariateDist.cpp</text>
</a>
</g>
</g>
<!-- Node21&#45;&gt;Node22 -->
<g id="edge32" class="edge"><title>Node21&#45;&gt;Node22</title>
<path fill="none" stroke="midnightblue" d="M814.028,-121.17C875.208,-112.44 980.319,-97.3586 1070.5,-84 1073.71,-83.5245 1077.02,-83.0303 1080.36,-82.5302"/>
<polygon fill="midnightblue" stroke="midnightblue" points="813.268,-117.743 803.863,-122.62 814.257,-124.673 813.268,-117.743"/>
</g>
<!-- Node23 -->
<g id="node23" class="node"><title>Node23</title>
<g id="a_node23"><a xlink:href="NormalDist_8h.html" target="_top" xlink:title="NormalDist class declaration and templated methods. ">
<polygon fill="white" stroke="black" points="747.5,-65.5 747.5,-83.5 817.5,-83.5 817.5,-65.5 747.5,-65.5"/>
<text text-anchor="middle" x="782.5" y="-72.3" font-family="Helvetica,sans-Serif" font-size="9.00">NormalDist.h</text>
</a>
</g>
</g>
<!-- Node21&#45;&gt;Node23 -->
<g id="edge36" class="edge"><title>Node21&#45;&gt;Node23</title>
<path fill="none" stroke="midnightblue" d="M769.19,-110.771C772.667,-101.558 776.745,-90.7498 779.462,-83.5496"/>
<polygon fill="midnightblue" stroke="midnightblue" points="765.881,-109.627 765.625,-120.219 772.43,-112.098 765.881,-109.627"/>
</g>
<!-- Node25 -->
<g id="node25" class="node"><title>Node25</title>
<g id="a_node25"><a xlink:href="SymmetricBetaDist_8h.html" target="_top" xlink:title="SymmetricBetaDist class declaration and templated methods. ">
<polygon fill="white" stroke="black" points="836,-65.5 836,-83.5 937,-83.5 937,-65.5 836,-65.5"/>
<text text-anchor="middle" x="886.5" y="-72.3" font-family="Helvetica,sans-Serif" font-size="9.00">SymmetricBetaDist.h</text>
</a>
</g>
</g>
<!-- Node21&#45;&gt;Node25 -->
<g id="edge40" class="edge"><title>Node21&#45;&gt;Node25</title>
<path fill="none" stroke="midnightblue" d="M790.767,-116.418C814.254,-106.379 847.025,-92.3722 867.49,-83.6253"/>
<polygon fill="midnightblue" stroke="midnightblue" points="789.153,-113.302 781.333,-120.45 791.904,-119.738 789.153,-113.302"/>
</g>
<!-- Node23&#45;&gt;Node10 -->
<g id="edge38" class="edge"><title>Node23&#45;&gt;Node10</title>
<path fill="none" stroke="midnightblue" d="M737.442,-63.821C684.935,-52.5416 599.124,-34.1082 550.062,-23.5688"/>
<polygon fill="midnightblue" stroke="midnightblue" points="736.967,-67.2986 747.479,-65.977 738.437,-60.4547 736.967,-67.2986"/>
</g>
<!-- Node24 -->
<g id="node24" class="node"><title>Node24</title>
<g id="a_node24"><a xlink:href="NormalDist_8cpp.html" target="_top" xlink:title="NormalDist class defintion. ">
<polygon fill="white" stroke="black" points="834.5,-5.5 834.5,-23.5 914.5,-23.5 914.5,-5.5 834.5,-5.5"/>
<text text-anchor="middle" x="874.5" y="-12.3" font-family="Helvetica,sans-Serif" font-size="9.00">NormalDist.cpp</text>
</a>
</g>
</g>
<!-- Node23&#45;&gt;Node24 -->
<g id="edge37" class="edge"><title>Node23&#45;&gt;Node24</title>
<path fill="none" stroke="midnightblue" d="M803.891,-60.0141C821.725,-48.7709 846.553,-33.1187 861.52,-23.6831"/>
<polygon fill="midnightblue" stroke="midnightblue" points="801.885,-57.1415 795.292,-65.4353 805.618,-63.063 801.885,-57.1415"/>
</g>
<!-- Node25&#45;&gt;Node7 -->
<g id="edge42" class="edge"><title>Node25&#45;&gt;Node7</title>
<path fill="none" stroke="midnightblue" d="M843.883,-62.9818C797.983,-51.6533 725.948,-33.8745 684.276,-23.5894"/>
<polygon fill="midnightblue" stroke="midnightblue" points="843.277,-66.4371 853.824,-65.4353 844.954,-59.6411 843.277,-66.4371"/>
</g>
<!-- Node26 -->
<g id="node26" class="node"><title>Node26</title>
<g id="a_node26"><a xlink:href="SymmetricBetaDist_8cpp.html" target="_top" xlink:title="SymmetricBetaDist class defintion. ">
<polygon fill="white" stroke="black" points="933,-5.5 933,-23.5 1044,-23.5 1044,-5.5 933,-5.5"/>
<text text-anchor="middle" x="988.5" y="-12.3" font-family="Helvetica,sans-Serif" font-size="9.00">SymmetricBetaDist.cpp</text>
</a>
</g>
</g>
<!-- Node25&#45;&gt;Node26 -->
<g id="edge41" class="edge"><title>Node25&#45;&gt;Node26</title>
<path fill="none" stroke="midnightblue" d="M909.405,-60.4757C929.229,-49.2029 957.287,-33.2486 974.109,-23.6831"/>
<polygon fill="midnightblue" stroke="midnightblue" points="907.646,-57.4498 900.683,-65.4353 911.106,-63.5348 907.646,-57.4498"/>
</g>
</g>
</svg>
