<?xml version="1.0" encoding="UTF-8" standalone="no"?>
<!DOCTYPE svg PUBLIC "-//W3C//DTD SVG 1.1//EN"
 "http://www.w3.org/Graphics/SVG/1.1/DTD/svg11.dtd">
<!-- Generated by graphviz version 2.38.0 (20140413.2041)
 -->
<!-- Title: MultivariateDist.h Pages: 1 -->
<!--zoomable 192 -->
<svg id="main" version="1.1" xmlns="http://www.w3.org/2000/svg" xmlns:xlink="http://www.w3.org/1999/xlink" xml:space="preserve" onload="init(evt)">
<style type="text/css"><![CDATA[
.edge:hover path { stroke: red; }
.edge:hover polygon { stroke: red; fill: red; }
]]></style>
<script type="text/javascript"><![CDATA[
var edges = document.getElementsByTagName('g');
if (edges && edges.length) {
  for (var i=0;i<edges.length;i++) {
    if (edges[i].id.substr(0,4)=='edge') {
      edges[i].setAttribute('class','edge');
    }
  }
}
]]></script>
        <defs>
                <circle id="rim" cx="0" cy="0" r="7"/>
                <circle id="rim2" cx="0" cy="0" r="3.5"/>
                <g id="zoomPlus">
                        <use xlink:href="#rim" fill="#404040">
                                <set attributeName="fill" to="#808080" begin="zoomplus.mouseover" end="zoomplus.mouseout"/>
                        </use>
                        <path d="M-4,0h8M0,-4v8" fill="none" stroke="white" stroke-width="1.5" pointer-events="none"/>
                </g>
                <g id="zoomMin">
                        <use xlink:href="#rim" fill="#404040">
                                <set attributeName="fill" to="#808080" begin="zoomminus.mouseover" end="zoomminus.mouseout"/>
                        </use>
                        <path d="M-4,0h8" fill="none" stroke="white" stroke-width="1.5" pointer-events="none"/>
                </g>
                <g id="dirArrow">
                        <path fill="none" stroke="white" stroke-width="1.5" d="M0,-3.0v7 M-2.5,-0.5L0,-3.0L2.5,-0.5"/>
                </g>
               <g id="resetDef">
                       <use xlink:href="#rim2" fill="#404040">
                               <set attributeName="fill" to="#808080" begin="reset.mouseover" end="reset.mouseout"/>
                       </use>
               </g>
        </defs>

<script type="text/javascript">
var viewWidth = 748;
var viewHeight = 192;
var sectionId = 'dynsection-0';
</script>
<script xlink:href="svgpan.js"/>
<svg id="graph" class="graph">
<g id="viewport">
<title>MultivariateDist.h</title>
<polygon fill="white" stroke="none" points="-4,4 -4,-188 743.5,-188 743.5,4 -4,4"/>
<!-- Node1 -->
<g id="node1" class="node"><title>Node1</title>
<polygon fill="#bfbfbf" stroke="black" points="512,-165.5 512,-183.5 599,-183.5 599,-165.5 512,-165.5"/>
<text text-anchor="middle" x="555.5" y="-172.3" font-family="Helvetica,sans-Serif" font-size="9.00">MultivariateDist.h</text>
</g>
<!-- Node2 -->
<g id="node2" class="node"><title>Node2</title>
<g id="a_node2"><a xlink:href="util_8h.html" target="_top" xlink:title="Utilities and namespace globals. ">
<polygon fill="white" stroke="black" points="172.5,-110.5 172.5,-128.5 264.5,-128.5 264.5,-110.5 172.5,-110.5"/>
<text text-anchor="middle" x="218.5" y="-117.3" font-family="Helvetica,sans-Serif" font-size="9.00">PriorHessian/util.h</text>
</a>
</g>
</g>
<!-- Node1&#45;&gt;Node2 -->
<g id="edge1" class="edge"><title>Node1&#45;&gt;Node2</title>
<path fill="none" stroke="midnightblue" d="M511.789,-166.626C451.06,-157.075 341.13,-139.786 274.473,-129.303"/>
<polygon fill="midnightblue" stroke="midnightblue" points="274.984,-125.84 264.562,-127.744 273.897,-132.755 274.984,-125.84"/>
</g>
<!-- Node11 -->
<g id="node11" class="node"><title>Node11</title>
<g id="a_node11"><a xlink:href="Meta_8h.html" target="_top" xlink:title="Enables the use of variadic templates in interesting ways. ">
<polygon fill="white" stroke="black" points="505.5,-110.5 505.5,-128.5 605.5,-128.5 605.5,-110.5 505.5,-110.5"/>
<text text-anchor="middle" x="555.5" y="-117.3" font-family="Helvetica,sans-Serif" font-size="9.00">PriorHessian/Meta.h</text>
</a>
</g>
</g>
<!-- Node1&#45;&gt;Node11 -->
<g id="edge11" class="edge"><title>Node1&#45;&gt;Node11</title>
<path fill="none" stroke="midnightblue" d="M555.5,-165.219C555.5,-158.177 555.5,-147.808 555.5,-138.828"/>
<polygon fill="midnightblue" stroke="midnightblue" points="559,-138.55 555.5,-128.55 552,-138.55 559,-138.55"/>
</g>
<!-- Node15 -->
<g id="node15" class="node"><title>Node15</title>
<g id="a_node15"><a xlink:href="BaseDist_8h.html" target="_top" xlink:title="The Base class for UnivariateDist and MultivariateDist. ">
<polygon fill="white" stroke="black" points="623.5,-110.5 623.5,-128.5 739.5,-128.5 739.5,-110.5 623.5,-110.5"/>
<text text-anchor="middle" x="681.5" y="-117.3" font-family="Helvetica,sans-Serif" font-size="9.00">PriorHessian/BaseDist.h</text>
</a>
</g>
</g>
<!-- Node1&#45;&gt;Node15 -->
<g id="edge15" class="edge"><title>Node1&#45;&gt;Node15</title>
<path fill="none" stroke="midnightblue" d="M574.637,-165.45C595.451,-156.695 628.947,-142.606 652.889,-132.535"/>
<polygon fill="midnightblue" stroke="midnightblue" points="654.323,-135.729 662.183,-128.625 651.608,-129.276 654.323,-135.729"/>
</g>
<!-- Node3 -->
<g id="node3" class="node"><title>Node3</title>
<polygon fill="white" stroke="#bfbfbf" points="0,-55.5 0,-73.5 41,-73.5 41,-55.5 0,-55.5"/>
<text text-anchor="middle" x="20.5" y="-62.3" font-family="Helvetica,sans-Serif" font-size="9.00">cmath</text>
</g>
<!-- Node2&#45;&gt;Node3 -->
<g id="edge2" class="edge"><title>Node2&#45;&gt;Node3</title>
<path fill="none" stroke="midnightblue" d="M188.428,-110.45C151.247,-100.498 88.3147,-83.6524 50.9568,-73.6526"/>
<polygon fill="midnightblue" stroke="midnightblue" points="51.7057,-70.2299 41.1407,-71.025 49.8956,-76.9918 51.7057,-70.2299"/>
</g>
<!-- Node4 -->
<g id="node4" class="node"><title>Node4</title>
<polygon fill="white" stroke="#bfbfbf" points="193,-0.5 193,-18.5 232,-18.5 232,-0.5 193,-0.5"/>
<text text-anchor="middle" x="212.5" y="-7.3" font-family="Helvetica,sans-Serif" font-size="9.00">string</text>
</g>
<!-- Node2&#45;&gt;Node4 -->
<g id="edge3" class="edge"><title>Node2&#45;&gt;Node4</title>
<path fill="none" stroke="midnightblue" d="M172.342,-115.781C143.135,-111.385 107.433,-100.492 88.5,-74 62.5268,-37.6564 138.573,-20.7017 182.952,-14.0763"/>
<polygon fill="midnightblue" stroke="midnightblue" points="183.528,-17.5299 192.946,-12.6773 182.558,-10.5975 183.528,-17.5299"/>
</g>
<!-- Node5 -->
<g id="node5" class="node"><title>Node5</title>
<polygon fill="white" stroke="#bfbfbf" points="97.5,-55.5 97.5,-73.5 145.5,-73.5 145.5,-55.5 97.5,-55.5"/>
<text text-anchor="middle" x="121.5" y="-62.3" font-family="Helvetica,sans-Serif" font-size="9.00">random</text>
</g>
<!-- Node2&#45;&gt;Node5 -->
<g id="edge4" class="edge"><title>Node2&#45;&gt;Node5</title>
<path fill="none" stroke="midnightblue" d="M203.768,-110.45C188.242,-101.968 163.552,-88.477 145.267,-78.486"/>
<polygon fill="midnightblue" stroke="midnightblue" points="146.825,-75.3488 136.371,-73.6253 143.468,-81.4917 146.825,-75.3488"/>
</g>
<!-- Node6 -->
<g id="node6" class="node"><title>Node6</title>
<polygon fill="white" stroke="#bfbfbf" points="164,-55.5 164,-73.5 205,-73.5 205,-55.5 164,-55.5"/>
<text text-anchor="middle" x="184.5" y="-62.3" font-family="Helvetica,sans-Serif" font-size="9.00">vector</text>
</g>
<!-- Node2&#45;&gt;Node6 -->
<g id="edge5" class="edge"><title>Node2&#45;&gt;Node6</title>
<path fill="none" stroke="midnightblue" d="M213.188,-110.219C208.369,-102.707 201.122,-91.411 195.118,-82.0515"/>
<polygon fill="midnightblue" stroke="midnightblue" points="198.009,-80.0767 189.664,-73.5496 192.118,-83.8564 198.009,-80.0767"/>
</g>
<!-- Node7 -->
<g id="node7" class="node"><title>Node7</title>
<polygon fill="white" stroke="#bfbfbf" points="223.5,-55.5 223.5,-73.5 279.5,-73.5 279.5,-55.5 223.5,-55.5"/>
<text text-anchor="middle" x="251.5" y="-62.3" font-family="Helvetica,sans-Serif" font-size="9.00">typeindex</text>
</g>
<!-- Node2&#45;&gt;Node7 -->
<g id="edge6" class="edge"><title>Node2&#45;&gt;Node7</title>
<path fill="none" stroke="midnightblue" d="M223.656,-110.219C228.333,-102.707 235.367,-91.411 241.194,-82.0515"/>
<polygon fill="midnightblue" stroke="midnightblue" points="244.174,-83.8885 246.488,-73.5496 238.231,-80.1886 244.174,-83.8885"/>
</g>
<!-- Node8 -->
<g id="node8" class="node"><title>Node8</title>
<polygon fill="white" stroke="#bfbfbf" points="298,-55.5 298,-73.5 353,-73.5 353,-55.5 298,-55.5"/>
<text text-anchor="middle" x="325.5" y="-62.3" font-family="Helvetica,sans-Serif" font-size="9.00">armadillo</text>
</g>
<!-- Node2&#45;&gt;Node8 -->
<g id="edge7" class="edge"><title>Node2&#45;&gt;Node8</title>
<path fill="none" stroke="midnightblue" d="M234.751,-110.45C252.113,-101.851 279.864,-88.1048 300.112,-78.0755"/>
<polygon fill="midnightblue" stroke="midnightblue" points="301.689,-81.2003 309.096,-73.6253 298.582,-74.9276 301.689,-81.2003"/>
</g>
<!-- Node9 -->
<g id="node9" class="node"><title>Node9</title>
<g id="a_node9"><a xlink:href="PriorHessianError_8h.html" target="_top" xlink:title="The Exception classes for the PriorHessian library. ">
<polygon fill="white" stroke="black" points="371.5,-55.5 371.5,-73.5 469.5,-73.5 469.5,-55.5 371.5,-55.5"/>
<text text-anchor="middle" x="420.5" y="-62.3" font-family="Helvetica,sans-Serif" font-size="9.00">PriorHessianError.h</text>
</a>
</g>
</g>
<!-- Node2&#45;&gt;Node9 -->
<g id="edge8" class="edge"><title>Node2&#45;&gt;Node9</title>
<path fill="none" stroke="midnightblue" d="M249.179,-110.45C284.133,-101.279 341.394,-86.2555 379.992,-76.1283"/>
<polygon fill="midnightblue" stroke="midnightblue" points="381.079,-79.4617 389.863,-73.5383 379.303,-72.6908 381.079,-79.4617"/>
</g>
<!-- Node9&#45;&gt;Node4 -->
<g id="edge10" class="edge"><title>Node9&#45;&gt;Node4</title>
<path fill="none" stroke="midnightblue" d="M388.909,-55.4504C349.123,-45.3126 281.269,-28.0228 242.331,-18.1013"/>
<polygon fill="midnightblue" stroke="midnightblue" points="242.718,-14.588 232.163,-15.5104 240.989,-21.3712 242.718,-14.588"/>
</g>
<!-- Node10 -->
<g id="node10" class="node"><title>Node10</title>
<polygon fill="white" stroke="#bfbfbf" points="392.5,-0.5 392.5,-18.5 448.5,-18.5 448.5,-0.5 392.5,-0.5"/>
<text text-anchor="middle" x="420.5" y="-7.3" font-family="Helvetica,sans-Serif" font-size="9.00">exception</text>
</g>
<!-- Node9&#45;&gt;Node10 -->
<g id="edge9" class="edge"><title>Node9&#45;&gt;Node10</title>
<path fill="none" stroke="midnightblue" d="M420.5,-55.2188C420.5,-48.1769 420.5,-37.8083 420.5,-28.8277"/>
<polygon fill="midnightblue" stroke="midnightblue" points="424,-28.5495 420.5,-18.5496 417,-28.5496 424,-28.5495"/>
</g>
<!-- Node12 -->
<g id="node12" class="node"><title>Node12</title>
<polygon fill="white" stroke="#bfbfbf" points="487.5,-55.5 487.5,-73.5 543.5,-73.5 543.5,-55.5 487.5,-55.5"/>
<text text-anchor="middle" x="515.5" y="-62.3" font-family="Helvetica,sans-Serif" font-size="9.00">functional</text>
</g>
<!-- Node11&#45;&gt;Node12 -->
<g id="edge12" class="edge"><title>Node11&#45;&gt;Node12</title>
<path fill="none" stroke="midnightblue" d="M549.25,-110.219C543.522,-102.629 534.878,-91.1753 527.771,-81.7597"/>
<polygon fill="midnightblue" stroke="midnightblue" points="530.393,-79.423 521.575,-73.5496 524.806,-83.6399 530.393,-79.423"/>
</g>
<!-- Node13 -->
<g id="node13" class="node"><title>Node13</title>
<polygon fill="white" stroke="#bfbfbf" points="561.5,-55.5 561.5,-73.5 631.5,-73.5 631.5,-55.5 561.5,-55.5"/>
<text text-anchor="middle" x="596.5" y="-62.3" font-family="Helvetica,sans-Serif" font-size="9.00">initializer_list</text>
</g>
<!-- Node11&#45;&gt;Node13 -->
<g id="edge13" class="edge"><title>Node11&#45;&gt;Node13</title>
<path fill="none" stroke="midnightblue" d="M561.906,-110.219C567.838,-102.551 576.821,-90.9387 584.147,-81.4691"/>
<polygon fill="midnightblue" stroke="midnightblue" points="586.923,-83.6007 590.273,-73.5496 581.386,-79.3176 586.923,-83.6007"/>
</g>
<!-- Node14 -->
<g id="node14" class="node"><title>Node14</title>
<polygon fill="white" stroke="#bfbfbf" points="650,-55.5 650,-73.5 693,-73.5 693,-55.5 650,-55.5"/>
<text text-anchor="middle" x="671.5" y="-62.3" font-family="Helvetica,sans-Serif" font-size="9.00">cstdint</text>
</g>
<!-- Node11&#45;&gt;Node14 -->
<g id="edge14" class="edge"><title>Node11&#45;&gt;Node14</title>
<path fill="none" stroke="midnightblue" d="M573.118,-110.45C592.11,-101.773 622.571,-87.8556 644.57,-77.8041"/>
<polygon fill="midnightblue" stroke="midnightblue" points="646.075,-80.9646 653.716,-73.6253 643.166,-74.5977 646.075,-80.9646"/>
</g>
</g>
</svg>
        <g id="navigator" transform="translate(0 0)" fill="#404254">
                <rect fill="#f2f5e9" fill-opacity="0.5" stroke="#606060" stroke-width=".5" x="0" y="0" width="60" height="60"/>
                <use id="zoomplus" xlink:href="#zoomPlus" x="17" y="9" onmousedown="handleZoom(evt,'in')"/>
                <use id="zoomminus" xlink:href="#zoomMin" x="42" y="9" onmousedown="handleZoom(evt,'out')"/>
                <use id="reset" xlink:href="#resetDef" x="30" y="36" onmousedown="handleReset()"/>
                <g id="arrowUp" xlink:href="#dirArrow" transform="translate(30 24)" onmousedown="handlePan(0,-1)">
                  <use xlink:href="#rim" fill="#404040">
                        <set attributeName="fill" to="#808080" begin="arrowUp.mouseover" end="arrowUp.mouseout"/>
                  </use>
                  <path fill="none" stroke="white" stroke-width="1.5" d="M0,-3.0v7 M-2.5,-0.5L0,-3.0L2.5,-0.5"/>
                </g>
                <g id="arrowRight" xlink:href="#dirArrow" transform="rotate(90) translate(36 -43)" onmousedown="handlePan(1,0)">
                  <use xlink:href="#rim" fill="#404040">
                        <set attributeName="fill" to="#808080" begin="arrowRight.mouseover" end="arrowRight.mouseout"/>
                  </use>
                  <path fill="none" stroke="white" stroke-width="1.5" d="M0,-3.0v7 M-2.5,-0.5L0,-3.0L2.5,-0.5"/>
                </g>
                <g id="arrowDown" xlink:href="#dirArrow" transform="rotate(180) translate(-30 -48)" onmousedown="handlePan(0,1)">
                  <use xlink:href="#rim" fill="#404040">
                        <set attributeName="fill" to="#808080" begin="arrowDown.mouseover" end="arrowDown.mouseout"/>
                  </use>
                  <path fill="none" stroke="white" stroke-width="1.5" d="M0,-3.0v7 M-2.5,-0.5L0,-3.0L2.5,-0.5"/>
                </g>
                <g id="arrowLeft" xlink:href="#dirArrow" transform="rotate(270) translate(-36 17)" onmousedown="handlePan(-1,0)">
                  <use xlink:href="#rim" fill="#404040">
                        <set attributeName="fill" to="#808080" begin="arrowLeft.mouseover" end="arrowLeft.mouseout"/>
                  </use>
                  <path fill="none" stroke="white" stroke-width="1.5" d="M0,-3.0v7 M-2.5,-0.5L0,-3.0L2.5,-0.5"/>
                </g>
        </g>
        <svg viewBox="0 0 15 15" width="100%" height="30px" preserveAspectRatio="xMaxYMin meet">
         <g id="arrow_out" transform="scale(0.3 0.3)">
          <a xlink:href="MultivariateDist_8h__incl_org.svg" target="_base">
           <rect id="button" ry="5" rx="5" y="6" x="6" height="38" width="38"
                fill="#f2f5e9" fill-opacity="0.5" stroke="#606060" stroke-width="1.0"/>
           <path id="arrow"
             d="M 11.500037,31.436501 C 11.940474,20.09759 22.043105,11.32322 32.158766,21.979434 L 37.068811,17.246167 C 37.068811,17.246167 37.088388,32 37.088388,32 L 22.160133,31.978069 C 22.160133,31.978069 26.997745,27.140456 26.997745,27.140456 C 18.528582,18.264221 13.291696,25.230495 11.500037,31.436501 z"
             style="fill:#404040;"/>
          </a>
         </g>
        </svg>
</svg>
