<?xml version="1.0" encoding="UTF-8" standalone="no"?>
<!DOCTYPE svg PUBLIC "-//W3C//DTD SVG 1.1//EN"
 "http://www.w3.org/Graphics/SVG/1.1/DTD/svg11.dtd">
<!-- Generated by graphviz version 2.38.0 (20140413.2041)
 -->
<!-- Title: MultivariateNormalDist.h Pages: 1 -->
<!--zoomable 257 -->
<svg id="main" version="1.1" xmlns="http://www.w3.org/2000/svg" xmlns:xlink="http://www.w3.org/1999/xlink" xml:space="preserve" onload="init(evt)">
<style type="text/css"><![CDATA[
.edge:hover path { stroke: red; }
.edge:hover polygon { stroke: red; fill: red; }
]]></style>
<script type="text/javascript"><![CDATA[
var edges = document.getElementsByTagName('g');
if (edges && edges.length) {
  for (var i=0;i<edges.length;i++) {
    if (edges[i].id.substr(0,4)=='edge') {
      edges[i].setAttribute('class','edge');
    }
  }
}
]]></script>
        <defs>
                <circle id="rim" cx="0" cy="0" r="7"/>
                <circle id="rim2" cx="0" cy="0" r="3.5"/>
                <g id="zoomPlus">
                        <use xlink:href="#rim" fill="#404040">
                                <set attributeName="fill" to="#808080" begin="zoomplus.mouseover" end="zoomplus.mouseout"/>
                        </use>
                        <path d="M-4,0h8M0,-4v8" fill="none" stroke="white" stroke-width="1.5" pointer-events="none"/>
                </g>
                <g id="zoomMin">
                        <use xlink:href="#rim" fill="#404040">
                                <set attributeName="fill" to="#808080" begin="zoomminus.mouseover" end="zoomminus.mouseout"/>
                        </use>
                        <path d="M-4,0h8" fill="none" stroke="white" stroke-width="1.5" pointer-events="none"/>
                </g>
                <g id="dirArrow">
                        <path fill="none" stroke="white" stroke-width="1.5" d="M0,-3.0v7 M-2.5,-0.5L0,-3.0L2.5,-0.5"/>
                </g>
               <g id="resetDef">
                       <use xlink:href="#rim2" fill="#404040">
                               <set attributeName="fill" to="#808080" begin="reset.mouseover" end="reset.mouseout"/>
                       </use>
               </g>
        </defs>

<script type="text/javascript">
var viewWidth = 701;
var viewHeight = 257;
var sectionId = 'dynsection-0';
</script>
<script xlink:href="svgpan.js"/>
<svg id="graph" class="graph">
<g id="viewport">
<title>MultivariateNormalDist.h</title>
<polygon fill="white" stroke="none" points="-4,4 -4,-253 697,-253 697,4 -4,4"/>
<!-- Node1 -->
<g id="node1" class="node"><title>Node1</title>
<polygon fill="#bfbfbf" stroke="black" points="310,-230.5 310,-248.5 427,-248.5 427,-230.5 310,-230.5"/>
<text text-anchor="middle" x="368.5" y="-237.3" font-family="Helvetica,sans-Serif" font-size="9.00">MultivariateNormalDist.h</text>
</g>
<!-- Node2 -->
<g id="node2" class="node"><title>Node2</title>
<g id="a_node2"><a xlink:href="MultivariateDist_8h.html" target="_top" xlink:title="MultivariateDist base class. ">
<polygon fill="white" stroke="black" points="309,-165.5 309,-193.5 428,-193.5 428,-165.5 309,-165.5"/>
<text text-anchor="start" x="317" y="-182.3" font-family="Helvetica,sans-Serif" font-size="9.00">PriorHessian/Multivariate</text>
<text text-anchor="middle" x="368.5" y="-172.3" font-family="Helvetica,sans-Serif" font-size="9.00">Dist.h</text>
</a>
</g>
</g>
<!-- Node1&#45;&gt;Node2 -->
<g id="edge1" class="edge"><title>Node1&#45;&gt;Node2</title>
<path fill="none" stroke="midnightblue" d="M368.5,-230.435C368.5,-223.56 368.5,-213.324 368.5,-203.906"/>
<polygon fill="midnightblue" stroke="midnightblue" points="372,-203.843 368.5,-193.843 365,-203.843 372,-203.843"/>
</g>
<!-- Node12 -->
<g id="node12" class="node"><title>Node12</title>
<g id="a_node12"><a xlink:href="Meta_8h.html" target="_top" xlink:title="Enables the use of variadic templates in interesting ways. ">
<polygon fill="white" stroke="black" points="465.5,-110.5 465.5,-128.5 565.5,-128.5 565.5,-110.5 465.5,-110.5"/>
<text text-anchor="middle" x="515.5" y="-117.3" font-family="Helvetica,sans-Serif" font-size="9.00">PriorHessian/Meta.h</text>
</a>
</g>
</g>
<!-- Node1&#45;&gt;Node12 -->
<g id="edge17" class="edge"><title>Node1&#45;&gt;Node12</title>
<path fill="none" stroke="midnightblue" d="M382.255,-230.45C396.332,-221.996 418.617,-208.006 436.5,-194 460.111,-175.508 485.087,-151.4 500.486,-135.932"/>
<polygon fill="midnightblue" stroke="midnightblue" points="503.081,-138.285 507.608,-128.706 498.096,-133.371 503.081,-138.285"/>
</g>
<!-- Node17 -->
<g id="node17" class="node"><title>Node17</title>
<g id="a_node17"><a xlink:href="mvn__cdf_8h.html" target="_top" xlink:title="Numerical computation of multivariate normal cdfs in 2,3 and higher dims. ">
<polygon fill="white" stroke="black" points="79.5,-170.5 79.5,-188.5 193.5,-188.5 193.5,-170.5 79.5,-170.5"/>
<text text-anchor="middle" x="136.5" y="-177.3" font-family="Helvetica,sans-Serif" font-size="9.00">PriorHessian/mvn_cdf.h</text>
</a>
</g>
</g>
<!-- Node1&#45;&gt;Node17 -->
<g id="edge18" class="edge"><title>Node1&#45;&gt;Node17</title>
<path fill="none" stroke="midnightblue" d="M336.241,-230.435C295.149,-220.162 224.038,-202.384 178.682,-191.046"/>
<polygon fill="midnightblue" stroke="midnightblue" points="179.408,-187.619 168.858,-188.589 177.71,-194.41 179.408,-187.619"/>
</g>
<!-- Node3 -->
<g id="node3" class="node"><title>Node3</title>
<g id="a_node3"><a xlink:href="util_8h.html" target="_top" xlink:title="Utilities and namespace globals. ">
<polygon fill="white" stroke="black" points="179.5,-110.5 179.5,-128.5 271.5,-128.5 271.5,-110.5 179.5,-110.5"/>
<text text-anchor="middle" x="225.5" y="-117.3" font-family="Helvetica,sans-Serif" font-size="9.00">PriorHessian/util.h</text>
</a>
</g>
</g>
<!-- Node2&#45;&gt;Node3 -->
<g id="edge2" class="edge"><title>Node2&#45;&gt;Node3</title>
<path fill="none" stroke="midnightblue" d="M336.408,-165.484C312.054,-155.606 278.83,-142.13 255.109,-132.509"/>
<polygon fill="midnightblue" stroke="midnightblue" points="256.16,-129.159 245.578,-128.643 253.529,-135.645 256.16,-129.159"/>
</g>
<!-- Node2&#45;&gt;Node12 -->
<g id="edge12" class="edge"><title>Node2&#45;&gt;Node12</title>
<path fill="none" stroke="midnightblue" d="M401.49,-165.484C426.636,-155.562 460.984,-142.01 485.389,-132.38"/>
<polygon fill="midnightblue" stroke="midnightblue" points="486.843,-135.569 494.861,-128.643 484.274,-129.058 486.843,-135.569"/>
</g>
<!-- Node16 -->
<g id="node16" class="node"><title>Node16</title>
<g id="a_node16"><a xlink:href="BaseDist_8h.html" target="_top" xlink:title="The Base class for UnivariateDist and MultivariateDist. ">
<polygon fill="white" stroke="black" points="310.5,-110.5 310.5,-128.5 426.5,-128.5 426.5,-110.5 310.5,-110.5"/>
<text text-anchor="middle" x="368.5" y="-117.3" font-family="Helvetica,sans-Serif" font-size="9.00">PriorHessian/BaseDist.h</text>
</a>
</g>
</g>
<!-- Node2&#45;&gt;Node16 -->
<g id="edge16" class="edge"><title>Node2&#45;&gt;Node16</title>
<path fill="none" stroke="midnightblue" d="M368.5,-165.339C368.5,-157.531 368.5,-147.512 368.5,-138.927"/>
<polygon fill="midnightblue" stroke="midnightblue" points="372,-138.771 368.5,-128.771 365,-138.772 372,-138.771"/>
</g>
<!-- Node4 -->
<g id="node4" class="node"><title>Node4</title>
<polygon fill="white" stroke="#bfbfbf" points="0,-55.5 0,-73.5 41,-73.5 41,-55.5 0,-55.5"/>
<text text-anchor="middle" x="20.5" y="-62.3" font-family="Helvetica,sans-Serif" font-size="9.00">cmath</text>
</g>
<!-- Node3&#45;&gt;Node4 -->
<g id="edge3" class="edge"><title>Node3&#45;&gt;Node4</title>
<path fill="none" stroke="midnightblue" d="M192.855,-110.48C159.647,-102.259 106.458,-88.923 51.123,-74.1097"/>
<polygon fill="midnightblue" stroke="midnightblue" points="51.7022,-70.6413 41.1365,-71.4263 49.8856,-77.4015 51.7022,-70.6413"/>
</g>
<!-- Node5 -->
<g id="node5" class="node"><title>Node5</title>
<polygon fill="white" stroke="#bfbfbf" points="122,-0.5 122,-18.5 161,-18.5 161,-0.5 122,-0.5"/>
<text text-anchor="middle" x="141.5" y="-7.3" font-family="Helvetica,sans-Serif" font-size="9.00">string</text>
</g>
<!-- Node3&#45;&gt;Node5 -->
<g id="edge4" class="edge"><title>Node3&#45;&gt;Node5</title>
<path fill="none" stroke="midnightblue" d="M203.811,-110.432C187.703,-103.307 166.522,-91.3324 154.5,-74 145.281,-60.7083 142.316,-42.3217 141.489,-28.753"/>
<polygon fill="midnightblue" stroke="midnightblue" points="144.986,-28.6037 141.206,-18.7061 137.989,-28.8006 144.986,-28.6037"/>
</g>
<!-- Node6 -->
<g id="node6" class="node"><title>Node6</title>
<polygon fill="white" stroke="#bfbfbf" points="59.5,-55.5 59.5,-73.5 107.5,-73.5 107.5,-55.5 59.5,-55.5"/>
<text text-anchor="middle" x="83.5" y="-62.3" font-family="Helvetica,sans-Serif" font-size="9.00">random</text>
</g>
<!-- Node3&#45;&gt;Node6 -->
<g id="edge5" class="edge"><title>Node3&#45;&gt;Node6</title>
<path fill="none" stroke="midnightblue" d="M203.933,-110.45C180.163,-101.578 141.717,-87.2288 114.67,-77.134"/>
<polygon fill="midnightblue" stroke="midnightblue" points="115.862,-73.8431 105.27,-73.6253 113.415,-80.4012 115.862,-73.8431"/>
</g>
<!-- Node7 -->
<g id="node7" class="node"><title>Node7</title>
<polygon fill="white" stroke="#bfbfbf" points="280,-55.5 280,-73.5 321,-73.5 321,-55.5 280,-55.5"/>
<text text-anchor="middle" x="300.5" y="-62.3" font-family="Helvetica,sans-Serif" font-size="9.00">vector</text>
</g>
<!-- Node3&#45;&gt;Node7 -->
<g id="edge6" class="edge"><title>Node3&#45;&gt;Node7</title>
<path fill="none" stroke="midnightblue" d="M236.891,-110.45C248.455,-102.279 266.594,-89.4604 280.548,-79.5996"/>
<polygon fill="midnightblue" stroke="midnightblue" points="282.855,-82.2548 289.002,-73.6253 278.815,-76.5381 282.855,-82.2548"/>
</g>
<!-- Node8 -->
<g id="node8" class="node"><title>Node8</title>
<polygon fill="white" stroke="#bfbfbf" points="339.5,-55.5 339.5,-73.5 395.5,-73.5 395.5,-55.5 339.5,-55.5"/>
<text text-anchor="middle" x="367.5" y="-62.3" font-family="Helvetica,sans-Serif" font-size="9.00">typeindex</text>
</g>
<!-- Node3&#45;&gt;Node8 -->
<g id="edge7" class="edge"><title>Node3&#45;&gt;Node8</title>
<path fill="none" stroke="midnightblue" d="M247.067,-110.45C270.837,-101.578 309.283,-87.2288 336.33,-77.134"/>
<polygon fill="midnightblue" stroke="midnightblue" points="337.585,-80.4012 345.73,-73.6253 335.138,-73.8431 337.585,-80.4012"/>
</g>
<!-- Node9 -->
<g id="node9" class="node"><title>Node9</title>
<polygon fill="white" stroke="#bfbfbf" points="414,-55.5 414,-73.5 469,-73.5 469,-55.5 414,-55.5"/>
<text text-anchor="middle" x="441.5" y="-62.3" font-family="Helvetica,sans-Serif" font-size="9.00">armadillo</text>
</g>
<!-- Node3&#45;&gt;Node9 -->
<g id="edge8" class="edge"><title>Node3&#45;&gt;Node9</title>
<path fill="none" stroke="midnightblue" d="M258.306,-110.45C297.473,-100.84 362.834,-84.8022 403.976,-74.7074"/>
<polygon fill="midnightblue" stroke="midnightblue" points="405.005,-78.0587 413.883,-72.2764 403.337,-71.2604 405.005,-78.0587"/>
</g>
<!-- Node10 -->
<g id="node10" class="node"><title>Node10</title>
<g id="a_node10"><a xlink:href="PriorHessianError_8h.html" target="_top" xlink:title="The Exception classes for the PriorHessian library. ">
<polygon fill="white" stroke="black" points="163.5,-55.5 163.5,-73.5 261.5,-73.5 261.5,-55.5 163.5,-55.5"/>
<text text-anchor="middle" x="212.5" y="-62.3" font-family="Helvetica,sans-Serif" font-size="9.00">PriorHessianError.h</text>
</a>
</g>
</g>
<!-- Node3&#45;&gt;Node10 -->
<g id="edge9" class="edge"><title>Node3&#45;&gt;Node10</title>
<path fill="none" stroke="midnightblue" d="M223.469,-110.219C221.722,-103.099 219.142,-92.5775 216.922,-83.5289"/>
<polygon fill="midnightblue" stroke="midnightblue" points="220.256,-82.4279 214.474,-73.5496 213.457,-84.0955 220.256,-82.4279"/>
</g>
<!-- Node10&#45;&gt;Node5 -->
<g id="edge11" class="edge"><title>Node10&#45;&gt;Node5</title>
<path fill="none" stroke="midnightblue" d="M201.717,-55.4504C190.874,-47.3566 173.924,-34.7042 160.767,-24.8822"/>
<polygon fill="midnightblue" stroke="midnightblue" points="162.492,-21.8025 152.385,-18.6253 158.305,-27.412 162.492,-21.8025"/>
</g>
<!-- Node11 -->
<g id="node11" class="node"><title>Node11</title>
<polygon fill="white" stroke="#bfbfbf" points="184.5,-0.5 184.5,-18.5 240.5,-18.5 240.5,-0.5 184.5,-0.5"/>
<text text-anchor="middle" x="212.5" y="-7.3" font-family="Helvetica,sans-Serif" font-size="9.00">exception</text>
</g>
<!-- Node10&#45;&gt;Node11 -->
<g id="edge10" class="edge"><title>Node10&#45;&gt;Node11</title>
<path fill="none" stroke="midnightblue" d="M212.5,-55.2188C212.5,-48.1769 212.5,-37.8083 212.5,-28.8277"/>
<polygon fill="midnightblue" stroke="midnightblue" points="216,-28.5495 212.5,-18.5496 209,-28.5496 216,-28.5495"/>
</g>
<!-- Node13 -->
<g id="node13" class="node"><title>Node13</title>
<polygon fill="white" stroke="#bfbfbf" points="487.5,-55.5 487.5,-73.5 543.5,-73.5 543.5,-55.5 487.5,-55.5"/>
<text text-anchor="middle" x="515.5" y="-62.3" font-family="Helvetica,sans-Serif" font-size="9.00">functional</text>
</g>
<!-- Node12&#45;&gt;Node13 -->
<g id="edge13" class="edge"><title>Node12&#45;&gt;Node13</title>
<path fill="none" stroke="midnightblue" d="M515.5,-110.219C515.5,-103.177 515.5,-92.8083 515.5,-83.8277"/>
<polygon fill="midnightblue" stroke="midnightblue" points="519,-83.5495 515.5,-73.5496 512,-83.5496 519,-83.5495"/>
</g>
<!-- Node14 -->
<g id="node14" class="node"><title>Node14</title>
<polygon fill="white" stroke="#bfbfbf" points="561.5,-55.5 561.5,-73.5 631.5,-73.5 631.5,-55.5 561.5,-55.5"/>
<text text-anchor="middle" x="596.5" y="-62.3" font-family="Helvetica,sans-Serif" font-size="9.00">initializer_list</text>
</g>
<!-- Node12&#45;&gt;Node14 -->
<g id="edge14" class="edge"><title>Node12&#45;&gt;Node14</title>
<path fill="none" stroke="midnightblue" d="M527.802,-110.45C540.41,-102.201 560.255,-89.2158 575.381,-79.3187"/>
<polygon fill="midnightblue" stroke="midnightblue" points="577.631,-82.0294 584.082,-73.6253 573.798,-76.1719 577.631,-82.0294"/>
</g>
<!-- Node15 -->
<g id="node15" class="node"><title>Node15</title>
<polygon fill="white" stroke="#bfbfbf" points="650,-55.5 650,-73.5 693,-73.5 693,-55.5 650,-55.5"/>
<text text-anchor="middle" x="671.5" y="-62.3" font-family="Helvetica,sans-Serif" font-size="9.00">cstdint</text>
</g>
<!-- Node12&#45;&gt;Node15 -->
<g id="edge15" class="edge"><title>Node12&#45;&gt;Node15</title>
<path fill="none" stroke="midnightblue" d="M539.193,-110.45C566.149,-101.292 610.283,-86.2981 640.09,-76.1714"/>
<polygon fill="midnightblue" stroke="midnightblue" points="641.261,-79.4701 649.603,-72.9392 639.009,-72.8422 641.261,-79.4701"/>
</g>
<!-- Node17&#45;&gt;Node3 -->
<g id="edge22" class="edge"><title>Node17&#45;&gt;Node3</title>
<path fill="none" stroke="midnightblue" d="M148.875,-170.435C163.141,-161.138 186.84,-145.694 204.11,-134.439"/>
<polygon fill="midnightblue" stroke="midnightblue" points="206.476,-137.075 212.943,-128.683 202.654,-131.211 206.476,-137.075"/>
</g>
<!-- Node17&#45;&gt;Node4 -->
<g id="edge21" class="edge"><title>Node17&#45;&gt;Node4</title>
<path fill="none" stroke="midnightblue" d="M128.158,-170.373C108.845,-151.56 60.8181,-104.775 35.9584,-80.5586"/>
<polygon fill="midnightblue" stroke="midnightblue" points="38.3722,-78.0238 28.7668,-73.553 33.4877,-83.038 38.3722,-78.0238"/>
</g>
<!-- Node17&#45;&gt;Node6 -->
<g id="edge20" class="edge"><title>Node17&#45;&gt;Node6</title>
<path fill="none" stroke="midnightblue" d="M129.618,-170.236C122.048,-160.79 109.97,-144.612 102.5,-129 95.5084,-114.388 90.461,-96.6462 87.3336,-83.6342"/>
<polygon fill="midnightblue" stroke="midnightblue" points="90.689,-82.6022 85.079,-73.6145 83.8598,-84.139 90.689,-82.6022"/>
</g>
<!-- Node18 -->
<g id="node18" class="node"><title>Node18</title>
<polygon fill="white" stroke="#bfbfbf" points="111.5,-110.5 111.5,-128.5 161.5,-128.5 161.5,-110.5 111.5,-110.5"/>
<text text-anchor="middle" x="136.5" y="-117.3" font-family="Helvetica,sans-Serif" font-size="9.00">iomanip</text>
</g>
<!-- Node17&#45;&gt;Node18 -->
<g id="edge19" class="edge"><title>Node17&#45;&gt;Node18</title>
<path fill="none" stroke="midnightblue" d="M136.5,-170.435C136.5,-162.389 136.5,-149.739 136.5,-139.185"/>
<polygon fill="midnightblue" stroke="midnightblue" points="140,-138.872 136.5,-128.872 133,-138.872 140,-138.872"/>
</g>
</g>
</svg>
        <g id="navigator" transform="translate(0 0)" fill="#404254">
                <rect fill="#f2f5e9" fill-opacity="0.5" stroke="#606060" stroke-width=".5" x="0" y="0" width="60" height="60"/>
                <use id="zoomplus" xlink:href="#zoomPlus" x="17" y="9" onmousedown="handleZoom(evt,'in')"/>
                <use id="zoomminus" xlink:href="#zoomMin" x="42" y="9" onmousedown="handleZoom(evt,'out')"/>
                <use id="reset" xlink:href="#resetDef" x="30" y="36" onmousedown="handleReset()"/>
                <g id="arrowUp" xlink:href="#dirArrow" transform="translate(30 24)" onmousedown="handlePan(0,-1)">
                  <use xlink:href="#rim" fill="#404040">
                        <set attributeName="fill" to="#808080" begin="arrowUp.mouseover" end="arrowUp.mouseout"/>
                  </use>
                  <path fill="none" stroke="white" stroke-width="1.5" d="M0,-3.0v7 M-2.5,-0.5L0,-3.0L2.5,-0.5"/>
                </g>
                <g id="arrowRight" xlink:href="#dirArrow" transform="rotate(90) translate(36 -43)" onmousedown="handlePan(1,0)">
                  <use xlink:href="#rim" fill="#404040">
                        <set attributeName="fill" to="#808080" begin="arrowRight.mouseover" end="arrowRight.mouseout"/>
                  </use>
                  <path fill="none" stroke="white" stroke-width="1.5" d="M0,-3.0v7 M-2.5,-0.5L0,-3.0L2.5,-0.5"/>
                </g>
                <g id="arrowDown" xlink:href="#dirArrow" transform="rotate(180) translate(-30 -48)" onmousedown="handlePan(0,1)">
                  <use xlink:href="#rim" fill="#404040">
                        <set attributeName="fill" to="#808080" begin="arrowDown.mouseover" end="arrowDown.mouseout"/>
                  </use>
                  <path fill="none" stroke="white" stroke-width="1.5" d="M0,-3.0v7 M-2.5,-0.5L0,-3.0L2.5,-0.5"/>
                </g>
                <g id="arrowLeft" xlink:href="#dirArrow" transform="rotate(270) translate(-36 17)" onmousedown="handlePan(-1,0)">
                  <use xlink:href="#rim" fill="#404040">
                        <set attributeName="fill" to="#808080" begin="arrowLeft.mouseover" end="arrowLeft.mouseout"/>
                  </use>
                  <path fill="none" stroke="white" stroke-width="1.5" d="M0,-3.0v7 M-2.5,-0.5L0,-3.0L2.5,-0.5"/>
                </g>
        </g>
        <svg viewBox="0 0 15 15" width="100%" height="30px" preserveAspectRatio="xMaxYMin meet">
         <g id="arrow_out" transform="scale(0.3 0.3)">
          <a xlink:href="MultivariateNormalDist_8h__incl_org.svg" target="_base">
           <rect id="button" ry="5" rx="5" y="6" x="6" height="38" width="38"
                fill="#f2f5e9" fill-opacity="0.5" stroke="#606060" stroke-width="1.0"/>
           <path id="arrow"
             d="M 11.500037,31.436501 C 11.940474,20.09759 22.043105,11.32322 32.158766,21.979434 L 37.068811,17.246167 C 37.068811,17.246167 37.088388,32 37.088388,32 L 22.160133,31.978069 C 22.160133,31.978069 26.997745,27.140456 26.997745,27.140456 C 18.528582,18.264221 13.291696,25.230495 11.500037,31.436501 z"
             style="fill:#404040;"/>
          </a>
         </g>
        </svg>
</svg>
