<?xml version="1.0" encoding="UTF-8" standalone="no"?>
<!DOCTYPE svg PUBLIC "-//W3C//DTD SVG 1.1//EN"
 "http://www.w3.org/Graphics/SVG/1.1/DTD/svg11.dtd">
<!-- Generated by graphviz version 2.38.0 (20140413.2041)
 -->
<!-- Title: MultivariateDist.h Pages: 1 -->
<svg width="330pt" height="147pt"
 viewBox="0.00 0.00 329.50 147.00" xmlns="http://www.w3.org/2000/svg" xmlns:xlink="http://www.w3.org/1999/xlink">
<g id="graph0" class="graph" transform="scale(1 1) rotate(0) translate(4 143)">
<title>MultivariateDist.h</title>
<polygon fill="white" stroke="none" points="-4,4 -4,-143 325.5,-143 325.5,4 -4,4"/>
<!-- Node1 -->
<g id="node1" class="node"><title>Node1</title>
<polygon fill="#bfbfbf" stroke="black" points="98.5,-120.5 98.5,-138.5 185.5,-138.5 185.5,-120.5 98.5,-120.5"/>
<text text-anchor="middle" x="142" y="-127.3" font-family="Helvetica,sans-Serif" font-size="9.00">MultivariateDist.h</text>
</g>
<!-- Node2 -->
<g id="node2" class="node"><title>Node2</title>
<g id="a_node2"><a xlink:href="CompositeDist_8h.html" target="_top" xlink:title="CompositeDist class declaration and inline and templated member function definitions. ">
<polygon fill="white" stroke="black" points="5,-65.5 5,-83.5 89,-83.5 89,-65.5 5,-65.5"/>
<text text-anchor="middle" x="47" y="-72.3" font-family="Helvetica,sans-Serif" font-size="9.00">CompositeDist.h</text>
</a>
</g>
</g>
<!-- Node1&#45;&gt;Node2 -->
<g id="edge1" class="edge"><title>Node1&#45;&gt;Node2</title>
<path fill="none" stroke="midnightblue" d="M118.389,-115.328C100.569,-105.386 76.6827,-92.0598 61.5642,-83.6253"/>
<polygon fill="midnightblue" stroke="midnightblue" points="117.133,-118.635 127.572,-120.45 120.544,-112.522 117.133,-118.635"/>
</g>
<!-- Node4 -->
<g id="node4" class="node"><title>Node4</title>
<g id="a_node4"><a xlink:href="CopulaDist_8h.html" target="_top" xlink:title="CopulaDist base class. ">
<polygon fill="white" stroke="black" points="107,-65.5 107,-83.5 177,-83.5 177,-65.5 107,-65.5"/>
<text text-anchor="middle" x="142" y="-72.3" font-family="Helvetica,sans-Serif" font-size="9.00">CopulaDist.h</text>
</a>
</g>
</g>
<!-- Node1&#45;&gt;Node4 -->
<g id="edge3" class="edge"><title>Node1&#45;&gt;Node4</title>
<path fill="none" stroke="midnightblue" d="M142,-110.175C142,-101.094 142,-90.5949 142,-83.5496"/>
<polygon fill="midnightblue" stroke="midnightblue" points="138.5,-110.219 142,-120.219 145.5,-110.219 138.5,-110.219"/>
</g>
<!-- Node5 -->
<g id="node5" class="node"><title>Node5</title>
<g id="a_node5"><a xlink:href="MultivariateNormalDist_8h.html" target="_top" xlink:title="MultivariateNormalDist base class. ">
<polygon fill="white" stroke="black" points="195.5,-65.5 195.5,-83.5 312.5,-83.5 312.5,-65.5 195.5,-65.5"/>
<text text-anchor="middle" x="254" y="-72.3" font-family="Helvetica,sans-Serif" font-size="9.00">MultivariateNormalDist.h</text>
</a>
</g>
</g>
<!-- Node1&#45;&gt;Node5 -->
<g id="edge4" class="edge"><title>Node1&#45;&gt;Node5</title>
<path fill="none" stroke="midnightblue" d="M168.102,-116.148C189.273,-106.13 218.511,-92.2941 236.83,-83.6253"/>
<polygon fill="midnightblue" stroke="midnightblue" points="166.552,-113.009 159.01,-120.45 169.547,-119.337 166.552,-113.009"/>
</g>
<!-- Node3 -->
<g id="node3" class="node"><title>Node3</title>
<g id="a_node3"><a xlink:href="CompositeDist_8cpp.html" target="_top" xlink:title="CompositeDist and associated classes and nested classes. ">
<polygon fill="white" stroke="black" points="0,-5.5 0,-23.5 94,-23.5 94,-5.5 0,-5.5"/>
<text text-anchor="middle" x="47" y="-12.3" font-family="Helvetica,sans-Serif" font-size="9.00">CompositeDist.cpp</text>
</a>
</g>
</g>
<!-- Node2&#45;&gt;Node3 -->
<g id="edge2" class="edge"><title>Node2&#45;&gt;Node3</title>
<path fill="none" stroke="midnightblue" d="M47,-55.2144C47,-44.7141 47,-32.0332 47,-23.8718"/>
<polygon fill="midnightblue" stroke="midnightblue" points="43.5001,-55.4353 47,-65.4353 50.5001,-55.4354 43.5001,-55.4353"/>
</g>
<!-- Node6 -->
<g id="node6" class="node"><title>Node6</title>
<g id="a_node6"><a xlink:href="TruncatedMultivariateNormalDist_8h.html" target="_top" xlink:title="TruncatedMultivariateNormalDist class declaration. ">
<polygon fill="white" stroke="black" points="186.5,-0.5 186.5,-28.5 321.5,-28.5 321.5,-0.5 186.5,-0.5"/>
<text text-anchor="start" x="194.5" y="-17.3" font-family="Helvetica,sans-Serif" font-size="9.00">TruncatedMultivariateNormal</text>
<text text-anchor="middle" x="254" y="-7.3" font-family="Helvetica,sans-Serif" font-size="9.00">Dist.h</text>
</a>
</g>
</g>
<!-- Node5&#45;&gt;Node6 -->
<g id="edge5" class="edge"><title>Node5&#45;&gt;Node6</title>
<path fill="none" stroke="midnightblue" d="M254,-55.3209C254,-46.747 254,-36.6999 254,-28.8428"/>
<polygon fill="midnightblue" stroke="midnightblue" points="250.5,-55.4353 254,-65.4353 257.5,-55.4354 250.5,-55.4353"/>
</g>
</g>
</svg>
