<?xml version="1.0" encoding="UTF-8" standalone="no"?>
<!DOCTYPE svg PUBLIC "-//W3C//DTD SVG 1.1//EN"
 "http://www.w3.org/Graphics/SVG/1.1/DTD/svg11.dtd">
<!-- Generated by graphviz version 2.38.0 (20140413.2041)
 -->
<!-- Title: mvn_cdf.h Pages: 1 -->
<svg width="221pt" height="147pt"
 viewBox="0.00 0.00 220.50 147.00" xmlns="http://www.w3.org/2000/svg" xmlns:xlink="http://www.w3.org/1999/xlink">
<g id="graph0" class="graph" transform="scale(1 1) rotate(0) translate(4 143)">
<title>mvn_cdf.h</title>
<polygon fill="white" stroke="none" points="-4,4 -4,-143 216.5,-143 216.5,4 -4,4"/>
<!-- Node1 -->
<g id="node1" class="node"><title>Node1</title>
<polygon fill="#bfbfbf" stroke="black" points="59.5,-120.5 59.5,-138.5 118.5,-138.5 118.5,-120.5 59.5,-120.5"/>
<text text-anchor="middle" x="89" y="-127.3" font-family="Helvetica,sans-Serif" font-size="9.00">mvn_cdf.h</text>
</g>
<!-- Node2 -->
<g id="node2" class="node"><title>Node2</title>
<g id="a_node2"><a xlink:href="mvn__cdf_8cpp.html" target="_top" xlink:title="NormalDist class defintion. ">
<polygon fill="white" stroke="black" points="0,-65.5 0,-83.5 68,-83.5 68,-65.5 0,-65.5"/>
<text text-anchor="middle" x="34" y="-72.3" font-family="Helvetica,sans-Serif" font-size="9.00">mvn_cdf.cpp</text>
</a>
</g>
</g>
<!-- Node1&#45;&gt;Node2 -->
<g id="edge1" class="edge"><title>Node1&#45;&gt;Node2</title>
<path fill="none" stroke="midnightblue" d="M73.0294,-113.11C62.9983,-103.444 50.468,-91.3692 42.3533,-83.5496"/>
<polygon fill="midnightblue" stroke="midnightblue" points="70.7768,-115.8 80.4062,-120.219 75.6341,-110.76 70.7768,-115.8"/>
</g>
<!-- Node3 -->
<g id="node3" class="node"><title>Node3</title>
<g id="a_node3"><a xlink:href="MultivariateNormalDist_8h.html" target="_top" xlink:title="MultivariateNormalDist base class. ">
<polygon fill="white" stroke="black" points="86.5,-65.5 86.5,-83.5 203.5,-83.5 203.5,-65.5 86.5,-65.5"/>
<text text-anchor="middle" x="145" y="-72.3" font-family="Helvetica,sans-Serif" font-size="9.00">MultivariateNormalDist.h</text>
</a>
</g>
</g>
<!-- Node1&#45;&gt;Node3 -->
<g id="edge2" class="edge"><title>Node1&#45;&gt;Node3</title>
<path fill="none" stroke="midnightblue" d="M105.261,-113.11C115.474,-103.444 128.233,-91.3692 136.495,-83.5496"/>
<polygon fill="midnightblue" stroke="midnightblue" points="102.607,-110.803 97.75,-120.219 107.419,-115.887 102.607,-110.803"/>
</g>
<!-- Node4 -->
<g id="node4" class="node"><title>Node4</title>
<g id="a_node4"><a xlink:href="TruncatedMultivariateNormalDist_8h.html" target="_top" xlink:title="TruncatedMultivariateNormalDist class declaration. ">
<polygon fill="white" stroke="black" points="77.5,-0.5 77.5,-28.5 212.5,-28.5 212.5,-0.5 77.5,-0.5"/>
<text text-anchor="start" x="85.5" y="-17.3" font-family="Helvetica,sans-Serif" font-size="9.00">TruncatedMultivariateNormal</text>
<text text-anchor="middle" x="145" y="-7.3" font-family="Helvetica,sans-Serif" font-size="9.00">Dist.h</text>
</a>
</g>
</g>
<!-- Node3&#45;&gt;Node4 -->
<g id="edge3" class="edge"><title>Node3&#45;&gt;Node4</title>
<path fill="none" stroke="midnightblue" d="M145,-55.3209C145,-46.747 145,-36.6999 145,-28.8428"/>
<polygon fill="midnightblue" stroke="midnightblue" points="141.5,-55.4353 145,-65.4353 148.5,-55.4354 141.5,-55.4353"/>
</g>
</g>
</svg>
