<?xml version="1.0" encoding="UTF-8" standalone="no"?>
<!DOCTYPE svg PUBLIC "-//W3C//DTD SVG 1.1//EN"
 "http://www.w3.org/Graphics/SVG/1.1/DTD/svg11.dtd">
<!-- Generated by graphviz version 2.38.0 (20140413.2041)
 -->
<!-- Title: mvn_cdf.cpp Pages: 1 -->
<svg width="720pt" height="257pt"
 viewBox="0.00 0.00 719.50 257.00" xmlns="http://www.w3.org/2000/svg" xmlns:xlink="http://www.w3.org/1999/xlink">
<g id="graph0" class="graph" transform="scale(1 1) rotate(0) translate(4 253)">
<title>mvn_cdf.cpp</title>
<polygon fill="white" stroke="none" points="-4,4 -4,-253 715.5,-253 715.5,4 -4,4"/>
<!-- Node1 -->
<g id="node1" class="node"><title>Node1</title>
<polygon fill="#bfbfbf" stroke="black" points="402,-230.5 402,-248.5 470,-248.5 470,-230.5 402,-230.5"/>
<text text-anchor="middle" x="436" y="-237.3" font-family="Helvetica,sans-Serif" font-size="9.00">mvn_cdf.cpp</text>
</g>
<!-- Node2 -->
<g id="node2" class="node"><title>Node2</title>
<g id="a_node2"><a xlink:href="mvn__cdf_8h.html" target="_top" xlink:title="Numerical computation of multivariate normal cdfs in 2,3 and higher dims. ">
<polygon fill="white" stroke="black" points="189,-170.5 189,-188.5 303,-188.5 303,-170.5 189,-170.5"/>
<text text-anchor="middle" x="246" y="-177.3" font-family="Helvetica,sans-Serif" font-size="9.00">PriorHessian/mvn_cdf.h</text>
</a>
</g>
</g>
<!-- Node1&#45;&gt;Node2 -->
<g id="edge1" class="edge"><title>Node1&#45;&gt;Node2</title>
<path fill="none" stroke="midnightblue" d="M409.581,-230.435C376.494,-220.335 319.641,-202.98 282.436,-191.623"/>
<polygon fill="midnightblue" stroke="midnightblue" points="283.086,-188.162 272.5,-188.589 281.042,-194.857 283.086,-188.162"/>
</g>
<!-- Node5 -->
<g id="node5" class="node"><title>Node5</title>
<polygon fill="white" stroke="#bfbfbf" points="354.5,-55.5 354.5,-73.5 395.5,-73.5 395.5,-55.5 354.5,-55.5"/>
<text text-anchor="middle" x="375" y="-62.3" font-family="Helvetica,sans-Serif" font-size="9.00">cmath</text>
</g>
<!-- Node1&#45;&gt;Node5 -->
<g id="edge15" class="edge"><title>Node1&#45;&gt;Node5</title>
<path fill="none" stroke="midnightblue" d="M433.058,-230.156C423.697,-203.609 394.457,-120.683 381.404,-83.6624"/>
<polygon fill="midnightblue" stroke="midnightblue" points="384.539,-82.0274 377.913,-73.7604 377.937,-84.3552 384.539,-82.0274"/>
</g>
<!-- Node10 -->
<g id="node10" class="node"><title>Node10</title>
<polygon fill="white" stroke="#bfbfbf" points="413.5,-55.5 413.5,-73.5 468.5,-73.5 468.5,-55.5 413.5,-55.5"/>
<text text-anchor="middle" x="441" y="-62.3" font-family="Helvetica,sans-Serif" font-size="9.00">armadillo</text>
</g>
<!-- Node1&#45;&gt;Node10 -->
<g id="edge17" class="edge"><title>Node1&#45;&gt;Node10</title>
<path fill="none" stroke="midnightblue" d="M435.042,-230.313C434.051,-221.397 432.57,-206.708 432,-194 430.235,-154.655 435.158,-108.631 438.402,-83.7374"/>
<polygon fill="midnightblue" stroke="midnightblue" points="441.9,-83.9918 439.784,-73.6104 434.964,-83.0453 441.9,-83.9918"/>
</g>
<!-- Node13 -->
<g id="node13" class="node"><title>Node13</title>
<polygon fill="white" stroke="#bfbfbf" points="441,-170.5 441,-188.5 479,-188.5 479,-170.5 441,-170.5"/>
<text text-anchor="middle" x="460" y="-177.3" font-family="Helvetica,sans-Serif" font-size="9.00">limits</text>
</g>
<!-- Node1&#45;&gt;Node13 -->
<g id="edge16" class="edge"><title>Node1&#45;&gt;Node13</title>
<path fill="none" stroke="midnightblue" d="M439.337,-230.435C442.773,-222.132 448.237,-208.927 452.684,-198.181"/>
<polygon fill="midnightblue" stroke="midnightblue" points="455.946,-199.45 456.536,-188.872 449.478,-196.774 455.946,-199.45"/>
</g>
<!-- Node14 -->
<g id="node14" class="node"><title>Node14</title>
<polygon fill="white" stroke="#bfbfbf" points="497.5,-165.5 497.5,-193.5 590.5,-193.5 590.5,-165.5 497.5,-165.5"/>
<text text-anchor="start" x="505.5" y="-182.3" font-family="Helvetica,sans-Serif" font-size="9.00">boost/math/special</text>
<text text-anchor="middle" x="544" y="-172.3" font-family="Helvetica,sans-Serif" font-size="9.00">_functions/erf.hpp</text>
</g>
<!-- Node1&#45;&gt;Node14 -->
<g id="edge18" class="edge"><title>Node1&#45;&gt;Node14</title>
<path fill="none" stroke="midnightblue" d="M451.017,-230.435C466.328,-222.213 490.592,-209.182 510.494,-198.494"/>
<polygon fill="midnightblue" stroke="midnightblue" points="512.415,-201.435 519.569,-193.62 509.103,-195.268 512.415,-201.435"/>
</g>
<!-- Node15 -->
<g id="node15" class="node"><title>Node15</title>
<polygon fill="white" stroke="#bfbfbf" points="608.5,-165.5 608.5,-193.5 711.5,-193.5 711.5,-165.5 608.5,-165.5"/>
<text text-anchor="start" x="616.5" y="-182.3" font-family="Helvetica,sans-Serif" font-size="9.00">boost/math/constants</text>
<text text-anchor="middle" x="660" y="-172.3" font-family="Helvetica,sans-Serif" font-size="9.00">/constants.hpp</text>
</g>
<!-- Node1&#45;&gt;Node15 -->
<g id="edge19" class="edge"><title>Node1&#45;&gt;Node15</title>
<path fill="none" stroke="midnightblue" d="M467.146,-230.435C501.385,-221.57 557.209,-207.116 600.008,-196.034"/>
<polygon fill="midnightblue" stroke="midnightblue" points="600.953,-199.405 609.756,-193.51 599.198,-192.628 600.953,-199.405"/>
</g>
<!-- Node3 -->
<g id="node3" class="node"><title>Node3</title>
<polygon fill="white" stroke="#bfbfbf" points="132,-110.5 132,-128.5 182,-128.5 182,-110.5 132,-110.5"/>
<text text-anchor="middle" x="157" y="-117.3" font-family="Helvetica,sans-Serif" font-size="9.00">iomanip</text>
</g>
<!-- Node2&#45;&gt;Node3 -->
<g id="edge2" class="edge"><title>Node2&#45;&gt;Node3</title>
<path fill="none" stroke="midnightblue" d="M233.625,-170.435C219.359,-161.138 195.66,-145.694 178.39,-134.439"/>
<polygon fill="midnightblue" stroke="midnightblue" points="179.846,-131.211 169.557,-128.683 176.024,-137.075 179.846,-131.211"/>
</g>
<!-- Node4 -->
<g id="node4" class="node"><title>Node4</title>
<polygon fill="white" stroke="#bfbfbf" points="0,-55.5 0,-73.5 48,-73.5 48,-55.5 0,-55.5"/>
<text text-anchor="middle" x="24" y="-62.3" font-family="Helvetica,sans-Serif" font-size="9.00">random</text>
</g>
<!-- Node2&#45;&gt;Node4 -->
<g id="edge3" class="edge"><title>Node2&#45;&gt;Node4</title>
<path fill="none" stroke="midnightblue" d="M222.296,-170.461C197.09,-161.571 156.341,-146.208 123,-129 94.1778,-114.124 63.008,-93.2613 43.5005,-79.5683"/>
<polygon fill="midnightblue" stroke="midnightblue" points="45.3464,-76.5865 35.1653,-73.6543 41.2957,-82.2955 45.3464,-76.5865"/>
</g>
<!-- Node2&#45;&gt;Node5 -->
<g id="edge4" class="edge"><title>Node2&#45;&gt;Node5</title>
<path fill="none" stroke="midnightblue" d="M255.277,-170.373C276.847,-151.479 330.626,-104.37 358.167,-80.2454"/>
<polygon fill="midnightblue" stroke="midnightblue" points="360.591,-82.775 365.807,-73.553 355.978,-77.5095 360.591,-82.775"/>
</g>
<!-- Node6 -->
<g id="node6" class="node"><title>Node6</title>
<g id="a_node6"><a xlink:href="util_8h.html" target="_top" xlink:title="Utilities and namespace globals. ">
<polygon fill="white" stroke="black" points="200,-110.5 200,-128.5 292,-128.5 292,-110.5 200,-110.5"/>
<text text-anchor="middle" x="246" y="-117.3" font-family="Helvetica,sans-Serif" font-size="9.00">PriorHessian/util.h</text>
</a>
</g>
</g>
<!-- Node2&#45;&gt;Node6 -->
<g id="edge5" class="edge"><title>Node2&#45;&gt;Node6</title>
<path fill="none" stroke="midnightblue" d="M246,-170.435C246,-162.389 246,-149.739 246,-139.185"/>
<polygon fill="midnightblue" stroke="midnightblue" points="249.5,-138.872 246,-128.872 242.5,-138.872 249.5,-138.872"/>
</g>
<!-- Node6&#45;&gt;Node4 -->
<g id="edge8" class="edge"><title>Node6&#45;&gt;Node4</title>
<path fill="none" stroke="midnightblue" d="M212.283,-110.45C170.486,-100.472 99.6648,-83.5641 57.8199,-73.5741"/>
<polygon fill="midnightblue" stroke="midnightblue" points="58.6322,-70.1698 48.0928,-71.2519 57.0066,-76.9784 58.6322,-70.1698"/>
</g>
<!-- Node6&#45;&gt;Node5 -->
<g id="edge6" class="edge"><title>Node6&#45;&gt;Node5</title>
<path fill="none" stroke="midnightblue" d="M265.592,-110.45C286.902,-101.695 321.196,-87.6055 345.708,-77.5346"/>
<polygon fill="midnightblue" stroke="midnightblue" points="347.304,-80.6631 355.223,-73.6253 344.643,-74.1882 347.304,-80.6631"/>
</g>
<!-- Node7 -->
<g id="node7" class="node"><title>Node7</title>
<polygon fill="white" stroke="#bfbfbf" points="62.5,-0.5 62.5,-18.5 101.5,-18.5 101.5,-0.5 62.5,-0.5"/>
<text text-anchor="middle" x="82" y="-7.3" font-family="Helvetica,sans-Serif" font-size="9.00">string</text>
</g>
<!-- Node6&#45;&gt;Node7 -->
<g id="edge7" class="edge"><title>Node6&#45;&gt;Node7</title>
<path fill="none" stroke="midnightblue" d="M200.726,-110.469C161.663,-102.621 109.33,-89.5974 95,-74 83.937,-61.9585 81.2447,-43.1274 80.9848,-29.0945"/>
<polygon fill="midnightblue" stroke="midnightblue" points="84.4926,-28.7625 81.2081,-18.6897 77.4942,-28.6122 84.4926,-28.7625"/>
</g>
<!-- Node8 -->
<g id="node8" class="node"><title>Node8</title>
<polygon fill="white" stroke="#bfbfbf" points="220.5,-55.5 220.5,-73.5 261.5,-73.5 261.5,-55.5 220.5,-55.5"/>
<text text-anchor="middle" x="241" y="-62.3" font-family="Helvetica,sans-Serif" font-size="9.00">vector</text>
</g>
<!-- Node6&#45;&gt;Node8 -->
<g id="edge9" class="edge"><title>Node6&#45;&gt;Node8</title>
<path fill="none" stroke="midnightblue" d="M245.219,-110.219C244.547,-103.099 243.554,-92.5775 242.701,-83.5289"/>
<polygon fill="midnightblue" stroke="midnightblue" points="246.183,-83.1766 241.759,-73.5496 239.214,-83.8341 246.183,-83.1766"/>
</g>
<!-- Node9 -->
<g id="node9" class="node"><title>Node9</title>
<polygon fill="white" stroke="#bfbfbf" points="280,-55.5 280,-73.5 336,-73.5 336,-55.5 280,-55.5"/>
<text text-anchor="middle" x="308" y="-62.3" font-family="Helvetica,sans-Serif" font-size="9.00">typeindex</text>
</g>
<!-- Node6&#45;&gt;Node9 -->
<g id="edge10" class="edge"><title>Node6&#45;&gt;Node9</title>
<path fill="none" stroke="midnightblue" d="M255.416,-110.45C264.794,-102.434 279.402,-89.9471 290.843,-80.1663"/>
<polygon fill="midnightblue" stroke="midnightblue" points="293.168,-82.7836 298.495,-73.6253 288.619,-77.4627 293.168,-82.7836"/>
</g>
<!-- Node6&#45;&gt;Node10 -->
<g id="edge11" class="edge"><title>Node6&#45;&gt;Node10</title>
<path fill="none" stroke="midnightblue" d="M275.616,-110.45C309.8,-101.16 366.083,-85.862 403.347,-75.734"/>
<polygon fill="midnightblue" stroke="midnightblue" points="404.586,-79.0241 413.318,-73.0237 402.75,-72.2691 404.586,-79.0241"/>
</g>
<!-- Node11 -->
<g id="node11" class="node"><title>Node11</title>
<g id="a_node11"><a xlink:href="PriorHessianError_8h.html" target="_top" xlink:title="The Exception classes for the PriorHessian library. ">
<polygon fill="white" stroke="black" points="104,-55.5 104,-73.5 202,-73.5 202,-55.5 104,-55.5"/>
<text text-anchor="middle" x="153" y="-62.3" font-family="Helvetica,sans-Serif" font-size="9.00">PriorHessianError.h</text>
</a>
</g>
</g>
<!-- Node6&#45;&gt;Node11 -->
<g id="edge12" class="edge"><title>Node6&#45;&gt;Node11</title>
<path fill="none" stroke="midnightblue" d="M231.875,-110.45C217.127,-102.045 193.752,-88.7241 176.271,-78.7618"/>
<polygon fill="midnightblue" stroke="midnightblue" points="177.679,-75.5358 167.258,-73.6253 174.213,-81.6176 177.679,-75.5358"/>
</g>
<!-- Node11&#45;&gt;Node7 -->
<g id="edge14" class="edge"><title>Node11&#45;&gt;Node7</title>
<path fill="none" stroke="midnightblue" d="M142.217,-55.4504C131.374,-47.3566 114.424,-34.7042 101.267,-24.8822"/>
<polygon fill="midnightblue" stroke="midnightblue" points="102.992,-21.8025 92.8849,-18.6253 98.8047,-27.412 102.992,-21.8025"/>
</g>
<!-- Node12 -->
<g id="node12" class="node"><title>Node12</title>
<polygon fill="white" stroke="#bfbfbf" points="125,-0.5 125,-18.5 181,-18.5 181,-0.5 125,-0.5"/>
<text text-anchor="middle" x="153" y="-7.3" font-family="Helvetica,sans-Serif" font-size="9.00">exception</text>
</g>
<!-- Node11&#45;&gt;Node12 -->
<g id="edge13" class="edge"><title>Node11&#45;&gt;Node12</title>
<path fill="none" stroke="midnightblue" d="M153,-55.2188C153,-48.1769 153,-37.8083 153,-28.8277"/>
<polygon fill="midnightblue" stroke="midnightblue" points="156.5,-28.5495 153,-18.5496 149.5,-28.5496 156.5,-28.5495"/>
</g>
</g>
</svg>
