<?xml version="1.0" encoding="UTF-8" standalone="no"?>
<!DOCTYPE svg PUBLIC "-//W3C//DTD SVG 1.1//EN"
 "http://www.w3.org/Graphics/SVG/1.1/DTD/svg11.dtd">
<!-- Generated by graphviz version 2.38.0 (20140413.2041)
 -->
<!-- Title: prior_hessian::square Pages: 1 -->
<!--zoomable 452 -->
<svg id="main" version="1.1" xmlns="http://www.w3.org/2000/svg" xmlns:xlink="http://www.w3.org/1999/xlink" xml:space="preserve" onload="init(evt)">
<style type="text/css"><![CDATA[
.edge:hover path { stroke: red; }
.edge:hover polygon { stroke: red; fill: red; }
]]></style>
<script type="text/javascript"><![CDATA[
var edges = document.getElementsByTagName('g');
if (edges && edges.length) {
  for (var i=0;i<edges.length;i++) {
    if (edges[i].id.substr(0,4)=='edge') {
      edges[i].setAttribute('class','edge');
    }
  }
}
]]></script>
        <defs>
                <circle id="rim" cx="0" cy="0" r="7"/>
                <circle id="rim2" cx="0" cy="0" r="3.5"/>
                <g id="zoomPlus">
                        <use xlink:href="#rim" fill="#404040">
                                <set attributeName="fill" to="#808080" begin="zoomplus.mouseover" end="zoomplus.mouseout"/>
                        </use>
                        <path d="M-4,0h8M0,-4v8" fill="none" stroke="white" stroke-width="1.5" pointer-events="none"/>
                </g>
                <g id="zoomMin">
                        <use xlink:href="#rim" fill="#404040">
                                <set attributeName="fill" to="#808080" begin="zoomminus.mouseover" end="zoomminus.mouseout"/>
                        </use>
                        <path d="M-4,0h8" fill="none" stroke="white" stroke-width="1.5" pointer-events="none"/>
                </g>
                <g id="dirArrow">
                        <path fill="none" stroke="white" stroke-width="1.5" d="M0,-3.0v7 M-2.5,-0.5L0,-3.0L2.5,-0.5"/>
                </g>
               <g id="resetDef">
                       <use xlink:href="#rim2" fill="#404040">
                               <set attributeName="fill" to="#808080" begin="reset.mouseover" end="reset.mouseout"/>
                       </use>
               </g>
        </defs>

<script type="text/javascript">
var viewWidth = 949;
var viewHeight = 452;
var sectionId = 'dynsection-24';
</script>
<script xlink:href="svgpan.js"/>
<svg id="graph" class="graph">
<g id="viewport">
<title>prior_hessian::square</title>
<polygon fill="white" stroke="none" points="-4,4 -4,-448.132 945,-448.132 945,4 -4,4"/>
<!-- Node1 -->
<g id="node1" class="node"><title>Node1</title>
<polygon fill="#bfbfbf" stroke="black" points="0,-199.632 0,-217.632 106,-217.632 106,-199.632 0,-199.632"/>
<text text-anchor="middle" x="53" y="-206.432" font-family="Helvetica,sans-Serif" font-size="9.00">prior_hessian::square</text>
</g>
<!-- Node2 -->
<g id="node2" class="node"><title>Node2</title>
<g id="a_node2"><a xlink:href="namespaceprior__hessian_1_1helpers.html#a5d1bbe705c849e9c225a831c853be8a7" target="_top" xlink:title="prior_hessian::helpers\l::compute_quadratic_from\l_symmetric">
<polygon fill="white" stroke="black" points="150.5,-403.632 150.5,-441.632 273.5,-441.632 273.5,-403.632 150.5,-403.632"/>
<text text-anchor="start" x="158.5" y="-430.432" font-family="Helvetica,sans-Serif" font-size="9.00">prior_hessian::helpers</text>
<text text-anchor="start" x="158.5" y="-420.432" font-family="Helvetica,sans-Serif" font-size="9.00">::compute_quadratic_from</text>
<text text-anchor="middle" x="212" y="-410.432" font-family="Helvetica,sans-Serif" font-size="9.00">_symmetric</text>
</a>
</g>
</g>
<!-- Node1&#45;&gt;Node2 -->
<g id="edge1" class="edge"><title>Node1&#45;&gt;Node2</title>
<path fill="none" stroke="midnightblue" d="M59.265,-227.805C69.7611,-262.973 96.3006,-338.502 142,-385.632 148.718,-392.561 157.017,-398.492 165.504,-403.446"/>
<polygon fill="midnightblue" stroke="midnightblue" points="62.5422,-226.537 56.4169,-217.892 55.8144,-228.47 62.5422,-226.537"/>
</g>
<!-- Node7 -->
<g id="node7" class="node"><title>Node7</title>
<g id="a_node7"><a xlink:href="classprior__hessian_1_1NormalDist.html#a5ea017ef0f5cd34304248c399b4136f3" target="_top" xlink:title="prior_hessian::NormalDist\l::grad">
<polygon fill="white" stroke="black" points="325,-149.632 325,-177.632 448,-177.632 448,-149.632 325,-149.632"/>
<text text-anchor="start" x="333" y="-166.432" font-family="Helvetica,sans-Serif" font-size="9.00">prior_hessian::NormalDist</text>
<text text-anchor="middle" x="386.5" y="-156.432" font-family="Helvetica,sans-Serif" font-size="9.00">::grad</text>
</a>
</g>
</g>
<!-- Node1&#45;&gt;Node7 -->
<g id="edge8" class="edge"><title>Node1&#45;&gt;Node7</title>
<path fill="none" stroke="midnightblue" d="M116.223,-200.186C175.995,-192.072 265.724,-179.891 324.935,-171.854"/>
<polygon fill="midnightblue" stroke="midnightblue" points="115.6,-196.738 106.162,-201.551 116.541,-203.674 115.6,-196.738"/>
</g>
<!-- Node9 -->
<g id="node9" class="node"><title>Node9</title>
<g id="a_node9"><a xlink:href="classprior__hessian_1_1SymmetricBetaDist.html#a66a2fb38407bc9592fd30eaceb6581b6" target="_top" xlink:title="prior_hessian::Symmetric\lBetaDist::grad2">
<polygon fill="white" stroke="black" points="152,-348.632 152,-376.632 272,-376.632 272,-348.632 152,-348.632"/>
<text text-anchor="start" x="160" y="-365.432" font-family="Helvetica,sans-Serif" font-size="9.00">prior_hessian::Symmetric</text>
<text text-anchor="middle" x="212" y="-355.432" font-family="Helvetica,sans-Serif" font-size="9.00">BetaDist::grad2</text>
</a>
</g>
</g>
<!-- Node1&#45;&gt;Node9 -->
<g id="edge10" class="edge"><title>Node1&#45;&gt;Node9</title>
<path fill="none" stroke="midnightblue" d="M64.8499,-226.45C79.9636,-250.238 109.216,-292.725 142,-321.632 153.915,-332.138 168.901,-341.418 181.86,-348.48"/>
<polygon fill="midnightblue" stroke="midnightblue" points="67.6967,-224.4 59.4358,-217.767 61.7568,-228.104 67.6967,-224.4"/>
</g>
<!-- Node11 -->
<g id="node11" class="node"><title>Node11</title>
<g id="a_node11"><a xlink:href="classprior__hessian_1_1NormalDist.html#ab346dd5512cd0ff79d3a8b9e63618126" target="_top" xlink:title="prior_hessian::NormalDist\l::grad2">
<polygon fill="white" stroke="black" points="325,-102.632 325,-130.632 448,-130.632 448,-102.632 325,-102.632"/>
<text text-anchor="start" x="333" y="-119.432" font-family="Helvetica,sans-Serif" font-size="9.00">prior_hessian::NormalDist</text>
<text text-anchor="middle" x="386.5" y="-109.432" font-family="Helvetica,sans-Serif" font-size="9.00">::grad2</text>
</a>
</g>
</g>
<!-- Node1&#45;&gt;Node11 -->
<g id="edge12" class="edge"><title>Node1&#45;&gt;Node11</title>
<path fill="none" stroke="midnightblue" d="M84.3679,-195.734C101.163,-188.897 122.519,-180.685 142,-174.632 203.42,-155.548 275.207,-139.144 324.847,-128.701"/>
<polygon fill="midnightblue" stroke="midnightblue" points="82.966,-192.526 75.0551,-199.573 85.6343,-198.997 82.966,-192.526"/>
</g>
<!-- Node12 -->
<g id="node12" class="node"><title>Node12</title>
<g id="a_node12"><a xlink:href="classprior__hessian_1_1AMHCopula.html#af87cadcd28d6af3fa8249932f7d01ec7" target="_top" xlink:title="prior_hessian::AMHCopula\l::grad2">
<polygon fill="white" stroke="black" points="148,-284.632 148,-312.632 276,-312.632 276,-284.632 148,-284.632"/>
<text text-anchor="start" x="156" y="-301.432" font-family="Helvetica,sans-Serif" font-size="9.00">prior_hessian::AMHCopula</text>
<text text-anchor="middle" x="212" y="-291.432" font-family="Helvetica,sans-Serif" font-size="9.00">::grad2</text>
</a>
</g>
</g>
<!-- Node1&#45;&gt;Node12 -->
<g id="edge14" class="edge"><title>Node1&#45;&gt;Node12</title>
<path fill="none" stroke="midnightblue" d="M71.808,-224.615C88.8332,-239.233 115.729,-260.649 142,-274.632 148.942,-278.327 156.568,-281.64 164.14,-284.539"/>
<polygon fill="midnightblue" stroke="midnightblue" points="73.6923,-221.614 63.8603,-217.666 69.0846,-226.883 73.6923,-221.614"/>
</g>
<!-- Node15 -->
<g id="node15" class="node"><title>Node15</title>
<g id="a_node15"><a xlink:href="classprior__hessian_1_1NormalDist.html#a8c28e95235a2def2e86c299e4ebe8afb" target="_top" xlink:title="prior_hessian::NormalDist\l::grad_grad2_accumulate">
<polygon fill="white" stroke="black" points="325,-196.632 325,-224.632 448,-224.632 448,-196.632 325,-196.632"/>
<text text-anchor="start" x="333" y="-213.432" font-family="Helvetica,sans-Serif" font-size="9.00">prior_hessian::NormalDist</text>
<text text-anchor="middle" x="386.5" y="-203.432" font-family="Helvetica,sans-Serif" font-size="9.00">::grad_grad2_accumulate</text>
</a>
</g>
</g>
<!-- Node1&#45;&gt;Node15 -->
<g id="edge18" class="edge"><title>Node1&#45;&gt;Node15</title>
<path fill="none" stroke="midnightblue" d="M116.223,-209.008C175.995,-209.368 265.724,-209.91 324.935,-210.267"/>
<polygon fill="midnightblue" stroke="midnightblue" points="116.183,-205.507 106.162,-208.947 116.14,-212.507 116.183,-205.507"/>
</g>
<!-- Node16 -->
<g id="node16" class="node"><title>Node16</title>
<g id="a_node16"><a xlink:href="classprior__hessian_1_1AMHCopula.html#a324c075c80fb95ed8b69bd601e6a4de6" target="_top" xlink:title="prior_hessian::AMHCopula\l::hess">
<polygon fill="white" stroke="black" points="148,-237.632 148,-265.632 276,-265.632 276,-237.632 148,-237.632"/>
<text text-anchor="start" x="156" y="-254.432" font-family="Helvetica,sans-Serif" font-size="9.00">prior_hessian::AMHCopula</text>
<text text-anchor="middle" x="212" y="-244.432" font-family="Helvetica,sans-Serif" font-size="9.00">::hess</text>
</a>
</g>
</g>
<!-- Node1&#45;&gt;Node16 -->
<g id="edge20" class="edge"><title>Node1&#45;&gt;Node16</title>
<path fill="none" stroke="midnightblue" d="M96.6896,-220.324C116.1,-225.64 139.229,-231.975 159.587,-237.551"/>
<polygon fill="midnightblue" stroke="midnightblue" points="97.4817,-216.912 86.9123,-217.646 95.6326,-223.664 97.4817,-216.912"/>
</g>
<!-- Node17 -->
<g id="node17" class="node"><title>Node17</title>
<g id="a_node17"><a xlink:href="classprior__hessian_1_1NormalDist.html#aaa9f65a188d99f432558ae6545e9c060" target="_top" xlink:title="prior_hessian::NormalDist::pdf">
<polygon fill="white" stroke="black" points="142,-5.63214 142,-23.6321 282,-23.6321 282,-5.63214 142,-5.63214"/>
<text text-anchor="middle" x="212" y="-12.4321" font-family="Helvetica,sans-Serif" font-size="9.00">prior_hessian::NormalDist::pdf</text>
</a>
</g>
</g>
<!-- Node1&#45;&gt;Node17 -->
<g id="edge22" class="edge"><title>Node1&#45;&gt;Node17</title>
<path fill="none" stroke="midnightblue" d="M60.1686,-189.999C71.6655,-157.733 99.1567,-90.9575 142,-49.6321 153.988,-38.0689 170.551,-29.4959 184.445,-23.7293"/>
<polygon fill="midnightblue" stroke="midnightblue" points="56.8327,-188.937 56.8838,-199.531 63.4508,-191.217 56.8327,-188.937"/>
</g>
<!-- Node18 -->
<g id="node18" class="node"><title>Node18</title>
<g id="a_node18"><a xlink:href="classprior__hessian_1_1NormalDist.html#ab03d24df91ee8865e77ee8322151099f" target="_top" xlink:title="prior_hessian::NormalDist\l::rllh">
<polygon fill="white" stroke="black" points="150.5,-59.6321 150.5,-87.6321 273.5,-87.6321 273.5,-59.6321 150.5,-59.6321"/>
<text text-anchor="start" x="158.5" y="-76.4321" font-family="Helvetica,sans-Serif" font-size="9.00">prior_hessian::NormalDist</text>
<text text-anchor="middle" x="212" y="-66.4321" font-family="Helvetica,sans-Serif" font-size="9.00">::rllh</text>
</a>
</g>
</g>
<!-- Node1&#45;&gt;Node18 -->
<g id="edge24" class="edge"><title>Node1&#45;&gt;Node18</title>
<path fill="none" stroke="midnightblue" d="M66.2703,-191.323C81.9785,-170.077 110.905,-133.891 142,-109.632 152.973,-101.072 166.286,-93.5721 178.279,-87.6654"/>
<polygon fill="midnightblue" stroke="midnightblue" points="63.4233,-189.287 60.3797,-199.435 69.0876,-193.4 63.4233,-189.287"/>
</g>
<!-- Node3 -->
<g id="node3" class="node"><title>Node3</title>
<g id="a_node3"><a xlink:href="classprior__hessian_1_1MultivariateNormalDist.html#a4512a641c493e33dfb93b5087e473c76" target="_top" xlink:title="prior_hessian::Multivariate\lNormalDist::rllh">
<polygon fill="white" stroke="black" points="324,-415.632 324,-443.632 449,-443.632 449,-415.632 324,-415.632"/>
<text text-anchor="start" x="332" y="-432.432" font-family="Helvetica,sans-Serif" font-size="9.00">prior_hessian::Multivariate</text>
<text text-anchor="middle" x="386.5" y="-422.432" font-family="Helvetica,sans-Serif" font-size="9.00">NormalDist::rllh</text>
</a>
</g>
</g>
<!-- Node2&#45;&gt;Node3 -->
<g id="edge2" class="edge"><title>Node2&#45;&gt;Node3</title>
<path fill="none" stroke="midnightblue" d="M283.829,-425.506C297.079,-426.044 310.83,-426.602 323.776,-427.127"/>
<polygon fill="midnightblue" stroke="midnightblue" points="283.951,-422.009 273.817,-425.1 283.667,-429.003 283.951,-422.009"/>
</g>
<!-- Node4 -->
<g id="node4" class="node"><title>Node4</title>
<g id="a_node4"><a xlink:href="classprior__hessian_1_1MultivariateNormalDist.html#afdec8e6a453a2c69e0d84833d6b3e5ae" target="_top" xlink:title="prior_hessian::Multivariate\lNormalDist::mode">
<polygon fill="white" stroke="black" points="816,-393.632 816,-421.632 941,-421.632 941,-393.632 816,-393.632"/>
<text text-anchor="start" x="824" y="-410.432" font-family="Helvetica,sans-Serif" font-size="9.00">prior_hessian::Multivariate</text>
<text text-anchor="middle" x="878.5" y="-400.432" font-family="Helvetica,sans-Serif" font-size="9.00">NormalDist::mode</text>
</a>
</g>
</g>
<!-- Node3&#45;&gt;Node4 -->
<g id="edge3" class="edge"><title>Node3&#45;&gt;Node4</title>
<path fill="none" stroke="midnightblue" d="M459.621,-435.4C538.592,-440.46 668.807,-445.116 780,-431.632 796.613,-429.617 814.478,-425.739 830.318,-421.677"/>
<polygon fill="midnightblue" stroke="midnightblue" points="459.51,-431.885 449.301,-434.717 459.048,-438.87 459.51,-431.885"/>
</g>
<!-- Node5 -->
<g id="node5" class="node"><title>Node5</title>
<g id="a_node5"><a xlink:href="classprior__hessian_1_1MultivariateNormalDist.html#a3540b1bcafd58fe26de858c0a4aef3db" target="_top" xlink:title="prior_hessian::Multivariate\lNormalDist::llh">
<polygon fill="white" stroke="black" points="492.5,-393.632 492.5,-421.632 617.5,-421.632 617.5,-393.632 492.5,-393.632"/>
<text text-anchor="start" x="500.5" y="-410.432" font-family="Helvetica,sans-Serif" font-size="9.00">prior_hessian::Multivariate</text>
<text text-anchor="middle" x="555" y="-400.432" font-family="Helvetica,sans-Serif" font-size="9.00">NormalDist::llh</text>
</a>
</g>
</g>
<!-- Node3&#45;&gt;Node5 -->
<g id="edge4" class="edge"><title>Node3&#45;&gt;Node5</title>
<path fill="none" stroke="midnightblue" d="M459.117,-420.169C470.216,-418.703 481.597,-417.199 492.45,-415.765"/>
<polygon fill="midnightblue" stroke="midnightblue" points="458.481,-416.723 449.025,-421.503 459.398,-423.662 458.481,-416.723"/>
</g>
<!-- Node5&#45;&gt;Node4 -->
<g id="edge5" class="edge"><title>Node5&#45;&gt;Node4</title>
<path fill="none" stroke="midnightblue" d="M616.245,-391.332C628.951,-388.545 642.343,-386.083 655,-384.632 710.194,-378.305 724.817,-378.211 780,-384.632 795.807,-386.471 812.77,-389.934 828.043,-393.625"/>
<polygon fill="midnightblue" stroke="midnightblue" points="615.197,-387.982 606.229,-393.624 616.758,-394.805 615.197,-387.982"/>
</g>
<!-- Node6 -->
<g id="node6" class="node"><title>Node6</title>
<g id="a_node6"><a xlink:href="classprior__hessian_1_1MultivariateNormalDist.html#a67cba536341528564330b17dcbe5faff" target="_top" xlink:title="prior_hessian::Multivariate\lNormalDist::pdf">
<polygon fill="white" stroke="black" points="655,-393.632 655,-421.632 780,-421.632 780,-393.632 655,-393.632"/>
<text text-anchor="start" x="663" y="-410.432" font-family="Helvetica,sans-Serif" font-size="9.00">prior_hessian::Multivariate</text>
<text text-anchor="middle" x="717.5" y="-400.432" font-family="Helvetica,sans-Serif" font-size="9.00">NormalDist::pdf</text>
</a>
</g>
</g>
<!-- Node5&#45;&gt;Node6 -->
<g id="edge6" class="edge"><title>Node5&#45;&gt;Node6</title>
<path fill="none" stroke="midnightblue" d="M627.714,-407.632C636.753,-407.632 645.939,-407.632 654.805,-407.632"/>
<polygon fill="midnightblue" stroke="midnightblue" points="627.595,-404.132 617.594,-407.632 627.594,-411.132 627.595,-404.132"/>
</g>
<!-- Node6&#45;&gt;Node4 -->
<g id="edge7" class="edge"><title>Node6&#45;&gt;Node4</title>
<path fill="none" stroke="midnightblue" d="M790.592,-407.632C798.99,-407.632 807.499,-407.632 815.74,-407.632"/>
<polygon fill="midnightblue" stroke="midnightblue" points="790.429,-404.132 780.429,-407.632 790.429,-411.132 790.429,-404.132"/>
</g>
<!-- Node8 -->
<g id="node8" class="node"><title>Node8</title>
<g id="a_node8"><a xlink:href="classprior__hessian_1_1NormalDist.html#a01e959b4aea2b94bc05fc42c9abeed3c" target="_top" xlink:title="prior_hessian::NormalDist\l::median">
<polygon fill="white" stroke="black" points="493.5,-80.6321 493.5,-108.632 616.5,-108.632 616.5,-80.6321 493.5,-80.6321"/>
<text text-anchor="start" x="501.5" y="-97.4321" font-family="Helvetica,sans-Serif" font-size="9.00">prior_hessian::NormalDist</text>
<text text-anchor="middle" x="555" y="-87.4321" font-family="Helvetica,sans-Serif" font-size="9.00">::median</text>
</a>
</g>
</g>
<!-- Node7&#45;&gt;Node8 -->
<g id="edge9" class="edge"><title>Node7&#45;&gt;Node8</title>
<path fill="none" stroke="midnightblue" d="M438.258,-146.11C443.932,-143.996 449.607,-141.812 455,-139.632 478.805,-130.01 505.258,-117.911 524.827,-108.683"/>
<polygon fill="midnightblue" stroke="midnightblue" points="436.946,-142.864 428.76,-149.59 439.354,-149.437 436.946,-142.864"/>
</g>
<!-- Node10 -->
<g id="node10" class="node"><title>Node10</title>
<g id="a_node10"><a xlink:href="classprior__hessian_1_1SymmetricBetaDist.html#a642a881868f0f031bacc87877714cf8d" target="_top" xlink:title="prior_hessian::Symmetric\lBetaDist::median">
<polygon fill="white" stroke="black" points="326.5,-368.632 326.5,-396.632 446.5,-396.632 446.5,-368.632 326.5,-368.632"/>
<text text-anchor="start" x="334.5" y="-385.432" font-family="Helvetica,sans-Serif" font-size="9.00">prior_hessian::Symmetric</text>
<text text-anchor="middle" x="386.5" y="-375.432" font-family="Helvetica,sans-Serif" font-size="9.00">BetaDist::median</text>
</a>
</g>
</g>
<!-- Node9&#45;&gt;Node10 -->
<g id="edge11" class="edge"><title>Node9&#45;&gt;Node10</title>
<path fill="none" stroke="midnightblue" d="M282.328,-370.67C296.905,-372.36 312.154,-374.128 326.318,-375.77"/>
<polygon fill="midnightblue" stroke="midnightblue" points="282.701,-367.19 272.365,-369.515 281.895,-374.144 282.701,-367.19"/>
</g>
<!-- Node11&#45;&gt;Node8 -->
<g id="edge13" class="edge"><title>Node11&#45;&gt;Node8</title>
<path fill="none" stroke="midnightblue" d="M458.265,-107.282C469.979,-105.734 482.031,-104.142 493.464,-102.631"/>
<polygon fill="midnightblue" stroke="midnightblue" points="457.537,-103.848 448.081,-108.627 458.454,-110.787 457.537,-103.848"/>
</g>
<!-- Node13 -->
<g id="node13" class="node"><title>Node13</title>
<g id="a_node13"><a xlink:href="classprior__hessian_1_1AMHCopula.html#a5f5ab047fa0c58b93e7b8e072bc9c682" target="_top" xlink:title="prior_hessian::AMHCopula\l::set_params_iter">
<polygon fill="white" stroke="black" points="491,-282.632 491,-310.632 619,-310.632 619,-282.632 491,-282.632"/>
<text text-anchor="start" x="499" y="-299.432" font-family="Helvetica,sans-Serif" font-size="9.00">prior_hessian::AMHCopula</text>
<text text-anchor="middle" x="555" y="-289.432" font-family="Helvetica,sans-Serif" font-size="9.00">::set_params_iter</text>
</a>
</g>
</g>
<!-- Node12&#45;&gt;Node13 -->
<g id="edge15" class="edge"><title>Node12&#45;&gt;Node13</title>
<path fill="none" stroke="midnightblue" d="M282.817,-314.59C294.506,-316.686 306.553,-318.499 318,-319.632 378.593,-325.632 394.507,-326.567 455,-319.632 471.04,-317.793 488.262,-314.331 503.771,-310.64"/>
<polygon fill="midnightblue" stroke="midnightblue" points="283.135,-311.088 272.661,-312.684 281.844,-317.968 283.135,-311.088"/>
</g>
<!-- Node14 -->
<g id="node14" class="node"><title>Node14</title>
<g id="a_node14"><a xlink:href="classprior__hessian_1_1AMHCopula.html#a7c3f0e7eb7f4c8eecd37563c35e1f819" target="_top" xlink:title="prior_hessian::AMHCopula\l::grad">
<polygon fill="white" stroke="black" points="322.5,-282.632 322.5,-310.632 450.5,-310.632 450.5,-282.632 322.5,-282.632"/>
<text text-anchor="start" x="330.5" y="-299.432" font-family="Helvetica,sans-Serif" font-size="9.00">prior_hessian::AMHCopula</text>
<text text-anchor="middle" x="386.5" y="-289.432" font-family="Helvetica,sans-Serif" font-size="9.00">::grad</text>
</a>
</g>
</g>
<!-- Node12&#45;&gt;Node14 -->
<g id="edge16" class="edge"><title>Node12&#45;&gt;Node14</title>
<path fill="none" stroke="midnightblue" d="M286.579,-297.779C298.453,-297.641 310.653,-297.5 322.255,-297.365"/>
<polygon fill="midnightblue" stroke="midnightblue" points="286.212,-294.283 276.253,-297.899 286.293,-301.283 286.212,-294.283"/>
</g>
<!-- Node14&#45;&gt;Node13 -->
<g id="edge17" class="edge"><title>Node14&#45;&gt;Node13</title>
<path fill="none" stroke="midnightblue" d="M461.129,-296.632C471.01,-296.632 481.074,-296.632 490.755,-296.632"/>
<polygon fill="midnightblue" stroke="midnightblue" points="460.922,-293.132 450.921,-296.632 460.921,-300.132 460.922,-293.132"/>
</g>
<!-- Node15&#45;&gt;Node8 -->
<g id="edge19" class="edge"><title>Node15&#45;&gt;Node8</title>
<path fill="none" stroke="midnightblue" d="M444.191,-192.448C447.93,-190.651 451.569,-188.713 455,-186.632 490.91,-164.852 525.004,-128.551 542.265,-108.684"/>
<polygon fill="midnightblue" stroke="midnightblue" points="442.476,-189.38 434.75,-196.629 445.311,-195.78 442.476,-189.38"/>
</g>
<!-- Node16&#45;&gt;Node13 -->
<g id="edge21" class="edge"><title>Node16&#45;&gt;Node13</title>
<path fill="none" stroke="midnightblue" d="M286.032,-255.085C334.237,-258.072 398.661,-263.413 455,-272.632 470.621,-275.188 487.419,-278.89 502.663,-282.625"/>
<polygon fill="midnightblue" stroke="midnightblue" points="286.192,-251.589 276,-254.483 285.773,-258.576 286.192,-251.589"/>
</g>
<!-- Node17&#45;&gt;Node8 -->
<g id="edge23" class="edge"><title>Node17&#45;&gt;Node8</title>
<path fill="none" stroke="midnightblue" d="M274.732,-4.37509C324.793,1.42997 396.404,3.94953 455,-16.6321 491.541,-29.4671 524.879,-61.841 541.975,-80.5996"/>
<polygon fill="midnightblue" stroke="midnightblue" points="274.199,-0.914313 264.704,-5.61519 275.058,-7.8614 274.199,-0.914313"/>
</g>
<!-- Node18&#45;&gt;Node8 -->
<g id="edge27" class="edge"><title>Node18&#45;&gt;Node8</title>
<path fill="none" stroke="midnightblue" d="M283.653,-77.9832C345.593,-81.7977 434.677,-87.2838 493.42,-90.9014"/>
<polygon fill="midnightblue" stroke="midnightblue" points="283.767,-74.4837 273.571,-77.3623 283.337,-81.4705 283.767,-74.4837"/>
</g>
<!-- Node19 -->
<g id="node19" class="node"><title>Node19</title>
<g id="a_node19"><a xlink:href="classprior__hessian_1_1NormalDist.html#a7776d18fd17739446c2848a9452b81f7" target="_top" xlink:title="prior_hessian::NormalDist::llh">
<polygon fill="white" stroke="black" points="318,-26.6321 318,-44.6321 455,-44.6321 455,-26.6321 318,-26.6321"/>
<text text-anchor="middle" x="386.5" y="-33.4321" font-family="Helvetica,sans-Serif" font-size="9.00">prior_hessian::NormalDist::llh</text>
</a>
</g>
</g>
<!-- Node18&#45;&gt;Node19 -->
<g id="edge25" class="edge"><title>Node18&#45;&gt;Node19</title>
<path fill="none" stroke="midnightblue" d="M283.82,-58.0312C304.439,-53.489 326.275,-48.6788 344.404,-44.6852"/>
<polygon fill="midnightblue" stroke="midnightblue" points="282.83,-54.6653 273.817,-60.2348 284.336,-61.5014 282.83,-54.6653"/>
</g>
<!-- Node19&#45;&gt;Node8 -->
<g id="edge26" class="edge"><title>Node19&#45;&gt;Node8</title>
<path fill="none" stroke="midnightblue" d="M422.898,-48.1754C449.714,-57.6779 486.561,-70.7347 514.364,-80.5868"/>
<polygon fill="midnightblue" stroke="midnightblue" points="423.745,-44.7627 413.151,-44.7216 421.407,-51.3607 423.745,-44.7627"/>
</g>
</g>
</svg>
        <g id="navigator" transform="translate(0 0)" fill="#404254">
                <rect fill="#f2f5e9" fill-opacity="0.5" stroke="#606060" stroke-width=".5" x="0" y="0" width="60" height="60"/>
                <use id="zoomplus" xlink:href="#zoomPlus" x="17" y="9" onmousedown="handleZoom(evt,'in')"/>
                <use id="zoomminus" xlink:href="#zoomMin" x="42" y="9" onmousedown="handleZoom(evt,'out')"/>
                <use id="reset" xlink:href="#resetDef" x="30" y="36" onmousedown="handleReset()"/>
                <g id="arrowUp" xlink:href="#dirArrow" transform="translate(30 24)" onmousedown="handlePan(0,-1)">
                  <use xlink:href="#rim" fill="#404040">
                        <set attributeName="fill" to="#808080" begin="arrowUp.mouseover" end="arrowUp.mouseout"/>
                  </use>
                  <path fill="none" stroke="white" stroke-width="1.5" d="M0,-3.0v7 M-2.5,-0.5L0,-3.0L2.5,-0.5"/>
                </g>
                <g id="arrowRight" xlink:href="#dirArrow" transform="rotate(90) translate(36 -43)" onmousedown="handlePan(1,0)">
                  <use xlink:href="#rim" fill="#404040">
                        <set attributeName="fill" to="#808080" begin="arrowRight.mouseover" end="arrowRight.mouseout"/>
                  </use>
                  <path fill="none" stroke="white" stroke-width="1.5" d="M0,-3.0v7 M-2.5,-0.5L0,-3.0L2.5,-0.5"/>
                </g>
                <g id="arrowDown" xlink:href="#dirArrow" transform="rotate(180) translate(-30 -48)" onmousedown="handlePan(0,1)">
                  <use xlink:href="#rim" fill="#404040">
                        <set attributeName="fill" to="#808080" begin="arrowDown.mouseover" end="arrowDown.mouseout"/>
                  </use>
                  <path fill="none" stroke="white" stroke-width="1.5" d="M0,-3.0v7 M-2.5,-0.5L0,-3.0L2.5,-0.5"/>
                </g>
                <g id="arrowLeft" xlink:href="#dirArrow" transform="rotate(270) translate(-36 17)" onmousedown="handlePan(-1,0)">
                  <use xlink:href="#rim" fill="#404040">
                        <set attributeName="fill" to="#808080" begin="arrowLeft.mouseover" end="arrowLeft.mouseout"/>
                  </use>
                  <path fill="none" stroke="white" stroke-width="1.5" d="M0,-3.0v7 M-2.5,-0.5L0,-3.0L2.5,-0.5"/>
                </g>
        </g>
        <svg viewBox="0 0 15 15" width="100%" height="30px" preserveAspectRatio="xMaxYMin meet">
         <g id="arrow_out" transform="scale(0.3 0.3)">
          <a xlink:href="namespaceprior__hessian_a706cb136b90f16dd920118eb59ef1ad6_icgraph_org.svg" target="_base">
           <rect id="button" ry="5" rx="5" y="6" x="6" height="38" width="38"
                fill="#f2f5e9" fill-opacity="0.5" stroke="#606060" stroke-width="1.0"/>
           <path id="arrow"
             d="M 11.500037,31.436501 C 11.940474,20.09759 22.043105,11.32322 32.158766,21.979434 L 37.068811,17.246167 C 37.068811,17.246167 37.088388,32 37.088388,32 L 22.160133,31.978069 C 22.160133,31.978069 26.997745,27.140456 26.997745,27.140456 C 18.528582,18.264221 13.291696,25.230495 11.500037,31.436501 z"
             style="fill:#404040;"/>
          </a>
         </g>
        </svg>
</svg>
