<?xml version="1.0" encoding="UTF-8" standalone="no"?>
<!DOCTYPE svg PUBLIC "-//W3C//DTD SVG 1.1//EN"
 "http://www.w3.org/Graphics/SVG/1.1/DTD/svg11.dtd">
<!-- Generated by graphviz version 2.38.0 (20140413.2041)
 -->
<!-- Title: prior_hessian::meta::constexpr_accumulate Pages: 1 -->
<!--zoomable 201 -->
<svg id="main" version="1.1" xmlns="http://www.w3.org/2000/svg" xmlns:xlink="http://www.w3.org/1999/xlink" xml:space="preserve" onload="init(evt)">
<style type="text/css"><![CDATA[
.edge:hover path { stroke: red; }
.edge:hover polygon { stroke: red; fill: red; }
]]></style>
<script type="text/javascript"><![CDATA[
var edges = document.getElementsByTagName('g');
if (edges && edges.length) {
  for (var i=0;i<edges.length;i++) {
    if (edges[i].id.substr(0,4)=='edge') {
      edges[i].setAttribute('class','edge');
    }
  }
}
]]></script>
        <defs>
                <circle id="rim" cx="0" cy="0" r="7"/>
                <circle id="rim2" cx="0" cy="0" r="3.5"/>
                <g id="zoomPlus">
                        <use xlink:href="#rim" fill="#404040">
                                <set attributeName="fill" to="#808080" begin="zoomplus.mouseover" end="zoomplus.mouseout"/>
                        </use>
                        <path d="M-4,0h8M0,-4v8" fill="none" stroke="white" stroke-width="1.5" pointer-events="none"/>
                </g>
                <g id="zoomMin">
                        <use xlink:href="#rim" fill="#404040">
                                <set attributeName="fill" to="#808080" begin="zoomminus.mouseover" end="zoomminus.mouseout"/>
                        </use>
                        <path d="M-4,0h8" fill="none" stroke="white" stroke-width="1.5" pointer-events="none"/>
                </g>
                <g id="dirArrow">
                        <path fill="none" stroke="white" stroke-width="1.5" d="M0,-3.0v7 M-2.5,-0.5L0,-3.0L2.5,-0.5"/>
                </g>
               <g id="resetDef">
                       <use xlink:href="#rim2" fill="#404040">
                               <set attributeName="fill" to="#808080" begin="reset.mouseover" end="reset.mouseout"/>
                       </use>
               </g>
        </defs>

<script type="text/javascript">
var viewWidth = 955;
var viewHeight = 201;
var sectionId = 'dynsection-1';
</script>
<script xlink:href="svgpan.js"/>
<svg id="graph" class="graph">
<g id="viewport">
<title>prior_hessian::meta::constexpr_accumulate</title>
<polygon fill="white" stroke="none" points="-4,4 -4,-197 951,-197 951,4 -4,4"/>
<!-- Node1 -->
<g id="node1" class="node"><title>Node1</title>
<polygon fill="#bfbfbf" stroke="black" points="0,-47.5 0,-75.5 113,-75.5 113,-47.5 0,-47.5"/>
<text text-anchor="start" x="8" y="-64.3" font-family="Helvetica,sans-Serif" font-size="9.00">prior_hessian::meta</text>
<text text-anchor="middle" x="56.5" y="-54.3" font-family="Helvetica,sans-Serif" font-size="9.00">::constexpr_accumulate</text>
</g>
<!-- Node2 -->
<g id="node2" class="node"><title>Node2</title>
<g id="a_node2"><a xlink:href="namespaceprior__hessian_1_1meta.html#add11951e7edc2c231ca52c32ac0ee07b" target="_top" xlink:title="prior_hessian::meta\l::logical_and_in_order">
<polygon fill="white" stroke="black" points="149,-94.5 149,-122.5 258,-122.5 258,-94.5 149,-94.5"/>
<text text-anchor="start" x="157" y="-111.3" font-family="Helvetica,sans-Serif" font-size="9.00">prior_hessian::meta</text>
<text text-anchor="middle" x="203.5" y="-101.3" font-family="Helvetica,sans-Serif" font-size="9.00">::logical_and_in_order</text>
</a>
</g>
</g>
<!-- Node1&#45;&gt;Node2 -->
<g id="edge1" class="edge"><title>Node1&#45;&gt;Node2</title>
<path fill="none" stroke="midnightblue" d="M110.701,-78.7443C126.598,-83.8973 143.831,-89.4831 159.026,-94.4084"/>
<polygon fill="midnightblue" stroke="midnightblue" points="111.597,-75.3556 101.005,-75.6015 109.438,-82.0145 111.597,-75.3556"/>
</g>
<!-- Node10 -->
<g id="node10" class="node"><title>Node10</title>
<g id="a_node10"><a xlink:href="namespaceprior__hessian_1_1meta.html#a32068030d513a09bf78340f87be83639" target="_top" xlink:title="prior_hessian::meta\l::prod_in_order">
<polygon fill="white" stroke="black" points="154.5,-47.5 154.5,-75.5 252.5,-75.5 252.5,-47.5 154.5,-47.5"/>
<text text-anchor="start" x="162.5" y="-64.3" font-family="Helvetica,sans-Serif" font-size="9.00">prior_hessian::meta</text>
<text text-anchor="middle" x="203.5" y="-54.3" font-family="Helvetica,sans-Serif" font-size="9.00">::prod_in_order</text>
</a>
</g>
</g>
<!-- Node1&#45;&gt;Node10 -->
<g id="edge15" class="edge"><title>Node1&#45;&gt;Node10</title>
<path fill="none" stroke="midnightblue" d="M123.453,-61.5C133.853,-61.5 144.434,-61.5 154.33,-61.5"/>
<polygon fill="midnightblue" stroke="midnightblue" points="123.146,-58.0001 113.146,-61.5 123.146,-65.0001 123.146,-58.0001"/>
</g>
<!-- Node11 -->
<g id="node11" class="node"><title>Node11</title>
<g id="a_node11"><a xlink:href="namespaceprior__hessian_1_1meta.html#ab09470f06d05f5c58e249a03ef19242f" target="_top" xlink:title="prior_hessian::meta\l::sum_in_order">
<polygon fill="white" stroke="black" points="154.5,-0.5 154.5,-28.5 252.5,-28.5 252.5,-0.5 154.5,-0.5"/>
<text text-anchor="start" x="162.5" y="-17.3" font-family="Helvetica,sans-Serif" font-size="9.00">prior_hessian::meta</text>
<text text-anchor="middle" x="203.5" y="-7.3" font-family="Helvetica,sans-Serif" font-size="9.00">::sum_in_order</text>
</a>
</g>
</g>
<!-- Node1&#45;&gt;Node11 -->
<g id="edge16" class="edge"><title>Node1&#45;&gt;Node11</title>
<path fill="none" stroke="midnightblue" d="M110.701,-44.2557C126.598,-39.1027 143.831,-33.5169 159.026,-28.5916"/>
<polygon fill="midnightblue" stroke="midnightblue" points="109.438,-40.9855 101.005,-47.3985 111.597,-47.6444 109.438,-40.9855"/>
</g>
<!-- Node3 -->
<g id="node3" class="node"><title>Node3</title>
<g id="a_node3"><a xlink:href="classprior__hessian_1_1CompositeDist.html#a24bac25ae8c0330b8a3aacadffc9d5ae" target="_top" xlink:title="prior_hessian::Composite\lDist::rllh_components">
<polygon fill="white" stroke="black" points="308.5,-117.5 308.5,-145.5 430.5,-145.5 430.5,-117.5 308.5,-117.5"/>
<text text-anchor="start" x="316.5" y="-134.3" font-family="Helvetica,sans-Serif" font-size="9.00">prior_hessian::Composite</text>
<text text-anchor="middle" x="369.5" y="-124.3" font-family="Helvetica,sans-Serif" font-size="9.00">Dist::rllh_components</text>
</a>
</g>
</g>
<!-- Node2&#45;&gt;Node3 -->
<g id="edge2" class="edge"><title>Node2&#45;&gt;Node3</title>
<path fill="none" stroke="midnightblue" d="M268.171,-117.429C281.414,-119.287 295.329,-121.238 308.436,-123.076"/>
<polygon fill="midnightblue" stroke="midnightblue" points="268.589,-113.954 258.2,-116.031 267.617,-120.886 268.589,-113.954"/>
</g>
<!-- Node4 -->
<g id="node4" class="node"><title>Node4</title>
<g id="a_node4"><a xlink:href="classprior__hessian_1_1CopulaDistImpl_1_1CopulaDist.html#aad110f1a85e7611fd098aa51c2104015" target="_top" xlink:title="prior_hessian::CopulaDist\lImpl::CopulaDist::global_ubound">
<polygon fill="white" stroke="black" points="294,-70.5 294,-98.5 445,-98.5 445,-70.5 294,-70.5"/>
<text text-anchor="start" x="302" y="-87.3" font-family="Helvetica,sans-Serif" font-size="9.00">prior_hessian::CopulaDist</text>
<text text-anchor="middle" x="369.5" y="-77.3" font-family="Helvetica,sans-Serif" font-size="9.00">Impl::CopulaDist::global_ubound</text>
</a>
</g>
</g>
<!-- Node2&#45;&gt;Node4 -->
<g id="edge3" class="edge"><title>Node2&#45;&gt;Node4</title>
<path fill="none" stroke="midnightblue" d="M268.266,-99.1684C276.648,-97.9417 285.298,-96.6759 293.841,-95.4257"/>
<polygon fill="midnightblue" stroke="midnightblue" points="267.588,-95.7303 258.2,-100.642 268.601,-102.657 267.588,-95.7303"/>
</g>
<!-- Node5 -->
<g id="node5" class="node"><title>Node5</title>
<g id="a_node5"><a xlink:href="classprior__hessian_1_1CopulaDistImpl_1_1CopulaDist.html#a26cd71990978df0ddae24dae5148c880" target="_top" xlink:title="prior_hessian::CopulaDist\lImpl::CopulaDist::num_dim">
<polygon fill="white" stroke="black" points="486,-164.5 486,-192.5 613,-192.5 613,-164.5 486,-164.5"/>
<text text-anchor="start" x="494" y="-181.3" font-family="Helvetica,sans-Serif" font-size="9.00">prior_hessian::CopulaDist</text>
<text text-anchor="middle" x="549.5" y="-171.3" font-family="Helvetica,sans-Serif" font-size="9.00">Impl::CopulaDist::num_dim</text>
</a>
</g>
</g>
<!-- Node4&#45;&gt;Node5 -->
<g id="edge4" class="edge"><title>Node4&#45;&gt;Node5</title>
<path fill="none" stroke="midnightblue" d="M435.94,-102.919C439.096,-104.624 442.137,-106.48 445,-108.5 466.5,-123.668 459.627,-140.152 481,-155.5 485.827,-158.966 491.217,-161.941 496.789,-164.487"/>
<polygon fill="midnightblue" stroke="midnightblue" points="437.326,-99.7017 426.8,-98.5025 434.281,-106.005 437.326,-99.7017"/>
</g>
<!-- Node6 -->
<g id="node6" class="node"><title>Node6</title>
<g id="a_node6"><a xlink:href="classprior__hessian_1_1CopulaDistImpl_1_1CopulaDist.html#ad5f8f42efd9f709625cf60836fa473b9" target="_top" xlink:title="prior_hessian::CopulaDist\lImpl::CopulaDist::set_bounds">
<polygon fill="white" stroke="black" points="481,-117.5 481,-145.5 618,-145.5 618,-117.5 481,-117.5"/>
<text text-anchor="start" x="489" y="-134.3" font-family="Helvetica,sans-Serif" font-size="9.00">prior_hessian::CopulaDist</text>
<text text-anchor="middle" x="549.5" y="-124.3" font-family="Helvetica,sans-Serif" font-size="9.00">Impl::CopulaDist::set_bounds</text>
</a>
</g>
</g>
<!-- Node4&#45;&gt;Node6 -->
<g id="edge5" class="edge"><title>Node4&#45;&gt;Node6</title>
<path fill="none" stroke="midnightblue" d="M455.055,-100.084C476.566,-105.691 498.424,-111.917 515.585,-117.43"/>
<polygon fill="midnightblue" stroke="midnightblue" points="455.771,-96.6541 445.214,-97.5558 454.029,-103.434 455.771,-96.6541"/>
</g>
<!-- Node9 -->
<g id="node9" class="node"><title>Node9</title>
<g id="a_node9"><a xlink:href="classprior__hessian_1_1CopulaDistImpl_1_1CopulaDist.html#a4b010ffe2c2acd4dc75c80b32312254d" target="_top" xlink:title="prior_hessian::CopulaDist\lImpl::CopulaDist::set_ubound">
<polygon fill="white" stroke="black" points="481,-70.5 481,-98.5 618,-98.5 618,-70.5 481,-70.5"/>
<text text-anchor="start" x="489" y="-87.3" font-family="Helvetica,sans-Serif" font-size="9.00">prior_hessian::CopulaDist</text>
<text text-anchor="middle" x="549.5" y="-77.3" font-family="Helvetica,sans-Serif" font-size="9.00">Impl::CopulaDist::set_ubound</text>
</a>
</g>
</g>
<!-- Node4&#45;&gt;Node9 -->
<g id="edge12" class="edge"><title>Node4&#45;&gt;Node9</title>
<path fill="none" stroke="midnightblue" d="M455.231,-77.7569C463.8,-77.7292 472.423,-77.785 480.779,-77.9245"/>
<polygon fill="midnightblue" stroke="midnightblue" points="455.189,-74.257 445.214,-77.8279 455.239,-81.2568 455.189,-74.257"/>
</g>
<!-- Node6&#45;&gt;Node4 -->
<g id="edge6" class="edge"><title>Node6&#45;&gt;Node4</title>
<path fill="none" stroke="midnightblue" d="M471.236,-117.796C447.509,-111.745 422.65,-104.744 403.563,-98.6181"/>
<polygon fill="midnightblue" stroke="midnightblue" points="470.409,-121.197 480.96,-120.239 472.114,-114.408 470.409,-121.197"/>
</g>
<!-- Node7 -->
<g id="node7" class="node"><title>Node7</title>
<g id="a_node7"><a xlink:href="classprior__hessian_1_1CopulaDistImpl_1_1CopulaDist.html#abdb39f0c5f7f5f4b16bf501e6083d5b6" target="_top" xlink:title="prior_hessian::CopulaDist\lImpl::CopulaDist::ubound">
<polygon fill="white" stroke="black" points="654,-51.5 654,-79.5 777,-79.5 777,-51.5 654,-51.5"/>
<text text-anchor="start" x="662" y="-68.3" font-family="Helvetica,sans-Serif" font-size="9.00">prior_hessian::CopulaDist</text>
<text text-anchor="middle" x="715.5" y="-58.3" font-family="Helvetica,sans-Serif" font-size="9.00">Impl::CopulaDist::ubound</text>
</a>
</g>
</g>
<!-- Node6&#45;&gt;Node7 -->
<g id="edge7" class="edge"><title>Node6&#45;&gt;Node7</title>
<path fill="none" stroke="midnightblue" d="M600.99,-113.977C606.748,-111.852 612.516,-109.665 618,-107.5 640.093,-98.7765 664.633,-88.0821 683.437,-79.6681"/>
<polygon fill="midnightblue" stroke="midnightblue" points="599.56,-110.773 591.36,-117.482 601.954,-117.351 599.56,-110.773"/>
</g>
<!-- Node7&#45;&gt;Node4 -->
<g id="edge8" class="edge"><title>Node7&#45;&gt;Node4</title>
<path fill="none" stroke="midnightblue" d="M643.682,-61.4102C635.033,-61.0349 626.317,-60.7153 618,-60.5 557.132,-58.9242 541.541,-54.0012 481,-60.5 462.262,-62.5115 442.038,-66.3894 424.078,-70.451"/>
<polygon fill="midnightblue" stroke="midnightblue" points="643.625,-64.9112 653.775,-61.8735 643.946,-57.9185 643.625,-64.9112"/>
</g>
<!-- Node8 -->
<g id="node8" class="node"><title>Node8</title>
<g id="a_node8"><a xlink:href="classprior__hessian_1_1CopulaDistImpl_1_1CopulaDist.html#ac0819ccaeef1afd7a123338823e8fb3c" target="_top" xlink:title="prior_hessian::CopulaDist\lImpl::CopulaDist::set_lbound">
<polygon fill="white" stroke="black" points="813,-51.5 813,-79.5 947,-79.5 947,-51.5 813,-51.5"/>
<text text-anchor="start" x="821" y="-68.3" font-family="Helvetica,sans-Serif" font-size="9.00">prior_hessian::CopulaDist</text>
<text text-anchor="middle" x="880" y="-58.3" font-family="Helvetica,sans-Serif" font-size="9.00">Impl::CopulaDist::set_lbound</text>
</a>
</g>
</g>
<!-- Node7&#45;&gt;Node8 -->
<g id="edge9" class="edge"><title>Node7&#45;&gt;Node8</title>
<path fill="none" stroke="midnightblue" d="M787.03,-58.8025C795.65,-58.7176 804.435,-58.7357 812.986,-58.8566"/>
<polygon fill="midnightblue" stroke="midnightblue" points="786.957,-55.3031 777.009,-58.9494 787.059,-62.3023 786.957,-55.3031"/>
</g>
<!-- Node8&#45;&gt;Node4 -->
<g id="edge10" class="edge"><title>Node8&#45;&gt;Node4</title>
<path fill="none" stroke="midnightblue" d="M819.676,-49.107C805.782,-45.9479 790.96,-43.1202 777,-41.5 646.214,-26.3207 610.735,-31.0454 481,-53.5 458.128,-57.4587 433.189,-64.2344 412.801,-70.4433"/>
<polygon fill="midnightblue" stroke="midnightblue" points="819.066,-52.5592 829.603,-51.4532 820.676,-45.7468 819.066,-52.5592"/>
</g>
<!-- Node8&#45;&gt;Node7 -->
<g id="edge11" class="edge"><title>Node8&#45;&gt;Node7</title>
<path fill="none" stroke="midnightblue" d="M802.864,-72.2381C794.191,-72.2785 785.44,-72.216 777.009,-72.0506"/>
<polygon fill="midnightblue" stroke="midnightblue" points="803.019,-75.7369 812.986,-72.1434 802.953,-68.7372 803.019,-75.7369"/>
</g>
<!-- Node9&#45;&gt;Node4 -->
<g id="edge13" class="edge"><title>Node9&#45;&gt;Node4</title>
<path fill="none" stroke="midnightblue" d="M470.589,-91.2032C462.162,-91.2746 453.602,-91.2643 445.214,-91.1721"/>
<polygon fill="midnightblue" stroke="midnightblue" points="470.824,-94.7006 480.779,-91.0755 470.736,-87.7012 470.824,-94.7006"/>
</g>
<!-- Node9&#45;&gt;Node7 -->
<g id="edge14" class="edge"><title>Node9&#45;&gt;Node7</title>
<path fill="none" stroke="midnightblue" d="M628.203,-75.4979C636.808,-74.5009 645.477,-73.4965 653.829,-72.5289"/>
<polygon fill="midnightblue" stroke="midnightblue" points="627.683,-72.0346 618.152,-76.6623 628.488,-78.9881 627.683,-72.0346"/>
</g>
<!-- Node12 -->
<g id="node12" class="node"><title>Node12</title>
<g id="a_node12"><a xlink:href="classprior__hessian_1_1CopulaDistImpl_1_1CopulaDist.html#a5cd91617bed91a4c401ad05f52958010" target="_top" xlink:title="prior_hessian::CopulaDist\lImpl::CopulaDist::operator!=">
<polygon fill="white" stroke="black" points="304,-0.5 304,-28.5 435,-28.5 435,-0.5 304,-0.5"/>
<text text-anchor="start" x="312" y="-17.3" font-family="Helvetica,sans-Serif" font-size="9.00">prior_hessian::CopulaDist</text>
<text text-anchor="middle" x="369.5" y="-7.3" font-family="Helvetica,sans-Serif" font-size="9.00">Impl::CopulaDist::operator!=</text>
</a>
</g>
</g>
<!-- Node11&#45;&gt;Node12 -->
<g id="edge17" class="edge"><title>Node11&#45;&gt;Node12</title>
<path fill="none" stroke="midnightblue" d="M263.169,-14.5C276.347,-14.5 290.401,-14.5 303.808,-14.5"/>
<polygon fill="midnightblue" stroke="midnightblue" points="262.818,-11.0001 252.818,-14.5 262.818,-18.0001 262.818,-11.0001"/>
</g>
</g>
</svg>
        <g id="navigator" transform="translate(0 0)" fill="#404254">
                <rect fill="#f2f5e9" fill-opacity="0.5" stroke="#606060" stroke-width=".5" x="0" y="0" width="60" height="60"/>
                <use id="zoomplus" xlink:href="#zoomPlus" x="17" y="9" onmousedown="handleZoom(evt,'in')"/>
                <use id="zoomminus" xlink:href="#zoomMin" x="42" y="9" onmousedown="handleZoom(evt,'out')"/>
                <use id="reset" xlink:href="#resetDef" x="30" y="36" onmousedown="handleReset()"/>
                <g id="arrowUp" xlink:href="#dirArrow" transform="translate(30 24)" onmousedown="handlePan(0,-1)">
                  <use xlink:href="#rim" fill="#404040">
                        <set attributeName="fill" to="#808080" begin="arrowUp.mouseover" end="arrowUp.mouseout"/>
                  </use>
                  <path fill="none" stroke="white" stroke-width="1.5" d="M0,-3.0v7 M-2.5,-0.5L0,-3.0L2.5,-0.5"/>
                </g>
                <g id="arrowRight" xlink:href="#dirArrow" transform="rotate(90) translate(36 -43)" onmousedown="handlePan(1,0)">
                  <use xlink:href="#rim" fill="#404040">
                        <set attributeName="fill" to="#808080" begin="arrowRight.mouseover" end="arrowRight.mouseout"/>
                  </use>
                  <path fill="none" stroke="white" stroke-width="1.5" d="M0,-3.0v7 M-2.5,-0.5L0,-3.0L2.5,-0.5"/>
                </g>
                <g id="arrowDown" xlink:href="#dirArrow" transform="rotate(180) translate(-30 -48)" onmousedown="handlePan(0,1)">
                  <use xlink:href="#rim" fill="#404040">
                        <set attributeName="fill" to="#808080" begin="arrowDown.mouseover" end="arrowDown.mouseout"/>
                  </use>
                  <path fill="none" stroke="white" stroke-width="1.5" d="M0,-3.0v7 M-2.5,-0.5L0,-3.0L2.5,-0.5"/>
                </g>
                <g id="arrowLeft" xlink:href="#dirArrow" transform="rotate(270) translate(-36 17)" onmousedown="handlePan(-1,0)">
                  <use xlink:href="#rim" fill="#404040">
                        <set attributeName="fill" to="#808080" begin="arrowLeft.mouseover" end="arrowLeft.mouseout"/>
                  </use>
                  <path fill="none" stroke="white" stroke-width="1.5" d="M0,-3.0v7 M-2.5,-0.5L0,-3.0L2.5,-0.5"/>
                </g>
        </g>
        <svg viewBox="0 0 15 15" width="100%" height="30px" preserveAspectRatio="xMaxYMin meet">
         <g id="arrow_out" transform="scale(0.3 0.3)">
          <a xlink:href="namespaceprior__hessian_1_1meta_a8dd1d78533f7011bebda7009c0591041_icgraph_org.svg" target="_base">
           <rect id="button" ry="5" rx="5" y="6" x="6" height="38" width="38"
                fill="#f2f5e9" fill-opacity="0.5" stroke="#606060" stroke-width="1.0"/>
           <path id="arrow"
             d="M 11.500037,31.436501 C 11.940474,20.09759 22.043105,11.32322 32.158766,21.979434 L 37.068811,17.246167 C 37.068811,17.246167 37.088388,32 37.088388,32 L 22.160133,31.978069 C 22.160133,31.978069 26.997745,27.140456 26.997745,27.140456 C 18.528582,18.264221 13.291696,25.230495 11.500037,31.436501 z"
             style="fill:#404040;"/>
          </a>
         </g>
        </svg>
</svg>
