<?xml version="1.0" encoding="UTF-8" standalone="no"?>
<!DOCTYPE svg PUBLIC "-//W3C//DTD SVG 1.1//EN"
 "http://www.w3.org/Graphics/SVG/1.1/DTD/svg11.dtd">
<!-- Generated by graphviz version 2.38.0 (20140413.2041)
 -->
<!-- Title: prior_hessian::meta::sum_in_order Pages: 1 -->
<svg width="297pt" height="131pt"
 viewBox="0.00 0.00 297.00 131.00" xmlns="http://www.w3.org/2000/svg" xmlns:xlink="http://www.w3.org/1999/xlink">
<g id="graph0" class="graph" transform="scale(1 1) rotate(0) translate(4 127)">
<title>prior_hessian::meta::sum_in_order</title>
<polygon fill="white" stroke="none" points="-4,4 -4,-127 293,-127 293,4 -4,4"/>
<!-- Node1 -->
<g id="node1" class="node"><title>Node1</title>
<polygon fill="#bfbfbf" stroke="black" points="0,-47.5 0,-75.5 98,-75.5 98,-47.5 0,-47.5"/>
<text text-anchor="start" x="8" y="-64.3" font-family="Helvetica,sans-Serif" font-size="9.00">prior_hessian::meta</text>
<text text-anchor="middle" x="49" y="-54.3" font-family="Helvetica,sans-Serif" font-size="9.00">::sum_in_order</text>
</g>
<!-- Node2 -->
<g id="node2" class="node"><title>Node2</title>
<g id="a_node2"><a xlink:href="classprior__hessian_1_1CompositeDist.html#a44c6ec3b0e740206e737f707378600c8" target="_top" xlink:title="prior_hessian::Composite\lDist::make_component_dist_tuple">
<polygon fill="white" stroke="black" points="134,-94.5 134,-122.5 289,-122.5 289,-94.5 134,-94.5"/>
<text text-anchor="start" x="142" y="-111.3" font-family="Helvetica,sans-Serif" font-size="9.00">prior_hessian::Composite</text>
<text text-anchor="middle" x="211.5" y="-101.3" font-family="Helvetica,sans-Serif" font-size="9.00">Dist::make_component_dist_tuple</text>
</a>
</g>
</g>
<!-- Node1&#45;&gt;Node2 -->
<g id="edge1" class="edge"><title>Node1&#45;&gt;Node2</title>
<path fill="none" stroke="midnightblue" d="M107.938,-78.4663C125.893,-83.7241 145.466,-89.4558 162.655,-94.4894"/>
<polygon fill="midnightblue" stroke="midnightblue" points="108.736,-75.053 98.1553,-75.6015 106.769,-81.7709 108.736,-75.053"/>
</g>
<!-- Node3 -->
<g id="node3" class="node"><title>Node3</title>
<g id="a_node3"><a xlink:href="classprior__hessian_1_1CopulaDistImpl_1_1CopulaDist.html#a5cd91617bed91a4c401ad05f52958010" target="_top" xlink:title="prior_hessian::CopulaDist\lImpl::CopulaDist::operator!=">
<polygon fill="white" stroke="black" points="146,-47.5 146,-75.5 277,-75.5 277,-47.5 146,-47.5"/>
<text text-anchor="start" x="154" y="-64.3" font-family="Helvetica,sans-Serif" font-size="9.00">prior_hessian::CopulaDist</text>
<text text-anchor="middle" x="211.5" y="-54.3" font-family="Helvetica,sans-Serif" font-size="9.00">Impl::CopulaDist::operator!=</text>
</a>
</g>
</g>
<!-- Node1&#45;&gt;Node3 -->
<g id="edge2" class="edge"><title>Node1&#45;&gt;Node3</title>
<path fill="none" stroke="midnightblue" d="M108.2,-61.5C120.397,-61.5 133.331,-61.5 145.75,-61.5"/>
<polygon fill="midnightblue" stroke="midnightblue" points="108.155,-58.0001 98.1553,-61.5 108.155,-65.0001 108.155,-58.0001"/>
</g>
<!-- Node4 -->
<g id="node4" class="node"><title>Node4</title>
<g id="a_node4"><a xlink:href="classprior__hessian_1_1CompositeDist.html#a24bac25ae8c0330b8a3aacadffc9d5ae" target="_top" xlink:title="prior_hessian::Composite\lDist::rllh_components">
<polygon fill="white" stroke="black" points="150.5,-0.5 150.5,-28.5 272.5,-28.5 272.5,-0.5 150.5,-0.5"/>
<text text-anchor="start" x="158.5" y="-17.3" font-family="Helvetica,sans-Serif" font-size="9.00">prior_hessian::Composite</text>
<text text-anchor="middle" x="211.5" y="-7.3" font-family="Helvetica,sans-Serif" font-size="9.00">Dist::rllh_components</text>
</a>
</g>
</g>
<!-- Node1&#45;&gt;Node4 -->
<g id="edge3" class="edge"><title>Node1&#45;&gt;Node4</title>
<path fill="none" stroke="midnightblue" d="M107.938,-44.5337C125.893,-39.2759 145.466,-33.5442 162.655,-28.5106"/>
<polygon fill="midnightblue" stroke="midnightblue" points="106.769,-41.2291 98.1553,-47.3985 108.736,-47.947 106.769,-41.2291"/>
</g>
</g>
</svg>
