<?xml version="1.0" encoding="UTF-8" standalone="no"?>
<!DOCTYPE svg PUBLIC "-//W3C//DTD SVG 1.1//EN"
 "http://www.w3.org/Graphics/SVG/1.1/DTD/svg11.dtd">
<!-- Generated by graphviz version 2.38.0 (20140413.2041)
 -->
<!-- Title: prior_hessian::meta::sum_in_order Pages: 1 -->
<svg width="297pt" height="84pt"
 viewBox="0.00 0.00 297.00 84.00" xmlns="http://www.w3.org/2000/svg" xmlns:xlink="http://www.w3.org/1999/xlink">
<g id="graph0" class="graph" transform="scale(1 1) rotate(0) translate(4 80)">
<title>prior_hessian::meta::sum_in_order</title>
<polygon fill="white" stroke="none" points="-4,4 -4,-80 293,-80 293,4 -4,4"/>
<!-- Node1 -->
<g id="node1" class="node"><title>Node1</title>
<polygon fill="#bfbfbf" stroke="black" points="0,-23.5 0,-51.5 98,-51.5 98,-23.5 0,-23.5"/>
<text text-anchor="start" x="8" y="-40.3" font-family="Helvetica,sans-Serif" font-size="9.00">prior_hessian::meta</text>
<text text-anchor="middle" x="49" y="-30.3" font-family="Helvetica,sans-Serif" font-size="9.00">::sum_in_order</text>
</g>
<!-- Node2 -->
<g id="node2" class="node"><title>Node2</title>
<g id="a_node2"><a xlink:href="classprior__hessian_1_1CompositeDist.html#a44c6ec3b0e740206e737f707378600c8" target="_top" xlink:title="prior_hessian::Composite\lDist::make_component_dist_tuple">
<polygon fill="white" stroke="black" points="134,-47.5 134,-75.5 289,-75.5 289,-47.5 134,-47.5"/>
<text text-anchor="start" x="142" y="-64.3" font-family="Helvetica,sans-Serif" font-size="9.00">prior_hessian::Composite</text>
<text text-anchor="middle" x="211.5" y="-54.3" font-family="Helvetica,sans-Serif" font-size="9.00">Dist::make_component_dist_tuple</text>
</a>
</g>
</g>
<!-- Node1&#45;&gt;Node2 -->
<g id="edge1" class="edge"><title>Node1&#45;&gt;Node2</title>
<path fill="none" stroke="midnightblue" d="M108.15,-46.1954C116.508,-47.4451 125.212,-48.7466 133.86,-50.0398"/>
<polygon fill="midnightblue" stroke="midnightblue" points="108.563,-42.7182 98.1553,-44.7008 107.528,-49.6413 108.563,-42.7182"/>
</g>
<!-- Node3 -->
<g id="node3" class="node"><title>Node3</title>
<g id="a_node3"><a xlink:href="classprior__hessian_1_1CopulaDistImpl_1_1CopulaDist.html#a5cd91617bed91a4c401ad05f52958010" target="_top" xlink:title="prior_hessian::CopulaDist\lImpl::CopulaDist::operator!=">
<polygon fill="white" stroke="black" points="146,-0.5 146,-28.5 277,-28.5 277,-0.5 146,-0.5"/>
<text text-anchor="start" x="154" y="-17.3" font-family="Helvetica,sans-Serif" font-size="9.00">prior_hessian::CopulaDist</text>
<text text-anchor="middle" x="211.5" y="-7.3" font-family="Helvetica,sans-Serif" font-size="9.00">Impl::CopulaDist::operator!=</text>
</a>
</g>
</g>
<!-- Node1&#45;&gt;Node3 -->
<g id="edge2" class="edge"><title>Node1&#45;&gt;Node3</title>
<path fill="none" stroke="midnightblue" d="M108.2,-29.1598C120.397,-27.4119 133.331,-25.5585 145.75,-23.7788"/>
<polygon fill="midnightblue" stroke="midnightblue" points="107.558,-25.716 98.1553,-30.5992 108.551,-32.6452 107.558,-25.716"/>
</g>
</g>
</svg>
