<?xml version="1.0" encoding="UTF-8" standalone="no"?>
<!DOCTYPE svg PUBLIC "-//W3C//DTD SVG 1.1//EN"
 "http://www.w3.org/Graphics/SVG/1.1/DTD/svg11.dtd">
<!-- Generated by graphviz version 2.38.0 (20140413.2041)
 -->
<!-- Title: prior_hessian::bounded Pages: 1 -->
<svg width="420pt" height="84pt"
 viewBox="0.00 0.00 420.00 84.00" xmlns="http://www.w3.org/2000/svg" xmlns:xlink="http://www.w3.org/1999/xlink">
<g id="graph0" class="graph" transform="scale(1 1) rotate(0) translate(4 80)">
<title>prior_hessian::bounded</title>
<polygon fill="white" stroke="none" points="-4,4 -4,-80 416,-80 416,4 -4,4"/>
<!-- Node1 -->
<g id="node1" class="node"><title>Node1</title>
<polygon fill="#bfbfbf" stroke="black" points="0,-28.5 0,-46.5 114,-46.5 114,-28.5 0,-28.5"/>
<text text-anchor="middle" x="57" y="-35.3" font-family="Helvetica,sans-Serif" font-size="9.00">prior_hessian::bounded</text>
</g>
<!-- Node2 -->
<g id="node2" class="node"><title>Node2</title>
<g id="a_node2"><a xlink:href="namespaceprior__hessian.html#ae87209106163a600fbde211815f83b5a" target="_top" xlink:title="prior_hessian::donnelly\l_bvn_integral">
<polygon fill="white" stroke="black" points="150,-23.5 150,-51.5 263,-51.5 263,-23.5 150,-23.5"/>
<text text-anchor="start" x="158" y="-40.3" font-family="Helvetica,sans-Serif" font-size="9.00">prior_hessian::donnelly</text>
<text text-anchor="middle" x="206.5" y="-30.3" font-family="Helvetica,sans-Serif" font-size="9.00">_bvn_integral</text>
</a>
</g>
</g>
<!-- Node1&#45;&gt;Node2 -->
<g id="edge1" class="edge"><title>Node1&#45;&gt;Node2</title>
<path fill="none" stroke="midnightblue" d="M124.197,-37.5C132.804,-37.5 141.551,-37.5 149.96,-37.5"/>
<polygon fill="midnightblue" stroke="midnightblue" points="124.184,-34.0001 114.184,-37.5 124.184,-41.0001 124.184,-34.0001"/>
</g>
<!-- Node3 -->
<g id="node3" class="node"><title>Node3</title>
<g id="a_node3"><a xlink:href="namespaceprior__hessian.html#a12c3a5763e9fbc82e2fb39b8c0273cda" target="_top" xlink:title="prior_hessian::owen\l_t_integral">
<polygon fill="white" stroke="black" points="305.5,-47.5 305.5,-75.5 405.5,-75.5 405.5,-47.5 305.5,-47.5"/>
<text text-anchor="start" x="313.5" y="-64.3" font-family="Helvetica,sans-Serif" font-size="9.00">prior_hessian::owen</text>
<text text-anchor="middle" x="355.5" y="-54.3" font-family="Helvetica,sans-Serif" font-size="9.00">_t_integral</text>
</a>
</g>
</g>
<!-- Node2&#45;&gt;Node3 -->
<g id="edge2" class="edge"><title>Node2&#45;&gt;Node3</title>
<path fill="none" stroke="midnightblue" d="M273.245,-48.2339C283.956,-49.9826 294.888,-51.7675 305.12,-53.4379"/>
<polygon fill="midnightblue" stroke="midnightblue" points="273.508,-44.7305 263.074,-46.5734 272.38,-51.639 273.508,-44.7305"/>
</g>
<!-- Node4 -->
<g id="node4" class="node"><title>Node4</title>
<g id="a_node4"><a xlink:href="namespaceprior__hessian.html#a0f8b4ec070533193c3f402bbcc2b8b2b" target="_top" xlink:title="prior_hessian::donnelly\l_bvn_cdf">
<polygon fill="white" stroke="black" points="299,-0.5 299,-28.5 412,-28.5 412,-0.5 299,-0.5"/>
<text text-anchor="start" x="307" y="-17.3" font-family="Helvetica,sans-Serif" font-size="9.00">prior_hessian::donnelly</text>
<text text-anchor="middle" x="355.5" y="-7.3" font-family="Helvetica,sans-Serif" font-size="9.00">_bvn_cdf</text>
</a>
</g>
</g>
<!-- Node2&#45;&gt;Node4 -->
<g id="edge3" class="edge"><title>Node2&#45;&gt;Node4</title>
<path fill="none" stroke="midnightblue" d="M273.078,-27.2396C281.681,-25.8935 290.43,-24.5246 298.847,-23.2076"/>
<polygon fill="midnightblue" stroke="midnightblue" points="272.413,-23.8009 263.074,-28.8047 273.495,-30.7167 272.413,-23.8009"/>
</g>
</g>
</svg>
