<?xml version="1.0" encoding="UTF-8" standalone="no"?>
<!DOCTYPE svg PUBLIC "-//W3C//DTD SVG 1.1//EN"
 "http://www.w3.org/Graphics/SVG/1.1/DTD/svg11.dtd">
<!-- Generated by graphviz version 2.38.0 (20140413.2041)
 -->
<!-- Title: prior_hessian::make_copula_dist Pages: 1 -->
<svg width="261pt" height="37pt"
 viewBox="0.00 0.00 261.00 37.00" xmlns="http://www.w3.org/2000/svg" xmlns:xlink="http://www.w3.org/1999/xlink">
<g id="graph0" class="graph" transform="scale(1 1) rotate(0) translate(4 33)">
<title>prior_hessian::make_copula_dist</title>
<polygon fill="white" stroke="none" points="-4,4 -4,-33 257,-33 257,4 -4,4"/>
<!-- Node1 -->
<g id="node1" class="node"><title>Node1</title>
<polygon fill="#bfbfbf" stroke="black" points="0,-0.5 0,-28.5 100,-28.5 100,-0.5 0,-0.5"/>
<text text-anchor="start" x="8" y="-17.3" font-family="Helvetica,sans-Serif" font-size="9.00">prior_hessian::make</text>
<text text-anchor="middle" x="50" y="-7.3" font-family="Helvetica,sans-Serif" font-size="9.00">_copula_dist</text>
</g>
<!-- Node2 -->
<g id="node2" class="node"><title>Node2</title>
<g id="a_node2"><a xlink:href="namespaceprior__hessian.html#a387cc711a6a39924943b5b20ae76bf6a" target="_top" xlink:title="prior_hessian::make\l_adapted_bounded_dist">
<polygon fill="white" stroke="black" points="136,-0.5 136,-28.5 253,-28.5 253,-0.5 136,-0.5"/>
<text text-anchor="start" x="144" y="-17.3" font-family="Helvetica,sans-Serif" font-size="9.00">prior_hessian::make</text>
<text text-anchor="middle" x="194.5" y="-7.3" font-family="Helvetica,sans-Serif" font-size="9.00">_adapted_bounded_dist</text>
</a>
</g>
</g>
<!-- Node1&#45;&gt;Node2 -->
<g id="edge1" class="edge"><title>Node1&#45;&gt;Node2</title>
<path fill="none" stroke="midnightblue" d="M100.04,-14.5C108.257,-14.5 116.912,-14.5 125.504,-14.5"/>
<polygon fill="midnightblue" stroke="midnightblue" points="125.53,-18.0001 135.53,-14.5 125.53,-11.0001 125.53,-18.0001"/>
</g>
</g>
</svg>
