<?xml version="1.0" encoding="UTF-8" standalone="no"?>
<!DOCTYPE svg PUBLIC "-//W3C//DTD SVG 1.1//EN"
 "http://www.w3.org/Graphics/SVG/1.1/DTD/svg11.dtd">
<!-- Generated by graphviz version 2.38.0 (20140413.2041)
 -->
<!-- Title: prior_hessian::helpers::compute_quadratic_from_symmetric Pages: 1 -->
<svg width="775pt" height="77pt"
 viewBox="0.00 0.00 775.00 77.32" xmlns="http://www.w3.org/2000/svg" xmlns:xlink="http://www.w3.org/1999/xlink">
<g id="graph0" class="graph" transform="scale(1 1) rotate(0) translate(4 73.3155)">
<title>prior_hessian::helpers::compute_quadratic_from_symmetric</title>
<polygon fill="white" stroke="none" points="-4,4 -4,-73.3155 771,-73.3155 771,4 -4,4"/>
<!-- Node1 -->
<g id="node1" class="node"><title>Node1</title>
<polygon fill="#bfbfbf" stroke="black" points="0,-0.5 0,-38.5 123,-38.5 123,-0.5 0,-0.5"/>
<text text-anchor="start" x="8" y="-27.3" font-family="Helvetica,sans-Serif" font-size="9.00">prior_hessian::helpers</text>
<text text-anchor="start" x="8" y="-17.3" font-family="Helvetica,sans-Serif" font-size="9.00">::compute_quadratic_from</text>
<text text-anchor="middle" x="61.5" y="-7.3" font-family="Helvetica,sans-Serif" font-size="9.00">_symmetric</text>
</g>
<!-- Node2 -->
<g id="node2" class="node"><title>Node2</title>
<g id="a_node2"><a xlink:href="classprior__hessian_1_1MultivariateNormalDist.html#a4512a641c493e33dfb93b5087e473c76" target="_top" xlink:title="prior_hessian::Multivariate\lNormalDist::rllh">
<polygon fill="white" stroke="black" points="159,-5.5 159,-33.5 284,-33.5 284,-5.5 159,-5.5"/>
<text text-anchor="start" x="167" y="-22.3" font-family="Helvetica,sans-Serif" font-size="9.00">prior_hessian::Multivariate</text>
<text text-anchor="middle" x="221.5" y="-12.3" font-family="Helvetica,sans-Serif" font-size="9.00">NormalDist::rllh</text>
</a>
</g>
</g>
<!-- Node1&#45;&gt;Node2 -->
<g id="edge1" class="edge"><title>Node1&#45;&gt;Node2</title>
<path fill="none" stroke="midnightblue" d="M133.159,-19.5C141.771,-19.5 150.518,-19.5 158.982,-19.5"/>
<polygon fill="midnightblue" stroke="midnightblue" points="133.135,-16.0001 123.135,-19.5 133.135,-23.0001 133.135,-16.0001"/>
</g>
<!-- Node3 -->
<g id="node3" class="node"><title>Node3</title>
<g id="a_node3"><a xlink:href="classprior__hessian_1_1MultivariateNormalDist.html#a3540b1bcafd58fe26de858c0a4aef3db" target="_top" xlink:title="prior_hessian::Multivariate\lNormalDist::llh">
<polygon fill="white" stroke="black" points="320,-27.5 320,-55.5 445,-55.5 445,-27.5 320,-27.5"/>
<text text-anchor="start" x="328" y="-44.3" font-family="Helvetica,sans-Serif" font-size="9.00">prior_hessian::Multivariate</text>
<text text-anchor="middle" x="382.5" y="-34.3" font-family="Helvetica,sans-Serif" font-size="9.00">NormalDist::llh</text>
</a>
</g>
</g>
<!-- Node2&#45;&gt;Node3 -->
<g id="edge2" class="edge"><title>Node2&#45;&gt;Node3</title>
<path fill="none" stroke="midnightblue" d="M294.592,-29.475C302.99,-30.637 311.499,-31.8143 319.74,-32.9546"/>
<polygon fill="midnightblue" stroke="midnightblue" points="294.814,-25.9725 284.429,-28.0688 293.855,-32.9064 294.814,-25.9725"/>
</g>
<!-- Node4 -->
<g id="node4" class="node"><title>Node4</title>
<g id="a_node4"><a xlink:href="classprior__hessian_1_1MultivariateNormalDist.html#afdec8e6a453a2c69e0d84833d6b3e5ae" target="_top" xlink:title="prior_hessian::Multivariate\lNormalDist::mode">
<polygon fill="white" stroke="black" points="642,-27.5 642,-55.5 767,-55.5 767,-27.5 642,-27.5"/>
<text text-anchor="start" x="650" y="-44.3" font-family="Helvetica,sans-Serif" font-size="9.00">prior_hessian::Multivariate</text>
<text text-anchor="middle" x="704.5" y="-34.3" font-family="Helvetica,sans-Serif" font-size="9.00">NormalDist::mode</text>
</a>
</g>
</g>
<!-- Node2&#45;&gt;Node4 -->
<g id="edge6" class="edge"><title>Node2&#45;&gt;Node4</title>
<path fill="none" stroke="midnightblue" d="M294.32,-13.7646C371.608,-8.84062 497.99,-4.4019 606,-17.5 622.613,-19.5147 640.478,-23.3933 656.318,-27.4547"/>
<polygon fill="midnightblue" stroke="midnightblue" points="293.962,-10.2805 284.213,-14.4292 294.421,-17.2654 293.962,-10.2805"/>
</g>
<!-- Node3&#45;&gt;Node4 -->
<g id="edge3" class="edge"><title>Node3&#45;&gt;Node4</title>
<path fill="none" stroke="midnightblue" d="M442.821,-57.7994C455.335,-60.5867 468.527,-63.0488 481,-64.5 536.183,-70.9207 550.817,-70.9207 606,-64.5 621.807,-62.6609 638.77,-59.1981 654.043,-55.5074"/>
<polygon fill="midnightblue" stroke="midnightblue" points="443.489,-54.3616 432.957,-55.5074 441.905,-61.18 443.489,-54.3616"/>
</g>
<!-- Node5 -->
<g id="node5" class="node"><title>Node5</title>
<g id="a_node5"><a xlink:href="classprior__hessian_1_1MultivariateNormalDist.html#a67cba536341528564330b17dcbe5faff" target="_top" xlink:title="prior_hessian::Multivariate\lNormalDist::pdf">
<polygon fill="white" stroke="black" points="481,-27.5 481,-55.5 606,-55.5 606,-27.5 481,-27.5"/>
<text text-anchor="start" x="489" y="-44.3" font-family="Helvetica,sans-Serif" font-size="9.00">prior_hessian::Multivariate</text>
<text text-anchor="middle" x="543.5" y="-34.3" font-family="Helvetica,sans-Serif" font-size="9.00">NormalDist::pdf</text>
</a>
</g>
</g>
<!-- Node3&#45;&gt;Node5 -->
<g id="edge4" class="edge"><title>Node3&#45;&gt;Node5</title>
<path fill="none" stroke="midnightblue" d="M455.592,-41.5C463.99,-41.5 472.499,-41.5 480.74,-41.5"/>
<polygon fill="midnightblue" stroke="midnightblue" points="455.429,-38.0001 445.429,-41.5 455.429,-45.0001 455.429,-38.0001"/>
</g>
<!-- Node5&#45;&gt;Node4 -->
<g id="edge5" class="edge"><title>Node5&#45;&gt;Node4</title>
<path fill="none" stroke="midnightblue" d="M616.592,-41.5C624.99,-41.5 633.499,-41.5 641.74,-41.5"/>
<polygon fill="midnightblue" stroke="midnightblue" points="616.429,-38.0001 606.429,-41.5 616.429,-45.0001 616.429,-38.0001"/>
</g>
</g>
</svg>
