<?xml version="1.0" encoding="UTF-8" standalone="no"?>
<!DOCTYPE svg PUBLIC "-//W3C//DTD SVG 1.1//EN"
 "http://www.w3.org/Graphics/SVG/1.1/DTD/svg11.dtd">
<!-- Generated by graphviz version 2.38.0 (20140413.2041)
 -->
<!-- Title: prior_hessian::owen_bvn_cdf Pages: 1 -->
<svg width="508pt" height="59pt"
 viewBox="0.00 0.00 508.00 59.00" xmlns="http://www.w3.org/2000/svg" xmlns:xlink="http://www.w3.org/1999/xlink">
<g id="graph0" class="graph" transform="scale(1 1) rotate(0) translate(4 55)">
<title>prior_hessian::owen_bvn_cdf</title>
<polygon fill="white" stroke="none" points="-4,4 -4,-55 504,-55 504,4 -4,4"/>
<!-- Node1 -->
<g id="node1" class="node"><title>Node1</title>
<polygon fill="#bfbfbf" stroke="black" points="0,-0.5 0,-28.5 100,-28.5 100,-0.5 0,-0.5"/>
<text text-anchor="start" x="8" y="-17.3" font-family="Helvetica,sans-Serif" font-size="9.00">prior_hessian::owen</text>
<text text-anchor="middle" x="50" y="-7.3" font-family="Helvetica,sans-Serif" font-size="9.00">_bvn_cdf</text>
</g>
<!-- Node2 -->
<g id="node2" class="node"><title>Node2</title>
<g id="a_node2"><a xlink:href="namespaceprior__hessian.html#a8e1226cb7a7a644fe985a8530b3df07a" target="_top" xlink:title="prior_hessian::owen\l_b_integral">
<polygon fill="white" stroke="black" points="136,-0.5 136,-28.5 236,-28.5 236,-0.5 136,-0.5"/>
<text text-anchor="start" x="144" y="-17.3" font-family="Helvetica,sans-Serif" font-size="9.00">prior_hessian::owen</text>
<text text-anchor="middle" x="186" y="-7.3" font-family="Helvetica,sans-Serif" font-size="9.00">_b_integral</text>
</a>
</g>
</g>
<!-- Node1&#45;&gt;Node2 -->
<g id="edge1" class="edge"><title>Node1&#45;&gt;Node2</title>
<path fill="none" stroke="midnightblue" d="M100.136,-14.5C108.42,-14.5 117.097,-14.5 125.608,-14.5"/>
<polygon fill="midnightblue" stroke="midnightblue" points="125.87,-18.0001 135.87,-14.5 125.87,-11.0001 125.87,-18.0001"/>
</g>
<!-- Node3 -->
<g id="node3" class="node"><title>Node3</title>
<g id="a_node3"><a xlink:href="namespaceprior__hessian.html#a31c9cb28381da665bdef9a77b4858fc5" target="_top" xlink:title="prior_hessian::owen\l_t_integral">
<polygon fill="white" stroke="black" points="272,-22.5 272,-50.5 372,-50.5 372,-22.5 272,-22.5"/>
<text text-anchor="start" x="280" y="-39.3" font-family="Helvetica,sans-Serif" font-size="9.00">prior_hessian::owen</text>
<text text-anchor="middle" x="322" y="-29.3" font-family="Helvetica,sans-Serif" font-size="9.00">_t_integral</text>
</a>
</g>
</g>
<!-- Node2&#45;&gt;Node3 -->
<g id="edge2" class="edge"><title>Node2&#45;&gt;Node3</title>
<path fill="none" stroke="midnightblue" d="M236.136,-22.5671C244.511,-23.9421 253.288,-25.3831 261.889,-26.7952"/>
<polygon fill="midnightblue" stroke="midnightblue" points="261.435,-30.2675 271.87,-28.4339 262.569,-23.36 261.435,-30.2675"/>
</g>
<!-- Node4 -->
<g id="node4" class="node"><title>Node4</title>
<g id="a_node4"><a xlink:href="namespaceprior__hessian.html#ad0373e8965088cd5481ca019aed56a87" target="_top" xlink:title="prior_hessian::unit\l_normal_cdf">
<polygon fill="white" stroke="black" points="408,-0.5 408,-28.5 500,-28.5 500,-0.5 408,-0.5"/>
<text text-anchor="start" x="416" y="-17.3" font-family="Helvetica,sans-Serif" font-size="9.00">prior_hessian::unit</text>
<text text-anchor="middle" x="454" y="-7.3" font-family="Helvetica,sans-Serif" font-size="9.00">_normal_cdf</text>
</a>
</g>
</g>
<!-- Node2&#45;&gt;Node4 -->
<g id="edge4" class="edge"><title>Node2&#45;&gt;Node4</title>
<path fill="none" stroke="midnightblue" d="M236.44,-13.8201C248.102,-13.687 260.489,-13.5677 272,-13.5 316.444,-13.2386 327.556,-13.2257 372,-13.5 380.198,-13.5506 388.863,-13.63 397.357,-13.7225"/>
<polygon fill="midnightblue" stroke="midnightblue" points="397.55,-17.2249 407.59,-13.8407 397.631,-10.2253 397.55,-17.2249"/>
</g>
<!-- Node3&#45;&gt;Node4 -->
<g id="edge3" class="edge"><title>Node3&#45;&gt;Node4</title>
<path fill="none" stroke="midnightblue" d="M372.147,-28.1827C380.428,-26.7813 389.075,-25.3181 397.504,-23.8916"/>
<polygon fill="midnightblue" stroke="midnightblue" points="398.362,-27.2963 407.638,-22.1767 397.194,-20.3944 398.362,-27.2963"/>
</g>
</g>
</svg>
