<?xml version="1.0" encoding="UTF-8" standalone="no"?>
<!DOCTYPE svg PUBLIC "-//W3C//DTD SVG 1.1//EN"
 "http://www.w3.org/Graphics/SVG/1.1/DTD/svg11.dtd">
<!-- Generated by graphviz version 2.38.0 (20140413.2041)
 -->
<!-- Title: prior_hessian::owen_b_integral Pages: 1 -->
<svg width="372pt" height="59pt"
 viewBox="0.00 0.00 372.00 59.00" xmlns="http://www.w3.org/2000/svg" xmlns:xlink="http://www.w3.org/1999/xlink">
<g id="graph0" class="graph" transform="scale(1 1) rotate(0) translate(4 55)">
<title>prior_hessian::owen_b_integral</title>
<polygon fill="white" stroke="none" points="-4,4 -4,-55 368,-55 368,4 -4,4"/>
<!-- Node1 -->
<g id="node1" class="node"><title>Node1</title>
<polygon fill="#bfbfbf" stroke="black" points="0,-0.5 0,-28.5 100,-28.5 100,-0.5 0,-0.5"/>
<text text-anchor="start" x="8" y="-17.3" font-family="Helvetica,sans-Serif" font-size="9.00">prior_hessian::owen</text>
<text text-anchor="middle" x="50" y="-7.3" font-family="Helvetica,sans-Serif" font-size="9.00">_b_integral</text>
</g>
<!-- Node2 -->
<g id="node2" class="node"><title>Node2</title>
<g id="a_node2"><a xlink:href="namespaceprior__hessian.html#a31c9cb28381da665bdef9a77b4858fc5" target="_top" xlink:title="prior_hessian::owen\l_t_integral">
<polygon fill="white" stroke="black" points="136,-22.5 136,-50.5 236,-50.5 236,-22.5 136,-22.5"/>
<text text-anchor="start" x="144" y="-39.3" font-family="Helvetica,sans-Serif" font-size="9.00">prior_hessian::owen</text>
<text text-anchor="middle" x="186" y="-29.3" font-family="Helvetica,sans-Serif" font-size="9.00">_t_integral</text>
</a>
</g>
</g>
<!-- Node1&#45;&gt;Node2 -->
<g id="edge1" class="edge"><title>Node1&#45;&gt;Node2</title>
<path fill="none" stroke="midnightblue" d="M100.136,-22.5671C108.511,-23.9421 117.288,-25.3831 125.889,-26.7952"/>
<polygon fill="midnightblue" stroke="midnightblue" points="125.435,-30.2675 135.87,-28.4339 126.569,-23.36 125.435,-30.2675"/>
</g>
<!-- Node3 -->
<g id="node3" class="node"><title>Node3</title>
<g id="a_node3"><a xlink:href="namespaceprior__hessian.html#ad0373e8965088cd5481ca019aed56a87" target="_top" xlink:title="prior_hessian::unit\l_normal_cdf">
<polygon fill="white" stroke="black" points="272,-0.5 272,-28.5 364,-28.5 364,-0.5 272,-0.5"/>
<text text-anchor="start" x="280" y="-17.3" font-family="Helvetica,sans-Serif" font-size="9.00">prior_hessian::unit</text>
<text text-anchor="middle" x="318" y="-7.3" font-family="Helvetica,sans-Serif" font-size="9.00">_normal_cdf</text>
</a>
</g>
</g>
<!-- Node1&#45;&gt;Node3 -->
<g id="edge3" class="edge"><title>Node1&#45;&gt;Node3</title>
<path fill="none" stroke="midnightblue" d="M100.44,-13.8201C112.102,-13.687 124.489,-13.5677 136,-13.5 180.444,-13.2386 191.556,-13.2257 236,-13.5 244.198,-13.5506 252.863,-13.63 261.357,-13.7225"/>
<polygon fill="midnightblue" stroke="midnightblue" points="261.55,-17.2249 271.59,-13.8407 261.631,-10.2253 261.55,-17.2249"/>
</g>
<!-- Node2&#45;&gt;Node3 -->
<g id="edge2" class="edge"><title>Node2&#45;&gt;Node3</title>
<path fill="none" stroke="midnightblue" d="M236.147,-28.1827C244.428,-26.7813 253.075,-25.3181 261.504,-23.8916"/>
<polygon fill="midnightblue" stroke="midnightblue" points="262.362,-27.2963 271.638,-22.1767 261.194,-20.3944 262.362,-27.2963"/>
</g>
</g>
</svg>
