<?xml version="1.0" encoding="UTF-8" standalone="no"?>
<!DOCTYPE svg PUBLIC "-//W3C//DTD SVG 1.1//EN"
 "http://www.w3.org/Graphics/SVG/1.1/DTD/svg11.dtd">
<!-- Generated by graphviz version 2.38.0 (20140413.2041)
 -->
<!-- Title: prior_hessian::polylog::polylog Pages: 1 -->
<!--zoomable 178 -->
<svg id="main" version="1.1" xmlns="http://www.w3.org/2000/svg" xmlns:xlink="http://www.w3.org/1999/xlink" xml:space="preserve" onload="init(evt)">
<style type="text/css"><![CDATA[
.edge:hover path { stroke: red; }
.edge:hover polygon { stroke: red; fill: red; }
]]></style>
<script type="text/javascript"><![CDATA[
var edges = document.getElementsByTagName('g');
if (edges && edges.length) {
  for (var i=0;i<edges.length;i++) {
    if (edges[i].id.substr(0,4)=='edge') {
      edges[i].setAttribute('class','edge');
    }
  }
}
]]></script>
        <defs>
                <circle id="rim" cx="0" cy="0" r="7"/>
                <circle id="rim2" cx="0" cy="0" r="3.5"/>
                <g id="zoomPlus">
                        <use xlink:href="#rim" fill="#404040">
                                <set attributeName="fill" to="#808080" begin="zoomplus.mouseover" end="zoomplus.mouseout"/>
                        </use>
                        <path d="M-4,0h8M0,-4v8" fill="none" stroke="white" stroke-width="1.5" pointer-events="none"/>
                </g>
                <g id="zoomMin">
                        <use xlink:href="#rim" fill="#404040">
                                <set attributeName="fill" to="#808080" begin="zoomminus.mouseover" end="zoomminus.mouseout"/>
                        </use>
                        <path d="M-4,0h8" fill="none" stroke="white" stroke-width="1.5" pointer-events="none"/>
                </g>
                <g id="dirArrow">
                        <path fill="none" stroke="white" stroke-width="1.5" d="M0,-3.0v7 M-2.5,-0.5L0,-3.0L2.5,-0.5"/>
                </g>
               <g id="resetDef">
                       <use xlink:href="#rim2" fill="#404040">
                               <set attributeName="fill" to="#808080" begin="reset.mouseover" end="reset.mouseout"/>
                       </use>
               </g>
        </defs>

<script type="text/javascript">
var viewWidth = 621;
var viewHeight = 178;
var sectionId = 'dynsection-1';
</script>
<script xlink:href="svgpan.js"/>
<svg id="graph" class="graph">
<g id="viewport">
<title>prior_hessian::polylog::polylog</title>
<polygon fill="white" stroke="none" points="-4,4 -4,-174 617,-174 617,4 -4,4"/>
<!-- Node1 -->
<g id="node1" class="node"><title>Node1</title>
<polygon fill="#bfbfbf" stroke="black" points="0,-70.5 0,-98.5 107,-98.5 107,-70.5 0,-70.5"/>
<text text-anchor="start" x="8" y="-87.3" font-family="Helvetica,sans-Serif" font-size="9.00">prior_hessian::polylog</text>
<text text-anchor="middle" x="53.5" y="-77.3" font-family="Helvetica,sans-Serif" font-size="9.00">::polylog</text>
</g>
<!-- Node2 -->
<g id="node2" class="node"><title>Node2</title>
<g id="a_node2"><a xlink:href="classprior__hessian_1_1AMHCopula.html#a19aecc89d6a1d6c46aa595a13999cfb2" target="_top" xlink:title="prior_hessian::AMHCopula\l::d1_igen">
<polygon fill="white" stroke="black" points="143,-141.5 143,-169.5 271,-169.5 271,-141.5 143,-141.5"/>
<text text-anchor="start" x="151" y="-158.3" font-family="Helvetica,sans-Serif" font-size="9.00">prior_hessian::AMHCopula</text>
<text text-anchor="middle" x="207" y="-148.3" font-family="Helvetica,sans-Serif" font-size="9.00">::d1_igen</text>
</a>
</g>
</g>
<!-- Node1&#45;&gt;Node2 -->
<g id="edge1" class="edge"><title>Node1&#45;&gt;Node2</title>
<path fill="none" stroke="midnightblue" d="M86.7806,-103.493C103.302,-112.829 123.908,-123.894 143,-132.5 149.9,-135.61 157.357,-138.624 164.644,-141.389"/>
<polygon fill="midnightblue" stroke="midnightblue" points="88.4772,-100.431 78.0579,-98.5101 85.0051,-106.509 88.4772,-100.431"/>
</g>
<!-- Node5 -->
<g id="node5" class="node"><title>Node5</title>
<g id="a_node5"><a xlink:href="classprior__hessian_1_1AMHCopula.html#a9fc68a651139c1c7d28a8144562a09f3" target="_top" xlink:title="prior_hessian::AMHCopula\l::ddim_gen">
<polygon fill="white" stroke="black" points="143,-94.5 143,-122.5 271,-122.5 271,-94.5 143,-94.5"/>
<text text-anchor="start" x="151" y="-111.3" font-family="Helvetica,sans-Serif" font-size="9.00">prior_hessian::AMHCopula</text>
<text text-anchor="middle" x="207" y="-101.3" font-family="Helvetica,sans-Serif" font-size="9.00">::ddim_gen</text>
</a>
</g>
</g>
<!-- Node1&#45;&gt;Node5 -->
<g id="edge5" class="edge"><title>Node1&#45;&gt;Node5</title>
<path fill="none" stroke="midnightblue" d="M116.958,-94.3944C125.502,-95.7479 134.28,-97.1383 142.836,-98.4939"/>
<polygon fill="midnightblue" stroke="midnightblue" points="117.487,-90.9345 107.062,-92.8267 116.391,-97.8483 117.487,-90.9345"/>
</g>
<!-- Node6 -->
<g id="node6" class="node"><title>Node6</title>
<g id="a_node6"><a xlink:href="namespaceprior__hessian_1_1polylog.html#a91e8397a4e38129284f72cb4ff0fd1a7" target="_top" xlink:title="prior_hessian::polylog\l::eulerian_polynomial\&lt; 9 \&gt;">
<polygon fill="white" stroke="black" points="144.5,-47.5 144.5,-75.5 269.5,-75.5 269.5,-47.5 144.5,-47.5"/>
<text text-anchor="start" x="152.5" y="-64.3" font-family="Helvetica,sans-Serif" font-size="9.00">prior_hessian::polylog</text>
<text text-anchor="middle" x="207" y="-54.3" font-family="Helvetica,sans-Serif" font-size="9.00">::eulerian_polynomial&lt; 9 &gt;</text>
</a>
</g>
</g>
<!-- Node1&#45;&gt;Node6 -->
<g id="edge8" class="edge"><title>Node1&#45;&gt;Node6</title>
<path fill="none" stroke="midnightblue" d="M117.113,-74.9944C126.137,-73.6244 135.417,-72.2155 144.421,-70.8486"/>
<polygon fill="midnightblue" stroke="midnightblue" points="116.424,-71.5589 107.062,-76.5203 117.474,-78.4796 116.424,-71.5589"/>
</g>
<!-- Node7 -->
<g id="node7" class="node"><title>Node7</title>
<g id="a_node7"><a xlink:href="namespaceprior__hessian_1_1polylog.html#a461e69d75c8338b404b3b5261b1ab626" target="_top" xlink:title="prior_hessian::polylog\l::polylog\&lt; 1 \&gt;">
<polygon fill="white" stroke="black" points="153.5,-0.5 153.5,-28.5 260.5,-28.5 260.5,-0.5 153.5,-0.5"/>
<text text-anchor="start" x="161.5" y="-17.3" font-family="Helvetica,sans-Serif" font-size="9.00">prior_hessian::polylog</text>
<text text-anchor="middle" x="207" y="-7.3" font-family="Helvetica,sans-Serif" font-size="9.00">::polylog&lt; 1 &gt;</text>
</a>
</g>
</g>
<!-- Node1&#45;&gt;Node7 -->
<g id="edge9" class="edge"><title>Node1&#45;&gt;Node7</title>
<path fill="none" stroke="midnightblue" d="M88.7808,-65.5066C105.003,-56.8238 124.774,-46.6756 143,-38.5 150.689,-35.051 159.036,-31.6436 167.063,-28.5273"/>
<polygon fill="midnightblue" stroke="midnightblue" points="86.8129,-62.5915 79.6779,-70.4236 90.1398,-68.7505 86.8129,-62.5915"/>
</g>
<!-- Node3 -->
<g id="node3" class="node"><title>Node3</title>
<g id="a_node3"><a xlink:href="classprior__hessian_1_1AMHCopula.html#ad1ce11681554712db7a56bb4cb54c3e9" target="_top" xlink:title="prior_hessian::AMHCopula::llh">
<polygon fill="white" stroke="black" points="307,-122.5 307,-140.5 449,-140.5 449,-122.5 307,-122.5"/>
<text text-anchor="middle" x="378" y="-129.3" font-family="Helvetica,sans-Serif" font-size="9.00">prior_hessian::AMHCopula::llh</text>
</a>
</g>
</g>
<!-- Node2&#45;&gt;Node3 -->
<g id="edge2" class="edge"><title>Node2&#45;&gt;Node3</title>
<path fill="none" stroke="midnightblue" d="M281.531,-145.058C292.187,-143.544 303.08,-141.998 313.516,-140.516"/>
<polygon fill="midnightblue" stroke="midnightblue" points="280.819,-141.624 271.41,-146.495 281.803,-148.554 280.819,-141.624"/>
</g>
<!-- Node4 -->
<g id="node4" class="node"><title>Node4</title>
<g id="a_node4"><a xlink:href="classprior__hessian_1_1AMHCopula.html#a5f5ab047fa0c58b93e7b8e072bc9c682" target="_top" xlink:title="prior_hessian::AMHCopula\l::set_params_iter">
<polygon fill="white" stroke="black" points="485,-117.5 485,-145.5 613,-145.5 613,-117.5 485,-117.5"/>
<text text-anchor="start" x="493" y="-134.3" font-family="Helvetica,sans-Serif" font-size="9.00">prior_hessian::AMHCopula</text>
<text text-anchor="middle" x="549" y="-124.3" font-family="Helvetica,sans-Serif" font-size="9.00">::set_params_iter</text>
</a>
</g>
</g>
<!-- Node2&#45;&gt;Node4 -->
<g id="edge4" class="edge"><title>Node2&#45;&gt;Node4</title>
<path fill="none" stroke="midnightblue" d="M281.372,-157.183C329.226,-157.491 392.973,-156.415 449,-150.5 460.661,-149.269 472.999,-147.381 484.862,-145.264"/>
<polygon fill="midnightblue" stroke="midnightblue" points="281.134,-153.681 271.105,-157.094 281.074,-160.68 281.134,-153.681"/>
</g>
<!-- Node3&#45;&gt;Node4 -->
<g id="edge3" class="edge"><title>Node3&#45;&gt;Node4</title>
<path fill="none" stroke="midnightblue" d="M459.22,-131.5C467.794,-131.5 476.427,-131.5 484.765,-131.5"/>
<polygon fill="midnightblue" stroke="midnightblue" points="459.203,-128 449.203,-131.5 459.203,-135 459.203,-128"/>
</g>
<!-- Node5&#45;&gt;Node3 -->
<g id="edge6" class="edge"><title>Node5&#45;&gt;Node3</title>
<path fill="none" stroke="midnightblue" d="M281.451,-118.496C291.176,-119.82 301.099,-121.17 310.695,-122.476"/>
<polygon fill="midnightblue" stroke="midnightblue" points="281.791,-115.01 271.41,-117.13 280.847,-121.946 281.791,-115.01"/>
</g>
<!-- Node5&#45;&gt;Node4 -->
<g id="edge7" class="edge"><title>Node5&#45;&gt;Node4</title>
<path fill="none" stroke="midnightblue" d="M281.353,-107.002C329.199,-106.768 392.945,-107.859 449,-113.5 460.646,-114.672 472.977,-116.463 484.837,-118.47"/>
<polygon fill="midnightblue" stroke="midnightblue" points="281.063,-103.504 271.087,-107.073 281.111,-110.503 281.063,-103.504"/>
</g>
</g>
</svg>
        <g id="navigator" transform="translate(0 0)" fill="#404254">
                <rect fill="#f2f5e9" fill-opacity="0.5" stroke="#606060" stroke-width=".5" x="0" y="0" width="60" height="60"/>
                <use id="zoomplus" xlink:href="#zoomPlus" x="17" y="9" onmousedown="handleZoom(evt,'in')"/>
                <use id="zoomminus" xlink:href="#zoomMin" x="42" y="9" onmousedown="handleZoom(evt,'out')"/>
                <use id="reset" xlink:href="#resetDef" x="30" y="36" onmousedown="handleReset()"/>
                <g id="arrowUp" xlink:href="#dirArrow" transform="translate(30 24)" onmousedown="handlePan(0,-1)">
                  <use xlink:href="#rim" fill="#404040">
                        <set attributeName="fill" to="#808080" begin="arrowUp.mouseover" end="arrowUp.mouseout"/>
                  </use>
                  <path fill="none" stroke="white" stroke-width="1.5" d="M0,-3.0v7 M-2.5,-0.5L0,-3.0L2.5,-0.5"/>
                </g>
                <g id="arrowRight" xlink:href="#dirArrow" transform="rotate(90) translate(36 -43)" onmousedown="handlePan(1,0)">
                  <use xlink:href="#rim" fill="#404040">
                        <set attributeName="fill" to="#808080" begin="arrowRight.mouseover" end="arrowRight.mouseout"/>
                  </use>
                  <path fill="none" stroke="white" stroke-width="1.5" d="M0,-3.0v7 M-2.5,-0.5L0,-3.0L2.5,-0.5"/>
                </g>
                <g id="arrowDown" xlink:href="#dirArrow" transform="rotate(180) translate(-30 -48)" onmousedown="handlePan(0,1)">
                  <use xlink:href="#rim" fill="#404040">
                        <set attributeName="fill" to="#808080" begin="arrowDown.mouseover" end="arrowDown.mouseout"/>
                  </use>
                  <path fill="none" stroke="white" stroke-width="1.5" d="M0,-3.0v7 M-2.5,-0.5L0,-3.0L2.5,-0.5"/>
                </g>
                <g id="arrowLeft" xlink:href="#dirArrow" transform="rotate(270) translate(-36 17)" onmousedown="handlePan(-1,0)">
                  <use xlink:href="#rim" fill="#404040">
                        <set attributeName="fill" to="#808080" begin="arrowLeft.mouseover" end="arrowLeft.mouseout"/>
                  </use>
                  <path fill="none" stroke="white" stroke-width="1.5" d="M0,-3.0v7 M-2.5,-0.5L0,-3.0L2.5,-0.5"/>
                </g>
        </g>
        <svg viewBox="0 0 15 15" width="100%" height="30px" preserveAspectRatio="xMaxYMin meet">
         <g id="arrow_out" transform="scale(0.3 0.3)">
          <a xlink:href="namespaceprior__hessian_1_1polylog_abb5fc2ad3b1509f49ea4b2fc05d916bb_icgraph_org.svg" target="_base">
           <rect id="button" ry="5" rx="5" y="6" x="6" height="38" width="38"
                fill="#f2f5e9" fill-opacity="0.5" stroke="#606060" stroke-width="1.0"/>
           <path id="arrow"
             d="M 11.500037,31.436501 C 11.940474,20.09759 22.043105,11.32322 32.158766,21.979434 L 37.068811,17.246167 C 37.068811,17.246167 37.088388,32 37.088388,32 L 22.160133,31.978069 C 22.160133,31.978069 26.997745,27.140456 26.997745,27.140456 C 18.528582,18.264221 13.291696,25.230495 11.500037,31.436501 z"
             style="fill:#404040;"/>
          </a>
         </g>
        </svg>
</svg>
