<?xml version="1.0" encoding="UTF-8" standalone="no"?>
<!DOCTYPE svg PUBLIC "-//W3C//DTD SVG 1.1//EN"
 "http://www.w3.org/Graphics/SVG/1.1/DTD/svg11.dtd">
<!-- Generated by graphviz version 2.38.0 (20140413.2041)
 -->
<!-- Title: prior_hessian::operator&lt;&lt; Pages: 1 -->
<svg width="763pt" height="97pt"
 viewBox="0.00 0.00 763.00 97.00" xmlns="http://www.w3.org/2000/svg" xmlns:xlink="http://www.w3.org/1999/xlink">
<g id="graph0" class="graph" transform="scale(1 1) rotate(0) translate(4 93)">
<title>prior_hessian::operator&lt;&lt;</title>
<polygon fill="white" stroke="none" points="-4,4 -4,-93 759,-93 759,4 -4,4"/>
<!-- Node1 -->
<g id="node1" class="node"><title>Node1</title>
<polygon fill="#bfbfbf" stroke="black" points="0,-22.5 0,-40.5 122,-40.5 122,-22.5 0,-22.5"/>
<text text-anchor="middle" x="61" y="-29.3" font-family="Helvetica,sans-Serif" font-size="9.00">prior_hessian::operator&lt;&lt;</text>
</g>
<!-- Node2 -->
<g id="node2" class="node"><title>Node2</title>
<g id="a_node2"><a xlink:href="classprior__hessian_1_1CompositeDist.html#a38c4fdacf927824117d202422b04013c" target="_top" xlink:title="prior_hessian::Composite\lDist::set_param_names">
<polygon fill="white" stroke="black" points="158,-17.5 158,-45.5 280,-45.5 280,-17.5 158,-17.5"/>
<text text-anchor="start" x="166" y="-34.3" font-family="Helvetica,sans-Serif" font-size="9.00">prior_hessian::Composite</text>
<text text-anchor="middle" x="219" y="-24.3" font-family="Helvetica,sans-Serif" font-size="9.00">Dist::set_param_names</text>
</a>
</g>
</g>
<!-- Node1&#45;&gt;Node2 -->
<g id="edge1" class="edge"><title>Node1&#45;&gt;Node2</title>
<path fill="none" stroke="midnightblue" d="M132.538,-31.5C140.99,-31.5 149.56,-31.5 157.847,-31.5"/>
<polygon fill="midnightblue" stroke="midnightblue" points="132.314,-28.0001 122.314,-31.5 132.314,-35.0001 132.314,-28.0001"/>
</g>
<!-- Node3 -->
<g id="node3" class="node"><title>Node3</title>
<g id="a_node3"><a xlink:href="classprior__hessian_1_1CompositeDist.html#ace0aaa3698d76aba6a47f9061ff98902" target="_top" xlink:title="prior_hessian::Composite\lDist::rename_param">
<polygon fill="white" stroke="black" points="316,-60.5 316,-88.5 438,-88.5 438,-60.5 316,-60.5"/>
<text text-anchor="start" x="324" y="-77.3" font-family="Helvetica,sans-Serif" font-size="9.00">prior_hessian::Composite</text>
<text text-anchor="middle" x="377" y="-67.3" font-family="Helvetica,sans-Serif" font-size="9.00">Dist::rename_param</text>
</a>
</g>
</g>
<!-- Node2&#45;&gt;Node3 -->
<g id="edge2" class="edge"><title>Node2&#45;&gt;Node3</title>
<path fill="none" stroke="midnightblue" d="M281.013,-48.3178C295.592,-52.3362 311.002,-56.584 325.072,-60.462"/>
<polygon fill="midnightblue" stroke="midnightblue" points="281.651,-44.863 271.08,-45.5798 279.791,-51.6114 281.651,-44.863"/>
</g>
<!-- Node4 -->
<g id="node4" class="node"><title>Node4</title>
<g id="a_node4"><a xlink:href="classprior__hessian_1_1CompositeDist.html#a927fed39b2b4e87714c728d6e7b11e8b" target="_top" xlink:title="prior_hessian::Composite\lDist::params_components">
<polygon fill="white" stroke="black" points="474,-22.5 474,-50.5 597,-50.5 597,-22.5 474,-22.5"/>
<text text-anchor="start" x="482" y="-39.3" font-family="Helvetica,sans-Serif" font-size="9.00">prior_hessian::Composite</text>
<text text-anchor="middle" x="535.5" y="-29.3" font-family="Helvetica,sans-Serif" font-size="9.00">Dist::params_components</text>
</a>
</g>
</g>
<!-- Node2&#45;&gt;Node4 -->
<g id="edge5" class="edge"><title>Node2&#45;&gt;Node4</title>
<path fill="none" stroke="midnightblue" d="M290.312,-32.6178C345.461,-33.4946 421.415,-34.7021 473.902,-35.5366"/>
<polygon fill="midnightblue" stroke="midnightblue" points="290.321,-29.1176 280.267,-32.4581 290.21,-36.1168 290.321,-29.1176"/>
</g>
<!-- Node5 -->
<g id="node5" class="node"><title>Node5</title>
<g id="a_node5"><a xlink:href="classprior__hessian_1_1CompositeDist.html#a24bac25ae8c0330b8a3aacadffc9d5ae" target="_top" xlink:title="prior_hessian::Composite\lDist::rllh_components">
<polygon fill="white" stroke="black" points="633,-0.5 633,-28.5 755,-28.5 755,-0.5 633,-0.5"/>
<text text-anchor="start" x="641" y="-17.3" font-family="Helvetica,sans-Serif" font-size="9.00">prior_hessian::Composite</text>
<text text-anchor="middle" x="694" y="-7.3" font-family="Helvetica,sans-Serif" font-size="9.00">Dist::rllh_components</text>
</a>
</g>
</g>
<!-- Node2&#45;&gt;Node5 -->
<g id="edge6" class="edge"><title>Node2&#45;&gt;Node5</title>
<path fill="none" stroke="midnightblue" d="M290.47,-24.8096C341.403,-20.3206 411.884,-14.82 474,-12.5 528.629,-10.4597 542.336,-11.9306 597,-12.5 608.585,-12.6207 620.956,-12.8232 632.831,-13.0543"/>
<polygon fill="midnightblue" stroke="midnightblue" points="289.88,-21.3481 280.23,-25.7216 290.502,-28.3205 289.88,-21.3481"/>
</g>
<!-- Node3&#45;&gt;Node4 -->
<g id="edge3" class="edge"><title>Node3&#45;&gt;Node4</title>
<path fill="none" stroke="midnightblue" d="M445.635,-58.0775C455.967,-55.5688 466.55,-52.999 476.646,-50.5475"/>
<polygon fill="midnightblue" stroke="midnightblue" points="444.722,-54.6974 435.83,-60.4582 446.374,-61.4997 444.722,-54.6974"/>
</g>
<!-- Node4&#45;&gt;Node5 -->
<g id="edge4" class="edge"><title>Node4&#45;&gt;Node5</title>
<path fill="none" stroke="midnightblue" d="M607.059,-26.5812C615.692,-25.3676 624.452,-24.1362 632.912,-22.9469"/>
<polygon fill="midnightblue" stroke="midnightblue" points="606.422,-23.1362 597.007,-27.9942 607.397,-30.068 606.422,-23.1362"/>
</g>
</g>
</svg>
