<?xml version="1.0" encoding="UTF-8" standalone="no"?>
<!DOCTYPE svg PUBLIC "-//W3C//DTD SVG 1.1//EN"
 "http://www.w3.org/Graphics/SVG/1.1/DTD/svg11.dtd">
<!-- Generated by graphviz version 2.38.0 (20140413.2041)
 -->
<!-- Title: prior_hessian::owen_t_integral Pages: 1 -->
<svg width="541pt" height="84pt"
 viewBox="0.00 0.00 541.00 84.00" xmlns="http://www.w3.org/2000/svg" xmlns:xlink="http://www.w3.org/1999/xlink">
<g id="graph0" class="graph" transform="scale(1 1) rotate(0) translate(4 80)">
<title>prior_hessian::owen_t_integral</title>
<polygon fill="white" stroke="none" points="-4,4 -4,-80 537,-80 537,4 -4,4"/>
<!-- Node1 -->
<g id="node1" class="node"><title>Node1</title>
<polygon fill="#bfbfbf" stroke="black" points="0,-21.5 0,-49.5 100,-49.5 100,-21.5 0,-21.5"/>
<text text-anchor="start" x="8" y="-38.3" font-family="Helvetica,sans-Serif" font-size="9.00">prior_hessian::owen</text>
<text text-anchor="middle" x="50" y="-28.3" font-family="Helvetica,sans-Serif" font-size="9.00">_t_integral</text>
</g>
<!-- Node2 -->
<g id="node2" class="node"><title>Node2</title>
<g id="a_node2"><a xlink:href="namespaceprior__hessian.html#a8e1226cb7a7a644fe985a8530b3df07a" target="_top" xlink:title="prior_hessian::owen\l_b_integral">
<polygon fill="white" stroke="black" points="136,-43.5 136,-71.5 236,-71.5 236,-43.5 136,-43.5"/>
<text text-anchor="start" x="144" y="-60.3" font-family="Helvetica,sans-Serif" font-size="9.00">prior_hessian::owen</text>
<text text-anchor="middle" x="186" y="-50.3" font-family="Helvetica,sans-Serif" font-size="9.00">_b_integral</text>
</a>
</g>
</g>
<!-- Node1&#45;&gt;Node2 -->
<g id="edge1" class="edge"><title>Node1&#45;&gt;Node2</title>
<path fill="none" stroke="midnightblue" d="M110.117,-45.2058C118.718,-46.618 127.495,-48.0589 135.87,-49.4339"/>
<polygon fill="midnightblue" stroke="midnightblue" points="110.571,-41.7335 100.136,-43.5671 109.437,-48.641 110.571,-41.7335"/>
</g>
<!-- Node5 -->
<g id="node5" class="node"><title>Node5</title>
<g id="a_node5"><a xlink:href="namespaceprior__hessian.html#a12c3a5763e9fbc82e2fb39b8c0273cda" target="_top" xlink:title="prior_hessian::owen\l_t_integral">
<polygon fill="white" stroke="black" points="272,-0.5 272,-28.5 372,-28.5 372,-0.5 272,-0.5"/>
<text text-anchor="start" x="280" y="-17.3" font-family="Helvetica,sans-Serif" font-size="9.00">prior_hessian::owen</text>
<text text-anchor="middle" x="322" y="-7.3" font-family="Helvetica,sans-Serif" font-size="9.00">_t_integral</text>
</a>
</g>
</g>
<!-- Node1&#45;&gt;Node5 -->
<g id="edge5" class="edge"><title>Node1&#45;&gt;Node5</title>
<path fill="none" stroke="midnightblue" d="M110.226,-30.8935C158.608,-27.1305 226.195,-21.8737 271.674,-18.3365"/>
<polygon fill="midnightblue" stroke="midnightblue" points="109.907,-27.4077 100.208,-31.6727 110.45,-34.3866 109.907,-27.4077"/>
</g>
<!-- Node3 -->
<g id="node3" class="node"><title>Node3</title>
<g id="a_node3"><a xlink:href="namespaceprior__hessian.html#a5f7ff26e783adec5fd8ba5e290a7c892" target="_top" xlink:title="prior_hessian::owen\l_bvn_cdf">
<polygon fill="white" stroke="black" points="272,-47.5 272,-75.5 372,-75.5 372,-47.5 272,-47.5"/>
<text text-anchor="start" x="280" y="-64.3" font-family="Helvetica,sans-Serif" font-size="9.00">prior_hessian::owen</text>
<text text-anchor="middle" x="322" y="-54.3" font-family="Helvetica,sans-Serif" font-size="9.00">_bvn_cdf</text>
</a>
</g>
</g>
<!-- Node2&#45;&gt;Node3 -->
<g id="edge2" class="edge"><title>Node2&#45;&gt;Node3</title>
<path fill="none" stroke="midnightblue" d="M246.398,-59.2731C254.909,-59.5271 263.586,-59.7862 271.87,-60.0334"/>
<polygon fill="midnightblue" stroke="midnightblue" points="246.236,-55.7668 236.136,-58.9667 246.027,-62.7636 246.236,-55.7668"/>
</g>
<!-- Node2&#45;&gt;Node5 -->
<g id="edge4" class="edge"><title>Node2&#45;&gt;Node5</title>
<path fill="none" stroke="midnightblue" d="M240.444,-40.35C252.58,-36.4557 265.335,-32.3628 277.025,-28.6114"/>
<polygon fill="midnightblue" stroke="midnightblue" points="239.329,-37.032 230.877,-43.4202 241.468,-43.6973 239.329,-37.032"/>
</g>
<!-- Node4 -->
<g id="node4" class="node"><title>Node4</title>
<g id="a_node4"><a xlink:href="classprior__hessian_1_1MultivariateNormalDist.html#aa6e75faa3fd9a23d7194760a713d1563" target="_top" xlink:title="prior_hessian::Multivariate\lNormalDist::cdf">
<polygon fill="white" stroke="black" points="408,-47.5 408,-75.5 533,-75.5 533,-47.5 408,-47.5"/>
<text text-anchor="start" x="416" y="-64.3" font-family="Helvetica,sans-Serif" font-size="9.00">prior_hessian::Multivariate</text>
<text text-anchor="middle" x="470.5" y="-54.3" font-family="Helvetica,sans-Serif" font-size="9.00">NormalDist::cdf</text>
</a>
</g>
</g>
<!-- Node3&#45;&gt;Node4 -->
<g id="edge3" class="edge"><title>Node3&#45;&gt;Node4</title>
<path fill="none" stroke="midnightblue" d="M382.328,-61.5C390.769,-61.5 399.467,-61.5 407.95,-61.5"/>
<polygon fill="midnightblue" stroke="midnightblue" points="382.19,-58.0001 372.19,-61.5 382.19,-65.0001 382.19,-58.0001"/>
</g>
</g>
</svg>
