<?xml version="1.0" encoding="UTF-8" standalone="no"?>
<!DOCTYPE svg PUBLIC "-//W3C//DTD SVG 1.1//EN"
 "http://www.w3.org/Graphics/SVG/1.1/DTD/svg11.dtd">
<!-- Generated by graphviz version 2.38.0 (20140413.2041)
 -->
<!-- Title: prior_hessian::mc_mvn_cdf_core Pages: 1 -->
<svg width="248pt" height="84pt"
 viewBox="0.00 0.00 248.00 84.00" xmlns="http://www.w3.org/2000/svg" xmlns:xlink="http://www.w3.org/1999/xlink">
<g id="graph0" class="graph" transform="scale(1 1) rotate(0) translate(4 80)">
<title>prior_hessian::mc_mvn_cdf_core</title>
<polygon fill="white" stroke="none" points="-4,4 -4,-80 244,-80 244,4 -4,4"/>
<!-- Node1 -->
<g id="node1" class="node"><title>Node1</title>
<polygon fill="#bfbfbf" stroke="black" points="0,-23.5 0,-51.5 112,-51.5 112,-23.5 0,-23.5"/>
<text text-anchor="start" x="8" y="-40.3" font-family="Helvetica,sans-Serif" font-size="9.00">prior_hessian::mc_mvn</text>
<text text-anchor="middle" x="56" y="-30.3" font-family="Helvetica,sans-Serif" font-size="9.00">_cdf_core</text>
</g>
<!-- Node2 -->
<g id="node2" class="node"><title>Node2</title>
<g id="a_node2"><a xlink:href="namespaceprior__hessian.html#ad0373e8965088cd5481ca019aed56a87" target="_top" xlink:title="prior_hessian::unit\l_normal_cdf">
<polygon fill="white" stroke="black" points="148,-47.5 148,-75.5 240,-75.5 240,-47.5 148,-47.5"/>
<text text-anchor="start" x="156" y="-64.3" font-family="Helvetica,sans-Serif" font-size="9.00">prior_hessian::unit</text>
<text text-anchor="middle" x="194" y="-54.3" font-family="Helvetica,sans-Serif" font-size="9.00">_normal_cdf</text>
</a>
</g>
</g>
<!-- Node1&#45;&gt;Node2 -->
<g id="edge1" class="edge"><title>Node1&#45;&gt;Node2</title>
<path fill="none" stroke="midnightblue" d="M112.316,-47.2617C120.682,-48.7379 129.312,-50.261 137.677,-51.7372"/>
<polygon fill="midnightblue" stroke="midnightblue" points="137.258,-55.2172 147.714,-53.5083 138.474,-48.3237 137.258,-55.2172"/>
</g>
<!-- Node3 -->
<g id="node3" class="node"><title>Node3</title>
<g id="a_node3"><a xlink:href="namespaceprior__hessian.html#ab76971b5aff40010d5c63fba454349b9" target="_top" xlink:title="prior_hessian::unit\l_normal_icdf">
<polygon fill="white" stroke="black" points="148,-0.5 148,-28.5 240,-28.5 240,-0.5 148,-0.5"/>
<text text-anchor="start" x="156" y="-17.3" font-family="Helvetica,sans-Serif" font-size="9.00">prior_hessian::unit</text>
<text text-anchor="middle" x="194" y="-7.3" font-family="Helvetica,sans-Serif" font-size="9.00">_normal_icdf</text>
</a>
</g>
</g>
<!-- Node1&#45;&gt;Node3 -->
<g id="edge2" class="edge"><title>Node1&#45;&gt;Node3</title>
<path fill="none" stroke="midnightblue" d="M112.316,-28.145C120.682,-26.7303 129.312,-25.2707 137.677,-23.856"/>
<polygon fill="midnightblue" stroke="midnightblue" points="138.438,-27.2772 147.714,-22.1587 137.27,-20.3752 138.438,-27.2772"/>
</g>
</g>
</svg>
