<?xml version="1.0" encoding="UTF-8" standalone="no"?>
<!DOCTYPE svg PUBLIC "-//W3C//DTD SVG 1.1//EN"
 "http://www.w3.org/Graphics/SVG/1.1/DTD/svg11.dtd">
<!-- Generated by graphviz version 2.38.0 (20140413.2041)
 -->
<!-- Title: prior_hessian::donnelly_bvn_integral Pages: 1 -->
<svg width="270pt" height="84pt"
 viewBox="0.00 0.00 270.00 84.00" xmlns="http://www.w3.org/2000/svg" xmlns:xlink="http://www.w3.org/1999/xlink">
<g id="graph0" class="graph" transform="scale(1 1) rotate(0) translate(4 80)">
<title>prior_hessian::donnelly_bvn_integral</title>
<polygon fill="white" stroke="none" points="-4,4 -4,-80 266,-80 266,4 -4,4"/>
<!-- Node1 -->
<g id="node1" class="node"><title>Node1</title>
<polygon fill="#bfbfbf" stroke="black" points="0,-23.5 0,-51.5 113,-51.5 113,-23.5 0,-23.5"/>
<text text-anchor="start" x="8" y="-40.3" font-family="Helvetica,sans-Serif" font-size="9.00">prior_hessian::donnelly</text>
<text text-anchor="middle" x="56.5" y="-30.3" font-family="Helvetica,sans-Serif" font-size="9.00">_bvn_integral</text>
</g>
<!-- Node2 -->
<g id="node2" class="node"><title>Node2</title>
<g id="a_node2"><a xlink:href="namespaceprior__hessian.html#a0f8b4ec070533193c3f402bbcc2b8b2b" target="_top" xlink:title="prior_hessian::donnelly\l_bvn_cdf">
<polygon fill="white" stroke="black" points="149,-47.5 149,-75.5 262,-75.5 262,-47.5 149,-47.5"/>
<text text-anchor="start" x="157" y="-64.3" font-family="Helvetica,sans-Serif" font-size="9.00">prior_hessian::donnelly</text>
<text text-anchor="middle" x="205.5" y="-54.3" font-family="Helvetica,sans-Serif" font-size="9.00">_bvn_cdf</text>
</a>
</g>
</g>
<!-- Node1&#45;&gt;Node2 -->
<g id="edge1" class="edge"><title>Node1&#45;&gt;Node2</title>
<path fill="none" stroke="midnightblue" d="M123.078,-48.2065C131.681,-49.6111 140.43,-51.0396 148.847,-52.4138"/>
<polygon fill="midnightblue" stroke="midnightblue" points="123.508,-44.7305 113.074,-46.5734 122.38,-51.639 123.508,-44.7305"/>
</g>
<!-- Node3 -->
<g id="node3" class="node"><title>Node3</title>
<g id="a_node3"><a xlink:href="namespaceprior__hessian.html#a12c3a5763e9fbc82e2fb39b8c0273cda" target="_top" xlink:title="prior_hessian::owen\l_t_integral">
<polygon fill="white" stroke="black" points="155.5,-0.5 155.5,-28.5 255.5,-28.5 255.5,-0.5 155.5,-0.5"/>
<text text-anchor="start" x="163.5" y="-17.3" font-family="Helvetica,sans-Serif" font-size="9.00">prior_hessian::owen</text>
<text text-anchor="middle" x="205.5" y="-7.3" font-family="Helvetica,sans-Serif" font-size="9.00">_t_integral</text>
</a>
</g>
</g>
<!-- Node1&#45;&gt;Node3 -->
<g id="edge2" class="edge"><title>Node1&#45;&gt;Node3</title>
<path fill="none" stroke="midnightblue" d="M123.245,-27.2134C133.956,-25.5375 144.888,-23.827 155.12,-22.2262"/>
<polygon fill="midnightblue" stroke="midnightblue" points="122.413,-23.8009 113.074,-28.8047 123.495,-30.7167 122.413,-23.8009"/>
</g>
</g>
</svg>
