<?xml version="1.0" encoding="UTF-8" standalone="no"?>
<!DOCTYPE svg PUBLIC "-//W3C//DTD SVG 1.1//EN"
 "http://www.w3.org/Graphics/SVG/1.1/DTD/svg11.dtd">
<!-- Generated by graphviz version 2.38.0 (20140413.2041)
 -->
<!-- Title: prior_hessian::genz::fortran::mvndst_ Pages: 1 -->
<svg width="562pt" height="37pt"
 viewBox="0.00 0.00 562.00 37.00" xmlns="http://www.w3.org/2000/svg" xmlns:xlink="http://www.w3.org/1999/xlink">
<g id="graph0" class="graph" transform="scale(1 1) rotate(0) translate(4 33)">
<title>prior_hessian::genz::fortran::mvndst_</title>
<polygon fill="white" stroke="none" points="-4,4 -4,-33 558,-33 558,4 -4,4"/>
<!-- Node1 -->
<g id="node1" class="node"><title>Node1</title>
<polygon fill="#bfbfbf" stroke="black" points="0,-0.5 0,-28.5 98,-28.5 98,-0.5 0,-0.5"/>
<text text-anchor="start" x="8" y="-17.3" font-family="Helvetica,sans-Serif" font-size="9.00">prior_hessian::genz</text>
<text text-anchor="middle" x="49" y="-7.3" font-family="Helvetica,sans-Serif" font-size="9.00">::fortran::mvndst_</text>
</g>
<!-- Node2 -->
<g id="node2" class="node"><title>Node2</title>
<g id="a_node2"><a xlink:href="namespaceprior__hessian_1_1genz.html#a5462d1271384fa7431ee84709c0f8a88" target="_top" xlink:title="prior_hessian::genz\l::mvn_cdf_genz">
<polygon fill="white" stroke="black" points="134,-0.5 134,-28.5 232,-28.5 232,-0.5 134,-0.5"/>
<text text-anchor="start" x="142" y="-17.3" font-family="Helvetica,sans-Serif" font-size="9.00">prior_hessian::genz</text>
<text text-anchor="middle" x="183" y="-7.3" font-family="Helvetica,sans-Serif" font-size="9.00">::mvn_cdf_genz</text>
</a>
</g>
</g>
<!-- Node1&#45;&gt;Node2 -->
<g id="edge1" class="edge"><title>Node1&#45;&gt;Node2</title>
<path fill="none" stroke="midnightblue" d="M108.292,-14.5C116.809,-14.5 125.5,-14.5 133.786,-14.5"/>
<polygon fill="midnightblue" stroke="midnightblue" points="108.028,-11.0001 98.0284,-14.5 108.028,-18.0001 108.028,-11.0001"/>
</g>
<!-- Node3 -->
<g id="node3" class="node"><title>Node3</title>
<g id="a_node3"><a xlink:href="classprior__hessian_1_1MultivariateNormalDist.html#a41f15a93e291cc18bf28c1c0118efa6a" target="_top" xlink:title="prior_hessian::Multivariate\lNormalDist::cdf">
<polygon fill="white" stroke="black" points="268,-0.5 268,-28.5 393,-28.5 393,-0.5 268,-0.5"/>
<text text-anchor="start" x="276" y="-17.3" font-family="Helvetica,sans-Serif" font-size="9.00">prior_hessian::Multivariate</text>
<text text-anchor="middle" x="330.5" y="-7.3" font-family="Helvetica,sans-Serif" font-size="9.00">NormalDist::cdf</text>
</a>
</g>
</g>
<!-- Node2&#45;&gt;Node3 -->
<g id="edge2" class="edge"><title>Node2&#45;&gt;Node3</title>
<path fill="none" stroke="midnightblue" d="M242.15,-14.5C250.572,-14.5 259.265,-14.5 267.754,-14.5"/>
<polygon fill="midnightblue" stroke="midnightblue" points="242.045,-11.0001 232.045,-14.5 242.045,-18.0001 242.045,-11.0001"/>
</g>
<!-- Node4 -->
<g id="node4" class="node"><title>Node4</title>
<g id="a_node4"><a xlink:href="classprior__hessian_1_1MultivariateNormalDist.html#afdec8e6a453a2c69e0d84833d6b3e5ae" target="_top" xlink:title="prior_hessian::Multivariate\lNormalDist::mode">
<polygon fill="white" stroke="black" points="429,-0.5 429,-28.5 554,-28.5 554,-0.5 429,-0.5"/>
<text text-anchor="start" x="437" y="-17.3" font-family="Helvetica,sans-Serif" font-size="9.00">prior_hessian::Multivariate</text>
<text text-anchor="middle" x="491.5" y="-7.3" font-family="Helvetica,sans-Serif" font-size="9.00">NormalDist::mode</text>
</a>
</g>
</g>
<!-- Node3&#45;&gt;Node4 -->
<g id="edge3" class="edge"><title>Node3&#45;&gt;Node4</title>
<path fill="none" stroke="midnightblue" d="M403.592,-14.5C411.99,-14.5 420.499,-14.5 428.74,-14.5"/>
<polygon fill="midnightblue" stroke="midnightblue" points="403.429,-11.0001 393.429,-14.5 403.429,-18.0001 403.429,-11.0001"/>
</g>
</g>
</svg>
