<?xml version="1.0" encoding="UTF-8" standalone="no"?>
<!DOCTYPE svg PUBLIC "-//W3C//DTD SVG 1.1//EN"
 "http://www.w3.org/Graphics/SVG/1.1/DTD/svg11.dtd">
<!-- Generated by graphviz version 2.38.0 (20140413.2041)
 -->
<!-- Title: prior_hessian::unit_normal_cdf Pages: 1 -->
<svg width="711pt" height="277pt"
 viewBox="0.00 0.00 711.00 277.15" xmlns="http://www.w3.org/2000/svg" xmlns:xlink="http://www.w3.org/1999/xlink">
<g id="graph0" class="graph" transform="scale(1 1) rotate(0) translate(4 273.154)">
<title>prior_hessian::unit_normal_cdf</title>
<polygon fill="white" stroke="none" points="-4,4 -4,-273.154 707,-273.154 707,4 -4,4"/>
<!-- Node1 -->
<g id="node1" class="node"><title>Node1</title>
<polygon fill="#bfbfbf" stroke="black" points="0,-93.6544 0,-121.654 92,-121.654 92,-93.6544 0,-93.6544"/>
<text text-anchor="start" x="8" y="-110.454" font-family="Helvetica,sans-Serif" font-size="9.00">prior_hessian::unit</text>
<text text-anchor="middle" x="46" y="-100.454" font-family="Helvetica,sans-Serif" font-size="9.00">_normal_cdf</text>
</g>
<!-- Node2 -->
<g id="node2" class="node"><title>Node2</title>
<g id="a_node2"><a xlink:href="namespaceprior__hessian.html#ae87209106163a600fbde211815f83b5a" target="_top" xlink:title="prior_hessian::donnelly\l_bvn_integral">
<polygon fill="white" stroke="black" points="128,-203.654 128,-231.654 241,-231.654 241,-203.654 128,-203.654"/>
<text text-anchor="start" x="136" y="-220.454" font-family="Helvetica,sans-Serif" font-size="9.00">prior_hessian::donnelly</text>
<text text-anchor="middle" x="184.5" y="-210.454" font-family="Helvetica,sans-Serif" font-size="9.00">_bvn_integral</text>
</a>
</g>
</g>
<!-- Node1&#45;&gt;Node2 -->
<g id="edge1" class="edge"><title>Node1&#45;&gt;Node2</title>
<path fill="none" stroke="midnightblue" d="M65.7485,-129.808C81.2418,-147.226 104.445,-171.355 128,-188.654 135.536,-194.189 144.272,-199.277 152.551,-203.595"/>
<polygon fill="midnightblue" stroke="midnightblue" points="68.0119,-127.08 58.7942,-121.856 62.7427,-131.688 68.0119,-127.08"/>
</g>
<!-- Node5 -->
<g id="node5" class="node"><title>Node5</title>
<g id="a_node5"><a xlink:href="namespaceprior__hessian.html#a4479c56bffd52c8f08515da580030958" target="_top" xlink:title="prior_hessian::donnelly\l_bvn_integral_orig">
<polygon fill="white" stroke="black" points="285,-154.654 285,-182.654 398,-182.654 398,-154.654 285,-154.654"/>
<text text-anchor="start" x="293" y="-171.454" font-family="Helvetica,sans-Serif" font-size="9.00">prior_hessian::donnelly</text>
<text text-anchor="middle" x="341.5" y="-161.454" font-family="Helvetica,sans-Serif" font-size="9.00">_bvn_integral_orig</text>
</a>
</g>
</g>
<!-- Node1&#45;&gt;Node5 -->
<g id="edge4" class="edge"><title>Node1&#45;&gt;Node5</title>
<path fill="none" stroke="midnightblue" d="M73.8137,-127.434C88.9328,-137.467 108.629,-148.752 128,-154.654 179.459,-170.335 241.068,-172.713 284.666,-171.845"/>
<polygon fill="midnightblue" stroke="midnightblue" points="75.7054,-124.488 65.4778,-121.722 71.7485,-130.262 75.7054,-124.488"/>
</g>
<!-- Node6 -->
<g id="node6" class="node"><title>Node6</title>
<g id="a_node6"><a xlink:href="namespaceprior__hessian.html#af30ccf313fd6eced8ae174f6a0d8457b" target="_top" xlink:title="prior_hessian::mc_mvn\l_cdf_core">
<polygon fill="white" stroke="black" points="128.5,-117.654 128.5,-145.654 240.5,-145.654 240.5,-117.654 128.5,-117.654"/>
<text text-anchor="start" x="136.5" y="-134.454" font-family="Helvetica,sans-Serif" font-size="9.00">prior_hessian::mc_mvn</text>
<text text-anchor="middle" x="184.5" y="-124.454" font-family="Helvetica,sans-Serif" font-size="9.00">_cdf_core</text>
</a>
</g>
</g>
<!-- Node1&#45;&gt;Node6 -->
<g id="edge6" class="edge"><title>Node1&#45;&gt;Node6</title>
<path fill="none" stroke="midnightblue" d="M102.109,-117.344C110.803,-118.873 119.793,-120.453 128.486,-121.982"/>
<polygon fill="midnightblue" stroke="midnightblue" points="102.529,-113.864 92.0735,-115.579 101.316,-120.758 102.529,-113.864"/>
</g>
<!-- Node8 -->
<g id="node8" class="node"><title>Node8</title>
<g id="a_node8"><a xlink:href="namespaceprior__hessian.html#abadcc969aeb37b0c2f1e69c75731ec65" target="_top" xlink:title="prior_hessian::mc_mvn\l_integral">
<polygon fill="white" stroke="black" points="128.5,-70.6544 128.5,-98.6544 240.5,-98.6544 240.5,-70.6544 128.5,-70.6544"/>
<text text-anchor="start" x="136.5" y="-87.4544" font-family="Helvetica,sans-Serif" font-size="9.00">prior_hessian::mc_mvn</text>
<text text-anchor="middle" x="184.5" y="-77.4544" font-family="Helvetica,sans-Serif" font-size="9.00">_integral</text>
</a>
</g>
</g>
<!-- Node1&#45;&gt;Node8 -->
<g id="edge8" class="edge"><title>Node1&#45;&gt;Node8</title>
<path fill="none" stroke="midnightblue" d="M102.109,-98.3687C110.803,-96.9037 119.793,-95.3889 128.486,-93.9242"/>
<polygon fill="midnightblue" stroke="midnightblue" points="101.353,-94.9467 92.0735,-100.06 102.516,-101.849 101.353,-94.9467"/>
</g>
<!-- Node9 -->
<g id="node9" class="node"><title>Node9</title>
<g id="a_node9"><a xlink:href="namespaceprior__hessian.html#a8e1226cb7a7a644fe985a8530b3df07a" target="_top" xlink:title="prior_hessian::owen\l_b_integral">
<polygon fill="white" stroke="black" points="291.5,-23.6544 291.5,-51.6544 391.5,-51.6544 391.5,-23.6544 291.5,-23.6544"/>
<text text-anchor="start" x="299.5" y="-40.4544" font-family="Helvetica,sans-Serif" font-size="9.00">prior_hessian::owen</text>
<text text-anchor="middle" x="341.5" y="-30.4544" font-family="Helvetica,sans-Serif" font-size="9.00">_b_integral</text>
</a>
</g>
</g>
<!-- Node1&#45;&gt;Node9 -->
<g id="edge9" class="edge"><title>Node1&#45;&gt;Node9</title>
<path fill="none" stroke="midnightblue" d="M58.9803,-84.7031C72.3487,-61.8583 96.33,-28.1703 128,-13.6544 186.726,13.2625 263.791,-7.4982 307.136,-23.5597"/>
<polygon fill="midnightblue" stroke="midnightblue" points="55.9131,-83.0169 54.0667,-93.4496 62.016,-86.4454 55.9131,-83.0169"/>
</g>
<!-- Node12 -->
<g id="node12" class="node"><title>Node12</title>
<g id="a_node12"><a xlink:href="namespaceprior__hessian.html#a31c9cb28381da665bdef9a77b4858fc5" target="_top" xlink:title="prior_hessian::owen\l_t_integral">
<polygon fill="white" stroke="black" points="134.5,-23.6544 134.5,-51.6544 234.5,-51.6544 234.5,-23.6544 134.5,-23.6544"/>
<text text-anchor="start" x="142.5" y="-40.4544" font-family="Helvetica,sans-Serif" font-size="9.00">prior_hessian::owen</text>
<text text-anchor="middle" x="184.5" y="-30.4544" font-family="Helvetica,sans-Serif" font-size="9.00">_t_integral</text>
</a>
</g>
</g>
<!-- Node1&#45;&gt;Node12 -->
<g id="edge13" class="edge"><title>Node1&#45;&gt;Node12</title>
<path fill="none" stroke="midnightblue" d="M78.3542,-88.1557C93.1587,-79.2896 111.225,-68.9515 128,-60.6544 134.264,-57.5563 141.051,-54.5045 147.657,-51.6869"/>
<polygon fill="midnightblue" stroke="midnightblue" points="76.3417,-85.2826 69.5985,-93.4546 79.966,-91.2713 76.3417,-85.2826"/>
</g>
<!-- Node3 -->
<g id="node3" class="node"><title>Node3</title>
<g id="a_node3"><a xlink:href="namespaceprior__hessian.html#a0f8b4ec070533193c3f402bbcc2b8b2b" target="_top" xlink:title="prior_hessian::donnelly\l_bvn_cdf">
<polygon fill="white" stroke="black" points="285,-240.654 285,-268.654 398,-268.654 398,-240.654 285,-240.654"/>
<text text-anchor="start" x="293" y="-257.454" font-family="Helvetica,sans-Serif" font-size="9.00">prior_hessian::donnelly</text>
<text text-anchor="middle" x="341.5" y="-247.454" font-family="Helvetica,sans-Serif" font-size="9.00">_bvn_cdf</text>
</a>
</g>
</g>
<!-- Node2&#45;&gt;Node3 -->
<g id="edge2" class="edge"><title>Node2&#45;&gt;Node3</title>
<path fill="none" stroke="midnightblue" d="M250.845,-233.253C262.156,-235.953 273.822,-238.738 284.846,-241.369"/>
<polygon fill="midnightblue" stroke="midnightblue" points="251.56,-229.825 241.021,-230.908 249.935,-236.634 251.56,-229.825"/>
</g>
<!-- Node4 -->
<g id="node4" class="node"><title>Node4</title>
<g id="a_node4"><a xlink:href="namespaceprior__hessian.html#a12c3a5763e9fbc82e2fb39b8c0273cda" target="_top" xlink:title="prior_hessian::owen\l_t_integral">
<polygon fill="white" stroke="black" points="442,-112.654 442,-140.654 542,-140.654 542,-112.654 442,-112.654"/>
<text text-anchor="start" x="450" y="-129.454" font-family="Helvetica,sans-Serif" font-size="9.00">prior_hessian::owen</text>
<text text-anchor="middle" x="492" y="-119.454" font-family="Helvetica,sans-Serif" font-size="9.00">_t_integral</text>
</a>
</g>
</g>
<!-- Node2&#45;&gt;Node4 -->
<g id="edge3" class="edge"><title>Node2&#45;&gt;Node4</title>
<path fill="none" stroke="midnightblue" d="M251.661,-218.905C296.681,-217.611 356.785,-211.604 406,-191.654 434.579,-180.07 461.835,-156.178 477.467,-140.812"/>
<polygon fill="midnightblue" stroke="midnightblue" points="251.35,-215.411 241.428,-219.126 251.501,-222.409 251.35,-215.411"/>
</g>
<!-- Node5&#45;&gt;Node4 -->
<g id="edge5" class="edge"><title>Node5&#45;&gt;Node4</title>
<path fill="none" stroke="midnightblue" d="M402.246,-151.757C415.369,-148.045 429.121,-144.156 441.775,-140.577"/>
<polygon fill="midnightblue" stroke="midnightblue" points="401.031,-148.463 392.361,-154.552 402.937,-155.199 401.031,-148.463"/>
</g>
<!-- Node7 -->
<g id="node7" class="node"><title>Node7</title>
<g id="a_node7"><a xlink:href="namespaceprior__hessian.html#a923402e085c726e416b02817a6d47337" target="_top" xlink:title="prior_hessian::mc_mvn_cdf">
<polygon fill="white" stroke="black" points="277,-117.654 277,-135.654 406,-135.654 406,-117.654 277,-117.654"/>
<text text-anchor="middle" x="341.5" y="-124.454" font-family="Helvetica,sans-Serif" font-size="9.00">prior_hessian::mc_mvn_cdf</text>
</a>
</g>
</g>
<!-- Node6&#45;&gt;Node7 -->
<g id="edge7" class="edge"><title>Node6&#45;&gt;Node7</title>
<path fill="none" stroke="midnightblue" d="M250.647,-129.553C259.325,-129.273 268.215,-128.986 276.867,-128.707"/>
<polygon fill="midnightblue" stroke="midnightblue" points="250.466,-126.057 240.584,-129.878 250.691,-133.053 250.466,-126.057"/>
</g>
<!-- Node9&#45;&gt;Node4 -->
<g id="edge12" class="edge"><title>Node9&#45;&gt;Node4</title>
<path fill="none" stroke="midnightblue" d="M382.69,-56.1823C390.528,-60.1006 398.605,-64.3567 406,-68.6544 429.478,-82.2994 455.042,-100.188 471.937,-112.471"/>
<polygon fill="midnightblue" stroke="midnightblue" points="384.172,-53.0112 373.652,-51.7553 381.093,-59.2975 384.172,-53.0112"/>
</g>
<!-- Node10 -->
<g id="node10" class="node"><title>Node10</title>
<g id="a_node10"><a xlink:href="namespaceprior__hessian.html#a5f7ff26e783adec5fd8ba5e290a7c892" target="_top" xlink:title="prior_hessian::owen\l_bvn_cdf">
<polygon fill="white" stroke="black" points="442,-23.6544 442,-51.6544 542,-51.6544 542,-23.6544 442,-23.6544"/>
<text text-anchor="start" x="450" y="-40.4544" font-family="Helvetica,sans-Serif" font-size="9.00">prior_hessian::owen</text>
<text text-anchor="middle" x="492" y="-30.4544" font-family="Helvetica,sans-Serif" font-size="9.00">_bvn_cdf</text>
</a>
</g>
</g>
<!-- Node9&#45;&gt;Node10 -->
<g id="edge10" class="edge"><title>Node9&#45;&gt;Node10</title>
<path fill="none" stroke="midnightblue" d="M401.562,-37.6544C414.886,-37.6544 428.892,-37.6544 441.762,-37.6544"/>
<polygon fill="midnightblue" stroke="midnightblue" points="401.536,-34.1545 391.536,-37.6544 401.536,-41.1545 401.536,-34.1545"/>
</g>
<!-- Node11 -->
<g id="node11" class="node"><title>Node11</title>
<g id="a_node11"><a xlink:href="classprior__hessian_1_1MultivariateNormalDist.html#aa6e75faa3fd9a23d7194760a713d1563" target="_top" xlink:title="prior_hessian::Multivariate\lNormalDist::cdf">
<polygon fill="white" stroke="black" points="578,-23.6544 578,-51.6544 703,-51.6544 703,-23.6544 578,-23.6544"/>
<text text-anchor="start" x="586" y="-40.4544" font-family="Helvetica,sans-Serif" font-size="9.00">prior_hessian::Multivariate</text>
<text text-anchor="middle" x="640.5" y="-30.4544" font-family="Helvetica,sans-Serif" font-size="9.00">NormalDist::cdf</text>
</a>
</g>
</g>
<!-- Node10&#45;&gt;Node11 -->
<g id="edge11" class="edge"><title>Node10&#45;&gt;Node11</title>
<path fill="none" stroke="midnightblue" d="M552.328,-37.6544C560.769,-37.6544 569.467,-37.6544 577.95,-37.6544"/>
<polygon fill="midnightblue" stroke="midnightblue" points="552.19,-34.1545 542.19,-37.6544 552.19,-41.1545 552.19,-34.1545"/>
</g>
<!-- Node12&#45;&gt;Node4 -->
<g id="edge15" class="edge"><title>Node12&#45;&gt;Node4</title>
<path fill="none" stroke="midnightblue" d="M243.269,-54.484C300.955,-71.2896 388.606,-96.8245 442.706,-112.585"/>
<polygon fill="midnightblue" stroke="midnightblue" points="244.15,-51.0953 233.57,-51.6586 242.192,-57.816 244.15,-51.0953"/>
</g>
<!-- Node12&#45;&gt;Node9 -->
<g id="edge14" class="edge"><title>Node12&#45;&gt;Node9</title>
<path fill="none" stroke="midnightblue" d="M244.942,-37.6544C260.238,-37.6544 276.528,-37.6544 291.244,-37.6544"/>
<polygon fill="midnightblue" stroke="midnightblue" points="244.543,-34.1545 234.543,-37.6544 244.543,-41.1545 244.543,-34.1545"/>
</g>
</g>
</svg>
