<?xml version="1.0" encoding="UTF-8" standalone="no"?>
<!DOCTYPE svg PUBLIC "-//W3C//DTD SVG 1.1//EN"
 "http://www.w3.org/Graphics/SVG/1.1/DTD/svg11.dtd">
<!-- Generated by graphviz version 2.38.0 (20140413.2041)
 -->
<!-- Title: prior_hessian::donnelly_bvn_integral Pages: 1 -->
<svg width="271pt" height="74pt"
 viewBox="0.00 0.00 271.00 74.00" xmlns="http://www.w3.org/2000/svg" xmlns:xlink="http://www.w3.org/1999/xlink">
<g id="graph0" class="graph" transform="scale(1 1) rotate(0) translate(4 70)">
<title>prior_hessian::donnelly_bvn_integral</title>
<polygon fill="white" stroke="none" points="-4,4 -4,-70 267,-70 267,4 -4,4"/>
<!-- Node1 -->
<g id="node1" class="node"><title>Node1</title>
<polygon fill="#bfbfbf" stroke="black" points="0,-21.5 0,-49.5 113,-49.5 113,-21.5 0,-21.5"/>
<text text-anchor="start" x="8" y="-38.3" font-family="Helvetica,sans-Serif" font-size="9.00">prior_hessian::donnelly</text>
<text text-anchor="middle" x="56.5" y="-28.3" font-family="Helvetica,sans-Serif" font-size="9.00">_bvn_integral</text>
</g>
<!-- Node2 -->
<g id="node2" class="node"><title>Node2</title>
<g id="a_node2"><a xlink:href="namespaceprior__hessian.html#a860bd0a9eccd25bccf6e1c002022052f" target="_top" xlink:title="prior_hessian::bounded">
<polygon fill="white" stroke="black" points="149,-47.5 149,-65.5 263,-65.5 263,-47.5 149,-47.5"/>
<text text-anchor="middle" x="206" y="-54.3" font-family="Helvetica,sans-Serif" font-size="9.00">prior_hessian::bounded</text>
</a>
</g>
</g>
<!-- Node1&#45;&gt;Node2 -->
<g id="edge1" class="edge"><title>Node1&#45;&gt;Node2</title>
<path fill="none" stroke="midnightblue" d="M113.263,-43.4392C121.59,-44.6246 130.242,-45.8565 138.759,-47.0691"/>
<polygon fill="midnightblue" stroke="midnightblue" points="138.274,-50.5353 148.668,-48.4798 139.261,-43.6052 138.274,-50.5353"/>
</g>
<!-- Node3 -->
<g id="node3" class="node"><title>Node3</title>
<g id="a_node3"><a xlink:href="namespaceprior__hessian.html#ad0373e8965088cd5481ca019aed56a87" target="_top" xlink:title="prior_hessian::unit\l_normal_cdf">
<polygon fill="white" stroke="black" points="160,-0.5 160,-28.5 252,-28.5 252,-0.5 160,-0.5"/>
<text text-anchor="start" x="168" y="-17.3" font-family="Helvetica,sans-Serif" font-size="9.00">prior_hessian::unit</text>
<text text-anchor="middle" x="206" y="-7.3" font-family="Helvetica,sans-Serif" font-size="9.00">_normal_cdf</text>
</a>
</g>
</g>
<!-- Node1&#45;&gt;Node3 -->
<g id="edge2" class="edge"><title>Node1&#45;&gt;Node3</title>
<path fill="none" stroke="midnightblue" d="M113.263,-27.5608C125.126,-25.8719 137.649,-24.0889 149.502,-22.4014"/>
<polygon fill="midnightblue" stroke="midnightblue" points="150.305,-25.8225 159.711,-20.9479 149.318,-18.8924 150.305,-25.8225"/>
</g>
</g>
</svg>
