<?xml version="1.0" encoding="UTF-8" standalone="no"?>
<!DOCTYPE svg PUBLIC "-//W3C//DTD SVG 1.1//EN"
 "http://www.w3.org/Graphics/SVG/1.1/DTD/svg11.dtd">
<!-- Generated by graphviz version 2.38.0 (20140413.2041)
 -->
<!-- Title: prior_hessian::owen_t_integral Pages: 1 -->
<svg width="535pt" height="237pt"
 viewBox="0.00 0.00 535.00 237.00" xmlns="http://www.w3.org/2000/svg" xmlns:xlink="http://www.w3.org/1999/xlink">
<g id="graph0" class="graph" transform="scale(1 1) rotate(0) translate(4 233)">
<title>prior_hessian::owen_t_integral</title>
<polygon fill="white" stroke="none" points="-4,4 -4,-233 531,-233 531,4 -4,4"/>
<!-- Node1 -->
<g id="node1" class="node"><title>Node1</title>
<polygon fill="#bfbfbf" stroke="black" points="0,-86.5 0,-114.5 100,-114.5 100,-86.5 0,-86.5"/>
<text text-anchor="start" x="8" y="-103.3" font-family="Helvetica,sans-Serif" font-size="9.00">prior_hessian::owen</text>
<text text-anchor="middle" x="50" y="-93.3" font-family="Helvetica,sans-Serif" font-size="9.00">_t_integral</text>
</g>
<!-- Node2 -->
<g id="node2" class="node"><title>Node2</title>
<g id="a_node2"><a xlink:href="namespaceprior__hessian.html#ae87209106163a600fbde211815f83b5a" target="_top" xlink:title="prior_hessian::donnelly\l_bvn_integral">
<polygon fill="white" stroke="black" points="136,-172.5 136,-200.5 249,-200.5 249,-172.5 136,-172.5"/>
<text text-anchor="start" x="144" y="-189.3" font-family="Helvetica,sans-Serif" font-size="9.00">prior_hessian::donnelly</text>
<text text-anchor="middle" x="192.5" y="-179.3" font-family="Helvetica,sans-Serif" font-size="9.00">_bvn_integral</text>
</a>
</g>
</g>
<!-- Node1&#45;&gt;Node2 -->
<g id="edge1" class="edge"><title>Node1&#45;&gt;Node2</title>
<path fill="none" stroke="midnightblue" d="M70.8659,-114.723C87.8431,-126.657 113.087,-143.886 136,-157.5 141.84,-160.97 148.135,-164.473 154.316,-167.788"/>
<polygon fill="midnightblue" stroke="midnightblue" points="152.745,-170.916 163.223,-172.482 156.009,-164.723 152.745,-170.916"/>
</g>
<!-- Node4 -->
<g id="node4" class="node"><title>Node4</title>
<g id="a_node4"><a xlink:href="namespaceprior__hessian.html#ad0373e8965088cd5481ca019aed56a87" target="_top" xlink:title="prior_hessian::unit\l_normal_cdf">
<polygon fill="white" stroke="black" points="435,-86.5 435,-114.5 527,-114.5 527,-86.5 435,-86.5"/>
<text text-anchor="start" x="443" y="-103.3" font-family="Helvetica,sans-Serif" font-size="9.00">prior_hessian::unit</text>
<text text-anchor="middle" x="481" y="-93.3" font-family="Helvetica,sans-Serif" font-size="9.00">_normal_cdf</text>
</a>
</g>
</g>
<!-- Node1&#45;&gt;Node4 -->
<g id="edge11" class="edge"><title>Node1&#45;&gt;Node4</title>
<path fill="none" stroke="midnightblue" d="M100.215,-110.04C167.839,-121.72 293.153,-138.236 399,-123.5 408.882,-122.124 419.252,-119.847 429.147,-117.247"/>
<polygon fill="midnightblue" stroke="midnightblue" points="430.145,-120.603 438.849,-114.561 428.278,-113.857 430.145,-120.603"/>
</g>
<!-- Node5 -->
<g id="node5" class="node"><title>Node5</title>
<g id="a_node5"><a xlink:href="namespaceprior__hessian.html#a4479c56bffd52c8f08515da580030958" target="_top" xlink:title="prior_hessian::donnelly\l_bvn_integral_orig">
<polygon fill="white" stroke="black" points="285.5,-86.5 285.5,-114.5 398.5,-114.5 398.5,-86.5 285.5,-86.5"/>
<text text-anchor="start" x="293.5" y="-103.3" font-family="Helvetica,sans-Serif" font-size="9.00">prior_hessian::donnelly</text>
<text text-anchor="middle" x="342" y="-93.3" font-family="Helvetica,sans-Serif" font-size="9.00">_bvn_integral_orig</text>
</a>
</g>
</g>
<!-- Node1&#45;&gt;Node5 -->
<g id="edge4" class="edge"><title>Node1&#45;&gt;Node5</title>
<path fill="none" stroke="midnightblue" d="M100.195,-100.5C148.395,-100.5 222.162,-100.5 275.348,-100.5"/>
<polygon fill="midnightblue" stroke="midnightblue" points="275.363,-104 285.363,-100.5 275.363,-97.0001 275.363,-104"/>
</g>
<!-- Node6 -->
<g id="node6" class="node"><title>Node6</title>
<g id="a_node6"><a xlink:href="namespaceprior__hessian.html#a8e1226cb7a7a644fe985a8530b3df07a" target="_top" xlink:title="prior_hessian::owen\l_b_integral">
<polygon fill="white" stroke="black" points="142.5,-43.5 142.5,-71.5 242.5,-71.5 242.5,-43.5 142.5,-43.5"/>
<text text-anchor="start" x="150.5" y="-60.3" font-family="Helvetica,sans-Serif" font-size="9.00">prior_hessian::owen</text>
<text text-anchor="middle" x="192.5" y="-50.3" font-family="Helvetica,sans-Serif" font-size="9.00">_b_integral</text>
</a>
</g>
</g>
<!-- Node1&#45;&gt;Node6 -->
<g id="edge6" class="edge"><title>Node1&#45;&gt;Node6</title>
<path fill="none" stroke="midnightblue" d="M97.005,-86.4202C109.377,-82.6337 122.893,-78.4972 135.734,-74.5672"/>
<polygon fill="midnightblue" stroke="midnightblue" points="136.854,-77.8848 145.392,-71.6114 134.805,-71.1912 136.854,-77.8848"/>
</g>
<!-- Node7 -->
<g id="node7" class="node"><title>Node7</title>
<g id="a_node7"><a xlink:href="namespaceprior__hessian.html#a31c9cb28381da665bdef9a77b4858fc5" target="_top" xlink:title="prior_hessian::owen\l_t_integral">
<polygon fill="white" stroke="black" points="292,-0.5 292,-28.5 392,-28.5 392,-0.5 292,-0.5"/>
<text text-anchor="start" x="300" y="-17.3" font-family="Helvetica,sans-Serif" font-size="9.00">prior_hessian::owen</text>
<text text-anchor="middle" x="342" y="-7.3" font-family="Helvetica,sans-Serif" font-size="9.00">_t_integral</text>
</a>
</g>
</g>
<!-- Node1&#45;&gt;Node7 -->
<g id="edge10" class="edge"><title>Node1&#45;&gt;Node7</title>
<path fill="none" stroke="midnightblue" d="M63.8344,-86.3424C79.2389,-70.4039 106.684,-45.2082 136,-33.5 182.611,-14.8845 239.767,-10.9744 281.876,-11.2382"/>
<polygon fill="midnightblue" stroke="midnightblue" points="281.922,-14.7391 291.971,-11.3826 282.022,-7.7398 281.922,-14.7391"/>
</g>
<!-- Node3 -->
<g id="node3" class="node"><title>Node3</title>
<g id="a_node3"><a xlink:href="namespaceprior__hessian.html#a860bd0a9eccd25bccf6e1c002022052f" target="_top" xlink:title="prior_hessian::bounded">
<polygon fill="white" stroke="black" points="285,-210.5 285,-228.5 399,-228.5 399,-210.5 285,-210.5"/>
<text text-anchor="middle" x="342" y="-217.3" font-family="Helvetica,sans-Serif" font-size="9.00">prior_hessian::bounded</text>
</a>
</g>
</g>
<!-- Node2&#45;&gt;Node3 -->
<g id="edge2" class="edge"><title>Node2&#45;&gt;Node3</title>
<path fill="none" stroke="midnightblue" d="M249.263,-198.976C262.785,-202.001 277.167,-205.219 290.434,-208.187"/>
<polygon fill="midnightblue" stroke="midnightblue" points="289.806,-211.633 300.329,-210.401 291.334,-204.802 289.806,-211.633"/>
</g>
<!-- Node2&#45;&gt;Node4 -->
<g id="edge3" class="edge"><title>Node2&#45;&gt;Node4</title>
<path fill="none" stroke="midnightblue" d="M249.381,-185.664C291.763,-183.376 350.754,-176.586 399,-157.5 420.451,-149.014 441.664,-133.769 456.998,-121.179"/>
<polygon fill="midnightblue" stroke="midnightblue" points="459.499,-123.647 464.875,-114.517 454.98,-118.301 459.499,-123.647"/>
</g>
<!-- Node5&#45;&gt;Node4 -->
<g id="edge5" class="edge"><title>Node5&#45;&gt;Node4</title>
<path fill="none" stroke="midnightblue" d="M398.723,-100.5C407.255,-100.5 416.061,-100.5 424.587,-100.5"/>
<polygon fill="midnightblue" stroke="midnightblue" points="424.809,-104 434.809,-100.5 424.809,-97.0001 424.809,-104"/>
</g>
<!-- Node6&#45;&gt;Node4 -->
<g id="edge9" class="edge"><title>Node6&#45;&gt;Node4</title>
<path fill="none" stroke="midnightblue" d="M242.876,-59.3509C284.743,-61.5659 346.225,-66.3434 399,-76.5 408.722,-78.3709 418.948,-80.9238 428.737,-83.6689"/>
<polygon fill="midnightblue" stroke="midnightblue" points="427.766,-87.0314 438.345,-86.4599 429.719,-80.3093 427.766,-87.0314"/>
</g>
<!-- Node6&#45;&gt;Node7 -->
<g id="edge7" class="edge"><title>Node6&#45;&gt;Node7</title>
<path fill="none" stroke="midnightblue" d="M241.797,-43.4202C254.981,-39.5768 269.401,-35.3729 283.062,-31.3904"/>
<polygon fill="midnightblue" stroke="midnightblue" points="284.226,-34.6969 292.847,-28.538 282.267,-27.9767 284.226,-34.6969"/>
</g>
<!-- Node7&#45;&gt;Node4 -->
<g id="edge8" class="edge"><title>Node7&#45;&gt;Node4</title>
<path fill="none" stroke="midnightblue" d="M371.9,-28.5213C380.735,-33.0584 390.389,-38.2737 399,-43.5 417.728,-54.8672 437.878,-69.0381 453.395,-80.4064"/>
<polygon fill="midnightblue" stroke="midnightblue" points="451.379,-83.2684 461.501,-86.3982 455.54,-77.6393 451.379,-83.2684"/>
</g>
</g>
</svg>
