<?xml version="1.0" encoding="UTF-8" standalone="no"?>
<!DOCTYPE svg PUBLIC "-//W3C//DTD SVG 1.1//EN"
 "http://www.w3.org/Graphics/SVG/1.1/DTD/svg11.dtd">
<!-- Generated by graphviz version 2.38.0 (20140413.2041)
 -->
<!-- Title: prior_hessian::operator&lt;&lt; Pages: 1 -->
<!--zoomable 674 -->
<svg id="main" version="1.1" xmlns="http://www.w3.org/2000/svg" xmlns:xlink="http://www.w3.org/1999/xlink" xml:space="preserve" onload="init(evt)">
<style type="text/css"><![CDATA[
.edge:hover path { stroke: red; }
.edge:hover polygon { stroke: red; fill: red; }
]]></style>
<script type="text/javascript"><![CDATA[
var edges = document.getElementsByTagName('g');
if (edges && edges.length) {
  for (var i=0;i<edges.length;i++) {
    if (edges[i].id.substr(0,4)=='edge') {
      edges[i].setAttribute('class','edge');
    }
  }
}
]]></script>
        <defs>
                <circle id="rim" cx="0" cy="0" r="7"/>
                <circle id="rim2" cx="0" cy="0" r="3.5"/>
                <g id="zoomPlus">
                        <use xlink:href="#rim" fill="#404040">
                                <set attributeName="fill" to="#808080" begin="zoomplus.mouseover" end="zoomplus.mouseout"/>
                        </use>
                        <path d="M-4,0h8M0,-4v8" fill="none" stroke="white" stroke-width="1.5" pointer-events="none"/>
                </g>
                <g id="zoomMin">
                        <use xlink:href="#rim" fill="#404040">
                                <set attributeName="fill" to="#808080" begin="zoomminus.mouseover" end="zoomminus.mouseout"/>
                        </use>
                        <path d="M-4,0h8" fill="none" stroke="white" stroke-width="1.5" pointer-events="none"/>
                </g>
                <g id="dirArrow">
                        <path fill="none" stroke="white" stroke-width="1.5" d="M0,-3.0v7 M-2.5,-0.5L0,-3.0L2.5,-0.5"/>
                </g>
               <g id="resetDef">
                       <use xlink:href="#rim2" fill="#404040">
                               <set attributeName="fill" to="#808080" begin="reset.mouseover" end="reset.mouseout"/>
                       </use>
               </g>
        </defs>

<script type="text/javascript">
var viewWidth = 637;
var viewHeight = 674;
var sectionId = 'dynsection-15';
</script>
<script xlink:href="svgpan.js"/>
<svg id="graph" class="graph">
<g id="viewport">
<title>prior_hessian::operator&lt;&lt;</title>
<polygon fill="white" stroke="none" points="-4,4 -4,-670 633,-670 633,4 -4,4"/>
<!-- Node1 -->
<g id="node1" class="node"><title>Node1</title>
<polygon fill="#bfbfbf" stroke="black" points="0,-334.5 0,-352.5 122,-352.5 122,-334.5 0,-334.5"/>
<text text-anchor="middle" x="61" y="-341.3" font-family="Helvetica,sans-Serif" font-size="9.00">prior_hessian::operator&lt;&lt;</text>
</g>
<!-- Node2 -->
<g id="node2" class="node"><title>Node2</title>
<g id="a_node2"><a xlink:href="classprior__hessian_1_1CompositeDist.html#a5f59bcbe24d659084fbe3dc188011779" target="_top" xlink:title="prior_hessian::Composite\lDist::component_names">
<polygon fill="white" stroke="black" points="337,-637.5 337,-665.5 459,-665.5 459,-637.5 337,-637.5"/>
<text text-anchor="start" x="345" y="-654.3" font-family="Helvetica,sans-Serif" font-size="9.00">prior_hessian::Composite</text>
<text text-anchor="middle" x="398" y="-644.3" font-family="Helvetica,sans-Serif" font-size="9.00">Dist::component_names</text>
</a>
</g>
</g>
<!-- Node1&#45;&gt;Node2 -->
<g id="edge1" class="edge"><title>Node1&#45;&gt;Node2</title>
<path fill="none" stroke="midnightblue" d="M62.0689,-352.65C62.8991,-391.673 71.7167,-545.428 158,-616.5 204.656,-654.931 274.542,-661.181 326.707,-659.305"/>
<polygon fill="midnightblue" stroke="midnightblue" points="327.066,-662.792 336.892,-658.829 326.739,-655.8 327.066,-662.792"/>
</g>
<!-- Node3 -->
<g id="node3" class="node"><title>Node3</title>
<g id="a_node3"><a xlink:href="classprior__hessian_1_1CompositeDist.html#a9c8cf14584b037663fe8ef27f77e3bcf" target="_top" xlink:title="prior_hessian::Composite\lDist::dim_variables">
<polygon fill="white" stroke="black" points="337,-410.5 337,-438.5 459,-438.5 459,-410.5 337,-410.5"/>
<text text-anchor="start" x="345" y="-427.3" font-family="Helvetica,sans-Serif" font-size="9.00">prior_hessian::Composite</text>
<text text-anchor="middle" x="398" y="-417.3" font-family="Helvetica,sans-Serif" font-size="9.00">Dist::dim_variables</text>
</a>
</g>
</g>
<!-- Node1&#45;&gt;Node3 -->
<g id="edge2" class="edge"><title>Node1&#45;&gt;Node3</title>
<path fill="none" stroke="midnightblue" d="M73.5965,-352.704C90.8616,-365.844 124.859,-389.593 158,-400.5 212.732,-418.513 278.006,-424.073 326.499,-425.375"/>
<polygon fill="midnightblue" stroke="midnightblue" points="326.509,-428.876 336.582,-425.592 326.659,-421.878 326.509,-428.876"/>
</g>
<!-- Node4 -->
<g id="node4" class="node"><title>Node4</title>
<g id="a_node4"><a xlink:href="classprior__hessian_1_1CompositeDist.html#a4034220fc10fed2ff9ebe2f81061ab2f" target="_top" xlink:title="prior_hessian::Composite\lDist::global_lbound">
<polygon fill="white" stroke="black" points="162.5,-329.5 162.5,-357.5 284.5,-357.5 284.5,-329.5 162.5,-329.5"/>
<text text-anchor="start" x="170.5" y="-346.3" font-family="Helvetica,sans-Serif" font-size="9.00">prior_hessian::Composite</text>
<text text-anchor="middle" x="223.5" y="-336.3" font-family="Helvetica,sans-Serif" font-size="9.00">Dist::global_lbound</text>
</a>
</g>
</g>
<!-- Node1&#45;&gt;Node4 -->
<g id="edge3" class="edge"><title>Node1&#45;&gt;Node4</title>
<path fill="none" stroke="midnightblue" d="M122.221,-343.5C131.992,-343.5 142.185,-343.5 152.171,-343.5"/>
<polygon fill="midnightblue" stroke="midnightblue" points="152.475,-347 162.475,-343.5 152.475,-340 152.475,-347"/>
</g>
<!-- Node5 -->
<g id="node5" class="node"><title>Node5</title>
<g id="a_node5"><a xlink:href="classprior__hessian_1_1CompositeDist.html#a7e98f7f421d90f4b640e956ddf38987c" target="_top" xlink:title="prior_hessian::Composite\lDist::global_ubound">
<polygon fill="white" stroke="black" points="162.5,-282.5 162.5,-310.5 284.5,-310.5 284.5,-282.5 162.5,-282.5"/>
<text text-anchor="start" x="170.5" y="-299.3" font-family="Helvetica,sans-Serif" font-size="9.00">prior_hessian::Composite</text>
<text text-anchor="middle" x="223.5" y="-289.3" font-family="Helvetica,sans-Serif" font-size="9.00">Dist::global_ubound</text>
</a>
</g>
</g>
<!-- Node1&#45;&gt;Node5 -->
<g id="edge4" class="edge"><title>Node1&#45;&gt;Node5</title>
<path fill="none" stroke="midnightblue" d="M92.946,-334.438C113.282,-328.483 140.514,-320.508 164.762,-313.408"/>
<polygon fill="midnightblue" stroke="midnightblue" points="165.976,-316.699 174.589,-310.53 164.009,-309.981 165.976,-316.699"/>
</g>
<!-- Node6 -->
<g id="node6" class="node"><title>Node6</title>
<g id="a_node6"><a xlink:href="classprior__hessian_1_1CompositeDist.html#a46c83acc63b87837f3c4cb425e312d67" target="_top" xlink:title="prior_hessian::Composite\lDist::lbound">
<polygon fill="white" stroke="black" points="162.5,-235.5 162.5,-263.5 284.5,-263.5 284.5,-235.5 162.5,-235.5"/>
<text text-anchor="start" x="170.5" y="-252.3" font-family="Helvetica,sans-Serif" font-size="9.00">prior_hessian::Composite</text>
<text text-anchor="middle" x="223.5" y="-242.3" font-family="Helvetica,sans-Serif" font-size="9.00">Dist::lbound</text>
</a>
</g>
</g>
<!-- Node1&#45;&gt;Node6 -->
<g id="edge5" class="edge"><title>Node1&#45;&gt;Node6</title>
<path fill="none" stroke="midnightblue" d="M72.5763,-334.267C89.601,-319.768 124.568,-291.466 158,-273.5 161.955,-271.375 166.139,-269.356 170.398,-267.459"/>
<polygon fill="midnightblue" stroke="midnightblue" points="171.93,-270.612 179.787,-263.505 169.213,-264.16 171.93,-270.612"/>
</g>
<!-- Node7 -->
<g id="node7" class="node"><title>Node7</title>
<g id="a_node7"><a xlink:href="classprior__hessian_1_1CompositeDist.html#a6faf6fbb059017af5756d4327bb504bc" target="_top" xlink:title="prior_hessian::Composite\lDist::num_components">
<polygon fill="white" stroke="black" points="337,-590.5 337,-618.5 459,-618.5 459,-590.5 337,-590.5"/>
<text text-anchor="start" x="345" y="-607.3" font-family="Helvetica,sans-Serif" font-size="9.00">prior_hessian::Composite</text>
<text text-anchor="middle" x="398" y="-597.3" font-family="Helvetica,sans-Serif" font-size="9.00">Dist::num_components</text>
</a>
</g>
</g>
<!-- Node1&#45;&gt;Node7 -->
<g id="edge6" class="edge"><title>Node1&#45;&gt;Node7</title>
<path fill="none" stroke="midnightblue" d="M62.3872,-352.505C64.4862,-388.919 77.655,-526.148 158,-585.5 206.022,-620.975 275.262,-622.661 326.867,-617.286"/>
<polygon fill="midnightblue" stroke="midnightblue" points="327.408,-620.747 336.941,-616.124 326.606,-613.793 327.408,-620.747"/>
</g>
<!-- Node8 -->
<g id="node8" class="node"><title>Node8</title>
<g id="a_node8"><a xlink:href="classprior__hessian_1_1CompositeDist.html#ad532e3fe9e7293fef7b293d3c94a1ddc" target="_top" xlink:title="prior_hessian::Composite\lDist::num_dim">
<polygon fill="white" stroke="black" points="507,-457.5 507,-485.5 629,-485.5 629,-457.5 507,-457.5"/>
<text text-anchor="start" x="515" y="-474.3" font-family="Helvetica,sans-Serif" font-size="9.00">prior_hessian::Composite</text>
<text text-anchor="middle" x="568" y="-464.3" font-family="Helvetica,sans-Serif" font-size="9.00">Dist::num_dim</text>
</a>
</g>
</g>
<!-- Node1&#45;&gt;Node8 -->
<g id="edge7" class="edge"><title>Node1&#45;&gt;Node8</title>
<path fill="none" stroke="midnightblue" d="M93.7641,-352.603C112.352,-357.637 136.352,-363.637 158,-367.5 295.753,-392.082 340.495,-351.014 471,-401.5 499.36,-412.471 526.893,-434.02 545.146,-450.326"/>
<polygon fill="midnightblue" stroke="midnightblue" points="543.114,-453.211 552.849,-457.392 547.846,-448.053 543.114,-453.211"/>
</g>
<!-- Node9 -->
<g id="node9" class="node"><title>Node9</title>
<g id="a_node9"><a xlink:href="classprior__hessian_1_1CompositeDist.html#ab33784dcc2971ebaae40e6138bd1e4c2" target="_top" xlink:title="prior_hessian::Composite\lDist::num_dim_components">
<polygon fill="white" stroke="black" points="158,-453.5 158,-481.5 289,-481.5 289,-453.5 158,-453.5"/>
<text text-anchor="start" x="166" y="-470.3" font-family="Helvetica,sans-Serif" font-size="9.00">prior_hessian::Composite</text>
<text text-anchor="middle" x="223.5" y="-460.3" font-family="Helvetica,sans-Serif" font-size="9.00">Dist::num_dim_components</text>
</a>
</g>
</g>
<!-- Node1&#45;&gt;Node9 -->
<g id="edge8" class="edge"><title>Node1&#45;&gt;Node9</title>
<path fill="none" stroke="midnightblue" d="M69.3325,-352.705C84.3319,-371.052 120.298,-412.632 158,-438.5 163.578,-442.327 169.742,-445.85 175.982,-449.022"/>
<polygon fill="midnightblue" stroke="midnightblue" points="174.59,-452.236 185.119,-453.414 177.622,-445.927 174.59,-452.236"/>
</g>
<!-- Node11 -->
<g id="node11" class="node"><title>Node11</title>
<g id="a_node11"><a xlink:href="classprior__hessian_1_1CompositeDist.html#ae7742f32d7e64ca2c7b55132a8ae6895" target="_top" xlink:title="prior_hessian::Composite\lDist::num_params">
<polygon fill="white" stroke="black" points="162.5,-188.5 162.5,-216.5 284.5,-216.5 284.5,-188.5 162.5,-188.5"/>
<text text-anchor="start" x="170.5" y="-205.3" font-family="Helvetica,sans-Serif" font-size="9.00">prior_hessian::Composite</text>
<text text-anchor="middle" x="223.5" y="-195.3" font-family="Helvetica,sans-Serif" font-size="9.00">Dist::num_params</text>
</a>
</g>
</g>
<!-- Node1&#45;&gt;Node11 -->
<g id="edge12" class="edge"><title>Node1&#45;&gt;Node11</title>
<path fill="none" stroke="midnightblue" d="M67.2461,-334.195C80.0041,-312.356 114.801,-257.336 158,-226.5 160.674,-224.591 163.518,-222.815 166.465,-221.166"/>
<polygon fill="midnightblue" stroke="midnightblue" points="168.188,-224.217 175.544,-216.592 165.039,-217.966 168.188,-224.217"/>
</g>
<!-- Node12 -->
<g id="node12" class="node"><title>Node12</title>
<g id="a_node12"><a xlink:href="classprior__hessian_1_1CompositeDist.html#a389c0e5459eeacc5f35afdf14d6a38d7" target="_top" xlink:title="prior_hessian::Composite\lDist::num_params_components">
<polygon fill="white" stroke="black" points="325,-504.5 325,-532.5 471,-532.5 471,-504.5 325,-504.5"/>
<text text-anchor="start" x="333" y="-521.3" font-family="Helvetica,sans-Serif" font-size="9.00">prior_hessian::Composite</text>
<text text-anchor="middle" x="398" y="-511.3" font-family="Helvetica,sans-Serif" font-size="9.00">Dist::num_params_components</text>
</a>
</g>
</g>
<!-- Node1&#45;&gt;Node12 -->
<g id="edge13" class="edge"><title>Node1&#45;&gt;Node12</title>
<path fill="none" stroke="midnightblue" d="M64.8867,-352.841C73.7433,-379.75 103.302,-457.668 158,-491.5 204.416,-520.21 265.736,-526.642 314.642,-526.06"/>
<polygon fill="midnightblue" stroke="midnightblue" points="314.959,-529.554 324.88,-525.835 314.805,-522.556 314.959,-529.554"/>
</g>
<!-- Node13 -->
<g id="node13" class="node"><title>Node13</title>
<g id="a_node13"><a xlink:href="classprior__hessian_1_1CompositeDist.html#ae7ca30fd19fb59ebe241873443b9faed" target="_top" xlink:title="prior_hessian::Composite\lDist::param_names">
<polygon fill="white" stroke="black" points="162.5,-547.5 162.5,-575.5 284.5,-575.5 284.5,-547.5 162.5,-547.5"/>
<text text-anchor="start" x="170.5" y="-564.3" font-family="Helvetica,sans-Serif" font-size="9.00">prior_hessian::Composite</text>
<text text-anchor="middle" x="223.5" y="-554.3" font-family="Helvetica,sans-Serif" font-size="9.00">Dist::param_names</text>
</a>
</g>
</g>
<!-- Node1&#45;&gt;Node13 -->
<g id="edge14" class="edge"><title>Node1&#45;&gt;Node13</title>
<path fill="none" stroke="midnightblue" d="M64.5895,-352.806C73.1804,-382.173 103.344,-474.158 158,-528.5 163.335,-533.805 169.698,-538.432 176.318,-542.409"/>
<polygon fill="midnightblue" stroke="midnightblue" points="174.983,-545.67 185.431,-547.431 178.362,-539.539 174.983,-545.67"/>
</g>
<!-- Node14 -->
<g id="node14" class="node"><title>Node14</title>
<g id="a_node14"><a xlink:href="classprior__hessian_1_1CompositeDist.html#adc8761a6b3dda7ffe7d1694cebcd21f5" target="_top" xlink:title="prior_hessian::Composite\lDist::params">
<polygon fill="white" stroke="black" points="162.5,-141.5 162.5,-169.5 284.5,-169.5 284.5,-141.5 162.5,-141.5"/>
<text text-anchor="start" x="170.5" y="-158.3" font-family="Helvetica,sans-Serif" font-size="9.00">prior_hessian::Composite</text>
<text text-anchor="middle" x="223.5" y="-148.3" font-family="Helvetica,sans-Serif" font-size="9.00">Dist::params</text>
</a>
</g>
</g>
<!-- Node1&#45;&gt;Node14 -->
<g id="edge19" class="edge"><title>Node1&#45;&gt;Node14</title>
<path fill="none" stroke="midnightblue" d="M64.9153,-334.23C74.0454,-306.653 104.7,-224.277 158,-179.5 160.001,-177.819 162.131,-176.25 164.354,-174.786"/>
<polygon fill="midnightblue" stroke="midnightblue" points="166.376,-177.661 173.306,-169.646 162.891,-171.59 166.376,-177.661"/>
</g>
<!-- Node15 -->
<g id="node15" class="node"><title>Node15</title>
<g id="a_node15"><a xlink:href="classprior__hessian_1_1CompositeDist.html#a3520120621a69469e885ba64f08ede3a" target="_top" xlink:title="prior_hessian::Composite\lDist::params_lbound">
<polygon fill="white" stroke="black" points="162.5,-94.5 162.5,-122.5 284.5,-122.5 284.5,-94.5 162.5,-94.5"/>
<text text-anchor="start" x="170.5" y="-111.3" font-family="Helvetica,sans-Serif" font-size="9.00">prior_hessian::Composite</text>
<text text-anchor="middle" x="223.5" y="-101.3" font-family="Helvetica,sans-Serif" font-size="9.00">Dist::params_lbound</text>
</a>
</g>
</g>
<!-- Node1&#45;&gt;Node15 -->
<g id="edge20" class="edge"><title>Node1&#45;&gt;Node15</title>
<path fill="none" stroke="midnightblue" d="M63.5562,-334.446C69.5527,-302.246 94.101,-192.03 158,-132.5 159.705,-130.912 161.524,-129.426 163.43,-128.037"/>
<polygon fill="midnightblue" stroke="midnightblue" points="165.62,-130.797 172.263,-122.543 161.923,-124.853 165.62,-130.797"/>
</g>
<!-- Node16 -->
<g id="node16" class="node"><title>Node16</title>
<g id="a_node16"><a xlink:href="classprior__hessian_1_1CompositeDist.html#ab9eac2d70f484d2d0d4ead6a21d6f798" target="_top" xlink:title="prior_hessian::Composite\lDist::params_ubound">
<polygon fill="white" stroke="black" points="162.5,-47.5 162.5,-75.5 284.5,-75.5 284.5,-47.5 162.5,-47.5"/>
<text text-anchor="start" x="170.5" y="-64.3" font-family="Helvetica,sans-Serif" font-size="9.00">prior_hessian::Composite</text>
<text text-anchor="middle" x="223.5" y="-54.3" font-family="Helvetica,sans-Serif" font-size="9.00">Dist::params_ubound</text>
</a>
</g>
</g>
<!-- Node1&#45;&gt;Node16 -->
<g id="edge21" class="edge"><title>Node1&#45;&gt;Node16</title>
<path fill="none" stroke="midnightblue" d="M62.6643,-334.476C65.8375,-297.884 82.5968,-158.972 158,-84.5 159.084,-83.4296 160.221,-82.4088 161.402,-81.4352"/>
<polygon fill="midnightblue" stroke="midnightblue" points="163.521,-84.2259 169.772,-75.6714 159.551,-78.4608 163.521,-84.2259"/>
</g>
<!-- Node17 -->
<g id="node17" class="node"><title>Node17</title>
<g id="a_node17"><a xlink:href="classprior__hessian_1_1CompositeDist.html#aab0290d9dd418c2e7deb26e9f37eb74f" target="_top" xlink:title="prior_hessian::Composite\lDist::ubound">
<polygon fill="white" stroke="black" points="162.5,-0.5 162.5,-28.5 284.5,-28.5 284.5,-0.5 162.5,-0.5"/>
<text text-anchor="start" x="170.5" y="-17.3" font-family="Helvetica,sans-Serif" font-size="9.00">prior_hessian::Composite</text>
<text text-anchor="middle" x="223.5" y="-7.3" font-family="Helvetica,sans-Serif" font-size="9.00">Dist::ubound</text>
</a>
</g>
</g>
<!-- Node1&#45;&gt;Node17 -->
<g id="edge22" class="edge"><title>Node1&#45;&gt;Node17</title>
<path fill="none" stroke="midnightblue" d="M62.0771,-334.292C62.9204,-293.505 71.7188,-127.171 158,-37.5 158.927,-36.5362 159.898,-35.6127 160.906,-34.7279"/>
<polygon fill="midnightblue" stroke="midnightblue" points="163.224,-37.3702 169.274,-28.6723 159.121,-31.6992 163.224,-37.3702"/>
</g>
<!-- Node9&#45;&gt;Node3 -->
<g id="edge9" class="edge"><title>Node9&#45;&gt;Node3</title>
<path fill="none" stroke="midnightblue" d="M280.983,-453.42C296.85,-449.465 314.249,-445.128 330.636,-441.043"/>
<polygon fill="midnightblue" stroke="midnightblue" points="331.828,-444.353 340.685,-438.538 330.135,-437.561 331.828,-444.353"/>
</g>
<!-- Node10 -->
<g id="node10" class="node"><title>Node10</title>
<g id="a_node10"><a xlink:href="classprior__hessian_1_1CompositeDist.html#a6a84d1519fcee908bd41abd4a989f666" target="_top" xlink:title="prior_hessian::Composite\lDist::set_dim_variables">
<polygon fill="white" stroke="black" points="337,-457.5 337,-485.5 459,-485.5 459,-457.5 337,-457.5"/>
<text text-anchor="start" x="345" y="-474.3" font-family="Helvetica,sans-Serif" font-size="9.00">prior_hessian::Composite</text>
<text text-anchor="middle" x="398" y="-464.3" font-family="Helvetica,sans-Serif" font-size="9.00">Dist::set_dim_variables</text>
</a>
</g>
</g>
<!-- Node9&#45;&gt;Node10 -->
<g id="edge10" class="edge"><title>Node9&#45;&gt;Node10</title>
<path fill="none" stroke="midnightblue" d="M289.223,-469.001C301.398,-469.283 314.183,-469.58 326.523,-469.866"/>
<polygon fill="midnightblue" stroke="midnightblue" points="326.681,-473.37 336.76,-470.103 326.844,-466.372 326.681,-473.37"/>
</g>
<!-- Node10&#45;&gt;Node8 -->
<g id="edge11" class="edge"><title>Node10&#45;&gt;Node8</title>
<path fill="none" stroke="midnightblue" d="M459.177,-471.5C471.314,-471.5 484.174,-471.5 496.624,-471.5"/>
<polygon fill="midnightblue" stroke="midnightblue" points="496.961,-475 506.961,-471.5 496.961,-468 496.961,-475"/>
</g>
<!-- Node13&#45;&gt;Node2 -->
<g id="edge18" class="edge"><title>Node13&#45;&gt;Node2</title>
<path fill="none" stroke="midnightblue" d="M242.459,-575.733C261.879,-590.567 294.201,-613.676 325,-628.5 328.858,-630.357 332.901,-632.114 337.021,-633.766"/>
<polygon fill="midnightblue" stroke="midnightblue" points="336.128,-637.171 346.72,-637.431 338.602,-630.622 336.128,-637.171"/>
</g>
<!-- Node13&#45;&gt;Node7 -->
<g id="edge15" class="edge"><title>Node13&#45;&gt;Node7</title>
<path fill="none" stroke="midnightblue" d="M280.983,-575.58C296.85,-579.535 314.249,-583.872 330.636,-587.957"/>
<polygon fill="midnightblue" stroke="midnightblue" points="330.135,-591.439 340.685,-590.462 331.828,-584.647 330.135,-591.439"/>
</g>
<!-- Node13&#45;&gt;Node8 -->
<g id="edge16" class="edge"><title>Node13&#45;&gt;Node8</title>
<path fill="none" stroke="midnightblue" d="M284.748,-565.977C335.918,-567.666 410.472,-565.066 471,-542.5 499.803,-531.761 527.449,-509.641 545.614,-492.927"/>
<polygon fill="midnightblue" stroke="midnightblue" points="548.405,-495.104 553.263,-485.689 543.594,-490.02 548.405,-495.104"/>
</g>
<!-- Node13&#45;&gt;Node12 -->
<g id="edge17" class="edge"><title>Node13&#45;&gt;Node12</title>
<path fill="none" stroke="midnightblue" d="M280.983,-547.42C296.85,-543.465 314.249,-539.128 330.636,-535.043"/>
<polygon fill="midnightblue" stroke="midnightblue" points="331.828,-538.353 340.685,-532.538 330.135,-531.561 331.828,-538.353"/>
</g>
</g>
</svg>
        <g id="navigator" transform="translate(0 0)" fill="#404254">
                <rect fill="#f2f5e9" fill-opacity="0.5" stroke="#606060" stroke-width=".5" x="0" y="0" width="60" height="60"/>
                <use id="zoomplus" xlink:href="#zoomPlus" x="17" y="9" onmousedown="handleZoom(evt,'in')"/>
                <use id="zoomminus" xlink:href="#zoomMin" x="42" y="9" onmousedown="handleZoom(evt,'out')"/>
                <use id="reset" xlink:href="#resetDef" x="30" y="36" onmousedown="handleReset()"/>
                <g id="arrowUp" xlink:href="#dirArrow" transform="translate(30 24)" onmousedown="handlePan(0,-1)">
                  <use xlink:href="#rim" fill="#404040">
                        <set attributeName="fill" to="#808080" begin="arrowUp.mouseover" end="arrowUp.mouseout"/>
                  </use>
                  <path fill="none" stroke="white" stroke-width="1.5" d="M0,-3.0v7 M-2.5,-0.5L0,-3.0L2.5,-0.5"/>
                </g>
                <g id="arrowRight" xlink:href="#dirArrow" transform="rotate(90) translate(36 -43)" onmousedown="handlePan(1,0)">
                  <use xlink:href="#rim" fill="#404040">
                        <set attributeName="fill" to="#808080" begin="arrowRight.mouseover" end="arrowRight.mouseout"/>
                  </use>
                  <path fill="none" stroke="white" stroke-width="1.5" d="M0,-3.0v7 M-2.5,-0.5L0,-3.0L2.5,-0.5"/>
                </g>
                <g id="arrowDown" xlink:href="#dirArrow" transform="rotate(180) translate(-30 -48)" onmousedown="handlePan(0,1)">
                  <use xlink:href="#rim" fill="#404040">
                        <set attributeName="fill" to="#808080" begin="arrowDown.mouseover" end="arrowDown.mouseout"/>
                  </use>
                  <path fill="none" stroke="white" stroke-width="1.5" d="M0,-3.0v7 M-2.5,-0.5L0,-3.0L2.5,-0.5"/>
                </g>
                <g id="arrowLeft" xlink:href="#dirArrow" transform="rotate(270) translate(-36 17)" onmousedown="handlePan(-1,0)">
                  <use xlink:href="#rim" fill="#404040">
                        <set attributeName="fill" to="#808080" begin="arrowLeft.mouseover" end="arrowLeft.mouseout"/>
                  </use>
                  <path fill="none" stroke="white" stroke-width="1.5" d="M0,-3.0v7 M-2.5,-0.5L0,-3.0L2.5,-0.5"/>
                </g>
        </g>
        <svg viewBox="0 0 15 15" width="100%" height="30px" preserveAspectRatio="xMaxYMin meet">
         <g id="arrow_out" transform="scale(0.3 0.3)">
          <a xlink:href="namespaceprior__hessian_ab26e9ddc3b6a5caccf5d75e1a1e1af1b_cgraph_org.svg" target="_base">
           <rect id="button" ry="5" rx="5" y="6" x="6" height="38" width="38"
                fill="#f2f5e9" fill-opacity="0.5" stroke="#606060" stroke-width="1.0"/>
           <path id="arrow"
             d="M 11.500037,31.436501 C 11.940474,20.09759 22.043105,11.32322 32.158766,21.979434 L 37.068811,17.246167 C 37.068811,17.246167 37.088388,32 37.088388,32 L 22.160133,31.978069 C 22.160133,31.978069 26.997745,27.140456 26.997745,27.140456 C 18.528582,18.264221 13.291696,25.230495 11.500037,31.436501 z"
             style="fill:#404040;"/>
          </a>
         </g>
        </svg>
</svg>
