<?xml version="1.0" encoding="UTF-8" standalone="no"?>
<!DOCTYPE svg PUBLIC "-//W3C//DTD SVG 1.1//EN"
 "http://www.w3.org/Graphics/SVG/1.1/DTD/svg11.dtd">
<!-- Generated by graphviz version 2.38.0 (20140413.2041)
 -->
<!-- Title: prior_hessian::helpers::compute_quadratic_from_symmetric Pages: 1 -->
<svg width="273pt" height="47pt"
 viewBox="0.00 0.00 273.00 47.00" xmlns="http://www.w3.org/2000/svg" xmlns:xlink="http://www.w3.org/1999/xlink">
<g id="graph0" class="graph" transform="scale(1 1) rotate(0) translate(4 43)">
<title>prior_hessian::helpers::compute_quadratic_from_symmetric</title>
<polygon fill="white" stroke="none" points="-4,4 -4,-43 269,-43 269,4 -4,4"/>
<!-- Node1 -->
<g id="node1" class="node"><title>Node1</title>
<polygon fill="#bfbfbf" stroke="black" points="0,-0.5 0,-38.5 123,-38.5 123,-0.5 0,-0.5"/>
<text text-anchor="start" x="8" y="-27.3" font-family="Helvetica,sans-Serif" font-size="9.00">prior_hessian::helpers</text>
<text text-anchor="start" x="8" y="-17.3" font-family="Helvetica,sans-Serif" font-size="9.00">::compute_quadratic_from</text>
<text text-anchor="middle" x="61.5" y="-7.3" font-family="Helvetica,sans-Serif" font-size="9.00">_symmetric</text>
</g>
<!-- Node2 -->
<g id="node2" class="node"><title>Node2</title>
<g id="a_node2"><a xlink:href="namespaceprior__hessian.html#a706cb136b90f16dd920118eb59ef1ad6" target="_top" xlink:title="prior_hessian::square">
<polygon fill="white" stroke="black" points="159,-10.5 159,-28.5 265,-28.5 265,-10.5 159,-10.5"/>
<text text-anchor="middle" x="212" y="-17.3" font-family="Helvetica,sans-Serif" font-size="9.00">prior_hessian::square</text>
</a>
</g>
</g>
<!-- Node1&#45;&gt;Node2 -->
<g id="edge1" class="edge"><title>Node1&#45;&gt;Node2</title>
<path fill="none" stroke="midnightblue" d="M123.329,-19.5C131.643,-19.5 140.189,-19.5 148.532,-19.5"/>
<polygon fill="midnightblue" stroke="midnightblue" points="148.578,-23.0001 158.578,-19.5 148.577,-16.0001 148.578,-23.0001"/>
</g>
</g>
</svg>
