<?xml version="1.0" encoding="UTF-8" standalone="no"?>
<!DOCTYPE svg PUBLIC "-//W3C//DTD SVG 1.1//EN"
 "http://www.w3.org/Graphics/SVG/1.1/DTD/svg11.dtd">
<!-- Generated by graphviz version 2.38.0 (20140413.2041)
 -->
<!-- Title: prior_hessian::meta::logical_and_in_order Pages: 1 -->
<!--zoomable 178 -->
<svg id="main" version="1.1" xmlns="http://www.w3.org/2000/svg" xmlns:xlink="http://www.w3.org/1999/xlink" xml:space="preserve" onload="init(evt)">
<style type="text/css"><![CDATA[
.edge:hover path { stroke: red; }
.edge:hover polygon { stroke: red; fill: red; }
]]></style>
<script type="text/javascript"><![CDATA[
var edges = document.getElementsByTagName('g');
if (edges && edges.length) {
  for (var i=0;i<edges.length;i++) {
    if (edges[i].id.substr(0,4)=='edge') {
      edges[i].setAttribute('class','edge');
    }
  }
}
]]></script>
        <defs>
                <circle id="rim" cx="0" cy="0" r="7"/>
                <circle id="rim2" cx="0" cy="0" r="3.5"/>
                <g id="zoomPlus">
                        <use xlink:href="#rim" fill="#404040">
                                <set attributeName="fill" to="#808080" begin="zoomplus.mouseover" end="zoomplus.mouseout"/>
                        </use>
                        <path d="M-4,0h8M0,-4v8" fill="none" stroke="white" stroke-width="1.5" pointer-events="none"/>
                </g>
                <g id="zoomMin">
                        <use xlink:href="#rim" fill="#404040">
                                <set attributeName="fill" to="#808080" begin="zoomminus.mouseover" end="zoomminus.mouseout"/>
                        </use>
                        <path d="M-4,0h8" fill="none" stroke="white" stroke-width="1.5" pointer-events="none"/>
                </g>
                <g id="dirArrow">
                        <path fill="none" stroke="white" stroke-width="1.5" d="M0,-3.0v7 M-2.5,-0.5L0,-3.0L2.5,-0.5"/>
                </g>
               <g id="resetDef">
                       <use xlink:href="#rim2" fill="#404040">
                               <set attributeName="fill" to="#808080" begin="reset.mouseover" end="reset.mouseout"/>
                       </use>
               </g>
        </defs>

<script type="text/javascript">
var viewWidth = 806;
var viewHeight = 178;
var sectionId = 'dynsection-3';
</script>
<script xlink:href="svgpan.js"/>
<svg id="graph" class="graph">
<g id="viewport">
<title>prior_hessian::meta::logical_and_in_order</title>
<polygon fill="white" stroke="none" points="-4,4 -4,-174 802,-174 802,4 -4,4"/>
<!-- Node1 -->
<g id="node1" class="node"><title>Node1</title>
<polygon fill="#bfbfbf" stroke="black" points="0,-23.5 0,-51.5 109,-51.5 109,-23.5 0,-23.5"/>
<text text-anchor="start" x="8" y="-40.3" font-family="Helvetica,sans-Serif" font-size="9.00">prior_hessian::meta</text>
<text text-anchor="middle" x="54.5" y="-30.3" font-family="Helvetica,sans-Serif" font-size="9.00">::logical_and_in_order</text>
</g>
<!-- Node2 -->
<g id="node2" class="node"><title>Node2</title>
<g id="a_node2"><a xlink:href="classprior__hessian_1_1CopulaDistImpl_1_1CopulaDist.html#aad110f1a85e7611fd098aa51c2104015" target="_top" xlink:title="prior_hessian::CopulaDist\lImpl::CopulaDist::global_ubound">
<polygon fill="white" stroke="black" points="145,-47.5 145,-75.5 296,-75.5 296,-47.5 145,-47.5"/>
<text text-anchor="start" x="153" y="-64.3" font-family="Helvetica,sans-Serif" font-size="9.00">prior_hessian::CopulaDist</text>
<text text-anchor="middle" x="220.5" y="-54.3" font-family="Helvetica,sans-Serif" font-size="9.00">Impl::CopulaDist::global_ubound</text>
</a>
</g>
</g>
<!-- Node1&#45;&gt;Node2 -->
<g id="edge1" class="edge"><title>Node1&#45;&gt;Node2</title>
<path fill="none" stroke="midnightblue" d="M119.266,-46.8316C127.648,-48.0583 136.298,-49.3241 144.841,-50.5743"/>
<polygon fill="midnightblue" stroke="midnightblue" points="119.601,-43.3435 109.2,-45.3585 118.588,-50.2697 119.601,-43.3435"/>
</g>
<!-- Node8 -->
<g id="node8" class="node"><title>Node8</title>
<g id="a_node8"><a xlink:href="classprior__hessian_1_1CompositeDist.html#a24bac25ae8c0330b8a3aacadffc9d5ae" target="_top" xlink:title="prior_hessian::Composite\lDist::rllh_components">
<polygon fill="white" stroke="black" points="159.5,-0.5 159.5,-28.5 281.5,-28.5 281.5,-0.5 159.5,-0.5"/>
<text text-anchor="start" x="167.5" y="-17.3" font-family="Helvetica,sans-Serif" font-size="9.00">prior_hessian::Composite</text>
<text text-anchor="middle" x="220.5" y="-7.3" font-family="Helvetica,sans-Serif" font-size="9.00">Dist::rllh_components</text>
</a>
</g>
</g>
<!-- Node1&#45;&gt;Node8 -->
<g id="edge13" class="edge"><title>Node1&#45;&gt;Node8</title>
<path fill="none" stroke="midnightblue" d="M119.171,-28.5705C132.414,-26.7133 146.329,-24.7618 159.436,-22.9236"/>
<polygon fill="midnightblue" stroke="midnightblue" points="118.617,-25.1139 109.2,-29.9689 119.589,-32.0461 118.617,-25.1139"/>
</g>
<!-- Node3 -->
<g id="node3" class="node"><title>Node3</title>
<g id="a_node3"><a xlink:href="classprior__hessian_1_1CopulaDistImpl_1_1CopulaDist.html#a26cd71990978df0ddae24dae5148c880" target="_top" xlink:title="prior_hessian::CopulaDist\lImpl::CopulaDist::num_dim">
<polygon fill="white" stroke="black" points="337,-141.5 337,-169.5 464,-169.5 464,-141.5 337,-141.5"/>
<text text-anchor="start" x="345" y="-158.3" font-family="Helvetica,sans-Serif" font-size="9.00">prior_hessian::CopulaDist</text>
<text text-anchor="middle" x="400.5" y="-148.3" font-family="Helvetica,sans-Serif" font-size="9.00">Impl::CopulaDist::num_dim</text>
</a>
</g>
</g>
<!-- Node2&#45;&gt;Node3 -->
<g id="edge2" class="edge"><title>Node2&#45;&gt;Node3</title>
<path fill="none" stroke="midnightblue" d="M248.611,-81.5765C270.338,-96.9979 302.04,-118.036 332,-132.5 338.69,-135.729 345.951,-138.708 353.149,-141.377"/>
<polygon fill="midnightblue" stroke="midnightblue" points="250.393,-78.5468 240.23,-75.554 246.308,-84.2316 250.393,-78.5468"/>
</g>
<!-- Node4 -->
<g id="node4" class="node"><title>Node4</title>
<g id="a_node4"><a xlink:href="classprior__hessian_1_1CopulaDistImpl_1_1CopulaDist.html#ad5f8f42efd9f709625cf60836fa473b9" target="_top" xlink:title="prior_hessian::CopulaDist\lImpl::CopulaDist::set_bounds">
<polygon fill="white" stroke="black" points="332,-94.5 332,-122.5 469,-122.5 469,-94.5 332,-94.5"/>
<text text-anchor="start" x="340" y="-111.3" font-family="Helvetica,sans-Serif" font-size="9.00">prior_hessian::CopulaDist</text>
<text text-anchor="middle" x="400.5" y="-101.3" font-family="Helvetica,sans-Serif" font-size="9.00">Impl::CopulaDist::set_bounds</text>
</a>
</g>
</g>
<!-- Node2&#45;&gt;Node4 -->
<g id="edge3" class="edge"><title>Node2&#45;&gt;Node4</title>
<path fill="none" stroke="midnightblue" d="M306.055,-77.0838C327.566,-82.6911 349.424,-88.9169 366.585,-94.4297"/>
<polygon fill="midnightblue" stroke="midnightblue" points="306.771,-73.6541 296.214,-74.5558 305.029,-80.434 306.771,-73.6541"/>
</g>
<!-- Node7 -->
<g id="node7" class="node"><title>Node7</title>
<g id="a_node7"><a xlink:href="classprior__hessian_1_1CopulaDistImpl_1_1CopulaDist.html#a4b010ffe2c2acd4dc75c80b32312254d" target="_top" xlink:title="prior_hessian::CopulaDist\lImpl::CopulaDist::set_ubound">
<polygon fill="white" stroke="black" points="332,-47.5 332,-75.5 469,-75.5 469,-47.5 332,-47.5"/>
<text text-anchor="start" x="340" y="-64.3" font-family="Helvetica,sans-Serif" font-size="9.00">prior_hessian::CopulaDist</text>
<text text-anchor="middle" x="400.5" y="-54.3" font-family="Helvetica,sans-Serif" font-size="9.00">Impl::CopulaDist::set_ubound</text>
</a>
</g>
</g>
<!-- Node2&#45;&gt;Node7 -->
<g id="edge10" class="edge"><title>Node2&#45;&gt;Node7</title>
<path fill="none" stroke="midnightblue" d="M306.231,-54.7569C314.8,-54.7292 323.423,-54.785 331.779,-54.9245"/>
<polygon fill="midnightblue" stroke="midnightblue" points="306.189,-51.257 296.214,-54.8279 306.239,-58.2568 306.189,-51.257"/>
</g>
<!-- Node4&#45;&gt;Node2 -->
<g id="edge4" class="edge"><title>Node4&#45;&gt;Node2</title>
<path fill="none" stroke="midnightblue" d="M322.236,-94.7963C298.509,-88.7445 273.65,-81.7441 254.563,-75.6181"/>
<polygon fill="midnightblue" stroke="midnightblue" points="321.409,-98.1972 331.96,-97.2389 323.114,-91.4081 321.409,-98.1972"/>
</g>
<!-- Node5 -->
<g id="node5" class="node"><title>Node5</title>
<g id="a_node5"><a xlink:href="classprior__hessian_1_1CopulaDistImpl_1_1CopulaDist.html#abdb39f0c5f7f5f4b16bf501e6083d5b6" target="_top" xlink:title="prior_hessian::CopulaDist\lImpl::CopulaDist::ubound">
<polygon fill="white" stroke="black" points="505,-28.5 505,-56.5 628,-56.5 628,-28.5 505,-28.5"/>
<text text-anchor="start" x="513" y="-45.3" font-family="Helvetica,sans-Serif" font-size="9.00">prior_hessian::CopulaDist</text>
<text text-anchor="middle" x="566.5" y="-35.3" font-family="Helvetica,sans-Serif" font-size="9.00">Impl::CopulaDist::ubound</text>
</a>
</g>
</g>
<!-- Node4&#45;&gt;Node5 -->
<g id="edge5" class="edge"><title>Node4&#45;&gt;Node5</title>
<path fill="none" stroke="midnightblue" d="M451.99,-90.9773C457.748,-88.8518 463.516,-86.6654 469,-84.5 491.093,-75.7765 515.633,-65.0821 534.437,-56.6681"/>
<polygon fill="midnightblue" stroke="midnightblue" points="450.56,-87.773 442.36,-94.4821 452.954,-94.3509 450.56,-87.773"/>
</g>
<!-- Node5&#45;&gt;Node2 -->
<g id="edge6" class="edge"><title>Node5&#45;&gt;Node2</title>
<path fill="none" stroke="midnightblue" d="M494.682,-38.4102C486.033,-38.0349 477.317,-37.7153 469,-37.5 408.132,-35.9242 392.541,-31.0012 332,-37.5 313.262,-39.5115 293.038,-43.3894 275.078,-47.451"/>
<polygon fill="midnightblue" stroke="midnightblue" points="494.625,-41.9112 504.775,-38.8735 494.946,-34.9185 494.625,-41.9112"/>
</g>
<!-- Node6 -->
<g id="node6" class="node"><title>Node6</title>
<g id="a_node6"><a xlink:href="classprior__hessian_1_1CopulaDistImpl_1_1CopulaDist.html#ac0819ccaeef1afd7a123338823e8fb3c" target="_top" xlink:title="prior_hessian::CopulaDist\lImpl::CopulaDist::set_lbound">
<polygon fill="white" stroke="black" points="664,-28.5 664,-56.5 798,-56.5 798,-28.5 664,-28.5"/>
<text text-anchor="start" x="672" y="-45.3" font-family="Helvetica,sans-Serif" font-size="9.00">prior_hessian::CopulaDist</text>
<text text-anchor="middle" x="731" y="-35.3" font-family="Helvetica,sans-Serif" font-size="9.00">Impl::CopulaDist::set_lbound</text>
</a>
</g>
</g>
<!-- Node5&#45;&gt;Node6 -->
<g id="edge7" class="edge"><title>Node5&#45;&gt;Node6</title>
<path fill="none" stroke="midnightblue" d="M638.03,-35.8025C646.65,-35.7176 655.435,-35.7357 663.986,-35.8566"/>
<polygon fill="midnightblue" stroke="midnightblue" points="637.957,-32.3031 628.009,-35.9494 638.059,-39.3023 637.957,-32.3031"/>
</g>
<!-- Node6&#45;&gt;Node2 -->
<g id="edge8" class="edge"><title>Node6&#45;&gt;Node2</title>
<path fill="none" stroke="midnightblue" d="M670.676,-26.107C656.782,-22.9479 641.96,-20.1202 628,-18.5 497.214,-3.32071 461.735,-8.04544 332,-30.5 309.128,-34.4587 284.189,-41.2344 263.801,-47.4433"/>
<polygon fill="midnightblue" stroke="midnightblue" points="670.066,-29.5592 680.603,-28.4532 671.676,-22.7468 670.066,-29.5592"/>
</g>
<!-- Node6&#45;&gt;Node5 -->
<g id="edge9" class="edge"><title>Node6&#45;&gt;Node5</title>
<path fill="none" stroke="midnightblue" d="M653.864,-49.2381C645.191,-49.2785 636.44,-49.216 628.009,-49.0506"/>
<polygon fill="midnightblue" stroke="midnightblue" points="654.019,-52.7369 663.986,-49.1434 653.953,-45.7372 654.019,-52.7369"/>
</g>
<!-- Node7&#45;&gt;Node2 -->
<g id="edge11" class="edge"><title>Node7&#45;&gt;Node2</title>
<path fill="none" stroke="midnightblue" d="M321.589,-68.2032C313.162,-68.2746 304.602,-68.2643 296.214,-68.1721"/>
<polygon fill="midnightblue" stroke="midnightblue" points="321.824,-71.7006 331.779,-68.0755 321.736,-64.7012 321.824,-71.7006"/>
</g>
<!-- Node7&#45;&gt;Node5 -->
<g id="edge12" class="edge"><title>Node7&#45;&gt;Node5</title>
<path fill="none" stroke="midnightblue" d="M479.203,-52.4979C487.808,-51.5009 496.477,-50.4965 504.829,-49.5289"/>
<polygon fill="midnightblue" stroke="midnightblue" points="478.683,-49.0346 469.152,-53.6623 479.488,-55.9881 478.683,-49.0346"/>
</g>
</g>
</svg>
        <g id="navigator" transform="translate(0 0)" fill="#404254">
                <rect fill="#f2f5e9" fill-opacity="0.5" stroke="#606060" stroke-width=".5" x="0" y="0" width="60" height="60"/>
                <use id="zoomplus" xlink:href="#zoomPlus" x="17" y="9" onmousedown="handleZoom(evt,'in')"/>
                <use id="zoomminus" xlink:href="#zoomMin" x="42" y="9" onmousedown="handleZoom(evt,'out')"/>
                <use id="reset" xlink:href="#resetDef" x="30" y="36" onmousedown="handleReset()"/>
                <g id="arrowUp" xlink:href="#dirArrow" transform="translate(30 24)" onmousedown="handlePan(0,-1)">
                  <use xlink:href="#rim" fill="#404040">
                        <set attributeName="fill" to="#808080" begin="arrowUp.mouseover" end="arrowUp.mouseout"/>
                  </use>
                  <path fill="none" stroke="white" stroke-width="1.5" d="M0,-3.0v7 M-2.5,-0.5L0,-3.0L2.5,-0.5"/>
                </g>
                <g id="arrowRight" xlink:href="#dirArrow" transform="rotate(90) translate(36 -43)" onmousedown="handlePan(1,0)">
                  <use xlink:href="#rim" fill="#404040">
                        <set attributeName="fill" to="#808080" begin="arrowRight.mouseover" end="arrowRight.mouseout"/>
                  </use>
                  <path fill="none" stroke="white" stroke-width="1.5" d="M0,-3.0v7 M-2.5,-0.5L0,-3.0L2.5,-0.5"/>
                </g>
                <g id="arrowDown" xlink:href="#dirArrow" transform="rotate(180) translate(-30 -48)" onmousedown="handlePan(0,1)">
                  <use xlink:href="#rim" fill="#404040">
                        <set attributeName="fill" to="#808080" begin="arrowDown.mouseover" end="arrowDown.mouseout"/>
                  </use>
                  <path fill="none" stroke="white" stroke-width="1.5" d="M0,-3.0v7 M-2.5,-0.5L0,-3.0L2.5,-0.5"/>
                </g>
                <g id="arrowLeft" xlink:href="#dirArrow" transform="rotate(270) translate(-36 17)" onmousedown="handlePan(-1,0)">
                  <use xlink:href="#rim" fill="#404040">
                        <set attributeName="fill" to="#808080" begin="arrowLeft.mouseover" end="arrowLeft.mouseout"/>
                  </use>
                  <path fill="none" stroke="white" stroke-width="1.5" d="M0,-3.0v7 M-2.5,-0.5L0,-3.0L2.5,-0.5"/>
                </g>
        </g>
        <svg viewBox="0 0 15 15" width="100%" height="30px" preserveAspectRatio="xMaxYMin meet">
         <g id="arrow_out" transform="scale(0.3 0.3)">
          <a xlink:href="namespaceprior__hessian_1_1meta_add11951e7edc2c231ca52c32ac0ee07b_icgraph_org.svg" target="_base">
           <rect id="button" ry="5" rx="5" y="6" x="6" height="38" width="38"
                fill="#f2f5e9" fill-opacity="0.5" stroke="#606060" stroke-width="1.0"/>
           <path id="arrow"
             d="M 11.500037,31.436501 C 11.940474,20.09759 22.043105,11.32322 32.158766,21.979434 L 37.068811,17.246167 C 37.068811,17.246167 37.088388,32 37.088388,32 L 22.160133,31.978069 C 22.160133,31.978069 26.997745,27.140456 26.997745,27.140456 C 18.528582,18.264221 13.291696,25.230495 11.500037,31.436501 z"
             style="fill:#404040;"/>
          </a>
         </g>
        </svg>
</svg>
