<?xml version="1.0" encoding="UTF-8" standalone="no"?>
<!DOCTYPE svg PUBLIC "-//W3C//DTD SVG 1.1//EN"
 "http://www.w3.org/Graphics/SVG/1.1/DTD/svg11.dtd">
<!-- Generated by graphviz version 2.38.0 (20140413.2041)
 -->
<!-- Title: prior_hessian::detail::make_adapted_bounded_dist_tuple Pages: 1 -->
<svg width="286pt" height="47pt"
 viewBox="0.00 0.00 286.00 47.00" xmlns="http://www.w3.org/2000/svg" xmlns:xlink="http://www.w3.org/1999/xlink">
<g id="graph0" class="graph" transform="scale(1 1) rotate(0) translate(4 43)">
<title>prior_hessian::detail::make_adapted_bounded_dist_tuple</title>
<polygon fill="white" stroke="none" points="-4,4 -4,-43 282,-43 282,4 -4,4"/>
<!-- Node1 -->
<g id="node1" class="node"><title>Node1</title>
<polygon fill="#bfbfbf" stroke="black" points="0,-0.5 0,-38.5 125,-38.5 125,-0.5 0,-0.5"/>
<text text-anchor="start" x="8" y="-27.3" font-family="Helvetica,sans-Serif" font-size="9.00">prior_hessian::detail</text>
<text text-anchor="start" x="8" y="-17.3" font-family="Helvetica,sans-Serif" font-size="9.00">::make_adapted_bounded</text>
<text text-anchor="middle" x="62.5" y="-7.3" font-family="Helvetica,sans-Serif" font-size="9.00">_dist_tuple</text>
</g>
<!-- Node2 -->
<g id="node2" class="node"><title>Node2</title>
<g id="a_node2"><a xlink:href="namespaceprior__hessian.html#a387cc711a6a39924943b5b20ae76bf6a" target="_top" xlink:title="prior_hessian::make\l_adapted_bounded_dist">
<polygon fill="white" stroke="black" points="161,-5.5 161,-33.5 278,-33.5 278,-5.5 161,-5.5"/>
<text text-anchor="start" x="169" y="-22.3" font-family="Helvetica,sans-Serif" font-size="9.00">prior_hessian::make</text>
<text text-anchor="middle" x="219.5" y="-12.3" font-family="Helvetica,sans-Serif" font-size="9.00">_adapted_bounded_dist</text>
</a>
</g>
</g>
<!-- Node1&#45;&gt;Node2 -->
<g id="edge1" class="edge"><title>Node1&#45;&gt;Node2</title>
<path fill="none" stroke="midnightblue" d="M125.205,-19.5C133.548,-19.5 142.146,-19.5 150.589,-19.5"/>
<polygon fill="midnightblue" stroke="midnightblue" points="150.785,-23.0001 160.785,-19.5 150.785,-16.0001 150.785,-23.0001"/>
</g>
</g>
</svg>
