<?xml version="1.0" encoding="UTF-8" standalone="no"?>
<!DOCTYPE svg PUBLIC "-//W3C//DTD SVG 1.1//EN"
 "http://www.w3.org/Graphics/SVG/1.1/DTD/svg11.dtd">
<!-- Generated by graphviz version 2.38.0 (20140413.2041)
 -->
<!-- Title: prior_hessian::make_adapted_bounded_dist Pages: 1 -->
<svg width="495pt" height="235pt"
 viewBox="0.00 0.00 495.00 235.00" xmlns="http://www.w3.org/2000/svg" xmlns:xlink="http://www.w3.org/1999/xlink">
<g id="graph0" class="graph" transform="scale(1 1) rotate(0) translate(4 231)">
<title>prior_hessian::make_adapted_bounded_dist</title>
<polygon fill="white" stroke="none" points="-4,4 -4,-231 491,-231 491,4 -4,4"/>
<!-- Node1 -->
<g id="node1" class="node"><title>Node1</title>
<polygon fill="#bfbfbf" stroke="black" points="0,-94.5 0,-122.5 117,-122.5 117,-94.5 0,-94.5"/>
<text text-anchor="start" x="8" y="-111.3" font-family="Helvetica,sans-Serif" font-size="9.00">prior_hessian::make</text>
<text text-anchor="middle" x="58.5" y="-101.3" font-family="Helvetica,sans-Serif" font-size="9.00">_adapted_bounded_dist</text>
</g>
<!-- Node2 -->
<g id="node2" class="node"><title>Node2</title>
<g id="a_node2"><a xlink:href="namespaceprior__hessian_1_1detail.html#a13ee7e8b01109559d15a98dcdc1949d3" target="_top" xlink:title="prior_hessian::detail\l::make_adapted_bounded\l_dist_tuple">
<polygon fill="white" stroke="black" points="168,-188.5 168,-226.5 293,-226.5 293,-188.5 168,-188.5"/>
<text text-anchor="start" x="176" y="-215.3" font-family="Helvetica,sans-Serif" font-size="9.00">prior_hessian::detail</text>
<text text-anchor="start" x="176" y="-205.3" font-family="Helvetica,sans-Serif" font-size="9.00">::make_adapted_bounded</text>
<text text-anchor="middle" x="230.5" y="-195.3" font-family="Helvetica,sans-Serif" font-size="9.00">_dist_tuple</text>
</a>
</g>
</g>
<!-- Node1&#45;&gt;Node2 -->
<g id="edge1" class="edge"><title>Node1&#45;&gt;Node2</title>
<path fill="none" stroke="midnightblue" d="M82.7586,-129.311C100.897,-144.732 127.253,-165.429 153,-179.5 158.833,-182.688 165.103,-185.649 171.452,-188.359"/>
<polygon fill="midnightblue" stroke="midnightblue" points="84.8903,-126.527 75.0345,-122.639 80.3146,-131.825 84.8903,-126.527"/>
</g>
<!-- Node4 -->
<g id="node4" class="node"><title>Node4</title>
<g id="a_node4"><a xlink:href="namespaceprior__hessian.html#a55f558964ebfac8734141e232a376bb7" target="_top" xlink:title="prior_hessian::make\l_adapted_bounded_dist_tuple">
<polygon fill="white" stroke="black" points="159,-141.5 159,-169.5 302,-169.5 302,-141.5 159,-141.5"/>
<text text-anchor="start" x="167" y="-158.3" font-family="Helvetica,sans-Serif" font-size="9.00">prior_hessian::make</text>
<text text-anchor="middle" x="230.5" y="-148.3" font-family="Helvetica,sans-Serif" font-size="9.00">_adapted_bounded_dist_tuple</text>
</a>
</g>
</g>
<!-- Node1&#45;&gt;Node4 -->
<g id="edge3" class="edge"><title>Node1&#45;&gt;Node4</title>
<path fill="none" stroke="midnightblue" d="M120.34,-125.32C139.501,-130.618 160.448,-136.409 178.824,-141.489"/>
<polygon fill="midnightblue" stroke="midnightblue" points="121.077,-121.893 110.506,-122.602 119.211,-128.64 121.077,-121.893"/>
</g>
<!-- Node5 -->
<g id="node5" class="node"><title>Node5</title>
<g id="a_node5"><a xlink:href="classprior__hessian_1_1CompositeDist.html#ac035adf066e3b04c42485248be85fd85" target="_top" xlink:title="prior_hessian::Composite\lDist::make_component_dist">
<polygon fill="white" stroke="black" points="165.5,-94.5 165.5,-122.5 295.5,-122.5 295.5,-94.5 165.5,-94.5"/>
<text text-anchor="start" x="173.5" y="-111.3" font-family="Helvetica,sans-Serif" font-size="9.00">prior_hessian::Composite</text>
<text text-anchor="middle" x="230.5" y="-101.3" font-family="Helvetica,sans-Serif" font-size="9.00">Dist::make_component_dist</text>
</a>
</g>
</g>
<!-- Node1&#45;&gt;Node5 -->
<g id="edge4" class="edge"><title>Node1&#45;&gt;Node5</title>
<path fill="none" stroke="midnightblue" d="M127.403,-108.5C139.896,-108.5 152.903,-108.5 165.283,-108.5"/>
<polygon fill="midnightblue" stroke="midnightblue" points="127.054,-105 117.054,-108.5 127.054,-112 127.054,-105"/>
</g>
<!-- Node6 -->
<g id="node6" class="node"><title>Node6</title>
<g id="a_node6"><a xlink:href="classprior__hessian_1_1CompositeDist.html#a203677b1eebcc71684aeb1776b8b343a" target="_top" xlink:title="prior_hessian::Composite\lDist::make_component_dist_tuple">
<polygon fill="white" stroke="black" points="153,-47.5 153,-75.5 308,-75.5 308,-47.5 153,-47.5"/>
<text text-anchor="start" x="161" y="-64.3" font-family="Helvetica,sans-Serif" font-size="9.00">prior_hessian::Composite</text>
<text text-anchor="middle" x="230.5" y="-54.3" font-family="Helvetica,sans-Serif" font-size="9.00">Dist::make_component_dist_tuple</text>
</a>
</g>
</g>
<!-- Node1&#45;&gt;Node6 -->
<g id="edge5" class="edge"><title>Node1&#45;&gt;Node6</title>
<path fill="none" stroke="midnightblue" d="M120.34,-91.6796C139.501,-86.3821 160.448,-80.5908 178.824,-75.5106"/>
<polygon fill="midnightblue" stroke="midnightblue" points="119.211,-88.3602 110.506,-94.3985 121.077,-95.1071 119.211,-88.3602"/>
</g>
<!-- Node7 -->
<g id="node7" class="node"><title>Node7</title>
<g id="a_node7"><a xlink:href="namespaceprior__hessian.html#a0cfb582e76e0bbae3498707a8458cb78" target="_top" xlink:title="prior_hessian::make\l_copula_dist">
<polygon fill="white" stroke="black" points="180.5,-0.5 180.5,-28.5 280.5,-28.5 280.5,-0.5 180.5,-0.5"/>
<text text-anchor="start" x="188.5" y="-17.3" font-family="Helvetica,sans-Serif" font-size="9.00">prior_hessian::make</text>
<text text-anchor="middle" x="230.5" y="-7.3" font-family="Helvetica,sans-Serif" font-size="9.00">_copula_dist</text>
</a>
</g>
</g>
<!-- Node1&#45;&gt;Node7 -->
<g id="edge6" class="edge"><title>Node1&#45;&gt;Node7</title>
<path fill="none" stroke="midnightblue" d="M82.6239,-87.6566C100.692,-72.282 127.019,-51.8064 153,-38.5 161.549,-34.1218 171.046,-30.3603 180.361,-27.2009"/>
<polygon fill="midnightblue" stroke="midnightblue" points="80.2012,-85.1246 74.9343,-94.3175 84.7844,-90.4156 80.2012,-85.1246"/>
</g>
<!-- Node3 -->
<g id="node3" class="node"><title>Node3</title>
<g id="a_node3"><a xlink:href="namespaceprior__hessian.html#a95fddb21432915b6b47579b4ad05602f" target="_top" xlink:title="prior_hessian::make\l_adapted_bounded_dist_tuple">
<polygon fill="white" stroke="black" points="344,-193.5 344,-221.5 487,-221.5 487,-193.5 344,-193.5"/>
<text text-anchor="start" x="352" y="-210.3" font-family="Helvetica,sans-Serif" font-size="9.00">prior_hessian::make</text>
<text text-anchor="middle" x="415.5" y="-200.3" font-family="Helvetica,sans-Serif" font-size="9.00">_adapted_bounded_dist_tuple</text>
</a>
</g>
</g>
<!-- Node2&#45;&gt;Node3 -->
<g id="edge2" class="edge"><title>Node2&#45;&gt;Node3</title>
<path fill="none" stroke="midnightblue" d="M303.283,-207.5C316.643,-207.5 330.593,-207.5 343.918,-207.5"/>
<polygon fill="midnightblue" stroke="midnightblue" points="303.2,-204 293.2,-207.5 303.2,-211 303.2,-204"/>
</g>
</g>
</svg>
