<?xml version="1.0" encoding="UTF-8" standalone="no"?>
<!DOCTYPE svg PUBLIC "-//W3C//DTD SVG 1.1//EN"
 "http://www.w3.org/Graphics/SVG/1.1/DTD/svg11.dtd">
<!-- Generated by graphviz version 2.38.0 (20140413.2041)
 -->
<!-- Title: prior_hessian::make_adapted_bounded_dist_tuple Pages: 1 -->
<svg width="465pt" height="47pt"
 viewBox="0.00 0.00 465.00 47.00" xmlns="http://www.w3.org/2000/svg" xmlns:xlink="http://www.w3.org/1999/xlink">
<g id="graph0" class="graph" transform="scale(1 1) rotate(0) translate(4 43)">
<title>prior_hessian::make_adapted_bounded_dist_tuple</title>
<polygon fill="white" stroke="none" points="-4,4 -4,-43 461,-43 461,4 -4,4"/>
<!-- Node1 -->
<g id="node1" class="node"><title>Node1</title>
<polygon fill="#bfbfbf" stroke="black" points="0,-5.5 0,-33.5 143,-33.5 143,-5.5 0,-5.5"/>
<text text-anchor="start" x="8" y="-22.3" font-family="Helvetica,sans-Serif" font-size="9.00">prior_hessian::make</text>
<text text-anchor="middle" x="71.5" y="-12.3" font-family="Helvetica,sans-Serif" font-size="9.00">_adapted_bounded_dist_tuple</text>
</g>
<!-- Node2 -->
<g id="node2" class="node"><title>Node2</title>
<g id="a_node2"><a xlink:href="namespaceprior__hessian_1_1detail.html#a13ee7e8b01109559d15a98dcdc1949d3" target="_top" xlink:title="prior_hessian::detail\l::make_adapted_bounded\l_dist_tuple">
<polygon fill="white" stroke="black" points="179,-0.5 179,-38.5 304,-38.5 304,-0.5 179,-0.5"/>
<text text-anchor="start" x="187" y="-27.3" font-family="Helvetica,sans-Serif" font-size="9.00">prior_hessian::detail</text>
<text text-anchor="start" x="187" y="-17.3" font-family="Helvetica,sans-Serif" font-size="9.00">::make_adapted_bounded</text>
<text text-anchor="middle" x="241.5" y="-7.3" font-family="Helvetica,sans-Serif" font-size="9.00">_dist_tuple</text>
</a>
</g>
</g>
<!-- Node1&#45;&gt;Node2 -->
<g id="edge1" class="edge"><title>Node1&#45;&gt;Node2</title>
<path fill="none" stroke="midnightblue" d="M143.26,-19.5C151.676,-19.5 160.273,-19.5 168.703,-19.5"/>
<polygon fill="midnightblue" stroke="midnightblue" points="168.878,-23.0001 178.878,-19.5 168.878,-16.0001 168.878,-23.0001"/>
</g>
<!-- Node3 -->
<g id="node3" class="node"><title>Node3</title>
<g id="a_node3"><a xlink:href="namespaceprior__hessian.html#a387cc711a6a39924943b5b20ae76bf6a" target="_top" xlink:title="prior_hessian::make\l_adapted_bounded_dist">
<polygon fill="white" stroke="black" points="340,-5.5 340,-33.5 457,-33.5 457,-5.5 340,-5.5"/>
<text text-anchor="start" x="348" y="-22.3" font-family="Helvetica,sans-Serif" font-size="9.00">prior_hessian::make</text>
<text text-anchor="middle" x="398.5" y="-12.3" font-family="Helvetica,sans-Serif" font-size="9.00">_adapted_bounded_dist</text>
</a>
</g>
</g>
<!-- Node2&#45;&gt;Node3 -->
<g id="edge2" class="edge"><title>Node2&#45;&gt;Node3</title>
<path fill="none" stroke="midnightblue" d="M304.205,-19.5C312.548,-19.5 321.146,-19.5 329.589,-19.5"/>
<polygon fill="midnightblue" stroke="midnightblue" points="329.785,-23.0001 339.785,-19.5 329.785,-16.0001 329.785,-23.0001"/>
</g>
</g>
</svg>
