<?xml version="1.0" encoding="UTF-8" standalone="no"?>
<!DOCTYPE svg PUBLIC "-//W3C//DTD SVG 1.1//EN"
 "http://www.w3.org/Graphics/SVG/1.1/DTD/svg11.dtd">
<!-- Generated by graphviz version 2.38.0 (20140413.2041)
 -->
<!-- Title: prior_hessian::meta::constexpr_accumulate Pages: 1 -->
<!--zoomable 268 -->
<svg id="main" version="1.1" xmlns="http://www.w3.org/2000/svg" xmlns:xlink="http://www.w3.org/1999/xlink" xml:space="preserve" onload="init(evt)">
<style type="text/css"><![CDATA[
.edge:hover path { stroke: red; }
.edge:hover polygon { stroke: red; fill: red; }
]]></style>
<script type="text/javascript"><![CDATA[
var edges = document.getElementsByTagName('g');
if (edges && edges.length) {
  for (var i=0;i<edges.length;i++) {
    if (edges[i].id.substr(0,4)=='edge') {
      edges[i].setAttribute('class','edge');
    }
  }
}
]]></script>
        <defs>
                <circle id="rim" cx="0" cy="0" r="7"/>
                <circle id="rim2" cx="0" cy="0" r="3.5"/>
                <g id="zoomPlus">
                        <use xlink:href="#rim" fill="#404040">
                                <set attributeName="fill" to="#808080" begin="zoomplus.mouseover" end="zoomplus.mouseout"/>
                        </use>
                        <path d="M-4,0h8M0,-4v8" fill="none" stroke="white" stroke-width="1.5" pointer-events="none"/>
                </g>
                <g id="zoomMin">
                        <use xlink:href="#rim" fill="#404040">
                                <set attributeName="fill" to="#808080" begin="zoomminus.mouseover" end="zoomminus.mouseout"/>
                        </use>
                        <path d="M-4,0h8" fill="none" stroke="white" stroke-width="1.5" pointer-events="none"/>
                </g>
                <g id="dirArrow">
                        <path fill="none" stroke="white" stroke-width="1.5" d="M0,-3.0v7 M-2.5,-0.5L0,-3.0L2.5,-0.5"/>
                </g>
               <g id="resetDef">
                       <use xlink:href="#rim2" fill="#404040">
                               <set attributeName="fill" to="#808080" begin="reset.mouseover" end="reset.mouseout"/>
                       </use>
               </g>
        </defs>

<script type="text/javascript">
var viewWidth = 959;
var viewHeight = 268;
var sectionId = 'dynsection-1';
</script>
<script xlink:href="svgpan.js"/>
<svg id="graph" class="graph">
<g id="viewport">
<title>prior_hessian::meta::constexpr_accumulate</title>
<polygon fill="white" stroke="none" points="-4,4 -4,-264 955,-264 955,4 -4,4"/>
<!-- Node1 -->
<g id="node1" class="node"><title>Node1</title>
<polygon fill="#bfbfbf" stroke="black" points="0,-94.5 0,-122.5 113,-122.5 113,-94.5 0,-94.5"/>
<text text-anchor="start" x="8" y="-111.3" font-family="Helvetica,sans-Serif" font-size="9.00">prior_hessian::meta</text>
<text text-anchor="middle" x="56.5" y="-101.3" font-family="Helvetica,sans-Serif" font-size="9.00">::constexpr_accumulate</text>
</g>
<!-- Node2 -->
<g id="node2" class="node"><title>Node2</title>
<g id="a_node2"><a xlink:href="namespaceprior__hessian_1_1meta.html#add11951e7edc2c231ca52c32ac0ee07b" target="_top" xlink:title="prior_hessian::meta\l::logical_and_in_order">
<polygon fill="white" stroke="black" points="149,-141.5 149,-169.5 258,-169.5 258,-141.5 149,-141.5"/>
<text text-anchor="start" x="157" y="-158.3" font-family="Helvetica,sans-Serif" font-size="9.00">prior_hessian::meta</text>
<text text-anchor="middle" x="203.5" y="-148.3" font-family="Helvetica,sans-Serif" font-size="9.00">::logical_and_in_order</text>
</a>
</g>
</g>
<!-- Node1&#45;&gt;Node2 -->
<g id="edge1" class="edge"><title>Node1&#45;&gt;Node2</title>
<path fill="none" stroke="midnightblue" d="M110.701,-125.744C126.598,-130.897 143.831,-136.483 159.026,-141.408"/>
<polygon fill="midnightblue" stroke="midnightblue" points="111.597,-122.356 101.005,-122.602 109.438,-129.015 111.597,-122.356"/>
</g>
<!-- Node10 -->
<g id="node10" class="node"><title>Node10</title>
<g id="a_node10"><a xlink:href="namespaceprior__hessian_1_1meta.html#a32068030d513a09bf78340f87be83639" target="_top" xlink:title="prior_hessian::meta\l::prod_in_order">
<polygon fill="white" stroke="black" points="154.5,-94.5 154.5,-122.5 252.5,-122.5 252.5,-94.5 154.5,-94.5"/>
<text text-anchor="start" x="162.5" y="-111.3" font-family="Helvetica,sans-Serif" font-size="9.00">prior_hessian::meta</text>
<text text-anchor="middle" x="203.5" y="-101.3" font-family="Helvetica,sans-Serif" font-size="9.00">::prod_in_order</text>
</a>
</g>
</g>
<!-- Node1&#45;&gt;Node10 -->
<g id="edge15" class="edge"><title>Node1&#45;&gt;Node10</title>
<path fill="none" stroke="midnightblue" d="M123.453,-108.5C133.853,-108.5 144.434,-108.5 154.33,-108.5"/>
<polygon fill="midnightblue" stroke="midnightblue" points="123.146,-105 113.146,-108.5 123.146,-112 123.146,-105"/>
</g>
<!-- Node11 -->
<g id="node11" class="node"><title>Node11</title>
<g id="a_node11"><a xlink:href="namespaceprior__hessian_1_1meta.html#ab09470f06d05f5c58e249a03ef19242f" target="_top" xlink:title="prior_hessian::meta\l::sum_in_order">
<polygon fill="white" stroke="black" points="154.5,-47.5 154.5,-75.5 252.5,-75.5 252.5,-47.5 154.5,-47.5"/>
<text text-anchor="start" x="162.5" y="-64.3" font-family="Helvetica,sans-Serif" font-size="9.00">prior_hessian::meta</text>
<text text-anchor="middle" x="203.5" y="-54.3" font-family="Helvetica,sans-Serif" font-size="9.00">::sum_in_order</text>
</a>
</g>
</g>
<!-- Node1&#45;&gt;Node11 -->
<g id="edge17" class="edge"><title>Node1&#45;&gt;Node11</title>
<path fill="none" stroke="midnightblue" d="M110.701,-91.2557C126.598,-86.1027 143.831,-80.5169 159.026,-75.5916"/>
<polygon fill="midnightblue" stroke="midnightblue" points="109.438,-87.9855 101.005,-94.3985 111.597,-94.6444 109.438,-87.9855"/>
</g>
<!-- Node3 -->
<g id="node3" class="node"><title>Node3</title>
<g id="a_node3"><a xlink:href="classprior__hessian_1_1CompositeDist.html#a24bac25ae8c0330b8a3aacadffc9d5ae" target="_top" xlink:title="prior_hessian::Composite\lDist::rllh_components">
<polygon fill="white" stroke="black" points="310.5,-94.5 310.5,-122.5 432.5,-122.5 432.5,-94.5 310.5,-94.5"/>
<text text-anchor="start" x="318.5" y="-111.3" font-family="Helvetica,sans-Serif" font-size="9.00">prior_hessian::Composite</text>
<text text-anchor="middle" x="371.5" y="-101.3" font-family="Helvetica,sans-Serif" font-size="9.00">Dist::rllh_components</text>
</a>
</g>
</g>
<!-- Node2&#45;&gt;Node3 -->
<g id="edge2" class="edge"><title>Node2&#45;&gt;Node3</title>
<path fill="none" stroke="midnightblue" d="M264.166,-138.607C282.806,-133.329 303.155,-127.567 321.016,-122.511"/>
<polygon fill="midnightblue" stroke="midnightblue" points="262.974,-135.307 254.305,-141.398 264.881,-142.042 262.974,-135.307"/>
</g>
<!-- Node4 -->
<g id="node4" class="node"><title>Node4</title>
<g id="a_node4"><a xlink:href="classprior__hessian_1_1CopulaDistImpl_1_1CopulaDist.html#aad110f1a85e7611fd098aa51c2104015" target="_top" xlink:title="prior_hessian::CopulaDist\lImpl::CopulaDist::global_ubound">
<polygon fill="white" stroke="black" points="296,-141.5 296,-169.5 447,-169.5 447,-141.5 296,-141.5"/>
<text text-anchor="start" x="304" y="-158.3" font-family="Helvetica,sans-Serif" font-size="9.00">prior_hessian::CopulaDist</text>
<text text-anchor="middle" x="371.5" y="-148.3" font-family="Helvetica,sans-Serif" font-size="9.00">Impl::CopulaDist::global_ubound</text>
</a>
</g>
</g>
<!-- Node2&#45;&gt;Node4 -->
<g id="edge3" class="edge"><title>Node2&#45;&gt;Node4</title>
<path fill="none" stroke="midnightblue" d="M268.652,-155.5C277.53,-155.5 286.712,-155.5 295.761,-155.5"/>
<polygon fill="midnightblue" stroke="midnightblue" points="268.395,-152 258.395,-155.5 268.395,-159 268.395,-152"/>
</g>
<!-- Node5 -->
<g id="node5" class="node"><title>Node5</title>
<g id="a_node5"><a xlink:href="classprior__hessian_1_1CopulaDistImpl_1_1CopulaDist.html#a26cd71990978df0ddae24dae5148c880" target="_top" xlink:title="prior_hessian::CopulaDist\lImpl::CopulaDist::num_dim">
<polygon fill="white" stroke="black" points="490,-231.5 490,-259.5 617,-259.5 617,-231.5 490,-231.5"/>
<text text-anchor="start" x="498" y="-248.3" font-family="Helvetica,sans-Serif" font-size="9.00">prior_hessian::CopulaDist</text>
<text text-anchor="middle" x="553.5" y="-238.3" font-family="Helvetica,sans-Serif" font-size="9.00">Impl::CopulaDist::num_dim</text>
</a>
</g>
</g>
<!-- Node4&#45;&gt;Node5 -->
<g id="edge4" class="edge"><title>Node4&#45;&gt;Node5</title>
<path fill="none" stroke="midnightblue" d="M402.452,-175.175C424.648,-189.228 455.956,-207.965 485,-221.5 492.666,-225.072 501.022,-228.44 509.16,-231.46"/>
<polygon fill="midnightblue" stroke="midnightblue" points="404.137,-172.098 393.827,-169.659 400.366,-177.995 404.137,-172.098"/>
</g>
<!-- Node6 -->
<g id="node6" class="node"><title>Node6</title>
<g id="a_node6"><a xlink:href="classprior__hessian_1_1CopulaDistImpl_1_1CopulaDist.html#ad5f8f42efd9f709625cf60836fa473b9" target="_top" xlink:title="prior_hessian::CopulaDist\lImpl::CopulaDist::set_bounds">
<polygon fill="white" stroke="black" points="485,-98.5 485,-126.5 622,-126.5 622,-98.5 485,-98.5"/>
<text text-anchor="start" x="493" y="-115.3" font-family="Helvetica,sans-Serif" font-size="9.00">prior_hessian::CopulaDist</text>
<text text-anchor="middle" x="553.5" y="-105.3" font-family="Helvetica,sans-Serif" font-size="9.00">Impl::CopulaDist::set_bounds</text>
</a>
</g>
</g>
<!-- Node4&#45;&gt;Node6 -->
<g id="edge5" class="edge"><title>Node4&#45;&gt;Node6</title>
<path fill="none" stroke="midnightblue" d="M418.362,-138.575C438.556,-132.974 462.689,-127.012 484.883,-122.092"/>
<polygon fill="midnightblue" stroke="midnightblue" points="417.158,-135.278 408.493,-141.375 419.069,-142.012 417.158,-135.278"/>
</g>
<!-- Node9 -->
<g id="node9" class="node"><title>Node9</title>
<g id="a_node9"><a xlink:href="classprior__hessian_1_1CopulaDistImpl_1_1CopulaDist.html#a4b010ffe2c2acd4dc75c80b32312254d" target="_top" xlink:title="prior_hessian::CopulaDist\lImpl::CopulaDist::set_ubound">
<polygon fill="white" stroke="black" points="485,-184.5 485,-212.5 622,-212.5 622,-184.5 485,-184.5"/>
<text text-anchor="start" x="493" y="-201.3" font-family="Helvetica,sans-Serif" font-size="9.00">prior_hessian::CopulaDist</text>
<text text-anchor="middle" x="553.5" y="-191.3" font-family="Helvetica,sans-Serif" font-size="9.00">Impl::CopulaDist::set_ubound</text>
</a>
</g>
</g>
<!-- Node4&#45;&gt;Node9 -->
<g id="edge12" class="edge"><title>Node4&#45;&gt;Node9</title>
<path fill="none" stroke="midnightblue" d="M456.997,-168.947C478.116,-173.906 499.641,-179.459 516.897,-184.489"/>
<polygon fill="midnightblue" stroke="midnightblue" points="457.543,-165.481 447.012,-166.64 455.968,-172.301 457.543,-165.481"/>
</g>
<!-- Node6&#45;&gt;Node4 -->
<g id="edge6" class="edge"><title>Node6&#45;&gt;Node4</title>
<path fill="none" stroke="midnightblue" d="M507.135,-129.287C488.909,-134.353 467.413,-139.725 447.012,-144.36"/>
<polygon fill="midnightblue" stroke="midnightblue" points="508.236,-132.613 516.897,-126.511 506.321,-125.88 508.236,-132.613"/>
</g>
<!-- Node7 -->
<g id="node7" class="node"><title>Node7</title>
<g id="a_node7"><a xlink:href="classprior__hessian_1_1CopulaDistImpl_1_1CopulaDist.html#abdb39f0c5f7f5f4b16bf501e6083d5b6" target="_top" xlink:title="prior_hessian::CopulaDist\lImpl::CopulaDist::ubound">
<polygon fill="white" stroke="black" points="658,-119.5 658,-147.5 781,-147.5 781,-119.5 658,-119.5"/>
<text text-anchor="start" x="666" y="-136.3" font-family="Helvetica,sans-Serif" font-size="9.00">prior_hessian::CopulaDist</text>
<text text-anchor="middle" x="719.5" y="-126.3" font-family="Helvetica,sans-Serif" font-size="9.00">Impl::CopulaDist::ubound</text>
</a>
</g>
</g>
<!-- Node6&#45;&gt;Node7 -->
<g id="edge7" class="edge"><title>Node6&#45;&gt;Node7</title>
<path fill="none" stroke="midnightblue" d="M632.203,-122.45C640.808,-123.552 649.477,-124.662 657.829,-125.731"/>
<polygon fill="midnightblue" stroke="midnightblue" points="632.516,-118.961 622.152,-121.163 631.626,-125.905 632.516,-118.961"/>
</g>
<!-- Node7&#45;&gt;Node4 -->
<g id="edge8" class="edge"><title>Node7&#45;&gt;Node4</title>
<path fill="none" stroke="midnightblue" d="M647.555,-138.011C589.138,-141.725 506.559,-146.976 447.151,-150.753"/>
<polygon fill="midnightblue" stroke="midnightblue" points="648.048,-141.487 657.805,-137.359 647.603,-134.501 648.048,-141.487"/>
</g>
<!-- Node8 -->
<g id="node8" class="node"><title>Node8</title>
<g id="a_node8"><a xlink:href="classprior__hessian_1_1CopulaDistImpl_1_1CopulaDist.html#ac0819ccaeef1afd7a123338823e8fb3c" target="_top" xlink:title="prior_hessian::CopulaDist\lImpl::CopulaDist::set_lbound">
<polygon fill="white" stroke="black" points="817,-119.5 817,-147.5 951,-147.5 951,-119.5 817,-119.5"/>
<text text-anchor="start" x="825" y="-136.3" font-family="Helvetica,sans-Serif" font-size="9.00">prior_hessian::CopulaDist</text>
<text text-anchor="middle" x="884" y="-126.3" font-family="Helvetica,sans-Serif" font-size="9.00">Impl::CopulaDist::set_lbound</text>
</a>
</g>
</g>
<!-- Node7&#45;&gt;Node8 -->
<g id="edge9" class="edge"><title>Node7&#45;&gt;Node8</title>
<path fill="none" stroke="midnightblue" d="M791.03,-126.802C799.65,-126.718 808.435,-126.736 816.986,-126.857"/>
<polygon fill="midnightblue" stroke="midnightblue" points="790.957,-123.303 781.009,-126.949 791.059,-130.302 790.957,-123.303"/>
</g>
<!-- Node8&#45;&gt;Node4 -->
<g id="edge10" class="edge"><title>Node8&#45;&gt;Node4</title>
<path fill="none" stroke="midnightblue" d="M842.525,-115.481C767.944,-85.104 605.447,-32.2533 485,-88.5 462.417,-99.0461 469.726,-117.656 449,-131.5 443.213,-135.366 436.768,-138.637 430.143,-141.398"/>
<polygon fill="midnightblue" stroke="midnightblue" points="841.449,-118.824 852.027,-119.424 844.132,-112.358 841.449,-118.824"/>
</g>
<!-- Node8&#45;&gt;Node7 -->
<g id="edge11" class="edge"><title>Node8&#45;&gt;Node7</title>
<path fill="none" stroke="midnightblue" d="M806.864,-140.238C798.191,-140.279 789.44,-140.216 781.009,-140.051"/>
<polygon fill="midnightblue" stroke="midnightblue" points="807.019,-143.737 816.986,-140.143 806.953,-136.737 807.019,-143.737"/>
</g>
<!-- Node9&#45;&gt;Node4 -->
<g id="edge13" class="edge"><title>Node9&#45;&gt;Node4</title>
<path fill="none" stroke="midnightblue" d="M475.049,-186.689C451.896,-181.376 427.614,-175.187 408.493,-169.625"/>
<polygon fill="midnightblue" stroke="midnightblue" points="474.358,-190.121 484.883,-188.908 475.899,-183.293 474.358,-190.121"/>
</g>
<!-- Node9&#45;&gt;Node7 -->
<g id="edge14" class="edge"><title>Node9&#45;&gt;Node7</title>
<path fill="none" stroke="midnightblue" d="M599.457,-180.682C625.76,-170.257 658.5,-157.281 682.984,-147.577"/>
<polygon fill="midnightblue" stroke="midnightblue" points="598.092,-177.458 590.086,-184.396 600.672,-183.965 598.092,-177.458"/>
</g>
<!-- Node10&#45;&gt;Node3 -->
<g id="edge16" class="edge"><title>Node10&#45;&gt;Node3</title>
<path fill="none" stroke="midnightblue" d="M262.951,-108.5C278.355,-108.5 294.999,-108.5 310.484,-108.5"/>
<polygon fill="midnightblue" stroke="midnightblue" points="262.514,-105 252.514,-108.5 262.514,-112 262.514,-105"/>
</g>
<!-- Node11&#45;&gt;Node3 -->
<g id="edge18" class="edge"><title>Node11&#45;&gt;Node3</title>
<path fill="none" stroke="midnightblue" d="M262.293,-77.8632C281.383,-83.2682 302.439,-89.2297 320.863,-94.4462"/>
<polygon fill="midnightblue" stroke="midnightblue" points="263.089,-74.451 252.514,-75.0943 261.182,-81.1863 263.089,-74.451"/>
</g>
<!-- Node12 -->
<g id="node12" class="node"><title>Node12</title>
<g id="a_node12"><a xlink:href="classprior__hessian_1_1CompositeDist.html#a44c6ec3b0e740206e737f707378600c8" target="_top" xlink:title="prior_hessian::Composite\lDist::make_component_dist_tuple">
<polygon fill="white" stroke="black" points="294,-47.5 294,-75.5 449,-75.5 449,-47.5 294,-47.5"/>
<text text-anchor="start" x="302" y="-64.3" font-family="Helvetica,sans-Serif" font-size="9.00">prior_hessian::Composite</text>
<text text-anchor="middle" x="371.5" y="-54.3" font-family="Helvetica,sans-Serif" font-size="9.00">Dist::make_component_dist_tuple</text>
</a>
</g>
</g>
<!-- Node11&#45;&gt;Node12 -->
<g id="edge19" class="edge"><title>Node11&#45;&gt;Node12</title>
<path fill="none" stroke="midnightblue" d="M262.761,-61.5C272.805,-61.5 283.381,-61.5 293.823,-61.5"/>
<polygon fill="midnightblue" stroke="midnightblue" points="262.514,-58.0001 252.514,-61.5 262.514,-65.0001 262.514,-58.0001"/>
</g>
<!-- Node13 -->
<g id="node13" class="node"><title>Node13</title>
<g id="a_node13"><a xlink:href="classprior__hessian_1_1CopulaDistImpl_1_1CopulaDist.html#a5cd91617bed91a4c401ad05f52958010" target="_top" xlink:title="prior_hessian::CopulaDist\lImpl::CopulaDist::operator!=">
<polygon fill="white" stroke="black" points="306,-0.5 306,-28.5 437,-28.5 437,-0.5 306,-0.5"/>
<text text-anchor="start" x="314" y="-17.3" font-family="Helvetica,sans-Serif" font-size="9.00">prior_hessian::CopulaDist</text>
<text text-anchor="middle" x="371.5" y="-7.3" font-family="Helvetica,sans-Serif" font-size="9.00">Impl::CopulaDist::operator!=</text>
</a>
</g>
</g>
<!-- Node11&#45;&gt;Node13 -->
<g id="edge20" class="edge"><title>Node11&#45;&gt;Node13</title>
<path fill="none" stroke="midnightblue" d="M262.293,-45.1368C281.383,-39.7318 302.439,-33.7703 320.863,-28.5538"/>
<polygon fill="midnightblue" stroke="midnightblue" points="261.182,-41.8137 252.514,-47.9057 263.089,-48.549 261.182,-41.8137"/>
</g>
</g>
</svg>
        <g id="navigator" transform="translate(0 0)" fill="#404254">
                <rect fill="#f2f5e9" fill-opacity="0.5" stroke="#606060" stroke-width=".5" x="0" y="0" width="60" height="60"/>
                <use id="zoomplus" xlink:href="#zoomPlus" x="17" y="9" onmousedown="handleZoom(evt,'in')"/>
                <use id="zoomminus" xlink:href="#zoomMin" x="42" y="9" onmousedown="handleZoom(evt,'out')"/>
                <use id="reset" xlink:href="#resetDef" x="30" y="36" onmousedown="handleReset()"/>
                <g id="arrowUp" xlink:href="#dirArrow" transform="translate(30 24)" onmousedown="handlePan(0,-1)">
                  <use xlink:href="#rim" fill="#404040">
                        <set attributeName="fill" to="#808080" begin="arrowUp.mouseover" end="arrowUp.mouseout"/>
                  </use>
                  <path fill="none" stroke="white" stroke-width="1.5" d="M0,-3.0v7 M-2.5,-0.5L0,-3.0L2.5,-0.5"/>
                </g>
                <g id="arrowRight" xlink:href="#dirArrow" transform="rotate(90) translate(36 -43)" onmousedown="handlePan(1,0)">
                  <use xlink:href="#rim" fill="#404040">
                        <set attributeName="fill" to="#808080" begin="arrowRight.mouseover" end="arrowRight.mouseout"/>
                  </use>
                  <path fill="none" stroke="white" stroke-width="1.5" d="M0,-3.0v7 M-2.5,-0.5L0,-3.0L2.5,-0.5"/>
                </g>
                <g id="arrowDown" xlink:href="#dirArrow" transform="rotate(180) translate(-30 -48)" onmousedown="handlePan(0,1)">
                  <use xlink:href="#rim" fill="#404040">
                        <set attributeName="fill" to="#808080" begin="arrowDown.mouseover" end="arrowDown.mouseout"/>
                  </use>
                  <path fill="none" stroke="white" stroke-width="1.5" d="M0,-3.0v7 M-2.5,-0.5L0,-3.0L2.5,-0.5"/>
                </g>
                <g id="arrowLeft" xlink:href="#dirArrow" transform="rotate(270) translate(-36 17)" onmousedown="handlePan(-1,0)">
                  <use xlink:href="#rim" fill="#404040">
                        <set attributeName="fill" to="#808080" begin="arrowLeft.mouseover" end="arrowLeft.mouseout"/>
                  </use>
                  <path fill="none" stroke="white" stroke-width="1.5" d="M0,-3.0v7 M-2.5,-0.5L0,-3.0L2.5,-0.5"/>
                </g>
        </g>
        <svg viewBox="0 0 15 15" width="100%" height="30px" preserveAspectRatio="xMaxYMin meet">
         <g id="arrow_out" transform="scale(0.3 0.3)">
          <a xlink:href="namespaceprior__hessian_1_1meta_a8dd1d78533f7011bebda7009c0591041_icgraph_org.svg" target="_base">
           <rect id="button" ry="5" rx="5" y="6" x="6" height="38" width="38"
                fill="#f2f5e9" fill-opacity="0.5" stroke="#606060" stroke-width="1.0"/>
           <path id="arrow"
             d="M 11.500037,31.436501 C 11.940474,20.09759 22.043105,11.32322 32.158766,21.979434 L 37.068811,17.246167 C 37.068811,17.246167 37.088388,32 37.088388,32 L 22.160133,31.978069 C 22.160133,31.978069 26.997745,27.140456 26.997745,27.140456 C 18.528582,18.264221 13.291696,25.230495 11.500037,31.436501 z"
             style="fill:#404040;"/>
          </a>
         </g>
        </svg>
</svg>
