<?xml version="1.0" encoding="UTF-8" standalone="no"?>
<!DOCTYPE svg PUBLIC "-//W3C//DTD SVG 1.1//EN"
 "http://www.w3.org/Graphics/SVG/1.1/DTD/svg11.dtd">
<!-- Generated by graphviz version 2.38.0 (20140413.2041)
 -->
<!-- Title: prior_hessian::unit_normal_icdf Pages: 1 -->
<svg width="413pt" height="84pt"
 viewBox="0.00 0.00 413.00 84.00" xmlns="http://www.w3.org/2000/svg" xmlns:xlink="http://www.w3.org/1999/xlink">
<g id="graph0" class="graph" transform="scale(1 1) rotate(0) translate(4 80)">
<title>prior_hessian::unit_normal_icdf</title>
<polygon fill="white" stroke="none" points="-4,4 -4,-80 409,-80 409,4 -4,4"/>
<!-- Node1 -->
<g id="node1" class="node"><title>Node1</title>
<polygon fill="#bfbfbf" stroke="black" points="0,-23.5 0,-51.5 92,-51.5 92,-23.5 0,-23.5"/>
<text text-anchor="start" x="8" y="-40.3" font-family="Helvetica,sans-Serif" font-size="9.00">prior_hessian::unit</text>
<text text-anchor="middle" x="46" y="-30.3" font-family="Helvetica,sans-Serif" font-size="9.00">_normal_icdf</text>
</g>
<!-- Node2 -->
<g id="node2" class="node"><title>Node2</title>
<g id="a_node2"><a xlink:href="namespaceprior__hessian.html#af30ccf313fd6eced8ae174f6a0d8457b" target="_top" xlink:title="prior_hessian::mc_mvn\l_cdf_core">
<polygon fill="white" stroke="black" points="128,-47.5 128,-75.5 240,-75.5 240,-47.5 128,-47.5"/>
<text text-anchor="start" x="136" y="-64.3" font-family="Helvetica,sans-Serif" font-size="9.00">prior_hessian::mc_mvn</text>
<text text-anchor="middle" x="184" y="-54.3" font-family="Helvetica,sans-Serif" font-size="9.00">_cdf_core</text>
</a>
</g>
</g>
<!-- Node1&#45;&gt;Node2 -->
<g id="edge1" class="edge"><title>Node1&#45;&gt;Node2</title>
<path fill="none" stroke="midnightblue" d="M102.409,-47.2781C110.848,-48.7672 119.554,-50.3036 127.984,-51.7913"/>
<polygon fill="midnightblue" stroke="midnightblue" points="102.742,-43.7828 92.286,-45.4917 101.526,-50.6763 102.742,-43.7828"/>
</g>
<!-- Node4 -->
<g id="node4" class="node"><title>Node4</title>
<g id="a_node4"><a xlink:href="namespaceprior__hessian.html#abadcc969aeb37b0c2f1e69c75731ec65" target="_top" xlink:title="prior_hessian::mc_mvn\l_integral">
<polygon fill="white" stroke="black" points="128,-0.5 128,-28.5 240,-28.5 240,-0.5 128,-0.5"/>
<text text-anchor="start" x="136" y="-17.3" font-family="Helvetica,sans-Serif" font-size="9.00">prior_hessian::mc_mvn</text>
<text text-anchor="middle" x="184" y="-7.3" font-family="Helvetica,sans-Serif" font-size="9.00">_integral</text>
</a>
</g>
</g>
<!-- Node1&#45;&gt;Node4 -->
<g id="edge3" class="edge"><title>Node1&#45;&gt;Node4</title>
<path fill="none" stroke="midnightblue" d="M102.409,-28.1293C110.848,-26.7022 119.554,-25.2298 127.984,-23.8042"/>
<polygon fill="midnightblue" stroke="midnightblue" points="101.562,-24.7228 92.286,-29.8413 102.73,-31.6248 101.562,-24.7228"/>
</g>
<!-- Node3 -->
<g id="node3" class="node"><title>Node3</title>
<g id="a_node3"><a xlink:href="namespaceprior__hessian.html#a923402e085c726e416b02817a6d47337" target="_top" xlink:title="prior_hessian::mc_mvn_cdf">
<polygon fill="white" stroke="black" points="276,-52.5 276,-70.5 405,-70.5 405,-52.5 276,-52.5"/>
<text text-anchor="middle" x="340.5" y="-59.3" font-family="Helvetica,sans-Serif" font-size="9.00">prior_hessian::mc_mvn_cdf</text>
</a>
</g>
</g>
<!-- Node2&#45;&gt;Node3 -->
<g id="edge2" class="edge"><title>Node2&#45;&gt;Node3</title>
<path fill="none" stroke="midnightblue" d="M250.478,-61.5C258.888,-61.5 267.489,-61.5 275.869,-61.5"/>
<polygon fill="midnightblue" stroke="midnightblue" points="250.342,-58.0001 240.342,-61.5 250.342,-65.0001 250.342,-58.0001"/>
</g>
</g>
</svg>
