<?xml version="1.0" encoding="UTF-8" standalone="no"?>
<!DOCTYPE svg PUBLIC "-//W3C//DTD SVG 1.1//EN"
 "http://www.w3.org/Graphics/SVG/1.1/DTD/svg11.dtd">
<!-- Generated by graphviz version 2.38.0 (20140413.2041)
 -->
<!-- Title: prior_hessian::donnelly_bvn_cdf Pages: 1 -->
<svg width="420pt" height="74pt"
 viewBox="0.00 0.00 420.00 74.00" xmlns="http://www.w3.org/2000/svg" xmlns:xlink="http://www.w3.org/1999/xlink">
<g id="graph0" class="graph" transform="scale(1 1) rotate(0) translate(4 70)">
<title>prior_hessian::donnelly_bvn_cdf</title>
<polygon fill="white" stroke="none" points="-4,4 -4,-70 416,-70 416,4 -4,4"/>
<!-- Node1 -->
<g id="node1" class="node"><title>Node1</title>
<polygon fill="#bfbfbf" stroke="black" points="0,-16.5 0,-44.5 113,-44.5 113,-16.5 0,-16.5"/>
<text text-anchor="start" x="8" y="-33.3" font-family="Helvetica,sans-Serif" font-size="9.00">prior_hessian::donnelly</text>
<text text-anchor="middle" x="56.5" y="-23.3" font-family="Helvetica,sans-Serif" font-size="9.00">_bvn_cdf</text>
</g>
<!-- Node2 -->
<g id="node2" class="node"><title>Node2</title>
<g id="a_node2"><a xlink:href="namespaceprior__hessian.html#ae87209106163a600fbde211815f83b5a" target="_top" xlink:title="prior_hessian::donnelly\l_bvn_integral">
<polygon fill="white" stroke="black" points="149,-16.5 149,-44.5 262,-44.5 262,-16.5 149,-16.5"/>
<text text-anchor="start" x="157" y="-33.3" font-family="Helvetica,sans-Serif" font-size="9.00">prior_hessian::donnelly</text>
<text text-anchor="middle" x="205.5" y="-23.3" font-family="Helvetica,sans-Serif" font-size="9.00">_bvn_integral</text>
</a>
</g>
</g>
<!-- Node1&#45;&gt;Node2 -->
<g id="edge1" class="edge"><title>Node1&#45;&gt;Node2</title>
<path fill="none" stroke="midnightblue" d="M113.074,-30.5C121.489,-30.5 130.238,-30.5 138.842,-30.5"/>
<polygon fill="midnightblue" stroke="midnightblue" points="138.847,-34.0001 148.847,-30.5 138.847,-27.0001 138.847,-34.0001"/>
</g>
<!-- Node3 -->
<g id="node3" class="node"><title>Node3</title>
<g id="a_node3"><a xlink:href="namespaceprior__hessian.html#ad0373e8965088cd5481ca019aed56a87" target="_top" xlink:title="prior_hessian::unit\l_normal_cdf">
<polygon fill="white" stroke="black" points="309,-37.5 309,-65.5 401,-65.5 401,-37.5 309,-37.5"/>
<text text-anchor="start" x="317" y="-54.3" font-family="Helvetica,sans-Serif" font-size="9.00">prior_hessian::unit</text>
<text text-anchor="middle" x="355" y="-44.3" font-family="Helvetica,sans-Serif" font-size="9.00">_normal_cdf</text>
</a>
</g>
</g>
<!-- Node2&#45;&gt;Node3 -->
<g id="edge2" class="edge"><title>Node2&#45;&gt;Node3</title>
<path fill="none" stroke="midnightblue" d="M262.263,-38.4392C274.126,-40.1281 286.649,-41.9111 298.502,-43.5986"/>
<polygon fill="midnightblue" stroke="midnightblue" points="298.318,-47.1076 308.711,-45.0521 299.305,-40.1775 298.318,-47.1076"/>
</g>
<!-- Node4 -->
<g id="node4" class="node"><title>Node4</title>
<g id="a_node4"><a xlink:href="namespaceprior__hessian.html#a860bd0a9eccd25bccf6e1c002022052f" target="_top" xlink:title="prior_hessian::bounded">
<polygon fill="white" stroke="black" points="298,-0.5 298,-18.5 412,-18.5 412,-0.5 298,-0.5"/>
<text text-anchor="middle" x="355" y="-7.3" font-family="Helvetica,sans-Serif" font-size="9.00">prior_hessian::bounded</text>
</a>
</g>
</g>
<!-- Node2&#45;&gt;Node4 -->
<g id="edge3" class="edge"><title>Node2&#45;&gt;Node4</title>
<path fill="none" stroke="midnightblue" d="M262.263,-22.5608C270.59,-21.3754 279.242,-20.1435 287.759,-18.9309"/>
<polygon fill="midnightblue" stroke="midnightblue" points="288.261,-22.3948 297.668,-17.5202 287.274,-15.4647 288.261,-22.3948"/>
</g>
</g>
</svg>
