<?xml version="1.0" encoding="UTF-8" standalone="no"?>
<!DOCTYPE svg PUBLIC "-//W3C//DTD SVG 1.1//EN"
 "http://www.w3.org/Graphics/SVG/1.1/DTD/svg11.dtd">
<!-- Generated by graphviz version 2.38.0 (20140413.2041)
 -->
<!-- Title: prior_hessian::meta::constexpr_accumulate Pages: 1 -->
<!--zoomable 236 -->
<svg id="main" version="1.1" xmlns="http://www.w3.org/2000/svg" xmlns:xlink="http://www.w3.org/1999/xlink" xml:space="preserve" onload="init(evt)">
<style type="text/css"><![CDATA[
.edge:hover path { stroke: red; }
.edge:hover polygon { stroke: red; fill: red; }
]]></style>
<script type="text/javascript"><![CDATA[
var edges = document.getElementsByTagName('g');
if (edges && edges.length) {
  for (var i=0;i<edges.length;i++) {
    if (edges[i].id.substr(0,4)=='edge') {
      edges[i].setAttribute('class','edge');
    }
  }
}
]]></script>
        <defs>
                <circle id="rim" cx="0" cy="0" r="7"/>
                <circle id="rim2" cx="0" cy="0" r="3.5"/>
                <g id="zoomPlus">
                        <use xlink:href="#rim" fill="#404040">
                                <set attributeName="fill" to="#808080" begin="zoomplus.mouseover" end="zoomplus.mouseout"/>
                        </use>
                        <path d="M-4,0h8M0,-4v8" fill="none" stroke="white" stroke-width="1.5" pointer-events="none"/>
                </g>
                <g id="zoomMin">
                        <use xlink:href="#rim" fill="#404040">
                                <set attributeName="fill" to="#808080" begin="zoomminus.mouseover" end="zoomminus.mouseout"/>
                        </use>
                        <path d="M-4,0h8" fill="none" stroke="white" stroke-width="1.5" pointer-events="none"/>
                </g>
                <g id="dirArrow">
                        <path fill="none" stroke="white" stroke-width="1.5" d="M0,-3.0v7 M-2.5,-0.5L0,-3.0L2.5,-0.5"/>
                </g>
               <g id="resetDef">
                       <use xlink:href="#rim2" fill="#404040">
                               <set attributeName="fill" to="#808080" begin="reset.mouseover" end="reset.mouseout"/>
                       </use>
               </g>
        </defs>

<script type="text/javascript">
var viewWidth = 959;
var viewHeight = 236;
var sectionId = 'dynsection-1';
</script>
<script xlink:href="svgpan.js"/>
<svg id="graph" class="graph">
<g id="viewport">
<title>prior_hessian::meta::constexpr_accumulate</title>
<polygon fill="white" stroke="none" points="-4,4 -4,-232 955,-232 955,4 -4,4"/>
<!-- Node1 -->
<g id="node1" class="node"><title>Node1</title>
<polygon fill="#bfbfbf" stroke="black" points="0,-70.5 0,-98.5 113,-98.5 113,-70.5 0,-70.5"/>
<text text-anchor="start" x="8" y="-87.3" font-family="Helvetica,sans-Serif" font-size="9.00">prior_hessian::meta</text>
<text text-anchor="middle" x="56.5" y="-77.3" font-family="Helvetica,sans-Serif" font-size="9.00">::constexpr_accumulate</text>
</g>
<!-- Node2 -->
<g id="node2" class="node"><title>Node2</title>
<g id="a_node2"><a xlink:href="namespaceprior__hessian_1_1meta.html#add11951e7edc2c231ca52c32ac0ee07b" target="_top" xlink:title="prior_hessian::meta\l::logical_and_in_order">
<polygon fill="white" stroke="black" points="149,-117.5 149,-145.5 258,-145.5 258,-117.5 149,-117.5"/>
<text text-anchor="start" x="157" y="-134.3" font-family="Helvetica,sans-Serif" font-size="9.00">prior_hessian::meta</text>
<text text-anchor="middle" x="203.5" y="-124.3" font-family="Helvetica,sans-Serif" font-size="9.00">::logical_and_in_order</text>
</a>
</g>
</g>
<!-- Node1&#45;&gt;Node2 -->
<g id="edge1" class="edge"><title>Node1&#45;&gt;Node2</title>
<path fill="none" stroke="midnightblue" d="M110.701,-101.744C126.598,-106.897 143.831,-112.483 159.026,-117.408"/>
<polygon fill="midnightblue" stroke="midnightblue" points="111.597,-98.3556 101.005,-98.6015 109.438,-105.015 111.597,-98.3556"/>
</g>
<!-- Node10 -->
<g id="node10" class="node"><title>Node10</title>
<g id="a_node10"><a xlink:href="namespaceprior__hessian_1_1meta.html#a32068030d513a09bf78340f87be83639" target="_top" xlink:title="prior_hessian::meta\l::prod_in_order">
<polygon fill="white" stroke="black" points="154.5,-70.5 154.5,-98.5 252.5,-98.5 252.5,-70.5 154.5,-70.5"/>
<text text-anchor="start" x="162.5" y="-87.3" font-family="Helvetica,sans-Serif" font-size="9.00">prior_hessian::meta</text>
<text text-anchor="middle" x="203.5" y="-77.3" font-family="Helvetica,sans-Serif" font-size="9.00">::prod_in_order</text>
</a>
</g>
</g>
<!-- Node1&#45;&gt;Node10 -->
<g id="edge15" class="edge"><title>Node1&#45;&gt;Node10</title>
<path fill="none" stroke="midnightblue" d="M123.453,-84.5C133.853,-84.5 144.434,-84.5 154.33,-84.5"/>
<polygon fill="midnightblue" stroke="midnightblue" points="123.146,-81.0001 113.146,-84.5 123.146,-88.0001 123.146,-81.0001"/>
</g>
<!-- Node11 -->
<g id="node11" class="node"><title>Node11</title>
<g id="a_node11"><a xlink:href="namespaceprior__hessian_1_1meta.html#ab09470f06d05f5c58e249a03ef19242f" target="_top" xlink:title="prior_hessian::meta\l::sum_in_order">
<polygon fill="white" stroke="black" points="154.5,-23.5 154.5,-51.5 252.5,-51.5 252.5,-23.5 154.5,-23.5"/>
<text text-anchor="start" x="162.5" y="-40.3" font-family="Helvetica,sans-Serif" font-size="9.00">prior_hessian::meta</text>
<text text-anchor="middle" x="203.5" y="-30.3" font-family="Helvetica,sans-Serif" font-size="9.00">::sum_in_order</text>
</a>
</g>
</g>
<!-- Node1&#45;&gt;Node11 -->
<g id="edge16" class="edge"><title>Node1&#45;&gt;Node11</title>
<path fill="none" stroke="midnightblue" d="M110.701,-67.2557C126.598,-62.1027 143.831,-56.5169 159.026,-51.5916"/>
<polygon fill="midnightblue" stroke="midnightblue" points="109.438,-63.9855 101.005,-70.3985 111.597,-70.6444 109.438,-63.9855"/>
</g>
<!-- Node3 -->
<g id="node3" class="node"><title>Node3</title>
<g id="a_node3"><a xlink:href="classprior__hessian_1_1CompositeDist.html#a24bac25ae8c0330b8a3aacadffc9d5ae" target="_top" xlink:title="prior_hessian::Composite\lDist::rllh_components">
<polygon fill="white" stroke="black" points="310.5,-152.5 310.5,-180.5 432.5,-180.5 432.5,-152.5 310.5,-152.5"/>
<text text-anchor="start" x="318.5" y="-169.3" font-family="Helvetica,sans-Serif" font-size="9.00">prior_hessian::Composite</text>
<text text-anchor="middle" x="371.5" y="-159.3" font-family="Helvetica,sans-Serif" font-size="9.00">Dist::rllh_components</text>
</a>
</g>
</g>
<!-- Node2&#45;&gt;Node3 -->
<g id="edge2" class="edge"><title>Node2&#45;&gt;Node3</title>
<path fill="none" stroke="midnightblue" d="M268.282,-144.948C282.074,-147.856 296.614,-150.922 310.265,-153.8"/>
<polygon fill="midnightblue" stroke="midnightblue" points="268.902,-141.502 258.395,-142.863 267.458,-148.351 268.902,-141.502"/>
</g>
<!-- Node4 -->
<g id="node4" class="node"><title>Node4</title>
<g id="a_node4"><a xlink:href="classprior__hessian_1_1CopulaDistImpl_1_1CopulaDist.html#aad110f1a85e7611fd098aa51c2104015" target="_top" xlink:title="prior_hessian::CopulaDist\lImpl::CopulaDist::global_ubound">
<polygon fill="white" stroke="black" points="296,-105.5 296,-133.5 447,-133.5 447,-105.5 296,-105.5"/>
<text text-anchor="start" x="304" y="-122.3" font-family="Helvetica,sans-Serif" font-size="9.00">prior_hessian::CopulaDist</text>
<text text-anchor="middle" x="371.5" y="-112.3" font-family="Helvetica,sans-Serif" font-size="9.00">Impl::CopulaDist::global_ubound</text>
</a>
</g>
</g>
<!-- Node2&#45;&gt;Node4 -->
<g id="edge3" class="edge"><title>Node2&#45;&gt;Node4</title>
<path fill="none" stroke="midnightblue" d="M268.652,-126.863C277.53,-126.221 286.712,-125.557 295.761,-124.903"/>
<polygon fill="midnightblue" stroke="midnightblue" points="268.117,-123.392 258.395,-127.604 268.622,-130.374 268.117,-123.392"/>
</g>
<!-- Node5 -->
<g id="node5" class="node"><title>Node5</title>
<g id="a_node5"><a xlink:href="classprior__hessian_1_1CopulaDistImpl_1_1CopulaDist.html#a26cd71990978df0ddae24dae5148c880" target="_top" xlink:title="prior_hessian::CopulaDist\lImpl::CopulaDist::num_dim">
<polygon fill="white" stroke="black" points="490,-199.5 490,-227.5 617,-227.5 617,-199.5 490,-199.5"/>
<text text-anchor="start" x="498" y="-216.3" font-family="Helvetica,sans-Serif" font-size="9.00">prior_hessian::CopulaDist</text>
<text text-anchor="middle" x="553.5" y="-206.3" font-family="Helvetica,sans-Serif" font-size="9.00">Impl::CopulaDist::num_dim</text>
</a>
</g>
</g>
<!-- Node4&#45;&gt;Node5 -->
<g id="edge4" class="edge"><title>Node4&#45;&gt;Node5</title>
<path fill="none" stroke="midnightblue" d="M439.889,-137.931C443.061,-139.632 446.119,-141.484 449,-143.5 470.558,-158.586 463.627,-175.152 485,-190.5 489.827,-193.966 495.217,-196.941 500.789,-199.487"/>
<polygon fill="midnightblue" stroke="midnightblue" points="441.234,-134.694 430.704,-133.528 438.209,-141.007 441.234,-134.694"/>
</g>
<!-- Node6 -->
<g id="node6" class="node"><title>Node6</title>
<g id="a_node6"><a xlink:href="classprior__hessian_1_1CopulaDistImpl_1_1CopulaDist.html#ad5f8f42efd9f709625cf60836fa473b9" target="_top" xlink:title="prior_hessian::CopulaDist\lImpl::CopulaDist::set_bounds">
<polygon fill="white" stroke="black" points="485,-152.5 485,-180.5 622,-180.5 622,-152.5 485,-152.5"/>
<text text-anchor="start" x="493" y="-169.3" font-family="Helvetica,sans-Serif" font-size="9.00">prior_hessian::CopulaDist</text>
<text text-anchor="middle" x="553.5" y="-159.3" font-family="Helvetica,sans-Serif" font-size="9.00">Impl::CopulaDist::set_bounds</text>
</a>
</g>
</g>
<!-- Node4&#45;&gt;Node6 -->
<g id="edge5" class="edge"><title>Node4&#45;&gt;Node6</title>
<path fill="none" stroke="midnightblue" d="M456.802,-134.774C478.962,-140.467 501.585,-146.828 519.267,-152.446"/>
<polygon fill="midnightblue" stroke="midnightblue" points="457.565,-131.357 447.012,-132.296 455.847,-138.143 457.565,-131.357"/>
</g>
<!-- Node9 -->
<g id="node9" class="node"><title>Node9</title>
<g id="a_node9"><a xlink:href="classprior__hessian_1_1CopulaDistImpl_1_1CopulaDist.html#a4b010ffe2c2acd4dc75c80b32312254d" target="_top" xlink:title="prior_hessian::CopulaDist\lImpl::CopulaDist::set_ubound">
<polygon fill="white" stroke="black" points="485,-105.5 485,-133.5 622,-133.5 622,-105.5 485,-105.5"/>
<text text-anchor="start" x="493" y="-122.3" font-family="Helvetica,sans-Serif" font-size="9.00">prior_hessian::CopulaDist</text>
<text text-anchor="middle" x="553.5" y="-112.3" font-family="Helvetica,sans-Serif" font-size="9.00">Impl::CopulaDist::set_ubound</text>
</a>
</g>
</g>
<!-- Node4&#45;&gt;Node9 -->
<g id="edge12" class="edge"><title>Node4&#45;&gt;Node9</title>
<path fill="none" stroke="midnightblue" d="M457.1,-112.761C466.443,-112.723 475.864,-112.783 484.958,-112.94"/>
<polygon fill="midnightblue" stroke="midnightblue" points="456.985,-109.262 447.012,-112.84 457.039,-116.261 456.985,-109.262"/>
</g>
<!-- Node6&#45;&gt;Node4 -->
<g id="edge6" class="edge"><title>Node6&#45;&gt;Node4</title>
<path fill="none" stroke="midnightblue" d="M475.034,-152.964C450.84,-146.874 425.415,-139.801 405.935,-133.618"/>
<polygon fill="midnightblue" stroke="midnightblue" points="474.396,-156.412 484.945,-155.42 476.08,-149.618 474.396,-156.412"/>
</g>
<!-- Node7 -->
<g id="node7" class="node"><title>Node7</title>
<g id="a_node7"><a xlink:href="classprior__hessian_1_1CopulaDistImpl_1_1CopulaDist.html#abdb39f0c5f7f5f4b16bf501e6083d5b6" target="_top" xlink:title="prior_hessian::CopulaDist\lImpl::CopulaDist::ubound">
<polygon fill="white" stroke="black" points="658,-86.5 658,-114.5 781,-114.5 781,-86.5 658,-86.5"/>
<text text-anchor="start" x="666" y="-103.3" font-family="Helvetica,sans-Serif" font-size="9.00">prior_hessian::CopulaDist</text>
<text text-anchor="middle" x="719.5" y="-93.3" font-family="Helvetica,sans-Serif" font-size="9.00">Impl::CopulaDist::ubound</text>
</a>
</g>
</g>
<!-- Node6&#45;&gt;Node7 -->
<g id="edge7" class="edge"><title>Node6&#45;&gt;Node7</title>
<path fill="none" stroke="midnightblue" d="M604.99,-148.977C610.748,-146.852 616.516,-144.665 622,-142.5 644.093,-133.777 668.633,-123.082 687.437,-114.668"/>
<polygon fill="midnightblue" stroke="midnightblue" points="603.56,-145.773 595.36,-152.482 605.954,-152.351 603.56,-145.773"/>
</g>
<!-- Node7&#45;&gt;Node4 -->
<g id="edge8" class="edge"><title>Node7&#45;&gt;Node4</title>
<path fill="none" stroke="midnightblue" d="M647.682,-96.4102C639.033,-96.0349 630.317,-95.7153 622,-95.5 561.132,-93.9242 545.553,-89.1129 485,-95.5 465.934,-97.5111 445.347,-101.389 427.061,-105.451"/>
<polygon fill="midnightblue" stroke="midnightblue" points="647.625,-99.9112 657.775,-96.8735 647.946,-92.9185 647.625,-99.9112"/>
</g>
<!-- Node8 -->
<g id="node8" class="node"><title>Node8</title>
<g id="a_node8"><a xlink:href="classprior__hessian_1_1CopulaDistImpl_1_1CopulaDist.html#ac0819ccaeef1afd7a123338823e8fb3c" target="_top" xlink:title="prior_hessian::CopulaDist\lImpl::CopulaDist::set_lbound">
<polygon fill="white" stroke="black" points="817,-86.5 817,-114.5 951,-114.5 951,-86.5 817,-86.5"/>
<text text-anchor="start" x="825" y="-103.3" font-family="Helvetica,sans-Serif" font-size="9.00">prior_hessian::CopulaDist</text>
<text text-anchor="middle" x="884" y="-93.3" font-family="Helvetica,sans-Serif" font-size="9.00">Impl::CopulaDist::set_lbound</text>
</a>
</g>
</g>
<!-- Node7&#45;&gt;Node8 -->
<g id="edge9" class="edge"><title>Node7&#45;&gt;Node8</title>
<path fill="none" stroke="midnightblue" d="M791.03,-93.8025C799.65,-93.7176 808.435,-93.7357 816.986,-93.8566"/>
<polygon fill="midnightblue" stroke="midnightblue" points="790.957,-90.3031 781.009,-93.9494 791.059,-97.3023 790.957,-90.3031"/>
</g>
<!-- Node8&#45;&gt;Node4 -->
<g id="edge10" class="edge"><title>Node8&#45;&gt;Node4</title>
<path fill="none" stroke="midnightblue" d="M823.676,-84.107C809.782,-80.9479 794.96,-78.1202 781,-76.5 650.214,-61.3207 614.786,-66.3458 485,-88.5 461.735,-92.4714 436.346,-99.2481 415.585,-105.455"/>
<polygon fill="midnightblue" stroke="midnightblue" points="823.066,-87.5592 833.603,-86.4532 824.676,-80.7468 823.066,-87.5592"/>
</g>
<!-- Node8&#45;&gt;Node7 -->
<g id="edge11" class="edge"><title>Node8&#45;&gt;Node7</title>
<path fill="none" stroke="midnightblue" d="M806.864,-107.238C798.191,-107.279 789.44,-107.216 781.009,-107.051"/>
<polygon fill="midnightblue" stroke="midnightblue" points="807.019,-110.737 816.986,-107.143 806.953,-103.737 807.019,-110.737"/>
</g>
<!-- Node9&#45;&gt;Node4 -->
<g id="edge13" class="edge"><title>Node9&#45;&gt;Node4</title>
<path fill="none" stroke="midnightblue" d="M474.685,-126.195C465.502,-126.279 456.147,-126.267 447.012,-126.16"/>
<polygon fill="midnightblue" stroke="midnightblue" points="475.004,-129.691 484.958,-126.06 474.912,-122.692 475.004,-129.691"/>
</g>
<!-- Node9&#45;&gt;Node7 -->
<g id="edge14" class="edge"><title>Node9&#45;&gt;Node7</title>
<path fill="none" stroke="midnightblue" d="M632.203,-110.498C640.808,-109.501 649.477,-108.497 657.829,-107.529"/>
<polygon fill="midnightblue" stroke="midnightblue" points="631.683,-107.035 622.152,-111.662 632.488,-113.988 631.683,-107.035"/>
</g>
<!-- Node12 -->
<g id="node12" class="node"><title>Node12</title>
<g id="a_node12"><a xlink:href="classprior__hessian_1_1CompositeDist.html#a44c6ec3b0e740206e737f707378600c8" target="_top" xlink:title="prior_hessian::Composite\lDist::make_component_dist_tuple">
<polygon fill="white" stroke="black" points="294,-47.5 294,-75.5 449,-75.5 449,-47.5 294,-47.5"/>
<text text-anchor="start" x="302" y="-64.3" font-family="Helvetica,sans-Serif" font-size="9.00">prior_hessian::Composite</text>
<text text-anchor="middle" x="371.5" y="-54.3" font-family="Helvetica,sans-Serif" font-size="9.00">Dist::make_component_dist_tuple</text>
</a>
</g>
</g>
<!-- Node11&#45;&gt;Node12 -->
<g id="edge17" class="edge"><title>Node11&#45;&gt;Node12</title>
<path fill="none" stroke="midnightblue" d="M262.444,-45.8774C272.582,-47.3432 283.271,-48.8885 293.823,-50.4141"/>
<polygon fill="midnightblue" stroke="midnightblue" points="262.912,-42.4088 252.514,-44.4418 261.91,-49.3368 262.912,-42.4088"/>
</g>
<!-- Node13 -->
<g id="node13" class="node"><title>Node13</title>
<g id="a_node13"><a xlink:href="classprior__hessian_1_1CopulaDistImpl_1_1CopulaDist.html#a5cd91617bed91a4c401ad05f52958010" target="_top" xlink:title="prior_hessian::CopulaDist\lImpl::CopulaDist::operator!=">
<polygon fill="white" stroke="black" points="306,-0.5 306,-28.5 437,-28.5 437,-0.5 306,-0.5"/>
<text text-anchor="start" x="314" y="-17.3" font-family="Helvetica,sans-Serif" font-size="9.00">prior_hessian::CopulaDist</text>
<text text-anchor="middle" x="371.5" y="-7.3" font-family="Helvetica,sans-Serif" font-size="9.00">Impl::CopulaDist::operator!=</text>
</a>
</g>
</g>
<!-- Node11&#45;&gt;Node13 -->
<g id="edge18" class="edge"><title>Node11&#45;&gt;Node13</title>
<path fill="none" stroke="midnightblue" d="M262.514,-29.4619C276.538,-27.5189 291.611,-25.4304 305.915,-23.4485"/>
<polygon fill="midnightblue" stroke="midnightblue" points="261.939,-26.008 252.514,-30.8474 262.9,-32.9418 261.939,-26.008"/>
</g>
</g>
</svg>
        <g id="navigator" transform="translate(0 0)" fill="#404254">
                <rect fill="#f2f5e9" fill-opacity="0.5" stroke="#606060" stroke-width=".5" x="0" y="0" width="60" height="60"/>
                <use id="zoomplus" xlink:href="#zoomPlus" x="17" y="9" onmousedown="handleZoom(evt,'in')"/>
                <use id="zoomminus" xlink:href="#zoomMin" x="42" y="9" onmousedown="handleZoom(evt,'out')"/>
                <use id="reset" xlink:href="#resetDef" x="30" y="36" onmousedown="handleReset()"/>
                <g id="arrowUp" xlink:href="#dirArrow" transform="translate(30 24)" onmousedown="handlePan(0,-1)">
                  <use xlink:href="#rim" fill="#404040">
                        <set attributeName="fill" to="#808080" begin="arrowUp.mouseover" end="arrowUp.mouseout"/>
                  </use>
                  <path fill="none" stroke="white" stroke-width="1.5" d="M0,-3.0v7 M-2.5,-0.5L0,-3.0L2.5,-0.5"/>
                </g>
                <g id="arrowRight" xlink:href="#dirArrow" transform="rotate(90) translate(36 -43)" onmousedown="handlePan(1,0)">
                  <use xlink:href="#rim" fill="#404040">
                        <set attributeName="fill" to="#808080" begin="arrowRight.mouseover" end="arrowRight.mouseout"/>
                  </use>
                  <path fill="none" stroke="white" stroke-width="1.5" d="M0,-3.0v7 M-2.5,-0.5L0,-3.0L2.5,-0.5"/>
                </g>
                <g id="arrowDown" xlink:href="#dirArrow" transform="rotate(180) translate(-30 -48)" onmousedown="handlePan(0,1)">
                  <use xlink:href="#rim" fill="#404040">
                        <set attributeName="fill" to="#808080" begin="arrowDown.mouseover" end="arrowDown.mouseout"/>
                  </use>
                  <path fill="none" stroke="white" stroke-width="1.5" d="M0,-3.0v7 M-2.5,-0.5L0,-3.0L2.5,-0.5"/>
                </g>
                <g id="arrowLeft" xlink:href="#dirArrow" transform="rotate(270) translate(-36 17)" onmousedown="handlePan(-1,0)">
                  <use xlink:href="#rim" fill="#404040">
                        <set attributeName="fill" to="#808080" begin="arrowLeft.mouseover" end="arrowLeft.mouseout"/>
                  </use>
                  <path fill="none" stroke="white" stroke-width="1.5" d="M0,-3.0v7 M-2.5,-0.5L0,-3.0L2.5,-0.5"/>
                </g>
        </g>
        <svg viewBox="0 0 15 15" width="100%" height="30px" preserveAspectRatio="xMaxYMin meet">
         <g id="arrow_out" transform="scale(0.3 0.3)">
          <a xlink:href="namespaceprior__hessian_1_1meta_a8dd1d78533f7011bebda7009c0591041_icgraph_org.svg" target="_base">
           <rect id="button" ry="5" rx="5" y="6" x="6" height="38" width="38"
                fill="#f2f5e9" fill-opacity="0.5" stroke="#606060" stroke-width="1.0"/>
           <path id="arrow"
             d="M 11.500037,31.436501 C 11.940474,20.09759 22.043105,11.32322 32.158766,21.979434 L 37.068811,17.246167 C 37.068811,17.246167 37.088388,32 37.088388,32 L 22.160133,31.978069 C 22.160133,31.978069 26.997745,27.140456 26.997745,27.140456 C 18.528582,18.264221 13.291696,25.230495 11.500037,31.436501 z"
             style="fill:#404040;"/>
          </a>
         </g>
        </svg>
</svg>
