<?xml version="1.0" encoding="UTF-8" standalone="no"?>
<!DOCTYPE svg PUBLIC "-//W3C//DTD SVG 1.1//EN"
 "http://www.w3.org/Graphics/SVG/1.1/DTD/svg11.dtd">
<!-- Generated by graphviz version 2.38.0 (20140413.2041)
 -->
<!-- Title: NormalDist.cpp Pages: 1 -->
<svg width="975pt" height="312pt"
 viewBox="0.00 0.00 974.50 312.00" xmlns="http://www.w3.org/2000/svg" xmlns:xlink="http://www.w3.org/1999/xlink">
<g id="graph0" class="graph" transform="scale(1 1) rotate(0) translate(4 308)">
<title>NormalDist.cpp</title>
<polygon fill="white" stroke="none" points="-4,4 -4,-308 970.5,-308 970.5,4 -4,4"/>
<!-- Node1 -->
<g id="node1" class="node"><title>Node1</title>
<polygon fill="#bfbfbf" stroke="black" points="613,-285.5 613,-303.5 693,-303.5 693,-285.5 613,-285.5"/>
<text text-anchor="middle" x="653" y="-292.3" font-family="Helvetica,sans-Serif" font-size="9.00">NormalDist.cpp</text>
</g>
<!-- Node2 -->
<g id="node2" class="node"><title>Node2</title>
<g id="a_node2"><a xlink:href="NormalDist_8h.html" target="_top" xlink:title="NormalDist class declaration and templated methods. ">
<polygon fill="white" stroke="black" points="364.5,-225.5 364.5,-243.5 489.5,-243.5 489.5,-225.5 364.5,-225.5"/>
<text text-anchor="middle" x="427" y="-232.3" font-family="Helvetica,sans-Serif" font-size="9.00">PriorHessian/NormalDist.h</text>
</a>
</g>
</g>
<!-- Node1&#45;&gt;Node2 -->
<g id="edge1" class="edge"><title>Node1&#45;&gt;Node2</title>
<path fill="none" stroke="midnightblue" d="M621.576,-285.435C581.631,-275.184 512.565,-257.459 468.37,-246.117"/>
<polygon fill="midnightblue" stroke="midnightblue" points="469.077,-242.685 458.521,-243.589 467.337,-249.465 469.077,-242.685"/>
</g>
<!-- Node3 -->
<g id="node3" class="node"><title>Node3</title>
<polygon fill="white" stroke="#bfbfbf" points="536.5,-55.5 536.5,-73.5 577.5,-73.5 577.5,-55.5 536.5,-55.5"/>
<text text-anchor="middle" x="557" y="-62.3" font-family="Helvetica,sans-Serif" font-size="9.00">cmath</text>
</g>
<!-- Node1&#45;&gt;Node3 -->
<g id="edge22" class="edge"><title>Node1&#45;&gt;Node3</title>
<path fill="none" stroke="midnightblue" d="M642.659,-285.388C632.89,-277.198 618.504,-263.691 610,-249 578.061,-193.822 564.202,-118.021 559.28,-83.6978"/>
<polygon fill="midnightblue" stroke="midnightblue" points="562.743,-83.1819 557.941,-73.7376 555.805,-84.1149 562.743,-83.1819"/>
</g>
<!-- Node11 -->
<g id="node11" class="node"><title>Node11</title>
<g id="a_node11"><a xlink:href="PriorHessianError_8h.html" target="_top" xlink:title="The Exception classes for the PriorHessian library. ">
<polygon fill="white" stroke="black" points="596,-55.5 596,-73.5 694,-73.5 694,-55.5 596,-55.5"/>
<text text-anchor="middle" x="645" y="-62.3" font-family="Helvetica,sans-Serif" font-size="9.00">PriorHessianError.h</text>
</a>
</g>
</g>
<!-- Node1&#45;&gt;Node11 -->
<g id="edge20" class="edge"><title>Node1&#45;&gt;Node11</title>
<path fill="none" stroke="midnightblue" d="M644.29,-285.273C636.22,-276.999 624.767,-263.43 620,-249 600.617,-190.323 624.43,-116.32 637.504,-83.0778"/>
<polygon fill="midnightblue" stroke="midnightblue" points="640.757,-84.3691 641.303,-73.7883 634.278,-81.7195 640.757,-84.3691"/>
</g>
<!-- Node18 -->
<g id="node18" class="node"><title>Node18</title>
<polygon fill="white" stroke="#bfbfbf" points="628.5,-225.5 628.5,-243.5 677.5,-243.5 677.5,-225.5 628.5,-225.5"/>
<text text-anchor="middle" x="653" y="-232.3" font-family="Helvetica,sans-Serif" font-size="9.00">sstream</text>
</g>
<!-- Node1&#45;&gt;Node18 -->
<g id="edge21" class="edge"><title>Node1&#45;&gt;Node18</title>
<path fill="none" stroke="midnightblue" d="M653,-285.435C653,-277.389 653,-264.739 653,-254.185"/>
<polygon fill="midnightblue" stroke="midnightblue" points="656.5,-253.872 653,-243.872 649.5,-253.872 656.5,-253.872"/>
</g>
<!-- Node19 -->
<g id="node19" class="node"><title>Node19</title>
<polygon fill="white" stroke="#bfbfbf" points="696,-225.5 696,-243.5 734,-243.5 734,-225.5 696,-225.5"/>
<text text-anchor="middle" x="715" y="-232.3" font-family="Helvetica,sans-Serif" font-size="9.00">limits</text>
</g>
<!-- Node1&#45;&gt;Node19 -->
<g id="edge23" class="edge"><title>Node1&#45;&gt;Node19</title>
<path fill="none" stroke="midnightblue" d="M661.621,-285.435C671.137,-276.533 686.678,-261.995 698.543,-250.895"/>
<polygon fill="midnightblue" stroke="midnightblue" points="701.139,-253.259 706.051,-243.872 696.357,-248.147 701.139,-253.259"/>
</g>
<!-- Node20 -->
<g id="node20" class="node"><title>Node20</title>
<polygon fill="white" stroke="#bfbfbf" points="752.5,-220.5 752.5,-248.5 845.5,-248.5 845.5,-220.5 752.5,-220.5"/>
<text text-anchor="start" x="760.5" y="-237.3" font-family="Helvetica,sans-Serif" font-size="9.00">boost/math/special</text>
<text text-anchor="middle" x="799" y="-227.3" font-family="Helvetica,sans-Serif" font-size="9.00">_functions/erf.hpp</text>
</g>
<!-- Node1&#45;&gt;Node20 -->
<g id="edge24" class="edge"><title>Node1&#45;&gt;Node20</title>
<path fill="none" stroke="midnightblue" d="M673.301,-285.435C694.818,-276.887 729.416,-263.143 756.871,-252.236"/>
<polygon fill="midnightblue" stroke="midnightblue" points="758.25,-255.454 766.252,-248.51 755.666,-248.949 758.25,-255.454"/>
</g>
<!-- Node21 -->
<g id="node21" class="node"><title>Node21</title>
<polygon fill="white" stroke="#bfbfbf" points="863.5,-220.5 863.5,-248.5 966.5,-248.5 966.5,-220.5 863.5,-220.5"/>
<text text-anchor="start" x="871.5" y="-237.3" font-family="Helvetica,sans-Serif" font-size="9.00">boost/math/constants</text>
<text text-anchor="middle" x="915" y="-227.3" font-family="Helvetica,sans-Serif" font-size="9.00">/constants.hpp</text>
</g>
<!-- Node1&#45;&gt;Node21 -->
<g id="edge25" class="edge"><title>Node1&#45;&gt;Node21</title>
<path fill="none" stroke="midnightblue" d="M689.871,-285.429C728.318,-277.002 790.607,-263.317 853.241,-249.387"/>
<polygon fill="midnightblue" stroke="midnightblue" points="854.292,-252.739 863.293,-247.15 852.771,-245.906 854.292,-252.739"/>
</g>
<!-- Node2&#45;&gt;Node3 -->
<g id="edge2" class="edge"><title>Node2&#45;&gt;Node3</title>
<path fill="none" stroke="midnightblue" d="M433.27,-225.397C453.476,-199.284 517.152,-116.996 544.414,-81.7654"/>
<polygon fill="midnightblue" stroke="midnightblue" points="547.441,-83.5724 550.793,-73.5217 541.905,-79.2885 547.441,-83.5724"/>
</g>
<!-- Node4 -->
<g id="node4" class="node"><title>Node4</title>
<polygon fill="white" stroke="#bfbfbf" points="224,-55.5 224,-73.5 272,-73.5 272,-55.5 224,-55.5"/>
<text text-anchor="middle" x="248" y="-62.3" font-family="Helvetica,sans-Serif" font-size="9.00">random</text>
</g>
<!-- Node2&#45;&gt;Node4 -->
<g id="edge3" class="edge"><title>Node2&#45;&gt;Node4</title>
<path fill="none" stroke="midnightblue" d="M395.186,-225.457C369.152,-217.788 332.302,-204.36 305,-184 279.905,-165.286 274.287,-157.345 261,-129 254.277,-114.657 251.017,-96.8883 249.444,-83.7976"/>
<polygon fill="midnightblue" stroke="midnightblue" points="252.913,-83.3113 248.452,-73.7017 245.947,-83.9961 252.913,-83.3113"/>
</g>
<!-- Node5 -->
<g id="node5" class="node"><title>Node5</title>
<g id="a_node5"><a xlink:href="UnivariateDist_8h.html" target="_top" xlink:title="UnivariateDist base class. ">
<polygon fill="white" stroke="black" points="314.5,-165.5 314.5,-183.5 451.5,-183.5 451.5,-165.5 314.5,-165.5"/>
<text text-anchor="middle" x="383" y="-172.3" font-family="Helvetica,sans-Serif" font-size="9.00">PriorHessian/UnivariateDist.h</text>
</a>
</g>
</g>
<!-- Node2&#45;&gt;Node5 -->
<g id="edge4" class="edge"><title>Node2&#45;&gt;Node5</title>
<path fill="none" stroke="midnightblue" d="M420.882,-225.435C414.323,-216.79 403.733,-202.829 395.414,-191.864"/>
<polygon fill="midnightblue" stroke="midnightblue" points="398.183,-189.723 389.351,-183.872 392.606,-193.954 398.183,-189.723"/>
</g>
<!-- Node6 -->
<g id="node6" class="node"><title>Node6</title>
<g id="a_node6"><a xlink:href="util_8h.html" target="_top" xlink:title="Utilities and namespace globals. ">
<polygon fill="white" stroke="black" points="404,-110.5 404,-128.5 496,-128.5 496,-110.5 404,-110.5"/>
<text text-anchor="middle" x="450" y="-117.3" font-family="Helvetica,sans-Serif" font-size="9.00">PriorHessian/util.h</text>
</a>
</g>
</g>
<!-- Node5&#45;&gt;Node6 -->
<g id="edge5" class="edge"><title>Node5&#45;&gt;Node6</title>
<path fill="none" stroke="midnightblue" d="M393.176,-165.45C403.408,-157.357 419.402,-144.704 431.819,-134.882"/>
<polygon fill="midnightblue" stroke="midnightblue" points="434.057,-137.574 439.728,-128.625 429.714,-132.084 434.057,-137.574"/>
</g>
<!-- Node13 -->
<g id="node13" class="node"><title>Node13</title>
<g id="a_node13"><a xlink:href="Meta_8h.html" target="_top" xlink:title="Enables the use of variadic templates in interesting ways. ">
<polygon fill="white" stroke="black" points="90,-110.5 90,-128.5 190,-128.5 190,-110.5 90,-110.5"/>
<text text-anchor="middle" x="140" y="-117.3" font-family="Helvetica,sans-Serif" font-size="9.00">PriorHessian/Meta.h</text>
</a>
</g>
</g>
<!-- Node5&#45;&gt;Node13 -->
<g id="edge15" class="edge"><title>Node5&#45;&gt;Node13</title>
<path fill="none" stroke="midnightblue" d="M346.094,-165.45C303.419,-156.143 233.104,-140.807 186.67,-130.679"/>
<polygon fill="midnightblue" stroke="midnightblue" points="187.371,-127.25 176.855,-128.538 185.879,-134.089 187.371,-127.25"/>
</g>
<!-- Node17 -->
<g id="node17" class="node"><title>Node17</title>
<g id="a_node17"><a xlink:href="BaseDist_8h.html" target="_top" xlink:title="The Base classes for UnivariateDist and MultivariateDist. ">
<polygon fill="white" stroke="black" points="270,-110.5 270,-128.5 386,-128.5 386,-110.5 270,-110.5"/>
<text text-anchor="middle" x="328" y="-117.3" font-family="Helvetica,sans-Serif" font-size="9.00">PriorHessian/BaseDist.h</text>
</a>
</g>
</g>
<!-- Node5&#45;&gt;Node17 -->
<g id="edge19" class="edge"><title>Node5&#45;&gt;Node17</title>
<path fill="none" stroke="midnightblue" d="M374.406,-165.219C366.205,-157.316 353.657,-145.224 343.676,-135.606"/>
<polygon fill="midnightblue" stroke="midnightblue" points="345.983,-132.968 336.353,-128.55 341.125,-138.009 345.983,-132.968"/>
</g>
<!-- Node6&#45;&gt;Node3 -->
<g id="edge6" class="edge"><title>Node6&#45;&gt;Node3</title>
<path fill="none" stroke="midnightblue" d="M466.251,-110.45C483.613,-101.851 511.364,-88.1048 531.612,-78.0755"/>
<polygon fill="midnightblue" stroke="midnightblue" points="533.189,-81.2003 540.596,-73.6253 530.082,-74.9276 533.189,-81.2003"/>
</g>
<!-- Node6&#45;&gt;Node4 -->
<g id="edge8" class="edge"><title>Node6&#45;&gt;Node4</title>
<path fill="none" stroke="midnightblue" d="M419.321,-110.45C382.341,-100.748 320.392,-84.494 281.991,-74.4185"/>
<polygon fill="midnightblue" stroke="midnightblue" points="282.856,-71.027 272.295,-71.8745 281.08,-77.7979 282.856,-71.027"/>
</g>
<!-- Node7 -->
<g id="node7" class="node"><title>Node7</title>
<polygon fill="white" stroke="#bfbfbf" points="457.5,-0.5 457.5,-18.5 496.5,-18.5 496.5,-0.5 457.5,-0.5"/>
<text text-anchor="middle" x="477" y="-7.3" font-family="Helvetica,sans-Serif" font-size="9.00">string</text>
</g>
<!-- Node6&#45;&gt;Node7 -->
<g id="edge7" class="edge"><title>Node6&#45;&gt;Node7</title>
<path fill="none" stroke="midnightblue" d="M432.841,-110.317C411.538,-98.9754 379.554,-77.3388 393,-55 404.759,-35.4635 428.294,-24.0528 447.468,-17.6874"/>
<polygon fill="midnightblue" stroke="midnightblue" points="448.725,-20.9639 457.29,-14.7265 446.705,-14.2619 448.725,-20.9639"/>
</g>
<!-- Node8 -->
<g id="node8" class="node"><title>Node8</title>
<polygon fill="white" stroke="#bfbfbf" points="402.5,-55.5 402.5,-73.5 443.5,-73.5 443.5,-55.5 402.5,-55.5"/>
<text text-anchor="middle" x="423" y="-62.3" font-family="Helvetica,sans-Serif" font-size="9.00">vector</text>
</g>
<!-- Node6&#45;&gt;Node8 -->
<g id="edge9" class="edge"><title>Node6&#45;&gt;Node8</title>
<path fill="none" stroke="midnightblue" d="M445.781,-110.219C442.034,-102.864 436.439,-91.8801 431.731,-82.639"/>
<polygon fill="midnightblue" stroke="midnightblue" points="434.759,-80.8712 427.101,-73.5496 428.521,-84.0487 434.759,-80.8712"/>
</g>
<!-- Node9 -->
<g id="node9" class="node"><title>Node9</title>
<polygon fill="white" stroke="#bfbfbf" points="462,-55.5 462,-73.5 518,-73.5 518,-55.5 462,-55.5"/>
<text text-anchor="middle" x="490" y="-62.3" font-family="Helvetica,sans-Serif" font-size="9.00">typeindex</text>
</g>
<!-- Node6&#45;&gt;Node9 -->
<g id="edge10" class="edge"><title>Node6&#45;&gt;Node9</title>
<path fill="none" stroke="midnightblue" d="M456.25,-110.219C461.978,-102.629 470.622,-91.1753 477.729,-81.7597"/>
<polygon fill="midnightblue" stroke="midnightblue" points="480.694,-83.6399 483.925,-73.5496 475.107,-79.423 480.694,-83.6399"/>
</g>
<!-- Node10 -->
<g id="node10" class="node"><title>Node10</title>
<polygon fill="white" stroke="#bfbfbf" points="290.5,-55.5 290.5,-73.5 345.5,-73.5 345.5,-55.5 290.5,-55.5"/>
<text text-anchor="middle" x="318" y="-62.3" font-family="Helvetica,sans-Serif" font-size="9.00">armadillo</text>
</g>
<!-- Node6&#45;&gt;Node10 -->
<g id="edge11" class="edge"><title>Node6&#45;&gt;Node10</title>
<path fill="none" stroke="midnightblue" d="M429.952,-110.45C408.049,-101.656 372.743,-87.4802 347.639,-77.4006"/>
<polygon fill="midnightblue" stroke="midnightblue" points="348.821,-74.1034 338.237,-73.6253 346.212,-80.5994 348.821,-74.1034"/>
</g>
<!-- Node6&#45;&gt;Node11 -->
<g id="edge12" class="edge"><title>Node6&#45;&gt;Node11</title>
<path fill="none" stroke="midnightblue" d="M479.616,-110.45C513.215,-101.318 568.165,-86.3833 605.419,-76.2578"/>
<polygon fill="midnightblue" stroke="midnightblue" points="606.693,-79.5387 615.425,-73.5383 604.857,-72.7837 606.693,-79.5387"/>
</g>
<!-- Node11&#45;&gt;Node7 -->
<g id="edge14" class="edge"><title>Node11&#45;&gt;Node7</title>
<path fill="none" stroke="midnightblue" d="M619.484,-55.4504C589.087,-45.8606 538.403,-29.8713 506.393,-19.7727"/>
<polygon fill="midnightblue" stroke="midnightblue" points="507.295,-16.3873 496.705,-16.7165 505.189,-23.063 507.295,-16.3873"/>
</g>
<!-- Node12 -->
<g id="node12" class="node"><title>Node12</title>
<polygon fill="white" stroke="#bfbfbf" points="617,-0.5 617,-18.5 673,-18.5 673,-0.5 617,-0.5"/>
<text text-anchor="middle" x="645" y="-7.3" font-family="Helvetica,sans-Serif" font-size="9.00">exception</text>
</g>
<!-- Node11&#45;&gt;Node12 -->
<g id="edge13" class="edge"><title>Node11&#45;&gt;Node12</title>
<path fill="none" stroke="midnightblue" d="M645,-55.2188C645,-48.1769 645,-37.8083 645,-28.8277"/>
<polygon fill="midnightblue" stroke="midnightblue" points="648.5,-28.5495 645,-18.5496 641.5,-28.5496 648.5,-28.5495"/>
</g>
<!-- Node14 -->
<g id="node14" class="node"><title>Node14</title>
<polygon fill="white" stroke="#bfbfbf" points="150,-55.5 150,-73.5 206,-73.5 206,-55.5 150,-55.5"/>
<text text-anchor="middle" x="178" y="-62.3" font-family="Helvetica,sans-Serif" font-size="9.00">functional</text>
</g>
<!-- Node13&#45;&gt;Node14 -->
<g id="edge16" class="edge"><title>Node13&#45;&gt;Node14</title>
<path fill="none" stroke="midnightblue" d="M145.938,-110.219C151.379,-102.629 159.591,-91.1753 166.342,-81.7597"/>
<polygon fill="midnightblue" stroke="midnightblue" points="169.246,-83.716 172.229,-73.5496 163.557,-79.6371 169.246,-83.716"/>
</g>
<!-- Node15 -->
<g id="node15" class="node"><title>Node15</title>
<polygon fill="white" stroke="#bfbfbf" points="0,-55.5 0,-73.5 70,-73.5 70,-55.5 0,-55.5"/>
<text text-anchor="middle" x="35" y="-62.3" font-family="Helvetica,sans-Serif" font-size="9.00">initializer_list</text>
</g>
<!-- Node13&#45;&gt;Node15 -->
<g id="edge17" class="edge"><title>Node13&#45;&gt;Node15</title>
<path fill="none" stroke="midnightblue" d="M124.053,-110.45C107.093,-101.89 80.0293,-88.2291 60.1839,-78.2119"/>
<polygon fill="midnightblue" stroke="midnightblue" points="61.6017,-75.007 51.0973,-73.6253 58.4474,-81.256 61.6017,-75.007"/>
</g>
<!-- Node16 -->
<g id="node16" class="node"><title>Node16</title>
<polygon fill="white" stroke="#bfbfbf" points="88.5,-55.5 88.5,-73.5 131.5,-73.5 131.5,-55.5 88.5,-55.5"/>
<text text-anchor="middle" x="110" y="-62.3" font-family="Helvetica,sans-Serif" font-size="9.00">cstdint</text>
</g>
<!-- Node13&#45;&gt;Node16 -->
<g id="edge18" class="edge"><title>Node13&#45;&gt;Node16</title>
<path fill="none" stroke="midnightblue" d="M135.312,-110.219C131.105,-102.786 124.8,-91.646 119.535,-82.3446"/>
<polygon fill="midnightblue" stroke="midnightblue" points="122.528,-80.528 114.556,-73.5496 116.436,-83.9763 122.528,-80.528"/>
</g>
</g>
</svg>
