<?xml version="1.0" encoding="UTF-8" standalone="no"?>
<!DOCTYPE svg PUBLIC "-//W3C//DTD SVG 1.1//EN"
 "http://www.w3.org/Graphics/SVG/1.1/DTD/svg11.dtd">
<!-- Generated by graphviz version 2.38.0 (20140413.2041)
 -->
<!-- Title: NormalDist.h Pages: 1 -->
<svg width="218pt" height="82pt"
 viewBox="0.00 0.00 217.50 82.00" xmlns="http://www.w3.org/2000/svg" xmlns:xlink="http://www.w3.org/1999/xlink">
<g id="graph0" class="graph" transform="scale(1 1) rotate(0) translate(4 78)">
<title>NormalDist.h</title>
<polygon fill="white" stroke="none" points="-4,4 -4,-78 213.5,-78 213.5,4 -4,4"/>
<!-- Node1 -->
<g id="node1" class="node"><title>Node1</title>
<polygon fill="#bfbfbf" stroke="black" points="62,-55.5 62,-73.5 132,-73.5 132,-55.5 62,-55.5"/>
<text text-anchor="middle" x="97" y="-62.3" font-family="Helvetica,sans-Serif" font-size="9.00">NormalDist.h</text>
</g>
<!-- Node2 -->
<g id="node2" class="node"><title>Node2</title>
<g id="a_node2"><a xlink:href="NormalDist_8cpp.html" target="_top" xlink:title="NormalDist class definition. ">
<polygon fill="white" stroke="black" points="0,-0.5 0,-18.5 80,-18.5 80,-0.5 0,-0.5"/>
<text text-anchor="middle" x="40" y="-7.3" font-family="Helvetica,sans-Serif" font-size="9.00">NormalDist.cpp</text>
</a>
</g>
</g>
<!-- Node1&#45;&gt;Node2 -->
<g id="edge1" class="edge"><title>Node1&#45;&gt;Node2</title>
<path fill="none" stroke="midnightblue" d="M80.7567,-48.3965C70.3104,-38.6833 57.1501,-26.4466 48.6571,-18.5496"/>
<polygon fill="midnightblue" stroke="midnightblue" points="78.3871,-50.9725 88.0938,-55.2188 83.1537,-45.8461 78.3871,-50.9725"/>
</g>
<!-- Node3 -->
<g id="node3" class="node"><title>Node3</title>
<g id="a_node3"><a xlink:href="TruncatedNormalDist_8h.html" target="_top" xlink:title="TruncatedNormalDist class declaration. ">
<polygon fill="white" stroke="black" points="98.5,-0.5 98.5,-18.5 209.5,-18.5 209.5,-0.5 98.5,-0.5"/>
<text text-anchor="middle" x="154" y="-7.3" font-family="Helvetica,sans-Serif" font-size="9.00">TruncatedNormalDist.h</text>
</a>
</g>
</g>
<!-- Node1&#45;&gt;Node3 -->
<g id="edge2" class="edge"><title>Node1&#45;&gt;Node3</title>
<path fill="none" stroke="midnightblue" d="M113.243,-48.3965C123.69,-38.6833 136.85,-26.4466 145.343,-18.5496"/>
<polygon fill="midnightblue" stroke="midnightblue" points="110.846,-45.8461 105.906,-55.2188 115.613,-50.9725 110.846,-45.8461"/>
</g>
</g>
</svg>
