<?xml version="1.0" encoding="UTF-8" standalone="no"?>
<!DOCTYPE svg PUBLIC "-//W3C//DTD SVG 1.1//EN"
 "http://www.w3.org/Graphics/SVG/1.1/DTD/svg11.dtd">
<!-- Generated by graphviz version 2.38.0 (20140413.2041)
 -->
<!-- Title: ParetoDist.h Pages: 1 -->
<!--zoomable 247 -->
<svg id="main" version="1.1" xmlns="http://www.w3.org/2000/svg" xmlns:xlink="http://www.w3.org/1999/xlink" xml:space="preserve" onload="init(evt)">
<style type="text/css"><![CDATA[
.edge:hover path { stroke: red; }
.edge:hover polygon { stroke: red; fill: red; }
]]></style>
<script type="text/javascript"><![CDATA[
var edges = document.getElementsByTagName('g');
if (edges && edges.length) {
  for (var i=0;i<edges.length;i++) {
    if (edges[i].id.substr(0,4)=='edge') {
      edges[i].setAttribute('class','edge');
    }
  }
}
]]></script>
        <defs>
                <circle id="rim" cx="0" cy="0" r="7"/>
                <circle id="rim2" cx="0" cy="0" r="3.5"/>
                <g id="zoomPlus">
                        <use xlink:href="#rim" fill="#404040">
                                <set attributeName="fill" to="#808080" begin="zoomplus.mouseover" end="zoomplus.mouseout"/>
                        </use>
                        <path d="M-4,0h8M0,-4v8" fill="none" stroke="white" stroke-width="1.5" pointer-events="none"/>
                </g>
                <g id="zoomMin">
                        <use xlink:href="#rim" fill="#404040">
                                <set attributeName="fill" to="#808080" begin="zoomminus.mouseover" end="zoomminus.mouseout"/>
                        </use>
                        <path d="M-4,0h8" fill="none" stroke="white" stroke-width="1.5" pointer-events="none"/>
                </g>
                <g id="dirArrow">
                        <path fill="none" stroke="white" stroke-width="1.5" d="M0,-3.0v7 M-2.5,-0.5L0,-3.0L2.5,-0.5"/>
                </g>
               <g id="resetDef">
                       <use xlink:href="#rim2" fill="#404040">
                               <set attributeName="fill" to="#808080" begin="reset.mouseover" end="reset.mouseout"/>
                       </use>
               </g>
        </defs>

<script type="text/javascript">
var viewWidth = 701;
var viewHeight = 247;
var sectionId = 'dynsection-0';
</script>
<script xlink:href="svgpan.js"/>
<svg id="graph" class="graph">
<g id="viewport">
<title>ParetoDist.h</title>
<polygon fill="white" stroke="none" points="-4,4 -4,-243 697,-243 697,4 -4,4"/>
<!-- Node1 -->
<g id="node1" class="node"><title>Node1</title>
<polygon fill="#bfbfbf" stroke="black" points="341,-220.5 341,-238.5 408,-238.5 408,-220.5 341,-220.5"/>
<text text-anchor="middle" x="374.5" y="-227.3" font-family="Helvetica,sans-Serif" font-size="9.00">ParetoDist.h</text>
</g>
<!-- Node2 -->
<g id="node2" class="node"><title>Node2</title>
<polygon fill="white" stroke="#bfbfbf" points="0,-55.5 0,-73.5 41,-73.5 41,-55.5 0,-55.5"/>
<text text-anchor="middle" x="20.5" y="-62.3" font-family="Helvetica,sans-Serif" font-size="9.00">cmath</text>
</g>
<!-- Node1&#45;&gt;Node2 -->
<g id="edge1" class="edge"><title>Node1&#45;&gt;Node2</title>
<path fill="none" stroke="midnightblue" d="M356.945,-220.417C299.501,-193.967 116.859,-109.869 47.5379,-77.9496"/>
<polygon fill="midnightblue" stroke="midnightblue" points="48.7081,-74.6353 38.1609,-73.632 45.7804,-80.9937 48.7081,-74.6353"/>
</g>
<!-- Node3 -->
<g id="node3" class="node"><title>Node3</title>
<g id="a_node3"><a xlink:href="Meta_8h.html" target="_top" xlink:title="Enables the use of variadic templates in interesting ways. ">
<polygon fill="white" stroke="black" points="465.5,-110.5 465.5,-128.5 565.5,-128.5 565.5,-110.5 465.5,-110.5"/>
<text text-anchor="middle" x="515.5" y="-117.3" font-family="Helvetica,sans-Serif" font-size="9.00">PriorHessian/Meta.h</text>
</a>
</g>
</g>
<!-- Node1&#45;&gt;Node3 -->
<g id="edge2" class="edge"><title>Node1&#45;&gt;Node3</title>
<path fill="none" stroke="midnightblue" d="M391.193,-220.443C407.331,-212.295 432.12,-198.817 451.5,-184 470.447,-169.514 489.513,-149.776 501.844,-136.17"/>
<polygon fill="midnightblue" stroke="midnightblue" points="504.554,-138.389 508.59,-128.592 499.326,-133.734 504.554,-138.389"/>
</g>
<!-- Node7 -->
<g id="node7" class="node"><title>Node7</title>
<g id="a_node7"><a xlink:href="UnivariateDist_8h.html" target="_top" xlink:title="UnivariateDist base class. ">
<polygon fill="white" stroke="black" points="306,-165.5 306,-183.5 443,-183.5 443,-165.5 306,-165.5"/>
<text text-anchor="middle" x="374.5" y="-172.3" font-family="Helvetica,sans-Serif" font-size="9.00">PriorHessian/UnivariateDist.h</text>
</a>
</g>
</g>
<!-- Node1&#45;&gt;Node7 -->
<g id="edge6" class="edge"><title>Node1&#45;&gt;Node7</title>
<path fill="none" stroke="midnightblue" d="M374.5,-220.219C374.5,-213.177 374.5,-202.808 374.5,-193.828"/>
<polygon fill="midnightblue" stroke="midnightblue" points="378,-193.55 374.5,-183.55 371,-193.55 378,-193.55"/>
</g>
<!-- Node4 -->
<g id="node4" class="node"><title>Node4</title>
<polygon fill="white" stroke="#bfbfbf" points="487.5,-55.5 487.5,-73.5 543.5,-73.5 543.5,-55.5 487.5,-55.5"/>
<text text-anchor="middle" x="515.5" y="-62.3" font-family="Helvetica,sans-Serif" font-size="9.00">functional</text>
</g>
<!-- Node3&#45;&gt;Node4 -->
<g id="edge3" class="edge"><title>Node3&#45;&gt;Node4</title>
<path fill="none" stroke="midnightblue" d="M515.5,-110.219C515.5,-103.177 515.5,-92.8083 515.5,-83.8277"/>
<polygon fill="midnightblue" stroke="midnightblue" points="519,-83.5495 515.5,-73.5496 512,-83.5496 519,-83.5495"/>
</g>
<!-- Node5 -->
<g id="node5" class="node"><title>Node5</title>
<polygon fill="white" stroke="#bfbfbf" points="561.5,-55.5 561.5,-73.5 631.5,-73.5 631.5,-55.5 561.5,-55.5"/>
<text text-anchor="middle" x="596.5" y="-62.3" font-family="Helvetica,sans-Serif" font-size="9.00">initializer_list</text>
</g>
<!-- Node3&#45;&gt;Node5 -->
<g id="edge4" class="edge"><title>Node3&#45;&gt;Node5</title>
<path fill="none" stroke="midnightblue" d="M527.802,-110.45C540.41,-102.201 560.255,-89.2158 575.381,-79.3187"/>
<polygon fill="midnightblue" stroke="midnightblue" points="577.631,-82.0294 584.082,-73.6253 573.798,-76.1719 577.631,-82.0294"/>
</g>
<!-- Node6 -->
<g id="node6" class="node"><title>Node6</title>
<polygon fill="white" stroke="#bfbfbf" points="650,-55.5 650,-73.5 693,-73.5 693,-55.5 650,-55.5"/>
<text text-anchor="middle" x="671.5" y="-62.3" font-family="Helvetica,sans-Serif" font-size="9.00">cstdint</text>
</g>
<!-- Node3&#45;&gt;Node6 -->
<g id="edge5" class="edge"><title>Node3&#45;&gt;Node6</title>
<path fill="none" stroke="midnightblue" d="M539.193,-110.45C566.149,-101.292 610.283,-86.2981 640.09,-76.1714"/>
<polygon fill="midnightblue" stroke="midnightblue" points="641.261,-79.4701 649.603,-72.9392 639.009,-72.8422 641.261,-79.4701"/>
</g>
<!-- Node7&#45;&gt;Node3 -->
<g id="edge17" class="edge"><title>Node7&#45;&gt;Node3</title>
<path fill="none" stroke="midnightblue" d="M395.915,-165.45C419.414,-156.617 457.358,-142.355 484.195,-132.267"/>
<polygon fill="midnightblue" stroke="midnightblue" points="485.755,-135.42 493.884,-128.625 483.292,-128.868 485.755,-135.42"/>
</g>
<!-- Node8 -->
<g id="node8" class="node"><title>Node8</title>
<g id="a_node8"><a xlink:href="util_8h.html" target="_top" xlink:title="Utilities and namespace globals. ">
<polygon fill="white" stroke="black" points="198.5,-110.5 198.5,-128.5 290.5,-128.5 290.5,-110.5 198.5,-110.5"/>
<text text-anchor="middle" x="244.5" y="-117.3" font-family="Helvetica,sans-Serif" font-size="9.00">PriorHessian/util.h</text>
</a>
</g>
</g>
<!-- Node7&#45;&gt;Node8 -->
<g id="edge7" class="edge"><title>Node7&#45;&gt;Node8</title>
<path fill="none" stroke="midnightblue" d="M354.756,-165.45C333.185,-156.656 298.414,-142.48 273.69,-132.401"/>
<polygon fill="midnightblue" stroke="midnightblue" points="275.011,-129.16 264.43,-128.625 272.369,-135.642 275.011,-129.16"/>
</g>
<!-- Node16 -->
<g id="node16" class="node"><title>Node16</title>
<g id="a_node16"><a xlink:href="BaseDist_8h.html" target="_top" xlink:title="The Base class for UnivariateDist and MultivariateDist. ">
<polygon fill="white" stroke="black" points="316.5,-110.5 316.5,-128.5 432.5,-128.5 432.5,-110.5 316.5,-110.5"/>
<text text-anchor="middle" x="374.5" y="-117.3" font-family="Helvetica,sans-Serif" font-size="9.00">PriorHessian/BaseDist.h</text>
</a>
</g>
</g>
<!-- Node7&#45;&gt;Node16 -->
<g id="edge18" class="edge"><title>Node7&#45;&gt;Node16</title>
<path fill="none" stroke="midnightblue" d="M374.5,-165.219C374.5,-158.177 374.5,-147.808 374.5,-138.828"/>
<polygon fill="midnightblue" stroke="midnightblue" points="378,-138.55 374.5,-128.55 371,-138.55 378,-138.55"/>
</g>
<!-- Node8&#45;&gt;Node2 -->
<g id="edge8" class="edge"><title>Node8&#45;&gt;Node2</title>
<path fill="none" stroke="midnightblue" d="M209.995,-110.452C172.092,-101.594 109.432,-86.8978 55.5,-74 54.0556,-73.6546 52.578,-73.3001 51.0858,-72.9412"/>
<polygon fill="midnightblue" stroke="midnightblue" points="51.7647,-69.5046 41.2223,-70.558 50.1206,-76.3088 51.7647,-69.5046"/>
</g>
<!-- Node9 -->
<g id="node9" class="node"><title>Node9</title>
<polygon fill="white" stroke="#bfbfbf" points="56,-0.5 56,-18.5 95,-18.5 95,-0.5 56,-0.5"/>
<text text-anchor="middle" x="75.5" y="-7.3" font-family="Helvetica,sans-Serif" font-size="9.00">string</text>
</g>
<!-- Node8&#45;&gt;Node9 -->
<g id="edge9" class="edge"><title>Node8&#45;&gt;Node9</title>
<path fill="none" stroke="midnightblue" d="M198.326,-117.617C163.26,-114.391 116.451,-104.158 88.5,-74 77.2735,-61.8869 74.6466,-42.7918 74.4488,-28.7016"/>
<polygon fill="midnightblue" stroke="midnightblue" points="77.9477,-28.7861 74.6931,-18.7035 70.9498,-28.615 77.9477,-28.7861"/>
</g>
<!-- Node10 -->
<g id="node10" class="node"><title>Node10</title>
<polygon fill="white" stroke="#bfbfbf" points="213.5,-55.5 213.5,-73.5 261.5,-73.5 261.5,-55.5 213.5,-55.5"/>
<text text-anchor="middle" x="237.5" y="-62.3" font-family="Helvetica,sans-Serif" font-size="9.00">random</text>
</g>
<!-- Node8&#45;&gt;Node10 -->
<g id="edge10" class="edge"><title>Node8&#45;&gt;Node10</title>
<path fill="none" stroke="midnightblue" d="M243.406,-110.219C242.466,-103.099 241.076,-92.5775 239.881,-83.5289"/>
<polygon fill="midnightblue" stroke="midnightblue" points="243.342,-83.0052 238.563,-73.5496 236.403,-83.9218 243.342,-83.0052"/>
</g>
<!-- Node11 -->
<g id="node11" class="node"><title>Node11</title>
<polygon fill="white" stroke="#bfbfbf" points="280,-55.5 280,-73.5 321,-73.5 321,-55.5 280,-55.5"/>
<text text-anchor="middle" x="300.5" y="-62.3" font-family="Helvetica,sans-Serif" font-size="9.00">vector</text>
</g>
<!-- Node8&#45;&gt;Node11 -->
<g id="edge11" class="edge"><title>Node8&#45;&gt;Node11</title>
<path fill="none" stroke="midnightblue" d="M253.25,-110.219C261.6,-102.316 274.376,-90.2241 284.539,-80.6057"/>
<polygon fill="midnightblue" stroke="midnightblue" points="287.138,-82.9655 291.995,-73.5496 282.326,-77.8814 287.138,-82.9655"/>
</g>
<!-- Node12 -->
<g id="node12" class="node"><title>Node12</title>
<polygon fill="white" stroke="#bfbfbf" points="339.5,-55.5 339.5,-73.5 395.5,-73.5 395.5,-55.5 339.5,-55.5"/>
<text text-anchor="middle" x="367.5" y="-62.3" font-family="Helvetica,sans-Serif" font-size="9.00">typeindex</text>
</g>
<!-- Node8&#45;&gt;Node12 -->
<g id="edge12" class="edge"><title>Node8&#45;&gt;Node12</title>
<path fill="none" stroke="midnightblue" d="M263.181,-110.45C283.41,-101.734 315.908,-87.7306 339.258,-77.6691"/>
<polygon fill="midnightblue" stroke="midnightblue" points="340.844,-80.7969 348.643,-73.6253 338.074,-74.3683 340.844,-80.7969"/>
</g>
<!-- Node13 -->
<g id="node13" class="node"><title>Node13</title>
<polygon fill="white" stroke="#bfbfbf" points="414,-55.5 414,-73.5 469,-73.5 469,-55.5 414,-55.5"/>
<text text-anchor="middle" x="441.5" y="-62.3" font-family="Helvetica,sans-Serif" font-size="9.00">armadillo</text>
</g>
<!-- Node8&#45;&gt;Node13 -->
<g id="edge13" class="edge"><title>Node8&#45;&gt;Node13</title>
<path fill="none" stroke="midnightblue" d="M274.42,-110.45C309.052,-101.133 366.139,-85.7748 403.782,-75.6475"/>
<polygon fill="midnightblue" stroke="midnightblue" points="405.101,-78.9171 413.849,-72.9392 403.283,-72.1574 405.101,-78.9171"/>
</g>
<!-- Node14 -->
<g id="node14" class="node"><title>Node14</title>
<g id="a_node14"><a xlink:href="PriorHessianError_8h.html" target="_top" xlink:title="The Exception classes for the PriorHessian library. ">
<polygon fill="white" stroke="black" points="97.5,-55.5 97.5,-73.5 195.5,-73.5 195.5,-55.5 97.5,-55.5"/>
<text text-anchor="middle" x="146.5" y="-62.3" font-family="Helvetica,sans-Serif" font-size="9.00">PriorHessianError.h</text>
</a>
</g>
</g>
<!-- Node8&#45;&gt;Node14 -->
<g id="edge14" class="edge"><title>Node8&#45;&gt;Node14</title>
<path fill="none" stroke="midnightblue" d="M229.616,-110.45C213.93,-101.968 188.986,-88.477 170.512,-78.486"/>
<polygon fill="midnightblue" stroke="midnightblue" points="171.985,-75.3038 161.524,-73.6253 168.655,-81.461 171.985,-75.3038"/>
</g>
<!-- Node14&#45;&gt;Node9 -->
<g id="edge16" class="edge"><title>Node14&#45;&gt;Node9</title>
<path fill="none" stroke="midnightblue" d="M135.717,-55.4504C124.874,-47.3566 107.924,-34.7042 94.7667,-24.8822"/>
<polygon fill="midnightblue" stroke="midnightblue" points="96.4921,-21.8025 86.3849,-18.6253 92.3047,-27.412 96.4921,-21.8025"/>
</g>
<!-- Node15 -->
<g id="node15" class="node"><title>Node15</title>
<polygon fill="white" stroke="#bfbfbf" points="118.5,-0.5 118.5,-18.5 174.5,-18.5 174.5,-0.5 118.5,-0.5"/>
<text text-anchor="middle" x="146.5" y="-7.3" font-family="Helvetica,sans-Serif" font-size="9.00">exception</text>
</g>
<!-- Node14&#45;&gt;Node15 -->
<g id="edge15" class="edge"><title>Node14&#45;&gt;Node15</title>
<path fill="none" stroke="midnightblue" d="M146.5,-55.2188C146.5,-48.1769 146.5,-37.8083 146.5,-28.8277"/>
<polygon fill="midnightblue" stroke="midnightblue" points="150,-28.5495 146.5,-18.5496 143,-28.5496 150,-28.5495"/>
</g>
</g>
</svg>
        <g id="navigator" transform="translate(0 0)" fill="#404254">
                <rect fill="#f2f5e9" fill-opacity="0.5" stroke="#606060" stroke-width=".5" x="0" y="0" width="60" height="60"/>
                <use id="zoomplus" xlink:href="#zoomPlus" x="17" y="9" onmousedown="handleZoom(evt,'in')"/>
                <use id="zoomminus" xlink:href="#zoomMin" x="42" y="9" onmousedown="handleZoom(evt,'out')"/>
                <use id="reset" xlink:href="#resetDef" x="30" y="36" onmousedown="handleReset()"/>
                <g id="arrowUp" xlink:href="#dirArrow" transform="translate(30 24)" onmousedown="handlePan(0,-1)">
                  <use xlink:href="#rim" fill="#404040">
                        <set attributeName="fill" to="#808080" begin="arrowUp.mouseover" end="arrowUp.mouseout"/>
                  </use>
                  <path fill="none" stroke="white" stroke-width="1.5" d="M0,-3.0v7 M-2.5,-0.5L0,-3.0L2.5,-0.5"/>
                </g>
                <g id="arrowRight" xlink:href="#dirArrow" transform="rotate(90) translate(36 -43)" onmousedown="handlePan(1,0)">
                  <use xlink:href="#rim" fill="#404040">
                        <set attributeName="fill" to="#808080" begin="arrowRight.mouseover" end="arrowRight.mouseout"/>
                  </use>
                  <path fill="none" stroke="white" stroke-width="1.5" d="M0,-3.0v7 M-2.5,-0.5L0,-3.0L2.5,-0.5"/>
                </g>
                <g id="arrowDown" xlink:href="#dirArrow" transform="rotate(180) translate(-30 -48)" onmousedown="handlePan(0,1)">
                  <use xlink:href="#rim" fill="#404040">
                        <set attributeName="fill" to="#808080" begin="arrowDown.mouseover" end="arrowDown.mouseout"/>
                  </use>
                  <path fill="none" stroke="white" stroke-width="1.5" d="M0,-3.0v7 M-2.5,-0.5L0,-3.0L2.5,-0.5"/>
                </g>
                <g id="arrowLeft" xlink:href="#dirArrow" transform="rotate(270) translate(-36 17)" onmousedown="handlePan(-1,0)">
                  <use xlink:href="#rim" fill="#404040">
                        <set attributeName="fill" to="#808080" begin="arrowLeft.mouseover" end="arrowLeft.mouseout"/>
                  </use>
                  <path fill="none" stroke="white" stroke-width="1.5" d="M0,-3.0v7 M-2.5,-0.5L0,-3.0L2.5,-0.5"/>
                </g>
        </g>
        <svg viewBox="0 0 15 15" width="100%" height="30px" preserveAspectRatio="xMaxYMin meet">
         <g id="arrow_out" transform="scale(0.3 0.3)">
          <a xlink:href="ParetoDist_8h__incl_org.svg" target="_base">
           <rect id="button" ry="5" rx="5" y="6" x="6" height="38" width="38"
                fill="#f2f5e9" fill-opacity="0.5" stroke="#606060" stroke-width="1.0"/>
           <path id="arrow"
             d="M 11.500037,31.436501 C 11.940474,20.09759 22.043105,11.32322 32.158766,21.979434 L 37.068811,17.246167 C 37.068811,17.246167 37.088388,32 37.088388,32 L 22.160133,31.978069 C 22.160133,31.978069 26.997745,27.140456 26.997745,27.140456 C 18.528582,18.264221 13.291696,25.230495 11.500037,31.436501 z"
             style="fill:#404040;"/>
          </a>
         </g>
        </svg>
</svg>
