<?xml version="1.0" encoding="UTF-8" standalone="no"?>
<!DOCTYPE svg PUBLIC "-//W3C//DTD SVG 1.1//EN"
 "http://www.w3.org/Graphics/SVG/1.1/DTD/svg11.dtd">
<!-- Generated by graphviz version 2.38.0 (20140413.2041)
 -->
<!-- Title: ParetoDist.h Pages: 1 -->
<svg width="212pt" height="82pt"
 viewBox="0.00 0.00 211.50 82.00" xmlns="http://www.w3.org/2000/svg" xmlns:xlink="http://www.w3.org/1999/xlink">
<g id="graph0" class="graph" transform="scale(1 1) rotate(0) translate(4 78)">
<title>ParetoDist.h</title>
<polygon fill="white" stroke="none" points="-4,4 -4,-78 207.5,-78 207.5,4 -4,4"/>
<!-- Node1 -->
<g id="node1" class="node"><title>Node1</title>
<polygon fill="#bfbfbf" stroke="black" points="60,-55.5 60,-73.5 127,-73.5 127,-55.5 60,-55.5"/>
<text text-anchor="middle" x="93.5" y="-62.3" font-family="Helvetica,sans-Serif" font-size="9.00">ParetoDist.h</text>
</g>
<!-- Node2 -->
<g id="node2" class="node"><title>Node2</title>
<g id="a_node2"><a xlink:href="ParetoDist_8cpp.html" target="_top" xlink:title="ParetoDist class defintion. ">
<polygon fill="white" stroke="black" points="0,-0.5 0,-18.5 77,-18.5 77,-0.5 0,-0.5"/>
<text text-anchor="middle" x="38.5" y="-7.3" font-family="Helvetica,sans-Serif" font-size="9.00">ParetoDist.cpp</text>
</a>
</g>
</g>
<!-- Node1&#45;&gt;Node2 -->
<g id="edge1" class="edge"><title>Node1&#45;&gt;Node2</title>
<path fill="none" stroke="midnightblue" d="M77.5294,-48.1101C67.4983,-38.4438 54.968,-26.3692 46.8533,-18.5496"/>
<polygon fill="midnightblue" stroke="midnightblue" points="75.2768,-50.8001 84.9062,-55.2188 80.1341,-45.7595 75.2768,-50.8001"/>
</g>
<!-- Node3 -->
<g id="node3" class="node"><title>Node3</title>
<g id="a_node3"><a xlink:href="TruncatedParetoDist_8h.html" target="_top" xlink:title="ParetoDist class declaration and templated methods. ">
<polygon fill="white" stroke="black" points="95.5,-0.5 95.5,-18.5 203.5,-18.5 203.5,-0.5 95.5,-0.5"/>
<text text-anchor="middle" x="149.5" y="-7.3" font-family="Helvetica,sans-Serif" font-size="9.00">TruncatedParetoDist.h</text>
</a>
</g>
</g>
<!-- Node1&#45;&gt;Node3 -->
<g id="edge2" class="edge"><title>Node1&#45;&gt;Node3</title>
<path fill="none" stroke="midnightblue" d="M109.761,-48.1101C119.974,-38.4438 132.733,-26.3692 140.995,-18.5496"/>
<polygon fill="midnightblue" stroke="midnightblue" points="107.107,-45.8028 102.25,-55.2188 111.919,-50.8869 107.107,-45.8028"/>
</g>
</g>
</svg>
