<?xml version="1.0" encoding="UTF-8" standalone="no"?>
<!DOCTYPE svg PUBLIC "-//W3C//DTD SVG 1.1//EN"
 "http://www.w3.org/Graphics/SVG/1.1/DTD/svg11.dtd">
<!-- Generated by graphviz version 2.38.0 (20140413.2041)
 -->
<!-- Title: ParetoDist.cpp Pages: 1 -->
<!--zoomable 302 -->
<svg id="main" version="1.1" xmlns="http://www.w3.org/2000/svg" xmlns:xlink="http://www.w3.org/1999/xlink" xml:space="preserve" onload="init(evt)">
<style type="text/css"><![CDATA[
.edge:hover path { stroke: red; }
.edge:hover polygon { stroke: red; fill: red; }
]]></style>
<script type="text/javascript"><![CDATA[
var edges = document.getElementsByTagName('g');
if (edges && edges.length) {
  for (var i=0;i<edges.length;i++) {
    if (edges[i].id.substr(0,4)=='edge') {
      edges[i].setAttribute('class','edge');
    }
  }
}
]]></script>
        <defs>
                <circle id="rim" cx="0" cy="0" r="7"/>
                <circle id="rim2" cx="0" cy="0" r="3.5"/>
                <g id="zoomPlus">
                        <use xlink:href="#rim" fill="#404040">
                                <set attributeName="fill" to="#808080" begin="zoomplus.mouseover" end="zoomplus.mouseout"/>
                        </use>
                        <path d="M-4,0h8M0,-4v8" fill="none" stroke="white" stroke-width="1.5" pointer-events="none"/>
                </g>
                <g id="zoomMin">
                        <use xlink:href="#rim" fill="#404040">
                                <set attributeName="fill" to="#808080" begin="zoomminus.mouseover" end="zoomminus.mouseout"/>
                        </use>
                        <path d="M-4,0h8" fill="none" stroke="white" stroke-width="1.5" pointer-events="none"/>
                </g>
                <g id="dirArrow">
                        <path fill="none" stroke="white" stroke-width="1.5" d="M0,-3.0v7 M-2.5,-0.5L0,-3.0L2.5,-0.5"/>
                </g>
               <g id="resetDef">
                       <use xlink:href="#rim2" fill="#404040">
                               <set attributeName="fill" to="#808080" begin="reset.mouseover" end="reset.mouseout"/>
                       </use>
               </g>
        </defs>

<script type="text/javascript">
var viewWidth = 701;
var viewHeight = 302;
var sectionId = 'dynsection-0';
</script>
<script xlink:href="svgpan.js"/>
<svg id="graph" class="graph">
<g id="viewport">
<title>ParetoDist.cpp</title>
<polygon fill="white" stroke="none" points="-4,4 -4,-298 697,-298 697,4 -4,4"/>
<!-- Node1 -->
<g id="node1" class="node"><title>Node1</title>
<polygon fill="#bfbfbf" stroke="black" points="356,-275.5 356,-293.5 433,-293.5 433,-275.5 356,-275.5"/>
<text text-anchor="middle" x="394.5" y="-282.3" font-family="Helvetica,sans-Serif" font-size="9.00">ParetoDist.cpp</text>
</g>
<!-- Node2 -->
<g id="node2" class="node"><title>Node2</title>
<g id="a_node2"><a xlink:href="ParetoDist_8h.html" target="_top" xlink:title="ParetoDist class declaration and templated methods. ">
<polygon fill="white" stroke="black" points="221.5,-220.5 221.5,-238.5 343.5,-238.5 343.5,-220.5 221.5,-220.5"/>
<text text-anchor="middle" x="282.5" y="-227.3" font-family="Helvetica,sans-Serif" font-size="9.00">PriorHessian/ParetoDist.h</text>
</a>
</g>
</g>
<!-- Node1&#45;&gt;Node2 -->
<g id="edge1" class="edge"><title>Node1&#45;&gt;Node2</title>
<path fill="none" stroke="midnightblue" d="M377.49,-275.45C359.234,-266.812 330.006,-252.98 308.787,-242.94"/>
<polygon fill="midnightblue" stroke="midnightblue" points="310.207,-239.739 299.67,-238.625 307.212,-246.066 310.207,-239.739"/>
</g>
<!-- Node3 -->
<g id="node3" class="node"><title>Node3</title>
<polygon fill="white" stroke="#bfbfbf" points="0,-55.5 0,-73.5 41,-73.5 41,-55.5 0,-55.5"/>
<text text-anchor="middle" x="20.5" y="-62.3" font-family="Helvetica,sans-Serif" font-size="9.00">cmath</text>
</g>
<!-- Node1&#45;&gt;Node3 -->
<g id="edge21" class="edge"><title>Node1&#45;&gt;Node3</title>
<path fill="none" stroke="midnightblue" d="M355.725,-277.711C318.082,-271.245 259.853,-258.976 212.5,-239 131.294,-204.743 102.665,-197.737 47.5,-129 36.7216,-115.57 29.5345,-97.2002 25.3041,-83.6731"/>
<polygon fill="midnightblue" stroke="midnightblue" points="28.5544,-82.3107 22.4319,-73.664 21.826,-84.2415 28.5544,-82.3107"/>
</g>
<!-- Node15 -->
<g id="node15" class="node"><title>Node15</title>
<g id="a_node15"><a xlink:href="PriorHessianError_8h.html" target="_top" xlink:title="The Exception classes for the PriorHessian library. ">
<polygon fill="white" stroke="black" points="371.5,-55.5 371.5,-73.5 469.5,-73.5 469.5,-55.5 371.5,-55.5"/>
<text text-anchor="middle" x="420.5" y="-62.3" font-family="Helvetica,sans-Serif" font-size="9.00">PriorHessianError.h</text>
</a>
</g>
</g>
<!-- Node1&#45;&gt;Node15 -->
<g id="edge20" class="edge"><title>Node1&#45;&gt;Node15</title>
<path fill="none" stroke="midnightblue" d="M395.456,-275.483C399.198,-244.107 412.908,-129.159 418.3,-83.9443"/>
<polygon fill="midnightblue" stroke="midnightblue" points="421.798,-84.1672 419.507,-73.8231 414.848,-83.3382 421.798,-84.1672"/>
</g>
<!-- Node18 -->
<g id="node18" class="node"><title>Node18</title>
<polygon fill="white" stroke="#bfbfbf" points="423,-220.5 423,-238.5 472,-238.5 472,-220.5 423,-220.5"/>
<text text-anchor="middle" x="447.5" y="-227.3" font-family="Helvetica,sans-Serif" font-size="9.00">sstream</text>
</g>
<!-- Node1&#45;&gt;Node18 -->
<g id="edge22" class="edge"><title>Node1&#45;&gt;Node18</title>
<path fill="none" stroke="midnightblue" d="M402.781,-275.219C410.606,-267.394 422.537,-255.463 432.108,-245.892"/>
<polygon fill="midnightblue" stroke="midnightblue" points="434.854,-248.096 439.45,-238.55 429.904,-243.146 434.854,-248.096"/>
</g>
<!-- Node19 -->
<g id="node19" class="node"><title>Node19</title>
<polygon fill="white" stroke="#bfbfbf" points="490.5,-220.5 490.5,-238.5 528.5,-238.5 528.5,-220.5 490.5,-220.5"/>
<text text-anchor="middle" x="509.5" y="-227.3" font-family="Helvetica,sans-Serif" font-size="9.00">limits</text>
</g>
<!-- Node1&#45;&gt;Node19 -->
<g id="edge23" class="edge"><title>Node1&#45;&gt;Node19</title>
<path fill="none" stroke="midnightblue" d="M411.966,-275.45C430.71,-266.812 460.722,-252.98 482.508,-242.94"/>
<polygon fill="midnightblue" stroke="midnightblue" points="484.253,-245.99 491.87,-238.625 481.323,-239.632 484.253,-245.99"/>
</g>
<!-- Node2&#45;&gt;Node3 -->
<g id="edge2" class="edge"><title>Node2&#45;&gt;Node3</title>
<path fill="none" stroke="midnightblue" d="M255.058,-220.394C212.233,-206.757 128.423,-176.023 70.5,-129 54.2138,-115.778 39.8975,-96.3434 30.8045,-82.461"/>
<polygon fill="midnightblue" stroke="midnightblue" points="33.6843,-80.4662 25.3838,-73.8819 27.7666,-84.2053 33.6843,-80.4662"/>
</g>
<!-- Node4 -->
<g id="node4" class="node"><title>Node4</title>
<g id="a_node4"><a xlink:href="Meta_8h.html" target="_top" xlink:title="Enables the use of variadic templates in interesting ways. ">
<polygon fill="white" stroke="black" points="465.5,-110.5 465.5,-128.5 565.5,-128.5 565.5,-110.5 465.5,-110.5"/>
<text text-anchor="middle" x="515.5" y="-117.3" font-family="Helvetica,sans-Serif" font-size="9.00">PriorHessian/Meta.h</text>
</a>
</g>
</g>
<!-- Node2&#45;&gt;Node4 -->
<g id="edge3" class="edge"><title>Node2&#45;&gt;Node4</title>
<path fill="none" stroke="midnightblue" d="M300.013,-220.382C340.509,-201.612 440.83,-155.111 488.939,-132.812"/>
<polygon fill="midnightblue" stroke="midnightblue" points="490.501,-135.945 498.102,-128.564 487.557,-129.594 490.501,-135.945"/>
</g>
<!-- Node8 -->
<g id="node8" class="node"><title>Node8</title>
<g id="a_node8"><a xlink:href="UnivariateDist_8h.html" target="_top" xlink:title="UnivariateDist base class. ">
<polygon fill="white" stroke="black" points="191,-165.5 191,-183.5 328,-183.5 328,-165.5 191,-165.5"/>
<text text-anchor="middle" x="259.5" y="-172.3" font-family="Helvetica,sans-Serif" font-size="9.00">PriorHessian/UnivariateDist.h</text>
</a>
</g>
</g>
<!-- Node2&#45;&gt;Node8 -->
<g id="edge7" class="edge"><title>Node2&#45;&gt;Node8</title>
<path fill="none" stroke="midnightblue" d="M278.906,-220.219C275.748,-212.942 271.049,-202.113 267.066,-192.934"/>
<polygon fill="midnightblue" stroke="midnightblue" points="270.185,-191.33 262.993,-183.55 263.763,-194.116 270.185,-191.33"/>
</g>
<!-- Node5 -->
<g id="node5" class="node"><title>Node5</title>
<polygon fill="white" stroke="#bfbfbf" points="487.5,-55.5 487.5,-73.5 543.5,-73.5 543.5,-55.5 487.5,-55.5"/>
<text text-anchor="middle" x="515.5" y="-62.3" font-family="Helvetica,sans-Serif" font-size="9.00">functional</text>
</g>
<!-- Node4&#45;&gt;Node5 -->
<g id="edge4" class="edge"><title>Node4&#45;&gt;Node5</title>
<path fill="none" stroke="midnightblue" d="M515.5,-110.219C515.5,-103.177 515.5,-92.8083 515.5,-83.8277"/>
<polygon fill="midnightblue" stroke="midnightblue" points="519,-83.5495 515.5,-73.5496 512,-83.5496 519,-83.5495"/>
</g>
<!-- Node6 -->
<g id="node6" class="node"><title>Node6</title>
<polygon fill="white" stroke="#bfbfbf" points="561.5,-55.5 561.5,-73.5 631.5,-73.5 631.5,-55.5 561.5,-55.5"/>
<text text-anchor="middle" x="596.5" y="-62.3" font-family="Helvetica,sans-Serif" font-size="9.00">initializer_list</text>
</g>
<!-- Node4&#45;&gt;Node6 -->
<g id="edge5" class="edge"><title>Node4&#45;&gt;Node6</title>
<path fill="none" stroke="midnightblue" d="M527.802,-110.45C540.41,-102.201 560.255,-89.2158 575.381,-79.3187"/>
<polygon fill="midnightblue" stroke="midnightblue" points="577.631,-82.0294 584.082,-73.6253 573.798,-76.1719 577.631,-82.0294"/>
</g>
<!-- Node7 -->
<g id="node7" class="node"><title>Node7</title>
<polygon fill="white" stroke="#bfbfbf" points="650,-55.5 650,-73.5 693,-73.5 693,-55.5 650,-55.5"/>
<text text-anchor="middle" x="671.5" y="-62.3" font-family="Helvetica,sans-Serif" font-size="9.00">cstdint</text>
</g>
<!-- Node4&#45;&gt;Node7 -->
<g id="edge6" class="edge"><title>Node4&#45;&gt;Node7</title>
<path fill="none" stroke="midnightblue" d="M539.193,-110.45C566.149,-101.292 610.283,-86.2981 640.09,-76.1714"/>
<polygon fill="midnightblue" stroke="midnightblue" points="641.261,-79.4701 649.603,-72.9392 639.009,-72.8422 641.261,-79.4701"/>
</g>
<!-- Node8&#45;&gt;Node4 -->
<g id="edge18" class="edge"><title>Node8&#45;&gt;Node4</title>
<path fill="none" stroke="midnightblue" d="M298.381,-165.45C343.433,-156.123 417.726,-140.742 466.64,-130.615"/>
<polygon fill="midnightblue" stroke="midnightblue" points="467.591,-133.993 476.673,-128.538 466.172,-127.138 467.591,-133.993"/>
</g>
<!-- Node9 -->
<g id="node9" class="node"><title>Node9</title>
<g id="a_node9"><a xlink:href="util_8h.html" target="_top" xlink:title="Utilities and namespace globals. ">
<polygon fill="white" stroke="black" points="213.5,-110.5 213.5,-128.5 305.5,-128.5 305.5,-110.5 213.5,-110.5"/>
<text text-anchor="middle" x="259.5" y="-117.3" font-family="Helvetica,sans-Serif" font-size="9.00">PriorHessian/util.h</text>
</a>
</g>
</g>
<!-- Node8&#45;&gt;Node9 -->
<g id="edge8" class="edge"><title>Node8&#45;&gt;Node9</title>
<path fill="none" stroke="midnightblue" d="M259.5,-165.219C259.5,-158.177 259.5,-147.808 259.5,-138.828"/>
<polygon fill="midnightblue" stroke="midnightblue" points="263,-138.55 259.5,-128.55 256,-138.55 263,-138.55"/>
</g>
<!-- Node17 -->
<g id="node17" class="node"><title>Node17</title>
<g id="a_node17"><a xlink:href="BaseDist_8h.html" target="_top" xlink:title="The Base classes for UnivariateDist and MultivariateDist. ">
<polygon fill="white" stroke="black" points="79.5,-110.5 79.5,-128.5 195.5,-128.5 195.5,-110.5 79.5,-110.5"/>
<text text-anchor="middle" x="137.5" y="-117.3" font-family="Helvetica,sans-Serif" font-size="9.00">PriorHessian/BaseDist.h</text>
</a>
</g>
</g>
<!-- Node8&#45;&gt;Node17 -->
<g id="edge19" class="edge"><title>Node8&#45;&gt;Node17</title>
<path fill="none" stroke="midnightblue" d="M240.971,-165.45C220.907,-156.734 188.672,-142.731 165.512,-132.669"/>
<polygon fill="midnightblue" stroke="midnightblue" points="166.77,-129.4 156.204,-128.625 163.981,-135.82 166.77,-129.4"/>
</g>
<!-- Node9&#45;&gt;Node3 -->
<g id="edge9" class="edge"><title>Node9&#45;&gt;Node3</title>
<path fill="none" stroke="midnightblue" d="M221.466,-110.482C180.448,-101.77 113.254,-87.3102 55.5,-74 54.0528,-73.6665 52.573,-73.3217 51.0789,-72.9706"/>
<polygon fill="midnightblue" stroke="midnightblue" points="51.7485,-69.5322 41.2091,-70.6145 50.123,-76.3408 51.7485,-69.5322"/>
</g>
<!-- Node10 -->
<g id="node10" class="node"><title>Node10</title>
<polygon fill="white" stroke="#bfbfbf" points="193,-0.5 193,-18.5 232,-18.5 232,-0.5 193,-0.5"/>
<text text-anchor="middle" x="212.5" y="-7.3" font-family="Helvetica,sans-Serif" font-size="9.00">string</text>
</g>
<!-- Node9&#45;&gt;Node10 -->
<g id="edge10" class="edge"><title>Node9&#45;&gt;Node10</title>
<path fill="none" stroke="midnightblue" d="M218.116,-110.472C170.123,-100.745 96.5208,-84.3753 88.5,-74 61.1786,-38.6587 137.822,-21.2601 182.638,-14.3095"/>
<polygon fill="midnightblue" stroke="midnightblue" points="183.344,-17.7437 192.734,-12.8355 182.333,-10.8172 183.344,-17.7437"/>
</g>
<!-- Node11 -->
<g id="node11" class="node"><title>Node11</title>
<polygon fill="white" stroke="#bfbfbf" points="97.5,-55.5 97.5,-73.5 145.5,-73.5 145.5,-55.5 97.5,-55.5"/>
<text text-anchor="middle" x="121.5" y="-62.3" font-family="Helvetica,sans-Serif" font-size="9.00">random</text>
</g>
<!-- Node9&#45;&gt;Node11 -->
<g id="edge11" class="edge"><title>Node9&#45;&gt;Node11</title>
<path fill="none" stroke="midnightblue" d="M238.541,-110.45C215.541,-101.617 178.404,-87.3546 152.139,-77.267"/>
<polygon fill="midnightblue" stroke="midnightblue" points="153.247,-73.9433 142.656,-73.6253 150.737,-80.478 153.247,-73.9433"/>
</g>
<!-- Node12 -->
<g id="node12" class="node"><title>Node12</title>
<polygon fill="white" stroke="#bfbfbf" points="164,-55.5 164,-73.5 205,-73.5 205,-55.5 164,-55.5"/>
<text text-anchor="middle" x="184.5" y="-62.3" font-family="Helvetica,sans-Serif" font-size="9.00">vector</text>
</g>
<!-- Node9&#45;&gt;Node12 -->
<g id="edge12" class="edge"><title>Node9&#45;&gt;Node12</title>
<path fill="none" stroke="midnightblue" d="M248.109,-110.45C236.545,-102.279 218.406,-89.4604 204.452,-79.5996"/>
<polygon fill="midnightblue" stroke="midnightblue" points="206.185,-76.5381 195.998,-73.6253 202.145,-82.2548 206.185,-76.5381"/>
</g>
<!-- Node13 -->
<g id="node13" class="node"><title>Node13</title>
<polygon fill="white" stroke="#bfbfbf" points="223.5,-55.5 223.5,-73.5 279.5,-73.5 279.5,-55.5 223.5,-55.5"/>
<text text-anchor="middle" x="251.5" y="-62.3" font-family="Helvetica,sans-Serif" font-size="9.00">typeindex</text>
</g>
<!-- Node9&#45;&gt;Node13 -->
<g id="edge13" class="edge"><title>Node9&#45;&gt;Node13</title>
<path fill="none" stroke="midnightblue" d="M258.25,-110.219C257.175,-103.099 255.587,-92.5775 254.221,-83.5289"/>
<polygon fill="midnightblue" stroke="midnightblue" points="257.668,-82.9151 252.715,-73.5496 250.747,-83.96 257.668,-82.9151"/>
</g>
<!-- Node14 -->
<g id="node14" class="node"><title>Node14</title>
<polygon fill="white" stroke="#bfbfbf" points="298,-55.5 298,-73.5 353,-73.5 353,-55.5 298,-55.5"/>
<text text-anchor="middle" x="325.5" y="-62.3" font-family="Helvetica,sans-Serif" font-size="9.00">armadillo</text>
</g>
<!-- Node9&#45;&gt;Node14 -->
<g id="edge14" class="edge"><title>Node9&#45;&gt;Node14</title>
<path fill="none" stroke="midnightblue" d="M269.524,-110.45C279.506,-102.434 295.057,-89.9471 307.236,-80.1663"/>
<polygon fill="midnightblue" stroke="midnightblue" points="309.776,-82.6157 315.382,-73.6253 305.393,-77.1577 309.776,-82.6157"/>
</g>
<!-- Node9&#45;&gt;Node15 -->
<g id="edge15" class="edge"><title>Node9&#45;&gt;Node15</title>
<path fill="none" stroke="midnightblue" d="M283.952,-110.45C311.219,-101.475 355.516,-86.8922 386.231,-76.7813"/>
<polygon fill="midnightblue" stroke="midnightblue" points="387.678,-79.9897 396.082,-73.5383 385.489,-73.3407 387.678,-79.9897"/>
</g>
<!-- Node15&#45;&gt;Node10 -->
<g id="edge17" class="edge"><title>Node15&#45;&gt;Node10</title>
<path fill="none" stroke="midnightblue" d="M388.909,-55.4504C349.123,-45.3126 281.269,-28.0228 242.331,-18.1013"/>
<polygon fill="midnightblue" stroke="midnightblue" points="242.718,-14.588 232.163,-15.5104 240.989,-21.3712 242.718,-14.588"/>
</g>
<!-- Node16 -->
<g id="node16" class="node"><title>Node16</title>
<polygon fill="white" stroke="#bfbfbf" points="392.5,-0.5 392.5,-18.5 448.5,-18.5 448.5,-0.5 392.5,-0.5"/>
<text text-anchor="middle" x="420.5" y="-7.3" font-family="Helvetica,sans-Serif" font-size="9.00">exception</text>
</g>
<!-- Node15&#45;&gt;Node16 -->
<g id="edge16" class="edge"><title>Node15&#45;&gt;Node16</title>
<path fill="none" stroke="midnightblue" d="M420.5,-55.2188C420.5,-48.1769 420.5,-37.8083 420.5,-28.8277"/>
<polygon fill="midnightblue" stroke="midnightblue" points="424,-28.5495 420.5,-18.5496 417,-28.5496 424,-28.5495"/>
</g>
</g>
</svg>
        <g id="navigator" transform="translate(0 0)" fill="#404254">
                <rect fill="#f2f5e9" fill-opacity="0.5" stroke="#606060" stroke-width=".5" x="0" y="0" width="60" height="60"/>
                <use id="zoomplus" xlink:href="#zoomPlus" x="17" y="9" onmousedown="handleZoom(evt,'in')"/>
                <use id="zoomminus" xlink:href="#zoomMin" x="42" y="9" onmousedown="handleZoom(evt,'out')"/>
                <use id="reset" xlink:href="#resetDef" x="30" y="36" onmousedown="handleReset()"/>
                <g id="arrowUp" xlink:href="#dirArrow" transform="translate(30 24)" onmousedown="handlePan(0,-1)">
                  <use xlink:href="#rim" fill="#404040">
                        <set attributeName="fill" to="#808080" begin="arrowUp.mouseover" end="arrowUp.mouseout"/>
                  </use>
                  <path fill="none" stroke="white" stroke-width="1.5" d="M0,-3.0v7 M-2.5,-0.5L0,-3.0L2.5,-0.5"/>
                </g>
                <g id="arrowRight" xlink:href="#dirArrow" transform="rotate(90) translate(36 -43)" onmousedown="handlePan(1,0)">
                  <use xlink:href="#rim" fill="#404040">
                        <set attributeName="fill" to="#808080" begin="arrowRight.mouseover" end="arrowRight.mouseout"/>
                  </use>
                  <path fill="none" stroke="white" stroke-width="1.5" d="M0,-3.0v7 M-2.5,-0.5L0,-3.0L2.5,-0.5"/>
                </g>
                <g id="arrowDown" xlink:href="#dirArrow" transform="rotate(180) translate(-30 -48)" onmousedown="handlePan(0,1)">
                  <use xlink:href="#rim" fill="#404040">
                        <set attributeName="fill" to="#808080" begin="arrowDown.mouseover" end="arrowDown.mouseout"/>
                  </use>
                  <path fill="none" stroke="white" stroke-width="1.5" d="M0,-3.0v7 M-2.5,-0.5L0,-3.0L2.5,-0.5"/>
                </g>
                <g id="arrowLeft" xlink:href="#dirArrow" transform="rotate(270) translate(-36 17)" onmousedown="handlePan(-1,0)">
                  <use xlink:href="#rim" fill="#404040">
                        <set attributeName="fill" to="#808080" begin="arrowLeft.mouseover" end="arrowLeft.mouseout"/>
                  </use>
                  <path fill="none" stroke="white" stroke-width="1.5" d="M0,-3.0v7 M-2.5,-0.5L0,-3.0L2.5,-0.5"/>
                </g>
        </g>
        <svg viewBox="0 0 15 15" width="100%" height="30px" preserveAspectRatio="xMaxYMin meet">
         <g id="arrow_out" transform="scale(0.3 0.3)">
          <a xlink:href="ParetoDist_8cpp__incl_org.svg" target="_base">
           <rect id="button" ry="5" rx="5" y="6" x="6" height="38" width="38"
                fill="#f2f5e9" fill-opacity="0.5" stroke="#606060" stroke-width="1.0"/>
           <path id="arrow"
             d="M 11.500037,31.436501 C 11.940474,20.09759 22.043105,11.32322 32.158766,21.979434 L 37.068811,17.246167 C 37.068811,17.246167 37.088388,32 37.088388,32 L 22.160133,31.978069 C 22.160133,31.978069 26.997745,27.140456 26.997745,27.140456 C 18.528582,18.264221 13.291696,25.230495 11.500037,31.436501 z"
             style="fill:#404040;"/>
          </a>
         </g>
        </svg>
</svg>
