<?xml version="1.0" encoding="UTF-8" standalone="no"?>
<!DOCTYPE svg PUBLIC "-//W3C//DTD SVG 1.1//EN"
 "http://www.w3.org/Graphics/SVG/1.1/DTD/svg11.dtd">
<!-- Generated by graphviz version 2.38.0 (20140413.2041)
 -->
<!-- Title: PriorHessianError.h Pages: 1 -->
<svg width="1536pt" height="257pt"
 viewBox="0.00 0.00 1535.50 257.00" xmlns="http://www.w3.org/2000/svg" xmlns:xlink="http://www.w3.org/1999/xlink">
<g id="graph0" class="graph" transform="scale(1 1) rotate(0) translate(4 253)">
<title>PriorHessianError.h</title>
<polygon fill="white" stroke="none" points="-4,4 -4,-253 1531.5,-253 1531.5,4 -4,4"/>
<!-- Node1 -->
<g id="node1" class="node"><title>Node1</title>
<polygon fill="#bfbfbf" stroke="black" points="911.5,-230.5 911.5,-248.5 1009.5,-248.5 1009.5,-230.5 911.5,-230.5"/>
<text text-anchor="middle" x="960.5" y="-237.3" font-family="Helvetica,sans-Serif" font-size="9.00">PriorHessianError.h</text>
</g>
<!-- Node2 -->
<g id="node2" class="node"><title>Node2</title>
<g id="a_node2"><a xlink:href="GammaDist_8cpp.html" target="_top" xlink:title="GammaDist class definition. ">
<polygon fill="white" stroke="black" points="154.5,-5.5 154.5,-23.5 236.5,-23.5 236.5,-5.5 154.5,-5.5"/>
<text text-anchor="middle" x="195.5" y="-12.3" font-family="Helvetica,sans-Serif" font-size="9.00">GammaDist.cpp</text>
</a>
</g>
</g>
<!-- Node1&#45;&gt;Node2 -->
<g id="edge1" class="edge"><title>Node1&#45;&gt;Node2</title>
<path fill="none" stroke="midnightblue" d="M901.059,-235.362C752.442,-226.69 368.68,-198.964 257.5,-139 226.515,-122.289 215.433,-115.88 200.5,-84 191.092,-63.9155 192.716,-36.8556 194.307,-23.5589"/>
<polygon fill="midnightblue" stroke="midnightblue" points="901.162,-238.874 911.346,-235.954 901.564,-231.885 901.162,-238.874"/>
</g>
<!-- Node3 -->
<g id="node3" class="node"><title>Node3</title>
<g id="a_node3"><a xlink:href="NormalDist_8cpp.html" target="_top" xlink:title="NormalDist class definition. ">
<polygon fill="white" stroke="black" points="687.5,-5.5 687.5,-23.5 767.5,-23.5 767.5,-5.5 687.5,-5.5"/>
<text text-anchor="middle" x="727.5" y="-12.3" font-family="Helvetica,sans-Serif" font-size="9.00">NormalDist.cpp</text>
</a>
</g>
</g>
<!-- Node1&#45;&gt;Node3 -->
<g id="edge2" class="edge"><title>Node1&#45;&gt;Node3</title>
<path fill="none" stroke="midnightblue" d="M961.255,-219.95C961.626,-184.634 957.148,-107.479 914.5,-65 869.59,-20.2688 837.723,-45.4185 776.5,-29 770.023,-27.2629 763.073,-25.3674 756.502,-23.5607"/>
<polygon fill="midnightblue" stroke="midnightblue" points="957.749,-220.126 960.991,-230.213 964.747,-220.306 957.749,-220.126"/>
</g>
<!-- Node4 -->
<g id="node4" class="node"><title>Node4</title>
<g id="a_node4"><a xlink:href="ParetoDist_8cpp.html" target="_top" xlink:title="ParetoDist class definition. ">
<polygon fill="white" stroke="black" points="1324,-5.5 1324,-23.5 1401,-23.5 1401,-5.5 1324,-5.5"/>
<text text-anchor="middle" x="1362.5" y="-12.3" font-family="Helvetica,sans-Serif" font-size="9.00">ParetoDist.cpp</text>
</a>
</g>
</g>
<!-- Node1&#45;&gt;Node4 -->
<g id="edge3" class="edge"><title>Node1&#45;&gt;Node4</title>
<path fill="none" stroke="midnightblue" d="M1019.7,-237.442C1103.99,-234.819 1253.1,-225.697 1295.5,-194 1353.03,-150.995 1361.17,-52.641 1362.31,-23.6717"/>
<polygon fill="midnightblue" stroke="midnightblue" points="1019.4,-233.95 1009.5,-237.738 1019.6,-240.947 1019.4,-233.95"/>
</g>
<!-- Node5 -->
<g id="node5" class="node"><title>Node5</title>
<g id="a_node5"><a xlink:href="SymmetricBetaDist_8cpp.html" target="_top" xlink:title="SymmetricBetaDist class definition. ">
<polygon fill="white" stroke="black" points="1046,-5.5 1046,-23.5 1157,-23.5 1157,-5.5 1046,-5.5"/>
<text text-anchor="middle" x="1101.5" y="-12.3" font-family="Helvetica,sans-Serif" font-size="9.00">SymmetricBetaDist.cpp</text>
</a>
</g>
</g>
<!-- Node1&#45;&gt;Node5 -->
<g id="edge4" class="edge"><title>Node1&#45;&gt;Node5</title>
<path fill="none" stroke="midnightblue" d="M991.46,-226.606C1040.1,-206.015 1132.75,-158.629 1170.5,-84 1183.91,-57.4893 1146.27,-35.0539 1121.43,-23.6207"/>
<polygon fill="midnightblue" stroke="midnightblue" points="989.976,-223.432 982.066,-230.48 992.645,-229.903 989.976,-223.432"/>
</g>
<!-- Node6 -->
<g id="node6" class="node"><title>Node6</title>
<g id="a_node6"><a xlink:href="UnivariateDist_8cpp.html" target="_top" xlink:title="UnivariateDist base class method definition. ">
<polygon fill="white" stroke="black" points="813.5,-65.5 813.5,-83.5 905.5,-83.5 905.5,-65.5 813.5,-65.5"/>
<text text-anchor="middle" x="859.5" y="-72.3" font-family="Helvetica,sans-Serif" font-size="9.00">UnivariateDist.cpp</text>
</a>
</g>
</g>
<!-- Node1&#45;&gt;Node6 -->
<g id="edge5" class="edge"><title>Node1&#45;&gt;Node6</title>
<path fill="none" stroke="midnightblue" d="M944.415,-223.19C936.341,-214.999 926.761,-204.465 919.5,-194 892.814,-155.54 870.722,-103.562 862.719,-83.6889"/>
<polygon fill="midnightblue" stroke="midnightblue" points="941.992,-225.716 951.57,-230.246 946.907,-220.732 941.992,-225.716"/>
</g>
<!-- Node7 -->
<g id="node7" class="node"><title>Node7</title>
<g id="a_node7"><a xlink:href="AMHCopula_8h.html" target="_top" xlink:title="Ali&#45;Mikhail&#45;Haq Archimedean Copula. ">
<polygon fill="white" stroke="black" points="1429.5,-175.5 1429.5,-193.5 1503.5,-193.5 1503.5,-175.5 1429.5,-175.5"/>
<text text-anchor="middle" x="1466.5" y="-182.3" font-family="Helvetica,sans-Serif" font-size="9.00">AMHCopula.h</text>
</a>
</g>
</g>
<!-- Node1&#45;&gt;Node7 -->
<g id="edge6" class="edge"><title>Node1&#45;&gt;Node7</title>
<path fill="none" stroke="midnightblue" d="M1019.99,-233.974C1107.03,-227.059 1274.1,-212.676 1415.5,-194 1420.04,-193.401 1424.79,-192.703 1429.5,-191.969"/>
<polygon fill="midnightblue" stroke="midnightblue" points="1019.47,-230.504 1009.78,-234.78 1020.02,-237.482 1019.47,-230.504"/>
</g>
<!-- Node8 -->
<g id="node8" class="node"><title>Node8</title>
<g id="a_node8"><a xlink:href="CompositeDist_8h.html" target="_top" xlink:title="CompositeDist class declaration and inline and templated member function definitions. ">
<polygon fill="white" stroke="black" points="533.5,-65.5 533.5,-83.5 617.5,-83.5 617.5,-65.5 533.5,-65.5"/>
<text text-anchor="middle" x="575.5" y="-72.3" font-family="Helvetica,sans-Serif" font-size="9.00">CompositeDist.h</text>
</a>
</g>
</g>
<!-- Node1&#45;&gt;Node8 -->
<g id="edge7" class="edge"><title>Node1&#45;&gt;Node8</title>
<path fill="none" stroke="midnightblue" d="M925.574,-227.3C873.808,-210.306 774.05,-176.043 692.5,-139 653.782,-121.413 610.279,-96.3031 588.871,-83.57"/>
<polygon fill="midnightblue" stroke="midnightblue" points="924.676,-230.689 935.268,-230.464 926.848,-224.034 924.676,-230.689"/>
</g>
<!-- Node10 -->
<g id="node10" class="node"><title>Node10</title>
<g id="a_node10"><a xlink:href="ScaledDist_8h.html" target="_top" xlink:title="ScaledDist class declaration and templated methods. ">
<polygon fill="white" stroke="black" points="1218.5,-175.5 1218.5,-193.5 1286.5,-193.5 1286.5,-175.5 1218.5,-175.5"/>
<text text-anchor="middle" x="1252.5" y="-182.3" font-family="Helvetica,sans-Serif" font-size="9.00">ScaledDist.h</text>
</a>
</g>
</g>
<!-- Node1&#45;&gt;Node10 -->
<g id="edge9" class="edge"><title>Node1&#45;&gt;Node10</title>
<path fill="none" stroke="midnightblue" d="M1014.83,-228.639C1074.4,-217.827 1168.15,-200.809 1218.25,-191.716"/>
<polygon fill="midnightblue" stroke="midnightblue" points="1014.06,-225.221 1004.85,-230.45 1015.31,-232.108 1014.06,-225.221"/>
</g>
<!-- Node12 -->
<g id="node12" class="node"><title>Node12</title>
<g id="a_node12"><a xlink:href="TruncatedDist_8h.html" target="_top" xlink:title="TruncatedDist declaration and templated methods definitions. ">
<polygon fill="white" stroke="black" points="962,-65.5 962,-83.5 1043,-83.5 1043,-65.5 962,-65.5"/>
<text text-anchor="middle" x="1002.5" y="-72.3" font-family="Helvetica,sans-Serif" font-size="9.00">TruncatedDist.h</text>
</a>
</g>
</g>
<!-- Node1&#45;&gt;Node12 -->
<g id="edge11" class="edge"><title>Node1&#45;&gt;Node12</title>
<path fill="none" stroke="midnightblue" d="M965.189,-220.302C974.279,-185.023 993.971,-108.601 1000.41,-83.5971"/>
<polygon fill="midnightblue" stroke="midnightblue" points="961.746,-219.636 962.641,-230.193 968.525,-221.382 961.746,-219.636"/>
</g>
<!-- Node15 -->
<g id="node15" class="node"><title>Node15</title>
<g id="a_node15"><a xlink:href="TruncatedMultivariateDist_8h.html" target="_top" xlink:title="TruncatedMultivariateDist declaration and templated methods definitions. ">
<polygon fill="white" stroke="black" points="1.5,-175.5 1.5,-193.5 129.5,-193.5 129.5,-175.5 1.5,-175.5"/>
<text text-anchor="middle" x="65.5" y="-182.3" font-family="Helvetica,sans-Serif" font-size="9.00">TruncatedMultivariateDist.h</text>
</a>
</g>
</g>
<!-- Node1&#45;&gt;Node15 -->
<g id="edge14" class="edge"><title>Node1&#45;&gt;Node15</title>
<path fill="none" stroke="midnightblue" d="M901.047,-236.366C766.17,-231.282 426.713,-217.127 143.5,-194 139.02,-193.634 134.398,-193.221 129.747,-192.78"/>
<polygon fill="midnightblue" stroke="midnightblue" points="901.043,-239.868 911.167,-236.745 901.305,-232.873 901.043,-239.868"/>
</g>
<!-- Node17 -->
<g id="node17" class="node"><title>Node17</title>
<g id="a_node17"><a xlink:href="UpperTruncatedDist_8h.html" target="_top" xlink:title="UpperTruncatedDist declaration and templated methods definitions. ">
<polygon fill="white" stroke="black" points="1405,-120.5 1405,-138.5 1512,-138.5 1512,-120.5 1405,-120.5"/>
<text text-anchor="middle" x="1458.5" y="-127.3" font-family="Helvetica,sans-Serif" font-size="9.00">UpperTruncatedDist.h</text>
</a>
</g>
</g>
<!-- Node1&#45;&gt;Node17 -->
<g id="edge16" class="edge"><title>Node1&#45;&gt;Node17</title>
<path fill="none" stroke="midnightblue" d="M1019.95,-236.186C1119.23,-231.655 1314.14,-219.72 1377.5,-194 1408.63,-181.365 1437.72,-153.042 1450.98,-138.886"/>
<polygon fill="midnightblue" stroke="midnightblue" points="1019.61,-232.698 1009.78,-236.64 1019.92,-239.691 1019.61,-232.698"/>
</g>
<!-- Node19 -->
<g id="node19" class="node"><title>Node19</title>
<g id="a_node19"><a xlink:href="util_8h.html" target="_top" xlink:title="Utilities and namespace globals. ">
<polygon fill="white" stroke="black" points="510.5,-175.5 510.5,-193.5 546.5,-193.5 546.5,-175.5 510.5,-175.5"/>
<text text-anchor="middle" x="528.5" y="-182.3" font-family="Helvetica,sans-Serif" font-size="9.00">util.h</text>
</a>
</g>
</g>
<!-- Node1&#45;&gt;Node19 -->
<g id="edge18" class="edge"><title>Node1&#45;&gt;Node19</title>
<path fill="none" stroke="midnightblue" d="M901.189,-231.223C801.856,-219.037 606.813,-195.108 546.624,-187.723"/>
<polygon fill="midnightblue" stroke="midnightblue" points="901.013,-234.728 911.365,-232.472 901.865,-227.78 901.013,-234.728"/>
</g>
<!-- Node9 -->
<g id="node9" class="node"><title>Node9</title>
<g id="a_node9"><a xlink:href="CompositeDist_8cpp.html" target="_top" xlink:title="CompositeDist and associated classes and nested classes. ">
<polygon fill="white" stroke="black" points="528.5,-5.5 528.5,-23.5 622.5,-23.5 622.5,-5.5 528.5,-5.5"/>
<text text-anchor="middle" x="575.5" y="-12.3" font-family="Helvetica,sans-Serif" font-size="9.00">CompositeDist.cpp</text>
</a>
</g>
</g>
<!-- Node8&#45;&gt;Node9 -->
<g id="edge8" class="edge"><title>Node8&#45;&gt;Node9</title>
<path fill="none" stroke="midnightblue" d="M575.5,-55.2144C575.5,-44.7141 575.5,-32.0332 575.5,-23.8718"/>
<polygon fill="midnightblue" stroke="midnightblue" points="572,-55.4353 575.5,-65.4353 579,-55.4354 572,-55.4353"/>
</g>
<!-- Node11 -->
<g id="node11" class="node"><title>Node11</title>
<g id="a_node11"><a xlink:href="ScaledSymmetricBetaDist_8h.html" target="_top" xlink:title="ScaledSymmetricBetaDist class declaration and templated methods. ">
<polygon fill="white" stroke="black" points="1175.5,-5.5 1175.5,-23.5 1305.5,-23.5 1305.5,-5.5 1175.5,-5.5"/>
<text text-anchor="middle" x="1240.5" y="-12.3" font-family="Helvetica,sans-Serif" font-size="9.00">ScaledSymmetricBetaDist.h</text>
</a>
</g>
</g>
<!-- Node10&#45;&gt;Node11 -->
<g id="edge10" class="edge"><title>Node10&#45;&gt;Node11</title>
<path fill="none" stroke="midnightblue" d="M1251.2,-165.28C1248.61,-129.012 1242.9,-49.0749 1241.07,-23.5217"/>
<polygon fill="midnightblue" stroke="midnightblue" points="1247.72,-165.672 1251.92,-175.397 1254.7,-165.173 1247.72,-165.672"/>
</g>
<!-- Node13 -->
<g id="node13" class="node"><title>Node13</title>
<g id="a_node13"><a xlink:href="TruncatedGammaDist_8h.html" target="_top" xlink:title="TruncatedGammaDist class declaration and templated methods. ">
<polygon fill="white" stroke="black" points="786,-5.5 786,-23.5 899,-23.5 899,-5.5 786,-5.5"/>
<text text-anchor="middle" x="842.5" y="-12.3" font-family="Helvetica,sans-Serif" font-size="9.00">TruncatedGammaDist.h</text>
</a>
</g>
</g>
<!-- Node12&#45;&gt;Node13 -->
<g id="edge12" class="edge"><title>Node12&#45;&gt;Node13</title>
<path fill="none" stroke="midnightblue" d="M970.682,-61.9658C939.366,-50.614 892.354,-33.572 864.816,-23.5894"/>
<polygon fill="midnightblue" stroke="midnightblue" points="969.658,-65.3178 980.253,-65.4353 972.044,-58.7368 969.658,-65.3178"/>
</g>
<!-- Node14 -->
<g id="node14" class="node"><title>Node14</title>
<g id="a_node14"><a xlink:href="TruncatedNormalDist_8h.html" target="_top" xlink:title="TruncatedNormalDist class declaration. ">
<polygon fill="white" stroke="black" points="917,-5.5 917,-23.5 1028,-23.5 1028,-5.5 917,-5.5"/>
<text text-anchor="middle" x="972.5" y="-12.3" font-family="Helvetica,sans-Serif" font-size="9.00">TruncatedNormalDist.h</text>
</a>
</g>
</g>
<!-- Node12&#45;&gt;Node14 -->
<g id="edge13" class="edge"><title>Node12&#45;&gt;Node14</title>
<path fill="none" stroke="midnightblue" d="M993.729,-56.5425C988.173,-45.8015 981.231,-32.3805 976.83,-23.8718"/>
<polygon fill="midnightblue" stroke="midnightblue" points="990.626,-58.1612 998.329,-65.4353 996.843,-54.9452 990.626,-58.1612"/>
</g>
<!-- Node16 -->
<g id="node16" class="node"><title>Node16</title>
<g id="a_node16"><a xlink:href="TruncatedMultivariateNormalDist_8h.html" target="_top" xlink:title="TruncatedMultivariateNormalDist class declaration. ">
<polygon fill="white" stroke="black" points="0,-0.5 0,-28.5 135,-28.5 135,-0.5 0,-0.5"/>
<text text-anchor="start" x="8" y="-17.3" font-family="Helvetica,sans-Serif" font-size="9.00">TruncatedMultivariateNormal</text>
<text text-anchor="middle" x="67.5" y="-7.3" font-family="Helvetica,sans-Serif" font-size="9.00">Dist.h</text>
</a>
</g>
</g>
<!-- Node15&#45;&gt;Node16 -->
<g id="edge15" class="edge"><title>Node15&#45;&gt;Node16</title>
<path fill="none" stroke="midnightblue" d="M65.7198,-165.041C66.1262,-130.895 66.9864,-58.6388 67.3415,-28.8099"/>
<polygon fill="midnightblue" stroke="midnightblue" points="62.2158,-165.356 65.5965,-175.397 69.2154,-165.439 62.2158,-165.356"/>
</g>
<!-- Node18 -->
<g id="node18" class="node"><title>Node18</title>
<g id="a_node18"><a xlink:href="TruncatedParetoDist_8h.html" target="_top" xlink:title="TruncatedParetoDist class declaration and templated methods. ">
<polygon fill="white" stroke="black" points="1419.5,-5.5 1419.5,-23.5 1527.5,-23.5 1527.5,-5.5 1419.5,-5.5"/>
<text text-anchor="middle" x="1473.5" y="-12.3" font-family="Helvetica,sans-Serif" font-size="9.00">TruncatedParetoDist.h</text>
</a>
</g>
</g>
<!-- Node17&#45;&gt;Node18 -->
<g id="edge17" class="edge"><title>Node17&#45;&gt;Node18</title>
<path fill="none" stroke="midnightblue" d="M1460.9,-110.409C1464.21,-85.4681 1470.04,-41.563 1472.43,-23.553"/>
<polygon fill="midnightblue" stroke="midnightblue" points="1457.43,-110 1459.58,-120.373 1464.36,-110.921 1457.43,-110"/>
</g>
<!-- Node19&#45;&gt;Node2 -->
<g id="edge19" class="edge"><title>Node19&#45;&gt;Node2</title>
<path fill="none" stroke="midnightblue" d="M500.295,-180.205C458.988,-174.798 380.046,-162.247 316.5,-139 268.131,-121.305 246.621,-124.26 214.5,-84 200.03,-65.8634 196.566,-37.4224 195.747,-23.5928"/>
<polygon fill="midnightblue" stroke="midnightblue" points="500.07,-183.704 510.43,-181.486 500.948,-176.76 500.07,-183.704"/>
</g>
<!-- Node19&#45;&gt;Node8 -->
<g id="edge21" class="edge"><title>Node19&#45;&gt;Node8</title>
<path fill="none" stroke="midnightblue" d="M556.413,-174.623C572.998,-167.744 592.661,-156.398 602.5,-139 613.233,-120.022 595.058,-95.9334 583.654,-83.5929"/>
<polygon fill="midnightblue" stroke="midnightblue" points="554.71,-171.526 546.6,-178.343 557.191,-178.071 554.71,-171.526"/>
</g>
<!-- Node20 -->
<g id="node20" class="node"><title>Node20</title>
<g id="a_node20"><a xlink:href="util_8cpp.html" target="_top" xlink:title="Utilities. ">
<polygon fill="white" stroke="black" points="547.5,-120.5 547.5,-138.5 593.5,-138.5 593.5,-120.5 547.5,-120.5"/>
<text text-anchor="middle" x="570.5" y="-127.3" font-family="Helvetica,sans-Serif" font-size="9.00">util.cpp</text>
</a>
</g>
</g>
<!-- Node19&#45;&gt;Node20 -->
<g id="edge20" class="edge"><title>Node19&#45;&gt;Node20</title>
<path fill="none" stroke="midnightblue" d="M541.383,-167.243C548.921,-157.73 558.108,-146.137 564.121,-138.55"/>
<polygon fill="midnightblue" stroke="midnightblue" points="538.53,-165.207 535.062,-175.219 544.016,-169.555 538.53,-165.207"/>
</g>
<!-- Node21 -->
<g id="node21" class="node"><title>Node21</title>
<g id="a_node21"><a xlink:href="CopulaDist_8h.html" target="_top" xlink:title="CopulaDist base class. ">
<polygon fill="white" stroke="black" points="445.5,-65.5 445.5,-83.5 515.5,-83.5 515.5,-65.5 445.5,-65.5"/>
<text text-anchor="middle" x="480.5" y="-72.3" font-family="Helvetica,sans-Serif" font-size="9.00">CopulaDist.h</text>
</a>
</g>
</g>
<!-- Node19&#45;&gt;Node21 -->
<g id="edge22" class="edge"><title>Node19&#45;&gt;Node21</title>
<path fill="none" stroke="midnightblue" d="M500.086,-178.804C477.477,-173.411 447.267,-162.122 432.5,-139 419.185,-118.152 447.958,-95.4131 466.471,-83.6203"/>
<polygon fill="midnightblue" stroke="midnightblue" points="499.655,-182.291 510.164,-180.946 501.11,-175.444 499.655,-182.291"/>
</g>
<!-- Node22 -->
<g id="node22" class="node"><title>Node22</title>
<g id="a_node22"><a xlink:href="MultivariateDist_8h.html" target="_top" xlink:title="MultivariateDist base class. ">
<polygon fill="white" stroke="black" points="442,-120.5 442,-138.5 529,-138.5 529,-120.5 442,-120.5"/>
<text text-anchor="middle" x="485.5" y="-127.3" font-family="Helvetica,sans-Serif" font-size="9.00">MultivariateDist.h</text>
</a>
</g>
</g>
<!-- Node19&#45;&gt;Node22 -->
<g id="edge23" class="edge"><title>Node19&#45;&gt;Node22</title>
<path fill="none" stroke="midnightblue" d="M515.31,-167.243C507.592,-157.73 498.187,-146.137 492.031,-138.55"/>
<polygon fill="midnightblue" stroke="midnightblue" points="512.763,-169.658 521.781,-175.219 518.199,-165.248 512.763,-169.658"/>
</g>
<!-- Node24 -->
<g id="node24" class="node"><title>Node24</title>
<g id="a_node24"><a xlink:href="mvn__cdf_8h.html" target="_top" xlink:title="Numerical computation of multivariate normal cdfs in 2,3 and higher dims. ">
<polygon fill="white" stroke="black" points="326,-120.5 326,-138.5 385,-138.5 385,-120.5 326,-120.5"/>
<text text-anchor="middle" x="355.5" y="-127.3" font-family="Helvetica,sans-Serif" font-size="9.00">mvn_cdf.h</text>
</a>
</g>
</g>
<!-- Node19&#45;&gt;Node24 -->
<g id="edge28" class="edge"><title>Node19&#45;&gt;Node24</title>
<path fill="none" stroke="midnightblue" d="M500.468,-174.912C467.699,-164.873 413.885,-148.387 381.856,-138.574"/>
<polygon fill="midnightblue" stroke="midnightblue" points="499.726,-178.345 510.313,-177.928 501.777,-171.652 499.726,-178.345"/>
</g>
<!-- Node26 -->
<g id="node26" class="node"><title>Node26</title>
<g id="a_node26"><a xlink:href="UnivariateDist_8h.html" target="_top" xlink:title="UnivariateDist base class. ">
<polygon fill="white" stroke="black" points="701.5,-120.5 701.5,-138.5 783.5,-138.5 783.5,-120.5 701.5,-120.5"/>
<text text-anchor="middle" x="742.5" y="-127.3" font-family="Helvetica,sans-Serif" font-size="9.00">UnivariateDist.h</text>
</a>
</g>
</g>
<!-- Node19&#45;&gt;Node26 -->
<g id="edge31" class="edge"><title>Node19&#45;&gt;Node26</title>
<path fill="none" stroke="midnightblue" d="M556.516,-176.561C596.027,-166.776 667.962,-148.96 709.845,-138.587"/>
<polygon fill="midnightblue" stroke="midnightblue" points="555.611,-173.18 546.746,-178.981 557.294,-179.975 555.611,-173.18"/>
</g>
<!-- Node22&#45;&gt;Node8 -->
<g id="edge24" class="edge"><title>Node22&#45;&gt;Node8</title>
<path fill="none" stroke="midnightblue" d="M507.868,-115.328C524.751,-105.386 547.38,-92.0598 561.702,-83.6253"/>
<polygon fill="midnightblue" stroke="midnightblue" points="506.01,-112.36 499.169,-120.45 509.562,-118.392 506.01,-112.36"/>
</g>
<!-- Node22&#45;&gt;Node21 -->
<g id="edge25" class="edge"><title>Node22&#45;&gt;Node21</title>
<path fill="none" stroke="midnightblue" d="M483.771,-110.175C482.915,-101.094 481.924,-90.5949 481.259,-83.5496"/>
<polygon fill="midnightblue" stroke="midnightblue" points="480.295,-110.592 484.719,-120.219 487.264,-109.934 480.295,-110.592"/>
</g>
<!-- Node23 -->
<g id="node23" class="node"><title>Node23</title>
<g id="a_node23"><a xlink:href="MultivariateNormalDist_8h.html" target="_top" xlink:title="MultivariateNormalDist base class. ">
<polygon fill="white" stroke="black" points="310,-65.5 310,-83.5 427,-83.5 427,-65.5 310,-65.5"/>
<text text-anchor="middle" x="368.5" y="-72.3" font-family="Helvetica,sans-Serif" font-size="9.00">MultivariateNormalDist.h</text>
</a>
</g>
</g>
<!-- Node22&#45;&gt;Node23 -->
<g id="edge26" class="edge"><title>Node22&#45;&gt;Node23</title>
<path fill="none" stroke="midnightblue" d="M458.531,-116.283C436.392,-106.254 405.66,-92.3332 386.437,-83.6253"/>
<polygon fill="midnightblue" stroke="midnightblue" points="457.177,-119.512 467.73,-120.45 460.065,-113.136 457.177,-119.512"/>
</g>
<!-- Node23&#45;&gt;Node16 -->
<g id="edge27" class="edge"><title>Node23&#45;&gt;Node16</title>
<path fill="none" stroke="midnightblue" d="M316.983,-63.5731C266.801,-53.9034 190.236,-39.1502 135.165,-28.5385"/>
<polygon fill="midnightblue" stroke="midnightblue" points="316.482,-67.0408 326.963,-65.4962 317.806,-60.1673 316.482,-67.0408"/>
</g>
<!-- Node24&#45;&gt;Node23 -->
<g id="edge30" class="edge"><title>Node24&#45;&gt;Node23</title>
<path fill="none" stroke="midnightblue" d="M359.922,-110.473C362.165,-101.326 364.778,-90.6724 366.526,-83.5496"/>
<polygon fill="midnightblue" stroke="midnightblue" points="356.514,-109.673 357.531,-120.219 363.313,-111.34 356.514,-109.673"/>
</g>
<!-- Node25 -->
<g id="node25" class="node"><title>Node25</title>
<g id="a_node25"><a xlink:href="mvn__cdf_8cpp.html" target="_top" xlink:title="mvn_cdf.cpp">
<polygon fill="white" stroke="black" points="223.5,-65.5 223.5,-83.5 291.5,-83.5 291.5,-65.5 223.5,-65.5"/>
<text text-anchor="middle" x="257.5" y="-72.3" font-family="Helvetica,sans-Serif" font-size="9.00">mvn_cdf.cpp</text>
</a>
</g>
</g>
<!-- Node24&#45;&gt;Node25 -->
<g id="edge29" class="edge"><title>Node24&#45;&gt;Node25</title>
<path fill="none" stroke="midnightblue" d="M331.653,-115.603C313.217,-105.633 288.264,-92.1379 272.524,-83.6253"/>
<polygon fill="midnightblue" stroke="midnightblue" points="330.155,-118.772 340.616,-120.45 333.485,-112.615 330.155,-118.772"/>
</g>
<!-- Node26&#45;&gt;Node6 -->
<g id="edge32" class="edge"><title>Node26&#45;&gt;Node6</title>
<path fill="none" stroke="midnightblue" d="M769.469,-116.283C791.608,-106.254 822.34,-92.3332 841.563,-83.6253"/>
<polygon fill="midnightblue" stroke="midnightblue" points="767.935,-113.136 760.27,-120.45 770.823,-119.512 767.935,-113.136"/>
</g>
<!-- Node26&#45;&gt;Node8 -->
<g id="edge33" class="edge"><title>Node26&#45;&gt;Node8</title>
<path fill="none" stroke="midnightblue" d="M707.328,-117.338C675.443,-107.218 629.219,-92.5485 600.828,-83.5383"/>
<polygon fill="midnightblue" stroke="midnightblue" points="706.546,-120.761 717.136,-120.45 708.664,-114.089 706.546,-120.761"/>
</g>
<!-- Node26&#45;&gt;Node21 -->
<g id="edge34" class="edge"><title>Node26&#45;&gt;Node21</title>
<path fill="none" stroke="midnightblue" d="M692.742,-118.435C640.958,-107.959 561.187,-91.8221 515.622,-82.6048"/>
<polygon fill="midnightblue" stroke="midnightblue" points="692.212,-121.898 702.708,-120.45 693.6,-115.037 692.212,-121.898"/>
</g>
<!-- Node27 -->
<g id="node27" class="node"><title>Node27</title>
<g id="a_node27"><a xlink:href="GammaDist_8h.html" target="_top" xlink:title="GammaDist class declaration and templated methods. ">
<polygon fill="white" stroke="black" points="635.5,-65.5 635.5,-83.5 707.5,-83.5 707.5,-65.5 635.5,-65.5"/>
<text text-anchor="middle" x="671.5" y="-72.3" font-family="Helvetica,sans-Serif" font-size="9.00">GammaDist.h</text>
</a>
</g>
</g>
<!-- Node26&#45;&gt;Node27 -->
<g id="edge35" class="edge"><title>Node26&#45;&gt;Node27</title>
<path fill="none" stroke="midnightblue" d="M723.356,-114.21C710.222,-104.405 693.265,-91.7474 682.385,-83.6253"/>
<polygon fill="midnightblue" stroke="midnightblue" points="721.609,-117.273 731.717,-120.45 725.797,-111.664 721.609,-117.273"/>
</g>
<!-- Node28 -->
<g id="node28" class="node"><title>Node28</title>
<g id="a_node28"><a xlink:href="NormalDist_8h.html" target="_top" xlink:title="NormalDist class declaration and templated methods. ">
<polygon fill="white" stroke="black" points="725.5,-65.5 725.5,-83.5 795.5,-83.5 795.5,-65.5 725.5,-65.5"/>
<text text-anchor="middle" x="760.5" y="-72.3" font-family="Helvetica,sans-Serif" font-size="9.00">NormalDist.h</text>
</a>
</g>
</g>
<!-- Node26&#45;&gt;Node28 -->
<g id="edge38" class="edge"><title>Node26&#45;&gt;Node28</title>
<path fill="none" stroke="midnightblue" d="M748.622,-110.473C751.729,-101.326 755.347,-90.6724 757.766,-83.5496"/>
<polygon fill="midnightblue" stroke="midnightblue" points="745.214,-109.624 745.312,-120.219 751.842,-111.875 745.214,-109.624"/>
</g>
<!-- Node29 -->
<g id="node29" class="node"><title>Node29</title>
<g id="a_node29"><a xlink:href="ParetoDist_8h.html" target="_top" xlink:title="ParetoDist class declaration and templated methods. ">
<polygon fill="white" stroke="black" points="1268,-65.5 1268,-83.5 1335,-83.5 1335,-65.5 1268,-65.5"/>
<text text-anchor="middle" x="1301.5" y="-72.3" font-family="Helvetica,sans-Serif" font-size="9.00">ParetoDist.h</text>
</a>
</g>
</g>
<!-- Node26&#45;&gt;Node29 -->
<g id="edge41" class="edge"><title>Node26&#45;&gt;Node29</title>
<path fill="none" stroke="midnightblue" d="M793.705,-123.645C906.485,-112.952 1173.77,-87.6105 1267.95,-78.681"/>
<polygon fill="midnightblue" stroke="midnightblue" points="793.23,-120.174 783.605,-124.603 793.89,-127.143 793.23,-120.174"/>
</g>
<!-- Node30 -->
<g id="node30" class="node"><title>Node30</title>
<g id="a_node30"><a xlink:href="SymmetricBetaDist_8h.html" target="_top" xlink:title="SymmetricBetaDist class declaration and templated methods. ">
<polygon fill="white" stroke="black" points="1061,-65.5 1061,-83.5 1162,-83.5 1162,-65.5 1061,-65.5"/>
<text text-anchor="middle" x="1111.5" y="-72.3" font-family="Helvetica,sans-Serif" font-size="9.00">SymmetricBetaDist.h</text>
</a>
</g>
</g>
<!-- Node26&#45;&gt;Node30 -->
<g id="edge44" class="edge"><title>Node26&#45;&gt;Node30</title>
<path fill="none" stroke="midnightblue" d="M793.746,-121.139C864.296,-111.006 990.563,-92.8703 1060.82,-82.7799"/>
<polygon fill="midnightblue" stroke="midnightblue" points="793.156,-117.688 783.755,-122.574 794.151,-124.617 793.156,-117.688"/>
</g>
<!-- Node27&#45;&gt;Node2 -->
<g id="edge36" class="edge"><title>Node27&#45;&gt;Node2</title>
<path fill="none" stroke="midnightblue" d="M624.967,-64.8649C476.287,-42.6145 311.739,-26.2413 236.636,-19.2245"/>
<polygon fill="midnightblue" stroke="midnightblue" points="624.779,-68.3761 635.189,-66.4079 625.824,-61.4545 624.779,-68.3761"/>
</g>
<!-- Node27&#45;&gt;Node13 -->
<g id="edge37" class="edge"><title>Node27&#45;&gt;Node13</title>
<path fill="none" stroke="midnightblue" d="M705.072,-62.1129C738.539,-50.7617 789.091,-33.6152 818.65,-23.5894"/>
<polygon fill="midnightblue" stroke="midnightblue" points="703.623,-58.9087 695.277,-65.4353 705.871,-65.5377 703.623,-58.9087"/>
</g>
<!-- Node28&#45;&gt;Node3 -->
<g id="edge39" class="edge"><title>Node28&#45;&gt;Node3</title>
<path fill="none" stroke="midnightblue" d="M750.852,-56.5425C744.741,-45.8015 737.104,-32.3805 732.263,-23.8718"/>
<polygon fill="midnightblue" stroke="midnightblue" points="747.924,-58.4745 755.911,-65.4353 754.008,-55.0128 747.924,-58.4745"/>
</g>
<!-- Node28&#45;&gt;Node14 -->
<g id="edge40" class="edge"><title>Node28&#45;&gt;Node14</title>
<path fill="none" stroke="midnightblue" d="M799.732,-62.7668C841.171,-51.4295 905.575,-33.8097 942.932,-23.5894"/>
<polygon fill="midnightblue" stroke="midnightblue" points="798.7,-59.4205 789.978,-65.4353 800.547,-66.1723 798.7,-59.4205"/>
</g>
<!-- Node29&#45;&gt;Node4 -->
<g id="edge42" class="edge"><title>Node29&#45;&gt;Node4</title>
<path fill="none" stroke="midnightblue" d="M1317.29,-58.4834C1328.88,-47.4633 1344.2,-32.9015 1353.7,-23.8718"/>
<polygon fill="midnightblue" stroke="midnightblue" points="1314.82,-56.0082 1309.98,-65.4353 1319.64,-61.0812 1314.82,-56.0082"/>
</g>
<!-- Node29&#45;&gt;Node18 -->
<g id="edge43" class="edge"><title>Node29&#45;&gt;Node18</title>
<path fill="none" stroke="midnightblue" d="M1335.27,-62.1129C1368.93,-50.7617 1419.78,-33.6152 1449.51,-23.5894"/>
<polygon fill="midnightblue" stroke="midnightblue" points="1333.77,-58.9235 1325.42,-65.4353 1336.01,-65.5565 1333.77,-58.9235"/>
</g>
<!-- Node30&#45;&gt;Node5 -->
<g id="edge45" class="edge"><title>Node30&#45;&gt;Node5</title>
<path fill="none" stroke="midnightblue" d="M1108.4,-55.5487C1106.58,-44.9844 1104.37,-32.12 1102.94,-23.8718"/>
<polygon fill="midnightblue" stroke="midnightblue" points="1104.96,-56.1754 1110.11,-65.4353 1111.86,-54.986 1104.96,-56.1754"/>
</g>
<!-- Node30&#45;&gt;Node11 -->
<g id="edge46" class="edge"><title>Node30&#45;&gt;Node11</title>
<path fill="none" stroke="midnightblue" d="M1138.78,-61.2335C1163.93,-49.9281 1200.54,-33.465 1222.3,-23.6831"/>
<polygon fill="midnightblue" stroke="midnightblue" points="1137.12,-58.1424 1129.44,-65.4353 1139.99,-64.5268 1137.12,-58.1424"/>
</g>
</g>
</svg>
