<?xml version="1.0" encoding="UTF-8" standalone="no"?>
<!DOCTYPE svg PUBLIC "-//W3C//DTD SVG 1.1//EN"
 "http://www.w3.org/Graphics/SVG/1.1/DTD/svg11.dtd">
<!-- Generated by graphviz version 2.38.0 (20140413.2041)
 -->
<!-- Title: ScaledSymmetricBetaDist.h Pages: 1 -->
<!--zoomable 322 -->
<svg id="main" version="1.1" xmlns="http://www.w3.org/2000/svg" xmlns:xlink="http://www.w3.org/1999/xlink" xml:space="preserve" onload="init(evt)">
<style type="text/css"><![CDATA[
.edge:hover path { stroke: red; }
.edge:hover polygon { stroke: red; fill: red; }
]]></style>
<script type="text/javascript"><![CDATA[
var edges = document.getElementsByTagName('g');
if (edges && edges.length) {
  for (var i=0;i<edges.length;i++) {
    if (edges[i].id.substr(0,4)=='edge') {
      edges[i].setAttribute('class','edge');
    }
  }
}
]]></script>
        <defs>
                <circle id="rim" cx="0" cy="0" r="7"/>
                <circle id="rim2" cx="0" cy="0" r="3.5"/>
                <g id="zoomPlus">
                        <use xlink:href="#rim" fill="#404040">
                                <set attributeName="fill" to="#808080" begin="zoomplus.mouseover" end="zoomplus.mouseout"/>
                        </use>
                        <path d="M-4,0h8M0,-4v8" fill="none" stroke="white" stroke-width="1.5" pointer-events="none"/>
                </g>
                <g id="zoomMin">
                        <use xlink:href="#rim" fill="#404040">
                                <set attributeName="fill" to="#808080" begin="zoomminus.mouseover" end="zoomminus.mouseout"/>
                        </use>
                        <path d="M-4,0h8" fill="none" stroke="white" stroke-width="1.5" pointer-events="none"/>
                </g>
                <g id="dirArrow">
                        <path fill="none" stroke="white" stroke-width="1.5" d="M0,-3.0v7 M-2.5,-0.5L0,-3.0L2.5,-0.5"/>
                </g>
               <g id="resetDef">
                       <use xlink:href="#rim2" fill="#404040">
                               <set attributeName="fill" to="#808080" begin="reset.mouseover" end="reset.mouseout"/>
                       </use>
               </g>
        </defs>

<script type="text/javascript">
var viewWidth = 876;
var viewHeight = 322;
var sectionId = 'dynsection-0';
</script>
<script xlink:href="svgpan.js"/>
<svg id="graph" class="graph">
<g id="viewport">
<title>ScaledSymmetricBetaDist.h</title>
<polygon fill="white" stroke="none" points="-4,4 -4,-318 871.5,-318 871.5,4 -4,4"/>
<!-- Node1 -->
<g id="node1" class="node"><title>Node1</title>
<polygon fill="#bfbfbf" stroke="black" points="293.5,-295.5 293.5,-313.5 423.5,-313.5 423.5,-295.5 293.5,-295.5"/>
<text text-anchor="middle" x="358.5" y="-302.3" font-family="Helvetica,sans-Serif" font-size="9.00">ScaledSymmetricBetaDist.h</text>
</g>
<!-- Node2 -->
<g id="node2" class="node"><title>Node2</title>
<g id="a_node2"><a xlink:href="SymmetricBetaDist_8h.html" target="_top" xlink:title="SymmetricBetaDist class declaration and templated methods. ">
<polygon fill="white" stroke="black" points="112.5,-230.5 112.5,-258.5 246.5,-258.5 246.5,-230.5 112.5,-230.5"/>
<text text-anchor="start" x="120.5" y="-247.3" font-family="Helvetica,sans-Serif" font-size="9.00">PriorHessian/SymmetricBeta</text>
<text text-anchor="middle" x="179.5" y="-237.3" font-family="Helvetica,sans-Serif" font-size="9.00">Dist.h</text>
</a>
</g>
</g>
<!-- Node1&#45;&gt;Node2 -->
<g id="edge1" class="edge"><title>Node1&#45;&gt;Node2</title>
<path fill="none" stroke="midnightblue" d="M333.611,-295.435C306.769,-286.738 263.326,-272.661 229.395,-261.667"/>
<polygon fill="midnightblue" stroke="midnightblue" points="230.242,-258.262 219.65,-258.51 228.084,-264.922 230.242,-258.262"/>
</g>
<!-- Node19 -->
<g id="node19" class="node"><title>Node19</title>
<g id="a_node19"><a xlink:href="ScaledDist_8h.html" target="_top" xlink:title="SemiInfiniteDist class declaration and templated methods. ">
<polygon fill="white" stroke="black" points="476.5,-235.5 476.5,-253.5 600.5,-253.5 600.5,-235.5 476.5,-235.5"/>
<text text-anchor="middle" x="538.5" y="-242.3" font-family="Helvetica,sans-Serif" font-size="9.00">PriorHessian/ScaledDist.h</text>
</a>
</g>
</g>
<!-- Node1&#45;&gt;Node19 -->
<g id="edge21" class="edge"><title>Node1&#45;&gt;Node19</title>
<path fill="none" stroke="midnightblue" d="M383.528,-295.435C414.74,-285.378 468.275,-268.128 503.528,-256.769"/>
<polygon fill="midnightblue" stroke="midnightblue" points="504.95,-259.988 513.395,-253.589 502.803,-253.325 504.95,-259.988"/>
</g>
<!-- Node3 -->
<g id="node3" class="node"><title>Node3</title>
<polygon fill="white" stroke="#bfbfbf" points="184,-55.5 184,-73.5 225,-73.5 225,-55.5 184,-55.5"/>
<text text-anchor="middle" x="204.5" y="-62.3" font-family="Helvetica,sans-Serif" font-size="9.00">cmath</text>
</g>
<!-- Node2&#45;&gt;Node3 -->
<g id="edge2" class="edge"><title>Node2&#45;&gt;Node3</title>
<path fill="none" stroke="midnightblue" d="M181.338,-230.411C185.734,-199.114 196.862,-119.881 201.923,-83.8463"/>
<polygon fill="midnightblue" stroke="midnightblue" points="205.412,-84.1696 203.337,-73.78 198.48,-83.1959 205.412,-84.1696"/>
</g>
<!-- Node4 -->
<g id="node4" class="node"><title>Node4</title>
<polygon fill="white" stroke="#bfbfbf" points="117.5,-55.5 117.5,-73.5 165.5,-73.5 165.5,-55.5 117.5,-55.5"/>
<text text-anchor="middle" x="141.5" y="-62.3" font-family="Helvetica,sans-Serif" font-size="9.00">random</text>
</g>
<!-- Node2&#45;&gt;Node4 -->
<g id="edge3" class="edge"><title>Node2&#45;&gt;Node4</title>
<path fill="none" stroke="midnightblue" d="M176.706,-230.411C170.024,-199.114 153.11,-119.881 145.417,-83.8463"/>
<polygon fill="midnightblue" stroke="midnightblue" points="148.778,-82.8288 143.268,-73.78 141.933,-84.2903 148.778,-82.8288"/>
</g>
<!-- Node5 -->
<g id="node5" class="node"><title>Node5</title>
<polygon fill="white" stroke="#bfbfbf" points="0,-165.5 0,-193.5 113,-193.5 113,-165.5 0,-165.5"/>
<text text-anchor="start" x="8" y="-182.3" font-family="Helvetica,sans-Serif" font-size="9.00">boost/math/distributions</text>
<text text-anchor="middle" x="56.5" y="-172.3" font-family="Helvetica,sans-Serif" font-size="9.00">/beta.hpp</text>
</g>
<!-- Node2&#45;&gt;Node5 -->
<g id="edge4" class="edge"><title>Node2&#45;&gt;Node5</title>
<path fill="none" stroke="midnightblue" d="M154.014,-230.446C135.791,-221.112 111.053,-208.442 91.0536,-198.198"/>
<polygon fill="midnightblue" stroke="midnightblue" points="92.4491,-194.981 81.953,-193.537 89.2579,-201.211 92.4491,-194.981"/>
</g>
<!-- Node6 -->
<g id="node6" class="node"><title>Node6</title>
<g id="a_node6"><a xlink:href="UnivariateDist_8h.html" target="_top" xlink:title="UnivariateDist base class. ">
<polygon fill="white" stroke="black" points="301,-170.5 301,-188.5 438,-188.5 438,-170.5 301,-170.5"/>
<text text-anchor="middle" x="369.5" y="-177.3" font-family="Helvetica,sans-Serif" font-size="9.00">PriorHessian/UnivariateDist.h</text>
</a>
</g>
</g>
<!-- Node2&#45;&gt;Node6 -->
<g id="edge5" class="edge"><title>Node2&#45;&gt;Node6</title>
<path fill="none" stroke="midnightblue" d="M218.868,-230.446C253.345,-219.015 302.915,-202.578 335.646,-191.725"/>
<polygon fill="midnightblue" stroke="midnightblue" points="336.838,-195.017 345.228,-188.548 334.635,-188.373 336.838,-195.017"/>
</g>
<!-- Node7 -->
<g id="node7" class="node"><title>Node7</title>
<g id="a_node7"><a xlink:href="util_8h.html" target="_top" xlink:title="Utilities and namespace globals. ">
<polygon fill="white" stroke="black" points="379.5,-110.5 379.5,-128.5 471.5,-128.5 471.5,-110.5 379.5,-110.5"/>
<text text-anchor="middle" x="425.5" y="-117.3" font-family="Helvetica,sans-Serif" font-size="9.00">PriorHessian/util.h</text>
</a>
</g>
</g>
<!-- Node6&#45;&gt;Node7 -->
<g id="edge6" class="edge"><title>Node6&#45;&gt;Node7</title>
<path fill="none" stroke="midnightblue" d="M377.287,-170.435C385.799,-161.619 399.649,-147.274 410.325,-136.217"/>
<polygon fill="midnightblue" stroke="midnightblue" points="412.989,-138.497 417.417,-128.872 407.953,-133.635 412.989,-138.497"/>
</g>
<!-- Node14 -->
<g id="node14" class="node"><title>Node14</title>
<g id="a_node14"><a xlink:href="Meta_8h.html" target="_top" xlink:title="Enables the use of variadic templates in interesting ways. ">
<polygon fill="white" stroke="black" points="578.5,-110.5 578.5,-128.5 678.5,-128.5 678.5,-110.5 578.5,-110.5"/>
<text text-anchor="middle" x="628.5" y="-117.3" font-family="Helvetica,sans-Serif" font-size="9.00">PriorHessian/Meta.h</text>
</a>
</g>
</g>
<!-- Node6&#45;&gt;Node14 -->
<g id="edge16" class="edge"><title>Node6&#45;&gt;Node14</title>
<path fill="none" stroke="midnightblue" d="M405.241,-170.496C451.459,-160.146 532.019,-142.106 582.685,-130.76"/>
<polygon fill="midnightblue" stroke="midnightblue" points="583.717,-134.115 592.71,-128.515 582.187,-127.285 583.717,-134.115"/>
</g>
<!-- Node18 -->
<g id="node18" class="node"><title>Node18</title>
<g id="a_node18"><a xlink:href="BaseDist_8h.html" target="_top" xlink:title="The Base classes for UnivariateDist and MultivariateDist. ">
<polygon fill="white" stroke="black" points="245.5,-110.5 245.5,-128.5 361.5,-128.5 361.5,-110.5 245.5,-110.5"/>
<text text-anchor="middle" x="303.5" y="-117.3" font-family="Helvetica,sans-Serif" font-size="9.00">PriorHessian/BaseDist.h</text>
</a>
</g>
</g>
<!-- Node6&#45;&gt;Node18 -->
<g id="edge20" class="edge"><title>Node6&#45;&gt;Node18</title>
<path fill="none" stroke="midnightblue" d="M360.323,-170.435C350.095,-161.448 333.331,-146.715 320.656,-135.576"/>
<polygon fill="midnightblue" stroke="midnightblue" points="322.849,-132.844 313.026,-128.872 318.228,-138.102 322.849,-132.844"/>
</g>
<!-- Node7&#45;&gt;Node3 -->
<g id="edge7" class="edge"><title>Node7&#45;&gt;Node3</title>
<path fill="none" stroke="midnightblue" d="M391.89,-110.495C354.632,-101.613 292.759,-86.8383 239.5,-74 238.056,-73.652 236.579,-73.2954 235.087,-72.9348"/>
<polygon fill="midnightblue" stroke="midnightblue" points="235.768,-69.4986 225.225,-70.5457 234.12,-76.3018 235.768,-69.4986"/>
</g>
<!-- Node7&#45;&gt;Node4 -->
<g id="edge9" class="edge"><title>Node7&#45;&gt;Node4</title>
<path fill="none" stroke="midnightblue" d="M379.492,-111.429C331.067,-103.744 252.426,-90.5812 175.463,-74.0714"/>
<polygon fill="midnightblue" stroke="midnightblue" points="176.114,-70.6313 165.6,-71.9348 174.632,-77.4726 176.114,-70.6313"/>
</g>
<!-- Node8 -->
<g id="node8" class="node"><title>Node8</title>
<polygon fill="white" stroke="#bfbfbf" points="344,-0.5 344,-18.5 383,-18.5 383,-0.5 344,-0.5"/>
<text text-anchor="middle" x="363.5" y="-7.3" font-family="Helvetica,sans-Serif" font-size="9.00">string</text>
</g>
<!-- Node7&#45;&gt;Node8 -->
<g id="edge8" class="edge"><title>Node7&#45;&gt;Node8</title>
<path fill="none" stroke="midnightblue" d="M379.244,-111.263C339.089,-103.925 285.411,-91.2017 272.5,-74 252.639,-47.5401 300.377,-28.0043 333.956,-18.0103"/>
<polygon fill="midnightblue" stroke="midnightblue" points="335.162,-21.3068 343.832,-15.218 333.257,-14.5708 335.162,-21.3068"/>
</g>
<!-- Node9 -->
<g id="node9" class="node"><title>Node9</title>
<polygon fill="white" stroke="#bfbfbf" points="282,-55.5 282,-73.5 323,-73.5 323,-55.5 282,-55.5"/>
<text text-anchor="middle" x="302.5" y="-62.3" font-family="Helvetica,sans-Serif" font-size="9.00">vector</text>
</g>
<!-- Node7&#45;&gt;Node9 -->
<g id="edge10" class="edge"><title>Node7&#45;&gt;Node9</title>
<path fill="none" stroke="midnightblue" d="M406.819,-110.45C386.59,-101.734 354.092,-87.7306 330.742,-77.6691"/>
<polygon fill="midnightblue" stroke="midnightblue" points="331.926,-74.3683 321.357,-73.6253 329.156,-80.7969 331.926,-74.3683"/>
</g>
<!-- Node10 -->
<g id="node10" class="node"><title>Node10</title>
<polygon fill="white" stroke="#bfbfbf" points="341.5,-55.5 341.5,-73.5 397.5,-73.5 397.5,-55.5 341.5,-55.5"/>
<text text-anchor="middle" x="369.5" y="-62.3" font-family="Helvetica,sans-Serif" font-size="9.00">typeindex</text>
</g>
<!-- Node7&#45;&gt;Node10 -->
<g id="edge11" class="edge"><title>Node7&#45;&gt;Node10</title>
<path fill="none" stroke="midnightblue" d="M416.75,-110.219C408.4,-102.316 395.624,-90.2241 385.461,-80.6057"/>
<polygon fill="midnightblue" stroke="midnightblue" points="387.674,-77.8814 378.005,-73.5496 382.862,-82.9655 387.674,-77.8814"/>
</g>
<!-- Node11 -->
<g id="node11" class="node"><title>Node11</title>
<polygon fill="white" stroke="#bfbfbf" points="416,-55.5 416,-73.5 471,-73.5 471,-55.5 416,-55.5"/>
<text text-anchor="middle" x="443.5" y="-62.3" font-family="Helvetica,sans-Serif" font-size="9.00">armadillo</text>
</g>
<!-- Node7&#45;&gt;Node11 -->
<g id="edge12" class="edge"><title>Node7&#45;&gt;Node11</title>
<path fill="none" stroke="midnightblue" d="M428.312,-110.219C430.757,-103.02 434.383,-92.3458 437.478,-83.2311"/>
<polygon fill="midnightblue" stroke="midnightblue" points="440.864,-84.1439 440.766,-73.5496 434.236,-81.8928 440.864,-84.1439"/>
</g>
<!-- Node12 -->
<g id="node12" class="node"><title>Node12</title>
<g id="a_node12"><a xlink:href="PriorHessianError_8h.html" target="_top" xlink:title="The Exception classes for the PriorHessian library. ">
<polygon fill="white" stroke="black" points="489.5,-55.5 489.5,-73.5 587.5,-73.5 587.5,-55.5 489.5,-55.5"/>
<text text-anchor="middle" x="538.5" y="-62.3" font-family="Helvetica,sans-Serif" font-size="9.00">PriorHessianError.h</text>
</a>
</g>
</g>
<!-- Node7&#45;&gt;Node12 -->
<g id="edge13" class="edge"><title>Node7&#45;&gt;Node12</title>
<path fill="none" stroke="midnightblue" d="M442.662,-110.45C461.08,-101.812 490.57,-87.9803 511.978,-77.9396"/>
<polygon fill="midnightblue" stroke="midnightblue" points="513.609,-81.0405 521.176,-73.6253 510.636,-74.703 513.609,-81.0405"/>
</g>
<!-- Node12&#45;&gt;Node8 -->
<g id="edge15" class="edge"><title>Node12&#45;&gt;Node8</title>
<path fill="none" stroke="midnightblue" d="M511.921,-55.4504C479.86,-45.7404 426.135,-29.4693 392.872,-19.3956"/>
<polygon fill="midnightblue" stroke="midnightblue" points="393.838,-16.0312 383.253,-16.4824 391.809,-22.7307 393.838,-16.0312"/>
</g>
<!-- Node13 -->
<g id="node13" class="node"><title>Node13</title>
<polygon fill="white" stroke="#bfbfbf" points="510.5,-0.5 510.5,-18.5 566.5,-18.5 566.5,-0.5 510.5,-0.5"/>
<text text-anchor="middle" x="538.5" y="-7.3" font-family="Helvetica,sans-Serif" font-size="9.00">exception</text>
</g>
<!-- Node12&#45;&gt;Node13 -->
<g id="edge14" class="edge"><title>Node12&#45;&gt;Node13</title>
<path fill="none" stroke="midnightblue" d="M538.5,-55.2188C538.5,-48.1769 538.5,-37.8083 538.5,-28.8277"/>
<polygon fill="midnightblue" stroke="midnightblue" points="542,-28.5495 538.5,-18.5496 535,-28.5496 542,-28.5495"/>
</g>
<!-- Node15 -->
<g id="node15" class="node"><title>Node15</title>
<polygon fill="white" stroke="#bfbfbf" points="755.5,-55.5 755.5,-73.5 811.5,-73.5 811.5,-55.5 755.5,-55.5"/>
<text text-anchor="middle" x="783.5" y="-62.3" font-family="Helvetica,sans-Serif" font-size="9.00">functional</text>
</g>
<!-- Node14&#45;&gt;Node15 -->
<g id="edge17" class="edge"><title>Node14&#45;&gt;Node15</title>
<path fill="none" stroke="midnightblue" d="M652.041,-110.45C678.291,-101.475 720.938,-86.8922 750.508,-76.7813"/>
<polygon fill="midnightblue" stroke="midnightblue" points="751.662,-80.0856 759.992,-73.5383 749.397,-73.4621 751.662,-80.0856"/>
</g>
<!-- Node16 -->
<g id="node16" class="node"><title>Node16</title>
<polygon fill="white" stroke="#bfbfbf" points="605.5,-55.5 605.5,-73.5 675.5,-73.5 675.5,-55.5 605.5,-55.5"/>
<text text-anchor="middle" x="640.5" y="-62.3" font-family="Helvetica,sans-Serif" font-size="9.00">initializer_list</text>
</g>
<!-- Node14&#45;&gt;Node16 -->
<g id="edge18" class="edge"><title>Node14&#45;&gt;Node16</title>
<path fill="none" stroke="midnightblue" d="M630.375,-110.219C631.987,-103.099 634.369,-92.5775 636.418,-83.5289"/>
<polygon fill="midnightblue" stroke="midnightblue" points="639.883,-84.0756 638.677,-73.5496 633.056,-82.5298 639.883,-84.0756"/>
</g>
<!-- Node17 -->
<g id="node17" class="node"><title>Node17</title>
<polygon fill="white" stroke="#bfbfbf" points="694,-55.5 694,-73.5 737,-73.5 737,-55.5 694,-55.5"/>
<text text-anchor="middle" x="715.5" y="-62.3" font-family="Helvetica,sans-Serif" font-size="9.00">cstdint</text>
</g>
<!-- Node14&#45;&gt;Node17 -->
<g id="edge19" class="edge"><title>Node14&#45;&gt;Node17</title>
<path fill="none" stroke="midnightblue" d="M641.713,-110.45C655.383,-102.123 676.973,-88.9704 693.275,-79.0394"/>
<polygon fill="midnightblue" stroke="midnightblue" points="695.443,-81.817 702.162,-73.6253 691.801,-75.8389 695.443,-81.817"/>
</g>
<!-- Node19&#45;&gt;Node3 -->
<g id="edge22" class="edge"><title>Node19&#45;&gt;Node3</title>
<path fill="none" stroke="midnightblue" d="M476.371,-242.271C423.838,-238.719 348.279,-227.509 291.5,-194 248.296,-168.502 221.913,-112.11 210.739,-83.2579"/>
<polygon fill="midnightblue" stroke="midnightblue" points="213.946,-81.8384 207.198,-73.6705 207.38,-84.2638 213.946,-81.8384"/>
</g>
<!-- Node19&#45;&gt;Node12 -->
<g id="edge24" class="edge"><title>Node19&#45;&gt;Node12</title>
<path fill="none" stroke="midnightblue" d="M538.5,-235.389C538.5,-208.516 538.5,-121.94 538.5,-83.8152"/>
<polygon fill="midnightblue" stroke="midnightblue" points="542,-83.6584 538.5,-73.6585 535,-83.6585 542,-83.6584"/>
</g>
<!-- Node19&#45;&gt;Node14 -->
<g id="edge23" class="edge"><title>Node19&#45;&gt;Node14</title>
<path fill="none" stroke="midnightblue" d="M544.405,-235.43C558.958,-215.541 596.779,-163.851 616.359,-137.093"/>
<polygon fill="midnightblue" stroke="midnightblue" points="619.375,-138.898 622.455,-128.761 613.725,-134.765 619.375,-138.898"/>
</g>
<!-- Node20 -->
<g id="node20" class="node"><title>Node20</title>
<g id="a_node20"><a xlink:href="BoundsAdaptedDist_8h.html" target="_top" xlink:title="Functions and type&#45;traits to enable easy wrapping of distributions in bounds&#45;modifiable adapters...">
<polygon fill="white" stroke="black" points="646.5,-165.5 646.5,-193.5 784.5,-193.5 784.5,-165.5 646.5,-165.5"/>
<text text-anchor="start" x="654.5" y="-182.3" font-family="Helvetica,sans-Serif" font-size="9.00">PriorHessian/BoundsAdapted</text>
<text text-anchor="middle" x="715.5" y="-172.3" font-family="Helvetica,sans-Serif" font-size="9.00">Dist.h</text>
</a>
</g>
</g>
<!-- Node19&#45;&gt;Node20 -->
<g id="edge25" class="edge"><title>Node19&#45;&gt;Node20</title>
<path fill="none" stroke="midnightblue" d="M561.277,-235.393C588.502,-225.703 634.738,-209.246 669.5,-196.873"/>
<polygon fill="midnightblue" stroke="midnightblue" points="670.728,-200.151 678.976,-193.5 668.381,-193.556 670.728,-200.151"/>
</g>
<!-- Node20&#45;&gt;Node14 -->
<g id="edge29" class="edge"><title>Node20&#45;&gt;Node14</title>
<path fill="none" stroke="midnightblue" d="M695.758,-165.339C681.94,-156.127 663.508,-143.839 649.434,-134.456"/>
<polygon fill="midnightblue" stroke="midnightblue" points="651.169,-131.406 640.907,-128.771 647.286,-137.231 651.169,-131.406"/>
</g>
<!-- Node21 -->
<g id="node21" class="node"><title>Node21</title>
<polygon fill="white" stroke="#bfbfbf" points="829.5,-110.5 829.5,-128.5 867.5,-128.5 867.5,-110.5 829.5,-110.5"/>
<text text-anchor="middle" x="848.5" y="-117.3" font-family="Helvetica,sans-Serif" font-size="9.00">utility</text>
</g>
<!-- Node20&#45;&gt;Node21 -->
<g id="edge26" class="edge"><title>Node20&#45;&gt;Node21</title>
<path fill="none" stroke="midnightblue" d="M745.348,-165.484C767.796,-155.694 798.349,-142.371 820.369,-132.768"/>
<polygon fill="midnightblue" stroke="midnightblue" points="822.059,-135.849 829.826,-128.643 819.261,-129.433 822.059,-135.849"/>
</g>
<!-- Node22 -->
<g id="node22" class="node"><title>Node22</title>
<polygon fill="white" stroke="#bfbfbf" points="697,-110.5 697,-128.5 734,-128.5 734,-110.5 697,-110.5"/>
<text text-anchor="middle" x="715.5" y="-117.3" font-family="Helvetica,sans-Serif" font-size="9.00">tuple</text>
</g>
<!-- Node20&#45;&gt;Node22 -->
<g id="edge27" class="edge"><title>Node20&#45;&gt;Node22</title>
<path fill="none" stroke="midnightblue" d="M715.5,-165.339C715.5,-157.531 715.5,-147.512 715.5,-138.927"/>
<polygon fill="midnightblue" stroke="midnightblue" points="719,-138.771 715.5,-128.771 712,-138.772 719,-138.771"/>
</g>
<!-- Node23 -->
<g id="node23" class="node"><title>Node23</title>
<polygon fill="white" stroke="#bfbfbf" points="752,-110.5 752,-128.5 811,-128.5 811,-110.5 752,-110.5"/>
<text text-anchor="middle" x="781.5" y="-117.3" font-family="Helvetica,sans-Serif" font-size="9.00">type_traits</text>
</g>
<!-- Node20&#45;&gt;Node23 -->
<g id="edge28" class="edge"><title>Node20&#45;&gt;Node23</title>
<path fill="none" stroke="midnightblue" d="M730.476,-165.339C740.56,-156.478 753.882,-144.77 764.385,-135.541"/>
<polygon fill="midnightblue" stroke="midnightblue" points="766.886,-138.002 772.088,-128.771 762.266,-132.744 766.886,-138.002"/>
</g>
</g>
</svg>
        <g id="navigator" transform="translate(0 0)" fill="#404254">
                <rect fill="#f2f5e9" fill-opacity="0.5" stroke="#606060" stroke-width=".5" x="0" y="0" width="60" height="60"/>
                <use id="zoomplus" xlink:href="#zoomPlus" x="17" y="9" onmousedown="handleZoom(evt,'in')"/>
                <use id="zoomminus" xlink:href="#zoomMin" x="42" y="9" onmousedown="handleZoom(evt,'out')"/>
                <use id="reset" xlink:href="#resetDef" x="30" y="36" onmousedown="handleReset()"/>
                <g id="arrowUp" xlink:href="#dirArrow" transform="translate(30 24)" onmousedown="handlePan(0,-1)">
                  <use xlink:href="#rim" fill="#404040">
                        <set attributeName="fill" to="#808080" begin="arrowUp.mouseover" end="arrowUp.mouseout"/>
                  </use>
                  <path fill="none" stroke="white" stroke-width="1.5" d="M0,-3.0v7 M-2.5,-0.5L0,-3.0L2.5,-0.5"/>
                </g>
                <g id="arrowRight" xlink:href="#dirArrow" transform="rotate(90) translate(36 -43)" onmousedown="handlePan(1,0)">
                  <use xlink:href="#rim" fill="#404040">
                        <set attributeName="fill" to="#808080" begin="arrowRight.mouseover" end="arrowRight.mouseout"/>
                  </use>
                  <path fill="none" stroke="white" stroke-width="1.5" d="M0,-3.0v7 M-2.5,-0.5L0,-3.0L2.5,-0.5"/>
                </g>
                <g id="arrowDown" xlink:href="#dirArrow" transform="rotate(180) translate(-30 -48)" onmousedown="handlePan(0,1)">
                  <use xlink:href="#rim" fill="#404040">
                        <set attributeName="fill" to="#808080" begin="arrowDown.mouseover" end="arrowDown.mouseout"/>
                  </use>
                  <path fill="none" stroke="white" stroke-width="1.5" d="M0,-3.0v7 M-2.5,-0.5L0,-3.0L2.5,-0.5"/>
                </g>
                <g id="arrowLeft" xlink:href="#dirArrow" transform="rotate(270) translate(-36 17)" onmousedown="handlePan(-1,0)">
                  <use xlink:href="#rim" fill="#404040">
                        <set attributeName="fill" to="#808080" begin="arrowLeft.mouseover" end="arrowLeft.mouseout"/>
                  </use>
                  <path fill="none" stroke="white" stroke-width="1.5" d="M0,-3.0v7 M-2.5,-0.5L0,-3.0L2.5,-0.5"/>
                </g>
        </g>
        <svg viewBox="0 0 15 15" width="100%" height="30px" preserveAspectRatio="xMaxYMin meet">
         <g id="arrow_out" transform="scale(0.3 0.3)">
          <a xlink:href="ScaledSymmetricBetaDist_8h__incl_org.svg" target="_base">
           <rect id="button" ry="5" rx="5" y="6" x="6" height="38" width="38"
                fill="#f2f5e9" fill-opacity="0.5" stroke="#606060" stroke-width="1.0"/>
           <path id="arrow"
             d="M 11.500037,31.436501 C 11.940474,20.09759 22.043105,11.32322 32.158766,21.979434 L 37.068811,17.246167 C 37.068811,17.246167 37.088388,32 37.088388,32 L 22.160133,31.978069 C 22.160133,31.978069 26.997745,27.140456 26.997745,27.140456 C 18.528582,18.264221 13.291696,25.230495 11.500037,31.436501 z"
             style="fill:#404040;"/>
          </a>
         </g>
        </svg>
</svg>
