<?xml version="1.0" encoding="UTF-8" standalone="no"?>
<!DOCTYPE svg PUBLIC "-//W3C//DTD SVG 1.1//EN"
 "http://www.w3.org/Graphics/SVG/1.1/DTD/svg11.dtd">
<!-- Generated by graphviz version 2.38.0 (20140413.2041)
 -->
<!-- Title: ScaledDist.h Pages: 1 -->
<svg width="459pt" height="202pt"
 viewBox="0.00 0.00 459.00 202.00" xmlns="http://www.w3.org/2000/svg" xmlns:xlink="http://www.w3.org/1999/xlink">
<g id="graph0" class="graph" transform="scale(1 1) rotate(0) translate(4 198)">
<title>ScaledDist.h</title>
<polygon fill="white" stroke="none" points="-4,4 -4,-198 455,-198 455,4 -4,4"/>
<!-- Node1 -->
<g id="node1" class="node"><title>Node1</title>
<polygon fill="#bfbfbf" stroke="black" points="132.5,-175.5 132.5,-193.5 200.5,-193.5 200.5,-175.5 132.5,-175.5"/>
<text text-anchor="middle" x="166.5" y="-182.3" font-family="Helvetica,sans-Serif" font-size="9.00">ScaledDist.h</text>
</g>
<!-- Node2 -->
<g id="node2" class="node"><title>Node2</title>
<polygon fill="white" stroke="#bfbfbf" points="0,-115.5 0,-133.5 41,-133.5 41,-115.5 0,-115.5"/>
<text text-anchor="middle" x="20.5" y="-122.3" font-family="Helvetica,sans-Serif" font-size="9.00">cmath</text>
</g>
<!-- Node1&#45;&gt;Node2 -->
<g id="edge1" class="edge"><title>Node1&#45;&gt;Node2</title>
<path fill="none" stroke="midnightblue" d="M143.879,-175.446C120.171,-166.878 81.9328,-152.696 49.5,-139 48.5024,-138.579 47.4885,-138.143 46.4665,-137.698"/>
<polygon fill="midnightblue" stroke="midnightblue" points="47.8315,-134.474 37.2762,-133.56 44.9572,-140.857 47.8315,-134.474"/>
</g>
<!-- Node3 -->
<g id="node3" class="node"><title>Node3</title>
<g id="a_node3"><a xlink:href="Meta_8h.html" target="_top" xlink:title="Enables the use of variadic templates in interesting ways. ">
<polygon fill="white" stroke="black" points="162.5,-55.5 162.5,-73.5 262.5,-73.5 262.5,-55.5 162.5,-55.5"/>
<text text-anchor="middle" x="212.5" y="-62.3" font-family="Helvetica,sans-Serif" font-size="9.00">PriorHessian/Meta.h</text>
</a>
</g>
</g>
<!-- Node1&#45;&gt;Node3 -->
<g id="edge2" class="edge"><title>Node1&#45;&gt;Node3</title>
<path fill="none" stroke="midnightblue" d="M172.446,-175.363C178.51,-166.726 187.811,-152.488 193.5,-139 201.092,-121.001 206.262,-99.2054 209.27,-84.0433"/>
<polygon fill="midnightblue" stroke="midnightblue" points="212.766,-84.3858 211.152,-73.9146 205.884,-83.1066 212.766,-84.3858"/>
</g>
<!-- Node7 -->
<g id="node7" class="node"><title>Node7</title>
<g id="a_node7"><a xlink:href="PriorHessianError_8h.html" target="_top" xlink:title="The Exception classes for the PriorHessian library. ">
<polygon fill="white" stroke="black" points="59,-110.5 59,-138.5 184,-138.5 184,-110.5 59,-110.5"/>
<text text-anchor="start" x="67" y="-127.3" font-family="Helvetica,sans-Serif" font-size="9.00">PriorHessian/PriorHessian</text>
<text text-anchor="middle" x="121.5" y="-117.3" font-family="Helvetica,sans-Serif" font-size="9.00">Error.h</text>
</a>
</g>
</g>
<!-- Node1&#45;&gt;Node7 -->
<g id="edge6" class="edge"><title>Node1&#45;&gt;Node7</title>
<path fill="none" stroke="midnightblue" d="M160.243,-175.435C154.507,-168.043 145.756,-156.764 138.022,-146.795"/>
<polygon fill="midnightblue" stroke="midnightblue" points="140.747,-144.598 131.852,-138.843 135.217,-148.889 140.747,-144.598"/>
</g>
<!-- Node10 -->
<g id="node10" class="node"><title>Node10</title>
<g id="a_node10"><a xlink:href="BoundsAdaptedDist_8h.html" target="_top" xlink:title="Functions and type&#45;traits to enable easy wrapping of distributions in bounds&#45;modifiable adapters...">
<polygon fill="white" stroke="black" points="240.5,-110.5 240.5,-138.5 378.5,-138.5 378.5,-110.5 240.5,-110.5"/>
<text text-anchor="start" x="248.5" y="-127.3" font-family="Helvetica,sans-Serif" font-size="9.00">PriorHessian/BoundsAdapted</text>
<text text-anchor="middle" x="309.5" y="-117.3" font-family="Helvetica,sans-Serif" font-size="9.00">Dist.h</text>
</a>
</g>
</g>
<!-- Node1&#45;&gt;Node10 -->
<g id="edge9" class="edge"><title>Node1&#45;&gt;Node10</title>
<path fill="none" stroke="midnightblue" d="M186.384,-175.435C207.367,-166.925 241.05,-153.263 267.884,-142.379"/>
<polygon fill="midnightblue" stroke="midnightblue" points="269.473,-145.512 277.425,-138.51 266.842,-139.025 269.473,-145.512"/>
</g>
<!-- Node4 -->
<g id="node4" class="node"><title>Node4</title>
<polygon fill="white" stroke="#bfbfbf" points="103.5,-0.5 103.5,-18.5 159.5,-18.5 159.5,-0.5 103.5,-0.5"/>
<text text-anchor="middle" x="131.5" y="-7.3" font-family="Helvetica,sans-Serif" font-size="9.00">functional</text>
</g>
<!-- Node3&#45;&gt;Node4 -->
<g id="edge3" class="edge"><title>Node3&#45;&gt;Node4</title>
<path fill="none" stroke="midnightblue" d="M200.198,-55.4504C187.59,-47.201 167.745,-34.2158 152.619,-24.3187"/>
<polygon fill="midnightblue" stroke="midnightblue" points="154.202,-21.1719 143.918,-18.6253 150.369,-27.0294 154.202,-21.1719"/>
</g>
<!-- Node5 -->
<g id="node5" class="node"><title>Node5</title>
<polygon fill="white" stroke="#bfbfbf" points="177.5,-0.5 177.5,-18.5 247.5,-18.5 247.5,-0.5 177.5,-0.5"/>
<text text-anchor="middle" x="212.5" y="-7.3" font-family="Helvetica,sans-Serif" font-size="9.00">initializer_list</text>
</g>
<!-- Node3&#45;&gt;Node5 -->
<g id="edge4" class="edge"><title>Node3&#45;&gt;Node5</title>
<path fill="none" stroke="midnightblue" d="M212.5,-55.2188C212.5,-48.1769 212.5,-37.8083 212.5,-28.8277"/>
<polygon fill="midnightblue" stroke="midnightblue" points="216,-28.5495 212.5,-18.5496 209,-28.5496 216,-28.5495"/>
</g>
<!-- Node6 -->
<g id="node6" class="node"><title>Node6</title>
<polygon fill="white" stroke="#bfbfbf" points="266,-0.5 266,-18.5 309,-18.5 309,-0.5 266,-0.5"/>
<text text-anchor="middle" x="287.5" y="-7.3" font-family="Helvetica,sans-Serif" font-size="9.00">cstdint</text>
</g>
<!-- Node3&#45;&gt;Node6 -->
<g id="edge5" class="edge"><title>Node3&#45;&gt;Node6</title>
<path fill="none" stroke="midnightblue" d="M223.891,-55.4504C235.455,-47.2788 253.594,-34.4604 267.548,-24.5996"/>
<polygon fill="midnightblue" stroke="midnightblue" points="269.855,-27.2548 276.002,-18.6253 265.815,-21.5381 269.855,-27.2548"/>
</g>
<!-- Node8 -->
<g id="node8" class="node"><title>Node8</title>
<polygon fill="white" stroke="#bfbfbf" points="29.5,-55.5 29.5,-73.5 85.5,-73.5 85.5,-55.5 29.5,-55.5"/>
<text text-anchor="middle" x="57.5" y="-62.3" font-family="Helvetica,sans-Serif" font-size="9.00">exception</text>
</g>
<!-- Node7&#45;&gt;Node8 -->
<g id="edge7" class="edge"><title>Node7&#45;&gt;Node8</title>
<path fill="none" stroke="midnightblue" d="M106.977,-110.339C97.1995,-101.478 84.2812,-89.7705 74.0966,-80.5407"/>
<polygon fill="midnightblue" stroke="midnightblue" points="76.3874,-77.8932 66.6271,-73.7715 71.6867,-83.0802 76.3874,-77.8932"/>
</g>
<!-- Node9 -->
<g id="node9" class="node"><title>Node9</title>
<polygon fill="white" stroke="#bfbfbf" points="104,-55.5 104,-73.5 143,-73.5 143,-55.5 104,-55.5"/>
<text text-anchor="middle" x="123.5" y="-62.3" font-family="Helvetica,sans-Serif" font-size="9.00">string</text>
</g>
<!-- Node7&#45;&gt;Node9 -->
<g id="edge8" class="edge"><title>Node7&#45;&gt;Node9</title>
<path fill="none" stroke="midnightblue" d="M121.954,-110.339C122.223,-102.531 122.569,-92.5122 122.865,-83.9265"/>
<polygon fill="midnightblue" stroke="midnightblue" points="126.368,-83.8862 123.215,-73.7715 119.372,-83.6449 126.368,-83.8862"/>
</g>
<!-- Node10&#45;&gt;Node3 -->
<g id="edge13" class="edge"><title>Node10&#45;&gt;Node3</title>
<path fill="none" stroke="midnightblue" d="M287.489,-110.339C271.696,-100.895 250.497,-88.2196 234.667,-78.7548"/>
<polygon fill="midnightblue" stroke="midnightblue" points="236.429,-75.7299 226.05,-73.6018 232.836,-81.7378 236.429,-75.7299"/>
</g>
<!-- Node11 -->
<g id="node11" class="node"><title>Node11</title>
<polygon fill="white" stroke="#bfbfbf" points="280.5,-55.5 280.5,-73.5 318.5,-73.5 318.5,-55.5 280.5,-55.5"/>
<text text-anchor="middle" x="299.5" y="-62.3" font-family="Helvetica,sans-Serif" font-size="9.00">utility</text>
</g>
<!-- Node10&#45;&gt;Node11 -->
<g id="edge10" class="edge"><title>Node10&#45;&gt;Node11</title>
<path fill="none" stroke="midnightblue" d="M307.231,-110.339C305.869,-102.443 304.118,-92.2868 302.627,-83.6376"/>
<polygon fill="midnightblue" stroke="midnightblue" points="306.074,-83.0314 300.926,-73.7715 299.176,-84.2208 306.074,-83.0314"/>
</g>
<!-- Node12 -->
<g id="node12" class="node"><title>Node12</title>
<polygon fill="white" stroke="#bfbfbf" points="337,-55.5 337,-73.5 374,-73.5 374,-55.5 337,-55.5"/>
<text text-anchor="middle" x="355.5" y="-62.3" font-family="Helvetica,sans-Serif" font-size="9.00">tuple</text>
</g>
<!-- Node10&#45;&gt;Node12 -->
<g id="edge11" class="edge"><title>Node10&#45;&gt;Node12</title>
<path fill="none" stroke="midnightblue" d="M319.938,-110.339C326.688,-101.829 335.519,-90.6933 342.692,-81.6486"/>
<polygon fill="midnightblue" stroke="midnightblue" points="345.468,-83.7814 348.94,-73.7715 339.984,-79.4316 345.468,-83.7814"/>
</g>
<!-- Node13 -->
<g id="node13" class="node"><title>Node13</title>
<polygon fill="white" stroke="#bfbfbf" points="392,-55.5 392,-73.5 451,-73.5 451,-55.5 392,-55.5"/>
<text text-anchor="middle" x="421.5" y="-62.3" font-family="Helvetica,sans-Serif" font-size="9.00">type_traits</text>
</g>
<!-- Node10&#45;&gt;Node13 -->
<g id="edge12" class="edge"><title>Node10&#45;&gt;Node13</title>
<path fill="none" stroke="midnightblue" d="M334.635,-110.484C353.198,-100.87 378.342,-87.8495 396.801,-78.2903"/>
<polygon fill="midnightblue" stroke="midnightblue" points="398.504,-81.35 405.775,-73.6434 395.285,-75.134 398.504,-81.35"/>
</g>
</g>
</svg>
