<?xml version="1.0" encoding="UTF-8" standalone="no"?>
<!DOCTYPE svg PUBLIC "-//W3C//DTD SVG 1.1//EN"
 "http://www.w3.org/Graphics/SVG/1.1/DTD/svg11.dtd">
<!-- Generated by graphviz version 2.38.0 (20140413.2041)
 -->
<!-- Title: prior_hessian::ArchimedeanCopula::D2_GenTerms Pages: 1 -->
<svg width="140pt" height="102pt"
 viewBox="0.00 0.00 140.00 102.00" xmlns="http://www.w3.org/2000/svg" xmlns:xlink="http://www.w3.org/1999/xlink">
<g id="graph0" class="graph" transform="scale(1 1) rotate(0) translate(4 98)">
<title>prior_hessian::ArchimedeanCopula::D2_GenTerms</title>
<polygon fill="white" stroke="none" points="-4,4 -4,-98 136,-98 136,4 -4,4"/>
<!-- Node1 -->
<g id="node1" class="node"><title>Node1</title>
<polygon fill="#bfbfbf" stroke="black" points="0,-0.5 0,-28.5 132,-28.5 132,-0.5 0,-0.5"/>
<text text-anchor="start" x="8" y="-17.3" font-family="Helvetica,sans-Serif" font-size="9.00">prior_hessian::Archimedean</text>
<text text-anchor="middle" x="66" y="-7.3" font-family="Helvetica,sans-Serif" font-size="9.00">Copula::D2_GenTerms</text>
</g>
<!-- Node2 -->
<g id="node2" class="node"><title>Node2</title>
<g id="a_node2"><a xlink:href="structprior__hessian_1_1ArchimedeanCopula_1_1D__GenTerms.html" target="_top" xlink:title="prior_hessian::Archimedean\lCopula::D_GenTerms">
<polygon fill="white" stroke="black" points="0,-65.5 0,-93.5 132,-93.5 132,-65.5 0,-65.5"/>
<text text-anchor="start" x="8" y="-82.3" font-family="Helvetica,sans-Serif" font-size="9.00">prior_hessian::Archimedean</text>
<text text-anchor="middle" x="66" y="-72.3" font-family="Helvetica,sans-Serif" font-size="9.00">Copula::D_GenTerms</text>
</a>
</g>
</g>
<!-- Node2&#45;&gt;Node1 -->
<g id="edge1" class="edge"><title>Node2&#45;&gt;Node1</title>
<path fill="none" stroke="midnightblue" d="M66,-55.1641C66,-46.1693 66,-36.2205 66,-28.5369"/>
<polygon fill="midnightblue" stroke="midnightblue" points="62.5001,-55.4463 66,-65.4464 69.5001,-55.4464 62.5001,-55.4463"/>
</g>
</g>
</svg>
