<?xml version="1.0" encoding="UTF-8" standalone="no"?>
<!DOCTYPE svg PUBLIC "-//W3C//DTD SVG 1.1//EN"
 "http://www.w3.org/Graphics/SVG/1.1/DTD/svg11.dtd">
<!-- Generated by graphviz version 2.38.0 (20140413.2041)
 -->
<!-- Title: prior_hessian::meta::conjunction&lt; B1, Bn... &gt; Pages: 1 -->
<svg width="146pt" height="112pt"
 viewBox="0.00 0.00 146.00 112.00" xmlns="http://www.w3.org/2000/svg" xmlns:xlink="http://www.w3.org/1999/xlink">
<g id="graph0" class="graph" transform="scale(1 1) rotate(0) translate(4 108)">
<title>prior_hessian::meta::conjunction&lt; B1, Bn... &gt;</title>
<polygon fill="white" stroke="none" points="-4,4 -4,-108 142,-108 142,4 -4,4"/>
<!-- Node1 -->
<g id="node1" class="node"><title>Node1</title>
<polygon fill="#bfbfbf" stroke="black" points="10.5,-0.5 10.5,-28.5 127.5,-28.5 127.5,-0.5 10.5,-0.5"/>
<text text-anchor="start" x="18.5" y="-17.3" font-family="Helvetica,sans-Serif" font-size="9.00">prior_hessian::meta</text>
<text text-anchor="middle" x="69" y="-7.3" font-family="Helvetica,sans-Serif" font-size="9.00">::conjunction&lt; B1, Bn... &gt;</text>
</g>
<!-- Node2 -->
<g id="node2" class="node"><title>Node2</title>
<polygon fill="white" stroke="#bfbfbf" points="0,-65.5 0,-103.5 138,-103.5 138,-65.5 0,-65.5"/>
<text text-anchor="start" x="8" y="-92.3" font-family="Helvetica,sans-Serif" font-size="9.00">std::conditional_t</text>
<text text-anchor="start" x="8" y="-82.3" font-family="Helvetica,sans-Serif" font-size="9.00">&lt; bool(B1::value), conjunction</text>
<text text-anchor="middle" x="69" y="-72.3" font-family="Helvetica,sans-Serif" font-size="9.00">&lt; Bn... &gt;, B1 &gt;</text>
</g>
<!-- Node2&#45;&gt;Node1 -->
<g id="edge1" class="edge"><title>Node2&#45;&gt;Node1</title>
<path fill="none" stroke="midnightblue" d="M69,-55.0135C69,-45.9213 69,-36.2886 69,-28.8104"/>
<polygon fill="midnightblue" stroke="midnightblue" points="65.5001,-55.2772 69,-65.2772 72.5001,-55.2773 65.5001,-55.2772"/>
</g>
</g>
</svg>
