<?xml version="1.0" encoding="UTF-8" standalone="no"?>
<!DOCTYPE svg PUBLIC "-//W3C//DTD SVG 1.1//EN"
 "http://www.w3.org/Graphics/SVG/1.1/DTD/svg11.dtd">
<!-- Generated by graphviz version 2.38.0 (20140413.2041)
 -->
<!-- Title: prior_hessian::RuntimeConvergenceError Pages: 1 -->
<svg width="175pt" height="157pt"
 viewBox="0.00 0.00 175.00 157.00" xmlns="http://www.w3.org/2000/svg" xmlns:xlink="http://www.w3.org/1999/xlink">
<g id="graph0" class="graph" transform="scale(1 1) rotate(0) translate(4 153)">
<title>prior_hessian::RuntimeConvergenceError</title>
<polygon fill="white" stroke="none" points="-4,4 -4,-153 171,-153 171,4 -4,4"/>
<!-- Node1 -->
<g id="node1" class="node"><title>Node1</title>
<polygon fill="#bfbfbf" stroke="black" points="-1.42109e-14,-0.5 -1.42109e-14,-28.5 167,-28.5 167,-0.5 -1.42109e-14,-0.5"/>
<text text-anchor="start" x="8" y="-17.3" font-family="Helvetica,sans-Serif" font-size="9.00">prior_hessian::RuntimeConvergence</text>
<text text-anchor="middle" x="83.5" y="-7.3" font-family="Helvetica,sans-Serif" font-size="9.00">Error</text>
</g>
<!-- Node2 -->
<g id="node2" class="node"><title>Node2</title>
<g id="a_node2"><a xlink:href="classprior__hessian_1_1PriorHessianError.html" target="_top" xlink:title="prior_hessian::PriorHessian\lError">
<polygon fill="white" stroke="black" points="18,-65.5 18,-93.5 149,-93.5 149,-65.5 18,-65.5"/>
<text text-anchor="start" x="26" y="-82.3" font-family="Helvetica,sans-Serif" font-size="9.00">prior_hessian::PriorHessian</text>
<text text-anchor="middle" x="83.5" y="-72.3" font-family="Helvetica,sans-Serif" font-size="9.00">Error</text>
</a>
</g>
</g>
<!-- Node2&#45;&gt;Node1 -->
<g id="edge1" class="edge"><title>Node2&#45;&gt;Node1</title>
<path fill="none" stroke="midnightblue" d="M83.5,-55.1641C83.5,-46.1693 83.5,-36.2205 83.5,-28.5369"/>
<polygon fill="midnightblue" stroke="midnightblue" points="80.0001,-55.4463 83.5,-65.4464 87.0001,-55.4464 80.0001,-55.4463"/>
</g>
<!-- Node3 -->
<g id="node3" class="node"><title>Node3</title>
<g id="a_node3"><a xlink:title="STL class. ">
<polygon fill="white" stroke="#bfbfbf" points="47,-130.5 47,-148.5 120,-148.5 120,-130.5 47,-130.5"/>
<text text-anchor="middle" x="83.5" y="-137.3" font-family="Helvetica,sans-Serif" font-size="9.00">std::exception</text>
</a>
</g>
</g>
<!-- Node3&#45;&gt;Node2 -->
<g id="edge2" class="edge"><title>Node3&#45;&gt;Node2</title>
<path fill="none" stroke="midnightblue" d="M83.5,-120.321C83.5,-111.747 83.5,-101.7 83.5,-93.8428"/>
<polygon fill="midnightblue" stroke="midnightblue" points="80.0001,-120.435 83.5,-130.435 87.0001,-120.435 80.0001,-120.435"/>
</g>
</g>
</svg>
