<?xml version="1.0" encoding="UTF-8" standalone="no"?>
<!DOCTYPE svg PUBLIC "-//W3C//DTD SVG 1.1//EN"
 "http://www.w3.org/Graphics/SVG/1.1/DTD/svg11.dtd">
<!-- Generated by graphviz version 2.38.0 (20140413.2041)
 -->
<!-- Title: prior_hessian::eulerian_number&lt; N, M &gt; Pages: 1 -->
<svg width="275pt" height="67pt"
 viewBox="0.00 0.00 275.00 67.00" xmlns="http://www.w3.org/2000/svg" xmlns:xlink="http://www.w3.org/1999/xlink">
<g id="graph0" class="graph" transform="scale(1 1) rotate(0) translate(4 63)">
<title>prior_hessian::eulerian_number&lt; N, M &gt;</title>
<polygon fill="white" stroke="none" points="-4,4 -4,-63 271,-63 271,4 -4,4"/>
<!-- Node1 -->
<g id="node1" class="node"><title>Node1</title>
<polygon fill="#bfbfbf" stroke="black" points="156,-15.5 156,-43.5 267,-43.5 267,-15.5 156,-15.5"/>
<text text-anchor="start" x="164" y="-32.3" font-family="Helvetica,sans-Serif" font-size="9.00">prior_hessian::eulerian</text>
<text text-anchor="middle" x="211.5" y="-22.3" font-family="Helvetica,sans-Serif" font-size="9.00">_number&lt; N, M &gt;</text>
</g>
<!-- Node2 -->
<g id="node2" class="node"><title>Node2</title>
<polygon fill="white" stroke="#bfbfbf" points="0,-0.5 0,-58.5 120,-58.5 120,-0.5 0,-0.5"/>
<text text-anchor="start" x="8" y="-47.3" font-family="Helvetica,sans-Serif" font-size="9.00">integral_constant&lt;</text>
<text text-anchor="start" x="8" y="-37.3" font-family="Helvetica,sans-Serif" font-size="9.00"> long,(N&#45;M)*eulerian</text>
<text text-anchor="start" x="8" y="-27.3" font-family="Helvetica,sans-Serif" font-size="9.00">_number&lt; N&#45;1, M&#45;1 &gt;{}</text>
<text text-anchor="start" x="8" y="-17.3" font-family="Helvetica,sans-Serif" font-size="9.00">+(M+1)*eulerian_number</text>
<text text-anchor="middle" x="60" y="-7.3" font-family="Helvetica,sans-Serif" font-size="9.00">&lt; N&#45;1, M &gt;{}&gt;</text>
</g>
<!-- Node2&#45;&gt;Node1 -->
<g id="edge1" class="edge"><title>Node2&#45;&gt;Node1</title>
<path fill="none" stroke="midnightblue" d="M130.104,-29.5C138.7,-29.5 147.396,-29.5 155.734,-29.5"/>
<polygon fill="midnightblue" stroke="midnightblue" points="130.086,-26.0001 120.086,-29.5 130.086,-33.0001 130.086,-26.0001"/>
</g>
</g>
</svg>
