<?xml version="1.0" encoding="UTF-8" standalone="no"?>
<!DOCTYPE svg PUBLIC "-//W3C//DTD SVG 1.1//EN"
 "http://www.w3.org/Graphics/SVG/1.1/DTD/svg11.dtd">
<!-- Generated by graphviz version 2.38.0 (20140413.2041)
 -->
<!-- Title: prior_hessian::ArchimedeanCopula::DTheta_GenTerms Pages: 1 -->
<svg width="142pt" height="102pt"
 viewBox="0.00 0.00 142.00 102.00" xmlns="http://www.w3.org/2000/svg" xmlns:xlink="http://www.w3.org/1999/xlink">
<g id="graph0" class="graph" transform="scale(1 1) rotate(0) translate(4 98)">
<title>prior_hessian::ArchimedeanCopula::DTheta_GenTerms</title>
<polygon fill="white" stroke="none" points="-4,4 -4,-98 138,-98 138,4 -4,4"/>
<!-- Node1 -->
<g id="node1" class="node"><title>Node1</title>
<polygon fill="#bfbfbf" stroke="black" points="1,-65.5 1,-93.5 133,-93.5 133,-65.5 1,-65.5"/>
<text text-anchor="start" x="9" y="-82.3" font-family="Helvetica,sans-Serif" font-size="9.00">prior_hessian::Archimedean</text>
<text text-anchor="middle" x="67" y="-72.3" font-family="Helvetica,sans-Serif" font-size="9.00">Copula::DTheta_GenTerms</text>
</g>
<!-- Node2 -->
<g id="node2" class="node"><title>Node2</title>
<g id="a_node2"><a xlink:href="structprior__hessian_1_1ArchimedeanCopula_1_1D2Theta__GenTerms.html" target="_top" xlink:title="prior_hessian::Archimedean\lCopula::D2Theta_GenTerms">
<polygon fill="white" stroke="black" points="0,-0.5 0,-28.5 134,-28.5 134,-0.5 0,-0.5"/>
<text text-anchor="start" x="8" y="-17.3" font-family="Helvetica,sans-Serif" font-size="9.00">prior_hessian::Archimedean</text>
<text text-anchor="middle" x="67" y="-7.3" font-family="Helvetica,sans-Serif" font-size="9.00">Copula::D2Theta_GenTerms</text>
</a>
</g>
</g>
<!-- Node1&#45;&gt;Node2 -->
<g id="edge1" class="edge"><title>Node1&#45;&gt;Node2</title>
<path fill="none" stroke="midnightblue" d="M67,-55.1641C67,-46.1693 67,-36.2205 67,-28.5369"/>
<polygon fill="midnightblue" stroke="midnightblue" points="63.5001,-55.4463 67,-65.4464 70.5001,-55.4464 63.5001,-55.4463"/>
</g>
</g>
</svg>
