<?xml version="1.0" encoding="UTF-8" standalone="no"?>
<!DOCTYPE svg PUBLIC "-//W3C//DTD SVG 1.1//EN"
 "http://www.w3.org/Graphics/SVG/1.1/DTD/svg11.dtd">
<!-- Generated by graphviz version 2.38.0 (20140413.2041)
 -->
<!-- Title: prior_hessian::IndexError Pages: 1 -->
<svg width="172pt" height="244pt"
 viewBox="0.00 0.00 171.50 244.00" xmlns="http://www.w3.org/2000/svg" xmlns:xlink="http://www.w3.org/1999/xlink">
<g id="graph0" class="graph" transform="scale(1 1) rotate(0) translate(4 240)">
<title>prior_hessian::IndexError</title>
<polygon fill="white" stroke="none" points="-4,4 -4,-240 167.5,-240 167.5,4 -4,4"/>
<!-- Node1 -->
<g id="node1" class="node"><title>Node1</title>
<polygon fill="#bfbfbf" stroke="black" points="5.5,-0.5 5.5,-18.5 125.5,-18.5 125.5,-0.5 5.5,-0.5"/>
<text text-anchor="middle" x="65.5" y="-7.3" font-family="Helvetica,sans-Serif" font-size="9.00">prior_hessian::IndexError</text>
</g>
<!-- Node2 -->
<g id="node2" class="node"><title>Node2</title>
<g id="a_node2"><a xlink:href="classprior__hessian_1_1PriorHessianError.html" target="_top" xlink:title="prior_hessian::PriorHessian\lError">
<polygon fill="white" stroke="black" points="0,-56.5 0,-84.5 131,-84.5 131,-56.5 0,-56.5"/>
<text text-anchor="start" x="8" y="-73.3" font-family="Helvetica,sans-Serif" font-size="9.00">prior_hessian::PriorHessian</text>
<text text-anchor="middle" x="65.5" y="-63.3" font-family="Helvetica,sans-Serif" font-size="9.00">Error</text>
</a>
</g>
</g>
<!-- Node2&#45;&gt;Node1 -->
<g id="edge1" class="edge"><title>Node2&#45;&gt;Node1</title>
<path fill="none" stroke="midnightblue" d="M65.5,-46.3856C65.5,-36.5939 65.5,-25.8163 65.5,-18.6534"/>
<polygon fill="midnightblue" stroke="midnightblue" points="62.0001,-46.406 65.5,-56.406 69.0001,-46.406 62.0001,-46.406"/>
</g>
<!-- Node3 -->
<g id="node3" class="node"><title>Node3</title>
<g id="a_node3"><a xlink:title="STL class. ">
<polygon fill="white" stroke="#bfbfbf" points="0,-151.5 0,-169.5 73,-169.5 73,-151.5 0,-151.5"/>
<text text-anchor="middle" x="36.5" y="-158.3" font-family="Helvetica,sans-Serif" font-size="9.00">std::exception</text>
</a>
</g>
</g>
<!-- Node3&#45;&gt;Node2 -->
<g id="edge2" class="edge"><title>Node3&#45;&gt;Node2</title>
<path fill="none" stroke="midnightblue" d="M42.3872,-141.635C47.9479,-124.761 56.1592,-99.8445 61.1506,-84.6983"/>
<polygon fill="midnightblue" stroke="midnightblue" points="38.9821,-140.786 39.1763,-151.379 45.6304,-142.977 38.9821,-140.786"/>
</g>
<!-- Node4 -->
<g id="node4" class="node"><title>Node4</title>
<g id="a_node4"><a xlink:title="STL class. ">
<polygon fill="white" stroke="#bfbfbf" points="91.5,-151.5 91.5,-169.5 147.5,-169.5 147.5,-151.5 91.5,-151.5"/>
<text text-anchor="middle" x="119.5" y="-158.3" font-family="Helvetica,sans-Serif" font-size="9.00">std::string</text>
</a>
</g>
</g>
<!-- Node4&#45;&gt;Node2 -->
<g id="edge3" class="edge"><title>Node4&#45;&gt;Node2</title>
<path fill="none" stroke="#9a32cd" stroke-dasharray="5,2" d="M109.124,-142.591C98.7678,-125.714 83.0702,-100.133 73.5989,-84.6983"/>
<polygon fill="#9a32cd" stroke="#9a32cd" points="106.303,-144.686 114.517,-151.379 112.27,-141.025 106.303,-144.686"/>
<text text-anchor="middle" x="120.5" y="-125.8" font-family="Helvetica,sans-Serif" font-size="9.00"> what_str</text>
<text text-anchor="middle" x="120.5" y="-115.8" font-family="Helvetica,sans-Serif" font-size="9.00">what_</text>
<text text-anchor="middle" x="120.5" y="-105.8" font-family="Helvetica,sans-Serif" font-size="9.00">condition</text>
</g>
<!-- Node5 -->
<g id="node5" class="node"><title>Node5</title>
<g id="a_node5"><a xlink:title="STL class. ">
<polygon fill="white" stroke="#bfbfbf" points="75.5,-207.5 75.5,-235.5 163.5,-235.5 163.5,-207.5 75.5,-207.5"/>
<text text-anchor="start" x="83.5" y="-224.3" font-family="Helvetica,sans-Serif" font-size="9.00">std::basic_string&lt;</text>
<text text-anchor="middle" x="119.5" y="-214.3" font-family="Helvetica,sans-Serif" font-size="9.00"> char &gt;</text>
</a>
</g>
</g>
<!-- Node5&#45;&gt;Node4 -->
<g id="edge4" class="edge"><title>Node5&#45;&gt;Node4</title>
<path fill="none" stroke="midnightblue" d="M119.5,-197.386C119.5,-187.594 119.5,-176.816 119.5,-169.653"/>
<polygon fill="midnightblue" stroke="midnightblue" points="116,-197.406 119.5,-207.406 123,-197.406 116,-197.406"/>
</g>
</g>
</svg>
