<?xml version="1.0" encoding="UTF-8" standalone="no"?>
<!DOCTYPE svg PUBLIC "-//W3C//DTD SVG 1.1//EN"
 "http://www.w3.org/Graphics/SVG/1.1/DTD/svg11.dtd">
<!-- Generated by graphviz version 2.38.0 (20140413.2041)
 -->
<!-- Title: prior_hessian::meta::conjunction&lt;... &gt; Pages: 1 -->
<svg width="106pt" height="92pt"
 viewBox="0.00 0.00 106.00 92.00" xmlns="http://www.w3.org/2000/svg" xmlns:xlink="http://www.w3.org/1999/xlink">
<g id="graph0" class="graph" transform="scale(1 1) rotate(0) translate(4 88)">
<title>prior_hessian::meta::conjunction&lt;... &gt;</title>
<polygon fill="white" stroke="none" points="-4,4 -4,-88 102,-88 102,4 -4,4"/>
<!-- Node1 -->
<g id="node1" class="node"><title>Node1</title>
<polygon fill="#bfbfbf" stroke="black" points="-7.10543e-15,-0.5 -7.10543e-15,-28.5 98,-28.5 98,-0.5 -7.10543e-15,-0.5"/>
<text text-anchor="start" x="8" y="-17.3" font-family="Helvetica,sans-Serif" font-size="9.00">prior_hessian::meta</text>
<text text-anchor="middle" x="49" y="-7.3" font-family="Helvetica,sans-Serif" font-size="9.00">::conjunction&lt;... &gt;</text>
</g>
<!-- Node2 -->
<g id="node2" class="node"><title>Node2</title>
<polygon fill="white" stroke="#bfbfbf" points="21.5,-65.5 21.5,-83.5 76.5,-83.5 76.5,-65.5 21.5,-65.5"/>
<text text-anchor="middle" x="49" y="-72.3" font-family="Helvetica,sans-Serif" font-size="9.00">true_type</text>
</g>
<!-- Node2&#45;&gt;Node1 -->
<g id="edge1" class="edge"><title>Node2&#45;&gt;Node1</title>
<path fill="none" stroke="midnightblue" d="M49,-55.3209C49,-46.747 49,-36.6999 49,-28.8428"/>
<polygon fill="midnightblue" stroke="midnightblue" points="45.5001,-55.4353 49,-65.4353 52.5001,-55.4354 45.5001,-55.4353"/>
</g>
</g>
</svg>
