<?xml version="1.0" encoding="UTF-8" standalone="no"?>
<!DOCTYPE svg PUBLIC "-//W3C//DTD SVG 1.1//EN"
 "http://www.w3.org/Graphics/SVG/1.1/DTD/svg11.dtd">
<!-- Generated by graphviz version 2.38.0 (20140413.2041)
 -->
<!-- Title: prior_hessian::RuntimeTypeError Pages: 1 -->
<svg width="172pt" height="254pt"
 viewBox="0.00 0.00 172.00 254.00" xmlns="http://www.w3.org/2000/svg" xmlns:xlink="http://www.w3.org/1999/xlink">
<g id="graph0" class="graph" transform="scale(1 1) rotate(0) translate(4 250)">
<title>prior_hessian::RuntimeTypeError</title>
<polygon fill="white" stroke="none" points="-4,4 -4,-250 168,-250 168,4 -4,4"/>
<!-- Node1 -->
<g id="node1" class="node"><title>Node1</title>
<polygon fill="#bfbfbf" stroke="black" points="0,-0.5 0,-28.5 132,-28.5 132,-0.5 0,-0.5"/>
<text text-anchor="start" x="8" y="-17.3" font-family="Helvetica,sans-Serif" font-size="9.00">prior_hessian::RuntimeType</text>
<text text-anchor="middle" x="66" y="-7.3" font-family="Helvetica,sans-Serif" font-size="9.00">Error</text>
</g>
<!-- Node2 -->
<g id="node2" class="node"><title>Node2</title>
<g id="a_node2"><a xlink:href="classprior__hessian_1_1PriorHessianError.html" target="_top" xlink:title="prior_hessian::PriorHessian\lError">
<polygon fill="white" stroke="black" points="0.5,-66.5 0.5,-94.5 131.5,-94.5 131.5,-66.5 0.5,-66.5"/>
<text text-anchor="start" x="8.5" y="-83.3" font-family="Helvetica,sans-Serif" font-size="9.00">prior_hessian::PriorHessian</text>
<text text-anchor="middle" x="66" y="-73.3" font-family="Helvetica,sans-Serif" font-size="9.00">Error</text>
</a>
</g>
</g>
<!-- Node2&#45;&gt;Node1 -->
<g id="edge1" class="edge"><title>Node2&#45;&gt;Node1</title>
<path fill="none" stroke="midnightblue" d="M66,-56.0946C66,-46.8785 66,-36.6352 66,-28.7439"/>
<polygon fill="midnightblue" stroke="midnightblue" points="62.5001,-56.2391 66,-66.2392 69.5001,-56.2392 62.5001,-56.2391"/>
</g>
<!-- Node3 -->
<g id="node3" class="node"><title>Node3</title>
<g id="a_node3"><a xlink:title="STL class. ">
<polygon fill="white" stroke="#bfbfbf" points="0.5,-161.5 0.5,-179.5 73.5,-179.5 73.5,-161.5 0.5,-161.5"/>
<text text-anchor="middle" x="37" y="-168.3" font-family="Helvetica,sans-Serif" font-size="9.00">std::exception</text>
</a>
</g>
</g>
<!-- Node3&#45;&gt;Node2 -->
<g id="edge2" class="edge"><title>Node3&#45;&gt;Node2</title>
<path fill="none" stroke="midnightblue" d="M42.8872,-151.635C48.4479,-134.761 56.6592,-109.844 61.6506,-94.6983"/>
<polygon fill="midnightblue" stroke="midnightblue" points="39.4821,-150.786 39.6763,-161.379 46.1304,-152.977 39.4821,-150.786"/>
</g>
<!-- Node4 -->
<g id="node4" class="node"><title>Node4</title>
<g id="a_node4"><a xlink:title="STL class. ">
<polygon fill="white" stroke="#bfbfbf" points="92,-161.5 92,-179.5 148,-179.5 148,-161.5 92,-161.5"/>
<text text-anchor="middle" x="120" y="-168.3" font-family="Helvetica,sans-Serif" font-size="9.00">std::string</text>
</a>
</g>
</g>
<!-- Node4&#45;&gt;Node2 -->
<g id="edge3" class="edge"><title>Node4&#45;&gt;Node2</title>
<path fill="none" stroke="#9a32cd" stroke-dasharray="5,2" d="M109.624,-152.591C99.2678,-135.714 83.5702,-110.133 74.0989,-94.6983"/>
<polygon fill="#9a32cd" stroke="#9a32cd" points="106.803,-154.686 115.017,-161.379 112.77,-151.025 106.803,-154.686"/>
<text text-anchor="middle" x="121" y="-135.8" font-family="Helvetica,sans-Serif" font-size="9.00"> what_str</text>
<text text-anchor="middle" x="121" y="-125.8" font-family="Helvetica,sans-Serif" font-size="9.00">what_</text>
<text text-anchor="middle" x="121" y="-115.8" font-family="Helvetica,sans-Serif" font-size="9.00">condition</text>
</g>
<!-- Node5 -->
<g id="node5" class="node"><title>Node5</title>
<g id="a_node5"><a xlink:title="STL class. ">
<polygon fill="white" stroke="#bfbfbf" points="76,-217.5 76,-245.5 164,-245.5 164,-217.5 76,-217.5"/>
<text text-anchor="start" x="84" y="-234.3" font-family="Helvetica,sans-Serif" font-size="9.00">std::basic_string&lt;</text>
<text text-anchor="middle" x="120" y="-224.3" font-family="Helvetica,sans-Serif" font-size="9.00"> char &gt;</text>
</a>
</g>
</g>
<!-- Node5&#45;&gt;Node4 -->
<g id="edge4" class="edge"><title>Node5&#45;&gt;Node4</title>
<path fill="none" stroke="midnightblue" d="M120,-207.386C120,-197.594 120,-186.816 120,-179.653"/>
<polygon fill="midnightblue" stroke="midnightblue" points="116.5,-207.406 120,-217.406 123.5,-207.406 116.5,-207.406"/>
</g>
</g>
</svg>
