<?xml version="1.0" encoding="UTF-8" standalone="no"?>
<!DOCTYPE svg PUBLIC "-//W3C//DTD SVG 1.1//EN"
 "http://www.w3.org/Graphics/SVG/1.1/DTD/svg11.dtd">
<!-- Generated by graphviz version 2.38.0 (20140413.2041)
 -->
<!-- Title: prior_hessian::meta::is_numeric_template_of&lt; class, typename &gt; Pages: 1 -->
<svg width="118pt" height="102pt"
 viewBox="0.00 0.00 118.00 102.00" xmlns="http://www.w3.org/2000/svg" xmlns:xlink="http://www.w3.org/1999/xlink">
<g id="graph0" class="graph" transform="scale(1 1) rotate(0) translate(4 98)">
<title>prior_hessian::meta::is_numeric_template_of&lt; class, typename &gt;</title>
<polygon fill="white" stroke="none" points="-4,4 -4,-98 114,-98 114,4 -4,4"/>
<!-- Node1 -->
<g id="node1" class="node"><title>Node1</title>
<polygon fill="#bfbfbf" stroke="black" points="0,-0.5 0,-38.5 110,-38.5 110,-0.5 0,-0.5"/>
<text text-anchor="start" x="8" y="-27.3" font-family="Helvetica,sans-Serif" font-size="9.00">prior_hessian::meta</text>
<text text-anchor="start" x="8" y="-17.3" font-family="Helvetica,sans-Serif" font-size="9.00">::is_numeric_template</text>
<text text-anchor="middle" x="55" y="-7.3" font-family="Helvetica,sans-Serif" font-size="9.00">_of&lt; class, typename &gt;</text>
</g>
<!-- Node2 -->
<g id="node2" class="node"><title>Node2</title>
<polygon fill="white" stroke="#bfbfbf" points="25.5,-75.5 25.5,-93.5 84.5,-93.5 84.5,-75.5 25.5,-75.5"/>
<text text-anchor="middle" x="55" y="-82.3" font-family="Helvetica,sans-Serif" font-size="9.00">false_type</text>
</g>
<!-- Node2&#45;&gt;Node1 -->
<g id="edge1" class="edge"><title>Node2&#45;&gt;Node1</title>
<path fill="none" stroke="midnightblue" d="M55,-65.0758C55,-56.7168 55,-46.8643 55,-38.5506"/>
<polygon fill="midnightblue" stroke="midnightblue" points="51.5001,-65.2638 55,-75.2639 58.5001,-65.2639 51.5001,-65.2638"/>
</g>
</g>
</svg>
