<?xml version="1.0" encoding="UTF-8" standalone="no"?>
<!DOCTYPE svg PUBLIC "-//W3C//DTD SVG 1.1//EN"
 "http://www.w3.org/Graphics/SVG/1.1/DTD/svg11.dtd">
<!-- Generated by graphviz version 2.38.0 (20140413.2041)
 -->
<!-- Title: prior_hessian::meta::is_template_of&lt; class, typename &gt; Pages: 1 -->
<svg width="120pt" height="102pt"
 viewBox="0.00 0.00 120.00 102.00" xmlns="http://www.w3.org/2000/svg" xmlns:xlink="http://www.w3.org/1999/xlink">
<g id="graph0" class="graph" transform="scale(1 1) rotate(0) translate(4 98)">
<title>prior_hessian::meta::is_template_of&lt; class, typename &gt;</title>
<polygon fill="white" stroke="none" points="-4,4 -4,-98 116,-98 116,4 -4,4"/>
<!-- Node1 -->
<g id="node1" class="node"><title>Node1</title>
<polygon fill="#bfbfbf" stroke="black" points="-7.10543e-15,-0.5 -7.10543e-15,-38.5 112,-38.5 112,-0.5 -7.10543e-15,-0.5"/>
<text text-anchor="start" x="8" y="-27.3" font-family="Helvetica,sans-Serif" font-size="9.00">prior_hessian::meta</text>
<text text-anchor="start" x="8" y="-17.3" font-family="Helvetica,sans-Serif" font-size="9.00">::is_template_of&lt; class,</text>
<text text-anchor="middle" x="56" y="-7.3" font-family="Helvetica,sans-Serif" font-size="9.00"> typename &gt;</text>
</g>
<!-- Node2 -->
<g id="node2" class="node"><title>Node2</title>
<polygon fill="white" stroke="#bfbfbf" points="18.5,-75.5 18.5,-93.5 93.5,-93.5 93.5,-75.5 18.5,-75.5"/>
<text text-anchor="middle" x="56" y="-82.3" font-family="Helvetica,sans-Serif" font-size="9.00">std::false_type</text>
</g>
<!-- Node2&#45;&gt;Node1 -->
<g id="edge1" class="edge"><title>Node2&#45;&gt;Node1</title>
<path fill="none" stroke="midnightblue" d="M56,-65.0758C56,-56.7168 56,-46.8643 56,-38.5506"/>
<polygon fill="midnightblue" stroke="midnightblue" points="52.5001,-65.2638 56,-75.2639 59.5001,-65.2639 52.5001,-65.2638"/>
</g>
</g>
</svg>
