<?xml version="1.0" encoding="UTF-8" standalone="no"?>
<!DOCTYPE svg PUBLIC "-//W3C//DTD SVG 1.1//EN"
 "http://www.w3.org/Graphics/SVG/1.1/DTD/svg11.dtd">
<!-- Generated by graphviz version 2.38.0 (20140413.2041)
 -->
<!-- Title: prior_hessian::IndexError Pages: 1 -->
<svg width="139pt" height="147pt"
 viewBox="0.00 0.00 139.00 147.00" xmlns="http://www.w3.org/2000/svg" xmlns:xlink="http://www.w3.org/1999/xlink">
<g id="graph0" class="graph" transform="scale(1 1) rotate(0) translate(4 143)">
<title>prior_hessian::IndexError</title>
<polygon fill="white" stroke="none" points="-4,4 -4,-143 135,-143 135,4 -4,4"/>
<!-- Node1 -->
<g id="node1" class="node"><title>Node1</title>
<polygon fill="#bfbfbf" stroke="black" points="5.5,-0.5 5.5,-18.5 125.5,-18.5 125.5,-0.5 5.5,-0.5"/>
<text text-anchor="middle" x="65.5" y="-7.3" font-family="Helvetica,sans-Serif" font-size="9.00">prior_hessian::IndexError</text>
</g>
<!-- Node2 -->
<g id="node2" class="node"><title>Node2</title>
<g id="a_node2"><a xlink:href="classprior__hessian_1_1PriorHessianError.html" target="_top" xlink:title="prior_hessian::PriorHessian\lError">
<polygon fill="white" stroke="black" points="0,-55.5 0,-83.5 131,-83.5 131,-55.5 0,-55.5"/>
<text text-anchor="start" x="8" y="-72.3" font-family="Helvetica,sans-Serif" font-size="9.00">prior_hessian::PriorHessian</text>
<text text-anchor="middle" x="65.5" y="-62.3" font-family="Helvetica,sans-Serif" font-size="9.00">Error</text>
</a>
</g>
</g>
<!-- Node2&#45;&gt;Node1 -->
<g id="edge1" class="edge"><title>Node2&#45;&gt;Node1</title>
<path fill="none" stroke="midnightblue" d="M65.5,-45.323C65.5,-35.936 65.5,-25.7002 65.5,-18.7715"/>
<polygon fill="midnightblue" stroke="midnightblue" points="62.0001,-45.3389 65.5,-55.3389 69.0001,-45.3389 62.0001,-45.3389"/>
</g>
<!-- Node3 -->
<g id="node3" class="node"><title>Node3</title>
<g id="a_node3"><a xlink:title="STL class. ">
<polygon fill="white" stroke="#bfbfbf" points="29,-120.5 29,-138.5 102,-138.5 102,-120.5 29,-120.5"/>
<text text-anchor="middle" x="65.5" y="-127.3" font-family="Helvetica,sans-Serif" font-size="9.00">std::exception</text>
</a>
</g>
</g>
<!-- Node3&#45;&gt;Node2 -->
<g id="edge2" class="edge"><title>Node3&#45;&gt;Node2</title>
<path fill="none" stroke="midnightblue" d="M65.5,-110.321C65.5,-101.747 65.5,-91.6999 65.5,-83.8428"/>
<polygon fill="midnightblue" stroke="midnightblue" points="62.0001,-110.435 65.5,-120.435 69.0001,-110.435 62.0001,-110.435"/>
</g>
</g>
</svg>
