<?xml version="1.0" encoding="UTF-8" standalone="no"?>
<!DOCTYPE svg PUBLIC "-//W3C//DTD SVG 1.1//EN"
 "http://www.w3.org/Graphics/SVG/1.1/DTD/svg11.dtd">
<!-- Generated by graphviz version 2.38.0 (20140413.2041)
 -->
<!-- Title: prior_hessian::NotImplementedError Pages: 1 -->
<svg width="179pt" height="254pt"
 viewBox="0.00 0.00 178.50 254.00" xmlns="http://www.w3.org/2000/svg" xmlns:xlink="http://www.w3.org/1999/xlink">
<g id="graph0" class="graph" transform="scale(1 1) rotate(0) translate(4 250)">
<title>prior_hessian::NotImplementedError</title>
<polygon fill="white" stroke="none" points="-4,4 -4,-250 174.5,-250 174.5,4 -4,4"/>
<!-- Node1 -->
<g id="node1" class="node"><title>Node1</title>
<polygon fill="#bfbfbf" stroke="black" points="0,-0.5 0,-28.5 145,-28.5 145,-0.5 0,-0.5"/>
<text text-anchor="start" x="8" y="-17.3" font-family="Helvetica,sans-Serif" font-size="9.00">prior_hessian::NotImplemented</text>
<text text-anchor="middle" x="72.5" y="-7.3" font-family="Helvetica,sans-Serif" font-size="9.00">Error</text>
</g>
<!-- Node2 -->
<g id="node2" class="node"><title>Node2</title>
<g id="a_node2"><a xlink:href="classprior__hessian_1_1PriorHessianError.html" target="_top" xlink:title="prior_hessian::PriorHessian\lError">
<polygon fill="white" stroke="black" points="7,-66.5 7,-94.5 138,-94.5 138,-66.5 7,-66.5"/>
<text text-anchor="start" x="15" y="-83.3" font-family="Helvetica,sans-Serif" font-size="9.00">prior_hessian::PriorHessian</text>
<text text-anchor="middle" x="72.5" y="-73.3" font-family="Helvetica,sans-Serif" font-size="9.00">Error</text>
</a>
</g>
</g>
<!-- Node2&#45;&gt;Node1 -->
<g id="edge1" class="edge"><title>Node2&#45;&gt;Node1</title>
<path fill="none" stroke="midnightblue" d="M72.5,-56.0946C72.5,-46.8785 72.5,-36.6352 72.5,-28.7439"/>
<polygon fill="midnightblue" stroke="midnightblue" points="69.0001,-56.2391 72.5,-66.2392 76.0001,-56.2392 69.0001,-56.2391"/>
</g>
<!-- Node3 -->
<g id="node3" class="node"><title>Node3</title>
<g id="a_node3"><a xlink:title="STL class. ">
<polygon fill="white" stroke="#bfbfbf" points="7,-161.5 7,-179.5 80,-179.5 80,-161.5 7,-161.5"/>
<text text-anchor="middle" x="43.5" y="-168.3" font-family="Helvetica,sans-Serif" font-size="9.00">std::exception</text>
</a>
</g>
</g>
<!-- Node3&#45;&gt;Node2 -->
<g id="edge2" class="edge"><title>Node3&#45;&gt;Node2</title>
<path fill="none" stroke="midnightblue" d="M49.3872,-151.635C54.9479,-134.761 63.1592,-109.844 68.1506,-94.6983"/>
<polygon fill="midnightblue" stroke="midnightblue" points="45.9821,-150.786 46.1763,-161.379 52.6304,-152.977 45.9821,-150.786"/>
</g>
<!-- Node4 -->
<g id="node4" class="node"><title>Node4</title>
<g id="a_node4"><a xlink:title="STL class. ">
<polygon fill="white" stroke="#bfbfbf" points="98.5,-161.5 98.5,-179.5 154.5,-179.5 154.5,-161.5 98.5,-161.5"/>
<text text-anchor="middle" x="126.5" y="-168.3" font-family="Helvetica,sans-Serif" font-size="9.00">std::string</text>
</a>
</g>
</g>
<!-- Node4&#45;&gt;Node2 -->
<g id="edge3" class="edge"><title>Node4&#45;&gt;Node2</title>
<path fill="none" stroke="#9a32cd" stroke-dasharray="5,2" d="M116.124,-152.591C105.768,-135.714 90.0702,-110.133 80.5989,-94.6983"/>
<polygon fill="#9a32cd" stroke="#9a32cd" points="113.303,-154.686 121.517,-161.379 119.27,-151.025 113.303,-154.686"/>
<text text-anchor="middle" x="127.5" y="-135.8" font-family="Helvetica,sans-Serif" font-size="9.00"> what_str</text>
<text text-anchor="middle" x="127.5" y="-125.8" font-family="Helvetica,sans-Serif" font-size="9.00">what_</text>
<text text-anchor="middle" x="127.5" y="-115.8" font-family="Helvetica,sans-Serif" font-size="9.00">condition</text>
</g>
<!-- Node5 -->
<g id="node5" class="node"><title>Node5</title>
<g id="a_node5"><a xlink:title="STL class. ">
<polygon fill="white" stroke="#bfbfbf" points="82.5,-217.5 82.5,-245.5 170.5,-245.5 170.5,-217.5 82.5,-217.5"/>
<text text-anchor="start" x="90.5" y="-234.3" font-family="Helvetica,sans-Serif" font-size="9.00">std::basic_string&lt;</text>
<text text-anchor="middle" x="126.5" y="-224.3" font-family="Helvetica,sans-Serif" font-size="9.00"> char &gt;</text>
</a>
</g>
</g>
<!-- Node5&#45;&gt;Node4 -->
<g id="edge4" class="edge"><title>Node5&#45;&gt;Node4</title>
<path fill="none" stroke="midnightblue" d="M126.5,-207.386C126.5,-197.594 126.5,-186.816 126.5,-179.653"/>
<polygon fill="midnightblue" stroke="midnightblue" points="123,-207.406 126.5,-217.406 130,-207.406 123,-207.406"/>
</g>
</g>
</svg>
