<?xml version="1.0" encoding="UTF-8" standalone="no"?>
<!DOCTYPE svg PUBLIC "-//W3C//DTD SVG 1.1//EN"
 "http://www.w3.org/Graphics/SVG/1.1/DTD/svg11.dtd">
<!-- Generated by graphviz version 2.38.0 (20140413.2041)
 -->
<!-- Title: prior_hessian::eulerian_number&lt; 0, M &gt; Pages: 1 -->
<svg width="119pt" height="102pt"
 viewBox="0.00 0.00 119.00 102.00" xmlns="http://www.w3.org/2000/svg" xmlns:xlink="http://www.w3.org/1999/xlink">
<g id="graph0" class="graph" transform="scale(1 1) rotate(0) translate(4 98)">
<title>prior_hessian::eulerian_number&lt; 0, M &gt;</title>
<polygon fill="white" stroke="none" points="-4,4 -4,-98 115,-98 115,4 -4,4"/>
<!-- Node1 -->
<g id="node1" class="node"><title>Node1</title>
<polygon fill="#bfbfbf" stroke="black" points="-7.10543e-15,-0.5 -7.10543e-15,-28.5 111,-28.5 111,-0.5 -7.10543e-15,-0.5"/>
<text text-anchor="start" x="8" y="-17.3" font-family="Helvetica,sans-Serif" font-size="9.00">prior_hessian::eulerian</text>
<text text-anchor="middle" x="55.5" y="-7.3" font-family="Helvetica,sans-Serif" font-size="9.00">_number&lt; 0, M &gt;</text>
</g>
<!-- Node2 -->
<g id="node2" class="node"><title>Node2</title>
<polygon fill="white" stroke="#bfbfbf" points="9.5,-65.5 9.5,-93.5 101.5,-93.5 101.5,-65.5 9.5,-65.5"/>
<text text-anchor="start" x="17.5" y="-82.3" font-family="Helvetica,sans-Serif" font-size="9.00">integral_constant&lt;</text>
<text text-anchor="middle" x="55.5" y="-72.3" font-family="Helvetica,sans-Serif" font-size="9.00"> long, M==0 &gt;</text>
</g>
<!-- Node2&#45;&gt;Node1 -->
<g id="edge1" class="edge"><title>Node2&#45;&gt;Node1</title>
<path fill="none" stroke="midnightblue" d="M55.5,-55.1641C55.5,-46.1693 55.5,-36.2205 55.5,-28.5369"/>
<polygon fill="midnightblue" stroke="midnightblue" points="52.0001,-55.4463 55.5,-65.4464 59.0001,-55.4464 52.0001,-55.4463"/>
</g>
</g>
</svg>
