<?xml version="1.0" encoding="UTF-8" standalone="no"?>
<!DOCTYPE svg PUBLIC "-//W3C//DTD SVG 1.1//EN"
 "http://www.w3.org/Graphics/SVG/1.1/DTD/svg11.dtd">
<!-- Generated by graphviz version 2.38.0 (20140413.2041)
 -->
<!-- Title: prior_hessian::ArchimedeanCopula::DTheta_IGenTerms Pages: 1 -->
<svg width="145pt" height="102pt"
 viewBox="0.00 0.00 145.00 102.00" xmlns="http://www.w3.org/2000/svg" xmlns:xlink="http://www.w3.org/1999/xlink">
<g id="graph0" class="graph" transform="scale(1 1) rotate(0) translate(4 98)">
<title>prior_hessian::ArchimedeanCopula::DTheta_IGenTerms</title>
<polygon fill="white" stroke="none" points="-4,4 -4,-98 141,-98 141,4 -4,4"/>
<!-- Node1 -->
<g id="node1" class="node"><title>Node1</title>
<polygon fill="#bfbfbf" stroke="black" points="2.5,-65.5 2.5,-93.5 134.5,-93.5 134.5,-65.5 2.5,-65.5"/>
<text text-anchor="start" x="10.5" y="-82.3" font-family="Helvetica,sans-Serif" font-size="9.00">prior_hessian::Archimedean</text>
<text text-anchor="middle" x="68.5" y="-72.3" font-family="Helvetica,sans-Serif" font-size="9.00">Copula::DTheta_IGenTerms</text>
</g>
<!-- Node2 -->
<g id="node2" class="node"><title>Node2</title>
<g id="a_node2"><a xlink:href="structprior__hessian_1_1ArchimedeanCopula_1_1D2Theta__IGenTerms.html" target="_top" xlink:title="prior_hessian::Archimedean\lCopula::D2Theta_IGenTerms">
<polygon fill="white" stroke="black" points="0,-0.5 0,-28.5 137,-28.5 137,-0.5 0,-0.5"/>
<text text-anchor="start" x="8" y="-17.3" font-family="Helvetica,sans-Serif" font-size="9.00">prior_hessian::Archimedean</text>
<text text-anchor="middle" x="68.5" y="-7.3" font-family="Helvetica,sans-Serif" font-size="9.00">Copula::D2Theta_IGenTerms</text>
</a>
</g>
</g>
<!-- Node1&#45;&gt;Node2 -->
<g id="edge1" class="edge"><title>Node1&#45;&gt;Node2</title>
<path fill="none" stroke="midnightblue" d="M68.5,-55.1641C68.5,-46.1693 68.5,-36.2205 68.5,-28.5369"/>
<polygon fill="midnightblue" stroke="midnightblue" points="65.0001,-55.4463 68.5,-65.4464 72.0001,-55.4464 65.0001,-55.4463"/>
</g>
</g>
</svg>
