<?xml version="1.0" encoding="UTF-8" standalone="no"?>
<!DOCTYPE svg PUBLIC "-//W3C//DTD SVG 1.1//EN"
 "http://www.w3.org/Graphics/SVG/1.1/DTD/svg11.dtd">
<!-- Generated by graphviz version 2.38.0 (20140413.2041)
 -->
<!-- Title: prior_hessian::RuntimeSamplingError Pages: 1 -->
<svg width="159pt" height="157pt"
 viewBox="0.00 0.00 159.00 157.00" xmlns="http://www.w3.org/2000/svg" xmlns:xlink="http://www.w3.org/1999/xlink">
<g id="graph0" class="graph" transform="scale(1 1) rotate(0) translate(4 153)">
<title>prior_hessian::RuntimeSamplingError</title>
<polygon fill="white" stroke="none" points="-4,4 -4,-153 155,-153 155,4 -4,4"/>
<!-- Node1 -->
<g id="node1" class="node"><title>Node1</title>
<polygon fill="#bfbfbf" stroke="black" points="0,-0.5 0,-28.5 151,-28.5 151,-0.5 0,-0.5"/>
<text text-anchor="start" x="8" y="-17.3" font-family="Helvetica,sans-Serif" font-size="9.00">prior_hessian::RuntimeSampling</text>
<text text-anchor="middle" x="75.5" y="-7.3" font-family="Helvetica,sans-Serif" font-size="9.00">Error</text>
</g>
<!-- Node2 -->
<g id="node2" class="node"><title>Node2</title>
<g id="a_node2"><a xlink:href="classprior__hessian_1_1PriorHessianError.html" target="_top" xlink:title="prior_hessian::PriorHessian\lError">
<polygon fill="white" stroke="black" points="10,-65.5 10,-93.5 141,-93.5 141,-65.5 10,-65.5"/>
<text text-anchor="start" x="18" y="-82.3" font-family="Helvetica,sans-Serif" font-size="9.00">prior_hessian::PriorHessian</text>
<text text-anchor="middle" x="75.5" y="-72.3" font-family="Helvetica,sans-Serif" font-size="9.00">Error</text>
</a>
</g>
</g>
<!-- Node2&#45;&gt;Node1 -->
<g id="edge1" class="edge"><title>Node2&#45;&gt;Node1</title>
<path fill="none" stroke="midnightblue" d="M75.5,-55.1641C75.5,-46.1693 75.5,-36.2205 75.5,-28.5369"/>
<polygon fill="midnightblue" stroke="midnightblue" points="72.0001,-55.4463 75.5,-65.4464 79.0001,-55.4464 72.0001,-55.4463"/>
</g>
<!-- Node3 -->
<g id="node3" class="node"><title>Node3</title>
<g id="a_node3"><a xlink:title="STL class. ">
<polygon fill="white" stroke="#bfbfbf" points="39,-130.5 39,-148.5 112,-148.5 112,-130.5 39,-130.5"/>
<text text-anchor="middle" x="75.5" y="-137.3" font-family="Helvetica,sans-Serif" font-size="9.00">std::exception</text>
</a>
</g>
</g>
<!-- Node3&#45;&gt;Node2 -->
<g id="edge2" class="edge"><title>Node3&#45;&gt;Node2</title>
<path fill="none" stroke="midnightblue" d="M75.5,-120.321C75.5,-111.747 75.5,-101.7 75.5,-93.8428"/>
<polygon fill="midnightblue" stroke="midnightblue" points="72.0001,-120.435 75.5,-130.435 79.0001,-120.435 72.0001,-120.435"/>
</g>
</g>
</svg>
