<?xml version="1.0" encoding="UTF-8" standalone="no"?>
<!DOCTYPE svg PUBLIC "-//W3C//DTD SVG 1.1//EN"
 "http://www.w3.org/Graphics/SVG/1.1/DTD/svg11.dtd">
<!-- Generated by graphviz version 2.38.0 (20140413.2041)
 -->
<!-- Title: SymmetricBetaDist.cpp Pages: 1 -->
<svg width="702pt" height="322pt"
 viewBox="0.00 0.00 701.50 322.00" xmlns="http://www.w3.org/2000/svg" xmlns:xlink="http://www.w3.org/1999/xlink">
<g id="graph0" class="graph" transform="scale(1 1) rotate(0) translate(4 318)">
<title>SymmetricBetaDist.cpp</title>
<polygon fill="white" stroke="none" points="-4,4 -4,-318 697.5,-318 697.5,4 -4,4"/>
<!-- Node1 -->
<g id="node1" class="node"><title>Node1</title>
<polygon fill="#bfbfbf" stroke="black" points="375,-295.5 375,-313.5 486,-313.5 486,-295.5 375,-295.5"/>
<text text-anchor="middle" x="430.5" y="-302.3" font-family="Helvetica,sans-Serif" font-size="9.00">SymmetricBetaDist.cpp</text>
</g>
<!-- Node2 -->
<g id="node2" class="node"><title>Node2</title>
<g id="a_node2"><a xlink:href="SymmetricBetaDist_8h.html" target="_top" xlink:title="SymmetricBetaDist class declaration and templated methods. ">
<polygon fill="white" stroke="black" points="109.5,-230.5 109.5,-258.5 243.5,-258.5 243.5,-230.5 109.5,-230.5"/>
<text text-anchor="start" x="117.5" y="-247.3" font-family="Helvetica,sans-Serif" font-size="9.00">PriorHessian/SymmetricBeta</text>
<text text-anchor="middle" x="176.5" y="-237.3" font-family="Helvetica,sans-Serif" font-size="9.00">Dist.h</text>
</a>
</g>
</g>
<!-- Node1&#45;&gt;Node2 -->
<g id="edge1" class="edge"><title>Node1&#45;&gt;Node2</title>
<path fill="none" stroke="midnightblue" d="M395.449,-295.496C356.362,-286.571 292.229,-271.926 243.45,-260.788"/>
<polygon fill="midnightblue" stroke="midnightblue" points="244.128,-257.353 233.6,-258.538 242.569,-264.177 244.128,-257.353"/>
</g>
<!-- Node3 -->
<g id="node3" class="node"><title>Node3</title>
<polygon fill="white" stroke="#bfbfbf" points="0,-55.5 0,-73.5 41,-73.5 41,-55.5 0,-55.5"/>
<text text-anchor="middle" x="20.5" y="-62.3" font-family="Helvetica,sans-Serif" font-size="9.00">cmath</text>
</g>
<!-- Node1&#45;&gt;Node3 -->
<g id="edge23" class="edge"><title>Node1&#45;&gt;Node3</title>
<path fill="none" stroke="midnightblue" d="M374.891,-301.502C293.058,-297.652 145.066,-286.953 100.5,-259 38.9857,-220.417 24.7612,-124.235 21.4801,-83.8315"/>
<polygon fill="midnightblue" stroke="midnightblue" points="24.9691,-83.5486 20.8039,-73.8069 17.985,-84.0198 24.9691,-83.5486"/>
</g>
<!-- Node12 -->
<g id="node12" class="node"><title>Node12</title>
<g id="a_node12"><a xlink:href="PriorHessianError_8h.html" target="_top" xlink:title="The Exception classes for the PriorHessian library. ">
<polygon fill="white" stroke="black" points="371.5,-55.5 371.5,-73.5 469.5,-73.5 469.5,-55.5 371.5,-55.5"/>
<text text-anchor="middle" x="420.5" y="-62.3" font-family="Helvetica,sans-Serif" font-size="9.00">PriorHessianError.h</text>
</a>
</g>
</g>
<!-- Node1&#45;&gt;Node12 -->
<g id="edge21" class="edge"><title>Node1&#45;&gt;Node12</title>
<path fill="none" stroke="midnightblue" d="M428.863,-295.34C427.162,-286.448 424.599,-271.779 423.5,-259 417.991,-194.92 419.043,-118.477 419.925,-83.9907"/>
<polygon fill="midnightblue" stroke="midnightblue" points="423.434,-83.7267 420.218,-73.6316 416.436,-83.5283 423.434,-83.7267"/>
</g>
<!-- Node19 -->
<g id="node19" class="node"><title>Node19</title>
<polygon fill="white" stroke="#bfbfbf" points="433,-235.5 433,-253.5 482,-253.5 482,-235.5 433,-235.5"/>
<text text-anchor="middle" x="457.5" y="-242.3" font-family="Helvetica,sans-Serif" font-size="9.00">sstream</text>
</g>
<!-- Node1&#45;&gt;Node19 -->
<g id="edge22" class="edge"><title>Node1&#45;&gt;Node19</title>
<path fill="none" stroke="midnightblue" d="M434.254,-295.435C438.119,-287.132 444.267,-273.927 449.269,-263.181"/>
<polygon fill="midnightblue" stroke="midnightblue" points="452.555,-264.415 453.603,-253.872 446.209,-261.46 452.555,-264.415"/>
</g>
<!-- Node20 -->
<g id="node20" class="node"><title>Node20</title>
<polygon fill="white" stroke="#bfbfbf" points="500.5,-235.5 500.5,-253.5 538.5,-253.5 538.5,-235.5 500.5,-235.5"/>
<text text-anchor="middle" x="519.5" y="-242.3" font-family="Helvetica,sans-Serif" font-size="9.00">limits</text>
</g>
<!-- Node1&#45;&gt;Node20 -->
<g id="edge24" class="edge"><title>Node1&#45;&gt;Node20</title>
<path fill="none" stroke="midnightblue" d="M442.875,-295.435C457.141,-286.138 480.84,-270.694 498.11,-259.439"/>
<polygon fill="midnightblue" stroke="midnightblue" points="500.476,-262.075 506.943,-253.683 496.654,-256.211 500.476,-262.075"/>
</g>
<!-- Node21 -->
<g id="node21" class="node"><title>Node21</title>
<polygon fill="white" stroke="#bfbfbf" points="557,-230.5 557,-258.5 654,-258.5 654,-230.5 557,-230.5"/>
<text text-anchor="start" x="565" y="-247.3" font-family="Helvetica,sans-Serif" font-size="9.00">boost/math/special</text>
<text text-anchor="middle" x="605.5" y="-237.3" font-family="Helvetica,sans-Serif" font-size="9.00">_functions/beta.hpp</text>
</g>
<!-- Node1&#45;&gt;Node21 -->
<g id="edge25" class="edge"><title>Node1&#45;&gt;Node21</title>
<path fill="none" stroke="midnightblue" d="M454.833,-295.435C481.075,-286.738 523.548,-272.661 556.72,-261.667"/>
<polygon fill="midnightblue" stroke="midnightblue" points="557.856,-264.978 566.247,-258.51 555.654,-258.333 557.856,-264.978"/>
</g>
<!-- Node2&#45;&gt;Node3 -->
<g id="edge2" class="edge"><title>Node2&#45;&gt;Node3</title>
<path fill="none" stroke="midnightblue" d="M139.942,-230.394C121.221,-222.229 99.141,-210.17 83.5,-194 52.0729,-161.509 33.4959,-110.299 25.3771,-83.3858"/>
<polygon fill="midnightblue" stroke="midnightblue" points="28.7363,-82.4026 22.6107,-73.7581 22.0085,-84.3358 28.7363,-82.4026"/>
</g>
<!-- Node4 -->
<g id="node4" class="node"><title>Node4</title>
<polygon fill="white" stroke="#bfbfbf" points="59.5,-55.5 59.5,-73.5 107.5,-73.5 107.5,-55.5 59.5,-55.5"/>
<text text-anchor="middle" x="83.5" y="-62.3" font-family="Helvetica,sans-Serif" font-size="9.00">random</text>
</g>
<!-- Node2&#45;&gt;Node4 -->
<g id="edge3" class="edge"><title>Node2&#45;&gt;Node4</title>
<path fill="none" stroke="midnightblue" d="M142.914,-230.433C126.811,-222.392 108.821,-210.434 98.5,-194 77.065,-159.868 78.3099,-110.449 80.9714,-83.9442"/>
<polygon fill="midnightblue" stroke="midnightblue" points="84.4715,-84.1502 82.177,-73.8068 77.5204,-83.3234 84.4715,-84.1502"/>
</g>
<!-- Node5 -->
<g id="node5" class="node"><title>Node5</title>
<polygon fill="white" stroke="#bfbfbf" points="263,-165.5 263,-193.5 376,-193.5 376,-165.5 263,-165.5"/>
<text text-anchor="start" x="271" y="-182.3" font-family="Helvetica,sans-Serif" font-size="9.00">boost/math/distributions</text>
<text text-anchor="middle" x="319.5" y="-172.3" font-family="Helvetica,sans-Serif" font-size="9.00">/beta.hpp</text>
</g>
<!-- Node2&#45;&gt;Node5 -->
<g id="edge4" class="edge"><title>Node2&#45;&gt;Node5</title>
<path fill="none" stroke="midnightblue" d="M206.13,-230.446C227.7,-220.943 257.12,-207.982 280.585,-197.644"/>
<polygon fill="midnightblue" stroke="midnightblue" points="282.168,-200.772 289.908,-193.537 279.346,-194.366 282.168,-200.772"/>
</g>
<!-- Node6 -->
<g id="node6" class="node"><title>Node6</title>
<g id="a_node6"><a xlink:href="UnivariateDist_8h.html" target="_top" xlink:title="UnivariateDist base class. ">
<polygon fill="white" stroke="black" points="108,-170.5 108,-188.5 245,-188.5 245,-170.5 108,-170.5"/>
<text text-anchor="middle" x="176.5" y="-177.3" font-family="Helvetica,sans-Serif" font-size="9.00">PriorHessian/UnivariateDist.h</text>
</a>
</g>
</g>
<!-- Node2&#45;&gt;Node6 -->
<g id="edge5" class="edge"><title>Node2&#45;&gt;Node6</title>
<path fill="none" stroke="midnightblue" d="M176.5,-230.446C176.5,-221.334 176.5,-209.041 176.5,-198.931"/>
<polygon fill="midnightblue" stroke="midnightblue" points="180,-198.73 176.5,-188.73 173,-198.73 180,-198.73"/>
</g>
<!-- Node7 -->
<g id="node7" class="node"><title>Node7</title>
<g id="a_node7"><a xlink:href="util_8h.html" target="_top" xlink:title="Utilities and namespace globals. ">
<polygon fill="white" stroke="black" points="241.5,-110.5 241.5,-128.5 333.5,-128.5 333.5,-110.5 241.5,-110.5"/>
<text text-anchor="middle" x="287.5" y="-117.3" font-family="Helvetica,sans-Serif" font-size="9.00">PriorHessian/util.h</text>
</a>
</g>
</g>
<!-- Node6&#45;&gt;Node7 -->
<g id="edge6" class="edge"><title>Node6&#45;&gt;Node7</title>
<path fill="none" stroke="midnightblue" d="M191.934,-170.435C210.303,-160.837 241.211,-144.687 262.891,-133.359"/>
<polygon fill="midnightblue" stroke="midnightblue" points="264.597,-136.416 271.839,-128.683 261.355,-130.212 264.597,-136.416"/>
</g>
<!-- Node14 -->
<g id="node14" class="node"><title>Node14</title>
<g id="a_node14"><a xlink:href="Meta_8h.html" target="_top" xlink:title="Enables the use of variadic templates in interesting ways. ">
<polygon fill="white" stroke="black" points="493.5,-110.5 493.5,-128.5 593.5,-128.5 593.5,-110.5 493.5,-110.5"/>
<text text-anchor="middle" x="543.5" y="-117.3" font-family="Helvetica,sans-Serif" font-size="9.00">PriorHessian/Meta.h</text>
</a>
</g>
</g>
<!-- Node6&#45;&gt;Node14 -->
<g id="edge16" class="edge"><title>Node6&#45;&gt;Node14</title>
<path fill="none" stroke="midnightblue" d="M221.261,-170.486C231.825,-168.641 243.054,-166.717 253.5,-165 332.802,-151.965 424.509,-138.095 483.208,-129.369"/>
<polygon fill="midnightblue" stroke="midnightblue" points="484.036,-132.785 493.414,-127.855 483.008,-125.861 484.036,-132.785"/>
</g>
<!-- Node18 -->
<g id="node18" class="node"><title>Node18</title>
<g id="a_node18"><a xlink:href="BaseDist_8h.html" target="_top" xlink:title="The Base classes for UnivariateDist and MultivariateDist. ">
<polygon fill="white" stroke="black" points="107.5,-110.5 107.5,-128.5 223.5,-128.5 223.5,-110.5 107.5,-110.5"/>
<text text-anchor="middle" x="165.5" y="-117.3" font-family="Helvetica,sans-Serif" font-size="9.00">PriorHessian/BaseDist.h</text>
</a>
</g>
</g>
<!-- Node6&#45;&gt;Node18 -->
<g id="edge20" class="edge"><title>Node6&#45;&gt;Node18</title>
<path fill="none" stroke="midnightblue" d="M174.97,-170.435C173.428,-162.304 170.994,-149.469 168.98,-138.848"/>
<polygon fill="midnightblue" stroke="midnightblue" points="172.39,-138.044 167.088,-128.872 165.512,-139.349 172.39,-138.044"/>
</g>
<!-- Node7&#45;&gt;Node3 -->
<g id="edge7" class="edge"><title>Node7&#45;&gt;Node3</title>
<path fill="none" stroke="midnightblue" d="M241.364,-111.109C195.568,-103.49 123.186,-90.6858 51.2392,-73.9822"/>
<polygon fill="midnightblue" stroke="midnightblue" points="51.6282,-70.4785 41.0929,-71.5995 50.0279,-77.2931 51.6282,-70.4785"/>
</g>
<!-- Node7&#45;&gt;Node4 -->
<g id="edge9" class="edge"><title>Node7&#45;&gt;Node4</title>
<path fill="none" stroke="midnightblue" d="M256.517,-110.45C219.068,-100.721 156.266,-84.4048 117.51,-74.3358"/>
<polygon fill="midnightblue" stroke="midnightblue" points="118.29,-70.9224 107.731,-71.7953 116.53,-77.6975 118.29,-70.9224"/>
</g>
<!-- Node8 -->
<g id="node8" class="node"><title>Node8</title>
<polygon fill="white" stroke="#bfbfbf" points="300,-0.5 300,-18.5 339,-18.5 339,-0.5 300,-0.5"/>
<text text-anchor="middle" x="319.5" y="-7.3" font-family="Helvetica,sans-Serif" font-size="9.00">string</text>
</g>
<!-- Node7&#45;&gt;Node8 -->
<g id="edge8" class="edge"><title>Node7&#45;&gt;Node8</title>
<path fill="none" stroke="midnightblue" d="M289.096,-110.186C291.525,-97.9648 296.505,-74.4886 302.5,-55 305.273,-45.9862 308.949,-36.1732 312.172,-28.0614"/>
<polygon fill="midnightblue" stroke="midnightblue" points="315.5,-29.1693 316.037,-18.588 309.019,-26.5255 315.5,-29.1693"/>
</g>
<!-- Node9 -->
<g id="node9" class="node"><title>Node9</title>
<polygon fill="white" stroke="#bfbfbf" points="312,-55.5 312,-73.5 353,-73.5 353,-55.5 312,-55.5"/>
<text text-anchor="middle" x="332.5" y="-62.3" font-family="Helvetica,sans-Serif" font-size="9.00">vector</text>
</g>
<!-- Node7&#45;&gt;Node9 -->
<g id="edge10" class="edge"><title>Node7&#45;&gt;Node9</title>
<path fill="none" stroke="midnightblue" d="M294.531,-110.219C301.108,-102.473 311.103,-90.7013 319.187,-81.1799"/>
<polygon fill="midnightblue" stroke="midnightblue" points="321.861,-83.4378 325.665,-73.5496 316.525,-78.9072 321.861,-83.4378"/>
</g>
<!-- Node10 -->
<g id="node10" class="node"><title>Node10</title>
<polygon fill="white" stroke="#bfbfbf" points="125.5,-55.5 125.5,-73.5 181.5,-73.5 181.5,-55.5 125.5,-55.5"/>
<text text-anchor="middle" x="153.5" y="-62.3" font-family="Helvetica,sans-Serif" font-size="9.00">typeindex</text>
</g>
<!-- Node7&#45;&gt;Node10 -->
<g id="edge11" class="edge"><title>Node7&#45;&gt;Node10</title>
<path fill="none" stroke="midnightblue" d="M267.148,-110.45C244.914,-101.656 209.072,-87.4802 183.588,-77.4006"/>
<polygon fill="midnightblue" stroke="midnightblue" points="184.63,-74.0487 174.043,-73.6253 182.055,-80.558 184.63,-74.0487"/>
</g>
<!-- Node11 -->
<g id="node11" class="node"><title>Node11</title>
<polygon fill="white" stroke="#bfbfbf" points="200,-55.5 200,-73.5 255,-73.5 255,-55.5 200,-55.5"/>
<text text-anchor="middle" x="227.5" y="-62.3" font-family="Helvetica,sans-Serif" font-size="9.00">armadillo</text>
</g>
<!-- Node7&#45;&gt;Node11 -->
<g id="edge12" class="edge"><title>Node7&#45;&gt;Node11</title>
<path fill="none" stroke="midnightblue" d="M278.387,-110.45C269.401,-102.512 255.45,-90.1891 244.427,-80.4519"/>
<polygon fill="midnightblue" stroke="midnightblue" points="246.51,-77.6225 236.698,-73.6253 241.876,-82.8689 246.51,-77.6225"/>
</g>
<!-- Node7&#45;&gt;Node12 -->
<g id="edge13" class="edge"><title>Node7&#45;&gt;Node12</title>
<path fill="none" stroke="midnightblue" d="M307.7,-110.45C329.768,-101.656 365.342,-87.4802 390.636,-77.4006"/>
<polygon fill="midnightblue" stroke="midnightblue" points="392.116,-80.5786 400.11,-73.6253 389.525,-74.0759 392.116,-80.5786"/>
</g>
<!-- Node12&#45;&gt;Node8 -->
<g id="edge15" class="edge"><title>Node12&#45;&gt;Node8</title>
<path fill="none" stroke="midnightblue" d="M405.16,-55.4504C388.921,-46.9286 363.05,-33.3532 343.985,-23.3487"/>
<polygon fill="midnightblue" stroke="midnightblue" points="345.465,-20.1728 334.984,-18.6253 342.213,-26.3712 345.465,-20.1728"/>
</g>
<!-- Node13 -->
<g id="node13" class="node"><title>Node13</title>
<polygon fill="white" stroke="#bfbfbf" points="392.5,-0.5 392.5,-18.5 448.5,-18.5 448.5,-0.5 392.5,-0.5"/>
<text text-anchor="middle" x="420.5" y="-7.3" font-family="Helvetica,sans-Serif" font-size="9.00">exception</text>
</g>
<!-- Node12&#45;&gt;Node13 -->
<g id="edge14" class="edge"><title>Node12&#45;&gt;Node13</title>
<path fill="none" stroke="midnightblue" d="M420.5,-55.2188C420.5,-48.1769 420.5,-37.8083 420.5,-28.8277"/>
<polygon fill="midnightblue" stroke="midnightblue" points="424,-28.5495 420.5,-18.5496 417,-28.5496 424,-28.5495"/>
</g>
<!-- Node15 -->
<g id="node15" class="node"><title>Node15</title>
<polygon fill="white" stroke="#bfbfbf" points="549.5,-55.5 549.5,-73.5 605.5,-73.5 605.5,-55.5 549.5,-55.5"/>
<text text-anchor="middle" x="577.5" y="-62.3" font-family="Helvetica,sans-Serif" font-size="9.00">functional</text>
</g>
<!-- Node14&#45;&gt;Node15 -->
<g id="edge17" class="edge"><title>Node14&#45;&gt;Node15</title>
<path fill="none" stroke="midnightblue" d="M548.812,-110.219C553.631,-102.707 560.878,-91.411 566.882,-82.0515"/>
<polygon fill="midnightblue" stroke="midnightblue" points="569.882,-83.8564 572.336,-73.5496 563.991,-80.0767 569.882,-83.8564"/>
</g>
<!-- Node16 -->
<g id="node16" class="node"><title>Node16</title>
<polygon fill="white" stroke="#bfbfbf" points="623.5,-55.5 623.5,-73.5 693.5,-73.5 693.5,-55.5 623.5,-55.5"/>
<text text-anchor="middle" x="658.5" y="-62.3" font-family="Helvetica,sans-Serif" font-size="9.00">initializer_list</text>
</g>
<!-- Node14&#45;&gt;Node16 -->
<g id="edge18" class="edge"><title>Node14&#45;&gt;Node16</title>
<path fill="none" stroke="midnightblue" d="M560.966,-110.45C579.71,-101.812 609.722,-87.9803 631.508,-77.9396"/>
<polygon fill="midnightblue" stroke="midnightblue" points="633.253,-80.9896 640.87,-73.6253 630.323,-74.6323 633.253,-80.9896"/>
</g>
<!-- Node17 -->
<g id="node17" class="node"><title>Node17</title>
<polygon fill="white" stroke="#bfbfbf" points="488,-55.5 488,-73.5 531,-73.5 531,-55.5 488,-55.5"/>
<text text-anchor="middle" x="509.5" y="-62.3" font-family="Helvetica,sans-Serif" font-size="9.00">cstdint</text>
</g>
<!-- Node14&#45;&gt;Node17 -->
<g id="edge19" class="edge"><title>Node14&#45;&gt;Node17</title>
<path fill="none" stroke="midnightblue" d="M538.188,-110.219C533.369,-102.707 526.122,-91.411 520.118,-82.0515"/>
<polygon fill="midnightblue" stroke="midnightblue" points="523.009,-80.0767 514.664,-73.5496 517.118,-83.8564 523.009,-80.0767"/>
</g>
</g>
</svg>
