<?xml version="1.0" encoding="UTF-8" standalone="no"?>
<!DOCTYPE svg PUBLIC "-//W3C//DTD SVG 1.1//EN"
 "http://www.w3.org/Graphics/SVG/1.1/DTD/svg11.dtd">
<!-- Generated by graphviz version 2.38.0 (20140413.2041)
 -->
<!-- Title: SymmetricBetaDist.h Pages: 1 -->
<svg width="268pt" height="82pt"
 viewBox="0.00 0.00 267.50 82.00" xmlns="http://www.w3.org/2000/svg" xmlns:xlink="http://www.w3.org/1999/xlink">
<g id="graph0" class="graph" transform="scale(1 1) rotate(0) translate(4 78)">
<title>SymmetricBetaDist.h</title>
<polygon fill="white" stroke="none" points="-4,4 -4,-78 263.5,-78 263.5,4 -4,4"/>
<!-- Node1 -->
<g id="node1" class="node"><title>Node1</title>
<polygon fill="#bfbfbf" stroke="black" points="74,-55.5 74,-73.5 175,-73.5 175,-55.5 74,-55.5"/>
<text text-anchor="middle" x="124.5" y="-62.3" font-family="Helvetica,sans-Serif" font-size="9.00">SymmetricBetaDist.h</text>
</g>
<!-- Node2 -->
<g id="node2" class="node"><title>Node2</title>
<g id="a_node2"><a xlink:href="SymmetricBetaDist_8cpp.html" target="_top" xlink:title="SymmetricBetaDist class defintion. ">
<polygon fill="white" stroke="black" points="0,-0.5 0,-18.5 111,-18.5 111,-0.5 0,-0.5"/>
<text text-anchor="middle" x="55.5" y="-7.3" font-family="Helvetica,sans-Serif" font-size="9.00">SymmetricBetaDist.cpp</text>
</a>
</g>
</g>
<!-- Node1&#45;&gt;Node2 -->
<g id="edge1" class="edge"><title>Node1&#45;&gt;Node2</title>
<path fill="none" stroke="midnightblue" d="M105.895,-49.2095C93.1313,-39.4052 76.6523,-26.7474 66.0782,-18.6253"/>
<polygon fill="midnightblue" stroke="midnightblue" points="103.958,-52.1345 114.02,-55.4504 108.222,-46.5832 103.958,-52.1345"/>
</g>
<!-- Node3 -->
<g id="node3" class="node"><title>Node3</title>
<g id="a_node3"><a xlink:href="ScaledSymmetricBetaDist_8h.html" target="_top" xlink:title="SymmetricBetaDist class declaration and templated methods. ">
<polygon fill="white" stroke="black" points="129.5,-0.5 129.5,-18.5 259.5,-18.5 259.5,-0.5 129.5,-0.5"/>
<text text-anchor="middle" x="194.5" y="-7.3" font-family="Helvetica,sans-Serif" font-size="9.00">ScaledSymmetricBetaDist.h</text>
</a>
</g>
</g>
<!-- Node1&#45;&gt;Node3 -->
<g id="edge2" class="edge"><title>Node1&#45;&gt;Node3</title>
<path fill="none" stroke="midnightblue" d="M143.374,-49.2095C156.323,-39.4052 173.041,-26.7474 183.768,-18.6253"/>
<polygon fill="midnightblue" stroke="midnightblue" points="140.991,-46.6236 135.131,-55.4504 145.217,-52.2044 140.991,-46.6236"/>
</g>
</g>
</svg>
