<?xml version="1.0" encoding="UTF-8" standalone="no"?>
<!DOCTYPE svg PUBLIC "-//W3C//DTD SVG 1.1//EN"
 "http://www.w3.org/Graphics/SVG/1.1/DTD/svg11.dtd">
<!-- Generated by graphviz version 2.38.0 (20140413.2041)
 -->
<!-- Title: SymmetricBetaDist.h Pages: 1 -->
<svg width="702pt" height="257pt"
 viewBox="0.00 0.00 701.50 257.00" xmlns="http://www.w3.org/2000/svg" xmlns:xlink="http://www.w3.org/1999/xlink">
<g id="graph0" class="graph" transform="scale(1 1) rotate(0) translate(4 253)">
<title>SymmetricBetaDist.h</title>
<polygon fill="white" stroke="none" points="-4,4 -4,-253 697.5,-253 697.5,4 -4,4"/>
<!-- Node1 -->
<g id="node1" class="node"><title>Node1</title>
<polygon fill="#bfbfbf" stroke="black" points="114,-230.5 114,-248.5 215,-248.5 215,-230.5 114,-230.5"/>
<text text-anchor="middle" x="164.5" y="-237.3" font-family="Helvetica,sans-Serif" font-size="9.00">SymmetricBetaDist.h</text>
</g>
<!-- Node2 -->
<g id="node2" class="node"><title>Node2</title>
<polygon fill="white" stroke="#bfbfbf" points="0,-55.5 0,-73.5 41,-73.5 41,-55.5 0,-55.5"/>
<text text-anchor="middle" x="20.5" y="-62.3" font-family="Helvetica,sans-Serif" font-size="9.00">cmath</text>
</g>
<!-- Node1&#45;&gt;Node2 -->
<g id="edge1" class="edge"><title>Node1&#45;&gt;Node2</title>
<path fill="none" stroke="midnightblue" d="M155.521,-230.302C146.176,-221.615 131.286,-207.338 119.5,-194 85.6018,-155.639 49.9282,-106.967 32.0919,-81.9679"/>
<polygon fill="midnightblue" stroke="midnightblue" points="34.8096,-79.7496 26.1702,-73.6168 29.0995,-83.7987 34.8096,-79.7496"/>
</g>
<!-- Node3 -->
<g id="node3" class="node"><title>Node3</title>
<polygon fill="white" stroke="#bfbfbf" points="59.5,-55.5 59.5,-73.5 107.5,-73.5 107.5,-55.5 59.5,-55.5"/>
<text text-anchor="middle" x="83.5" y="-62.3" font-family="Helvetica,sans-Serif" font-size="9.00">random</text>
</g>
<!-- Node1&#45;&gt;Node3 -->
<g id="edge2" class="edge"><title>Node1&#45;&gt;Node3</title>
<path fill="none" stroke="midnightblue" d="M158.437,-230.263C152.189,-221.546 142.412,-207.243 135.5,-194 115.615,-155.901 98.1692,-108.428 89.4356,-83.1976"/>
<polygon fill="midnightblue" stroke="midnightblue" points="92.69,-81.8965 86.1511,-73.5602 86.0642,-84.1547 92.69,-81.8965"/>
</g>
<!-- Node4 -->
<g id="node4" class="node"><title>Node4</title>
<polygon fill="white" stroke="#bfbfbf" points="300,-165.5 300,-193.5 413,-193.5 413,-165.5 300,-165.5"/>
<text text-anchor="start" x="308" y="-182.3" font-family="Helvetica,sans-Serif" font-size="9.00">boost/math/distributions</text>
<text text-anchor="middle" x="356.5" y="-172.3" font-family="Helvetica,sans-Serif" font-size="9.00">/beta.hpp</text>
</g>
<!-- Node1&#45;&gt;Node4 -->
<g id="edge3" class="edge"><title>Node1&#45;&gt;Node4</title>
<path fill="none" stroke="midnightblue" d="M191.197,-230.435C220.111,-221.701 266.987,-207.54 303.449,-196.526"/>
<polygon fill="midnightblue" stroke="midnightblue" points="304.873,-199.752 313.434,-193.51 302.849,-193.051 304.873,-199.752"/>
</g>
<!-- Node5 -->
<g id="node5" class="node"><title>Node5</title>
<g id="a_node5"><a xlink:href="UnivariateDist_8h.html" target="_top" xlink:title="UnivariateDist base class. ">
<polygon fill="white" stroke="black" points="145,-170.5 145,-188.5 282,-188.5 282,-170.5 145,-170.5"/>
<text text-anchor="middle" x="213.5" y="-177.3" font-family="Helvetica,sans-Serif" font-size="9.00">PriorHessian/UnivariateDist.h</text>
</a>
</g>
</g>
<!-- Node1&#45;&gt;Node5 -->
<g id="edge4" class="edge"><title>Node1&#45;&gt;Node5</title>
<path fill="none" stroke="midnightblue" d="M171.313,-230.435C178.689,-221.704 190.646,-207.552 199.949,-196.54"/>
<polygon fill="midnightblue" stroke="midnightblue" points="202.647,-198.769 206.427,-188.872 197.3,-194.252 202.647,-198.769"/>
</g>
<!-- Node6 -->
<g id="node6" class="node"><title>Node6</title>
<g id="a_node6"><a xlink:href="util_8h.html" target="_top" xlink:title="Utilities and namespace globals. ">
<polygon fill="white" stroke="black" points="167.5,-110.5 167.5,-128.5 259.5,-128.5 259.5,-110.5 167.5,-110.5"/>
<text text-anchor="middle" x="213.5" y="-117.3" font-family="Helvetica,sans-Serif" font-size="9.00">PriorHessian/util.h</text>
</a>
</g>
</g>
<!-- Node5&#45;&gt;Node6 -->
<g id="edge5" class="edge"><title>Node5&#45;&gt;Node6</title>
<path fill="none" stroke="midnightblue" d="M213.5,-170.435C213.5,-162.389 213.5,-149.739 213.5,-139.185"/>
<polygon fill="midnightblue" stroke="midnightblue" points="217,-138.872 213.5,-128.872 210,-138.872 217,-138.872"/>
</g>
<!-- Node13 -->
<g id="node13" class="node"><title>Node13</title>
<g id="a_node13"><a xlink:href="Meta_8h.html" target="_top" xlink:title="Enables the use of variadic templates in interesting ways. ">
<polygon fill="white" stroke="black" points="459.5,-110.5 459.5,-128.5 559.5,-128.5 559.5,-110.5 459.5,-110.5"/>
<text text-anchor="middle" x="509.5" y="-117.3" font-family="Helvetica,sans-Serif" font-size="9.00">PriorHessian/Meta.h</text>
</a>
</g>
</g>
<!-- Node5&#45;&gt;Node13 -->
<g id="edge15" class="edge"><title>Node5&#45;&gt;Node13</title>
<path fill="none" stroke="midnightblue" d="M254.347,-170.496C307.609,-160.06 400.776,-141.804 458.584,-130.477"/>
<polygon fill="midnightblue" stroke="midnightblue" points="459.457,-133.872 468.597,-128.515 458.111,-127.003 459.457,-133.872"/>
</g>
<!-- Node17 -->
<g id="node17" class="node"><title>Node17</title>
<g id="a_node17"><a xlink:href="BaseDist_8h.html" target="_top" xlink:title="The Base class for UnivariateDist and MultivariateDist. ">
<polygon fill="white" stroke="black" points="577.5,-110.5 577.5,-128.5 693.5,-128.5 693.5,-110.5 577.5,-110.5"/>
<text text-anchor="middle" x="635.5" y="-117.3" font-family="Helvetica,sans-Serif" font-size="9.00">PriorHessian/BaseDist.h</text>
</a>
</g>
</g>
<!-- Node5&#45;&gt;Node17 -->
<g id="edge19" class="edge"><title>Node5&#45;&gt;Node17</title>
<path fill="none" stroke="midnightblue" d="M257.42,-170.446C268.221,-168.563 279.766,-166.632 290.5,-165 303.997,-162.947 470.601,-141.587 567.253,-129.222"/>
<polygon fill="midnightblue" stroke="midnightblue" points="567.767,-132.685 577.242,-127.945 566.879,-125.742 567.767,-132.685"/>
</g>
<!-- Node6&#45;&gt;Node2 -->
<g id="edge6" class="edge"><title>Node6&#45;&gt;Node2</title>
<path fill="none" stroke="midnightblue" d="M183.733,-110.465C152.952,-102.137 103.25,-88.6328 50.9428,-74.1028"/>
<polygon fill="midnightblue" stroke="midnightblue" points="51.7217,-70.6866 41.1495,-71.3788 49.8458,-77.4306 51.7217,-70.6866"/>
</g>
<!-- Node6&#45;&gt;Node3 -->
<g id="edge8" class="edge"><title>Node6&#45;&gt;Node3</title>
<path fill="none" stroke="midnightblue" d="M193.756,-110.45C172.185,-101.656 137.414,-87.4802 112.69,-77.4006"/>
<polygon fill="midnightblue" stroke="midnightblue" points="114.011,-74.1596 103.43,-73.6253 111.369,-80.6416 114.011,-74.1596"/>
</g>
<!-- Node7 -->
<g id="node7" class="node"><title>Node7</title>
<polygon fill="white" stroke="#bfbfbf" points="330,-0.5 330,-18.5 369,-18.5 369,-0.5 330,-0.5"/>
<text text-anchor="middle" x="349.5" y="-7.3" font-family="Helvetica,sans-Serif" font-size="9.00">string</text>
</g>
<!-- Node6&#45;&gt;Node7 -->
<g id="edge7" class="edge"><title>Node6&#45;&gt;Node7</title>
<path fill="none" stroke="midnightblue" d="M253.686,-110.43C276.669,-103.991 304.596,-92.8244 323.5,-74 335.889,-61.6632 342.618,-42.6009 346.105,-28.5794"/>
<polygon fill="midnightblue" stroke="midnightblue" points="349.562,-29.1536 348.253,-18.6399 342.72,-27.6751 349.562,-29.1536"/>
</g>
<!-- Node8 -->
<g id="node8" class="node"><title>Node8</title>
<polygon fill="white" stroke="#bfbfbf" points="126,-55.5 126,-73.5 167,-73.5 167,-55.5 126,-55.5"/>
<text text-anchor="middle" x="146.5" y="-62.3" font-family="Helvetica,sans-Serif" font-size="9.00">vector</text>
</g>
<!-- Node6&#45;&gt;Node8 -->
<g id="edge9" class="edge"><title>Node6&#45;&gt;Node8</title>
<path fill="none" stroke="midnightblue" d="M203.324,-110.45C193.092,-102.357 177.098,-89.7042 164.681,-79.8822"/>
<polygon fill="midnightblue" stroke="midnightblue" points="166.786,-77.0844 156.772,-73.6253 162.443,-82.5744 166.786,-77.0844"/>
</g>
<!-- Node9 -->
<g id="node9" class="node"><title>Node9</title>
<polygon fill="white" stroke="#bfbfbf" points="185.5,-55.5 185.5,-73.5 241.5,-73.5 241.5,-55.5 185.5,-55.5"/>
<text text-anchor="middle" x="213.5" y="-62.3" font-family="Helvetica,sans-Serif" font-size="9.00">typeindex</text>
</g>
<!-- Node6&#45;&gt;Node9 -->
<g id="edge10" class="edge"><title>Node6&#45;&gt;Node9</title>
<path fill="none" stroke="midnightblue" d="M213.5,-110.219C213.5,-103.177 213.5,-92.8083 213.5,-83.8277"/>
<polygon fill="midnightblue" stroke="midnightblue" points="217,-83.5495 213.5,-73.5496 210,-83.5496 217,-83.5495"/>
</g>
<!-- Node10 -->
<g id="node10" class="node"><title>Node10</title>
<polygon fill="white" stroke="#bfbfbf" points="260,-55.5 260,-73.5 315,-73.5 315,-55.5 260,-55.5"/>
<text text-anchor="middle" x="287.5" y="-62.3" font-family="Helvetica,sans-Serif" font-size="9.00">armadillo</text>
</g>
<!-- Node6&#45;&gt;Node10 -->
<g id="edge11" class="edge"><title>Node6&#45;&gt;Node10</title>
<path fill="none" stroke="midnightblue" d="M224.739,-110.45C236.148,-102.279 254.046,-89.4604 267.814,-79.5996"/>
<polygon fill="midnightblue" stroke="midnightblue" points="270.063,-82.2936 276.155,-73.6253 265.987,-76.6027 270.063,-82.2936"/>
</g>
<!-- Node11 -->
<g id="node11" class="node"><title>Node11</title>
<g id="a_node11"><a xlink:href="PriorHessianError_8h.html" target="_top" xlink:title="The Exception classes for the PriorHessian library. ">
<polygon fill="white" stroke="black" points="371.5,-55.5 371.5,-73.5 469.5,-73.5 469.5,-55.5 371.5,-55.5"/>
<text text-anchor="middle" x="420.5" y="-62.3" font-family="Helvetica,sans-Serif" font-size="9.00">PriorHessianError.h</text>
</a>
</g>
</g>
<!-- Node6&#45;&gt;Node11 -->
<g id="edge12" class="edge"><title>Node6&#45;&gt;Node11</title>
<path fill="none" stroke="midnightblue" d="M244.939,-110.45C280.834,-101.26 339.686,-86.1916 379.242,-76.0637"/>
<polygon fill="midnightblue" stroke="midnightblue" points="380.286,-79.4094 389.105,-73.5383 378.549,-72.6281 380.286,-79.4094"/>
</g>
<!-- Node11&#45;&gt;Node7 -->
<g id="edge14" class="edge"><title>Node11&#45;&gt;Node7</title>
<path fill="none" stroke="midnightblue" d="M409.717,-55.4504C398.874,-47.3566 381.924,-34.7042 368.767,-24.8822"/>
<polygon fill="midnightblue" stroke="midnightblue" points="370.492,-21.8025 360.385,-18.6253 366.305,-27.412 370.492,-21.8025"/>
</g>
<!-- Node12 -->
<g id="node12" class="node"><title>Node12</title>
<polygon fill="white" stroke="#bfbfbf" points="392.5,-0.5 392.5,-18.5 448.5,-18.5 448.5,-0.5 392.5,-0.5"/>
<text text-anchor="middle" x="420.5" y="-7.3" font-family="Helvetica,sans-Serif" font-size="9.00">exception</text>
</g>
<!-- Node11&#45;&gt;Node12 -->
<g id="edge13" class="edge"><title>Node11&#45;&gt;Node12</title>
<path fill="none" stroke="midnightblue" d="M420.5,-55.2188C420.5,-48.1769 420.5,-37.8083 420.5,-28.8277"/>
<polygon fill="midnightblue" stroke="midnightblue" points="424,-28.5495 420.5,-18.5496 417,-28.5496 424,-28.5495"/>
</g>
<!-- Node14 -->
<g id="node14" class="node"><title>Node14</title>
<polygon fill="white" stroke="#bfbfbf" points="549.5,-55.5 549.5,-73.5 605.5,-73.5 605.5,-55.5 549.5,-55.5"/>
<text text-anchor="middle" x="577.5" y="-62.3" font-family="Helvetica,sans-Serif" font-size="9.00">functional</text>
</g>
<!-- Node13&#45;&gt;Node14 -->
<g id="edge16" class="edge"><title>Node13&#45;&gt;Node14</title>
<path fill="none" stroke="midnightblue" d="M519.828,-110.45C530.212,-102.357 546.446,-89.7042 559.047,-79.8822"/>
<polygon fill="midnightblue" stroke="midnightblue" points="561.339,-82.5333 567.075,-73.6253 557.036,-77.0122 561.339,-82.5333"/>
</g>
<!-- Node15 -->
<g id="node15" class="node"><title>Node15</title>
<polygon fill="white" stroke="#bfbfbf" points="623.5,-55.5 623.5,-73.5 693.5,-73.5 693.5,-55.5 623.5,-55.5"/>
<text text-anchor="middle" x="658.5" y="-62.3" font-family="Helvetica,sans-Serif" font-size="9.00">initializer_list</text>
</g>
<!-- Node13&#45;&gt;Node15 -->
<g id="edge17" class="edge"><title>Node13&#45;&gt;Node15</title>
<path fill="none" stroke="midnightblue" d="M532.13,-110.45C557.181,-101.539 597.767,-87.1029 626.166,-77.0014"/>
<polygon fill="midnightblue" stroke="midnightblue" points="627.408,-80.2743 635.657,-73.6253 625.062,-73.6791 627.408,-80.2743"/>
</g>
<!-- Node16 -->
<g id="node16" class="node"><title>Node16</title>
<polygon fill="white" stroke="#bfbfbf" points="488,-55.5 488,-73.5 531,-73.5 531,-55.5 488,-55.5"/>
<text text-anchor="middle" x="509.5" y="-62.3" font-family="Helvetica,sans-Serif" font-size="9.00">cstdint</text>
</g>
<!-- Node13&#45;&gt;Node16 -->
<g id="edge18" class="edge"><title>Node13&#45;&gt;Node16</title>
<path fill="none" stroke="midnightblue" d="M509.5,-110.219C509.5,-103.177 509.5,-92.8083 509.5,-83.8277"/>
<polygon fill="midnightblue" stroke="midnightblue" points="513,-83.5495 509.5,-73.5496 506,-83.5496 513,-83.5495"/>
</g>
</g>
</svg>
