<?xml version="1.0" encoding="UTF-8" standalone="no"?>
<!DOCTYPE svg PUBLIC "-//W3C//DTD SVG 1.1//EN"
 "http://www.w3.org/Graphics/SVG/1.1/DTD/svg11.dtd">
<!-- Generated by graphviz version 2.38.0 (20140413.2041)
 -->
<!-- Title: TruncatedMultivariateDist.h Pages: 1 -->
<!--zoomable 202 -->
<svg id="main" version="1.1" xmlns="http://www.w3.org/2000/svg" xmlns:xlink="http://www.w3.org/1999/xlink" xml:space="preserve" onload="init(evt)">
<style type="text/css"><![CDATA[
.edge:hover path { stroke: red; }
.edge:hover polygon { stroke: red; fill: red; }
]]></style>
<script type="text/javascript"><![CDATA[
var edges = document.getElementsByTagName('g');
if (edges && edges.length) {
  for (var i=0;i<edges.length;i++) {
    if (edges[i].id.substr(0,4)=='edge') {
      edges[i].setAttribute('class','edge');
    }
  }
}
]]></script>
        <defs>
                <circle id="rim" cx="0" cy="0" r="7"/>
                <circle id="rim2" cx="0" cy="0" r="3.5"/>
                <g id="zoomPlus">
                        <use xlink:href="#rim" fill="#404040">
                                <set attributeName="fill" to="#808080" begin="zoomplus.mouseover" end="zoomplus.mouseout"/>
                        </use>
                        <path d="M-4,0h8M0,-4v8" fill="none" stroke="white" stroke-width="1.5" pointer-events="none"/>
                </g>
                <g id="zoomMin">
                        <use xlink:href="#rim" fill="#404040">
                                <set attributeName="fill" to="#808080" begin="zoomminus.mouseover" end="zoomminus.mouseout"/>
                        </use>
                        <path d="M-4,0h8" fill="none" stroke="white" stroke-width="1.5" pointer-events="none"/>
                </g>
                <g id="dirArrow">
                        <path fill="none" stroke="white" stroke-width="1.5" d="M0,-3.0v7 M-2.5,-0.5L0,-3.0L2.5,-0.5"/>
                </g>
               <g id="resetDef">
                       <use xlink:href="#rim2" fill="#404040">
                               <set attributeName="fill" to="#808080" begin="reset.mouseover" end="reset.mouseout"/>
                       </use>
               </g>
        </defs>

<script type="text/javascript">
var viewWidth = 575;
var viewHeight = 202;
var sectionId = 'dynsection-0';
</script>
<script xlink:href="svgpan.js"/>
<svg id="graph" class="graph">
<g id="viewport">
<title>TruncatedMultivariateDist.h</title>
<polygon fill="white" stroke="none" points="-4,4 -4,-198 571,-198 571,4 -4,4"/>
<!-- Node1 -->
<g id="node1" class="node"><title>Node1</title>
<polygon fill="#bfbfbf" stroke="black" points="122.5,-175.5 122.5,-193.5 250.5,-193.5 250.5,-175.5 122.5,-175.5"/>
<text text-anchor="middle" x="186.5" y="-182.3" font-family="Helvetica,sans-Serif" font-size="9.00">TruncatedMultivariateDist.h</text>
</g>
<!-- Node2 -->
<g id="node2" class="node"><title>Node2</title>
<polygon fill="white" stroke="#bfbfbf" points="0,-115.5 0,-133.5 41,-133.5 41,-115.5 0,-115.5"/>
<text text-anchor="middle" x="20.5" y="-122.3" font-family="Helvetica,sans-Serif" font-size="9.00">cmath</text>
</g>
<!-- Node1&#45;&gt;Node2 -->
<g id="edge1" class="edge"><title>Node1&#45;&gt;Node2</title>
<path fill="none" stroke="midnightblue" d="M159.106,-175.477C131.424,-167.15 87.5654,-153.357 50.5,-139 49.3017,-138.536 48.0823,-138.049 46.8547,-137.547"/>
<polygon fill="midnightblue" stroke="midnightblue" points="48.0701,-134.26 37.5005,-133.529 45.3072,-140.692 48.0701,-134.26"/>
</g>
<!-- Node3 -->
<g id="node3" class="node"><title>Node3</title>
<polygon fill="white" stroke="#bfbfbf" points="59.5,-115.5 59.5,-133.5 97.5,-133.5 97.5,-115.5 59.5,-115.5"/>
<text text-anchor="middle" x="78.5" y="-122.3" font-family="Helvetica,sans-Serif" font-size="9.00">bitset</text>
</g>
<!-- Node1&#45;&gt;Node3 -->
<g id="edge2" class="edge"><title>Node1&#45;&gt;Node3</title>
<path fill="none" stroke="midnightblue" d="M171.483,-175.435C153.69,-165.88 123.807,-149.832 102.728,-138.511"/>
<polygon fill="midnightblue" stroke="midnightblue" points="104.203,-135.331 93.7376,-133.683 100.892,-141.498 104.203,-135.331"/>
</g>
<!-- Node4 -->
<g id="node4" class="node"><title>Node4</title>
<polygon fill="white" stroke="#bfbfbf" points="116,-115.5 116,-133.5 157,-133.5 157,-115.5 116,-115.5"/>
<text text-anchor="middle" x="136.5" y="-122.3" font-family="Helvetica,sans-Serif" font-size="9.00">mutex</text>
</g>
<!-- Node1&#45;&gt;Node4 -->
<g id="edge3" class="edge"><title>Node1&#45;&gt;Node4</title>
<path fill="none" stroke="midnightblue" d="M179.548,-175.435C172.021,-166.704 159.821,-152.552 150.327,-141.54"/>
<polygon fill="midnightblue" stroke="midnightblue" points="152.897,-139.161 143.717,-133.872 147.596,-143.731 152.897,-139.161"/>
</g>
<!-- Node5 -->
<g id="node5" class="node"><title>Node5</title>
<g id="a_node5"><a xlink:href="Meta_8h.html" target="_top" xlink:title="Enables the use of variadic templates in interesting ways. ">
<polygon fill="white" stroke="black" points="278.5,-55.5 278.5,-73.5 378.5,-73.5 378.5,-55.5 278.5,-55.5"/>
<text text-anchor="middle" x="328.5" y="-62.3" font-family="Helvetica,sans-Serif" font-size="9.00">PriorHessian/Meta.h</text>
</a>
</g>
</g>
<!-- Node1&#45;&gt;Node5 -->
<g id="edge4" class="edge"><title>Node1&#45;&gt;Node5</title>
<path fill="none" stroke="midnightblue" d="M241.341,-175.45C265.317,-169.256 291.924,-158.315 309.5,-139 323.194,-123.952 327.281,-100.325 328.369,-83.9377"/>
<polygon fill="midnightblue" stroke="midnightblue" points="331.866,-84.0617 328.723,-73.9439 324.871,-83.8135 331.866,-84.0617"/>
</g>
<!-- Node9 -->
<g id="node9" class="node"><title>Node9</title>
<g id="a_node9"><a xlink:href="PriorHessianError_8h.html" target="_top" xlink:title="The Exception classes for the PriorHessian library. ">
<polygon fill="white" stroke="black" points="175,-110.5 175,-138.5 300,-138.5 300,-110.5 175,-110.5"/>
<text text-anchor="start" x="183" y="-127.3" font-family="Helvetica,sans-Serif" font-size="9.00">PriorHessian/PriorHessian</text>
<text text-anchor="middle" x="237.5" y="-117.3" font-family="Helvetica,sans-Serif" font-size="9.00">Error.h</text>
</a>
</g>
</g>
<!-- Node1&#45;&gt;Node9 -->
<g id="edge8" class="edge"><title>Node1&#45;&gt;Node9</title>
<path fill="none" stroke="midnightblue" d="M193.591,-175.435C200.157,-167.969 210.208,-156.538 219.038,-146.496"/>
<polygon fill="midnightblue" stroke="midnightblue" points="221.793,-148.664 225.768,-138.843 216.536,-144.041 221.793,-148.664"/>
</g>
<!-- Node12 -->
<g id="node12" class="node"><title>Node12</title>
<g id="a_node12"><a xlink:href="BoundsAdaptedDist_8h.html" target="_top" xlink:title="Functions and type&#45;traits to enable easy wrapping of distributions in bounds&#45;modifiable adapters...">
<polygon fill="white" stroke="black" points="356.5,-110.5 356.5,-138.5 494.5,-138.5 494.5,-110.5 356.5,-110.5"/>
<text text-anchor="start" x="364.5" y="-127.3" font-family="Helvetica,sans-Serif" font-size="9.00">PriorHessian/BoundsAdapted</text>
<text text-anchor="middle" x="425.5" y="-117.3" font-family="Helvetica,sans-Serif" font-size="9.00">Dist.h</text>
</a>
</g>
</g>
<!-- Node1&#45;&gt;Node12 -->
<g id="edge11" class="edge"><title>Node1&#45;&gt;Node12</title>
<path fill="none" stroke="midnightblue" d="M219.732,-175.435C256.417,-166.533 316.327,-151.994 362.067,-140.894"/>
<polygon fill="midnightblue" stroke="midnightblue" points="362.999,-144.269 371.892,-138.51 361.348,-137.467 362.999,-144.269"/>
</g>
<!-- Node6 -->
<g id="node6" class="node"><title>Node6</title>
<polygon fill="white" stroke="#bfbfbf" points="219.5,-0.5 219.5,-18.5 275.5,-18.5 275.5,-0.5 219.5,-0.5"/>
<text text-anchor="middle" x="247.5" y="-7.3" font-family="Helvetica,sans-Serif" font-size="9.00">functional</text>
</g>
<!-- Node5&#45;&gt;Node6 -->
<g id="edge5" class="edge"><title>Node5&#45;&gt;Node6</title>
<path fill="none" stroke="midnightblue" d="M316.198,-55.4504C303.59,-47.201 283.745,-34.2158 268.619,-24.3187"/>
<polygon fill="midnightblue" stroke="midnightblue" points="270.202,-21.1719 259.918,-18.6253 266.369,-27.0294 270.202,-21.1719"/>
</g>
<!-- Node7 -->
<g id="node7" class="node"><title>Node7</title>
<polygon fill="white" stroke="#bfbfbf" points="293.5,-0.5 293.5,-18.5 363.5,-18.5 363.5,-0.5 293.5,-0.5"/>
<text text-anchor="middle" x="328.5" y="-7.3" font-family="Helvetica,sans-Serif" font-size="9.00">initializer_list</text>
</g>
<!-- Node5&#45;&gt;Node7 -->
<g id="edge6" class="edge"><title>Node5&#45;&gt;Node7</title>
<path fill="none" stroke="midnightblue" d="M328.5,-55.2188C328.5,-48.1769 328.5,-37.8083 328.5,-28.8277"/>
<polygon fill="midnightblue" stroke="midnightblue" points="332,-28.5495 328.5,-18.5496 325,-28.5496 332,-28.5495"/>
</g>
<!-- Node8 -->
<g id="node8" class="node"><title>Node8</title>
<polygon fill="white" stroke="#bfbfbf" points="382,-0.5 382,-18.5 425,-18.5 425,-0.5 382,-0.5"/>
<text text-anchor="middle" x="403.5" y="-7.3" font-family="Helvetica,sans-Serif" font-size="9.00">cstdint</text>
</g>
<!-- Node5&#45;&gt;Node8 -->
<g id="edge7" class="edge"><title>Node5&#45;&gt;Node8</title>
<path fill="none" stroke="midnightblue" d="M339.891,-55.4504C351.455,-47.2788 369.594,-34.4604 383.548,-24.5996"/>
<polygon fill="midnightblue" stroke="midnightblue" points="385.855,-27.2548 392.002,-18.6253 381.815,-21.5381 385.855,-27.2548"/>
</g>
<!-- Node10 -->
<g id="node10" class="node"><title>Node10</title>
<polygon fill="white" stroke="#bfbfbf" points="145.5,-55.5 145.5,-73.5 201.5,-73.5 201.5,-55.5 145.5,-55.5"/>
<text text-anchor="middle" x="173.5" y="-62.3" font-family="Helvetica,sans-Serif" font-size="9.00">exception</text>
</g>
<!-- Node9&#45;&gt;Node10 -->
<g id="edge9" class="edge"><title>Node9&#45;&gt;Node10</title>
<path fill="none" stroke="midnightblue" d="M222.977,-110.339C213.2,-101.478 200.281,-89.7705 190.097,-80.5407"/>
<polygon fill="midnightblue" stroke="midnightblue" points="192.387,-77.8932 182.627,-73.7715 187.687,-83.0802 192.387,-77.8932"/>
</g>
<!-- Node11 -->
<g id="node11" class="node"><title>Node11</title>
<polygon fill="white" stroke="#bfbfbf" points="220,-55.5 220,-73.5 259,-73.5 259,-55.5 220,-55.5"/>
<text text-anchor="middle" x="239.5" y="-62.3" font-family="Helvetica,sans-Serif" font-size="9.00">string</text>
</g>
<!-- Node9&#45;&gt;Node11 -->
<g id="edge10" class="edge"><title>Node9&#45;&gt;Node11</title>
<path fill="none" stroke="midnightblue" d="M237.954,-110.339C238.223,-102.531 238.569,-92.5122 238.865,-83.9265"/>
<polygon fill="midnightblue" stroke="midnightblue" points="242.368,-83.8862 239.215,-73.7715 235.372,-83.6449 242.368,-83.8862"/>
</g>
<!-- Node12&#45;&gt;Node5 -->
<g id="edge15" class="edge"><title>Node12&#45;&gt;Node5</title>
<path fill="none" stroke="midnightblue" d="M403.489,-110.339C387.696,-100.895 366.497,-88.2196 350.667,-78.7548"/>
<polygon fill="midnightblue" stroke="midnightblue" points="352.429,-75.7299 342.05,-73.6018 348.836,-81.7378 352.429,-75.7299"/>
</g>
<!-- Node13 -->
<g id="node13" class="node"><title>Node13</title>
<polygon fill="white" stroke="#bfbfbf" points="396.5,-55.5 396.5,-73.5 434.5,-73.5 434.5,-55.5 396.5,-55.5"/>
<text text-anchor="middle" x="415.5" y="-62.3" font-family="Helvetica,sans-Serif" font-size="9.00">utility</text>
</g>
<!-- Node12&#45;&gt;Node13 -->
<g id="edge12" class="edge"><title>Node12&#45;&gt;Node13</title>
<path fill="none" stroke="midnightblue" d="M423.231,-110.339C421.869,-102.443 420.118,-92.2868 418.627,-83.6376"/>
<polygon fill="midnightblue" stroke="midnightblue" points="422.074,-83.0314 416.926,-73.7715 415.176,-84.2208 422.074,-83.0314"/>
</g>
<!-- Node14 -->
<g id="node14" class="node"><title>Node14</title>
<polygon fill="white" stroke="#bfbfbf" points="453,-55.5 453,-73.5 490,-73.5 490,-55.5 453,-55.5"/>
<text text-anchor="middle" x="471.5" y="-62.3" font-family="Helvetica,sans-Serif" font-size="9.00">tuple</text>
</g>
<!-- Node12&#45;&gt;Node14 -->
<g id="edge13" class="edge"><title>Node12&#45;&gt;Node14</title>
<path fill="none" stroke="midnightblue" d="M435.938,-110.339C442.688,-101.829 451.519,-90.6933 458.692,-81.6486"/>
<polygon fill="midnightblue" stroke="midnightblue" points="461.468,-83.7814 464.94,-73.7715 455.984,-79.4316 461.468,-83.7814"/>
</g>
<!-- Node15 -->
<g id="node15" class="node"><title>Node15</title>
<polygon fill="white" stroke="#bfbfbf" points="508,-55.5 508,-73.5 567,-73.5 567,-55.5 508,-55.5"/>
<text text-anchor="middle" x="537.5" y="-62.3" font-family="Helvetica,sans-Serif" font-size="9.00">type_traits</text>
</g>
<!-- Node12&#45;&gt;Node15 -->
<g id="edge14" class="edge"><title>Node12&#45;&gt;Node15</title>
<path fill="none" stroke="midnightblue" d="M450.635,-110.484C469.198,-100.87 494.342,-87.8495 512.801,-78.2903"/>
<polygon fill="midnightblue" stroke="midnightblue" points="514.504,-81.35 521.775,-73.6434 511.285,-75.134 514.504,-81.35"/>
</g>
</g>
</svg>
        <g id="navigator" transform="translate(0 0)" fill="#404254">
                <rect fill="#f2f5e9" fill-opacity="0.5" stroke="#606060" stroke-width=".5" x="0" y="0" width="60" height="60"/>
                <use id="zoomplus" xlink:href="#zoomPlus" x="17" y="9" onmousedown="handleZoom(evt,'in')"/>
                <use id="zoomminus" xlink:href="#zoomMin" x="42" y="9" onmousedown="handleZoom(evt,'out')"/>
                <use id="reset" xlink:href="#resetDef" x="30" y="36" onmousedown="handleReset()"/>
                <g id="arrowUp" xlink:href="#dirArrow" transform="translate(30 24)" onmousedown="handlePan(0,-1)">
                  <use xlink:href="#rim" fill="#404040">
                        <set attributeName="fill" to="#808080" begin="arrowUp.mouseover" end="arrowUp.mouseout"/>
                  </use>
                  <path fill="none" stroke="white" stroke-width="1.5" d="M0,-3.0v7 M-2.5,-0.5L0,-3.0L2.5,-0.5"/>
                </g>
                <g id="arrowRight" xlink:href="#dirArrow" transform="rotate(90) translate(36 -43)" onmousedown="handlePan(1,0)">
                  <use xlink:href="#rim" fill="#404040">
                        <set attributeName="fill" to="#808080" begin="arrowRight.mouseover" end="arrowRight.mouseout"/>
                  </use>
                  <path fill="none" stroke="white" stroke-width="1.5" d="M0,-3.0v7 M-2.5,-0.5L0,-3.0L2.5,-0.5"/>
                </g>
                <g id="arrowDown" xlink:href="#dirArrow" transform="rotate(180) translate(-30 -48)" onmousedown="handlePan(0,1)">
                  <use xlink:href="#rim" fill="#404040">
                        <set attributeName="fill" to="#808080" begin="arrowDown.mouseover" end="arrowDown.mouseout"/>
                  </use>
                  <path fill="none" stroke="white" stroke-width="1.5" d="M0,-3.0v7 M-2.5,-0.5L0,-3.0L2.5,-0.5"/>
                </g>
                <g id="arrowLeft" xlink:href="#dirArrow" transform="rotate(270) translate(-36 17)" onmousedown="handlePan(-1,0)">
                  <use xlink:href="#rim" fill="#404040">
                        <set attributeName="fill" to="#808080" begin="arrowLeft.mouseover" end="arrowLeft.mouseout"/>
                  </use>
                  <path fill="none" stroke="white" stroke-width="1.5" d="M0,-3.0v7 M-2.5,-0.5L0,-3.0L2.5,-0.5"/>
                </g>
        </g>
        <svg viewBox="0 0 15 15" width="100%" height="30px" preserveAspectRatio="xMaxYMin meet">
         <g id="arrow_out" transform="scale(0.3 0.3)">
          <a xlink:href="TruncatedMultivariateDist_8h__incl_org.svg" target="_base">
           <rect id="button" ry="5" rx="5" y="6" x="6" height="38" width="38"
                fill="#f2f5e9" fill-opacity="0.5" stroke="#606060" stroke-width="1.0"/>
           <path id="arrow"
             d="M 11.500037,31.436501 C 11.940474,20.09759 22.043105,11.32322 32.158766,21.979434 L 37.068811,17.246167 C 37.068811,17.246167 37.088388,32 37.088388,32 L 22.160133,31.978069 C 22.160133,31.978069 26.997745,27.140456 26.997745,27.140456 C 18.528582,18.264221 13.291696,25.230495 11.500037,31.436501 z"
             style="fill:#404040;"/>
          </a>
         </g>
        </svg>
</svg>
