<?xml version="1.0" encoding="UTF-8" standalone="no"?>
<!DOCTYPE svg PUBLIC "-//W3C//DTD SVG 1.1//EN"
 "http://www.w3.org/Graphics/SVG/1.1/DTD/svg11.dtd">
<!-- Generated by graphviz version 2.38.0 (20140413.2041)
 -->
<!-- Title: TruncatedGammaDist.h Pages: 1 -->
<svg width="775pt" height="312pt"
 viewBox="0.00 0.00 774.50 312.00" xmlns="http://www.w3.org/2000/svg" xmlns:xlink="http://www.w3.org/1999/xlink">
<g id="graph0" class="graph" transform="scale(1 1) rotate(0) translate(4 308)">
<title>TruncatedGammaDist.h</title>
<polygon fill="white" stroke="none" points="-4,4 -4,-308 770.5,-308 770.5,4 -4,4"/>
<!-- Node1 -->
<g id="node1" class="node"><title>Node1</title>
<polygon fill="#bfbfbf" stroke="black" points="313.5,-285.5 313.5,-303.5 426.5,-303.5 426.5,-285.5 313.5,-285.5"/>
<text text-anchor="middle" x="370" y="-292.3" font-family="Helvetica,sans-Serif" font-size="9.00">TruncatedGammaDist.h</text>
</g>
<!-- Node2 -->
<g id="node2" class="node"><title>Node2</title>
<g id="a_node2"><a xlink:href="GammaDist_8h.html" target="_top" xlink:title="GammaDist class declaration and templated methods. ">
<polygon fill="white" stroke="black" points="158,-230.5 158,-248.5 286,-248.5 286,-230.5 158,-230.5"/>
<text text-anchor="middle" x="222" y="-237.3" font-family="Helvetica,sans-Serif" font-size="9.00">PriorHessian/GammaDist.h</text>
</a>
</g>
</g>
<!-- Node1&#45;&gt;Node2 -->
<g id="edge1" class="edge"><title>Node1&#45;&gt;Node2</title>
<path fill="none" stroke="midnightblue" d="M347.522,-285.45C322.639,-276.539 282.325,-262.103 254.117,-252.001"/>
<polygon fill="midnightblue" stroke="midnightblue" points="255.284,-248.702 244.69,-248.625 252.924,-255.292 255.284,-248.702"/>
</g>
<!-- Node19 -->
<g id="node19" class="node"><title>Node19</title>
<g id="a_node19"><a xlink:href="TruncatedDist_8h.html" target="_top" xlink:title="TruncatedDist declaration and templated methods definitions. ">
<polygon fill="white" stroke="black" points="377.5,-230.5 377.5,-248.5 514.5,-248.5 514.5,-230.5 377.5,-230.5"/>
<text text-anchor="middle" x="446" y="-237.3" font-family="Helvetica,sans-Serif" font-size="9.00">PriorHessian/TruncatedDist.h</text>
</a>
</g>
</g>
<!-- Node1&#45;&gt;Node19 -->
<g id="edge22" class="edge"><title>Node1&#45;&gt;Node19</title>
<path fill="none" stroke="midnightblue" d="M381.543,-285.45C393.261,-277.279 411.642,-264.46 425.782,-254.6"/>
<polygon fill="midnightblue" stroke="midnightblue" points="428.148,-257.216 434.349,-248.625 424.144,-251.475 428.148,-257.216"/>
</g>
<!-- Node3 -->
<g id="node3" class="node"><title>Node3</title>
<polygon fill="white" stroke="#bfbfbf" points="0,-170.5 0,-188.5 46,-188.5 46,-170.5 0,-170.5"/>
<text text-anchor="middle" x="23" y="-177.3" font-family="Helvetica,sans-Serif" font-size="9.00">cassert</text>
</g>
<!-- Node2&#45;&gt;Node3 -->
<g id="edge2" class="edge"><title>Node2&#45;&gt;Node3</title>
<path fill="none" stroke="midnightblue" d="M189.805,-230.485C156.95,-222.112 104.596,-208.235 60,-194 57.8829,-193.324 55.7071,-192.603 53.5215,-191.857"/>
<polygon fill="midnightblue" stroke="midnightblue" points="54.6239,-188.535 44.0291,-188.51 52.2961,-195.137 54.6239,-188.535"/>
</g>
<!-- Node4 -->
<g id="node4" class="node"><title>Node4</title>
<polygon fill="white" stroke="#bfbfbf" points="32.5,-55.5 32.5,-73.5 73.5,-73.5 73.5,-55.5 32.5,-55.5"/>
<text text-anchor="middle" x="53" y="-62.3" font-family="Helvetica,sans-Serif" font-size="9.00">cmath</text>
</g>
<!-- Node2&#45;&gt;Node4 -->
<g id="edge3" class="edge"><title>Node2&#45;&gt;Node4</title>
<path fill="none" stroke="midnightblue" d="M169.633,-230.428C145.077,-224.202 117.091,-213.239 98,-194 67.6976,-163.463 57.737,-111.398 54.5105,-83.8492"/>
<polygon fill="midnightblue" stroke="midnightblue" points="57.9716,-83.283 53.5003,-73.6779 51.0058,-83.9748 57.9716,-83.283"/>
</g>
<!-- Node5 -->
<g id="node5" class="node"><title>Node5</title>
<polygon fill="white" stroke="#bfbfbf" points="92,-55.5 92,-73.5 140,-73.5 140,-55.5 92,-55.5"/>
<text text-anchor="middle" x="116" y="-62.3" font-family="Helvetica,sans-Serif" font-size="9.00">random</text>
</g>
<!-- Node2&#45;&gt;Node5 -->
<g id="edge4" class="edge"><title>Node2&#45;&gt;Node5</title>
<path fill="none" stroke="midnightblue" d="M216.887,-230.156C200.482,-203.38 148.933,-119.249 126.548,-82.7153"/>
<polygon fill="midnightblue" stroke="midnightblue" points="129.27,-80.4586 121.061,-73.7604 123.301,-84.1157 129.27,-80.4586"/>
</g>
<!-- Node6 -->
<g id="node6" class="node"><title>Node6</title>
<g id="a_node6"><a xlink:href="Meta_8h.html" target="_top" xlink:title="Enables the use of variadic templates in interesting ways. ">
<polygon fill="white" stroke="black" points="478,-110.5 478,-128.5 578,-128.5 578,-110.5 478,-110.5"/>
<text text-anchor="middle" x="528" y="-117.3" font-family="Helvetica,sans-Serif" font-size="9.00">PriorHessian/Meta.h</text>
</a>
</g>
</g>
<!-- Node2&#45;&gt;Node6 -->
<g id="edge5" class="edge"><title>Node2&#45;&gt;Node6</title>
<path fill="none" stroke="midnightblue" d="M255.119,-230.444C286.253,-222.488 333.932,-209.313 374,-194 421.239,-175.946 473.953,-149.289 503.836,-133.529"/>
<polygon fill="midnightblue" stroke="midnightblue" points="505.866,-136.414 513.054,-128.63 502.581,-130.232 505.866,-136.414"/>
</g>
<!-- Node10 -->
<g id="node10" class="node"><title>Node10</title>
<g id="a_node10"><a xlink:href="UnivariateDist_8h.html" target="_top" xlink:title="UnivariateDist base class. ">
<polygon fill="white" stroke="black" points="227.5,-170.5 227.5,-188.5 364.5,-188.5 364.5,-170.5 227.5,-170.5"/>
<text text-anchor="middle" x="296" y="-177.3" font-family="Helvetica,sans-Serif" font-size="9.00">PriorHessian/UnivariateDist.h</text>
</a>
</g>
</g>
<!-- Node2&#45;&gt;Node10 -->
<g id="edge9" class="edge"><title>Node2&#45;&gt;Node10</title>
<path fill="none" stroke="midnightblue" d="M232.289,-230.435C243.866,-221.362 262.912,-206.434 277.17,-195.259"/>
<polygon fill="midnightblue" stroke="midnightblue" points="279.607,-197.795 285.319,-188.872 275.289,-192.286 279.607,-197.795"/>
</g>
<!-- Node7 -->
<g id="node7" class="node"><title>Node7</title>
<polygon fill="white" stroke="#bfbfbf" points="520,-55.5 520,-73.5 576,-73.5 576,-55.5 520,-55.5"/>
<text text-anchor="middle" x="548" y="-62.3" font-family="Helvetica,sans-Serif" font-size="9.00">functional</text>
</g>
<!-- Node6&#45;&gt;Node7 -->
<g id="edge6" class="edge"><title>Node6&#45;&gt;Node7</title>
<path fill="none" stroke="midnightblue" d="M531.125,-110.219C533.871,-102.942 537.957,-92.1134 541.421,-82.9345"/>
<polygon fill="midnightblue" stroke="midnightblue" points="544.706,-84.1413 544.962,-73.5496 538.157,-81.6699 544.706,-84.1413"/>
</g>
<!-- Node8 -->
<g id="node8" class="node"><title>Node8</title>
<polygon fill="white" stroke="#bfbfbf" points="594,-55.5 594,-73.5 664,-73.5 664,-55.5 594,-55.5"/>
<text text-anchor="middle" x="629" y="-62.3" font-family="Helvetica,sans-Serif" font-size="9.00">initializer_list</text>
</g>
<!-- Node6&#45;&gt;Node8 -->
<g id="edge7" class="edge"><title>Node6&#45;&gt;Node8</title>
<path fill="none" stroke="midnightblue" d="M543.34,-110.45C559.579,-101.929 585.45,-88.3532 604.515,-78.3487"/>
<polygon fill="midnightblue" stroke="midnightblue" points="606.287,-81.3712 613.516,-73.6253 603.035,-75.1728 606.287,-81.3712"/>
</g>
<!-- Node9 -->
<g id="node9" class="node"><title>Node9</title>
<polygon fill="white" stroke="#bfbfbf" points="682.5,-55.5 682.5,-73.5 725.5,-73.5 725.5,-55.5 682.5,-55.5"/>
<text text-anchor="middle" x="704" y="-62.3" font-family="Helvetica,sans-Serif" font-size="9.00">cstdint</text>
</g>
<!-- Node6&#45;&gt;Node9 -->
<g id="edge8" class="edge"><title>Node6&#45;&gt;Node9</title>
<path fill="none" stroke="midnightblue" d="M554.731,-110.45C586.365,-100.924 638.971,-85.0826 672.539,-74.9739"/>
<polygon fill="midnightblue" stroke="midnightblue" points="673.736,-78.269 682.302,-72.0341 671.717,-71.5663 673.736,-78.269"/>
</g>
<!-- Node10&#45;&gt;Node6 -->
<g id="edge20" class="edge"><title>Node10&#45;&gt;Node6</title>
<path fill="none" stroke="midnightblue" d="M328.259,-170.435C369.351,-160.162 440.462,-142.384 485.818,-131.046"/>
<polygon fill="midnightblue" stroke="midnightblue" points="486.79,-134.41 495.642,-128.589 485.092,-127.619 486.79,-134.41"/>
</g>
<!-- Node11 -->
<g id="node11" class="node"><title>Node11</title>
<g id="a_node11"><a xlink:href="util_8h.html" target="_top" xlink:title="Utilities and namespace globals. ">
<polygon fill="white" stroke="black" points="178,-110.5 178,-128.5 270,-128.5 270,-110.5 178,-110.5"/>
<text text-anchor="middle" x="224" y="-117.3" font-family="Helvetica,sans-Serif" font-size="9.00">PriorHessian/util.h</text>
</a>
</g>
</g>
<!-- Node10&#45;&gt;Node11 -->
<g id="edge10" class="edge"><title>Node10&#45;&gt;Node11</title>
<path fill="none" stroke="midnightblue" d="M285.989,-170.435C274.725,-161.362 256.194,-146.434 242.321,-135.259"/>
<polygon fill="midnightblue" stroke="midnightblue" points="244.376,-132.419 234.393,-128.872 239.984,-137.871 244.376,-132.419"/>
</g>
<!-- Node18 -->
<g id="node18" class="node"><title>Node18</title>
<g id="a_node18"><a xlink:href="BaseDist_8h.html" target="_top" xlink:title="The Base class for UnivariateDist and MultivariateDist. ">
<polygon fill="white" stroke="black" points="288,-110.5 288,-128.5 404,-128.5 404,-110.5 288,-110.5"/>
<text text-anchor="middle" x="346" y="-117.3" font-family="Helvetica,sans-Serif" font-size="9.00">PriorHessian/BaseDist.h</text>
</a>
</g>
</g>
<!-- Node10&#45;&gt;Node18 -->
<g id="edge21" class="edge"><title>Node10&#45;&gt;Node18</title>
<path fill="none" stroke="midnightblue" d="M302.952,-170.435C310.479,-161.704 322.679,-147.552 332.173,-136.54"/>
<polygon fill="midnightblue" stroke="midnightblue" points="334.904,-138.731 338.783,-128.872 329.603,-134.161 334.904,-138.731"/>
</g>
<!-- Node11&#45;&gt;Node4 -->
<g id="edge11" class="edge"><title>Node11&#45;&gt;Node4</title>
<path fill="none" stroke="midnightblue" d="M198.029,-110.45C167.257,-100.913 116.061,-85.0454 83.4519,-74.9383"/>
<polygon fill="midnightblue" stroke="midnightblue" points="84.1547,-71.4919 73.5668,-71.8745 82.0824,-78.1782 84.1547,-71.4919"/>
</g>
<!-- Node11&#45;&gt;Node5 -->
<g id="edge13" class="edge"><title>Node11&#45;&gt;Node5</title>
<path fill="none" stroke="midnightblue" d="M207.597,-110.45C190.073,-101.851 162.063,-88.1048 141.626,-78.0755"/>
<polygon fill="midnightblue" stroke="midnightblue" points="143.076,-74.8888 132.557,-73.6253 139.993,-81.1729 143.076,-74.8888"/>
</g>
<!-- Node12 -->
<g id="node12" class="node"><title>Node12</title>
<polygon fill="white" stroke="#bfbfbf" points="258.5,-0.5 258.5,-18.5 297.5,-18.5 297.5,-0.5 258.5,-0.5"/>
<text text-anchor="middle" x="278" y="-7.3" font-family="Helvetica,sans-Serif" font-size="9.00">string</text>
</g>
<!-- Node11&#45;&gt;Node12 -->
<g id="edge12" class="edge"><title>Node11&#45;&gt;Node12</title>
<path fill="none" stroke="midnightblue" d="M212.938,-110.185C198.072,-97.9615 174.84,-74.4831 187,-55 200.364,-33.589 227.343,-22.1988 248.473,-16.3231"/>
<polygon fill="midnightblue" stroke="midnightblue" points="249.441,-19.6886 258.29,-13.8618 247.739,-12.8987 249.441,-19.6886"/>
</g>
<!-- Node13 -->
<g id="node13" class="node"><title>Node13</title>
<polygon fill="white" stroke="#bfbfbf" points="196.5,-55.5 196.5,-73.5 237.5,-73.5 237.5,-55.5 196.5,-55.5"/>
<text text-anchor="middle" x="217" y="-62.3" font-family="Helvetica,sans-Serif" font-size="9.00">vector</text>
</g>
<!-- Node11&#45;&gt;Node13 -->
<g id="edge14" class="edge"><title>Node11&#45;&gt;Node13</title>
<path fill="none" stroke="midnightblue" d="M222.906,-110.219C221.966,-103.099 220.576,-92.5775 219.381,-83.5289"/>
<polygon fill="midnightblue" stroke="midnightblue" points="222.842,-83.0052 218.063,-73.5496 215.903,-83.9218 222.842,-83.0052"/>
</g>
<!-- Node14 -->
<g id="node14" class="node"><title>Node14</title>
<polygon fill="white" stroke="#bfbfbf" points="256,-55.5 256,-73.5 312,-73.5 312,-55.5 256,-55.5"/>
<text text-anchor="middle" x="284" y="-62.3" font-family="Helvetica,sans-Serif" font-size="9.00">typeindex</text>
</g>
<!-- Node11&#45;&gt;Node14 -->
<g id="edge15" class="edge"><title>Node11&#45;&gt;Node14</title>
<path fill="none" stroke="midnightblue" d="M233.113,-110.45C242.099,-102.512 256.05,-90.1891 267.073,-80.4519"/>
<polygon fill="midnightblue" stroke="midnightblue" points="269.624,-82.8689 274.802,-73.6253 264.99,-77.6225 269.624,-82.8689"/>
</g>
<!-- Node15 -->
<g id="node15" class="node"><title>Node15</title>
<polygon fill="white" stroke="#bfbfbf" points="330.5,-55.5 330.5,-73.5 385.5,-73.5 385.5,-55.5 330.5,-55.5"/>
<text text-anchor="middle" x="358" y="-62.3" font-family="Helvetica,sans-Serif" font-size="9.00">armadillo</text>
</g>
<!-- Node11&#45;&gt;Node15 -->
<g id="edge16" class="edge"><title>Node11&#45;&gt;Node15</title>
<path fill="none" stroke="midnightblue" d="M244.352,-110.45C266.586,-101.656 302.428,-87.4802 327.912,-77.4006"/>
<polygon fill="midnightblue" stroke="midnightblue" points="329.445,-80.558 337.457,-73.6253 326.87,-74.0487 329.445,-80.558"/>
</g>
<!-- Node16 -->
<g id="node16" class="node"><title>Node16</title>
<g id="a_node16"><a xlink:href="PriorHessianError_8h.html" target="_top" xlink:title="The Exception classes for the PriorHessian library. ">
<polygon fill="white" stroke="black" points="404,-55.5 404,-73.5 502,-73.5 502,-55.5 404,-55.5"/>
<text text-anchor="middle" x="453" y="-62.3" font-family="Helvetica,sans-Serif" font-size="9.00">PriorHessianError.h</text>
</a>
</g>
</g>
<!-- Node11&#45;&gt;Node16 -->
<g id="edge17" class="edge"><title>Node11&#45;&gt;Node16</title>
<path fill="none" stroke="midnightblue" d="M258.78,-110.45C298.827,-101.182 364.705,-85.9352 408.467,-75.8068"/>
<polygon fill="midnightblue" stroke="midnightblue" points="409.315,-79.2031 418.268,-73.5383 407.737,-72.3833 409.315,-79.2031"/>
</g>
<!-- Node16&#45;&gt;Node12 -->
<g id="edge19" class="edge"><title>Node16&#45;&gt;Node12</title>
<path fill="none" stroke="midnightblue" d="M426.421,-55.4504C394.36,-45.7404 340.635,-29.4693 307.372,-19.3956"/>
<polygon fill="midnightblue" stroke="midnightblue" points="308.338,-16.0312 297.753,-16.4824 306.309,-22.7307 308.338,-16.0312"/>
</g>
<!-- Node17 -->
<g id="node17" class="node"><title>Node17</title>
<polygon fill="white" stroke="#bfbfbf" points="425,-0.5 425,-18.5 481,-18.5 481,-0.5 425,-0.5"/>
<text text-anchor="middle" x="453" y="-7.3" font-family="Helvetica,sans-Serif" font-size="9.00">exception</text>
</g>
<!-- Node16&#45;&gt;Node17 -->
<g id="edge18" class="edge"><title>Node16&#45;&gt;Node17</title>
<path fill="none" stroke="midnightblue" d="M453,-55.2188C453,-48.1769 453,-37.8083 453,-28.8277"/>
<polygon fill="midnightblue" stroke="midnightblue" points="456.5,-28.5495 453,-18.5496 449.5,-28.5496 456.5,-28.5495"/>
</g>
<!-- Node19&#45;&gt;Node4 -->
<g id="edge23" class="edge"><title>Node19&#45;&gt;Node4</title>
<path fill="none" stroke="midnightblue" d="M377.365,-233.521C330.725,-228.149 268.562,-217.018 218,-194 155.141,-165.383 94.5956,-108.345 67.6321,-80.9232"/>
<polygon fill="midnightblue" stroke="midnightblue" points="70.1304,-78.4719 60.6589,-73.7242 65.1024,-83.3422 70.1304,-78.4719"/>
</g>
<!-- Node19&#45;&gt;Node6 -->
<g id="edge24" class="edge"><title>Node19&#45;&gt;Node6</title>
<path fill="none" stroke="midnightblue" d="M458.638,-230.314C470.215,-222.266 487.151,-209.03 498,-194 510.204,-177.094 518.46,-154.502 523.173,-138.848"/>
<polygon fill="midnightblue" stroke="midnightblue" points="526.645,-139.43 525.984,-128.856 519.907,-137.534 526.645,-139.43"/>
</g>
<!-- Node19&#45;&gt;Node16 -->
<g id="edge25" class="edge"><title>Node19&#45;&gt;Node16</title>
<path fill="none" stroke="midnightblue" d="M446.338,-230.156C447.407,-203.724 450.738,-121.396 452.246,-84.1437"/>
<polygon fill="midnightblue" stroke="midnightblue" points="455.759,-83.8938 452.666,-73.7604 448.764,-83.6107 455.759,-83.8938"/>
</g>
<!-- Node20 -->
<g id="node20" class="node"><title>Node20</title>
<g id="a_node20"><a xlink:href="BoundsAdaptedDist_8h.html" target="_top" xlink:title="Functions and type&#45;traits to enable easy wrapping of distributions in bounds&#45;modifiable adapters...">
<polygon fill="white" stroke="black" points="550,-165.5 550,-193.5 688,-193.5 688,-165.5 550,-165.5"/>
<text text-anchor="start" x="558" y="-182.3" font-family="Helvetica,sans-Serif" font-size="9.00">PriorHessian/BoundsAdapted</text>
<text text-anchor="middle" x="619" y="-172.3" font-family="Helvetica,sans-Serif" font-size="9.00">Dist.h</text>
</a>
</g>
</g>
<!-- Node19&#45;&gt;Node20 -->
<g id="edge26" class="edge"><title>Node19&#45;&gt;Node20</title>
<path fill="none" stroke="midnightblue" d="M470.055,-230.435C495.886,-221.775 537.624,-207.782 570.355,-196.809"/>
<polygon fill="midnightblue" stroke="midnightblue" points="571.827,-200.007 580.196,-193.51 569.602,-193.37 571.827,-200.007"/>
</g>
<!-- Node20&#45;&gt;Node6 -->
<g id="edge30" class="edge"><title>Node20&#45;&gt;Node6</title>
<path fill="none" stroke="midnightblue" d="M598.351,-165.339C583.673,-155.984 564.017,-143.456 549.214,-134.021"/>
<polygon fill="midnightblue" stroke="midnightblue" points="551.026,-131.025 540.712,-128.602 547.263,-136.928 551.026,-131.025"/>
</g>
<!-- Node21 -->
<g id="node21" class="node"><title>Node21</title>
<polygon fill="white" stroke="#bfbfbf" points="596,-110.5 596,-128.5 634,-128.5 634,-110.5 596,-110.5"/>
<text text-anchor="middle" x="615" y="-117.3" font-family="Helvetica,sans-Serif" font-size="9.00">utility</text>
</g>
<!-- Node20&#45;&gt;Node21 -->
<g id="edge27" class="edge"><title>Node20&#45;&gt;Node21</title>
<path fill="none" stroke="midnightblue" d="M618.092,-165.339C617.554,-157.531 616.863,-147.512 616.271,-138.927"/>
<polygon fill="midnightblue" stroke="midnightblue" points="619.75,-138.507 615.57,-128.771 612.767,-138.989 619.75,-138.507"/>
</g>
<!-- Node22 -->
<g id="node22" class="node"><title>Node22</title>
<polygon fill="white" stroke="#bfbfbf" points="652.5,-110.5 652.5,-128.5 689.5,-128.5 689.5,-110.5 652.5,-110.5"/>
<text text-anchor="middle" x="671" y="-117.3" font-family="Helvetica,sans-Serif" font-size="9.00">tuple</text>
</g>
<!-- Node20&#45;&gt;Node22 -->
<g id="edge28" class="edge"><title>Node20&#45;&gt;Node22</title>
<path fill="none" stroke="midnightblue" d="M630.8,-165.339C638.508,-156.741 648.619,-145.463 656.772,-136.37"/>
<polygon fill="midnightblue" stroke="midnightblue" points="659.515,-138.554 663.584,-128.771 654.303,-133.881 659.515,-138.554"/>
</g>
<!-- Node23 -->
<g id="node23" class="node"><title>Node23</title>
<polygon fill="white" stroke="#bfbfbf" points="707.5,-110.5 707.5,-128.5 766.5,-128.5 766.5,-110.5 707.5,-110.5"/>
<text text-anchor="middle" x="737" y="-117.3" font-family="Helvetica,sans-Serif" font-size="9.00">type_traits</text>
</g>
<!-- Node20&#45;&gt;Node23 -->
<g id="edge29" class="edge"><title>Node20&#45;&gt;Node23</title>
<path fill="none" stroke="midnightblue" d="M645.482,-165.484C665.129,-155.826 691.773,-142.73 711.245,-133.159"/>
<polygon fill="midnightblue" stroke="midnightblue" points="713.002,-136.196 720.432,-128.643 709.914,-129.914 713.002,-136.196"/>
</g>
</g>
</svg>
