<?xml version="1.0" encoding="UTF-8" standalone="no"?>
<!DOCTYPE svg PUBLIC "-//W3C//DTD SVG 1.1//EN"
 "http://www.w3.org/Graphics/SVG/1.1/DTD/svg11.dtd">
<!-- Generated by graphviz version 2.38.0 (20140413.2041)
 -->
<!-- Title: TruncatedMultivariateNormalDist.h Pages: 1 -->
<svg width="801pt" height="332pt"
 viewBox="0.00 0.00 801.00 332.00" xmlns="http://www.w3.org/2000/svg" xmlns:xlink="http://www.w3.org/1999/xlink">
<g id="graph0" class="graph" transform="scale(1 1) rotate(0) translate(4 328)">
<title>TruncatedMultivariateNormalDist.h</title>
<polygon fill="white" stroke="none" points="-4,4 -4,-328 797,-328 797,4 -4,4"/>
<!-- Node1 -->
<g id="node1" class="node"><title>Node1</title>
<polygon fill="#bfbfbf" stroke="black" points="365,-295.5 365,-323.5 500,-323.5 500,-295.5 365,-295.5"/>
<text text-anchor="start" x="373" y="-312.3" font-family="Helvetica,sans-Serif" font-size="9.00">TruncatedMultivariateNormal</text>
<text text-anchor="middle" x="432.5" y="-302.3" font-family="Helvetica,sans-Serif" font-size="9.00">Dist.h</text>
</g>
<!-- Node2 -->
<g id="node2" class="node"><title>Node2</title>
<g id="a_node2"><a xlink:href="MultivariateNormalDist_8h.html" target="_top" xlink:title="MultivariateNormalDist base class. ">
<polygon fill="white" stroke="black" points="291,-230.5 291,-258.5 410,-258.5 410,-230.5 291,-230.5"/>
<text text-anchor="start" x="299" y="-247.3" font-family="Helvetica,sans-Serif" font-size="9.00">PriorHessian/Multivariate</text>
<text text-anchor="middle" x="350.5" y="-237.3" font-family="Helvetica,sans-Serif" font-size="9.00">NormalDist.h</text>
</a>
</g>
</g>
<!-- Node1&#45;&gt;Node2 -->
<g id="edge1" class="edge"><title>Node1&#45;&gt;Node2</title>
<path fill="none" stroke="midnightblue" d="M415.51,-295.446C403.965,-286.577 388.499,-274.695 375.549,-264.745"/>
<polygon fill="midnightblue" stroke="midnightblue" points="377.531,-261.854 367.469,-258.537 373.266,-267.405 377.531,-261.854"/>
</g>
<!-- Node20 -->
<g id="node20" class="node"><title>Node20</title>
<g id="a_node20"><a xlink:href="TruncatedMultivariateDist_8h.html" target="_top" xlink:title="TruncatedMultivariateDist declaration and templated methods definitions. ">
<polygon fill="white" stroke="black" points="431,-230.5 431,-258.5 592,-258.5 592,-230.5 431,-230.5"/>
<text text-anchor="start" x="439" y="-247.3" font-family="Helvetica,sans-Serif" font-size="9.00">PriorHessian/TruncatedMultivariate</text>
<text text-anchor="middle" x="511.5" y="-237.3" font-family="Helvetica,sans-Serif" font-size="9.00">Dist.h</text>
</a>
</g>
</g>
<!-- Node1&#45;&gt;Node20 -->
<g id="edge24" class="edge"><title>Node1&#45;&gt;Node20</title>
<path fill="none" stroke="midnightblue" d="M448.869,-295.446C459.885,-286.661 474.607,-274.921 487.01,-265.03"/>
<polygon fill="midnightblue" stroke="midnightblue" points="489.516,-267.508 495.152,-258.537 485.152,-262.035 489.516,-267.508"/>
</g>
<!-- Node3 -->
<g id="node3" class="node"><title>Node3</title>
<g id="a_node3"><a xlink:href="MultivariateDist_8h.html" target="_top" xlink:title="MultivariateDist base class. ">
<polygon fill="white" stroke="black" points="288,-165.5 288,-193.5 407,-193.5 407,-165.5 288,-165.5"/>
<text text-anchor="start" x="296" y="-182.3" font-family="Helvetica,sans-Serif" font-size="9.00">PriorHessian/Multivariate</text>
<text text-anchor="middle" x="347.5" y="-172.3" font-family="Helvetica,sans-Serif" font-size="9.00">Dist.h</text>
</a>
</g>
</g>
<!-- Node2&#45;&gt;Node3 -->
<g id="edge2" class="edge"><title>Node2&#45;&gt;Node3</title>
<path fill="none" stroke="midnightblue" d="M349.878,-230.446C349.512,-222.759 349.039,-212.81 348.61,-203.816"/>
<polygon fill="midnightblue" stroke="midnightblue" points="352.093,-203.359 348.121,-193.537 345.101,-203.692 352.093,-203.359"/>
</g>
<!-- Node13 -->
<g id="node13" class="node"><title>Node13</title>
<g id="a_node13"><a xlink:href="Meta_8h.html" target="_top" xlink:title="Enables the use of variadic templates in interesting ways. ">
<polygon fill="white" stroke="black" points="464.5,-110.5 464.5,-128.5 564.5,-128.5 564.5,-110.5 464.5,-110.5"/>
<text text-anchor="middle" x="514.5" y="-117.3" font-family="Helvetica,sans-Serif" font-size="9.00">PriorHessian/Meta.h</text>
</a>
</g>
</g>
<!-- Node2&#45;&gt;Node13 -->
<g id="edge18" class="edge"><title>Node2&#45;&gt;Node13</title>
<path fill="none" stroke="midnightblue" d="M368.051,-230.337C399.17,-206.998 463.741,-158.569 495.718,-134.586"/>
<polygon fill="midnightblue" stroke="midnightblue" points="497.919,-137.311 503.819,-128.511 493.719,-131.711 497.919,-137.311"/>
</g>
<!-- Node18 -->
<g id="node18" class="node"><title>Node18</title>
<g id="a_node18"><a xlink:href="mvn__cdf_8h.html" target="_top" xlink:title="Numerical computation of multivariate normal cdfs in 2,3 and higher dims. ">
<polygon fill="white" stroke="black" points="80.5,-170.5 80.5,-188.5 194.5,-188.5 194.5,-170.5 80.5,-170.5"/>
<text text-anchor="middle" x="137.5" y="-177.3" font-family="Helvetica,sans-Serif" font-size="9.00">PriorHessian/mvn_cdf.h</text>
</a>
</g>
</g>
<!-- Node2&#45;&gt;Node18 -->
<g id="edge19" class="edge"><title>Node2&#45;&gt;Node18</title>
<path fill="none" stroke="midnightblue" d="M306.366,-230.446C267.383,-218.916 211.185,-202.294 174.507,-191.446"/>
<polygon fill="midnightblue" stroke="midnightblue" points="175.292,-188.028 164.71,-188.548 173.307,-194.741 175.292,-188.028"/>
</g>
<!-- Node4 -->
<g id="node4" class="node"><title>Node4</title>
<g id="a_node4"><a xlink:href="util_8h.html" target="_top" xlink:title="Utilities and namespace globals. ">
<polygon fill="white" stroke="black" points="180.5,-110.5 180.5,-128.5 272.5,-128.5 272.5,-110.5 180.5,-110.5"/>
<text text-anchor="middle" x="226.5" y="-117.3" font-family="Helvetica,sans-Serif" font-size="9.00">PriorHessian/util.h</text>
</a>
</g>
</g>
<!-- Node3&#45;&gt;Node4 -->
<g id="edge3" class="edge"><title>Node3&#45;&gt;Node4</title>
<path fill="none" stroke="midnightblue" d="M320.345,-165.484C300.106,-155.782 272.627,-142.61 252.636,-133.028"/>
<polygon fill="midnightblue" stroke="midnightblue" points="254.019,-129.81 243.489,-128.643 250.994,-136.122 254.019,-129.81"/>
</g>
<!-- Node3&#45;&gt;Node13 -->
<g id="edge13" class="edge"><title>Node3&#45;&gt;Node13</title>
<path fill="none" stroke="midnightblue" d="M384.978,-165.484C413.927,-155.43 453.609,-141.648 481.396,-131.997"/>
<polygon fill="midnightblue" stroke="midnightblue" points="482.754,-135.231 491.053,-128.643 480.458,-128.618 482.754,-135.231"/>
</g>
<!-- Node17 -->
<g id="node17" class="node"><title>Node17</title>
<g id="a_node17"><a xlink:href="BaseDist_8h.html" target="_top" xlink:title="The Base classes for UnivariateDist and MultivariateDist. ">
<polygon fill="white" stroke="black" points="290.5,-110.5 290.5,-128.5 406.5,-128.5 406.5,-110.5 290.5,-110.5"/>
<text text-anchor="middle" x="348.5" y="-117.3" font-family="Helvetica,sans-Serif" font-size="9.00">PriorHessian/BaseDist.h</text>
</a>
</g>
</g>
<!-- Node3&#45;&gt;Node17 -->
<g id="edge17" class="edge"><title>Node3&#45;&gt;Node17</title>
<path fill="none" stroke="midnightblue" d="M347.727,-165.339C347.862,-157.531 348.034,-147.512 348.182,-138.927"/>
<polygon fill="midnightblue" stroke="midnightblue" points="351.684,-138.83 348.357,-128.771 344.685,-138.71 351.684,-138.83"/>
</g>
<!-- Node5 -->
<g id="node5" class="node"><title>Node5</title>
<polygon fill="white" stroke="#bfbfbf" points="0,-55.5 0,-73.5 41,-73.5 41,-55.5 0,-55.5"/>
<text text-anchor="middle" x="20.5" y="-62.3" font-family="Helvetica,sans-Serif" font-size="9.00">cmath</text>
</g>
<!-- Node4&#45;&gt;Node5 -->
<g id="edge4" class="edge"><title>Node4&#45;&gt;Node5</title>
<path fill="none" stroke="midnightblue" d="M193.666,-110.494C160.196,-102.268 106.548,-88.9042 50.824,-74.0266"/>
<polygon fill="midnightblue" stroke="midnightblue" points="51.7007,-70.6381 41.1355,-71.43 49.8885,-77.3995 51.7007,-70.6381"/>
</g>
<!-- Node6 -->
<g id="node6" class="node"><title>Node6</title>
<polygon fill="white" stroke="#bfbfbf" points="226,-0.5 226,-18.5 265,-18.5 265,-0.5 226,-0.5"/>
<text text-anchor="middle" x="245.5" y="-7.3" font-family="Helvetica,sans-Serif" font-size="9.00">string</text>
</g>
<!-- Node4&#45;&gt;Node6 -->
<g id="edge5" class="edge"><title>Node4&#45;&gt;Node6</title>
<path fill="none" stroke="midnightblue" d="M203.429,-110.331C177.041,-99.6242 139.321,-79.3189 154.5,-55 167.864,-33.589 194.843,-22.1988 215.973,-16.3231"/>
<polygon fill="midnightblue" stroke="midnightblue" points="216.941,-19.6886 225.79,-13.8618 215.239,-12.8987 216.941,-19.6886"/>
</g>
<!-- Node7 -->
<g id="node7" class="node"><title>Node7</title>
<polygon fill="white" stroke="#bfbfbf" points="59.5,-55.5 59.5,-73.5 107.5,-73.5 107.5,-55.5 59.5,-55.5"/>
<text text-anchor="middle" x="83.5" y="-62.3" font-family="Helvetica,sans-Serif" font-size="9.00">random</text>
</g>
<!-- Node4&#45;&gt;Node7 -->
<g id="edge6" class="edge"><title>Node4&#45;&gt;Node7</title>
<path fill="none" stroke="midnightblue" d="M204.781,-110.45C180.844,-101.578 142.127,-87.2288 114.89,-77.134"/>
<polygon fill="midnightblue" stroke="midnightblue" points="116.016,-73.8188 105.423,-73.6253 113.583,-80.3825 116.016,-73.8188"/>
</g>
<!-- Node8 -->
<g id="node8" class="node"><title>Node8</title>
<polygon fill="white" stroke="#bfbfbf" points="164,-55.5 164,-73.5 205,-73.5 205,-55.5 164,-55.5"/>
<text text-anchor="middle" x="184.5" y="-62.3" font-family="Helvetica,sans-Serif" font-size="9.00">vector</text>
</g>
<!-- Node4&#45;&gt;Node8 -->
<g id="edge7" class="edge"><title>Node4&#45;&gt;Node8</title>
<path fill="none" stroke="midnightblue" d="M219.938,-110.219C213.861,-102.551 204.659,-90.9387 197.155,-81.4691"/>
<polygon fill="midnightblue" stroke="midnightblue" points="199.833,-79.2132 190.879,-73.5496 194.347,-83.5608 199.833,-79.2132"/>
</g>
<!-- Node9 -->
<g id="node9" class="node"><title>Node9</title>
<polygon fill="white" stroke="#bfbfbf" points="223.5,-55.5 223.5,-73.5 279.5,-73.5 279.5,-55.5 223.5,-55.5"/>
<text text-anchor="middle" x="251.5" y="-62.3" font-family="Helvetica,sans-Serif" font-size="9.00">typeindex</text>
</g>
<!-- Node4&#45;&gt;Node9 -->
<g id="edge8" class="edge"><title>Node4&#45;&gt;Node9</title>
<path fill="none" stroke="midnightblue" d="M230.406,-110.219C233.876,-102.864 239.057,-91.8801 243.416,-82.639"/>
<polygon fill="midnightblue" stroke="midnightblue" points="246.602,-84.0871 247.703,-73.5496 240.271,-81.1007 246.602,-84.0871"/>
</g>
<!-- Node10 -->
<g id="node10" class="node"><title>Node10</title>
<polygon fill="white" stroke="#bfbfbf" points="298,-55.5 298,-73.5 353,-73.5 353,-55.5 298,-55.5"/>
<text text-anchor="middle" x="325.5" y="-62.3" font-family="Helvetica,sans-Serif" font-size="9.00">armadillo</text>
</g>
<!-- Node4&#45;&gt;Node10 -->
<g id="edge9" class="edge"><title>Node4&#45;&gt;Node10</title>
<path fill="none" stroke="midnightblue" d="M241.536,-110.45C257.454,-101.929 282.812,-88.3532 301.5,-78.3487"/>
<polygon fill="midnightblue" stroke="midnightblue" points="303.158,-81.4308 310.323,-73.6253 299.854,-75.2595 303.158,-81.4308"/>
</g>
<!-- Node11 -->
<g id="node11" class="node"><title>Node11</title>
<g id="a_node11"><a xlink:href="PriorHessianError_8h.html" target="_top" xlink:title="The Exception classes for the PriorHessian library. ">
<polygon fill="white" stroke="black" points="371.5,-55.5 371.5,-73.5 469.5,-73.5 469.5,-55.5 371.5,-55.5"/>
<text text-anchor="middle" x="420.5" y="-62.3" font-family="Helvetica,sans-Serif" font-size="9.00">PriorHessianError.h</text>
</a>
</g>
</g>
<!-- Node4&#45;&gt;Node11 -->
<g id="edge10" class="edge"><title>Node4&#45;&gt;Node11</title>
<path fill="none" stroke="midnightblue" d="M255.964,-110.45C289.391,-101.318 344.059,-86.3833 381.122,-76.2578"/>
<polygon fill="midnightblue" stroke="midnightblue" points="382.353,-79.55 391.077,-73.5383 380.508,-72.7975 382.353,-79.55"/>
</g>
<!-- Node11&#45;&gt;Node6 -->
<g id="edge12" class="edge"><title>Node11&#45;&gt;Node6</title>
<path fill="none" stroke="midnightblue" d="M393.921,-55.4504C361.86,-45.7404 308.135,-29.4693 274.872,-19.3956"/>
<polygon fill="midnightblue" stroke="midnightblue" points="275.838,-16.0312 265.253,-16.4824 273.809,-22.7307 275.838,-16.0312"/>
</g>
<!-- Node12 -->
<g id="node12" class="node"><title>Node12</title>
<polygon fill="white" stroke="#bfbfbf" points="392.5,-0.5 392.5,-18.5 448.5,-18.5 448.5,-0.5 392.5,-0.5"/>
<text text-anchor="middle" x="420.5" y="-7.3" font-family="Helvetica,sans-Serif" font-size="9.00">exception</text>
</g>
<!-- Node11&#45;&gt;Node12 -->
<g id="edge11" class="edge"><title>Node11&#45;&gt;Node12</title>
<path fill="none" stroke="midnightblue" d="M420.5,-55.2188C420.5,-48.1769 420.5,-37.8083 420.5,-28.8277"/>
<polygon fill="midnightblue" stroke="midnightblue" points="424,-28.5495 420.5,-18.5496 417,-28.5496 424,-28.5495"/>
</g>
<!-- Node14 -->
<g id="node14" class="node"><title>Node14</title>
<polygon fill="white" stroke="#bfbfbf" points="487.5,-55.5 487.5,-73.5 543.5,-73.5 543.5,-55.5 487.5,-55.5"/>
<text text-anchor="middle" x="515.5" y="-62.3" font-family="Helvetica,sans-Serif" font-size="9.00">functional</text>
</g>
<!-- Node13&#45;&gt;Node14 -->
<g id="edge14" class="edge"><title>Node13&#45;&gt;Node14</title>
<path fill="none" stroke="midnightblue" d="M514.656,-110.219C514.789,-103.177 514.985,-92.8083 515.154,-83.8277"/>
<polygon fill="midnightblue" stroke="midnightblue" points="518.659,-83.6138 515.348,-73.5496 511.66,-83.4817 518.659,-83.6138"/>
</g>
<!-- Node15 -->
<g id="node15" class="node"><title>Node15</title>
<polygon fill="white" stroke="#bfbfbf" points="561.5,-55.5 561.5,-73.5 631.5,-73.5 631.5,-55.5 561.5,-55.5"/>
<text text-anchor="middle" x="596.5" y="-62.3" font-family="Helvetica,sans-Serif" font-size="9.00">initializer_list</text>
</g>
<!-- Node13&#45;&gt;Node15 -->
<g id="edge15" class="edge"><title>Node13&#45;&gt;Node15</title>
<path fill="none" stroke="midnightblue" d="M526.954,-110.45C539.717,-102.201 559.808,-89.2158 575.12,-79.3187"/>
<polygon fill="midnightblue" stroke="midnightblue" points="577.43,-81.9931 583.929,-73.6253 573.63,-76.1142 577.43,-81.9931"/>
</g>
<!-- Node16 -->
<g id="node16" class="node"><title>Node16</title>
<polygon fill="white" stroke="#bfbfbf" points="650,-55.5 650,-73.5 693,-73.5 693,-55.5 650,-55.5"/>
<text text-anchor="middle" x="671.5" y="-62.3" font-family="Helvetica,sans-Serif" font-size="9.00">cstdint</text>
</g>
<!-- Node13&#45;&gt;Node16 -->
<g id="edge16" class="edge"><title>Node13&#45;&gt;Node16</title>
<path fill="none" stroke="midnightblue" d="M538.345,-110.45C565.628,-101.24 610.396,-86.1276 640.398,-75.9993"/>
<polygon fill="midnightblue" stroke="midnightblue" points="641.605,-79.286 649.961,-72.7713 639.366,-72.6537 641.605,-79.286"/>
</g>
<!-- Node18&#45;&gt;Node4 -->
<g id="edge23" class="edge"><title>Node18&#45;&gt;Node4</title>
<path fill="none" stroke="midnightblue" d="M149.875,-170.435C164.141,-161.138 187.84,-145.694 205.11,-134.439"/>
<polygon fill="midnightblue" stroke="midnightblue" points="207.476,-137.075 213.943,-128.683 203.654,-131.211 207.476,-137.075"/>
</g>
<!-- Node18&#45;&gt;Node5 -->
<g id="edge22" class="edge"><title>Node18&#45;&gt;Node5</title>
<path fill="none" stroke="midnightblue" d="M129.086,-170.373C109.606,-151.56 61.1657,-104.775 36.0916,-80.5586"/>
<polygon fill="midnightblue" stroke="midnightblue" points="38.4626,-77.9826 28.8381,-73.553 33.5996,-83.0177 38.4626,-77.9826"/>
</g>
<!-- Node18&#45;&gt;Node7 -->
<g id="edge21" class="edge"><title>Node18&#45;&gt;Node7</title>
<path fill="none" stroke="midnightblue" d="M130.659,-170.216C123.127,-160.752 111.082,-144.557 103.5,-129 96.372,-114.375 91.0359,-96.6338 87.6762,-83.6258"/>
<polygon fill="midnightblue" stroke="midnightblue" points="91.0039,-82.498 85.2371,-73.6101 84.2026,-84.1543 91.0039,-82.498"/>
</g>
<!-- Node19 -->
<g id="node19" class="node"><title>Node19</title>
<polygon fill="white" stroke="#bfbfbf" points="112.5,-110.5 112.5,-128.5 162.5,-128.5 162.5,-110.5 112.5,-110.5"/>
<text text-anchor="middle" x="137.5" y="-117.3" font-family="Helvetica,sans-Serif" font-size="9.00">iomanip</text>
</g>
<!-- Node18&#45;&gt;Node19 -->
<g id="edge20" class="edge"><title>Node18&#45;&gt;Node19</title>
<path fill="none" stroke="midnightblue" d="M137.5,-170.435C137.5,-162.389 137.5,-149.739 137.5,-139.185"/>
<polygon fill="midnightblue" stroke="midnightblue" points="141,-138.872 137.5,-128.872 134,-138.872 141,-138.872"/>
</g>
<!-- Node20&#45;&gt;Node5 -->
<g id="edge25" class="edge"><title>Node20&#45;&gt;Node5</title>
<path fill="none" stroke="midnightblue" d="M430.874,-231.591C426.692,-231.037 422.548,-230.504 418.5,-230 341.568,-220.43 133.302,-240.804 71.5,-194 36.1844,-167.254 25.2821,-112.279 21.9475,-83.683"/>
<polygon fill="midnightblue" stroke="midnightblue" points="25.4095,-83.1217 20.9562,-73.5083 18.4425,-83.8006 25.4095,-83.1217"/>
</g>
<!-- Node20&#45;&gt;Node11 -->
<g id="edge29" class="edge"><title>Node20&#45;&gt;Node11</title>
<path fill="none" stroke="midnightblue" d="M504.809,-230.411C488.67,-198.843 447.598,-118.506 429.406,-82.92"/>
<polygon fill="midnightblue" stroke="midnightblue" points="432.401,-81.0906 424.733,-73.78 426.169,-84.2771 432.401,-81.0906"/>
</g>
<!-- Node20&#45;&gt;Node13 -->
<g id="edge28" class="edge"><title>Node20&#45;&gt;Node13</title>
<path fill="none" stroke="midnightblue" d="M511.821,-230.337C512.359,-208.294 513.442,-163.873 514.054,-138.801"/>
<polygon fill="midnightblue" stroke="midnightblue" points="517.56,-138.593 514.305,-128.511 510.562,-138.423 517.56,-138.593"/>
</g>
<!-- Node21 -->
<g id="node21" class="node"><title>Node21</title>
<polygon fill="white" stroke="#bfbfbf" points="695.5,-170.5 695.5,-188.5 733.5,-188.5 733.5,-170.5 695.5,-170.5"/>
<text text-anchor="middle" x="714.5" y="-177.3" font-family="Helvetica,sans-Serif" font-size="9.00">bitset</text>
</g>
<!-- Node20&#45;&gt;Node21 -->
<g id="edge26" class="edge"><title>Node20&#45;&gt;Node21</title>
<path fill="none" stroke="midnightblue" d="M567.076,-230.411C601.878,-221.573 647.383,-208.834 686.5,-194 687.534,-193.608 688.583,-193.192 689.636,-192.758"/>
<polygon fill="midnightblue" stroke="midnightblue" points="691.318,-195.84 699.013,-188.557 688.456,-189.452 691.318,-195.84"/>
</g>
<!-- Node22 -->
<g id="node22" class="node"><title>Node22</title>
<polygon fill="white" stroke="#bfbfbf" points="752,-170.5 752,-188.5 793,-188.5 793,-170.5 752,-170.5"/>
<text text-anchor="middle" x="772.5" y="-177.3" font-family="Helvetica,sans-Serif" font-size="9.00">mutex</text>
</g>
<!-- Node20&#45;&gt;Node22 -->
<g id="edge27" class="edge"><title>Node20&#45;&gt;Node22</title>
<path fill="none" stroke="midnightblue" d="M592.255,-230.532C637.12,-222.254 693.591,-210.044 742.5,-194 743.925,-193.533 745.372,-193.019 746.824,-192.474"/>
<polygon fill="midnightblue" stroke="midnightblue" points="748.347,-195.632 756.244,-188.568 745.666,-189.165 748.347,-195.632"/>
</g>
<!-- Node23 -->
<g id="node23" class="node"><title>Node23</title>
<g id="a_node23"><a xlink:href="BoundsAdaptedDist_8h.html" target="_top" xlink:title="Functions and type&#45;traits to enable easy wrapping of distributions in bounds&#45;modifiable adapters...">
<polygon fill="white" stroke="black" points="539.5,-165.5 539.5,-193.5 677.5,-193.5 677.5,-165.5 539.5,-165.5"/>
<text text-anchor="start" x="547.5" y="-182.3" font-family="Helvetica,sans-Serif" font-size="9.00">PriorHessian/BoundsAdapted</text>
<text text-anchor="middle" x="608.5" y="-172.3" font-family="Helvetica,sans-Serif" font-size="9.00">Dist.h</text>
</a>
</g>
</g>
<!-- Node20&#45;&gt;Node23 -->
<g id="edge30" class="edge"><title>Node20&#45;&gt;Node23</title>
<path fill="none" stroke="midnightblue" d="M531.598,-230.446C545.515,-221.408 564.248,-209.241 579.741,-199.179"/>
<polygon fill="midnightblue" stroke="midnightblue" points="581.947,-201.919 588.427,-193.537 578.134,-196.049 581.947,-201.919"/>
</g>
<!-- Node23&#45;&gt;Node13 -->
<g id="edge34" class="edge"><title>Node23&#45;&gt;Node13</title>
<path fill="none" stroke="midnightblue" d="M587.17,-165.339C572.008,-155.984 551.705,-143.456 536.413,-134.021"/>
<polygon fill="midnightblue" stroke="midnightblue" points="537.979,-130.874 527.631,-128.602 534.303,-136.832 537.979,-130.874"/>
</g>
<!-- Node24 -->
<g id="node24" class="node"><title>Node24</title>
<polygon fill="white" stroke="#bfbfbf" points="582.5,-110.5 582.5,-128.5 620.5,-128.5 620.5,-110.5 582.5,-110.5"/>
<text text-anchor="middle" x="601.5" y="-117.3" font-family="Helvetica,sans-Serif" font-size="9.00">utility</text>
</g>
<!-- Node23&#45;&gt;Node24 -->
<g id="edge31" class="edge"><title>Node23&#45;&gt;Node24</title>
<path fill="none" stroke="midnightblue" d="M606.912,-165.339C605.969,-157.531 604.76,-147.512 603.724,-138.927"/>
<polygon fill="midnightblue" stroke="midnightblue" points="607.171,-138.28 602.498,-128.771 600.222,-139.119 607.171,-138.28"/>
</g>
<!-- Node25 -->
<g id="node25" class="node"><title>Node25</title>
<polygon fill="white" stroke="#bfbfbf" points="639,-110.5 639,-128.5 676,-128.5 676,-110.5 639,-110.5"/>
<text text-anchor="middle" x="657.5" y="-117.3" font-family="Helvetica,sans-Serif" font-size="9.00">tuple</text>
</g>
<!-- Node23&#45;&gt;Node25 -->
<g id="edge32" class="edge"><title>Node23&#45;&gt;Node25</title>
<path fill="none" stroke="midnightblue" d="M619.619,-165.339C626.809,-156.829 636.216,-145.693 643.857,-136.649"/>
<polygon fill="midnightblue" stroke="midnightblue" points="646.732,-138.669 650.512,-128.771 641.385,-134.152 646.732,-138.669"/>
</g>
<!-- Node26 -->
<g id="node26" class="node"><title>Node26</title>
<polygon fill="white" stroke="#bfbfbf" points="694,-110.5 694,-128.5 753,-128.5 753,-110.5 694,-110.5"/>
<text text-anchor="middle" x="723.5" y="-117.3" font-family="Helvetica,sans-Serif" font-size="9.00">type_traits</text>
</g>
<!-- Node23&#45;&gt;Node26 -->
<g id="edge33" class="edge"><title>Node23&#45;&gt;Node26</title>
<path fill="none" stroke="midnightblue" d="M634.308,-165.484C653.456,-155.826 679.423,-142.73 698.4,-133.159"/>
<polygon fill="midnightblue" stroke="midnightblue" points="700.001,-136.272 707.354,-128.643 696.849,-130.022 700.001,-136.272"/>
</g>
</g>
</svg>
