<?xml version="1.0" encoding="UTF-8" standalone="no"?>
<!DOCTYPE svg PUBLIC "-//W3C//DTD SVG 1.1//EN"
 "http://www.w3.org/Graphics/SVG/1.1/DTD/svg11.dtd">
<!-- Generated by graphviz version 2.38.0 (20140413.2041)
 -->
<!-- Title: TruncatedDist.h Pages: 1 -->
<svg width="250pt" height="82pt"
 viewBox="0.00 0.00 250.00 82.00" xmlns="http://www.w3.org/2000/svg" xmlns:xlink="http://www.w3.org/1999/xlink">
<g id="graph0" class="graph" transform="scale(1 1) rotate(0) translate(4 78)">
<title>TruncatedDist.h</title>
<polygon fill="white" stroke="none" points="-4,4 -4,-78 246,-78 246,4 -4,4"/>
<!-- Node1 -->
<g id="node1" class="node"><title>Node1</title>
<polygon fill="#bfbfbf" stroke="black" points="81,-55.5 81,-73.5 162,-73.5 162,-55.5 81,-55.5"/>
<text text-anchor="middle" x="121.5" y="-62.3" font-family="Helvetica,sans-Serif" font-size="9.00">TruncatedDist.h</text>
</g>
<!-- Node2 -->
<g id="node2" class="node"><title>Node2</title>
<g id="a_node2"><a xlink:href="TruncatedGammaDist_8h.html" target="_top" xlink:title="TruncatedGammaDist class declaration and templated methods. ">
<polygon fill="white" stroke="black" points="0,-0.5 0,-18.5 113,-18.5 113,-0.5 0,-0.5"/>
<text text-anchor="middle" x="56.5" y="-7.3" font-family="Helvetica,sans-Serif" font-size="9.00">TruncatedGammaDist.h</text>
</a>
</g>
</g>
<!-- Node1&#45;&gt;Node2 -->
<g id="edge1" class="edge"><title>Node1&#45;&gt;Node2</title>
<path fill="none" stroke="midnightblue" d="M103.626,-48.9259C91.6518,-39.1622 76.3303,-26.6693 66.465,-18.6253"/>
<polygon fill="midnightblue" stroke="midnightblue" points="101.666,-51.8436 111.628,-55.4504 106.089,-46.4184 101.666,-51.8436"/>
</g>
<!-- Node3 -->
<g id="node3" class="node"><title>Node3</title>
<g id="a_node3"><a xlink:href="TruncatedNormalDist_8h.html" target="_top" xlink:title="TruncatedNormalDist class declaration. ">
<polygon fill="white" stroke="black" points="131,-0.5 131,-18.5 242,-18.5 242,-0.5 131,-0.5"/>
<text text-anchor="middle" x="186.5" y="-7.3" font-family="Helvetica,sans-Serif" font-size="9.00">TruncatedNormalDist.h</text>
</a>
</g>
</g>
<!-- Node1&#45;&gt;Node3 -->
<g id="edge2" class="edge"><title>Node1&#45;&gt;Node3</title>
<path fill="none" stroke="midnightblue" d="M139.374,-48.9259C151.348,-39.1622 166.67,-26.6693 176.535,-18.6253"/>
<polygon fill="midnightblue" stroke="midnightblue" points="136.911,-46.4184 131.372,-55.4504 141.334,-51.8436 136.911,-46.4184"/>
</g>
</g>
</svg>
