<?xml version="1.0" encoding="UTF-8" standalone="no"?>
<!DOCTYPE svg PUBLIC "-//W3C//DTD SVG 1.1//EN"
 "http://www.w3.org/Graphics/SVG/1.1/DTD/svg11.dtd">
<!-- Generated by graphviz version 2.38.0 (20140413.2041)
 -->
<!-- Title: UnivariateDist.h Pages: 1 -->
<svg width="748pt" height="192pt"
 viewBox="0.00 0.00 747.50 192.00" xmlns="http://www.w3.org/2000/svg" xmlns:xlink="http://www.w3.org/1999/xlink">
<g id="graph0" class="graph" transform="scale(1 1) rotate(0) translate(4 188)">
<title>UnivariateDist.h</title>
<polygon fill="white" stroke="none" points="-4,4 -4,-188 743.5,-188 743.5,4 -4,4"/>
<!-- Node1 -->
<g id="node1" class="node"><title>Node1</title>
<polygon fill="#bfbfbf" stroke="black" points="514.5,-165.5 514.5,-183.5 596.5,-183.5 596.5,-165.5 514.5,-165.5"/>
<text text-anchor="middle" x="555.5" y="-172.3" font-family="Helvetica,sans-Serif" font-size="9.00">UnivariateDist.h</text>
</g>
<!-- Node2 -->
<g id="node2" class="node"><title>Node2</title>
<g id="a_node2"><a xlink:href="util_8h.html" target="_top" xlink:title="Utilities and namespace globals. ">
<polygon fill="white" stroke="black" points="172.5,-110.5 172.5,-128.5 264.5,-128.5 264.5,-110.5 172.5,-110.5"/>
<text text-anchor="middle" x="218.5" y="-117.3" font-family="Helvetica,sans-Serif" font-size="9.00">PriorHessian/util.h</text>
</a>
</g>
</g>
<!-- Node1&#45;&gt;Node2 -->
<g id="edge1" class="edge"><title>Node1&#45;&gt;Node2</title>
<path fill="none" stroke="midnightblue" d="M514.177,-167.001C454.077,-157.549 342.37,-139.981 274.796,-129.354"/>
<polygon fill="midnightblue" stroke="midnightblue" points="275.173,-125.87 264.751,-127.774 274.086,-132.785 275.173,-125.87"/>
</g>
<!-- Node11 -->
<g id="node11" class="node"><title>Node11</title>
<g id="a_node11"><a xlink:href="Meta_8h.html" target="_top" xlink:title="Enables the use of variadic templates in interesting ways. ">
<polygon fill="white" stroke="black" points="505.5,-110.5 505.5,-128.5 605.5,-128.5 605.5,-110.5 505.5,-110.5"/>
<text text-anchor="middle" x="555.5" y="-117.3" font-family="Helvetica,sans-Serif" font-size="9.00">PriorHessian/Meta.h</text>
</a>
</g>
</g>
<!-- Node1&#45;&gt;Node11 -->
<g id="edge11" class="edge"><title>Node1&#45;&gt;Node11</title>
<path fill="none" stroke="midnightblue" d="M555.5,-165.219C555.5,-158.177 555.5,-147.808 555.5,-138.828"/>
<polygon fill="midnightblue" stroke="midnightblue" points="559,-138.55 555.5,-128.55 552,-138.55 559,-138.55"/>
</g>
<!-- Node15 -->
<g id="node15" class="node"><title>Node15</title>
<g id="a_node15"><a xlink:href="BaseDist_8h.html" target="_top" xlink:title="The Base classes for UnivariateDist and MultivariateDist. ">
<polygon fill="white" stroke="black" points="623.5,-110.5 623.5,-128.5 739.5,-128.5 739.5,-110.5 623.5,-110.5"/>
<text text-anchor="middle" x="681.5" y="-117.3" font-family="Helvetica,sans-Serif" font-size="9.00">PriorHessian/BaseDist.h</text>
</a>
</g>
</g>
<!-- Node1&#45;&gt;Node15 -->
<g id="edge15" class="edge"><title>Node1&#45;&gt;Node15</title>
<path fill="none" stroke="midnightblue" d="M574.637,-165.45C595.451,-156.695 628.947,-142.606 652.889,-132.535"/>
<polygon fill="midnightblue" stroke="midnightblue" points="654.323,-135.729 662.183,-128.625 651.608,-129.276 654.323,-135.729"/>
</g>
<!-- Node3 -->
<g id="node3" class="node"><title>Node3</title>
<polygon fill="white" stroke="#bfbfbf" points="0,-55.5 0,-73.5 41,-73.5 41,-55.5 0,-55.5"/>
<text text-anchor="middle" x="20.5" y="-62.3" font-family="Helvetica,sans-Serif" font-size="9.00">cmath</text>
</g>
<!-- Node2&#45;&gt;Node3 -->
<g id="edge2" class="edge"><title>Node2&#45;&gt;Node3</title>
<path fill="none" stroke="midnightblue" d="M188.428,-110.45C151.247,-100.498 88.3147,-83.6524 50.9568,-73.6526"/>
<polygon fill="midnightblue" stroke="midnightblue" points="51.7057,-70.2299 41.1407,-71.025 49.8956,-76.9918 51.7057,-70.2299"/>
</g>
<!-- Node4 -->
<g id="node4" class="node"><title>Node4</title>
<polygon fill="white" stroke="#bfbfbf" points="193,-0.5 193,-18.5 232,-18.5 232,-0.5 193,-0.5"/>
<text text-anchor="middle" x="212.5" y="-7.3" font-family="Helvetica,sans-Serif" font-size="9.00">string</text>
</g>
<!-- Node2&#45;&gt;Node4 -->
<g id="edge3" class="edge"><title>Node2&#45;&gt;Node4</title>
<path fill="none" stroke="midnightblue" d="M172.342,-115.781C143.135,-111.385 107.433,-100.492 88.5,-74 62.5268,-37.6564 138.573,-20.7017 182.952,-14.0763"/>
<polygon fill="midnightblue" stroke="midnightblue" points="183.528,-17.5299 192.946,-12.6773 182.558,-10.5975 183.528,-17.5299"/>
</g>
<!-- Node5 -->
<g id="node5" class="node"><title>Node5</title>
<polygon fill="white" stroke="#bfbfbf" points="97.5,-55.5 97.5,-73.5 145.5,-73.5 145.5,-55.5 97.5,-55.5"/>
<text text-anchor="middle" x="121.5" y="-62.3" font-family="Helvetica,sans-Serif" font-size="9.00">random</text>
</g>
<!-- Node2&#45;&gt;Node5 -->
<g id="edge4" class="edge"><title>Node2&#45;&gt;Node5</title>
<path fill="none" stroke="midnightblue" d="M203.768,-110.45C188.242,-101.968 163.552,-88.477 145.267,-78.486"/>
<polygon fill="midnightblue" stroke="midnightblue" points="146.825,-75.3488 136.371,-73.6253 143.468,-81.4917 146.825,-75.3488"/>
</g>
<!-- Node6 -->
<g id="node6" class="node"><title>Node6</title>
<polygon fill="white" stroke="#bfbfbf" points="164,-55.5 164,-73.5 205,-73.5 205,-55.5 164,-55.5"/>
<text text-anchor="middle" x="184.5" y="-62.3" font-family="Helvetica,sans-Serif" font-size="9.00">vector</text>
</g>
<!-- Node2&#45;&gt;Node6 -->
<g id="edge5" class="edge"><title>Node2&#45;&gt;Node6</title>
<path fill="none" stroke="midnightblue" d="M213.188,-110.219C208.369,-102.707 201.122,-91.411 195.118,-82.0515"/>
<polygon fill="midnightblue" stroke="midnightblue" points="198.009,-80.0767 189.664,-73.5496 192.118,-83.8564 198.009,-80.0767"/>
</g>
<!-- Node7 -->
<g id="node7" class="node"><title>Node7</title>
<polygon fill="white" stroke="#bfbfbf" points="223.5,-55.5 223.5,-73.5 279.5,-73.5 279.5,-55.5 223.5,-55.5"/>
<text text-anchor="middle" x="251.5" y="-62.3" font-family="Helvetica,sans-Serif" font-size="9.00">typeindex</text>
</g>
<!-- Node2&#45;&gt;Node7 -->
<g id="edge6" class="edge"><title>Node2&#45;&gt;Node7</title>
<path fill="none" stroke="midnightblue" d="M223.656,-110.219C228.333,-102.707 235.367,-91.411 241.194,-82.0515"/>
<polygon fill="midnightblue" stroke="midnightblue" points="244.174,-83.8885 246.488,-73.5496 238.231,-80.1886 244.174,-83.8885"/>
</g>
<!-- Node8 -->
<g id="node8" class="node"><title>Node8</title>
<polygon fill="white" stroke="#bfbfbf" points="298,-55.5 298,-73.5 353,-73.5 353,-55.5 298,-55.5"/>
<text text-anchor="middle" x="325.5" y="-62.3" font-family="Helvetica,sans-Serif" font-size="9.00">armadillo</text>
</g>
<!-- Node2&#45;&gt;Node8 -->
<g id="edge7" class="edge"><title>Node2&#45;&gt;Node8</title>
<path fill="none" stroke="midnightblue" d="M234.751,-110.45C252.113,-101.851 279.864,-88.1048 300.112,-78.0755"/>
<polygon fill="midnightblue" stroke="midnightblue" points="301.689,-81.2003 309.096,-73.6253 298.582,-74.9276 301.689,-81.2003"/>
</g>
<!-- Node9 -->
<g id="node9" class="node"><title>Node9</title>
<g id="a_node9"><a xlink:href="PriorHessianError_8h.html" target="_top" xlink:title="The Exception classes for the PriorHessian library. ">
<polygon fill="white" stroke="black" points="371.5,-55.5 371.5,-73.5 469.5,-73.5 469.5,-55.5 371.5,-55.5"/>
<text text-anchor="middle" x="420.5" y="-62.3" font-family="Helvetica,sans-Serif" font-size="9.00">PriorHessianError.h</text>
</a>
</g>
</g>
<!-- Node2&#45;&gt;Node9 -->
<g id="edge8" class="edge"><title>Node2&#45;&gt;Node9</title>
<path fill="none" stroke="midnightblue" d="M249.179,-110.45C284.133,-101.279 341.394,-86.2555 379.992,-76.1283"/>
<polygon fill="midnightblue" stroke="midnightblue" points="381.079,-79.4617 389.863,-73.5383 379.303,-72.6908 381.079,-79.4617"/>
</g>
<!-- Node9&#45;&gt;Node4 -->
<g id="edge10" class="edge"><title>Node9&#45;&gt;Node4</title>
<path fill="none" stroke="midnightblue" d="M388.909,-55.4504C349.123,-45.3126 281.269,-28.0228 242.331,-18.1013"/>
<polygon fill="midnightblue" stroke="midnightblue" points="242.718,-14.588 232.163,-15.5104 240.989,-21.3712 242.718,-14.588"/>
</g>
<!-- Node10 -->
<g id="node10" class="node"><title>Node10</title>
<polygon fill="white" stroke="#bfbfbf" points="392.5,-0.5 392.5,-18.5 448.5,-18.5 448.5,-0.5 392.5,-0.5"/>
<text text-anchor="middle" x="420.5" y="-7.3" font-family="Helvetica,sans-Serif" font-size="9.00">exception</text>
</g>
<!-- Node9&#45;&gt;Node10 -->
<g id="edge9" class="edge"><title>Node9&#45;&gt;Node10</title>
<path fill="none" stroke="midnightblue" d="M420.5,-55.2188C420.5,-48.1769 420.5,-37.8083 420.5,-28.8277"/>
<polygon fill="midnightblue" stroke="midnightblue" points="424,-28.5495 420.5,-18.5496 417,-28.5496 424,-28.5495"/>
</g>
<!-- Node12 -->
<g id="node12" class="node"><title>Node12</title>
<polygon fill="white" stroke="#bfbfbf" points="487.5,-55.5 487.5,-73.5 543.5,-73.5 543.5,-55.5 487.5,-55.5"/>
<text text-anchor="middle" x="515.5" y="-62.3" font-family="Helvetica,sans-Serif" font-size="9.00">functional</text>
</g>
<!-- Node11&#45;&gt;Node12 -->
<g id="edge12" class="edge"><title>Node11&#45;&gt;Node12</title>
<path fill="none" stroke="midnightblue" d="M549.25,-110.219C543.522,-102.629 534.878,-91.1753 527.771,-81.7597"/>
<polygon fill="midnightblue" stroke="midnightblue" points="530.393,-79.423 521.575,-73.5496 524.806,-83.6399 530.393,-79.423"/>
</g>
<!-- Node13 -->
<g id="node13" class="node"><title>Node13</title>
<polygon fill="white" stroke="#bfbfbf" points="561.5,-55.5 561.5,-73.5 631.5,-73.5 631.5,-55.5 561.5,-55.5"/>
<text text-anchor="middle" x="596.5" y="-62.3" font-family="Helvetica,sans-Serif" font-size="9.00">initializer_list</text>
</g>
<!-- Node11&#45;&gt;Node13 -->
<g id="edge13" class="edge"><title>Node11&#45;&gt;Node13</title>
<path fill="none" stroke="midnightblue" d="M561.906,-110.219C567.838,-102.551 576.821,-90.9387 584.147,-81.4691"/>
<polygon fill="midnightblue" stroke="midnightblue" points="586.923,-83.6007 590.273,-73.5496 581.386,-79.3176 586.923,-83.6007"/>
</g>
<!-- Node14 -->
<g id="node14" class="node"><title>Node14</title>
<polygon fill="white" stroke="#bfbfbf" points="650,-55.5 650,-73.5 693,-73.5 693,-55.5 650,-55.5"/>
<text text-anchor="middle" x="671.5" y="-62.3" font-family="Helvetica,sans-Serif" font-size="9.00">cstdint</text>
</g>
<!-- Node11&#45;&gt;Node14 -->
<g id="edge14" class="edge"><title>Node11&#45;&gt;Node14</title>
<path fill="none" stroke="midnightblue" d="M573.118,-110.45C592.11,-101.773 622.571,-87.8556 644.57,-77.8041"/>
<polygon fill="midnightblue" stroke="midnightblue" points="646.075,-80.9646 653.716,-73.6253 643.166,-74.5977 646.075,-80.9646"/>
</g>
</g>
</svg>
