<?xml version="1.0" encoding="UTF-8" standalone="no"?>
<!DOCTYPE svg PUBLIC "-//W3C//DTD SVG 1.1//EN"
 "http://www.w3.org/Graphics/SVG/1.1/DTD/svg11.dtd">
<!-- Generated by graphviz version 2.38.0 (20140413.2041)
 -->
<!-- Title: UnivariateDist.cpp Pages: 1 -->
<!--zoomable 247 -->
<svg id="main" version="1.1" xmlns="http://www.w3.org/2000/svg" xmlns:xlink="http://www.w3.org/1999/xlink" xml:space="preserve" onload="init(evt)">
<style type="text/css"><![CDATA[
.edge:hover path { stroke: red; }
.edge:hover polygon { stroke: red; fill: red; }
]]></style>
<script type="text/javascript"><![CDATA[
var edges = document.getElementsByTagName('g');
if (edges && edges.length) {
  for (var i=0;i<edges.length;i++) {
    if (edges[i].id.substr(0,4)=='edge') {
      edges[i].setAttribute('class','edge');
    }
  }
}
]]></script>
        <defs>
                <circle id="rim" cx="0" cy="0" r="7"/>
                <circle id="rim2" cx="0" cy="0" r="3.5"/>
                <g id="zoomPlus">
                        <use xlink:href="#rim" fill="#404040">
                                <set attributeName="fill" to="#808080" begin="zoomplus.mouseover" end="zoomplus.mouseout"/>
                        </use>
                        <path d="M-4,0h8M0,-4v8" fill="none" stroke="white" stroke-width="1.5" pointer-events="none"/>
                </g>
                <g id="zoomMin">
                        <use xlink:href="#rim" fill="#404040">
                                <set attributeName="fill" to="#808080" begin="zoomminus.mouseover" end="zoomminus.mouseout"/>
                        </use>
                        <path d="M-4,0h8" fill="none" stroke="white" stroke-width="1.5" pointer-events="none"/>
                </g>
                <g id="dirArrow">
                        <path fill="none" stroke="white" stroke-width="1.5" d="M0,-3.0v7 M-2.5,-0.5L0,-3.0L2.5,-0.5"/>
                </g>
               <g id="resetDef">
                       <use xlink:href="#rim2" fill="#404040">
                               <set attributeName="fill" to="#808080" begin="reset.mouseover" end="reset.mouseout"/>
                       </use>
               </g>
        </defs>

<script type="text/javascript">
var viewWidth = 702;
var viewHeight = 247;
var sectionId = 'dynsection-0';
</script>
<script xlink:href="svgpan.js"/>
<svg id="graph" class="graph">
<g id="viewport">
<title>UnivariateDist.cpp</title>
<polygon fill="white" stroke="none" points="-4,4 -4,-243 697.5,-243 697.5,4 -4,4"/>
<!-- Node1 -->
<g id="node1" class="node"><title>Node1</title>
<polygon fill="#bfbfbf" stroke="black" points="168.5,-220.5 168.5,-238.5 260.5,-238.5 260.5,-220.5 168.5,-220.5"/>
<text text-anchor="middle" x="214.5" y="-227.3" font-family="Helvetica,sans-Serif" font-size="9.00">UnivariateDist.cpp</text>
</g>
<!-- Node2 -->
<g id="node2" class="node"><title>Node2</title>
<g id="a_node2"><a xlink:href="UnivariateDist_8h.html" target="_top" xlink:title="UnivariateDist base class. ">
<polygon fill="white" stroke="black" points="195,-165.5 195,-183.5 332,-183.5 332,-165.5 195,-165.5"/>
<text text-anchor="middle" x="263.5" y="-172.3" font-family="Helvetica,sans-Serif" font-size="9.00">PriorHessian/UnivariateDist.h</text>
</a>
</g>
</g>
<!-- Node1&#45;&gt;Node2 -->
<g id="edge1" class="edge"><title>Node1&#45;&gt;Node2</title>
<path fill="none" stroke="midnightblue" d="M222.156,-220.219C229.318,-212.473 240.201,-200.701 249.003,-191.18"/>
<polygon fill="midnightblue" stroke="midnightblue" points="251.839,-193.268 256.058,-183.55 246.699,-188.516 251.839,-193.268"/>
</g>
<!-- Node4 -->
<g id="node4" class="node"><title>Node4</title>
<polygon fill="white" stroke="#bfbfbf" points="0,-55.5 0,-73.5 41,-73.5 41,-55.5 0,-55.5"/>
<text text-anchor="middle" x="20.5" y="-62.3" font-family="Helvetica,sans-Serif" font-size="9.00">cmath</text>
</g>
<!-- Node1&#45;&gt;Node4 -->
<g id="edge18" class="edge"><title>Node1&#45;&gt;Node4</title>
<path fill="none" stroke="midnightblue" d="M204.88,-220.417C174.109,-194.563 77.7842,-113.631 37.9795,-80.1864"/>
<polygon fill="midnightblue" stroke="midnightblue" points="40.0864,-77.3852 30.1786,-73.632 35.5833,-82.7446 40.0864,-77.3852"/>
</g>
<!-- Node10 -->
<g id="node10" class="node"><title>Node10</title>
<g id="a_node10"><a xlink:href="PriorHessianError_8h.html" target="_top" xlink:title="The Exception classes for the PriorHessian library. ">
<polygon fill="white" stroke="black" points="59.5,-55.5 59.5,-73.5 157.5,-73.5 157.5,-55.5 59.5,-55.5"/>
<text text-anchor="middle" x="108.5" y="-62.3" font-family="Helvetica,sans-Serif" font-size="9.00">PriorHessianError.h</text>
</a>
</g>
</g>
<!-- Node1&#45;&gt;Node10 -->
<g id="edge17" class="edge"><title>Node1&#45;&gt;Node10</title>
<path fill="none" stroke="midnightblue" d="M209.152,-220.3C203.33,-211.373 193.749,-196.676 185.5,-184 161.848,-147.653 134.151,-105.008 119.269,-82.088"/>
<polygon fill="midnightblue" stroke="midnightblue" points="122.106,-80.0301 113.725,-73.5486 116.235,-83.8419 122.106,-80.0301"/>
</g>
<!-- Node17 -->
<g id="node17" class="node"><title>Node17</title>
<polygon fill="white" stroke="#bfbfbf" points="350,-165.5 350,-183.5 399,-183.5 399,-165.5 350,-165.5"/>
<text text-anchor="middle" x="374.5" y="-172.3" font-family="Helvetica,sans-Serif" font-size="9.00">sstream</text>
</g>
<!-- Node1&#45;&gt;Node17 -->
<g id="edge19" class="edge"><title>Node1&#45;&gt;Node17</title>
<path fill="none" stroke="midnightblue" d="M238.801,-220.45C265.898,-211.475 309.92,-196.892 340.443,-186.781"/>
<polygon fill="midnightblue" stroke="midnightblue" points="341.841,-190.005 350.233,-183.538 339.64,-183.36 341.841,-190.005"/>
</g>
<!-- Node3 -->
<g id="node3" class="node"><title>Node3</title>
<g id="a_node3"><a xlink:href="util_8h.html" target="_top" xlink:title="Utilities and namespace globals. ">
<polygon fill="white" stroke="black" points="217.5,-110.5 217.5,-128.5 309.5,-128.5 309.5,-110.5 217.5,-110.5"/>
<text text-anchor="middle" x="263.5" y="-117.3" font-family="Helvetica,sans-Serif" font-size="9.00">PriorHessian/util.h</text>
</a>
</g>
</g>
<!-- Node2&#45;&gt;Node3 -->
<g id="edge2" class="edge"><title>Node2&#45;&gt;Node3</title>
<path fill="none" stroke="midnightblue" d="M263.5,-165.219C263.5,-158.177 263.5,-147.808 263.5,-138.828"/>
<polygon fill="midnightblue" stroke="midnightblue" points="267,-138.55 263.5,-128.55 260,-138.55 267,-138.55"/>
</g>
<!-- Node12 -->
<g id="node12" class="node"><title>Node12</title>
<g id="a_node12"><a xlink:href="Meta_8h.html" target="_top" xlink:title="Enables the use of variadic templates in interesting ways. ">
<polygon fill="white" stroke="black" points="459.5,-110.5 459.5,-128.5 559.5,-128.5 559.5,-110.5 459.5,-110.5"/>
<text text-anchor="middle" x="509.5" y="-117.3" font-family="Helvetica,sans-Serif" font-size="9.00">PriorHessian/Meta.h</text>
</a>
</g>
</g>
<!-- Node2&#45;&gt;Node12 -->
<g id="edge12" class="edge"><title>Node2&#45;&gt;Node12</title>
<path fill="none" stroke="midnightblue" d="M300.862,-165.45C344.064,-156.143 415.246,-140.807 462.254,-130.679"/>
<polygon fill="midnightblue" stroke="midnightblue" points="463.152,-134.066 472.19,-128.538 461.677,-127.223 463.152,-134.066"/>
</g>
<!-- Node16 -->
<g id="node16" class="node"><title>Node16</title>
<g id="a_node16"><a xlink:href="BaseDist_8h.html" target="_top" xlink:title="The Base classes for UnivariateDist and MultivariateDist. ">
<polygon fill="white" stroke="black" points="577.5,-110.5 577.5,-128.5 693.5,-128.5 693.5,-110.5 577.5,-110.5"/>
<text text-anchor="middle" x="635.5" y="-117.3" font-family="Helvetica,sans-Serif" font-size="9.00">PriorHessian/BaseDist.h</text>
</a>
</g>
</g>
<!-- Node2&#45;&gt;Node16 -->
<g id="edge16" class="edge"><title>Node2&#45;&gt;Node16</title>
<path fill="none" stroke="midnightblue" d="M319.999,-165.45C386.834,-155.928 497.957,-140.096 568.913,-129.987"/>
<polygon fill="midnightblue" stroke="midnightblue" points="569.674,-133.414 579.08,-128.538 568.686,-126.484 569.674,-133.414"/>
</g>
<!-- Node3&#45;&gt;Node4 -->
<g id="edge3" class="edge"><title>Node3&#45;&gt;Node4</title>
<path fill="none" stroke="midnightblue" d="M220.463,-110.429C179.405,-102.524 115.622,-89.7113 51.0533,-73.988"/>
<polygon fill="midnightblue" stroke="midnightblue" points="51.6526,-70.5312 41.1063,-71.5438 49.9822,-77.329 51.6526,-70.5312"/>
</g>
<!-- Node5 -->
<g id="node5" class="node"><title>Node5</title>
<polygon fill="white" stroke="#bfbfbf" points="264,-0.5 264,-18.5 303,-18.5 303,-0.5 264,-0.5"/>
<text text-anchor="middle" x="283.5" y="-7.3" font-family="Helvetica,sans-Serif" font-size="9.00">string</text>
</g>
<!-- Node3&#45;&gt;Node5 -->
<g id="edge4" class="edge"><title>Node3&#45;&gt;Node5</title>
<path fill="none" stroke="midnightblue" d="M309.688,-112.101C332.966,-106.283 359.22,-95.1809 373.5,-74 391.761,-46.9139 345.575,-27.7011 312.822,-17.915"/>
<polygon fill="midnightblue" stroke="midnightblue" points="313.75,-14.5402 303.174,-15.1823 311.842,-21.2752 313.75,-14.5402"/>
</g>
<!-- Node6 -->
<g id="node6" class="node"><title>Node6</title>
<polygon fill="white" stroke="#bfbfbf" points="421.5,-55.5 421.5,-73.5 469.5,-73.5 469.5,-55.5 421.5,-55.5"/>
<text text-anchor="middle" x="445.5" y="-62.3" font-family="Helvetica,sans-Serif" font-size="9.00">random</text>
</g>
<!-- Node3&#45;&gt;Node6 -->
<g id="edge5" class="edge"><title>Node3&#45;&gt;Node6</title>
<path fill="none" stroke="midnightblue" d="M291.142,-110.45C323.453,-101.041 376.92,-85.4711 411.678,-75.3492"/>
<polygon fill="midnightblue" stroke="midnightblue" points="412.764,-78.6786 421.386,-72.5222 410.806,-71.9578 412.764,-78.6786"/>
</g>
<!-- Node7 -->
<g id="node7" class="node"><title>Node7</title>
<polygon fill="white" stroke="#bfbfbf" points="176,-55.5 176,-73.5 217,-73.5 217,-55.5 176,-55.5"/>
<text text-anchor="middle" x="196.5" y="-62.3" font-family="Helvetica,sans-Serif" font-size="9.00">vector</text>
</g>
<!-- Node3&#45;&gt;Node7 -->
<g id="edge6" class="edge"><title>Node3&#45;&gt;Node7</title>
<path fill="none" stroke="midnightblue" d="M253.324,-110.45C243.092,-102.357 227.098,-89.7042 214.681,-79.8822"/>
<polygon fill="midnightblue" stroke="midnightblue" points="216.786,-77.0844 206.772,-73.6253 212.443,-82.5744 216.786,-77.0844"/>
</g>
<!-- Node8 -->
<g id="node8" class="node"><title>Node8</title>
<polygon fill="white" stroke="#bfbfbf" points="235.5,-55.5 235.5,-73.5 291.5,-73.5 291.5,-55.5 235.5,-55.5"/>
<text text-anchor="middle" x="263.5" y="-62.3" font-family="Helvetica,sans-Serif" font-size="9.00">typeindex</text>
</g>
<!-- Node3&#45;&gt;Node8 -->
<g id="edge7" class="edge"><title>Node3&#45;&gt;Node8</title>
<path fill="none" stroke="midnightblue" d="M263.5,-110.219C263.5,-103.177 263.5,-92.8083 263.5,-83.8277"/>
<polygon fill="midnightblue" stroke="midnightblue" points="267,-83.5495 263.5,-73.5496 260,-83.5496 267,-83.5495"/>
</g>
<!-- Node9 -->
<g id="node9" class="node"><title>Node9</title>
<polygon fill="white" stroke="#bfbfbf" points="310,-55.5 310,-73.5 365,-73.5 365,-55.5 310,-55.5"/>
<text text-anchor="middle" x="337.5" y="-62.3" font-family="Helvetica,sans-Serif" font-size="9.00">armadillo</text>
</g>
<!-- Node3&#45;&gt;Node9 -->
<g id="edge8" class="edge"><title>Node3&#45;&gt;Node9</title>
<path fill="none" stroke="midnightblue" d="M274.739,-110.45C286.148,-102.279 304.046,-89.4604 317.814,-79.5996"/>
<polygon fill="midnightblue" stroke="midnightblue" points="320.063,-82.2936 326.155,-73.6253 315.987,-76.6027 320.063,-82.2936"/>
</g>
<!-- Node3&#45;&gt;Node10 -->
<g id="edge9" class="edge"><title>Node3&#45;&gt;Node10</title>
<path fill="none" stroke="midnightblue" d="M239.959,-110.45C213.709,-101.475 171.062,-86.8922 141.492,-76.7813"/>
<polygon fill="midnightblue" stroke="midnightblue" points="142.603,-73.4621 132.008,-73.5383 140.338,-80.0856 142.603,-73.4621"/>
</g>
<!-- Node10&#45;&gt;Node5 -->
<g id="edge11" class="edge"><title>Node10&#45;&gt;Node5</title>
<path fill="none" stroke="midnightblue" d="M135.079,-55.4504C167.14,-45.7404 220.865,-29.4693 254.128,-19.3956"/>
<polygon fill="midnightblue" stroke="midnightblue" points="255.191,-22.7307 263.747,-16.4824 253.162,-16.0312 255.191,-22.7307"/>
</g>
<!-- Node11 -->
<g id="node11" class="node"><title>Node11</title>
<polygon fill="white" stroke="#bfbfbf" points="80.5,-0.5 80.5,-18.5 136.5,-18.5 136.5,-0.5 80.5,-0.5"/>
<text text-anchor="middle" x="108.5" y="-7.3" font-family="Helvetica,sans-Serif" font-size="9.00">exception</text>
</g>
<!-- Node10&#45;&gt;Node11 -->
<g id="edge10" class="edge"><title>Node10&#45;&gt;Node11</title>
<path fill="none" stroke="midnightblue" d="M108.5,-55.2188C108.5,-48.1769 108.5,-37.8083 108.5,-28.8277"/>
<polygon fill="midnightblue" stroke="midnightblue" points="112,-28.5495 108.5,-18.5496 105,-28.5496 112,-28.5495"/>
</g>
<!-- Node13 -->
<g id="node13" class="node"><title>Node13</title>
<polygon fill="white" stroke="#bfbfbf" points="549.5,-55.5 549.5,-73.5 605.5,-73.5 605.5,-55.5 549.5,-55.5"/>
<text text-anchor="middle" x="577.5" y="-62.3" font-family="Helvetica,sans-Serif" font-size="9.00">functional</text>
</g>
<!-- Node12&#45;&gt;Node13 -->
<g id="edge13" class="edge"><title>Node12&#45;&gt;Node13</title>
<path fill="none" stroke="midnightblue" d="M519.828,-110.45C530.212,-102.357 546.446,-89.7042 559.047,-79.8822"/>
<polygon fill="midnightblue" stroke="midnightblue" points="561.339,-82.5333 567.075,-73.6253 557.036,-77.0122 561.339,-82.5333"/>
</g>
<!-- Node14 -->
<g id="node14" class="node"><title>Node14</title>
<polygon fill="white" stroke="#bfbfbf" points="623.5,-55.5 623.5,-73.5 693.5,-73.5 693.5,-55.5 623.5,-55.5"/>
<text text-anchor="middle" x="658.5" y="-62.3" font-family="Helvetica,sans-Serif" font-size="9.00">initializer_list</text>
</g>
<!-- Node12&#45;&gt;Node14 -->
<g id="edge14" class="edge"><title>Node12&#45;&gt;Node14</title>
<path fill="none" stroke="midnightblue" d="M532.13,-110.45C557.181,-101.539 597.767,-87.1029 626.166,-77.0014"/>
<polygon fill="midnightblue" stroke="midnightblue" points="627.408,-80.2743 635.657,-73.6253 625.062,-73.6791 627.408,-80.2743"/>
</g>
<!-- Node15 -->
<g id="node15" class="node"><title>Node15</title>
<polygon fill="white" stroke="#bfbfbf" points="488,-55.5 488,-73.5 531,-73.5 531,-55.5 488,-55.5"/>
<text text-anchor="middle" x="509.5" y="-62.3" font-family="Helvetica,sans-Serif" font-size="9.00">cstdint</text>
</g>
<!-- Node12&#45;&gt;Node15 -->
<g id="edge15" class="edge"><title>Node12&#45;&gt;Node15</title>
<path fill="none" stroke="midnightblue" d="M509.5,-110.219C509.5,-103.177 509.5,-92.8083 509.5,-83.8277"/>
<polygon fill="midnightblue" stroke="midnightblue" points="513,-83.5495 509.5,-73.5496 506,-83.5496 513,-83.5495"/>
</g>
</g>
</svg>
        <g id="navigator" transform="translate(0 0)" fill="#404254">
                <rect fill="#f2f5e9" fill-opacity="0.5" stroke="#606060" stroke-width=".5" x="0" y="0" width="60" height="60"/>
                <use id="zoomplus" xlink:href="#zoomPlus" x="17" y="9" onmousedown="handleZoom(evt,'in')"/>
                <use id="zoomminus" xlink:href="#zoomMin" x="42" y="9" onmousedown="handleZoom(evt,'out')"/>
                <use id="reset" xlink:href="#resetDef" x="30" y="36" onmousedown="handleReset()"/>
                <g id="arrowUp" xlink:href="#dirArrow" transform="translate(30 24)" onmousedown="handlePan(0,-1)">
                  <use xlink:href="#rim" fill="#404040">
                        <set attributeName="fill" to="#808080" begin="arrowUp.mouseover" end="arrowUp.mouseout"/>
                  </use>
                  <path fill="none" stroke="white" stroke-width="1.5" d="M0,-3.0v7 M-2.5,-0.5L0,-3.0L2.5,-0.5"/>
                </g>
                <g id="arrowRight" xlink:href="#dirArrow" transform="rotate(90) translate(36 -43)" onmousedown="handlePan(1,0)">
                  <use xlink:href="#rim" fill="#404040">
                        <set attributeName="fill" to="#808080" begin="arrowRight.mouseover" end="arrowRight.mouseout"/>
                  </use>
                  <path fill="none" stroke="white" stroke-width="1.5" d="M0,-3.0v7 M-2.5,-0.5L0,-3.0L2.5,-0.5"/>
                </g>
                <g id="arrowDown" xlink:href="#dirArrow" transform="rotate(180) translate(-30 -48)" onmousedown="handlePan(0,1)">
                  <use xlink:href="#rim" fill="#404040">
                        <set attributeName="fill" to="#808080" begin="arrowDown.mouseover" end="arrowDown.mouseout"/>
                  </use>
                  <path fill="none" stroke="white" stroke-width="1.5" d="M0,-3.0v7 M-2.5,-0.5L0,-3.0L2.5,-0.5"/>
                </g>
                <g id="arrowLeft" xlink:href="#dirArrow" transform="rotate(270) translate(-36 17)" onmousedown="handlePan(-1,0)">
                  <use xlink:href="#rim" fill="#404040">
                        <set attributeName="fill" to="#808080" begin="arrowLeft.mouseover" end="arrowLeft.mouseout"/>
                  </use>
                  <path fill="none" stroke="white" stroke-width="1.5" d="M0,-3.0v7 M-2.5,-0.5L0,-3.0L2.5,-0.5"/>
                </g>
        </g>
        <svg viewBox="0 0 15 15" width="100%" height="30px" preserveAspectRatio="xMaxYMin meet">
         <g id="arrow_out" transform="scale(0.3 0.3)">
          <a xlink:href="UnivariateDist_8cpp__incl_org.svg" target="_base">
           <rect id="button" ry="5" rx="5" y="6" x="6" height="38" width="38"
                fill="#f2f5e9" fill-opacity="0.5" stroke="#606060" stroke-width="1.0"/>
           <path id="arrow"
             d="M 11.500037,31.436501 C 11.940474,20.09759 22.043105,11.32322 32.158766,21.979434 L 37.068811,17.246167 C 37.068811,17.246167 37.088388,32 37.088388,32 L 22.160133,31.978069 C 22.160133,31.978069 26.997745,27.140456 26.997745,27.140456 C 18.528582,18.264221 13.291696,25.230495 11.500037,31.436501 z"
             style="fill:#404040;"/>
          </a>
         </g>
        </svg>
</svg>
