<?xml version="1.0" encoding="UTF-8" standalone="no"?>
<!DOCTYPE svg PUBLIC "-//W3C//DTD SVG 1.1//EN"
 "http://www.w3.org/Graphics/SVG/1.1/DTD/svg11.dtd">
<!-- Generated by graphviz version 2.38.0 (20140413.2041)
 -->
<!-- Title: UnivariateDist.h Pages: 1 -->
<svg width="1115pt" height="137pt"
 viewBox="0.00 0.00 1115.00 137.00" xmlns="http://www.w3.org/2000/svg" xmlns:xlink="http://www.w3.org/1999/xlink">
<g id="graph0" class="graph" transform="scale(1 1) rotate(0) translate(4 133)">
<title>UnivariateDist.h</title>
<polygon fill="white" stroke="none" points="-4,4 -4,-133 1111,-133 1111,4 -4,4"/>
<!-- Node1 -->
<g id="node1" class="node"><title>Node1</title>
<polygon fill="#bfbfbf" stroke="black" points="295,-110.5 295,-128.5 377,-128.5 377,-110.5 295,-110.5"/>
<text text-anchor="middle" x="336" y="-117.3" font-family="Helvetica,sans-Serif" font-size="9.00">UnivariateDist.h</text>
</g>
<!-- Node2 -->
<g id="node2" class="node"><title>Node2</title>
<g id="a_node2"><a xlink:href="UnivariateDist_8cpp.html" target="_top" xlink:title="UnivariateDist base class method definition. ">
<polygon fill="white" stroke="black" points="0,-55.5 0,-73.5 92,-73.5 92,-55.5 0,-55.5"/>
<text text-anchor="middle" x="46" y="-62.3" font-family="Helvetica,sans-Serif" font-size="9.00">UnivariateDist.cpp</text>
</a>
</g>
</g>
<!-- Node1&#45;&gt;Node2 -->
<g id="edge1" class="edge"><title>Node1&#45;&gt;Node2</title>
<path fill="none" stroke="midnightblue" d="M284.817,-109.146C229.502,-99.0365 142.267,-83.0937 89.9469,-73.5317"/>
<polygon fill="midnightblue" stroke="midnightblue" points="284.292,-112.608 294.758,-110.963 285.55,-105.722 284.292,-112.608"/>
</g>
<!-- Node3 -->
<g id="node3" class="node"><title>Node3</title>
<g id="a_node3"><a xlink:href="CompositeDist_8h.html" target="_top" xlink:title="CompositeDist class declaration and inline and templated member function definitions. ">
<polygon fill="white" stroke="black" points="110,-55.5 110,-73.5 194,-73.5 194,-55.5 110,-55.5"/>
<text text-anchor="middle" x="152" y="-62.3" font-family="Helvetica,sans-Serif" font-size="9.00">CompositeDist.h</text>
</a>
</g>
</g>
<!-- Node1&#45;&gt;Node3 -->
<g id="edge2" class="edge"><title>Node1&#45;&gt;Node3</title>
<path fill="none" stroke="midnightblue" d="M298.157,-107.6C263,-97.4728 211.458,-82.6265 179.907,-73.5383"/>
<polygon fill="midnightblue" stroke="midnightblue" points="297.476,-111.046 308.054,-110.45 299.414,-104.319 297.476,-111.046"/>
</g>
<!-- Node5 -->
<g id="node5" class="node"><title>Node5</title>
<g id="a_node5"><a xlink:href="CopulaDist_8h.html" target="_top" xlink:title="CopulaDist base class. ">
<polygon fill="white" stroke="black" points="212,-55.5 212,-73.5 282,-73.5 282,-55.5 212,-55.5"/>
<text text-anchor="middle" x="247" y="-62.3" font-family="Helvetica,sans-Serif" font-size="9.00">CopulaDist.h</text>
</a>
</g>
</g>
<!-- Node1&#45;&gt;Node5 -->
<g id="edge4" class="edge"><title>Node1&#45;&gt;Node5</title>
<path fill="none" stroke="midnightblue" d="M313.881,-105.328C297.185,-95.3856 274.808,-82.0598 260.644,-73.6253"/>
<polygon fill="midnightblue" stroke="midnightblue" points="312.1,-108.341 322.483,-110.45 315.682,-102.327 312.1,-108.341"/>
</g>
<!-- Node6 -->
<g id="node6" class="node"><title>Node6</title>
<g id="a_node6"><a xlink:href="GammaDist_8h.html" target="_top" xlink:title="GammaDist class declaration and templated methods. ">
<polygon fill="white" stroke="black" points="300,-55.5 300,-73.5 372,-73.5 372,-55.5 300,-55.5"/>
<text text-anchor="middle" x="336" y="-62.3" font-family="Helvetica,sans-Serif" font-size="9.00">GammaDist.h</text>
</a>
</g>
</g>
<!-- Node1&#45;&gt;Node6 -->
<g id="edge5" class="edge"><title>Node1&#45;&gt;Node6</title>
<path fill="none" stroke="midnightblue" d="M336,-100.175C336,-91.0945 336,-80.5949 336,-73.5496"/>
<polygon fill="midnightblue" stroke="midnightblue" points="332.5,-100.219 336,-110.219 339.5,-100.219 332.5,-100.219"/>
</g>
<!-- Node9 -->
<g id="node9" class="node"><title>Node9</title>
<g id="a_node9"><a xlink:href="NormalDist_8h.html" target="_top" xlink:title="NormalDist class declaration and templated methods. ">
<polygon fill="white" stroke="black" points="403,-55.5 403,-73.5 473,-73.5 473,-55.5 403,-55.5"/>
<text text-anchor="middle" x="438" y="-62.3" font-family="Helvetica,sans-Serif" font-size="9.00">NormalDist.h</text>
</a>
</g>
</g>
<!-- Node1&#45;&gt;Node9 -->
<g id="edge8" class="edge"><title>Node1&#45;&gt;Node9</title>
<path fill="none" stroke="midnightblue" d="M360.557,-105.74C379.77,-95.7567 405.905,-82.177 422.363,-73.6253"/>
<polygon fill="midnightblue" stroke="midnightblue" points="358.751,-102.734 351.492,-110.45 361.979,-108.945 358.751,-102.734"/>
</g>
<!-- Node12 -->
<g id="node12" class="node"><title>Node12</title>
<g id="a_node12"><a xlink:href="ParetoDist_8h.html" target="_top" xlink:title="ParetoDist class declaration and templated methods. ">
<polygon fill="white" stroke="black" points="630.5,-55.5 630.5,-73.5 697.5,-73.5 697.5,-55.5 630.5,-55.5"/>
<text text-anchor="middle" x="664" y="-62.3" font-family="Helvetica,sans-Serif" font-size="9.00">ParetoDist.h</text>
</a>
</g>
</g>
<!-- Node1&#45;&gt;Node12 -->
<g id="edge11" class="edge"><title>Node1&#45;&gt;Node12</title>
<path fill="none" stroke="midnightblue" d="M387.235,-110.221C454.989,-99.2732 572.522,-80.2814 630.158,-70.9683"/>
<polygon fill="midnightblue" stroke="midnightblue" points="386.523,-106.791 377.209,-111.841 387.64,-113.701 386.523,-106.791"/>
</g>
<!-- Node15 -->
<g id="node15" class="node"><title>Node15</title>
<g id="a_node15"><a xlink:href="SymmetricBetaDist_8h.html" target="_top" xlink:title="SymmetricBetaDist class declaration and templated methods. ">
<polygon fill="white" stroke="black" points="852.5,-55.5 852.5,-73.5 953.5,-73.5 953.5,-55.5 852.5,-55.5"/>
<text text-anchor="middle" x="903" y="-62.3" font-family="Helvetica,sans-Serif" font-size="9.00">SymmetricBetaDist.h</text>
</a>
</g>
</g>
<!-- Node1&#45;&gt;Node15 -->
<g id="edge14" class="edge"><title>Node1&#45;&gt;Node15</title>
<path fill="none" stroke="midnightblue" d="M387.228,-113.711C495.172,-103.621 744.882,-80.28 852.333,-70.2361"/>
<polygon fill="midnightblue" stroke="midnightblue" points="386.865,-110.23 377.234,-114.646 387.516,-117.2 386.865,-110.23"/>
</g>
<!-- Node4 -->
<g id="node4" class="node"><title>Node4</title>
<g id="a_node4"><a xlink:href="CompositeDist_8cpp.html" target="_top" xlink:title="CompositeDist and associated classes and nested classes. ">
<polygon fill="white" stroke="black" points="54,-0.5 54,-18.5 148,-18.5 148,-0.5 54,-0.5"/>
<text text-anchor="middle" x="101" y="-7.3" font-family="Helvetica,sans-Serif" font-size="9.00">CompositeDist.cpp</text>
</a>
</g>
</g>
<!-- Node3&#45;&gt;Node4 -->
<g id="edge3" class="edge"><title>Node3&#45;&gt;Node4</title>
<path fill="none" stroke="midnightblue" d="M136.914,-47.8223C127.66,-38.2051 116.196,-26.2917 108.746,-18.5496"/>
<polygon fill="midnightblue" stroke="midnightblue" points="134.575,-50.4398 144.031,-55.2188 139.619,-45.5862 134.575,-50.4398"/>
</g>
<!-- Node7 -->
<g id="node7" class="node"><title>Node7</title>
<g id="a_node7"><a xlink:href="GammaDist_8cpp.html" target="_top" xlink:title="GammaDist class definition. ">
<polygon fill="white" stroke="black" points="166,-0.5 166,-18.5 248,-18.5 248,-0.5 166,-0.5"/>
<text text-anchor="middle" x="207" y="-7.3" font-family="Helvetica,sans-Serif" font-size="9.00">GammaDist.cpp</text>
</a>
</g>
</g>
<!-- Node6&#45;&gt;Node7 -->
<g id="edge6" class="edge"><title>Node6&#45;&gt;Node7</title>
<path fill="none" stroke="midnightblue" d="M306.92,-51.5523C282.464,-41.5046 248.161,-27.4113 226.777,-18.6253"/>
<polygon fill="midnightblue" stroke="midnightblue" points="305.828,-54.8875 316.408,-55.4504 308.488,-48.4127 305.828,-54.8875"/>
</g>
<!-- Node8 -->
<g id="node8" class="node"><title>Node8</title>
<g id="a_node8"><a xlink:href="TruncatedGammaDist_8h.html" target="_top" xlink:title="TruncatedGammaDist class declaration and templated methods. ">
<polygon fill="white" stroke="black" points="266.5,-0.5 266.5,-18.5 379.5,-18.5 379.5,-0.5 266.5,-0.5"/>
<text text-anchor="middle" x="323" y="-7.3" font-family="Helvetica,sans-Serif" font-size="9.00">TruncatedGammaDist.h</text>
</a>
</g>
</g>
<!-- Node6&#45;&gt;Node8 -->
<g id="edge7" class="edge"><title>Node6&#45;&gt;Node8</title>
<path fill="none" stroke="midnightblue" d="M331.578,-45.4734C329.335,-36.3257 326.722,-25.6724 324.974,-18.5496"/>
<polygon fill="midnightblue" stroke="midnightblue" points="328.187,-46.3404 333.969,-55.2188 334.986,-44.6728 328.187,-46.3404"/>
</g>
<!-- Node10 -->
<g id="node10" class="node"><title>Node10</title>
<g id="a_node10"><a xlink:href="NormalDist_8cpp.html" target="_top" xlink:title="NormalDist class definition. ">
<polygon fill="white" stroke="black" points="398,-0.5 398,-18.5 478,-18.5 478,-0.5 398,-0.5"/>
<text text-anchor="middle" x="438" y="-7.3" font-family="Helvetica,sans-Serif" font-size="9.00">NormalDist.cpp</text>
</a>
</g>
</g>
<!-- Node9&#45;&gt;Node10 -->
<g id="edge9" class="edge"><title>Node9&#45;&gt;Node10</title>
<path fill="none" stroke="midnightblue" d="M438,-45.1746C438,-36.0945 438,-25.5949 438,-18.5496"/>
<polygon fill="midnightblue" stroke="midnightblue" points="434.5,-45.2187 438,-55.2188 441.5,-45.2188 434.5,-45.2187"/>
</g>
<!-- Node11 -->
<g id="node11" class="node"><title>Node11</title>
<g id="a_node11"><a xlink:href="TruncatedNormalDist_8h.html" target="_top" xlink:title="TruncatedNormalDist class declaration. ">
<polygon fill="white" stroke="black" points="496.5,-0.5 496.5,-18.5 607.5,-18.5 607.5,-0.5 496.5,-0.5"/>
<text text-anchor="middle" x="552" y="-7.3" font-family="Helvetica,sans-Serif" font-size="9.00">TruncatedNormalDist.h</text>
</a>
</g>
</g>
<!-- Node9&#45;&gt;Node11 -->
<g id="edge10" class="edge"><title>Node9&#45;&gt;Node11</title>
<path fill="none" stroke="midnightblue" d="M464.568,-51.1482C486.117,-41.1297 515.877,-27.2941 534.523,-18.6253"/>
<polygon fill="midnightblue" stroke="midnightblue" points="462.907,-48.0608 455.314,-55.4504 465.858,-54.4084 462.907,-48.0608"/>
</g>
<!-- Node13 -->
<g id="node13" class="node"><title>Node13</title>
<g id="a_node13"><a xlink:href="ParetoDist_8cpp.html" target="_top" xlink:title="ParetoDist class definition. ">
<polygon fill="white" stroke="black" points="625.5,-0.5 625.5,-18.5 702.5,-18.5 702.5,-0.5 625.5,-0.5"/>
<text text-anchor="middle" x="664" y="-7.3" font-family="Helvetica,sans-Serif" font-size="9.00">ParetoDist.cpp</text>
</a>
</g>
</g>
<!-- Node12&#45;&gt;Node13 -->
<g id="edge12" class="edge"><title>Node12&#45;&gt;Node13</title>
<path fill="none" stroke="midnightblue" d="M664,-45.1746C664,-36.0945 664,-25.5949 664,-18.5496"/>
<polygon fill="midnightblue" stroke="midnightblue" points="660.5,-45.2187 664,-55.2188 667.5,-45.2188 660.5,-45.2187"/>
</g>
<!-- Node14 -->
<g id="node14" class="node"><title>Node14</title>
<g id="a_node14"><a xlink:href="TruncatedParetoDist_8h.html" target="_top" xlink:title="TruncatedParetoDist class declaration and templated methods. ">
<polygon fill="white" stroke="black" points="721,-0.5 721,-18.5 829,-18.5 829,-0.5 721,-0.5"/>
<text text-anchor="middle" x="775" y="-7.3" font-family="Helvetica,sans-Serif" font-size="9.00">TruncatedParetoDist.h</text>
</a>
</g>
</g>
<!-- Node12&#45;&gt;Node14 -->
<g id="edge13" class="edge"><title>Node12&#45;&gt;Node14</title>
<path fill="none" stroke="midnightblue" d="M690.153,-51.0126C711.112,-41.0052 739.909,-27.2551 757.983,-18.6253"/>
<polygon fill="midnightblue" stroke="midnightblue" points="688.375,-47.9831 680.859,-55.4504 691.391,-54.3 688.375,-47.9831"/>
</g>
<!-- Node16 -->
<g id="node16" class="node"><title>Node16</title>
<g id="a_node16"><a xlink:href="SymmetricBetaDist_8cpp.html" target="_top" xlink:title="SymmetricBetaDist class definition. ">
<polygon fill="white" stroke="black" points="847.5,-0.5 847.5,-18.5 958.5,-18.5 958.5,-0.5 847.5,-0.5"/>
<text text-anchor="middle" x="903" y="-7.3" font-family="Helvetica,sans-Serif" font-size="9.00">SymmetricBetaDist.cpp</text>
</a>
</g>
</g>
<!-- Node15&#45;&gt;Node16 -->
<g id="edge15" class="edge"><title>Node15&#45;&gt;Node16</title>
<path fill="none" stroke="midnightblue" d="M903,-45.1746C903,-36.0945 903,-25.5949 903,-18.5496"/>
<polygon fill="midnightblue" stroke="midnightblue" points="899.5,-45.2187 903,-55.2188 906.5,-45.2188 899.5,-45.2187"/>
</g>
<!-- Node17 -->
<g id="node17" class="node"><title>Node17</title>
<g id="a_node17"><a xlink:href="ScaledSymmetricBetaDist_8h.html" target="_top" xlink:title="ScaledSymmetricBetaDist class declaration and templated methods. ">
<polygon fill="white" stroke="black" points="977,-0.5 977,-18.5 1107,-18.5 1107,-0.5 977,-0.5"/>
<text text-anchor="middle" x="1042" y="-7.3" font-family="Helvetica,sans-Serif" font-size="9.00">ScaledSymmetricBetaDist.h</text>
</a>
</g>
</g>
<!-- Node15&#45;&gt;Node17 -->
<g id="edge16" class="edge"><title>Node15&#45;&gt;Node17</title>
<path fill="none" stroke="midnightblue" d="M933.634,-51.8192C960.028,-41.7556 997.443,-27.4894 1020.69,-18.6253"/>
<polygon fill="midnightblue" stroke="midnightblue" points="932.208,-48.6173 924.111,-55.4504 934.702,-55.158 932.208,-48.6173"/>
</g>
</g>
</svg>
