<?xml version="1.0" encoding="UTF-8" standalone="no"?>
<!DOCTYPE svg PUBLIC "-//W3C//DTD SVG 1.1//EN"
 "http://www.w3.org/Graphics/SVG/1.1/DTD/svg11.dtd">
<!-- Generated by graphviz version 2.38.0 (20140413.2041)
 -->
<!-- Title: util.h Pages: 1 -->
<!--zoomable 202 -->
<svg id="main" version="1.1" xmlns="http://www.w3.org/2000/svg" xmlns:xlink="http://www.w3.org/1999/xlink" xml:space="preserve" onload="init(evt)">
<style type="text/css"><![CDATA[
.edge:hover path { stroke: red; }
.edge:hover polygon { stroke: red; fill: red; }
]]></style>
<script type="text/javascript"><![CDATA[
var edges = document.getElementsByTagName('g');
if (edges && edges.length) {
  for (var i=0;i<edges.length;i++) {
    if (edges[i].id.substr(0,4)=='edge') {
      edges[i].setAttribute('class','edge');
    }
  }
}
]]></script>
        <defs>
                <circle id="rim" cx="0" cy="0" r="7"/>
                <circle id="rim2" cx="0" cy="0" r="3.5"/>
                <g id="zoomPlus">
                        <use xlink:href="#rim" fill="#404040">
                                <set attributeName="fill" to="#808080" begin="zoomplus.mouseover" end="zoomplus.mouseout"/>
                        </use>
                        <path d="M-4,0h8M0,-4v8" fill="none" stroke="white" stroke-width="1.5" pointer-events="none"/>
                </g>
                <g id="zoomMin">
                        <use xlink:href="#rim" fill="#404040">
                                <set attributeName="fill" to="#808080" begin="zoomminus.mouseover" end="zoomminus.mouseout"/>
                        </use>
                        <path d="M-4,0h8" fill="none" stroke="white" stroke-width="1.5" pointer-events="none"/>
                </g>
                <g id="dirArrow">
                        <path fill="none" stroke="white" stroke-width="1.5" d="M0,-3.0v7 M-2.5,-0.5L0,-3.0L2.5,-0.5"/>
                </g>
               <g id="resetDef">
                       <use xlink:href="#rim2" fill="#404040">
                               <set attributeName="fill" to="#808080" begin="reset.mouseover" end="reset.mouseout"/>
                       </use>
               </g>
        </defs>

<script type="text/javascript">
var viewWidth = 1260;
var viewHeight = 202;
var sectionId = 'dynsection-1';
</script>
<script xlink:href="svgpan.js"/>
<svg id="graph" class="graph">
<g id="viewport">
<title>util.h</title>
<polygon fill="white" stroke="none" points="-4,4 -4,-198 1256,-198 1256,4 -4,4"/>
<!-- Node1 -->
<g id="node1" class="node"><title>Node1</title>
<polygon fill="#bfbfbf" stroke="black" points="328,-175.5 328,-193.5 364,-193.5 364,-175.5 328,-175.5"/>
<text text-anchor="middle" x="346" y="-182.3" font-family="Helvetica,sans-Serif" font-size="9.00">util.h</text>
</g>
<!-- Node2 -->
<g id="node2" class="node"><title>Node2</title>
<g id="a_node2"><a xlink:href="GammaDist_8cpp.html" target="_top" xlink:title="GammaDist class defintion. ">
<polygon fill="white" stroke="black" points="308,-5.5 308,-23.5 390,-23.5 390,-5.5 308,-5.5"/>
<text text-anchor="middle" x="349" y="-12.3" font-family="Helvetica,sans-Serif" font-size="9.00">GammaDist.cpp</text>
</a>
</g>
</g>
<!-- Node1&#45;&gt;Node2 -->
<g id="edge1" class="edge"><title>Node1&#45;&gt;Node2</title>
<path fill="none" stroke="midnightblue" d="M346.325,-165.28C346.973,-129.012 348.4,-49.0749 348.857,-23.5217"/>
<polygon fill="midnightblue" stroke="midnightblue" points="342.824,-165.336 346.145,-175.397 349.823,-165.461 342.824,-165.336"/>
</g>
<!-- Node3 -->
<g id="node3" class="node"><title>Node3</title>
<g id="a_node3"><a xlink:href="util_8cpp.html" target="_top" xlink:title="util.cpp">
<polygon fill="white" stroke="black" points="557,-120.5 557,-138.5 603,-138.5 603,-120.5 557,-120.5"/>
<text text-anchor="middle" x="580" y="-127.3" font-family="Helvetica,sans-Serif" font-size="9.00">util.cpp</text>
</a>
</g>
</g>
<!-- Node1&#45;&gt;Node3 -->
<g id="edge2" class="edge"><title>Node1&#45;&gt;Node3</title>
<path fill="none" stroke="midnightblue" d="M374.276,-177.67C413.42,-169.508 486.279,-153.989 548,-139 550.905,-138.295 553.95,-137.525 556.958,-136.747"/>
<polygon fill="midnightblue" stroke="midnightblue" points="373.246,-174.309 364.167,-179.77 374.67,-181.163 373.246,-174.309"/>
</g>
<!-- Node4 -->
<g id="node4" class="node"><title>Node4</title>
<g id="a_node4"><a xlink:href="CompositeDist_8h.html" target="_top" xlink:title="The Frank copula computations. ">
<polygon fill="white" stroke="black" points="12,-65.5 12,-83.5 96,-83.5 96,-65.5 12,-65.5"/>
<text text-anchor="middle" x="54" y="-72.3" font-family="Helvetica,sans-Serif" font-size="9.00">CompositeDist.h</text>
</a>
</g>
</g>
<!-- Node1&#45;&gt;Node4 -->
<g id="edge3" class="edge"><title>Node1&#45;&gt;Node4</title>
<path fill="none" stroke="midnightblue" d="M317.799,-182.07C275.169,-178.966 192.649,-169.232 130,-139 100.888,-124.952 73.5469,-97.2908 61.076,-83.5872"/>
<polygon fill="midnightblue" stroke="midnightblue" points="317.778,-185.576 327.986,-182.739 318.237,-178.591 317.778,-185.576"/>
</g>
<!-- Node6 -->
<g id="node6" class="node"><title>Node6</title>
<g id="a_node6"><a xlink:href="CopulaDist_8h.html" target="_top" xlink:title="CopulaDist base class. ">
<polygon fill="white" stroke="black" points="374,-65.5 374,-83.5 444,-83.5 444,-65.5 374,-65.5"/>
<text text-anchor="middle" x="409" y="-72.3" font-family="Helvetica,sans-Serif" font-size="9.00">CopulaDist.h</text>
</a>
</g>
</g>
<!-- Node1&#45;&gt;Node6 -->
<g id="edge5" class="edge"><title>Node1&#45;&gt;Node6</title>
<path fill="none" stroke="midnightblue" d="M355.904,-166.522C369.641,-142.973 393.944,-101.311 404.21,-83.7118"/>
<polygon fill="midnightblue" stroke="midnightblue" points="352.751,-164.981 350.735,-175.382 358.797,-168.508 352.751,-164.981"/>
</g>
<!-- Node7 -->
<g id="node7" class="node"><title>Node7</title>
<g id="a_node7"><a xlink:href="MultivariateDist_8h.html" target="_top" xlink:title="MultivariateDist base class. ">
<polygon fill="white" stroke="black" points="139.5,-120.5 139.5,-138.5 226.5,-138.5 226.5,-120.5 139.5,-120.5"/>
<text text-anchor="middle" x="183" y="-127.3" font-family="Helvetica,sans-Serif" font-size="9.00">MultivariateDist.h</text>
</a>
</g>
</g>
<!-- Node1&#45;&gt;Node7 -->
<g id="edge6" class="edge"><title>Node1&#45;&gt;Node7</title>
<path fill="none" stroke="midnightblue" d="M318.191,-174.458C287.187,-164.377 237.507,-148.223 207.785,-138.559"/>
<polygon fill="midnightblue" stroke="midnightblue" points="317.341,-177.862 327.933,-177.626 319.506,-171.205 317.341,-177.862"/>
</g>
<!-- Node10 -->
<g id="node10" class="node"><title>Node10</title>
<g id="a_node10"><a xlink:href="mvn__cdf_8h.html" target="_top" xlink:title="Numerical computation of multivariate normal cdfs in 2,3 and higher dims. ">
<polygon fill="white" stroke="black" points="254.5,-120.5 254.5,-138.5 313.5,-138.5 313.5,-120.5 254.5,-120.5"/>
<text text-anchor="middle" x="284" y="-127.3" font-family="Helvetica,sans-Serif" font-size="9.00">mvn_cdf.h</text>
</a>
</g>
</g>
<!-- Node1&#45;&gt;Node10 -->
<g id="edge11" class="edge"><title>Node1&#45;&gt;Node10</title>
<path fill="none" stroke="midnightblue" d="M328.951,-168.926C317.529,-159.162 302.915,-146.669 293.505,-138.625"/>
<polygon fill="midnightblue" stroke="midnightblue" points="326.708,-171.613 336.584,-175.45 331.257,-166.292 326.708,-171.613"/>
</g>
<!-- Node12 -->
<g id="node12" class="node"><title>Node12</title>
<g id="a_node12"><a xlink:href="UnivariateDist_8h.html" target="_top" xlink:title="UnivariateDist base class. ">
<polygon fill="white" stroke="black" points="457,-120.5 457,-138.5 539,-138.5 539,-120.5 457,-120.5"/>
<text text-anchor="middle" x="498" y="-127.3" font-family="Helvetica,sans-Serif" font-size="9.00">UnivariateDist.h</text>
</a>
</g>
</g>
<!-- Node1&#45;&gt;Node12 -->
<g id="edge14" class="edge"><title>Node1&#45;&gt;Node12</title>
<path fill="none" stroke="midnightblue" d="M373.579,-173.884C402.63,-163.754 447.859,-147.983 475.038,-138.506"/>
<polygon fill="midnightblue" stroke="midnightblue" points="372.323,-170.615 364.033,-177.212 374.628,-177.224 372.323,-170.615"/>
</g>
<!-- Node5 -->
<g id="node5" class="node"><title>Node5</title>
<g id="a_node5"><a xlink:href="CompositeDist_8cpp.html" target="_top" xlink:title="CompositeDist and associated classes and nested classes. ">
<polygon fill="white" stroke="black" points="0,-5.5 0,-23.5 94,-23.5 94,-5.5 0,-5.5"/>
<text text-anchor="middle" x="47" y="-12.3" font-family="Helvetica,sans-Serif" font-size="9.00">CompositeDist.cpp</text>
</a>
</g>
</g>
<!-- Node4&#45;&gt;Node5 -->
<g id="edge4" class="edge"><title>Node4&#45;&gt;Node5</title>
<path fill="none" stroke="midnightblue" d="M51.7931,-55.2144C50.5258,-44.7141 48.9954,-32.0332 48.0104,-23.8718"/>
<polygon fill="midnightblue" stroke="midnightblue" points="48.3536,-55.9268 53.0267,-65.4353 55.3032,-55.088 48.3536,-55.9268"/>
</g>
<!-- Node7&#45;&gt;Node4 -->
<g id="edge7" class="edge"><title>Node7&#45;&gt;Node4</title>
<path fill="none" stroke="midnightblue" d="M153.92,-116.552C129.464,-106.505 95.1614,-92.4113 73.7767,-83.6253"/>
<polygon fill="midnightblue" stroke="midnightblue" points="152.828,-119.888 163.408,-120.45 155.488,-113.413 152.828,-119.888"/>
</g>
<!-- Node7&#45;&gt;Node6 -->
<g id="edge8" class="edge"><title>Node7&#45;&gt;Node6</title>
<path fill="none" stroke="midnightblue" d="M227.275,-118.117C270.483,-107.984 335.305,-92.7826 374.723,-83.5383"/>
<polygon fill="midnightblue" stroke="midnightblue" points="226.261,-114.76 217.325,-120.45 227.86,-121.575 226.261,-114.76"/>
</g>
<!-- Node8 -->
<g id="node8" class="node"><title>Node8</title>
<g id="a_node8"><a xlink:href="MultivariateNormalDist_8h.html" target="_top" xlink:title="MultivariateNormalDist base class. ">
<polygon fill="white" stroke="black" points="114.5,-65.5 114.5,-83.5 231.5,-83.5 231.5,-65.5 114.5,-65.5"/>
<text text-anchor="middle" x="173" y="-72.3" font-family="Helvetica,sans-Serif" font-size="9.00">MultivariateNormalDist.h</text>
</a>
</g>
</g>
<!-- Node7&#45;&gt;Node8 -->
<g id="edge9" class="edge"><title>Node7&#45;&gt;Node8</title>
<path fill="none" stroke="midnightblue" d="M179.542,-110.175C177.829,-101.094 175.848,-90.5949 174.519,-83.5496"/>
<polygon fill="midnightblue" stroke="midnightblue" points="176.144,-111.041 181.438,-120.219 183.023,-109.743 176.144,-111.041"/>
</g>
<!-- Node9 -->
<g id="node9" class="node"><title>Node9</title>
<g id="a_node9"><a xlink:href="TruncatedMultivariateNormalDist_8h.html" target="_top" xlink:title="TruncatedMultivariateNormalDist class declaration. ">
<polygon fill="white" stroke="black" points="112.5,-0.5 112.5,-28.5 247.5,-28.5 247.5,-0.5 112.5,-0.5"/>
<text text-anchor="start" x="120.5" y="-17.3" font-family="Helvetica,sans-Serif" font-size="9.00">TruncatedMultivariateNormal</text>
<text text-anchor="middle" x="180" y="-7.3" font-family="Helvetica,sans-Serif" font-size="9.00">Dist.h</text>
</a>
</g>
</g>
<!-- Node8&#45;&gt;Node9 -->
<g id="edge10" class="edge"><title>Node8&#45;&gt;Node9</title>
<path fill="none" stroke="midnightblue" d="M175.194,-55.3209C176.229,-46.747 177.441,-36.6999 178.39,-28.8428"/>
<polygon fill="midnightblue" stroke="midnightblue" points="171.697,-55.088 173.973,-65.4353 178.646,-55.9268 171.697,-55.088"/>
</g>
<!-- Node10&#45;&gt;Node8 -->
<g id="edge13" class="edge"><title>Node10&#45;&gt;Node8</title>
<path fill="none" stroke="midnightblue" d="M257.847,-116.013C236.888,-106.005 208.091,-92.2551 190.017,-83.6253"/>
<polygon fill="midnightblue" stroke="midnightblue" points="256.609,-119.3 267.141,-120.45 259.625,-112.983 256.609,-119.3"/>
</g>
<!-- Node11 -->
<g id="node11" class="node"><title>Node11</title>
<g id="a_node11"><a xlink:href="mvn__cdf_8cpp.html" target="_top" xlink:title="NormalDist class defintion. ">
<polygon fill="white" stroke="black" points="250,-65.5 250,-83.5 318,-83.5 318,-65.5 250,-65.5"/>
<text text-anchor="middle" x="284" y="-72.3" font-family="Helvetica,sans-Serif" font-size="9.00">mvn_cdf.cpp</text>
</a>
</g>
</g>
<!-- Node10&#45;&gt;Node11 -->
<g id="edge12" class="edge"><title>Node10&#45;&gt;Node11</title>
<path fill="none" stroke="midnightblue" d="M284,-110.175C284,-101.094 284,-90.5949 284,-83.5496"/>
<polygon fill="midnightblue" stroke="midnightblue" points="280.5,-110.219 284,-120.219 287.5,-110.219 280.5,-110.219"/>
</g>
<!-- Node12&#45;&gt;Node4 -->
<g id="edge16" class="edge"><title>Node12&#45;&gt;Node4</title>
<path fill="none" stroke="midnightblue" d="M446.761,-123.563C371.64,-116.13 227.266,-101.099 105,-84 102.155,-83.6022 99.2248,-83.171 96.2746,-82.721"/>
<polygon fill="midnightblue" stroke="midnightblue" points="446.597,-127.064 456.892,-124.561 447.283,-120.098 446.597,-127.064"/>
</g>
<!-- Node12&#45;&gt;Node6 -->
<g id="edge17" class="edge"><title>Node12&#45;&gt;Node6</title>
<path fill="none" stroke="midnightblue" d="M475.881,-115.328C459.185,-105.386 436.808,-92.0598 422.644,-83.6253"/>
<polygon fill="midnightblue" stroke="midnightblue" points="474.1,-118.341 484.483,-120.45 477.682,-112.327 474.1,-118.341"/>
</g>
<!-- Node13 -->
<g id="node13" class="node"><title>Node13</title>
<g id="a_node13"><a xlink:href="UnivariateDist_8cpp.html" target="_top" xlink:title="UnivariateDist base class method definition. ">
<polygon fill="white" stroke="black" points="552,-65.5 552,-83.5 644,-83.5 644,-65.5 552,-65.5"/>
<text text-anchor="middle" x="598" y="-72.3" font-family="Helvetica,sans-Serif" font-size="9.00">UnivariateDist.cpp</text>
</a>
</g>
</g>
<!-- Node12&#45;&gt;Node13 -->
<g id="edge15" class="edge"><title>Node12&#45;&gt;Node13</title>
<path fill="none" stroke="midnightblue" d="M522.075,-115.74C540.912,-105.757 566.534,-92.177 582.669,-83.6253"/>
<polygon fill="midnightblue" stroke="midnightblue" points="520.385,-112.675 513.188,-120.45 523.663,-118.86 520.385,-112.675"/>
</g>
<!-- Node14 -->
<g id="node14" class="node"><title>Node14</title>
<g id="a_node14"><a xlink:href="GammaDist_8h.html" target="_top" xlink:title="GammaDist class declaration and templated methods. ">
<polygon fill="white" stroke="black" points="462,-65.5 462,-83.5 534,-83.5 534,-65.5 462,-65.5"/>
<text text-anchor="middle" x="498" y="-72.3" font-family="Helvetica,sans-Serif" font-size="9.00">GammaDist.h</text>
</a>
</g>
</g>
<!-- Node12&#45;&gt;Node14 -->
<g id="edge18" class="edge"><title>Node12&#45;&gt;Node14</title>
<path fill="none" stroke="midnightblue" d="M498,-110.175C498,-101.094 498,-90.5949 498,-83.5496"/>
<polygon fill="midnightblue" stroke="midnightblue" points="494.5,-110.219 498,-120.219 501.5,-110.219 494.5,-110.219"/>
</g>
<!-- Node16 -->
<g id="node16" class="node"><title>Node16</title>
<g id="a_node16"><a xlink:href="NormalDist_8h.html" target="_top" xlink:title="NormalDist class declaration and templated methods. ">
<polygon fill="white" stroke="black" points="662,-65.5 662,-83.5 732,-83.5 732,-65.5 662,-65.5"/>
<text text-anchor="middle" x="697" y="-72.3" font-family="Helvetica,sans-Serif" font-size="9.00">NormalDist.h</text>
</a>
</g>
</g>
<!-- Node12&#45;&gt;Node16 -->
<g id="edge21" class="edge"><title>Node12&#45;&gt;Node16</title>
<path fill="none" stroke="midnightblue" d="M537.953,-117.859C575.993,-107.728 632.402,-92.7046 666.818,-83.5383"/>
<polygon fill="midnightblue" stroke="midnightblue" points="536.986,-114.495 528.224,-120.45 538.788,-121.259 536.986,-114.495"/>
</g>
<!-- Node19 -->
<g id="node19" class="node"><title>Node19</title>
<g id="a_node19"><a xlink:href="ParetoDist_8h.html" target="_top" xlink:title="ParetoDist class declaration and templated methods. ">
<polygon fill="white" stroke="black" points="775.5,-65.5 775.5,-83.5 842.5,-83.5 842.5,-65.5 775.5,-65.5"/>
<text text-anchor="middle" x="809" y="-72.3" font-family="Helvetica,sans-Serif" font-size="9.00">ParetoDist.h</text>
</a>
</g>
</g>
<!-- Node12&#45;&gt;Node19 -->
<g id="edge24" class="edge"><title>Node12&#45;&gt;Node19</title>
<path fill="none" stroke="midnightblue" d="M549.168,-119.78C613.088,-108.887 720.671,-90.5529 775.172,-81.2649"/>
<polygon fill="midnightblue" stroke="midnightblue" points="548.568,-116.332 539.298,-121.462 549.744,-123.232 548.568,-116.332"/>
</g>
<!-- Node22 -->
<g id="node22" class="node"><title>Node22</title>
<g id="a_node22"><a xlink:href="SymmetricBetaDist_8h.html" target="_top" xlink:title="SymmetricBetaDist class declaration and templated methods. ">
<polygon fill="white" stroke="black" points="997.5,-65.5 997.5,-83.5 1098.5,-83.5 1098.5,-65.5 997.5,-65.5"/>
<text text-anchor="middle" x="1048" y="-72.3" font-family="Helvetica,sans-Serif" font-size="9.00">SymmetricBetaDist.h</text>
</a>
</g>
</g>
<!-- Node12&#45;&gt;Node22 -->
<g id="edge27" class="edge"><title>Node12&#45;&gt;Node22</title>
<path fill="none" stroke="midnightblue" d="M549.301,-119.932C719.372,-98.2723 908.83,-84.4986 997.467,-78.6616"/>
<polygon fill="midnightblue" stroke="midnightblue" points="548.634,-116.489 539.162,-121.235 549.526,-123.431 548.634,-116.489"/>
</g>
<!-- Node14&#45;&gt;Node2 -->
<g id="edge19" class="edge"><title>Node14&#45;&gt;Node2</title>
<path fill="none" stroke="midnightblue" d="M467.637,-61.681C438.57,-50.3663 395.485,-33.5948 370.022,-23.6831"/>
<polygon fill="midnightblue" stroke="midnightblue" points="466.694,-65.0694 477.282,-65.4353 469.233,-58.5462 466.694,-65.0694"/>
</g>
<!-- Node15 -->
<g id="node15" class="node"><title>Node15</title>
<g id="a_node15"><a xlink:href="TruncatedGammaDist_8h.html" target="_top" xlink:title="TruncatedGammaDist class declaration and templated methods. ">
<polygon fill="white" stroke="black" points="411.5,-5.5 411.5,-23.5 524.5,-23.5 524.5,-5.5 411.5,-5.5"/>
<text text-anchor="middle" x="468" y="-12.3" font-family="Helvetica,sans-Serif" font-size="9.00">TruncatedGammaDist.h</text>
</a>
</g>
</g>
<!-- Node14&#45;&gt;Node15 -->
<g id="edge20" class="edge"><title>Node14&#45;&gt;Node15</title>
<path fill="none" stroke="midnightblue" d="M489.229,-56.5425C483.673,-45.8015 476.731,-32.3805 472.33,-23.8718"/>
<polygon fill="midnightblue" stroke="midnightblue" points="486.126,-58.1612 493.829,-65.4353 492.343,-54.9452 486.126,-58.1612"/>
</g>
<!-- Node17 -->
<g id="node17" class="node"><title>Node17</title>
<g id="a_node17"><a xlink:href="NormalDist_8cpp.html" target="_top" xlink:title="NormalDist class defintion. ">
<polygon fill="white" stroke="black" points="543,-5.5 543,-23.5 623,-23.5 623,-5.5 543,-5.5"/>
<text text-anchor="middle" x="583" y="-12.3" font-family="Helvetica,sans-Serif" font-size="9.00">NormalDist.cpp</text>
</a>
</g>
</g>
<!-- Node16&#45;&gt;Node17 -->
<g id="edge22" class="edge"><title>Node16&#45;&gt;Node17</title>
<path fill="none" stroke="midnightblue" d="M672,-60.7806C649.812,-49.4922 618.055,-33.3351 599.084,-23.6831"/>
<polygon fill="midnightblue" stroke="midnightblue" points="670.649,-64.0202 681.149,-65.4353 673.823,-57.7812 670.649,-64.0202"/>
</g>
<!-- Node18 -->
<g id="node18" class="node"><title>Node18</title>
<g id="a_node18"><a xlink:href="TruncatedNormalDist_8h.html" target="_top" xlink:title="TruncatedNormalDist class declaration. ">
<polygon fill="white" stroke="black" points="641.5,-5.5 641.5,-23.5 752.5,-23.5 752.5,-5.5 641.5,-5.5"/>
<text text-anchor="middle" x="697" y="-12.3" font-family="Helvetica,sans-Serif" font-size="9.00">TruncatedNormalDist.h</text>
</a>
</g>
</g>
<!-- Node16&#45;&gt;Node18 -->
<g id="edge23" class="edge"><title>Node16&#45;&gt;Node18</title>
<path fill="none" stroke="midnightblue" d="M697,-55.2144C697,-44.7141 697,-32.0332 697,-23.8718"/>
<polygon fill="midnightblue" stroke="midnightblue" points="693.5,-55.4353 697,-65.4353 700.5,-55.4354 693.5,-55.4353"/>
</g>
<!-- Node20 -->
<g id="node20" class="node"><title>Node20</title>
<g id="a_node20"><a xlink:href="ParetoDist_8cpp.html" target="_top" xlink:title="ParetoDist class defintion. ">
<polygon fill="white" stroke="black" points="770.5,-5.5 770.5,-23.5 847.5,-23.5 847.5,-5.5 770.5,-5.5"/>
<text text-anchor="middle" x="809" y="-12.3" font-family="Helvetica,sans-Serif" font-size="9.00">ParetoDist.cpp</text>
</a>
</g>
</g>
<!-- Node19&#45;&gt;Node20 -->
<g id="edge25" class="edge"><title>Node19&#45;&gt;Node20</title>
<path fill="none" stroke="midnightblue" d="M809,-55.2144C809,-44.7141 809,-32.0332 809,-23.8718"/>
<polygon fill="midnightblue" stroke="midnightblue" points="805.5,-55.4353 809,-65.4353 812.5,-55.4354 805.5,-55.4353"/>
</g>
<!-- Node21 -->
<g id="node21" class="node"><title>Node21</title>
<g id="a_node21"><a xlink:href="TruncatedParetoDist_8h.html" target="_top" xlink:title="ParetoDist class declaration and templated methods. ">
<polygon fill="white" stroke="black" points="866,-5.5 866,-23.5 974,-23.5 974,-5.5 866,-5.5"/>
<text text-anchor="middle" x="920" y="-12.3" font-family="Helvetica,sans-Serif" font-size="9.00">TruncatedParetoDist.h</text>
</a>
</g>
</g>
<!-- Node19&#45;&gt;Node21 -->
<g id="edge26" class="edge"><title>Node19&#45;&gt;Node21</title>
<path fill="none" stroke="midnightblue" d="M833.342,-60.7806C854.946,-49.4922 885.867,-33.3351 904.339,-23.6831"/>
<polygon fill="midnightblue" stroke="midnightblue" points="831.676,-57.7021 824.434,-65.4353 834.918,-63.9062 831.676,-57.7021"/>
</g>
<!-- Node23 -->
<g id="node23" class="node"><title>Node23</title>
<g id="a_node23"><a xlink:href="SymmetricBetaDist_8cpp.html" target="_top" xlink:title="SymmetricBetaDist class defintion. ">
<polygon fill="white" stroke="black" points="992.5,-5.5 992.5,-23.5 1103.5,-23.5 1103.5,-5.5 992.5,-5.5"/>
<text text-anchor="middle" x="1048" y="-12.3" font-family="Helvetica,sans-Serif" font-size="9.00">SymmetricBetaDist.cpp</text>
</a>
</g>
</g>
<!-- Node22&#45;&gt;Node23 -->
<g id="edge28" class="edge"><title>Node22&#45;&gt;Node23</title>
<path fill="none" stroke="midnightblue" d="M1048,-55.2144C1048,-44.7141 1048,-32.0332 1048,-23.8718"/>
<polygon fill="midnightblue" stroke="midnightblue" points="1044.5,-55.4353 1048,-65.4353 1051.5,-55.4354 1044.5,-55.4353"/>
</g>
<!-- Node24 -->
<g id="node24" class="node"><title>Node24</title>
<g id="a_node24"><a xlink:href="ScaledSymmetricBetaDist_8h.html" target="_top" xlink:title="SymmetricBetaDist class declaration and templated methods. ">
<polygon fill="white" stroke="black" points="1122,-5.5 1122,-23.5 1252,-23.5 1252,-5.5 1122,-5.5"/>
<text text-anchor="middle" x="1187" y="-12.3" font-family="Helvetica,sans-Serif" font-size="9.00">ScaledSymmetricBetaDist.h</text>
</a>
</g>
</g>
<!-- Node22&#45;&gt;Node24 -->
<g id="edge29" class="edge"><title>Node22&#45;&gt;Node24</title>
<path fill="none" stroke="midnightblue" d="M1076.68,-61.5324C1103.79,-50.22 1143.74,-33.5515 1167.39,-23.6831"/>
<polygon fill="midnightblue" stroke="midnightblue" points="1075.21,-58.3543 1067.33,-65.4353 1077.9,-64.8145 1075.21,-58.3543"/>
</g>
</g>
</svg>
        <g id="navigator" transform="translate(0 0)" fill="#404254">
                <rect fill="#f2f5e9" fill-opacity="0.5" stroke="#606060" stroke-width=".5" x="0" y="0" width="60" height="60"/>
                <use id="zoomplus" xlink:href="#zoomPlus" x="17" y="9" onmousedown="handleZoom(evt,'in')"/>
                <use id="zoomminus" xlink:href="#zoomMin" x="42" y="9" onmousedown="handleZoom(evt,'out')"/>
                <use id="reset" xlink:href="#resetDef" x="30" y="36" onmousedown="handleReset()"/>
                <g id="arrowUp" xlink:href="#dirArrow" transform="translate(30 24)" onmousedown="handlePan(0,-1)">
                  <use xlink:href="#rim" fill="#404040">
                        <set attributeName="fill" to="#808080" begin="arrowUp.mouseover" end="arrowUp.mouseout"/>
                  </use>
                  <path fill="none" stroke="white" stroke-width="1.5" d="M0,-3.0v7 M-2.5,-0.5L0,-3.0L2.5,-0.5"/>
                </g>
                <g id="arrowRight" xlink:href="#dirArrow" transform="rotate(90) translate(36 -43)" onmousedown="handlePan(1,0)">
                  <use xlink:href="#rim" fill="#404040">
                        <set attributeName="fill" to="#808080" begin="arrowRight.mouseover" end="arrowRight.mouseout"/>
                  </use>
                  <path fill="none" stroke="white" stroke-width="1.5" d="M0,-3.0v7 M-2.5,-0.5L0,-3.0L2.5,-0.5"/>
                </g>
                <g id="arrowDown" xlink:href="#dirArrow" transform="rotate(180) translate(-30 -48)" onmousedown="handlePan(0,1)">
                  <use xlink:href="#rim" fill="#404040">
                        <set attributeName="fill" to="#808080" begin="arrowDown.mouseover" end="arrowDown.mouseout"/>
                  </use>
                  <path fill="none" stroke="white" stroke-width="1.5" d="M0,-3.0v7 M-2.5,-0.5L0,-3.0L2.5,-0.5"/>
                </g>
                <g id="arrowLeft" xlink:href="#dirArrow" transform="rotate(270) translate(-36 17)" onmousedown="handlePan(-1,0)">
                  <use xlink:href="#rim" fill="#404040">
                        <set attributeName="fill" to="#808080" begin="arrowLeft.mouseover" end="arrowLeft.mouseout"/>
                  </use>
                  <path fill="none" stroke="white" stroke-width="1.5" d="M0,-3.0v7 M-2.5,-0.5L0,-3.0L2.5,-0.5"/>
                </g>
        </g>
        <svg viewBox="0 0 15 15" width="100%" height="30px" preserveAspectRatio="xMaxYMin meet">
         <g id="arrow_out" transform="scale(0.3 0.3)">
          <a xlink:href="util_8h__dep__incl_org.svg" target="_base">
           <rect id="button" ry="5" rx="5" y="6" x="6" height="38" width="38"
                fill="#f2f5e9" fill-opacity="0.5" stroke="#606060" stroke-width="1.0"/>
           <path id="arrow"
             d="M 11.500037,31.436501 C 11.940474,20.09759 22.043105,11.32322 32.158766,21.979434 L 37.068811,17.246167 C 37.068811,17.246167 37.088388,32 37.088388,32 L 22.160133,31.978069 C 22.160133,31.978069 26.997745,27.140456 26.997745,27.140456 C 18.528582,18.264221 13.291696,25.230495 11.500037,31.436501 z"
             style="fill:#404040;"/>
          </a>
         </g>
        </svg>
</svg>
